<?xml version="1.0" encoding="UTF-8" standalone="no"?>
<!-- Created with Inkscape (http://www.inkscape.org/) -->

<svg
   xmlns:dc="http://purl.org/dc/elements/1.1/"
   xmlns:cc="http://creativecommons.org/ns#"
   xmlns:rdf="http://www.w3.org/1999/02/22-rdf-syntax-ns#"
   xmlns:svg="http://www.w3.org/2000/svg"
   xmlns="http://www.w3.org/2000/svg"
   xmlns:sodipodi="http://sodipodi.sourceforge.net/DTD/sodipodi-0.dtd"
   xmlns:inkscape="http://www.inkscape.org/namespaces/inkscape"
   width="25.452669mm"
   height="36.842789mm"
   viewBox="0 0 90.186621 130.54531"
   id="svg3885"
   version="1.1"
   inkscape:version="0.91 r"
   sodipodi:docname="1.svg">
  <defs
     id="defs3887" />
  <sodipodi:namedview
     id="base"
     pagecolor="#ffffff"
     bordercolor="#666666"
     borderopacity="1.0"
     inkscape:pageopacity="0.0"
     inkscape:pageshadow="2"
     inkscape:zoom="4.8150732"
     inkscape:cx="17.52662"
     inkscape:cy="95.002706"
     inkscape:document-units="px"
     inkscape:current-layer="layer1"
     showgrid="false"
     inkscape:window-width="2560"
     inkscape:window-height="1388"
     inkscape:window-x="0"
     inkscape:window-y="0"
     inkscape:window-maximized="1"
     fit-margin-top="1"
     fit-margin-left="1"
     fit-margin-right="1"
     fit-margin-bottom="1" />
  <metadata
     id="metadata3890">
    <rdf:RDF>
      <cc:Work
         rdf:about="">
        <dc:format>image/svg+xml</dc:format>
        <dc:type
           rdf:resource="http://purl.org/dc/dcmitype/StillImage" />
        <dc:title></dc:title>
      </cc:Work>
    </rdf:RDF>
  </metadata>
  <g
     inkscape:label="Layer 1"
     inkscape:groupmode="layer"
     id="layer1"
     transform="translate(-169.976,-317.49134)">
    <path
       inkscape:connector-curvature="0"
       d="m 205.24388,402.87565 -3.29097,-0.77462 -0.0803,0.70808 -1.15372,1.28925 0.92888,0.37051 -1.19807,3.42486 -5.81605,-1.61376 -0.74529,3.30265 c 0.23944,0.21911 0.10127,0.65537 0.41845,0.80623 0.76836,0.36358 1.64396,0.25798 2.42046,0.59539 0.38049,0.13116 0.82121,0.17906 1.12045,0.48065 0.17679,0.27147 0.49749,0.37193 0.80694,0.25407 0.50674,-0.12725 1.04252,-0.28605 1.56095,-0.11745 0.21062,0.0841 0.18451,0.20819 0.0815,0.30168 -0.1031,0.0935 -0.26697,0.16638 -0.39435,0.14543 -0.30331,0.19728 -0.21998,0.6359 -0.24276,0.94618 0.0267,0.36374 -0.034,0.70452 -0.2086,1.02714 -0.0375,0.0667 -0.0449,0.11446 -0.0586,0.14484 l 0.0866,0.0365 c 0,0 -0.12038,0.0882 -0.0866,-0.0365 l -1.71806,-0.41626 -0.80512,1.5966 -2.25798,-0.66542 -1.00032,3.94115 0.23251,0.42919 -1.59987,1.98606 -1.67237,-1.2055 -2.27151,-2.82404 -1.08365,1.61999 -2.74072,-1.90092 -0.86954,0.99893 -0.68471,0.0295 -0.72691,-1.63581 0.62523,-1.56742 -0.76729,-1.45004 -4.08876,2.57441 -0.78393,-0.64923 0.0938,1.11413 1.28274,0.41097 1.41222,2.27931 c -0.16075,0.25721 -0.43486,0.42479 -0.62042,0.62728 0.24425,0.31368 0.001,0.59386 -0.22582,0.81839 -0.21953,0.26713 0.29715,0.59348 -0.0283,0.82985 -0.2065,0.36096 -0.74595,0.30269 -0.93946,0.66816 -0.0511,0.29841 0.0492,0.60377 0.23861,0.83543 0.0992,0.16083 0.0385,0.28097 -0.0514,0.38309 -0.0901,0.10211 -0.22544,0.20077 -0.34217,0.26727 -0.67047,0.0452 -1.27519,0.14379 -1.97892,-0.18405 -0.32546,0.18127 -0.62917,0.53775 -1.03825,0.49419 -0.25801,-0.0868 -0.50165,-0.19851 -0.75472,-0.30118 l 0.006,0.23801 0.0298,1.02128 -0.0455,0.11637 0.059,1.03289 -0.0365,0.0864 -0.0293,0.32503 0.0526,0.45836 -0.0293,0.32502 0.0302,1.35782 0.006,0.238 -0.0858,1.31155 0.11631,0.0459 0.1395,0.15654 0.11627,0.0457 0.007,0.23805 0.0868,0.0366 -0.11534,0.29042 -0.0868,-0.0366 -0.0364,0.0863 -0.0457,0.11632 0.0525,0.12182 0.11631,0.0457 -0.0364,0.0863 0.0866,0.0365 -0.0458,0.11634 -0.0689,0.17441 0.041,0.15094 -0.11553,0.29037 -0.15684,0.13931 -0.0814,0.20303 0.0868,0.0366 -0.0365,0.0863 -0.13362,0.0812 0.0527,0.12188 0.11629,0.0458 0.0868,0.0365 -0.0365,0.0866 0.0865,0.0365 -0.11523,0.29044 -0.0458,0.11632 -0.0365,0.0864 0.11632,0.0457 0.0525,0.12185 -0.0458,0.11628 -0.12202,0.0521 -0.0364,0.0864 0.0408,0.15091 -0.0364,0.0865 -0.12208,0.0524 -0.0458,0.11627 -0.15075,0.0405 -0.0365,0.0863 -0.0457,0.11632 0.0465,0.22047 0.041,0.15098 -0.0365,0.0863 -0.12205,0.0523 0.041,0.15095 0.0526,0.12188 -0.0365,0.0863 -0.0457,0.11632 0.11628,0.0457 0.10459,0.24364 0.0697,0.16238 -0.0364,0.0865 0.0583,0.35975 0.11634,0.0457 0.0866,0.0366 0.0527,0.12188 -0.0459,0.1163 0.11631,0.0457 0.0457,-0.11633 0.32504,0.0293 0.0867,0.0365 -0.0366,0.0865 0.0868,0.0364 0.0697,0.16243 0.0867,0.0366 0.0527,0.12187 0.11632,0.0457 0.007,0.23802 0.0527,0.12189 0.11631,0.0457 0.0525,0.12187 -0.0457,0.11628 -0.0364,0.0863 0.0526,0.12187 0.11633,0.0457 0.0865,0.0366 0.0868,0.0366 0.0698,0.16245 0.018,0.20899 0.20309,0.0816 0.0866,0.0366 0.0868,0.0365 -0.0458,0.1163 0.11631,0.0458 -0.0365,0.0863 0.0867,0.0366 0.0866,0.0366 0.20301,0.0814 -0.0364,0.0864 0.0409,0.15099 0.11632,0.0457 0.17451,0.0689 0.11627,0.0458 0.0868,0.0366 -0.0364,0.0864 0.0866,0.0366 -0.0364,0.0863 0.1163,0.0457 -0.0457,0.11629 0.0867,0.0364 -0.069,0.17441 -0.13359,0.0811 -0.0642,0.41201 -0.0366,0.0865 -0.0459,0.11631 -0.0365,0.0862 -0.0866,-0.0366 -0.0365,0.0863 0.0931,0.2727 -0.0366,0.0863 -0.0456,0.11633 -0.0365,0.0865 0.0351,0.24946 -0.15057,0.37735 0.13929,0.15652 -0.0814,0.20307 0.0813,0.13328 0.1279,0.18564 0.20303,0.0815 0.0527,0.1219 0.11634,0.0458 0.0526,0.12185 0.0868,0.0366 0.15679,0.19713 0.0868,0.0366 0.0813,0.13336 0.17452,0.0689 0.0813,0.13332 0.0868,0.0366 0.0411,0.15095 0.11634,0.0457 0.1745,0.0689 0.11632,0.0458 0.0527,0.12187 0.37127,-0.0875 0.0867,0.0366 0.11632,0.0457 0.0866,0.0366 -0.0293,0.32503 0.35983,-0.0582 0.19718,-0.15689 0.12203,-0.0522 0.13364,-0.0812 0.0365,-0.0863 0.15054,-0.37735 0.0458,-0.1163 0.0364,-0.0863 0.0814,-0.20308 0.23188,-0.24391 0.0689,-0.17444 0.0813,-0.20305 0.0814,-0.2031 0.0689,-0.17437 0.0457,-0.11631 0.0364,-0.0866 0.11534,-0.29044 0.0365,-0.0863 0.11523,-0.29045 0.20308,-0.25545 0.0458,-0.11629 0.23788,-0.34249 0.0366,-0.0865 0.0815,-0.20302 0.19715,-0.15687 -0.0465,-0.22049 -0.12793,-0.18562 -0.13367,-0.2552 -0.006,-0.23796 0.0365,-0.0863 0.0458,-0.11629 0.0346,-0.42358 0.34768,-0.53422 0.19681,-0.49347 0.0364,-0.0864 0.0815,-0.20306 0.0365,-0.0863 0.12206,-0.0524 0.20307,-0.25541 0.0457,-0.11635 0.11631,0.0457 0.32481,-0.3078 0.11628,0.0457 0.54545,-0.0179 0.20303,0.0814 0.20305,0.0814 0.12202,-0.0522 0.0365,-0.0863 0.13361,-0.0812 0.0365,-0.0864 0.1508,-0.0408 0.0457,-0.11633 0.31892,-0.5456 0.0365,-0.0863 -0.007,-0.23807 0.069,-0.17438 0.25511,-0.13371 0.11632,0.0458 0.0365,-0.0864 0.0869,0.0365 0.1336,-0.0812 0.15084,-0.0407 0.0815,-0.20306 -0.0812,-0.13333 0.19715,-0.15686 0.0365,-0.0865 0.0815,-0.20304 0.15682,-0.13928 0.16838,-0.16837 -0.34256,-0.23754 -0.12216,-0.28427 -0.0527,-0.12186 0.0457,-0.1163 -0.0526,-0.45836 -0.007,-0.23803 0.11536,-0.29043 0.35364,-0.63276 0.19714,-0.15684 0.24359,-0.10473 0.24951,-0.035 0.12208,-0.0523 0.23784,-0.006 0.0868,0.0366 0.23189,-0.24393 0.53949,-0.25579 0.24395,0.23189 0.3366,-0.002 0.20308,-0.25545 0.32503,0.0293 0.0812,0.13334 0.17432,0.0689 0.23188,-0.24392 -0.10484,-0.58017 -0.20313,-0.0814 -0.0866,-0.0366 -0.0351,-0.24949 0.0633,-0.41218 0.0293,-0.325 -0.12216,-0.28429 -0.0528,-0.12185 -0.0697,-0.16242 -0.10457,-0.24359 -0.1569,-0.1972 -0.0525,-0.12185 0.0364,-0.0863 0.0458,-0.11632 -0.20297,-0.0815 -0.0866,-0.0366 0.0366,-0.0867 0.0364,-0.0861 0.0815,-0.20304 0.0364,-0.0863 0.13363,-0.0812 0.11524,-0.29042 0.0867,0.0366 0.23798,-0.006 0.0365,-0.0863 -0.006,-0.23798 0.0365,-0.0865 0.2494,-0.37152 0.0689,-0.17443 0.13361,-0.0812 0.0366,-0.0866 -0.0932,-0.27272 0.11523,-0.2904 0.0689,-0.17441 0.25532,-0.13367 0.11634,0.0456 -0.11534,0.29043 -0.0364,0.0863 0.0866,0.0366 0.0688,-0.17445 0.31893,-0.20918 0.0458,-0.11631 0.0366,-0.0863 0.20308,-0.25546 0.0365,-0.0862 0.45237,-0.29059 0.27259,-0.0931 0.53951,-0.25578 0.23786,-0.006 0.0527,0.12186 0.31899,-0.20915 -0.0812,-0.13338 0.46947,-0.5865 0.20307,-0.25544 0.24956,-0.0351 0.0867,0.0366 0.0697,0.16241 -0.0366,0.0866 -0.0365,0.0863 -0.36538,0.32528 -0.0687,0.17443 -0.0457,0.11633 0.0527,0.12188 0.25544,0.20277 0.23795,-0.006 0.006,0.23801 0.0813,0.13336 -0.26665,0.33101 -0.40585,0.51097 -0.0814,0.20306 -0.0364,0.0865 -0.16239,0.40625 -0.0689,0.17441 0.85287,-0.19804 0.0527,0.12185 -0.0814,0.2031 -0.0689,0.17442 0.002,0.33657 0.12206,-0.0522 0.16836,-0.16833 0.0365,-0.0863 -0.0867,-0.0366 0.15048,-0.37734 0.11535,-0.29042 0.13361,-0.0812 0.35379,-0.29626 0.12204,-0.0524 0.11635,0.0457 0.33617,-0.33694 0.15082,-0.0405 0.13949,0.15657 0.29033,0.11534 0.31902,-0.20918 0.0866,0.0366 0.29036,0.11523 0.12213,0.28427 -0.0364,0.0865 0.0868,0.0366 -0.19661,0.49352 0.20299,0.0814 0.006,0.23798 -0.0688,0.17445 0.11632,0.0458 -0.0232,0.56296 0.11633,0.0457 0.20876,-0.0176 0.10947,-0.52832 1.16578,-0.64518 -0.0697,-0.16241 0.0364,-0.0863 0.37139,-0.0874 0.20302,0.0814 0.0688,-0.17442 0.20307,-0.2554 0.16246,-0.0698 0.0364,-0.0863 0.20309,-0.25545 0.0815,-0.20304 -0.018,-0.20904 0.11534,-0.29035 0.11534,-0.29043 0.22054,-0.0464 0.1508,-0.0405 0.0527,0.12186 0.0408,0.15094 0.39526,0.69602 0.23794,-0.006 0.0293,-0.32502 -0.002,-0.33659 0.0232,-0.56288 0.0365,-0.0863 0.28989,-0.22079 0.11631,0.0457 0.006,0.23804 0.22079,0.28997 0.0688,-0.17442 0.0456,-0.11635 -0.018,-0.20897 0.24941,-0.37151 0.12206,-0.0524 0.12219,0.28428 -0.098,0.49923 -0.0813,0.20307 -0.0868,-0.0366 -0.11525,0.29044 0.0868,0.0365 0.28419,-0.12217 0.27261,-0.0931 0.0817,-0.53965 0.0365,-0.0864 0.11634,0.0457 0.17449,0.069 0.11632,0.0458 0.11579,-0.62677 -0.0932,-0.2727 0.0814,-0.20305 0.12207,-0.0523 0.29044,0.11523 0.0866,0.0366 0.035,0.24949 0.19209,0.61493 -0.0814,0.20313 0.007,0.23799 0.23188,-0.24394 0.34741,-0.87076 0.0457,-0.1163 0.0689,-0.17441 0.45216,-0.62708 0.24299,-1.11436 0.23162,-0.58047 0.0457,-0.11631 0.0867,0.0366 0.12217,0.28425 0.23163,-0.5805 0.37727,0.15057 0.2555,0.20279 0.23789,-0.006 0.0868,0.0366 0.35377,-0.29624 0.42357,0.0346 0.15693,0.1972 0.37729,0.15044 -0.0689,0.17443 -0.24944,0.37151 0.0867,0.0366 0.13365,-0.0812 0.3884,-0.38335 0.0869,0.0366 0.11629,0.0457 0.30793,0.3247 -0.0293,0.32503 0.0875,0.37134 0.40602,-0.17444 0.069,-0.17438 0.45844,-0.0526 0.19714,-0.15687 0.20307,-0.25547 0.0293,-0.32501 0.0366,-0.0864 -0.11633,-0.0457 0.11534,-0.29039 0.19717,-0.15687 0.23786,-0.3425 0.16837,-0.16834 0.32502,0.0293 0.40595,-0.1745 0.15079,-0.0405 -0.12206,-0.28423 0.35366,-0.29628 0.29004,-0.22073 0.28422,-0.12217 0.16834,-0.1683 -0.10459,-0.24359 0.13364,-0.0812 0.11534,-0.29043 0.0868,0.0366 0.15091,-0.0407 0.0866,0.0365 0.0527,0.12187 0.38844,-0.38335 -0.29632,-0.35378 -0.0813,-0.13333 -0.12206,0.0523 -0.3713,0.0874 -0.27273,0.093 -0.0867,-0.0366 -0.16842,-0.16808 0.0293,-0.32498 0.35377,-0.29626 0.16239,-0.40623 -0.0874,-0.37136 -0.0875,-0.37134 0.0365,-0.0863 0.0814,-0.20311 0.32502,0.0293 0.19715,-0.15685 -0.0179,-0.54548 0.0457,-0.11635 0.11515,-0.29046 0.11534,-0.29042 -0.0527,-0.12189 0.0364,-0.0863 0.11526,-0.29042 0.12733,-0.31932 -0.24411,-0.56839 -1.43895,0.2334 -2.96254,-3.36887 -1.66985,1.65532 -1.03962,-1.02039 -0.16248,0.40624 -1.8573,-0.40459 1.15763,-3.23912 -1.25427,-0.90415 0.34008,-1.95023 z m 13.23485,10.93256 -0.37132,0.0875 -0.72508,0.38363 -0.20308,0.25544 -0.56264,0.31385 -0.34771,0.53419 -0.16239,0.40625 -0.0365,0.0863 0.57454,-0.006 0.0866,0.0366 0.0698,0.16241 -0.098,0.49925 0.12217,0.28425 0.093,0.27264 0.19239,0.95154 0.33107,0.26665 0.24946,-0.0351 0.35972,-0.0583 0.28428,-0.12206 0.20879,-0.0177 0.24952,-0.035 0.3189,-0.54567 0.11634,0.0458 0.15681,-0.13931 0.16228,-0.40625 -0.018,-0.20902 -0.20312,-0.0814 -0.12219,-0.28427 -0.38362,-0.725 -0.13362,0.0812 -0.15681,-0.19716 -0.018,-0.20899 0.0814,-0.20306 0.37132,-0.0875 0.20301,0.0814 0.15681,-0.13928 -0.0865,-0.0366 -0.11634,-0.0457 -0.49945,-0.43479 -0.0581,-0.35969 -0.035,-0.24948 -0.0525,-0.12184 z m 4.24425,2.6017 -0.18555,0.12782 -0.0457,0.11631 -0.64969,0.27913 0.012,0.47588 0.10491,0.58016 -0.11526,0.29044 -0.0457,0.1163 -0.0364,0.0864 0.0813,0.13332 -0.0293,0.32503 0.0866,0.0366 0.0366,-0.0865 0.0364,-0.0863 0.0458,-0.11632 0.27262,-0.0931 0.0866,0.0366 0.11631,0.0456 0.17448,0.069 0.0458,-0.1163 0.069,-0.17438 0.17345,-0.94024 0.22061,-0.0465 0.0365,-0.0865 0.11525,-0.29043 -0.0867,-0.0365 -0.20919,-0.31898 -0.0868,-0.0366 -0.13376,-0.25524 -0.0868,-0.0366 z"
       id="ME-01"
       style="font-style:normal;font-weight:400;font-size:34.375px;font-family:'MS Shell Dlg 2';opacity:1;fill:#000000;fill-opacity:1;fill-rule:evenodd;stroke:#000000;stroke-width:0.33333385;stroke-linecap:square;stroke-linejoin:bevel;stroke-miterlimit:4;stroke-dasharray:none;stroke-opacity:1" />
    <path
       inkscape:connector-curvature="0"
       d="m 231.57133,324.48855 -0.12201,0.0522 -0.16244,0.0698 -0.32502,-0.0293 -0.0864,-0.0365 -0.16845,-0.16809 -0.0866,-0.0366 -0.12207,0.0522 -0.19719,0.15689 -0.0867,-0.0365 -0.0865,-0.0365 -0.20311,-0.0814 -0.20312,-0.0814 -0.12202,0.0523 -0.28418,0.12214 -0.0866,-0.0365 -0.1221,0.0524 -0.0364,0.0863 -0.11636,-0.0456 -0.0456,0.11632 -0.0364,0.0863 -0.0366,0.0863 -0.0458,0.11628 -0.11525,0.29044 -0.0365,0.0863 -0.0365,0.0865 0.0874,0.37132 -0.0457,0.11634 -0.0364,0.0863 0.0867,0.0366 0.0813,0.13335 0.0867,0.0366 -0.0455,0.11636 -0.0365,0.0863 -0.0869,-0.0366 -0.0366,0.0863 -0.11631,-0.0456 -0.42366,-0.0349 -0.12202,0.0522 -0.15088,0.0407 -0.0457,0.11634 -0.0868,-0.0364 -0.20313,-0.0814 -0.12204,0.0522 -0.0866,-0.0365 -0.1163,-0.0457 -0.0527,-0.12188 -0.0409,-0.15093 -0.11629,-0.0458 -0.0867,-0.0365 -0.1336,0.0811 -0.15082,0.0405 -0.0866,-0.0366 -0.20309,-0.0815 -0.20879,0.0176 -0.1624,0.0698 -0.12209,0.0523 -0.16836,0.16834 -0.1508,0.0405 -0.0365,0.0863 -0.0866,-0.0366 -0.0867,-0.0366 -0.20309,-0.0815 -0.0866,-0.0365 -0.11632,-0.0456 -0.0458,0.11635 -0.12202,0.0522 -0.0365,0.0865 -0.0458,0.11631 -0.0366,0.0864 -0.0364,0.0864 -0.0458,0.11631 0.0525,0.12183 -0.0366,0.0867 -0.11533,0.29042 -0.0866,-0.0366 -0.0457,0.11631 -0.12202,0.0522 -0.15081,0.0405 -0.33671,0.002 -0.12205,0.0523 -0.0869,-0.0366 -0.15083,0.0405 -0.0457,0.11632 -0.24401,-0.23193 -0.0866,-0.0366 -0.0867,-0.0366 -0.0457,0.11631 -0.11629,-0.0457 -0.12205,0.0522 -0.12208,0.0524 -0.11633,-0.0457 -0.0866,-0.0366 -0.40608,0.17445 -0.16835,0.16836 -0.15077,0.0405 -0.16837,0.16835 -0.0865,-0.0365 -0.0365,0.0863 -0.20315,-0.0815 -0.49308,0.13973 -0.1624,0.0698 -0.12203,0.0523 -0.0364,0.0864 -0.13364,0.0812 -0.0365,0.0863 -0.15084,0.0407 -0.25513,0.13375 -0.0365,0.0862 -0.16242,0.0697 -0.0365,0.0865 -0.17452,-0.0689 -0.0366,0.0863 -0.16237,0.0697 -0.0365,0.0863 -0.0866,-0.0366 -0.0868,-0.0366 -0.0365,0.0864 -0.11631,-0.0458 -0.0457,0.1163 -0.0868,-0.0365 -0.0409,-0.15092 -0.16837,-0.16807 -0.0527,-0.12187 -0.11629,-0.0457 -0.0867,-0.0366 -0.0409,-0.15097 -0.20298,-0.0815 -0.0869,-0.0365 -0.11634,-0.0457 -0.0457,0.11636 -0.0866,-0.0366 -0.15691,-0.19716 -0.0866,-0.0365 0.0365,-0.0863 -0.203,-0.0814 -0.13949,-0.15659 -0.29039,-0.11522 -0.36014,-0.27827 -0.0866,-0.0366 -0.0868,-0.0366 -0.0813,-0.13332 -0.20931,-0.31901 -0.0527,-0.12188 0.0365,-0.0865 0.0457,-0.11635 0.069,-0.17436 -0.0867,-0.0366 0.0458,-0.11634 -0.0813,-0.13333 -0.006,-0.23802 0.0364,-0.0863 -0.0867,-0.0366 0.0365,-0.0862 0.0814,-0.20311 -0.12206,-0.28416 0.11526,-0.29046 0.004,-1.44494 0.0814,-0.20306 0.1163,0.0457 0.0364,-0.0863 -0.11632,-0.0458 0.0365,-0.0863 0.0458,-0.11629 0.0366,-0.0863 0.0365,-0.0863 0.0814,-0.20309 -0.0582,-0.35968 -0.0813,-0.13333 -0.29052,-0.11534 -0.0867,-0.0366 -0.12204,0.0524 -0.19716,0.15686 -0.0869,-0.0366 -0.23794,0.006 -0.0527,-0.12182 -0.15679,-0.19712 -0.25567,-0.20283 -0.46432,-0.18547 -0.20302,-0.0814 -0.12205,0.0522 -0.25563,-0.20285 -0.15081,0.0405 -0.37119,0.0875 -0.37739,-0.15056 -0.0527,-0.12188 -4.27156,5.89965 -2.50957,3.50722 -5.11197,6.91021 -1.18826,1.54461 -1.30405,1.83487 -0.20311,0.25546 -0.92163,1.2136 -0.0366,0.0865 -0.46173,2.84385 -0.10938,0.52831 -0.0365,0.0864 -0.0749,0.44116 -0.67509,3.9699 -0.40608,0.17447 -0.0864,-0.0365 -0.20299,-0.0815 -0.13362,0.0811 -0.0365,0.0863 -0.0815,0.20302 -0.15056,0.37734 -0.23795,0.006 -0.0457,0.11632 -0.12206,0.0523 0.006,0.238 -0.12203,0.0522 -0.0814,0.20303 -0.15086,0.0407 -0.29034,-0.11534 -0.25531,0.13364 -0.31893,0.20922 -0.0365,0.0863 -0.28417,0.45858 -0.0364,0.0865 0.006,0.238 0.0865,0.0366 -0.0365,0.0863 -0.0346,0.42365 -0.19715,0.15686 -0.4407,0.26156 -0.0814,0.20306 -0.20307,0.25541 -0.0814,0.2031 -0.0689,0.17441 0.006,0.23799 -0.11533,0.2904 -0.0366,0.0864 -0.23161,0.58056 -0.24944,0.3715 -0.15685,0.13929 0.0409,0.15096 0.22078,0.28994 0.0865,0.0365 0.0697,0.16242 0.0867,0.0365 0.4647,0.52185 0.0527,0.12188 -0.0365,0.0863 -0.0456,0.45275 -0.23185,0.24394 -0.069,0.17439 0.0697,0.16241 0.018,0.209 -0.29036,-0.11545 -0.13365,0.0812 -0.23782,0.006 -0.0814,0.20304 -0.20308,0.25544 -0.0365,0.0863 -0.19671,0.49347 0.0868,0.0366 0.203,0.0814 0.0458,-0.11629 0.0867,0.0365 0.12203,-0.0522 0.0812,0.13335 -0.0815,0.20308 -0.2319,0.24393 -0.16834,0.16834 -0.31891,0.54565 0.22684,0.52787 0.20301,0.0814 0.1745,0.0689 -0.12207,0.0523 -0.0814,0.20304 -0.0868,-0.0366 -0.15085,0.0406 -0.0457,0.11634 -0.0689,0.1744 -0.0457,0.1163 -0.0689,0.17441 0.11632,0.0457 0.44684,-0.0236 0.13361,-0.0813 0.11633,0.0457 0.17449,0.069 0.24382,0.23185 0.22092,0.28999 0.0697,0.1624 -0.2727,0.093 -0.20308,0.25547 -0.0458,0.11631 0.087,0.0365 -0.0365,0.0865 0.0866,0.0366 0.0351,0.24948 0.0526,0.1219 -0.15045,0.37731 -0.13359,0.0811 -0.38852,0.38332 -0.48711,0.37764 -0.12201,0.0522 -0.16244,0.0698 -0.1221,0.0523 -0.32492,-0.0293 -0.43474,0.49948 -0.13361,0.0812 -0.15682,0.13929 -0.19714,0.15685 -0.11533,0.29043 -0.0815,0.20306 0.11629,0.0457 -0.0366,0.0865 -0.15085,0.0406 -0.0866,-0.0365 -0.24943,0.035 -0.0364,0.0865 0.0812,0.13334 0.14564,0.73104 0.041,0.15091 0.20302,0.0814 0.16838,0.16807 0.0584,0.35975 -0.16836,0.16837 -0.2031,0.25543 -0.0365,0.0863 -0.28417,0.12213 -0.2726,0.0931 -0.16836,0.16831 -0.2031,-0.0814 -0.0866,-0.0366 -0.37133,0.0875 -0.52185,0.4647 -0.31889,0.20921 -0.15683,0.13932 -0.0457,0.1163 -0.0365,0.0863 -0.3249,-0.0293 -0.20302,-0.0815 -0.13361,0.0812 -0.12202,0.0522 0.0527,0.12186 -0.0457,0.11631 -0.59135,0.63886 -0.16835,0.16835 -0.11633,-0.0457 -0.20305,0.25546 -0.40606,0.17445 -0.16836,0.16838 -0.18561,0.12781 -0.0457,0.11629 -0.11535,0.29045 -0.35951,0.39487 -0.19722,0.15684 -0.0365,0.0863 0.002,0.3366 -0.31293,0.4471 -0.0365,0.0863 -0.16837,0.16835 -0.0814,0.20307 -0.12202,0.0522 -0.0366,0.0865 0.0409,0.1509 0.0179,0.54549 0.24402,0.23192 0.25543,0.20276 0.0931,0.27269 0.0812,0.13336 0.1393,0.15645 0.24406,0.23198 0.29037,0.11512 0.17453,0.40609 0.13365,0.2552 -0.0293,0.32501 0.0351,0.24953 -0.0642,0.41199 -0.28427,0.1221 -0.12205,0.0523 -0.0866,-0.0366 -0.11632,-0.0458 0.0689,-0.17438 -0.33105,-0.26667 -0.0868,-0.0366 -0.16244,0.0698 -0.0866,-0.0366 -0.35971,0.0583 -0.20302,-0.0814 -0.13951,-0.15658 -0.3252,-0.36526 0.0689,-0.17439 0.0458,-0.11634 -0.13954,-0.15659 -0.11631,-0.0457 -0.499,-0.0991 -0.28418,0.12214 -0.0868,-0.0366 -0.0365,0.0863 -0.0814,0.20308 -0.19718,0.15684 -0.23784,0.34248 -0.0814,0.20307 0.0866,0.0365 0.2555,0.20278 -0.0365,0.0864 0.1163,0.0457 -0.0457,0.11629 0.10481,0.24368 -0.0458,0.11633 -0.0868,-0.0365 -0.069,0.17439 -0.19664,0.4935 0.0526,0.12189 -0.0457,0.11631 0.11634,0.0455 -0.0365,0.0864 0.12208,-0.0523 -0.0365,0.0864 0.0527,0.12188 0.0351,0.24949 -0.11534,0.29041 -0.0364,0.0864 -0.0458,0.11631 -0.2726,0.0931 -0.0458,0.11631 -0.0689,0.17436 -0.0457,0.11634 -0.0689,0.17441 -0.0458,0.1163 -0.12209,0.0524 -0.0814,0.20306 0.0582,0.35972 0.0813,0.13332 -0.0364,0.0863 -0.31893,0.20919 -0.0866,-0.0366 -0.29056,-0.11524 -0.1163,-0.0457 -0.13933,-0.15649 -0.11634,-0.0457 0.0365,-0.0862 -0.006,-0.238 -0.0527,-0.12188 -0.12209,-0.28421 -0.16837,-0.16807 -0.12796,-0.18561 0.0689,-0.17441 0.0815,-0.20305 0.0364,-0.0863 -0.041,-0.4874 -0.0867,-0.0366 -0.16852,-0.16811 -0.23798,0.006 -0.0527,-0.12184 -0.007,-0.23806 -0.11636,-0.0456 -0.33667,0.002 -0.32483,-0.0293 -0.0867,-0.0366 -0.0527,-0.1219 -0.15681,-0.19714 -0.0867,-0.0366 -0.11633,-0.0457 -0.0458,0.11631 0.0465,0.2205 0.12769,0.18552 -0.0365,0.0865 -0.0814,0.20302 -0.12206,0.0522 -0.12204,0.0523 -0.16246,0.0699 -0.20893,0.0176 -0.11633,-0.0457 -0.32483,-0.0293 -0.13365,0.0813 -0.12203,0.0522 -0.0365,0.0863 -0.11632,-0.0457 0.002,1.68285 0.0367,1.93236 0.0298,1.02132 0.009,3.6036 0.002,0.3366 -0.0364,0.0861 0.0931,0.27273 -0.0347,0.42361 0.0359,1.25921 -0.0575,0.98649 0.10537,0.91683 0.006,0.23798 -0.0293,0.32501 0.035,0.24949 -0.069,0.1744 0.11734,1.39257 -0.0816,0.20307 0.0236,0.44684 0.035,0.24947 -0.0814,0.20307 0.0527,0.12188 -0.0293,0.66152 0.0526,0.12187 -0.0154,1.47397 -0.0857,1.31154 0.0825,1.47971 -0.0507,1.56107 0.0236,0.44676 0.002,0.3366 -0.0293,0.32502 -0.0293,0.32502 0.0351,0.24951 0.0239,0.78334 0.0299,1.02132 -0.0365,0.0863 -0.0457,0.1163 0.024,0.7834 -0.005,1.10837 0.006,0.57448 0.007,0.23803 -0.0364,0.0863 0.002,0.33659 0.0236,0.44678 -0.0434,3.81838 0.0237,0.44685 -0.0292,0.66151 0.024,0.7834 0.006,0.57449 -0.0632,0.41222 0.0408,0.15088 -0.0346,0.42365 -0.057,0.65001 0.0813,0.13337 -0.0224,0.89947 -0.0293,0.325 0.006,0.57448 0.018,0.20902 -0.0815,0.20303 -0.005,1.10841 0.0241,1.1199 c 0.25307,0.10242 0.49657,0.21478 0.75472,0.30117 0.4092,0.0432 0.71281,-0.31294 1.03826,-0.49423 0.70373,0.32779 1.30857,0.22897 1.97889,0.18406 0.11686,-0.0664 0.25193,-0.16515 0.34222,-0.26723 0.0901,-0.10212 0.15107,-0.22221 0.0513,-0.38316 -0.18953,-0.23168 -0.28873,-0.53683 -0.23861,-0.83543 0.19326,-0.3656 0.73272,-0.30726 0.93946,-0.66817 0.32544,-0.23637 -0.19128,-0.56273 0.0283,-0.82984 0.22776,-0.22452 0.46979,-0.50475 0.22582,-0.81837 0.18525,-0.20263 0.45908,-0.3703 0.6204,-0.62727 l -1.4122,-2.27931 -1.28276,-0.41099 -0.0938,-1.11409 0.78394,0.64921 4.08874,-2.57438 0.7673,1.45004 -0.62521,1.56738 0.72687,1.63581 0.68475,-0.0297 0.86955,-0.99887 2.74071,1.90091 1.08367,-1.62003 2.27151,2.82405 1.67236,1.20552 1.59985,-1.98607 -0.23251,-0.4292 1.00042,-3.94113 2.25798,0.66542 0.80515,-1.59656 1.71807,0.41617 c 0.0158,-0.0299 0.0142,-0.0795 0.0585,-0.14486 0.17404,-0.32278 0.23484,-0.66347 0.20858,-1.02717 0.021,-0.31049 -0.0603,-0.74887 0.24285,-0.94614 0.12774,0.0196 0.29145,-0.0518 0.39437,-0.14545 0.10281,-0.0937 0.12898,-0.21806 -0.0815,-0.3016 -0.51818,-0.16904 -1.05419,-0.01 -1.56095,0.11739 -0.30926,0.11735 -0.63008,0.017 -0.80694,-0.25407 -0.29901,-0.30218 -0.73985,-0.34977 -1.12043,-0.48065 -0.77642,-0.33778 -1.65196,-0.23191 -2.42049,-0.59539 -0.31727,-0.15089 -0.17909,-0.58711 -0.41845,-0.8062 l 0.74529,-3.3027 5.81606,1.61377 1.19804,-3.42482 -0.92884,-0.37052 1.15367,-1.28927 0.0803,-0.70807 3.29095,0.77459 -0.34011,1.95023 1.25426,0.90412 -1.15758,3.23911 1.85727,0.40468 0.16229,-0.40626 1.03962,1.02037 1.66988,-1.6553 2.96254,3.36883 1.43892,-0.23338 0.24413,0.56846 0.0366,-0.0863 0.29002,-0.22075 0.18547,-0.46433 0.10949,-0.52827 0.12206,-0.0523 0.3712,-0.0875 0.40008,-0.41235 0.0364,-0.0863 0.0815,-0.20305 0.14443,-0.95179 -0.22674,-0.52788 -0.1685,-0.16808 -0.29036,-0.11524 -0.007,-0.23804 -0.0525,-0.12182 -0.12805,-0.5221 0.15682,-0.13929 0.0458,-0.11633 0.44686,-0.0236 0.24944,-0.0351 0.35367,-0.29633 0.0815,-0.20305 0.0365,-0.0863 0.45846,-0.0526 0.0867,0.0365 0.11632,0.0458 -0.0459,0.11624 0.0866,0.0366 -0.0689,0.17439 0.15695,0.19722 0.0866,0.0365 0.36523,-0.32531 0.0365,-0.0863 0.64372,-0.51701 0.40603,-0.17446 0.24958,-0.035 0.24353,-0.10469 0.002,0.33657 -0.0688,0.17446 -0.23162,0.58047 -0.31893,0.2092 -0.10939,0.52834 -0.0564,0.98661 0.0874,0.37128 0.0527,0.12187 -0.0458,0.11633 -0.12201,0.0522 -0.0642,0.41199 -0.0816,0.53965 0.0526,0.12186 0.61529,0.14435 0.4871,-0.37761 0.15684,-0.13931 0.0458,-0.11633 0.11632,0.0458 0.20896,-0.0176 0.23785,-0.006 0.13364,0.25515 0.58659,0.46956 0.29042,0.11525 1.07396,0.42858 0.0864,0.0366 -0.0366,0.0863 0.24392,0.2319 0.24954,-0.035 0.59244,0.70741 0.2031,0.0815 0.22077,0.28995 0.33109,0.26666 0.20297,0.0814 0.0293,-0.32501 -0.0697,-0.16239 -0.0179,-0.209 0.20308,-0.25542 -0.0408,-0.15094 -0.13374,-0.25524 -0.0583,-0.35969 0.0458,-0.11628 -0.13376,-0.25524 -0.41188,-0.0641 -0.16849,-0.16814 -0.0408,-0.15089 0.0364,-0.0865 0.0348,-0.42365 0.0457,-0.11631 0.11534,-0.29043 0.23188,-0.24395 -0.13962,-0.49305 -0.1163,-0.0457 -0.0583,-0.35978 -0.12209,-0.2842 0.0364,-0.0862 0.12206,-0.0523 0.0457,-0.11628 0.49358,0.19668 0.38838,-0.38338 0.17458,0.0688 0.16239,-0.0698 0.0695,-0.51065 0.16241,-0.0697 0.087,0.0365 0.14576,0.73104 -0.11525,0.29046 -0.0814,0.20305 0.12206,0.2842 0.203,0.0815 0.13361,-0.0812 -0.018,-0.20901 -0.0698,-0.16243 0.069,-0.17435 0.0749,-0.44116 -0.10492,-0.58022 0.0814,-0.20306 0.0814,-0.20303 0.12207,-0.0523 0.11634,0.0457 0.0868,0.0365 0.20919,0.319 -0.0293,0.32501 -0.0292,0.6615 0.0526,0.12188 0.11636,0.0457 0.12205,-0.0522 0.56815,-0.58082 -0.018,-0.20901 0.0457,-0.11631 0.20876,-0.0178 0.16855,0.1681 -0.0458,0.1163 0.22673,0.52788 0.0351,0.24949 -0.0364,0.0863 -0.0365,0.0864 -0.11633,-0.0457 -0.57415,0.34288 -0.0366,0.0863 0.0409,0.15093 -0.0365,0.0863 -0.20308,0.2554 -0.0868,-0.0366 -0.23162,0.58049 0.25563,0.20286 -0.0456,0.11632 -0.0365,0.0863 -0.35374,0.29623 -0.0293,0.32504 0.0697,0.16241 0.10459,0.24358 0.12216,0.28428 0.29655,0.69025 0.29049,0.11533 0.0866,0.0365 0.13361,-0.0812 0.1569,0.19716 0.0526,0.12189 0.45865,0.28387 0.0408,0.15094 0.37124,-0.0875 0.11631,0.0457 0.60301,-0.66786 -0.17459,-0.40611 -0.0812,-0.13333 -0.007,-0.23804 0.15682,-0.13928 0.0457,-0.1163 0.27271,-0.0931 0.89953,0.0224 0.74232,-0.51134 0.15086,-0.0407 0.3189,-0.54568 -0.0526,-0.45835 -0.14579,-0.73105 -0.20918,-0.31898 -0.0526,-0.12187 0.0458,-0.11633 -0.11632,-0.0457 -0.0865,-0.0366 -0.0868,-0.0366 -0.16246,0.0699 -0.20927,-0.31902 -0.38334,-0.38845 -0.0813,-0.13335 0.15079,-0.0405 -0.0351,-0.24952 -0.0527,-0.12188 -0.37741,-0.15056 -0.35963,0.0583 -0.19715,0.15688 -0.0525,-0.12182 -0.006,-0.23801 0.0365,-0.0863 0.25533,-0.13366 0.31891,-0.20923 0.0293,-0.32501 0.11527,-0.29043 0.0364,-0.0864 0.17432,0.0689 0.0875,0.37135 0.34255,0.23754 0.15081,-0.0405 -0.0411,-0.4874 -0.0179,-0.20894 0.25516,-0.13374 0.40629,0.16249 0.0866,0.0366 -0.0814,0.20306 -0.0689,0.17442 0.52805,0.11039 0.12209,-0.0523 -0.006,-0.23802 0.0866,0.0365 0.16837,-0.16836 0.52811,0.11049 0.1684,0.16802 0.0408,0.15094 -0.11525,0.29043 -0.0293,0.32507 0.0526,0.45835 0.1221,0.28419 -0.069,0.17442 0.0584,0.35974 0.12804,0.52215 0.2209,0.28996 0.11633,0.0457 0.0365,-0.0865 0.17432,0.0689 0.0589,0.69634 0.12208,0.28424 0.16841,0.16805 0.20897,-0.0176 0.11543,-0.29041 -0.007,-0.23803 -0.006,-0.23799 0.12208,-0.0524 0.0867,0.0366 0.15056,-0.37734 0.23187,-0.24397 0.0815,-0.20302 -0.16853,-0.16809 0.0457,-0.11636 0.20307,-0.25543 0.0365,-0.0863 0.1684,0.16806 0.0409,0.15098 0.13374,0.25519 0.0409,0.15097 0.16245,-0.0698 0.32462,-0.30789 0.0293,-0.32499 0.12203,-0.0522 0.0457,-0.11632 0.1163,0.0457 0.29054,0.11534 0.0868,0.0366 0.0293,-0.32501 -0.0465,-0.22048 0.16238,-0.0697 0.17431,0.0689 0.0351,0.24945 0.23282,0.76583 0.0815,-0.20305 0.11525,-0.29048 0.0366,-0.0863 0.0293,-0.32501 -0.006,-0.23803 0.20876,-0.0176 0.20932,0.31901 0.20296,0.0815 0.0866,0.0366 0.0458,-0.11632 -0.0525,-0.12181 -0.26188,-0.77739 -0.006,-0.23802 -0.018,-0.20897 0.16836,-0.16836 0.12206,-0.0522 0.0458,-0.1163 -0.018,-0.20898 -0.0408,-0.15093 -0.0241,-0.78344 0.31888,-0.54567 -0.12217,-0.28426 0.0365,-0.0863 0.15084,-0.0408 0.17449,0.0689 0.42393,0.37098 0.041,0.15092 0.0465,0.22044 0.0408,0.15096 0.0527,0.12186 0.32502,0.0293 0.075,-0.44118 -0.018,-0.20898 0.16835,-0.16834 0.0866,0.0365 0.11629,0.0457 0.17432,0.0689 0.13981,0.49316 0.12807,0.52212 -0.12206,0.0522 0.006,0.23802 0.20309,0.0814 0.28428,-0.12212 0.0867,0.0366 0.0868,0.0365 0.23189,-0.24392 -0.002,-0.33662 -0.0582,-0.35967 0.16834,-0.16836 0.23788,-0.006 0.45845,-0.0526 0.0866,0.0365 0.12217,0.28426 0.0866,0.0366 1.54343,-0.15804 0.16838,-0.16836 -0.22685,-0.5279 -0.0697,-0.16236 0.43977,-1.60778 0.0365,-0.0863 0.16836,-0.16838 0.0867,0.0366 0.0813,0.13335 0.0868,0.0365 0.15684,-0.13929 -0.006,-0.23802 0.37131,-0.0874 0.24394,0.2319 -0.0293,0.32499 0.80122,0.52153 0.15079,-0.0407 0.0365,-0.0863 0.0457,-0.11629 0.35986,-0.0582 0.0867,0.0365 0.0526,0.12186 0.16848,0.16808 0.0408,0.15095 0.2319,-0.24396 -0.002,-0.33658 0.1624,-0.40624 0.24385,0.23185 0.19713,-0.15688 0.0815,-0.20302 -0.10491,-0.58016 -0.12213,-0.28428 -0.0867,-0.0366 -0.0813,-0.13333 0.16228,-0.40631 0.3885,-0.3833 0.13364,-0.0813 0.52203,-0.1282 0.24373,-0.10462 0.20299,0.0815 0.018,0.20898 -0.16838,0.16839 -0.0224,0.89943 0.25555,0.20285 0.0526,0.12184 0.002,0.33657 -0.39401,0.65032 -0.20879,0.0176 0.0525,0.12181 0.12205,0.28422 0.0868,0.0365 0.23794,-0.006 0.13365,-0.0812 0.15681,-0.13934 0.16243,-0.0698 0.0364,-0.0863 -0.035,-0.24952 0.0689,-0.17441 0.40009,-0.41236 0.12205,-0.0524 0.25547,0.20275 0.28425,-0.12209 0.0868,0.0366 0.23786,-0.006 0.16835,-0.16834 0.0365,-0.0862 0.0365,-0.0866 0.0457,-0.11632 0.0688,-0.17442 0.1624,-0.0697 0.17453,0.0688 0.15079,-0.0405 0.0365,-0.0863 0.13362,-0.0813 0.15055,-0.37732 0.11526,-0.29046 0.28419,-0.1221 0.15684,-0.13932 0.0457,-0.11631 0.15682,-0.13933 0.0815,-0.20304 0.0366,-0.0865 -0.007,-0.23801 0.11543,-0.29045 0.12207,-0.0523 0.11629,0.0458 0.0866,0.0366 0.0457,-0.11635 0.0866,0.0366 0.11525,-0.29043 0.0689,-0.17441 0.0293,-0.32501 0.13363,-0.0812 0.24401,0.23198 0.37123,-0.0875 0.15078,-0.0406 0.40585,-0.511 0.0456,-0.11634 0.11535,-0.29045 0.18559,-0.12781 0.13362,-0.0812 0.0868,0.0366 0.23795,-0.006 0.16837,-0.16834 0.0365,-0.0865 -0.0526,-0.12184 -0.35975,0.0582 -0.13363,0.0812 -0.20306,-0.0815 -0.18043,-0.64397 0.0366,-0.0865 0.0458,-0.11633 0.28985,-0.22079 -0.13936,-0.15642 -0.035,-0.2495 -0.0584,-0.35975 -0.002,-0.33659 0.0365,-0.0867 0.0364,-0.0865 -0.006,-0.23799 -0.16843,-0.16806 -0.1745,-0.0689 -0.66784,-0.60288 -0.0408,-0.15093 -0.11628,-0.0457 -0.018,-0.20899 -0.041,-0.15097 -0.0465,-0.22047 -0.12804,-0.52211 -0.26159,-0.44078 -0.16838,-0.16805 0.0293,-0.32502 -0.12217,-0.2843 -0.39496,-0.35944 -0.0698,-0.16238 -0.25546,-0.20275 0.23192,-0.24394 0.25512,-0.13374 -0.018,-0.20901 -0.35488,-1.05001 -0.20927,-0.31901 -0.11631,-0.0457 -0.0525,-0.12187 -0.26161,-0.44078 -0.29043,-0.45235 -0.0868,-0.0366 -0.0865,-0.0365 -0.48732,0.0411 -0.12792,-0.18564 -0.11632,-0.0458 -0.40596,0.17451 -0.0866,-0.0366 -0.0867,-0.0365 -0.20299,-0.0814 -0.0179,-0.20899 -0.11634,-0.0456 -0.12793,-0.18561 -0.11631,-0.0456 -0.0866,-0.0366 -0.0866,-0.0366 -0.11627,-0.0457 -0.22059,0.0465 -0.0364,0.0863 -0.0814,0.2031 -0.0364,0.0864 0.0526,0.12188 -0.13361,0.0812 -0.11524,0.29044 0.0525,0.12181 0.0866,0.0366 0.0812,0.13334 -0.1624,0.0697 -0.12205,0.0523 -0.16838,0.16836 -0.31895,0.20921 -0.15681,0.13931 -0.11629,-0.0457 -0.17451,-0.0689 -0.11632,-0.0458 -0.22065,-0.28993 -0.24401,-0.23191 -0.17436,-0.0689 -0.0813,-0.13335 -0.17451,-0.0689 0.0366,-0.0866 -0.0697,-0.16238 0.0365,-0.0863 -0.007,-0.23804 -0.45876,-0.28388 -0.006,-0.23803 -0.0874,-0.37127 -0.10479,-0.24368 -0.0697,-0.16239 -0.26148,-0.44081 -0.0867,-0.0366 -0.11632,-0.0458 -0.48822,-0.9686 0.0364,-0.0865 0.0814,-0.20307 0.0867,0.0366 0.28416,-0.12215 0.0365,-0.0863 0.0366,-0.0863 0.1623,-0.40631 0.0365,-0.0863 0.0365,-0.0863 -0.0697,-0.16246 0.0364,-0.0863 0.19713,-0.15685 0.15689,-0.1393 0.11524,-0.29046 0.0459,-0.11631 -0.16854,-0.16809 -0.006,-0.23801 0.0365,-0.0863 0.12206,-0.0523 0.16241,-0.0697 0.0365,-0.0863 -0.29048,-0.45236 -0.2963,-0.35372 -0.2208,-0.28993 -0.24393,-0.23193 -0.0866,-0.0365 -0.0813,-0.13333 -0.0934,-0.60928 -0.0527,-0.12185 0.0365,-0.0865 -0.006,-0.238 -0.20308,-0.0815 -0.0528,-0.12185 -0.12209,-0.28426 0.0365,-0.0864 0.28418,-0.12214 0.25533,-0.13367 0.15074,-0.0405 -0.0812,-0.13334 0.19716,-0.15685 0.29032,0.11523 0.37737,0.15069 0.0366,-0.0863 0.0456,-0.11635 0.0364,-0.0863 -0.20919,-0.31901 -0.018,-0.209 -0.0697,-0.1624 0.0689,-0.17439 0.11627,0.0457 0.0866,0.0365 0.0293,-0.32504 -0.006,-0.57446 -0.006,-0.23798 -0.16853,-0.16813 -0.3776,-0.48709 -0.0866,-0.0366 -0.41188,-0.0641 -0.28429,0.12214 -0.0364,0.0863 0.0867,0.0366 -0.0456,0.11633 -0.0365,0.0866 -0.12206,0.0522 -0.42355,-0.0346 -0.29056,-0.11526 -0.29033,-0.11523 -0.1508,0.0406 -0.12203,0.0522 -0.45871,-0.28386 -0.41198,-0.0641 -0.51102,-0.40577 -0.20302,-0.0814 0.0465,0.22044 -0.16244,0.0698 -0.41809,-0.30141 -0.13371,-0.25521 -0.37763,-0.48711 -0.0931,-0.27268 -0.0874,-0.37129 -0.16842,-0.16808 0.0458,-0.11628 -0.37736,-0.15068 -0.0457,0.11635 0.0525,0.12183 0.12215,0.28426 0.0867,0.0366 -0.0365,0.0863 -0.0365,0.0863 -0.1745,-0.0689 -0.45265,-0.0456 -0.29633,-0.35373 -0.66153,-0.0293 -0.0864,-0.0365 -0.17453,-0.40609 0.22053,-0.0465 -0.0764,-0.90521 0.57457,-0.007 -0.2096,-0.65554 -0.29026,-0.11544 -0.0584,-0.35976 0.0365,-0.0863 0.11526,-0.29044 -0.0874,-0.37129 0.0815,-0.20306 0.38836,-0.38335 0.0457,-0.11633 0.0867,0.0366 0.0865,0.0366 0.15085,-0.0407 0.16837,-0.16834 -0.20302,-0.0814 0.0366,-0.0863 -0.0526,-0.12185 -0.0409,-0.15096 -0.11632,-0.0457 -0.0867,-0.0366 -0.0869,-0.0366 -0.16851,-0.1681 -0.12214,-0.28426 -0.0525,-0.12181 -0.0526,-0.12188 -0.0697,-0.16241 0.069,-0.1744 0.2319,-0.24391 0.16837,-0.16835 0.0865,0.0366 0.15081,-0.0406 0.0457,-0.11632 0.0366,-0.0863 0.0814,-0.20305 0.0865,0.0366 0.0365,-0.0864 0.12207,-0.0523 0.0458,-0.11631 -0.13949,-0.15656 -0.37157,-0.24911 -0.0866,-0.0366 -0.0407,-0.15094 0.0365,-0.0863 -0.0525,-0.45834 0.0456,-0.11635 0.0108,-0.87049 -0.006,-0.23798 0.0364,-0.0863 0.0224,-0.89943 -0.002,-1.68285 -0.059,-1.03294 0.057,-0.64998 -0.0241,-0.78341 -0.0603,-2.71571 0.0203,-2.58237 0.005,-1.10838 -0.0125,-0.81241 0.0293,-0.325 -0.0527,-0.45847 0.0509,-1.22444 -0.0254,-2.46627 -0.0813,-0.13334 0.10249,-2.44893 -0.0481,-1.9033 -0.006,-0.23803 0.0224,-0.89946 0.0619,-2.09491 -0.0351,-0.2495 0.009,-2.21681 -0.0351,-0.24949 0.0224,-0.89943 0.0365,-0.0863 -0.0584,-0.35977 -0.002,-0.3366 0.0641,-0.41198 -0.006,-0.238 -0.002,-0.33658 -0.0526,-0.12189 0.0458,-0.11631 -0.0865,-0.0365 -0.203,-0.0814 -0.0865,-0.0365 -0.1685,-0.16811 -0.0864,-0.0366 -0.20301,-0.0814 -0.0866,-0.0366 -0.25566,-0.20286 -0.29034,-0.11522 -0.11628,-0.0457 -0.0868,-0.0366 -0.041,-0.15097 -0.11627,-0.0459 -0.0527,-0.12184 -0.0866,-0.0365 0.0815,-0.20302 -0.0813,-0.13334 0.0366,-0.0864 -0.0866,-0.0366 -0.15691,-0.19716 0.0365,-0.0863 -0.20911,-0.31896 -0.0866,-0.0366 -0.20317,-0.0814 0.0365,-0.0863 -0.0866,-0.0366 -0.0867,-0.0365 -0.0813,-0.13336 -0.007,-0.23807 -0.0527,-0.12185 -0.15681,-0.19714 -0.018,-0.20899 -0.0697,-0.16243 0.0365,-0.0865 -0.17451,-0.0689 -0.0813,-0.13336 -0.0866,-0.0365 -0.32497,-0.0293 -0.0866,-0.0365 0.0364,-0.0863 -0.15681,-0.19718 -0.16841,-0.16804 -0.0931,-0.27268 -0.11632,-0.0457 -0.25543,-0.20275 -0.0868,-0.0365 -0.45869,-0.28388 -0.0867,-0.0366 -0.20316,-0.0814 0.0458,-0.11635 -0.0526,-0.12187 -0.0868,-0.0365 0.0364,-0.0863 -0.29052,-0.11535 -0.44705,-0.31295 -0.0869,-0.0365 -0.0813,-0.13333 -0.17437,-0.0687 -0.12214,-0.28425 -0.16849,-0.1681 -0.0527,-0.12187 0.0815,-0.20304 -0.0868,-0.0366 -0.20308,-0.0814 -0.20311,-0.0814 -0.0868,-0.0366 -0.45876,-0.28391 -0.12205,0.0523 -0.0866,-0.0365 -0.11636,-0.0457 -0.0526,-0.12187 0.0458,-0.11628 -0.0867,-0.0364 0.0366,-0.0863 -0.20303,-0.0815 z m -32.17832,89.67912 c -0.0315,0.12332 0.0866,0.0366 0.0866,0.0366 l -0.0866,-0.0366 z m 44.22775,-9.40567 -0.5396,-0.0815 -0.12204,0.0522 0.0875,0.37132 0.0866,0.0366 0.0867,0.0365 0.11635,0.0457 0.19834,1.18944 0.0932,0.27269 0.23787,-0.006 0.0458,-0.11633 0.12208,-0.0523 0.10948,-0.52829 -0.424,-0.37101 -0.12774,-0.18553 0.0689,-0.1744 0.16239,-0.40628 -0.20311,-0.0814 z m -18.67657,3.55081 -0.15086,0.0407 -0.0456,0.45271 0.0179,0.20898 -0.16229,0.40628 -0.0293,0.32501 0.25561,0.20283 0.54578,0.31865 0.18558,-0.12781 -0.35525,-1.38662 -0.0875,-0.37134 -0.0866,-0.0365 -0.0867,-0.0366 z m 6.00339,3.50541 -0.33666,0.002 -0.11631,-0.0457 -0.15682,0.1393 -0.0459,0.1163 -0.20303,-0.0814 -0.17445,-0.069 -0.23791,0.006 0.006,0.57451 -0.0365,0.0863 0.0867,0.0366 0.0866,0.0365 0.32483,0.0293 0.0458,-0.11634 0.15081,-0.0406 -0.0351,-0.24951 0.0365,-0.0863 0.0365,-0.0863 0.1163,0.0457 0.0458,-0.11626 0.20893,-0.0176 0.203,0.0814 0.0365,-0.0863 -0.041,-0.15093 z m -13.4662,-3.69023 -0.40613,0.17444 -0.24942,0.37153 -0.098,0.83568 -0.1036,0.76612 -0.43473,0.83592 -0.20305,0.25544 -0.26665,0.33099 -0.0815,0.20308 0.11632,0.0458 0.0527,0.12188 0.0868,0.0366 0.1396,0.49312 -0.0814,0.20305 0.1508,-0.0407 0.3364,-0.33682 0.23189,-0.24393 0.30044,-1.09134 0.0458,-0.11629 0.34769,-0.5342 -0.25592,-0.53946 0.11525,-0.29045 0.0366,-0.0865 0.16239,-0.0698 0.24371,-0.10462 0.11524,-0.29043 0.11525,-0.29049 -0.12822,-0.52217 -0.29037,-0.11526 z m 11.04184,5.21273 -0.28985,0.22082 -0.23795,0.006 -0.12204,0.0522 -0.19714,0.15686 -0.0814,0.20307 0.0814,0.13334 0.42967,0.27233 0.11634,0.0457 0.12201,-0.0522 0.11526,-0.29042 0.0365,-0.0863 -0.006,-0.23802 0.25531,-0.13366 0.11633,0.0457 0.0364,-0.0864 -0.25561,-0.20283 -0.11633,-0.0457 z m -2.97168,-0.64732 -0.0458,0.11627 -0.0689,0.17441 -0.0814,0.20305 0.0866,0.0366 -0.0366,0.0865 0.0409,0.15092 0.29033,0.11522 0.11636,0.0456 0.0867,0.0366 0.0458,-0.11625 0.0365,-0.0864 -0.12219,-0.28428 -0.13932,-0.1565 0.0364,-0.0865 -0.0698,-0.16242 -0.17451,-0.0689 z m -3.93562,-1.43558 -0.0365,0.0865 -0.0815,0.20307 -0.0687,0.17444 -0.24947,0.37152 -0.15054,0.3773 -0.16839,0.16834 -0.1508,0.0405 -0.12202,0.0522 0.0408,0.15088 0.0465,0.22046 0.0931,0.27272 0.002,0.33657 -0.0814,0.20305 -0.0642,0.41202 0.0526,0.12185 0.0698,0.16243 0.0866,0.0366 0.24954,-0.035 0.12774,0.18557 0.0813,0.1333 0.0931,0.27271 0.11629,0.0457 0.13363,-0.0812 0.0293,-0.32502 0.35964,-0.0583 0.16838,-0.16835 0.46954,-0.58653 0.0815,-0.20303 -0.11626,-0.0457 -0.0527,-0.12188 0.0459,-0.11629 0.20308,-0.25544 0.17901,-0.70244 -0.17446,-0.40603 -0.2092,-0.31895 -0.66763,-0.26636 -0.22067,-0.28994 -0.1163,-0.0459 z m 5.03928,2.54878 -0.25531,0.13369 -0.29033,-0.11534 -0.23795,0.006 -0.0459,0.11631 -0.15683,0.1393 -0.36524,0.32531 -0.0689,0.1744 -0.0867,-0.0364 -0.0458,0.11634 -0.0689,0.17437 0.12774,0.18555 0.11628,0.0457 0.13362,-0.0812 0.0868,0.0366 0.44101,0.0749 0.20928,0.31907 0.0179,0.20894 0.041,0.15093 0.0813,0.13334 0.25533,-0.13366 0.52175,-0.46472 0.15081,-0.0407 0.0365,-0.0863 0.16238,-0.40623 -0.0812,-0.13335 -0.0866,-0.0366 -0.26155,-0.44077 -0.12208,-0.28425 -0.203,-0.0814 z m 1.55092,1.76273 -0.12202,0.0522 -0.1509,0.0407 -0.1336,0.0812 -0.15682,0.13927 -0.0458,0.11632 -0.0365,0.0865 0.0865,0.0365 0.0527,0.12185 0.11629,0.0458 0.53389,0.0103 0.16239,-0.0697 0.0364,-0.0863 -0.20928,-0.319 -0.13368,-0.2552 z m -9.02651,-3.26479 -0.64999,-0.057 -0.0869,-0.0365 -0.16836,0.16838 0.006,0.23801 0.2208,0.28995 0.0866,0.0365 0.11634,0.0456 0.17448,0.0689 0.20301,0.0814 0.15681,0.19719 0.22055,-0.0465 0.23191,-0.24394 -0.0465,-0.22046 -0.46471,-0.52188 z m 5.74782,3.30252 -0.12202,0.0523 -0.0365,0.0863 -0.0814,0.20306 0.006,0.23804 0.29054,0.11534 0.23191,-0.24391 -0.0351,-0.24952 -0.0526,-0.12186 -0.20311,-0.0814 z"
       id="ME-02"
       style="font-style:normal;font-weight:400;font-size:34.375px;font-family:'MS Shell Dlg 2';opacity:1;fill:none;fill-opacity:1;fill-rule:evenodd;stroke:#000000;stroke-width:0.33333385;stroke-linecap:square;stroke-linejoin:bevel;stroke-miterlimit:4;stroke-dasharray:none;stroke-opacity:1" />
  </g>
</svg>
