<?xml version="1.0" encoding="UTF-8" standalone="no"?>
<!-- Created with Inkscape (http://www.inkscape.org/) -->

<svg
   xmlns:dc="http://purl.org/dc/elements/1.1/"
   xmlns:cc="http://creativecommons.org/ns#"
   xmlns:rdf="http://www.w3.org/1999/02/22-rdf-syntax-ns#"
   xmlns:svg="http://www.w3.org/2000/svg"
   xmlns="http://www.w3.org/2000/svg"
   xmlns:sodipodi="http://sodipodi.sourceforge.net/DTD/sodipodi-0.dtd"
   xmlns:inkscape="http://www.inkscape.org/namespaces/inkscape"
   width="44.475906mm"
   height="29.868864mm"
   viewBox="0 0 157.59179 105.83456"
   id="svg12983"
   version="1.1"
   inkscape:version="0.91 r"
   sodipodi:docname="10.svg">
  <defs
     id="defs12985" />
  <sodipodi:namedview
     id="base"
     pagecolor="#ffffff"
     bordercolor="#666666"
     borderopacity="1.0"
     inkscape:pageopacity="0.0"
     inkscape:pageshadow="2"
     inkscape:zoom="9.2822108"
     inkscape:cx="55.730492"
     inkscape:cy="52.580264"
     inkscape:document-units="px"
     inkscape:current-layer="layer1"
     showgrid="false"
     fit-margin-top="1"
     fit-margin-left="1"
     fit-margin-right="1"
     fit-margin-bottom="1"
     inkscape:window-width="2560"
     inkscape:window-height="1388"
     inkscape:window-x="0"
     inkscape:window-y="0"
     inkscape:window-maximized="1" />
  <metadata
     id="metadata12988">
    <rdf:RDF>
      <cc:Work
         rdf:about="">
        <dc:format>image/svg+xml</dc:format>
        <dc:type
           rdf:resource="http://purl.org/dc/dcmitype/StillImage" />
        <dc:title></dc:title>
      </cc:Work>
    </rdf:RDF>
  </metadata>
  <g
     inkscape:label="Layer 1"
     inkscape:groupmode="layer"
     id="layer1"
     transform="translate(-332.53884,-538.55144)">
    <path
       inkscape:connector-curvature="0"
       d="m 368.26824,542.25973 0.0496,0.21298 0.0706,0.30451 -0.0719,0.24135 0.0226,0.0905 0.3044,-0.0705 0.0228,0.0907 0.12184,-0.0279 0.18286,-0.0419 0.21296,-0.0496 0.2626,0.16348 0.0702,-0.11252 -0.0278,-0.12189 -0.0705,-0.30449 -0.042,-0.18274 -0.11969,-0.10043 -0.53861,0.0301 -0.44522,-0.12097 z m 6.25673,0.27662 0.0226,0.0907 -0.0906,0.0226 -0.10043,0.11957 -0.0906,0.0226 -0.0905,0.023 -0.44663,0.42475 -0.0628,0.14298 -0.35535,0.40357 -0.11168,0.34683 0.0226,0.0907 0.11255,0.07 0.46651,0.2123 0.12189,-0.0277 0.26178,-0.25344 0.11261,0.07 0.11265,0.07 0.17132,0.18473 0.0705,0.30448 -0.10041,0.1196 -0.063,0.14302 -0.0701,0.11255 -0.28307,0.16204 -0.18476,0.17135 -0.0906,0.0226 -0.12185,0.0277 0.0705,0.30448 0.37532,0.23351 0.25551,0.13302 0.40352,0.35532 0.13389,0.16135 0.17133,0.18475 0.092,0.39568 -0.0511,0.3327 0.0278,0.12186 -0.0909,0.43819 0.0496,0.21298 0.0228,0.0906 0.0227,0.0906 0.0907,-0.0227 0.0907,-0.0226 -0.0419,-0.18277 0.0937,-0.15007 -0.0226,-0.0908 0.0906,-0.0226 0.23428,0.0416 0.0277,0.12184 0.11263,0.07 0.0227,0.0906 0.0278,0.12188 0.0906,-0.0227 0.0227,0.0906 0.14296,0.063 0.0907,-0.0226 0.0277,0.12187 0.0419,0.18278 -0.063,0.14296 -0.14226,0.35395 -0.0701,0.11254 -0.10043,0.1196 -0.0906,0.0227 0.0278,0.12185 -0.14217,0.35396 0.0226,0.0906 0.17133,0.18471 0.16207,0.28317 0.0906,-0.0227 0.0417,0.18278 0.17134,0.18472 0.14094,0.1918 0.23433,0.0416 0.0907,-0.0227 0.07,-0.11251 0.0938,-0.15006 -0.21383,-0.36736 -0.2321,-0.17059 -0.19257,-0.27605 0.10043,-0.11957 0.13295,-0.25554 0.44664,-0.42478 0.17052,-0.23221 -0.0278,-0.12188 0.39574,-0.0919 0.0907,-0.0226 0.12185,-0.0279 0.0906,-0.0226 0.24142,0.072 0.20379,0.0489 0.1713,0.1847 0.1339,0.1614 c 0.0709,-0.19197 0.22135,-0.34199 0.25898,-0.54158 0.15854,-0.259 -0.10555,-0.91313 0.22783,-0.9514 0.42675,0.27254 0.86392,0.53887 1.28272,0.82447 0.32511,0.2698 0.2461,0.86829 0.71867,1.0199 0.58527,0.0918 1.0385,0.52582 1.48661,0.8733 0.39276,0.2749 0.23466,0.80178 0.40509,1.18912 0.33842,0.37478 0.92023,0.40865 1.22183,0.83867 0.12541,0.32864 0.0378,0.71899 -0.0109,1.06105 -0.33814,0.23542 -0.33675,0.61866 -0.1903,0.97475 l -0.0557,1.55305 0.54579,9.1e-4 c -0.13235,0.15752 -0.18139,0.44931 -0.29152,0.67744 -0.11016,0.22813 -0.3003,0.37125 -0.73049,0.17009 -0.40718,-0.0321 -0.74149,0.18496 -1.01576,0.46096 -0.27409,0.27587 -0.46827,0.6323 -0.65883,0.89127 -0.30869,0.13155 -0.32159,0.39796 -0.31485,0.71502 0.004,0.31699 0.01,0.66453 -0.24208,0.89049 0.13057,0.1672 0.4182,0.21661 0.71716,0.18605 0.29909,-0.0295 0.60101,-0.14091 0.78428,-0.21453 0.094,-0.2416 0.3269,-0.15404 0.5528,0.0322 0.22609,0.18573 0.45194,0.46937 0.55865,0.60798 0.30244,0.22844 0.37477,0.52956 0.31295,0.79346 -0.0621,0.2639 -0.24729,0.4859 -0.43454,0.61448 0.61253,0.43236 0.88539,1.10003 1.06205,1.80629 0.0684,0.17452 0.17959,0.41205 0.17198,0.60168 l -1.44045,0.0143 c 0.0253,0.35248 0.12996,0.66682 0.28748,0.95981 0.15757,0.29301 0.35923,0.55891 0.65484,0.746 0.11028,0.24099 0.23399,0.30578 0.35188,0.27103 0.11798,-0.0345 0.2504,-0.16857 0.37651,-0.31221 0.12616,-0.14361 0.25798,-0.29456 0.39285,-0.38021 0.13475,-0.0858 0.28017,-0.10963 0.424,0.0294 -0.0215,0.43249 -0.12773,0.88634 -0.38414,1.24446 l 0.10029,3.60228 c -0.0315,0.52831 -0.24264,0.80361 -0.53923,0.99177 -0.29657,0.18819 -0.66537,0.2957 -1.00868,0.49138 0.0134,0.66814 0.0117,1.34182 0.0204,2.01667 -0.31556,0.0788 -0.56296,0.34747 -0.67811,0.67117 -0.11494,0.32367 -0.0889,0.71585 0.11234,1.03271 0.15265,0.18942 0.17739,0.32666 0.13682,0.44945 -0.0406,0.1228 -0.15632,0.21824 -0.27811,0.3214 -0.24386,0.20631 -0.54901,0.43189 -0.44585,0.8417 l -0.52239,-0.0388 c -0.037,0.45188 -0.11121,0.92596 -0.0746,1.33292 0.0469,0.52471 0.22083,0.95756 0.70019,1.21669 l 0.0888,0.65324 -0.59879,0.46021 -0.21364,1.01225 0.87431,0.30992 -0.0144,-0.47782 0.25766,10e-4 0.0103,-0.773 0.81754,0.0662 0.0436,-0.36315 0.41691,4.5e-4 -0.0172,1.03062 0.66888,-0.57277 -0.053,0.46152 0.55289,0.0323 c -0.10004,-0.25428 -0.12605,-0.50601 0.0178,-0.61372 0.17346,-0.13026 0.46735,-0.1054 0.74751,0.17899 0.40681,0.22388 0.56599,0.62419 0.74908,1.01284 0.183,0.38862 0.39569,0.75985 0.87999,0.88609 0.58507,0.13659 1.16154,0.35438 1.68762,0.63397 0.52588,0.27968 1.00598,0.61369 1.4307,1.04673 0.77514,0.7177 1.50599,1.57385 2.32773,2.28181 0.41083,0.35401 0.83631,0.65987 1.304,0.91579 0.46767,0.25588 0.98298,0.44652 1.53755,0.54056 0.53461,0.0163 1.03505,-0.12192 1.48437,-0.37744 0.44919,-0.25505 0.83532,-0.63094 1.1763,-1.01167 0.57366,-0.14909 0.82054,-0.57412 1.04039,-1.04426 0.21979,-0.47006 0.41796,-0.9654 0.86201,-1.25938 0.37342,-0.28944 0.68655,-0.69795 1.0404,-1.04423 0.35363,-0.34623 0.75444,-0.65427 1.26338,-0.77526 0.26303,-0.13315 0.38817,-0.29525 0.45578,-0.52317 0.0676,-0.22793 0.0856,-0.52089 0.0737,-0.78716 -0.0248,-0.5325 -0.0995,-1.05903 0.2504,-1.40583 0.36095,-0.0727 0.72611,-0.2566 0.91025,-0.50056 0.18411,-0.2439 0.18624,-0.55074 -0.17499,-0.88977 -0.40417,-0.36248 -0.49488,-0.80354 -0.41213,-1.21957 0.0826,-0.41606 0.33612,-0.82726 0.56479,-1.15814 -0.47831,-0.10973 -0.84861,-0.38007 -1.13276,-0.73104 -0.28394,-0.35102 -0.49267,-0.7845 -0.63931,-1.23087 -0.0858,-0.60959 0.20963,-1.11725 0.48176,-1.65219 0.27231,-0.53498 0.53329,-1.09365 0.4068,-1.69893 -0.12726,-0.2818 -0.30683,-0.51602 -0.44179,-0.79557 -0.135,-0.27954 0.86016,-0.14591 0.67382,-0.4135 -0.18627,-0.26687 2.01413,-0.78955 2.15109,-0.82139 0.32811,-0.0762 0.33002,-0.19579 0.50034,-0.46938 0.18618,-0.29908 0.60088,-0.31352 0.51173,-0.69662 -0.0908,-0.39119 -0.0985,-0.63558 0.052,-0.87845 0.1628,-0.26164 0.44361,-0.45616 0.71338,-0.51892 0.2135,-0.0497 0.14599,-0.1795 -0.0112,-0.31852 -0.15607,-0.13902 -0.3972,-0.30091 -0.50901,-0.39491 -0.0539,-0.0454 -0.12045,-0.0489 -0.18055,-0.0861 -0.45246,-0.28171 -0.37708,-0.65546 -0.48926,-1.13745 -0.0833,-0.35924 -0.31782,-0.53844 -0.39511,-0.87064 -0.16753,-0.71954 -0.24228,-0.66878 -1.09172,-1.38226 -0.0976,-0.0819 -0.16208,-0.22753 -0.23711,-0.32986 -0.18955,-0.25799 0.74178,-0.46333 0.59589,-0.74826 -0.49433,-0.96439 -0.54794,-1.21018 -0.46171,-1.43262 0.0861,-0.22244 0.30714,-0.41406 0.4521,-1.22816 0.0299,-0.1672 -0.14368,-0.10916 -0.23221,-0.1706 -0.0887,-0.0618 -0.0827,-0.25731 0.29575,-0.93511 0.18473,-0.33084 0.42715,-0.45608 0.65966,-0.47435 0.23258,-0.0177 0.44105,0.0708 0.64208,0.13933 0.20086,0.0689 0.37184,0.12252 0.46144,0.0529 0.0895,-0.0697 0.10433,-0.24125 0.003,-0.67461 -0.0627,-0.26973 0.21851,-0.0196 0.52025,0.16769 0.15094,0.0935 0.33343,0.17541 0.45238,0.15141 0.11916,-0.023 0.18405,-0.13345 0.18896,-0.42898 0.007,-0.28765 0.60128,-0.1231 0.78634,-0.34343 0.3041,-0.36198 0.55587,-0.28237 0.72117,-0.0721 0.16557,0.21074 0.26778,0.54094 0.32222,0.69506 0.0727,0.20697 0.29702,0.27229 0.60954,0.27525 0.31231,0.006 0.69871,-0.0552 1.08648,-0.15657 0.31011,-0.0819 0.39136,-0.12621 0.65544,-0.2167 -0.27371,-0.13047 -0.5748,-0.24382 -0.79003,-0.3616 0.27669,-0.22952 0.42988,-0.59267 0.40119,-0.89551 -0.028,-0.30287 -0.23839,-0.54252 -0.65696,-0.61712 -0.22126,-0.10203 -0.54105,0.0312 -0.78214,0.0852 -0.24145,0.0524 -0.39452,0.008 -0.35683,-0.43034 -0.0393,-0.37498 0.0606,-0.72451 0.23706,-1.04976 0.17647,-0.32521 0.42765,-0.62633 0.65885,-0.89128 0.20584,-0.22878 0.5378,-0.29714 0.8331,-0.41849 0.29509,-0.12121 0.52693,-0.29951 0.51164,-0.69659 0.0879,-0.38906 -0.10024,-0.64854 -0.34131,-0.91521 -0.24012,-0.26679 -0.53137,-0.53668 -0.62228,-0.88191 -0.1996,-0.59654 -0.39706,-1.21214 -0.13711,-1.82904 0.097,-0.20549 0.0541,-0.34889 -0.0451,-0.47076 -0.0995,-0.12186 -0.26567,-0.22084 -0.42682,-0.31779 -0.16138,-0.0971 -0.30755,-0.19427 -0.39655,-0.32483 -0.0891,-0.13056 -0.10959,-0.29238 0.009,-0.51529 -0.0352,-0.28269 0.21581,-0.61335 0.37089,-0.88846 0.0771,-0.13752 0.13282,-0.26936 0.10467,-0.37725 -0.0281,-0.10788 -0.13978,-0.17365 -0.37508,-0.23356 -0.30263,-0.21475 -0.65203,-0.17155 -0.99818,-0.15275 -0.34596,0.0187 -0.68616,0.009 -0.91166,-0.33328 -0.0973,-0.35699 0.0818,-0.66972 0.28864,-0.96555 0.01,-0.013 0.0145,-0.0253 0.0237,-0.0378 l -2.26515,-0.0826 -0.84296,0.10007 -0.20396,-0.0491 -0.54569,-9e-4 -1.19695,-0.0423 -1.93953,-0.0621 -0.39574,0.0919 -0.11961,-0.10043 -1.614,-0.0413 -0.96256,-10e-4 -2.36573,0.0377 -4.28887,-0.0929 -3.65179,-0.11291 -0.77299,-0.0104 -1.82484,-0.12081 -0.23438,-0.0416 -0.72837,0.0411 -2.18091,-0.13415 -0.62997,0.0501 -2.27226,-0.11308 -0.96265,-0.001 -0.41699,-4.6e-4 -1.28826,-0.0204 -0.98385,-0.0917 -0.32571,-0.0206 -0.63704,0.0203 -0.89259,-0.11313 -0.39573,0.0919 -0.14297,-0.0629 -0.0906,0.0226 -0.0904,0.0226 -0.23434,-0.0416 z m 0.50293,7.2625 -0.0492,0.20388 -0.0417,0.23433 -0.0719,0.24138 0.0419,0.18276 0.21305,-0.0496 0.11966,0.10042 0.16427,0.1543 0.14083,0.19181 0.0705,0.30448 0.0226,0.0906 0.0706,0.30446 0.72994,0.79271 0.3751,0.23358 0.0906,-0.0226 -0.0418,-0.18284 -0.12036,-0.51745 -0.46727,-0.62923 -0.1196,-0.10043 -0.23434,-0.0416 -0.0496,-0.21297 -0.0226,-0.0906 -0.21178,-0.49615 -0.19255,-0.27606 -0.0227,-0.0906 -0.14082,-0.19183 -0.25551,-0.13305 z"
       id="WA-01"
       style="font-style:normal;font-weight:400;font-size:34.375px;font-family:'MS Shell Dlg 2';opacity:1;fill:none;fill-opacity:1;fill-rule:evenodd;stroke:#000000;stroke-width:0.33333385;stroke-linecap:square;stroke-linejoin:bevel;stroke-miterlimit:4;stroke-dasharray:none;stroke-opacity:1" />
    <path
       inkscape:connector-curvature="0"
       d="m 379.18904,547.96422 c -0.33352,0.0385 -0.0692,0.69238 -0.22776,0.95138 -0.0374,0.19958 -0.18787,0.34962 -0.259,0.54158 l 0.14092,0.1918 0.12187,-0.0279 0.14082,0.19184 0.0907,-0.0228 0.0228,0.0906 0.0227,0.0908 -0.0908,0.0227 -0.0415,0.23429 -0.10043,0.11957 0.0277,0.12186 -0.0702,0.11257 -0.0906,0.0226 -0.12183,0.0279 -0.07,0.11252 0.0278,0.12185 0.0227,0.0906 0.0501,0.63002 0.0496,0.21292 0.0708,0.30449 0.0226,0.0906 0.0705,0.30449 0.14084,0.19184 0.0227,0.0905 0.0226,0.0907 0.31219,0.37651 0.1339,0.16136 0.33268,0.0511 0.37591,0.6505 0.0226,0.0907 -0.20509,0.49693 0.0227,0.0907 -0.19187,0.14083 -0.18477,0.17136 -0.0906,0.0227 -0.0906,0.0226 -0.28324,0.16212 -0.14301,-0.0629 -0.0277,-0.12185 -0.11253,-0.07 -0.0228,-0.0908 -0.0496,-0.21299 -0.32559,-0.0206 -0.39563,0.0919 0.0419,0.18277 0.0906,-0.0227 0.11959,0.10043 0.23435,0.0416 0.0908,-0.0228 0.0705,0.3045 0.31301,0.79344 -0.10053,0.1196 0.0227,0.0908 0.0278,0.12185 -0.0492,0.2039 0.0705,0.30444 -0.063,0.14306 0.0706,0.30447 0.11261,0.0699 0.11264,0.07 -0.0627,0.14302 -0.19189,0.14082 -0.0905,0.0227 -0.28309,0.16204 -0.23436,-0.0416 -0.0227,-0.0907 -0.1196,-0.10043 -0.11252,-0.07 -0.10042,0.11958 -0.11259,-0.0699 -0.0706,-0.30447 -0.23302,-0.58747 -0.0228,-0.0906 -0.12187,0.0278 -0.0497,-0.21294 -0.20374,-0.049 -0.12188,0.0279 -0.21103,-0.0795 -0.0419,-0.18276 -0.0278,-0.12185 -0.14296,-0.0629 -0.0908,0.0226 -0.0905,0.0226 -0.40492,0.19043 -0.0909,0.0226 -0.27603,0.19259 -0.0906,0.0227 -0.21293,0.0497 -0.0906,0.0227 -0.0278,-0.12184 -0.14295,-0.0627 -0.1615,0.13381 0.0278,0.12184 -0.12187,0.0278 -0.0491,0.20383 -0.0627,0.143 -0.17063,0.23223 0.007,0.44735 0.0227,0.0906 0.20395,0.0491 0.12188,-0.0278 -0.0419,-0.18278 0.11174,-0.34683 0.4474,-0.008 0.0906,-0.0226 0.0496,0.21299 0.11363,0.48691 -0.23354,0.37521 -0.11262,-0.07 -0.12187,0.0279 -0.07,0.11251 0.0994,0.42605 0.13381,0.16135 0.0278,0.12184 0.2556,0.13307 0.0905,-0.0226 0.21296,-0.0496 0.21291,-0.0496 0.18287,-0.0419 0.49615,-0.21168 0.19186,-0.14083 0.0416,-0.23433 0.07,-0.11247 0.12188,-0.0278 0.18287,-0.0419 0.0226,0.0906 0.14299,0.0629 -0.14229,0.35397 -0.0416,0.23431 0.0496,0.21299 0.0419,0.18276 0.11969,0.10043 0.11261,0.07 0.092,0.39567 0.15008,0.0938 0.0419,0.18277 0.11964,0.10043 0.0227,0.0906 0.14083,0.19181 0.23434,0.0416 0.0905,-0.0226 0.14299,0.0628 0.0906,-0.0227 0.28383,0.25483 0.14094,0.1918 0.28396,0.25477 0.20377,0.0491 0.12185,-0.0278 0.25353,0.26182 0.0278,0.12188 0.16424,0.15429 0.0278,0.12186 0.11253,0.0701 0.0227,0.0906 0.11957,0.10043 0.0419,0.18272 0.0278,0.12188 0.16428,0.1543 -0.41823,0.54652 -0.14228,0.35392 -0.16127,0.13381 -0.49704,-0.20522 -0.1125,-0.07 -0.26261,-0.16347 -0.11264,-0.07 -0.11965,-0.10042 -0.2051,0.49691 -0.12189,0.0279 -0.18284,0.0419 -0.15011,-0.0938 -0.0227,-0.0906 -0.0906,0.0226 -0.3957,0.0921 -0.10043,0.11959 -0.0415,0.23429 -0.0206,0.32561 0.0228,0.0906 0.0278,0.12185 -0.14232,0.35397 -0.0485,0.20387 0.0278,0.12188 -0.0294,0.42398 0.17133,0.18474 0.042,0.18275 0.0498,0.213 0.0228,0.0905 0.12025,0.51748 0.0496,0.21296 0.11263,0.07 0.28392,0.25478 0.0228,0.0907 0.0906,-0.0227 -0.0228,-0.0907 0.0906,-0.0226 -0.0227,-0.0908 0.12186,-0.0278 0.18288,-0.0419 0.0226,0.0906 0.30506,0.34612 0.40354,0.35527 0.0907,-0.0227 0.0227,0.0906 0.17135,0.18473 0.16204,0.28313 0.13379,0.1614 0.0706,0.30447 0.0278,0.12185 0.25562,0.13303 0.26266,0.16342 0.0908,-0.0226 -0.0227,-0.0906 -0.0278,-0.12186 -0.23294,-0.58752 -0.16425,-0.15426 -0.14094,-0.1918 -0.44601,-0.53792 -0.14084,-0.19181 -0.16424,-0.15429 -0.0906,0.0226 -0.0278,-0.12186 -0.11265,-0.07 -0.0226,-0.0907 -0.0278,-0.12185 -0.19262,-0.27606 -0.11249,-0.07 -0.21167,-0.49618 -0.042,-0.18273 -0.008,-0.44738 0.19177,-0.14081 0.0906,-0.0227 0.0228,0.0907 0.19189,-0.14085 0.25469,-0.28385 -0.0226,-0.0907 -0.0227,-0.0906 -0.12185,0.0278 -0.0995,-0.42605 0.10043,-0.11962 0.30458,-0.0705 0.0906,-0.0227 0.0227,0.0906 0.56703,0.0927 0.0227,0.0906 0.11962,0.10043 0.0226,0.0907 0.0229,0.0907 0.0706,0.30444 0.0496,0.21302 0.0906,-0.023 0.0497,0.21301 0.16427,0.15426 -0.0511,0.33274 0.0278,0.12183 -0.0702,0.11255 -0.07,0.1125 0.0277,0.12187 0.0419,0.18279 0.0705,0.30446 0.0278,0.12188 -0.10043,0.11959 0.0497,0.21296 0.0227,0.0906 0.28466,0.67173 0.37508,0.23354 0.0496,0.213 0.2748,0.35318 0.17134,0.1847 0.11249,0.07 0.0497,0.21301 0.1125,0.07 0.0278,0.12186 0.37531,0.23353 0.14294,0.063 0.37513,0.23355 0.0227,0.0906 0.16216,0.28315 -0.063,0.143 -0.0796,0.21097 -0.0623,0.55989 0.0227,0.0905 0.11961,0.10043 0.0227,0.0906 -0.07,0.1125 -0.12187,0.0278 -0.15438,0.16427 -0.19178,0.14082 -0.21291,0.0497 -0.0906,0.0227 -0.21302,0.0496 -0.1827,0.0418 -0.12189,0.0278 -0.18282,0.042 -0.12187,0.0279 0.0226,0.0906 -0.0415,0.23428 0.0496,0.21298 -0.0701,0.11254 0.0227,0.0907 -0.12187,0.0279 -0.063,0.14301 -0.0702,0.11253 0.0226,0.0907 -0.0937,0.15007 -0.0699,0.11252 0.0226,0.0906 0.0278,0.12188 -0.1422,0.35393 0.0419,0.18277 0.0278,0.12187 -0.0702,0.11254 0.0359,0.15204 0.0682,0.0161 -0.0895,2.23471 1.16654,0.0491 0.52244,0.0388 c -0.10261,-0.40994 0.20181,-0.63535 0.44582,-0.84173 0.12188,-0.10313 0.23747,-0.19859 0.27809,-0.32137 0.0405,-0.12279 0.0163,-0.26003 -0.1368,-0.44943 -0.20104,-0.3169 -0.22677,-0.7091 -0.11236,-1.0327 0.11504,-0.3237 0.36267,-0.59211 0.67817,-0.67116 -0.008,-0.67491 -0.006,-1.34858 -0.0205,-2.01668 0.34318,-0.19567 0.7121,-0.30323 1.00868,-0.4914 0.29658,-0.18813 0.50754,-0.46348 0.53922,-0.99178 l -0.10027,-3.60227 c 0.25653,-0.35814 0.36283,-0.81195 0.38417,-1.24446 -0.14383,-0.13929 -0.28937,-0.11519 -0.42399,-0.0293 -0.13486,0.0858 -0.26671,0.23659 -0.39285,0.3802 -0.12615,0.14361 -0.25865,0.27747 -0.37654,0.31218 -0.11796,0.0344 -0.24162,-0.0298 -0.35191,-0.271 -0.29566,-0.18709 -0.49729,-0.453 -0.65481,-0.74599 -0.15756,-0.293 -0.26177,-0.6074 -0.28747,-0.95986 l 1.44046,-0.0144 c 0.005,-0.18963 -0.10355,-0.4272 -0.1721,-0.60166 -0.17673,-0.70623 -0.44952,-1.37399 -1.06202,-1.8063 0.18724,-0.12854 0.37275,-0.35058 0.43453,-0.61448 0.062,-0.26387 -0.0109,-0.56499 -0.31298,-0.79345 -0.10665,-0.13863 -0.33245,-0.42231 -0.55863,-0.60797 -0.226,-0.1857 -0.45859,-0.27338 -0.55278,-0.0323 -0.18331,0.0736 -0.48535,0.18408 -0.78434,0.21453 -0.29904,0.0295 -0.58642,-0.019 -0.71708,-0.18604 0.25119,-0.22589 0.24846,-0.57344 0.24203,-0.89054 -0.004,-0.31703 0.006,-0.58338 0.31485,-0.71497 0.19057,-0.25895 0.38485,-0.61538 0.65885,-0.89126 0.2742,-0.2759 0.60853,-0.49327 1.01575,-0.46096 0.43021,0.20124 0.62031,0.0583 0.73043,-0.17008 0.11018,-0.22813 0.15925,-0.51994 0.29157,-0.67743 l -0.54579,-9.2e-4 0.0556,-1.55306 c -0.14642,-0.35608 -0.14812,-0.73928 0.19034,-0.97475 0.0472,-0.34205 0.13503,-0.73241 0.0109,-1.06104 -0.30153,-0.43008 -0.88354,-0.46385 -1.22189,-0.83865 -0.17041,-0.38741 -0.0125,-0.91422 -0.40504,-1.18915 -0.44805,-0.34751 -0.90146,-0.78134 -1.48666,-0.87327 -0.47244,-0.15169 -0.39355,-0.75014 -0.71863,-1.01994 -0.41885,-0.28559 -0.856,-0.5519 -1.28276,-0.82446 z m -8.02463,2.60536 -0.18467,0.17131 -0.30447,0.0706 0.0226,0.0906 -0.16352,0.26265 -0.32477,0.39644 -0.28318,0.16206 -0.19174,0.14083 -0.15437,0.16425 0.0227,0.0905 -0.21292,0.0496 -0.0416,0.2343 -0.0795,0.21097 -0.15438,0.16425 -0.26181,0.25345 -0.18474,0.17132 0.0418,0.18277 0.42478,0.4466 -0.0701,0.11256 -0.21302,0.0496 0.11966,0.10043 0.14296,0.0627 0.0496,0.21297 0.30443,-0.0704 0.0227,0.0906 0.0908,-0.0228 0.14095,0.19182 0.0226,0.0906 -0.0416,0.23431 -0.0907,0.0226 -0.24132,-0.0719 -0.21294,0.0497 -0.11259,-0.07 -0.23433,-0.0415 -0.23211,-0.17059 -0.17134,-0.18473 -0.0226,-0.0906 -0.0226,-0.0906 -0.25357,-0.26185 -0.12183,0.0279 -0.1196,-0.10043 -0.25552,-0.13307 -0.0278,-0.12185 0.0795,-0.21098 -0.0278,-0.12183 -0.0226,-0.091 -0.0497,-0.21295 -0.51751,0.12014 -0.11253,-0.07 -0.23434,-0.0416 -0.54571,-9.2e-4 -0.32492,0.39645 -0.14217,0.35395 0.0277,0.12185 0.0419,0.18277 0.12188,-0.0277 0.1827,-0.0418 0.19257,0.27602 0.0496,0.213 -0.12185,0.0277 -0.0416,0.23429 0.13379,0.16138 0.0277,0.12186 0.1642,0.1543 -0.0938,0.15008 0.0227,0.0906 0.0226,0.0906 -0.063,0.14301 0.18335,0.37444 0.0226,0.0907 0.0277,0.12186 0.14298,0.0628 0.0226,0.0906 0.11968,0.10042 0.11261,0.0699 0.17132,0.18472 0.34675,0.1118 0.46656,0.21228 0.11961,0.10043 0.1926,0.27605 0.37525,0.23352 0.11253,0.07 0.0906,-0.0226 0.4758,0.1139 0.77085,0.14144 0.2129,-0.0496 0.18286,-0.0419 0.27593,-0.19258 0.15009,0.0938 0.0419,0.18276 -0.23347,0.37519 0.18268,-0.0419 0.12186,-0.0278 0.14095,0.19178 0.2343,0.0415 -0.0511,0.33268 0.0278,0.12189 0.14296,0.0629 0.18267,-0.0419 0.12186,-0.0278 0.0906,-0.0229 0.23435,0.0416 0.48691,-0.1135 0.24137,0.072 0.063,-0.14295 0.12186,-0.0278 -0.0226,-0.0906 -0.0706,-0.30446 -0.0497,-0.213 -0.0226,-0.0907 -0.17132,-0.18474 0.12103,-0.44527 -0.0227,-0.0906 -0.0278,-0.12185 0.0702,-0.11254 0.10042,-0.11962 0.18266,-0.0418 0.44667,-0.42482 0.0416,-0.23429 -0.23212,-0.17057 0.07,-0.11254 -0.0226,-0.0906 0.11388,-0.47569 0.16145,-0.13381 0.0719,-0.24141 -0.0226,-0.0906 -0.3052,-0.34608 -0.0277,-0.12188 -0.11261,-0.0699 -0.14298,-0.063 -0.0277,-0.12183 0.0795,-0.21096 -0.0278,-0.12185 0.0907,-0.0226 -0.0226,-0.0906 -0.18344,-0.37442 -0.0277,-0.12185 0.0907,-0.0228 0.23355,-0.37519 0.21292,-0.0497 0.18284,-0.042 0.1918,-0.14076 0.19177,-0.14087 0.25485,-0.2839 -0.0227,-0.0907 -0.35405,-0.1422 -0.72913,-0.37579 -0.0226,-0.0906 -0.14298,-0.0628 -0.25334,-0.26192 -0.15009,-0.0937 -0.0227,-0.0906 -0.0906,0.0227 -0.72915,-0.37577 -0.11261,-0.07 -0.23427,-0.0416 -0.21292,0.0497 -0.21106,-0.0795 z m 3.73021,3.20673 -0.19177,0.14084 -0.29657,0.51821 -0.0205,0.32556 0.11251,0.07 0.0227,0.0906 0.12037,0.51744 0.0496,0.21298 0.11255,0.07 0.51747,-0.12026 0.37584,-0.72915 -0.37603,-0.65045 -0.0278,-0.12187 -0.39645,-0.32485 z m 1.1957,0.58804 -0.0701,0.11256 -0.022,0.87138 0.0226,0.0906 -0.0206,0.32559 0.0497,0.21299 0.0227,0.0905 0.11251,0.07 0.12184,-0.0279 0.30461,-0.0705 0.37438,-0.18334 0.21302,-0.0497 0.14086,0.19181 0.11252,0.07 9e-4,-0.54573 -0.14299,-0.063 -0.1125,-0.0699 -0.2626,-0.16347 -0.11261,-0.07 -0.40355,-0.35527 -0.20457,-0.46575 -0.12185,0.0278 z m -0.47992,5.24528 0.0226,0.0906 -0.0713,0.6583 0.0226,0.0906 -0.063,0.14301 -0.14228,0.35397 -0.11169,0.34683 -0.17062,0.23221 -0.0627,0.14303 -0.23347,0.37516 -0.26193,0.25349 -0.12188,0.0279 0.0278,0.12188 -0.11169,0.34679 -0.0795,0.211 -0.063,0.143 -0.23357,0.37521 -0.0906,0.0227 0.0227,0.0907 -0.16355,0.26266 -0.21228,0.4665 -0.07,0.11252 0.0278,0.12185 0.16206,0.28315 0.34686,0.11179 0.0497,0.21297 0.1126,0.0699 0.2626,0.16349 0.0906,-0.0227 0.0227,0.0907 0.17132,0.18472 0.23231,0.17055 0.042,0.18271 0.0705,0.3045 0.0705,0.30447 0.12188,-0.0279 0.07,-0.11251 0.0905,-0.0228 0.21304,-0.0497 0.41685,4.6e-4 0.24142,0.0719 0.0227,0.0906 0.11263,0.07 0.0278,0.12189 0.092,0.39568 0.0228,0.0905 0.0278,0.12183 0.0706,0.30451 0.0226,0.0906 -0.0702,0.11254 -0.0416,0.23432 -0.12091,0.44526 -0.0416,0.23432 -0.10043,0.11957 0.0278,0.12184 0.30509,0.34613 0.0227,0.0908 0.0277,0.12188 0.0226,0.0906 -0.0415,0.23431 -0.19189,0.14081 -0.0702,0.11257 0.4461,0.5379 0.0907,-0.0227 0.26259,0.16349 0.0907,-0.0226 0.28391,0.25477 0.0227,0.0906 0.0277,0.12186 -0.0795,0.21094 -0.15441,0.16429 0.0227,0.0905 0.0497,0.21297 0.48693,-0.11352 0.12186,-0.0278 0.0416,-0.2343 0.28314,-0.16207 0.21294,-0.0496 0.32568,0.0206 0.0227,0.0906 0.28169,0.38364 0.0417,0.18276 0.12189,-0.0278 0.0277,0.12185 0.0706,0.30444 0.0227,0.0906 0.0227,0.0906 -0.0937,0.15005 -0.07,0.11252 0.0496,0.21297 0.0227,0.0906 0.18334,0.37446 0.24145,0.0719 0.0906,-0.0226 0.32549,0.0207 0.17133,0.18473 0.11262,0.0699 0.0702,-0.11252 0.12184,-0.0279 -0.0277,-0.12186 -0.0706,-0.30447 0.0905,-0.0226 0.0492,-0.20386 0.12187,-0.0278 0.0633,-0.14302 0.0907,-0.0227 -0.0228,-0.0906 0.1422,-0.35394 0.0701,-0.11252 -0.0497,-0.21296 -0.0227,-0.0906 -0.0496,-0.21302 -0.0227,-0.0907 -0.16204,-0.28316 -0.0497,-0.21296 -0.11248,-0.07 0.0416,-0.23431 -0.0226,-0.0906 -0.0497,-0.21297 0.0416,-0.2343 -0.0227,-0.0906 -0.0226,-0.0908 -0.21083,-0.0795 -0.23434,-0.0415 -0.11263,-0.07 -0.24131,-0.072 -0.11255,-0.07 -0.143,-0.063 -0.14093,-0.19181 -0.11262,-0.07 -0.22092,-0.39779 -0.25335,-0.26188 -0.1926,-0.27603 -0.16213,-0.28311 -0.0906,0.0226 -0.32549,-0.0206 -0.23435,-0.0415 0.0226,0.0906 0.18346,0.37444 0.0496,0.21295 -4.6e-4,0.41695 -0.0907,0.0227 -0.27594,0.19254 -0.12185,0.0278 -0.1197,-0.10043 -0.0419,-0.18275 -0.0277,-0.12189 -0.092,-0.39564 -0.21177,-0.49618 -0.16425,-0.15429 0.0938,-0.15009 0.14023,-0.22513 0.0937,-0.15007 -0.18425,-0.79136 -0.0496,-0.21298 -0.0227,-0.0906 -0.2209,-0.39777 0.0511,-0.33268 -0.0226,-0.0908 -0.37603,-0.65044 -0.11971,-0.10043 -0.30506,-0.34614 -0.07,0.1125 -0.14298,-0.0632 -0.20395,-0.0489 -0.12186,0.0278 -0.11959,-0.10043 -0.0906,0.0226 0.0489,-0.20386 -0.0496,-0.21299 0.07,-0.11251 0.2053,-0.49697 0.10043,-0.11958 0.0906,-0.0227 0.3045,-0.0705 0.0907,-0.0227 0.0719,-0.24139 -0.0226,-0.0906 0.0906,-0.0228 -0.14083,-0.19181 0.16128,-0.13369 0.30459,-0.0705 0.12188,-0.0277 0.20378,0.049 0.15006,0.0937 0.39657,0.32481 0.0906,-0.0227 0.32557,0.0206 0.21305,-0.0498 0.07,-0.11254 0.07,-0.11252 0.18478,-0.17134 -0.0226,-0.0906 0.0417,-0.23433 -0.16218,-0.2831 -0.0907,0.0226 -0.0226,-0.0906 -0.58892,-0.6009 -0.0905,0.0227 -0.14095,-0.1918 -0.14297,-0.0627 -0.21087,-0.0795 -0.0419,-0.18276 -0.0278,-0.12187 -0.0227,-0.0906 0.0416,-0.23432 0.0489,-0.20386 -0.0278,-0.12187 0.0795,-0.21095 -0.24134,-0.072 -0.042,-0.18276 -0.0496,-0.213 -0.11254,-0.07 -0.19187,0.14085 -0.25478,0.28389 -0.0278,-0.12185 -0.0226,-0.0906 -0.23423,-0.0416 -0.39569,0.092 z"
       id="WA-02"
       style="font-style:normal;font-weight:400;font-size:34.375px;font-family:'MS Shell Dlg 2';opacity:1;fill:none;fill-opacity:1;fill-rule:evenodd;stroke:#000000;stroke-width:0.33333385;stroke-linecap:square;stroke-linejoin:bevel;stroke-miterlimit:4;stroke-dasharray:none;stroke-opacity:1" />
    <path
       inkscape:connector-curvature="0"
       d="m 428.44025,633.17517 0.041,-5.75274 -32.61029,-0.46435 0.0688,-9.76986 2.84841,0.10745 c 0.0307,-0.40691 -0.10105,-0.82766 -0.28329,-1.2175 -0.18245,-0.38979 -0.41145,-0.74665 -0.57355,-1.08574 -0.073,-0.34039 -0.15394,-0.69919 -0.17974,-1.04905 -0.026,-0.34984 -0.004,-0.70704 0.17612,-1.03563 0.32932,-0.28176 0.38807,-0.62655 0.4104,-0.99389 0.022,-0.3673 0.0291,-0.76274 0.22987,-1.0802 0.17953,-0.35578 0.0103,-0.74249 -0.0654,-1.10782 -0.0781,-0.36519 -0.0855,-0.70168 0.34956,-0.97968 0.21887,-0.15903 0.33944,-0.31684 0.37152,-0.4715 0.0324,-0.15467 -0.015,-0.31628 -0.10609,-0.45659 -0.186,-0.28044 -0.54295,-0.50392 -0.86077,-0.66598 -0.294,-0.14201 -0.46351,-0.34967 -0.52105,-0.58462 -0.0375,-0.15036 0.0357,-0.30939 0.0832,-0.4686 l -6.14411,-0.20655 -1.4587,1.59076 -0.15208,0.0359 c -0.43518,-0.20007 -0.87364,-0.439 -1.35481,-0.58306 -0.48133,-0.14412 -1.00309,-0.22391 -1.53683,-0.12366 -0.66572,0.0876 -1.34115,0.12672 -2.00964,0.0507 -0.66838,-0.0761 -1.31241,-0.26721 -1.90772,-0.61485 -0.25271,-0.35188 -0.67084,-0.29428 -1.05682,-0.26745 -0.38609,0.0266 -0.75153,0.0316 -0.88139,-0.34036 -0.2352,-0.30489 -0.27379,-0.73672 -0.39086,-1.12826 -0.11716,-0.39151 -0.29609,-0.74463 -0.83541,-0.83232 -0.42124,-0.13763 -0.90135,-0.28946 -1.36617,-0.35586 -0.35698,-0.0508 -0.69733,0.0156 -1.0328,0.11234 l 0,0 c -0.10137,0.0288 -0.21441,-0.004 -0.31145,0.0396 -0.10716,0.25924 -0.2397,0.40948 -0.37156,0.47151 -0.13195,0.0622 -0.27631,0.0683 -0.41688,-4.6e-4 -0.28154,-0.13583 -0.56231,-0.49569 -0.78375,-0.74807 -0.33845,0.31808 -0.68425,0.34495 -1.04194,0.21041 -0.3577,-0.1346 -0.70746,-0.41506 -0.98968,-0.66809 -0.87272,-0.13852 -1.79852,0.50202 -2.73504,0.38019 -1.02687,0.0695 -1.89356,0.71261 -2.90272,0.9001 -0.19377,0.25807 -0.39589,0.41412 -0.59891,0.46018 -0.20275,0.0469 -0.41849,-0.005 -0.62778,-0.0785 -0.41876,-0.15058 -0.8529,-0.44373 -1.2799,-0.53639 -0.43223,0.28739 -0.75773,0.17741 -1.0915,-0.004 l -0.0471,1.03771 -18.23885,-0.88928 0.0638,0.27389 -0.0194,0.74251 -0.0511,0.33268 0.14294,0.0624 0.16204,0.28315 0.33271,0.0511 0.37521,0.23355 0.0226,0.0906 0.1125,0.0699 0.17133,0.18475 0.11262,0.07 0.11969,0.10043 0.14297,0.063 0.11255,0.07 0.19177,-0.14085 0.0907,-0.0226 0.0226,0.0906 0.24143,0.072 0.0906,-0.0226 -0.0705,-0.30448 -0.0277,-0.12189 -0.0227,-0.0907 -0.0226,-0.0906 0.0417,-0.23432 0.12184,-0.0278 0.11263,0.07 0.28394,0.25477 0.42397,0.0294 0.0907,-0.0227 0.12188,-0.0278 0.0627,-0.14294 -0.0419,-0.18275 -0.0278,-0.12189 0.07,-0.11249 0.12186,-0.0279 0.18286,-0.0419 0.12187,-0.0278 0.0227,0.0906 0.21166,0.49621 0.0908,-0.0227 0.0227,0.0907 0.24143,0.072 0.11263,0.07 0.14297,0.063 0.0278,0.12187 -0.10043,0.11958 0.0496,0.213 -0.0702,0.11254 -0.30445,0.0706 -0.55916,0.3547 -0.37451,0.18333 -0.19177,0.14085 0.008,0.44732 0.0226,0.0906 -0.10042,0.11961 -0.3674,0.21383 -0.30448,0.0705 -0.0907,0.0227 0.0419,0.18278 -0.0511,0.33268 0.0278,0.1219 0.0705,0.30445 0.14299,0.063 0.14095,0.19181 0.1339,0.16135 0.12186,-0.0279 0.0278,0.12188 0.0706,0.30446 0.0704,0.30449 0.0226,0.0906 0.11252,0.07 0.14081,0.19181 0.12019,0.51751 -0.0491,0.20383 0.0278,0.12187 -0.28315,0.16204 -0.25477,0.2839 -0.17053,0.23219 -0.063,0.14302 -0.21229,0.46652 -0.51755,0.12007 -0.0226,-0.0907 -0.0278,-0.12187 -0.16201,-0.28315 0.0489,-0.20384 -0.11959,-0.10043 -0.0908,0.0227 -0.072,0.24139 -0.0208,0.32561 -0.0416,0.23433 0.0227,0.0907 0.0227,0.0906 -0.21294,0.0496 -0.0908,0.0227 -0.34696,-0.11175 -0.0291,-0.53872 -0.0226,-0.0907 -0.0278,-0.12186 -0.0226,-0.0906 -0.0227,-0.0906 0.14227,-0.35395 -0.0278,-0.12187 0.069,-0.52943 0.0937,-0.15008 0.0194,-0.74259 9.1e-4,-0.54576 -0.0419,-0.18276 -0.0278,-0.12185 -0.19257,-0.27604 -0.18344,-0.37443 -0.0497,-0.21298 0.0906,-0.0227 0.1219,-0.0278 0.07,-0.11252 0.0909,-0.0227 -0.14086,-0.19179 -0.13379,-0.1614 -0.0278,-0.12185 -0.12187,0.0279 -0.0906,0.0226 0.0278,0.12185 -0.0908,0.0226 -0.10042,0.11961 0.0226,0.0907 -0.0906,0.0227 0.0277,0.12187 -0.05,0.74962 0.08,1.16862 0.0226,0.0907 0.0497,0.21301 -0.0511,0.33268 0.042,0.18273 0.0301,0.53867 -0.0206,0.32558 -0.0719,0.24138 0.0216,0.50828 -0.0416,0.23433 -0.0716,1.62095 -0.0207,0.32562 -0.0208,0.32564 -0.0511,0.33272 -0.07,0.1125 0.0497,0.21299 -0.0716,0.65833 -0.0416,0.23431 0.0226,0.0906 -0.0702,0.11254 -0.0938,0.15009 0.0226,0.0906 -0.07,0.11251 0.0277,0.12186 -0.17055,0.23218 -0.0208,0.32567 -0.0207,0.32558 -0.0937,0.15011 0.48912,-0.24219 0.33272,0.0511 0.0416,-0.23432 0.072,-0.2414 0.0699,-0.11253 0.0701,-0.11252 0.072,-0.24137 0.16144,-0.13383 0.23427,0.0416 0.1125,0.07 0.3328,0.0511 0.0226,0.0906 0.143,0.0627 0.0277,0.1219 0.11253,0.07 -0.07,0.11254 0.0278,0.12187 0.27458,0.35317 0.3052,0.34612 0.16215,0.28308 0.15006,0.0938 0.0226,0.0905 0.2321,0.1706 0.34695,0.11178 0.24138,0.072 0.0906,-0.0226 0.0938,-0.1501 0.18282,-0.0419 0.10053,-0.11958 0.07,-0.11252 0.18466,-0.17131 0.0905,-0.0226 0.19185,-0.14087 0.34606,-0.30512 0.0702,-0.11255 0.23427,0.0416 0.2626,0.16349 0.11259,0.07 0.24142,0.0719 0.0906,-0.0227 0.32486,-0.39648 0.3255,0.0206 0.10042,-0.1196 -0.0496,-0.21299 0.18288,-0.0419 0.30437,-0.0705 0.26269,0.16348 0.13391,0.16135 0.0278,0.12185 0.0226,0.0907 -0.0416,0.23428 -0.0491,0.20392 0.23229,0.17053 0.91385,0.20445 0.0905,-0.0227 0.56706,0.0927 0.0908,-0.0227 0.30451,-0.0705 0.12188,-0.0279 0.0906,-0.0229 0.0906,-0.0226 0.12186,-0.0278 -0.0719,0.2414 0.21304,-0.0497 0.21306,-0.0496 0.18267,-0.0418 0.27616,-0.19259 0.47555,0.11393 0.0908,-0.0226 0.11262,0.0699 0.0278,0.12187 0.39633,0.32484 0.24217,0.48911 0.13388,0.16138 -0.063,0.143 -0.049,1.16654 1.07459,1.03333 0.15009,0.0938 0.62998,-0.0501 0.53656,0.0994 0.12192,-0.0279 0.32563,0.0206 0.67879,-0.25415 0.34616,-0.30512 0.40475,-0.1904 0.86361,-0.42556 0.88335,0.21153 0.12188,-0.0277 0.23228,0.17053 1.03423,0.72188 0.16207,0.28314 0.14299,0.0633 0.23227,0.17054 0.23427,0.0416 0.11957,0.10052 0.58915,0.60087 0.16203,0.28316 0.46654,0.21223 0.14299,0.0627 0.49479,0.33404 0.37603,0.65046 0.092,0.39567 -0.0227,0.45445 0.12187,-0.0279 0.29587,0.44453 0.36257,1.00649 0.11259,0.0699 0.33349,0.46784 0.0419,0.18272 0.1417,0.60877 -0.18407,0.58828 0.0497,0.21297 0.0228,0.0908 0.18343,0.37442 0.0278,0.12187 0.0228,0.0905 0.0227,0.0906 0.16215,0.28312 0.0279,0.12187 -0.0491,0.20388 0.0497,0.21301 -0.0702,0.11256 -0.18385,0.58823 -0.0293,0.42402 0.51675,0.84229 0.14166,0.60874 -0.0405,0.65121 -0.0719,0.24136 -0.23283,0.79215 0.0278,0.12186 -4.6e-4,0.41691 0.16277,0.70008 0.4948,0.33409 0.11264,0.07 0.35383,0.14228 0.41779,0.41611 0.2626,0.16348 0.70081,0.25405 0.65831,0.0714 0.0906,-0.0227 0.35402,0.14222 0.1219,-0.0277 0.57906,0.28235 0.12187,-0.0278 0.37509,0.23356 0.35404,0.14219 0.20376,0.0492 0.12189,-0.0277 0.0227,0.0907 0.21104,0.0794 0.12188,-0.0278 0.0226,0.0907 0.25339,0.26187 0.12184,-0.0277 0.23233,0.17057 0.42593,-0.0994 0.18288,-0.0419 0.12187,-0.0278 0.0906,-0.0227 0.063,-0.14301 0.24144,0.0719 0.0905,-0.0227 0.12186,-0.0279 0.37508,0.23359 0.44614,0.53786 0.67958,0.16269 0.50816,-0.0226 0.14302,0.063 0.28304,-0.16206 0.95489,-0.44678 0.35321,-0.27473 0.82173,-0.19123 0.23426,0.0416 0.0906,-0.0226 0.23433,0.0416 0.18269,-0.0419 0.12186,-0.0277 1.12539,-0.679 0.39575,-0.0919 0.3957,-0.0921 0.40481,-0.19038 0.0906,-0.0227 0.27605,-0.19255 0.14217,-0.35397 0.0906,-0.0226 0.3327,0.0511 0.27604,-0.19261 0.30445,-0.0705 0.07,-0.11254 0.10043,-0.1196 -0.0497,-0.21295 0.53789,-0.44604 0.1615,-0.13382 0.18467,-0.17129 0.39571,-0.0921 0.51743,-0.12025 0.56693,0.0928 0.91186,0.33324 0.63003,-0.0501 0.58748,-0.23292 0.12186,-0.0277 0.63002,-0.0501 0.11251,0.07 1.40926,-0.42416 0.48694,-0.1135 0.12184,-0.0279 0.18288,-0.0419 0.26257,0.16347 0.23426,0.0416 0.1126,0.07 0.11968,0.10043 0.39635,0.32484 0.4758,0.11391 0.34677,0.11181 0.42406,0.0293 0.58042,-0.26338 0.0907,-0.0227 0.33278,0.0511 0.21295,-0.0496 0.58829,0.18395 0.25335,0.26189 0.143,0.0626 0.7008,0.25399 0.7079,0.28446 0.18345,0.37442 0.14094,0.19182 0.0227,0.0905 0.0705,0.30448 -0.0416,0.23432 0.0419,0.18279 -0.063,0.14302 0.25356,0.26181 0.32547,0.0208 0.44743,-0.008 0.07,-0.1125 0.0905,-0.0227 0.14301,0.063 0.16147,-0.13383 0.10041,-0.11958 -0.0278,-0.12187 0.67792,-0.67112 0.42615,-0.0995 0.63002,-0.0501 0.50818,-0.0226 0.15008,0.0937 0.32547,0.0206 0.0907,-0.0227 0.51743,-0.12015 0.18289,-0.0419 0.54641,0.41826 0.0226,0.0906 0.39571,-0.092 0.51667,-0.53736 0.2548,-0.28386 0.39562,-0.0919 0.89199,-0.30374 1.28965,-0.5247 0.67874,-0.25416 0.44662,-0.42478 0.27595,-0.19255 0.37451,-0.18337 0.84296,-0.10007 0.70787,0.28447 0.11261,0.07 0.58687,0.7297 0.28393,0.2548 0.11261,0.0699 0.35386,0.14225 1.56445,-0.17116 1.52175,-0.35416 0.82186,-0.19125 0.0908,-0.0226 1.38879,-0.0987 0.81312,-1.05554 0.56624,-0.32427 1.43061,-0.33285 1.30081,-0.75191 0.12185,-0.0279 0.65758,-0.34553 1.16861,-0.0801 0.6087,-0.14168 0.0909,-0.0226 0.0907,-0.0227 z"
       id="WA-03"
       style="font-style:normal;font-weight:400;font-size:34.375px;font-family:'MS Shell Dlg 2';opacity:1;fill:none;fill-opacity:1;fill-rule:evenodd;stroke:#000000;stroke-width:0.33333385;stroke-linecap:square;stroke-linejoin:bevel;stroke-miterlimit:4;stroke-dasharray:none;stroke-opacity:1" />
    <path
       inkscape:connector-curvature="0"
       d="m 410.02399,543.41966 c -0.01,0.0129 -0.0145,0.0253 -0.0235,0.0378 -0.20701,0.29582 -0.38588,0.60856 -0.28863,0.96555 0.22559,0.34254 0.56571,0.35203 0.91164,0.33331 0.34606,-0.0187 0.69557,-0.0621 0.99821,0.15271 0.23545,0.0598 0.34709,0.12563 0.37509,0.23358 0.0281,0.10786 -0.027,0.23976 -0.10463,0.37727 -0.15502,0.27506 -0.40609,0.60571 -0.37091,0.8884 -0.11802,0.22292 -0.0975,0.38476 -0.009,0.51534 0.0891,0.13057 0.23518,0.22795 0.39654,0.32482 0.16122,0.0971 0.32731,0.19593 0.42684,0.31778 0.0995,0.12185 0.14203,0.26523 0.045,0.47074 -0.26015,0.61696 -0.0627,1.23253 0.13711,1.82907 0.091,0.34522 0.38217,0.61511 0.6223,0.88192 0.24012,0.26681 0.42901,0.52615 0.34133,0.91519 0.0155,0.39711 -0.21655,0.57536 -0.51165,0.69661 -0.29521,0.12134 -0.62725,0.18967 -0.83315,0.41849 -0.23114,0.26496 -0.48233,0.56606 -0.65882,0.89126 -0.17659,0.32523 -0.27535,0.67467 -0.23706,1.04981 -0.038,0.43881 0.11572,0.48385 0.35685,0.43033 0.24114,-0.0537 0.56086,-0.18769 0.78213,-0.0852 0.4185,0.0744 0.62848,0.3143 0.65697,0.61714 0.028,0.30287 -0.12448,0.66598 -0.40118,0.89551 0.21523,0.11779 0.51634,0.23114 0.79004,0.36159 0,0 0,0 0,0 0.12609,0.06 0.27275,0.0582 0.36102,0.17267 0.26191,0.14686 0.261,0.29336 0.19748,0.43529 -0.0632,0.14194 -0.1981,0.26981 -0.24973,0.44317 0.14552,0.21315 0.20002,0.4506 0.15583,0.6696 -0.0444,0.219 -0.18607,0.41764 -0.41121,0.57697 l 0.27926,1.47509 c 0.27273,-0.01 0.54051,0.0857 0.78501,0.20236 0.23615,0.10155 0.53873,0.3001 0.70367,0.54211 0.16493,0.24202 0.21335,0.51314 -0.0104,0.77301 -0.19699,0.14316 -0.2824,0.26059 -0.27103,0.35181 0.0136,0.0907 0.11686,0.17329 0.24625,0.23147 0.2589,0.11624 0.64668,0.18939 0.83672,0.28654 0.58039,0.61218 1.20767,1.17854 1.96818,1.56335 0.28851,0.0591 0.48307,0.2126 0.60738,0.40411 0.12421,0.19151 0.19144,0.43442 0.22364,0.68592 0.39175,0.20171 0.44857,0.50371 0.41853,0.83307 -0.0305,0.32934 -0.16919,0.68603 -0.15274,0.99811 0.0161,0.37521 0.22105,0.55449 0.46726,0.6292 0.24623,0.0744 0.55755,0.0547 0.81765,0.0662 0.49576,0.29637 0.81657,0.77494 1.28563,1.11255 0.47835,0.47652 1.18878,0.61889 1.75134,0.90795 -0.36116,0.22645 -0.33708,0.43891 -0.1465,0.61162 0.19064,0.17269 0.52979,0.30872 0.75965,0.36866 0.37797,0.10432 0.59408,0.37647 0.70861,0.70137 0.11441,0.32497 0.14396,0.69811 0.14197,1.02578 l 3.67025,-0.0841 c 0.0622,0.12694 0.135,0.27211 0.16009,0.41195 -0.12883,0.23443 -0.46017,0.38879 -0.72969,0.5869 -0.2696,0.19816 -0.49094,0.44005 -0.44582,0.84171 0.14063,0.54198 -0.0116,0.90965 -0.45219,1.22819 -0.39287,0.50938 -0.74353,1.04764 -0.75575,1.71597 -0.0468,0.44974 -0.34238,0.71002 -0.7035,0.83749 -0.3611,0.12742 -0.77319,0.13841 -1.12406,0.13307 -0.38006,0.0185 -0.78749,-0.13713 -1.17157,-0.20863 -0.38402,-0.0718 -0.76658,-0.08 -1.10996,0.19374 -0.42068,0.15175 -0.4563,0.44907 -0.39904,0.76663 0.0569,0.31762 0.22035,0.652 0.18957,0.95056 -0.0124,0.32879 -0.15942,0.64283 -0.25818,0.95845 -0.0992,0.31563 -0.1648,0.65913 -0.024,1.00021 0.0351,0.53109 -0.20744,0.93995 -0.52937,1.31033 -0.32185,0.37034 -0.71426,0.69423 -0.96527,1.09094 -0.36573,0.71964 -0.55805,1.55698 -0.50865,2.36427 0.53687,0.30934 0.69118,1.03733 1.20637,1.32353 l 0.074,1.00941 c 0.4887,0.0634 0.97995,0.0469 1.46885,0.10761 0.32638,0.0346 0.75605,0.0975 1.08731,0.26033 0.33127,0.16262 0.55269,0.43288 0.4631,0.88688 -0.18426,0.81125 0.35748,1.51873 0.37938,2.31809 -0.0885,0.27793 -0.0378,0.48945 0.0806,0.62293 0.11816,0.13348 0.31872,0.19836 0.60437,0.11604 0.40559,-0.02 0.59562,0.21272 0.66622,0.51875 0.0712,0.30595 0.0358,0.68096 0.0298,0.95557 0.0461,0.35494 0.0707,0.69987 0.051,1.04695 -0.0201,0.34714 -0.10128,0.68463 -0.31207,1.0031 -0.23244,0.35255 -0.31,0.77105 -0.24619,1.14818 0.0642,0.37699 0.2776,0.73266 0.61315,0.98028 -0.10358,0.62701 0.14306,1.2212 0.29613,1.82408 0.18744,0.99195 0.41677,1.97727 0.65667,2.95947 -0.0159,0.66094 0.64369,1.19313 0.60756,1.78368 -0.0855,0.34834 -0.36373,0.61078 -0.59802,0.87716 -0.23425,0.26629 -0.43353,0.53722 -0.36363,0.91881 l -10.57113,-0.20311 0.1292,-2.34018 -2.50648,-0.15466 0.002,-2.47113 -7.72268,-0.0965 c -0.22335,-0.26611 -0.35477,-0.23526 -0.5677,-0.5096 -0.76307,-1.08901 -1.22946,-2.25895 -2.13042,-3.22609 -0.28322,-0.34822 -0.64819,-0.60715 -1.04851,-0.78273 -0.40022,-0.17556 -0.83225,-0.25408 -1.27692,-0.2483 -0.49898,-0.0907 -1.07514,0.17522 -1.49566,0.60474 -0.42045,0.42967 -0.69764,1.02979 -0.66233,1.56591 -0.74867,0.47989 -0.89669,0.80614 -0.89738,1.10718 -0.004,0.301 0.16683,0.56925 -0.0164,0.9018 -0.0707,0.37743 -0.39574,0.57682 -0.68716,0.76953 -0.29143,0.19265 -0.57725,0.36613 -0.61009,0.68739 0.34761,0.87519 1.14512,1.53889 1.40754,2.46387 -0.0507,0.0862 -0.005,0.17544 -0.035,0.26476 l 0,0 c -0.0476,0.15921 -0.12034,0.31804 -0.0831,0.46857 0.0576,0.23495 0.22702,0.44261 0.52105,0.58461 0.31783,0.16209 0.67475,0.38556 0.86074,0.66599 0.0933,0.14023 0.13844,0.30189 0.1061,0.45658 -0.0323,0.15463 -0.15265,0.31251 -0.37153,0.4715 -0.4351,0.27804 -0.42675,0.61441 -0.3495,0.9797 0.0781,0.36519 0.24476,0.75205 0.0653,1.10779 -0.20041,0.31747 -0.20759,0.7129 -0.22981,1.08019 -0.0225,0.36736 -0.0812,0.71215 -0.41044,0.99391 -0.18025,0.32863 -0.20213,0.68575 -0.17618,1.03562 0.026,0.34986 0.10793,0.70846 0.17978,1.04904 0.1621,0.33911 0.39099,0.69598 0.57349,1.08579 0.18246,0.38978 0.31411,0.81057 0.28334,1.21747 l -2.84842,-0.10734 -0.0686,9.76981 32.61026,0.46433 -0.041,5.75271 1.19622,-0.37456 0.6583,0.0715 0.84296,-0.10017 1.14752,-0.17027 0.84074,-1.35071 0.12186,-0.0277 0.41617,-0.4177 0.60873,-0.1417 0.6095,0.27532 0.26265,0.16344 0.7425,0.0194 0.67877,-0.25416 0.42612,-0.0996 1.05395,-0.021 0.3045,-0.0705 0.0907,-0.0228 0.58041,-0.26344 0.12185,-0.0278 0.18288,-0.0419 1.06309,-0.11864 0.67959,0.1627 0.55781,0.19105 0.53868,-0.0301 0.51751,-0.12018 0.30441,-0.0705 0.67883,-0.25418 0.62926,-0.4673 0.70216,-0.29175 0.35315,-0.27466 0.39694,-0.63783 0.11261,0.07 0.7284,-0.0411 0.86427,-0.009 0.96267,10e-4 0.53857,-0.0301 0.72844,-0.0411 2.15263,0.0128 0.30438,-0.0705 0.4241,0.0294 0.39354,0.0369 c 0.11464,-0.19623 0.0987,-0.44973 0.23777,-0.63284 0.47555,-0.42021 0.59035,-0.95796 0.60852,-1.52127 0.018,-0.56335 -0.0527,-1.15714 0.021,-1.70521 0.27287,-0.47626 0.41949,-1.21699 0.33386,-1.87444 -0.0431,-0.32871 -0.15875,-0.64701 -0.33423,-0.88478 -0.17547,-0.23776 -0.41345,-0.41115 -0.7504,-0.46706 -0.57157,-0.1068 -1.3465,-0.0485 -1.96786,-0.18377 -0.31066,-0.0675 -0.56333,-0.16304 -0.75953,-0.36869 -0.19624,-0.20566 -0.32073,-0.52191 -0.318,-0.95272 -0.14387,-0.36692 -0.13264,-0.64423 -0.009,-0.86431 0.12397,-0.22009 0.35354,-0.38028 0.61502,-0.52816 0.52288,-0.29576 1.18777,-0.49871 1.47864,-0.95369 0.40275,-0.47961 0.44886,-1.06335 0.45125,-1.64506 0.003,-0.58181 -0.0355,-1.1902 0.27801,-1.70107 0.31614,-0.55763 0.75869,-1.00886 1.23648,-1.4428 0.47766,-0.43389 0.98581,-0.8437 1.47563,-1.24177 0.24878,0.25409 0.59177,0.43619 0.94011,0.45504 0.34833,0.0187 0.71562,-0.11381 0.97816,-0.48435 0.48393,-0.3768 1.04054,-0.30824 1.59476,-0.17848 0.5543,0.12958 1.11442,0.31465 1.63528,0.13283 0.31106,-0.45926 0.32688,-1.03811 0.23117,-1.626 -0.0954,-0.58793 -0.32044,-1.18867 -0.48791,-1.68319 -0.34968,-0.25145 -0.48184,-0.41171 -0.47651,-0.53083 0.004,-0.11915 0.15706,-0.1823 0.36022,-0.24426 0.40639,-0.12397 1.05844,-0.21567 1.31302,-0.56221 0.42948,-0.41967 1.03351,-0.41827 1.59198,-0.46666 0.27919,-0.0241 0.53609,-0.0543 0.76089,-0.17709 0.22476,-0.12291 0.40608,-0.31711 0.51871,-0.66613 0.43126,-0.50905 0.3618,-1.07923 0.32972,-1.61681 -0.0166,-0.26872 -0.0215,-0.52593 0.0434,-0.78005 0.0638,-0.25409 0.19929,-0.49507 0.47415,-0.71997 l -0.20526,-9.70604 -19.54591,0.24906 -0.27671,-19.25077 2.55672,-0.59496 -0.15492,-29.48206 -1.02356,0.0136 -2.9723,0.05 -0.7496,-0.0501 -0.75175,0.0785 -0.11258,-0.0699 -0.72845,0.0411 -2.36552,0.0377 -2.34236,-8e-5 -0.0906,0.0227 -0.44742,0.008 -0.3326,-0.0512 -4.26064,0.0293 -3.20656,0.009 -0.87133,-0.022 -1.47101,0.021 -4.49489,-0.0128 -2.48526,-0.063 -6.42025,-0.0132 -2.48522,-0.063 -0.0985,-0.007 z"
       id="WA-04"
       style="font-style:normal;font-weight:400;font-size:34.375px;font-family:'MS Shell Dlg 2';opacity:1;fill:none;fill-opacity:1;fill-rule:evenodd;stroke:#000000;stroke-width:0.33333385;stroke-linecap:square;stroke-linejoin:bevel;stroke-miterlimit:4;stroke-dasharray:none;stroke-opacity:1" />
    <path
       inkscape:connector-curvature="0"
       d="m 447.73501,543.46744 0.15492,29.48211 -2.55672,0.59496 0.27674,19.25075 19.54589,-0.24908 0.20517,9.70608 c -0.27486,0.22488 -0.41005,0.46586 -0.47415,0.71997 -0.064,0.25408 -0.0593,0.51128 -0.0434,0.78003 0.0325,0.53757 0.10192,1.10774 -0.32973,1.6168 -0.11264,0.349 -0.2939,0.54332 -0.51873,0.66614 -0.22481,0.12289 -0.48167,0.15293 -0.76088,0.17698 -0.5584,0.0489 -1.16247,0.0479 -1.59196,0.46665 -0.25459,0.34646 -0.90663,0.43827 -1.31301,0.56227 -0.20318,0.0616 -0.35489,0.12507 -0.36024,0.24423 -0.004,0.11916 0.12673,0.27941 0.47654,0.5308 0.16764,0.49451 0.39214,1.09532 0.48789,1.68321 0.0954,0.58796 0.08,1.16675 -0.23118,1.626 -0.52085,0.18185 -1.08099,-0.004 -1.63529,-0.13283 -0.55419,-0.12962 -1.11083,-0.1982 -1.59473,0.1785 -0.26258,0.3704 -0.62985,0.5031 -0.97821,0.48432 -0.3483,-0.0186 -0.69133,-0.20096 -0.94005,-0.45504 -0.48984,0.39808 -0.99799,0.80788 -1.47564,1.24179 -0.47779,0.43388 -0.92037,0.88512 -1.2365,1.4428 -0.31348,0.51086 -0.27551,1.11924 -0.278,1.70105 -0.003,0.58171 -0.0483,1.16546 -0.45128,1.64508 -0.29085,0.45496 -0.95573,0.65795 -1.47858,0.95367 -0.26151,0.14795 -0.49109,0.30808 -0.61505,0.52817 -0.12403,0.22003 -0.13529,0.49736 0.009,0.86425 -0.003,0.43082 0.12166,0.7471 0.31802,0.95277 0.19624,0.20565 0.44891,0.30099 0.75956,0.36869 0.62135,0.13537 1.39628,0.0766 1.96784,0.18375 0.33696,0.0561 0.57494,0.2293 0.75041,0.46709 0.17559,0.23776 0.2915,0.556 0.33422,0.88475 0.086,0.65745 -0.0606,1.3982 -0.33386,1.87446 -0.0729,0.54811 -0.002,1.14191 -0.02,1.70523 -0.018,0.56334 -0.13302,1.1011 -0.60855,1.52125 -0.13913,0.18312 -0.12316,0.43661 -0.23777,0.63287 l 0.25768,10e-4 0.30444,-0.0705 0.24147,0.072 0.0906,-0.0227 0.0907,-0.0228 0.32569,0.0206 0.21292,-0.0496 0.0905,-0.0228 0.0227,0.0906 0.75884,-0.0484 0.50818,-0.0226 0.96277,10e-4 0.32549,0.0206 0.30459,-0.0705 0.23427,0.0416 0.2129,-0.0496 0.42405,0.0293 0.0906,-0.0228 0.53868,-0.0301 0.6583,0.0713 0.53868,-0.0301 0.30437,-0.0706 0.20394,0.0489 1.59259,-0.0492 0.33278,0.0511 0.12191,-0.0278 2.54825,-0.0796 0.33261,0.0511 0.0906,-0.0226 0.86436,-0.009 0.30437,-0.0706 3.84368,-0.0283 2.25109,0.0217 1.89701,-0.12072 0.52949,0.0691 0.12188,-0.0278 0.72826,-0.0411 0.95559,-0.0298 0.65834,0.0714 0.30446,-0.0705 1.1758,-0.0491 0.62999,-0.0501 0.63,-0.0501 0.0906,-0.0226 1.28831,0.0203 1.05403,-0.0212 0.44728,-0.007 0.33276,0.0511 1.26,-0.1007 0.96257,10e-4 0.41699,4.6e-4 -0.0227,-0.0906 -0.12014,-0.51743 -0.14167,-0.60875 -0.23295,-0.58749 -0.16423,-0.15431 -0.16213,-0.28308 -0.0906,0.0227 -0.12188,0.0278 -0.23211,-0.17056 -0.0226,-0.0906 -0.0278,-0.12186 -0.0227,-0.0907 0.07,-0.11253 0.0905,-0.0227 0.30455,-0.0707 0.0937,-0.15005 0.0489,-0.20386 -0.0496,-0.21299 0.07,-0.11251 -0.0277,-0.12186 0.23364,-0.37522 0.10043,-0.1196 0.21217,-0.46649 -0.0278,-0.12183 -0.0226,-0.0907 -0.0227,-0.0905 -0.31214,-0.37654 -0.1338,-0.16141 -0.15011,-0.0937 -0.22519,-0.14008 -0.0278,-0.12188 -0.0228,-0.0904 -0.0226,-0.0906 0.13314,-0.25559 0.0719,-0.2414 0.0699,-0.11249 -0.16208,-0.28314 -0.0706,-0.30447 -0.0227,-0.0908 -0.15006,-0.0937 -0.0227,-0.0907 -0.0226,-0.0906 -0.2323,-0.17053 -0.14297,-0.0631 -0.0278,-0.12186 0.12187,-0.0278 0.0208,-0.32563 -0.0228,-0.0908 -0.0226,-0.0908 -0.1197,-0.10042 -0.0226,-0.0909 -0.1219,0.0277 -0.1125,-0.07 -0.11957,-0.10043 -0.16426,-0.15428 -0.0278,-0.12189 -0.0419,-0.18277 0.0719,-0.24138 -0.12186,0.0278 -0.0227,-0.0906 -0.11967,-0.10043 -0.23433,-0.0416 -0.0907,0.0226 -0.0227,-0.0906 -0.0907,0.0227 -0.0278,-0.12187 -0.12189,0.0278 -0.0226,-0.0907 0.0292,-0.424 0.0627,-0.14298 0.07,-0.11252 0.12188,-0.0279 0.0701,-0.11253 0.0416,-0.23433 -0.0228,-0.0906 -0.0278,-0.12189 0.10043,-0.11957 -0.0497,-0.213 0.0907,-0.0227 0.0206,-0.32559 -0.0227,-0.0907 -0.0907,0.0227 -0.0226,-0.0906 -0.0277,-0.12186 0.07,-0.11254 -0.0496,-0.21299 0.0294,-0.42401 -0.0497,-0.21298 0.0701,-0.11258 -0.0226,-0.0906 -0.14869,-2.01879 0.0203,-1.28833 10e-4,-0.96268 -0.0502,-1.5926 -0.0501,-0.63003 -0.0216,-0.50828 -0.0279,-0.12186 0.0795,-0.21094 -0.0497,-0.21298 -0.072,-0.72122 0.0416,-0.23428 -0.0491,-1.17577 0.0208,-0.32562 -0.0229,-0.0905 -0.0698,-0.85004 4.6e-4,-0.41694 -0.0211,-1.05399 -0.0286,-1.50141 -0.0226,-0.0905 -0.0497,-0.21296 0.0204,-1.28831 -0.071,-0.7213 0.0204,-1.28832 -0.12133,-0.93433 0.0938,-0.15009 -0.0227,-0.0906 -0.0501,-0.63 -0.0709,-0.72133 0.0711,-0.65832 -0.0501,-0.62997 -0.0706,-0.30449 0.0938,-0.15008 -0.0216,-0.50828 -0.14867,-2.01879 4.5e-4,-0.41693 9.1e-4,-0.54574 0.0208,-0.32564 -0.0501,-0.62999 0.0511,-0.33271 -0.0501,-0.62996 -0.093,-0.81261 0.0228,-0.45447 -0.1006,-1.25998 0.12186,-0.0279 -0.0227,-0.0906 -0.0497,-0.21298 -0.0501,-0.62999 -0.0226,-0.50817 -0.0278,-0.12189 0.10043,-0.1196 -0.092,-0.39567 -0.008,-0.44735 0.0207,-0.32563 -0.021,-1.47091 -0.0278,-0.12184 -0.0228,-0.0907 -0.0705,-0.3045 0.12184,-0.0279 -0.0226,-0.0906 -0.0278,-0.12185 -0.0226,-0.0906 4.6e-4,-0.41693 -0.007,-0.44739 -0.0419,-0.18276 0.0227,-0.45447 -0.0226,-0.0906 -0.0226,-0.0907 0.0206,-0.32559 -0.0706,-1.26704 -0.0278,-0.12185 0.0701,-0.11255 -0.0496,-0.21299 -0.0501,-0.63002 -0.0418,-0.18278 0.072,-0.24138 -0.0228,-0.0906 -0.0277,-0.12183 -0.0227,-0.0907 0.0422,-1.19696 -0.051,-1.04693 -0.0706,-0.3045 3.6e-4,-1.92535 -0.0801,-1.16864 -0.042,-1.14532 0.0417,-0.23428 10e-4,-0.96268 -0.0497,-0.21297 0.0906,-0.0226 -0.0226,-0.0906 -0.0227,-0.0907 -0.0278,-0.12185 -0.0227,-0.0906 0.10043,-0.11959 -0.0278,-0.12186 -0.0226,-0.0907 -0.0227,-0.0906 -0.0278,-0.12189 0.0491,-0.20383 10e-4,-0.96267 -0.0278,-0.12189 -0.0226,-0.0906 -0.009,-3.20658 -0.0501,-0.62999 9.1e-4,-0.54575 -0.0707,-0.30447 0.049,-0.20384 -0.0496,-0.21299 0.001,-0.96267 -0.0497,-0.21301 0.0208,-0.32561 -0.0226,-0.0906 -0.0226,-0.0907 0.0713,-0.65835 -0.0785,-0.75178 0.0207,-0.32556 -0.0226,-0.0906 -0.0707,-1.26705 4.6e-4,-0.41692 -0.0496,-0.213 0.05,-0.74964 -0.0773,-2.67708 -0.0298,-0.95559 -0.021,-1.05399 4.4e-4,-0.4169 -0.0705,-0.30454 0.022,-0.87134 -0.0488,-2.55535 -0.0298,-0.95559 -1.77529,0.0921 -2.67711,0.0774 -0.52943,-0.0691 -0.75884,0.0484 -0.30438,0.0704 -0.0228,-0.0906 -1.3584,0.0913 -1.19696,-0.0423 -2.101,0.0718 -0.53855,0.0301 -4.565,0.0998 -0.12185,0.0279 -2.22965,0.0695 -0.83394,0.004 -2.76837,0.0984 -3.11535,-0.0114 -4.77789,0.14927 -3.72192,-5e-4 -0.32569,-0.0206 -0.0606,0.0136 z"
       id="WA-05"
       style="font-style:normal;font-weight:400;font-size:34.375px;font-family:'MS Shell Dlg 2';opacity:1;fill:none;fill-opacity:1;fill-rule:evenodd;stroke:#000000;stroke-width:0.33333385;stroke-linecap:square;stroke-linejoin:bevel;stroke-miterlimit:4;stroke-dasharray:none;stroke-opacity:1" />
    <path
       inkscape:connector-curvature="0"
       d="m 346.25407,604.01258 18.23885,0.88929 0.0471,-1.0377 c -0.008,-0.007 -0.022,0.007 -0.0298,0.0109 0,0 0,0 0,0 0.008,0.007 0.0219,-0.007 0.0298,-0.0109 l 0.30513,-4.75544 -0.86221,-0.12018 0.10099,-2.46196 2.43854,0.13839 c -0.10755,-0.55284 -0.35842,-1.08713 -0.3519,-1.65069 0.19007,-0.40891 0.0189,-0.82982 -0.0941,-1.22948 -0.1066,-0.48287 -0.72813,-0.52313 -0.87081,-0.9845 -0.10017,-0.20681 -0.004,-0.39559 0.16776,-0.52031 0.17304,-0.12464 0.42012,-0.21254 0.60165,-0.17198 0.25111,-0.004 0.26852,0.18771 0.28178,0.38359 0.011,0.19608 0.0263,0.42216 0.18842,0.53372 0.2795,0.27363 0.64731,0.32769 1.01226,0.21361 0.35123,0.14247 0.71074,0.0452 1.07517,0.0708 0.17716,0.0692 0.41988,0.0503 0.59758,0.0854 0.17753,0.0349 0.29234,0.13042 0.28875,0.4141 0.0123,0.42016 0.31409,0.74348 0.66701,0.93567 0.34502,0.0928 0.83674,-0.15504 0.91023,-0.50058 -0.0317,-0.26879 0.17108,-0.40106 0.3857,-0.4106 0.2146,-0.0101 0.42839,0.0992 0.49485,0.33404 0.19989,0.31577 0.20819,0.82619 0.63647,0.94276 0.27978,0.0702 0.37284,-0.0688 0.42119,-0.25843 0.048,-0.18996 0.0431,-0.4162 0.16057,-0.55074 0.24411,-0.30759 0.33059,-0.71384 0.3212,-1.10146 -0.0466,-0.26534 0.10865,-0.40444 0.29657,-0.5182 0.18783,-0.11362 0.43075,-0.1847 0.61078,-0.27049 0.0722,-0.0369 0.11227,-0.0947 0.1543,-0.16422 l 0.90622,1.1367 0.54579,9e-4 0.52293,-0.92383 1.29539,0.0518 -0.1654,1.7711 1.34498,0.26454 0.0973,-1.78736 0,0 0.0613,-0.97682 -0.0464,0.0749 -0.0905,0.0226 -0.0906,0.0227 -0.12185,0.0278 -0.0277,-0.12187 -0.22505,-0.14013 -0.15003,-0.0937 -0.0907,0.0226 -0.0227,-0.0906 -0.11261,-0.0699 -0.17132,-0.18472 -0.14084,-0.19181 -0.1125,-0.07 -0.14299,-0.063 -0.14094,-0.19181 -0.28393,-0.25476 -0.11251,-0.07 -0.0906,0.0227 -0.30455,0.0706 -0.24135,-0.072 -0.0226,-0.0908 -0.0226,-0.0906 -0.0278,-0.12189 0.0905,-0.0228 0.33415,-0.49485 0.0416,-0.2343 0.07,-0.11251 0.21304,-0.0497 0.0682,0.0161 c 0.0494,-0.29903 0.14705,-0.58894 0.0164,-0.9018 0.24503,-0.9073 0.38386,-1.74775 0.63461,-2.65033 0.11213,-0.31232 0.40758,-0.44844 0.61717,-0.65695 l -0.0748,-0.0464 -0.21293,0.0496 -0.14095,-0.19178 -0.11262,-0.07 -0.26254,-0.16349 -0.0906,0.0226 -0.12188,0.0278 -0.0905,0.0226 -0.11262,-0.07 -0.0277,-0.12185 0.0492,-0.20389 -0.0278,-0.12188 0.0207,-0.32561 -0.0227,-0.0906 -0.0227,-0.0907 0.18467,-0.17133 -0.0227,-0.0906 0.28312,-0.16207 0.0908,-0.0226 0.30436,-0.0706 0.3979,-0.2209 -0.0227,-0.0906 -0.23433,-0.0416 -0.0496,-0.21299 -0.0227,-0.0907 0.063,-0.14302 -0.0706,-0.30447 -0.0227,-0.0906 0.12188,-0.0278 -0.0227,-0.0907 0.0906,-0.0228 -0.0278,-0.12187 0.0489,-0.20384 -0.21086,-0.0796 -0.19258,-0.27604 -0.11262,-0.07 0.0701,-0.11255 0.0511,-0.33271 0.0905,-0.0228 -0.0278,-0.12188 0.12091,-0.44524 0.0701,-0.11254 -0.0278,-0.12185 -0.0226,-0.0906 -0.0705,-0.30452 -0.0906,0.0226 -0.23425,-0.0416 0.0229,0.0907 -0.0905,0.0226 -0.2627,-0.16344 -0.0705,-0.30451 -0.0226,-0.0906 -0.0497,-0.21297 -0.0226,-0.0906 -0.0497,-0.21299 0.0701,-0.11254 0.21292,-0.0496 0.11255,0.07 0.12187,-0.0278 0.0907,-0.0226 0.11969,0.10042 0.23429,0.0416 0.2342,0.0416 0.0907,-0.0228 0.21303,-0.0497 0.07,-0.1125 0.0417,-0.23431 0.0795,-0.21097 -0.19258,-0.27605 -0.14086,-0.19181 -0.14084,-0.19182 -0.0419,-0.18276 0.0905,-0.0227 -0.0277,-0.12187 0.19178,-0.14085 0.0701,-0.11252 -0.0278,-0.12186 -0.0226,-0.0906 -0.11261,-0.07 -0.15008,-0.0937 -0.0418,-0.1828 -0.0906,0.0227 -0.0278,-0.12188 -0.0227,-0.0906 -0.10017,-0.84305 0.0511,-0.33268 -0.0227,-0.0906 -0.0227,-0.0908 -0.17009,-0.73046 -0.23425,-0.0416 -0.0226,-0.0906 -0.11959,-0.10043 -0.0227,-0.0908 -0.12188,0.0278 -0.53659,-0.0994 -0.23434,-0.0415 -0.16213,-0.28307 -0.0497,-0.21302 -0.14297,-0.063 -0.0906,0.0227 -0.0416,0.23432 0.0417,0.18274 0.21084,0.0796 0.14301,0.0629 0.16214,0.28312 0.0705,0.30449 0.12007,0.51747 0.0226,0.0907 0.0497,0.21294 0.0227,0.0906 -0.0207,0.32564 -0.12187,0.0278 -0.41688,-4.5e-4 -0.0906,0.0227 -0.12187,0.0278 -0.0699,0.11251 -0.14221,0.35394 -0.0906,0.0226 -0.34607,0.3051 -0.53788,0.44603 -0.17063,0.23223 -0.0907,0.0227 0.0276,0.12189 -0.14219,0.35392 0.0226,0.0908 -0.0906,0.0228 -0.12188,0.0279 -0.0701,0.11257 -0.18479,0.17131 -0.16126,0.13381 -0.072,0.24136 0.023,0.0908 -0.11191,0.34688 -0.12185,0.0278 -0.0907,0.0226 -0.14083,-0.19181 -0.25563,-0.13304 0.0208,-0.32561 0.20512,-0.49696 0.0713,-0.65831 0.0702,-0.11255 0.12188,-0.0278 0.16126,-0.13383 0.21305,-0.0496 0.0628,-0.14306 0.38351,-0.28175 0.15437,-0.16426 0.0795,-0.21096 0.0415,-0.23428 -0.0496,-0.21298 -0.11249,-0.07 -0.0706,-0.30446 0.53656,0.0994 0.3255,0.0206 0.23436,0.0416 0.0702,-0.11255 0.10043,-0.1196 0.0629,-0.14299 0.19176,-0.14084 0.16147,-0.13382 -0.21106,-0.0795 -0.32548,-0.0206 -0.14301,-0.0628 -0.16213,-0.28312 0.0208,-0.32562 0.0937,-0.15006 -0.21386,-0.36734 -0.0908,0.0226 -0.0906,0.0226 -0.26258,-0.16347 -0.0227,-0.0906 -0.0227,-0.0906 0.0626,-0.14299 -0.0227,-0.0906 0.16352,-0.26264 -0.0419,-0.18277 -0.0496,-0.213 -0.32558,-0.0206 -0.31218,-0.37653 -0.042,-0.18277 -0.0994,-0.42606 0.3044,-0.0704 0.19188,-0.14086 0.0226,0.0906 0.0906,-0.0227 0.0496,0.21298 0.12183,-0.0279 0.25472,-0.28384 0.0491,-0.20387 -0.0496,-0.21299 -0.11262,-0.07 -0.0497,-0.21298 -0.0496,-0.21298 -0.14199,-1.02575 0.0208,-0.32563 0.10043,-0.11958 -0.24141,-0.0719 -0.36732,0.21382 -0.19188,0.14086 -0.0906,0.0226 0.0227,0.0906 -0.23345,0.37519 -0.1219,0.0277 0.0278,0.12186 0.12188,-0.0277 0.0905,-0.0226 -0.0205,0.32556 -0.10043,0.11956 0.0226,0.0906 -0.27612,0.19256 -0.18269,0.0418 -0.0497,-0.213 -0.0227,-0.0906 -0.24213,-0.48911 -0.11262,-0.0699 -0.16214,-0.28312 -0.0277,-0.12184 0.0702,-0.11257 -0.0226,-0.0907 0.0907,-0.0226 -0.0278,-0.12186 0.12186,-0.0278 0.16132,-0.1337 0.12184,-0.0279 0.28324,-0.16207 0.0906,-0.0228 0.0627,-0.14298 -0.0419,-0.18276 -0.0994,-0.42606 -0.0227,-0.0906 -0.0908,0.0226 -0.23425,-0.0415 -0.0906,0.0226 -0.0908,0.0226 -0.1219,0.0277 -0.39562,0.0919 -0.0906,0.0226 -0.21294,0.0496 -0.28316,0.16204 -0.19186,0.14085 -0.34603,0.30514 -0.16356,0.26262 -4.4e-4,0.41691 0.0705,0.30449 0.39642,0.32484 0.0706,0.30447 -0.30453,0.0705 -0.18466,0.17131 -0.46654,-0.21229 -0.35394,-0.14222 -0.14093,-0.19179 -0.0227,-0.0906 0.0416,-0.23431 0.14227,-0.35396 0.07,-0.11251 -0.26261,-0.16349 -0.0906,0.0226 -0.23438,-0.0416 -0.62998,0.0501 -0.3956,0.0919 -0.19192,0.14085 -0.0906,0.0226 -0.39574,0.0919 -0.0226,-0.0906 -0.24217,-0.48907 -0.23291,-0.58749 -0.23425,-0.0415 -0.11968,-0.10043 -0.44603,-0.5379 -0.13368,-0.16141 -0.15008,-0.0938 -0.0906,0.0226 -0.11263,-0.0699 -0.14298,-0.063 0.072,-0.2414 0.13314,-0.25555 -0.0228,-0.0907 -0.18289,0.0419 -0.12187,0.0279 -0.07,0.11253 -0.18473,0.1713 -0.41614,0.41769 -0.10043,0.1196 -0.0906,0.0226 -0.44653,0.42476 -0.0908,0.0227 -0.0701,0.11253 -0.21297,0.0496 -0.0627,0.14296 -0.12184,0.0279 -0.0908,0.0226 -0.33268,-0.0511 -0.11254,-0.07 -0.12186,0.0278 -0.0226,-0.0906 -0.0906,0.0227 -0.0278,-0.12189 -0.0905,0.0226 -0.39768,0.22088 -0.0906,0.0226 -0.0905,0.0226 -0.24135,-0.072 -0.0907,0.0226 -0.12188,0.0278 -0.11261,-0.07 -0.1126,-0.07 -0.12186,0.0278 -0.30436,0.0707 -0.11969,-0.10043 -0.0907,0.0226 -0.12186,0.0279 -0.11251,-0.07 -0.0907,0.0227 -0.14297,-0.0628 -0.0907,0.0228 -0.11969,-0.10041 -0.14298,-0.0629 -0.11252,-0.07 0.11385,-0.47568 -0.32552,-0.0207 -0.10043,0.1196 -0.18289,0.0418 -0.12187,0.0278 -0.3255,-0.0206 -0.30455,0.0706 -0.23214,-0.1706 -0.28395,-0.25476 -0.25559,-0.13303 -0.1196,-0.10043 -0.0906,0.0226 -0.0938,0.15008 -0.16146,0.13381 -0.28304,0.16203 -0.80131,-0.13436 -0.13388,-0.16136 0.063,-0.14299 -0.22521,-0.14012 -0.0278,-0.12186 -0.12185,0.0278 -0.34676,-0.1118 -0.46655,-0.21228 -0.0906,0.0226 0.0226,0.0906 -0.30452,0.0707 -0.12191,0.0278 -0.0226,-0.0906 -0.42398,-0.0294 -0.0905,0.0228 -0.30441,0.0705 -0.21302,0.0496 -0.74258,-0.0194 -0.24137,-0.072 -0.51749,0.12016 -0.11254,-0.07 -0.26263,-0.16349 -0.18283,0.0419 -0.14297,-0.063 -0.30441,0.0705 -0.0906,0.0227 -0.0226,-0.0907 -0.3327,-0.0511 -0.11254,-0.07 -0.23433,-0.0416 -0.42397,-0.0293 -0.93515,-0.29573 -0.44523,-0.12098 -0.17132,-0.18473 -0.22519,-0.1401 -0.28388,-0.25481 -0.35392,-0.14223 0.12104,-0.44524 -0.15012,-0.0938 -0.55781,-0.19099 -0.28394,-0.25481 -0.48769,-0.30364 -0.14298,-0.0629 -0.46655,-0.21226 -0.40352,-0.35532 -0.23435,-0.0415 0.0226,0.0906 -0.0906,0.0226 0.0277,0.12185 -0.21293,0.0496 -0.0908,0.0227 -0.0907,0.0227 -0.15007,-0.0937 -0.2038,-0.0493 -0.0226,-0.0906 -0.0278,-0.12186 -0.0227,-0.0906 -0.12187,0.0279 -0.2323,-0.17053 -0.49684,-0.20524 -0.37529,-0.23351 -0.32548,-0.0206 -0.20398,-0.0489 -0.12186,0.0278 -0.2817,-0.38363 -0.65913,-0.4883 -0.1125,-0.07 -0.28393,-0.25478 -0.26268,-0.16346 -0.48771,-0.3036 -0.14094,-0.19182 -0.14297,-0.0624 -0.20378,-0.049 -0.1501,-0.0938 -0.0226,-0.0907 -0.11259,-0.0699 -0.16217,-0.28312 -0.2129,0.0497 -0.14082,-0.19182 -0.12186,0.0277 -0.0226,-0.0905 -0.11971,-0.10043 -0.0227,-0.0906 -0.30446,0.0706 -0.30451,0.0705 -0.0227,-0.0906 -0.14096,-0.19182 -0.14298,-0.0628 -0.11955,-0.10043 -0.0908,0.0226 -0.23433,-0.0415 -0.41688,-4.6e-4 -0.45453,-0.0228 -0.18266,0.0419 -0.0938,0.15006 0.0419,0.18278 0.0277,0.12187 0.0226,0.0906 0.23424,0.0416 0.21166,0.49618 0.12189,-0.0278 0.25355,0.26184 0.12186,-0.0278 0.11252,0.07 0.16207,0.28315 -0.0626,0.14299 0.0228,0.0907 -0.14217,0.35393 -0.0208,0.32562 -0.0701,0.11258 -0.12187,0.0278 -0.0623,0.55991 -0.072,0.24137 -0.11191,0.34691 -0.28301,0.16201 -0.0719,0.24138 0.0229,0.0907 0.0496,0.21295 0.0227,0.0906 0.17129,0.18475 -0.10042,0.11957 -0.0909,0.4382 -0.23344,0.37519 -0.0938,0.15006 -0.16147,0.13382 -0.19176,0.14082 -0.0629,0.14297 0.0227,0.0908 0.14083,0.19185 0.46799,1.04613 0.0277,0.12187 0.0226,0.0907 0.0708,0.30444 -0.072,0.24137 -0.07,0.11252 -0.0415,0.2343 -0.10043,0.11962 0.0496,0.21296 0.0419,0.18276 0.0497,0.21297 0.0227,0.0906 0.0994,0.42608 0.0216,0.50828 0.0277,0.12185 0.0706,0.30446 0.0216,0.50828 0.0278,0.12185 -0.12091,0.44529 0.14081,0.19179 0.0419,0.18278 0.19258,0.27604 0.14095,0.19178 0.0705,0.3045 0.0226,0.0907 0.0278,0.12185 0.0228,0.0907 0.0706,0.30448 0.0496,0.21298 -0.0907,0.0226 0.0226,0.0907 0.14096,0.1918 0.2556,0.13302 0.35385,0.14225 0.51616,0.42533 0.0226,0.0907 0.0226,0.0906 0.16206,0.28317 0.19256,0.27602 0.14095,0.1918 0.28393,0.25478 0.0907,-0.0227 0.0904,-0.0228 0.14304,0.063 0.14088,0.1918 0.12008,0.51749 0.0227,0.0908 -4.6e-4,0.41693 0.0706,0.30446 0.0278,0.12185 0.1126,0.07 0.21304,-0.0496 0.42465,0.44665 0.042,0.18271 0.0496,0.21302 0.0227,0.0908 0.0706,0.30444 0.0705,0.3045 0.0203,0.63704 0.22094,0.39779 0.0705,0.30449 0.11362,0.48694 0.12035,0.51745 0.0699,0.85008 0.0227,0.0906 0.092,0.39568 0.0277,0.12186 0.0226,0.50818 0.0278,0.12189 0.0708,0.30445 0.0227,0.0906 0.0705,0.30449 0.0707,1.26705 0.0226,0.0907 0.008,0.44733 -0.0493,0.20389 0.0278,0.12185 -0.0293,0.42402 0.0497,0.213 0.0501,0.63001 -4.6e-4,0.41687 0.0705,0.3045 0.0228,0.0906 -9e-4,0.54577 0.0705,0.30448 0.26261,0.16347 0.0906,-0.0227 0.0226,0.0906 0.0226,0.0907 0.17135,0.18471 0.0497,0.21298 0.0226,0.0906 0.0228,0.0905 0.23303,0.58747 0.24141,0.072 0.0906,-0.0228 0.0226,0.0907 0.14085,0.1918 0.16424,0.15432 0.0277,0.12188 0.0227,0.0907 0.23378,1.00441 0.0699,0.8501 0.16278,0.70004 0.0278,0.12187 0.0706,0.30447 0.0226,0.0907 -4.4e-4,0.41686 0.0705,0.30448 0.0277,0.12188 -0.0487,0.20385 0.11957,0.10043 0.0227,0.0906 -0.0416,0.2343 0.0419,0.18279 -0.0511,0.33269 0.0705,0.30447 0.0277,0.12187 -0.07,0.11251 0.12026,0.5175 -0.0905,0.0227 0.0226,0.0907 -9e-4,0.54574 -0.0194,0.74253 0.0203,0.63703 -0.0207,0.32564 -0.0713,0.65834 0.0227,0.0907 -0.0831,0.4686 -0.17064,0.2322 0.0278,0.12185 0.0227,0.0906 0.39563,-0.0919 0.37662,-0.31225 0.0906,-0.0226 0.0907,-0.0227 0.12187,-0.0278 -0.0226,-0.0907 -0.0497,-0.21294 -0.0418,-0.1828 -0.0497,-0.21298 -0.0227,-0.0909 -0.0278,-0.12186 4.6e-4,-0.41693 -0.14157,-0.60874 -0.0226,-0.0906 -0.0278,-0.12184 -0.0226,-0.0906 0.0416,-0.23435 0.19177,-0.14082 0.3745,-0.18332 0.32548,0.0207 0.3257,0.0206 0.15007,0.0938 0.0908,-0.0227 0.21291,-0.0497 0.11262,0.07 0.26269,0.16346 0.34675,0.1118 0.12027,0.51745 0.0226,0.0907 0.23232,0.17054 -0.16148,0.13383 0.0277,0.12184 -0.19178,0.14085 0.14084,0.1918 0.12188,-0.0277 0.0228,0.0906 0.20392,0.0491 0.63706,-0.0203 0.16424,0.15427 0.0278,0.12188 0.0905,-0.0226 0.0226,0.0905 0.0906,-0.0226 0.32567,0.0206 0.21297,-0.0497 0.24134,0.072 0.0908,-0.0226 0.1126,0.0699 0.0226,0.0907 0.2626,0.16349 0.16203,0.28316 0.14299,0.0628 -0.39769,0.22086 -0.0906,0.0226 -0.0906,0.0227 -0.12186,0.0278 -0.39564,0.0919 -0.89187,0.30375 -0.0906,0.0227 -0.32567,-0.0206 -0.12186,0.0278 -0.37442,0.18333 -0.0906,0.0226 -0.0719,0.2414 -0.0906,0.0227 -0.0906,0.0226 -0.30456,0.0706 -0.19179,0.14084 -0.1627,0.67959 -0.19188,0.14081 -0.0906,0.0228 -0.0906,0.0227 -0.28398,-0.25478 -0.0501,-0.63003 -0.0226,-0.0906 -0.0226,-0.0907 -0.14096,-0.19177 -0.0226,-0.0907 -0.1197,-0.10042 -0.14298,-0.0627 -0.37438,0.18333 0.0277,0.12187 0.11352,0.48695 0.0497,0.21297 0.0496,0.21298 0.0921,0.39567 0.14169,0.60872 0.0712,0.72134 -0.0227,0.45446 0.011,0.0298 z"
       id="WA-06"
       style="font-style:normal;font-weight:400;font-size:34.375px;font-family:'MS Shell Dlg 2';opacity:1;fill:none;fill-opacity:1;fill-rule:evenodd;stroke:#000000;stroke-width:0.33333385;stroke-linecap:square;stroke-linejoin:bevel;stroke-miterlimit:4;stroke-dasharray:none;stroke-opacity:1" />
    <path
       inkscape:connector-curvature="0"
       d="m 381.48071,575.18446 0.0136,0.0609 -0.0701,0.11254 0.0227,0.0907 -0.12186,0.0279 0.0278,0.12183 -0.0906,0.0227 -0.0908,0.0229 0.0228,0.0905 -0.12186,0.0279 -0.16146,0.1338 -0.25469,0.28385 -0.19187,0.14087 -0.0632,0.14299 -0.10043,0.11957 -0.0701,0.11252 -0.0927,0.56698 0.0497,0.213 0.042,0.18275 0.0279,0.12187 0.14301,0.0627 0.0497,0.21297 -0.0795,0.21096 0.12016,0.51746 0.14299,0.0628 -0.0937,0.15007 -0.0702,0.11255 0.0227,0.0906 0.0278,0.1219 -0.0906,0.0227 0.0226,0.0906 -0.19177,0.14084 -0.0906,0.0227 0.0278,0.12186 -0.1219,0.0277 -0.0702,0.11253 -0.0701,0.11257 0.0278,0.12187 -0.10042,0.11958 -0.07,0.11252 -0.1634,0.2626 -0.13314,0.2556 0.0418,0.18277 0.14094,0.1918 0.0226,0.0907 0.0277,0.12188 0.1339,0.16135 0.24134,0.0719 0.0906,-0.0226 0.12186,-0.0278 0.22523,0.14008 0.0278,0.12188 0.14295,0.0628 0.14083,0.19185 0.0226,0.0906 0.0908,-0.0226 0.0227,0.0907 0.0497,0.21298 0.0227,0.0905 -0.0415,0.23429 -0.28313,0.16207 -0.0906,0.0226 -0.1219,0.0278 -0.11249,-0.07 -0.0227,-0.0906 -0.16206,-0.28314 -0.35538,0.40354 -0.0908,0.0226 -0.0906,0.0228 0.0227,0.0906 -0.12185,0.0278 0.0227,0.0909 0.15005,0.0937 0.0227,0.0908 0.0227,0.0904 0.0278,0.12189 0.16204,0.28313 -0.0699,0.11251 0.0226,0.0906 0.0278,0.12189 0.0705,0.30446 0.0227,0.0907 -0.12185,0.0278 0.0227,0.0907 -0.0631,0.14301 0.11261,0.07 0.0705,0.30448 0.14298,0.0628 0.1196,0.10042 0.16203,0.28317 0.0419,0.18274 0.0277,0.12189 -0.07,0.11252 0.0227,0.0907 -0.063,0.143 0.0227,0.0906 -0.12188,0.0279 0.0227,0.0907 -0.27612,0.19261 0.32568,0.0206 0.14298,0.063 0.11956,0.10043 0.0227,0.0907 0.0227,0.0906 0.0496,0.21299 -0.0206,0.32561 0.0228,0.0906 0.23209,0.17059 0.48875,-3.00138 -0.13136,-2.63249 0.50753,-0.43894 0.54024,0.80475 0.0993,-0.53659 0.21362,-1.01226 0.59881,-0.46018 -0.0878,-0.65338 c -0.47978,-0.25902 -0.65344,-0.69198 -0.70018,-1.21673 -0.0362,-0.40693 0.0373,-0.88096 0.0746,-1.3329 l -1.16653,-0.0491 0.0895,-2.23468 -0.0682,-0.0162 z m -3.10186,9.83397 c -0.20958,0.20849 -0.50501,0.34459 -0.61716,0.65694 -0.25076,0.90254 -0.38946,1.74298 -0.63458,2.65032 0.13229,0.31289 0.0353,0.60269 -0.0164,0.90175 l 0.16637,0.0254 -0.0511,0.3327 0.0496,0.213 0.0227,0.0906 0.15007,0.0938 0.22503,0.14015 0.12183,-0.0279 0.0906,-0.0226 0.0906,-0.0226 -0.0226,-0.0906 0.19177,-0.14081 0.27604,-0.19262 0.0278,0.12189 0.23433,0.0416 0.11167,-0.34682 0.25489,-0.28389 0.19178,-0.14085 0.19178,-0.14082 0.0905,-0.0229 0.18477,-0.1713 0.48692,-0.11356 0.12185,-0.0278 -0.0226,-0.0906 -0.12186,0.0278 -0.11263,-0.07 -0.14092,-0.19179 -0.32551,-0.0207 -0.35405,-0.1422 -0.14297,-0.063 -0.0279,-0.12186 -0.0418,-0.1828 0.0511,-0.33269 -0.0496,-0.21298 0.0207,-0.32561 0.0417,-0.23433 -0.0227,-0.0906 0.072,-0.2414 -0.19257,-0.27602 -0.13393,-0.16136 -0.11962,-0.10043 0.0489,-0.20386 -0.0278,-0.12188 0.0702,-0.11251 -0.2535,-0.26186 -0.12185,0.0279 -0.0377,-0.0236 z"
       id="WA-07"
       style="font-style:normal;font-weight:400;font-size:34.375px;font-family:'MS Shell Dlg 2';opacity:1;fill:none;fill-opacity:1;fill-rule:evenodd;stroke:#000000;stroke-width:0.33333385;stroke-linecap:square;stroke-linejoin:bevel;stroke-miterlimit:4;stroke-dasharray:none;stroke-opacity:1" />
    <path
       inkscape:connector-curvature="0"
       d="m 386.08628,581.87725 c 0.0206,0.053 -0.0377,0.072 -10e-4,0.12887 -0.23633,0.66538 -0.0816,1.61086 -0.5419,2.08331 l 0.773,0.0104 -0.2653,0.92804 -1.12197,0.004 0.21327,1.33002 -1.0475,1.01381 0.55516,1.28255 -0.96764,-0.15986 -0.0452,0.90891 -1.88792,0.0223 -0.0565,1.13607 -0.2391,1.17863 -0.43464,0.61449 1.87876,0.0763 -0.11416,2.818 -0.55634,0.64283 -0.63918,0.1485 0.0268,2.04711 -2.57443,-0.17097 0.0266,1.63021 -2.22756,-0.0592 0.0785,0.75177 -0.43323,0.0684 -0.16692,0.93721 1.27566,0.79402 0.0987,1.3888 c 0.33552,-0.0961 0.67598,-0.16245 1.03273,-0.11235 0.46487,0.0662 0.94494,0.21823 1.36624,0.35584 0.53931,0.0876 0.71828,0.4408 0.83536,0.83233 0.11715,0.3915 0.15586,0.82332 0.3909,1.12827 0.1298,0.37221 0.49532,0.36719 0.88136,0.34033 0.38599,-0.0266 0.80405,-0.0849 1.05684,0.26742 0.5953,0.3477 1.23932,0.53904 1.90768,0.6149 0.66852,0.0761 1.34391,0.0368 2.00967,-0.0507 0.53379,-0.10023 1.05554,-0.0206 1.53681,0.12365 0.48118,0.14413 0.91964,0.38301 1.35482,0.58311 l 0.15209,-0.0359 1.4587,-1.5908 6.14412,0.20658 c 0.0267,-0.0897 -0.0156,-0.17841 0.0351,-0.26475 -0.2625,-0.92495 -1.05998,-1.58867 -1.4076,-2.46384 0.0331,-0.32124 0.31867,-0.49477 0.61007,-0.68742 0.29141,-0.19267 0.61687,-0.39211 0.68716,-0.76952 0.18166,-0.33255 0.0142,-0.60082 0.0164,-0.90182 0.004,-0.30099 0.14872,-0.62726 0.89739,-1.10722 -0.0355,-0.53605 0.2419,-1.13617 0.66235,-1.56584 0.42046,-0.42967 0.99669,-0.6952 1.49567,-0.60476 0.44465,-0.005 0.87671,0.0724 1.27691,0.2483 0.4003,0.17558 0.76531,0.43453 1.0485,0.78275 0.90096,0.96715 1.36737,2.13708 2.13042,3.22606 0.21292,0.27435 0.34435,0.2435 0.56768,0.5096 l 7.72272,0.0955 -0.002,2.47114 2.5065,0.15469 -0.12918,2.34019 10.57115,0.2031 c -0.07,-0.38153 0.12932,-0.6525 0.36358,-0.91881 0.23435,-0.26635 0.51247,-0.5288 0.59806,-0.87718 0.0357,-0.59055 -0.62413,-1.12275 -0.60761,-1.78365 -0.24009,-0.98215 -0.46904,-1.96752 -0.65664,-2.95946 -0.1532,-0.6029 -0.39972,-1.19708 -0.29611,-1.8241 -0.33559,-0.24764 -0.54921,-0.6032 -0.61316,-0.98028 -0.0643,-0.37701 0.0104,-0.79564 0.24617,-1.14818 0.2108,-0.31846 0.29192,-0.65599 0.31209,-1.00311 0.0201,-0.34714 -0.005,-0.69202 -0.051,-1.04693 0.001,-0.27461 0.0403,-0.64959 -0.0298,-0.9556 -0.0711,-0.30596 -0.26058,-0.53836 -0.66619,-0.51873 -0.28569,0.0824 -0.48623,0.0172 -0.60446,-0.11603 -0.11828,-0.13346 -0.16925,-0.34497 -0.0806,-0.62292 -0.0224,-0.79936 -0.56322,-1.50692 -0.37942,-2.31811 0.0898,-0.454 -0.13206,-0.72424 -0.46309,-0.8869 -0.33124,-0.1626 -0.7609,-0.226 -1.08728,-0.26031 -0.48892,-0.0604 -0.98019,-0.0443 -1.46887,-0.10758 l -0.074,-1.00943 c -0.51518,-0.28624 -0.66952,-1.01418 -1.20639,-1.32351 -0.0498,-0.80733 0.14297,-1.64466 0.50869,-2.36435 0.25101,-0.39669 0.64341,-0.72055 0.96526,-1.09087 0.32191,-0.3704 0.56445,-0.7793 0.5294,-1.31037 -0.14095,-0.34107 -0.0751,-0.68452 0.0238,-1.00019 0.0989,-0.31562 0.24757,-0.62964 0.2582,-0.95848 0.0311,-0.29864 -0.13133,-0.63315 -0.18954,-0.95054 -0.0568,-0.31761 -0.0215,-0.61491 0.39899,-0.76663 0.34331,-0.27448 0.72588,-0.26563 1.10996,-0.19372 0.38408,0.0718 0.79148,0.22679 1.17156,0.20866 0.35088,0.008 0.76296,-0.006 1.12412,-0.1329 0.36111,-0.1275 0.6568,-0.38776 0.70349,-0.83748 0.0114,-0.66834 0.36286,-1.20659 0.75574,-1.71596 0.44345,-0.31851 0.59271,-0.6862 0.4522,-1.22821 -0.0448,-0.4017 0.17623,-0.64357 0.44581,-0.84171 0.2695,-0.19812 0.60089,-0.35246 0.7297,-0.58687 -0.0237,-0.14017 -0.0981,-0.28503 -0.16009,-0.41199 l -3.67025,0.0841 c 0.003,-0.32755 -0.0278,-0.70076 -0.14198,-1.02574 -0.11455,-0.32489 -0.33065,-0.59715 -0.70859,-0.70139 -0.2299,-0.0599 -0.56905,-0.19595 -0.75963,-0.36868 -0.19062,-0.1727 -0.2147,-0.38513 0.14647,-0.61161 -0.56254,-0.28904 -1.27301,-0.4314 -1.75138,-0.90792 -0.46899,-0.33767 -0.78982,-0.81619 -1.28562,-1.11256 -0.26011,-0.008 -0.5714,0.008 -0.81762,-0.0661 -0.24623,-0.0744 -0.45142,-0.25401 -0.46726,-0.62922 -0.0166,-0.31207 0.12271,-0.66875 0.15273,-0.99807 0.0304,-0.32936 -0.0271,-0.63133 -0.41849,-0.83311 -0.0318,-0.25155 -0.10004,-0.49423 -0.22364,-0.68586 -0.12425,-0.19153 -0.31888,-0.34497 -0.60741,-0.40411 -0.76051,-0.38483 -1.38782,-0.95121 -1.96815,-1.56341 -0.19007,-0.0969 -0.57781,-0.17027 -0.83672,-0.28651 -0.12935,-0.0579 -0.23498,-0.14025 -0.24627,-0.23149 -0.0136,-0.0907 0.0743,-0.20866 0.27101,-0.35183 0.22596,-0.25979 0.17756,-0.53094 0.0103,-0.77298 -0.16493,-0.242 -0.46745,-0.44048 -0.70363,-0.54209 -0.2445,-0.11658 -0.51228,-0.2093 -0.78502,-0.20235 l -0.27927,-1.47512 c 0.22513,-0.15935 0.36701,-0.35797 0.41125,-0.57697 0.0444,-0.219 -0.0108,-0.45645 -0.15594,-0.66959 0.0516,-0.17334 0.18641,-0.30122 0.24975,-0.44312 0.0634,-0.14196 0.0644,-0.28847 -0.19746,-0.43534 -0.0882,-0.1147 -0.23494,-0.1126 -0.36104,-0.17267 -0.26411,0.0901 -0.34525,0.13566 -0.65545,0.2167 -0.38781,0.10138 -0.77405,0.16005 -1.08646,0.1566 -0.31241,-0.006 -0.53654,-0.0679 -0.60954,-0.27525 -0.0541,-0.15413 -0.15659,-0.48432 -0.32226,-0.69503 -0.16545,-0.21079 -0.41718,-0.29043 -0.72117,0.0719 -0.18505,0.22033 -0.78168,0.0556 -0.78631,0.34342 -0.007,0.29546 -0.0699,0.40501 -0.18898,0.42902 -0.11915,0.023 -0.30143,-0.058 -0.45239,-0.15142 -0.30173,-0.18656 -0.58302,-0.4375 -0.52025,-0.16771 0.10113,0.4333 0.086,0.60507 -0.003,0.67462 -0.0894,0.0695 -0.26058,0.0165 -0.46141,-0.053 -0.20095,-0.0688 -0.40962,-0.15761 -0.64211,-0.13934 -0.23258,0.0177 -0.47494,0.14349 -0.65965,0.47439 -0.37842,0.67777 -0.38428,0.87367 -0.29577,0.93509 0.0886,0.0618 0.26204,-0.002 0.23223,0.17057 -0.14498,0.81414 -0.36608,1.00576 -0.45211,1.22816 -0.0862,0.22246 -0.0325,0.46826 0.46172,1.43267 0.14601,0.2849 -0.78542,0.49025 -0.59591,0.74826 0.0749,0.1023 0.13993,0.24823 0.23712,0.32985 0.84944,0.71346 0.92429,0.66273 1.09173,1.38228 0.0771,0.33215 0.31153,0.51149 0.3951,0.87061 0.11244,0.48193 0.0362,0.8558 0.48923,1.13747 0.0598,0.0373 0.12648,0.0406 0.18058,0.0861 0.11176,0.094 0.35298,0.25588 0.50906,0.39487 0.15596,0.13908 0.22342,0.26887 0.0108,0.31851 -0.26972,0.0628 -0.5505,0.2573 -0.71332,0.51895 -0.15117,0.24291 -0.14329,0.48722 -0.052,0.87844 0.089,0.38306 -0.32554,0.39753 -0.5117,0.69662 -0.17031,0.27359 -0.17221,0.39302 -0.50036,0.46936 -0.13717,0.0303 -2.33734,0.55446 -2.15107,0.82143 0.18621,0.2669 -0.80887,0.13364 -0.67384,0.41349 0.135,0.2795 0.31462,0.51374 0.44185,0.79556 0.12688,0.60521 -0.13455,1.16394 -0.40687,1.69893 -0.27223,0.53495 -0.56808,1.04263 -0.48177,1.65218 0.14667,0.44636 0.35539,0.87987 0.63933,1.23086 0.28405,0.35103 0.65448,0.62133 1.13279,0.73106 -0.22857,0.33083 -0.48186,0.74208 -0.56484,1.15814 -0.0826,0.41604 0.008,0.85711 0.41216,1.21959 0.36114,0.33903 0.35915,0.64582 0.175,0.88975 -0.18409,0.24384 -0.5494,0.42745 -0.91022,0.50059 -0.35033,0.34679 -0.27482,0.8733 -0.2504,1.40577 0.0129,0.26629 -0.006,0.55925 -0.0737,0.78721 -0.0674,0.22788 -0.1927,0.39007 -0.45579,0.52316 -0.50903,0.12041 -0.90971,0.42904 -1.26332,0.77526 -0.35377,0.34626 -0.66704,0.75479 -1.04041,1.04422 -0.44406,0.29395 -0.64223,0.78929 -0.86203,1.25941 -0.21985,0.47012 -0.46678,0.89504 -1.04036,1.04424 -0.34088,0.38069 -0.72715,0.75662 -1.17632,1.01166 -0.44927,0.25509 -0.94977,0.3938 -1.48438,0.37743 -0.55455,-0.0944 -1.06986,-0.28465 -1.53753,-0.54055 -0.46768,-0.2559 -0.89318,-0.5618 -1.30401,-0.91579 -0.82173,-0.70795 -1.5526,-1.56409 -2.32775,-2.28178 -0.42472,-0.4331 -0.90478,-0.76706 -1.43068,-1.04674 -0.52596,-0.27962 -1.10252,-0.49741 -1.68761,-0.63399 -0.48421,-0.12627 -0.69698,-0.49744 -0.88006,-0.88613 -0.18302,-0.38861 -0.3422,-0.78892 -0.74904,-1.01282 -0.28018,-0.28457 -0.57401,-0.30923 -0.74752,-0.17897 -0.14342,0.10782 -0.1176,0.35944 -0.0178,0.61371 z"
       id="WA-08"
       style="font-style:normal;font-weight:400;font-size:34.375px;font-family:'MS Shell Dlg 2';opacity:1;fill:none;fill-opacity:1;fill-rule:evenodd;stroke:#000000;stroke-width:0.33333385;stroke-linecap:square;stroke-linejoin:bevel;stroke-miterlimit:4;stroke-dasharray:none;stroke-opacity:1" />
    <path
       inkscape:connector-curvature="0"
       d="m 379.0869,591.784 -0.0613,0.97681 1.37883,-0.41705 0.61365,0.0178 0.43463,-0.6145 0.2391,-1.17863 0.0566,-1.13608 1.88789,-0.0222 0.0453,-0.90889 0.96761,0.15985 -0.55512,-1.28256 1.04747,-1.0138 -0.21328,-1.33 1.12198,-0.005 0.26529,-0.92801 -0.77298,-0.0104 c 0.46018,-0.47243 0.30555,-1.41792 0.54191,-2.08329 -0.0358,-0.0568 0.0228,-0.0759 0.001,-0.12888 l -0.55288,-0.0321 0.053,-0.46151 -0.66889,0.57274 0.0172,-1.03066 -0.41694,-4.5e-4 -0.0436,0.36314 -0.81755,-0.0661 -0.0104,0.77299 -0.25768,-10e-4 0.0144,0.47779 -0.8743,-0.30987 -0.0993,0.53654 -0.54025,-0.80472 -0.5075,0.43891 0.13137,2.63251 -0.48876,3.0014 0.0227,0.0906 0.15007,0.0938 0.0228,0.0907 -0.072,0.24137 0.0226,0.091 0.0498,0.21297 -0.0489,0.20387 0.0279,0.12186 0.0227,0.0907 0.0226,0.0906 -0.0207,0.32559 -0.18479,0.17134 -0.0701,0.11256 -0.30438,0.0705 -0.12187,0.0277 -0.0907,0.0226 -0.21299,0.0498 -0.1827,0.0418 -0.19187,0.14088 -0.0908,0.0226 -0.21291,0.0496 -0.21297,0.0496 -0.0905,0.0227 0.0277,0.12186 -0.21302,0.0497 0.0226,0.0908 -0.16131,0.13369 -0.0937,0.15007 0.16423,0.15429 0.0906,-0.0228 0.0908,-0.0226 0.24141,0.072 0.0418,0.18278 -0.18478,0.17132 -0.18683,0.30017 z"
       id="WA-09"
       style="font-style:normal;font-weight:400;font-size:34.375px;font-family:'MS Shell Dlg 2';opacity:1;fill:none;fill-opacity:1;fill-rule:evenodd;stroke:#000000;stroke-width:0.33333385;stroke-linecap:square;stroke-linejoin:bevel;stroke-miterlimit:4;stroke-dasharray:none;stroke-opacity:1" />
    <path
       inkscape:connector-curvature="0"
       d="m 377.69126,603.43475 -0.0986,-1.3888 -1.27565,-0.79401 0.16689,-0.93722 0.43319,-0.0686 -0.0785,-0.75177 2.22758,0.0592 -0.0263,-1.6302 2.57444,0.17095 -0.0269,-2.04709 0.63914,-0.14862 0.55639,-0.64283 0.11415,-2.81797 -1.87875,-0.0763 0,0 -0.61365,-0.0178 -1.37884,0.41705 -0.0972,1.78735 -1.34498,-0.26452 0.16539,-1.77109 -1.29538,-0.0518 -0.52291,0.92382 -0.5458,-9e-4 -0.90622,-1.13672 c -0.0419,0.0694 -0.0824,0.12759 -0.15431,0.16425 -0.18006,0.0859 -0.42299,0.15679 -0.61079,0.27048 -0.18791,0.11377 -0.34293,0.25278 -0.29657,0.5182 0.01,0.38762 -0.0772,0.79387 -0.32122,1.10149 -0.11724,0.13452 -0.11236,0.36077 -0.16054,0.55071 -0.0479,0.18994 -0.14142,0.3285 -0.42119,0.25842 -0.4283,-0.11656 -0.43659,-0.62697 -0.63646,-0.94276 -0.0664,-0.23496 -0.28025,-0.34356 -0.49485,-0.33403 -0.21464,0.0101 -0.41734,0.14176 -0.38571,0.4106 -0.0735,0.3453 -0.56522,0.59333 -0.91022,0.50059 -0.35293,-0.19221 -0.65426,-0.51553 -0.66704,-0.93566 0.002,-0.28372 -0.11116,-0.37907 -0.28876,-0.4141 -0.17763,-0.0348 -0.42038,-0.0163 -0.59754,-0.0854 -0.36445,-0.0248 -0.72399,0.0713 -1.07518,-0.0709 -0.36494,0.11413 -0.73271,0.0603 -1.01225,-0.21363 -0.16184,-0.11162 -0.17515,-0.33779 -0.18841,-0.53366 -0.011,-0.19606 -0.0312,-0.38326 -0.28177,-0.38365 -0.18154,-0.0402 -0.42856,0.0483 -0.60168,0.17199 -0.17307,0.12463 -0.26784,0.31347 -0.16775,0.52031 0.14265,0.46138 0.76415,0.50166 0.8708,0.9845 0.11382,0.39969 0.28377,0.82058 0.0941,1.22949 -0.006,0.5635 0.2445,1.09778 0.35181,1.65071 l -2.43856,-0.13842 -0.10099,2.46196 0.86222,0.12023 -0.30513,4.75539 c 0.3338,0.18021 0.65929,0.29009 1.0915,0.004 0.42701,0.0926 0.86115,0.38582 1.27989,0.53637 0.20931,0.0756 0.42487,0.12458 0.62781,0.0785 0.20286,-0.0467 0.40513,-0.20214 0.59887,-0.46022 1.00912,-0.18787 1.8759,-0.83053 2.90275,-0.9001 0.93652,0.12221 1.8624,-0.51829 2.73504,-0.38018 0.2822,0.25306 0.63198,0.53351 0.98968,0.66806 0.3577,0.13459 0.70349,0.1076 1.04193,-0.2104 0.22147,0.2524 0.50222,0.61224 0.78373,0.74809 0.14068,0.0679 0.28501,0.0613 0.41686,4.5e-4 0.13186,-0.0624 0.26447,-0.21229 0.37162,-0.47152 0.0971,-0.0476 0.20993,-0.0118 0.31144,-0.0398 z"
       id="WA-10"
       style="font-style:normal;font-weight:400;font-size:34.375px;font-family:'MS Shell Dlg 2';opacity:1;fill:#000000;fill-opacity:1;fill-rule:evenodd;stroke:#000000;stroke-width:0.33333385;stroke-linecap:square;stroke-linejoin:bevel;stroke-miterlimit:4;stroke-dasharray:none;stroke-opacity:1" />
  </g>
</svg>
