<?xml version="1.0" encoding="UTF-8" standalone="no"?>
<!-- Created with Inkscape (http://www.inkscape.org/) -->

<svg
   xmlns:dc="http://purl.org/dc/elements/1.1/"
   xmlns:cc="http://creativecommons.org/ns#"
   xmlns:rdf="http://www.w3.org/1999/02/22-rdf-syntax-ns#"
   xmlns:svg="http://www.w3.org/2000/svg"
   xmlns="http://www.w3.org/2000/svg"
   xmlns:sodipodi="http://sodipodi.sourceforge.net/DTD/sodipodi-0.dtd"
   xmlns:inkscape="http://www.inkscape.org/namespaces/inkscape"
   width="10.421553mm"
   height="9.0218067mm"
   viewBox="0 0 36.926764 31.967032"
   id="svg12983"
   version="1.1"
   inkscape:version="0.91 r"
   sodipodi:docname="7.svg">
  <defs
     id="defs12985" />
  <sodipodi:namedview
     id="base"
     pagecolor="#ffffff"
     bordercolor="#666666"
     borderopacity="1.0"
     inkscape:pageopacity="0.0"
     inkscape:pageshadow="2"
     inkscape:zoom="6.4941132"
     inkscape:cx="43.118563"
     inkscape:cy="23.604096"
     inkscape:document-units="px"
     inkscape:current-layer="layer1"
     showgrid="false"
     fit-margin-top="3"
     fit-margin-left="3"
     fit-margin-right="3"
     fit-margin-bottom="3"
     inkscape:window-width="2560"
     inkscape:window-height="1388"
     inkscape:window-x="0"
     inkscape:window-y="0"
     inkscape:window-maximized="1" />
  <metadata
     id="metadata12988">
    <rdf:RDF>
      <cc:Work
         rdf:about="">
        <dc:format>image/svg+xml</dc:format>
        <dc:type
           rdf:resource="http://purl.org/dc/dcmitype/StillImage" />
        <dc:title></dc:title>
      </cc:Work>
    </rdf:RDF>
  </metadata>
  <g
     inkscape:label="Layer 1"
     inkscape:groupmode="layer"
     id="layer1"
     transform="translate(-521.04081,-433.37995)">
    <path
       inkscape:connector-curvature="0"
       d="m 537.98744,456.18608 c 0.0104,-0.009 0.0195,-0.0226 0.0292,-0.0333 0.0767,-0.0873 0.19099,-0.12097 0.30168,-0.17604 l -0.005,-1.53406 0.27257,-0.14286 3.34692,-0.06 0.002,-0.46983 0.74942,-0.51814 -1.10958,-0.21013 0.006,-0.84598 0.78168,-0.0194 -0.43671,-0.94258 -0.0424,-0.65485 0.68808,-0.0134 -0.0262,-0.40534 2.75434,-0.0217 -0.0855,-0.84003 -0.68817,0.0134 0.0533,-0.62977 3.16371,0.0155 -0.0344,-1.50091 0.40734,0.006 0.014,-0.75248 -0.72125,-0.016 -0.25351,-0.0462 0,0 -0.95177,-0.18899 -0.95055,0.31201 -0.0631,1.44458 -1.24538,0.11192 -0.008,1.31571 -2.38213,-0.0337 -0.0321,0.47175 -0.47587,-0.0944 -2.79356,-0.10127 -0.0479,3.1346 c 0,0 0.008,0.10387 -0.0541,0.12877 -0.061,0.0251 0.0295,0.004 -0.0604,0.0353 -0.12398,0.0399 -0.46497,0.007 -0.39933,0.11971 0.0544,0.0936 0.21613,0.35271 0.34002,0.41654 0.29439,0.15152 -0.0257,0.0971 -0.10661,0.28869 -0.04,0.0947 -0.13292,0.16512 -0.30168,0.17601 -0.1371,0.008 -0.39578,0.0453 -0.1791,0.13686 0.0449,0.0188 0.29959,0.116 0.32402,0.16703 0.0289,0.0607 0.18609,0.26973 -0.0134,0.28264 -0.18495,0.0113 -0.3764,0.0248 -0.56132,0.0364 -0.008,5.1e-4 -0.0447,0.003 -0.0624,0.004 l 0,0 c -0.11647,0.008 -0.39215,0.0306 -0.40345,0.0574 -0.0558,0.13292 -0.024,0.30192 -0.0613,0.50503 -0.0314,0.17209 -0.0912,0.13737 -0.20211,0.2636 -0.0579,0.0658 -0.20598,0.22737 -0.16504,0.35516 0.0473,0.14867 0.13872,0.26382 0.21545,0.4245 0.0677,0.14223 0.43641,-0.0294 0.44656,0.12776 6e-4,0.0178 0.0744,0.45815 0.3029,0.32481 0.0481,-0.0281 0.3425,-0.0885 0.3974,-0.15095 0.0826,-0.094 0.22415,-0.17384 0.32686,-0.27165 z"
       id="CO-01"
       style="font-style:normal;font-weight:400;font-size:34.375px;font-family:'MS Shell Dlg 2';opacity:1;fill:none;fill-opacity:1;fill-rule:evenodd;stroke:#000000;stroke-width:0.33333385;stroke-linecap:square;stroke-linejoin:bevel;stroke-miterlimit:4;stroke-dasharray:none;stroke-opacity:1" />
    <path
       inkscape:connector-curvature="0"
       d="m 513.6639,415.63992 c 0.39731,0.96977 0.80133,1.95046 1.16037,2.93121 0.62895,1.37049 1.65057,2.45662 2.64318,3.5869 0.49642,0.56526 0.97761,1.1449 1.39761,1.7573 0.42,0.61233 0.77413,1.27067 1.00627,2.00172 0.15268,0.64369 0.10349,1.37208 0.13311,2.05821 0.0294,0.68613 0.14889,1.31815 0.68236,1.83478 0.24807,0.51246 0.0301,0.97711 -0.25236,1.42547 -0.28223,0.44845 -0.61773,0.89924 -0.69286,1.3914 -0.35298,0.43751 -0.84428,0.60224 -1.36091,0.74559 -0.51674,0.14342 -1.07719,0.26606 -1.5311,0.53752 -0.73703,0.26683 -1.5325,0.51276 -2.34183,0.58974 -0.8092,0.0772 -1.63291,-0.0137 -2.3479,-0.47447 -0.53019,-0.0584 -1.05374,0.34223 -1.55822,0.60182 -0.25224,0.12984 -0.49409,0.23026 -0.73836,0.20437 -0.24428,-0.0257 -0.48703,-0.17844 -0.72234,-0.51695 -0.30541,-0.46908 -0.68851,-0.97872 -1.14704,-1.27244 -0.22923,-0.14682 -0.47354,-0.23654 -0.73543,-0.23422 -0.2618,0.004 -0.53522,0.0822 -0.82583,0.3039 -0.55909,0.20713 -1.05272,0.0538 -1.45869,-0.28143 -0.40593,-0.33481 -0.73809,-0.85185 -0.95989,-1.28455 -0.0764,-0.10209 -0.14242,-0.18039 -0.23647,-0.26649 l -0.0823,2.60453 0.53827,0.0903 -0.0642,14.50303 c 0.1573,0.20429 0.36502,0.42084 0.47893,0.62672 0.11392,0.20577 0.1249,0.41753 -0.0512,0.66089 -0.15768,0.29059 -0.14955,0.52465 -0.0472,0.72334 0.10243,0.19859 0.2926,0.3669 0.50402,0.53101 0.21153,0.16418 0.4575,0.30469 0.62686,0.49185 0.16932,0.18716 0.28667,0.40445 0.26269,0.67195 -0.4421,0.28993 -0.51065,0.61703 -0.3782,0.93255 0.13253,0.31559 0.45587,0.61417 0.74465,0.86004 0.41138,0.20497 0.99323,0.48141 1.43264,0.8468 0.21964,0.1827 0.40366,0.39387 0.51006,0.6246 0.1064,0.23081 0.13748,0.49556 0.0502,0.77967 -0.51333,1.03567 -1.30558,1.93418 -2.14027,2.7375 -0.30062,0.19062 -0.46693,0.44387 -0.51901,0.69124 -0.0519,0.24739 0.0195,0.49541 0.14195,0.74241 0.24506,0.49391 0.76039,0.92887 1.25973,1.07726 0.47138,0.28365 0.83471,0.16877 1.18895,-0.0142 0.35433,-0.18305 0.68558,-0.43766 1.10045,-0.41558 0.15176,0.45606 0.42164,0.58811 0.72853,0.61057 0.30678,0.0223 0.65412,-0.0659 0.99995,-0.0339 0.48975,0.1372 0.90934,-0.036 1.33081,-0.24258 0.42142,-0.20683 0.8348,-0.4468 1.35598,-0.3382 0.30324,-0.11442 0.5648,-0.0836 0.7837,0.0118 0.14594,0.0637 0.26672,0.17884 0.39442,0.28771 l 0,0 c 0.0637,0.0543 0.13497,0.0851 0.19708,0.1438 0.18641,0.17553 0.38996,0.36819 0.5957,0.49377 0.20565,0.12571 0.42129,0.19693 0.69808,0.14286 0.35777,-0.36064 0.63616,-0.7927 0.95857,-1.15809 0.32238,-0.36537 0.69845,-0.65994 1.23224,-0.79996 -0.23791,-0.3594 -0.13883,-0.66554 0.0974,-0.91441 0.23624,-0.24887 0.58737,-0.45485 0.86801,-0.61981 0.27427,-0.43688 0.75114,-0.73328 1.15173,-1.07657 0.40058,-0.34326 0.74753,-0.73476 0.76339,-1.2706 0.18705,-0.24558 0.33936,-0.34633 0.50792,-0.37735 0.16853,-0.0311 0.3314,0.0146 0.47791,0.12561 0.2928,0.22316 0.54017,0.65631 0.72337,1.01803 0.81921,0.94652 1.69418,1.86605 2.81808,2.41689 1.00212,0.40097 2.03364,0.57056 3.0372,0.96232 0.25638,-0.27221 0.53195,-0.39176 0.81987,-0.39754 0.28784,-0.005 0.59539,0.10763 0.87016,0.38214 l 0.10095,7.85355 1.53418,-0.005 1.79417,-3.24755 1.78005,-3.4659 -0.0434,-1.15582 0.85592,-0.80691 -0.10162,-1.0895 0.90518,-0.52823 0.41727,-1.78063 c -0.10272,0.0978 -0.24436,0.17763 -0.32688,0.27164 -0.0548,0.0624 -0.34908,0.12279 -0.39738,0.15097 -0.22846,0.13333 -0.30174,-0.30706 -0.30289,-0.32483 -0.0108,-0.15725 -0.37882,0.0151 -0.44656,-0.12776 -0.0767,-0.16067 -0.16796,-0.27583 -0.21545,-0.42447 -0.041,-0.12781 0.10715,-0.28943 0.16502,-0.35517 0.11079,-0.12623 0.17064,-0.0916 0.20211,-0.26362 0.0373,-0.20312 0.008,-0.3721 0.0613,-0.50501 0.0112,-0.0266 0.28697,-0.0495 0.40343,-0.0575 l -0.44378,-0.56632 -0.71112,0.13998 -0.85921,-0.69601 -0.01,-1.1267 -0.76257,-0.16993 -0.0888,-2.34286 -1.0727,-2.06006 -1.20737,-1.23719 -0.14893,-0.36614 5.10124,-0.0481 0.74353,0.35906 1.40425,-0.56049 0.0783,-1.69618 0.53209,-0.003 -0.0302,-0.46772 0.62569,-0.01 -0.0476,-1.21829 -0.53624,-0.0591 -0.51988,1.16096 -0.96667,0.0625 -0.12121,-3.81261 -2.56129,0.10291 -0.0234,-2.78559 0.44855,-0.81186 2.15786,-0.0455 -0.002,-2.44259 2.47576,0.0279 -0.24027,-18.24133 -4.82053,0.0299 -1.75441,-0.0121 -0.0314,0.003 -0.43858,-0.003 -2.87911,0.0292 -3.00582,0.007 -1.94154,6.1e-4 -1.69004,0.0156 -0.12475,0.008 -0.72133,-0.016 -6.32747,-0.029 -2.75638,-0.01 -0.0956,-0.0253 -0.0935,0.008 z"
       id="CO-02"
       style="font-style:normal;font-weight:400;font-size:34.375px;font-family:'MS Shell Dlg 2';opacity:1;fill:none;fill-opacity:1;fill-rule:evenodd;stroke:#000000;stroke-width:0.33333385;stroke-linecap:square;stroke-linejoin:bevel;stroke-miterlimit:4;stroke-dasharray:none;stroke-opacity:1" />
    <path
       inkscape:connector-curvature="0"
       d="m 452.93911,414.11804 -0.0482,1.19299 -0.10292,3.73323 -0.14327,3.10955 -0.0451,1.7252 -0.0622,0.97474 -0.10831,2.19917 0.003,0.0313 -0.0541,1.0996 -0.0213,0.15789 -0.0652,1.41336 -0.25355,6.24817 -0.05,1.16188 0.0144,0.2183 -0.1394,3.1718 0.003,0.0313 -0.19736,5.17982 -0.1735,3.61245 -0.0941,2.41739 -0.17531,4.55202 -0.0288,1.00398 -0.10722,2.70005 -0.28369,6.75108 -0.0146,0.25147 0.003,0.0314 -0.019,0.18911 -0.12143,2.4818 0.003,0.0312 -0.026,0.56536 -0.0844,1.60249 0.003,0.0314 -0.0581,1.03721 0.003,0.0312 -0.041,0.81685 -0.14565,2.1075 -0.023,0.12674 -0.1144,2.10557 -0.1564,3.39218 -0.10118,2.79355 -0.0901,2.47977 -0.15947,3.83079 0.0878,0.87114 0.17835,2.27454 -0.0112,0.31376 -0.0223,0.62772 -0.0223,0.62773 -0.14548,3.07841 -0.0271,0.0643 -0.0223,0.62774 -0.0327,1.91242 -0.0161,0.72123 -0.0461,0.2535 -0.007,0.84609 -0.019,0.18911 -0.0288,1.004 -0.0411,0.81684 -0.0322,0.47187 0.008,0.12473 -0.0211,0.15789 0.008,0.12474 -0.014,0.75248 -0.0292,0.0331 -0.0419,1.28672 -0.0482,1.1931 -0.0212,0.15789 0.0244,0.37419 -0.1164,2.07443 -0.0371,0.87924 -0.0381,0.37823 0.003,0.0312 -0.0146,0.2515 -0.019,0.18914 -0.14233,2.63966 -0.0343,0.44063 -0.033,0.9416 0.0108,0.15595 -0.0891,2.00994 -0.0134,0.28264 -0.009,0.81485 -0.0214,0.15799 -0.0253,0.0956 -0.0176,0.69011 -0.0393,1.81878 -0.0292,0.0331 0.004,0.0622 -0.008,0.37625 -0.0146,0.25149 -0.01,0.3451 0.004,0.0624 -0.0653,1.41347 0.004,0.0623 -0.024,0.59662 0.91038,0.0351 1.03518,0.0265 0.0958,0.0253 4.6456,0.16923 2.32187,0.0692 0.59654,0.024 1.88316,0.066 1.72523,0.0451 1.82089,0.0702 1.349,0.0377 0.72122,0.016 0.84808,0.0391 0.0312,-0.003 1.41143,0.0341 0.15799,0.0213 2.97867,0.0576 0.31384,0.0111 0.75247,0.014 0.37624,0.008 1.60057,0.0532 1.00396,0.0288 0.0623,-0.004 0.22037,0.0172 1.69407,0.0466 1.56732,0.0238 2.4153,0.0628 0.0936,-0.008 1.66282,0.049 0.0935,-0.008 0.94159,0.0331 0.90845,0.004 0.44053,0.0342 0.0313,-0.003 3.73114,0.0717 1.3159,0.008 2.03703,0.0248 1.56934,0.055 1.19108,0.0169 0.65886,0.0199 0.84408,-0.0229 0.94157,0.033 0.13887,0.21018 2.00591,0.0269 0.72122,0.0159 1.69216,0.0159 0.31176,-0.0198 0.7525,0.014 0.25146,0.0146 2.63165,0.0182 0.56345,-0.005 1.44044,0.002 1.56742,0.0237 0.0624,-0.004 0.31396,0.011 0.72124,0.016 1.03319,-0.003 0.0312,-0.003 1.03307,-0.004 0.84609,0.007 1.44053,0.002 2.12865,-0.0125 0.18713,-0.0114 0.0312,-0.003 6.29642,0.031 0.0313,-0.003 1.15782,-0.0122 0.84609,0.007 2.12862,-0.0125 0.25151,0.0146 0.22027,0.017 0.0935,-0.008 0.84406,-0.0229 0.15586,-0.0108 0.37825,0.0381 0.12472,-0.008 0.0935,-0.008 0.40738,0.006 3.82077,0.004 0.68798,-0.0134 1.47178,-4.3e-4 0.0624,-0.004 -0.0334,-8.26507 4.97212,-3.01463 0.92247,0.22214 2.32076,-0.43188 1.96444,-1.09786 0.20094,-1.7353 3.00353,-1.97924 2.20941,-5.0593 2.31334,-1.99727 6.50404,2.2726 -0.28409,-22.30944 -19.55299,0.2937 -0.11463,7.42909 -18.698,-0.0434 -5.31036,-5.6065 -1.11647,1.13693 -3.706,-0.16743 -1.98304,-2.0952 -0.48643,-3.1627 -1.62287,-1.36681 0.76593,-4.62167 1.67151,-2.23753 -3.17988,-0.26404 -1.5797,-2.15257 -1.15388,0.0748 0.21805,-1.95565 8.96928,0.20279 0.13263,-7.14844 1.06817,-1.88528 c -0.12768,-0.10887 -0.24847,-0.22402 -0.39439,-0.28773 -0.21891,-0.0955 -0.48043,-0.12626 -0.78371,-0.0118 -0.52121,-0.10856 -0.93457,0.13136 -1.356,0.33819 -0.42141,0.20674 -0.84104,0.37978 -1.33081,0.2426 -0.34581,-0.0325 -0.69315,0.0557 -0.99992,0.0337 -0.30688,-0.0226 -0.57677,-0.15451 -0.72852,-0.61055 -0.41488,-0.022 -0.74614,0.2325 -1.10048,0.41558 -0.35421,0.18312 -0.71755,0.29802 -1.18893,0.0142 -0.49933,-0.14838 -1.01468,-0.58336 -1.25977,-1.07725 -0.12249,-0.24702 -0.19394,-0.49503 -0.1419,-0.7424 0.0519,-0.24737 0.21835,-0.50062 0.51898,-0.69123 0.8347,-0.80334 1.62697,-1.70185 2.14031,-2.73753 0.0871,-0.28411 0.056,-0.54885 -0.0502,-0.77967 -0.10639,-0.23074 -0.2904,-0.4419 -0.51005,-0.62458 -0.43941,-0.36541 -1.02125,-0.64186 -1.43264,-0.84681 -0.28878,-0.24588 -0.61212,-0.54443 -0.74467,-0.86003 -0.13243,-0.31555 -0.0639,-0.64262 0.37822,-0.93258 0.024,-0.26749 -0.0933,-0.4848 -0.26272,-0.67195 -0.1693,-0.18715 -0.41529,-0.32766 -0.62685,-0.49185 -0.21142,-0.1641 -0.40158,-0.33238 -0.50401,-0.53099 -0.10244,-0.19871 -0.11059,-0.43274 0.0472,-0.72334 0.17616,-0.24336 0.16519,-0.4551 0.0511,-0.66088 -0.11392,-0.20589 -0.3216,-0.42243 -0.47893,-0.62672 l 0.0642,-14.50305 -0.53825,-0.0903 0.0822,-2.60453 c 0.094,0.0862 0.16005,0.1644 0.23649,0.26649 0.22178,0.43268 0.55394,0.94974 0.95988,1.28454 0.40595,0.3348 0.89963,0.48856 1.45872,0.28145 0.29059,-0.22171 0.56403,-0.30162 0.82579,-0.30392 0.26191,-0.004 0.5062,0.0875 0.73545,0.23423 0.45852,0.2937 0.84161,0.80335 1.14701,1.27244 0.23534,0.33851 0.47809,0.49105 0.72236,0.51696 0.24428,0.0257 0.48612,-0.0743 0.73836,-0.20437 0.5045,-0.25961 1.02802,-0.66034 1.55822,-0.60182 0.71501,0.46052 1.5387,0.55156 2.34791,0.47446 0.80931,-0.077 1.6048,-0.32292 2.34181,-0.58975 0.45393,-0.27146 1.0144,-0.39408 1.53111,-0.53752 0.51663,-0.14334 1.00791,-0.30808 1.36094,-0.74558 0.0752,-0.49216 0.4106,-0.94296 0.69283,-1.39142 0.28236,-0.44834 0.50045,-0.91298 0.25235,-1.42544 -0.53346,-0.51666 -0.65269,-1.14869 -0.68233,-1.83479 -0.0294,-0.68613 0.0196,-1.41452 -0.13311,-2.05821 -0.23218,-0.73103 -0.58629,-1.38936 -1.00626,-2.00173 -0.42001,-0.61239 -0.90121,-1.19203 -1.39764,-1.75729 -0.99259,-1.13028 -2.01423,-2.21643 -2.64316,-3.58691 -0.35906,-0.98075 -0.76308,-1.96142 -1.16039,-2.93121 l -0.40737,-0.006 -2.19504,-0.0457 -1.38222,-0.0672 -0.12676,-0.023 -0.84597,-0.007 -0.12676,-0.0231 -0.0313,0.003 -0.31386,-0.011 -7.67854,-0.0985 -0.90844,-0.004 -3.07426,-0.0832 -2.44452,-0.0299 -0.56336,0.005 -2.10157,-0.0518 -1.31571,-0.008 -0.003,-0.0313 -0.0625,0.004 -0.24949,0.0156 -1.06622,-0.025 -3.29263,-0.0688 -1.09747,-0.0229 -0.4387,-0.003 -0.65885,-0.0199 -1.40932,-0.002 -4.83082,-0.12602 -0.0957,-0.0253 -2.63367,-0.0488 -0.91042,-0.035 -1.97473,-0.0288 -1.47368,-0.0305 -0.78371,-0.0118 -0.25151,-0.0146 -4.26735,-0.13126 -0.56336,0.005 -2.23032,-0.10638 -3.32765,-0.12923 -2.07039,-0.0539 -3.51894,-0.17949 z"
       id="CO-03"
       style="font-style:normal;font-weight:400;font-size:34.375px;font-family:'MS Shell Dlg 2';opacity:1;fill:none;fill-opacity:1;fill-rule:evenodd;stroke:#000000;stroke-width:0.33333385;stroke-linecap:square;stroke-linejoin:bevel;stroke-miterlimit:4;stroke-dasharray:none;stroke-opacity:1" />
    <path
       inkscape:connector-curvature="0"
       d="m 540.34431,415.63697 0.24026,18.2413 -2.47574,-0.0278 0.002,2.44259 -2.15785,0.0455 -0.44857,0.81184 0.0234,2.78561 2.56129,-0.10291 0.1212,3.81261 0.96668,-0.0625 0.51984,-1.16098 0.53626,0.0591 0.0476,1.21827 10.17544,-0.0316 0.0645,7.29226 -3.25534,0.0226 -0.0227,2.06819 -1.81476,0.023 0.18522,0.92748 0.83502,0.32179 7e-4,-0.9708 0.345,0.01 0.13011,2.49678 -1.23619,0.73762 -0.84608,-0.007 -0.60771,-0.68089 -2.66286,-0.0163 0.0363,1.53201 -2.25941,-0.0728 -0.65397,-0.42739 -0.37243,-0.91548 -0.003,-0.0312 c -0.11066,0.0552 -0.22504,0.0888 -0.30166,0.17605 -0.0102,0.0111 -0.0185,0.0231 -0.0292,0.0331 l -0.41728,1.78064 -0.9052,0.52819 0.10164,1.08951 -0.85592,0.80693 0.0434,1.15581 -1.78006,3.4659 -1.79415,3.24755 28.01123,-0.24564 0.21544,16.89631 0,0 0.28406,22.30944 -6.504,-2.2726 -2.31334,1.99725 -2.20943,5.05931 -3.00353,1.97923 -0.20093,1.73531 -1.96445,1.09785 -2.32077,0.43189 -0.92245,-0.22216 -4.97214,3.01465 0.0335,8.26508 0.37626,0.008 0.34299,-0.0222 2.07241,0.0851 0.65484,-0.0421 3.63155,-0.0159 2.4405,-0.0327 0.56336,-0.005 1.40726,-0.0283 0.43871,0.003 -0.003,-0.0312 2.41127,2.1e-4 0.34509,0.01 0.49895,-0.0324 0.0312,-0.003 0.0331,0.0293 1.09352,-0.0395 0.37625,0.008 0.31186,-0.0197 0.75248,0.014 0.24951,-0.0156 0.37624,0.008 0.65693,-0.011 0.28062,-0.0183 1.06229,-0.0375 0.78168,-0.0194 4.68973,-0.1155 6.18883,-0.18067 0.0312,-0.003 5.25114,-0.15187 1.68803,-0.0461 2.22013,-0.0495 1.46777,-0.063 1.40729,-0.0283 0.99993,-0.0336 0.9688,-0.0317 0.18713,-0.0114 0.43857,0.003 1.87515,-0.0585 0.34711,0.0401 0.0312,-0.003 0.15589,-0.0108 3.09139,-0.13678 0.62372,-0.0403 0.1891,0.0189 0.6257,-0.01 0.43659,-0.0284 0.38026,0.0695 1.00395,0.0289 3.93737,-0.12952 3.81261,-0.12121 1.0623,-0.0373 0.8732,-0.0564 0.18712,-0.0114 0.22036,0.0172 0.96868,-0.0317 0.56337,-0.005 2.93538,-0.12739 0.25153,0.0146 -0.0272,-0.90642 0.0213,-0.1579 -0.003,-0.0313 -0.008,-0.0935 -0.0996,-2.02901 -0.0108,-0.15594 -0.0222,-0.34298 -0.004,-0.0625 0.006,-0.40735 -0.14962,-3.27838 -0.0412,-1.12469 0.01,-0.3451 -0.0765,-1.185 -0.01,-0.62571 -0.0262,-0.40548 -0.007,-0.59448 -0.0464,-0.71717 -0.0317,-0.96878 -0.0356,-1.03108 -0.0526,-0.81091 0.019,-0.18901 -0.0302,-0.46786 -0.0364,-0.5613 -0.0229,-0.84397 -0.0337,-0.99992 -0.0197,-0.31197 -0.0197,-0.31177 0.006,-0.40748 -0.0788,-1.21616 0.006,-0.40747 -0.0403,-0.62368 -0.0502,-0.77967 -0.0284,-0.43648 -0.0385,-0.59255 -0.016,-1.22028 -0.0828,-1.27854 -0.0222,-0.34309 -0.004,-0.0622 -0.12311,-2.87304 -0.0222,-0.34308 -0.008,-0.0935 -0.004,-0.0624 -0.003,-0.0313 -0.0545,-1.81276 -0.0114,-0.18713 -0.008,-0.0935 -0.003,-0.0313 -0.008,-0.0935 -0.0108,-0.15594 -0.0156,-0.2495 -0.0289,-0.93758 -0.0728,-2.09347 -0.0222,-0.34299 -0.0114,-0.18714 -0.0476,-1.21827 -0.0997,-2.02898 -0.0254,-0.87522 -0.008,-0.12473 -0.03,-0.93753 -0.063,-1.46768 -0.0324,-0.49894 -0.0385,-0.59257 0.006,-0.40737 -0.0424,-0.65493 -0.0291,-0.93758 -0.068,-1.52999 -0.0108,-0.15596 -0.0198,-0.31186 -0.004,-0.0624 0.0146,-0.2515 -0.072,-1.59237 -0.003,-0.0313 -0.0262,-0.40547 -0.0245,-0.37419 0.002,-0.46972 -0.0262,-0.40547 -0.2988,-6.55677 -0.11793,-2.30981 -0.008,-0.0935 0.023,-0.12675 -0.1204,-2.34082 -0.11793,-2.30981 -0.0663,-1.99986 -0.0364,-0.56122 -0.0183,-0.28072 -0.0262,-0.40544 -0.0108,-0.15586 -0.0869,-2.31173 -0.0255,-0.87517 -0.003,-0.0313 -0.0543,-0.84193 -0.0108,-0.15596 -0.0324,-0.49896 -0.0337,-0.99991 -0.0341,-0.53011 -0.0144,-0.21834 -0.01,-0.62569 -0.0878,-1.84186 -0.11009,-2.18499 -0.0245,-0.37418 0.0134,-0.28263 -0.0114,-0.18721 -0.17142,-3.62149 -0.0134,-0.68799 -0.0816,-1.74836 -0.0887,-2.34295 -0.0262,-0.40536 -0.0585,-1.87511 -0.0108,-0.15594 -0.125,-2.90429 -0.0198,-0.31177 -0.003,-0.0313 -0.0183,-0.2807 0.004,-0.90834 -0.037,-0.0917 -0.0477,-1.21819 -0.0846,-2.28058 -0.0302,-0.46773 -0.0498,-1.2494 -0.11601,-3.24928 -0.063,-1.46767 -0.30184,-7.0891 -0.37624,-0.008 -1.15379,0.0747 -1.43853,0.0303 -0.343,0.0222 -0.0313,0.003 -0.0624,0.004 -0.40535,0.0262 -0.59457,0.007 -0.18712,0.0114 -0.0935,0.008 -0.12475,0.008 -0.28068,0.0183 -0.0313,0.003 -1.53204,0.0363 -0.31186,0.0197 -0.0313,0.003 -0.15586,0.0108 -1.53202,0.0363 -0.18723,0.0114 -0.0312,0.003 -0.37423,0.0246 -0.62569,0.01 -0.84205,0.0543 -0.18701,0.0114 -0.22037,-0.0173 -0.0624,0.004 -0.90643,0.0272 -0.68596,0.0444 -1.75038,0.0511 -0.0935,0.008 -0.31387,-0.0111 -0.24949,0.0156 -0.15597,0.0108 -1.12466,0.0412 -0.0623,0.004 -0.34306,0.0222 -0.0644,-0.0271 -0.3742,0.0245 -0.0313,0.003 -0.37418,0.0245 -0.0331,-0.0291 -0.3742,0.0245 -0.0312,0.003 -0.37417,0.0247 -0.0313,0.003 -0.37628,-0.008 -0.0313,0.003 -0.34299,0.0222 -0.0313,0.003 -0.0312,0.003 -0.37419,0.0245 -0.0312,0.003 -0.37627,-0.008 -0.0313,0.003 -0.78172,0.0195 -0.12472,0.008 -0.28264,-0.0134 -0.0624,0.004 -0.34297,0.0222 -0.0313,0.003 -4.87491,0.15855 -1.18906,0.0141 -0.0624,0.004 -0.34502,-0.01 -0.31195,0.0197 -0.53013,0.0343 -1.37616,0.0258 -0.24952,0.0157 -0.78158,0.0194 -0.84606,-0.007 -3.75228,0.0859 -0.28062,0.0183 -2.03309,0.0376 -0.40548,0.0262 -0.37625,-0.008 -0.24949,0.0156 -1.00193,0.001 -0.3742,0.0245 -0.0312,0.003 -0.81281,0.0212 -0.12677,-0.0231 -0.12478,0.008 -0.34297,0.0222 -0.28271,-0.0134 -0.31186,0.0197 -0.40736,-0.006 -0.3742,0.0247 -0.40746,-0.006 -1.25146,0.0182 -0.62569,0.01 -0.0624,0.004 -3.34691,0.0599 -0.31378,-0.0112 -1.7524,0.0193 -0.6257,0.01 -2.15782,0.0457 -0.75047,0.0172 -0.90843,-0.004 -2.03103,0.0685 -1.22027,0.017 -0.56122,0.0364 -1.75241,0.0193 -0.12475,0.008 -0.0623,0.004 z"
       id="CO-04"
       style="font-style:normal;font-weight:400;font-size:34.375px;font-family:'MS Shell Dlg 2';opacity:1;fill:none;fill-opacity:1;fill-rule:evenodd;stroke:#000000;stroke-width:0.33333385;stroke-linecap:square;stroke-linejoin:bevel;stroke-miterlimit:4;stroke-dasharray:none;stroke-opacity:1" />
    <path
       inkscape:connector-curvature="0"
       d="m 560.60699,484.91128 -0.21544,-16.89633 -28.01123,0.24564 0,0 -1.53417,0.005 -0.10094,-7.85356 c -0.27481,-0.27453 -0.58236,-0.38793 -0.87018,-0.38215 -0.28794,0.005 -0.56349,0.12528 -0.81986,0.39754 -1.00359,-0.39177 -2.03508,-0.56134 -3.03723,-0.96232 -1.1239,-0.5508 -1.99885,-1.47038 -2.81805,-2.41685 -0.18322,-0.36174 -0.43058,-0.7949 -0.72339,-1.01807 -0.14651,-0.11147 -0.30937,-0.15665 -0.47789,-0.12562 -0.16858,0.0312 -0.32089,0.13179 -0.50793,0.37734 -0.0161,0.53586 -0.36281,0.92737 -0.76339,1.27064 -0.40058,0.34327 -0.87747,0.63965 -1.15174,1.07658 -0.28065,0.16494 -0.63176,0.37094 -0.868,0.61978 -0.23623,0.24889 -0.33529,0.55502 -0.0974,0.91442 -0.53379,0.14004 -0.90985,0.43461 -1.23227,0.79998 -0.32239,0.36536 -0.60076,0.79744 -0.95854,1.15807 -0.27679,0.054 -0.49244,-0.0173 -0.69812,-0.14286 -0.2057,-0.12559 -0.40927,-0.31826 -0.59567,-0.49377 -0.0621,-0.0585 -0.13337,-0.0894 -0.19709,-0.14378 l -1.06819,1.88525 -0.13263,7.14844 -8.9693,-0.20279 -0.21805,1.95566 1.15391,-0.0746 1.5797,2.15256 3.17987,0.26403 -1.67149,2.23752 -0.76597,4.62169 1.62291,1.3668 0.4864,3.1627 1.98302,2.0952 3.70605,0.16743 1.11645,-1.1369 5.3104,5.60647 18.69796,0.0434 0.11463,-7.42907 19.55302,-0.29371 z"
       id="CO-05"
       style="font-style:normal;font-weight:400;font-size:34.375px;font-family:'MS Shell Dlg 2';opacity:1;fill:none;fill-opacity:1;fill-rule:evenodd;stroke:#000000;stroke-width:0.33333385;stroke-linecap:square;stroke-linejoin:bevel;stroke-miterlimit:4;stroke-dasharray:none;stroke-opacity:1" />
    <path
       inkscape:connector-curvature="0"
       d="m 539.68465,444.17652 0.0434,1.15591 0.78159,-0.0194 2.23953,0.73202 0.0592,0.43456 1.31769,-0.93066 3.04504,0.1161 -0.0159,0.72133 0.25352,0.0461 0.72124,0.016 -0.014,0.7525 -0.40739,-0.006 0.0344,1.5009 -3.16372,-0.0155 -0.0533,0.62974 0.68817,-0.0134 0.0855,0.84003 -2.75435,0.0217 0.0262,0.40535 -0.68806,0.0134 0.0424,0.65484 0.43673,0.94258 -0.78169,0.0195 -0.006,0.84599 1.10961,0.21011 -0.74944,0.51815 -0.002,0.46984 -3.34691,0.06 -0.27258,0.14287 0.005,1.53408 c 0,0 0,0 0,0 l 0.003,0.0312 0.37246,0.91546 0.65394,0.42741 2.25943,0.0728 -0.0363,-1.53202 2.66287,0.0163 0.60771,0.68092 0.84608,0.007 1.23618,-0.73762 -0.13013,-2.49679 -0.34499,-0.01 -6.9e-4,0.97083 -0.83502,-0.3218 -0.18523,-0.92748 1.81477,-0.0231 0.0227,-2.06818 3.2553,-0.0226 -0.0645,-7.29224 -10.17544,0.0316 0,0 -0.6257,0.01 0.0302,0.46773 z"
       id="CO-06"
       style="font-style:normal;font-weight:400;font-size:34.375px;font-family:'MS Shell Dlg 2';opacity:1;fill:none;fill-opacity:1;fill-rule:evenodd;stroke:#000000;stroke-width:0.33333385;stroke-linecap:square;stroke-linejoin:bevel;stroke-miterlimit:4;stroke-dasharray:none;stroke-opacity:1" />
    <path
       inkscape:connector-curvature="0"
       d="m 537.13009,454.55049 c 0.0179,-5.9e-4 0.0547,-0.004 0.0624,-0.004 0.18493,-0.0113 0.37639,-0.0248 0.56133,-0.0364 0.1992,-0.0114 0.042,-0.22208 0.0134,-0.28263 -0.0244,-0.0512 -0.27935,-0.14818 -0.32406,-0.16704 -0.21665,-0.0915 0.042,-0.12798 0.17913,-0.13686 0.16875,-0.0109 0.26182,-0.0812 0.30166,-0.17603 0.0808,-0.19151 0.401,-0.13714 0.10662,-0.28866 -0.1239,-0.0639 -0.28556,-0.32307 -0.33999,-0.41654 -0.0656,-0.1124 0.27532,-0.08 0.3993,-0.11971 0.0897,-0.0288 -6.7e-4,-0.0103 0.0604,-0.0353 0.0608,-0.0251 0.0543,-0.12876 0.0543,-0.12876 l 0.0479,-3.13461 2.79358,0.10127 0.47588,0.0944 0.0321,-0.47177 2.38216,0.0338 0.008,-1.31569 1.24539,-0.11195 0.0632,-1.44456 0.95053,-0.312 0.9518,0.18897 0.0159,-0.72133 -3.04505,-0.11611 -1.31767,0.93068 -0.0593,-0.4346 -2.23949,-0.732 -0.78159,0.0194 -0.0434,-1.15592 -0.53209,0.003 -0.0783,1.69616 -1.40426,0.56049 -0.74352,-0.35907 -5.10124,0.0481 0.14895,0.36616 1.20734,1.23715 1.07269,2.06008 0.0888,2.34284 0.76255,0.16994 0.01,1.12672 0.85918,0.69599 0.71117,-0.13997 0.44377,0.56634 z"
       id="CO-07"
       style="font-style:normal;font-weight:400;font-size:34.375px;font-family:'MS Shell Dlg 2';opacity:1;fill:#000000;fill-opacity:1;fill-rule:evenodd;stroke:#000000;stroke-width:0.33333385;stroke-linecap:square;stroke-linejoin:bevel;stroke-miterlimit:4;stroke-dasharray:none;stroke-opacity:1" />
  </g>
</svg>
