<?xml version="1.0" encoding="UTF-8" standalone="no"?>
<!-- Created with Inkscape (http://www.inkscape.org/) -->

<svg
   xmlns:dc="http://purl.org/dc/elements/1.1/"
   xmlns:cc="http://creativecommons.org/ns#"
   xmlns:rdf="http://www.w3.org/1999/02/22-rdf-syntax-ns#"
   xmlns:svg="http://www.w3.org/2000/svg"
   xmlns="http://www.w3.org/2000/svg"
   xmlns:sodipodi="http://sodipodi.sourceforge.net/DTD/sodipodi-0.dtd"
   xmlns:inkscape="http://www.inkscape.org/namespaces/inkscape"
   width="16.516525mm"
   height="18.504354mm"
   viewBox="0 0 58.523115 65.566618"
   id="svg3885"
   version="1.1"
   inkscape:version="0.91 r"
   sodipodi:docname="2.svg">
  <defs
     id="defs3887" />
  <sodipodi:namedview
     id="base"
     pagecolor="#ffffff"
     bordercolor="#666666"
     borderopacity="1.0"
     inkscape:pageopacity="0.0"
     inkscape:pageshadow="2"
     inkscape:zoom="7.0890313"
     inkscape:cx="43.204926"
     inkscape:cy="2.7799785"
     inkscape:document-units="px"
     inkscape:current-layer="layer1"
     showgrid="false"
     inkscape:window-width="2560"
     inkscape:window-height="1388"
     inkscape:window-x="0"
     inkscape:window-y="0"
     inkscape:window-maximized="1"
     fit-margin-top="6"
     fit-margin-left="6"
     fit-margin-right="6"
     fit-margin-bottom="6" />
  <metadata
     id="metadata3890">
    <rdf:RDF>
      <cc:Work
         rdf:about="">
        <dc:format>image/svg+xml</dc:format>
        <dc:type
           rdf:resource="http://purl.org/dc/dcmitype/StillImage" />
        <dc:title></dc:title>
      </cc:Work>
    </rdf:RDF>
  </metadata>
  <g
     inkscape:label="Layer 1"
     inkscape:groupmode="layer"
     id="layer1"
     transform="translate(-159.64535,-482.81198)">
    <path
       inkscape:connector-curvature="0"
       d="m 194.826,503.64205 -0.41074,0.0151 0.0332,-0.27937 -0.18813,-0.27383 0.0455,-0.1205 -0.21912,-0.27746 -0.1278,0.0169 0.015,0.41073 0.25371,0.2501 0.002,0.81784 -0.32129,0.056 -0.0207,0.18627 -0.43267,0.2009 -0.0124,0.34495 -0.53497,7e-5 -0.01,-0.18997 -0.56961,0.0274 0,0 -0.12779,0.0168 0.01,0.18997 -0.18994,0.01 -0.0184,1.47696 0.25201,-0.009 0.01,0.18988 0.44904,-0.0728 -0.0124,-0.15879 0.25204,-0.009 -0.0824,-0.63896 0.22092,-0.01 0.10954,0.13875 -0.0676,0.84169 -0.221,0.01 -0.0804,0.68288 -0.66269,0.016 0.0825,-0.43086 -0.5696,0.0275 0.0363,0.2245 -0.4418,0.0105 0.0207,-0.18632 -0.31397,-0.0105 0.01,0.22091 -0.47643,0.0389 0.007,0.75583 -0.66629,0.0469 0.01,0.22101 -0.31755,0.0253 -0.0195,0.15514 -0.0519,0.4344 -0.34876,0.0222 -0.0124,0.34496 0.21729,0.0262 0.14246,0.39432 0.72109,0.0206 0.0691,1.01504 -2.78591,0.14476 0.0611,0.82508 -0.56771,0.81433 -0.3797,0.0177 0.0151,0.41074 -0.72482,0.009 0.0748,1.23589 -1.61935,0.12443 -0.83061,0.37445 0.0164,1.1975 2.49569,-0.0843 0,0 4.89447,-0.14869 -0.18879,-4.01818 c 0.34701,0.0921 0.51015,-0.17817 0.4655,-0.48024 0.12423,-0.35756 0.69173,-0.2776 0.68083,-0.70671 0.001,-0.33017 0.1142,-0.66038 0.43987,-0.79783 0.28912,-0.24473 0.52397,-0.53805 0.8433,-0.75043 0.36452,-0.1647 0.41429,-0.54387 0.41977,-0.89472 0.0106,-0.34317 0.32549,-0.50458 0.52564,-0.72482 0.0723,-0.18507 -0.0589,-0.36242 -0.15897,-0.52214 -0.10054,-0.15971 -0.15381,-0.32495 0.0591,-0.49655 0.10715,-0.14327 0.32826,-0.0915 0.51478,-0.0968 0.18675,-0.01 0.32249,-0.0582 0.26106,-0.34692 -0.0689,-0.3381 -0.0728,-0.66779 0.0249,-1.00408 0.045,-0.24888 0.15974,-0.49079 0.2738,-0.72299 l -0.0196,-0.0962 -0.0267,-0.0342 -0.0195,-0.0962 0.004,-0.0311 -0.0267,-0.0344 0.005,-0.0623 0.004,-0.0312 -0.0552,-0.0695 -0.0311,-0.004 0.004,-0.0311 -0.027,-0.0337 -0.0552,-0.0696 z"
       id="IL-01"
       style="font-style:normal;font-weight:400;font-size:34.375px;font-family:'MS Shell Dlg 2';opacity:1;fill:none;fill-opacity:1;fill-rule:evenodd;stroke:#000000;stroke-width:0.33333385;stroke-linecap:square;stroke-linejoin:bevel;stroke-miterlimit:4;stroke-dasharray:none;stroke-opacity:1" />
    <path
       inkscape:connector-curvature="0"
       d="m 195.07084,504.23726 c -0.11402,0.23219 -0.2283,0.47411 -0.27383,0.72302 -0.0971,0.33626 -0.0932,0.666 -0.0257,1.00404 0.0615,0.28804 -0.0744,0.34195 -0.26104,0.34691 -0.18663,0.01 -0.40765,-0.0466 -0.51482,0.0968 -0.21218,0.17164 -0.15891,0.33685 -0.0591,0.49658 0.10065,0.15971 0.23178,0.33702 0.15897,0.52209 -0.20014,0.22025 -0.51945,0.3816 -0.52564,0.72482 -0.01,0.35084 -0.0557,0.73002 -0.41977,0.89475 -0.31935,0.21237 -0.55417,0.50569 -0.84332,0.75044 -0.32575,0.13741 -0.44189,0.46762 -0.43986,0.79781 0.0108,0.42911 -0.55656,0.34916 -0.68084,0.70668 0.0451,0.30206 -0.11847,0.5725 -0.46548,0.48025 l 0.18878,4.01819 -4.89447,0.14869 0.14503,4.92555 -5.08813,0.18896 0.31504,5.88947 15.35541,-0.80777 -0.015,-0.41073 -0.0582,-1.64307 0.0134,-0.0933 -0.0364,-0.2245 -0.007,-0.75581 -0.003,-0.50389 -0.005,-0.28311 -0.0168,-0.1278 -0.0125,-0.15878 0.005,-0.0623 0.005,-0.0623 -0.0241,-0.0652 0.0105,-0.31393 -0.01,-0.18986 -0.006,-0.28315 -0.015,-0.41073 -0.0143,-0.9457 -0.0255,-0.31763 -0.0299,-0.82152 -0.0105,-0.44182 -0.0164,-1.19761 -0.0196,-0.096 0.004,-0.0312 0.005,-0.0623 0.004,-0.0311 -0.01,-0.18998 -0.007,-0.47278 0.0136,-0.12422 -0.0241,-0.0652 0.004,-0.0311 0.0134,-0.0933 0.004,-0.0311 -0.0123,-0.15888 -0.0104,-0.44178 -0.0299,-0.82154 -0.01,-0.2209 -0.004,-0.28315 -0.007,-0.47279 -0.0267,-0.0344 0.0134,-0.0933 0.0136,-0.1242 -0.0292,-0.28666 0.0195,-0.15517 -0.024,-0.0652 0.004,-0.0312 0.005,-0.0623 -0.01,-0.22101 -0.0176,-0.37972 0.004,-0.0312 0.0195,-0.15506 -0.0265,-0.0343 0.0134,-0.0932 -0.0195,-0.0961 0.0134,-0.0933 0.004,-0.0311 0.005,-0.0623 -0.0241,-0.0652 0.005,-0.0623 0.004,-0.0312 -0.0125,-0.15877 0.005,-0.0623 0.004,-0.0312 -0.0266,-0.0337 0.0136,-0.12421 -0.01,-0.18988 0.004,-0.0312 0.0195,-0.15507 -0.0268,-0.0338 0.005,-0.0624 0.004,-0.0311 0.004,-0.0311 -0.0168,-0.12779 0.0134,-0.0933 0.004,-0.0311 -0.024,-0.0654 0.004,-0.0311 0.0134,-0.0933 0.005,-0.0622 -0.0125,-0.15889 -0.0267,-0.0346 0.005,-0.0621 0.0136,-0.1242 0.004,-0.0312 -0.0195,-0.096 0.0134,-0.0934 0.004,-0.0311 -0.024,-0.0652 -0.0169,-0.1278 0.005,-0.0622 0.0134,-0.0933 -0.009,-0.25202 -0.0125,-0.15878 0.005,-0.0624 -0.0195,-0.0961 0.0134,-0.0933 0.004,-0.0312 -0.0105,-0.44183 -0.009,-0.252 -0.024,-0.065 -0.0169,-0.12779 0.0136,-0.1242 0.0134,-0.0932 -0.0195,-0.0962 0.005,-0.0623 0.004,-0.0312 0.004,-0.0312 0.004,-0.0311 -0.0251,-0.31776 0.0136,-0.12418 -0.0605,-0.29022 -0.11137,-0.39066 -0.24101,-0.0908 -0.0552,-0.0695 -0.14418,-0.11139 -0.0818,-0.10402 -0.0266,-0.0344 -0.0578,-0.0383 -0.0268,-0.0337 -0.13324,-0.20454 -0.0552,-0.0693 -0.0506,-0.10054 -0.0269,-0.0342 -0.0792,-0.13509 -0.024,-0.0651 0.005,-0.0621 z"
       id="IL-02"
       style="font-style:normal;font-weight:400;font-size:34.375px;font-family:'MS Shell Dlg 2';opacity:1;fill:#000000;fill-opacity:1;fill-rule:evenodd;stroke:#000000;stroke-width:0.33333385;stroke-linecap:square;stroke-linejoin:bevel;stroke-miterlimit:4;stroke-dasharray:none;stroke-opacity:1" />
    <path
       inkscape:connector-curvature="0"
       d="m 187.47732,511.02267 2.78592,-0.14476 -0.0691,-1.01503 -0.72112,-0.0207 -0.14246,-0.39432 -0.21729,-0.0262 0.0124,-0.34497 0.34876,-0.0222 0.0519,-0.43433 0.0195,-0.1552 0.31754,-0.0253 -0.01,-0.221 0.66632,-0.0469 -0.007,-0.75583 0.47644,-0.0389 -0.01,-0.2209 0.31396,0.0105 -0.0207,0.18628 0.44178,-0.0105 -0.0364,-0.22448 0.5696,-0.0274 -0.0825,0.43088 0.66265,-0.0162 0.0804,-0.68287 0.22099,-0.01 0.0676,-0.84171 -0.10958,-0.13872 -0.22088,0.01 0.0824,0.63897 -0.25204,0.009 0.0124,0.15877 -0.44897,0.0728 -0.01,-0.18987 -0.25203,0.009 0.0184,-1.47695 0.18996,-0.01 -0.01,-0.19 0.12778,-0.0168 -0.009,-0.25201 0.36337,-0.14613 0.18063,-0.19896 0.0262,-0.21729 0.21724,0.0262 -0.01,-0.22099 0.66627,-0.0469 8.7e-4,-1.06972 -0.14783,-0.0811 -0.0346,0.0269 -0.44909,0.0728 -0.3906,0.64631 0.40714,0.0177 0.007,0.28306 -0.5221,0.15897 0.0331,0.25559 -0.28663,0.0291 0.006,0.28316 -0.19716,0.0719 -0.0329,-0.25559 -0.18989,0.01 -0.11138,-0.39066 -0.21728,-0.0262 -0.0968,-0.5148 -1.26337,0.0405 0.0168,0.12778 -1.3948,0.088 0,0 -0.98407,0.0734 0.11709,0.61151 0,0 0.11681,0.61163 c 0,0 0,0 0,0 l 0.0604,0.29023 0.13143,-0.0479 0.0663,1.04602 -0.97472,0.79793 -0.10786,-0.42167 -1.27063,0.10248 0.0327,0.79045 -0.47279,0.008 -0.0228,0.46915 -0.5203,0.41081 -1.48428,0.0457 0.16295,2.63078 -0.43984,0.26287 0.01,0.18997 0.7868,-0.004 0.0262,-0.21727 3.3556,-0.17208 z"
       id="IL-03"
       style="font-style:normal;font-weight:400;font-size:34.375px;font-family:'MS Shell Dlg 2';opacity:1;fill:none;fill-opacity:1;fill-rule:evenodd;stroke:#000000;stroke-width:0.33333385;stroke-linecap:square;stroke-linejoin:bevel;stroke-miterlimit:4;stroke-dasharray:none;stroke-opacity:1" />
    <path
       inkscape:connector-curvature="0"
       d="m 188.89083,503.54271 1.3948,-0.088 -0.0168,-0.12778 1.26335,-0.0405 0.0968,0.51483 0.21725,0.0262 0.1114,0.39067 0.18986,-0.01 0.0333,0.2556 0.19715,-0.0717 -0.006,-0.28313 0.28665,-0.0291 -0.0332,-0.25559 0.52213,-0.15897 -0.006,-0.28306 -0.40711,-0.0177 0.39056,-0.64632 0.44914,-0.0728 0.0344,-0.0267 0,0 0.16424,-0.32676 -1.20138,0.0476 -0.99662,0.4493 -0.0274,-0.56962 -1.194,-0.0132 0.0934,0.54582 -0.20453,0.13334 -0.01,-0.2209 -0.89088,0.0841 -0.0134,0.0934 -0.36694,0.17718 -0.009,-0.252 -0.43449,-0.052 -7e-5,-0.53496 -0.72122,-0.0207 0.0105,-0.31393 0.12779,-0.0169 0.15696,-0.26469 1.23235,-0.044 -0.041,-0.19354 0.75946,-0.0371 -0.009,-0.25209 0.19354,-0.0409 -0.01,-0.18989 0.44189,-0.0105 -0.0124,-0.15885 0.67186,0.17336 0.85988,0.44716 0.44556,-0.0418 -0.061,-0.8252 -0.1297,-0.23542 -0.2191,-0.81242 -0.49659,-0.0591 -0.11508,0.17526 0.25742,0.21902 0.0605,0.29033 -0.46926,-0.0228 -0.0362,-0.2246 -0.41449,0.0462 -0.0207,0.1863 -0.0597,0.24464 -0.80869,0.18823 7e-5,0.53487 -0.42541,0.13885 -1.99536,0.11163 0.0405,1.26334 0.56957,-0.0273 -0.028,0.50021 0.18806,0.27381 0.37968,-0.0176 0.0176,0.3797 z"
       id="IL-04"
       style="font-style:normal;font-weight:400;font-size:34.375px;font-family:'MS Shell Dlg 2';opacity:1;fill:none;fill-opacity:1;fill-rule:evenodd;stroke:#000000;stroke-width:0.333;stroke-linecap:square;stroke-linejoin:bevel;stroke-miterlimit:4;stroke-dasharray:none;stroke-opacity:1" />
    <path
       inkscape:connector-curvature="0"
       d="m 187.64471,497.54384 0.0533,0.88728 -0.41077,0.0149 0.009,0.25201 0.41071,-0.015 0.0502,1.45322 -0.41445,0.0461 -0.13883,-0.42539 -0.5203,-0.12404 0.0662,1.04604 0.23734,0.12234 0.18821,0.80869 -0.28669,0.0293 -0.10939,0.39615 0.0397,0.72846 0.0168,0.12779 0.18989,-0.01 0.23198,0.97118 0.16252,-0.0435 0.23743,0.65718 0.1899,-0.01 0.0881,-0.20993 0.0961,-0.0196 -0.11704,-0.6115 0.98403,-0.0734 -0.0176,-0.37971 -0.37973,0.0176 -0.18802,-0.27383 0.028,-0.50017 -0.56959,0.0273 -0.0405,-1.2633 1.99537,-0.11166 0.42538,-0.13884 -6e-5,-0.53487 0.80871,-0.18822 0.0597,-0.24465 0.0207,-0.18629 0.41449,-0.0462 0.0363,0.22456 0.46925,0.0228 -0.0605,-0.29031 -0.25739,-0.21904 0.11509,-0.17527 0.49656,0.0591 0.2191,0.81241 0.12973,0.23543 0.0469,0.66641 1.33636,-0.12626 0.004,-0.0312 -0.0265,-0.0342 -0.041,-0.19354 0.004,-0.0312 -0.0407,-0.19341 -0.0437,-0.16256 -0.21714,-0.0262 -0.14797,-0.61516 -0.29029,0.0603 -0.34882,-1.04786 -0.88363,0.0226 -0.0124,-0.15889 -0.69374,0.0131 -0.52585,-0.34491 -0.63338,0.30315 -0.0536,0.71744 -0.75946,0.037 -0.11696,-0.61151 -0.74486,-0.0875 -0.005,-0.28313 -0.25559,0.0331 -0.16616,-0.46003 c -0.20272,0.0321 -0.24657,-0.17225 -0.34328,-0.29202 z"
       id="IL-05"
       style="font-style:normal;font-weight:400;font-size:34.375px;font-family:'MS Shell Dlg 2';opacity:1;fill:none;fill-opacity:1;fill-rule:evenodd;stroke:#000000;stroke-width:0.333;stroke-linecap:square;stroke-linejoin:bevel;stroke-miterlimit:4;stroke-dasharray:none;stroke-opacity:1" />
    <path
       inkscape:connector-curvature="0"
       d="m 181.86216,503.91268 c 0.01,0.0398 0.01,0.10731 0.0169,0.12782 0.0368,0.1025 0.01,0.27159 0.0175,0.37969 0.0193,0.15315 0.11152,0.13897 0.26478,0.15697 0.13248,0.0137 0.27107,0.0327 0.40352,0.0473 0.14087,0.0144 0.2937,0.0343 0.43439,0.0519 0.0157,0.001 0.26215,0.4389 0.31774,0.50926 0.11962,0.15154 -0.0185,0.28112 0.21549,0.30857 0.16233,0.0198 0.22885,0.0511 0.34505,0.0124 0.15516,-0.0555 0.15181,-0.22106 0.16788,-0.3579 0.0185,-0.1445 0.0425,-0.2943 0.0824,-0.43075 0.0385,-0.13466 0.0647,-0.21214 0.0981,-0.30316 0.0429,-0.11337 0.23064,-0.0673 0.35229,-0.0532 0.12342,0.0136 0.2433,-0.01 0.37604,0.0161 0.14076,0.0156 0.2627,0.0322 0.40351,0.0473 0.15775,0.0197 0.0742,0.17184 0.0532,0.3524 -0.005,0.0849 0.1694,0.22923 0.21549,0.30841 0.0882,0.15304 0.22646,0.32745 0.29395,0.44364 0.0144,0.0236 0.0185,0.022 0.0267,0.0344 0.0324,0.0132 0.0879,0.0339 0.12048,0.0454 0.098,0.0378 0.0968,-0.19913 0.12947,-0.29945 0.027,-0.084 0.25028,0.17429 0.26117,0.18806 0.11841,0.14993 -0.0844,0.19149 0.15702,0.27017 0.0521,0.0168 0.26355,-0.13993 0.3012,-0.15349 0.12491,-0.0454 0.12842,-0.17023 0.18803,-0.26106 0.0957,-0.14519 0.0608,-0.12621 0.24274,-0.19178 0.14104,-0.0516 0.27755,-0.0506 0.38703,-0.0799 0.0928,-0.0243 0.23817,-0.13171 0.30491,-0.18437 0.0367,-0.0286 0.07,-0.0352 0.10054,-0.0507 l -0.11688,-0.61162 -0.0961,0.0196 -0.0881,0.20991 -0.18987,0.01 -0.23746,-0.65719 -0.16251,0.0435 -0.23198,-0.97118 -0.18986,0.01 -0.0168,-0.12778 -0.10414,0.0817 -0.44179,0.0105 0.0207,-0.18627 -0.73205,0.071 0.01,0.18977 -0.34503,-0.0124 0.12956,-0.83432 0.37597,0.0163 -0.0408,-0.19351 0.24835,0.028 -0.0398,-0.72848 -1.13555,0.0236 -0.0353,0.31042 -0.58972,-0.0688 0.004,0.28301 -0.18984,0.01 -0.004,-0.7869 -0.59698,-0.006 -0.0332,-0.25558 -0.19718,0.0715 -0.007,-0.47279 -0.5239,-0.0928 0.0425,-0.62433 -0.40714,-0.0177 -0.01,-0.18997 0.18627,0.0207 -0.0461,-0.41435 -0.1864,-0.0207 -0.0104,-0.44174 -0.63722,-0.20076 -0.80861,0.7231 -0.22098,0.01 -0.0256,-0.85252 -0.42165,0.10785 -0.36517,0.429 -0.69552,-0.23907 -0.0443,-0.69729 0.35787,0.16789 0.0759,-0.65182 -0.0345,-0.50752 1.00774,-0.007 -0.15544,-1.08804 -0.18984,0.01 -0.19178,-0.2428 0.31029,-0.49846 -0.01,-0.18976 0.44906,-0.0728 -0.0176,-0.37972 0.37974,-0.0177 0.0625,1.61208 2.4262,-0.0302 0.002,0.81789 1.98814,-0.0491 -0.16271,-1.02597 0.22093,-0.01 -0.088,-1.39475 0.50388,-0.003 -0.0881,-2.46463 -0.53483,6e-5 0,0 -6.75126,0.15088 0.0682,2.36777 -0.84526,-0.0363 0.0186,2.51939 0.34146,0.0402 0.0518,3.84469 0.89818,0.38876 0.87994,0.013 0.20821,0.37051 0.43455,0.052 0.003,0.50384 1.17393,-0.0822 -0.0544,0.46548 0.72669,0.2427 0.2266,1.28524 -0.75583,0.007 z"
       id="IL-06"
       style="font-style:normal;font-weight:400;font-size:34.375px;font-family:'MS Shell Dlg 2';opacity:1;fill:none;fill-opacity:1;fill-rule:evenodd;stroke:#000000;stroke-width:0.33333385;stroke-linecap:square;stroke-linejoin:bevel;stroke-miterlimit:4;stroke-dasharray:none;stroke-opacity:1" />
    <path
       inkscape:connector-curvature="0"
       d="m 193.98029,500.93116 -1.33633,0.12623 0.0125,0.15879 -0.44553,0.0418 -0.85992,-0.44719 -0.67184,-0.17337 0.0125,0.15889 -0.44188,0.0105 0.01,0.18989 -0.19355,0.0409 0.009,0.25202 -0.75945,0.037 0.041,0.19352 -1.23234,0.0443 -0.15695,0.2647 -0.12783,0.0169 -0.0105,0.31391 0.72125,0.0205 7e-5,0.53502 0.43449,0.0519 0.009,0.25203 0.36697,-0.17721 0.0134,-0.0933 0.89089,-0.084 0.01,0.22094 0.20455,-0.13338 -0.0933,-0.54577 1.194,0.0132 0.0274,0.56958 0.9966,-0.44931 1.20138,-0.0476 -0.16423,0.32673 0.14782,0.0811 -8.7e-4,1.06972 -0.66628,0.0469 0.01,0.22099 -0.21729,-0.0262 -0.0262,0.21727 -0.18065,0.19899 -0.36332,0.14611 0.009,0.25203 0.56961,-0.0275 0.01,0.18995 0.53496,-7e-5 0.0124,-0.34496 0.43269,-0.20088 0.0207,-0.1863 0.32128,-0.056 -0.002,-0.81783 -0.25377,-0.25011 -0.015,-0.41078 0.12781,-0.0169 0.21911,0.27744 -0.0455,0.12051 0.18813,0.27382 -0.0332,0.27936 0.41077,-0.0151 -0.024,-0.0652 -0.0552,-0.0695 -0.16437,-0.20803 0.004,-0.0312 -0.0265,-0.0344 -0.0312,-0.004 -0.0196,-0.0961 0.004,-0.0312 -0.10232,-0.2007 -0.0717,-0.19723 -0.0169,-0.12783 -0.0266,-0.0338 0.005,-0.0623 -0.10772,-0.42173 -0.0169,-0.1278 -0.01,-0.22091 0.004,-0.0312 0.0695,-0.055 -0.0267,-0.0343 0.004,-0.0312 -0.0241,-0.065 0.0654,-0.0241 0.004,-0.0312 0.004,-0.0311 -0.027,-0.0337 -0.0312,-0.004 -0.0265,-0.0346 0.004,-0.0312 -0.0266,-0.0344 -0.0267,-0.0337 0.004,-0.0312 -0.0312,-0.004 0.004,-0.0312 -0.0266,-0.0337 -0.0623,-0.005 -0.0241,-0.0652 -0.0265,-0.0344 0.004,-0.0311 0.004,-0.0311 0.004,-0.0312 z"
       id="IL-07"
       style="font-style:normal;font-weight:400;font-size:34.375px;font-family:'MS Shell Dlg 2';opacity:1;fill:none;fill-opacity:1;fill-rule:evenodd;stroke:#000000;stroke-width:0.333;stroke-linecap:square;stroke-linejoin:bevel;stroke-miterlimit:4;stroke-dasharray:none;stroke-opacity:1" />
    <path
       inkscape:connector-curvature="0"
       d="m 186.81137,502.76357 -0.0397,-0.72842 0.10938,-0.39617 0.2867,-0.0293 -0.18821,-0.80871 -0.23735,-0.12237 -0.0662,-1.04602 0.52031,0.12404 0.13882,0.42542 0.41446,-0.0461 -0.0502,-1.45323 -0.41072,0.015 -0.009,-0.25201 0.41078,-0.015 -0.0533,-0.88724 c -0.0692,-0.0852 -0.22057,-0.0706 -0.26114,-0.18807 -0.10424,-0.31189 -0.4703,0.0241 -0.66811,-0.20436 -0.13284,-0.0643 -0.30532,-0.0593 -0.46199,-0.0855 -0.15665,-0.0262 -0.28204,-0.0856 -0.31226,-0.2884 0.024,-0.32932 -0.0491,-0.66296 -0.1042,-0.98768 -0.0775,-0.29897 -0.0356,-0.61131 0.0438,-0.90732 0.25792,-0.1317 0.62174,0.0465 0.90002,0.10608 0.0369,0.025 0.079,0.0303 0.12049,0.0454 l 0.18247,-0.48199 0.0106,-0.31382 -1.22865,0.0133 0,0 -0.5039,0.003 0.088,1.39476 -0.22092,0.01 0.16272,1.02598 -1.98815,0.0492 -0.002,-0.81794 -2.42623,0.0302 -0.0625,-1.61208 -0.3797,0.0177 0.0176,0.37972 -0.44909,0.0728 0.01,0.18974 -0.31028,0.4985 0.19179,0.24274 0.18985,-0.01 0.15543,1.08806 -1.00776,0.007 0.0345,0.50751 -0.0759,0.65183 -0.35785,-0.1679 0.0443,0.69723 0.69556,0.23915 0.36515,-0.42903 0.42167,-0.10781 0.0256,0.85248 0.221,-0.01 0.80859,-0.72312 0.63723,0.20071 0.0104,0.4418 0.1864,0.0207 0.0461,0.41438 -0.1863,-0.0207 0.01,0.18996 0.40712,0.0177 -0.0425,0.62436 0.52395,0.0927 0.007,0.47282 0.19716,-0.0719 0.0334,0.25559 0.59696,0.006 0.004,0.78689 0.18989,-0.01 -0.004,-0.28303 0.58975,0.0688 0.0352,-0.31044 1.13554,-0.0236 0.0397,0.72845 -0.24839,-0.0279 0.0409,0.1935 -0.37604,-0.0161 -0.12952,0.83427 0.34508,0.0124 -0.01,-0.18975 0.73199,-0.071 -0.0207,0.18627 0.44175,-0.0105 0.10414,-0.0817 z"
       id="IL-08"
       style="font-style:normal;font-weight:400;font-size:34.375px;font-family:'MS Shell Dlg 2';opacity:1;fill:none;fill-opacity:1;fill-rule:evenodd;stroke:#000000;stroke-width:0.33333385;stroke-linecap:square;stroke-linejoin:bevel;stroke-miterlimit:4;stroke-dasharray:none;stroke-opacity:1" />
    <path
       inkscape:connector-curvature="0"
       d="m 191.41605,494.90331 c -0.006,0.0115 -0.0265,0.0171 -0.0344,0.0267 -0.21835,0.29976 -0.62237,0.0899 -0.922,0.0807 -0.2845,-0.0612 -0.5989,-0.008 -0.82335,-0.22258 -0.21081,0.0361 -0.44896,0.46014 -0.15876,0.54761 0.27316,-0.006 0.16496,0.22258 0.17354,0.39797 0.15192,0.2582 0.0697,0.53776 -0.14598,0.7066 0.0164,0.14543 0.14509,0.26927 0.23563,0.40527 0.0911,0.13598 0.1367,0.2729 -0.0473,0.40341 -0.23281,0.23052 -0.57499,0.0578 -0.85619,0.0567 -0.32687,-0.0801 -0.67771,-0.0522 -0.98224,-0.20973 -0.29626,-0.12737 0.25912,-0.165 0.0442,-0.37242 -0.17087,-0.30853 -0.54734,-0.35598 -0.74508,-0.62247 -0.11656,-0.19282 -0.0421,-0.25775 0.0954,-0.27207 0.13679,-0.0148 0.31161,0.025 0.41071,-0.015 0.19598,-0.0247 0.1936,-0.11029 0.11869,-0.20634 -0.0745,-0.0956 -0.19862,-0.21296 -0.25023,-0.28113 -0.12541,-0.23928 -0.40208,-0.2155 -0.62629,-0.29392 l 0,0 c -0.042,-0.0152 -0.0845,-0.0213 -0.12047,-0.0454 -0.27826,-0.0596 -0.6421,-0.23741 -0.90001,-0.10608 -0.0795,0.296 -0.12084,0.60831 -0.0438,0.90732 0.0544,0.32472 0.12708,0.65832 0.1042,0.9877 0.03,0.20289 0.15563,0.26252 0.31228,0.2884 0.15667,0.0262 0.32911,0.021 0.46196,0.0855 0.19785,0.22817 0.56388,-0.10753 0.66811,0.20437 0.0406,0.11763 0.19217,0.10216 0.26113,0.18805 l 0,0 c 0.0968,0.11979 0.14055,0.32422 0.34329,0.29203 l 0.16616,0.46003 0.2556,-0.0332 0.004,0.2831 0.74486,0.0875 0.11696,0.6115 0.75947,-0.037 0.0536,-0.7174 0.63344,-0.30317 0.52581,0.3449 0.69375,-0.0131 0.0125,0.1589 0.88359,-0.0227 0.34884,1.04786 0.29032,-0.0604 0.14795,0.61517 0.21716,0.0262 0.004,-0.0312 -0.0506,-0.10036 0.004,-0.0312 -0.0481,-0.13141 0.004,-0.0311 -0.0479,-0.13142 -0.0747,-0.16608 0.004,-0.0312 -0.0717,-0.19717 -0.0168,-0.1278 -0.0551,-0.0694 -0.0675,-0.22818 0.004,-0.0312 -0.0507,-0.10043 0.004,-0.0312 -0.0268,-0.0342 -0.0194,-0.096 -0.0241,-0.0654 -0.0268,-0.0342 0.004,-0.0312 0.004,-0.0312 0.004,-0.0311 -0.0266,-0.0337 -0.024,-0.0654 -0.0197,-0.096 -0.0266,-0.0344 -0.024,-0.065 -0.024,-0.0652 -0.048,-0.13148 -0.0194,-0.096 -0.024,-0.0653 -0.0195,-0.0961 -0.0267,-0.0344 -0.0168,-0.12778 -0.0311,-0.004 0.004,-0.0311 -0.0196,-0.0961 0.004,-0.0311 -0.0364,-0.22463 0.005,-0.0623 -0.0196,-0.096 0.0136,-0.12421 0.004,-0.0312 0.004,-0.0312 -0.0268,-0.0337 0.0134,-0.0933 -0.0268,-0.0344 -0.0265,-0.0341 -0.0507,-0.10063 -0.0241,-0.0652 -0.0479,-0.13144 -0.0579,-0.0385 0.004,-0.0311 -0.0267,-0.0337 -0.19907,-0.18075 -0.0266,-0.0346 -0.0578,-0.0384 -0.11321,-0.10772 -0.0267,-0.0344 -0.0577,-0.0383 -0.0267,-0.0344 -0.0862,-0.0729 -0.11322,-0.10771 -0.0268,-0.0342 -0.0818,-0.10411 -0.0553,-0.0693 -0.0266,-0.0345 -0.16434,-0.20804 -0.10229,-0.20084 -0.0551,-0.0694 z"
       id="IL-09"
       style="font-style:normal;font-weight:400;font-size:34.375px;font-family:'MS Shell Dlg 2';opacity:1;fill:none;fill-opacity:1;fill-rule:evenodd;stroke:#000000;stroke-width:0.333;stroke-linecap:square;stroke-linejoin:bevel;stroke-miterlimit:4;stroke-dasharray:none;stroke-opacity:1" />
    <path
       inkscape:connector-curvature="0"
       d="m 185.23754,491.78618 0.53486,-6e-5 0.0881,2.4646 1.22864,-0.0131 -0.0105,0.31382 -0.18252,0.48197 c 0.22421,0.0785 0.50083,0.0555 0.62629,0.29392 0.0519,0.0683 0.17523,0.18496 0.25023,0.28111 0.0743,0.0956 0.0775,0.18226 -0.1187,0.20634 -0.0997,0.0392 -0.27398,0.008 -0.4107,0.0149 -0.13693,0.0149 -0.21156,0.0787 -0.0954,0.27204 0.19774,0.26651 0.57419,0.31395 0.74507,0.6225 0.21537,0.20743 -0.34003,0.24509 -0.0442,0.37242 0.3045,0.15839 0.65538,0.1302 0.98224,0.20971 0.28131,-0.007 0.62338,0.1737 0.85619,-0.0567 0.18406,-0.13048 0.13792,-0.26742 0.0473,-0.40339 -0.0911,-0.136 -0.21907,-0.25986 -0.23561,-0.40527 0.21507,-0.16885 0.29796,-0.4484 0.14598,-0.70659 -0.01,-0.17541 0.0996,-0.39636 -0.17354,-0.39798 -0.2902,-0.0873 -0.0519,-0.51094 0.15876,-0.54762 0.22445,0.21416 0.53885,0.1614 0.82335,0.2226 0.29959,0.013 0.70363,0.21919 0.922,-0.0807 0.006,-0.0114 0.0263,-0.0168 0.0344,-0.0266 l -0.0551,-0.0694 -0.0196,-0.096 -0.16422,-0.20819 0.004,-0.0311 -0.0552,-0.0694 -0.15697,-0.27014 -0.10227,-0.20081 -0.10592,-0.1697 -0.15349,-0.30128 -0.0266,-0.0343 -0.10591,-0.16975 -0.10592,-0.16973 -0.0792,-0.13508 -0.1296,-0.23552 -0.0266,-0.034 -0.0508,-0.10064 -0.024,-0.0652 0.004,-0.0312 -0.0266,-0.0337 -0.0481,-0.13143 -0.0479,-0.13145 -0.0552,-0.0694 -0.0717,-0.19715 -0.0675,-0.22823 -0.0676,-0.22814 -0.0748,-0.16619 0.004,-0.0311 -0.0716,-0.19719 -0.0747,-0.16613 0.004,-0.0311 0.004,-0.0311 -0.0437,-0.16254 -0.0195,-0.096 0.0134,-0.0933 -0.0268,-0.0337 -0.0533,-0.3524 -0.0195,-0.0962 0.004,-0.0312 -0.0196,-0.0961 0.0591,-0.49657 0.0136,-0.12421 0.005,-0.0622 0.004,-0.0312 0.0355,-0.31042 0.0384,-0.0578 0.0207,-0.18629 0.0195,-0.15507 0.0311,0.004 0.0207,-0.18633 0.0694,-0.0551 0.004,-0.0312 0.0345,-0.0267 0.004,-0.0311 0.12948,-0.29942 0.0571,-0.21356 0.0207,-0.18639 0.0105,-0.31383 0.005,-0.0623 -0.009,-0.25204 -0.01,-0.18976 0.0262,-0.21728 0.0177,-0.40704 -0.01,-0.18997 0.005,-0.0622 0.004,-0.0312 0.0354,-0.31042 -0.01,-0.22102 -0.01,-0.18974 -0.0488,-0.38338 -0.31752,0.025 -0.12424,-0.0136 -0.0623,-0.005 -0.0312,-0.004 -0.18987,0.01 -0.15888,0.0125 -0.18616,-0.0207 -0.12782,0.0168 -0.53497,7e-5 -0.0622,-0.005 -0.0311,-0.004 -0.18999,0.01 -0.0312,-0.004 0.0112,0.9767 0.31397,0.0106 0.003,1.57381 -0.69373,0.013 0.0969,0.51483 0.39795,0.3614 0.004,0.28302 -0.41084,0.0151 0.0844,0.35594 -0.67722,0.14068 0.16059,-0.29572 -0.56594,-0.004 -0.0256,-0.85255 -1.07183,-0.78674 -3.87211,0.017 0.0641,2.39887 1.63943,-0.027 0.016,0.66275 1.82929,-0.0367 0.0989,1.83655 z"
       id="IL-10"
       style="font-style:normal;font-weight:400;font-size:34.375px;font-family:'MS Shell Dlg 2';opacity:1;fill:none;fill-opacity:1;fill-rule:evenodd;stroke:#000000;stroke-width:0.33333385;stroke-linecap:square;stroke-linejoin:bevel;stroke-miterlimit:4;stroke-dasharray:none;stroke-opacity:1" />
    <path
       inkscape:connector-curvature="0"
       d="m 182.25276,513.71269 1.22864,-0.0133 0.0236,1.13553 0.83055,-0.37443 1.61935,-0.1244 -0.0748,-1.23592 0.72479,-0.009 -0.0151,-0.41071 0.37971,-0.0177 0.56769,-0.81429 -0.0611,-0.82512 -3.35557,0.17207 -0.0262,0.21728 -0.78682,0.004 -0.01,-0.18995 0.43988,-0.26287 -0.16296,-2.63078 1.48428,-0.0457 0.52029,-0.41085 0.0228,-0.46917 0.47282,-0.008 -0.0327,-0.79041 1.27063,-0.10247 0.10782,0.42166 0.97476,-0.79792 -0.0663,-1.04605 -0.13146,0.0479 -0.0604,-0.29025 c -0.0303,0.0163 -0.0627,0.022 -0.10054,0.0507 -0.0668,0.0529 -0.21176,0.15941 -0.30489,0.18443 -0.10948,0.0292 -0.24605,0.03 -0.38703,0.0799 -0.18158,0.0658 -0.14756,0.0462 -0.24273,0.19177 -0.0603,0.0908 -0.0634,0.21603 -0.18801,0.26108 -0.0373,0.0132 -0.2496,0.17026 -0.3012,0.15351 -0.24209,-0.0782 -0.0387,-0.12023 -0.15704,-0.27017 -0.0114,-0.0134 -0.23403,-0.2716 -0.26117,-0.188 -0.0331,0.10021 -0.031,0.33675 -0.12945,0.2994 -0.0324,-0.0133 -0.088,-0.0337 -0.1205,-0.0454 -0.01,-0.0119 -0.0137,-0.009 -0.0267,-0.0344 -0.0675,-0.11615 -0.20511,-0.2906 -0.29397,-0.44361 -0.0468,-0.0796 -0.22543,-0.22383 -0.21551,-0.30845 0.0205,-0.1806 0.10495,-0.33374 -0.0532,-0.3524 -0.14086,-0.0147 -0.2627,-0.0322 -0.40353,-0.0473 -0.13298,-0.0137 -0.25286,0.009 -0.376,-0.0162 -0.12171,-0.0135 -0.30939,-0.0598 -0.35232,0.0532 -0.0349,0.0905 -0.0596,0.16851 -0.0981,0.30316 -0.0388,0.13643 -0.065,0.28619 -0.0821,0.43081 -0.0138,0.1369 -0.015,0.30181 -0.16787,0.35784 -0.11624,0.042 -0.1828,0.0103 -0.34508,-0.0124 -0.23363,-0.0271 -0.0954,-0.15697 -0.2155,-0.30852 -0.0559,-0.0704 -0.30216,-0.50744 -0.31775,-0.50929 -0.14086,-0.0142 -0.2937,-0.0341 -0.43436,-0.0519 -0.13249,-0.0137 -0.2711,-0.0329 -0.40352,-0.0473 -0.15319,-0.0195 -0.24517,0.004 -0.26481,-0.15697 -0.0136,-0.10815 0.0194,-0.27717 -0.0175,-0.37968 -0.01,-0.0205 -0.009,-0.0874 -0.0169,-0.12782 l -3.66219,0.10475 -0.005,2.45356 -0.53867,0.0319 0.015,0.41072 0.59885,0.25923 1.59921,-0.22121 0.16255,0.49103 0.68095,-0.17174 -0.0256,-0.85251 1.13918,-0.0547 0.0389,0.47653 0.37975,-0.0177 -0.0389,-0.47645 0.88356,-0.0226 0.0162,0.66274 -0.41254,0.29758 0.13008,2.37512 -1.00776,0.007 -0.30297,0.43643 -1.86392,0.0644 0.0404,1.2633 1.30175,-0.0988 0.0326,0.79053 1.04612,-0.0663 0.18283,1.65766 z"
       id="IL-11"
       style="font-style:normal;font-weight:400;font-size:34.375px;font-family:'MS Shell Dlg 2';opacity:1;fill:none;fill-opacity:1;fill-rule:evenodd;stroke:#000000;stroke-width:0.33333385;stroke-linecap:square;stroke-linejoin:bevel;stroke-miterlimit:4;stroke-dasharray:none;stroke-opacity:1" />
    <path
       inkscape:connector-curvature="0"
       d="m 167.9401,633.13964 -0.18659,-2.16155 -2.53036,0.11185 -0.0234,-8.37238 7.56546,-0.11818 -0.11015,-24.77584 -9.90955,0.2519 -0.0322,7.23319 -12.17525,-0.0142 -0.29598,-12.21163 -7.14733,0.0413 -0.0243,-0.60057 0,0 -0.18736,-6.97581 -3.33729,0.0174 -0.0915,0.77587 0.0578,0.0383 0.10958,0.13871 0.0578,0.0384 0.0312,0.004 0.0622,0.005 0.089,0.0425 0.089,0.0423 0.17883,0.0837 0.0267,0.034 0.14796,0.0809 0.0311,0.004 0.19908,0.18077 0.0862,0.073 0.12053,0.0454 0.11685,0.0767 0.14795,0.0809 0.0577,0.0383 0.14429,0.11131 0.0889,0.0424 0.17539,0.11499 0.0479,0.13142 0.0312,0.004 0.01,0.18997 -0.0134,0.0934 -0.12412,0.52036 -0.0642,0.27563 -0.11868,0.20636 -0.52383,0.44191 -0.40889,0.26653 -0.11498,0.17535 -0.0423,0.0888 -0.0422,0.0889 -0.005,0.0624 -0.0454,0.12049 -0.14965,0.20264 -0.16972,0.10591 -0.28841,0.31219 -0.11507,0.17537 -0.0453,0.12049 -0.0134,0.0933 0.01,0.18987 0.0676,0.22825 0.15697,0.27015 0.0819,0.10403 0.0551,0.0694 0.13332,0.20445 0.024,0.0652 0.0506,0.10054 -0.004,0.0311 0.0675,0.22827 0.0169,0.1278 0.027,0.0346 0.0701,0.48016 -0.004,0.0312 0.01,0.221 -0.0455,0.12051 -0.0669,0.30665 -0.0526,0.18267 -0.004,0.0311 -0.042,0.089 -0.12241,0.23734 -0.0765,0.11685 -0.11134,0.14418 -0.0344,0.0268 -0.0696,0.0552 -0.0337,0.0269 -0.0694,0.0551 -0.1424,0.14064 -0.0651,0.024 -0.0694,0.0551 -0.0345,0.0267 -0.30663,0.46743 -0.0425,0.0889 -0.0729,0.0862 -0.004,0.0312 -0.11498,0.17529 -0.0343,0.0267 -0.004,0.0312 -0.1606,0.29578 -0.0455,0.1205 -0.0836,0.17895 -0.004,0.0312 -0.10962,0.39612 -0.0667,0.30671 -0.0953,0.27211 -0.0207,0.18616 -0.005,0.0624 -0.0456,0.1205 -0.0784,0.39978 -0.005,0.0623 -0.0195,0.15514 -0.057,0.21355 -0.005,0.0623 -0.0385,0.0579 -0.0345,0.0267 -0.12948,0.29935 -0.004,0.0312 -0.36507,0.42905 -0.21903,0.25751 -0.13873,0.10955 -0.32315,0.33962 -0.0384,0.0579 -0.0383,0.0578 -0.073,0.0862 -0.004,0.0312 -0.10535,0.36518 -0.0456,0.12051 -0.28646,0.56412 -0.0526,0.18268 -0.0332,0.27926 0.0317,0.53851 -0.0641,0.27573 -0.005,0.0623 0.024,0.0652 -0.0134,0.0933 -0.004,0.0312 -0.0134,0.0933 0.0266,0.0344 -0.004,0.0312 0.0435,0.16241 -0.005,0.0623 -0.005,0.0622 0.0267,0.0341 -0.004,0.0312 0.0436,0.16252 -0.005,0.0622 0.024,0.0653 -0.004,0.0311 0.0195,0.0961 -0.005,0.0622 0.0241,0.0653 0.056,0.32117 0.0871,0.32504 0.0718,0.19709 0.024,0.0652 0.0241,0.0652 0.0268,0.0344 0.0818,0.10403 0.15707,0.27017 0.1607,0.23918 0.0862,0.0731 0.19912,0.18072 0.12048,0.0454 0.15149,0.0498 0.20999,0.0883 0.20638,0.11861 0.16789,0.17711 0.19544,0.21164 0.41999,0.71015 0.0791,0.13509 0.0551,0.0694 0.0481,0.13148 0.1023,0.20081 0.53493,0.53476 0.26481,0.15696 -0.004,0.0312 0.75945,0.4983 0.20456,-0.13337 0.0622,0.005 0.0312,0.004 0.33039,0.13316 0.0267,0.0344 0.0267,0.0343 0.26839,0.12591 -0.004,0.0312 0.0267,0.0344 -0.004,0.0311 0.0481,0.13146 0.0195,0.0961 -0.0262,0.21725 0.024,0.0652 -0.004,0.0312 0.11321,0.10762 0.0819,0.10413 -0.004,0.0311 0.0311,0.004 0.0267,0.034 0.0267,0.0341 0.055,0.0693 0.38164,0.2337 0.0889,0.0426 0.0312,0.004 0.0312,0.004 0.15505,0.0195 0.19353,-0.0409 0.15516,0.0195 0.12049,0.0456 0.0311,0.004 0.0551,0.0693 0.0507,0.10054 -0.005,0.0623 0.0551,0.0694 0.0241,0.0652 0.0889,0.0423 0.29945,0.1295 0.32503,0.44727 0.21912,0.27745 0.17166,0.14604 0.0578,0.0382 0.24836,0.0279 0.0311,0.004 0.12779,-0.0168 0.54593,-0.0933 0.26286,-0.0948 0.0312,0.004 0.0791,0.1351 0.0196,0.096 0.0266,0.0341 0.0578,0.0384 0.19354,-0.041 -0.0136,0.12419 -0.004,0.0312 -0.14602,0.17162 -0.004,0.0311 -0.0312,-0.004 -0.0961,0.0194 -0.20812,0.16433 -0.28666,0.0292 -0.0498,0.15156 -0.1351,0.079 -0.14238,0.14062 0.01,0.22091 -0.004,0.0312 0.0312,0.004 0.0241,0.0652 0.20454,0.40164 0.0506,0.1006 0.14619,0.36331 0.0267,0.0344 0.0266,0.0347 0.0312,0.004 0.0578,0.0384 0.11321,0.10763 0.0578,0.0384 0.0622,0.005 -0.004,0.0312 0.33415,0.10224 0.18619,0.0207 0.28309,-0.005 0.10045,-0.0506 0.34329,-0.2429 0.10401,-0.0817 0.11133,-0.14432 0.11137,-0.14415 0.0766,-0.11687 0.27382,-0.18812 0.13145,-0.0479 0.0312,0.004 0.0311,0.004 0.11687,0.0764 -0.004,0.0312 0.0311,0.004 0.48756,0.40336 0.23737,0.12228 0.0889,0.0422 0.0267,0.0346 0.0124,0.15886 -0.0424,0.0889 -0.0134,0.0933 0.0987,0.23187 0.0551,0.0694 0.17161,0.14603 0.0729,-0.0862 0.0578,0.0384 0.1205,0.0453 0.18629,0.0207 0.0935,0.0134 0.0818,0.10411 0.0933,0.0134 0.0934,0.0134 0.22098,-0.01 0.0818,0.10401 0.079,0.1351 0.0863,0.0732 0.0265,0.0344 0.22277,0.24645 0.31955,0.22636 -0.004,0.0312 0.0311,0.004 0.12051,0.0454 0.0267,0.0344 0.0312,0.004 0.17515,0.11507 0.089,0.0424 0.11683,0.0767 0.0311,0.004 0.0241,0.0652 0.11685,0.0767 0.12606,0.26653 0.055,0.0693 0.0267,0.0344 -0.004,0.0312 -0.005,0.0622 0.0241,0.0652 -0.0134,0.0933 -0.0384,0.0579 -0.004,0.0312 -0.0499,0.15159 -0.0498,0.15154 -0.0454,0.12051 0.0718,0.19708 0.0241,0.0652 0.0311,0.004 0.0311,0.004 0.0579,0.0383 0.0311,0.004 0.17894,0.0837 0.096,-0.0196 0.25204,-0.009 0.1351,-0.0792 0.0962,-0.0195 0.12778,-0.0168 0.0267,0.0344 -0.004,0.0312 0.0196,0.0961 0.0241,0.0652 0.0265,0.0344 0.0266,0.0341 0.0933,0.0134 0.11685,0.0766 0.0578,0.0384 0.0889,0.0422 -0.004,0.0311 0.12972,0.23555 0.0716,0.19717 0.0312,0.004 0.0551,0.0694 -0.004,0.0311 0.0312,0.004 0.20635,0.11867 0.15147,0.0498 0.64091,0.16973 0.15515,0.0195 0.12048,0.0454 0.0862,0.0736 0.11325,0.10766 0.0551,0.0694 0.048,0.13147 0.0169,0.12783 -0.0455,0.12045 -0.0598,0.24466 -0.0106,0.31396 0.0125,0.15886 0.0124,0.15878 -0.0337,0.0269 -0.0134,0.0934 0.0479,0.13145 0.10954,0.1387 0.10595,0.16972 0.0863,0.0732 -0.005,0.0622 0.0311,0.004 0.16809,0.17713 0.1679,0.17709 0.0268,0.034 0.16432,0.20807 0.0195,0.096 0.0241,0.0652 -0.0134,0.0933 -0.004,0.0312 -0.0134,0.0933 -0.0694,0.0551 -0.004,0.0311 -0.0622,-0.005 -0.0384,0.0579 -0.0311,-0.004 -0.0311,-0.004 -0.1625,0.0434 -0.33043,-0.13317 -0.0312,-0.004 -0.0312,-0.004 -0.0311,-0.004 -0.0311,-0.004 -0.0312,-0.004 -0.004,0.0312 -0.0652,0.024 -0.0383,0.0579 -0.005,0.0623 0.0125,0.15877 -0.004,0.0312 -0.0195,0.15518 0.0124,0.15876 0.01,0.18987 0.10054,0.48371 0.0266,0.0342 0.0748,0.16615 0.10592,0.16973 0.1059,0.16972 0.0791,0.13511 0.0363,0.22459 0.12598,0.26651 -0.004,0.0312 -0.004,0.0312 0.0312,0.004 0.18441,0.3049 0.0241,0.0653 0.1607,0.23919 0.024,0.0652 0.0241,0.0655 0.0312,0.004 0.0577,0.0383 0.0819,0.10414 0.22277,0.24648 0.0578,0.0383 0.0267,0.0344 0.0577,0.0383 0.0508,0.10045 0.0265,0.0344 0.0551,0.0694 0.0266,0.0344 0.024,0.0652 0.0266,0.034 0.12608,0.26654 0.18634,0.55672 0.0241,0.0652 -0.004,0.0311 0.024,0.0653 0.0196,0.096 0.0266,0.0344 0.0169,0.12779 0.0168,0.1278 -0.005,0.0623 -0.0136,0.12421 -0.004,0.0312 -0.14228,0.67559 -0.0134,0.0933 -0.004,0.0312 -0.0766,0.11684 -0.0731,0.0862 -0.26653,0.12606 -0.0312,-0.004 -0.12782,0.0168 -0.44535,0.0417 -0.19724,0.0715 -0.0311,-0.004 -0.0338,0.0271 -0.004,0.0311 -0.0652,0.024 -0.0343,0.0272 -0.004,0.0312 -0.0837,0.17881 -0.10402,0.0819 -0.2082,0.16434 -0.0384,0.0579 -0.004,0.0311 -0.004,0.0312 -0.0337,0.0268 -0.004,0.0312 -0.0526,0.18257 -0.0134,0.0933 -0.0134,0.0934 -0.004,0.0311 -0.005,0.0624 -0.0346,0.0266 -0.004,0.0311 -0.005,0.0624 -0.005,0.0622 -0.004,0.0312 0.0508,0.10054 0.0479,0.1315 0.15715,0.27017 0.11318,0.10774 0.14054,0.14235 0.13329,0.20446 0.0312,0.004 0.22451,-0.0363 0.18996,-0.01 0.15508,0.0195 0.0267,0.034 0.0624,0.005 -0.004,0.0311 0.0266,0.0344 -0.004,0.0312 0.0168,0.12779 -0.004,0.0311 -0.004,0.0312 -0.005,0.0624 -0.0836,0.17883 -0.0499,0.15159 -0.0384,0.0578 -0.0134,0.0933 -0.0134,0.0933 0.10782,0.42177 0.0197,0.0961 0.0948,0.26283 0.024,0.0653 0.0266,0.0341 0.1023,0.20088 0.28676,0.50557 0.0637,0.25927 0.23553,0.40526 0.24279,0.34317 -0.004,0.0311 0.0863,0.0734 0.0578,0.0383 0.0267,0.0344 0.14418,0.1114 0.1753,0.11507 -0.004,0.0311 0.0312,0.004 0.0267,0.0344 0.0578,0.0384 0.10953,0.13875 0.0987,0.23177 0.0987,0.23189 -0.0195,0.15506 -0.0598,0.24466 -0.004,0.0312 -0.004,0.0312 -0.0345,0.0265 -0.0979,0.30311 -0.0134,0.0933 0.0169,0.12781 -0.005,0.0623 0.0267,0.0341 0.0506,0.10054 0.0268,0.0342 0.0551,0.0694 0.34693,0.26095 0.39257,0.14055 0.32677,0.16425 0.17902,0.0837 0.11688,0.0766 0.10956,0.13874 0.48017,0.46541 0.30308,0.0981 0.10053,-0.0507 0.10411,-0.0818 0.073,-0.0862 0.0455,-0.12048 0.14409,-0.42366 -0.0675,-0.22816 -0.14066,-0.14238 -0.25749,-0.21901 -0.30301,-0.098 -0.23371,-0.15332 -0.0552,-0.0694 -0.0862,-0.0731 -0.0195,-0.096 -0.0506,-0.10063 0.0668,-0.30673 0.004,-0.0312 0.3104,0.0353 0.24837,0.0279 -0.004,0.0312 0.0623,0.005 0.37601,0.0162 0.0933,0.0134 0.0423,-0.0889 0.0424,-0.0889 0.0344,-0.0267 0.20456,0.4016 0.17344,0.39796 -0.004,0.0312 0.0792,0.13511 0.19908,0.18064 0.20626,0.11867 0.11322,0.10763 0.1479,0.081 0.0818,0.10411 0.0312,0.004 -0.004,0.0311 0.024,0.0652 0.0266,0.0343 0.0241,0.065 -0.004,0.0312 0.0196,0.096 0.0195,0.0961 0.0266,0.0344 0.005,0.28311 0.0604,0.29032 0.0266,0.0344 0.10954,0.13874 0.21356,0.057 0.15519,0.0195 0.16615,-0.0746 0.2975,-0.12242 0.13145,-0.0478 0.0652,-0.0241 0.16615,-0.0747 -0.11685,-0.0767 -0.23006,-0.18432 -0.28859,-0.22267 -0.11684,-0.0765 -0.0551,-0.0694 -0.0552,-0.0694 0.004,-0.0311 -0.055,-0.0695 -0.0792,-0.13509 0.004,-0.0312 -0.0551,-0.0695 0.004,-0.0312 -0.0266,-0.0344 0.004,-0.0311 -0.024,-0.0652 0.004,-0.0311 -0.0255,-0.31765 -0.01,-0.22093 0.0571,-0.21362 0.005,-0.0623 0.0526,-0.18257 0.0808,-0.14787 0.1187,-0.20633 0.0425,-0.089 0.2574,-0.31584 0.004,-0.0312 0.0311,0.004 0.0345,-0.0265 0.0268,0.0344 0.0693,-0.055 0.13509,-0.0791 0.0422,-0.089 0.081,-0.14785 0.004,-0.0312 0.2081,-0.16445 0.0694,-0.0551 0.0344,-0.0268 0.004,-0.0312 0.10409,-0.0817 0.10416,-0.0817 0.12944,-0.29954 0.0384,-0.0577 0.12592,-0.26847 0.0134,-0.0933 0.0384,-0.0579 0.0134,-0.0933 0.0524,-0.18262 0.15696,-0.26468 0.004,-0.0312 0.18063,-0.19897 0.0385,-0.0579 0.27744,-0.21911 0.004,-0.0311 0.10765,-0.11324 0.31948,-0.3086 0.004,-0.0311 0.0695,-0.0551 0.10063,-0.0507 0.14967,-0.20271 0.36321,-0.14603 0.10767,-0.1132 0.17346,-0.13702 0.19351,-0.0408 0.19715,-0.0719 0.37972,-0.0175 0.56596,0.004 0.15504,0.0195 0.0312,0.004 z"
       id="IL-12"
       style="font-style:normal;font-weight:400;font-size:34.375px;font-family:'MS Shell Dlg 2';opacity:1;fill:none;fill-opacity:1;fill-rule:evenodd;stroke:#000000;stroke-width:0.33333385;stroke-linecap:square;stroke-linejoin:bevel;stroke-miterlimit:4;stroke-dasharray:none;stroke-opacity:1" />
    <path
       inkscape:connector-curvature="0"
       d="m 139.45569,586.34053 0.0914,-0.77587 3.33729,-0.0174 0.18736,6.9758 1.40754,0.072 0.95271,-2.21651 -0.0537,-4.63159 14.91916,-0.041 -0.0234,-8.37237 2.30214,-0.0444 0.15093,-3.69512 2.40616,-0.12627 -0.0945,-8.56961 4.53855,-0.0648 0.0942,-2.41164 1.30539,-0.1299 -0.12626,-1.33634 6.55406,-0.0797 -0.0537,-2.49196 2.46464,-0.088 -0.0643,-2.39889 4.89825,-0.17974 -0.27102,-4.65714 -1.50073,-0.0815 -0.16268,-1.02597 -2.10489,-0.0285 0.0806,0.92198 -3.54534,0.18128 -0.0406,-3.93782 -9.96615,-0.0695 -0.0131,-0.69385 -1.07541,-0.22068 -0.27857,-6.19984 -0.9,-0.10608 0.22843,1.53716 -3.05244,0.27072 0.4245,15.93967 -1.68688,-0.10408 0.22513,3.17298 c -0.29698,-0.0165 -0.61546,-0.1358 -0.9074,-0.0439 -0.36681,0.29946 -0.73447,0.62027 -1.11347,0.9075 -0.46798,0.26812 -0.73502,0.84271 -1.30336,0.91678 -0.69962,-0.0222 -1.39496,-0.19606 -2.09772,-0.0895 -0.26438,0.0429 -0.54947,0.0348 -0.81419,-0.0314 -0.2648,-0.0685 -0.50109,-0.18532 -0.63915,-0.45267 -0.21653,-0.36876 -0.6637,-0.41184 -0.99681,-0.62052 -0.41356,-0.33566 -0.50605,-0.9293 -0.85098,-1.32705 -0.10615,-0.2243 -0.2657,-0.36541 -0.45648,-0.39978 -0.19091,-0.034 -0.38718,0.0402 -0.56047,0.21728 -0.48083,0.20438 -0.70337,0.71009 -0.89073,1.15394 0.117,0.15603 0.3523,0.26503 0.51855,0.40711 0.16626,0.14205 0.25766,0.31974 0.0853,0.60796 -0.17134,0.2345 -0.10993,0.40031 0.0346,0.50753 0.1448,0.10706 0.36268,0.13539 0.54775,0.15868 0.24388,0.009 0.31494,0.13959 0.31216,0.28839 -0.001,0.14881 -0.0581,0.34867 -0.0591,0.49656 0.0633,0.24151 0.25191,0.31523 0.46375,0.3377 0.21181,0.0242 0.44398,0.003 0.62432,0.0425 l 0.11188,2.53032 1.2049,-0.0787 -0.19799,2.49393 -22.75673,0.0641 -0.91587,3.51081 -6.80413,-0.20161 0.0266,0.034 0.0168,0.12778 -0.004,0.0312 0.0266,0.0344 0.0862,0.0729 0.11682,0.0767 0.0579,0.0383 0.0266,0.0344 0.0311,0.004 0.0312,0.004 0.0578,0.0384 0.0311,0.004 0.0934,0.0134 0.089,0.0425 0.024,0.0652 -0.004,0.0312 0.0819,0.10404 0.10958,0.13874 0.0311,0.004 -0.004,0.0312 0.0622,0.005 0.14793,0.0809 0.0266,0.0345 0.2647,0.15698 0.0266,0.0344 0.0312,0.004 0.1752,0.11488 0.26115,0.18803 0.11321,0.10764 0.0312,0.004 0.41446,0.48923 0.0862,0.0733 0.38165,0.2337 0.14795,0.0808 0.024,0.0652 -0.004,0.0311 0.0507,0.10064 0.13701,0.17336 0.17521,0.11507 0.0241,0.0652 0.15341,0.30126 0.32869,0.41619 0.0578,0.0384 0.21354,0.057 0.11686,0.0766 0.0268,0.034 0.0551,0.0693 0.0792,0.13513 0.0558,0.32138 0.0409,0.19338 0.024,0.0652 -0.0136,0.12421 -0.005,0.0621 0.0719,0.19723 0.024,0.0649 0.0195,0.0961 -0.0136,0.12422 -0.005,0.0623 -0.004,0.0312 -0.004,0.0312 -0.0136,0.12421 0.0436,0.16242 0.024,0.0652 0.0169,0.12782 0.0986,0.23177 -0.0134,0.0933 0.003,0.50387 0.048,0.13147 0.0364,0.22458 0.048,0.13146 0.0551,0.0694 0.13691,0.17343 0.12972,0.23546 0.0241,0.0652 0.0267,0.0343 0.024,0.0653 0.0241,0.0651 0.0532,0.35237 -0.0354,0.31044 -0.004,0.0312 -0.36859,0.46016 -0.0384,0.0577 -0.0136,0.12418 -0.24637,0.22281 -0.005,0.0624 -0.004,0.0311 0.024,0.0652 0.0168,0.12778 0.0792,0.13511 0.14245,0.39431 0.18076,0.33586 0.0481,0.13149 0.0479,0.13144 0.0241,0.0652 0.0241,0.0652 0.0268,0.0342 0.0265,0.0344 0.0267,0.0345 0.0312,0.004 -0.004,0.0311 -0.004,0.0311 0.0791,0.13508 0.0363,0.22458 -0.0228,0.4693 -0.004,0.0311 0.0269,0.0344 -0.004,0.0312 -0.005,0.0623 0.0241,0.0652 0.0267,0.034 0.0435,0.16243 0.0507,0.10054 0.0773,0.41802 0.0436,0.16241 0.0507,0.10064 0.0791,0.13509 0.11323,0.10773 0.11319,0.10763 0.17519,0.115 0.0792,0.13509 0.14975,0.33234 0.0862,0.0731 0.64282,0.42166 0.20626,0.1187 0.0268,0.0342 0.0311,0.004 0.0311,0.004 0.1242,0.0136 0.22101,-0.01 0.0311,0.004 0.004,-0.0312 0.0624,0.005 0.13143,-0.048 0.0311,0.004 0.1972,-0.0717 0.0383,-0.0577 0.28841,-0.31229 0.32304,-0.33961 0.20081,-0.10225 0.14968,-0.20276 0.30297,-0.4363 0.0909,-0.24101 0.004,-0.0312 -0.0195,-0.096 0.004,-0.0312 0.004,-0.0312 0.004,-0.0311 0.004,-0.0312 0.004,-0.0312 0.004,-0.0311 0.0424,-0.089 0.073,-0.0862 0.11861,-0.20628 0.10411,-0.0818 0.10412,-0.0819 0.26284,-0.0949 0.21721,0.0262 0.0623,0.005 0.089,0.0424 0.18246,0.0526 0.0312,0.004 0.25201,-0.009 0.0312,0.004 0.0267,0.0346 0.0933,0.0134 0.0933,0.0134 0.0889,0.0425 0.0312,0.004 0.0312,0.004 0.14783,0.081 0.0311,0.004 0.0267,0.0341 0.0623,0.005 0.29579,0.16059 0.0889,0.0422 0.0267,0.0343 0.0312,0.004 0.32677,0.16426 0.2921,0.19168 -0.004,0.0312 0.0622,0.005 0.0862,0.0733 0.0312,0.004 0.0312,0.004 0.0265,0.0346 0.12418,0.0136 0.17533,0.11488 0.0623,0.005 0.18628,0.0207 0.0312,0.004 0.0311,0.004 0.25199,-0.009 0.12781,-0.0168 0.0311,0.004 0.0312,0.004 0.12047,0.0455 0.15161,0.0498 0.12782,-0.0168 0.0621,0.005 0.089,0.0423 0.17524,0.11509 0.26844,0.12597 0.0577,0.0382 0.0267,0.034 0.0623,0.005 0.16802,0.17711 0.0312,0.004 0.0266,0.0344 0.0819,0.10401 0.0265,0.0348 0.0578,0.0384 z"
       id="IL-13"
       style="font-style:normal;font-weight:400;font-size:34.375px;font-family:'MS Shell Dlg 2';opacity:1;fill:none;fill-opacity:1;fill-rule:evenodd;stroke:#000000;stroke-width:0.33333385;stroke-linecap:square;stroke-linejoin:bevel;stroke-miterlimit:4;stroke-dasharray:none;stroke-opacity:1" />
    <path
       inkscape:connector-curvature="0"
       d="m 181.86216,503.91268 0.75586,-0.007 -0.22661,-1.28524 -0.72664,-0.24272 0.0544,-0.46547 -1.17389,0.0821 -0.003,-0.50385 -0.43455,-0.0519 -0.20816,-0.37052 -0.87995,-0.012 -0.89817,-0.38873 -0.0519,-3.84471 -0.34147,-0.0402 -0.0186,-2.51938 0.84527,0.0363 -0.0681,-2.3678 6.75118,-0.15083 -0.0989,-1.83659 -1.82927,0.0367 -0.0161,-0.66275 -1.63942,0.027 -0.0641,-2.39889 3.87212,-0.0167 1.07184,0.78672 0.0256,0.85252 0.56591,0.004 -0.16057,0.29564 0.67726,-0.14059 -0.0844,-0.35596 0.41082,-0.0151 -0.004,-0.28297 -0.39796,-0.36143 -0.0969,-0.51482 0.69375,-0.013 -0.004,-1.57381 -0.31395,-0.0105 -0.0112,-0.97663 -0.0342,0.0266 -0.34503,-0.0124 -0.0311,-0.004 -0.62809,-0.009 -0.47289,0.007 -0.37598,-0.016 -0.28304,0.005 -0.97676,0.0112 -0.25202,0.009 -0.0933,-0.0134 -0.0653,0.024 -0.0312,-0.004 -0.1242,-0.0136 -0.0312,-0.004 -0.34865,0.0222 -0.15518,-0.0195 -0.18978,0.01 -0.0652,0.024 -0.12421,-0.0136 -0.0622,-0.005 -0.31777,0.0252 -0.22091,0.01 -0.34494,-0.0124 -0.25202,0.009 -0.18996,0.01 -0.25204,0.009 -0.28657,0.0292 -0.0623,-0.005 -0.0312,-0.004 -0.096,0.0196 -0.12422,-0.0136 -0.18984,0.01 -0.18987,0.01 -0.0622,-0.005 -0.22099,0.01 -0.096,0.0196 -0.12779,0.0168 -0.0623,-0.005 -0.0311,-0.004 -0.0312,-0.004 -0.15891,0.0125 -0.28305,0.006 -0.1278,0.0169 -0.15505,-0.0195 -0.47656,0.0389 -0.0933,-0.0134 -0.31756,0.0254 -0.46926,-0.0228 -0.72485,0.009 -0.096,0.0196 -0.12782,0.0169 -0.18628,-0.0207 -0.60068,0.0237 -0.18978,0.01 -0.7558,0.007 -0.72484,0.009 -0.18989,0.01 -0.81788,0.002 -0.0311,-0.004 -0.63169,0.0203 -0.34504,-0.0124 -0.12779,0.0168 -0.12418,-0.0136 -0.18991,0.01 -1.01142,0.038 -0.0623,-0.005 0.10574,9.54624 2.58505,-0.0425 0.0718,3.94154 -2.69833,-0.0654 0.22827,10.91367 2.27837,-0.10995 0.19072,4.80508 8.5495,-0.19133 -0.18286,-1.65764 -1.04611,0.0663 -0.0327,-0.79056 -1.30172,0.0988 -0.0404,-1.26332 1.86392,-0.0639 0.30299,-0.43645 1.00775,-0.007 -0.13009,-2.37509 0.41252,-0.29761 -0.0161,-0.66272 -0.88362,0.0225 0.0389,0.47643 -0.37975,0.0177 -0.0389,-0.47657 -1.13916,0.0548 0.0255,0.85252 -0.68099,0.17173 -0.16251,-0.49101 -1.59924,0.2212 -0.59883,-0.25923 -0.015,-0.41071 0.53861,-0.0319 0.005,-2.45357 3.66225,-0.10473 z"
       id="IL-14"
       style="font-style:normal;font-weight:400;font-size:34.375px;font-family:'MS Shell Dlg 2';opacity:1;fill:none;fill-opacity:1;fill-rule:evenodd;stroke:#000000;stroke-width:0.33333385;stroke-linecap:square;stroke-linejoin:bevel;stroke-miterlimit:4;stroke-dasharray:none;stroke-opacity:1" />
    <path
       inkscape:connector-curvature="0"
       d="m 197.13267,540.78987 -12.60594,0.43855 -0.0806,-0.92201 -5.03512,0.006 0.0882,3.53444 -2.4153,-0.0626 0.0202,3.30616 0,0 0.0406,3.93785 3.54533,-0.18129 -0.0806,-0.92198 2.1049,0.0285 0.16267,1.02595 1.50074,0.0815 0.27102,4.65712 -4.89824,0.17977 0.0643,2.39889 -2.46464,0.088 0.0532,2.49194 -6.55404,0.0797 0.12623,1.33633 -1.30537,0.1299 -0.0942,2.41166 -4.53855,0.0648 0.0946,8.5696 -2.40616,0.12628 -0.15103,3.69513 -2.30216,0.0444 0.0234,8.37242 -14.91916,0.041 0.0537,4.6316 -0.95271,2.2165 -1.40753,-0.0718 0.0245,0.60058 7.14733,-0.0413 0.29598,12.21166 12.17526,0.0142 0.0322,-7.2332 9.90955,-0.25187 0.11015,24.77584 -7.56546,0.11814 0.0234,8.37241 2.53038,-0.11187 0.18658,2.16156 0.0312,0.004 0.0889,0.0425 0.1516,0.0499 0.0933,0.0134 0.33045,0.13319 0.75407,0.27735 0.3615,0.13692 0.0862,0.0731 0.21,0.0883 0.12049,0.0454 0.12052,0.0454 0.17891,0.0838 0.0312,0.004 0.0311,0.004 0.30306,0.0978 0.17893,0.0838 0.26104,0.18793 0.16813,0.17705 0.0817,0.10408 0.20264,0.14969 0.0312,0.004 0.0862,0.0733 0.11682,0.0766 0.0863,0.0735 0.11687,0.0766 0.0311,0.004 0.0312,0.004 0.0267,0.0344 0.0266,0.0344 0.0265,0.0347 0.0312,0.004 0.0578,0.0382 0.0578,0.0383 0.0312,0.004 0.0266,0.0343 0.0623,0.005 0.0312,0.004 0.0266,0.0346 0.0311,0.004 0.0624,0.005 0.0266,0.0341 0.0311,0.004 0.13145,-0.048 0.25558,-0.033 0.1516,0.0498 0.0623,0.005 0.12048,0.0455 0.0311,0.004 0.0312,0.004 0.0889,0.0426 0.12052,0.0454 0.0267,0.0344 0.0889,0.0425 0.59888,0.25915 0.15159,0.0498 0.0932,0.0134 0.0624,0.005 0.0932,0.0134 0.0312,0.004 0.0862,0.0734 0.23736,0.12219 0.0267,0.0344 0.0577,0.0383 0.0579,0.0384 0.0311,0.004 -0.004,0.0312 0.0623,0.005 0.17161,0.14598 0.0863,0.073 0.10956,0.13874 0.0267,0.0342 0.0551,0.0695 0.11323,0.10764 -0.004,0.0312 0.0579,0.0383 0.089,0.0425 0.0311,0.004 0.0551,0.0695 0.14431,0.1113 0.35785,0.16789 0.30662,0.0668 0.21368,0.057 0.0622,0.005 0.0312,0.004 0.0622,0.005 0.22456,-0.0363 0.19354,-0.0408 0.12779,-0.0168 0.18628,0.0207 0.13146,-0.0481 0.39797,-0.17346 0.12955,-0.29944 0.17154,-0.38883 0.028,-0.24834 0.004,-0.0312 0.004,-0.0312 0.14773,-0.45452 0.0346,-0.0267 0.20434,-0.66812 0.004,-0.0312 0.004,-0.0312 -0.0792,-0.1351 -0.0578,-0.0384 -0.0266,-0.0345 -0.0479,-0.13145 0.004,-0.0312 -0.11145,-0.39068 -0.0241,-0.0652 -0.0715,-0.19714 -0.1425,-0.39432 -0.0507,-0.10054 -0.19901,-0.18075 -0.17537,-0.11499 -0.11685,-0.0767 -0.13325,-0.20431 -0.0551,-0.0695 -0.12244,-0.29752 -0.0506,-0.10063 -0.11322,-0.10764 -0.20272,-0.14969 -0.13692,-0.17344 -0.0312,-0.004 0.005,-0.0622 -0.0312,-0.004 0.0455,-0.12049 -0.0409,-0.19363 -0.15341,-0.30113 0.0207,-0.18632 0.0881,-0.2099 0.0498,-0.15159 0.0767,-0.11684 0.004,-0.0312 0.0952,-0.27199 0.12599,-0.26831 0.0881,-0.21001 0.0765,-0.11687 0.004,-0.0311 0.0498,-0.15159 0.028,-0.24834 0.004,-0.0312 -0.01,-0.22089 0.004,-0.0312 0.0425,-0.0889 0.0134,-0.0933 0.0455,-0.12048 0.0402,-0.34146 0.12587,-0.26833 0.10773,-0.11321 0.21542,-0.22644 0.1351,-0.0792 0.23908,-0.1607 0.13143,-0.048 0.16254,-0.0436 0.16616,-0.0746 0.0652,-0.0241 0.0344,-0.0268 0.0312,0.004 0.0693,-0.0551 0.12051,0.0454 0.14793,0.0809 0.23735,0.1222 0.23008,0.18439 0.0745,0.16614 0.0579,0.0384 0.1242,0.0136 0.096,-0.0195 0.004,-0.0312 0.0653,-0.0241 0.20807,-0.16424 0.14967,-0.20273 0.0384,-0.0578 0.0383,-0.0578 0.0384,-0.0579 0.0767,-0.11684 0.0693,-0.0551 0.20454,-0.13323 0.0337,-0.0269 0.004,-0.0312 0.0311,0.004 0.0384,-0.0578 0.0734,-0.0863 0.26653,-0.12599 0.0653,-0.0241 0.0694,-0.0551 0.26287,-0.0947 0.0337,-0.0267 0.58433,-0.15167 0.37599,0.0162 0.28658,-0.0293 0.0962,-0.0195 0.3212,-0.0561 0.32137,-0.056 0.096,-0.0196 0.29033,-0.0604 0.0693,-0.0551 0.28668,-0.0292 0.0623,0.005 0.0653,-0.0241 0.0345,-0.0265 0.39067,-0.1114 0.0311,0.004 0.0311,0.004 0.089,0.0425 0.41802,-0.0773 0.31403,0.0105 0.096,-0.0196 -0.004,0.0312 -0.004,0.0312 0.0961,-0.0195 0.0696,-0.0552 0.0424,-0.0889 0.0311,0.004 0.0456,-0.12051 0.13508,-0.079 0.0889,0.0421 0.0312,0.004 0.0423,-0.089 0.0383,-0.0578 0.0338,-0.0267 0.004,-0.0312 -0.0267,-0.0342 -0.024,-0.0653 0.0134,-0.0933 0.0332,-0.27937 -0.0241,-0.0652 -0.0125,-0.15881 0.004,-0.0312 -0.0266,-0.034 -0.12599,-0.26653 -0.0819,-0.10401 -0.0863,-0.0731 -0.0311,-0.004 -0.1515,-0.0498 -0.0312,-0.004 -0.0312,-0.004 0.004,-0.0312 -0.0311,-0.004 -0.10957,-0.13875 -0.18448,-0.30492 -0.10957,-0.13872 -0.20262,-0.14965 -0.16798,-0.17702 -0.20639,-0.11867 -0.0577,-0.0382 -0.0437,-0.16241 -0.10224,-0.20092 -0.0195,-0.096 0.0195,-0.15509 -0.0196,-0.096 -0.0169,-0.1278 -0.252,-0.53307 -0.0947,-0.26285 -0.0266,-0.0344 -0.041,-0.19344 -0.009,-0.25204 -0.0168,-0.12776 -0.0266,-0.0344 0.004,-0.0312 0.004,-0.0312 0.004,-0.0311 0.005,-0.0623 0.004,-0.0311 0.004,-0.0312 0.004,-0.0312 0.0345,-0.0267 0.12587,-0.26835 0.11857,-0.20637 0.004,-0.0311 0.1771,-0.16798 0.0731,-0.0862 0.0422,-0.089 0.004,-0.0311 0.004,-0.0312 0.004,-0.0312 0.15695,-0.26467 0.0385,-0.0579 0.0343,-0.0266 0.0693,-0.0551 0.2319,-0.0986 0.13508,-0.0791 0.14238,-0.14056 0.17339,-0.13702 0.0345,-0.0267 0.0694,-0.055 0.22827,-0.0676 0.177,-0.16798 0.10773,-0.11318 0.19525,-0.32315 0.13326,-0.3305 0.0342,-0.0267 0.004,-0.0312 0.004,-0.0312 0.005,-0.0622 0.0342,-0.027 0.005,-0.0622 0.005,-0.0623 0.0262,-0.21718 0.0262,-0.21728 0.0312,0.004 0.081,-0.14782 0.073,-0.0863 -0.0196,-0.0961 -0.24465,-0.0596 -0.1205,-0.0454 -0.0311,-0.004 -0.0551,-0.0695 0.004,-0.0311 -0.0551,-0.0694 -0.0168,-0.1278 0.0136,-0.1242 0.0454,-0.12049 0.10775,-0.11321 0.0195,-0.15515 -0.0481,-0.13146 -0.0862,-0.0731 -0.0551,-0.0695 -0.0578,-0.0382 -0.0675,-0.22821 -0.0605,-0.29025 0.0526,-0.18259 0.0499,-0.15155 0.0384,-0.0577 0.0422,-0.0889 0.14236,-0.14056 0.17338,-0.13702 0.0695,-0.0551 0.0262,-0.21726 -0.14988,-0.33215 0.004,-0.0312 -0.12594,-0.26649 -0.024,-0.0652 0.14772,-0.45468 0.0652,-0.024 0.11869,-0.20634 0.21894,-0.25742 0.11506,-0.17527 0.0105,-0.31391 -0.30873,-0.8544 -0.0196,-0.096 -0.0871,-0.32507 0.005,-0.0622 0.0207,-0.18637 0.0499,-0.15149 0.004,-0.0311 0.0312,0.004 0.0908,-0.24102 0.22825,-0.0676 0.10414,-0.0818 0.3321,-0.14968 0.10241,-0.33419 -0.0364,-0.22457 -0.19538,-0.21164 -0.0241,-0.0652 -0.0506,-0.10052 -0.0559,-0.32128 0.14602,-0.17163 0.0731,-0.0862 0.35411,-0.33599 0.19355,-0.041 0.42175,-0.10771 0.0311,0.004 0.0423,-0.089 0.0344,-0.0265 0.10764,-0.11322 0.0345,-0.0265 0.1113,-0.1443 0.0766,-0.11684 0.10764,-0.1132 -0.0169,-0.12783 -0.0195,-0.096 0.0134,-0.0933 -0.0552,-0.0694 -0.0312,-0.004 -0.0747,-0.16617 -0.17894,-0.0836 -0.49473,-0.34136 -0.39821,-0.36137 -0.18071,-0.33592 0.0207,-0.18626 -0.0125,-0.15881 0.0839,-0.179 0.0383,-0.0577 0.0384,-0.0579 0.004,-0.0311 0.13877,-0.10957 0.18993,-0.01 0.0337,-0.0269 0.0345,-0.0267 0.1533,-0.2337 0.0909,-0.24099 0.004,-0.0311 -0.11879,-0.3286 -0.0169,-0.12782 0.0454,-0.12048 0.22631,-0.31947 0.004,-0.0312 0.19718,-0.0717 0.18254,0.0525 0.10957,0.13874 0.0194,0.0961 0.0481,0.13145 0.14786,0.0809 0.13144,-0.0479 0.0653,-0.0241 0.11129,-0.14428 0.10775,-0.11321 0.0423,-0.0889 0.081,-0.14791 0.0525,-0.18248 0.10053,-0.0508 0.14782,0.081 0.0863,0.0734 0.10954,0.1387 0.1515,0.0499 0.19349,-0.0408 0.1351,-0.0791 0.11502,-0.1752 0.0262,-0.21724 0.005,-0.0623 -0.046,-0.4145 0.004,-0.0311 0.005,-0.0623 0.0385,-0.0578 0.10535,-0.36515 0.0384,-0.0579 0.005,-0.0623 0.004,-0.0311 0.29571,-0.37437 0.0346,-0.0268 0.0337,-0.027 0.004,-0.0311 0.13145,-0.0481 0.0311,0.004 0.39798,-0.17344 0.004,-0.0312 0.0312,0.004 0.005,-0.0622 0.33408,-0.43279 0.0422,-0.089 0.0765,-0.11687 0.0384,-0.0577 0.0383,-0.0579 0.18795,-0.26105 0.0136,-0.1242 0.0134,-0.0933 0.0136,-0.12422 0.005,-0.0622 -0.009,-0.25202 0.0134,-0.0933 0.0311,0.004 0.0343,-0.0267 0.17715,-0.16808 0.0134,-0.0933 -0.13335,-0.20447 -0.16798,-0.17698 -0.01,-0.18999 0.004,-0.0311 0.057,-0.21367 0.10053,-0.0505 0.10054,-0.0508 0.3523,-0.0532 0.4674,-0.22832 0.31938,-0.30856 0.33223,-0.14977 0.13877,-0.10953 0.0809,-0.14784 -0.0168,-0.1278 -0.0481,-0.13143 -0.12411,-0.54958 0.16789,-0.35784 0.0384,-0.0578 0.004,-0.0311 -0.0194,-0.0962 -0.01,-0.22097 0.24458,-0.47471 0.0422,-0.0889 0.13145,-0.048 0.0312,0.004 0.0344,-0.0266 0.0652,-0.0241 0.0426,-0.0889 -0.0196,-0.0962 -0.0194,-0.0961 -0.0507,-0.10054 0.004,-0.0312 0.0424,-0.0889 0.0642,-0.27575 0.028,-0.24833 -0.01,-0.22091 0.0134,-0.0933 0.004,-0.0312 0.0383,-0.0579 0.0384,-0.0578 0.29933,-0.40533 0.18803,-0.26106 0.65354,-0.20646 0.39069,-0.11147 0.20446,-0.13327 0.10053,-0.0507 0.0383,-0.0578 0.0337,-0.0266 0.15696,-0.26476 0.0346,-0.0268 0.0136,-0.12422 0.0212,-0.43803 0.157,-0.26479 0.0384,-0.0578 0.081,-0.14784 0.0423,-0.089 0.0766,-0.11685 0.0383,-0.0578 -0.0728,-0.44909 0.0136,-0.12421 0.0136,-0.12419 0.004,-0.0312 -0.003,-0.28309 -0.58082,-0.94925 -0.0551,-0.0694 -0.0552,-0.0694 0.0455,-0.12049 0.0499,-0.1516 -0.0197,-0.0961 -0.0656,-0.51116 -0.20993,-0.0881 -0.0267,-0.0345 -0.3268,-0.16427 -0.0508,-0.10054 0.10241,-0.33418 0.0517,-0.43434 0.0136,-0.12421 0.21525,-0.22644 0.14241,-0.14064 0.17883,-0.45094 0.004,-0.0312 0.0262,-0.21717 0.004,-0.0312 0.0332,-0.2794 0.0455,-0.12049 0.005,-0.0621 0.0136,-0.12421 -0.0551,-0.0695 -0.0267,-0.0344 -0.0312,-0.004 -0.21546,-0.30844 -0.0862,-0.0733 -0.29952,-0.12949 -0.15149,-0.0499 -0.62985,-0.26269 0.004,-0.0312 -0.0222,-0.34866 0.004,-0.0312 0.17522,-0.41995 0.005,-0.0623 -0.11139,-0.39065 0.0177,-0.40713 -0.009,-0.25206 -0.2228,-0.24633 -0.0551,-0.0694 -0.0819,-0.10416 -0.14055,-0.14236 -0.024,-0.0652 -0.0312,-0.004 -0.15518,-0.0195 -0.0889,-0.0423 -0.0862,-0.0733 -0.0312,-0.004 -0.0507,-0.10063 -0.0123,-0.15877 -0.0269,-0.0341 -0.048,-0.13147 -0.12419,-0.0136 -0.11682,-0.0767 -0.0552,-0.0693 0.0134,-0.0933 -0.0169,-0.12781 0.0136,-0.12422 -0.25011,-0.2811 -0.0364,-0.22458 -0.0409,-0.19343 0.0402,-0.34144 0.0337,-0.0267 0.0136,-0.1242 0.0195,-0.15519 0.13145,-0.0479 0.30495,-0.18449 0.28836,-0.31218 0.0312,0.004 0.35399,-0.33593 0.0455,-0.12049 0.19171,-0.29213 0.0525,-0.18259 -0.10772,-0.42177 -0.0915,-0.29385 -0.24101,-0.0909 -0.21185,-0.3395 -0.0312,-0.004 -0.0267,-0.0344 -0.10045,-0.48384 -0.0168,-0.12779 0.22257,-0.2885 0.005,-0.0623 0.0345,-0.0266 0.004,-0.0312 0.004,-0.0312 0.004,-0.0311 -0.0799,-0.38704 0.12589,-0.26832 0.0954,-0.27205 0.004,-0.0312 0.004,-0.0311 0.0311,0.004 0.004,-0.0311 0.17336,-0.13699 0.0312,0.004 0.2245,-0.0364 0.2831,-0.005 0.0312,0.004 0.004,-0.0312 0.0765,-0.11686 0.004,-0.0312 0.11497,-0.17514 0.23737,0.12217 0.0311,0.004 -0.0492,-1.98808 -0.003,-0.5039 0.004,-0.0312 0.004,-0.0312 -0.0293,-0.28658 -0.007,-0.47291 -0.0195,-0.096 -0.01,-0.22091 -0.009,-0.25203 -0.0124,-0.15885 0.0134,-0.0933 -0.009,-0.72483 -0.0125,-0.1588 -0.009,-0.252 -0.0292,-0.28668 -7e-5,-0.53499 -0.0175,-0.3797 -0.0299,-0.82143 -0.002,-0.81803 -0.0333,-0.25559 -0.0318,-0.53853 0.002,-0.849 -0.0176,-0.37969 -0.0202,-0.63169 -0.0151,-0.41073 -0.0379,-1.01141 -0.015,-0.4107 -0.01,-0.22102 -0.01,-0.18984 0.0124,-0.34496 -0.051,-1.70525 -0.0371,-0.75949 -0.003,-1.03872 -0.0267,-0.0341 0.0262,-0.21729 -0.015,-0.41072 -0.0195,-0.0962 0.0134,-0.0933 -0.01,-0.22089 0.005,-0.0623 -0.005,-0.28301 -0.024,-0.0652 0.0105,-0.31385 -0.0334,-1.32551 -0.0403,-1.26334 0.0177,-0.40703 -0.015,-0.41074 -0.0292,-0.28669 0.004,-0.0312 0.0136,-0.12421 -0.0241,-0.60057 -0.01,-0.22091 0.0177,-0.40717 -0.024,-0.0652 0.0195,-0.15507 -0.015,-0.41083 -0.007,-0.47279 -0.0168,-0.12778 0.0177,-0.40718 -0.0312,-0.004 0.009,-0.62806 -0.0226,-0.8836 -0.007,-0.75584 -0.003,-0.50385 -0.028,-1.10449 0.004,-0.0312 -0.0419,-2.05023 0.016,-0.37602 -0.0266,-0.0344 0.0124,-0.34505 z"
       id="IL-15"
       style="font-style:normal;font-weight:400;font-size:34.375px;font-family:'MS Shell Dlg 2';opacity:1;fill:none;fill-opacity:1;fill-rule:evenodd;stroke:#000000;stroke-width:0.33333385;stroke-linecap:square;stroke-linejoin:bevel;stroke-miterlimit:4;stroke-dasharray:none;stroke-opacity:1" />
    <path
       inkscape:connector-curvature="0"
       d="m 170.94156,484.91512 -0.25555,0.0331 -0.0961,0.0196 -0.18976,0.01 -0.18996,0.01 -0.41072,0.015 -0.221,0.01 -0.22088,0.01 -0.28315,0.005 -0.15507,-0.0195 -0.25203,0.009 -0.87993,-0.012 -0.65906,-0.0125 -0.97307,-0.0219 -0.0623,-0.005 -1.00773,0.007 -0.0312,-0.004 -0.40709,-0.0177 -0.15875,0.0124 -0.12781,0.0168 -0.0933,-0.0134 -0.1242,-0.0136 -0.0962,0.0196 -0.0311,-0.004 -0.0622,-0.005 -0.0932,-0.0134 -0.0653,0.0241 -0.0622,-0.005 -0.0624,-0.005 -0.0961,0.0194 -0.0623,-0.005 -0.0622,-0.005 -0.18986,0.01 -0.40707,-0.0177 -0.376,-0.0161 -0.0654,0.024 -0.0932,-0.0134 -0.096,0.0195 -0.59336,-0.0377 -0.1278,0.0169 -0.0622,-0.005 -0.62807,-0.009 -0.60058,0.0244 -0.0312,-0.004 -0.40715,-0.0177 -0.0653,0.0241 -0.24833,-0.028 -0.59702,-0.007 -1.47697,-0.0184 -0.0932,-0.0134 -0.72472,0.009 0.12872,5.33261 c 0.62309,0.0485 1.24235,0.21114 1.86948,0.15667 0.42166,-0.0606 0.50469,-0.53357 0.5438,-0.88017 0.25002,-0.3165 0.75725,-0.13076 1.11548,-0.1207 0.7998,0.13273 1.61041,0.23289 2.41723,0.31543 0.17041,0.0191 0.40251,0.0359 0.58598,0.0999 0.18362,0.0635 0.31055,0.18327 0.26307,0.43988 -0.0383,0.42405 -0.26663,0.88756 -0.0237,1.28709 0.35047,0.3826 0.96505,0.18115 1.35648,0.50545 0.20812,0.12216 0.23394,0.35636 0.15533,0.55315 -0.0784,0.19686 -0.27434,0.34535 -0.48197,0.35246 -0.43276,0.0338 -0.87191,-0.22154 -1.28709,-0.0237 -0.29073,0.27384 -0.23523,0.73476 -0.28639,1.09909 -0.006,0.23095 0.0265,0.4581 0.10956,0.67368 l -1.73248,0.0171 0.004,-1.63579 -10.69644,0.25377 0.10357,7.68959 1.19407,0.0132 -0.13016,9.67595 -4.79049,0.0664 0.011,11.95797 11.22217,0.091 0.0219,1.41848 6.05382,-0.10691 0.0391,4.75573 2.33315,-0.04 0.22358,5.06065 7.15102,-0.0725 0.46624,3.79905 2.53033,-0.11175 0.0506,6.2675 2.41531,0.0626 -0.0882,-3.53445 5.03513,-0.006 0.0806,0.92197 12.60598,-0.43852 0.005,-0.0622 -0.0444,-1.23235 -0.002,-0.81792 -0.0176,-0.37973 -0.0169,-0.1278 -0.009,-0.72471 -0.0317,-0.5386 0.009,-0.62808 -0.0546,-1.13914 -0.0334,-1.32546 -0.022,-0.34873 -0.005,-0.28302 -0.003,-0.5039 -0.0104,-0.44177 -0.0162,-0.66277 -0.0112,-0.97665 -0.0241,-0.0651 0.0105,-0.31395 -0.0149,-0.41081 0.004,-0.0311 -0.0488,-0.38338 0.0345,-0.0267 -0.0292,-0.28667 0.004,-0.0312 0.0136,-0.12422 0.004,-0.0311 -0.0443,-0.69743 -0.01,-0.22088 -0.0281,-1.10457 -0.0104,-0.44179 -0.006,-0.28315 -15.3554,0.80778 -0.31504,-5.88945 5.08812,-0.18899 -0.14502,-4.92557 -2.49572,0.0845 -0.0164,-1.19751 0,0 -0.0236,-1.13556 -1.22863,0.0134 0,0 -8.5495,0.19132 -0.19066,-4.80508 -2.27842,0.10995 -0.22824,-10.91369 2.69831,0.0654 -0.0719,-3.94153 -2.585,0.0425 -0.10576,-9.54622 z"
       id="IL-16"
       style="font-style:normal;font-weight:400;font-size:34.375px;font-family:'MS Shell Dlg 2';opacity:1;fill:none;fill-opacity:1;fill-rule:evenodd;stroke:#000000;stroke-width:0.33333385;stroke-linecap:square;stroke-linejoin:bevel;stroke-miterlimit:4;stroke-dasharray:none;stroke-opacity:1" />
    <path
       inkscape:connector-curvature="0"
       d="m 118.68963,537.04989 15.83029,0.50645 -0.36132,12.44912 5.63398,0.25279 c 0.0202,-0.32529 0.10192,-0.57643 0.24638,-0.75764 0.14421,-0.18131 0.338,-0.30577 0.55128,-0.40726 0.42637,-0.20303 0.9328,-0.3009 1.29426,-0.5717 0.0244,-0.624 0.31484,-1.12627 0.60037,-1.62845 0.28547,-0.50235 0.5726,-1.00184 0.56933,-1.63236 0.11851,-0.61081 0.51259,-0.9923 0.97456,-1.33279 0.46211,-0.34062 0.97556,-0.63591 1.32169,-1.07191 0.58296,-0.13966 0.89592,-0.65243 1.22844,-1.08287 0.16624,-0.21519 0.34168,-0.40945 0.56584,-0.53131 0.22417,-0.12184 0.49744,-0.17006 0.85983,-0.0878 1.28196,0.37429 2.59161,0.51919 3.91978,0.64923 0.27901,-0.1567 0.43046,-0.36427 0.51474,-0.63173 0.0848,-0.26749 0.11174,-0.57804 0.10608,-0.90002 -0.0125,-0.64413 -0.097,-1.34472 0.15666,-1.86951 0.29212,-0.4974 0.3153,-1.07535 0.37947,-1.6231 0.0641,-0.54779 0.15427,-1.08262 0.58217,-1.47346 -0.0863,-0.37572 -0.67916,-0.81839 -1.23253,-1.02581 -0.2767,-0.10378 -0.53267,-0.15497 -0.71392,-0.0837 -0.18115,0.0715 -0.28402,0.26813 -0.22807,0.60253 0.20193,0.20897 0.31466,0.39872 0.33781,0.60615 0.0226,0.20731 -0.0491,0.41414 -0.16234,0.5787 -0.22531,0.32917 -0.67392,0.54711 -1.1866,0.4584 -0.21257,0.12877 -0.27689,0.21425 -0.2573,0.31593 0.0191,0.10164 0.12144,0.1937 0.25011,0.28109 0.25735,0.17482 0.60952,0.34334 0.56603,0.53855 l -6.72568,-0.0665 0.0105,-14.81873 2.6708,0.0325 -0.011,-11.95795 4.79046,-0.0665 0.13018,-9.67591 -1.19413,-0.0132 -0.1035,-7.68964 10.69645,-0.25376 -0.004,1.63577 1.73249,-0.0171 c -0.0825,-0.21558 -0.12297,-0.4429 -0.10954,-0.67369 0.0502,-0.3644 -0.006,-0.82526 0.28638,-1.09911 0.41511,-0.19618 0.8543,0.0594 1.28706,0.0237 0.20766,-0.01 0.40332,-0.15561 0.48202,-0.35249 0.0782,-0.19675 0.0533,-0.43091 -0.15535,-0.55308 -0.39139,-0.32437 -1.00598,-0.12334 -1.35646,-0.50555 -0.24136,-0.39944 -0.0149,-0.86309 0.0237,-1.28704 0.047,-0.25662 -0.0793,-0.37603 -0.26308,-0.4399 -0.1835,-0.0636 -0.41563,-0.0803 -0.58603,-0.0999 -0.80675,-0.0823 -1.61736,-0.18297 -2.41719,-0.31544 -0.35822,-0.013 -0.86546,-0.19582 -1.11545,0.12067 -0.0386,0.34666 -0.1222,0.82016 -0.54384,0.88016 -0.62713,0.0543 -1.24636,-0.1087 -1.86948,-0.15671 l -0.12871,-5.33265 -0.40713,-0.0177 -0.0312,-0.004 -0.0311,-0.004 -0.0311,-0.004 -1.2251,-0.0164 -0.18988,0.01 -0.59694,-0.007 -0.87992,-0.012 -0.22098,0.01 -0.0933,-0.0134 -0.0622,-0.005 -0.25202,0.009 -0.12417,-0.0136 -0.0312,-0.004 -0.0312,-0.004 -0.22095,0.01 -0.62802,-0.009 -0.12422,-0.0136 -0.37598,-0.0162 -0.44183,0.0105 -0.0933,-0.0134 -0.53483,6e-5 -0.31394,-0.0106 -0.15514,-0.0195 -0.18981,0.01 -0.37974,0.0176 -0.22096,0.01 -0.28308,0.007 -0.12418,-0.0136 -0.0312,-0.004 -0.75582,0.007 -1.85662,0.003 -0.40713,-0.0177 -0.0312,-0.004 -0.12782,0.0169 -0.0311,-0.004 -0.21724,-0.0262 -0.41069,0.0148 -0.24838,-0.0279 -0.0311,-0.004 -0.31402,-0.0106 -0.0653,0.0241 -0.0312,-0.004 -1.12823,-0.039 -0.0312,-0.004 -0.25202,0.009 -0.15508,-0.0195 -0.0344,0.0265 -0.18995,0.01 -0.78319,-0.0286 -0.47287,0.007 -0.34499,-0.0124 -0.25201,0.009 -0.096,0.0194 -0.0933,-0.0134 -0.0623,-0.005 -0.31394,-0.0106 -0.0653,0.0241 -0.56592,-0.004 -0.0311,-0.004 -0.31404,-0.0105 -0.0311,-0.004 -0.0933,-0.0134 -0.60059,0.0238 -0.0312,-0.004 -0.0932,-0.0134 -1.13554,0.0235 -0.0934,-0.0134 -0.0623,-0.005 -0.66267,0.016 -0.0622,-0.005 -0.4381,-0.0212 -0.22099,0.01 -0.78681,0.004 -0.0934,-0.0134 -0.15505,-0.0195 -0.0962,0.0195 -0.8489,-0.002 -0.24838,-0.028 -0.15887,0.0124 -0.0932,-0.0134 -0.18987,0.01 -0.5002,-0.028 -0.41076,0.015 -0.12418,-0.0136 -0.0624,-0.005 -0.37602,-0.0161 -0.0651,0.024 -0.0312,-0.004 -0.15697,0.26474 -0.18074,0.19899 -0.005,0.0623 0.0125,0.15891 0.048,0.13143 0.16436,0.20801 0.0862,0.0736 0.0312,0.004 0.34327,0.29203 0.35424,0.19888 0.33403,0.10233 0.11685,0.0765 0.0312,0.004 0.0268,0.0337 0.24465,0.0598 0.0577,0.0383 0.0552,0.0694 0.10956,0.13872 0.0168,0.12779 0.01,0.22099 0.0241,0.0652 0.0552,0.0694 0.14781,0.081 0.6263,0.29377 0.20627,0.11868 0.089,0.042 -0.004,0.0312 0.0311,0.004 0.0267,0.0344 0.0863,0.0733 0.10958,0.13874 0.0312,0.004 0.0551,0.0695 0.0623,0.005 0.0623,0.005 0.0623,0.005 0.0312,0.004 0.0551,0.0693 0.0819,0.10413 0.024,0.0652 -0.004,0.0312 0.0792,0.1351 -0.004,0.0311 0.0311,0.004 0.0267,0.0337 0.0551,0.0695 0.14057,0.14228 0.14795,0.0809 0.0267,0.0344 0.0311,0.004 -0.004,0.0312 0.0507,0.10043 0.20454,0.40157 0.0266,0.0344 0.0863,0.0731 0.0862,0.0732 0.0553,0.0693 0.055,0.0695 -0.005,0.0622 -0.005,0.0624 -0.004,0.0311 -0.0693,0.0551 -0.0384,0.0578 0.048,0.13142 -0.0195,0.15507 -0.0525,0.1827 -0.0136,0.12419 -0.004,0.0311 -0.0384,0.0579 -0.0344,0.0267 -0.0455,0.12047 -0.0383,0.0577 -0.004,0.0312 0.0168,0.12782 0.0946,0.26282 -0.004,0.0312 0.0267,0.0337 0.0437,0.16243 -0.004,0.0312 0.0745,0.16617 0.0268,0.0344 0.0268,0.0337 0.0265,0.0344 0.0863,0.073 0.22276,0.24648 0.0748,0.16605 0.0506,0.10063 -0.004,0.0311 0.0819,0.10412 0.31227,0.28841 0.20628,0.11858 0.11687,0.0765 0.0551,0.0694 0.40341,0.0473 0.21002,0.0882 0.1954,0.21172 0.0311,0.004 0.0311,0.004 0.17903,0.0837 0.089,0.0423 0.0889,0.0425 0.0312,0.004 0.31946,0.22629 0.26843,0.12599 0.27574,0.0642 0.12421,0.0136 0.29568,0.16057 0.23008,0.18431 0.17901,0.0838 0.1442,0.11133 0.0195,0.096 0.0312,0.004 -0.0134,0.0933 0.0268,0.0337 0.0123,0.15888 0.0676,0.22817 0.0862,0.0733 0.0578,0.0384 0.089,0.0425 0.0622,0.005 0.34505,0.0124 0.0863,0.0729 0.0747,0.16615 0.0241,0.0653 0.0168,0.12778 -0.005,0.0624 0.0266,0.0339 -0.0134,0.0933 -0.005,0.0622 -0.004,0.0312 -0.005,0.0623 -0.0134,0.0934 -0.004,0.0311 -0.0134,0.0933 -0.004,0.0311 -0.004,0.0311 -0.10233,0.33415 0.0559,0.32127 -0.004,0.0312 0.01,0.22091 -0.0136,0.12421 0.0363,0.22449 -0.004,0.0312 0.0268,0.0343 0.0863,0.0728 0.10955,0.13874 0.0552,0.0696 -0.004,0.0311 0.024,0.065 0.0168,0.12784 0.027,0.0344 -0.004,0.0311 0.0506,0.10062 0.0268,0.0338 0.0241,0.0652 0.0507,0.10045 0.0123,0.15884 0.01,0.2209 -0.11859,0.20638 -0.0207,0.18631 -0.0423,0.0889 -0.1113,0.14424 -0.0346,0.0267 -0.0499,0.15151 -0.0836,0.17891 -0.0499,0.15158 -0.0207,0.1862 0.0196,0.0961 0.079,0.13509 0.0862,0.0731 0.0241,0.065 0.0551,0.0694 0.024,0.0654 -0.005,0.0623 -0.044,0.37241 0.0124,0.15887 -0.004,0.0311 -0.005,0.0623 -0.004,0.0312 -0.0881,0.20993 -0.14056,0.39256 -0.0337,0.0266 -0.004,0.0311 -0.0425,0.089 -0.0384,0.0578 -0.0195,0.15516 -0.004,0.0311 -0.0384,0.0579 -0.004,0.0312 -0.004,0.0311 -0.004,0.0311 0.01,0.18996 -0.0454,0.12054 -0.0422,0.0889 -0.0343,0.0267 -0.004,0.0311 -0.0384,0.0579 -0.004,0.0312 -0.005,0.0622 -0.004,0.0312 -0.0455,0.12047 -0.004,0.0312 -0.0134,0.0933 0.0196,0.096 0.0408,0.19362 0.0254,0.31753 -0.005,0.0623 -0.0384,0.0577 -0.10761,0.11321 -0.35963,0.11513 -0.0345,0.0267 -0.0312,-0.004 -0.0344,0.0265 -0.16243,0.0436 -0.10409,0.0817 -0.4399,0.26311 -0.13871,0.10955 -0.2009,0.10224 -0.10765,0.1132 -0.3286,0.11866 -0.0345,0.0267 -0.46189,0.44918 -0.1533,0.2337 -0.11858,0.20639 -0.0195,0.15504 -0.0207,0.18642 0.0168,0.12777 0.0677,0.22816 -0.005,0.0623 0.0311,0.004 -0.0134,0.0933 -0.005,0.0622 -0.005,0.0624 -0.004,0.0311 -0.005,0.0623 -0.004,0.0312 -0.0341,0.0266 -0.0384,0.0578 -0.004,0.0312 -0.004,0.0311 -0.0312,-0.004 -0.23908,0.16067 -0.0385,0.0579 -0.004,0.0312 -0.0311,-0.004 -0.004,0.0312 -0.004,0.0312 -0.004,0.0311 -0.0134,0.0933 -0.0136,0.1242 -0.0195,0.15505 -0.0597,0.24464 -0.091,0.24098 -0.004,0.0311 -0.005,0.0624 0.0196,0.096 0.0345,0.50751 0.01,0.22089 0.0195,0.0961 0.022,0.34875 -0.005,0.0621 -0.0454,0.12052 -0.005,0.0624 -0.0383,0.0578 -0.16985,0.10591 -0.26655,0.12608 -0.13143,0.048 -0.19353,0.0409 -0.0311,-0.004 -0.35968,0.11509 -0.16971,0.10597 -0.13874,0.10951 -0.0695,0.055 -0.0808,0.14797 -0.0425,0.0889 -0.0694,0.0552 -0.0345,0.0266 -0.0312,-0.004 -0.10044,0.0507 -0.0384,0.0578 -0.0766,0.11684 -0.1114,0.14419 -0.004,0.0312 -0.0346,0.0267 -0.0727,0.0862 -0.0732,0.0862 -0.21176,0.19541 -0.26288,0.0946 -0.0651,0.024 -0.2556,0.0333 -0.21727,-0.0262 -0.004,0.0311 -0.0311,-0.004 -0.0265,-0.0344 -0.21727,-0.0262 -0.42357,-0.14419 -0.0932,-0.0134 -0.0579,-0.0383 -0.0961,0.0195 -0.22452,0.0363 -0.0312,-0.004 -0.004,0.0312 -0.0345,0.0266 -0.16971,0.10597 -0.004,0.0311 -0.0962,0.0196 -0.034,0.0269 -0.0623,-0.005 -0.096,0.0195 -0.0312,-0.004 -0.0652,0.024 -0.0961,0.0196 -0.0337,0.0268 -0.0694,0.0551 -0.0312,-0.004 -0.14236,0.14067 -0.028,0.24835 -0.0423,0.0889 -0.0695,0.0552 -0.18076,0.19898 -0.27017,0.15703 -0.0311,-0.004 -0.0311,-0.004 -0.14601,0.17165 -0.21548,0.22642 -0.10404,0.0818 -0.22451,0.0365 -0.0624,-0.005 -0.15879,0.0125 -0.32858,0.11866 -0.19352,0.041 -0.48019,0.0701 -0.29021,0.0603 -0.28302,0.005 -0.43457,-0.052 -0.0311,-0.004 -0.0934,-0.0134 -0.0932,-0.0134 -0.0932,-0.0134 -0.46561,-0.0544 -0.34502,-0.0124 -0.24837,-0.028 -0.0311,-0.004 -0.0623,-0.005 -0.0961,0.0195 -0.0312,-0.004 -0.0312,-0.004 -0.12781,0.0169 -0.0693,0.0552 -0.0653,0.024 -0.0344,0.0268 -0.1041,0.0818 -0.065,0.0241 -0.0345,0.0266 -0.0694,0.055 -0.10414,0.0818 -0.2391,0.16072 -0.0312,-0.004 -0.16972,0.10594 -0.0345,0.0268 -0.13146,0.0478 -0.23187,0.0987 -0.10063,0.0508 -0.0337,0.0266 -0.065,0.024 -0.0312,-0.004 -0.43074,-0.0822 -0.0624,-0.005 -0.29566,-0.1606 -0.14428,-0.1114 -0.0312,-0.004 -0.0311,-0.004 -0.0311,-0.004 -0.0312,-0.004 -0.0312,-0.004 -0.065,0.0241 -0.0312,-0.004 -0.0694,0.0551 -0.0311,-0.004 -0.33235,0.14975 -0.065,0.0241 -0.0654,0.024 -0.18976,0.01 -0.12778,0.0169 -0.16618,0.0746 -0.0345,0.0268 -0.065,0.0241 -0.0734,0.0862 -0.0344,0.0267 -0.0341,0.0266 -0.0425,0.089 -0.0195,0.1551 -0.0195,0.15504 -0.0262,0.21725 -0.0136,0.12421 -0.005,0.0623 -0.004,0.0312 -0.0766,0.11685 -0.034,0.0265 -0.0838,0.17893 -0.0765,0.11687 -0.0383,0.0578 -0.004,0.0311 -0.0207,0.18638 -0.0928,0.5239 -0.0207,0.18632 -0.0348,0.5623 -0.0262,0.21726 -0.0766,0.11686 -0.18065,0.19898 -0.0838,0.17891 -0.0341,0.0265 -0.004,0.0312 -0.18616,0.51305 -0.081,0.14785 -0.11497,0.17528 -0.11506,0.17528 0.0194,0.0961 0.0169,0.12778 0.0241,0.0652 0.055,0.0695 -0.004,0.0311 0.17173,0.14605 0.16062,0.23918 0.2575,0.21888 0.16433,0.20824 0.16437,0.20799 0.10225,0.20088 0.0507,0.10045 0.0819,0.10405 0.28304,0.53668 0.20988,0.0882 0.0624,0.005 0.25926,-0.0639 0.0311,0.004 0.0311,0.004 0.0312,0.004 0.0312,0.004 0.0346,-0.0266 0.0311,0.004 -0.004,0.0311 0.0933,0.0134 0.0863,0.0731 0.0889,0.0424 0.0241,0.065 0.0266,0.0344 0.0265,0.0344 0.0241,0.0651 0.0747,0.16619 0.0267,0.0341 0.0266,0.0345 0.024,0.0652 0.024,0.0652 0.0579,0.0384 0.15694,0.27016 0.0915,0.29396 0.10955,0.13873 0.0508,0.10045 0.16059,0.23913 0.0508,0.10063 0.024,0.0652 0.024,0.0652 -0.0641,0.27566 -0.0105,0.31392 -0.005,0.0623 -0.004,0.0311 0.0676,0.22824 0.0293,0.28658 0.0196,0.0961 0.005,0.28302 0.0196,0.0961 -0.0195,0.15506 -0.0641,0.27572 0.01,0.22092 -0.0195,0.15516 -0.0667,0.30675 -0.12238,0.23733 -0.004,0.0311 -0.0807,0.14795 0.0194,0.096 0.0409,0.19359 0.0675,0.22815 0.0196,0.096 -0.0136,0.12419 -0.0426,0.089 -0.0525,0.1826 -0.0341,0.0268 -0.0571,0.21355 -0.0668,0.30673 -0.0419,0.0889 -0.0735,0.0862 -0.22812,0.0675 -0.13873,0.10957 -0.26652,0.12606 -0.0312,-0.004 -0.0348,0.0267 -0.0341,0.0268 -0.0342,0.0267 -0.0384,0.0579 -0.0694,0.055 -0.0344,0.0267 -0.0349,0.0267 -0.004,0.0311 -0.004,0.0312 -0.0346,0.0267 -0.005,0.0623 -0.073,0.0863 -0.0838,0.17883 -0.10765,0.11322 -0.004,0.0312 -0.0312,-0.004 -0.16969,0.10593 -0.065,0.0241 -0.0384,0.0577 -0.0383,0.0579 -0.0342,0.0266 -0.0456,0.12048 -0.0837,0.17896 -0.12596,0.26844 -0.0383,0.0577 -0.20077,0.10228 -0.21906,0.25752 -0.004,0.0312 -0.27382,0.18804 -0.0383,0.0579 -0.0384,0.0578 -0.004,0.0312 -0.0525,0.18248 -0.004,0.0312 -0.004,0.0312 -0.004,0.0311 -0.004,0.0312 -0.0134,0.0933 -0.004,0.0311 -0.005,0.0624 0.0791,0.13512 0.0195,0.096 0.0266,0.0343 -0.004,0.0311 -0.004,0.0312 -0.004,0.0312 0.0266,0.0344 -0.005,0.0622 -0.0136,0.12422 -0.004,0.0312 -0.004,0.0312 -0.004,0.0311 -0.004,0.0311 -0.0134,0.0933 -0.0384,0.0579 -0.0195,0.15516 -0.0731,0.0862 -0.0838,0.17892 -0.0731,0.0863 -0.0421,0.0889 -0.004,0.0312 -0.0455,0.12047 -0.1095,0.39614 -0.0207,0.1863 0.0195,0.096 0.0267,0.0344 0.056,0.32131 -0.0195,0.15508 -0.0207,0.18634 -0.0764,0.1169 -0.0856,0.46185 -0.0426,0.0889 -0.0383,0.0579 -0.004,0.0311 -0.31205,0.24648 -0.36698,0.17718 -0.10412,0.0818 -0.50926,0.31775 z"
       id="IL-17"
       style="font-style:normal;font-weight:400;font-size:34.375px;font-family:'MS Shell Dlg 2';opacity:1;fill:none;fill-opacity:1;fill-rule:evenodd;stroke:#000000;stroke-width:0.33333385;stroke-linecap:square;stroke-linejoin:bevel;stroke-miterlimit:4;stroke-dasharray:none;stroke-opacity:1" />
    <path
       inkscape:connector-curvature="0"
       d="m 123.55005,572.01195 6.80419,0.20162 0.91584,-3.51083 22.7567,-0.0641 0.19811,-2.49394 -1.20489,0.0787 -0.11187,-2.5303 c -0.18039,-0.0404 -0.41242,-0.0198 -0.62432,-0.0425 -0.21171,-0.0242 -0.40075,-0.0961 -0.46379,-0.33771 -0.003,-0.14789 0.0554,-0.34779 0.0591,-0.49653 0.001,-0.14875 -0.068,-0.27074 -0.31218,-0.28838 -0.18504,-0.0228 -0.40295,-0.0514 -0.54772,-0.15872 -0.14477,-0.10716 -0.20618,-0.27301 -0.0346,-0.50751 0.1718,-0.28823 0.0801,-0.46591 -0.0854,-0.60797 -0.16625,-0.14206 -0.40155,-0.25106 -0.51858,-0.40711 0.18741,-0.44383 0.40991,-0.94954 0.89073,-1.15393 0.17331,-0.17668 0.36961,-0.2517 0.56049,-0.21728 0.19078,0.0339 0.35034,0.17548 0.45648,0.39977 0.34494,0.39776 0.43741,0.99143 0.85096,1.32706 0.33315,0.20868 0.78026,0.25176 0.99683,0.62052 0.13805,0.26735 0.37434,0.38481 0.63916,0.45267 0.26467,0.0685 0.54973,0.0769 0.81418,0.0314 0.70274,-0.10682 1.39817,0.0645 2.09772,0.0895 0.56834,-0.0739 0.83536,-0.64866 1.30337,-0.9168 0.37899,-0.28725 0.74662,-0.60806 1.11346,-0.90748 0.29198,-0.0923 0.61037,0.0288 0.90741,0.0439 l -0.22516,-3.17298 1.68692,0.10398 -0.42454,-15.93967 3.05246,-0.2707 -0.22843,-1.53718 0.89999,0.10609 0.27856,6.19982 1.07542,0.22067 0.0131,0.69387 9.96616,0.0695 -0.0202,-3.30619 0,0 -0.0506,-6.26749 -2.53034,0.11174 -0.46624,-3.79903 -7.15101,0.0725 -0.22354,-5.06068 -2.33318,0.0401 -0.0391,-4.75571 -6.05379,0.10692 -0.0218,-1.41849 -11.2222,-0.091 0,0 -2.67085,-0.0325 -0.0104,14.81873 6.7257,0.0665 c 0.043,-0.19518 -0.3087,-0.36371 -0.56608,-0.53851 -0.1287,-0.0869 -0.23063,-0.17945 -0.25008,-0.28113 -0.0193,-0.10162 0.0442,-0.18715 0.25733,-0.31592 0.51262,0.0888 0.96123,-0.12921 1.18655,-0.45839 0.11268,-0.16458 0.18559,-0.37139 0.16232,-0.57872 -0.0224,-0.20739 -0.13588,-0.39718 -0.3378,-0.60614 -0.0556,-0.3344 0.0462,-0.53128 0.22809,-0.60251 0.18125,-0.0714 0.43716,-0.019 0.7139,0.0837 0.55337,0.20742 1.14627,0.6501 1.23253,1.02583 -0.42793,0.39085 -0.51803,0.92568 -0.58218,1.47344 -0.0644,0.54778 -0.0881,1.12567 -0.37946,1.62309 -0.25367,0.52479 -0.16884,1.22541 -0.15663,1.86951 0.003,0.32197 -0.0211,0.63252 -0.1061,0.90002 -0.0849,0.26744 -0.23573,0.47504 -0.5147,0.63174 -1.32825,-0.12948 -2.63782,-0.27498 -3.91985,-0.64923 -0.36237,-0.0816 -0.63566,-0.0338 -0.85983,0.0878 -0.22414,0.12187 -0.39959,0.31611 -0.56582,0.53131 -0.33247,0.43043 -0.64544,0.94321 -1.22842,1.08287 -0.34613,0.43597 -0.85959,0.73129 -1.32171,1.07191 -0.46196,0.34054 -0.85605,0.72195 -0.97452,1.33278 0.004,0.63053 -0.28391,1.13002 -0.56936,1.63235 -0.28553,0.50221 -0.57602,1.00444 -0.6004,1.62848 -0.36145,0.27077 -0.86784,0.36865 -1.29425,0.57169 -0.21327,0.10153 -0.407,0.22596 -0.55126,0.40729 -0.14432,0.18117 -0.2278,0.43226 -0.24637,0.75761 l -5.63398,-0.2528 0.36133,-12.4491 -15.83028,-0.50647 -0.0694,0.055 -0.0961,0.0196 -0.0622,-0.005 -0.0346,0.0267 -0.0623,-0.005 -0.4309,-0.0826 -0.22088,0.01 -0.40716,-0.0177 -0.12778,0.0168 -0.0346,0.0268 -0.0311,-0.004 -0.0337,0.0267 -0.0312,-0.004 -0.10045,0.0505 -0.004,0.0312 -0.0312,-0.004 -0.0312,-0.004 -0.19344,0.0409 -0.45285,0.10412 -0.0341,0.0267 -0.12783,0.0169 -0.0311,-0.004 -0.0342,0.0266 -0.0347,0.0267 -0.2975,0.12239 -0.20082,0.1023 -0.13507,0.0791 -0.065,0.0241 -0.13508,0.079 -0.13509,0.0791 -0.004,0.0311 -0.10773,0.11321 -0.11499,0.17539 -0.0384,0.0577 -0.1606,0.29588 -0.1223,0.23736 -0.065,0.024 -0.11137,0.14418 -0.31209,0.24657 -0.0766,0.11687 -0.0134,0.0933 -0.0136,0.12419 -0.0136,0.12423 0.0507,0.10043 0.0863,0.073 0.11687,0.0765 0.15508,0.0195 0.0552,0.0694 0.0551,0.0694 0.10592,0.16974 0.18814,0.27381 -0.004,0.0312 -0.004,0.0312 0.024,0.0648 0.0266,0.0344 -0.004,0.0312 0.0436,0.16242 -0.004,0.0311 0.024,0.0652 -0.0134,0.0933 -0.0134,0.0933 -0.0207,0.18637 -0.057,0.21357 -0.004,0.0312 -0.0312,-0.004 -0.004,0.0312 -0.0526,0.18257 -0.0425,0.0888 -0.0311,-0.004 -0.0455,0.12048 -0.0425,0.089 -0.0453,0.12048 -0.005,0.0623 -0.0134,0.0933 -0.004,0.0312 -0.0134,0.0933 0.0168,0.12781 -0.004,0.0312 -0.004,0.0312 0.0195,0.096 0.0266,0.0344 -0.004,0.0311 0.0195,0.0961 0.0986,0.23179 -0.004,0.0312 0.0124,0.15877 -0.0136,0.12421 0.0241,0.0652 -0.005,0.0623 -0.005,0.0623 -0.004,0.0312 -0.0571,0.21351 -0.0384,0.0578 -0.0311,-0.004 -0.0695,0.0551 -0.10044,0.0506 -0.004,0.0311 -0.0312,-0.004 -0.0311,-0.004 -0.0311,-0.004 -0.0344,0.0268 -0.0344,0.0268 -0.0622,-0.005 -0.0654,0.024 -0.28303,0.004 -0.065,0.0241 -0.0733,0.0862 -0.0694,0.0552 -0.0766,0.11685 -0.0694,0.055 -0.0961,0.0196 -0.10409,0.0817 -0.1351,0.0792 -0.004,0.0312 -0.0345,0.0267 -0.004,0.0312 -0.0346,0.0265 -0.0455,0.12052 -0.0311,-0.004 -0.005,0.0623 -0.10776,0.11322 -0.11498,0.17528 -0.0881,0.21001 -0.004,0.0311 -0.004,0.0312 -0.0979,0.30319 -0.0456,0.12046 -0.30107,0.68828 -0.0456,0.12051 -0.0425,0.089 -0.004,0.0312 -0.004,0.0312 -0.0343,0.0265 -0.0136,0.12421 -0.005,0.0623 -0.0195,0.15514 0.0434,0.1624 0.0241,0.0652 -0.005,0.0623 -0.12586,0.26835 -0.0346,0.0268 -0.005,0.0623 -0.0312,-0.004 -0.0341,0.0266 -0.0423,0.089 -0.0767,0.11682 -0.005,0.0623 -0.005,0.0623 0.0552,0.0694 -0.0262,0.21717 -0.0597,0.24467 0.01,0.18999 0.0196,0.096 0.0168,0.12775 0.0241,0.0653 -0.0384,0.0578 -0.004,0.0312 -0.0764,0.11686 -0.0384,0.0577 -0.0571,0.21365 -0.005,0.0623 0.0327,0.25559 0.0844,0.35591 -0.004,0.0312 -0.0883,0.20987 -0.004,0.0312 0.0195,0.096 -0.0134,0.0933 -0.0136,0.12419 0.0267,0.034 -0.005,0.0624 0.0195,0.096 -0.004,0.0312 -0.004,0.0311 0.0124,0.15878 0.0195,0.0961 0.0169,0.12779 0.0124,0.15877 0.0507,0.10064 -0.004,0.0311 0.0169,0.12779 0.0675,0.22826 0.0532,0.35237 0.0365,0.22451 0.0947,0.26288 -0.004,0.0312 0.024,0.0652 -0.0207,0.18637 -0.10951,0.39617 0.0507,0.10061 0.0265,0.0344 0.0676,0.22825 0.0266,0.0344 0.0819,0.1041 0.12233,0.29752 0.1772,0.36696 0.0124,0.15882 0.0196,0.0962 0.0241,0.0652 0.055,0.0695 0.0863,0.073 0.0986,0.23192 0.1059,0.1697 0.0436,0.16252 0.13332,0.20447 -0.004,0.0311 -0.004,0.0312 0.055,0.0694 0.0266,0.0345 0.0267,0.0341 0.0311,0.004 0.0551,0.0694 0.0266,0.0344 0.0266,0.0343 0.0311,0.004 0.0266,0.0347 0.0268,0.0344 0.024,0.0651 0.0311,0.004 0.0241,0.0652 0.0266,0.034 -0.004,0.0312 0.0267,0.0341 -0.004,0.0312 0.0194,0.0961 -0.005,0.0622 -0.004,0.0312 -0.004,0.0312 -0.0136,0.12419 -0.0342,0.0266 -0.004,0.0312 -0.14236,0.14062 -0.0341,0.0268 -0.15332,0.2337 -0.14601,0.17152 -0.0954,0.27208 -0.0195,0.15515 0.0364,0.22452 0.11139,0.39065 0.0718,0.19717 -0.005,0.0623 0.0266,0.0344 0.0265,0.0343 0.0508,0.10063 0.0506,0.10044 0.31955,0.22634 0.17894,0.0837 0.19897,0.18072 0.2337,0.15335 0.1754,0.11497 0.055,0.0694 0.16078,0.2392 0.0987,0.23177 0.0479,0.13145 -0.005,0.0623 -0.0423,0.0889 -0.0422,0.0889 -0.0136,0.12421 -0.004,0.0312 -0.004,0.0312 0.01,0.22102 0.0124,0.15876 -0.0134,0.0933 -0.0384,0.0578 -0.0597,0.24466 -0.0124,0.34506 0.024,0.0652 0.0267,0.0345 0.0818,0.104 0.13697,0.17346 0.0551,0.0694 0.0266,0.0344 0.0818,0.104 0.0863,0.0736 0.19896,0.18063 0.0862,0.0734 0.0312,0.004 0.25748,0.21904 0.25741,0.21901 0.0266,0.0345 0.0267,0.0344 0.0241,0.0652 -0.004,0.0312 0.0311,0.004 0.17164,0.14604 0.23737,0.12216 0.14428,0.11132 0.18806,0.27379 0.0312,0.004 0.10223,0.20091 0.0818,0.10403 0.17164,0.146 0.0507,0.10054 0.0241,0.0653 0.0266,0.034 0.0507,0.10053 0.25385,0.25005 0.14421,0.11127 0.14784,0.0811 0.66101,0.26634 0.0862,0.073 0.0791,0.13508 0.0792,0.13511 -0.004,0.0311 0.0605,0.29023 0.022,0.34874 0.0481,0.13148 0.0746,0.16602 0.1059,0.16984 0.0267,0.034 0.0818,0.10399 0.0862,0.0733 0.0312,0.004 0.49294,0.09 0.21714,0.0262 0.0312,0.004 0.30308,0.0981 0.15703,0.27018 0.14981,0.33216 0.12593,0.26649 0.10957,0.13873 0.0863,0.0732 0.13694,0.17334 0.0223,0.34877 0.01,0.22089 0.0792,0.13511 0.0265,0.0344 0.0792,0.13509 0.0311,0.004 -0.004,0.0311 0.0266,0.0344 0.0267,0.0344 0.0266,0.0343 0.0266,0.034 0.22279,0.24647 0.0265,0.0341 0.0552,0.0694 0.0889,0.0425 0.0551,0.0693 0.0311,0.004 0.0579,0.0384 0.23003,0.18439 0.20266,0.14966 0.20259,0.14965 0.21368,0.057 0.14782,0.081 0.0818,0.10402 0.11684,0.0767 0.0311,0.004 0.18267,0.0526 0.18247,0.0525 0.0312,0.004 0.0267,0.0344 0.0889,0.0425 0.0267,0.0344 0.0578,0.0383 0.0267,0.0341 -0.004,0.0312 0.0266,0.034 z"
       id="IL-18"
       style="font-style:normal;font-weight:400;font-size:34.375px;font-family:'MS Shell Dlg 2';opacity:1;fill:none;fill-opacity:1;fill-rule:evenodd;stroke:#000000;stroke-width:0.33333385;stroke-linecap:square;stroke-linejoin:bevel;stroke-miterlimit:4;stroke-dasharray:none;stroke-opacity:1" />
  </g>
</svg>
