<?xml version="1.0" encoding="UTF-8" standalone="no"?>
<!-- Created with Inkscape (http://www.inkscape.org/) -->

<svg
   xmlns:dc="http://purl.org/dc/elements/1.1/"
   xmlns:cc="http://creativecommons.org/ns#"
   xmlns:rdf="http://www.w3.org/1999/02/22-rdf-syntax-ns#"
   xmlns:svg="http://www.w3.org/2000/svg"
   xmlns="http://www.w3.org/2000/svg"
   xmlns:sodipodi="http://sodipodi.sourceforge.net/DTD/sodipodi-0.dtd"
   xmlns:inkscape="http://www.inkscape.org/namespaces/inkscape"
   width="16.994648mm"
   height="18.941257mm"
   viewBox="0 0 60.217253 67.114695"
   id="svg3885"
   version="1.1"
   inkscape:version="0.91 r"
   sodipodi:docname="6.svg">
  <defs
     id="defs3887" />
  <sodipodi:namedview
     id="base"
     pagecolor="#ffffff"
     bordercolor="#666666"
     borderopacity="1.0"
     inkscape:pageopacity="0.0"
     inkscape:pageshadow="2"
     inkscape:zoom="6.4033046"
     inkscape:cx="25.873053"
     inkscape:cy="78.378538"
     inkscape:document-units="px"
     inkscape:current-layer="layer1"
     showgrid="false"
     inkscape:window-width="2560"
     inkscape:window-height="1388"
     inkscape:window-x="0"
     inkscape:window-y="0"
     inkscape:window-maximized="1"
     fit-margin-top="3"
     fit-margin-left="3"
     fit-margin-right="3"
     fit-margin-bottom="3" />
  <metadata
     id="metadata3890">
    <rdf:RDF>
      <cc:Work
         rdf:about="">
        <dc:format>image/svg+xml</dc:format>
        <dc:type
           rdf:resource="http://purl.org/dc/dcmitype/StillImage" />
        <dc:title></dc:title>
      </cc:Work>
    </rdf:RDF>
  </metadata>
  <g
     inkscape:label="Layer 1"
     inkscape:groupmode="layer"
     id="layer1"
     transform="translate(-167.47625,-408.16739)">
    <path
       inkscape:connector-curvature="0"
       d="m 216.82614,426.63647 0.52371,6.09112 -3.74334,-0.2319 0.1407,-0.99203 -2.68469,-2.53094 0.29004,2.68728 -0.75259,0.004 0.004,0.75258 -1.2847,-0.007 c 0.009,0.15653 0.0213,0.81966 0.0273,0.84851 0.0669,0.32457 0.12557,0.48074 0.42811,0.53524 0.19822,0.30362 -0.006,0.71481 0.23299,1.02142 0.1354,0.45145 0.47275,0.78778 0.8587,1.03934 0.31957,0.32284 0.55874,0.75049 0.75529,1.15656 0.31336,0.19377 0.32672,0.56062 0.43225,0.88039 0.17011,0.29363 0.32337,0.67847 0.65765,0.80408 0.36637,0.0758 0.7645,0.022 1.11418,0.18168 0.37049,0.0353 0.77113,0.16115 1.12887,-0.005 0.39149,-0.14114 0.8228,-0.0961 1.22731,-0.0603 l 0.55542,1.70508 0.13756,6.21747 c 0.13956,-0.036 0.25389,-0.17582 0.38857,-0.1575 0.35929,0.0487 0.63164,0.30489 0.62654,0.80164 0.0644,0.11418 0.1825,0.14987 0.23452,0.20653 0.052,0.0567 0.0533,0.14086 -0.14668,0.27058 -0.13314,0.30381 -0.0582,0.64923 0.14947,0.88948 0.2072,0.24011 0.53973,0.38036 0.85515,0.2867 0.46166,-0.62631 1.24685,-0.6286 1.72787,-1.24326 0.29873,-0.0103 0.57925,-0.076 0.76976,-0.22153 0.19047,-0.14542 0.28933,-0.37015 0.24565,-0.73298 -0.0143,-0.35132 0.20861,-0.62408 0.50003,-0.77567 0.29127,-0.15168 0.65057,-0.18474 0.94921,-0.11337 0.67526,0.0385 1.20878,-0.52323 1.75838,-0.83337 0.58106,-0.39984 0.71633,-1.14596 1.28258,-1.56043 0.11622,-0.14973 0.27534,-0.51718 0.43761,-0.78056 0.16228,-0.26346 0.34068,-0.42745 0.54673,-0.1764 -0.12967,0.41619 0.004,0.70015 0.24297,0.89683 0.2393,0.19668 0.57734,0.31802 0.91245,0.35391 0.4138,-0.11498 0.56347,-0.78284 1.07291,-0.88728 0.12083,-0.28342 0.31518,-0.57605 0.56224,-0.77079 0.24711,-0.19469 0.55218,-0.29311 0.89435,-0.21171 0.26379,-0.0582 0.53898,-0.1583 0.7985,-0.18793 0.25954,-0.0297 0.49949,0.022 0.76664,0.21707 0.17746,0.0239 0.30715,0.17203 0.48374,0.22615 l 0.20154,-0.17221 0.10088,-0.086 0.10332,-0.11727 0.21801,0.0174 0.21801,0.0175 0.0933,0.01 -0.009,0.12466 0.21809,0.0176 0.43929,-0.40428 0.01,-0.0933 0.22545,-0.0763 0.10322,-0.11728 0.41242,-0.0615 0.22536,-0.0763 0.10322,-0.11727 -0.0689,-0.31889 -0.0933,-0.01 0.01,-0.0934 -0.21812,-0.0176 -0.0934,-0.01 -0.01,0.0933 -0.12464,-0.009 -0.009,0.12465 -0.10079,0.086 -0.22538,0.0763 -0.10331,0.11726 -0.0934,-0.01 -0.12465,-0.009 0.009,-0.12464 -0.0932,-0.01 -0.20332,-0.20407 0.009,-0.12464 -0.0862,-0.10079 -0.0861,-0.1008 0.009,-0.12465 -0.12466,-0.009 0.01,-0.0935 -0.0862,-0.10078 -0.21797,-0.0175 -0.0934,-0.01 -0.0837,-0.13198 0.01,-0.0933 0.01,-0.0933 0.0175,-0.21807 0.01,-0.0933 0.009,-0.12464 0.01,-0.0934 -0.12465,-0.009 -0.17947,-0.10807 -0.20832,-0.14177 0.01,-0.0934 0.01,-0.0933 0.009,-0.12466 0.024,-0.31156 -0.0861,-0.10079 -0.11726,-0.10322 -0.18686,-0.014 0.0175,-0.21804 0.0175,-0.21807 0.01,-0.0933 0.0934,0.01 0.01,-0.0933 0.0933,0.01 0.12463,0.009 0.1107,-0.21071 -0.0861,-0.10078 0.009,-0.12464 -0.11725,-0.10322 0.0175,-0.21805 0.014,-0.18696 -0.177,-0.13933 -0.21076,-0.11059 0.01,-0.0933 -0.2181,-0.0174 -0.0836,-0.13196 -0.086,-0.10079 -0.10745,-0.22788 -0.1625,-0.32626 -0.10988,-0.19672 -0.16232,-0.32624 0.009,-0.12466 -0.12465,-0.009 0.014,-0.18698 0.12464,0.009 0.009,-0.12465 -0.0928,-0.41479 0.01,-0.0933 -0.0934,-0.01 0.009,-0.12463 0.014,-0.18697 0.0175,-0.21805 -0.20097,-0.23525 -0.17947,-0.10805 -0.12464,-0.009 -0.0764,-0.22544 -0.0861,-0.10078 -0.12463,-0.009 -0.0933,-0.01 -0.0861,-0.10078 0.0175,-0.21809 -0.12465,-0.009 0.01,-0.0933 -0.0933,-0.01 -0.0933,-0.01 -0.12466,-0.009 -0.18684,-0.014 0.009,-0.12466 -0.11726,-0.1032 -0.0934,-0.01 -0.0933,-0.01 -0.12463,-0.009 0.0175,-0.21806 -0.086,-0.10079 -0.0932,-0.01 -0.11726,-0.10321 0.0175,-0.21807 -0.0861,-0.1008 -0.0764,-0.22545 -0.11726,-0.10321 -0.0934,-0.01 -0.0933,-0.01 -0.12466,-0.009 -0.0934,-0.01 0.009,-0.12463 0.0933,0.01 0.01,-0.0933 -0.0861,-0.10081 -0.21811,-0.0175 0.009,-0.12465 0.01,-0.0933 0.12466,0.009 0.0935,0.01 0.10088,-0.086 -0.0838,-0.13199 -0.0933,-0.01 -0.13445,0.11481 -0.0933,-0.01 0.009,-0.12464 0.01,-0.0933 -0.0763,-0.22541 0.01,-0.0933 -0.11729,-0.10321 -0.0934,-0.01 -0.0933,-0.01 0.009,-0.12465 0.01,-0.0932 0.01,-0.0933 0.009,-0.12465 -0.12465,-0.009 0.014,-0.18697 0.009,-0.12462 0.01,-0.0933 -0.0935,-0.01 0.01,-0.0935 0.11789,-0.30418 -0.0763,-0.22542 -0.0763,-0.22542 -0.20343,-0.2041 -0.0933,-0.01 -0.12463,-0.009 -0.18688,-0.014 -0.12464,-0.009 -3.61703,0.15419 -6.48835,-1.20028 z m 20.01844,17.28014 -0.32869,0.19357 -0.12528,0.39765 0.16964,0.23278 -0.0241,0.31154 -0.10816,0.17959 -1.22628,0.84387 -0.51564,0.17884 -0.23518,0.20093 0.19349,0.3287 0.0444,0.6304 -0.25002,0.38785 0.0928,0.41481 -0.25236,0.41899 0.0444,0.63043 -0.12528,0.39764 -0.42957,0.27966 -0.55408,0.26986 -0.63043,0.0442 -0.21077,-0.11058 -0.49843,-0.0394 -0.21801,-0.0174 -0.29438,-0.2426 -0.0934,-0.01 -0.58385,-0.54749 -0.11481,-0.13443 0.01,-0.0933 -0.0932,-0.01 -0.0615,-0.41234 0.009,-0.12463 0.014,-0.18696 0.19661,-0.10992 0.32634,-0.1624 0.22784,-0.10747 -0.20332,-0.20407 -0.17721,-0.13933 -0.33596,0.28702 -0.13442,0.1148 -0.64759,0.26251 -0.73127,0.13053 -0.31159,-0.024 -0.30418,-0.11789 -0.21077,-0.11056 -0.0837,-0.13198 -0.0786,-0.19428 -0.11483,-0.13443 -0.14778,-0.51318 -0.0689,-0.31888 c -0.16219,0.12118 -0.33296,0.23239 -0.54927,0.20756 -0.54715,-0.14069 -1.15971,-0.18297 -1.69446,0.0238 -0.34393,0.21487 -0.94476,-0.21344 -1.13869,0.12982 10e-4,0.22619 -0.18201,0.38786 -0.32702,0.56984 -0.14502,0.18196 -0.26831,0.35912 -0.1089,0.58702 0.073,0.26862 0.26732,0.36203 0.47148,0.38191 0.20414,0.0206 0.42983,-0.0331 0.62799,-0.0134 0.49265,0.17928 0.97544,0.43801 1.27836,0.88426 0.15383,0.0769 0.25728,0.37861 0.26484,0.61641 0.008,0.23782 -0.0836,0.41077 -0.3335,0.25589 -0.32354,-0.25182 -0.61296,-0.66298 -1.07984,-0.61788 -0.18032,0.0428 -0.41243,-0.026 -0.62307,-0.0491 -0.21057,-0.023 -0.4005,-0.0185 -0.48697,0.21245 8.4e-4,0.32542 -0.14592,0.48394 -0.36057,0.59856 -0.21467,0.11459 -0.48455,0.20571 -0.6574,0.38711 -0.24011,0.16516 -0.36274,0.39377 -0.42778,0.65596 -0.0652,0.26217 -0.0772,0.54683 -0.095,0.80754 -0.0254,0.1926 -0.004,0.46672 -0.054,0.68539 -0.0497,0.21864 -0.16445,0.36637 -0.43681,0.37314 -0.12678,-0.14689 -0.33128,-0.27085 -0.50015,-0.41555 -0.16885,-0.14485 -0.30082,-0.28808 -0.2412,-0.52052 0.2155,-0.35855 0.20092,-0.80166 0.18903,-1.20763 -0.36923,-0.16831 -0.88137,-0.23384 -1.2535,-0.005 -0.24039,0.0594 -0.25987,0.30955 -0.26215,0.54359 -0.002,0.23425 0.006,0.4543 -0.10151,0.49356 l -1.30508,3.43946 -2.91452,-0.0101 c -0.30345,-0.10166 -0.14036,-0.13968 -0.28457,-0.36722 -0.10141,-0.15996 -0.21549,-0.45702 -0.29369,-0.65005 -0.0607,-0.14982 -0.18845,-0.42473 -0.30097,-0.55657 -0.24046,-0.28145 -0.17925,-0.26002 -0.5649,-0.38927 -0.29028,-0.0973 -0.51119,-0.117 -0.72807,-0.30808 -0.16912,-0.14894 -0.36614,-0.4 -0.55519,-0.51389 -0.10937,-0.0658 -0.23604,-0.18328 -0.35423,-0.27867 l -1.69567,2.02949 0.68073,1.30743 -0.95912,0.23799 -0.12396,-0.41726 -0.65341,-0.45895 -0.53767,0.45925 -0.43548,-0.44178 0.15895,-0.42635 -1.90033,-0.1496 -0.93395,-0.48102 -0.14009,0.58457 0.69207,0.36793 0.12909,1.54614 0.30596,0.49429 -1.44095,1.57931 -0.6272,-0.39416 -0.11926,2.31025 -0.93403,2.30883 -6.27343,-0.74448 -3.54112,1.97826 -0.0384,0.091 0.46659,0.44422 0.0758,0.63288 -0.23531,0.20092 -0.31887,0.0689 -0.38055,-0.34342 -0.12464,-0.009 -0.19415,0.0788 -0.46078,0.2772 -0.10323,0.11726 -0.01,0.0935 -0.0174,0.21804 -0.13264,0.49112 -0.009,0.12464 -0.24999,0.38782 -0.0933,-0.01 -0.13195,0.0837 -0.32126,0.1001 -0.49844,-0.0394 -0.14913,0.30172 0.87075,0.88355 0.58874,0.48518 1.51856,0.62108 0.52957,0.0414 1.77571,0.13984 0.38788,0.24995 0.48799,0.5713 0.92716,0.16696 0.63043,-0.0444 0.29692,0.21144 0.48865,0.16384 0.53937,-0.0829 0.42946,-0.27967 0.12466,0.009 0.30182,0.14913 0.16231,0.32624 0.42152,0.22125 0.66746,0.67946 0.287,0.33607 0.28705,0.33605 0.1935,0.32869 0.18704,0.014 0.47073,0.78935 -0.014,0.18698 0.0837,0.13197 -0.10817,0.17955 0.0838,0.13198 0.11729,0.10321 0.31144,0.024 0.0933,0.01 0.31159,0.024 0.0935,0.01 0.22547,-0.0763 0.62308,0.0491 0.10332,-0.11726 0.21799,0.0175 0.0933,0.01 0.12465,0.009 0.19438,-0.0788 0.12466,0.009 0.18684,0.014 0.13196,-0.0837 0.19684,-0.10989 1.50339,-0.38322 0.22785,-0.10745 0.319,-0.0688 0.01,-0.0933 -0.11482,-0.13443 -0.0933,-0.01 -0.22795,0.10744 -0.31879,0.0689 -0.31898,0.0689 -0.10322,0.11726 -0.22538,0.0763 -0.31166,-0.0239 -0.086,-0.10078 -0.0933,-0.01 -0.43622,-0.0346 -0.53033,0.36577 -0.45322,0.18375 -0.40506,-0.0318 -0.39524,-0.15648 -0.1099,-0.19672 0.0491,-0.62309 0.009,-0.12464 0.65498,-0.35596 0.24998,-0.38782 0.64759,-0.26249 0.0933,0.01 0.4287,0.12772 0.42221,-0.18618 0.21801,0.0174 0.31167,0.024 0.74098,-0.25515 0.29896,-1.01092 -0.10746,-0.22788 -0.0932,-0.01 -0.0861,-0.10078 0.14244,-0.61572 0.1253,-0.39766 0.21811,0.0175 0.0933,0.01 0.10991,0.19673 1.04275,-0.10601 0.40493,0.0318 0.13443,-0.11479 0.0318,-0.40501 0.19439,-0.0788 0.009,-0.12464 0.01,-0.0933 -0.47392,-0.35078 -0.31165,-0.0239 -0.2254,0.0763 -0.0861,-0.10079 0.01,-0.0933 0.15228,-0.74034 0.33604,-0.28703 0.39513,0.15649 0.43624,0.0346 0.18687,0.014 0.23529,-0.20091 0.11067,-0.21072 0.43603,0.0346 0.58875,0.48521 0.49108,0.13263 0.11729,0.10321 -0.34577,0.41164 -0.014,0.18697 -0.15895,0.42633 -0.51315,0.14771 -0.14178,0.20825 0.30408,0.1179 0.4191,0.2524 -0.01,0.0934 -0.13444,0.11483 -0.01,0.0934 0.53693,-0.0516 0.22791,-0.10745 0.0836,0.13196 0.086,0.10079 0.12465,0.009 0.32881,-0.19353 0.31876,-0.0689 0.2042,-0.20337 0.29893,-1.0109 -0.0616,-0.41235 0.19663,-0.10992 0.13198,-0.0836 0.20418,-0.20336 -0.0861,-0.10079 0.0175,-0.21805 0.84855,-0.0272 0.47392,0.35075 0.10748,0.2279 0.0542,0.50582 0.30173,0.14913 0.29683,0.21143 0.36335,0.56148 -0.0239,0.31157 -0.1944,0.0788 -0.29671,-0.21144 -0.13197,0.0837 -0.11065,0.2107 0.0616,0.41236 0.11727,0.10321 0.45678,0.56884 -0.0175,0.21807 0.3041,0.11786 0.537,-0.0517 0.086,0.10079 0.29449,0.24259 -0.0394,0.49844 -0.18706,-0.014 -0.22783,0.10744 0.0787,0.19428 -0.11057,0.21072 -0.10078,0.086 -0.21811,-0.0174 -0.42947,0.27966 -0.22794,0.10745 -0.31889,0.0689 -0.53699,0.0517 -0.53281,0.39693 -0.01,0.0935 0.18707,0.014 1.41979,-0.51519 0.0933,0.01 0.10079,-0.0859 0.45341,-0.18376 0.3188,-0.0688 0.32141,-0.1001 0.18689,0.014 0.12463,0.009 0.84934,-0.43469 0.32123,-0.10011 0.33615,-0.28699 0.46792,-0.37068 0.87631,-0.7774 0.13197,-0.0836 0.204,-0.20338 0.13197,-0.0837 0.20417,-0.20336 0.13197,-0.0837 0.33596,-0.28701 0.3435,-0.38051 0.10322,-0.11724 0.44428,-0.46656 0.56386,-0.3945 0.76563,-0.56668 0.23276,-0.16975 0.11054,-0.21072 0.12466,0.009 0.01,-0.0935 -0.11481,-0.13442 -0.18687,-0.014 -0.14911,0.30173 -0.10332,0.11723 -0.32624,0.16243 -0.55419,0.26984 -0.0935,-0.01 -0.24254,0.29438 -0.5475,0.58383 -0.21809,-0.0174 -0.32137,0.1001 -0.0932,-0.01 -0.12464,-0.009 -0.0518,-0.53697 -0.59857,-0.36058 -0.0517,-0.53697 0.18707,0.014 0.12463,0.009 0.41229,-0.0615 0.2353,-0.20091 0.01,-0.0933 0.01,-0.0933 0.0175,-0.21808 0.41229,-0.0615 0.21076,0.11058 0.3188,-0.0689 0.10333,-0.11727 0.11798,-0.30417 -0.0789,-0.19428 -0.39515,-0.15648 -0.0928,-0.41479 -0.0446,-0.63045 0.01,-0.0933 -0.0592,-0.44352 0.01,-0.0935 0.11069,-0.21073 0.024,-0.31156 0.01,-0.0934 -0.0861,-0.10079 -0.083,-0.53943 0.0318,-0.40499 0.0175,-0.21807 0.24997,-0.38782 0.0175,-0.21805 0.11799,-0.30418 0.53692,-0.0517 0.37305,0.43686 0.11729,0.10322 0.28712,0.33605 0.17699,0.13932 0.63289,-0.0758 0.25001,-0.38782 0.44662,-0.49776 0.65496,-0.35595 0.32879,-0.19356 0.31146,0.024 0.20832,0.14177 0.21811,0.0174 -0.01,0.0934 -0.01,0.0934 -0.009,0.12465 -0.01,0.0935 -0.01,0.0932 -0.25979,0.51244 0.0617,0.41236 0.21802,0.0174 0.30172,0.14913 0.086,0.10078 -0.0175,0.21806 0.11725,0.10321 0.0763,0.22542 -0.014,0.18695 -0.11057,0.21074 -0.14176,0.20827 -0.2189,0.39029 -0.24254,0.29436 -0.2352,0.20093 -0.014,0.18694 0.169,0.64023 0.71648,0.0564 0.85591,-0.1207 0.0934,0.01 1.05176,0.17678 0.18707,0.014 0.21801,0.0174 0.70913,0.14979 0.42642,0.15896 0.31147,0.024 0.39034,0.21878 0.59856,0.36059 0.0836,0.13196 0.51495,0.22861 1.01095,0.29899 0.218,0.0174 0.0934,0.01 0.5223,0.13508 0.0934,0.01 0.2083,0.14178 0.91992,0.26046 0.0837,0.13199 0.29693,0.21144 0.20088,0.23525 0.29437,0.2426 0.1936,0.32869 0.27222,0.52299 0.0764,0.22542 0.20098,0.23526 0.17945,0.10805 0.28714,0.33606 -0.0491,0.62306 0.17636,0.54677 0.8509,-0.0585 0.47395,0.35077 0.39456,0.56396 0.16231,0.32624 -0.94965,1.71203 -0.22549,0.0763 -0.31887,0.0688 -0.25236,0.41899 -0.10817,0.17957 -0.15972,0.8338 0.17967,0.10815 0.23275,-0.16974 0.24254,-0.29439 0.20419,-0.20338 0.14911,-0.3017 0.21137,-0.29685 0.2598,-0.51243 0.10827,-0.17956 0.25969,-0.51248 0.10079,-0.0859 0.009,-0.12463 0.31166,0.0239 0.25725,-0.48132 -0.0836,-0.13197 0.01,-0.0933 0.32861,-0.19355 0.33616,-0.28699 0.18687,0.014 0.31897,-0.0689 0.13197,-0.0836 0.0934,0.01 0.11055,-0.21072 -0.0763,-0.22543 0.014,-0.18697 0.009,-0.12463 0.53701,-0.0516 0.29427,0.24259 0.17232,0.20161 0.10744,0.22791 -0.01,0.0934 0.0592,0.4435 0.287,0.33606 0.0935,0.01 0.22782,-0.10746 0.20822,0.14177 -0.01,0.0933 -0.1418,0.20827 0.30431,0.1179 0.11726,0.10321 0.0933,0.01 0.0933,0.01 0.01,-0.0933 0.01,-0.0932 0.15894,-0.42636 0.22625,-0.48374 0.5884,-0.706 0.41967,-0.15506 0.20342,0.20409 0.0933,0.01 0.76241,-0.12807 0.11788,-0.30419 0.009,-0.12462 0.0491,-0.6231 0.1008,-0.0859 0.58603,-0.67485 0.009,-0.12465 0.01,-0.0933 -0.0933,-0.01 -0.11726,-0.10323 -0.18708,-0.014 -0.18369,-0.4533 0.01,-0.0933 0.55418,-0.26985 0.0763,0.2254 0.21799,0.0174 0.10332,-0.11724 0.12539,-0.39764 -0.0764,-0.22544 -0.2625,-0.6476 -0.2033,-0.20408 -0.18706,-0.014 -0.64759,0.26249 -0.31879,0.0689 -0.01,0.0933 -0.54681,0.1764 -0.0933,-0.01 -0.21078,-0.11059 -0.069,-0.31889 -0.0902,-0.44596 0.21806,0.0175 0.01,-0.0933 0.01,-0.0933 0.009,-0.12464 -0.0788,-0.19429 -0.51242,-0.25976 -0.30417,-0.11788 -0.19349,-0.32871 0.1344,-0.11481 -0.1936,-0.32869 -0.3042,-0.11789 -0.0934,-0.01 -0.12465,-0.009 0.01,-0.0933 -0.17722,-0.13933 -0.10992,-0.19674 -0.27709,-0.46066 0.014,-0.18694 0.009,-0.12467 -0.17968,-0.10817 -0.12463,-0.009 -0.18687,-0.014 -0.14177,0.20827 -0.34353,0.38046 -0.11055,0.21072 -0.01,0.0934 -0.42221,0.18617 -0.28692,-0.33604 -0.18381,-0.45332 -0.20341,-0.2041 -0.16966,-0.23278 -0.30428,-0.1179 -0.53692,0.0517 -0.43681,0.37315 -0.74033,-0.15226 0.15647,-0.3952 0.22115,-0.42145 -0.086,-0.1008 -0.41241,0.0615 -0.42869,-0.12773 -0.17967,-0.10817 -0.12466,-0.009 -0.0933,-0.01 -0.31155,-0.0239 -0.2255,0.0763 -0.31147,-0.0239 -0.49845,-0.0394 -0.43622,-0.0346 -0.0934,-0.01 -0.21066,-0.11058 -0.16253,-0.32626 -0.13932,0.17711 -0.0175,0.21808 -0.10079,0.0859 -0.42956,0.27965 -0.12465,-0.009 -0.15493,-0.41973 -0.48064,-0.66475 0.024,-0.31155 0.0414,-0.52964 -0.50513,-0.35324 -0.22114,0.42146 -0.13198,0.0836 -0.21154,0.29683 -0.01,0.0933 -0.1344,0.1148 -0.30164,-0.14911 -0.069,-0.3189 -0.0788,-0.19427 -0.51241,-0.25977 -0.48052,-0.66475 -0.31166,-0.0241 -0.50581,0.0542 -0.71581,-0.46383 -0.16965,-0.23279 0.01,-0.0932 0.01,-0.0935 0.10321,-0.11728 0.33605,-0.287 -0.0617,-0.41235 0.024,-0.31158 0.36067,-0.59854 -0.10746,-0.22788 -0.38051,-0.34341 -0.0615,-0.41237 0.11059,-0.21073 0.22537,-0.0763 0.40505,0.0318 0.21799,0.0174 0.118,-0.30418 0.0318,-0.40499 -0.26251,-0.6476 0.10321,-0.11726 0.31167,0.0239 0.28689,0.33604 0.11483,0.13443 0.18704,0.014 0.7477,0.0588 1.12154,0.0882 0.29673,0.21144 0.51248,0.25975 0.30418,0.1179 0.20834,0.14177 0.009,-0.12464 -0.11725,-0.10321 -1.16523,-1.12614 -0.63043,0.0444 -0.3977,-0.12528 -0.60592,-0.26713 0.0174,-0.21805 0.11789,-0.30419 -0.17945,-0.10817 -0.45342,0.18375 -0.69933,-0.27447 -0.0763,-0.22542 -0.15436,-0.82716 0.4221,-0.1862 0.92737,0.16698 0.6304,-0.0444 0.28694,0.33605 0.55418,-0.26986 0.218,0.0174 0.69944,0.27447 0.39757,0.12529 0.4191,0.25241 0.59119,0.45403 0.62308,0.0491 0.01,-0.0933 -0.12741,-1.16985 0.33605,-0.28701 0.35323,-0.50511 0.0318,-0.40498 0.2353,-0.20092 0.46414,0.47539 0.33596,-0.28704 0.4289,0.12775 0.30408,0.11788 0.28712,0.33606 0.177,0.13932 0.94451,-0.051 0.01,-0.0934 -0.38789,-0.24995 -0.0371,-0.72388 0.20399,-0.20337 -0.0786,-0.19429 -0.32626,0.16242 -0.65739,0.3871 -0.31156,-0.0239 -0.29439,-0.24259 -0.0517,-0.53698 -0.74035,-0.15229 -0.30409,-0.11786 0.0175,-0.21806 0.55407,-0.26986 1.05255,-0.23064 0.64022,-0.16903 0.54437,-0.14525 0.41487,-0.0928 0.46792,-0.37069 -0.1001,-0.32133 -0.0932,-0.01 -0.72383,0.0371 -0.45341,0.18373 -0.50581,0.0542 -0.30409,-0.11787 0.11788,-0.30421 0.91466,-0.86839 0.42223,-0.18621 0.40503,0.0318 0.30162,0.14913 0.21535,-1.14287 0.11798,-0.30419 -0.84122,-0.0661 0.17367,-0.61327 -0.21067,-0.11055 -0.55418,0.26984 -0.23586,0.60837 -0.74568,1.50865 -0.32633,0.16238 -0.95167,0.14453 -0.20098,-0.23524 -0.12005,-1.26331 -0.40494,-0.0318 -0.22793,0.10745 -0.69199,-0.36792 -0.0689,-0.3189 0.0415,-0.5296 0.204,-0.20338 0.1393,-0.1771 0.523,-0.27232 0.32145,-0.10011 0.23273,-0.16974 0.11789,-0.3042 -0.16965,-0.23277 -1.08385,0.22816 -0.31146,-0.0239 -0.38789,-0.24997 -0.31157,-0.024 -0.5912,-0.45403 z"
       id="LA-01"
       style="font-style:normal;font-weight:400;font-size:34.375px;font-family:'MS Shell Dlg 2';opacity:1;fill:none;fill-opacity:1;fill-rule:evenodd;stroke:#000000;stroke-width:0.33333385;stroke-linecap:square;stroke-linejoin:bevel;stroke-miterlimit:4;stroke-dasharray:none;stroke-opacity:1" />
    <path
       inkscape:connector-curvature="0"
       d="m 232.93536,442.235 c -0.1765,-0.054 -0.30618,-0.20214 -0.48374,-0.22613 -0.26709,-0.19416 -0.50701,-0.24675 -0.76655,-0.21702 -0.25951,0.0296 -0.53471,0.12965 -0.79841,0.18794 -0.34216,-0.0814 -0.64731,0.0168 -0.89436,0.21167 -0.24711,0.19471 -0.4415,0.48736 -0.56218,0.77076 -0.50949,0.10446 -0.65924,0.77227 -1.07293,0.88727 -0.33508,-0.0363 -0.67324,-0.15721 -0.91265,-0.3539 -0.2393,-0.19668 -0.37254,-0.48061 -0.24279,-0.89682 -0.20605,-0.25103 -0.38455,-0.087 -0.54683,0.17645 -0.16228,0.26338 -0.32139,0.63072 -0.43759,0.78048 -0.56625,0.41443 -0.70152,1.16064 -1.28269,1.56045 -0.54953,0.31015 -1.08299,0.8712 -1.7582,0.83333 -0.29861,-0.0714 -0.65799,-0.0387 -0.94942,0.11347 -0.2913,0.15159 -0.51417,0.42425 -0.4998,0.77557 0.0437,0.36285 -0.0553,0.58758 -0.24586,0.73297 -0.1905,0.1455 -0.47091,0.21109 -0.76978,0.22159 -0.48099,0.61463 -1.26609,0.61697 -1.72785,1.24325 -0.31542,0.0937 -0.64784,-0.0466 -0.85516,-0.28667 -0.20719,-0.2402 -0.28251,-0.58566 -0.14936,-0.88946 0.19999,-0.12971 0.1987,-0.21397 0.14669,-0.27063 -0.052,-0.0567 -0.17017,-0.0925 -0.23452,-0.20653 0.005,-0.49673 -0.26727,-0.75289 -0.62654,-0.80164 -0.13467,-0.0187 -0.24902,0.12156 -0.38855,0.15751 l 0.0188,1.34937 c -0.17842,-0.0399 -0.44823,-0.0225 -0.66399,0.0731 -0.21583,0.0951 -0.38369,0.27916 -0.38688,0.5339 -0.48419,0.15026 -1.0276,-0.0659 -1.5265,-0.12011 -0.29899,-0.0626 -0.30594,-0.28148 -0.27483,-0.49189 0.0313,-0.2104 0.0943,-0.40505 -0.11895,-0.47961 -0.4519,-0.29937 -0.96862,-0.31445 -1.47821,-0.33571 -0.30031,-0.10232 -0.41735,-0.31382 -0.45677,-0.56889 -0.0396,-0.25497 -0.0246,-0.55725 -0.0633,-0.78861 -0.12392,-0.25731 -0.11876,-0.49705 -0.0372,-0.72393 0.0817,-0.22681 0.24211,-0.43535 0.45408,-0.5912 -0.27549,-0.16522 -0.76058,-0.1423 -1.11908,-0.11933 -0.20331,-0.0451 -0.48388,-0.0488 -0.71159,-0.11867 -0.22781,-0.07 -0.38975,-0.21232 -0.3346,-0.52788 0.004,-0.224 -0.002,-0.5116 -0.0657,-0.75748 -0.063,-0.24591 -0.19003,-0.44298 -0.46167,-0.50649 -0.47667,-0.0918 -0.46377,-0.73756 -0.7963,-1.03447 0.002,-0.27153 -0.16036,-0.44525 -0.36583,-0.53034 -0.20546,-0.0851 -0.44292,-0.091 -0.65183,-0.0826 l -0.0991,1.65353 -6.78848,1.8168 c -0.0332,-0.004 -0.0914,-0.01 -0.12463,-0.009 -0.40227,-0.0315 -0.41211,-0.68665 -0.67412,-0.99355 -0.0988,-0.11562 0.0164,-0.6087 0.0324,-0.81237 0.028,-0.36021 0.0912,-0.47962 0.33193,-0.6322 0.17294,-0.10968 0.31639,-0.17613 0.51806,-0.21 0.20067,-0.0337 -0.22696,-0.33684 -0.3034,-0.52543 -0.1256,-0.3096 -0.23518,-0.2786 -0.565,-0.38923 -0.16028,-0.0537 -0.58685,0.0591 -0.7526,0.004 -0.28458,-0.0955 -0.54973,0.007 -0.69763,0.10185 -0.20597,0.13055 -0.35586,0.31686 -0.65004,0.29361 -0.23749,-0.0184 -0.39329,0.20477 -0.61885,0.29615 -0.16743,0.0678 -0.17677,-0.01 -0.14601,-0.13687 0.0306,-0.127 0.1213,-0.31416 0.15894,-0.42634 0.11545,-0.34452 0.23711,-0.62292 0.26784,-1.01342 0.0189,-0.24925 0.0394,-0.49835 0.0587,-0.74767 0.0186,-0.2382 0.0226,-0.55548 -0.006,-0.7214 -0.0536,-0.31918 -0.62917,0.16997 -0.95175,0.14447 -0.31741,-0.0253 -0.6087,-0.0163 -0.90587,-0.0397 -0.30299,-0.0236 -0.54656,-0.0232 -0.74523,-0.0901 -0.19185,-0.0645 -0.30559,-0.27741 -0.4978,-0.44663 -0.10114,-0.0891 -0.60462,-0.0478 -0.74769,-0.0587 -0.24307,-0.0185 -0.49902,0.0165 -0.71648,-0.0563 -0.23084,-0.0774 -0.13014,-0.33855 -0.10923,-0.60422 0.018,-0.22861 0.26262,-0.46303 0.36301,-0.62968 0.0945,-0.15694 0.10225,-0.54323 0.14747,-0.67801 0.0884,-0.26387 0.28038,-0.32671 0.44417,-0.46657 0.14882,-0.12712 0.44753,-0.2568 0.62138,-0.32727 0.16164,-0.0655 0.32779,-0.25096 0.43438,-0.34197 0.14604,-0.12473 0.63585,-0.0128 0.81489,4.4e-4 0.233,0.0183 0.1212,-0.40916 0.16874,-0.55096 0.0621,-0.18481 0.21525,-0.28789 0.29583,-0.57227 0.0109,-0.0337 -0.3989,-0.46702 -0.48798,-0.57133 -0.17186,-0.20121 -0.40909,-0.27495 -0.53127,-0.41798 -0.13703,-0.16044 -0.1261,-0.42259 -0.20263,-0.61149 -0.0801,-0.19696 -0.32988,-0.462 -0.47818,-0.69595 -0.15912,-0.25096 -0.28932,-0.30404 -0.33215,-0.55909 -0.0305,-0.18044 -0.2291,-0.54042 -0.29604,-0.61882 -0.12155,-0.14228 -0.22747,-0.15363 -0.30674,-0.087 -0.0792,0.0667 -0.11926,0.2126 -0.14914,0.30173 -0.0715,0.21305 -0.0408,0.5223 -0.0587,0.74769 -0.0187,0.24767 -0.10005,0.47591 -0.12101,0.74279 -0.0231,0.2951 -0.0366,0.56827 -0.004,0.84598 0.032,0.26734 0.0568,0.4293 0.10185,0.69776 0.0223,0.13256 0.32443,0.41383 0.39938,0.50157 0.14731,0.1725 0.28905,0.5243 -0.0394,0.49845 -0.14996,-0.0129 -0.4015,0.15647 -0.66888,0.13543 -0.23677,-0.0183 -0.37714,0.16553 -0.46323,0.30841 -0.16995,0.28205 0.29113,0.33739 0.40928,0.37699 0.12951,0.0434 -0.003,0.43967 -0.0444,0.56075 -0.1129,0.33648 -0.0809,0.46698 -0.44918,0.52889 -0.31654,0.0532 -0.43604,0.0368 -0.52543,0.30341 -0.0887,0.26427 -0.15839,0.29046 -0.37453,0.37808 -0.21437,0.0869 -0.34937,0.25487 -0.43937,0.40427 -0.10036,0.16666 -0.0481,0.61061 -0.0639,0.81 -0.008,0.11604 -0.474,0.0568 -0.63043,0.0444 -0.23501,-0.0183 0.058,0.45788 0.0394,0.69285 -0.0185,0.23797 0.0997,0.45523 0.13554,0.66889 0.0346,0.20605 0.0742,0.48783 0.10423,0.66643 0.0413,0.246 0.31905,0.2133 0.57725,0.23363 0.23109,0.018 0.54075,-0.0536 0.66644,-0.10433 0.16082,-0.0652 0.36614,-0.26912 0.52788,-0.33462 0.21095,-0.0855 0.34461,-0.12957 0.60424,-0.10924 0.29478,0.0231 0.40035,-0.036 0.58941,0.0778 0.0448,0.0269 -0.22164,0.58933 -0.23842,0.63957 -0.0904,0.26963 -0.26613,0.14006 -0.46311,0.3083 -0.10366,0.0887 -0.14666,0.62816 -0.18346,0.73789 -0.078,0.2324 -0.39548,0.28094 -0.52788,0.33464 -0.18995,0.0769 -0.41109,0.23484 -0.52788,0.33459 -0.14477,0.12363 0.0386,0.65345 0.0682,0.7263 0.0874,0.21572 0.14739,0.47513 0.22895,0.67633 0.13356,0.3295 0.23133,0.2674 0.46478,0.068 0.18219,-0.15559 0.34006,-0.13002 0.63535,-0.10678 0.0546,-5.2e-4 0.53789,0.0799 0.65248,-0.32482 0.0717,-0.25304 0.0668,-0.45024 0.0876,-0.71403 0.0213,-0.25942 0.28297,-0.22849 0.51805,-0.20999 0.27053,0.0217 0.20561,0.32134 0.27466,0.49176 0.13625,0.33623 0.0565,0.37237 0.12149,0.44841 0.13694,0.16035 0.0732,-0.44021 0.23353,-0.57724 0.0395,-0.0338 0.59995,0.14129 0.74031,0.15234 0.24767,0.0187 0.38186,0.21442 0.40919,0.37707 0.0424,0.25241 0.13112,0.32591 0.10432,0.66643 -0.0239,0.30888 -0.29203,0.18386 -0.23115,0.54605 0.0483,0.28779 0.21285,0.4818 0.18792,0.79853 -0.0284,0.36676 0.11207,0.38817 0.20266,0.61147 0.0954,0.23561 0.0427,0.65107 0.005,1.1289 -0.01,0.0936 -0.72201,-0.0259 -0.81245,-0.0326 -0.41902,-0.0326 -0.34886,0.0149 -0.46804,0.37062 -0.081,0.24198 -0.0463,0.58809 -0.0661,0.84121 -0.0284,0.36639 0.30509,0.59166 0.5978,0.76797 0.16882,0.10175 0.27158,0.0592 0.34764,-0.0353 0.076,-0.0945 0.1146,-0.26062 0.12536,-0.39759 0.0173,-0.21012 0.36457,0.24808 0.57472,0.26459 0.21492,0.0176 0.38977,-0.27996 0.44183,-0.43536 0.0863,-0.25722 0.52718,0.19818 0.79763,0.21946 0.35473,0.0276 0.4565,-0.0494 0.66901,-0.13544 0.28141,-0.11407 0.50257,-0.0834 0.71893,0.0258 0.21642,0.10865 0.42228,0.28812 0.59364,0.42288 0.0911,0.0718 0.0223,0.68126 0.0347,0.75508 0.0472,0.28145 -0.12501,0.48455 -0.23351,0.57723 -0.22647,0.19343 -0.38639,0.13021 -0.41306,0.46903 -0.0266,0.33868 0.25496,0.53678 0.4133,0.72219 0.18589,0.21763 0.15717,0.50488 0.44208,0.7557 0.11998,0.10562 0.61626,0.004 0.69037,-0.008 0.17445,-0.0295 0.14183,-0.60775 0.15227,-0.74034 0.022,-0.27542 0.1333,-0.42575 0.26461,-0.57481 0.10701,-0.12147 0.21349,-0.0922 0.29025,-0.10254 0.0768,-0.0106 0.12909,-0.0473 0.14912,-0.30174 0.0301,-0.37839 0.0364,-0.37329 0.40326,-0.34442 0.24498,0.0187 0.54329,0.0547 0.71894,0.0261 0.22158,-0.0374 0.52229,0.0408 0.74766,0.0587 0.24118,0.0185 0.4255,-0.22802 0.4443,-0.46659 0.0256,-0.3195 0.24544,-0.2534 0.45329,-0.18369 0.25958,0.0871 0.47503,0.19417 0.73543,0.21467 0.27702,0.022 0.42255,0.12563 0.67313,0.20966 0.23055,0.0773 0.49171,0.13278 0.70914,0.1499 0.31559,0.0252 0.54946,-0.0164 0.84119,0.0661 0.2243,0.0635 0.51452,0.0406 0.74768,0.0588 0.26343,0.0215 0.53175,-0.0522 0.81736,-0.0298 0.26584,0.0215 0.51301,0.0406 0.7789,0.0612 0.2865,0.0225 0.49049,0.1161 0.64191,0.2072 0.2355,0.14182 0.17624,0.34689 0.4666,0.44428 0.46899,0.15728 0.26687,-0.16387 0.55095,0.16875 0.15953,0.18679 0.25945,0.49258 0.29114,0.68124 0.0536,0.31879 0.0689,0.42091 0.23386,0.61394 0.0604,0.0707 0.15961,0.11297 0.23697,0.17544 l 0,0 c 0.11817,0.0956 0.24486,0.21276 0.35421,0.27865 0.18906,0.11388 0.38607,0.36491 0.55511,0.51383 0.21687,0.191 0.4379,0.21081 0.72808,0.30806 0.38552,0.12925 0.32453,0.10783 0.56498,0.38925 0.11253,0.13172 0.24033,0.40679 0.30108,0.55662 0.078,0.19302 0.19223,0.49011 0.29358,0.65004 0.14421,0.22751 -0.0194,0.2655 0.28457,0.36718 l 2.91442,0.0101 1.30519,-3.43949 c 0.10783,-0.0395 0.0992,-0.25932 0.10152,-0.49355 0.002,-0.23417 0.0216,-0.48411 0.26224,-0.54352 0.37213,-0.22911 0.88418,-0.16373 1.25351,0.005 0.0118,0.40598 0.0263,0.84907 -0.18915,1.20767 -0.0597,0.23245 0.0723,0.37563 0.2411,0.52054 0.16887,0.14479 0.37349,0.26863 0.50024,0.41552 0.27239,-0.006 0.38703,-0.15452 0.43694,-0.37315 0.0498,-0.21868 0.0294,-0.49275 0.054,-0.6854 0.0194,-0.26059 0.0297,-0.54533 0.0949,-0.80755 0.0649,-0.2622 0.18767,-0.49079 0.42777,-0.65595 0.17286,-0.18139 0.44273,-0.27249 0.65741,-0.38712 0.21464,-0.11461 0.36224,-0.27312 0.36056,-0.59855 0.0865,-0.23081 0.27643,-0.23544 0.48688,-0.21246 0.21055,0.023 0.44284,0.0918 0.62306,0.0491 0.46687,-0.045 0.75641,0.36607 1.07985,0.61793 0.2498,0.15498 0.34107,-0.0181 0.3337,-0.25592 -0.008,-0.23783 -0.11111,-0.53948 -0.26506,-0.6164 -0.30301,-0.44614 -0.7856,-0.705 -1.27824,-0.8843 -0.19822,-0.0192 -0.42381,0.0331 -0.62799,0.0134 -0.20412,-0.0206 -0.39853,-0.11329 -0.47148,-0.38199 -0.1594,-0.22798 -0.0362,-0.40497 0.10889,-0.58695 0.14502,-0.18197 0.32778,-0.34364 0.32692,-0.56981 0.19383,-0.34315 0.79488,0.0849 1.13871,-0.12986 0.53463,-0.20628 1.1474,-0.16398 1.69465,-0.0228 0.21641,0.0251 0.38698,-0.0865 0.54917,-0.20755 l -0.0903,-0.44605 0.45399,-0.59123 0.13932,-0.17701 0.33615,-0.28712 0.009,-0.12462 0.0933,0.01 0.72386,-0.0371 0.43622,0.0346 0.0933,0.01 0.21068,0.11058 0.17719,0.13933 0.12466,0.009 0.0787,0.19438 0.20823,0.14177 0.19683,-0.10989 0.22537,-0.0764 -0.48062,-0.66477 0.0175,-0.21811 0.13198,-0.0837 0.32878,-0.1935 0.01,-0.0933 0.31145,0.0239 0.0933,0.01 0.01,-0.0933 0.32133,-0.10011 0.024,-0.31146 0.01,-0.0935 0.01,-0.0933 0.009,-0.12466 0.024,-0.31148 0.10079,-0.086 0.12465,0.009 0.33614,-0.28701 0.11056,-0.21068 0.10818,-0.17966 0.14177,-0.20821 0.13444,-0.11482 z"
       id="LA-02"
       style="font-style:normal;font-weight:400;font-size:34.375px;font-family:'MS Shell Dlg 2';opacity:1;fill:none;fill-opacity:1;fill-rule:evenodd;stroke:#000000;stroke-width:0.33333385;stroke-linecap:square;stroke-linejoin:bevel;stroke-miterlimit:4;stroke-dasharray:none;stroke-opacity:1" />
    <path
       inkscape:connector-curvature="0"
       d="m 192.40862,462.49276 c 0.007,-0.0659 0.0397,-0.11815 0.0458,-0.18448 0.0466,-0.49284 0.075,-0.99175 0.29727,-1.38715 0.52901,-0.0357 0.74879,-0.33889 0.89992,-0.68148 0.15126,-0.34269 0.23469,-0.73985 0.51717,-0.99378 0.16598,-0.19589 0.30741,-0.23782 0.45567,-0.21493 0.14837,0.023 0.31485,0.11114 0.4551,0.1926 0.14024,0.0815 0.25588,0.14543 0.39757,0.12529 0.14183,-0.02 0.2864,-0.12231 0.43938,-0.40428 0.55781,-0.11959 0.85479,-0.40718 0.93852,-0.77253 0.0837,-0.36527 -0.0263,-0.8194 -0.30943,-1.24683 0.1579,-1.14002 0.17076,-2.31764 -0.0419,-3.45141 -0.079,-0.32652 -0.26515,-0.56425 -0.50445,-0.76074 -0.23924,-0.19636 -0.52142,-0.37495 -0.80433,-0.53344 -0.28294,-0.15848 -0.56317,-0.31846 -0.77323,-0.531 -0.21007,-0.21264 -0.35424,-0.4546 -0.37485,-0.81323 -0.52176,-0.95155 -1.29589,-1.84054 -1.58871,-2.91492 0.21483,0.0809 0.40393,0.0449 0.53692,-0.0517 0.13311,-0.0967 0.21895,-0.25058 0.25244,-0.41897 0.0337,-0.16838 -0.003,-0.34277 -0.0879,-0.47717 -0.0839,-0.13429 -0.20257,-0.22657 -0.42146,-0.22114 -0.13367,-0.28607 -0.34611,-0.45696 -0.58383,-0.5475 -0.23775,-0.0906 -0.51718,-0.10487 -0.80754,-0.095 -0.58076,0.0199 -1.2092,0.13976 -1.6921,-0.008 -0.003,-0.38782 -0.10244,-0.62588 -0.2527,-0.77219 -0.15018,-0.14636 -0.34333,-0.18271 -0.57973,-0.20242 -0.47256,-0.0393 -1.07074,0.0402 -1.52156,-0.18234 0.13911,-0.60513 0.0706,-1.14567 -0.0545,-1.69709 -0.12514,-0.55132 -0.30396,-1.0856 -0.40217,-1.66168 -0.37042,-0.36617 -0.95308,-0.29249 -1.48066,-0.30452 -0.26373,-0.007 -0.49642,-0.0334 -0.70913,-0.14989 -0.21273,-0.11645 -0.37678,-0.3363 -0.47817,-0.69587 -0.45868,-0.37163 -0.70588,-0.8514 -0.86518,-1.35335 -0.15931,-0.50194 -0.2475,-1.03701 -0.44308,-1.5395 0.21341,-0.19586 0.32887,-0.43033 0.36792,-0.69198 0.0392,-0.26172 -0.002,-0.55046 -0.092,-0.82233 -0.1799,-0.5436 -0.57107,-1.05156 -0.99472,-1.30077 -0.24571,-0.54105 -0.65196,-0.78448 -1.15121,-0.90562 -0.32036,-0.0778 -0.70423,-0.046 -1.06175,-0.0523 -0.0135,0.0249 -0.0561,0.0319 -0.0673,0.0576 -0.10491,0.23952 -0.11672,0.53229 0.15183,0.85827 0.76352,0.56514 1.06065,1.41498 1.74106,2.1746 l -3.19003,-0.0943 -0.12218,-0.041 -0.1197,-0.0723 c -0.33241,-0.39018 -0.77869,-0.50987 -1.21672,-0.47192 -0.43794,0.038 -0.86996,0.24821 -1.23278,0.52991 -0.56357,0.12667 -1.02841,-0.0708 -1.44466,-0.36448 -0.0418,-0.0293 -0.0761,-0.0719 -0.11726,-0.1032 -0.003,0.062 -0.0145,0.12482 -0.014,0.18694 0.0671,0.26399 0.0932,0.53497 -0.0612,0.77881 -0.16138,0.22783 -0.39517,0.40574 -0.66476,0.48061 -0.12782,0.0361 -0.30161,0.10948 -0.44842,0.12151 -0.14679,0.0117 -0.26636,-0.0312 -0.32792,-0.21399 -0.0556,-0.3369 -0.41986,-0.21581 -0.59195,-0.0466 -0.22857,0.19555 -0.50905,0.36295 -0.58596,0.67489 -0.0354,0.22762 -0.33692,0.4253 -0.52054,0.24111 -0.0496,-0.30594 0.15683,-0.56013 0.16206,-0.86496 -0.0264,-0.23912 0.1657,-0.57447 -0.0995,-0.72876 -0.23092,-0.14757 -0.42552,-0.39989 -0.72806,-0.30806 -0.25957,0.0392 -0.52518,0.13701 -0.7886,0.0633 l -0.0622,-0.005 -0.0987,-1.13622 -1.75442,-0.0122 -0.0148,-1.00431 -13.03348,-0.0853 -0.10303,1.30845 -7.11351,-0.027 -0.0394,0.49846 -1.66836,0.0881 -0.0155,0.59431 -6.2101,0.0442 -0.0384,-2.69884 -2.56933,-0.0144 0.0481,2.57423 -6.14783,0.0486 -0.004,0.0312 -0.0932,-0.01 -0.13196,0.0836 -0.10331,0.11727 -0.01,0.0934 -0.01,0.0934 0.0689,0.3188 -0.009,0.12464 -0.01,0.0933 -0.0175,0.21812 -0.01,0.0934 -0.11068,0.21066 -0.014,0.18709 -0.10332,0.11725 0.0861,0.10077 0.0935,0.01 0.27956,0.42954 0.1148,0.13445 0.0861,0.10077 -0.01,0.0933 0.0838,0.13195 0.21801,0.0176 0.0861,0.1009 0.12465,0.009 0.0934,0.01 0.0933,0.01 -0.01,0.0933 0.12464,0.009 -0.009,0.12464 -0.01,0.0933 0.086,0.1008 -0.10321,0.11726 -0.01,0.0933 0.0517,0.53692 -0.01,0.0935 -0.0175,0.21812 0.0933,0.01 -0.10816,0.17948 -0.11788,0.30426 -0.14179,0.20823 -0.11066,0.21066 0.17889,0.51564 0.1623,0.32632 0.11481,0.13442 -0.01,0.0933 0.0861,0.10079 -0.009,0.12464 0.0616,0.4124 0.12464,0.009 0.1623,0.32626 -0.10078,0.0861 -0.0933,-0.01 -0.12465,-0.009 -0.0175,0.21802 -0.01,0.0933 -0.009,0.12466 -0.014,0.18704 -0.009,0.12466 -0.0933,-0.01 -0.10826,0.17946 -0.13441,0.11483 -0.20155,0.17232 -0.13443,0.1148 -0.1009,0.086 -0.01,0.0934 -0.009,0.12462 0.0934,0.01 0.11725,0.10333 0.16967,0.23281 0.2181,0.0175 0.0935,0.01 0.11724,0.10321 0.086,0.10079 -0.10322,0.11728 -0.01,0.0933 -0.2181,-0.0175 -0.21811,-0.0175 -0.01,0.0933 -0.0934,-0.01 -0.11055,0.21068 -0.2353,0.20086 -0.01,0.0934 -0.0239,0.31157 -0.0933,-0.01 -0.01,0.0933 -0.13446,0.11481 -0.10077,0.0862 -0.32872,0.19361 -0.4368,0.37308 -0.13199,0.0838 -0.37049,0.72316 -0.11787,0.30409 -0.13264,0.49112 -0.15897,0.42644 -0.014,0.18685 -0.23603,0.60836 -0.24257,0.29448 -0.35319,0.50503 -0.0935,-0.01 -0.01,0.0933 -0.13443,0.11482 -0.10078,0.0859 -0.22537,0.0763 -0.42958,0.27977 -0.10321,0.11724 -0.13196,0.0836 -0.20418,0.2033 -0.22538,0.0764 -0.11059,0.21076 -0.14912,0.30164 -0.01,0.0933 -0.0175,0.21812 0.10991,0.19661 0.0837,0.13196 0.59121,0.45409 0.086,0.1008 0.11482,0.13443 -0.01,0.0933 -0.14178,0.2083 0.10991,0.19664 0.0933,0.01 0.30174,0.14915 0.0859,0.10088 0.19362,0.3287 0.64303,0.99102 0.4679,-0.37063 0.53281,-0.39703 0.77954,-0.3461 0.42222,-0.18625 0.22538,-0.0763 0.31166,0.0241 0.83443,-0.24776 0.31898,-0.069 0.12462,0.009 1.0452,-0.13712 1.16003,-0.003 1.28047,-0.33819 1.57248,-0.0643 0.94433,-0.051 1.02812,0.0809 0.61327,0.17366 0.62306,0.0491 0.0933,0.01 0.009,-0.12462 0.54439,-0.14535 0.64023,-0.16898 0.0932,0.01 0.53703,-0.0516 0.0934,0.01 0.13444,-0.11479 0.81007,0.0639 0.12465,0.009 1.11172,0.21286 1.35606,0.2947 0.91735,0.29169 0.60589,0.26715 0.61573,0.14245 0.69943,0.27442 0.0934,0.01 0.82638,0.2532 0.59857,0.36048 0.21799,0.0174 0.17723,0.13934 0.59855,0.36067 1.03462,0.3948 -0.01,0.0935 0.48127,0.25737 0.91021,0.38497 0.42867,0.12784 0.17969,0.10827 0.72316,0.37029 0.39513,0.15646 0.70188,0.24343 0.60591,0.26705 1.03461,0.39491 0.92736,0.16708 0.177,0.13932 1.23879,0.19148 1.05936,0.0833 0.31145,0.0239 0.7166,0.0563 0.21808,0.0174 0.31146,0.024 1.33231,0.19884 1.31514,0.41706 0.9345,0.0735 0.12466,0.009 0.62307,0.0491 0.73129,-0.13063 0.10332,-0.11724 0.46056,-0.27714 0.43692,-0.37315 0.22537,-0.0764 0.19686,-0.10989 0.87296,-0.33884 1.36406,-0.20611 0.93473,0.0735 0.52957,0.0414 0.0934,0.01 0.21066,0.11065 0.19353,0.32859 1.0872,0.52454 0.41174,0.34576 0.49108,0.13275 0.8166,0.37773 0.21801,0.0174 0.47392,0.35075 0.21812,0.0174 0.40494,0.0318 0.29448,0.24265 0.10011,0.32126 0.30408,0.11796 0.3977,0.1254 0.10817,-0.17967 0.32877,-0.19349 0.12464,0.009 0.1795,0.10816 0.22547,-0.0763 0.31888,-0.0689 0.0175,-0.21811 -0.086,-0.10089 0.0175,-0.21801 0.12529,-0.39771 0.44672,-0.49766 0.31881,-0.069 0.57133,-0.48787 0.11059,-0.2108 -0.0861,-0.10079 -0.0932,-0.01 -0.12462,-0.009 -0.70926,-0.1498 -0.71657,-0.0564 0.0175,-0.21811 -0.10743,-0.22793 -0.17948,-0.10816 -0.4289,-0.12774 -0.48864,-0.16385 -0.41153,-0.34597 -0.0862,-0.10079 0.1009,-0.0859 -0.0837,-0.13198 -0.5222,-0.13517 -0.10088,0.086 -0.41477,0.0928 -0.30182,-0.14916 -0.11727,-0.10332 -0.64023,0.1691 -0.12528,0.39761 -0.11056,0.21077 -0.12467,-0.009 -0.6304,0.0443 -0.81009,-0.0639 -0.21068,-0.11057 -0.31158,-0.0239 -0.20094,-0.23529 -0.50582,0.0543 -0.12464,-0.009 -0.32126,0.1001 -0.0934,-0.01 -0.63044,0.0444 -0.2181,-0.0175 -0.18688,-0.014 -0.12462,-0.009 0.0175,-0.21803 -0.27975,-0.42956 -0.15496,-0.41976 -0.1148,-0.13442 0.014,-0.18686 -0.34622,-0.77956 0.0394,-0.49846 0.10322,-0.11724 0.80408,-0.65773 0.10088,-0.0862 0.10331,-0.11726 1.12288,-0.72653 0.51562,-0.17888 0.01,-0.0936 0.53948,-0.0829 0.64758,-0.26241 0.0932,0.01 0.13935,-0.17722 0.19682,-0.1099 0.23272,-0.16966 0.54683,-0.17644 0.49846,0.0394 0.13197,-0.0838 0.12773,-0.4287 0.41976,-0.15516 0.51485,0.22871 0.36328,0.56142 -0.0564,0.71659 -0.37028,0.72317 -0.10825,0.17947 -0.0241,0.31165 0.0764,0.22539 -0.0175,0.218 0.11725,0.10333 -0.14178,0.20832 -0.01,0.0933 0.30408,0.11787 0.20832,0.14178 0.32869,-0.19348 0.33606,-0.28702 1.20904,-0.62588 0.0933,0.01 0.64759,-0.26241 0.40495,0.0318 0.60836,0.23585 1.08384,-0.22806 0.0933,0.01 0.8411,0.0661 0.17722,0.13934 0.11723,0.10323 0.0615,0.4124 -0.0175,0.21801 -0.12527,0.3977 -0.0346,0.43602 -0.014,0.18705 0.0837,0.13197 -0.11786,0.30409 -0.1565,0.39525 -0.0934,-0.01 -0.11067,0.21066 -0.13198,0.0837 -0.01,0.0934 0.11483,0.13444 0.49109,0.13265 0.64023,-0.169 0.45099,-0.1527 0.32122,-0.1001 0.18707,0.014 0.20822,0.14179 -0.01,0.0933 0.086,0.1009 0.15929,0.76487 -0.01,0.0933 0.0933,0.01 0.0757,0.63289 -0.01,0.0933 -0.009,0.12465 0.086,0.10088 0.086,0.1009 0.12464,0.009 0.0838,0.13197 -0.01,0.0933 -0.01,0.0933 -0.11799,0.30429 -0.009,0.12463 0.30429,0.11789 0.32859,-0.1935 0.96658,-0.33147 0.0932,0.01 0.40505,0.0318 0.11725,0.1032 0.17703,0.13932 0.11726,0.10331 0.0764,0.22548 -0.01,0.0933 0.21078,0.1106 0.39514,0.15647 0.73374,-0.16165 0.43605,0.0346 0.29448,0.24256 0.0615,0.41241 0.21067,0.11055 0.0933,0.01 0.51973,0.16629 0.39771,0.12539 0.29513,-0.16484 z"
       id="LA-03"
       style="font-style:normal;font-weight:400;font-size:34.375px;font-family:'MS Shell Dlg 2';opacity:1;fill:none;fill-opacity:1;fill-rule:evenodd;stroke:#000000;stroke-width:0.33333385;stroke-linecap:square;stroke-linejoin:bevel;stroke-miterlimit:4;stroke-dasharray:none;stroke-opacity:1" />
    <path
       inkscape:connector-curvature="0"
       d="m 130.82822,436.80071 6.14783,-0.0486 -0.0481,-2.57422 2.56931,0.0144 0.0384,2.69886 6.21011,-0.0442 0.0154,-0.59432 1.66836,-0.0881 0.0394,-0.49845 7.11351,0.027 0.10302,-1.30846 13.03348,0.0854 0.0148,1.00428 1.75444,0.0122 0.0987,1.13621 0.0623,0.005 c 0.26344,0.0737 0.52902,-0.0241 0.7886,-0.0632 0.30254,-0.0917 0.49714,0.16051 0.72807,0.30808 0.26512,0.15426 0.0729,0.48964 0.0995,0.72873 -0.005,0.30486 -0.21171,0.55902 -0.16208,0.86496 0.18364,0.18418 0.48518,-0.0132 0.52053,-0.24109 0.0768,-0.31194 0.35741,-0.47934 0.58597,-0.67491 0.17209,-0.16922 0.53642,-0.29031 0.59196,0.0466 0.0615,0.1827 0.18112,0.22591 0.32792,0.21399 0.1468,-0.0119 0.32059,-0.0855 0.44841,-0.12149 0.2696,-0.0749 0.50339,-0.2528 0.66477,-0.48062 0.15448,-0.24384 0.12837,-0.51483 0.0612,-0.77881 -3.6e-4,-0.0621 0.0113,-0.12488 0.014,-0.18695 -0.36796,-0.28014 -0.72423,-0.61822 -1.09133,-0.86961 -0.14285,-0.22188 -0.31733,-0.24023 -0.51741,-0.1974 -0.20008,0.0429 -0.41937,0.14636 -0.61639,0.26495 -0.19711,0.11859 -0.35558,0.23824 -0.48942,0.24366 -0.13383,0.007 -0.24066,-0.0992 -0.25091,-0.3959 0.26231,-0.46788 0.17812,-0.92741 0.077,-1.37322 -0.10145,-0.44592 -0.20329,-0.8619 -0.0216,-1.31835 0.0349,-0.40711 0.14362,-0.62286 0.33926,-0.72562 0.19557,-0.10267 0.48018,-0.10695 0.75752,-0.0657 0.55443,0.0825 1.19187,0.30454 1.59859,2e-5 0.35467,-0.0916 0.44023,-0.20247 0.4008,-0.31321 -0.0395,-0.11073 -0.2147,-0.24318 -0.40919,-0.37698 -0.19449,-0.13385 -0.42062,-0.25707 -0.53133,-0.41796 -0.11072,-0.16099 -0.10806,-0.33251 0.10398,-0.52477 0.26107,-0.0683 0.35101,-0.1495 0.36236,-0.22224 0.01,-0.0729 -0.0675,-0.15167 -0.16986,-0.23275 -0.2046,-0.16225 -0.48879,-0.34041 -0.33217,-0.55909 0.29633,-0.0638 0.44137,-0.18353 0.49433,-0.30586 0.053,-0.12241 0.0304,-0.25932 -0.0616,-0.41241 -0.18325,-0.30612 -0.57384,-0.6429 -0.7437,-0.90483 0.1049,-0.37673 0.0423,-0.69533 -0.14702,-0.92069 -0.18931,-0.22534 -0.51865,-0.35237 -0.91747,-0.29158 -0.3873,-0.18706 -0.357,-0.42028 -0.20018,-0.64267 0.15685,-0.2225 0.45378,-0.42682 0.60491,-0.51675 -0.20807,-0.18569 -0.27705,-0.3174 -0.2509,-0.39588 0.0262,-0.0783 0.14226,-0.12674 0.26393,-0.16722 0.12153,-0.0405 0.2763,-0.0569 0.3549,-0.12884 0.0785,-0.072 0.0987,-0.1725 -0.004,-0.3451 -0.98799,-0.14729 -2.02229,-0.22097 -3.02671,-0.1761 -0.30709,-0.14354 -0.8245,-0.034 -1.2535,-0.005 -0.21452,0.0144 -0.39999,0.008 -0.52713,-0.0728 -0.12721,-0.0801 -0.18894,-0.21589 -0.15023,-0.48207 0.0156,-0.48194 -0.32572,-0.83594 -0.62822,-1.17792 -0.30249,-0.34199 -0.56837,-0.67157 -0.50361,-1.16812 -0.64179,-0.53269 -1.44926,-0.62222 -2.14086,-1.07749 -0.15169,-0.31837 -0.35077,-0.38882 -0.50748,-0.32211 -0.15683,0.0668 -0.28472,0.28193 -0.32701,0.56979 -0.1939,0.3925 -0.45965,0.5711 -0.77289,0.66019 -0.31336,0.0892 -0.66516,0.0767 -1.04038,0.0748 -0.16089,0.31093 -0.16431,0.83228 -0.28499,1.23143 -0.0603,0.19968 -0.14251,0.37428 -0.28846,0.47886 -0.14595,0.10467 -0.36855,0.14161 -0.66399,0.0731 l -7.43742,0.10445 -0.15491,-9.98053 -1.42707,-2.18108 -2.01682,-0.66028 6.32198,-5.05085 c -0.0673,-0.11885 -0.39258,-0.55361 -0.66756,-0.67947 -0.46512,-0.48428 -1.06185,-0.77762 -1.56527,-1.22027 -0.37934,-0.55117 -1.07472,-0.65392 -1.65466,-0.88255 -0.30266,-0.0864 -0.60116,-0.2064 -0.81412,-0.40893 -0.21297,-0.20254 -0.32436,-0.49136 -0.3101,-0.83942 -0.24716,-0.0763 -0.51971,-0.18094 -0.75682,-0.34173 -0.23704,-0.1607 -0.44731,-0.38047 -0.54037,-0.70076 -0.15494,-0.6991 -0.2634,-1.4392 -0.0825,-2.13806 0.26715,-0.26154 0.38182,-0.59045 0.41866,-0.93885 0.0375,-0.34824 0.006,-0.72554 0.021,-1.06403 -0.002,-0.24721 0.0688,-0.36251 0.19003,-0.424 0.1212,-0.0613 0.30499,-0.0653 0.47472,-0.0567 0.33926,0.0178 0.69306,0.0494 0.77956,-0.34619 0.0991,-0.63591 0.14239,-1.2873 0.24542,-1.92408 -0.0924,-0.84867 0.31144,-1.6975 0.0744,-2.53329 -0.15923,-0.27887 -0.41874,-0.4993 -0.5979,-0.76799 -0.17907,-0.26879 -0.27379,-0.58337 -0.14448,-0.95186 -0.12745,-0.28459 -0.38384,-0.52173 -0.56423,-0.79673 -0.18038,-0.2749 -0.29344,-0.57942 -0.20688,-0.95659 l 2.94079,0.075 1.10937,-2.5458 -0.16381,-6.28223 -2.35619,0.0654 -0.1052,-4.24003 0.31478,-0.41417 0.11356,-1.84048 0.82369,-0.90686 0.0432,-1.34455 4.66884,0.0226 1.4684,0.4604 0.63399,0.70813 0.59676,-0.0156 -0.0356,1.25106 2.50456,0.0403 0.14904,2.48806 2.76114,-0.033 c 0.26708,0.0389 0.59313,0.0995 0.90097,0.10227 0.30781,0.004 0.61119,-0.0577 0.77957,-0.3462 -0.0571,-0.34033 0.0742,-0.57094 0.27939,-0.76164 0.20511,-0.1907 0.47174,-0.34664 0.72697,-0.47563 0.48581,-0.45519 1.25504,-0.36406 1.64361,-0.96782 0.48856,-0.34644 0.93642,-0.70794 1.19577,-1.25385 0.25122,-0.20351 0.29125,-0.48516 0.28175,-0.79275 -0.009,-0.30767 -0.071,-0.63531 -0.0536,-0.91331 0.002,-0.56249 0.0734,-1.19843 0.0101,-1.72322 -0.29561,-0.14412 -0.44006,-0.38871 -0.51164,-0.6672 -0.0716,-0.27858 -0.0792,-0.59604 -0.0559,-0.88211 0.0452,-0.63922 0.0788,-1.26893 -0.10204,-1.88882 0.004,-0.55539 0.0783,-1.13126 0.31679,-1.63648 l -2.6963,0.007 -0.84852,0.0273 -1.65848,-0.0365 -0.75749,0.0658 -0.31167,-0.0239 -0.18685,-0.014 -0.43626,-0.0346 -0.10078,0.0859 -0.0932,-0.01 -0.52968,-0.0416 -1.1601,0.003 -0.71648,-0.0563 -0.72629,0.0682 -0.12464,-0.009 -0.40507,-0.0318 -0.21799,-0.0175 -3.1399,0.0665 -0.7166,-0.0563 -0.21809,-0.0176 -0.0933,-0.01 -0.0932,-0.01 -0.12464,-0.009 -0.19437,0.0787 -0.21801,-0.0174 -1.56502,-0.0292 -0.21812,-0.0174 -0.49844,-0.0394 -0.44586,0.0902 0.009,-0.12464 -0.19683,0.10987 -0.31148,-0.024 -0.62307,-0.0491 -1.2535,-0.005 -0.31167,-0.0239 -0.3188,0.069 -0.2181,-0.0175 -0.2181,-0.0174 -1.13135,0.0363 -0.74768,-0.0588 -0.0934,-0.01 -0.21801,-0.0174 -0.41239,0.0616 -0.52969,-0.0414 -0.18686,-0.014 -0.12465,-0.009 -0.4124,0.0615 -0.0933,-0.01 -0.94451,0.051 -0.52956,-0.0415 -0.0935,-0.01 -0.43603,-0.0346 -1.65857,-0.0366 -0.72385,0.0372 -0.94453,0.051 -0.31147,-0.024 -0.12464,-0.009 -0.62308,-0.0491 -0.0934,-0.01 -0.22548,0.0763 -0.62306,-0.0491 -0.0933,-0.01 -0.53703,0.0517 -0.0933,-0.01 -0.62307,-0.0491 -0.0934,-0.01 -0.12463,-0.009 -0.0934,-0.01 -1.87902,-0.0224 -0.72395,0.0373 -0.84109,-0.0661 -0.31891,0.069 -0.40496,-0.0318 -0.43623,-0.0346 -1.88637,0.0709 -0.31147,-0.0239 -1.75197,-0.0439 -0.12462,-0.009 -0.62308,-0.0491 -0.72639,0.0682 -1.78308,-0.0462 -0.0935,-0.01 -0.0934,-0.01 -0.21799,-0.0175 -0.0318,0.40496 0.003,1.16008 -0.0239,0.31157 0.0829,0.53937 -0.0564,0.71657 -0.024,0.31156 -0.0175,0.21802 0.0689,0.31899 -0.0239,0.31147 0.005,1.12889 -0.0736,0.93469 -0.024,0.31147 0.1148,0.13444 -0.01,0.0933 -0.0239,0.31156 -0.0241,0.31156 -0.0365,1.65845 -0.009,0.12463 0.037,0.72395 -0.0239,0.31155 -0.0318,0.40505 -0.009,0.12465 0.0854,0.50826 -0.009,0.12464 -0.014,0.18689 -0.009,0.12462 -0.01,0.0934 0.0135,1.03539 -0.0175,0.21812 -0.0908,1.15262 0.0861,0.10088 -0.0174,0.21811 -0.0318,0.40495 -0.01,0.0935 -0.009,0.12464 -0.01,0.0933 -0.01,0.0933 -0.009,0.12464 -0.01,0.0933 0.10744,0.22793 -0.0491,0.62307 -0.01,0.0934 0.0125,1.03546 -0.0175,0.21802 -0.0415,0.52967 -0.0238,0.31144 0.0615,0.41242 -0.0809,1.02811 0.051,0.94432 -0.0175,0.21812 -0.0119,1.34702 -0.009,0.12463 0.0446,0.63044 -0.0241,0.31146 -0.0394,0.49845 -0.024,0.31165 0.0829,0.53937 -0.0318,0.40495 -0.009,0.12466 -0.0195,1.44051 -0.0346,0.43603 -0.012,1.34701 -0.0175,0.2181 -0.01,0.0934 0.11727,0.10323 0.19437,-0.0788 0.12464,0.009 0.17945,0.10816 0.11481,0.13441 0.0788,0.19439 0.0837,0.13198 -0.01,0.0933 0.11728,0.1032 0.0763,0.22548 0.086,0.1009 -0.009,0.12465 0.38721,0.65739 0.0861,0.1008 0.086,0.10078 0.50514,0.35333 0.218,0.0175 0.0936,0.01 0.0838,0.13198 0.10991,0.19664 -0.009,0.12463 0.086,0.10091 0.0932,0.01 0.12464,0.009 0.10091,-0.0861 0.0933,0.01 0.12466,0.009 0.0786,0.19438 -0.009,0.12463 0.0786,0.19418 0.2083,0.14178 0.069,0.31899 -0.01,0.0933 0.10745,0.22787 0.086,0.10086 0.086,0.10089 -0.009,0.12466 -0.01,0.0933 0.1001,0.32135 0.0862,0.10088 0.38042,0.34333 0.20834,0.14177 0.0933,0.01 0.10992,0.19684 -0.009,0.12464 0.0787,0.19416 0.0934,0.01 0.11481,0.13442 0.0861,0.10087 -0.11065,0.21079 -0.01,0.0933 -0.01,0.0933 -0.13442,0.11481 -0.024,0.31168 0.19362,0.32859 0.0861,0.1009 0.12467,0.009 -0.0241,0.31155 0.0764,0.22541 -0.01,0.0933 0.0932,0.01 0.11726,0.10333 0.0837,0.13198 -0.014,0.18685 -0.0175,0.21812 -0.23529,0.20094 -0.10078,0.0859 -0.0933,-0.01 -0.14176,0.20824 -0.014,0.18706 0.19354,0.32857 -0.0175,0.21814 0.0517,0.53691 -0.014,0.18704 -0.0933,-0.01 -0.0934,-0.01 -0.33615,0.28689 -0.0175,0.21812 0.0862,0.1009 0.0764,0.22537 0.26975,0.55416 -0.01,0.0933 -0.0175,0.21799 0.11724,0.10331 0.45678,0.56881 0.3043,0.118 0.11724,0.10332 0.0933,0.01 0.40505,0.0318 0.2254,-0.0764 0.0933,0.01 0.12464,0.009 -0.01,0.0933 0.0934,0.01 -0.009,0.12466 -0.01,0.0933 0.0933,0.01 0.12466,0.009 0.086,0.10078 -0.009,0.12464 0.086,0.10088 -0.11056,0.21078 -0.01,0.0933 -0.1008,0.086 -0.13441,0.11482 -0.10089,0.0861 -0.0933,-0.01 -0.01,0.0933 -0.009,0.12464 -0.01,0.0934 -0.01,0.0933 0.0933,0.01 0.88557,0.69664 -0.009,0.12462 0.21801,0.0175 0.069,0.319 -0.24265,0.29428 -0.014,0.18704 0.12463,0.009 0.18706,0.014 0.1148,0.13443 0.3041,0.11786 0.0861,0.10081 -0.009,0.12465 0.0788,0.19438 -0.0175,0.218 0.11726,0.10322 -0.13442,0.1148 0.11725,0.10332 -0.01,0.0934 0.0933,0.01 -0.009,0.12464 -0.01,0.0933 -0.10079,0.086 -0.009,0.12463 -0.14915,0.30183 -0.10814,0.17948 -0.26718,0.6059 0.11481,0.13441 -0.01,0.0935 0.18705,0.014 0.21066,0.11067 0.27723,0.46058 0.29681,0.21155 0.0837,0.13195 0.21808,0.0176 0.0934,0.01 0.21802,0.0174 0.0787,0.19418 0.12463,0.009 -0.009,0.12464 -0.014,0.18706 -0.14178,0.20822 0.1001,0.32133 0.0861,0.10091 0.0933,0.01 0.11482,0.13442 -0.01,0.0935 -0.0175,0.218 -0.13934,0.17721 0.169,0.64023 0.0764,0.22539 -0.01,0.0933 0.12466,0.009 0.16986,0.23285 0.13197,-0.0838 0.0935,0.01 0.10323,-0.11727 0.01,-0.0933 0.13198,-0.0837 0.19683,-0.1099 0.22541,-0.0765 0.01,-0.0933 0.40504,0.0318 -0.01,0.0934 0.11725,0.1033 -0.13441,0.11482 -0.014,0.18684 -0.0241,0.31168 -0.0933,-0.01 -0.1033,0.11725 -0.014,0.18687 -0.009,0.12463 -0.014,0.18707 0.0933,0.01 0.0764,0.22538 -0.0175,0.218 -0.014,0.18707 -0.20417,0.20331 -0.01,0.0932 -0.009,0.12464 -0.01,0.0935 -0.01,0.0933 0.069,0.31879 0.20831,0.14178 0.17948,0.10827 0.12462,0.009 -0.01,0.0934 0.0933,0.01 -0.009,0.12464 -0.01,0.0933 -0.1009,0.086 -0.13441,0.1148 -0.01,0.0935 0.27975,0.42947 0.11482,0.13441 -0.01,0.0934 -0.01,0.0933 -0.57136,0.48787 -0.31889,0.069 -0.21811,-0.0174 -0.0932,-0.01 -0.009,0.12464 -0.10817,0.17946 -0.009,0.12465 -0.01,0.0933 0.0689,0.3189 0.21066,0.11057 0.30183,0.14914 0.1623,0.32633 0.21077,0.11058 0.19362,0.32871 -0.01,0.0933 -0.0175,0.21801 -0.14178,0.20823 -0.319,0.069 -0.0932,-0.01 -0.1008,0.086 -0.0175,0.21801 -0.0175,0.21799 -0.23285,0.16988 -0.11066,0.21067 -0.024,0.31155 0.086,0.10089 0.0837,0.13198 0.12465,0.009 -0.01,0.0933 -0.024,0.31155 -0.01,0.0933 -0.0175,0.21798 -0.01,0.0935 0.0837,0.13196 0.086,0.10087 -0.0175,0.21812 -0.22605,0.48375 -0.009,0.12464 -0.13198,0.0837 -0.31167,-0.024 -0.10077,0.086 -0.11057,0.21078 -0.01,0.0933 -0.024,0.31146 -0.0175,0.21812 -0.0174,0.21812 -0.45095,0.15247 -0.009,0.12464 -0.10077,0.0862 -0.11059,0.21078 -0.01,0.0933 0.16969,0.23272 0.10987,0.19683 -0.1344,0.11482 -0.10817,0.17947 -0.11057,0.21077 -0.0239,0.31157 -0.1565,0.39523 -0.1033,0.11725 -0.10089,0.086 -0.22538,0.0763 -0.21799,-0.0174 -0.33616,0.2871 -0.009,0.12463 -0.0934,-0.01 -0.24988,0.38779 -0.01,0.0933 -0.024,0.31147 -0.009,0.12463 -0.01,0.0933 -0.01,0.0934 -0.024,0.31147 0.12463,0.009 -0.009,0.12463 -0.01,0.0935 -0.01,0.0933 -0.009,0.12464 -0.12465,-0.009 -0.0933,-0.01 -0.0933,-0.01 -0.45076,0.15249 -0.20419,0.20342 -0.1418,0.2083 -0.01,0.0933 -0.01,0.0935 -0.0175,0.2181 -0.0239,0.31156 -0.01,0.0933 -0.19664,0.10993 -0.01,0.0933 0.0763,0.22547 0.21067,0.11056 0.17966,0.10818 0.11482,0.13442 0.0787,0.19439 -0.009,0.12463 -0.014,0.18685 -0.11058,0.21079 0.0763,0.22546 -0.014,0.18686 0.0837,0.13197 -0.01,0.0934 0.10011,0.32136 0.15514,0.41975 -0.009,0.12465 -0.01,0.0935 -0.0175,0.21801 -0.0933,-0.01 -0.42947,0.27979 -0.23284,0.16966 -0.11069,0.21075 -0.01,0.0935 -0.12464,-0.009 -0.10805,0.1795 z"
       id="LA-04"
       style="font-style:normal;font-weight:400;font-size:34.375px;font-family:'MS Shell Dlg 2';opacity:1;fill:none;fill-opacity:1;fill-rule:evenodd;stroke:#000000;stroke-width:0.33333385;stroke-linecap:square;stroke-linejoin:bevel;stroke-miterlimit:4;stroke-dasharray:none;stroke-opacity:1" />
    <path
       inkscape:connector-curvature="0"
       d="m 192.91943,362.00438 -2.28899,0.008 -0.53946,0.0829 -0.49844,-0.0394 -0.12464,-0.009 -0.18686,-0.014 -0.12464,-0.009 -0.1009,0.0861 -0.0933,-0.01 -0.62309,-0.0491 -0.44339,0.0591 -1.13136,0.0363 -0.21811,-0.0174 -0.40494,-0.0318 -0.2181,-0.0175 -0.63043,0.0444 -0.31155,-0.0239 -1.47153,-0.0219 -0.32145,0.1001 -0.0933,-0.01 -0.72383,0.0372 -0.21812,-0.0176 -0.0933,-0.01 -0.12464,-0.009 -0.72385,0.0373 -0.40506,-0.0318 -0.218,-0.0174 -0.31157,-0.024 -0.94442,0.051 -0.4124,0.0615 -1.15998,0.003 -0.31156,-0.0239 -0.62308,-0.0491 -0.72629,0.0683 -0.12462,-0.009 -1.75935,0.0498 -0.62307,-0.0491 -0.53947,0.083 -1.65856,-0.0366 -0.12465,-0.009 c -0.23886,0.50521 -0.31357,1.08114 -0.31676,1.63651 0.18071,0.61989 0.14791,1.24964 0.10205,1.88883 -0.0235,0.28603 -0.0157,0.60351 0.0559,0.88209 0.0715,0.27849 0.21603,0.52308 0.51163,0.66721 0.0632,0.52477 -0.009,1.16073 -0.0101,1.72322 -0.0183,0.27795 0.044,0.60562 0.0536,0.91331 0.009,0.30759 -0.0297,0.58926 -0.28179,0.79272 -0.25932,0.54596 -0.70716,0.90743 -1.19574,1.25385 -0.38858,0.60378 -1.15779,0.51266 -1.6436,0.96784 -0.25519,0.12897 -0.52186,0.28492 -0.72696,0.47564 -0.2052,0.19069 -0.3365,0.4213 -0.27942,0.76161 -0.16836,0.28859 -0.47174,0.34896 -0.77957,0.34622 -0.30781,-0.004 -0.63387,-0.0634 -0.90093,-0.10227 l -2.76117,0.0331 -0.14903,-2.48805 -2.50456,-0.0403 0.0356,-1.25106 -0.59676,0.0156 -0.63398,-0.70812 -1.46843,-0.46044 -4.66882,-0.0226 -0.0432,1.34453 -0.8237,0.9069 -0.11356,1.84047 -0.31478,0.41416 0.1052,4.24005 2.3562,-0.0654 0.1638,6.28223 -1.10937,2.5458 -2.9408,-0.075 c -0.0865,0.37717 0.0265,0.68167 0.20688,0.95658 0.18039,0.27501 0.43679,0.51214 0.56424,0.79674 -0.12931,0.36848 -0.0347,0.68306 0.14446,0.95186 0.17917,0.26869 0.43868,0.48913 0.59789,0.76797 0.23745,0.83582 -0.16634,1.68463 -0.0744,2.5333 -0.10315,0.63678 -0.14643,1.28816 -0.24541,1.92408 -0.0866,0.39542 -0.44029,0.36367 -0.77955,0.3462 -0.16978,-0.008 -0.35351,-0.004 -0.47473,0.0567 -0.12121,0.0614 -0.19196,0.17679 -0.19004,0.42399 -0.0158,0.3385 0.0162,0.71574 -0.021,1.06401 -0.0365,0.34845 -0.1515,0.67733 -0.41867,0.93886 -0.18088,0.69888 -0.0727,1.43895 0.0825,2.13809 0.0931,0.32028 0.30338,0.54005 0.54039,0.70074 0.23711,0.1608 0.50965,0.26539 0.75683,0.34174 -0.0142,0.34805 0.0972,0.63686 0.31009,0.83941 0.21297,0.20254 0.51146,0.32253 0.81412,0.40894 0.57995,0.22862 1.27533,0.33136 1.65466,0.88255 0.50342,0.44264 1.10015,0.73598 1.56527,1.22026 0.27498,0.12586 0.60028,0.56062 0.66756,0.67947 l -6.32196,5.05086 2.0168,0.66027 1.42706,2.18107 0.1549,9.98054 7.43743,-0.10445 c 0.29544,0.0684 0.51801,0.0316 0.66398,-0.0731 0.14596,-0.10457 0.22811,-0.27917 0.28846,-0.47885 0.1207,-0.39915 0.12405,-0.92051 0.285,-1.23143 0.37521,0.002 0.72702,0.0143 1.04037,-0.0747 0.31325,-0.0892 0.57901,-0.2677 0.7729,-0.6602 0.0422,-0.28784 0.17018,-0.50308 0.327,-0.5698 0.15671,-0.0667 0.35581,0.002 0.5075,0.32212 0.69161,0.45528 1.49907,0.54481 2.14086,1.07749 -0.0647,0.49657 0.20108,0.82613 0.5036,1.16812 0.3025,0.34199 0.64466,0.69604 0.62821,1.17791 -0.0388,0.26619 0.0231,0.40204 0.15023,0.48207 0.12713,0.0799 0.31264,0.0872 0.52712,0.0727 0.429,-0.0289 0.94642,-0.13897 1.25352,0.005 1.00444,-0.0454 2.03875,0.0284 3.02672,0.1761 0.10296,0.17261 0.0827,0.27312 0.004,0.3451 -0.0785,0.0719 -0.23335,0.0883 -0.35491,0.12885 -0.12163,0.0404 -0.2379,0.0887 -0.26393,0.1672 -0.0263,0.0785 0.0428,0.21021 0.25092,0.39591 -0.15113,0.09 -0.44807,0.29425 -0.6049,0.51674 -0.15684,0.22239 -0.18713,0.4556 0.20018,0.64268 0.39879,-0.0607 0.72814,0.0663 0.91746,0.29158 0.18929,0.22535 0.2519,0.54395 0.14701,0.92067 0.16986,0.26194 0.56045,0.59872 0.7437,0.90484 0.0918,0.15306 0.11459,0.28998 0.0617,0.41242 -0.053,0.1223 -0.198,0.242 -0.49434,0.30585 -0.15663,0.21869 0.12757,0.39683 0.33217,0.55909 0.10237,0.0811 0.18109,0.16 0.16986,0.23275 -0.011,0.0727 -0.10125,0.15392 -0.36234,0.22225 -0.21206,0.19225 -0.21471,0.36377 -0.10399,0.52476 0.11072,0.16088 0.33685,0.2841 0.53133,0.41797 0.19451,0.13379 0.36977,0.26623 0.40919,0.37697 0.0395,0.11072 -0.0461,0.22156 -0.4008,0.31321 -0.40671,0.30412 -1.04417,0.0821 -1.5986,-3e-5 -0.27733,-0.0413 -0.56192,-0.0374 -0.75749,0.0657 -0.19566,0.10274 -0.30442,0.31849 -0.33928,0.72562 -0.18168,0.45645 -0.0798,0.87241 0.0217,1.31835 0.10134,0.44582 0.18563,0.90535 -0.077,1.3732 0.0103,0.29672 0.11706,0.40122 0.25091,0.3959 0.13382,-0.007 0.2923,-0.12508 0.48943,-0.24365 0.197,-0.1186 0.4163,-0.22213 0.61637,-0.26496 0.2001,-0.0429 0.37458,-0.0245 0.5174,0.1974 0.36712,0.2514 0.7234,0.58948 1.09134,0.86962 0,0 0,0 0,0 0.0412,0.0312 0.0753,0.0738 0.11726,0.1032 0.41627,0.29338 0.88109,0.49113 1.44466,0.36448 0.36283,-0.28171 0.79486,-0.49185 1.23279,-0.52991 0.43801,-0.0379 0.8843,0.0817 1.21671,0.47192 l 0.11971,0.0723 0.12216,0.041 3.19002,0.0943 c -0.68038,-0.75963 -0.97753,-1.60946 -1.74102,-2.1746 -0.26857,-0.32598 -0.25675,-0.61876 -0.15184,-0.85826 0.009,-0.0253 0.0535,-0.0328 0.0671,-0.0575 0,0 0,0 0,0 0.11564,-0.20747 0.28537,-0.39352 0.48284,-0.55754 -0.48094,-0.48493 -0.59774,-1.08604 -0.58664,-1.70759 0.0115,-0.62145 0.14335,-1.26806 0.17819,-1.86676 0.27743,-0.62928 0.30964,-1.23985 0.17337,-1.80437 -0.13621,-0.56463 -0.44479,-1.07541 -0.84802,-1.57139 0.0653,-0.52579 -0.3403,-0.99997 -0.66855,-1.46325 -0.16415,-0.2316 -0.28805,-0.45168 -0.35356,-0.68616 -0.0654,-0.23435 -0.0745,-0.49577 0.0899,-0.74523 0.29283,-1.14364 0.0773,-2.34718 0.27463,-3.48921 0.0782,-0.31743 0.24257,-0.54223 0.46143,-0.68461 0.21875,-0.14236 0.5125,-0.19779 0.80086,-0.21914 0.57671,-0.0425 1.21527,0.1067 1.64374,0.22346 0.2889,0.5314 0.53055,1.09569 0.6826,1.68374 0.15193,0.58805 0.21801,1.18246 0.0782,1.79287 -0.12499,0.30465 -0.1105,0.54824 0.006,0.72148 0.11637,0.17327 0.33191,0.26786 0.56992,0.32693 0.47579,0.11826 1.05806,0.0258 1.30175,-0.21091 0.2643,-0.45226 0.15555,-0.79625 -0.0724,-1.07159 -0.22801,-0.27524 -0.5722,-0.45972 -0.76598,-0.62442 0.29766,-0.17518 0.62388,-0.23638 0.92313,-0.1781 0.29925,0.0581 0.58852,0.22284 0.81167,0.44001 0.22326,0.21711 0.37027,0.48525 0.43961,0.78692 0.0694,0.30158 0.055,0.65164 -0.1071,0.96326 0.0127,0.53848 -0.15552,1.02397 -0.45798,1.4372 -0.30237,0.41335 -0.72623,0.73007 -1.29095,0.87021 0.14087,0.30138 0.37019,0.47853 0.6437,0.5835 0.27349,0.1051 0.59322,0.14028 0.92968,0.13599 0.67288,-0.009 1.37929,-0.14575 1.8864,-0.071 0.37916,-0.42696 0.9532,-0.62403 1.4559,-0.57505 0.25125,0.0244 0.46743,0.11362 0.66813,0.27198 0.20077,0.15853 0.3824,0.39361 0.47815,0.69595 0.0868,0.33784 0.12459,0.83224 0.27825,1.24437 0.0768,0.20616 0.20044,0.37819 0.33706,0.49677 0.13661,0.11859 0.29474,0.20586 0.51985,0.1663 -0.0685,-0.45286 -0.0837,-0.9211 0.01,-1.31581 0.0933,-0.3947 0.29812,-0.74321 0.73754,-1.00773 0.13309,-0.89543 0.68928,-1.80047 0.98728,-2.58673 0.42223,-0.0601 0.87385,-0.0681 1.1552,0.0596 0.28125,0.12756 0.39467,0.401 0.14446,0.95177 0.0252,0.30282 0.15212,0.49647 0.32725,0.6214 0.17516,0.12482 0.38112,0.17052 0.58454,0.14 0.20352,-0.0307 0.38162,-0.11151 0.49188,-0.27476 0.11024,-0.16325 0.1584,-0.41195 0.054,-0.68538 -0.23568,-0.27102 -0.34157,-0.49704 -0.35103,-0.71724 -0.01,-0.22026 0.0623,-0.43357 0.20476,-0.61082 0.285,-0.35445 0.8087,-0.61185 1.25739,-0.84145 0.32349,-0.16062 0.53015,-0.12901 0.68782,0.023 0.15768,0.15184 0.25548,0.42333 0.35591,0.65494 0.10051,0.23171 0.21375,0.45146 0.36583,0.53036 0.15207,0.0788 0.36892,0.0156 0.68124,-0.29117 0.2412,-0.0123 0.38746,-0.11807 0.49177,-0.27477 0.10424,-0.15668 0.16147,-0.36023 0.23107,-0.54605 0.0695,-0.18581 0.15129,-0.37918 0.28844,-0.47883 0.13715,-0.0997 0.32103,-0.11508 0.62799,-0.0134 0.59614,0.21904 1.1436,0.0104 1.67315,-0.15041 0.26484,-0.0806 0.53796,-0.16308 0.79605,-0.15681 0.25812,0.008 0.50131,0.0963 0.75928,0.31053 0.96013,0.21318 1.85171,0.75983 2.87931,0.85353 0.31039,-0.29345 0.51036,-0.14118 0.7166,0.0563 0.20623,0.19757 0.41795,0.45398 0.71826,0.43268 l 1.2584,-0.0577 c 0,0 0.20135,7.09908 0.28665,8.70552 l 1.28462,0.007 -0.004,-0.7526 0.75257,-0.004 -0.29004,-2.68733 2.6847,2.53093 -0.14069,0.99201 3.74334,0.232 -0.52372,-6.09117 6.48834,1.20038 3.61694,-0.1543 0.009,-0.12465 0.12465,0.009 0.0935,0.01 0.01,-0.0933 -0.0933,-0.01 0.01,-0.0933 0.009,-0.12464 0.11809,-0.30427 0.10091,-0.086 0.01,-0.0933 0.0175,-0.21811 -0.0862,-0.10087 -0.0933,-0.01 -0.12464,-0.009 0.009,-0.12466 0.13194,-0.0836 0.1009,-0.086 0.0934,0.01 0.009,-0.12464 0.12463,0.009 0.014,-0.18707 -0.12466,-0.009 -0.0934,-0.01 0.009,-0.12464 -0.086,-0.1008 0.10089,-0.0859 0.21811,0.0175 0.0933,0.01 0.10322,-0.11729 0.01,-0.0933 -0.0933,-0.01 -0.0934,-0.01 0.01,-0.0934 -0.10745,-0.22784 0.01,-0.0933 0.009,-0.12465 -0.0934,-0.01 0.01,-0.0933 0.01,-0.0935 0.009,-0.12463 0.10817,-0.17948 0.024,-0.31166 0.009,-0.12463 0.12467,0.009 0.01,-0.0932 0.0861,0.10078 -0.009,0.12463 0.0933,0.01 0.12464,0.009 0.009,-0.12463 -0.11726,-0.1032 -0.0932,-0.01 0.01,-0.0933 0.0932,0.01 0.13443,-0.1148 0.10817,-0.17967 0.009,-0.12465 -0.0788,-0.19417 0.0933,0.01 0.0934,0.01 0.21066,0.11057 0.01,-0.0933 0.0934,0.01 -0.0763,-0.22546 -0.0861,-0.10091 -0.12465,-0.009 0.0175,-0.218 0.0175,-0.21802 0.218,0.0175 0.01,-0.0934 -0.086,-0.10088 0.009,-0.12467 0.0933,0.01 0.0836,0.13196 0.13443,-0.1148 0.024,-0.31148 -0.2033,-0.20418 -0.0933,-0.01 0.009,-0.12464 0.01,-0.0933 0.0932,0.01 0.1008,-0.0859 0.0175,-0.21813 -0.0861,-0.10088 0.009,-0.12464 0.0933,0.01 0.12464,0.009 0.0934,0.01 0.0934,0.01 0.01,-0.0934 -0.0861,-0.1008 -0.0838,-0.13197 0.01,-0.0933 0.10088,-0.0862 0.0861,0.10089 0.12465,0.009 0.10078,-0.0862 0.009,-0.12464 0.01,-0.0933 -0.0933,-0.01 -0.10744,-0.22783 0.13197,-0.0837 -0.11727,-0.10331 -0.0838,-0.13199 0.01,-0.0934 0.11068,-0.21067 0.13931,-0.17721 0.20398,-0.20332 0.01,-0.0934 0.11725,0.10322 0.01,-0.0935 0.009,-0.12463 -0.21065,-0.11067 0.01,-0.0934 0.0932,0.01 0.13442,-0.11479 0.0239,-0.31148 -0.12464,-0.009 -0.0933,-0.01 0.01,-0.0933 0.1008,-0.0861 0.009,-0.12463 -0.0932,-0.01 -0.22784,0.10746 -0.0933,-0.01 -0.01,0.0933 -0.0934,-0.01 0.01,-0.0933 -1.26086,0.0889 -0.31145,-0.0239 -0.21812,-0.0174 -0.32134,0.1001 -0.52969,-0.0416 -0.19416,0.0787 -0.62308,-0.0491 -0.12464,-0.009 -0.63043,0.0445 -0.0935,-0.01 -0.0933,-0.01 -0.32124,0.1001 -0.75504,0.0346 -0.0933,-0.01 -0.72395,0.0372 -0.12463,-0.009 -0.31146,-0.0239 -0.0935,-0.01 -0.53935,0.083 -0.40504,-0.0318 -0.21801,-0.0174 -0.5058,0.0542 -0.75506,0.0345 -0.0934,-0.01 -0.40494,-0.0318 -0.44607,0.0904 -0.5058,0.0543 -0.21802,-0.0174 -1.34692,-0.0119 -0.22792,0.10745 -0.94196,0.0199 -1.16009,0.003 -0.0934,-0.01 -0.218,-0.0174 -0.32146,0.10011 -0.0932,-0.01 -0.0933,-0.01 -1.06666,0.01 -0.0934,-0.01 -0.31892,0.069 -0.0933,-0.01 -0.31146,-0.0239 -0.2181,-0.0174 -0.21812,-0.0176 -0.10322,0.11727 -0.0935,-0.01 -0.12464,-0.009 -1.56513,-0.0292 -0.4123,0.0615 -0.40495,-0.0318 -0.12465,-0.009 -1.45033,0.10533 -0.12465,-0.009 -0.41231,0.0617 -1.56748,0.002 -0.0934,-0.01 -0.44361,0.0591 -0.0933,-0.01 -0.31156,-0.024 -0.0933,-0.01 -0.12464,-0.009 -0.0936,-0.01 -1.04526,0.1371 -0.21801,-0.0174 -0.40506,-0.0318 -0.44339,0.0592 -0.18707,-0.014 -0.31148,-0.0239 -0.12463,-0.009 -0.81745,0.0299 -1.06894,0.0412 -0.18706,-0.014 -1.57228,0.0643 -0.43624,-0.0346 -0.19661,0.10991 -0.31168,-0.0239 -0.63042,0.0444 -1.68955,-0.0392 -1.13133,0.0363 -0.12466,-0.009 -0.0933,-0.01 -0.4123,0.0616 -2.50948,0.022 -1.16008,0.003 -0.41241,0.0616 -0.218,-0.0176 -0.0932,-0.01 -1.4741,0.008 -0.01,0.0933 -0.31157,-0.0239 -0.21799,-0.0174 -0.72395,0.0371 -2.19791,0.0465 -0.21801,-0.0174 0.2352,-0.20097 0.41973,-0.15495 0.45324,-0.18381 0.32878,-0.1936 0.10808,-0.17946 0.24255,-0.2945 0.009,-0.12463 0.01,-0.0933 0.01,-0.0934 0.009,-0.12467 0.014,-0.18703 -0.11481,-0.13445 -0.086,-0.10078 -0.086,-0.10079 -0.29447,-0.24266 -0.29426,-0.24263 -0.41176,-0.34576 -0.0933,-0.01 -0.086,-0.10088 -0.11726,-0.10331 -0.0838,-0.13198 0.01,-0.0934 0.0241,-0.31156 0.01,-0.0933 0.10333,-0.11726 0.35065,-0.47395 0.14178,-0.20821 0.10089,-0.086 0.118,-0.30429 0.009,-0.12463 0.01,-0.0933 0.0174,-0.218 0.01,-0.0933 -0.16988,-0.23286 -0.20331,-0.20398 -0.29438,-0.24265 -0.29436,-0.24263 -0.39034,-0.2187 -0.20087,-0.23528 -0.0763,-0.22549 0.014,-0.18685 0.009,-0.12465 0.10079,-0.0861 0.22538,-0.0764 0.41485,-0.0928 0.39526,0.15651 0.43603,0.0346 0.31167,0.0239 0.18685,0.014 0.12464,0.009 0.19683,-0.1099 0.3188,-0.0689 0.12463,0.009 0.01,-0.0933 0.4222,-0.18626 0.1008,-0.0862 0.0175,-0.21798 0.14175,-0.20823 0.01,-0.0935 0.0417,-0.52957 -0.12465,-0.009 0.01,-0.0933 -0.17947,-0.10827 -0.12465,-0.009 -0.16986,-0.23275 -0.12463,-0.009 -0.0763,-0.22539 -0.21068,-0.11066 -0.086,-0.1009 0.0175,-0.218 -0.0861,-0.1008 0.009,-0.12464 0.0239,-0.31164 0.01,-0.0933 0.10088,-0.0859 0.009,-0.12464 -0.21814,-0.0176 -0.0932,-0.01 -0.0934,-0.01 -0.009,0.12467 -0.13195,0.0836 -0.0764,-0.22537 -0.0862,-0.10089 -0.10743,-0.22793 0.014,-0.18687 0.009,-0.12464 0.14915,-0.30183 0.10089,-0.086 0.23528,-0.20085 0.1008,-0.0861 0.0932,0.01 0.12465,0.009 0.0934,0.01 0.0764,0.22548 -0.10825,0.17946 -0.009,0.12467 0.26249,0.64757 -0.01,0.0933 0.0859,0.10089 0.11481,0.13443 0.0861,0.10079 0.0862,0.1008 0.20818,0.14178 0.0935,0.01 0.62306,0.0491 0.24265,-0.29427 0.11068,-0.21077 0.01,-0.0933 -0.0838,-0.13197 0.01,-0.0934 -0.0764,-0.22538 -0.28692,-0.33615 -0.20342,-0.20399 -0.29436,-0.24265 -0.086,-0.10089 -0.10746,-0.22784 -0.0862,-0.10078 -0.0838,-0.13198 0.0318,-0.40504 -0.0758,-0.63288 -0.0615,-0.41241 0.10322,-0.11725 0.014,-0.18686 -0.0933,-0.01 -0.0837,-0.13196 0.01,-0.0933 0.01,-0.0933 0.009,-0.12465 0.01,-0.0934 0.10081,-0.086 0.0932,0.01 0.12464,0.009 0.0933,0.01 0.32136,-0.10011 0.0932,0.01 0.11483,0.13441 0.19684,-0.10989 0.13198,-0.0838 0.31877,-0.069 0.10332,-0.11726 0.0934,0.01 0.22536,-0.0763 0.01,-0.0933 0.23521,-0.20096 0.20418,-0.20342 0.12464,0.009 0.01,-0.0934 0.10079,-0.0859 0.009,-0.12465 0.01,-0.0933 0.01,-0.0933 0.0175,-0.21802 0.01,-0.0935 -0.20086,-0.23528 -0.0934,-0.01 -0.0935,-0.01 -0.12465,-0.009 -0.0932,-0.01 -0.01,0.0935 -0.0932,-0.01 -0.54682,0.17634 -0.01,0.0934 -0.21802,-0.0175 -0.19681,0.10991 -0.12465,-0.009 -0.0934,-0.01 -0.0932,-0.01 0.009,-0.12465 -0.12463,-0.009 -0.0933,-0.01 -0.20344,-0.20398 -0.29426,-0.24264 0.01,-0.0934 0.009,-0.12465 -0.0934,-0.01 0.014,-0.18687 0.009,-0.12464 0.01,-0.0933 0.01,-0.0933 0.10332,-0.11726 0.13198,-0.0836 0.204,-0.20332 0.12462,0.009 0.0837,0.13197 0.0861,0.10078 0.11726,0.10323 0.0837,0.13195 0.086,0.1009 0.30427,0.1181 0.61328,0.17364 0.21799,0.0176 0.21801,0.0174 0.0933,0.01 0.009,-0.12464 0.32625,-0.16251 0.10321,-0.11727 0.0238,-0.31146 0.01,-0.0935 0.01,-0.0933 -0.0517,-0.53692 -0.0763,-0.22548 0.0394,-0.49843 -0.1001,-0.32125 0.14913,-0.30183 0.009,-0.12464 0.36047,-0.59855 0.21155,-0.29673 0.13197,-0.0837 0.19417,-0.0788 0.12465,0.009 0.0933,0.01 0.009,-0.12462 0.01,-0.0935 -0.0861,-0.10076 -0.12464,-0.009 -0.0932,-0.01 -0.0837,-0.13196 0.024,-0.31167 0.01,-0.0933 0.0414,-0.52968 0.2849,-1.23145 0.01,-0.0933 0.01,-0.0935 0.12464,0.009 0.009,-0.12464 0.0933,0.01 0.01,-0.0933 0.21811,0.0174 0.73366,-0.16173 0.0932,0.01 0.10011,0.32145 -0.0346,0.43603 -0.01,0.0933 0.0861,0.10089 0.0764,0.22539 0.11727,0.1032 0.0935,0.01 0.20822,0.1418 0.0934,0.01 0.10331,-0.11727 0.12462,0.009 0.10817,-0.17948 0.009,-0.12465 0.10817,-0.17966 0.009,-0.12464 -0.0932,-0.01 -0.28703,-0.33596 -0.2034,-0.20417 -0.0837,-0.13198 0.01,-0.0933 0.10079,-0.086 0.009,-0.12464 0.44361,-0.0591 0.32861,-0.19361 0.11799,-0.30407 0.43682,-0.3732 0.13196,-0.0836 0.0174,-0.21811 0.0933,0.01 0.0933,0.01 0.12464,0.009 0.01,-0.0933 0.009,-0.12463 0.18683,0.014 0.01,-0.0933 -0.0859,-0.10079 0.009,-0.12465 0.014,-0.18705 -0.21802,-0.0174 0.0239,-0.31146 0.0175,-0.21811 0.01,-0.0935 0.009,-0.12463 0.13931,-0.17701 0.10322,-0.11727 0.01,-0.0933 0.10077,-0.0861 0.12464,0.009 0.009,-0.12465 0.0934,0.01 0.01,-0.0933 1.16978,-0.12729 0.319,-0.069 0.20399,-0.20343 0.13197,-0.0836 0.35332,-0.50515 -0.12464,-0.009 -0.0789,-0.19418 0.009,-0.12464 -0.0861,-0.10089 -0.11725,-0.10331 -0.0933,-0.01 -0.70668,-0.18101 -0.12464,-0.009 -0.39769,-0.12528 -0.21801,-0.0175 -0.0861,-0.10079 -0.0838,-0.13198 0.01,-0.0933 -0.11726,-0.10331 0.009,-0.12464 0.13194,-0.0836 0.10091,-0.0859 0.11065,-0.21076 0.12466,0.009 0.0932,0.01 0.0934,0.01 0.21075,0.11068 0.0838,0.13198 0.27958,0.42946 0.20095,0.23527 0.21813,0.0174 0.31145,0.024 0.0933,0.01 0.009,-0.12466 -0.0372,-0.72393 0.01,-0.0933 0.32881,-0.19351 0.65495,-0.356 0.10321,-0.11726 0.10805,-0.17947 -0.0763,-0.22549 0.01,-0.0933 0.10323,-0.11724 0.2181,0.0174 0.01,-0.0933 0.10089,-0.086 0.009,-0.12464 0.13196,-0.0838 0.01,-0.0935 0.10323,-0.11726 0.01,-0.0932 -0.0689,-0.31889 -0.30427,-0.11803 -0.21798,-0.0174 -0.0836,-0.13197 -0.29692,-0.21134 -0.20823,-0.14179 -0.22781,0.10747 -0.014,0.18685 0.1148,0.13443 0.17209,0.20171 -0.0174,0.21803 -0.01,0.0932 -0.009,0.12464 -0.0394,0.49845 -0.18686,-0.014 -0.21078,-0.11056 -0.21076,-0.11059 -0.0934,-0.01 -0.22538,0.0763 -0.18707,-0.014 -0.13198,0.0836 -0.10319,0.11726 -0.0934,-0.01 -0.43621,-0.0346 -0.0933,-0.01 -0.21802,-0.0176 -0.30182,-0.14915 -0.18685,-0.014 -0.20343,-0.20399 0.009,-0.12464 -0.0861,-0.1009 0.01,-0.0933 0.009,-0.12465 0.01,-0.0935 0.01,-0.0933 0.024,-0.31166 0.118,-0.30408 0.009,-0.12464 0.014,-0.18705 0.10329,-0.11726 0.12466,0.009 0.53032,-0.3657 0.12464,0.009 0.0933,0.01 0.086,0.1009 0.12463,0.009 0.0934,0.01 0.0934,0.01 0.14915,-0.30182 0.20151,-0.17215 0.22794,-0.10744 0.21811,0.0174 0.0934,0.01 0.20086,0.23517 0.20416,-0.2033 0.01,-0.0935 0.0174,-0.21812 0.01,-0.0933 0.13197,-0.0836 0.18685,0.014 0.12465,0.009 0.18706,0.014 0.11725,0.10321 0.29429,0.24255 0.0861,0.10088 -0.01,0.0936 0.0934,0.01 -0.009,0.12464 0.12462,0.009 0.0934,0.01 0.0932,0.01 0.13443,-0.11481 0.01,-0.0933 0.01,-0.0933 0.0175,-0.21801 0.024,-0.31157 0.10087,-0.0861 0.22795,-0.10747 0.01,-0.0933 -0.11728,-0.10322 -0.16985,-0.23284 -0.11724,-0.10332 0.024,-0.31145 0.0239,-0.31168 0.009,-0.12462 0.12462,0.009 0.01,-0.0934 0.0934,0.01 0.21809,0.0174 -0.01,0.0936 0.16964,0.23283 0.12465,0.009 0.0933,0.01 0.32872,-0.19361 0.10077,-0.0859 0.13198,-0.0837 0.11067,-0.21074 0.24265,-0.29438 0.0932,0.01 0.01,-0.0933 0.0175,-0.2181 0.0175,-0.21812 -0.086,-0.10079 -0.21077,-0.11059 -0.21812,-0.0175 -0.30162,-0.14914 -0.18707,-0.014 -0.32124,0.1001 -0.73788,-0.18348 -0.17966,-0.10825 -0.11726,-0.10332 -0.0933,-0.01 0.009,-0.12465 -0.0933,-0.01 0.01,-0.0935 0.12529,-0.3977 0.11057,-0.21068 0.01,-0.0935 0.009,-0.12463 0.014,-0.18704 0.32879,-0.19353 0.13195,-0.0836 0.10322,-0.11724 0.01,-0.0935 0.10078,-0.0861 0.009,-0.12462 -0.0787,-0.19418 0.009,-0.12466 -0.0933,-0.01 -0.20341,-0.20419 -0.0934,-0.01 0.009,-0.12466 -0.31148,-0.024 -0.12463,-0.009 -0.11069,0.21076 -0.23529,0.20097 -0.31877,0.0689 -0.0934,-0.01 -0.31157,-0.0238 -0.218,-0.0174 -0.3977,-0.1253 -0.0836,-0.13196 -0.21074,-0.11067 -0.3042,-0.118 0.009,-0.12463 -0.0933,-0.01 -0.20343,-0.20399 -0.0837,-0.13196 0.01,-0.0934 -0.11727,-0.1033 -0.0837,-0.13196 0.024,-0.31147 0.01,-0.0934 0.25972,-0.51241 0.11798,-0.30429 0.014,-0.18683 0.009,-0.12464 0.014,-0.18707 0.1033,-0.11726 0.40173,0.47056 0.17966,0.10819 0.18615,0.42222 0.28703,0.33595 0.0837,0.13197 0.21066,0.11065 0.086,0.10091 0.2181,0.0174 0.20832,0.14181 0.31147,0.0239 0.0933,0.01 0.10333,-0.11725 0.13197,-0.0838 0.10079,-0.0861 0.009,-0.12462 -0.0932,-0.01 0.01,-0.0933 -0.10743,-0.22785 -0.29692,-0.21154 -0.18686,-0.014 -0.29446,-0.24256 -0.61571,-0.14244 -0.2943,-0.24264 -0.29445,-0.24266 -0.19353,-0.32858 0.31888,-0.069 0.01,-0.0933 0.42944,-0.27958 0.13444,-0.1148 0.19436,-0.0788 0.13199,-0.0838 0.20397,-0.20331 0.1418,-0.20824 0.0933,0.01 0.01,-0.0933 0.11801,-0.30418 0.13195,-0.0837 -0.10744,-0.22793 0.01,-0.0933 -0.0764,-0.22539 -0.20098,-0.23518 -0.086,-0.1009 -0.218,-0.0174 -0.01,0.0933 -0.20419,0.20332 -0.01,0.0933 -0.0175,0.21809 -0.13198,0.0838 -0.11057,0.21068 -0.0175,0.21799 -0.3189,0.069 -0.41231,0.0616 -0.14176,0.20823 -0.42221,0.18615 -0.21801,-0.0174 -0.10825,0.17964 -0.21813,-0.0175 0.01,-0.0933 -0.17944,-0.10826 -0.20831,-0.14178 0.01,-0.0932 -0.0863,-0.10079 -0.10011,-0.32144 -0.0932,-0.01 0.0175,-0.218 0.01,-0.0934 0.009,-0.12462 -0.086,-0.10089 0.11058,-0.21077 0.01,-0.0934 0.10079,-0.0859 0.12464,0.009 0.0933,0.01 0.009,-0.12464 0.10827,-0.17967 0.14178,-0.20822 0.11057,-0.21068 0.33606,-0.2871 0.22548,-0.0763 0.42211,-0.18614 0.1009,-0.0861 0.24255,-0.29441 0.23517,-0.20085 0.014,-0.18704 0.009,-0.12466 -0.11725,-0.10323 -0.0934,-0.01 -0.39769,-0.12528 -0.30165,-0.14912 -0.52229,-0.1352 -0.31156,-0.024 -0.21811,-0.0176 -0.4123,0.0617 -0.0934,-0.01 -0.12468,-0.009 -0.086,-0.1009 0.01,-0.0935 -0.0764,-0.22537 0.01,-0.0934 0.22115,-0.42154 0.01,-0.0934 -0.086,-0.10078 -0.0836,-0.13196 0.014,-0.18707 0.009,-0.12464 0.01,-0.0933 0.01,-0.0934 0.009,-0.12464 0.01,-0.0934 0.0239,-0.31155 0.10078,-0.0859 0.10324,-0.11726 0.14911,-0.30184 0.01,-0.0933 0.11066,-0.21066 0.22548,-0.0764 0.0933,0.01 0.22539,-0.0764 0.19682,-0.1099 0.46793,-0.37061 0.3533,-0.50504 0.10079,-0.0861 0.0175,-0.21812 0.01,-0.0933 0.01,-0.0933 0.009,-0.12465 0.01,-0.0933 0.01,-0.0933 0.009,-0.12464 0.01,-0.0934 -0.19353,-0.32866 -0.17965,-0.10829 -0.11481,-0.13443 0.01,-0.0933 0.13197,-0.0836 0.009,-0.12462 -0.10989,-0.19685 -0.16232,-0.32612 -0.1148,-0.13444 -0.086,-0.10089 0.01,-0.0933 -0.31156,-0.0239 -0.0934,-0.01 -0.319,0.069 -0.01,0.0933 -0.13446,0.11479 -0.0932,-0.01 -0.014,0.18688 -0.009,0.12462 0.086,0.10091 -0.01,0.0933 -0.009,0.12463 -0.0932,-0.01 -0.01,0.0933 0.0763,0.22539 0.0928,0.41485 0.0861,0.10079 -0.1033,0.11726 -0.014,0.18705 -0.24251,0.29429 -0.11059,0.21077 -0.2181,-0.0174 -0.0934,-0.01 -0.13197,0.0837 -0.0933,-0.01 -0.0932,-0.01 -0.11725,-0.10332 -0.3977,-0.12539 -0.0932,-0.01 -0.20098,-0.23517 -0.0862,-0.10079 0.009,-0.12465 0.01,-0.0933 -0.11727,-0.1033 0.13444,-0.11481 0.01,-0.0934 0.11065,-0.21065 0.10829,-0.17968 0.009,-0.12463 -0.0935,-0.01 0.01,-0.0934 0.10087,-0.0859 0.25236,-0.41909 0.1008,-0.086 0.23528,-0.20087 0.10827,-0.17966 0.0175,-0.21798 0.01,-0.0933 z"
       id="LA-05"
       style="font-style:normal;font-weight:400;font-size:34.375px;font-family:'MS Shell Dlg 2';opacity:1;fill:none;fill-opacity:1;fill-rule:evenodd;stroke:#000000;stroke-width:0.33333385;stroke-linecap:square;stroke-linejoin:bevel;stroke-miterlimit:4;stroke-dasharray:none;stroke-opacity:1" />
    <path
       inkscape:connector-curvature="0"
       d="m 194.09952,464.50666 3.54114,-1.97828 6.27342,0.74449 0.93403,-2.30884 0.11927,-2.31026 0.6273,0.39424 1.44078,-1.57943 -0.30588,-0.49422 -0.12909,-1.5462 -0.69197,-0.36783 0.14,-0.58462 0.93385,0.48096 1.90043,0.1496 -0.15897,0.42646 0.43539,0.4417 0.53768,-0.45922 0.65362,0.4589 0.12384,0.41731 0.95914,-0.23799 -0.68084,-1.30746 1.69576,-2.02941 c -0.0774,-0.0626 -0.17651,-0.10469 -0.23696,-0.17542 -0.16486,-0.19303 -0.18029,-0.29515 -0.23385,-0.61393 -0.0316,-0.18868 -0.13161,-0.49446 -0.29114,-0.68125 -0.28409,-0.33262 -0.0819,-0.01 -0.55096,-0.16876 -0.29035,-0.0974 -0.23108,-0.30245 -0.46661,-0.44427 -0.15138,-0.091 -0.35538,-0.18465 -0.64191,-0.2072 -0.26582,-0.0215 -0.51301,-0.0405 -0.77888,-0.0612 -0.28561,-0.0225 -0.55387,0.0505 -0.81737,0.0298 -0.23318,-0.0183 -0.52337,0.004 -0.74768,-0.0588 -0.29171,-0.0826 -0.52558,-0.0412 -0.84121,-0.0661 -0.2174,-0.0176 -0.47857,-0.0725 -0.70913,-0.14991 -0.25057,-0.084 -0.39606,-0.18784 -0.67311,-0.20965 -0.26036,-0.0214 -0.47585,-0.12759 -0.73542,-0.21466 -0.20787,-0.0697 -0.42817,-0.13581 -0.45331,0.18371 -0.0186,0.23858 -0.20314,0.48554 -0.44428,0.46658 -0.22541,-0.0177 -0.5261,-0.0961 -0.74769,-0.0587 -0.17567,0.0297 -0.47399,-0.006 -0.71893,-0.026 -0.36698,-0.0284 -0.37346,-0.0343 -0.40326,0.34442 -0.0191,0.25465 -0.0723,0.29142 -0.14911,0.30173 -0.0768,0.0106 -0.18317,-0.0192 -0.29024,0.10254 -0.13131,0.14908 -0.24295,0.29937 -0.26462,0.57481 -0.009,0.13263 0.0222,0.71104 -0.15229,0.74035 -0.0741,0.0123 -0.57036,0.11389 -0.69036,0.008 -0.2849,-0.25082 -0.25618,-0.53806 -0.44206,-0.75571 -0.15836,-0.18539 -0.43997,-0.38351 -0.41333,-0.72216 0.0266,-0.33886 0.18661,-0.2756 0.41309,-0.46904 0.10849,-0.0927 0.28077,-0.29578 0.2335,-0.57726 -0.0123,-0.0737 0.0568,-0.68324 -0.0346,-0.75503 -0.17136,-0.13476 -0.3772,-0.31428 -0.59364,-0.4229 -0.21635,-0.10854 -0.43753,-0.13925 -0.71893,-0.026 -0.2125,0.086 -0.31429,0.16333 -0.66897,0.13541 -0.27044,-0.0217 -0.7114,-0.47667 -0.79766,-0.21944 -0.052,0.15537 -0.22688,0.45228 -0.44181,0.43538 -0.21013,-0.0173 -0.55818,-0.47478 -0.57472,-0.26462 -0.009,0.13703 -0.0493,0.30306 -0.12538,0.39759 -0.076,0.0945 -0.17881,0.13709 -0.34765,0.0354 -0.29267,-0.17629 -0.62662,-0.4016 -0.59779,-0.76797 0.019,-0.25315 -0.0152,-0.59922 0.0661,-0.84119 0.11912,-0.35556 0.0489,-0.40362 0.46802,-0.37064 0.0905,0.01 0.80508,0.12624 0.81245,0.0325 0.0373,-0.47782 0.0903,-0.89327 -0.005,-1.12889 -0.0906,-0.2233 -0.23152,-0.24473 -0.20264,-0.61149 0.0252,-0.31669 -0.13956,-0.51072 -0.18793,-0.79851 -0.0609,-0.36219 0.20685,-0.2372 0.23116,-0.54605 0.0268,-0.34054 -0.0619,-0.41403 -0.10432,-0.66643 -0.0274,-0.16265 -0.16153,-0.35758 -0.40917,-0.37708 -0.14042,-0.009 -0.70064,-0.18623 -0.74033,-0.15234 -0.16035,0.13703 -0.0966,0.73759 -0.2335,0.57726 -0.0649,-0.0759 0.015,-0.11219 -0.1215,-0.44843 -0.0691,-0.17042 -0.004,-0.47046 -0.27466,-0.49176 -0.2351,-0.0183 -0.49765,-0.0494 -0.51807,0.20999 -0.0214,0.26376 -0.016,0.46098 -0.0876,0.71404 -0.11466,0.40466 -0.59789,0.32449 -0.65249,0.32482 -0.29531,-0.0232 -0.45317,-0.0488 -0.63534,0.10678 -0.23346,0.19939 -0.33123,0.26153 -0.4648,-0.068 -0.0816,-0.20124 -0.1415,-0.46062 -0.22894,-0.67637 -0.0296,-0.0729 -0.21298,-0.60265 -0.0683,-0.72628 0.11679,-0.0997 0.33796,-0.25767 0.52788,-0.33462 0.13243,-0.0537 0.44991,-0.10224 0.52788,-0.3346 0.0367,-0.10975 0.0799,-0.64934 0.18346,-0.73789 0.19701,-0.16825 0.3727,-0.0386 0.46312,-0.30831 0.0169,-0.0503 0.28315,-0.61269 0.23844,-0.63958 -0.18906,-0.11388 -0.29464,-0.0546 -0.58945,-0.0777 -0.2596,-0.0203 -0.39328,0.0236 -0.60421,0.10921 -0.16175,0.0655 -0.36708,0.26945 -0.52788,0.33463 -0.12569,0.0508 -0.43536,0.12252 -0.66645,0.10433 -0.25815,-0.0213 -0.53593,0.0126 -0.57726,-0.23362 -0.03,-0.17861 -0.0696,-0.46039 -0.10422,-0.66644 -0.0358,-0.21366 -0.15428,-0.43093 -0.13553,-0.66888 0.0183,-0.23501 -0.27444,-0.71135 -0.0394,-0.69285 0.15638,0.013 0.62128,0.0717 0.63042,-0.0444 0.0157,-0.19938 -0.0366,-0.64336 0.0638,-0.81002 0.0899,-0.14937 0.22499,-0.31731 0.43939,-0.40425 0.21614,-0.0876 0.28589,-0.11381 0.37451,-0.37807 0.0894,-0.26662 0.20887,-0.2503 0.52543,-0.30341 0.36829,-0.0619 0.33634,-0.19241 0.44918,-0.52891 0.0406,-0.12108 0.17361,-0.51735 0.0444,-0.56074 -0.11814,-0.0397 -0.57921,-0.095 -0.40927,-0.37698 0.0861,-0.14289 0.22646,-0.32704 0.46323,-0.30841 0.26734,0.0217 0.51887,-0.14724 0.66889,-0.13544 0.32827,0.0261 0.18654,-0.32597 0.0394,-0.49843 -0.075,-0.0878 -0.37711,-0.36904 -0.39938,-0.50158 -0.0451,-0.26846 -0.07,-0.43044 -0.10184,-0.69777 -0.0334,-0.27773 -0.0192,-0.5509 0.004,-0.84598 0.0217,-0.26685 0.10163,-0.49514 0.12102,-0.74278 0.0177,-0.22541 -0.0126,-0.53464 0.0587,-0.7477 0.03,-0.0891 0.07,-0.23493 0.14914,-0.30172 0.0793,-0.0667 0.18522,-0.0554 0.30675,0.0868 0.0669,0.0784 0.2657,0.43839 0.29603,0.61883 0.0428,0.25505 0.17307,0.30813 0.33217,0.55908 0.1483,0.23395 0.39818,0.49897 0.47817,0.69597 0.0765,0.18889 0.0656,0.45104 0.20266,0.61149 0.12214,0.14302 0.3594,0.21676 0.53125,0.41796 0.0891,0.10433 0.49754,0.5375 0.48796,0.57135 -0.0807,0.28436 -0.23381,0.38744 -0.29581,0.57225 -0.0476,0.1418 0.0643,0.56928 -0.16875,0.55096 -0.17906,-0.0136 -0.66886,-0.12621 -0.81488,-4.5e-4 -0.10657,0.0911 -0.27276,0.27647 -0.43437,0.34199 -0.17386,0.0706 -0.47257,0.20015 -0.62139,0.32726 -0.16378,0.13987 -0.35571,0.20272 -0.44419,0.46659 -0.0451,0.13477 -0.0528,0.52106 -0.14745,0.67801 -0.10037,0.16665 -0.34505,0.40108 -0.36302,0.62967 -0.0214,0.26564 -0.12159,0.52677 0.10923,0.60424 0.21744,0.0728 0.47346,0.037 0.71647,0.0563 0.14309,0.0113 0.64659,-0.0301 0.74771,0.0588 0.19221,0.16921 0.30594,0.3823 0.49778,0.44663 0.19869,0.0667 0.44226,0.0663 0.74524,0.09 0.29718,0.0232 0.58842,0.0151 0.90586,0.0398 0.32256,0.0257 0.89814,-0.46366 0.95176,-0.14448 0.0277,0.16592 0.0247,0.48323 0.006,0.72139 -0.019,0.24937 -0.0394,0.49845 -0.0587,0.74769 -0.0308,0.39048 -0.15233,0.6689 -0.26781,1.01341 -0.0377,0.11218 -0.1282,0.29935 -0.15895,0.42634 -0.0306,0.12697 -0.0216,0.20475 0.14602,0.13688 0.22554,-0.0915 0.38136,-0.31486 0.61884,-0.29615 0.29419,0.0229 0.44405,-0.16306 0.65003,-0.29361 0.14793,-0.0936 0.41305,-0.19731 0.69764,-0.10185 0.16575,0.0556 0.59232,-0.0572 0.75259,-0.004 0.32982,0.11061 0.43941,0.0796 0.565,0.38924 0.0764,0.18859 0.50406,0.49175 0.30342,0.52542 -0.20169,0.0339 -0.34515,0.10031 -0.51808,0.21002 -0.24071,0.15257 -0.30359,0.27201 -0.33193,0.63221 -0.0171,0.20361 -0.13128,0.69672 -0.0325,0.81234 0.26201,0.3069 0.27185,0.96189 0.67412,0.99355 0.0332,0.004 0.0913,0.01 0.12464,0.009 l 6.78848,-1.81678 0.0991,-1.65353 c 0.20889,-0.009 0.44635,-0.002 0.65182,0.0826 0.20546,0.0851 0.36743,0.25881 0.36581,0.53033 0.33254,0.2969 0.31965,0.94258 0.79631,1.03445 0.27165,0.0635 0.39867,0.2606 0.46169,0.50649 0.0629,0.24589 0.0699,0.53354 0.0657,0.75749 -0.0551,0.31556 0.10681,0.4578 0.33461,0.52789 0.22769,0.0701 0.50829,0.0737 0.71157,0.11867 0.35851,-0.023 0.84359,-0.0459 1.11908,0.11933 -0.21197,0.15586 -0.37233,0.36441 -0.45409,0.59121 -0.0817,0.22689 -0.0868,0.4666 0.0372,0.72394 0.0387,0.23135 0.0238,0.53362 0.0633,0.78861 0.0396,0.25507 0.15649,0.46661 0.45679,0.56887 0.50961,0.0214 1.02629,0.0368 1.4782,0.33573 0.21332,0.0746 0.15016,0.26919 0.11894,0.4796 -0.0312,0.21042 -0.0237,0.42926 0.27486,0.4919 0.49888,0.0542 1.04229,0.2704 1.52648,0.12009 0.003,-0.25475 0.17106,-0.43874 0.38688,-0.53388 0.21575,-0.0949 0.48559,-0.11315 0.664,-0.0731 l -0.0188,-1.34938 c 0,0 0,0 0,0 l -0.13757,-6.21747 -0.55543,-1.70502 c -0.40451,-0.0359 -0.83584,-0.0811 -1.2272,0.0602 -0.35784,0.16632 -0.75849,0.0404 -1.12889,0.005 -0.34967,-0.15933 -0.74787,-0.10604 -1.11417,-0.18179 -0.33429,-0.1256 -0.48766,-0.51043 -0.65776,-0.80408 -0.10553,-0.31976 -0.11888,-0.68665 -0.43224,-0.88042 -0.19654,-0.40608 -0.43572,-0.83366 -0.75539,-1.15654 -0.38585,-0.25155 -0.7232,-0.58786 -0.85851,-1.03927 -0.23947,-0.30664 -0.0348,-0.71783 -0.23317,-1.02144 -0.30247,-0.0545 -0.36108,-0.21068 -0.42804,-0.53523 -0.005,-0.0288 -0.0189,-0.69202 -0.0271,-0.84854 l 0,0 c -0.0853,-1.60645 -0.28664,-8.70553 -0.28664,-8.70553 l -1.25841,0.0576 c -0.3003,0.0214 -0.51202,-0.23509 -0.71828,-0.43268 -0.20622,-0.19759 -0.40621,-0.34984 -0.71656,-0.0564 -1.02762,-0.0938 -1.91918,-0.64036 -2.87932,-0.85356 -0.25799,-0.21419 -0.50116,-0.30424 -0.75927,-0.31053 -0.25812,-0.007 -0.53124,0.0762 -0.79607,0.15683 -0.52956,0.16096 -1.07701,0.36944 -1.67315,0.1504 -0.30697,-0.10179 -0.49085,-0.0865 -0.62799,0.0134 -0.13715,0.0996 -0.21886,0.29302 -0.28847,0.47883 -0.0695,0.18581 -0.12672,0.38936 -0.23105,0.54606 -0.10433,0.15668 -0.25057,0.26245 -0.49175,0.27477 -0.31233,0.30653 -0.52917,0.3701 -0.68125,0.29115 -0.15209,-0.0789 -0.2653,-0.29865 -0.36584,-0.53035 -0.10041,-0.23159 -0.19822,-0.50311 -0.35591,-0.65494 -0.15766,-0.15174 -0.36434,-0.18335 -0.68783,-0.023 -0.44869,0.2296 -0.9724,0.487 -1.25737,0.84143 -0.14245,0.17727 -0.21431,0.39059 -0.20475,0.61083 0.01,0.22023 0.11535,0.44622 0.35101,0.71724 0.10445,0.27345 0.0563,0.52213 -0.054,0.6854 -0.11023,0.16323 -0.28835,0.24421 -0.49187,0.27475 -0.20341,0.0306 -0.40938,-0.0147 -0.58452,-0.14 -0.17514,-0.12492 -0.30202,-0.31858 -0.32726,-0.62139 0.25019,-0.55078 0.13678,-0.82421 -0.14446,-0.95177 -0.28135,-0.12757 -0.73297,-0.11968 -1.1552,-0.0596 -0.29799,0.78624 -0.85414,1.69128 -0.9873,2.58672 -0.43941,0.26453 -0.64428,0.61303 -0.73752,1.00773 -0.0933,0.39471 -0.0779,0.86295 -0.01,1.31582 -0.2251,0.0396 -0.38324,-0.0476 -0.51987,-0.16631 -0.13661,-0.11858 -0.26029,-0.29059 -0.33706,-0.49677 -0.15363,-0.41212 -0.19145,-0.90651 -0.27824,-1.24436 -0.0957,-0.30234 -0.27738,-0.53742 -0.47815,-0.69596 -0.20069,-0.15845 -0.41687,-0.24749 -0.66812,-0.27197 -0.50275,-0.0486 -1.07673,0.14808 -1.4559,0.57504 -0.50713,-0.0749 -1.21354,0.0621 -1.88639,0.071 -0.33648,0.003 -0.6562,-0.0307 -0.92971,-0.13598 -0.2735,-0.105 -0.5028,-0.28211 -0.64369,-0.58349 0.56473,-0.14011 0.98859,-0.45685 1.29095,-0.87019 0.30246,-0.41325 0.47098,-0.89872 0.45797,-1.43721 0.16216,-0.31163 0.17656,-0.66167 0.10712,-0.96328 -0.0693,-0.30165 -0.21639,-0.56982 -0.43965,-0.7869 -0.22314,-0.21718 -0.5124,-0.38189 -0.81166,-0.44004 -0.29924,-0.0583 -0.62545,0.002 -0.92313,0.17812 0.19379,0.16472 0.53799,0.34918 0.76597,0.62443 0.22792,0.27533 0.33666,0.61933 0.0724,1.07157 -0.24368,0.23621 -0.82596,0.32922 -1.30175,0.21092 -0.23802,-0.0593 -0.45355,-0.15366 -0.5699,-0.32693 -0.11638,-0.17325 -0.13092,-0.41684 -0.006,-0.72147 0.13971,-0.61042 0.0735,-1.20485 -0.0782,-1.79287 -0.15202,-0.58803 -0.39371,-1.15235 -0.68259,-1.68375 -0.42846,-0.11679 -1.06702,-0.26594 -1.64374,-0.22344 -0.28836,0.0215 -0.58212,0.0767 -0.80086,0.21913 -0.21885,0.14236 -0.38319,0.36715 -0.46144,0.6846 -0.19752,1.14203 0.0182,2.34558 -0.27462,3.48923 -0.16451,0.24944 -0.15548,0.51086 -0.0901,0.74521 0.0655,0.23447 0.18944,0.45457 0.35358,0.68615 0.32826,0.46329 0.73389,0.93748 0.66854,1.46327 0.40324,0.49597 0.71182,1.00676 0.84803,1.57138 0.13622,0.56453 0.10403,1.17508 -0.17337,1.80437 -0.0342,0.59874 -0.16713,1.24531 -0.1782,1.86677 -0.0115,0.62153 0.10568,1.22266 0.58665,1.7076 -0.19749,0.16399 -0.36721,0.35006 -0.48283,0.55752 0.35754,0.004 0.74137,-0.0255 1.06175,0.0523 0.49925,0.12108 0.90548,0.36457 1.15122,0.90561 0.42365,0.24922 0.81479,0.75717 0.99469,1.30076 0.0901,0.2719 0.13112,0.56061 0.0921,0.82235 -0.0392,0.26165 -0.15452,0.49612 -0.36793,0.69196 0.19557,0.50251 0.28376,1.03758 0.44308,1.53951 0.1593,0.50195 0.40651,0.98175 0.86518,1.35336 0.10147,0.35956 0.26545,0.57942 0.47816,0.69587 0.21274,0.11645 0.4454,0.14378 0.70914,0.14989 0.52759,0.0116 1.11025,-0.0615 1.48067,0.30451 0.0982,0.57609 0.27702,1.11036 0.40217,1.66168 0.12512,0.55142 0.19361,1.09196 0.0545,1.69711 0.45082,0.22255 1.04899,0.14299 1.52158,0.18233 0.2364,0.0193 0.42952,0.0559 0.5797,0.20241 0.15017,0.14633 0.24971,0.38437 0.25269,0.77219 0.48292,0.14755 1.11135,0.0281 1.6921,0.008 0.29038,-0.009 0.56983,0.005 0.80755,0.095 0.23772,0.0906 0.45017,0.26144 0.58384,0.54751 0.21889,-0.005 0.33762,0.0868 0.42146,0.22114 0.0837,0.1344 0.12134,0.30877 0.0879,0.47717 -0.0335,0.16838 -0.11939,0.32231 -0.25242,0.41897 -0.13301,0.0967 -0.32211,0.13254 -0.53692,0.0517 0.29281,1.07438 1.06694,1.96337 1.5887,2.91493 0.0207,0.35863 0.16479,0.60058 0.37485,0.8132 0.21006,0.21254 0.49028,0.37253 0.77321,0.53101 0.28295,0.15849 0.56511,0.33708 0.80432,0.53345 0.23933,0.19648 0.42536,0.43422 0.50447,0.76075 0.21252,1.13375 0.19968,2.31138 0.0419,3.4514 0.28312,0.42743 0.39314,0.88157 0.30943,1.24681 -0.0838,0.36536 -0.38071,0.65295 -0.93852,0.77254 -0.15299,0.28197 -0.29755,0.38414 -0.43936,0.40428 -0.14172,0.02 -0.25737,-0.0439 -0.39761,-0.12527 -0.14025,-0.0815 -0.30673,-0.1697 -0.45508,-0.19261 -0.14827,-0.023 -0.2897,0.0192 -0.45567,0.21492 -0.2825,0.25391 -0.36592,0.65109 -0.51715,0.99378 -0.15116,0.3426 -0.37094,0.64579 -0.89996,0.68149 -0.22173,0.39543 -0.25093,0.89427 -0.29727,1.38715 -0.006,0.0663 -0.0385,0.11855 -0.0458,0.18447 l 0.0335,-0.0286 0.2083,0.14179 0.17947,0.10826 0.10744,0.22793 0.0861,0.1008 0.0616,0.41241 0.11482,0.13442 0.31147,0.0239 0.4911,0.13265 0.11726,0.10321 0.069,0.31899 -0.009,0.12463 -0.01,0.0933 -0.0721,0.11971 z"
       id="LA-06"
       style="font-style:normal;font-weight:400;font-size:34.375px;font-family:'MS Shell Dlg 2';opacity:1;fill:#000000;fill-opacity:1;fill-rule:evenodd;stroke:#000000;stroke-width:0.33333385;stroke-linecap:square;stroke-linejoin:bevel;stroke-miterlimit:4;stroke-dasharray:none;stroke-opacity:1" />
  </g>
</svg>
