<?xml version="1.0" encoding="UTF-8" standalone="no"?>
<!-- Created with Inkscape (http://www.inkscape.org/) -->

<svg
   xmlns:dc="http://purl.org/dc/elements/1.1/"
   xmlns:cc="http://creativecommons.org/ns#"
   xmlns:rdf="http://www.w3.org/1999/02/22-rdf-syntax-ns#"
   xmlns:svg="http://www.w3.org/2000/svg"
   xmlns="http://www.w3.org/2000/svg"
   xmlns:sodipodi="http://sodipodi.sourceforge.net/DTD/sodipodi-0.dtd"
   xmlns:inkscape="http://www.inkscape.org/namespaces/inkscape"
   width="12.819586mm"
   height="22.887329mm"
   viewBox="0 0 45.42373 81.096834"
   id="svg3885"
   version="1.1"
   inkscape:version="0.91 r"
   sodipodi:docname="2.svg">
  <defs
     id="defs3887" />
  <sodipodi:namedview
     id="base"
     pagecolor="#ffffff"
     bordercolor="#666666"
     borderopacity="1.0"
     inkscape:pageopacity="0.0"
     inkscape:pageshadow="2"
     inkscape:zoom="11.027672"
     inkscape:cx="36.184107"
     inkscape:cy="26.671009"
     inkscape:document-units="px"
     inkscape:current-layer="layer1"
     showgrid="false"
     inkscape:window-width="2560"
     inkscape:window-height="1388"
     inkscape:window-x="0"
     inkscape:window-y="0"
     inkscape:window-maximized="1"
     fit-margin-top="1"
     fit-margin-left="1"
     fit-margin-right="1"
     fit-margin-bottom="1" />
  <metadata
     id="metadata3890">
    <rdf:RDF>
      <cc:Work
         rdf:about="">
        <dc:format>image/svg+xml</dc:format>
        <dc:type
           rdf:resource="http://purl.org/dc/dcmitype/StillImage" />
        <dc:title></dc:title>
      </cc:Work>
    </rdf:RDF>
  </metadata>
  <g
     inkscape:label="Layer 1"
     inkscape:groupmode="layer"
     id="layer1"
     transform="translate(-193.32366,-338.54539)">
    <path
       inkscape:connector-curvature="0"
       d="m 227.08375,370.9119 -0.63144,0.0412 -0.11175,1.36833 -4.14592,-0.0874 -0.81923,2.98396 -0.1929,1.31172 -0.66688,0.16098 -0.24324,-1.92982 -0.70582,-0.69796 -0.16432,-0.76568 -0.71463,0.212 0.31525,1.13635 0.7225,0.31175 0.33755,2.38142 0.50267,-0.0466 -0.73458,1.37944 0.56726,3.03613 -4.13697,0.7627 0.1366,0.52935 -2.65666,0.38636 -0.55269,-0.5548 -0.24517,0.0577 0.18533,0.80449 -0.46775,1.36069 0.64591,0.68022 3.66424,-0.70716 0.0844,1.03536 2.0564,1.74986 -0.44154,0.39066 -0.40841,-0.38172 -0.7723,0.84681 c -0.20356,0.22317 -0.48119,0.30237 -0.72352,0.24197 -0.24286,-0.0585 -0.44234,-0.25094 -0.52278,-0.54597 -0.1055,-0.28107 -0.29097,-0.31575 -0.5038,-0.2796 -0.21287,0.0362 -0.45439,0.15484 -0.65813,0.13099 -0.32542,0.08 -0.35014,0.28783 -0.32727,0.55488 0.0232,0.26713 0.0975,0.58171 -0.0725,0.79343 -0.076,0.20758 0.0408,0.46465 0.0923,0.67915 0.0511,0.21449 0.0229,0.38855 -0.33066,0.45611 -0.16968,0.19192 -0.45774,0.15097 -0.69691,0.1521 -0.23917,0.001 -0.41574,0.042 -0.35178,0.41727 0.10327,0.20476 0.01,0.46403 -0.007,0.68249 -0.0175,0.21829 0.0301,0.40063 0.35179,0.46271 0.1155,0.27513 0.24646,0.5333 0.53492,0.61474 -0.11152,0.3096 0.0592,0.41254 0.27408,0.50491 0.21492,0.0924 0.48619,0.15921 0.61493,0.34509 0.17537,0.17361 0.33609,0.30646 0.42053,0.4505 0.0844,0.14405 0.0992,0.31754 0.0201,0.59258 -0.0277,0.35198 0.23772,0.45198 0.52826,0.41721 0.29053,-0.0347 0.60595,-0.20285 0.66917,-0.38842 0.0514,-0.0922 0.11195,-0.25111 0.24179,-0.15653 l 6.77747,4.51718 -0.18774,0.30289 2.39817,1.9163 -1.57107,3.54345 -5.25673,-1.06844 -0.97644,1.53592 -2.51237,0.55949 0.64833,3.09274 0.51488,0.0226 0.81368,4.18467 0.38172,-0.40839 0.8024,0.042 0.60256,0.2762 -0.44403,-2.02188 0.66349,-1.13975 0.30413,0.5138 0.3264,1.75887 0.83787,-0.0778 0.66693,0.71903 0.0973,-1.20959 4.54429,-0.70724 0.34517,1.14518 0.0292,0.0128 0.27866,0.0497 0.20959,0.0625 0.29988,0.0883 0.24857,0.0408 0.0292,0.0128 0.19216,-0.75788 0.0978,-0.32957 0.0651,-0.11106 0.19974,-0.23417 0.0564,-0.081 0.55931,-0.12762 0.14649,-0.0545 0.14645,-0.0542 0.31409,-0.07 0.17647,-0.0454 0.0474,-0.0512 0.15536,-0.0843 0.11675,-0.0632 0.36726,-0.24972 0.0772,-0.0422 0.27523,-0.0489 0.22746,0.002 0.36824,0.0774 0.0515,0.0479 0.21309,0.16088 0.51599,0.34845 0.0291,0.0128 0.22407,-0.0966 0.13448,-0.12315 0.11674,-0.0631 0.0128,-0.0294 0.0385,-0.0212 0.0988,-0.001 0.002,-0.22762 0.016,-0.15854 0.0349,-0.11997 0.0476,-0.051 -0.004,-0.42506 -0.0118,-0.0686 0.0284,-0.0894 0.0563,-0.0808 0.0128,-0.0294 0.0385,-0.021 0.0949,-0.10225 -0.001,-0.0985 0.016,-0.15852 0.0507,-0.27837 0.0563,-0.0808 0.0385,-0.0211 0.0652,-0.11106 0.0349,-0.12 0.0128,-0.0294 0.0652,-0.11103 0.0385,-0.0211 0.0385,-0.0211 0.10387,-0.13221 0.0284,-0.0894 -0.0506,-0.0476 0.0128,-0.0293 0.0171,-0.0601 0.017,-0.0601 0.0475,-0.0511 0.0476,-0.051 -0.0239,-0.13746 0.0526,-0.17993 0.0561,-0.0811 0.0476,-0.0511 0.0384,-0.0209 0.0597,0.0171 0.0384,-0.0212 0.0386,-0.0212 -0.001,-0.0985 0.003,-0.12878 0.0626,-0.20963 0.0948,-0.10227 0.0772,-0.0422 0.0385,-0.0213 0.0284,-0.0893 -0.0151,-0.16744 0.0284,-0.0893 0.0476,-0.051 0.11676,-0.0632 0.0562,-0.0808 0.1184,-0.29084 -0.033,-0.10751 0.0219,-0.18876 -0.001,-0.0985 0.19429,-0.10543 -0.04,-0.30516 -0.0417,-0.0774 -0.0506,-0.0477 -0.13762,0.0245 -0.0989,10e-4 -0.27521,0.0489 -0.0693,0.012 -0.0724,-0.0866 -0.0208,-0.0386 -0.21849,-0.0328 -0.0895,-0.0284 -0.0291,-0.0128 -0.0843,-0.15534 -0.0417,-0.0775 -0.0725,-0.0866 -0.0209,-0.0387 -0.2486,-0.0408 -0.0635,-0.11654 -0.0504,-0.0477 -0.19205,-0.122 -0.0505,-0.0477 -0.0813,-0.0565 -0.10214,-0.0954 -0.0812,-0.0564 -0.0209,-0.0386 -0.25196,-0.13988 -0.13209,-0.10436 -0.0119,-0.0686 -0.0327,-0.10736 -0.024,-0.13748 -0.0844,-0.15538 -0.001,-0.0985 0.0884,-0.29971 0.0103,-0.25765 -0.0121,-0.0688 0.0284,-0.0893 0.0384,-0.0212 0.017,-0.0601 -0.0635,-0.11656 -0.0665,-0.2153 0.017,-0.0601 0.0771,-0.0423 0.0772,-0.0423 0.0128,-0.0293 0.0171,-0.0601 -0.0506,-0.0475 0.0128,-0.0295 -0.0208,-0.0387 0.0171,-0.0601 0.0463,-0.37744 0.0128,-0.0294 0.0385,-0.0209 0.0385,-0.0211 0.0128,-0.0294 0.0525,-0.17996 -0.0209,-0.0387 -0.0209,-0.0386 -0.0207,-0.0386 -0.0292,-0.0128 -0.029,-0.0128 -0.0329,-0.10742 -0.0209,-0.0388 -0.0119,-0.0687 -0.11101,-0.0655 -0.0209,-0.0387 -0.0291,-0.0128 -0.0291,-0.0128 -0.0292,-0.0128 -0.12877,-0.003 -0.0683,0.0123 -0.029,-0.0128 -0.0209,-0.0387 -0.024,-0.13746 0.0128,-0.0294 0.0128,-0.0295 -0.0723,-0.0866 -0.17986,-0.0526 -0.078,0.0419 -0.0597,-0.017 -0.0211,-0.0386 -0.0119,-0.0687 -0.0419,-0.0774 -0.0426,-0.0779 -0.0292,-0.0128 -0.0812,-0.0564 -0.0813,-0.0566 -0.17996,-0.0525 -0.0292,-0.0128 -0.0249,-0.13776 -0.0506,-0.0474 0.0128,-0.0294 -0.0119,-0.0688 -0.0897,-0.0284 -0.12002,-0.0349 -0.0515,-0.048 -0.16194,-0.11305 -0.0514,-0.0479 0.0652,-0.11106 0.0773,-0.0423 -0.0118,-0.0686 -0.0339,-0.10766 -0.0596,-0.017 -0.0128,0.0293 -0.0291,-0.0128 -0.0505,-0.0477 -0.0505,-0.0477 0.0128,-0.0294 -0.0192,-0.26637 -0.0897,-0.0284 -0.0813,-0.0564 -0.0812,-0.0566 -0.0292,-0.0128 -0.12316,-0.1342 -0.0209,-0.0387 -0.001,-0.0985 -0.0119,-0.0688 -0.0988,10e-4 -0.28411,0.0787 -0.0475,0.0511 -0.0505,-0.0476 -0.0209,-0.0386 -0.0208,-0.0387 -0.0725,-0.0866 -0.0596,-0.017 -0.0506,-0.0474 -0.0293,-0.0128 0.0128,-0.0294 -0.18976,-0.34951 0.016,-0.15853 -0.0338,-0.10777 -0.14417,-0.17306 -0.0426,-0.0778 -0.0417,-0.0775 0.0128,-0.0294 -10e-4,-0.0985 -0.001,-0.0985 -0.0416,-0.0775 -0.0209,-0.0387 0.0171,-0.0601 0.0772,-0.0423 0.0284,-0.0894 -0.0208,-0.0386 -0.0812,-0.0565 -0.012,-0.0688 -0.008,-0.19765 -0.001,-0.0985 0.0171,-0.0601 0.0475,-0.051 0.0128,-0.0292 0.087,-0.0722 0.0291,0.0128 0.0475,-0.0512 0.087,-0.0719 0.0284,-0.0893 -0.001,-0.0986 -0.0119,-0.0687 0.0385,-0.0212 0.12566,-0.0932 0.0128,-0.0294 -0.0209,-0.0387 -0.0121,-0.0687 -0.0932,-0.12534 -0.0118,-0.0687 -0.001,-0.0985 0.0564,-0.081 0.0507,-0.27841 -0.0119,-0.0688 -0.0635,-0.11654 -0.0385,0.021 -0.0897,-0.0284 -0.0291,-0.0128 -0.0208,-0.0387 -0.0516,-0.0478 0.11675,-0.0632 0.0128,-0.0292 0.0128,-0.0294 0.0128,-0.0294 -0.0208,-0.0386 -0.0426,-0.0778 0.0741,-0.14102 0.083,-0.17098 0.0477,-0.051 0.0103,-0.2574 0.0385,-0.0212 0.0385,-0.0212 -0.021,-0.0388 -0.0515,-0.0479 0.0525,-0.17996 -0.001,-0.0985 -0.0505,-0.0477 -0.0239,-0.13745 -0.012,-0.0687 -0.0811,-0.0564 -0.0208,-0.0387 -0.0208,-0.0386 0.0171,-0.0601 0.0171,-0.0602 0.10787,-0.0333 0.0209,0.0386 0.0882,-0.29979 -0.0292,-0.0128 -0.0208,-0.0387 -0.0505,-0.0474 -0.024,-0.13748 -0.0209,-0.0387 -0.0813,-0.0566 -0.1532,-0.14305 -0.0292,-0.0128 -0.0597,-0.017 -0.1211,-1.24178 -0.04,-0.30518 -0.11553,-1.37048 -0.0399,-0.30518 -0.0556,-0.47277 -0.0103,-0.29636 -0.001,-0.0986 -0.11442,-1.04425 -0.0118,-0.0687 0.0128,-0.0293 -0.12322,-1.01426 -0.0944,-1.33166 -0.0756,-1.06535 -0.0279,-0.23642 -0.0103,-0.29638 -0.029,-0.56264 -0.0281,-0.23647 -0.09,-0.90661 -0.001,-0.0985 -0.0621,-0.67026 -0.0343,-0.43388 0.0128,-0.0294 -0.0119,-0.0688 -0.0468,-0.50273 -0.0289,-0.5626 -0.0657,-0.76904 -0.0621,-0.67025 -0.0556,-0.47275 -0.30656,-3.80633 -0.0222,-0.36511 0.0128,-0.0294 -0.0434,-0.40393 -0.001,-0.0986 -0.007,-0.19738 0.0128,-0.0292 z"
       id="NH-01"
       style="font-style:normal;font-weight:400;font-size:34.375px;font-family:'MS Shell Dlg 2';opacity:1;fill:none;fill-opacity:1;fill-rule:evenodd;stroke:#000000;stroke-width:0.333;stroke-linecap:square;stroke-linejoin:bevel;stroke-miterlimit:4;stroke-dasharray:none;stroke-opacity:1" />
    <path
       inkscape:connector-curvature="0"
       d="m 225.09118,342.36461 -0.0782,0.042 -0.15535,0.0844 -0.12152,0.19213 -0.0829,0.17096 -0.0349,0.12004 0.0208,0.0388 0.0209,0.0386 0.0683,-0.0123 -0.0348,0.12002 -0.0561,0.081 -0.0385,0.021 -0.0862,0.0723 -0.0525,0.17998 0.001,0.0985 -0.0626,0.20966 -0.0782,0.0418 -0.0702,0.23996 -0.0385,0.0211 -0.11676,0.0632 -0.0989,10e-4 -0.0683,0.0123 -0.13202,-0.10426 -0.0724,-0.0866 -0.0897,-0.0284 -0.0951,0.10225 -0.0693,0.0119 -0.0385,0.021 -0.0861,0.0722 -0.017,0.0602 -0.0128,0.0294 -0.0385,0.0212 -0.0208,-0.0386 -0.0207,-0.0387 -0.012,-0.0688 -0.0812,-0.0566 -0.0813,-0.0564 -0.0596,-0.0169 -0.033,-0.10742 -0.0291,-0.0128 -0.0989,10e-4 -0.19417,0.10547 -0.15856,-0.016 -0.0208,-0.0387 -0.0771,0.0423 -0.0474,0.0511 -0.0682,0.0121 -0.0208,-0.0388 0.0171,-0.06 -0.10548,-0.19421 0.0128,-0.0294 -0.0897,-0.0284 -0.11439,-0.16428 -0.0897,-0.0284 -0.13212,-0.10434 -0.0681,0.0124 -0.0418,-0.0774 -0.0208,-0.0388 -0.0238,-0.13747 -0.0877,-0.2541 0.0475,-0.0511 -0.0209,-0.0387 -0.11097,-0.0653 -0.14646,0.0542 -0.0291,-0.0128 -0.0506,-0.0476 -0.0119,-0.0688 -0.012,-0.0686 -0.0291,-0.0128 -0.22415,0.0966 -0.0949,0.10226 -0.0651,0.11104 -0.0284,0.0893 -0.0475,0.0511 -0.0989,10e-4 -0.0871,0.0722 -0.0564,0.081 -0.13761,0.0244 -0.0476,0.0512 -0.0562,0.0811 0.0208,0.0386 -0.0562,0.081 -0.14649,0.0545 -0.0895,-0.0284 -0.0562,0.0809 -0.0386,0.0212 -0.0384,0.021 -0.12003,-0.0349 -0.0474,0.051 -0.0128,0.0293 0.0505,0.0476 0.0514,0.0478 0.0544,0.14649 0.001,0.0985 -0.0128,0.0292 -0.0284,0.0894 -0.0871,0.0719 -0.10786,0.0332 -0.0682,0.0124 -0.0772,0.0422 -0.0128,0.0294 -0.0563,0.0809 0.0119,0.0688 -0.0651,0.11106 -0.0475,0.051 -0.0813,-0.0566 -0.0506,-0.0475 -0.0635,-0.11651 -0.14954,-0.0452 -0.0781,0.0419 -0.12564,0.0931 -0.086,0.0722 -0.0171,0.0601 -0.0386,0.0211 -0.18891,-0.0219 -0.0208,-0.0387 -0.0505,-0.0476 -0.12002,-0.0349 -0.0683,0.0122 -0.0128,0.0292 -0.0384,0.0211 0.0211,0.0386 0.0209,0.0387 0.0385,-0.0212 0.0505,0.0476 0.12315,0.13421 0.2308,0.10102 0.0725,0.0867 0.0209,0.0386 0.0208,0.0387 0.14968,0.0451 0.0128,-0.0294 0.0813,0.0566 0.10548,0.19424 0.012,0.0688 0.012,0.0686 -0.14344,0.15307 0.012,0.0687 -0.0625,0.20965 -0.0871,0.0722 -0.0386,0.0211 -0.0171,0.0601 0.015,0.1674 -0.0523,0.18001 -0.0652,0.11104 -0.0477,0.051 0.0329,0.1074 -0.0171,0.06 -0.0219,0.18879 -0.0385,0.0212 -0.0385,0.021 -0.0563,0.0809 -0.0829,0.17098 0.0417,0.0774 0.0515,0.0479 0.12643,0.23297 0.012,0.0688 -0.0284,0.0894 -0.0652,0.11102 -0.15227,0.18305 -0.1079,0.0333 -0.0652,0.11102 0.0209,0.0387 -0.0284,0.0893 -0.0562,0.0809 -0.0683,0.0124 -0.0562,0.0809 10e-4,0.0986 -0.0772,0.0423 -0.0385,0.021 -0.0524,0.17999 -0.0563,0.0808 -0.0989,0.001 -0.0771,0.0422 -0.0128,0.0294 -0.0128,0.0294 -0.0385,0.0212 -0.0128,0.0294 -0.0683,0.0123 -0.0284,0.0894 -0.0171,0.0602 0.0208,0.0387 -0.1256,0.0931 -0.0292,-0.0128 -0.0128,0.0292 0.001,0.0985 -0.0205,0.28724 -0.0562,0.081 -0.0208,-0.0388 -0.0386,0.0211 -0.0128,0.0294 0.0119,0.0688 0.0724,0.0867 0.0208,0.0387 0.0683,-0.0123 0.0772,-0.0422 0.0416,0.0775 -0.0128,0.0292 -0.0626,0.20965 -0.10062,0.23095 0.009,0.29634 -0.0128,0.0294 0.0208,0.0387 0.69131,-0.0233 -0.0128,0.0293 -0.14644,0.0544 -0.0475,0.0512 -0.0475,0.051 -0.0349,0.12 -0.0475,0.051 -0.0989,10e-4 -0.2096,-0.0625 -0.0725,-0.0866 -0.0596,-0.0171 -0.068,0.0122 -0.12564,0.0931 -0.11676,0.0632 -0.0988,0.001 -0.087,0.0722 -0.14341,0.15304 -0.0128,0.0294 -0.016,0.15852 0.033,0.10739 0.1266,0.23304 0.0812,0.0565 0.10545,0.1942 0.11099,0.0655 0.0545,0.14652 -0.03,0.31717 0.0327,0.10737 -0.0128,0.0293 -0.0172,0.0601 -0.0128,0.0293 0.0611,0.34405 0.13201,0.10434 0.0931,0.12535 0.0635,0.11655 0.1409,0.0743 0.0208,0.0387 -0.0128,0.0294 -0.0128,0.0294 -0.0284,0.0894 -0.0128,0.0294 -0.0292,-0.0128 -0.029,-0.0128 -0.0292,-0.0128 -0.0171,0.06 -0.0128,0.0293 -0.0475,0.0511 -0.0862,0.0723 -0.0871,0.072 -0.0128,0.0294 0.0208,0.0386 0.0209,0.0386 -0.0128,0.0294 -0.17883,0.27293 -0.0861,0.0723 -0.0385,0.0212 -0.0128,0.0294 0.001,0.0986 -0.0951,0.10221 -0.0128,0.0295 -0.0989,0.001 -0.11676,0.0631 -0.0652,0.11106 -0.0128,0.0295 0.0119,0.0687 0.0119,0.0687 0.0209,0.0387 -0.0949,0.10225 -0.0476,0.0512 -0.0172,0.0601 -0.0128,0.0294 0.0514,0.0479 0.0327,0.10733 0.0119,0.0687 -0.0128,0.0294 0.0291,0.0128 -0.0474,0.051 -0.0771,0.0424 -0.0626,0.20966 0.0119,0.0686 -0.0385,0.0212 -0.0291,-0.0128 -0.0693,0.012 -0.1215,0.19214 -0.0171,0.0601 0.0209,0.0387 0.0329,0.10736 0.0897,0.0284 -0.0171,0.0602 -0.0128,0.0294 -0.0328,0.21849 0.001,0.0986 -0.0284,0.0894 -0.11376,0.16186 -0.0989,10e-4 -0.16422,0.11432 -0.0563,0.081 -0.0171,0.06 0.0209,0.0388 -0.10386,0.13217 -0.0477,0.0511 -0.0128,0.0294 -0.0128,0.0292 -0.0476,0.0511 -0.0773,0.0421 -0.0651,0.11106 0.0119,0.0688 -0.0386,0.0209 -0.0171,0.0601 -0.13759,0.0244 -0.14649,0.0543 -0.0128,0.0294 -0.0128,0.0294 0.0291,0.0128 -0.0128,0.0294 -0.0128,0.0294 0.0292,0.0128 0.0897,0.0284 0.0119,0.0686 0.0369,0.20647 -0.0169,0.0601 -0.003,0.12871 0.0209,0.0387 0.0208,0.0388 0.0291,0.0128 0.0772,-0.0423 0.0292,0.0128 -0.003,0.12876 -0.0128,0.0293 0.10212,0.0953 0.1687,0.3107 0.11097,0.0656 0.0289,0.0128 -0.0128,0.0294 -0.0284,0.0893 -0.0128,0.0293 0.0208,0.0386 0.0291,0.0128 0.0897,0.0284 -0.0128,0.0293 -0.0384,0.0211 -0.0284,0.0894 0.0208,0.0387 0.0329,0.10739 0.0416,0.0775 -0.0171,0.0602 -0.0172,0.0601 -0.0128,0.0295 0.141,0.0744 0.0292,0.0128 0.12,0.0349 -0.017,0.06 -0.0172,0.0602 -0.0128,0.0294 -0.0128,0.0294 0.012,0.0686 -0.0171,0.0601 -0.017,0.06 -0.0128,0.0294 0.0209,0.0387 0.0208,0.0388 0.0291,0.0128 0.0292,0.0128 0.0291,0.0128 0.0989,-10e-4 0.0208,0.0387 -0.0171,0.0601 -0.0128,0.0294 0.0291,0.0128 0.0597,0.0171 0.0291,0.0128 0.0385,-0.0212 0.0128,-0.0295 0.0128,-0.0293 0.0128,-0.0294 0.0292,0.0128 0.0292,0.0128 -0.0128,0.0293 0.0812,0.0565 0.0545,0.14657 -0.0128,0.0293 0.0209,0.0387 -0.0128,0.0293 -0.0128,0.0293 -0.0771,0.0423 0.0119,0.0684 0.0291,0.0128 0.0209,0.0387 0.0812,0.0564 0.0291,0.0128 0.0208,0.0388 0.0329,0.10737 -0.0171,0.0601 -0.029,-0.0128 -0.0128,0.0294 -0.0219,0.18878 0.0665,0.21524 0.0119,0.0688 -0.0171,0.0601 -0.0171,0.0602 -0.0171,0.0601 0.0209,0.0387 0.0209,0.0387 0.012,0.0688 0.0118,0.0686 0.0988,-10e-4 0.17091,0.0832 0.0897,0.0284 -0.0349,0.11998 -0.0476,0.051 -0.0128,0.0294 -0.0562,0.0811 -0.0691,0.012 -0.0293,-0.0128 -0.0597,-0.0171 -0.0291,-0.0128 -0.0128,0.0294 -0.0128,0.0294 0.0208,0.0388 0.10211,0.0955 -0.0128,0.0294 -0.0172,0.0601 -0.0385,0.0212 -0.0897,-0.0284 -0.0291,-0.0128 -0.0128,0.0294 -0.0128,0.0294 -0.0128,0.0293 0.0119,0.0686 -0.0128,0.0294 -0.0128,0.0293 -0.0292,-0.0128 -0.0385,0.0211 -0.1376,0.0244 -0.11099,-0.0654 -0.28741,-0.0195 -0.0384,0.0212 -0.0128,0.0292 -0.0291,-0.0128 -0.0128,0.0295 -0.017,0.0601 -0.0385,0.0212 -0.0284,0.0893 0.0119,0.0686 0.0208,0.0386 0.0209,0.0387 0.16192,0.11304 0.27315,0.1786 0.0207,0.0387 0.0209,0.0388 0.012,0.0687 -0.0172,0.06 -0.0651,0.11107 -0.11258,0.16216 -0.0476,0.0511 -0.0385,0.021 -0.0898,-0.0284 -0.0474,0.051 0.0208,0.0386 0.0417,0.0775 0.111,0.0654 -0.0128,0.0293 0.0328,0.10738 0.0506,0.0476 0.1021,0.0955 0.0291,0.0128 -0.0128,0.0294 -0.0385,0.0212 -0.0128,0.0294 -0.0291,-0.0128 -0.0515,-0.0479 -0.0682,0.0122 0.0418,0.0774 -0.0475,0.0511 -0.0291,-0.0128 -0.0292,-0.0128 0.0128,-0.0294 -0.0292,-0.0128 -0.0291,-0.0128 -0.029,-0.0128 -0.0284,0.0894 0.0119,0.0686 -0.0128,0.0294 -0.0349,0.12 -0.0171,0.0601 -0.0128,0.0294 -0.0128,0.0294 -0.0292,-0.0128 -0.11674,0.0632 -0.0682,0.0121 -0.12001,-0.0349 -0.0291,-0.0128 -0.0128,0.0294 -0.0385,0.021 -0.0284,0.0893 -0.0595,-0.0169 -0.0208,-0.0387 -0.0596,-0.0171 -0.0292,-0.0128 -0.0291,-0.0128 -0.0128,0.0294 -0.0291,-0.0128 -0.11256,0.16219 -0.0772,0.0422 -0.0475,0.051 -0.0475,0.0512 -0.0128,0.0294 0.0119,0.0687 0.0208,0.0386 0.14095,0.0743 0.0209,0.0386 -0.0561,0.0809 -0.0386,0.0211 -0.15849,-0.016 -0.0128,0.0293 -0.0918,0.20091 0.007,0.19741 -0.0171,0.0601 -0.0169,0.06 -0.0128,0.0293 -0.0128,0.0294 -0.0772,0.0422 -0.0562,0.0808 -0.0291,-0.0128 -0.16756,0.0156 -0.0385,0.0211 -0.0128,0.0294 0.0119,0.0687 0.001,0.0985 -0.11258,0.16216 -0.10799,0.0333 -0.18196,0.17425 -0.0782,0.042 -0.0563,0.0808 -0.0292,-0.0128 -0.10791,0.0333 -0.0385,0.0212 -0.0607,-0.0172 -0.12879,-0.003 -0.13763,0.0245 -0.0682,0.0122 -0.0128,0.0293 -0.0293,-0.0128 -0.0128,0.0294 -0.0128,0.0294 -0.0385,0.0212 -0.0128,0.0293 -0.0284,0.0892 -0.0128,0.0294 -0.0385,0.021 -0.0897,-0.0284 -0.1021,-0.0956 -0.0292,-0.0128 -0.12002,-0.0348 -0.0683,0.0122 -0.0475,0.0511 -0.11675,0.0632 -0.0475,0.0512 -0.0475,0.0512 -0.25745,-0.0113 -0.0385,0.0212 -0.0385,0.021 -0.1434,0.15306 -0.0172,0.0602 -0.0128,0.0294 0.0634,0.1165 0.0292,0.0128 -0.0128,0.0292 -0.0128,0.0294 -0.0694,0.012 -0.0988,0.001 -0.0771,0.0422 -0.0386,0.0212 -0.016,0.15851 -0.0128,0.0293 0.0814,0.0566 -0.0128,0.0294 -0.0128,0.0293 -0.0477,0.0511 -0.0128,0.0294 0.033,0.10741 0.0546,0.14655 0.021,0.0387 -0.0171,0.0601 -0.0384,0.0211 -0.10791,0.0333 -0.14646,0.0542 -0.11676,0.0632 -0.0861,0.0723 -0.12562,0.0931 -0.0386,0.0211 -0.15536,0.0844 -0.16761,0.0156 -0.16426,0.1143 -0.0292,-0.0128 -0.0896,-0.0284 -0.11096,-0.0654 -0.37184,-0.17536 -0.0595,-0.017 -0.0989,0.001 -0.20641,0.0365 -0.14341,0.15305 -0.096,0.10197 -0.11676,0.0631 -0.0683,0.0123 -0.11096,-0.0655 -0.26631,0.0191 -0.10791,0.0333 -0.35617,-0.007 -0.0771,0.0422 -0.045,0.14964 -0.0385,0.021 -0.27193,0.14758 -0.15532,0.0844 -0.0772,0.0423 -0.10789,0.0332 -0.0291,-0.0128 -0.0896,-0.0284 -0.0897,-0.0284 -0.0861,0.0723 0.0121,0.0687 0.0208,0.0387 0.0193,0.26642 0.001,0.0985 -0.0128,0.0294 -0.0741,0.14104 -0.0385,0.021 -0.16423,0.11429 -0.11675,0.0631 -0.13453,0.12314 -0.10946,0.26088 -0.0526,0.17995 0.0417,0.0774 0.0292,0.0128 0.0861,-0.0723 0.0291,0.0128 0.0209,0.0387 -0.0128,0.0293 -0.0128,0.0292 -0.0128,0.0294 -0.0172,0.0602 0.0369,0.20647 0.12662,0.23308 0.0417,0.0774 0.0292,0.0128 -0.0128,0.0292 0.0505,0.0476 -0.0128,0.0294 0.0118,0.0686 -0.0349,0.12002 -0.0626,0.20965 0.001,0.0986 10e-4,0.0985 0.0208,0.0387 -0.0128,0.0294 -0.0128,0.0294 -0.0918,0.20092 0.0119,0.0688 -0.003,0.12874 -0.0475,0.0512 -0.0474,0.0511 -0.0128,0.0294 -0.0327,0.21847 0.0932,0.12535 0.0844,0.15533 0.0999,0.32293 0.11437,0.16423 0.0897,0.0284 0.0635,0.11655 0.0209,0.0387 -0.0384,0.0211 -0.0169,0.06 -0.0128,0.0293 0.0279,0.23645 0.001,0.0985 -0.0171,0.0601 0.0291,0.0128 0.0724,0.0867 0.0897,0.0284 -0.0128,0.0293 -0.0625,0.20967 -0.0293,-0.0128 -0.0209,-0.0387 -0.0385,0.0212 -0.0772,0.0423 -0.13451,0.12313 -0.0328,0.2185 -0.0172,0.06 0.0458,0.1765 0.0208,0.0386 -0.0128,0.0294 0.0292,0.0128 0.0209,0.0387 0.0208,0.0387 0.0292,0.0128 0.0291,0.0128 0.0293,0.0128 0.0291,0.0128 0.0128,-0.0294 0.0284,-0.0895 0.0171,-0.0601 0.0291,0.0128 0.0128,-0.0294 0.029,0.0128 0.0292,0.0128 0.0596,0.017 0.0515,0.048 -0.017,0.0601 -0.003,0.12874 -0.0171,0.0601 -0.0128,0.0294 -0.0477,0.0511 -0.0693,0.0121 -0.0292,-0.0128 -0.0897,-0.0284 -0.0385,0.021 -0.0172,0.0601 0.0209,0.0386 0.16209,0.11328 0.11099,0.0654 0.0506,0.0476 -0.0128,0.0293 -0.0128,0.0294 -0.0128,0.0294 -0.0291,-0.0128 -0.029,-0.0128 -0.0128,0.0294 -0.029,-0.0128 -0.0291,-0.0128 0.0128,-0.0293 -0.0505,-0.0476 -0.17647,0.0454 -0.0292,-0.0128 -0.0128,0.0294 0.0209,0.0386 0.0504,0.0476 0.012,0.0686 -0.10376,0.1322 -0.0451,0.14964 -0.0128,0.0293 -0.0385,0.0212 -0.12877,-0.004 -0.0684,0.0123 -0.0284,0.0893 0.0292,0.0128 0.11095,0.0654 0.012,0.0687 -0.0683,0.0123 -0.19416,0.10545 -0.0384,0.021 -0.0128,0.0295 -0.0128,0.0294 -0.0128,0.0294 0.0119,0.0686 0.0635,0.11654 0.0119,0.0688 -0.0128,0.0294 -0.0781,0.042 -0.0128,0.0292 -0.0385,0.021 -0.0128,0.0295 0.033,0.10741 -0.0128,0.0293 -0.0292,-0.0128 -0.0475,0.051 -0.10209,-0.0955 -0.0291,-0.0128 -0.0477,0.0511 -0.0128,0.0293 -0.0169,0.0601 10e-4,0.0985 0.10215,0.0954 0.0209,0.0387 -0.0171,0.0602 -0.0292,-0.0128 -0.0291,-0.0128 -0.0328,-0.10736 -0.0596,-0.0169 -0.029,-0.0128 -0.0682,0.0123 -0.0476,0.051 -0.0128,0.0293 0.0209,0.0388 -0.0128,0.0294 0.0546,0.14652 -0.0128,0.0294 -0.11673,0.0631 -0.11375,0.16188 -0.0384,0.0211 0.012,0.0687 0.0932,0.12535 0.0119,0.0688 -0.003,0.2273 -0.0172,0.0601 0.0119,0.0687 -0.0284,0.0894 -0.0128,0.0295 -0.0128,0.0292 0.0989,-10e-4 0.0772,-0.0424 0.0386,-0.0212 0.14955,0.0452 0.12004,0.0348 0.0292,0.0128 -0.0128,0.0294 -0.17641,0.0454 -0.0385,0.0212 0.012,0.0688 0.0506,0.0476 -0.0128,0.0294 -0.12153,0.19213 -0.0128,0.0294 -0.11679,0.0632 -0.0682,0.0123 -0.0385,0.0211 -0.0292,-0.0128 -0.0128,0.0294 -0.0128,0.0293 -0.0128,0.0293 0.0291,0.0128 -0.0128,0.0293 0.0239,0.13748 0.0209,0.0386 -0.0128,0.0294 0.0208,0.0387 -0.0204,0.28721 -0.0284,0.0894 -0.0477,0.0511 -0.26864,0.24637 -0.20302,0.1354 -0.13452,0.12311 -0.0741,0.14099 -0.0652,0.11107 0.0239,0.13745 -0.0386,0.021 -0.1376,0.0244 -0.0683,0.0122 -0.0384,0.0213 -0.0171,0.0602 0.001,0.0985 0.0329,0.10738 0.0416,0.0775 0.0292,0.0128 0.0208,0.0386 0.0119,0.0686 -0.15536,0.0843 -0.0988,0.001 -0.0384,0.021 -0.0292,-0.0128 -0.0172,0.0601 -0.0626,0.20965 0.0119,0.0688 0.0966,0.22418 0.0313,0.33512 -0.0284,0.0893 -0.0651,0.11107 -0.0349,0.12002 -0.0128,0.0294 0.0546,0.14656 0.0634,0.11654 0.001,0.0985 -0.035,0.11999 -0.0949,0.10227 -0.0525,0.17995 -0.0562,0.0811 -0.0171,0.0601 -0.12563,0.0932 -0.0476,0.051 0.012,0.0688 0.0149,0.1674 -0.003,0.12873 -0.0128,0.0295 -0.0385,0.0212 -0.0563,0.0811 -0.10791,0.0333 -0.0385,0.0212 -0.0477,0.051 -0.0348,0.11997 -0.0172,0.0601 -0.0475,0.0511 -0.0741,0.14101 -0.0563,0.0809 -0.0291,-0.0128 -0.16421,0.11427 -0.0772,0.0424 -0.29857,0.23746 -0.0683,0.0123 -0.13762,0.0244 -0.0919,0.20092 -0.0861,0.0723 -0.0951,0.10227 -0.0284,0.0895 -0.12155,0.19213 -0.0475,0.0512 -0.0871,0.0721 -0.0171,0.0601 -0.0477,0.0512 -0.0128,0.0293 -0.016,0.15854 -0.0284,0.0893 0.0209,0.0387 -0.0128,0.0294 -0.0128,0.0293 0.0151,0.16747 0.0418,0.0775 0.0119,0.0687 -0.003,0.12874 -0.003,0.12875 -0.0172,0.0602 -0.0741,0.141 -0.0563,0.0808 -0.0128,0.0294 -0.0128,0.0292 -0.0386,0.0211 0.0209,0.0386 -0.016,0.15854 -0.0128,0.0294 0.0209,0.0387 0.001,0.0986 -0.0128,0.0293 -0.0128,0.0294 -0.15536,0.0843 -0.0772,0.0423 -0.0128,0.0293 -0.0291,-0.0128 -0.0128,0.0294 -0.0128,0.0292 0.0209,0.0388 0.0208,0.0387 0.0209,0.0387 -0.0284,0.0894 -0.0862,0.0723 -0.0452,0.14962 0.0239,0.13746 0.0328,0.10736 0.0505,0.0476 -0.0128,0.0294 0.0595,0.017 -0.0128,0.0294 0.001,0.0986 -0.017,0.0601 -0.0683,0.0123 -0.33402,0.35734 -0.30184,0.13872 -0.15536,0.0843 -0.0128,0.0294 -0.0385,0.021 -0.10486,0.13194 -0.017,0.06 -0.0328,0.21851 -0.0128,0.0293 0.0369,0.20647 0.0345,0.43391 -0.0349,0.12002 -0.0128,0.0294 -0.0128,0.0294 -0.10387,0.13219 -0.0128,0.0294 -0.0385,0.0212 -0.0691,0.0119 -0.0284,0.0894 0.001,0.0985 -0.0128,0.0293 -0.0525,0.17996 0.0119,0.0686 0.0417,0.0775 0.16212,0.11326 0.10212,0.0955 0.0755,0.18532 0.0208,0.0388 -0.0171,0.0602 -0.0128,0.0294 0.0291,0.0128 -0.0408,0.24858 -0.0128,0.0293 0.0208,0.0387 -0.0128,0.0294 -0.0475,0.0511 -0.14343,0.15306 -0.0172,0.0602 0.0119,0.0688 0.052,0.37393 -0.0171,0.0602 -0.0349,0.12002 -0.0128,0.0294 -0.0128,0.0292 -0.0284,0.0895 -0.0128,0.0293 -0.003,0.12875 0.0119,0.0686 -0.0128,0.0294 0.0291,0.0128 -0.0171,0.0601 -0.0775,0.36828 10e-4,0.0985 -0.003,0.22735 -0.03,0.31718 -0.0385,0.0212 -0.0172,0.0602 -0.14339,0.15307 -0.0652,0.11106 0.001,0.0985 0.0399,0.30516 -0.0171,0.0601 0.0505,0.0476 0.19204,0.12202 0.0682,-0.0123 0.0988,-0.001 0.0683,-0.0123 0.0209,0.0386 0.0291,0.0128 -0.0128,0.0294 -0.0128,0.0293 -0.0653,0.11101 -0.0384,0.021 -0.0475,0.0512 -0.0475,0.0512 -0.10073,0.23089 -0.0128,0.0294 -0.0562,0.0811 -0.0128,0.0293 -0.0128,0.0293 0.0209,0.0387 0.033,0.10739 0.10548,0.19417 0.11095,0.0655 0.0208,0.0387 0.0292,0.0128 -0.0128,0.0294 0.0209,0.0387 -0.0128,0.0294 -0.10969,0.26086 -0.1091,0.58694 -0.1571,0.31196 -0.10073,0.23092 -0.0128,0.0293 -0.10791,0.0334 -0.0683,0.0123 -0.11671,0.0631 -0.0128,0.0293 -0.0452,0.14961 -0.003,0.22736 0.0458,0.17651 0.0725,0.0867 0.012,0.0687 -0.0172,0.0601 -0.0128,0.0294 -0.0128,0.0293 -0.0563,0.0811 -0.0524,0.17996 0.001,0.0986 0.0458,0.17652 0.015,0.16742 0.0292,0.0128 -0.0128,0.0294 -0.0385,0.021 -0.095,0.10226 -0.0561,0.081 -0.0564,0.081 0.0119,0.0688 0.13541,0.20308 -0.0128,0.0294 -0.0128,0.0294 0.0292,0.0128 -0.0475,0.051 -0.10386,0.1322 -0.0476,0.051 0.0208,0.0386 -0.0103,0.25736 0.0458,0.17654 -0.0128,0.0294 -0.0128,0.0293 -0.0128,0.0294 -0.0385,0.0211 -0.0475,0.0511 -0.0128,0.0293 -0.0128,0.0293 0.0209,0.0387 0.10549,0.19421 0.0505,0.0477 0.0988,-10e-4 0.0597,0.0171 0.0291,0.0128 -0.0128,0.0294 -0.0128,0.0294 0.0209,0.0387 -0.0128,0.0294 -0.0385,0.0212 -0.0128,0.0295 0.0506,0.0476 0.0725,0.0866 0.0209,0.0386 0.0515,0.0479 0.0208,0.0387 -0.0128,0.0294 0.0239,0.13749 -0.0171,0.0602 -0.0171,0.0602 -0.12561,0.0931 -0.0172,0.0601 -0.0128,0.0294 -0.0284,0.0893 0.0844,0.15537 0.0966,0.22414 -0.0128,0.0294 -0.0128,0.0292 0.0292,0.0128 -0.0128,0.0292 -0.0128,0.0294 -0.0741,0.141 -0.11257,0.16218 -0.11267,0.16217 -0.0861,0.0723 -0.13451,0.12311 -0.0474,0.0512 -0.0128,0.0295 -0.0172,0.0601 -0.0128,0.0293 -0.0128,0.0294 0.001,0.0985 0.0209,0.0386 0.0724,0.0866 0.0328,0.10737 -0.003,0.12875 0.001,0.0985 -0.0284,0.0895 -0.0128,0.0293 0.021,0.0386 -0.0128,0.0294 0.0546,0.14657 0.0209,0.0387 0.0505,0.0477 0.0813,0.0566 0.192,0.12211 -0.0128,0.0294 0.0291,0.0128 -0.0128,0.0293 -0.0128,0.0294 -0.0128,0.0295 -0.0171,0.0601 -0.0564,0.0808 -0.0682,0.0124 -0.0989,10e-4 -0.0694,0.0119 -0.0651,0.11104 -0.0284,0.0893 -0.0349,0.11997 0.0416,0.0774 0.0813,0.0565 -0.0128,0.0295 -0.0651,0.11105 -0.0385,0.0212 -0.11352,0.1619 -0.0385,0.0212 -0.0386,0.0209 -0.0812,-0.0564 -0.0291,-0.0128 -0.11676,0.0631 -0.13449,0.12313 -0.2152,0.0665 -0.0781,0.042 -0.20633,0.0365 -0.0474,0.051 -0.25079,0.18647 -0.0284,0.0895 -0.0128,0.0294 0.0119,0.0686 0.0514,0.0478 0.029,0.0128 0.0293,0.0128 -0.0128,0.0294 0.0292,0.0128 0.0209,0.0386 10e-4,0.0986 0.001,0.0985 0.0119,0.0687 -0.0284,0.0893 0.0208,0.0387 0.0488,0.27521 0.0121,0.0686 -0.0128,0.0294 -0.0128,0.0293 -0.0771,0.0422 -0.0171,0.0601 -0.0172,0.0602 -0.017,0.0601 0.0208,0.0386 -0.016,0.15851 0.0208,0.0386 -0.0128,0.0293 -0.0128,0.0294 -0.0861,0.0723 -0.0128,0.0294 -0.0128,0.0294 -0.0561,0.0811 -0.1465,0.0543 -0.10788,0.0333 -0.0128,0.0294 -0.0507,0.27833 0.001,0.0985 -0.003,0.1288 -0.0128,0.0294 0.0291,0.0128 0.0151,0.16743 -0.0128,0.0294 -0.0171,0.0601 -0.0128,0.0294 -0.0171,0.0601 -0.0128,0.0294 0.0292,0.0128 -0.0128,0.0293 0.0635,0.11657 0.12327,0.13422 0.033,0.10737 -0.016,0.15853 0.028,0.23644 0.10328,0.42172 0.0635,0.11654 0.28519,0.24741 0.16211,0.11328 0.0418,0.0774 0.0292,0.0128 0.0417,0.0773 0.0208,0.0387 0.0209,0.0386 0.0506,0.0476 -0.0128,0.0293 0.0417,0.0775 -0.0128,0.0293 -0.0128,0.0294 -0.0476,0.0512 -0.0772,0.0423 -0.0563,0.081 0.012,0.0686 0.029,0.0128 0.0506,0.0475 0.029,0.0128 0.0292,0.0128 0.0385,-0.0212 0.15537,-0.0844 0.0128,-0.0295 0.0128,-0.0294 0.0172,-0.0601 0.0169,-0.0601 0.0606,0.0172 0.0683,-0.0124 0.0724,0.0866 0.0417,0.0775 0.0209,0.0387 0.14089,0.0743 0.0209,0.0386 0.0339,0.10777 0.0458,0.17651 0.024,0.13746 0.12315,0.13423 0.15654,0.24192 0.0327,0.10737 0.0119,0.0688 0.16753,-0.0156 0.25747,0.0103 0.18878,0.0219 0.26633,-0.019 0.0682,-0.0124 0.93987,0.0172 0.61372,0.019 0.25746,0.0103 0.72132,-0.0143 0.0988,-0.001 0.0291,0.0128 0.0293,0.0128 1.6312,-0.005 1.23632,0.008 0.42496,-0.004 0.26631,-0.019 0.45504,0.004 0.22749,0.002 0.0291,0.0128 1.27504,-0.0136 0.71255,0.0152 0.5238,-0.007 0.58358,0.0102 0.62259,-0.0117 0.0291,0.0128 1.53256,-0.003 0.35627,0.007 0.49382,-0.0167 0.19752,-0.008 0.0897,0.0284 0.46373,-0.0253 0.3862,0.0171 0.55379,0.002 0.5926,-0.0202 0.0683,-0.0123 0.35618,0.007 0.32637,-8.5e-4 0.0988,-10e-4 0.2275,0.002 1.10755,0.002 0.29625,-0.009 0.1288,0.003 0.0385,-0.0211 0.0292,0.0128 0.45501,0.004 0.59261,-0.0202 0.0291,0.0128 0.0682,-0.0123 0.0291,0.0128 0.0291,0.0128 0.36506,-0.0221 0.19755,-0.008 0.15848,0.016 0.36516,-0.0222 0.25747,0.0103 0.65252,-0.003 0.0291,0.0128 0.39505,-0.0134 0.0291,0.0128 0.0385,-0.0212 0.25748,0.0103 0.16754,-0.0156 0.28738,0.0194 0.29636,-0.009 0.0682,-0.0123 0.39506,-0.0134 0.11267,-0.16218 0.17003,-0.24294 0.0742,-0.14103 0.14829,-0.28201 0.22637,-0.32405 0.0291,0.0128 0.18199,-0.17422 0.2542,-0.0877 0.17635,-0.0456 0.18891,0.0219 0.14955,0.0451 0.17998,0.0525 0.0597,0.017 0.0684,-0.0123 0.26965,0.08 -0.0522,-0.37396 -0.0119,-0.0688 -0.0313,-0.33515 -0.0832,-0.70905 0.0477,-0.051 0.0475,-0.0511 0.0651,-0.11107 0.095,-0.10223 0.11374,-0.16186 0.0385,-0.0212 0.0128,-0.0293 0.31957,-0.19863 0.0385,-0.021 0.31073,-0.16872 0.32961,0.0978 -0.34516,-1.14518 -4.54432,0.7072 -0.0973,1.20964 -0.66695,-0.71904 -0.83788,0.0778 -0.32638,-1.75887 -0.30409,-0.51377 -0.66356,1.13971 0.44404,2.0219 -0.60255,-0.2762 -0.80238,-0.042 -0.3817,0.40838 -0.81373,-4.1847 -0.51487,-0.0225 -0.64833,-3.09273 2.51236,-0.5595 0.97644,-1.53593 5.25675,1.06843 1.57108,-3.54345 -2.39818,-1.91628 0.18776,-0.30288 -6.77742,-4.5172 c -0.12971,-0.0945 -0.19092,0.0642 -0.24185,0.15654 -0.0651,0.18499 -0.37862,0.35369 -0.66917,0.38843 -0.29054,0.0348 -0.55607,-0.0655 -0.52825,-0.4172 0.0813,-0.27439 0.064,-0.44864 -0.0202,-0.5926 -0.0844,-0.14406 -0.24514,-0.27689 -0.42056,-0.45051 -0.12869,-0.18585 -0.39999,-0.25273 -0.6149,-0.34508 -0.21488,-0.0921 -0.38552,-0.19527 -0.2741,-0.50491 -0.28862,-0.0807 -0.41943,-0.33961 -0.53495,-0.61474 -0.32144,-0.0629 -0.36836,-0.24432 -0.35175,-0.46268 0.0175,-0.21834 0.11094,-0.47747 0.006,-0.68257 -0.0639,-0.37527 0.11365,-0.41584 0.35182,-0.41724 0.23915,-10e-4 0.52722,0.0392 0.69688,-0.15207 0.35354,-0.0676 0.38187,-0.24167 0.3307,-0.45615 -0.0512,-0.21446 -0.16809,-0.47156 -0.0923,-0.67914 0.16975,-0.21176 0.0951,-0.52631 0.0724,-0.79342 -0.0232,-0.2671 0.002,-0.47475 0.32726,-0.55488 0.20371,0.0242 0.44526,-0.0947 0.65811,-0.13101 0.21283,-0.0361 0.39832,-0.001 0.50385,0.27965 0.0804,0.29498 0.28034,0.48548 0.52275,0.54594 0.24279,0.0584 0.51997,-0.019 0.72352,-0.24197 l 0.7723,-0.84679 0.40842,0.38172 0.44155,-0.39067 -2.05639,-1.74988 -0.0844,-1.03536 -3.66425,0.70719 -0.64589,-0.68021 0.46774,-1.36072 -0.18535,-0.8045 0.24516,-0.0578 0.5527,0.55483 2.65665,-0.38637 -0.13659,-0.52936 4.137,-0.76269 -0.56728,-3.03613 0.73453,-1.37945 -0.50265,0.0466 -0.33753,-2.38143 -0.72252,-0.31173 -0.31522,-1.13635 0.71465,-0.21202 0.16429,0.76569 0.70583,0.69797 0.24321,1.92979 0.66689,-0.16096 0.19292,-1.31173 0.81922,-2.98392 4.14593,0.0874 0.11174,-1.36828 0.63147,-0.0412 -0.0556,-0.47272 -0.0966,-1.10417 -0.0777,-0.83783 0.0128,-0.0293 -0.0159,-0.16769 -0.11436,-1.04422 -0.0534,-0.70025 -0.0103,-0.29632 -0.0399,-0.30517 -0.0313,-0.33515 -0.0209,-0.0387 -0.0313,-0.33512 -0.0221,-0.36508 -0.1644,-1.6457 -0.11877,-1.46925 -0.0823,-1.26285 -0.13987,-1.50808 -0.0338,-0.10778 -0.041,-0.6314 -0.0329,-0.1074 -0.007,-0.19739 -0.0193,-0.2664 -0.0556,-0.47276 0.003,-0.12875 -0.16658,-1.4182 -0.0193,-0.2664 -0.0368,-0.20645 -0.0193,-0.26639 -0.0193,-0.26642 -0.11992,-0.91549 -0.10206,-0.97543 -0.10885,-1.17298 -0.0556,-0.47271 -0.0488,-0.27523 -0.0238,-0.13744 -0.0103,-0.29637 -0.35983,-3.62654 -0.12321,-1.01427 -0.16216,-1.87319 -0.23314,-1.63349 -0.0291,-0.0128 z"
       id="NH-02"
       style="font-style:normal;font-weight:400;font-size:34.375px;font-family:'MS Shell Dlg 2';opacity:1;fill:#000000;fill-opacity:1;fill-rule:evenodd;stroke:#000000;stroke-width:0.333;stroke-linecap:square;stroke-linejoin:bevel;stroke-miterlimit:4;stroke-dasharray:none;stroke-opacity:1" />
  </g>
</svg>
