<?xml version="1.0" encoding="UTF-8" standalone="no"?>
<!-- Created with Inkscape (http://www.inkscape.org/) -->

<svg
   xmlns:dc="http://purl.org/dc/elements/1.1/"
   xmlns:cc="http://creativecommons.org/ns#"
   xmlns:rdf="http://www.w3.org/1999/02/22-rdf-syntax-ns#"
   xmlns:svg="http://www.w3.org/2000/svg"
   xmlns="http://www.w3.org/2000/svg"
   xmlns:sodipodi="http://sodipodi.sourceforge.net/DTD/sodipodi-0.dtd"
   xmlns:inkscape="http://www.inkscape.org/namespaces/inkscape"
   width="27.991817mm"
   height="34.64325mm"
   viewBox="0 0 99.183599 122.75168"
   id="svg3885"
   version="1.1"
   inkscape:version="0.91 r"
   sodipodi:docname="5.svg">
  <defs
     id="defs3887" />
  <sodipodi:namedview
     id="base"
     pagecolor="#ffffff"
     bordercolor="#666666"
     borderopacity="1.0"
     inkscape:pageopacity="0.0"
     inkscape:pageshadow="2"
     inkscape:zoom="3.7812748"
     inkscape:cx="-4.1990675"
     inkscape:cy="69.856305"
     inkscape:document-units="px"
     inkscape:current-layer="layer1"
     showgrid="false"
     inkscape:window-width="2560"
     inkscape:window-height="1388"
     inkscape:window-x="0"
     inkscape:window-y="0"
     inkscape:window-maximized="1"
     fit-margin-top="1"
     fit-margin-left="1"
     fit-margin-right="1"
     fit-margin-bottom="1" />
  <metadata
     id="metadata3890">
    <rdf:RDF>
      <cc:Work
         rdf:about="">
        <dc:format>image/svg+xml</dc:format>
        <dc:type
           rdf:resource="http://purl.org/dc/dcmitype/StillImage" />
        <dc:title></dc:title>
      </cc:Work>
    </rdf:RDF>
  </metadata>
  <g
     inkscape:label="Layer 1"
     inkscape:groupmode="layer"
     id="layer1"
     transform="translate(-90.86714,-482.79233)">
    <path
       style="font-style:normal;font-weight:400;font-size:34.375px;font-family:'MS Shell Dlg 2';opacity:1;fill:none;fill-opacity:1;fill-rule:evenodd;stroke:#000000;stroke-width:0.33333385;stroke-linecap:square;stroke-linejoin:bevel;stroke-miterlimit:4;stroke-dasharray:none;stroke-opacity:1"
       d="m 68.244946,417.29824 -0.432589,0.11412 -0.307937,-0.0537 -0.345637,0.16117 -0.253464,0.17743 -0.248034,0.14666 -0.421739,0.0526 -0.362044,-0.28597 -0.593775,0.30784 -0.669769,0.19922 -0.923131,0.37666 -0.255296,0.36751 -0.144808,0.10141 0.106832,0.11395 -0.231651,0.0544 -0.253366,0.17747 -0.09216,-0.018 -0.454294,0.23721 -0.362116,0.25349 -0.345637,0.16116 -0.155665,0.16295 -0.05431,0.30775 -0.345834,0.16114 -0.345637,0.16119 -0.09216,-0.018 -0.416299,0.0217 -1.171265,0.52329 -0.02178,0.12311 -0.01607,0.0922 -0.34564,0.16121 -0.201025,0.0597 -0.10683,-0.11397 -0.200828,0.0598 -1.031884,0.45269 -0.485021,0.2318 -1.486181,0.6899 -1.647266,0.88364 -0.724034,0.50697 -0.124838,0.16838 0.05429,0.2317 -0.108535,0.0759 -0.454392,0.2372 -0.177363,0.28603 0.08512,0.23715 0.108631,-0.0759 0.345761,0.37832 -0.108532,0.0759 -0.01609,0.0924 0.615502,0.10856 0.17739,0.25341 -0.03795,0.21543 -0.01609,0.0924 0.691609,0.21707 0.648062,-0.0761 0.253462,-0.17744 1.031691,-0.45275 0.201023,-0.0597 0.452464,-0.0471 0.454391,-0.2372 1.701556,-0.65194 0.26974,-0.26973 -0.885243,0.16121 -0.307836,-0.0537 -0.199106,-0.13026 0.03795,-0.21543 0.193647,-0.37839 0.707753,-0.41462 0.124837,-0.1684 0.362018,-0.25348 0.906951,-0.28433 0.41631,-0.0217 0.45429,-0.23723 0.324122,-0.038 0.32936,-0.0689 1.010183,-0.32961 1.031688,-0.45271 1.71781,-1.28372 0.114085,-0.1068 0.03265,-0.18464 -0.07067,-0.13939 0.01608,-0.0923 0.03795,-0.21543 0.146641,-0.29147 1.064248,-0.63736 0.523205,-0.44721 0.399903,-0.46893 0.124937,-0.16836 0.237179,-0.0851 0.432588,-0.11413 0.114085,-0.10681 0.05431,-0.30773 -0.05981,-0.20096 z"
       id="path4159"
       inkscape:connector-curvature="0" />
    <path
       style="font-style:normal;font-weight:400;font-size:34.375px;font-family:'MS Shell Dlg 2';opacity:1;fill:none;fill-opacity:1;fill-rule:evenodd;stroke:#000000;stroke-width:0.33333385;stroke-linecap:square;stroke-linejoin:bevel;stroke-miterlimit:4;stroke-dasharray:none;stroke-opacity:1"
       d="m 79.292288,437.96813 -0.201023,0.0597 -1.576646,-0.0559 -0.101397,-0.14481 -0.400132,-0.0705 -0.09207,-0.018 -0.544932,0.0308 -0.400129,-0.0706 -0.447028,0.0163 -0.508683,0.006 -0.144808,0.10139 -0.09216,-0.018 -0.215426,-0.0384 -0.03265,0.18464 -0.514119,0.0363 -0.123188,-0.0212 -1.069796,0.12868 -0.231746,0.0543 -0.323921,0.038 -0.184854,-0.0318 -0.123189,-0.0211 -0.454296,0.23722 -0.237177,0.0851 -0.01608,0.0924 -0.01609,0.0924 -0.130257,0.19914 -0.231661,0.0544 -0.669771,0.19924 -0.184852,-0.0318 -0.269641,0.26975 -0.11399,0.10686 -0.46351,0.10866 -0.691478,0.32232 -0.340209,0.13039 -0.206457,0.0905 -0.139384,0.0707 -0.454291,0.23722 -0.286023,0.3621 -0.508559,0.54497 -0.02179,0.12309 -0.124934,0.16836 -0.144806,0.10139 -0.05431,0.30774 -0.01609,0.0924 -0.09205,-0.018 -0.13026,0.19916 -0.269738,0.26977 -0.269743,0.26975 -0.23882,0.27521 -0.517775,0.41641 -0.475999,0.36034 -0.108634,0.0759 -0.123189,-0.0211 -0.438012,0.14488 -0.248037,0.14668 -0.09207,-0.018 -0.02179,0.1231 -0.09207,-0.018 -0.123185,-0.0211 -0.01609,0.0924 -0.09217,-0.018 -0.215425,-0.0384 -0.361919,0.25352 -0.470671,0.32951 -0.631758,0.52324 -0.399908,0.46896 -0.255293,0.36747 -0.123186,-0.0212 -0.222539,0.1829 -0.215425,-0.0384 -0.454291,0.23721 -0.269742,0.26974 -0.400007,0.46894 -0.215322,-0.0384 -0.362119,0.25349 -0.217111,0.1521 -0.269742,0.26976 -0.114086,0.10681 -0.05431,0.30774 -0.05431,0.30776 -0.01607,0.0923 -0.123188,-0.0211 -0.01609,0.0924 -0.168246,0.41459 -0.146541,0.29148 -0.28602,0.36207 -0.269741,0.26977 -0.22254,0.18288 -0.340411,0.13038 -0.237082,0.0851 -0.400125,-0.0706 -0.101395,-0.14481 -0.09206,-0.018 -0.237082,0.0851 -0.108633,0.0759 -0.231752,0.0544 -0.02178,0.12307 -0.09207,-0.018 -0.32402,0.038 -0.108635,0.0759 -0.123186,-0.0211 -0.18467,-0.0316 -0.199205,-0.13027 0.01608,-0.0923 -0.09217,-0.018 -0.123188,-0.0212 -0.09206,-0.018 -0.269643,0.26979 -0.508656,0.54494 -0.394576,0.43813 -0.291448,0.39288 -0.01607,0.0923 -0.49228,0.45266 -0.108634,0.0759 -0.345637,0.16117 -0.593775,0.30782 -0.108532,0.0759 -0.123187,-0.0211 -0.02179,0.12309 -0.32411,0.038 -0.222541,0.18291 -0.139376,0.0706 -0.201026,0.0597 -0.144806,0.10138 -0.54667,0.22095 -0.01608,0.0923 -0.901425,0.25358 -0.345738,0.16116 -0.09217,-0.018 -0.539389,-4.2e-4 -0.09217,-0.018 -0.430707,-0.0762 -0.09216,-0.018 -0.307826,-0.0538 -0.237081,0.0851 -0.201022,0.0597 -0.123188,-0.0212 -0.438013,0.14487 -0.09217,-0.018 -0.340213,0.13041 -0.237178,0.0851 -0.43259,0.1141 -0.307926,-0.0538 0.01607,-0.0923 -0.106829,-0.11398 -0.378324,-0.19365 -0.215425,-0.0384 -0.637211,0.0146 -0.323923,0.038 -0.745867,0.0906 -0.231745,0.0543 -0.323923,0.0381 -0.114085,0.1068 -0.108645,0.076 -0.577393,0.21551 -0.362021,0.25349 -0.09207,-0.018 -0.269744,0.26979 -0.508557,0.54495 -0.01608,0.0923 -0.123188,-0.0212 -0.130356,0.19914 -0.108645,0.076 -0.02179,0.12308 -0.15566,0.16295 -0.222538,0.18288 -0.253461,0.17743 -0.362018,0.25349 -0.247937,0.14669 -0.114086,0.1068 -0.248036,0.14667 -0.146543,0.29148 -0.707754,0.41463 -0.345738,0.16117 -1.102358,0.31335 -1.214702,0.23004 -1.448098,0.47452 -0.231744,0.0543 -0.114086,0.10682 -0.231646,0.0543 -0.800034,0.3984 -0.409245,-0.19908 -0.438014,0.14486 -0.362019,0.2535 -0.593772,0.30781 -0.476001,0.36034 0.07609,0.1086 -0.01607,0.0923 0.101395,0.1448 0.05971,0.20093 0.09207,0.018 0.101396,0.14479 -0.01608,0.0923 -0.01609,0.0924 0.09217,0.018 0.09217,0.018 0.247936,-0.14669 0.09207,0.018 0.144807,-0.10139 0.09217,0.018 0.09217,0.018 -0.02178,0.12309 0.123186,0.0211 0.03796,-0.21542 0.03795,-0.21542 0.09207,0.018 0.108532,-0.0759 0.123188,0.0211 -0.01609,0.0924 -0.02179,0.12309 0.09216,0.018 0.09217,0.018 0.18282,0.22264 -0.02179,0.12306 -0.01607,0.0923 -0.01609,0.0924 -0.02179,0.1231 -0.108545,0.076 -0.01609,0.0924 0.09207,0.018 0.108546,-0.076 0.106828,0.11397 0.108636,-0.0759 0.09217,0.018 0.123187,0.0211 0.09207,0.018 0.01607,-0.0923 0.02179,-0.12308 0.09207,0.018 0.101395,0.14481 -0.15566,0.16295 0.123188,0.0211 -0.02178,0.12311 -0.01607,0.0923 0.09217,0.018 0.07611,0.1086 0.13937,-0.0706 0.184659,0.0318 0.123185,0.0211 0.108645,-0.076 0.09217,0.018 -0.01609,0.0924 0.215326,0.0384 0.09206,0.018 -0.01609,0.0924 0.08511,0.23712 0.130484,0.34033 -0.01609,0.0924 0.215326,0.0384 0.07057,0.1394 -0.01609,0.0924 -0.09206,-0.018 -0.01609,0.0924 0.07057,0.1394 0.215425,0.0384 -0.01607,0.0922 -0.01607,0.0923 0.0381,0.32405 0.215324,0.0384 0.07057,0.13935 -0.03266,0.18464 0.101393,0.14482 -0.01608,0.0924 -0.01607,0.0923 -0.02178,0.1231 -0.01608,0.0924 0.05438,0.23171 0.09217,0.018 0.106828,0.114 -0.01607,0.0923 0.146568,0.24797 0.123187,0.0211 -0.01607,0.0923 -0.02178,0.12309 -0.01607,0.0923 0.07608,0.10869 0.09217,0.018 -0.02178,0.1231 -0.01607,0.0923 0.123189,0.0212 0.07599,0.10857 -0.03796,0.21542 -0.09206,-0.018 -0.01607,0.0923 0.09207,0.018 -0.02179,0.12309 -0.01607,0.0923 2.483752,0.85047 1.100747,0.41623 0.199107,0.13024 0.184855,0.0318 0.593795,0.23165 0.123188,0.0211 0.691512,0.21707 0.599232,0.20083 0.809178,0.2696 0.383859,0.16282 0.09207,0.018 0.123186,0.0211 1.285397,0.44881 0.215426,0.0384 0.09207,0.018 0.199105,0.13024 0.783986,0.23339 0.90145,0.28587 0.414685,0.16825 0.691507,0.2171 0.09207,0.018 0.901652,0.2859 0.414482,0.16824 0.907086,0.25509 1.884526,0.64961 1.10075,0.4162 0.09207,0.018 0.215325,0.0384 0.09217,0.018 -0.01609,0.0924 0.09217,0.018 0.307723,0.0538 0.307933,0.0537 0.101397,0.1448 0.691506,0.21709 0.599233,0.20081 1.231037,0.7565 0.684344,0.43797 0.852807,0.56292 0.09207,0.018 0.193672,0.16108 1.598602,1.01172 -0.01608,0.0923 0.101397,0.14479 0.09217,0.018 0.09217,0.018 0.10683,0.11397 0.18465,0.0319 0.106832,0.11396 0.09216,0.018 0.108646,-0.076 0.12319,0.0211 0.01608,-0.0924 0.02178,-0.12308 0.09207,0.018 0.09207,0.018 0.123187,0.0212 0.09217,0.018 -0.130358,0.19914 -0.01609,0.0924 -0.02179,0.12308 0.09217,0.018 0.09216,0.018 0.144806,-0.10138 0.01608,-0.0923 0.09207,0.018 -0.01609,0.0924 0.09207,0.018 0.01609,-0.0924 0.139364,-0.0705 0.114088,-0.10682 0.09216,0.018 0.215325,0.0384 0.09207,0.018 0.101399,0.14477 -0.01608,0.0923 -0.01609,0.0924 0.09217,0.018 0.108634,-0.0759 0.123188,0.0212 0.108545,-0.076 0.07601,0.10858 0.215425,0.0384 0.09217,0.018 0.106831,0.11396 -0.02178,0.12311 0.05971,0.20091 0.07057,0.13938 -0.01609,0.0924 0.123187,0.0211 0.09216,0.018 0.09217,0.018 0.10683,0.11399 0.184659,0.0318 0.01609,-0.0924 0.231743,-0.0543 0.09217,0.018 0.123188,0.0211 0.05431,-0.30774 0.02178,-0.12309 0.03265,-0.18463 0.113989,-0.10685 0.01609,-0.0924 0.09206,0.018 0.10683,0.11397 -0.02179,0.1231 0.0761,0.10857 0.108644,-0.076 0.237083,-0.0851 0.01607,-0.0923 0.09207,0.018 0.123186,0.0211 0.09217,0.018 0.09217,0.018 0.123189,0.0211 0.09207,0.018 0.01609,-0.0924 0.113986,-0.10683 0.01608,-0.0924 0.123188,0.0212 0.0761,0.10858 0.108646,-0.076 0.123186,0.0212 0.076,0.10857 -0.02179,0.12308 0.05971,0.20094 0.101398,0.14477 -0.01609,0.0924 -0.01609,0.0924 0.09216,0.018 0.215424,0.0384 0.09207,0.018 0.09207,0.018 0.01609,-0.0924 0.01607,-0.0922 0.02179,-0.1231 0.123188,0.0211 0.09217,0.018 0.07067,0.1394 0.106832,0.11397 -0.01607,0.0923 0.09207,0.018 0.108532,-0.0759 0.106829,0.11399 0.09217,0.018 0.07067,0.13939 0.123185,0.0212 -0.01607,0.0923 0.07599,0.10857 0.09207,0.018 0.01608,-0.0924 0.231744,-0.0543 0.09217,0.018 0.144808,-0.1014 0.108545,-0.076 0.01609,-0.0924 0.09207,0.018 0.123188,0.0211 -0.01608,0.0923 0.184862,0.0317 0.199106,0.13026 0.345863,0.3783 0.123189,0.0211 -0.02178,0.12308 -0.01608,0.0923 -0.01609,0.0924 0.09207,0.018 0.108545,-0.076 0.01607,-0.0923 0.123188,0.0211 0.09217,0.018 0.199206,0.13027 -0.01607,0.0923 0.09207,0.018 0.231644,-0.0543 0.324115,-0.0379 0.113986,-0.10683 0.108532,-0.0759 0.123189,0.0211 0.09216,0.018 -0.01607,0.0923 -0.02179,0.12309 -0.01608,0.0924 0.09217,0.018 0.199107,0.13025 0.09207,0.018 0.01608,-0.0923 0.123187,0.0212 0.09216,0.018 0.0761,0.10859 0.123187,0.0211 0.09206,0.018 -0.0597,-0.20093 0.113986,-0.10683 0.09207,0.018 0.123189,0.0211 0.163042,0.15568 0.10683,0.11398 -0.01608,0.0923 0.09207,0.018 0.09207,0.018 0.123187,0.0211 0.09216,0.018 0.07067,0.13937 0.106829,0.11399 0.09207,0.018 0.199107,0.13025 -0.02179,0.12309 0.09216,0.018 0.09217,0.018 0.144806,-0.10141 0.184664,0.0317 0.101396,0.14481 0.07609,0.10858 -0.108633,0.0759 -0.144806,0.10139 -0.01609,0.0924 -0.01609,0.0924 -0.02179,0.12308 0.16121,0.34574 -0.01608,0.0924 0.09216,0.018 0.215324,0.0384 0.09207,0.018 0.106831,0.11398 -0.02179,0.1231 -0.01607,0.0923 -0.01609,0.0924 -0.123185,-0.0212 -0.02179,0.12309 -0.108532,0.0759 -0.01607,0.0922 -0.237082,0.0851 -0.146639,0.29146 -0.108648,0.076 -0.161085,0.19373 -0.01607,0.0923 -0.09207,-0.018 -0.108532,0.0759 -0.02179,0.12307 -0.01607,0.0923 0.05428,0.23169 0.09207,0.018 0.199203,0.1303 0.09217,0.018 0.123186,0.0212 -0.01607,0.0923 -0.02179,0.1231 0.076,0.10858 0.07601,0.10857 0.101395,0.14482 0.09216,0.018 0.114084,-0.1068 0.123188,0.0212 -0.02179,0.1231 0.09207,0.018 0.09205,0.018 0.123187,0.0211 0.09217,0.018 0.09217,0.018 0.02179,-0.1231 0.123185,0.0212 0.108533,-0.0759 0.01608,-0.0923 0.09205,0.018 0.123188,0.0211 0.114085,-0.10681 0.09216,0.018 0.123189,0.0211 0.09206,0.018 0.01607,-0.0923 0.09207,0.018 0.139364,-0.0705 0.09217,0.018 -0.01607,0.0923 0.09217,0.018 0.08511,0.23715 -0.03265,0.18463 -0.02179,0.1231 -0.123187,-0.0212 -0.01609,0.0924 0.123187,0.0212 0.09207,0.018 0.07601,0.10858 0.123187,0.0211 0.07067,0.13939 0.0761,0.10859 0.139365,-0.0705 0.09207,0.018 0.09207,0.018 0.215426,0.0384 0.114083,-0.10679 0.123189,0.0211 -0.02179,0.1231 0.20626,-0.0905 0.123185,0.0212 0.09217,0.018 -0.02179,0.12309 0.09217,0.018 0.123188,0.0212 0.206259,-0.0905 0.123186,0.0212 0.07067,0.13939 0.09217,0.018 -0.01608,0.0923 0.106831,0.11397 -0.03796,0.21542 0.146566,0.24794 0.106831,0.11399 0.168472,0.1249 0.123187,0.0212 0.07057,0.13937 0.307836,0.0537 0.09216,0.018 0.10683,0.11398 -0.01607,0.0923 -0.144809,0.10138 0.10683,0.114 0.09207,0.018 0.269765,0.26969 0.0761,0.10858 0.123188,0.0211 -0.03796,0.21544 -0.324122,0.038 -0.01607,0.0923 -0.144809,0.10139 -0.416297,0.0217 -0.01609,0.0924 0.07067,0.13939 -0.108646,0.076 0.05438,0.2317 0.123189,0.0212 0.168276,0.12485 0.06883,0.32945 0.168472,0.12491 -0.02178,0.12309 0.106832,0.11397 0.184659,0.0317 0.08512,0.2371 -0.01608,0.0923 0.0761,0.10859 -0.02179,0.1231 -0.01609,0.0924 -0.01608,0.0923 -0.114086,0.10682 -0.139376,0.0706 -0.01607,0.0923 -0.02178,0.12309 -0.03266,0.18466 -0.02179,0.12308 -0.108533,0.0759 -0.215324,-0.0384 -0.07611,-0.10858 -0.307837,-0.0537 -0.09207,-0.018 -0.03265,0.18465 0.162849,0.15564 0.106829,0.11397 0.07609,0.10858 0.193772,0.16109 0.07599,0.10858 -0.01607,0.0922 -0.02178,0.12307 -0.03265,0.18466 0.03802,0.32401 0.08511,0.23714 0.09217,0.018 -0.01607,0.0923 -0.02179,0.12311 -0.01608,0.0923 -0.01607,0.0923 -0.02179,0.12309 -0.248036,0.14667 -0.02178,0.12309 0.123186,0.0211 -0.01609,0.0924 -0.139377,0.0706 -0.02178,0.1231 -0.217113,0.15211 -0.123187,-0.0212 -0.114084,0.1068 -0.01607,0.0923 -0.01609,0.0924 -0.215423,-0.0384 -0.03796,0.21542 -0.108533,0.0759 -0.09205,-0.018 -0.03796,0.21543 -0.01607,0.0923 -0.03796,0.21543 0.07601,0.10858 0.07057,0.13937 0.123187,0.0211 -0.01609,0.0924 -0.03795,0.21542 -0.231646,0.0543 -0.01608,0.0924 0.07057,0.13938 -0.01609,0.0924 -0.108536,0.076 -0.113985,0.10682 -0.123188,-0.0212 -0.01609,0.0924 0.10683,0.11399 -0.02179,0.12308 -0.139365,0.0705 -0.108631,0.0759 -0.03795,0.21543 -0.01608,0.0923 0.09217,0.018 0.139379,-0.0706 0.09207,0.018 0.01608,-0.0923 0.09207,0.018 -0.01609,0.0924 0.10683,0.11399 0.184857,0.0318 -0.02179,0.12309 -0.01607,0.0923 0.123188,0.0212 0.108541,-0.076 0.09207,0.018 0.03796,-0.21543 0.123187,0.0212 0.09217,0.018 0.215424,0.0384 0.09207,0.018 0.108534,-0.0759 0.237181,-0.0851 0.07067,0.13939 0.123188,0.0211 0.09207,0.018 0.09207,0.018 0.02178,-0.12308 0.193773,0.16108 0.09216,0.018 0.144808,-0.10141 0.01608,-0.0923 0.200824,-0.0597 0.02179,-0.12308 0.139366,-0.0705 0.255294,-0.3675 0.237081,-0.0851 0.01609,-0.0924 0.108533,-0.0759 0.144806,-0.1014 0.09217,0.018 0.09216,0.018 -0.02179,0.12308 0.199114,0.13028 -0.01608,0.0923 0.362143,0.28598 -0.01607,0.0923 -0.02179,0.1231 0.09054,0.20634 0.09207,0.018 0.05428,0.23169 -0.01607,0.0923 -0.14654,0.29148 -0.09207,-0.018 -0.02178,0.12309 -0.01607,0.0923 -0.01607,0.0923 -0.144808,0.1014 -0.146642,0.29149 -0.09216,-0.018 -0.155664,0.16295 -0.02179,0.12308 -0.03265,0.18463 -0.09207,-0.018 -0.130257,0.19916 -0.03796,0.21545 0.09207,0.018 -0.01607,0.0923 -0.01607,0.0923 -0.09207,-0.018 -0.161085,0.19373 -0.01607,0.0922 -0.02179,0.12311 -0.01608,0.0923 -0.01607,0.0923 -0.02179,0.12308 -0.01609,0.0924 -0.09216,-0.018 -0.130357,0.19915 -0.01607,0.0923 0.09216,0.018 -0.01609,0.0924 -0.02179,0.12309 -0.10863,0.0759 -0.01609,0.0924 0.09217,0.018 -0.02178,0.12309 -0.01609,0.0924 -0.231745,0.0543 -0.02179,0.12308 -0.09206,-0.018 -0.01609,0.0924 0.123129,0.56115 -0.01609,0.0924 -0.01607,0.0923 0.09217,0.018 0.09216,0.018 0.101399,0.14478 0.07599,0.10858 0.215325,0.0384 -0.01608,0.0924 0.09216,0.018 -0.02178,0.1231 0.09215,0.018 0.123189,0.0212 0.09206,0.018 -0.01609,0.0924 0.07601,0.10857 0.177488,0.25343 -0.01607,0.0923 0.0381,0.32405 0.123187,0.0211 0.09207,0.018 -0.02178,0.12309 0.09207,0.018 -0.01608,0.0924 -0.01607,0.0922 0.123187,0.0212 0.108634,-0.0759 0.07609,0.10858 0.215322,0.0384 0.09207,0.018 0.123189,0.0211 0.09217,0.018 0.07067,0.13939 0.523175,0.0919 -0.177494,-0.2534 -0.07601,-0.10857 -0.07057,-0.13936 -0.106828,-0.11398 0.03795,-0.21542 0.03265,-0.18466 0.02179,-0.12308 0.15566,-0.16294 0.02179,-0.1231 0.01607,-0.0923 0.108546,-0.076 0.146545,-0.29148 0.02178,-0.12308 0.01609,-0.0924 0.139382,-0.0707 0.222735,-0.18284 0.01607,-0.0923 0.123187,0.0212 0.23882,-0.27522 0.269739,-0.26975 0.130359,-0.19916 0.378196,-0.34582 0.307728,-0.48517 0.702203,-0.92334 0.50866,-0.54497 0.05431,-0.30774 0.05431,-0.30774 0.02178,-0.12309 0.09207,0.018 0.01609,-0.0924 0.400105,-0.46893 0.177365,-0.28604 0.162822,-0.38382 0.03796,-0.21543 0.108545,-0.076 0.269741,-0.26974 0.130355,-0.19913 0.177367,-0.28605 0.124839,-0.16839 0.362016,-0.25348 0.146639,-0.29146 0.02178,-0.12311 -0.09216,-0.018 -0.0761,-0.10861 0.03796,-0.21542 0.01608,-0.0924 0.276998,-0.49059 0.01609,-0.0924 0.25336,-0.17742 0.01609,-0.0924 0.34019,-0.66987 0.168343,-0.41456 0.394551,-0.97759 0.01608,-0.0923 0.260523,-0.39832 0.324007,-0.57751 0.146641,-0.29146 0.123188,0.0211 0.146541,-0.29148 0.146541,-0.29148 0.209926,-0.4707 0.114086,-0.10683 0.01607,-0.0923 0.01607,-0.0922 0.09216,0.018 0.177364,-0.28605 0.113989,-0.10684 0.124836,-0.16838 0.345835,-0.16112 0.36192,-0.25352 0.324121,-0.038 0.269645,-0.26979 0.02179,-0.12308 0.01607,-0.0923 0.09207,0.018 0.231745,-0.0543 0.237181,-0.0851 0.200824,-0.0597 -0.07599,-0.10859 -0.07057,-0.13937 0.162821,-0.38381 0.03794,-0.21542 0.03265,-0.18465 0.09207,0.018 0.02179,-0.12308 -0.09206,-0.018 0.01609,-0.0924 -0.09207,-0.018 -0.106832,-0.11395 0.03795,-0.21543 0.05432,-0.30777 0.01609,-0.0924 0.03796,-0.21541 0.03795,-0.21545 -0.05981,-0.20094 0.03796,-0.21544 0.01607,-0.0923 0.130356,-0.19915 0.177368,-0.28604 0.108534,-0.0759 0.113987,-0.10683 0.231745,-0.0543 0.29149,0.1465 -0.02179,0.12309 0.07601,0.10857 0.23731,0.45434 0.139404,0.46882 -0.03259,0.72412 0.144934,0.43805 -0.01613,0.63181 -0.146642,0.29146 -0.07593,0.43087 0.05981,0.20092 0.19367,0.16108 0.05971,0.20094 0.06883,0.32945 0.432659,-0.65354 0.416298,-0.0217 0.383721,-0.37659 0.215325,0.0384 0.324113,-0.0379 0.09207,0.018 0.686048,-0.29154 -0.05428,-0.2317 0.01607,-0.0923 0.03795,-0.21541 0.399906,-0.46893 0.01609,-0.0924 -0.106831,-0.11399 0.02178,-0.12308 0.362116,-0.25347 0.394476,-0.43815 0.215355,-0.50148 0.03795,-0.21544 -0.10683,-0.11396 0.01607,-0.0923 -0.09206,-0.018 0.03796,-0.75485 0.01609,-0.0924 0.222541,-0.18289 0.231744,-0.0543 0.09217,0.018 0.215324,0.0384 0.237207,0.45435 0.19377,0.1611 1.399298,0.34186 0.26974,-0.26976 0.0922,-0.52315 0.12492,-0.16836 0.26965,-0.26979 0.21533,0.0384 0.14665,-0.29148 0.14664,-0.29145 0.0219,-0.12308 0.30775,0.0536 0.30794,0.0537 0.17738,0.25341 0.19912,0.13026 0.0544,0.23171 -4.1e-4,0.53945 -0.0164,0.0923 -0.16292,0.38384 -0.11409,0.1068 -0.12319,-0.0211 -0.12483,0.16839 -0.038,0.21543 0.0543,0.23168 -0.0326,0.18464 -0.11399,0.10686 -0.092,-0.018 -0.13937,0.0706 -0.13036,0.19914 -0.0164,0.0923 0.0761,0.1086 -0.14664,0.29145 -0.23719,0.0851 -0.28594,-0.17734 -0.076,-0.10858 -0.32403,0.038 -0.0923,0.52318 0.0217,0.41636 -0.2768,0.49062 -0.23175,0.0543 -0.26974,0.26975 0.08512,0.23715 0.0761,0.10857 -0.038,0.21544 -0.146639,0.29145 -0.323924,0.038 -0.307933,-0.0537 -0.253364,0.17745 -0.03796,0.21545 0.05971,0.20093 0.123229,0.56115 0.307837,0.0537 0.05428,0.23172 0.106829,0.11396 0.345865,0.37831 0.38385,0.16283 0.32392,-0.038 0.19921,0.13027 0.0544,0.23169 0.0705,-0.40007 -0.21563,-1.1169 0.0161,-0.0924 0.10853,-0.0759 0.23719,-0.0851 0.30783,0.0537 0.0921,0.018 0.0705,-0.40007 0.0333,-0.72408 0.13025,-0.19916 0.13938,-0.0705 0.59923,0.2008 0.0921,0.018 0.10867,-0.0759 0.17737,-0.28603 -0.0472,-0.45258 0.17736,-0.28604 0.017,-0.0922 0.20083,-0.0598 0.19922,0.13027 0.21542,0.0384 0.1465,-0.29151 0.23163,-0.0543 0.0922,0.018 0.076,0.10856 0.13936,-0.0705 0.20626,-0.0905 0.15565,-0.16295 0.13036,-0.19913 0.018,-0.0921 -0.0706,-0.13939 0.018,-0.092 0.10869,-0.076 0.11406,-0.1068 0.23166,-0.0544 0.092,0.018 -0.018,0.0922 0.12318,0.0212 0.40014,0.0705 0.10857,-0.076 0.1232,0.0212 0.10868,-0.076 0.11407,-0.10681 -0.0598,-0.20096 0.14651,-0.83092 0.018,-0.0921 0.13037,-0.1991 0.16108,-0.19375 0.0537,-0.30782 0.087,-0.49236 0.0384,-0.21539 0.018,-0.092 -0.0689,-0.32946 0.0212,-0.12318 0.15567,-0.16297 0.11396,-0.10682 0.66432,-0.70789 0.20626,-0.0905 0.34042,-0.13037 0.10681,0.11395 0.18466,0.0318 0.1232,0.0212 0.018,-0.092 0.14661,-0.29149 0.0922,0.018 0.25336,-0.17744 0.21533,0.0384 0.38387,0.16284 0.21531,0.0384 0.0922,0.018 0.21541,0.0384 0.018,-0.092 0.092,0.018 0.10856,-0.0759 0.25345,-0.17742 0.21541,0.0384 0.41633,-0.0218 0.42174,-0.0527 0.12318,0.0212 0.28616,0.17737 0.99925,0.27135 0.0923,0.018 0.12316,0.0211 0.65351,0.43256 0.38387,0.16282 0.26967,0.26967 0.21542,0.0384 0.018,-0.0921 -0.0706,-0.13938 -0.1991,-0.13024 -0.076,-0.10858 0.0211,-0.12318 0.14652,-0.29149 0.26965,-0.26978 0.21729,-0.15208 0.0212,-0.1232 0.21529,0.0384 0.0922,0.018 0.23173,-0.0543 0.0921,0.018 0.12318,0.0211 0.30773,0.0537 0.20103,-0.0597 0.0384,-0.2154 0.23165,-0.0543 0.11396,-0.10683 0.40926,0.19908 0.38375,0.16282 0.21543,0.0384 0.30774,0.0537 0.18485,0.0319 0.21532,0.0384 0.52325,0.0922 0.18468,0.0316 0.4852,-0.23176 0.13028,-0.19917 0.14651,-0.29147 0.64802,-0.61559 0.0384,-0.21536 0.14649,-0.29149 0.018,-0.0921 0.26975,-0.26975 0.50856,-0.54498 0.16108,-0.19371 0.37841,-0.34579 0.13025,-0.19916 0.10858,-0.076 0.13935,-0.0705 0.11409,-0.10679 0.10866,-0.076 0.12319,0.0212 0.092,0.018 0.32402,-0.0379 0.0921,0.018 0.49056,0.27688 0.0922,0.018 0.15565,-0.16295 0.0212,-0.12318 0.2171,-0.15212 0.30791,0.0539 0.29139,0.14648 0.12321,0.0212 -0.018,0.0921 0.14676,0.24798 0.34564,-0.16115 0.13937,-0.0705 0.10866,-0.0759 0.21543,0.0384 0.0921,0.018 0.092,0.018 0.30792,0.0537 0.46886,0.39998 0.0922,0.018 0.19911,0.13026 0.30781,0.0539 0.21542,0.0384 0.092,0.018 0.21534,0.0384 0.3079,0.0539 0.076,0.10857 0.0922,0.018 0.10138,0.14482 0.1522,0.2172 0.13937,-0.0706 0.74576,-0.0906 0.30784,0.0537 0.21543,0.0384 0.26966,0.26968 0.29159,0.14654 0.16283,0.15563 0.21545,0.0384 0.52317,0.0919 0.29157,0.14654 0.47613,0.17911 0.19368,0.16108 0.27519,0.23891 0.36206,0.28596 0.70617,0.85435 0.2915,0.68604 0.1232,0.0212 0.26984,0.26973 0.38377,0.16282 0.0707,0.13939 0.12318,0.0211 -0.018,0.092 0.29139,0.14651 0.0921,0.018 0.2154,0.0384 0.0706,0.13939 -0.018,0.092 0.076,0.10858 -0.0384,0.21536 0.17748,0.25343 0.19921,0.13028 0.47613,0.1791 0.39277,0.29136 0.0761,0.1086 0.19378,0.16109 0.18466,0.0316 0.10682,0.11399 0.41641,-0.0217 0.0384,-0.21538 0.018,-0.0921 0.0921,0.018 0.14482,-0.10139 0.092,0.018 0.0921,0.018 0.018,-0.0921 -0.14677,-0.24799 -0.19909,-0.13026 -0.0543,-0.2317 0.018,-0.092 -0.21559,-0.5775 -0.0689,-0.32944 0.13939,-0.0705 0.34583,-0.16115 -0.10684,-0.11398 -0.0761,-0.10859 -0.28608,-0.17736 0.018,-0.092 -0.17739,-0.25339 0.018,-0.0921 0.19365,-0.37836 0.13024,-0.19918 0.43813,-0.14487 0.12319,0.0211 0.092,0.018 0.092,0.018 0.018,-0.092 0.018,-0.0921 -0.092,-0.018 -0.0163,-0.44714 -0.0363,-0.51411 0.0212,-0.12318 -0.0382,-0.32405 0.12495,-0.16834 0.17739,-0.28605 0.0211,-0.12319 0.20085,-0.0597 0.13937,-0.0706 0.0921,0.018 0.0761,0.10858 0.39276,0.29141 0.36756,0.25518 0.0921,0.018 0.43093,0.0762 0.12477,-0.16838 0.32946,-0.0689 0.36204,0.28594 0.10682,0.11398 0.1305,0.34034 0.0471,0.45254 -0.0705,0.4001 -0.018,0.092 0.0707,0.13938 0.092,0.018 0.23718,-0.0851 -0.0218,-0.41639 0.13033,-0.19914 0.40005,0.0705 0.12319,0.0212 -0.0212,0.12318 -0.018,0.0921 0.0761,0.10857 0.19377,0.16111 0.16826,0.12485 0.36213,-0.25347 0.10682,0.11399 0.10857,0.46339 0.41471,0.16827 0.63723,0.5249 0.45439,-0.23722 0.018,-0.0921 0.23165,-0.0544 0.0212,-0.12319 0.24795,-0.14668 0.20644,-0.0905 0.7549,0.0376 0.30774,0.0536 0.018,-0.092 0.18486,0.0319 0.26963,-0.2698 0.74579,-0.0906 0.44722,-0.0163 0.16829,0.12487 0.018,-0.092 0.5775,-0.21551 0.56122,-0.12317 0.076,0.10859 0.0706,0.13935 0.30798,0.0537 0.23707,-0.0851 1.2093,0.34014 0.42183,-0.0526 0.15566,-0.16294 0.72948,0.002 0.50153,0.21536 0.0921,0.018 0.13026,-0.19917 0.5612,-0.12315 0.092,0.018 -0.0212,0.1232 0.2916,0.14652 0.41448,0.16824 0.092,0.018 0.1775,0.2534 0.0919,0.018 0.10857,-0.0759 0.21543,0.0384 0.0921,0.018 0.10681,0.11399 0.2914,0.14649 0.30792,0.0537 0.10857,-0.0759 0.43812,-0.14486 0.21531,0.0384 0.21534,0.0384 0.40013,0.0705 0.23167,-0.0544 0.56294,-0.31326 0.56126,0.41628 1.01387,0.36918 0.37834,0.19363 0.66976,-0.1992 0.13037,-0.19916 0.16108,-0.19372 0.50301,-1.05365 0.11408,-0.10682 0.16292,-0.3838 -0.076,-0.10856 -0.0544,-0.23173 -0.21533,-0.0384 -0.092,-0.018 -0.793,-0.36197 -0.18291,-0.22262 -0.0164,-0.44715 -0.038,-0.324 -0.16123,-0.34576 -0.30782,-0.0537 -0.0598,-0.20093 -0.10138,-0.14481 -0.0598,-0.20095 -0.0544,-0.23171 -0.32392,0.038 -0.41469,-0.16826 -0.14656,-0.24798 -0.21542,-0.0384 -0.43802,0.14489 -0.84723,-0.0544 -0.32947,0.0689 -0.0319,0.18476 -0.11397,0.10685 -0.53949,-4.2e-4 -0.32403,0.038 -0.19921,-0.13024 -0.26965,-0.26968 -0.38388,-0.16284 -0.13026,0.19915 0.16655,0.8544 0.3459,0.37832 0.37842,0.19366 0.22082,0.54663 0.0471,0.45256 -0.15569,0.16295 -0.13025,0.19916 -0.26963,0.26976 -0.16848,-0.12489 -0.30775,-0.0537 -0.33869,-0.59918 -0.29138,-0.14648 -0.34754,0.89067 -0.13939,0.0706 -0.0919,-0.018 -0.40014,-0.0706 -0.23709,-0.45432 -0.30796,-0.0537 -0.12318,-0.0211 -0.0707,-0.13938 -0.0597,-0.20092 -0.10139,-0.14483 -0.11409,0.10682 -0.32401,0.038 -0.52325,-0.0921 -0.25339,-0.36202 -0.45442,-0.30225 -0.36041,-0.47604 -0.14657,-0.24797 -0.29157,-0.14654 -0.10684,-0.11397 0.0384,-0.21539 0.0384,-0.21535 0.15566,-0.16296 0.13038,-0.19913 0.34573,-0.16117 0.0919,0.018 0.15568,-0.16295 -0.68432,-0.43797 -0.6318,-0.016 -0.092,-0.018 -0.076,-0.10857 -0.17751,-0.25343 -0.0544,-0.23171 -0.0905,-0.20636 -0.16286,-0.15563 -0.54491,0.0308 -0.30785,-0.0537 -0.092,-0.018 -0.1232,-0.0211 -0.25509,0.36755 -0.13937,0.0705 -0.34583,0.16116 -0.092,-0.018 -0.19911,-0.13025 -0.18484,-0.0318 -0.17741,-0.25339 0.018,-0.092 0.0537,-0.30783 -0.0163,-0.44712 0.27137,-0.45986 0.25348,-0.17745 0.5611,-0.12317 0.20102,-0.0597 0.12317,0.0212 0.30775,0.0537 0.0761,0.10859 0.0708,0.1394 0.12318,0.0211 0.22255,-0.1829 0.13939,-0.0707 0.20643,-0.0905 0.15567,-0.16294 0.16824,-0.4146 -0.34586,-0.37829 -0.0906,-1.28527 0.21712,-0.15209 -0.2317,-0.48512 -0.32957,-1.01007 -0.21391,-1.30699 0.37273,-1.39396 0.27687,-1.03008 -0.16119,-0.34573 -0.076,-0.10858 -0.0543,-0.23168 -0.21542,-0.0384 -0.0921,-0.018 -0.23709,0.0851 -0.23167,0.0544 -0.18484,-0.0318 -0.3765,-0.3837 -0.54666,0.22094 -0.61002,0.93959 -0.13028,0.19914 -0.23163,0.0544 -0.40013,-0.0705 -0.21534,-0.0384 -0.40011,-0.0706 -0.076,-0.10859 -0.10682,-0.11398 -0.18487,-0.0318 -0.53938,-4.1e-4 -0.34576,0.16118 -0.018,0.092 -0.092,-0.018 -0.12321,-0.0212 -0.30792,-0.0537 -0.4923,0.45265 -0.41627,0.56123 0.19911,0.13026 -0.0384,0.21537 -0.0705,0.40011 -0.25336,0.17744 -0.10856,0.0759 -0.19922,-0.13024 -0.0707,-0.13941 -0.23711,0.0851 -0.95568,0.5613 -0.36213,-0.28595 -0.2535,-0.36202 -0.1992,-0.13027 -0.26967,-0.26967 -0.0382,-0.32404 -0.076,-0.10858 -0.25338,-0.36202 -0.53951,-4.2e-4 -0.40012,-0.0706 -0.23709,0.0851 -0.70232,0.38388 -0.81632,0.49069 -0.66977,0.19921 -0.54493,0.0308 -0.30783,-0.0537 -0.16121,-0.34574 -0.13029,-0.34028 -0.34041,0.13036 -0.32935,0.0689 -0.21542,-0.0384 -0.21544,-0.0384 -0.0706,-0.1394 -0.27521,-0.23891 -0.0544,-0.2317 -0.23166,0.0544 -0.13024,0.19914 -0.32413,0.038 -0.32935,0.0689 -0.52329,-0.0919 -0.19367,-0.1611 -0.16847,-0.12488 -0.36019,-0.47602 -0.0544,-0.23173 -0.0382,-0.32402 0.0384,-0.21539 0.21732,-0.15207 0.34562,-0.16117 0.018,-0.092 -0.0543,-0.23167 -0.0218,-0.41636 -0.16119,-0.34574 -5.9e-4,-0.5395 -0.0146,-0.63721 0.16287,-1.46268 0.0538,-0.30782 -0.038,-0.32404 0.16281,-0.38381 0.30763,-0.4852 0.39468,-0.43811 0.63891,-0.7441 -0.30794,-0.0537 -0.41629,0.0219 -0.42175,0.0526 -0.48522,0.23177 -0.52497,0.0978 -2.0999,-0.14778 -1.30156,0.18302 -0.32944,0.0689 -0.68607,0.29155 -1.50245,0.78224 -2.20838,1.00681 -0.52497,0.0978 -0.12318,-0.0212 -0.51412,0.0363 -0.95572,0.0219 -0.12318,-0.0211 -0.61551,-0.10846 -0.40013,-0.0706 -0.42185,0.0526 -0.86344,0.0381 -0.63722,0.0145 -0.0921,-0.018 -0.21544,-0.0384 -0.61547,-0.10846 -0.92328,-0.16279 -0.40012,-0.0706 -0.30774,-0.0538 -0.88525,0.16125 -0.57738,0.21552 -0.85453,0.16663 -0.77115,0.0544 -0.78376,0.30605 -0.43269,0.11409 -0.21531,-0.0384 -0.21535,-0.0384 -0.32956,-0.47063 -0.43812,0.14488 -0.51759,0.41644 -3.22569,2.09672 -0.34022,0.13039 -0.45439,0.23721 -0.92313,0.37667 -0.0921,-0.018 -0.30783,-0.0538 -0.21531,-0.0384 -0.23903,0.2752 -0.038,0.21542 -0.17737,0.28603 -0.092,-0.018 -0.50864,0.54494 -0.72403,0.50696 -0.55557,0.6319 -0.18486,-0.0318 -0.1991,-0.13025 0.038,-0.21543 -0.0217,-0.41634 -0.12318,-0.0212 -0.10863,0.0759 -0.038,0.21542 -0.12494,0.16838 -0.21532,-0.0384 -0.18283,-0.22263 0.038,-0.21542 0.038,-0.21542 0.13936,-0.0705 0.13025,-0.19916 0.0326,-0.18464 0.0759,-0.43087 -0.4907,-0.81636 -0.10854,0.076 -0.23718,0.0851 -0.0922,-0.018 -0.10139,-0.14479 -0.34564,0.16116 -0.239017,0.27518 0.145056,0.97756 0.05428,0.2317 0.291491,0.14649 -0.1248,0.70781 -0.038,0.21544 0.0544,0.23171 -0.271582,0.45984 -0.123187,-0.0211 -0.07601,-0.10857 -0.414698,-0.70778 0.01608,-0.0923 -0.07057,-0.13939 -0.307833,-0.0537 -0.307836,-0.0537 -0.421842,0.0527 -0.285922,0.3621 -0.108545,0.076 -0.05431,0.30774 -0.07593,0.43085 -0.447232,0.0163 -0.323921,0.038 -0.400127,-0.0706 -0.09207,-0.018 -0.106828,-0.11398 0.03796,-0.21543 0.01608,-0.0923 -0.146762,-0.24802 -0.291391,-0.14647 -0.215423,-0.0384 -0.231747,0.0543 -0.36747,-0.25517 -0.07067,-0.13939 0.108646,-0.076 -0.0761,-0.10858 -0.08511,-0.23715 -0.114008,-0.43262 -0.08511,-0.23713 -0.269866,-0.26971 -0.599236,-0.20079 -0.184655,-0.0318 -0.253461,0.17743 -0.248038,0.14668 -0.653488,0.10688 -0.3782,0.34583 -0.222735,0.18286 -0.13937,0.0706 -0.184655,-0.0318 -0.329559,0.0689 -0.615504,-0.10856 -0.555691,0.0924 -1.069799,0.1287 -1.046471,-0.18442 -0.783786,-0.23337 -0.291587,-0.14651 0.02178,-0.12309 -0.123186,-0.0212 -0.151995,-0.21718 -0.123189,-0.0211 -0.05438,-0.2317 -0.09217,-0.018 0.03795,-0.21545 0.01608,-0.0924 0.01607,-0.0923 0.206456,-0.0905 0.01609,-0.0924 0.01607,-0.0923 -0.07067,-0.13939 -0.237208,-0.45433 0.269642,-0.26978 -0.06883,-0.32944 -0.400033,-0.0705 -0.05438,-0.23172 -0.637215,0.0145 -0.19367,-0.16107 -0.275194,-0.23891 -0.03811,-0.32404 0.02179,-0.1231 0.01609,-0.0924 -0.123189,-0.0211 -0.38376,-0.16281 -0.193769,-0.16111 -0.05971,-0.20091 -0.23178,-0.48513 -0.0598,-0.20093 0.03796,-0.21544 0.01609,-0.0924 -0.123188,-0.0211 -0.07057,-0.13935 -0.275196,-0.23892 -0.07067,-0.1394 -0.199111,-0.13023 -0.269765,-0.2697 -0.161209,-0.34577 -0.09773,-0.52493 -0.03084,-0.54487 -0.05439,-0.23174 0.01608,-0.0923 -0.29149,-0.14651 0.02178,-0.12308 -0.09207,-0.018 -0.253584,-0.36204 -0.09054,-0.20635 -0.184663,-0.0317 -0.215422,-0.0384 -0.215426,-0.0384 -0.162847,-0.15563 0.01609,-0.0924 0.01607,-0.0923 -0.06883,-0.32945 -0.07067,-0.13938 -0.215426,-0.0384 -0.02178,0.12309 0.09054,0.20634 -0.144808,0.10141 -0.416313,0.0219 -0.215425,-0.0384 -0.07602,-0.10858 -0.07057,-0.13937 -0.06883,-0.32946 0.01609,-0.0924 -0.02184,-0.41635 -0.09216,-0.018 -0.247937,0.14666 -0.215324,-0.0384 -0.168474,-0.12489 -0.106829,-0.11398 0.144807,-0.1014 0.01607,-0.0923 -0.123189,-0.0212 -0.09207,-0.018 -0.215323,-0.0384 -0.362144,-0.28597 0.01608,-0.0923 -0.23166,0.0544 -0.345836,0.16113 -0.599232,-0.2008 -0.26967,-0.26968 -0.146766,-0.24798 -0.307736,-0.0537 -0.85268,-0.0239 -0.324021,0.038 -0.108534,0.0759 -0.123187,-0.0212 -0.307935,-0.0537 -0.09207,-0.018 -0.523264,-0.092 -0.184654,-0.0318 -0.39839,-0.26065 -0.307738,-0.0537 -0.432684,0.11407 -0.438113,0.1449 -0.669772,0.1992 -0.307733,-0.0537 -0.177492,-0.25342 -0.05981,-0.20093 0.745742,-0.63009 0.108646,-0.076 0.162919,-0.38379 0.144809,-0.1014 -0.215425,-0.0384 0.01609,-0.0924 -0.231746,0.0543 -0.222536,0.18287 -0.253461,0.17743 -0.340312,0.13037 -0.800032,0.39839 -0.231745,0.0543 -0.269741,0.26975 -0.02179,0.12309 -0.217112,0.15211 -0.23718,0.0851 -0.269741,0.26976 -0.217113,0.15211 -0.539482,0.53952 -0.238816,0.2752 -0.144807,0.10141 -0.108634,0.0759 -0.215425,-0.0384 -0.09207,-0.018 -0.09207,-0.018 -0.01609,0.0924 -0.02179,0.12306 -0.01609,0.0924 -0.03795,0.21544 -0.664317,0.70789 -0.400004,0.46891 -0.03796,0.21543 -0.215423,-0.0384 -0.323926,0.038 -0.0381,-0.32403 -0.05438,-0.23172 -0.22083,-0.54665 0.02179,-0.12308 0.01608,-0.0923 0.07055,-0.40008 0.02179,-0.12309 0.07056,-0.40008 -0.05257,-0.42177 0.02179,-0.1231 0.139382,-0.0707 0.363625,-0.98301 0.03796,-0.21544 0.03796,-0.21544 0.01609,-0.0924 0.01608,-0.0923 0.146512,-0.83093 0.215423,0.0384 0.324024,-0.0381 0.113984,-0.10683 0.139372,-0.0706 0.432662,-0.65354 0.113986,-0.10682 0.01609,-0.0924 0.09207,0.018 0.03796,-0.21546 0.231629,-0.59378 0.03265,-0.18464 0.146642,-0.29148 -0.0381,-0.32403 0.130354,-0.19913 0.01609,-0.0924 0.09217,0.018 0.847139,-0.48528 0.276802,-0.49064 0.01607,-0.0923 -0.05428,-0.23169 0.01609,-0.0924 0.130258,-0.19916 0.161086,-0.19372 0.201024,-0.0597 0.199107,0.13025 0.07057,0.13938 -0.01607,0.0923 0.231747,-0.0543 0.14664,-0.29148 -0.09216,-0.018 -0.07067,-0.13938 -0.09054,-0.20636 0.05432,-0.30776 0.02179,-0.12308 0.07056,-0.40008 0.177365,-0.28605 0.362116,-0.25348 0.108535,-0.0759 0.199103,0.13026 0.669774,-0.19925 0.617214,-0.621 0.307725,-0.48518 0.108634,-0.0759 0.237081,-0.0851 0.524935,-0.63727 0.269645,-0.26978 0.108544,-0.076 0.669769,-0.19923 0.615478,-0.43091 0.362018,-0.2535 0.231748,-0.0543 0.184655,0.0318 0.144808,-0.1014 0.03265,-0.18464 0.02178,-0.12309 -0.182818,-0.22262 -0.09207,-0.018 -0.177487,-0.25342 -0.0761,-0.1086 0.03796,-0.21542 0.146639,-0.29147 0.345736,-0.16114 1.069899,-0.12868 0.523164,0.092 0.215425,0.0384 0.162845,0.15565 0.199207,0.13026 0.215426,0.0384 0.361919,-0.25351 0.653491,-0.10692 0.124937,-0.16836 0.09217,0.018 0.237082,-0.0851 0.37842,0.19367 0.14481,-0.10142 0.01609,-0.0924 -0.05268,-0.96125 -0.269769,-0.26968 -0.490667,-0.27692 -0.868895,-0.47053 z"
       id="path4157"
       inkscape:connector-curvature="0" />
    <path
       style="font-style:normal;font-weight:400;font-size:34.375px;font-family:'MS Shell Dlg 2';opacity:1;fill:none;fill-opacity:1;fill-rule:evenodd;stroke:#000000;stroke-width:0.33333385;stroke-linecap:square;stroke-linejoin:bevel;stroke-miterlimit:4;stroke-dasharray:none;stroke-opacity:1"
       d="m 140.07275,483.78104 -0.11397,0.10683 -0.016,0.63177 0.18292,0.22268 0.21543,0.0384 0.0706,0.13938 0.2535,0.36201 0.36746,0.25519 -0.0384,0.21539 0.12317,0.0211 -0.018,0.092 0.0707,0.13939 0.0761,0.10857 0.50683,0.18461 0.17752,0.25344 0.50696,0.72403 0.26966,0.26967 0.0598,0.20094 0.17749,0.25342 0.2914,0.1465 0.32412,-0.038 0.2914,0.14649 0.41638,-0.0217 0.29148,0.14649 0.21542,0.0384 0.21713,-0.15209 0.0384,-0.21536 0.3784,-0.34581 0.0537,-0.30781 0.29135,-0.3929 -0.89069,-0.34744 -0.16121,-0.34574 -0.16284,-0.15565 -0.0384,0.21538 -0.16108,0.19371 -0.092,-0.018 -1.19303,-0.43247 -0.38375,-0.1628 -0.53952,-4.2e-4 -0.79288,-0.36193 -0.0921,-0.018 -0.0761,-0.10858 -0.32222,-0.69147 -0.0382,-0.32404 -0.34576,-0.3783 -0.10684,-0.11397 -0.28614,-0.17739 z"
       id="path4155"
       inkscape:connector-curvature="0" />
    <path
       style="font-style:normal;font-weight:400;font-size:34.375px;font-family:'MS Shell Dlg 2';opacity:1;fill:none;fill-opacity:1;fill-rule:evenodd;stroke:#000000;stroke-width:0.33333385;stroke-linecap:square;stroke-linejoin:bevel;stroke-miterlimit:4;stroke-dasharray:none;stroke-opacity:1"
       d="m 138.31537,486.54919 -0.22252,0.18288 -0.1232,-0.0212 -0.37841,-0.19366 -0.0921,-0.018 -0.14478,0.10139 -0.21733,0.15209 -0.0211,0.12318 0.0922,0.018 0.1992,0.13027 -0.018,0.092 -0.0384,0.21538 -0.17736,0.28604 -0.20103,0.0597 -0.14481,0.10141 -0.63179,-0.016 -0.30772,-0.0537 -0.0921,-0.018 -0.0761,-0.10859 -0.86346,0.0381 -0.29147,-0.1465 -0.29148,-0.14651 -1.1713,-0.0165 -0.18467,-0.0318 -0.14478,0.10139 0.1991,0.13024 0.0919,0.018 0.21547,0.0384 0.0921,0.018 0.2914,0.14648 0.19376,0.16111 0.19921,0.13026 0.14658,0.24796 -0.0319,0.18478 -0.0539,0.30779 -0.53028,0.66804 -0.018,0.0921 -0.0921,-0.018 -0.37823,0.34584 -0.0537,0.30783 -0.1448,0.10139 -0.12498,0.16838 -0.092,-0.018 -0.48503,0.2318 -0.43812,0.14487 -0.26962,0.26977 0.10683,0.11398 -0.0212,0.12317 -0.13939,0.0707 -0.277,0.49061 -0.3022,0.45443 -0.14652,0.29147 -0.0212,0.1232 0.006,0.50868 0.038,0.32403 0.13952,0.46884 -0.018,0.0922 0.16122,0.34572 0.114,0.43262 0.16121,0.34574 -0.0211,0.1232 0.3295,0.4706 0.26985,0.26973 0.27509,0.23888 0.10141,0.14481 0.092,0.018 0.38378,0.16281 0.41469,0.16826 0.0919,0.018 0.018,-0.0921 0.10857,-0.0759 0.2154,0.0384 1.01556,0.17908 0.10683,0.114 0.0761,0.10858 -0.0212,0.12317 -0.018,0.0921 -0.018,0.0921 -0.0537,0.30782 -0.4543,0.23721 -0.36213,0.25348 -0.12317,-0.0211 -0.20627,0.0906 -0.21542,-0.0384 -0.23175,0.0543 -0.438,0.14489 -0.24804,0.14668 -0.18465,-0.0318 -0.21544,-0.0384 -0.83098,-0.14653 -0.94484,-0.04 -0.54667,0.22097 -0.23176,0.0543 -0.30784,-0.0537 -0.25337,0.17745 -0.21729,0.15207 -0.26964,0.26978 -0.36203,0.25349 -0.0384,0.21537 -0.25347,0.17745 -0.10857,0.0759 -0.32403,0.038 -0.0922,-0.018 -0.32936,0.0689 -0.15568,0.16294 -0.11406,0.10681 -0.26976,0.26976 -0.36192,0.25352 -0.37838,0.34577 -0.27134,0.99933 -0.0376,0.75487 0.0363,0.51414 0.14674,0.248 0.0363,1.05357 0.0163,0.44711 0.10684,0.11398 -0.018,0.0921 0.0706,0.13937 0.0744,0.83815 -0.092,0.52324 -0.19365,0.37835 -0.0384,0.21537 -0.002,0.72955 -0.0212,0.12319 0.005,0.50866 -0.0384,0.21538 -0.21707,1.23101 -0.0384,0.21536 -0.0538,0.30784 -0.17911,0.47613 -0.16108,0.19373 -0.018,0.092 -0.0922,-0.018 -0.0211,0.1232 -0.018,0.092 -0.0384,0.21539 -0.018,0.092 -0.018,0.0921 -0.30772,0.48517 -0.018,0.0921 -0.26052,0.3983 -0.17738,0.28604 -0.0538,0.30783 -0.23902,0.27518 -0.13936,0.0706 -0.22253,0.18286 -0.13938,0.0706 -0.18462,0.50689 0.0921,0.018 -0.018,0.092 0.0851,0.23716 -0.018,0.092 -0.018,0.0921 -0.1232,-0.0212 -0.27699,0.49059 -0.13937,0.0706 -0.092,-0.018 -0.0921,-0.018 -0.30796,-0.0537 -0.29136,-0.14649 -0.10684,-0.11399 0.0211,-0.12318 0.0318,-0.18477 0.0212,-0.12317 0.19363,-0.37838 0.0384,-0.21536 -0.0526,-0.42181 0.16109,-0.19372 0.27136,-0.45985 0.14482,-0.1014 0.10866,-0.0759 0.25347,-0.17743 0.20083,-0.0597 0.0384,-0.21538 0.17737,-0.28605 0.17911,-1.01558 -0.10684,-0.11397 0.0211,-0.12316 -0.0217,-0.41637 0.0538,-0.30783 0.0919,-0.52322 0.23165,-0.0543 0.10866,-0.0759 0.0212,-0.12319 -0.0219,-0.41638 -0.16113,-0.3457 -0.32401,0.038 -0.49227,0.45265 -0.0384,0.21539 -0.018,0.0921 -0.018,0.092 -0.10856,0.61552 -0.17737,0.28605 -0.1466,0.29146 -0.14661,0.29147 -0.1448,0.10141 -0.1465,0.29148 0.076,0.10856 0.13937,-0.0706 0.40015,0.0705 0.076,0.10856 -0.018,0.0921 -0.0384,0.21536 -0.018,0.0921 -0.11397,0.10685 -0.10858,0.076 -0.324,0.57751 -0.20091,0.59923 -0.13939,0.0707 -0.0538,0.30784 -0.092,-0.018 -0.13023,0.7386 -0.018,0.0921 -0.0384,0.21539 -0.018,0.0921 -0.10856,0.0759 -0.12318,-0.0212 -0.0211,0.12319 -0.0922,-0.018 -0.0923,-0.018 -0.12318,-0.0212 -0.092,-0.018 -0.092,-0.018 0.0211,-0.12318 -0.12318,-0.0212 -0.0761,-0.10859 0.018,-0.092 0.0537,-0.30783 -0.0707,-0.1394 -0.0526,-0.42179 -0.0543,-0.23169 0.018,-0.0921 -0.16111,-0.34574 -0.0219,-0.41634 0.0211,-0.12321 0.0536,-0.30784 0.0537,-0.30784 0.0317,-0.18476 0.0211,-0.12318 0.12498,-0.16835 0.26963,-0.80924 0.10858,-0.076 0.32944,-0.0689 0.018,-0.0921 0.016,-0.63177 -0.0146,-0.63723 4.1e-4,-0.53942 -0.092,-0.018 -0.10684,-0.11397 -0.14677,-0.24802 0.21732,-0.15206 0.0212,-0.12318 0.12317,0.0212 0.018,-0.092 0.018,-0.0921 0.0212,-0.12318 0.0705,-0.40009 0.438,-0.14488 0.0706,0.13936 0.14481,-0.10139 -0.0526,-0.42178 -0.14678,-0.24801 -0.1991,-0.13024 -0.3767,-0.92319 -0.152,-0.21721 -0.0471,-0.45256 0.0317,-0.18475 0.17737,-0.28607 0.11399,-0.10682 0.10856,-0.076 0.34585,-0.16114 0.12317,0.0211 -0.0211,0.1232 0.0922,0.018 0.0211,-0.1232 0.018,-0.092 0.26962,-0.26977 0.22275,-0.18283 0.13936,-0.0705 0.14652,-0.29146 -0.3079,-0.59374 -0.21532,-0.0384 -0.14649,0.29149 -0.16111,0.19372 -0.37839,0.34579 -0.11399,0.10683 -0.30783,-0.0537 -0.0921,-0.018 0.0211,-0.12318 -0.19909,-0.13025 -0.30764,0.48519 -0.44895,0.74588 -0.33106,0.7984 -0.0537,0.30782 -0.0538,0.30783 -0.17736,0.28602 -0.10867,0.076 -0.0212,0.12317 -0.37835,0.34583 -0.57748,0.2155 -0.13026,0.19916 -0.23336,0.78384 -0.25345,0.17745 -0.0706,0.40008 -0.092,0.52324 -0.018,0.0919 -0.45428,0.77666 -0.10854,0.0759 -0.14484,0.1014 -0.43266,0.11408 -0.32948,0.0689 -0.32401,0.038 -0.076,-0.10859 -0.12315,-0.0212 -0.23191,-0.48515 -0.0761,-0.10857 -0.38385,-0.16284 -0.32393,0.038 -0.12318,-0.0212 -0.018,0.092 -0.14657,0.29147 -0.14662,0.29145 -0.0212,0.12321 -0.13937,0.0705 -0.13025,0.19915 -0.16285,0.38383 -0.17736,0.28604 -0.22271,0.18287 -0.30773,-0.0538 -0.21544,-0.0384 -0.19376,-0.16109 -0.152,-0.21719 -0.46351,0.10867 -0.11396,0.10683 -0.0537,0.30783 -0.0537,0.30784 0.005,0.50867 -0.0212,0.1232 0.0907,0.74581 0.0382,0.32404 -0.018,0.092 -0.18459,0.5069 -0.0333,0.72407 0.0851,0.23713 -0.17736,0.28606 -0.1466,0.29146 -0.0384,0.21538 -0.36201,0.25349 -0.24793,0.14667 -0.0921,-0.018 -0.6372,0.0146 -0.0922,-0.018 -0.24793,0.14668 -0.57749,0.2155 -0.54666,0.22093 -0.12319,-0.0212 -0.34564,0.16118 -0.0384,0.21534 -0.0921,-0.018 -0.018,0.0921 -0.018,0.0921 0.0381,0.32406 -0.0539,0.3078 -0.0384,0.21538 0.0851,0.23711 0.076,0.10858 0.076,0.10857 0.0689,0.32947 0.23185,0.48514 -0.018,0.0921 0.0761,0.10861 -0.0212,0.12319 0.0761,0.10857 -0.018,0.0921 0.10139,0.14481 -0.016,0.6318 0.006,0.50869 -0.23889,0.81465 -0.0921,0.52322 -0.14659,0.29147 -0.0317,0.18476 -0.0762,0.4308 -0.018,0.092 -0.018,0.0922 -0.0384,0.21538 -0.018,0.0921 0.0921,0.018 0.0382,0.32403 -0.0212,0.12321 -0.018,0.0919 -0.018,0.0921 -0.0384,0.21537 -0.092,0.52322 -0.21707,1.231 -0.0538,0.30783 -0.68777,1.02107 -0.19907,0.40915 -0.1466,0.29148 -0.018,0.0922 -0.18462,0.5069 -0.37819,0.34582 -0.0705,0.40006 -0.0384,0.21538 -0.32399,0.57753 -0.30772,0.48518 -0.16282,0.3838 -0.32392,0.57755 -0.30957,0.67523 -0.0212,0.12319 -0.26965,0.26979 -0.26965,0.26979 -0.018,0.0919 -0.0921,-0.018 -0.49228,0.45266 -0.34041,0.13035 -0.1611,0.19372 -0.2388,0.27523 -0.0539,0.30781 -0.0384,0.21541 0.0219,0.41633 0.092,0.018 -0.018,0.092 0.0851,0.23709 0.0921,0.018 -0.018,0.092 0.32403,0.5015 0.12139,0.21167 8.434,0.21793 0.0989,-5.05965 4.29939,0.0918 0.33356,-9.80988 30.47404,0.29627 8.56619,-0.17137 11.78288,-0.23878 0.0101,-0.0616 0.10856,-0.6155 0.018,-0.092 0.0384,-0.21539 -0.076,-0.10856 -0.038,-0.32403 -0.10694,-0.6535 0.018,-0.0921 0.0212,-0.12317 0.018,-0.0921 0.018,-0.0921 -0.0545,-0.23171 0.20094,-0.59922 0.16292,-0.38381 0.16107,-0.19371 0.0384,-0.21537 0.018,-0.0921 0.12482,-0.70783 0.0212,-0.12317 0.018,-0.0921 0.0537,-0.30786 0.0384,-0.21537 -0.10684,-0.11396 -0.0761,-0.10859 -0.092,-0.018 -0.10139,-0.1448 0.018,-0.0921 -0.11401,-0.4326 -0.0851,-0.23715 0.018,-0.092 -0.0164,-0.44717 0.0318,-0.18474 -0.0164,-0.44716 -0.0362,-0.5141 -0.0543,-0.23169 0.0384,-0.21537 -0.19911,-0.13026 -0.14677,-0.248 -0.0689,-0.32946 -0.076,-0.10858 0.016,-0.63179 -0.61551,-0.10856 -0.8691,-0.47057 -0.10681,-0.114 -0.1303,-0.34029 -0.28614,-0.17736 -0.12317,-0.0211 -0.16829,-0.12485 0.018,-0.0921 -0.10139,-0.14481 -0.0598,-0.20093 -0.0707,-0.1394 0.0318,-0.18476 -0.0851,-0.23711 0.018,-0.0921 -0.038,-0.32402 -0.0544,-0.23169 0.23884,-0.27524 0.16108,-0.19371 0.018,-0.092 -0.12319,-0.0212 -0.2914,-0.14649 -0.038,-0.32402 -0.0707,-0.13938 0.018,-0.0921 0.13035,-0.19914 0.018,-0.0921 0.0384,-0.21537 0.24802,-0.14666 0.11398,-0.10683 0.23165,-0.0543 0.34585,-0.16114 0.0919,0.018 0.30784,0.0537 0.19378,0.1611 0.15201,0.21721 0.39295,0.29142 0.78378,0.23333 0.28614,0.17739 0.30775,0.0537 0.1448,-0.1014 -0.16111,-0.34573 -0.076,-0.10857 -0.12318,-0.0212 -0.23732,-0.45437 0.0384,-0.21536 -0.21543,-0.57745 -0.15218,-0.21723 -0.16114,-0.88515 -0.0851,-0.23716 0.018,-0.0922 -0.38389,-0.16283 -0.16109,-0.34571 -0.0921,-0.018 -0.21539,-0.0384 -0.0706,-0.13936 -0.0597,-0.20092 0.0384,-0.21537 -0.12319,-0.0212 -0.2156,-0.57746 -0.0921,-0.018 0.018,-0.0921 -0.0761,-0.10858 -0.10139,-0.14481 -0.0761,-0.10858 -0.1775,-0.25342 -0.13028,-0.34028 0.0318,-0.18478 0.20626,-0.0905 0.24805,-0.14665 0.16833,-0.41458 -0.0761,-0.10859 -0.0761,-0.10859 -0.21529,-0.0384 -0.0921,-0.018 -0.39297,-0.29143 -0.0543,-0.2317 -0.1991,-0.13026 -0.29159,-0.14649 -0.0543,-0.23172 -0.34584,-0.37829 -0.16114,-0.34573 -0.076,-0.10859 -0.17747,-0.25339 -0.21543,-0.0384 -0.23883,0.2752 -0.12319,-0.0211 -0.36213,-0.28598 -0.21533,-0.0384 -0.0384,0.21536 -0.018,0.0922 -0.18484,-0.0318 -0.23709,0.0851 -0.52325,-0.0921 -0.092,-0.018 -0.48526,-0.30769 -0.29138,-0.14648 -0.0707,-0.13938 -0.092,-0.018 -0.39821,-0.2606 -0.16302,-0.15567 -0.1232,-0.0211 -0.29139,-0.14649 -0.0761,-0.10859 -0.46887,-0.40001 -0.20102,0.0597 -0.23167,0.0544 -0.21531,-0.0384 -0.092,-0.018 -0.19922,-0.13026 -0.3239,0.038 -0.40014,-0.0706 -0.076,-0.10857 -0.1232,-0.0212 -0.0761,-0.10859 -0.0921,-0.018 -0.19368,-0.1611 -0.092,-0.018 0.018,-0.092 -0.12321,-0.0211 -0.0761,-0.10857 -0.19375,-0.16111 -0.4056,-0.57921 -0.53953,-0.53941 -0.1232,-0.0211 -0.30772,-0.0537 -0.18486,-0.0319 -0.52317,-0.0919 -0.32947,0.0689 -0.32404,0.038 -0.30782,-0.0537 -0.0919,-0.018 -0.21543,-0.0384 -0.21543,-0.0384 -0.018,0.0921 -0.34564,0.16119 -0.30795,-0.0537 -0.092,-0.018 -0.38386,-0.16283 -0.19368,-0.1611 -0.076,-0.10855 -0.10684,-0.11399 -0.0707,-0.13939 -0.0598,-0.20093 -0.13941,-0.46886 0.018,-0.092 -0.0217,-0.41637 0.0212,-0.12315 -0.18293,-0.22266 -0.0707,-0.1394 -0.39819,-0.26061 -0.0545,-0.23173 -0.36204,-0.28595 0.018,-0.092 -0.3604,-0.47607 -0.16285,-0.15565 -0.1829,-0.22263 -0.30788,-0.0537 -0.83086,-0.14642 -0.16304,-0.15567 -0.19913,-0.13025 -0.29145,-0.14651 -0.50145,-0.21535 -0.34583,0.16116 -0.53039,0.12859 -0.12319,-0.0211 -0.18465,-0.0318 -0.19377,-0.16111 -0.2915,-0.14651 -0.23164,0.0543 -0.20644,0.0905 -0.0539,0.30782 -0.23167,0.0543 -0.21531,-0.0384 -0.0921,-0.018 -0.26977,-0.26968 -0.0922,-0.018 -0.1992,-0.13027 -0.092,-0.018 -0.10685,-0.11398 -0.28594,-0.17734 -0.16846,-0.1249 -0.19912,-0.13023 -0.19368,-0.16109 -0.076,-0.10857 -0.0761,-0.1086 -0.40905,-0.19905 -0.45985,-0.27148 -0.12317,-0.0211 -0.0708,-0.1394 -0.0921,-0.018 -0.56125,-0.4163 -0.30774,-0.0537 -0.41468,-0.16827 -0.076,-0.10857 0.0211,-0.12318 -0.67522,-0.30947 -0.0689,-0.32946 -0.0707,-0.13938 -0.0761,-0.10859 -0.12319,-0.0212 z"
       id="path4153"
       inkscape:connector-curvature="0" />
    <path
       style="font-style:normal;font-weight:400;font-size:34.375px;font-family:'MS Shell Dlg 2';opacity:1;fill:none;fill-opacity:1;fill-rule:evenodd;stroke:#000000;stroke-width:0.33333385;stroke-linecap:square;stroke-linejoin:bevel;stroke-miterlimit:4;stroke-dasharray:none;stroke-opacity:1"
       d="m 123.05317,487.44378 -0.34564,0.16115 -0.21543,-0.0384 -0.21542,-0.0384 -0.0761,-0.10856 -0.30783,-0.0537 -0.0922,-0.018 0.0599,0.20092 -0.0384,0.21538 0.0382,0.32404 -0.10856,0.61551 -0.23903,0.27517 -0.13936,0.0705 -0.23882,0.27522 -0.0384,0.21538 -0.10856,0.61549 0.0381,0.32402 0.0543,0.23171 -0.12488,0.16838 -0.14649,0.29146 -0.25334,0.71692 0.1611,0.34571 0.076,0.1086 1.12248,0.29307 0.43266,-0.11411 0.14481,-0.10138 0.0539,-0.30783 0.018,-0.0919 0.18464,0.0318 0.23177,-0.0543 0.3077,-0.48517 0.14651,-0.29149 -0.0688,-0.86892 -0.25357,-0.36204 -0.076,-0.10857 -0.038,-0.32403 0.0539,-0.3078 0.22253,-0.18288 -0.0596,-0.20092 4.1e-4,-0.53943 -0.17748,-0.25342 -0.0921,-0.018 -0.19911,-0.13026 0.0384,-0.21538 0.10857,-0.0759 0.12316,0.0211 -0.018,0.092 0.0922,0.018 0.10867,-0.0759 -0.0544,-0.23172 -0.092,-0.018 z"
       id="path4151"
       inkscape:connector-curvature="0" />
    <path
       style="font-style:normal;font-weight:400;font-size:34.375px;font-family:'MS Shell Dlg 2';opacity:1;fill:none;fill-opacity:1;fill-rule:evenodd;stroke:#000000;stroke-width:0.33333385;stroke-linecap:square;stroke-linejoin:bevel;stroke-miterlimit:4;stroke-dasharray:none;stroke-opacity:1"
       d="m 112.05101,504.13051 -0.13037,0.19913 -0.1629,0.38381 0.14506,0.97754 -0.018,0.092 0.16287,0.15565 0.27529,0.23893 0.35478,0.50681 0.0598,0.20093 0.37833,0.19364 0.34583,-0.16114 0.0538,-0.30782 -0.14675,-0.24801 0.0317,-0.18476 0.007,-0.7603 0.15566,-0.16295 -0.0471,-0.45257 -0.25338,-0.36197 -0.0761,-0.1086 -0.21543,-0.0384 -0.6155,-0.10856 -0.18465,-0.0319 -0.12318,-0.0211 z"
       id="path4149"
       inkscape:connector-curvature="0" />
    <path
       style="font-style:normal;font-weight:400;font-size:34.375px;font-family:'MS Shell Dlg 2';opacity:1;fill:none;fill-opacity:1;fill-rule:evenodd;stroke:#000000;stroke-width:0.33333385;stroke-linecap:square;stroke-linejoin:bevel;stroke-miterlimit:4;stroke-dasharray:none;stroke-opacity:1"
       d="m 110.67011,507.28236 -0.34021,0.1304 -0.1448,0.10139 -0.20092,0.59923 -0.12497,0.16834 0.0544,0.23173 0.38375,0.16281 0.44723,-0.0163 0.4543,-0.23721 -0.1775,-0.25341 -0.0596,-0.20092 0.0212,-0.12318 0.10858,-0.076 0.12317,0.0211 0.18487,0.0318 -0.25359,-0.36202 -0.47614,-0.1791 z"
       id="MI-01"
       inkscape:connector-curvature="0" />
    <path
       inkscape:connector-curvature="0"
       d="m 107.88947,571.46211 8.48653,0.10023 -0.0546,-2.3896 5.03431,0.0627 -0.12169,-2.36962 c -0.11287,-0.005 -0.26648,-0.0676 -0.40001,-0.0705 -0.13361,-0.002 -0.24409,0.0327 -0.20265,0.24981 0.0587,0.43703 -0.47418,0.47019 -0.61363,0.78031 0.0228,0.27775 -0.11247,0.39578 -0.29147,0.39294 -0.17886,-0.002 -0.38332,-0.11812 -0.49055,-0.277 0.0477,-0.22419 -0.078,-0.34659 -0.24265,-0.42354 -0.16465,-0.0768 -0.37461,-0.12714 -0.45985,-0.27139 2.6e-4,-0.18673 -0.0405,-0.34223 -0.14484,-0.4381 -0.10443,-0.0958 -0.27562,-0.13279 -0.47251,-0.0195 -0.18305,0.0901 -0.29571,0.0611 -0.344,-0.029 -0.0483,-0.09 -0.0374,-0.23274 0.0353,-0.37467 0.10953,-0.2193 0.0468,-0.35848 -0.0778,-0.45786 -0.12513,-0.0995 -0.30152,-0.15929 -0.42909,-0.26616 -0.0514,-0.1168 -0.0797,-0.35749 -0.0308,-0.54485 0.0489,-0.18735 0.17532,-0.32051 0.38741,-0.21722 0.35489,0.11005 0.72933,0.23755 1.10249,0.22606 0.14269,-0.26922 0.16447,-0.66453 0.35821,-0.95228 l -2.65023,-0.0866 0.0388,-7.4185 4.68499,0.0646 0.16317,-24.50013 -5.37829,-0.0919 0,0 -4.2994,-0.0917 -0.0989,5.05965 -8.434,-0.21793 0.11594,0.24264 0.16112,0.34572 -0.018,0.0921 0.038,0.32412 0.10139,0.14479 -0.018,0.0921 0.0544,0.23165 0.10696,0.65351 0.005,0.50867 0.0543,0.23175 0.26818,0.99924 0.0218,0.4164 -0.016,0.63179 -0.0212,0.1232 -0.12482,0.70777 -0.16282,0.38386 -0.0212,0.12318 -0.34018,0.66982 -0.018,0.0921 -0.23905,0.27527 -0.17734,0.28596 -0.53026,0.66807 -0.43257,0.65362 -0.18452,0.50685 -0.018,0.0922 -0.0384,0.21542 -0.018,0.092 -0.018,0.0921 -0.0211,0.12319 -0.018,0.0921 0.0219,0.41632 0.19923,0.66977 0.0708,0.1394 0.16109,0.34583 0.2372,0.45431 0.0545,0.23172 0.0905,0.20629 0.36219,0.82542 -0.018,0.0922 0.2371,0.45429 -0.0212,0.12317 0.0905,0.20649 0.0382,0.32394 0.0382,0.32412 0.16112,0.34562 0.12312,0.56122 0.0544,0.23166 0.0597,0.20103 -0.0212,0.12318 0.16113,0.34564 -0.018,0.0921 0.14484,0.438 0.0707,0.1394 0.25893,0.8708 -0.0212,0.12317 0.12317,0.0211 0.19933,0.66979 0.22083,0.54664 0.38387,0.70234 0.45274,1.03168 0.37671,0.92324 0.17737,0.25346 0.27533,0.77833 0.16112,0.34572 0.21561,0.57741 0.11401,0.43269 0.17749,0.25335 0.22093,0.54668 -0.0212,0.1232 -0.018,0.0921 0.0543,0.23177 0.0905,0.20624 -0.0384,0.21543 0.14677,0.24807 -0.0318,0.18465 0.16111,0.34583 0.0163,0.44701 0.18304,0.76216 -0.018,0.0921 -0.0212,0.12319 0.12858,0.5304 -4.2e-4,0.53937 0.0526,0.42173 0.0544,0.23179 -0.018,0.0921 -0.0384,0.21533 0.0544,0.23166 -0.018,0.0921 0.0526,0.42175 0.0163,0.44723 -0.0317,0.18466 0.0705,0.13936 -0.087,0.49237 -0.0212,0.12318 -0.018,0.0921 0.0689,0.32946 -0.0384,0.21533 0.0597,0.20102 -0.0536,0.30775 0.0707,0.13938 -0.018,0.0921 -0.0538,0.30782 0.0652,0.1702 z"
       id="MI-02"
       style="font-style:normal;font-weight:400;font-size:34.375px;font-family:'MS Shell Dlg 2';opacity:1;fill:none;fill-opacity:1;fill-rule:evenodd;stroke:#000000;stroke-width:0.33333385;stroke-linecap:square;stroke-linejoin:bevel;stroke-miterlimit:4;stroke-dasharray:none;stroke-opacity:1" />
    <path
       inkscape:connector-curvature="0"
       d="m 135.96132,571.52509 0.009,-9.77181 -7.39309,-0.003 0.0539,-2.4656 -2.48188,0.0384 0.0648,-2.52714 -5.22446,-0.0645 0,0 -4.68499,-0.0646 -0.0388,7.41847 2.65025,0.0866 c -0.19369,0.28774 -0.21547,0.68307 -0.3582,0.95225 -0.37315,0.0114 -0.74755,-0.11636 -1.1025,-0.22602 -0.21209,-0.10322 -0.33851,0.0298 -0.38739,0.21723 -0.0488,0.18735 -0.02,0.42805 0.0308,0.54482 0.12756,0.10697 0.30397,0.16662 0.42909,0.26616 0.12504,0.0994 0.18743,0.23856 0.0779,0.45787 -0.0718,0.142 -0.0825,0.28479 -0.0354,0.37464 0.0483,0.0902 0.16098,0.11912 0.34401,0.029 0.19688,-0.11292 0.36809,-0.076 0.47253,0.0195 0.10433,0.096 0.14559,0.25142 0.14484,0.43813 0.0852,0.14427 0.29521,0.1945 0.45986,0.27136 0.16462,0.077 0.29031,0.19934 0.24264,0.42356 0.10724,0.15886 0.31175,0.27412 0.49055,0.27701 0.17895,0.002 0.31416,-0.11519 0.29147,-0.39297 0.13939,-0.31008 0.67231,-0.34327 0.61361,-0.78029 -0.0414,-0.21721 0.0691,-0.25274 0.20266,-0.24983 0.1336,0.002 0.28715,0.0657 0.40003,0.0705 l 0.12167,2.36962 -5.03431,-0.0627 0.0546,2.38959 4.93661,0.0772 -0.0403,9.7664 5.10129,0.0427 0.0303,9.90574 12.27367,0.0381 -0.22953,-10.0361 -7.39308,-0.003 -0.072,-9.84962 4.97829,0.021 z"
       id="MI-03"
       style="font-style:normal;font-weight:400;font-size:34.375px;font-family:'MS Shell Dlg 2';opacity:1;fill:none;fill-opacity:1;fill-rule:evenodd;stroke:#000000;stroke-width:0.33333385;stroke-linecap:square;stroke-linejoin:bevel;stroke-miterlimit:4;stroke-dasharray:none;stroke-opacity:1" />
    <path
       inkscape:connector-curvature="0"
       d="m 115.77495,532.14022 5.3783,0.0919 -0.16317,24.50013 5.22445,0.0645 -0.0648,2.52714 2.48188,-0.0384 -0.0539,2.46559 7.39309,0.003 -0.009,9.77181 4.85507,-6.7e-4 0,0 5.01442,-0.004 9.15803,-0.28911 -0.37641,-12.44191 4.77366,-0.0785 -0.0677,-4.8352 -2.40944,-0.0124 0.008,2.47647 -4.88057,-0.0356 -0.0526,-1.50074 1.65445,-0.56499 -1.38137,-0.62436 -0.0272,-0.92507 0.56836,-0.34394 0.034,-0.91424 1.70519,0.0468 0.0275,-1.23272 -2.55796,-0.0703 0.0666,-1.0989 -2.40946,-0.0125 -0.0385,-16.69782 5.68792,-0.0442 -0.16431,-9.86593 -8.5662,0.17135 -30.47404,-0.29627 -0.33355,9.80987 z"
       id="MI-04"
       style="font-style:normal;font-weight:400;font-size:34.375px;font-family:'MS Shell Dlg 2';opacity:1;fill:none;fill-opacity:1;fill-rule:evenodd;stroke:#000000;stroke-width:0.33333385;stroke-linecap:square;stroke-linejoin:bevel;stroke-miterlimit:4;stroke-dasharray:none;stroke-opacity:1" />
    <path
       inkscape:connector-curvature="0"
       d="m 166.93158,522.21644 -11.78287,0.23882 0.16429,9.86592 -5.6879,0.0442 0.0385,16.69781 2.40945,0.0124 -0.0666,1.0989 2.55797,0.0703 -0.0275,1.23272 -1.70517,-0.0468 -0.034,0.91423 -0.56836,0.34395 0.0272,0.92506 1.38136,0.62436 -1.65443,0.565 0.0526,1.50073 4.88057,0.0356 -0.008,-2.47649 2.40944,0.0124 0.0677,4.83519 -4.77367,0.0784 0.37641,12.44191 4.82079,-0.1654 -0.21757,-2.54517 5.01619,-0.19448 -0.0143,-0.0977 0,0 -0.24611,-12.10159 -1.25997,0.12683 -0.0581,-0.93041 -0.62637,-0.0468 -0.3476,-0.72771 0.46871,-0.67892 -0.72949,-0.002 -0.24152,-4.92921 -2.29175,0.04 -0.0201,-1.14588 -0.26423,-0.30047 -0.37841,-0.19364 -0.092,-0.018 -0.19921,-0.13029 -0.19922,-0.13026 -0.018,0.0921 -0.018,0.0919 -0.092,-0.018 -0.0921,-0.018 -0.49068,-0.27681 -0.21533,-0.0384 -0.6318,-0.016 -0.0921,-0.018 -0.48516,-0.30763 -0.18485,-0.0318 0.018,-0.0921 -0.29136,-0.14658 -0.28614,-0.17739 -0.39833,-0.80002 -0.23719,-0.4544 -0.19923,-0.66976 -0.0382,-0.32396 -0.12319,-0.0212 0.0384,-0.21541 0.21542,0.0384 0.13035,-0.19914 0.15568,-0.16295 0.0212,-0.1232 0.018,-0.0921 0.0384,-0.21539 0.10855,-0.61549 -0.0526,-0.42179 0.12467,-0.70786 0.0384,-0.21538 0.0164,-1.17125 0.0705,-0.40008 0.0384,-0.21536 0.34039,-0.13038 0.0538,-0.30783 0.0537,-0.30782 0.16823,-0.41461 0.21533,0.0384 0.14661,-0.29151 0.10867,-0.0759 0.018,-0.0921 0.16108,-0.19372 0.34565,-0.16118 0.20101,-0.0597 0.21535,0.0384 0.40011,0.0705 0.21535,0.0384 0.32399,-0.038 0.0921,0.018 0.14482,-0.10139 0.092,0.018 0.018,-0.092 0.74578,-0.0906 0.21541,0.0384 0.32401,-0.038 -0.18294,-0.76211 0.11409,-0.10681 0.018,-0.0921 0.018,-0.092 0.0211,-0.12318 0.26964,-0.26977 0.36201,-0.2535 0.55569,-0.0924 0.40014,0.0705 0.32945,-0.0689 -0.0218,-0.41636 -0.0851,-0.23715 0.0318,-0.18475 0.3077,-0.48519 0.0537,-0.30782 0.0384,-0.21538 0.0318,-0.18476 -0.0163,-0.44713 0.0538,-0.30781 0.0318,-0.18478 0.0538,-0.30783 0.13024,-0.73859 0.0537,-0.30784 -0.0362,-0.51411 0.30771,-0.48517 0.018,-0.0921 0.0212,-0.12319 0.1466,-0.29146 0.3782,-0.34583 0.13937,-0.0705 0.32955,-0.0689 0.0921,0.018 0.32402,-0.038 0.0921,0.018 0.1991,0.13025 0.092,0.018 0.0851,0.23713 0.22273,-0.18284 0.12317,0.0212 0.0538,-0.30782 0.0318,-0.18477 0.13024,-0.19914 0.018,-0.0921 0.23707,-0.0851 0.54122,-0.72961 0.13026,-0.19914 0.30794,0.0537 0.12317,0.0211 0.10858,-0.076 0.11397,-0.10682 0.018,-0.0921 0.018,-0.0921 -0.0163,-0.44714 -0.0379,-0.324 0.0871,-0.49236 0.16825,-0.41459 0.018,-0.0921 -0.076,-0.10856 0.0212,-0.1232 -0.10682,-0.11397 0.0384,-0.21538 -0.0761,-0.10858 0.0705,-0.40007 0.0922,-1.06266 0.018,-0.0919 -0.0526,-0.42181 0.0538,-0.30782 0.0101,-0.0616 z"
       id="MI-05"
       style="font-style:normal;font-weight:400;font-size:34.375px;font-family:'MS Shell Dlg 2';opacity:1;fill:#000000;fill-opacity:1;fill-rule:evenodd;stroke:#000000;stroke-width:0.33333385;stroke-linecap:square;stroke-linejoin:bevel;stroke-miterlimit:4;stroke-dasharray:none;stroke-opacity:1" />
    <path
       inkscape:connector-curvature="0"
       d="m 126.44137,599.96026 -0.0374,-8.60593 0,0 -0.0303,-9.90577 -5.10126,-0.0427 0.0402,-9.76638 -4.93662,-0.0772 0,0 -8.48652,-0.10023 0.0201,0.0669 -0.018,0.0921 0.0218,0.41632 0.0163,0.44722 -0.0538,0.30772 -0.018,0.092 -0.002,0.72958 -0.0538,0.30773 -0.0212,0.12319 -0.018,0.0921 -0.0384,0.21541 -0.018,0.0921 -0.17737,0.28605 -0.0384,0.21544 -0.10855,0.0759 -0.018,0.092 0.12311,0.56122 -4.2e-4,0.5395 -0.018,0.092 -0.018,0.0921 -0.0384,0.21539 -0.18461,0.50686 -0.12469,0.7079 5.9e-4,0.53942 -0.018,0.092 -0.0705,0.40006 -0.10856,0.61547 -0.0212,0.1232 -0.0319,0.18485 -0.22262,0.72232 -0.018,0.0921 -0.0537,0.30784 -0.17737,0.28604 -0.018,0.092 -0.0212,0.12318 -0.25509,0.36759 0.0921,0.018 -0.018,0.0921 -0.0212,0.12321 -0.0318,0.18484 -0.0211,0.12318 -0.14648,0.2914 -0.0705,0.40013 -0.34028,0.66978 -0.2009,0.59921 -0.21537,0.50153 -0.50843,1.0845 -0.12497,0.16825 -0.11407,0.10681 -0.3402,0.66991 -0.10855,0.076 -0.32402,0.5775 -0.11406,0.10681 -0.15565,0.16286 -0.65522,0.83654 -0.41619,0.56125 -0.0212,0.1232 -0.13938,0.0705 -0.13036,0.19908 -0.12497,0.16845 -0.0211,0.12319 -0.15566,0.16285 -0.2008,0.59923 -0.14652,0.29158 -0.0384,0.21533 -0.30774,0.48523 -0.16291,0.38375 -0.30762,0.48516 -0.17909,0.47614 -0.19909,0.40925 -0.0317,0.18466 -0.331261,0.7984 -0.03837,0.2154 -0.193642,0.37834 -0.146509,0.29148 -0.416269,0.56125 -0.01801,0.0921 -0.114081,0.1068 -0.539299,0.53954 -0.124985,0.16847 -0.50855,0.54497 -0.383811,0.37647 -0.247953,0.14676 -0.25334,0.17741 -0.01805,0.0921 -0.362157,0.25357 -0.113967,0.10684 -0.231637,0.0543 -0.23903,0.27519 -0.361924,0.2535 -0.501494,0.32415 -0.454277,0.23711 0.215411,0.0384 0.09197,0.018 0.09206,0.018 0.123188,0.0212 0.4164,-0.0216 0.631762,0.016 0.09209,0.018 0.54495,-0.0308 0.400108,0.0705 0.631816,0.016 0.631794,0.016 0.452463,-0.0472 0.724108,0.0334 0.215434,0.0384 0.416292,-0.0217 0.63722,-0.0146 0.0922,0.018 0.43071,0.0763 0.95594,-0.0219 0.6372,-0.0146 0.18467,0.0318 1.17127,0.0164 0.21533,0.0384 0.20645,-0.0905 0.52316,0.0919 0.0922,0.018 0.13939,-0.0707 0.63178,0.016 0.18467,0.0318 0.21541,0.0384 0.0922,0.018 0.1448,-0.10141 0.0921,0.018 0.092,0.018 0.12318,0.0212 0.0923,0.018 0.10866,-0.0759 0.61551,0.10856 0.23164,-0.0543 1.05362,-0.0364 0.12322,0.0212 0.30771,0.0537 0.96136,-0.0527 0.49237,0.087 0.75489,0.0376 0.10856,-0.0759 0.092,0.018 0.1232,0.0212 0.30794,0.0538 0.6372,-0.0146 0.95574,-0.022 0.18482,0.0319 0.21535,0.0384 0.092,0.018 0.0212,-0.12319 0.52327,0.0919 0.23164,-0.0544 0.61551,0.10856 0.32412,-0.038 0.42172,-0.0526 0.53944,-5.8e-4 0.40014,0.0705 0.0922,0.018 1.269,0.002 0.12321,0.0211 0.10865,-0.076 0.0921,0.018 0.30773,0.0537 0.23176,-0.0543 0.30783,0.0537 1.68541,-0.0202 0.21534,0.0384 0.6372,-0.0146 1.17128,0.0164 0.11397,-0.10681 0.40014,0.0706 0.63181,0.016 0.23165,-0.0544 0.0919,0.018 0.12319,0.0212 0.0922,0.018 0.42173,-0.0526 0.30796,0.0537 0.20082,-0.0598 z"
       id="MI-06"
       style="font-style:normal;font-weight:400;font-size:34.375px;font-family:'MS Shell Dlg 2';opacity:1;fill:none;fill-opacity:1;fill-rule:evenodd;stroke:#000000;stroke-width:0.33333385;stroke-linecap:square;stroke-linejoin:bevel;stroke-miterlimit:4;stroke-dasharray:none;stroke-opacity:1" />
    <path
       inkscape:connector-curvature="0"
       d="m 171.01264,592.11206 -0.45615,-0.11219 -0.85824,-0.53211 -1.1568,-0.99733 -5.27332,0.21253 -0.21764,-2.54515 -4.37895,0.17983 -0.48343,-0.4977 -0.0854,-1.85563 -1.23817,0.004 -0.0963,-2.3334 6.1476,-0.3122 -0.15599,-2.53439 -2.27733,0.13785 0,0 -5.74216,0.35203 -13.85755,0.12677 -0.0665,-9.88033 -4.85507,6.7e-4 0,0 -4.97829,-0.021 0.072,9.84964 7.39308,0.003 0.22953,10.03611 -12.27365,-0.0381 0.0374,8.60594 0.0307,0.009 0.21533,0.0384 0.0921,0.018 0.41631,-0.0218 0.85267,0.0239 0.72412,0.0333 0.44705,-0.0164 0.0921,0.018 1.05351,-0.0363 0.1232,0.0211 0.63177,0.016 0.51413,-0.0363 0.23175,-0.0544 0.21543,0.0384 0.40004,0.0705 0.6318,0.016 0.42174,-0.0526 0.21542,0.0384 0.41629,-0.0217 0.13939,-0.0707 1.57685,0.0558 0.72411,0.0322 0.11398,-0.10684 0.30791,0.0537 -0.0763,0.43091 0.0905,0.20626 -0.0212,0.12318 0.038,0.32412 -0.0705,0.40003 -0.018,0.092 0.0543,0.23166 1.19298,-0.10695 0.84716,0.0544 0.42184,-0.0526 0.41641,-0.0217 2.04017,-0.0528 0.83802,-0.0743 0.44724,-0.0163 0.7295,0.002 0.41641,-0.0217 0.44706,-0.0164 0.72958,0.002 0.092,0.018 0.77117,-0.0543 1.79939,-0.12706 0.95569,-0.0218 0.12319,0.0211 0.18487,0.0318 0.23708,-0.0851 1.2636,0.0323 0.4381,-0.14481 0.12319,0.0211 0.41629,-0.0217 1.83013,-0.12163 0.18485,0.0318 0.86344,-0.0381 1.26899,0.002 0.41645,-0.0219 0.45246,-0.0472 0.10865,-0.0759 0.84724,0.0544 0.6535,-0.10696 0.41633,-0.0219 0.40003,0.0705 0.45266,-0.0471 0.20082,-0.0598 0.1232,0.0212 0.20102,-0.0597 0.21532,0.0384 0.42186,-0.0527 0.32392,-0.0381 0.1232,0.0212 0.0921,0.018 0.10868,-0.0761 0.1232,0.0211 0.0921,0.018 0.23708,-0.0851 0.0921,0.018 0.0921,0.018 0.21533,0.0384 0.23162,-0.0543 0.4164,-0.0217 0.32947,-0.0689 0.40004,0.0705 0.13939,-0.0706 0.4164,-0.0217 0.0921,0.018 0.12318,0.0212 0.092,0.018 0.11409,-0.10682 0.12318,0.0212 0.18468,0.0317 0.12317,0.0212 0.20103,-0.0597 0.13936,-0.0705 0.32937,-0.0689 0.10868,-0.0761 -0.0544,-0.23175 -0.22081,-0.54665 -0.0689,-0.32934 0.0212,-0.12321 -0.076,-0.10868 0.018,-0.0921 0.0384,-0.21534 -0.0544,-0.23165 0.12498,-0.16848 0.0212,-0.12315 0.0921,0.018 0.15564,-0.16284 0.11397,-0.10685 0.23165,-0.0544 0.21723,-0.6916 0.13035,-0.19908 0.17736,-0.28605 0.10857,-0.0761 0.092,0.018 0.10681,0.11408 0.0921,0.018 0.0922,0.018 0.018,-0.0922 0.14482,-0.10138 0.10857,-0.076 0.018,-0.092 0.11399,-0.10687 0.0318,-0.18484 0.0212,-0.12318 0.018,-0.0921 0.0384,-0.21532 0.018,-0.0921 0.0705,-0.40006 0.0212,-0.12318 0.24806,-0.14675 0.0212,-0.12319 0.10867,-0.076 0.13939,-0.0707 0.11399,-0.10682 0.0922,0.018 0.12317,0.0212 0.18486,0.0318 0.12317,0.0211 0.0921,0.018 0.12489,-0.16847 0.1448,-0.10141 -0.0905,-0.20624 0.0384,-0.21543 0.1611,-0.19378 0.10867,-0.0759 0.28603,-0.36214 0.11398,-0.10684 0.21532,0.0384 0.12496,-0.16825 -0.0544,-0.23176 0.41641,-0.0219 0.0212,-0.12317 0.14648,-0.2914 -0.049,-0.26247 z"
       id="MI-07"
       style="font-style:normal;font-weight:400;font-size:34.375px;font-family:'MS Shell Dlg 2';opacity:1;fill:none;fill-opacity:1;fill-rule:evenodd;stroke:#000000;stroke-width:0.33333385;stroke-linecap:square;stroke-linejoin:bevel;stroke-miterlimit:4;stroke-dasharray:none;stroke-opacity:1" />
    <path
       inkscape:connector-curvature="0"
       d="m 154.98884,571.23103 -9.15802,0.28911 -5.01443,0.004 0.0665,9.88033 13.85754,-0.12677 5.74216,-0.35203 -0.53688,-7.39296 9.78264,-0.59155 0.0907,1.82478 0.6372,-0.0146 0.56486,0.57551 1.269,0.002 -0.42278,-7.49996 -7.27354,0.39933 0.0144,0.0977 -5.01618,0.19449 0.21755,2.54515 -4.82078,0.16542 z"
       id="MI-08"
       style="font-style:normal;font-weight:400;font-size:34.375px;font-family:'MS Shell Dlg 2';opacity:1;fill:none;fill-opacity:1;fill-rule:evenodd;stroke:#000000;stroke-width:0.33333385;stroke-linecap:square;stroke-linejoin:bevel;stroke-miterlimit:4;stroke-dasharray:none;stroke-opacity:1" />
    <path
       inkscape:connector-curvature="0"
       d="m 177.33751,577.83718 -0.31503,-0.37286 0.16038,-2.35163 -2.38951,0.0547 -0.41809,1.29079 -0.51046,-0.34385 -0.32409,0.038 0.0762,1.1876 -0.42723,0.0833 -0.12143,-1.2907 -0.70961,0.0652 0.0871,1.66541 -3.38697,0.13258 0.13022,-0.7386 -0.47244,-0.0195 -0.10881,-1.00292 0.83272,-0.0436 0.0508,1.15134 0.43629,0.0451 -0.08,-1.88625 -0.85258,-0.0239 0.011,0.47787 -0.39821,-0.26052 -0.6282,0.1431 -0.12124,-0.21188 -0.41098,-0.009 0.10542,3.0013 1.64915,0.005 0.008,-0.22087 0.8328,-0.0435 0.0128,0.82716 0.39102,-0.058 -0.009,0.41099 0.59553,0.0415 0.0491,0.80189 6.18375,-0.3375 -0.0761,-0.10868 -0.0851,-0.23708 -0.076,-0.10859 0.0212,-0.12319 0.018,-0.0922 -0.092,-0.018 0.018,-0.0921 0.0384,-0.21536 0.018,-0.0921 0.0212,-0.12319 0.018,-0.0921 -0.10681,-0.11408 0.14478,-0.10141 0.018,-0.092 0.0537,-0.30784 0.018,-0.0921 0.0212,-0.12318 0.10855,-0.0759 z"
       id="MI-09"
       style="font-style:normal;font-weight:400;font-size:34.375px;font-family:'MS Shell Dlg 2';opacity:1;fill:none;fill-opacity:1;fill-rule:evenodd;stroke:#000000;stroke-width:0.33333385;stroke-linecap:square;stroke-linejoin:bevel;stroke-miterlimit:4;stroke-dasharray:none;stroke-opacity:1" />
    <path
       inkscape:connector-curvature="0"
       d="m 175.35474,534.55403 -0.32413,0.038 -0.12319,-0.0212 -0.22253,0.18288 -0.21541,-0.0384 -0.21544,-0.0384 -0.23882,0.27521 -0.13936,0.0706 -0.13037,0.19914 -0.0921,-0.018 -0.23165,0.0544 -0.0922,-0.018 -0.23175,0.0543 -0.11408,0.10681 -0.0318,0.18476 -0.0211,0.12318 -0.13937,0.0706 -0.018,0.0921 -0.0384,0.21536 -0.23882,0.27522 -0.13938,0.0707 -0.0922,-0.018 -0.23718,0.0851 -0.018,0.0921 -0.49238,-0.087 -0.12317,-0.0212 -0.20083,0.0597 -0.14482,0.10139 -0.10864,0.0759 -0.018,0.0921 -0.0921,-0.018 -0.14482,0.10138 -0.0921,-0.018 -0.10858,0.076 -0.46893,0.13945 -0.32392,0.038 -0.18484,-0.0319 -0.13939,0.0706 -0.30772,-0.0537 -0.0212,0.12319 -0.20104,0.0597 -0.12319,-0.0212 -0.10856,0.0759 -0.23706,0.0851 -0.018,0.092 -0.16292,0.38379 -0.0212,0.12319 -0.28602,0.36208 -0.13025,0.19917 -0.24794,0.14665 -0.0212,0.1232 -0.21732,0.15207 -0.1232,-0.0211 -0.32935,0.0689 -0.20102,0.0597 -0.018,0.0921 0.0707,0.13942 0.0922,0.018 0.10682,0.11396 0.0922,0.018 -0.0384,0.21538 -0.018,0.092 0.0921,0.018 -0.0384,0.21537 -0.52484,0.63729 -0.61537,0.43094 -0.018,0.0921 -0.22275,0.18286 -0.13935,0.0706 -0.0384,0.21536 -0.0319,0.18477 -0.0384,0.21537 -0.018,0.092 -0.0211,0.12317 -0.20083,0.0597 -0.28601,0.36209 -0.16836,0.41456 0.18487,0.0318 -0.018,0.0921 -0.0384,0.21536 -0.12497,0.16837 -0.16836,0.41457 -0.12319,-0.0211 -0.018,0.092 -0.018,0.092 -0.0212,0.12316 -0.12489,0.16838 -0.1465,0.29149 -0.56124,0.12316 -0.076,-0.10857 -0.1014,-0.14481 -0.20645,0.0905 -0.24794,0.14668 -0.13026,0.19915 -0.13941,0.0707 0.0851,0.23708 -0.16109,0.19368 -0.201,0.0597 -0.17738,0.28607 -0.25509,0.36757 -0.16111,0.19367 -0.018,0.092 -0.41637,0.56122 -0.80002,0.93794 -0.2171,0.15202 -0.61551,-0.10846 -0.12318,-0.0212 -0.26444,-0.30047 0.0201,1.1459 2.29176,-0.04 0.24153,4.92923 0.72946,0.002 -0.4687,0.67888 0.34762,0.72775 0.62635,0.0468 0.0581,0.9304 1.25999,-0.12685 0.24612,12.1016 7.27354,-0.39933 0.42276,7.49997 0.069,0.86887 0.7096,-0.0652 0.12142,1.29071 0.42725,-0.0833 -0.0763,-1.18759 0.32412,-0.038 0.51044,0.34386 0.41811,-1.2908 2.38949,-0.0547 -0.16037,2.35165 0.31505,0.37285 0.14648,-0.29148 0.16111,-0.19377 0.0319,-0.18466 0.0212,-0.12317 0.018,-0.0921 0.20102,-0.0597 0.0212,-0.12319 0.32391,-0.038 0.018,-0.092 0.12319,0.0212 0.0921,0.018 0.21542,0.0384 0.18468,0.0317 0.1068,0.11399 0.0921,0.018 -0.0545,-0.2317 -0.1611,-0.34582 0.0318,-0.18464 0.0212,-0.12319 0.018,-0.0921 -0.076,-0.1087 -0.28614,-0.17736 -0.12319,-0.0211 -0.15201,-0.2171 -0.0851,-0.23719 0.018,-0.0921 0.0212,-0.12319 0.018,-0.0921 0.018,-0.092 0.12321,0.0212 0.0212,-0.12318 0.018,-0.0921 0.22255,-0.18293 0.13936,-0.0705 0.092,0.018 0.0921,0.018 0.23164,-0.0543 0.092,0.018 0.1611,-0.19376 0.018,-0.0921 0.11406,-0.10683 0.12487,-0.16827 0.12319,0.0212 0.11399,-0.10683 0.12489,-0.16848 0.45265,-0.0471 0.12487,-0.1683 0.30786,0.0537 0.2154,0.0384 0.2914,0.14651 -0.018,0.092 0.0923,0.018 0.40003,0.0704 0.12319,0.0212 0.0707,0.13939 0.0761,0.10868 0.10684,0.11407 -0.0212,0.1232 -0.0319,0.18465 -0.0212,0.12318 -0.1394,0.0707 -0.018,0.0921 -0.23899,0.27509 -0.12321,-0.0212 -0.076,-0.10858 -0.30785,-0.0537 -0.45428,0.23722 -0.018,0.0921 0.16284,0.15563 0.0689,0.32937 -0.44704,0.0164 -0.23903,0.27517 0.0544,0.23166 0.1992,0.13037 0.32393,-0.0382 0.13048,0.34042 0.0526,0.42174 0.14656,0.24802 0.19921,0.13027 -0.018,0.0921 0.0922,0.018 0.15566,-0.16285 0.0212,-0.12317 0.20085,-0.0598 0.13939,-0.0707 0.20645,-0.0905 0.19367,0.16106 0.076,0.10868 0.1232,0.0212 0.32414,-0.0382 0.11397,-0.10682 0.0537,-0.30773 0.018,-0.0921 0.0919,0.018 0.1611,-0.19376 0.239,-0.27508 0.018,-0.0921 0.13939,-0.0707 0.0212,-0.12318 0.48686,-0.42186 0.0384,-0.21533 0.0921,0.018 0.018,-0.0921 0.0212,-0.12321 0.0539,-0.30789 0.018,-0.0921 4.2e-4,-0.5395 -0.0382,-0.32394 0.23348,-0.78396 0.0212,-0.1232 0.10866,-0.0759 0.0538,-0.30783 0.13938,-0.0706 0.0212,-0.12321 -0.10681,-0.11397 0.0384,-0.21533 0.018,-0.0922 0.23164,-0.59379 0.13026,-0.19923 -0.0597,-0.20082 -0.0471,-0.45267 -0.0922,-0.018 -0.0382,-0.32396 -0.10683,-0.11406 -0.076,-0.10868 0.0212,-0.12318 0.0539,-0.30772 0.018,-0.092 0.018,-0.0921 0.0538,-0.30773 0.0212,-0.12317 0.0538,-0.30794 0.0317,-0.18467 4.1e-4,-0.53946 -0.10683,-0.11399 0.0212,-0.1232 0.0319,-0.18483 0.16107,-0.19367 0.0384,-0.21535 0.0871,-0.49236 0.14651,-0.29158 0.11398,-0.10685 0.0317,-0.18465 0.25345,-0.1775 0.16293,-0.38373 0.0212,-0.12317 0.018,-0.092 0.018,-0.0921 -0.0706,-0.13937 0.018,-0.0921 -0.092,-0.018 0.018,-0.092 -0.1014,-0.14483 0.018,-0.0921 0.018,-0.092 0.14482,-0.10141 0.018,-0.092 -0.12322,-0.0211 -0.0543,-0.23164 -0.0921,-0.018 -0.0905,-0.20645 -0.14679,-0.24794 -0.0851,-0.2371 -0.31321,-0.56296 -0.0706,-0.13937 -0.14485,-0.43809 -0.076,-0.10859 -0.37664,-0.38383 -0.0163,-0.44702 -0.0597,-0.20104 -0.0851,-0.23708 0.0537,-0.30783 -0.0761,-0.10867 -0.16124,-0.34565 0.0384,-0.21543 -0.16113,-0.88524 -0.1522,-0.21712 -0.10139,-0.14482 0.018,-0.0921 -0.14652,-0.24799 -0.0744,-0.83805 0.0211,-0.12319 0.018,-0.0921 -0.0219,-0.41634 -0.1014,-0.14482 -0.0217,-0.41637 -0.0543,-0.23166 0.018,-0.092 0.018,-0.0921 0.0212,-0.12318 -0.0362,-0.51412 -0.0544,-0.23165 -0.0761,-0.10858 0.0212,-0.12321 -0.0363,-0.51411 0.016,-0.63177 -0.0379,-0.32412 -0.0689,-0.32936 0.0384,-0.21543 0.018,-0.0921 -0.0544,-0.23167 0.018,-0.0921 -0.23177,-0.48525 -0.0597,-0.20081 -0.0689,-0.32955 -0.13049,-0.34023 -0.0689,-0.32956 -0.0706,-0.13939 -0.038,-0.32391 -0.39841,-0.80015 -0.10686,-0.65347 -0.0218,-0.41636 -0.1775,-0.25344 -0.038,-0.32401 0.0384,-0.21538 -0.10687,-0.65349 0.018,-0.0921 -0.0217,-0.41637 0.0212,-0.1232 -0.0921,-0.018 0.0705,-0.40009 -0.10683,-0.11398 0.0211,-0.12319 -0.038,-0.32401 -0.005,-0.50868 -0.0851,-0.23713 -0.0762,-0.64809 -0.0851,-0.23713 -0.0597,-0.20093 0.0762,-0.4308 -0.0597,-0.20091 -0.0851,-0.23713 -0.076,-0.1086 4.2e-4,-0.53944 -0.14482,-0.43805 -0.0543,-0.2317 -0.1232,-0.0212 -0.0761,-0.10859 -0.0707,-0.13939 0.10865,-0.0759 0.018,-0.0921 -0.0706,-0.13938 -0.10682,-0.11397 -0.076,-0.10858 -0.0705,-0.13936 -0.10684,-0.11398 -0.34586,-0.37831 -0.0543,-0.2317 -0.10683,-0.11397 -0.21561,-0.57746 -0.13028,-0.34031 0.018,-0.0921 -0.10685,-0.11397 -0.0544,-0.23173 0.018,-0.0921 -0.0921,-0.018 -0.23167,-0.4851 -0.10683,-0.11399 -0.23731,-0.45437 -0.0706,-0.13937 -0.076,-0.10859 -0.39296,-0.2914 -0.0921,-0.018 -0.092,-0.018 -0.21544,-0.0384 -0.076,-0.10857 -0.0851,-0.23712 -0.47614,-0.17913 -0.10682,-0.11398 -0.18465,-0.0318 -0.1232,-0.0212 -0.37841,-0.19367 -0.40017,-0.0704 -0.29136,-0.14647 -0.39297,-0.29143 0.018,-0.092 -0.16829,-0.12488 z m 6.18435,42.84984 -0.11407,0.10685 -0.23169,0.0544 -0.13025,0.1992 0.038,0.32391 0.11399,-0.10682 0.28603,-0.36205 0.0384,-0.21541 z"
       id="MI-10"
       style="font-style:normal;font-weight:400;font-size:34.375px;font-family:'MS Shell Dlg 2';opacity:1;fill:none;fill-opacity:1;fill-rule:evenodd;stroke:#000000;stroke-width:0.33333385;stroke-linecap:square;stroke-linejoin:bevel;stroke-miterlimit:4;stroke-dasharray:none;stroke-opacity:1" />
    <path
       inkscape:connector-curvature="0"
       d="m 172.29012,575.32891 -1.26901,-0.002 -0.56485,-0.57551 -0.63719,0.0146 -0.0907,-1.82478 -9.78264,0.59155 0.53688,7.39296 2.27733,-0.13785 0.15599,2.53439 0,0 0.12709,2.33879 2.43119,-0.11072 -0.12538,-2.52897 2.44573,-0.013 -0.11083,-2.43115 -2.43117,0.11078 -0.16339,-3.39249 0.50691,-0.35479 1.79914,-1.74538 -0.0582,-1.46993 1.56763,-0.0727 0.0908,1.8248 0.85255,0.0239 0.08,1.88627 -0.43626,-0.0452 -0.0508,-1.15133 -0.83272,0.0436 0.1088,1.00294 0.47248,0.0195 -0.13024,0.7386 3.38698,-0.13259 -0.0871,-1.6654 0,0 -0.069,-0.86888 z"
       id="MI-11"
       style="font-style:normal;font-weight:400;font-size:34.375px;font-family:'MS Shell Dlg 2';opacity:1;fill:none;fill-opacity:1;fill-rule:evenodd;stroke:#000000;stroke-width:0.33333385;stroke-linecap:square;stroke-linejoin:bevel;stroke-miterlimit:4;stroke-dasharray:none;stroke-opacity:1" />
    <path
       inkscape:connector-curvature="0"
       d="m 172.04369,586.26465 -0.9757,-0.0451 0.11028,-0.2661 -0.28421,-0.36741 -0.73687,-0.32033 0.39642,-0.6282 0.87973,-0.13053 -0.28426,-0.90682 0.13384,-0.57927 -1.08977,0.0617 0.0888,0.39646 -1.96956,0.1921 0.14325,1.70701 -0.52497,0.0979 0.11071,2.43119 -2.45647,0.0745 -0.1107,-2.43115 -2.43119,0.11071 -0.12708,-2.33878 -6.14763,0.3122 0.0963,2.33339 1.23819,-0.004 0.0854,1.85564 0.48342,0.49769 4.37895,-0.17982 0.21765,2.54514 5.27331,-0.21252 1.1568,0.99733 0.85822,0.53211 0.45616,0.11219 0.0101,-0.0618 -0.092,-0.018 0.0318,-0.18466 -0.0472,-0.45265 0.0319,-0.18466 -0.0921,-0.018 0.0212,-0.12318 0.36203,-0.25359 0.0921,0.018 0.19363,-0.37833 0.50872,-0.006 0.2008,-1.13864 0.018,-0.0921 -0.0706,-0.13938 -0.0218,-0.41629 -0.19932,-0.66979 0.0239,-0.85267 0.018,-0.0921 0.0322,-0.72405 0.0101,-0.0618 z"
       id="MI-12"
       style="font-style:normal;font-weight:400;font-size:34.375px;font-family:'MS Shell Dlg 2';opacity:1;fill:none;fill-opacity:1;fill-rule:evenodd;stroke:#000000;stroke-width:0.33333385;stroke-linecap:square;stroke-linejoin:bevel;stroke-miterlimit:4;stroke-dasharray:none;stroke-opacity:1" />
    <path
       inkscape:connector-curvature="0"
       d="m 172.60103,584.90336 -0.56308,-0.22623 -0.20279,-0.28959 0.36202,-0.79299 1.22372,-0.10155 0.35106,-0.73147 1.25985,-0.66634 -0.37847,-0.73304 -1.20013,0.32778 0.0779,0.45807 -0.23707,0.0851 -0.89812,-1.20558 -1.05893,0.0671 0.0543,0.77117 -1.21278,0.04 -0.0583,-1.46992 -2.43661,0.14155 0.11082,2.43115 -2.44572,0.013 0.12538,2.52897 0,0 0.1107,2.43116 2.45646,-0.0746 -0.11071,-2.43117 0.52497,-0.0979 -0.14324,-1.70702 1.96956,-0.19209 -0.0888,-0.39645 1.08977,-0.0617 -0.13384,0.57927 0.28426,0.90682 -0.87972,0.13053 -0.39643,0.62821 0.73687,0.32032 0.28422,0.36741 -0.11029,0.2661 0.9757,0.0451 0.0101,-0.0616 0.14652,-0.29157 0.17736,-0.28593 0.018,-0.0922 0.20632,-0.62994 z"
       id="MI-13"
       style="font-style:normal;font-weight:400;font-size:34.375px;font-family:'MS Shell Dlg 2';opacity:1;fill:none;fill-opacity:1;fill-rule:evenodd;stroke:#000000;stroke-width:0.33333385;stroke-linecap:square;stroke-linejoin:bevel;stroke-miterlimit:4;stroke-dasharray:none;stroke-opacity:1" />
    <path
       inkscape:connector-curvature="0"
       d="m 177.26542,580.04574 -6.18376,0.33749 -0.0491,-0.8019 -0.59553,-0.0415 0.009,-0.41099 -0.391,0.058 -0.0129,-0.82717 -0.83278,0.0435 -0.008,0.22089 -1.64916,-0.005 -0.10543,-3.0013 0.41104,0.008 0.12125,0.21188 0.62819,-0.14309 0.3982,0.26053 -0.011,-0.47788 0,0 -0.0908,-1.8248 -1.56763,0.0727 0.0581,1.46992 -1.79911,1.7454 -0.50691,0.35478 0.16337,3.3925 2.43117,-0.11082 0,0 2.43659,-0.14152 0.0583,1.46993 1.21279,-0.04 -0.0543,-0.77116 1.05895,-0.0671 0.89812,1.2056 0.23706,-0.0851 -0.0779,-0.45809 1.20015,-0.32778 0.37845,0.73306 -1.25984,0.66633 -0.35108,0.73147 -1.22371,0.10154 -0.36198,0.793 0.20277,0.2896 0.56307,0.22622 0.0101,-0.0617 0.0211,-0.1232 0.12489,-0.16827 0.29136,-0.39297 0.10856,-0.0759 0.16108,-0.19368 0.32414,-0.0382 0.20084,-0.0598 0.0212,-0.12321 0.23175,-0.0543 0.23174,-0.0543 0.18465,0.0318 0.46895,-0.13951 0.54668,-0.2209 0.13935,-0.0706 0.114,-0.10681 0.10858,-0.0761 0.23176,-0.0544 0.0921,0.018 -0.0545,-0.23168 0.0384,-0.21534 0.10868,-0.076 0.0384,-0.21542 0.13939,-0.0706 0.10856,-0.076 0.11399,-0.10683 0.15568,-0.16304 0.13034,-0.19909 0.0384,-0.21532 0.018,-0.0921 0.0384,-0.21544 0.10856,-0.6155 0.0705,-0.40005 z"
       id="MI-14"
       style="font-style:normal;font-weight:400;font-size:34.375px;font-family:'MS Shell Dlg 2';opacity:1;fill:none;fill-opacity:1;fill-rule:evenodd;stroke:#000000;stroke-width:0.33333385;stroke-linecap:square;stroke-linejoin:bevel;stroke-miterlimit:4;stroke-dasharray:none;stroke-opacity:1" />
  </g>
</svg>
