<?xml version="1.0" encoding="UTF-8" standalone="no"?>
<!-- Created with Inkscape (http://www.inkscape.org/) -->

<svg
   xmlns:dc="http://purl.org/dc/elements/1.1/"
   xmlns:cc="http://creativecommons.org/ns#"
   xmlns:rdf="http://www.w3.org/1999/02/22-rdf-syntax-ns#"
   xmlns:svg="http://www.w3.org/2000/svg"
   xmlns="http://www.w3.org/2000/svg"
   xmlns:sodipodi="http://sodipodi.sourceforge.net/DTD/sodipodi-0.dtd"
   xmlns:inkscape="http://www.inkscape.org/namespaces/inkscape"
   width="58.337143mm"
   height="15.786025mm"
   viewBox="0 0 206.7064 55.934738"
   id="svg3885"
   version="1.1"
   inkscape:version="0.91 r"
   sodipodi:docname="7.svg">
  <defs
     id="defs3887" />
  <sodipodi:namedview
     id="base"
     pagecolor="#ffffff"
     bordercolor="#666666"
     borderopacity="1.0"
     inkscape:pageopacity="0.0"
     inkscape:pageshadow="2"
     inkscape:zoom="6.4033046"
     inkscape:cx="98.865414"
     inkscape:cy="52.769111"
     inkscape:document-units="px"
     inkscape:current-layer="layer1"
     showgrid="false"
     inkscape:window-width="2560"
     inkscape:window-height="1388"
     inkscape:window-x="0"
     inkscape:window-y="0"
     inkscape:window-maximized="1"
     fit-margin-top="1"
     fit-margin-left="1"
     fit-margin-right="1"
     fit-margin-bottom="1" />
  <metadata
     id="metadata3890">
    <rdf:RDF>
      <cc:Work
         rdf:about="">
        <dc:format>image/svg+xml</dc:format>
        <dc:type
           rdf:resource="http://purl.org/dc/dcmitype/StillImage" />
        <dc:title></dc:title>
      </cc:Work>
    </rdf:RDF>
  </metadata>
  <g
     inkscape:label="Layer 1"
     inkscape:groupmode="layer"
     id="layer1"
     transform="translate(-94.483886,-393.73792)">
    <path
       inkscape:connector-curvature="0"
       d="m 297.34896,397.44765 -2.0443,0.11014 -0.31351,-0.0183 -0.0977,0.0157 -0.0977,0.0155 -0.25176,-0.009 -1.27394,0.046 -0.9813,-0.002 -1.14553,0.035 -0.0611,-0.01 -0.23392,0.65858 -1.9418,0.0637 -0.79626,0.0286 -0.64199,0.0537 -0.31341,-0.0183 -0.13341,0.0417 -0.60116,-0.002 -0.38515,0.0322 -0.0306,-0.009 -0.0307,-0.009 -0.0359,0.0258 -0.18996,0.001 -0.0307,-0.009 -0.1593,0.006 -0.15919,0.006 -0.0667,0.0209 -0.0616,-0.01 -0.0306,-0.009 -0.15929,0.006 -0.0306,-0.009 -0.0616,-0.01 -0.1284,0.0112 -0.25175,-0.009 -0.0359,0.026 -0.0307,-0.009 -0.22087,-0.005 -0.0359,0.0257 -0.0617,-0.01 -0.22095,-0.005 -0.19511,0.0315 -0.44185,-0.009 -0.19512,0.0316 -0.50858,0.0124 -0.0667,0.0207 -0.47777,0.0174 -1.56151,0.0621 -0.0975,0.0157 -0.38518,0.0322 -0.18999,0.001 -1.05303,0.0501 -0.0307,-0.009 -0.0358,0.026 -0.0306,-0.009 -0.24684,-0.0393 -0.0307,-0.009 -0.0973,0.0157 -0.0617,-0.01 -0.15918,0.006 -0.54437,0.038 -0.64197,0.0536 -0.0618,-0.01 -0.12839,0.0112 -0.12842,0.0112 -0.0306,-0.009 -0.22597,0.0266 -0.0306,-0.009 -0.34941,0.008 -0.1284,0.0112 -0.35429,0.0371 -0.53944,0.006 -0.38519,0.0323 -0.0923,-0.0168 -0.57527,0.033 -0.19007,0.001 -0.16431,0.0365 -0.0924,-0.0168 -0.47769,0.0174 -1.37151,0.0616 -1.07883,0.0147 -0.0359,0.026 -1.34054,0.0666 -0.95052,0.003 -0.7345,0.0388 -0.50858,0.0112 -0.95547,0.0346 -0.0306,-0.009 -1.65409,0.047 -1.65913,0.0779 -0.0306,-0.009 -0.82703,0.0237 -0.31851,0.0104 -0.50857,0.0112 -0.0307,-0.009 -0.25679,0.0213 -0.36009,-0.12193 -0.18998,10e-4 -0.5136,0.0429 -0.88873,0.0139 -0.64198,0.0537 -0.69873,0.0131 -1.11466,0.0403 -0.0974,0.0156 c 0.73854,1.19546 1.51997,2.37401 2.13005,3.63973 0.006,0.33082 -0.12859,0.7588 -0.11431,1.08961 0.008,0.16542 0.0672,0.33171 0.18648,0.4103 0.11911,0.0787 0.32744,0.0742 0.63196,0.008 0.54144,-0.0104 1.0956,0.2073 1.43022,0.54965 0.16729,0.17111 0.25812,0.38044 0.27976,0.61536 0.0214,0.23502 -0.0309,0.47372 -0.21819,0.75608 0.30406,0.26877 0.54751,1.00233 0.53999,1.54435 -0.005,0.27103 -0.0716,0.50023 -0.22384,0.59679 -0.15193,0.0967 -0.38301,0.0573 -0.73019,-0.18229 -0.26869,-0.22908 -0.51292,-0.26116 -0.72521,-0.21304 -0.21217,0.0479 -0.40451,0.19765 -0.59962,0.3772 -0.39032,0.35915 -0.77895,0.81449 -1.33782,0.82702 -0.48207,0.34205 -0.75831,0.86677 -0.83212,1.41585 -0.0739,0.54908 0.0664,1.13232 0.43732,1.59101 0.25227,0.28636 0.74417,0.4468 1.06593,0.64854 0.16091,0.10073 0.27668,0.21844 0.28902,0.3636 0.0124,0.14527 -0.0645,0.31774 -0.31131,0.55094 0.0536,0.58319 0.40021,0.91138 0.83629,1.08604 0.43612,0.17467 0.95601,0.17932 1.37726,0.0974 0.0633,0.48438 0.26271,1.23113 0.29462,1.88435 0.0159,0.32661 -0.004,0.62283 -0.10987,0.86865 -0.1048,0.24586 -0.29306,0.45318 -0.59396,0.5365 -1.32364,-0.28338 -2.70339,-0.35994 -4.04416,-0.24707 -0.87903,-0.68317 -1.49725,-1.74972 -2.54125,-2.28184 -0.27833,-0.21281 -0.7921,-0.47348 -1.11675,-0.53012 -0.16226,-0.0287 -0.2807,0.004 -0.30274,0.10897 -0.0221,0.10407 0.0652,0.28586 0.28475,0.58457 0.3699,0.2955 0.51674,0.56654 0.53223,0.81493 0.0155,0.24842 -0.12169,0.48111 -0.33151,0.67431 -0.41964,0.38625 -1.1629,0.65071 -1.70793,0.76663 -0.38369,0.0236 -0.68718,0.16253 -0.9131,0.35788 -0.22604,0.1953 -0.37596,0.43907 -0.43412,0.72078 -0.0582,0.28182 -0.009,0.59007 0.11114,0.87302 0.11998,0.28296 0.33167,0.5384 0.63978,0.73743 0.22909,1.30763 0.62692,2.56694 1.18547,3.80252 0.4465,0.34849 0.81906,0.7204 1.01635,1.14695 0.1973,0.42668 0.22246,0.92045 -0.0252,1.51567 -0.0554,0.33222 -0.002,0.67196 -0.0376,1.00709 l 0.0615,0.01 0.0975,-0.0156 0.0258,0.0359 0.0666,-0.0207 0.12345,0.0197 0.17997,0.0607 0.12838,-0.0112 0.0719,-0.0516 0.0359,-0.0259 0.0667,-0.0207 0.0567,0.0408 0.31773,-0.20156 0.14845,-0.13405 0.0974,-0.0155 0.0567,0.041 0.19579,0.15853 0.13416,0.14848 0.0517,0.0718 0.0259,0.0359 0.0617,0.01 0.13343,-0.0418 0.10252,-0.0464 0.15928,-0.006 0.15406,0.0258 0.15922,-0.006 0.22597,-0.0266 0.0359,-0.026 0.15416,0.0258 0.31849,-0.0104 0.0516,0.0718 0.44688,-0.0222 0.14851,-0.13417 0.12841,-0.0112 0.1378,-0.26246 0.0408,-0.0567 -0.0466,-0.10251 0.036,-0.026 0.0717,-0.0516 0.041,-0.0567 0.01,-0.0616 0.0359,-0.0258 0.20003,-0.0625 0.15351,-0.16498 0.087,-0.14421 0.0915,-0.17493 0.0459,-0.0875 0.0924,0.0168 0.2159,0.0357 0.0306,0.009 0.0359,-0.0257 0.16437,-0.0365 0.0306,0.009 0.01,-0.0617 0.17426,-0.0983 0.0361,-0.026 0.10757,-0.0775 0.0668,-0.0209 0.16421,-0.0365 0.0765,-0.0824 0.0968,-0.2058 -0.0258,-0.0358 0.20002,-0.0624 0.0616,0.01 0.009,-0.0306 0.0765,-0.0824 0.0307,0.009 0.0616,0.01 0.0307,0.009 0.0359,-0.0259 0.15853,-0.19578 0.0359,-0.026 0.051,-0.11836 0.009,-0.0306 0.0168,-0.0923 0.041,-0.0566 0.0459,-0.0875 0.0359,-0.0258 0.0614,0.01 0.20025,-0.0625 0.0765,-0.0825 0.30862,0.0497 0.0775,0.10766 0.13918,0.11772 0.0306,0.009 0.19512,-0.0317 0.0359,-0.0258 0.0717,-0.0517 0.0819,-0.11331 0.0558,-0.14925 0.0258,-0.15407 0.009,-0.0306 0.21017,-0.12411 0.10251,-0.0466 0.1027,-0.0465 0.051,-0.11836 0.0768,-0.0824 0.0974,-0.0158 0.0765,-0.0824 0.009,-0.0307 0.01,-0.0617 0.0359,-0.0258 -0.006,-0.15929 -0.0209,-0.0667 0.0168,-0.0923 0.0411,-0.0566 -0.0155,-0.0975 -0.0209,-0.0667 -0.026,-0.0359 0.11267,-0.1083 0.17426,-0.0984 0.0359,-0.0258 0.0168,-0.0923 0.22086,0.005 0.22096,0.005 0.0306,0.009 0.0924,0.0168 0.0567,0.041 0.23595,-0.0881 0.0875,0.0457 0.0359,-0.0258 0.21027,-0.12401 0.0614,0.01 0.0918,-0.17508 0.0457,-0.0874 0.0559,-0.14929 0.13842,-0.0723 0.0307,0.009 0.10189,-0.23667 -0.0112,-0.12842 0.009,-0.0307 0.0816,-0.11337 0.0668,-0.0208 0.0924,0.0168 0.1593,-0.006 0.009,-0.0307 0.45684,-0.0839 0.18525,0.0294 0.14347,-0.10326 0.0717,-0.0516 0.10768,-0.0775 0.0667,-0.0209 0.0307,0.009 0.0358,-0.026 0.0359,-0.0259 0.25616,-0.21158 0.01,-0.0616 0.14345,-0.10327 0.0975,-0.0157 0.0306,0.009 0.0258,0.0359 0.21589,0.0357 0.0306,0.009 0.072,-0.0517 0.1334,-0.0416 0.11835,0.051 0.0259,0.0358 0.0616,0.01 0.0306,0.009 0.0717,-0.0516 0.0668,-0.0209 0.0306,0.009 0.11832,0.0512 0.11836,0.051 0.18006,0.0609 0.11833,0.0511 0.15416,0.0258 0.10833,0.11258 0.12344,0.0197 0.0973,-0.0155 0.17935,-0.12904 0.11762,-0.13919 0.0818,-0.11333 0.10768,-0.0775 0.1284,-0.0112 0.009,-0.0307 0.0411,-0.0565 -0.0207,-0.0668 0.0258,-0.15407 0.0766,-0.0824 0.009,-0.0306 0.0459,-0.0875 0.009,-0.0306 0.009,-0.0306 0.061,-0.18012 0.13273,-0.23167 0.009,-0.0306 0.0307,0.009 0.009,-0.0306 0.16426,-0.0366 0.0916,-0.1749 0.0168,-0.0924 0.0718,-0.0516 0.0359,-0.026 0.0306,0.009 0.0667,-0.0208 0.009,-0.0306 0.0719,-0.0517 0.0168,-0.0924 -0.0672,-0.16931 0.0394,-0.24686 0.0196,-0.12344 0.0408,-0.0565 0.13847,-0.0725 0.1027,-0.0466 0.10758,-0.0775 0.01,-0.0618 0.01,-0.0616 0.01,-0.0618 -0.026,-0.0358 -0.0258,-0.0358 -0.0776,-0.10767 0.01,-0.0617 0.0359,-0.0258 0.009,-0.0306 0.009,-0.0306 0.009,-0.0306 -0.0259,-0.0359 -0.0465,-0.10241 -0.0781,-0.29773 -0.0673,-0.16925 -0.0307,-0.009 0.009,-0.0306 0.009,-0.0307 -0.026,-0.0359 0.01,-0.0616 -0.0259,-0.0359 0.0196,-0.12348 0.009,-0.0306 0.0667,-0.0208 0.0306,0.009 0.0718,-0.0516 0.0359,-0.0259 0.01,-0.0614 -0.006,-0.15931 0.0661,-0.21081 0.0307,0.009 0.0975,-0.0156 0.17931,-0.12917 0.24108,-0.119 0.0873,0.0457 0.0258,0.0359 0.17994,0.0609 0.19519,-0.0316 0.0566,0.0409 0.23166,0.13271 0.0209,0.0668 0.16998,0.12266 0.0517,0.0718 0.0359,-0.0258 0.0775,0.10756 0.0932,0.20517 0.13843,-0.0725 0.10759,-0.0774 0.0306,0.009 0.0974,-0.0157 0.041,-0.0565 0.009,-0.0306 -0.0723,-0.13841 0.009,-0.0307 0.009,-0.0306 0.12764,-0.20088 0.25605,-0.21163 0.0307,0.009 0.009,-0.0306 0.0294,-0.18513 -0.0157,-0.0973 0.0359,-0.026 0.009,-0.0306 0.13846,-0.0724 0.0561,-0.14922 -0.0259,-0.0359 -0.0568,-0.041 -0.0357,0.0258 -0.0307,-0.009 -0.11334,-0.0817 0.0142,-0.28272 0.0458,-0.0874 0.0718,-0.0518 0.0196,-0.12343 0.01,-0.0617 0.0359,-0.026 0.24107,-0.11902 0.16419,-0.0364 0.0925,0.0168 0.10765,-0.0774 0.39953,-0.31487 0.1025,-0.0466 0.0618,0.01 0.18431,-0.15984 0.0359,-0.026 -0.0208,-0.0666 0.01,-0.0616 0.0667,-0.0209 0.0616,0.01 0.009,-0.0306 0.0306,0.009 0.1077,-0.0775 0.0408,-0.0566 0.27189,-0.11406 0.0819,-0.11331 0.0168,-0.0924 0.009,-0.0307 0.24098,-0.1191 0.10755,-0.0774 0.13847,-0.0723 0.10259,-0.0466 0.0616,0.01 0.10249,-0.0463 0.0719,-0.0517 0.0765,-0.0824 0.14347,-0.10327 0.12346,0.0196 0.0825,0.0766 0.22667,0.16356 0.0567,0.0408 -0.0168,0.0923 -0.0196,0.12344 0.12345,0.0196 0.0922,0.0168 0.0776,0.10767 0.0875,0.0458 0.0516,0.0718 0.0518,0.0718 0.0516,0.0718 0.0209,0.0667 -0.0168,0.0924 -0.0869,0.14414 -0.10769,0.0776 -0.071,0.24172 -0.0817,0.11337 -0.0411,0.0565 -0.009,0.0306 -0.0168,0.0923 0.0675,0.16936 0.11837,0.0511 0.0725,0.13845 -0.0459,0.0874 -0.0761,0.27259 -0.0168,0.0923 0.0158,0.0974 0.0307,0.009 0.0258,0.0359 0.18518,0.0292 0.12838,-0.0112 0.0718,-0.0515 0.25177,0.009 0.0874,0.0458 0.0112,0.1284 0.0259,0.0357 0.18016,0.0609 0.2158,0.0357 0.12254,-0.1699 0.0819,-0.1133 0.14852,-0.13418 0.0614,0.01 0.009,-0.0307 0.0975,-0.0155 0.0766,-0.0824 0.19508,-0.0315 0.0409,-0.0567 0.0668,-0.0207 0.0306,0.009 0.0923,0.0168 0.13847,-0.0725 0.0357,-0.0258 0.11269,-0.1083 0.15349,-0.16497 0.0409,-0.0567 0.0718,-0.0516 0.0359,-0.0257 0.0358,-0.0258 0.009,-0.0306 0.01,-0.0616 0.041,-0.0566 0.16937,-0.0674 0.22023,-0.18584 0.0667,-0.0208 0.009,-0.0306 0.041,-0.0567 0.75471,-1.52353 0.1377,-0.26247 0.009,-0.0306 0.17362,-0.28843 0.11761,-0.1391 0.29697,-0.26826 0.0668,-0.0209 0.1642,-0.0365 0.0196,-0.12344 0.0766,-0.0824 0.0307,0.009 0.0666,-0.0209 0.10271,-0.0465 0.10767,-0.0775 0.0357,-0.026 0.11267,-0.1083 0.10757,-0.0775 0.026,0.0359 0.0616,0.01 0.22097,0.005 0.10259,-0.0466 0.0666,-0.0209 0.10273,-0.0466 0.0667,-0.0209 0.0718,-0.0516 0.21521,-0.15491 0.041,-0.0567 0.0766,-0.0823 0.0306,0.009 0.1076,-0.0776 0.16933,-0.0674 0.0307,0.009 0.0259,0.0359 0.16997,0.12264 0.0306,0.009 0.0306,0.009 0.0667,-0.0207 0.0258,0.0359 0.0616,0.01 0.0307,0.009 0.0306,0.009 0.0666,-0.0208 0.0412,-0.0567 0.0511,-0.11829 0.0923,0.0168 0.0975,-0.0157 0.0258,0.0359 0.0874,0.0458 0.0359,-0.0259 0.0359,-0.026 0.01,-0.0614 0.0457,-0.0875 0.0718,-0.0516 0.0359,-0.026 0.0358,-0.0258 0.009,-0.0306 0.0358,-0.0258 0.11266,-0.10829 0.0766,-0.0823 0.0258,-0.1542 0.01,-0.0616 0.0974,-0.0155 0.10271,-0.0466 0.0667,-0.0207 0.14926,0.0558 0.0824,0.0769 0.0567,0.041 0.0824,0.0766 0.0616,0.01 0.11836,0.0511 0.0825,0.0766 0.0258,0.0359 0.0924,0.0168 0.0667,-0.021 0.0408,-0.0566 0.0358,-0.026 0.0667,-0.0209 0.22086,0.005 0.10271,-0.0466 0.13344,-0.0416 0.0305,0.009 0.10829,0.11267 0.0421,0.13347 0.0153,0.0974 0.0303,0.009 0.0933,0.20515 0.0112,0.12837 -0.0196,0.12343 0.0627,0.2002 0.0983,0.17434 0.0304,0.009 0.0257,0.0357 0.0304,0.009 0.25677,-0.0213 0.0304,0.009 0.10293,-0.0466 0.009,-0.0306 0.0303,0.009 0.0672,-0.0209 0.0877,0.0459 0.0928,0.0168 0.29273,-0.0475 0.12346,0.0196 0.009,-0.0306 0.28193,-0.17579 0.1284,-0.0112 0.10129,-0.23678 0.0168,-0.0925 0.0455,-0.0876 0.12346,0.0196 0.0926,0.0168 0.13909,0.11769 0.0304,0.009 0.0612,0.01 0.0304,0.009 0.0823,-0.11326 0.009,-0.0306 0.0508,-0.1184 0.009,-0.0307 0.14297,-0.29332 0.0558,-0.1492 0.36731,-0.70006 0.19372,-0.41181 0.28553,-0.58673 0.0963,-0.20589 0.23457,-0.46839 0.44917,-0.81337 0.1064,-0.26769 0.32645,-0.64327 0.19372,-0.41184 0.2511,-0.18068 0.0614,0.01 0.16933,-0.0673 0.17941,-0.12914 0.0456,-0.0874 0.0455,-0.0875 0.0771,-0.0824 0.16357,-0.22665 0.11791,-0.13904 0.10269,-0.0466 0.009,-0.0306 0.0357,-0.0259 0.13845,-0.0725 0.0762,-0.0825 0.17932,-0.12916 0.26181,-0.0523 0.2002,-0.0623 0.009,-0.0306 0.10788,-0.0774 0.17434,-0.0984 0.0662,-0.0211 0.0304,0.009 0.0826,0.0766 0.0207,0.0667 0.0303,0.009 -0.009,0.0307 0.0826,0.0766 0.0927,0.0168 0.0304,0.009 0.0878,0.0458 0.20088,0.12765 0.0877,0.0459 0.0926,0.0168 0.0304,0.009 0.0612,0.01 0.0927,0.0168 0.0662,-0.0211 0.0612,0.01 0.0662,-0.0209 0.10294,-0.0466 0.0303,0.009 0.10285,-0.0464 0.0672,-0.0207 0.12344,0.0197 0.11838,0.0509 0.0878,0.0457 0.0877,0.0459 0.16434,-0.0365 0.0168,-0.0924 0.009,-0.0306 0.01,-0.0616 -0.0512,-0.0718 -0.0257,-0.0358 -0.1442,-0.087 -0.0927,-0.0168 -0.0827,-0.0766 -0.0256,-0.0359 -0.047,-0.10263 0.0168,-0.0924 -0.0153,-0.0975 -0.0463,-0.10236 -0.13419,-0.14851 -0.0205,-0.0667 0.009,-0.0306 -0.0207,-0.0668 0.0456,-0.0874 0.0258,-0.15417 -0.0256,-0.0357 -0.0256,-0.0359 0.009,-0.0306 -0.0304,-0.009 -0.0511,-0.0716 -0.0878,-0.0457 -0.0411,-0.13335 -0.006,-0.15925 0.0197,-0.12347 0.10292,-0.0466 0.0762,-0.0825 0.22022,-0.18571 0.01,-0.0616 0.0197,-0.12344 0.0196,-0.12346 0.0509,-0.11838 -0.0256,-0.0358 0.0168,-0.0923 0.009,-0.0306 -0.0256,-0.0359 0.0455,-0.0874 -0.0155,-0.0974 -0.0206,-0.0666 -0.0112,-0.12838 0.14849,-0.13415 0.16934,-0.0672 0.0305,0.009 0.009,-0.0307 0.0355,-0.0258 0.0408,-0.0567 0.009,-0.0307 0.0196,-0.12347 -0.0256,-0.0358 -0.0256,-0.0357 -0.0524,-0.26185 0.0197,-0.12347 0.01,-0.0617 -0.0256,-0.0359 -0.0153,-0.0975 -0.0255,-0.0357 -0.0303,-0.009 -0.0154,-0.0974 0.0304,0.009 0.0168,-0.0924 0.0356,-0.026 -0.0207,-0.0666 0.009,-0.0307 -0.0511,-0.0718 -0.0256,-0.0358 0.01,-0.0616 -0.0303,-0.009 -0.0412,-0.13335 0.009,-0.0307 -0.0304,-0.009 -0.0256,-0.0357 -0.0512,-0.0718 -0.0255,-0.0358 -0.0361,-0.16414 0.0197,-0.12348 0.19501,-0.0315 -0.0207,-0.0665 0.0508,-0.1184 0.0874,-0.14414 0.0762,-0.0825 -0.0112,-0.12835 -0.0153,-0.0975 -0.0521,-0.0719 -0.0154,-0.0974 0.0356,-0.0259 0.01,-0.0616 0.0928,0.0168 0.16421,-0.0365 0.0723,-0.0516 -0.0257,-0.0357 -0.0206,-0.0667 -0.0112,-0.12834 -0.0208,-0.0666 -0.0471,-0.10271 0.0771,-0.0823 0.65489,-0.71645 z"
       id="TN-01"
       style="font-style:normal;font-weight:400;font-size:34.375px;font-family:'MS Shell Dlg 2';opacity:1;fill:none;fill-opacity:1;fill-rule:evenodd;stroke:#000000;stroke-width:0.33333385;stroke-linecap:square;stroke-linejoin:bevel;stroke-miterlimit:4;stroke-dasharray:none;stroke-opacity:1" />
    <path
       inkscape:connector-curvature="0"
       d="m 252.21355,428.66074 c 0.0349,-0.33514 -0.0178,-0.67486 0.0376,-1.00708 0.24761,-0.59526 0.2225,-1.08901 0.0252,-1.51567 -0.1973,-0.42657 -0.56987,-0.7985 -1.01637,-1.14699 -0.55853,-1.23554 -0.95638,-2.49487 -1.18547,-3.80252 -0.30813,-0.199 -0.51982,-0.45444 -0.63978,-0.73742 -0.1199,-0.28294 -0.16917,-0.59118 -0.11113,-0.873 0.0583,-0.28173 0.20806,-0.5255 0.43411,-0.72081 0.22591,-0.19531 0.52941,-0.33434 0.91307,-0.35787 0.54502,-0.11589 1.28831,-0.38038 1.70796,-0.76663 0.20978,-0.1932 0.34688,-0.42589 0.3315,-0.67427 -0.0156,-0.24844 -0.16231,-0.51946 -0.53224,-0.81498 -0.21964,-0.29868 -0.30676,-0.48046 -0.28473,-0.58455 0.0223,-0.10407 0.1404,-0.13732 0.30275,-0.10895 0.32455,0.0571 0.83838,0.31728 1.1167,0.53009 1.04402,0.53214 1.66225,1.59868 2.54127,2.28186 1.34078,-0.11285 2.7205,-0.0363 4.04416,0.24706 0.30092,-0.0833 0.48919,-0.29063 0.59396,-0.53647 0.10478,-0.24587 0.12574,-0.54205 0.10987,-0.86867 -0.0319,-0.65319 -0.23127,-1.39997 -0.29463,-1.88434 -0.42121,0.0816 -0.94112,0.077 -1.37723,-0.0974 -0.43609,-0.17467 -0.78275,-0.50287 -0.8363,-1.08606 0.24659,-0.23321 0.32369,-0.40564 0.3113,-0.55092 -0.0123,-0.14518 -0.12811,-0.26282 -0.289,-0.36359 -0.32178,-0.20175 -0.81368,-0.36219 -1.06591,-0.64856 -0.37091,-0.45869 -0.51128,-1.04193 -0.43737,-1.59101 0.0739,-0.54906 0.35007,-1.07379 0.83212,-1.41586 0.55889,-0.0114 0.94751,-0.46786 1.33781,-0.82699 0.19512,-0.17957 0.38748,-0.32919 0.59966,-0.37723 0.2123,-0.048 0.4565,-0.016 0.72518,0.21305 0.34721,0.23952 0.57828,0.27888 0.7302,0.18231 0.15201,-0.0967 0.22012,-0.32574 0.22385,-0.59678 0.008,-0.54205 -0.23593,-1.27561 -0.54,-1.54436 0.18673,-0.28237 0.23969,-0.52107 0.21819,-0.75608 -0.0216,-0.23493 -0.11247,-0.44424 -0.27974,-0.61536 -0.33461,-0.34235 -0.88879,-0.56076 -1.43025,-0.54966 -0.3045,0.0662 -0.51283,0.0705 -0.63194,-0.008 -0.11921,-0.0787 -0.17918,-0.24489 -0.18649,-0.41032 -0.0146,-0.33087 0.12158,-0.75884 0.1143,-1.08961 -0.61007,-1.26573 -1.39149,-2.44427 -2.13004,-3.63972 l -0.2827,-0.0142 -0.38018,10e-4 -0.28768,0.0166 -0.98623,0.0293 -0.0616,-0.01 -0.22598,0.0266 -0.63196,-0.008 -0.22592,0.0268 -0.28267,-0.0142 -0.34929,0.008 -0.34422,-0.0245 -0.0924,-0.0168 -0.0974,0.0156 -0.0923,-0.0168 -0.22088,-0.005 -0.25177,-0.009 -0.0975,0.0157 -0.01,0.0615 -0.009,0.0306 -0.0358,0.026 -0.0458,0.0874 -0.0718,0.0516 -0.0869,0.14412 -0.041,0.0567 -0.041,0.0566 -0.57025,0.002 -1.67996,0.0113 -1.17132,-8.9e-4 -1.23308,-0.0113 -0.72943,0.007 -0.0307,-0.009 -0.0616,-0.01 -1.29479,-0.0212 -0.76031,0.003 -0.66789,0.0177 -1.23799,0.0198 -0.22086,-0.005 -0.18526,-0.0295 -0.0666,0.0209 -0.0307,-0.009 -0.38017,0.001 -0.1284,0.0112 -0.95045,0.003 -0.12837,0.0112 -0.0974,0.0156 -0.57014,0.002 -0.79125,-0.003 -0.22593,0.0268 c 0.0189,0.31199 0.0509,0.61776 0.0704,0.92959 0.0421,0.67947 0.13349,1.33036 0.41802,1.90444 0.35509,0.0272 0.69044,-0.18205 0.99496,-0.47118 0.30452,-0.2891 0.57034,-0.64644 0.85437,-0.96894 0.28405,-0.32266 0.57722,-0.60855 0.87087,-0.68152 0.29362,-0.0729 0.59354,0.07 0.92672,0.53088 0.10444,0.3925 0.2761,0.64628 0.50134,0.80991 0.22523,0.16363 0.49005,0.22593 0.78183,0.25399 0.58351,0.0557 1.2492,-0.07 1.77244,0.004 0.19048,0.49221 -0.03,1.23864 -0.0809,1.85488 -0.0237,0.30821 -0.0133,0.59306 0.1262,0.78042 0.13969,0.18741 0.42023,0.30372 0.87442,0.26905 0.45661,-0.41793 1.02716,-0.72855 1.61538,-0.78181 0.2942,-0.0266 0.58832,-0.002 0.86859,0.10999 0.28042,0.11169 0.55306,0.32199 0.7883,0.60333 0.13483,0.31933 0.36815,0.52715 0.6448,0.70654 0.27677,0.17943 0.60161,0.30446 0.87518,0.45918 0.27349,0.15465 0.50857,0.33298 0.634,0.5782 0.12542,0.24515 0.13028,0.55618 -0.0376,1.00708 -0.16934,1.28325 -0.36286,2.59391 -0.62793,3.85543 -0.53115,-0.15758 -1.0557,-0.13336 -1.6031,-0.071 -0.54746,0.0618 -1.11918,0.16617 -1.66918,0.13982 -0.61273,-0.0949 -1.29408,-0.30092 -1.91737,-0.28101 -0.31161,0.009 -0.60438,0.0895 -0.86212,0.23954 -0.25784,0.1499 -0.49368,0.38352 -0.66004,0.74744 -0.23937,0.43273 -0.92217,0.92316 -1.30485,1.40217 -0.19138,0.23954 -0.29012,0.47807 -0.23889,0.68927 0.0511,0.21126 0.25226,0.40621 0.73161,0.56252 0.062,0.26127 -0.0102,0.50294 -0.17719,0.69929 -0.16735,0.19637 -0.42073,0.34808 -0.71231,0.48551 -0.5832,0.27504 -1.31218,0.42928 -1.76025,0.50494 -0.36675,-0.002 -0.64703,0.12197 -0.87236,0.30116 -0.22525,0.17924 -0.40285,0.42682 -0.5573,0.70074 -0.30911,0.54807 -0.53523,1.18751 -0.98571,1.58093 -0.0478,0.26818 -0.19428,0.42753 -0.373,0.54088 -0.17884,0.11322 -0.3744,0.17863 -0.57966,0.25381 -0.20523,0.0752 -0.40151,0.17168 -0.52791,0.32569 -0.12646,0.15385 -0.2089,0.38563 -0.1515,0.7352 -0.40724,0.19233 -0.63927,0.48626 -0.79843,0.81971 -0.15908,0.33355 -0.23599,0.69297 -0.35577,1.01868 -0.65179,0.24085 -1.25427,0.62367 -1.81986,1.065 -0.56568,0.44131 -1.08994,0.9379 -1.5668,1.45458 -0.41837,0.52284 -0.46272,1.0676 -0.23111,1.4188 0.11582,0.17561 0.30373,0.32595 0.54084,0.37307 0.23718,0.0468 0.51627,-0.008 0.84713,-0.14703 0.25129,-0.15006 0.26481,-0.48556 0.34145,-0.736 0.0383,-0.12513 0.0914,-0.20741 0.19947,-0.2524 0.10814,-0.0451 0.27582,-0.0507 0.5294,0.0548 0.53496,0.0795 1.07027,0.4214 1.58445,0.57455 0.25712,0.0766 0.51472,0.0944 0.75532,0.0277 0.2406,-0.0663 0.47496,-0.23574 0.69157,-0.55233 0.59274,-0.17263 1.1214,0.10309 1.64535,0.39463 0.52403,0.2916 1.04095,0.62472 1.64119,0.61559 0.68936,0.28187 1.26461,0.85945 1.87494,1.31852 0.30517,0.22956 0.60969,0.42028 0.95761,0.53592 0.34785,0.11561 0.73409,0.13543 1.16628,0.0315 0.24331,0.20012 0.13937,0.65491 0.12185,1.00131 -0.008,0.17314 0.002,0.30845 0.0939,0.39524 0.0924,0.0868 0.26097,0.11037 0.5652,0.0292 0.31955,-0.0291 0.49371,0.0854 0.59177,0.25463 0.098,0.16909 0.11621,0.41439 0.11046,0.68295 l 0.10759,-0.0775 0.01,-0.0616 0.11255,-0.10832 0.16933,-0.0672 0.0306,0.009 0.0666,-0.021 0.0926,0.0168 0.0618,0.01 0.0358,-0.0258 0.13846,-0.0725 0.0457,-0.0874 0.0258,-0.15417 0.051,-0.11834 0.10269,-0.0464 0.0168,-0.0924 -0.0258,-0.0357 0.01,-0.0618 0.11761,-0.13908 0.0667,-0.0208 0.0306,0.009 0.14277,-0.29346 0.051,-0.11836 0.0719,-0.0515 0.16924,-0.0674 0.12841,-0.0112 0.15917,-0.006 0.0307,0.009 0.0617,0.01 0.0306,0.009 0.12347,0.0197 0.2002,-0.0623 0.20506,-0.0932 0.0924,0.0168 0.0306,0.009 0.36882,-0.31989 0.01,-0.0618 0.14848,-0.13408 0.34352,-0.16576 0.17435,-0.0984 0.15853,-0.19576 0.0197,-0.12346 0.15929,-0.006 0.0973,-0.0155 0.0719,-0.0516 0.17502,0.0916 0.30776,-0.13984 0.0874,0.0458 0.2158,0.0357 0.0668,-0.0209 0.31271,-0.17064 0.0616,0.01 0.0618,0.01 0.0975,-0.0156 0.2926,-0.0474 0.19512,-0.0316 0.0567,0.0409 0.0974,-0.0157 z"
       id="TN-02"
       style="font-style:normal;font-weight:400;font-size:34.375px;font-family:'MS Shell Dlg 2';opacity:1;fill:none;fill-opacity:1;fill-rule:evenodd;stroke:#000000;stroke-width:0.33333385;stroke-linecap:square;stroke-linejoin:bevel;stroke-miterlimit:4;stroke-dasharray:none;stroke-opacity:1" />
    <path
       inkscape:connector-curvature="0"
       d="m 245.87022,431.83872 c 0.007,-0.26854 -0.0125,-0.51389 -0.11046,-0.68294 -0.0979,-0.16898 -0.27222,-0.28375 -0.59175,-0.25463 -0.3043,0.0816 -0.47289,0.0581 -0.56522,-0.0292 -0.0924,-0.0867 -0.10262,-0.22208 -0.0939,-0.39524 0.0177,-0.3464 0.12113,-0.80125 -0.12187,-1.00132 -0.43222,0.10378 -0.81843,0.084 -1.16627,-0.0315 -0.34796,-0.11562 -0.65245,-0.30637 -0.95761,-0.5359 -0.61036,-0.45909 -1.18558,-1.03665 -1.87496,-1.31852 -0.60025,0.01 -1.11714,-0.32399 -1.64116,-0.61563 -0.52397,-0.29151 -1.05262,-0.56727 -1.64538,-0.39458 -0.2166,0.31658 -0.45097,0.486 -0.69157,0.5523 -0.24057,0.0663 -0.49817,0.0486 -0.75531,-0.0277 -0.51419,-0.1531 -1.04957,-0.49442 -1.58447,-0.57453 -0.25356,-0.10526 -0.42129,-0.0996 -0.52938,-0.0548 -0.10813,0.0449 -0.16104,0.12726 -0.19946,0.25242 -0.0766,0.25041 -0.09,0.58595 -0.34145,0.73598 -0.33084,0.13842 -0.61002,0.19405 -0.84715,0.14705 -0.23719,-0.0468 -0.425,-0.19749 -0.54084,-0.37309 -0.23169,-0.35121 -0.18733,-0.89597 0.23112,-1.4188 0.47686,-0.51668 1.00109,-1.01327 1.56676,-1.45459 0.56563,-0.44131 1.16808,-0.82415 1.8199,-1.06502 0.11976,-0.32567 0.19663,-0.6851 0.35575,-1.01862 0.15918,-0.33348 0.39122,-0.62741 0.79844,-0.81974 -0.0574,-0.34958 0.0249,-0.58136 0.15151,-0.7352 0.12639,-0.15401 0.32264,-0.25051 0.52789,-0.32568 0.20527,-0.0752 0.40084,-0.14061 0.57966,-0.25383 0.17873,-0.11333 0.32566,-0.27259 0.37299,-0.54088 0.4505,-0.3934 0.67663,-1.03287 0.98574,-1.58091 0.15443,-0.27393 0.33204,-0.5215 0.55727,-0.70073 0.22536,-0.1792 0.50563,-0.3057 0.87236,-0.30118 0.4481,-0.0757 1.17708,-0.22992 1.76027,-0.50493 0.29158,-0.13744 0.54496,-0.28918 0.71229,-0.48553 0.16735,-0.19636 0.23941,-0.438 0.17719,-0.6993 -0.47932,-0.15625 -0.6804,-0.35121 -0.73158,-0.56251 -0.0511,-0.2112 0.0473,-0.44973 0.23888,-0.68926 0.38267,-0.47902 1.06548,-0.96945 1.30485,-1.40217 0.16636,-0.36392 0.40221,-0.59754 0.66005,-0.74744 0.25775,-0.14992 0.55054,-0.22941 0.8621,-0.23955 0.62336,-0.0201 1.30463,0.1862 1.91738,0.28101 0.55,0.0266 1.12172,-0.078 1.66917,-0.1398 0.54735,-0.0619 1.07195,-0.0866 1.60311,0.071 0.26507,-1.26151 0.45814,-2.57222 0.62794,-3.85541 0.16767,-0.45092 0.1628,-0.76193 0.0376,-1.00707 -0.1254,-0.24524 -0.36051,-0.42357 -0.63401,-0.57824 -0.27355,-0.1547 -0.59842,-0.27972 -0.87516,-0.45915 -0.27666,-0.17941 -0.51,-0.38722 -0.6448,-0.70652 -0.23524,-0.28139 -0.50789,-0.49164 -0.78827,-0.60337 -0.28031,-0.11167 -0.57445,-0.13644 -0.86865,-0.10988 -0.58819,0.0534 -1.15874,0.36387 -1.61535,0.7818 -0.45419,0.0347 -0.73475,-0.0815 -0.87442,-0.26906 -0.1396,-0.18736 -0.15116,-0.47233 -0.12622,-0.78042 0.0499,-0.61631 0.27094,-1.36268 0.0809,-1.85487 -0.52326,-0.0735 -1.18899,0.0525 -1.77243,-0.004 -0.29184,-0.0276 -0.55658,-0.0908 -0.78184,-0.254 -0.22524,-0.16362 -0.39686,-0.41742 -0.50136,-0.80992 -0.33326,-0.46005 -0.63306,-0.60371 -0.92669,-0.53085 -0.29365,0.073 -0.58682,0.35884 -0.87087,0.68148 -0.28404,0.32253 -0.54984,0.67984 -0.85437,0.96896 -0.30455,0.28911 -0.63991,0.49884 -0.99496,0.47119 -0.28452,-0.57409 -0.3761,-1.22498 -0.41802,-1.90447 -0.0194,-0.31181 -0.0516,-0.61762 -0.0704,-0.92956 l -3.34992,-0.0391 -0.38016,10e-4 -0.0923,-0.0168 -0.0307,-0.009 -0.0358,0.026 -0.18518,-0.0294 -1.14049,0.004 -0.44688,0.0223 -0.50858,0.0124 -0.44187,-0.009 -0.97619,-0.0321 -0.44195,-0.009 -0.31841,0.0104 -0.0924,-0.0168 -0.44188,-0.009 -2.65111,-0.0518 -0.0307,-0.009 c 0.10697,0.18878 0.16475,0.38003 0.28976,0.5538 0.0276,0.0383 0.0584,0.0933 0.0725,0.13845 0.14735,0.47262 0.31791,1.00903 0.67339,1.50278 0.37785,0.52487 0.20919,0.77216 0.26746,1.46839 0.0403,0.48195 0.48886,0.94163 0.88367,1.37866 0.3836,0.42479 0.42289,0.50333 0.32056,0.5588 -0.10216,0.0555 -0.33978,0.0888 -0.5739,0.41313 -0.28826,0.39945 -0.99053,0.69094 -1.208,1.19636 -0.16256,0.37779 -0.22554,0.64079 -0.35147,0.79757 -0.12595,0.15693 -0.32408,0.22496 -0.73885,0.25963 -0.73371,0.0614 -0.7852,0.5089 -1.45616,0.77602 -0.32613,0.12987 -0.42618,0.25034 -0.4814,0.42818 -0.055,0.17795 -0.0624,0.39493 -0.21807,0.75609 -0.29178,0.67792 -0.10324,0.94753 -0.0457,1.63902 0.0172,0.20564 0.13776,0.57257 0.32205,0.93895 0.18428,0.36639 0.41483,0.7232 0.68639,0.83997 0.47465,0.20425 0.76109,0.41444 1.09234,0.87457 0.3729,0.51796 0.58177,0.75147 1.10389,1.19294 0.5386,0.4554 0.98038,1.31185 1.40502,2.0651 0.1396,0.24767 0.37478,0.51078 0.53223,0.81496 0.15745,0.30416 0.24524,0.63791 0.0909,0.99637 -0.17911,0.41613 -0.4928,0.86049 -0.86877,1.25164 -0.37584,0.39108 -0.8262,0.72704 -1.322,0.9245 -0.0938,0.0375 -0.21663,0.14124 -0.31774,0.20156 0.30308,0.37246 0.62886,0.72815 0.89288,1.12689 -0.21449,0.40001 -0.1828,0.75695 -0.006,1.01213 0.17637,0.25519 0.49643,0.42126 0.90587,0.46413 0.11007,0.2753 0.30996,0.59579 0.54227,0.75318 0.23231,0.15748 0.50223,0.14686 0.79552,-0.21868 0.19208,-0.20479 0.34607,-0.25003 0.47198,-0.17644 0.12589,0.0737 0.22926,0.26956 0.2998,0.49211 0.14098,0.44515 0.1803,1.05974 0.16416,1.32479 0.0323,0.56442 -0.22109,0.95288 -0.56034,1.30186 -0.33913,0.34914 -0.77325,0.66123 -1.02864,1.06733 -0.25086,0.50526 -0.46447,1.02357 -0.72381,1.52853 -0.25944,0.50497 -0.56696,0.97598 -1.01226,1.35491 -0.75055,0.82927 -1.40211,1.74554 -2.07605,2.63813 -0.18531,0.23637 -0.25808,0.43375 -0.22888,0.62765 0.029,0.19383 0.15991,0.38562 0.32569,0.52791 0.33147,0.28459 0.84586,0.43381 1.25516,0.45772 0.41535,0.036 1.03422,0.21043 1.44029,0.48785 0.20315,0.13876 0.34737,0.30572 0.39241,0.50718 0.045,0.20144 0.009,0.42837 -0.20812,0.69436 -0.23455,0.44975 -0.60349,0.74156 -0.9877,1.01059 -0.38437,0.26901 -0.78863,0.50813 -1.09118,0.86709 -0.27316,0.5245 -0.40766,1.1576 -0.56889,1.74382 -0.16117,0.58612 -0.37046,1.12193 -0.82141,1.54423 -0.34514,0.19069 -0.68304,0.26101 -0.98057,0.18866 -0.29754,-0.0725 -0.53756,-0.25972 -0.72158,-0.62412 -0.3709,-0.0442 -0.82297,-0.10769 -1.12617,-0.27844 -0.15161,-0.0849 -0.26986,-0.21 -0.31991,-0.36871 -0.0501,-0.15872 -0.0386,-0.3617 0.0701,-0.62185 0.0665,-0.90156 0.39086,-1.72682 0.67373,-2.58155 0.28287,-0.85466 0.51593,-1.7315 0.43199,-2.65247 0.11313,-0.48501 -0.10937,-1.01335 -0.47763,-1.34426 -0.36817,-0.33099 -0.867,-0.44717 -1.33128,-0.18498 0.0245,-0.57254 -0.24412,-0.9981 -0.64194,-1.30768 -0.3978,-0.30955 -0.93419,-0.50187 -1.41518,-0.64212 -0.47881,-0.0784 -0.53423,0.17653 -0.99708,-0.0987 l -1.55965,3.35536 -3.35091,5.2168 c -0.13616,0.30802 -0.2309,0.60525 -0.14566,0.8944 0.0886,0.36915 -0.0138,0.36271 0.24388,0.64135 0.25105,0.10953 0.41587,0.30947 0.40813,0.60467 10e-4,0.3606 -0.2474,0.86579 -0.65425,0.90664 -0.29782,0.0307 -0.43,0.2109 -0.50716,0.39235 -0.0771,0.18138 -0.11746,0.37704 -0.27045,0.49418 -0.34979,0.3939 -0.50933,0.32229 -0.93253,0.67131 -0.0602,0.0442 -0.0697,0.12221 -0.12267,0.16999 l 0.0974,-0.0156 0.34424,0.0245 0.60616,-0.0277 0.38017,-0.001 0.0306,0.009 0.31857,-0.0104 0.0306,0.009 0.19009,-0.001 0.34926,-0.008 0.0975,-0.0157 0.0306,0.009 0.41103,0.003 0.0307,0.009 0.009,-0.0306 0.0306,0.009 0.0306,0.009 0.0617,0.01 0.2876,-0.0166 0.44689,-0.0222 0.0616,0.01 0.0976,-0.0157 0.1284,-0.0112 0.0306,0.009 0.15919,-0.006 0.0924,0.0168 0.0306,0.009 0.0975,-0.0157 0.0306,0.009 0.0976,-0.0158 0.15915,-0.006 0.25177,0.009 0.28769,-0.0167 0.15926,-0.006 0.12843,-0.0112 0.0616,0.01 0.12843,-0.0112 0.0307,0.009 0.0617,0.01 0.0358,-0.026 0.12347,0.0196 0.12839,-0.0112 0.0923,0.0168 0.0358,-0.0258 0.0924,0.0168 0.22601,-0.0267 0.12345,0.0196 0.12839,-0.0112 0.63698,-0.023 0.18996,-10e-4 0.28269,0.0142 0.0359,-0.0258 0.0306,0.009 0.50856,-0.0112 0.15406,0.0258 0.28769,-0.0167 0.0307,0.009 0.41601,-0.0274 0.0306,0.009 0.41102,0.003 0.1901,-0.001 1.33561,-0.0357 0.0667,-0.0209 0.5086,-0.0112 0.25176,0.009 0.12839,-0.0112 0.19008,-10e-4 0.91964,-0.009 0.0922,0.0168 0.009,-0.0306 0.60106,0.002 0.0617,0.01 0.63697,-0.023 0.1592,-0.006 0.0924,0.0168 0.0616,0.01 0.15928,-0.006 0.0359,-0.0258 0.0306,0.009 0.76032,-0.003 0.22605,-0.0268 0.63194,0.008 0.15918,-0.006 0.0975,-0.0156 1.04289,0.0115 1.33563,-0.0357 0.0923,0.0168 1.24314,-0.0507 1.36153,6e-5 1.26889,-0.0155 1.39732,-0.0253 0.0358,-0.0258 0.0306,0.009 0.22097,0.005 0.19006,-0.001 0.0667,-0.021 0.28259,0.0142 0.2877,-0.0166 0.0667,-0.0209 0.50856,-0.0124 0.0839,-0.90455 0.009,-0.0306 -0.006,-0.15918 0.0357,-0.21592 0.0784,-1.06374 0.0293,-0.18519 0.0305,-0.37508 0.009,-0.0306 0.0642,-0.78116 0.11843,-1.31053 0.009,-0.0306 0.0654,-0.40099 0.009,-0.0307 0.0443,-0.65769 0.0496,-0.49852 0.0307,0.009 0.10761,-0.0776 0.036,-0.0258 0.15856,-0.19588 0.34863,-0.19652 0.0559,-0.14913 0.10768,-0.0776 0.21018,-0.12403 0.0718,-0.0516 0.20439,-0.28334 0.0767,-0.0824 0.10259,-0.0463 0.15416,0.0258 0.11335,0.0817 0.0306,0.009 0.12906,0.17934 -0.009,0.0307 0.0517,0.0718 0.0266,0.226 0.0517,0.0718 0.0258,0.036 0.15919,-0.006 0.0776,0.10759 0.25677,-0.0213 0.01,-0.0618 0.14348,-0.10329 0.0616,0.01 0.18005,0.0608 0.009,-0.0307 0.0358,-0.0258 0.072,-0.0516 0.12344,0.0196 0.15921,-0.006 0.0925,0.0168 0.0922,0.0168 0.0566,0.0409 0.0618,0.01 0.0359,-0.026 0.0306,0.009 0.01,-0.0616 0.0457,-0.0876 0.009,-0.0307 0.0975,-0.0156 0.12842,-0.0112 0.0257,0.0359 0.0307,0.009 0.0975,-0.0157 0.12344,0.0197 0.026,0.0359 0.0923,0.0168 0.0359,-0.0259 0.0719,-0.0515 0.0306,0.009 0.0359,-0.0258 0.1176,-0.13917 0.041,-0.0565 0.009,-0.0306 0.0411,-0.0567 0.009,-0.0306 0.0305,0.009 0.13344,-0.0418 0.0667,-0.0208 0.17435,-0.0984 0.19501,-0.0317 0.0409,-0.0567 0.26105,-0.24241 0.14278,-0.29345 0.14349,-0.1033 0.0358,-0.0258 0.0769,-0.0824 0.0559,-0.14913 -0.11899,-0.24107 -0.0568,-0.0409 -0.12347,-0.0197 -0.0259,-0.0357 -0.0112,-0.1284 0.066,-0.21095 0.009,-0.0306 0.01,-0.0618 0.0411,-0.0566 0.0168,-0.0926 -0.0515,-0.0718 -0.0259,-0.0361 -0.13986,-0.30769 0.009,-0.0306 0.0718,-0.0518 0.23596,-0.0881 0.0307,0.009 0.0818,-0.1133 0.01,-0.0617 0.0869,-0.14421 0.15856,-0.19577 0.009,-0.0306 -0.006,-0.15929 -0.0464,-0.10251 0.009,-0.0307 -0.0307,-0.009 0.009,-0.0306 0.01,-0.0616 0.0458,-0.0874 -0.15501,-0.21532 0.009,-0.0306 -0.0923,-0.0168 -0.026,-0.0359 -0.0463,-0.10269 -0.0157,-0.0975 0.01,-0.0614 0.10252,-0.0466 0.0668,-0.0208 0.0458,-0.0875 0.15349,-0.16485 0.0718,-0.0517 0.041,-0.0566 0.01,-0.0616 0.0197,-0.12346 0.041,-0.0565 0.0869,-0.14424 0.21019,-0.12413 0.1177,-0.1391 0.13342,-0.0417 -0.0156,-0.0975 0.0458,-0.0874 0.0306,0.009 0.0616,0.01 0.0359,-0.0258 0.11256,-0.1083 -0.0156,-0.0975 0.009,-0.0306 0.0668,-0.0209 0.0566,0.041 0.0518,0.0717 0.0974,-0.0156 0.0359,-0.0257 0.009,-0.0307 z"
       id="TN-03"
       style="font-style:normal;font-weight:400;font-size:34.375px;font-family:'MS Shell Dlg 2';opacity:1;fill:none;fill-opacity:1;fill-rule:evenodd;stroke:#000000;stroke-width:0.33333385;stroke-linecap:square;stroke-linejoin:bevel;stroke-miterlimit:4;stroke-dasharray:none;stroke-opacity:1" />
    <path
       inkscape:connector-curvature="0"
       d="m 210.77168,445.94278 c 0.0531,-0.0477 0.0624,-0.12599 0.12268,-0.16999 0.42319,-0.349 0.58274,-0.27743 0.93252,-0.67133 0.15293,-0.11715 0.19328,-0.31279 0.27045,-0.49415 0.0771,-0.18145 0.20935,-0.36155 0.50717,-0.39237 0.40684,-0.0409 0.65437,-0.54602 0.65426,-0.90663 0.008,-0.29521 -0.15708,-0.49519 -0.40813,-0.60466 -0.25775,-0.27866 -0.15526,-0.27222 -0.24389,-0.64134 -0.0853,-0.28916 0.009,-0.58641 0.14564,-0.89444 l 3.35094,-5.2168 1.55963,-3.35532 c 0.46284,0.27548 0.51833,0.0191 0.99707,0.0986 0.48103,0.1402 1.01739,0.33255 1.41519,0.64213 0.39781,0.30956 0.66671,0.73513 0.64195,1.30769 0.46424,-0.26199 0.96306,-0.14579 1.33127,0.18495 0.3682,0.33091 0.59079,0.85923 0.47762,1.34426 0.0839,0.92098 -0.14919,1.79782 -0.43199,2.65246 -0.28286,0.85475 -0.60745,1.68001 -0.67371,2.58158 -0.1082,0.26018 -0.11965,0.46317 -0.0701,0.62183 0.0502,0.15872 0.16832,0.28365 0.3199,0.36871 0.30329,0.17026 0.75515,0.23565 1.12619,0.27843 0.18401,0.36443 0.42405,0.55165 0.72156,0.62411 0.29754,0.0723 0.63544,0.002 0.98057,-0.18862 0.45095,-0.4223 0.66021,-0.95814 0.82143,-1.54427 0.16116,-0.5862 0.29574,-1.21928 0.56889,-1.74382 0.30254,-0.35893 0.70683,-0.59804 1.09118,-0.86709 0.38422,-0.269 0.75314,-0.56083 0.98767,-1.01056 0.21687,-0.26601 0.25312,-0.4929 0.20813,-0.69438 -0.0451,-0.20146 -0.18924,-0.3684 -0.39238,-0.50716 -0.40609,-0.27746 -1.02501,-0.45113 -1.4403,-0.48787 -0.40935,-0.023 -0.92369,-0.17313 -1.25517,-0.45768 -0.16577,-0.14233 -0.29643,-0.33414 -0.32565,-0.52793 -0.0292,-0.19391 0.044,-0.39126 0.22886,-0.62768 0.67393,-0.89257 1.32549,-1.80887 2.07604,-2.63809 0.44529,-0.37895 0.7528,-0.84996 1.01226,-1.35492 0.25935,-0.50498 0.47294,-1.02326 0.7238,-1.52853 0.25543,-0.40611 0.68954,-0.71819 1.02863,-1.06732 0.33925,-0.349 0.59248,-0.73748 0.56037,-1.30185 0.0174,-0.26498 -0.0231,-0.87968 -0.16417,-1.32483 -0.0706,-0.22254 -0.17389,-0.41848 -0.29981,-0.49208 -0.1259,-0.0736 -0.27982,-0.0289 -0.47199,0.17644 -0.29326,0.36548 -0.5632,0.37614 -0.7955,0.21867 -0.23233,-0.15741 -0.43221,-0.4779 -0.54227,-0.75319 -0.40946,-0.0427 -0.72949,-0.20897 -0.90588,-0.46413 -0.17639,-0.25516 -0.20803,-0.6121 0.006,-1.01213 -0.26403,-0.39872 -0.58978,-0.75442 -0.89285,-1.12689 -0.28556,0.17002 -0.57127,0.35357 -0.88669,0.58379 -0.42717,0.31178 -0.85278,0.61905 -1.24596,0.65187 -0.77834,0.0652 -2.2389,0.93357 -2.67346,0.8628 -0.55932,-0.0915 -1.13701,-0.18522 -1.69637,-0.27634 -0.58993,-0.0959 -3.80473,-0.55569 -4.19843,-0.27204 -0.29882,-0.34452 -0.62668,-0.48636 -0.98329,-0.57178 -0.35668,-0.0854 -0.75336,-0.12269 -1.23375,-0.20094 -0.96004,-0.15639 -1.67348,0.101 -2.18208,0.37279 -0.50862,0.27187 -0.8196,0.56316 -0.91246,0.54804 -0.61717,-0.10049 -1.40997,-0.0789 -1.97401,-0.32146 -0.61231,-0.26357 -1.12634,-0.81486 -1.72502,-1.07256 -0.37354,-0.16072 -1.07051,-0.49096 -1.55363,-0.56961 -0.54379,-0.0889 -1.29092,-0.34825 -1.85063,-0.30139 -0.64054,0.0536 -1.13874,-0.11365 -1.65412,0.0471 -0.65566,0.20446 -1.18477,0.25365 -1.60607,0.53002 -0.42129,0.2763 -0.72666,0.7685 -0.89238,1.78598 -0.01,0.0659 -0.001,0.12386 -0.0293,0.18514 -0.16507,0.38328 -0.31429,0.9294 -0.39541,1.4554 -0.0803,0.52612 -0.10132,1.03688 0.0204,1.42819 0.19715,0.63232 0.94969,1.62863 1.62741,2.44968 0.67774,0.821 1.27979,1.47296 1.27956,1.47485 -0.0673,0.89895 -0.005,2.9904 -0.3633,4.56343 -0.17888,0.78649 -0.46924,1.44668 -0.91827,1.75014 -0.2245,0.1518 -0.47377,0.23837 -0.79047,0.18791 -0.31663,-0.051 -0.69149,-0.22327 -1.11679,-0.53023 -0.30536,-0.22034 -0.57722,-0.45461 -0.88087,-0.61832 -0.30352,-0.16372 -0.63899,-0.25708 -1.01276,-0.19673 -1.21225,0.19598 -1.80636,0.21251 -3.04135,0.0113 -0.25084,-0.0399 -0.55587,-0.11741 -0.78185,-0.25394 -0.22599,-0.13651 -0.35746,-0.34961 -0.27469,-0.64626 0.2568,-0.92051 0.21298,-2.16309 0.58977,-3.03842 0.16771,-0.38971 0.15682,-0.70567 0.1045,-1.0279 -0.0528,-0.32225 -0.15349,-0.65195 -0.18362,-1.01137 -0.0428,-0.51276 -0.26111,-1.22854 -0.38216,-1.93032 -0.12108,-0.7018 -0.15952,-1.37916 0.17298,-1.83992 0.18411,-0.0964 0.30927,-0.0464 0.45125,-0.24303 0.0832,-0.11531 0.79306,-1.17611 0.8271,-1.38506 0.10191,-0.62505 0.20462,-1.25644 0.30645,-1.8815 0.0863,-0.53096 -0.0893,-1.54816 0.22894,-1.98907 0.0455,-0.0633 0.38835,-0.43117 0.58242,-0.85498 0.0971,-0.21187 0.16024,-0.44738 0.13625,-0.64267 -0.0239,-0.19537 -0.14704,-0.36863 -0.39728,-0.47634 -0.37863,-0.16299 -1.01535,-0.26031 -1.55803,-0.34868 -0.73372,-0.11959 -1.19603,-0.41503 -1.70854,-0.78485 -0.22341,-0.1612 -0.85765,-0.4728 -1.07663,-0.77697 -0.21614,-0.30023 -0.66809,-0.57395 -1.13828,-0.78699 -0.47018,-0.21296 -0.95058,-0.37639 -1.29118,-0.43186 -0.48207,-0.0789 -0.88978,-0.18658 -1.19858,-0.41679 -0.0423,-0.0316 -0.0639,-0.10762 -0.10328,-0.14345 -0.0206,0.0923 -0.0185,0.16732 -0.0393,0.24682 -0.0555,0.20393 -0.10849,0.34678 -0.18366,0.35006 -0.0751,0.004 -0.16528,-0.12483 -0.2689,-0.48719 -0.16793,-0.2013 -0.31294,-0.0622 -0.46698,0.14566 -0.15401,0.20784 -0.31757,0.48554 -0.52724,0.51573 -0.2197,0.9013 -0.69919,1.72211 -0.84307,2.64894 l 0,0 c -8.7e-4,0.0104 -7.3e-4,0.0208 -0.009,0.0306 -0.21553,0.64953 -0.17759,1.33992 -0.10607,2.00914 0.0716,0.66923 0.16852,1.32005 0.0894,1.9776 -0.45556,0.0719 -0.71891,0.35313 -0.93743,0.70214 -0.21868,0.34908 -0.37433,0.77299 -0.6536,1.09678 -0.32463,0.25141 -0.34612,0.70314 -0.42256,1.03932 -0.0383,0.16814 -0.0895,0.31803 -0.21951,0.3759 -0.12994,0.0579 -0.32374,0.0346 -0.64773,-0.10546 -1.67895,-0.19299 -3.11815,-1.23376 -4.80862,-1.38475 -0.28586,-0.14495 -0.82465,-0.42194 -1.25036,-0.48853 -0.2127,-0.0342 -0.39279,0.001 -0.49272,0.10958 -0.1,0.10868 -0.11955,0.30002 -0.008,0.63196 0.34213,0.32673 0.69814,0.66528 0.8722,1.06028 0.17408,0.39503 0.17197,0.83543 -0.2468,1.32122 -0.19938,0.5647 -0.62411,0.97547 -1.11545,1.21146 -0.49134,0.23608 -1.06609,0.31118 -1.62255,0.24231 -0.44132,0.36016 -1.00026,0.42516 -1.53433,0.4784 -0.53412,0.0532 -1.03565,0.0923 -1.43182,0.43167 -0.11223,0.51284 -0.555,0.64114 -0.92178,0.79984 -0.18339,0.0791 -0.37387,0.16261 -0.46118,0.30483 -0.0874,0.1421 -0.0923,0.33099 0.023,0.63698 -0.0348,0.52397 -3.3e-4,1.07004 0.20567,1.45821 0.10306,0.19407 0.2604,0.36206 0.46412,0.45553 0.20372,0.0935 0.44971,0.11535 0.78117,0.0641 0.50692,0.146 1.03332,0.15384 1.53645,0.0912 0.50303,-0.0613 0.99346,-0.17064 1.47329,-0.29825 1.02243,0.55983 2.09717,0.98125 3.28165,1.04103 0.43591,-0.0532 0.70048,0.0487 0.84354,0.26403 0.14305,0.21529 0.15694,0.54248 0.0393,0.92456 0.10672,0.52845 0.396,0.96836 0.76027,1.35867 0.36421,0.3903 0.79604,0.74363 1.22655,1.02293 l 0.1391,0.11762 0.12903,0.17938 -0.3914,8.04166 0.34425,0.0245 0.0359,-0.0258 0.0616,0.01 0.76033,-0.003 1.29469,0.0213 0.15928,-0.006 1.04298,0.0115 0.0615,0.01 0.0975,-0.0155 0.25177,0.009 0.41096,0.003 0.9763,0.0322 0.25681,-0.0213 0.40596,0.0341 0.34935,-0.008 0.0307,0.009 0.60116,0.002 0.1284,-0.0112 0.822,0.008 0.34427,0.0245 0.1284,-0.0112 0.79124,0.003 0.12838,-0.0112 0.72947,-0.007 0.44195,0.009 1.3305,-0.005 0.0307,0.009 0.19008,-0.001 1.32559,0.0258 1.13548,0.0267 0.60105,0.002 0.60116,0.002 0.0306,0.009 1.83422,0.014 0.15919,-0.006 0.12841,-0.0112 3.03634,0.0192 0.60113,0.002 0.15919,-0.006 0.79115,0.003 0.0617,0.01 0.76035,-0.003 0.0923,0.0168 0.0616,0.01 0.31851,-0.0104 0.0307,0.009 0.22086,0.005 0.66284,0.0135 0.85283,0.0128 0.12839,-0.0112 0.0922,0.0168 0.47277,0.0132 0.0618,0.01 0.0974,-0.0157 0.0307,0.009 1.89581,0.0239 0.0307,0.009 0.15917,-0.006 1.2022,0.006 0.88372,0.0171 0.41104,0.003 0.53939,-0.006 0.0617,0.01 0.0307,0.009 z"
       id="TN-04"
       style="font-style:normal;font-weight:400;font-size:34.375px;font-family:'MS Shell Dlg 2';opacity:1;fill:none;fill-opacity:1;fill-rule:evenodd;stroke:#000000;stroke-width:0.33333385;stroke-linecap:square;stroke-linejoin:bevel;stroke-miterlimit:4;stroke-dasharray:none;stroke-opacity:1" />
    <path
       inkscape:connector-curvature="0"
       d="m 186.74189,415.0219 c -0.24755,-0.22615 -0.43327,-0.49783 -0.5737,-0.94835 -0.18631,-0.59782 -0.47508,-0.91323 -0.66848,-1.53361 -0.14254,-0.45735 -0.36288,-0.883 -0.39507,-1.26759 -0.0251,-0.29922 -0.0339,-0.54784 -0.10534,-0.71362 -0.0715,-0.16583 -0.2172,-0.25705 -0.55089,-0.3114 -0.50803,-0.0828 -0.54799,-0.2168 -0.50999,-0.36795 0.0379,-0.15126 0.16824,-0.33006 -0.038,-0.54448 -0.26677,-0.2774 -0.40543,-0.59633 -0.78399,-0.82424 -0.091,-0.0548 -1.73491,-1.42066 -1.79818,-1.40105 0.0337,-0.0787 0.18551,-0.40274 0.1672,-0.63762 -0.0105,-0.11752 -0.0524,-0.20518 -0.18079,-0.25114 -0.12852,-0.0457 -0.35404,-0.0501 -0.6728,0.0487 -0.27846,0.0868 -0.36884,0.31703 -0.49143,0.48987 -0.12258,0.17285 -0.27923,0.30062 -0.62615,0.15133 -0.12451,-0.0538 -0.53467,-0.36582 -0.9526,-0.56668 -0.41791,-0.20102 -0.84553,-0.27845 -0.99125,0.06 -0.20167,0.46868 -0.26017,1.01387 -0.34876,1.5579 -0.029,0.183 -0.46665,1.44386 -0.64204,1.41522 -0.34161,-0.0555 -0.51328,-0.22951 -0.65924,-0.42388 -0.14593,-0.19451 -0.24569,-0.41866 -0.47481,-0.58395 -0.27575,-0.19912 -0.56489,-0.40648 -0.79906,-0.73175 -0.31613,-0.43911 -0.36353,-0.63955 -0.74877,-1.04006 -0.21579,-0.22453 -0.22924,-0.53767 -0.2137,-0.82643 0.0151,-0.28878 0.0615,-0.55911 -0.0537,-0.64198 -0.31232,-0.22543 -0.57135,-0.33458 -0.74166,-0.50073 -0.0587,-0.0571 -0.0425,-0.19405 -0.0833,-0.26683 l -3.41735,2.51468 -0.30355,1.28028 -5.28866,-0.57615 -0.26322,2.39512 -1.00365,2.27445 0.60316,1.93461 -0.24626,2.87279 8.15352,1.45453 0.29718,-2.99115 2.88858,0.34384 0.4676,1.40595 2.46548,-1.52977 3.68543,0.50513 3.5684,2.19598 c 0.14349,-0.92689 0.62332,-1.74763 0.84305,-2.64894 0.20968,-0.0301 0.37325,-0.30791 0.52726,-0.51574 0.15404,-0.20787 0.29907,-0.34695 0.46698,-0.14566 0.10355,0.36238 0.19381,0.49036 0.26889,0.48718 0.0753,-0.004 0.12806,-0.14612 0.18365,-0.35005 0.022,-0.0793 0.0204,-0.15434 0.0395,-0.24682 z"
       id="TN-05"
       style="font-style:normal;font-weight:400;font-size:34.375px;font-family:'MS Shell Dlg 2';opacity:1;fill:none;fill-opacity:1;fill-rule:evenodd;stroke:#000000;stroke-width:0.33333385;stroke-linecap:square;stroke-linejoin:bevel;stroke-miterlimit:4;stroke-dasharray:none;stroke-opacity:1" />
    <path
       inkscape:connector-curvature="0"
       d="m 172.88832,398.99279 c -0.0838,0.41749 -0.18128,0.8941 -0.23674,1.25953 -0.10202,0.6686 -0.13603,1.28688 0.0234,1.99845 0.10377,0.46617 -0.0566,1.14067 -0.0402,1.60825 0.009,0.25448 0.094,0.36456 0.17142,0.50278 l 0,0 c 0.0405,0.0728 0.0244,0.20956 0.0833,0.26685 0.17033,0.16614 0.42935,0.2753 0.74169,0.50072 0.11484,0.0829 0.0691,0.35324 0.0537,0.64198 -0.0152,0.28879 -0.001,0.60191 0.21372,0.82641 0.38524,0.40055 0.43264,0.60094 0.74878,1.04008 0.23416,0.3253 0.52326,0.53263 0.79905,0.73174 0.22911,0.1653 0.32888,0.38945 0.47481,0.58395 0.14596,0.19438 0.31765,0.36824 0.65923,0.42388 0.17542,0.0283 0.61226,-1.23232 0.64205,-1.41521 0.0889,-0.54396 0.14669,-1.08927 0.34875,-1.55791 0.14571,-0.33857 0.57334,-0.26112 0.99126,-0.06 0.41794,0.20089 0.8281,0.51309 0.95261,0.56669 0.34689,0.14932 0.50355,0.0218 0.62614,-0.15132 0.12262,-0.17283 0.21295,-0.403 0.49142,-0.48988 0.31884,-0.0995 0.54431,-0.0947 0.6728,-0.0486 0.1285,0.0457 0.17157,0.13362 0.18079,0.25112 0.0181,0.23489 -0.13339,0.55893 -0.16719,0.63763 0.0633,-0.0196 1.70708,1.3462 1.79817,1.40107 0.37859,0.2279 0.51723,0.54683 0.78399,0.82424 0.20623,0.21444 0.0759,0.39322 0.038,0.54447 -0.0379,0.15115 0.002,0.28522 0.50999,0.36794 0.33366,0.0545 0.47934,0.14557 0.5509,0.31142 0.0713,0.16574 0.0802,0.41439 0.10534,0.71361 0.0323,0.38458 0.25254,0.81023 0.39508,1.26758 0.19338,0.62037 0.48217,0.93579 0.66848,1.53362 0.14042,0.45052 0.32614,0.72221 0.5737,0.94834 0,0 0,0 0,0 0.0396,0.0358 0.0611,0.11186 0.1033,0.14346 0.3088,0.23025 0.71643,0.33826 1.19859,0.41682 0.34059,0.0553 0.82098,0.21884 1.29117,0.43184 0.47018,0.21303 0.92214,0.48677 1.13829,0.787 0.21897,0.30416 0.85323,0.61574 1.07661,0.77697 0.51252,0.36982 0.97482,0.66532 1.70856,0.78485 0.54261,0.0888 1.17934,0.18591 1.55801,0.34868 0.25023,0.10771 0.37337,0.28096 0.3973,0.47636 0.024,0.19527 -0.0389,0.4308 -0.13627,0.64263 -0.19404,0.42383 -0.53673,0.79173 -0.58238,0.85501 -0.31811,0.44089 -0.14206,1.45819 -0.22884,1.98907 -0.10184,0.62503 -0.20462,1.25644 -0.30648,1.88149 -0.0348,0.20886 -0.74387,1.26975 -0.82709,1.38507 -0.14196,0.19674 -0.26713,0.14665 -0.45123,0.24304 -0.33248,0.46075 -0.29407,1.13812 -0.17299,1.8399 0.12106,0.70178 0.33923,1.41757 0.38218,1.93035 0.0301,0.35939 0.13083,0.68909 0.18359,1.01135 0.0527,0.32227 0.0636,0.63819 -0.10448,1.02788 -0.37672,0.87533 -0.33295,2.11793 -0.58977,3.03841 -0.0827,0.29668 0.0486,0.50978 0.27469,0.64626 0.22598,0.13661 0.53113,0.21316 0.78182,0.25399 1.23503,0.20116 1.82909,0.1848 3.04139,-0.0113 0.37379,-0.0604 0.70921,0.0329 1.01275,0.19662 0.30363,0.16376 0.57552,0.39801 0.88087,0.61835 0.42528,0.30695 0.80008,0.47973 1.11679,0.53021 0.31662,0.051 0.56595,-0.0361 0.79049,-0.18788 0.449,-0.30348 0.7393,-0.96368 0.91824,-1.75017 0.3579,-1.57302 0.29614,-3.66445 0.36331,-4.56342 2.5e-4,-0.002 -0.60181,-0.65386 -1.27955,-1.47486 -0.67775,-0.82103 -1.43028,-1.81734 -1.62741,-2.44968 -0.12188,-0.39126 -0.10173,-0.90219 -0.0204,-1.42818 0.0804,-0.52612 0.23034,-1.07213 0.3954,-1.45538 0.0263,-0.0612 0.0191,-0.11928 0.0295,-0.18512 0.16575,-1.0175 0.47109,-1.50972 0.89237,-1.78601 0.4213,-0.27639 0.95039,-0.32555 1.6061,-0.53002 0.5153,-0.16064 1.01354,0.006 1.65411,-0.0471 0.55969,-0.0469 1.30677,0.21285 1.85061,0.30135 0.48308,0.0791 1.18012,0.40891 1.55364,0.56963 0.59866,0.25769 1.11271,0.80898 1.72501,1.07256 0.56404,0.24269 1.35682,0.22098 1.97402,0.32148 0.0928,0.0168 0.40382,-0.27619 0.91245,-0.54805 0.50859,-0.27177 1.22205,-0.52915 2.18212,-0.37281 0.48042,0.0778 0.877,0.11557 1.23372,0.20094 0.35657,0.0854 0.68447,0.22728 0.98327,0.5718 0.3937,-0.28339 3.60852,0.17594 4.19846,0.27205 0.5593,0.0915 1.13702,0.18521 1.69636,0.27633 0.4345,0.0711 1.89515,-0.79763 2.67343,-0.86278 0.3932,-0.0327 0.81881,-0.3401 1.246,-0.65189 0.31541,-0.2302 0.60113,-0.41375 0.88666,-0.58377 0,0 0,0 0,0 0.10114,-0.0601 0.22378,-0.16416 0.31774,-0.20155 0.4958,-0.19746 0.94611,-0.53345 1.32199,-0.92452 0.37596,-0.39115 0.68967,-0.8355 0.86878,-1.25162 0.15423,-0.35846 0.0666,-0.69223 -0.091,-0.9964 -0.15743,-0.30415 -0.39262,-0.56728 -0.53222,-0.81493 -0.42464,-0.75327 -0.86642,-1.60971 -1.405,-2.06512 -0.52215,-0.44146 -0.73102,-0.67498 -1.10393,-1.19294 -0.33121,-0.46015 -0.61768,-0.67032 -1.09231,-0.87456 -0.27156,-0.11675 -0.50213,-0.47359 -0.68642,-0.83996 -0.18429,-0.36639 -0.30478,-0.73334 -0.32203,-0.93897 -0.0578,-0.69151 -0.24641,-0.96111 0.0457,-1.63902 0.15547,-0.36119 0.16301,-0.57813 0.21807,-0.75607 0.0551,-0.17785 0.15526,-0.29834 0.48139,-0.4282 0.67097,-0.26713 0.72246,-0.71457 1.45617,-0.77604 0.41476,-0.0347 0.61287,-0.10275 0.73883,-0.25959 0.12595,-0.1568 0.18893,-0.41981 0.35147,-0.79759 0.21749,-0.50543 0.91979,-0.7969 1.20804,-1.19639 0.23406,-0.32438 0.47161,-0.35762 0.57387,-0.4131 0.10232,-0.0555 0.0631,-0.13403 -0.32056,-0.55879 -0.39479,-0.43706 -0.84332,-0.89672 -0.8837,-1.37869 -0.0581,-0.69621 0.11042,-0.94353 -0.26743,-1.46838 -0.35544,-0.49375 -0.52606,-1.03016 -0.67338,-1.50277 -0.014,-0.045 -0.045,-0.10011 -0.0725,-0.13847 -0.12498,-0.17374 -0.18279,-0.36503 -0.28973,-0.55378 l -0.12842,0.0112 -0.41093,-0.003 -0.91452,-0.022 -0.3751,-0.0305 -1.18719,-0.0985 -0.71942,-0.0541 -0.68356,-0.0798 -0.0306,-0.009 -0.25175,-0.009 -0.87364,-0.0794 -0.57036,0.002 -0.81689,-0.038 -0.24685,-0.0393 -1.67495,-0.0194 -0.37508,-0.0305 -0.0616,-0.01 -0.1284,0.0112 -0.19009,0.001 -0.12838,0.0112 -0.0616,-0.01 -1.20221,-0.006 -0.25178,-0.009 -0.31848,0.0104 -0.12842,0.0112 -0.10258,0.0464 -0.57017,0.002 -0.19523,0.0316 -1.76165,0.12475 -0.41607,0.0271 -0.15922,0.006 -1.19138,0.12248 -0.2827,-0.0142 -1.13548,-0.0267 -0.82202,-0.008 -1.76745,-0.0345 -0.28755,0.0163 -0.37511,-0.0305 -0.12344,-0.0197 -0.72449,-0.0236 -0.2826,-0.0142 -0.19017,10e-4 -0.81693,-0.0381 -0.28267,-0.0142 -0.69866,0.0131 -0.94538,-0.0277 -0.6886,-0.049 -0.3751,-0.0305 -0.90944,-0.0536 -0.25178,-0.009 -0.1284,0.0112 -0.24684,-0.0393 -0.41105,-0.003 -0.63196,-0.008 -0.12343,-0.0197 -0.93538,-0.0889 -0.0306,-0.009 -0.2827,-0.0142 -0.47266,-0.0132 -0.31361,-0.0183 -0.8119,-0.0685 -0.75536,-0.0277 -0.15416,-0.0258 -0.28269,-0.0142 -0.0615,-0.01 -0.0617,-0.01 -0.97117,-0.0633 -0.65783,-0.0433 -0.0615,-0.01 -0.80707,-0.0996 -0.0306,-0.009 -0.15404,-0.0258 -0.44195,-0.009 -0.31343,-0.0183 -0.0359,0.026 -0.59603,-0.0337 -0.22094,-0.005 -1.29469,-0.0212 -0.0923,-0.0168 -0.0306,-0.009 -0.79123,-0.003 -0.67716,0.26965 -0.13341,0.0416 0.0168,-0.0923 -0.15418,-0.0258 -0.0294,0.18517 -0.30766,0.13986 -0.16499,-0.15352 -0.41234,-0.38379 -0.3494,0.008 -1.07881,0.0147 -0.57527,0.033 -0.47279,-0.0133 -0.31836,0.0104 -1.04804,0.0198 -0.0923,-0.0168 -0.53944,0.006 -0.57528,0.0329 -0.0924,-0.0168 -0.0358,0.026 -0.34433,-0.0245 -0.22589,0.0266 -0.25178,-0.009 -1.17641,0.0299 -0.3134,-0.0183 -0.88875,0.0139 -0.63696,0.0229 -0.28767,0.0164 -0.28269,-0.0142 -0.66776,0.0177 -0.22099,-0.005 -0.22086,-0.005 -1.23801,0.0198 -0.19018,0.001 z"
       id="TN-06"
       style="font-style:normal;font-weight:400;font-size:34.375px;font-family:'MS Shell Dlg 2';opacity:1;fill:none;fill-opacity:1;fill-rule:evenodd;stroke:#000000;stroke-width:0.33333385;stroke-linecap:square;stroke-linejoin:bevel;stroke-miterlimit:4;stroke-dasharray:none;stroke-opacity:1" />
    <path
       inkscape:connector-curvature="0"
       d="m 179.0002,445.64437 0.39142,-8.04166 -0.12905,-0.17936 -0.13908,-0.1176 c -0.43052,-0.27934 -0.86236,-0.63263 -1.22654,-1.02295 -0.36429,-0.39033 -0.65352,-0.83025 -0.76027,-1.35867 0.11753,-0.38207 0.1036,-0.70928 -0.0394,-0.92457 -0.14305,-0.2153 -0.40758,-0.31723 -0.8435,-0.26404 -1.18448,-0.0602 -2.25925,-0.48119 -3.28166,-1.04101 -0.47985,0.12762 -0.97027,0.2368 -1.47328,0.29824 -0.50304,0.0615 -1.02947,0.0542 -1.5364,-0.0922 -0.33148,0.0514 -0.57746,0.0295 -0.78115,-0.0641 -0.20375,-0.0933 -0.36108,-0.26143 -0.46413,-0.45549 -0.20598,-0.38819 -0.24095,-0.93431 -0.20567,-1.45823 -0.11519,-0.306 -0.1103,-0.49487 -0.0229,-0.63698 0.0873,-0.14221 0.27778,-0.22557 0.46117,-0.30482 0.36677,-0.1587 0.80948,-0.28702 0.92179,-0.79985 0.39616,-0.33923 0.8977,-0.37841 1.43181,-0.43166 0.53408,-0.0532 1.09301,-0.11823 1.53433,-0.47838 0.55644,0.0691 1.13121,-0.007 1.62253,-0.24233 0.49135,-0.23599 0.91608,-0.64676 1.11546,-1.21147 0.41884,-0.48579 0.42094,-0.92616 0.2468,-1.32121 -0.17406,-0.395 -0.53007,-0.73352 -0.8722,-1.06027 -0.11158,-0.33195 -0.0921,-0.52329 0.008,-0.63196 0.1,-0.10855 0.27993,-0.14293 0.49274,-0.10961 0.42572,0.0667 0.96449,0.34361 1.25034,0.48855 1.69048,0.15128 3.12966,1.19217 4.80864,1.38474 0.32399,0.14011 0.51776,0.16325 0.64775,0.10554 0.12991,-0.0579 0.18124,-0.20775 0.21948,-0.37589 0.0764,-0.33619 0.0982,-0.78787 0.42255,-1.0393 0.27928,-0.3238 0.43497,-0.74771 0.65359,-1.0968 0.21855,-0.349 0.48188,-0.63023 0.93747,-0.70215 0.0791,-0.65752 -0.0174,-1.30837 -0.0894,-1.97759 -0.0716,-0.66922 -0.10996,-1.35966 0.10507,-2.00919 8.7e-4,-0.0104 7.3e-4,-0.0208 0.009,-0.0306 l -3.56844,-2.19596 -3.68541,-0.50512 -2.46548,1.52978 -0.46757,-1.40593 -2.8886,-0.34385 -0.29707,2.99112 -8.15354,-1.45453 0.24626,-2.87276 -0.60317,-1.9346 1.00364,-2.27445 0.26323,-2.39513 5.28866,0.57614 0.30354,-1.28024 3.41735,-2.51469 c -0.0774,-0.13824 -0.16231,-0.24832 -0.17141,-0.5028 -0.0168,-0.46762 0.14435,-1.14207 0.0402,-1.60823 -0.15847,-0.71153 -0.12436,-1.32978 -0.0234,-1.99846 0.0545,-0.36556 0.15304,-0.84206 0.23673,-1.25952 l -0.60104,-0.002 -0.53449,-0.023 -0.53934,0.006 -0.15407,-0.0258 -0.60115,-0.002 -0.38019,10e-4 -0.69862,0.013 -0.0923,-0.0168 -0.0975,0.0157 -0.57024,0.002 -0.53449,-0.023 -0.0973,0.0155 -0.0923,-0.0168 -0.0924,-0.0168 -0.22095,-0.005 -0.88877,0.0139 -0.41095,-0.003 -0.25176,-0.009 -0.25176,-0.009 -0.009,0.0307 -0.88371,-0.0171 -1.99343,-0.008 -0.0306,-0.009 -1.74167,0.002 -1.2021,-0.006 -0.0668,0.0208 -1.07369,-0.0163 -1.17642,0.0299 -1.29983,0.0107 0.10452,-0.83789 -0.49854,-0.0496 -0.93035,-0.11944 -2.2617,-0.30503 -0.72444,-0.0226 -0.59603,-0.0337 0.0429,0.51359 0.0833,0.26685 0.12404,0.21017 0.0209,0.0667 0.0209,0.0667 0.0156,0.0974 0.0112,0.12839 0.21878,0.79551 0.0739,0.51859 0.0424,0.32345 0.0782,0.29773 0.0165,0.28766 0.0424,0.32341 -0.0454,0.27763 -0.051,0.11835 -0.0458,0.0874 -0.01,0.0619 0.0157,0.0975 -0.0168,0.0924 -0.0511,0.11833 -0.12268,0.1701 -0.11266,0.1083 -0.0767,0.0824 -0.0923,-0.0168 -0.0668,1.38225 1.26665,2.13769 -4.88036,7.02557 -0.17403,8.45699 -8.33436,-0.34417 -0.77762,0.88655 -0.29023,6.25335 -1.4964,2.38427 -3.77599,1.4114 -8.04161,-0.39152 -0.79139,12.44089 0.75531,0.0277 0.0617,0.01 0.411,0.003 0.7861,0.0329 0.38016,-10e-4 1.28976,0.0517 0.0667,-0.0209 0.0924,0.0168 0.0615,0.01 0.0307,0.009 0.12841,-0.0112 0.18516,0.0295 0.34936,-0.008 0.69355,0.0182 0.12342,0.0197 0.63194,0.008 0.15418,0.0258 0.72946,-0.007 0.0668,-0.0207 0.0306,0.009 0.0617,0.01 0.6578,0.0443 0.0974,-0.0157 0.0617,0.01 0.65772,0.0433 0.85292,0.0128 0.75533,0.0277 0.75535,0.0277 0.85289,0.0128 1.82901,0.0448 0.50353,0.019 0.47277,0.0132 0.75532,0.0277 0.0667,-0.021 0.34424,0.0245 0.22097,0.005 0.38015,-0.001 0.0306,0.009 0.19017,-10e-4 0.12345,0.0196 0.0974,-0.0156 0.15417,0.0258 1.8908,0.0548 0.41095,0.003 0.40598,0.0341 2.05009,0.0488 0.0975,-0.0157 0.0618,0.01 1.16629,0.0315 0.0306,0.009 -0.021,-0.0666 -0.0266,-0.22599 -0.021,-0.0667 4.7221,0.16754 0.34927,-0.008 0.25176,0.009 1.09958,0.0522 1.13545,0.0267 0.12843,-0.0112 0.44194,0.009 0.0306,0.009 0.7245,0.0236 1.10456,0.0222 0.12346,0.0197 0.22086,0.005 1.1305,0.0572 0.19017,-10e-4 0.0306,0.009 0.0924,0.0168 0.19499,-0.0317 0.37509,0.0305 0.19019,-0.001 0.91453,0.022 0.1284,-0.0112 0.28259,0.0142 0.57037,-0.002 0.12345,0.0197 0.94529,0.0277 0.31857,-0.0104 0.62695,0.0386 0.0666,-0.021 0.72453,0.0227 0.41094,0.003 0.15417,0.0258 0.1901,-10e-4 0.19007,-0.001 0.0974,-0.0156 0.59613,0.0337 0.1284,-0.0112 0.0923,0.0168 0.50353,0.019 0.25175,0.009 1.16631,0.0314 0.66269,0.0135 0.94047,0.0583 0.1592,-0.006 0.0617,0.01 0.0922,0.0168 0.0307,0.009 0.0924,0.0168 1.13548,0.0267 0.53443,0.023 0.31354,0.0183 0.0667,-0.0209 0.0616,0.01 0.5961,0.0338 0.0974,-0.0157 1.4131,0.0722 0.44174,0.009 0.25177,0.009 0.2568,-0.0214 0.34434,0.0245 0.0306,0.009 0.0617,0.01 0.0666,-0.0209 0.68869,0.0491 0.25174,0.009 0.63196,0.008 0.46771,0.044 0.41107,0.003 0.0974,-0.0156 0.18516,0.0294 0.0666,-0.0208 0.25181,0.009 z"
       id="TN-07"
       style="font-style:normal;font-weight:400;font-size:34.375px;font-family:'MS Shell Dlg 2';opacity:1;fill:#000000;fill-opacity:1;fill-rule:evenodd;stroke:#000000;stroke-width:0.33333385;stroke-linecap:square;stroke-linejoin:bevel;stroke-miterlimit:4;stroke-dasharray:none;stroke-opacity:1" />
    <path
       inkscape:connector-curvature="0"
       d="m 124.21919,444.32154 0.79139,-12.44086 8.04163,0.39152 3.77599,-1.41142 1.49639,-2.38426 0.29033,-6.25336 0.77761,-0.88653 8.33436,0.34417 0.17403,-8.45698 4.88037,-7.02558 -1.26665,-2.13768 0.0669,-1.38226 -0.72448,-0.0236 -0.8787,-0.0481 -0.22096,-0.005 -0.88372,-0.0171 -1.88579,-0.0853 -1.13545,-0.0267 -0.28261,-0.0142 -0.0924,-0.0168 -0.12841,0.0112 -1.92158,-0.0595 -0.34435,-0.0245 -0.44175,-0.009 -0.0617,-0.01 -0.44176,-0.009 -0.37506,-0.0305 -0.53451,-0.023 -0.0974,0.0155 -0.65777,-0.0443 -0.7244,-0.0236 -1.03796,-0.0428 -0.88372,-0.0171 -1.22798,-0.0412 -0.7245,-0.0237 -1.19717,-0.0367 -0.37508,-0.0305 -0.22086,-0.005 -0.19019,10e-4 -0.47267,-0.0132 -0.0924,-0.0168 -0.22597,0.0266 -0.0306,-0.009 -0.0307,-0.009 -0.0617,-0.01 -0.0306,-0.009 -0.15929,0.006 -0.0307,-0.009 -0.0666,0.021 -0.0307,-0.009 -0.12347,-0.0196 -0.12837,0.0112 -0.40608,-0.0341 -0.0615,-0.01 -1.01211,-0.006 -0.81709,-0.0381 -0.12348,-0.0197 -0.0924,-0.0168 -0.53446,-0.023 -0.57017,0.002 -0.31362,-0.0183 -0.40594,-0.0341 -0.62695,-0.0388 -0.0306,-0.009 -0.94046,-0.0583 -0.0666,0.0209 -1.0946,-0.0833 -0.0618,-0.01 -0.0359,0.026 -0.43674,-0.0394 -1.00708,-0.0376 -0.0618,-0.01 -0.40599,-0.0341 -1.05794,0.0809 -0.22099,-0.005 -0.54438,0.038 -0.0306,-0.009 -0.22593,0.0268 -0.28267,-0.0142 -0.31353,-0.0183 -0.0557,0.14924 -0.0819,0.11332 -0.13273,0.2317 -0.18939,0.19072 -0.297,0.26835 -0.10759,0.0775 -0.17436,0.0984 -0.0666,0.021 -0.15929,0.006 -0.12344,-0.0197 -0.20076,-0.12773 -0.10832,-0.11257 -0.0418,-0.13342 -0.0464,-0.1025 0.01,-0.0618 0.0168,-0.0923 0.16784,-0.44755 0.0409,-0.0567 -0.15416,-0.0258 -0.12841,0.0112 -0.94036,-0.0583 0.0257,0.0359 0.0673,0.16934 0.26824,0.29698 0.0516,0.0717 0.0155,0.0974 -0.005,0.22097 -0.0559,0.14912 -0.0559,0.1492 -0.0409,0.0567 -0.0458,0.0874 -0.32787,0.26321 -0.0458,0.0876 -0.0457,0.0874 -0.0196,0.12347 0.0157,0.0975 0.0156,0.0974 0.0156,0.0976 0.38225,0.56882 0.23819,0.48195 0.0674,0.16936 0.0157,0.0974 -0.009,0.0306 -0.0293,0.18519 -0.0662,0.21091 -0.0869,0.1441 -0.0558,0.14917 -0.0819,0.1133 -0.10758,0.0776 -0.10758,0.0776 -0.16431,0.0364 -0.1284,0.0112 -0.37508,-0.0305 -0.47842,-0.17295 -0.40607,-0.0341 -0.13342,0.0417 -0.10249,0.0463 -0.14347,0.10329 -0.0916,0.17512 0.001,0.18998 -0.01,0.0617 0.16576,0.34353 0.50997,0.36805 0.10828,0.11255 0.1342,0.14848 0.5199,0.30638 0.12839,-0.0112 0.041,-0.0567 0.0667,-0.0209 -0.009,0.0306 0.1133,0.0818 0.0516,0.0717 0.0112,0.1284 0.0266,0.22599 -0.0142,0.28261 -0.0359,0.0259 -0.0718,0.0518 -0.0411,0.0567 -0.0923,-0.0168 -0.0617,-0.01 -0.0306,-0.009 -0.0825,-0.0766 -0.0923,-0.0168 -0.12838,0.0112 -0.0359,0.0258 -0.2151,0.15494 -0.0667,0.0209 -0.0358,0.026 -0.23102,0.0574 -0.0305,-0.009 -0.29262,0.0474 -0.12345,-0.0197 -0.0307,-0.009 -0.0307,-0.009 -0.0306,-0.009 -0.29338,-0.14276 -0.29337,-0.1427 -0.0874,-0.0458 -0.0616,-0.01 -0.18527,-0.0295 -0.57518,0.033 -0.18526,-0.0294 -0.14414,-0.0868 -0.0306,-0.009 -0.0306,-0.009 -0.10253,0.0464 -0.01,0.0618 -0.0819,0.11331 -0.0358,0.0257 -0.009,0.0306 -0.01,0.0617 -0.009,0.0306 -0.009,0.0306 -0.009,0.0306 0.0258,0.0359 0.10327,0.14346 0.0258,0.0359 0.0567,0.0408 0.0824,0.0767 0.16487,0.15352 0.10832,0.11255 0.17009,0.12267 0.15984,0.18439 0.1442,0.0869 0.0874,0.0457 0.18583,0.22033 0.19583,0.15856 0.17494,0.0916 0.11332,0.0819 0.11333,0.0817 0.27336,0.26621 0.0984,0.17425 0.0306,0.009 -0.009,0.0306 0.0984,0.17436 0.0208,0.0665 0.0258,0.0359 0.0416,0.13344 0.006,0.15928 -0.0357,0.21582 -0.009,0.0306 -0.0258,0.15409 -0.0168,0.0923 -0.11759,0.13908 -0.0718,0.0516 -0.27185,0.1141 -0.0358,0.0258 -0.1027,0.0466 -0.041,0.0567 -0.10259,0.0464 -0.0718,0.0518 -0.32854,0.0731 -0.33357,0.10397 -0.23592,0.0881 -0.14349,0.10327 -0.12773,0.20088 -0.0408,0.0567 -0.0455,0.27761 -0.0953,0.58599 -0.0258,0.15416 -0.0553,0.33923 -0.0559,0.14922 -0.01,0.0616 -0.0559,0.14926 -0.28117,0.36583 -0.0459,0.0873 -0.0457,0.0874 -0.60116,-0.002 0.0466,0.10261 0.0464,0.10241 0.21661,0.22527 -0.009,0.0306 -0.0455,0.2776 0.0156,0.0974 0.0157,0.0976 0.1033,0.14346 0.0775,0.10767 0.22666,0.16355 0.28834,0.17361 0.24743,0.23013 0.10328,0.1435 0.33495,0.27625 0.10327,0.14346 0.0466,0.1027 0.0474,0.29262 0.0465,0.10261 -0.071,0.24171 -0.0818,0.11334 -0.11253,0.1083 -0.0667,0.0208 -0.16926,0.0674 -0.0975,0.0157 -0.17501,-0.0916 -0.10832,-0.11255 -0.12411,-0.21031 -0.61755,-0.29044 -0.41599,0.0273 -0.47209,0.17639 -0.0666,0.021 -0.0359,0.0258 -0.17937,0.12905 -0.0816,0.11335 -0.0661,0.21092 -0.009,0.0307 -0.0359,0.0258 -0.009,0.0307 -0.0197,0.12347 0.0112,0.1284 0.0209,0.0666 0.0465,0.10259 0.0307,0.009 0.0824,0.0766 0.35004,0.18365 0.0306,0.009 0.11838,0.051 0.29837,0.11179 0.46335,0.26553 0.11334,0.0817 0.0207,0.0667 -0.009,0.0306 0.0567,0.041 -0.0168,0.0925 -0.0168,0.0924 -0.009,0.0306 -0.0458,0.0874 -0.0718,0.0516 -0.31772,0.20155 -0.0719,0.0517 -0.26683,0.0833 -0.18997,0.001 -0.35505,-0.15287 -0.15415,-0.0258 -0.009,0.0307 -0.36438,0.0991 -0.3738,0.35066 -0.0817,0.11335 0.0672,0.16921 -0.01,0.0618 -0.0561,0.14916 -0.23521,0.2783 -0.11266,0.10829 -0.0359,0.026 -0.13845,0.0723 -0.1027,0.0464 -0.15916,0.006 -0.0307,-0.009 -0.27762,-0.0455 -0.0359,0.0259 -0.24107,0.11909 -0.13844,0.0723 -0.2201,0.18574 -0.0306,-0.009 -0.0616,-0.01 -0.13909,-0.11761 -0.13418,-0.14848 -0.37089,-0.2504 -0.0617,-0.01 -0.0618,-0.01 -0.041,0.0567 -0.0718,0.0516 -0.69225,0.36226 -0.13843,0.0723 -0.0718,0.0516 -0.0766,0.0825 -0.0559,0.14911 -0.0197,0.12348 0.0112,0.12841 0.0315,0.19511 -0.0132,0.47267 0.0112,0.1284 0.0416,0.13342 0.0307,0.009 0.0465,0.10272 0.15489,0.21522 0.1141,0.27186 0.10328,0.14346 0.0306,0.009 0.0256,0.0358 0.1701,0.12269 0.17492,0.0916 0.0307,0.009 0.18517,0.0294 0.15406,0.0258 0.19522,-0.0317 0.0306,0.009 0.0359,-0.026 0.0359,-0.0258 0.0358,-0.0258 0.009,-0.0307 0.0358,-0.0258 0.12772,-0.20077 0.01,-0.0616 0.0306,0.009 0.0305,0.009 0.0719,-0.0516 0.0666,-0.0209 0.0668,-0.0209 0.0305,0.009 0.0925,0.0168 0.0306,0.009 0.0258,0.0357 0.0724,0.13845 0.0306,0.009 0.021,0.0668 0.0157,0.0974 -0.009,0.0307 0.001,0.18997 -0.0258,0.1542 -0.051,0.11833 -0.01,0.0615 -0.009,0.0306 -0.041,0.0568 -0.0359,0.0258 -0.13845,0.0725 -0.30265,0.109 -0.17928,0.12906 -0.21531,0.155 -0.0305,-0.009 -0.0667,0.0207 -0.0307,-0.009 -0.0305,-0.009 -0.12345,-0.0197 -0.11834,-0.051 -0.0358,0.0259 -0.17938,0.12904 -0.30276,0.10907 -0.3077,0.13985 -0.11768,0.13909 -0.0765,0.0825 -0.0768,0.0824 -0.0457,0.0875 0.0208,0.0667 0.0156,0.0976 0.0672,0.16921 0.12988,0.36948 0.0515,0.0716 0.0775,0.10769 0.25745,0.16858 0.12345,0.0196 0.15417,0.0258 0.0923,0.0168 0.0516,0.0718 0.0156,0.0974 -0.009,0.0307 -0.01,0.0616 -0.01,0.0616 0.0306,0.009 0.0306,0.009 0.0566,0.0412 0.0258,0.0358 0.0258,0.0359 -0.1118,0.29847 -0.009,0.0306 -0.01,0.0616 -0.0766,0.0824 -0.10757,0.0776 -0.0667,0.0208 -0.0923,-0.0168 -0.23171,-0.13263 -0.0306,-0.009 -0.24686,-0.0394 -0.0617,-0.01 -0.0875,-0.0459 -0.0258,-0.0358 -0.0825,-0.0765 -0.0209,-0.0667 -0.0209,-0.0667 0.0766,-0.0823 0.009,-0.0307 -0.0364,-0.1643 -0.021,-0.0666 -0.38647,-0.34796 -0.31927,-0.17864 -0.0875,-0.0459 -0.12344,-0.0197 -0.0357,0.0258 -0.19009,10e-4 -0.0666,0.0209 -0.14348,0.10327 -0.0305,-0.009 -0.12344,-0.0197 -0.0975,0.0156 -0.10269,0.0466 -0.1076,0.0775 -0.0458,0.0874 -0.0759,0.27264 -0.0609,0.18004 -0.0409,0.0567 -0.0919,0.17501 -0.0357,0.21594 0.0475,0.2926 0.0573,0.23103 0.0416,0.13341 0.17075,0.3127 0.32491,0.33785 0.0208,0.0668 -0.009,0.0305 0.0209,0.0667 -0.0915,0.17506 -0.0458,0.0875 -0.0609,0.17993 -0.0168,0.0923 -0.0197,0.12345 -0.01,0.0617 -0.0457,0.0874 -0.0661,0.21093 -0.21027,0.12402 -0.0666,0.0209 -0.0168,0.0923 -0.0458,0.0875 -0.01,0.0618 -0.0766,0.0824 -0.0407,0.0567 -0.0359,0.0258 -0.0666,0.0209 -0.0617,-0.01 -0.0567,-0.041 -0.0466,-0.10259 0.0168,-0.0924 -0.18072,-0.25101 -0.0781,-0.29771 0.0258,-0.1542 0.0811,-0.3033 0.1119,-0.29851 -0.0112,-0.12842 -0.0258,-0.0358 -0.0724,-0.13846 -0.0566,-0.0408 -0.13921,-0.11772 -0.11331,-0.0817 -0.0974,0.0157 -0.19017,0.001 -0.0975,0.0156 -0.1284,0.0112 -0.1485,0.13418 -0.10756,0.0774 -0.0458,0.0874 -0.0918,0.1751 -0.14203,0.48347 -0.24598,0.14981 -0.69725,0.39302 -0.0458,0.0875 -0.009,0.25175 -0.2389,0.68937 0.0209,0.0666 0.13408,0.1485 0.14423,0.0869 0.47265,0.0132 0.23102,-0.0573 -0.17072,-0.31284 -0.0315,-0.19497 -0.0112,-0.1284 0.0196,-0.12347 0.0458,-0.0875 0.041,-0.0567 0.10767,-0.0774 0.0666,-0.0209 0.0975,-0.0157 0.30343,0.0811 0.12343,0.0197 0.021,0.0666 0.1033,0.14348 0.0259,0.0358 0.15991,0.18441 0.0824,0.0765 0.14423,0.0869 0.16496,0.15351 0.0567,0.041 0.0617,0.01 0.74388,-0.2905 4.93357,0.42347 0.0154,1.45899 -0.49344,-0.0806 -0.12415,1.15124 0.55953,-0.13048 -0.655,0.71652 -0.83209,0.0544 0.11177,2.42448 0.69864,-0.0131 0.3888,-0.44325 3.52484,0.13052 -0.0393,0.24684 c -0.63768,0.0174 -0.86031,0.24976 -1.0358,0.52787 l -0.0448,1.8291 -0.61047,0.24892 -2.08798,-0.59336 -0.79983,-0.92182 -1.06232,0.30185 -0.15208,0.54525 1.52853,0.72381 0.2689,0.48705 2.03851,1.09189 -0.0722,1.41299 0.41107,0.003 0.3135,0.0183 0.0923,0.0168 0.41096,0.003 1.0688,0.047 0.38017,-10e-4 0.62692,0.0388 0.53449,0.023 0.68851,0.049 1.25883,0.0465 0.40608,0.0341 0.15417,0.0258 0.0666,-0.0209 0.0617,0.01 0.47265,0.0133 0.15417,0.0258 0.31842,-0.0104 0.12345,0.0197 0.31361,0.0183 0.38015,-10e-4 0.15408,0.0258 1.0738,0.0163 0.40605,0.0341 2.36347,0.0684 0.38014,-10e-4 0.43684,0.0394 0.0975,-0.0157 0.0616,0.01 z"
       id="TN-08"
       style="font-style:normal;font-weight:400;font-size:34.375px;font-family:'MS Shell Dlg 2';opacity:1;fill:none;fill-opacity:1;fill-rule:evenodd;stroke:#000000;stroke-width:0.33333385;stroke-linecap:square;stroke-linejoin:bevel;stroke-miterlimit:4;stroke-dasharray:none;stroke-opacity:1" />
    <path
       inkscape:connector-curvature="0"
       d="m 111.00868,443.78477 0.0721,-1.41301 -2.03853,-1.09188 -0.2689,-0.48705 -1.52853,-0.72379 0.15208,-0.54526 1.06235,-0.30186 0.7998,0.92183 2.08799,0.59335 0.61044,-0.24892 0.0448,-1.82909 c 0.17547,-0.27809 0.39811,-0.51105 1.03581,-0.52789 l 0.0394,-0.24683 -3.52486,-0.13053 -0.38878,0.44326 -0.69866,0.0131 -0.11176,-2.42449 0.83209,-0.0544 0.655,-0.71654 -0.55952,0.13046 0.12404,-1.15124 0.49346,0.0806 -0.0154,-1.45899 -4.93358,-0.42347 -0.74387,0.29049 -0.22445,0.40659 -0.11774,0.13922 -0.0458,0.0874 -0.0619,-0.01 -0.0816,0.11335 -0.1177,0.13919 -0.16355,0.22666 -0.0358,0.026 -0.0307,-0.009 0.1141,0.27187 0.0306,0.009 -0.10189,0.2367 -0.0596,0.56012 -0.19524,0.0317 -0.11833,-0.0512 -0.0306,-0.009 -0.21017,0.12411 -0.1643,0.0363 -0.23169,-0.13272 -0.0923,-0.0168 -0.10757,0.0776 -0.0719,0.0517 -0.0409,0.0567 -0.0458,0.0875 -0.11198,0.29839 0.0156,0.0973 0.0416,0.13344 0.13482,0.33866 0.15995,0.18431 0.26246,0.13779 0.19524,-0.0317 0.19499,-0.0315 0.16434,-0.0366 0.15415,0.0258 0.11835,0.0511 0.11333,0.0817 0.0566,0.041 0.14997,0.24613 0.0984,0.17425 0.0775,0.10767 0.0417,0.13343 0.0156,0.0974 0.0157,0.0974 0.0157,0.0975 -0.0359,0.0258 -0.0359,0.026 -0.0359,0.0259 -0.0617,-0.01 -0.0359,0.0258 -0.0666,0.0209 -0.009,0.0307 -0.102,0.23667 -0.071,0.24175 -0.0306,-0.009 -0.26257,-0.13782 -0.15928,0.006 -0.0357,0.21591 -0.0168,0.0924 0.0673,0.16925 0.0825,0.0767 0.0306,0.009 -0.0168,0.0923 0.006,0.15927 -0.009,0.0307 0.0307,0.009 -0.009,0.0306 0.0259,0.0358 0.0566,0.041 0.0209,0.0667 0.11334,0.0817 0.11834,0.0511 0.0874,0.0457 0.4577,0.1062 0.0258,0.036 0.0307,0.009 -0.009,0.0306 0.0166,0.28761 0.0306,0.009 -0.0458,0.0875 -0.01,0.0614 -0.11268,0.10831 -0.10757,0.0776 -0.009,0.0306 -0.18444,0.16003 -0.1024,0.0465 -0.0718,0.0518 -0.22599,0.0266 -0.21083,-0.066 -0.685,-0.45991 -0.0875,-0.0457 -0.0307,-0.009 -0.27183,0.11398 -0.10252,0.0466 -0.11266,0.1083 -0.0358,0.0256 -0.11266,0.10832 -0.009,0.0306 -0.0306,-0.009 -0.0361,0.026 -0.009,0.0306 -0.0511,0.11834 -0.16213,0.60682 -0.16289,0.41664 -0.1579,0.38593 -0.0294,0.18517 0.0418,0.13343 -0.009,0.25177 -0.0818,0.11332 -0.0869,0.14411 -0.0306,-0.009 -0.21532,0.15499 -0.0974,0.0156 -0.0618,-0.01 -0.17,-0.12273 -0.15415,-0.0258 -0.580961,-0.12634 -0.149246,-0.0559 -0.02572,-0.0359 0.0094,-0.0616 -0.03064,-0.009 -0.616862,-0.10049 -0.07196,0.0516 -0.03067,-0.009 -0.0458,0.0874 -0.101917,0.2367 -0.142683,0.29347 -0.071,0.24172 -0.0259,0.15409 -0.0062,0.0306 0.0209,0.0668 0.01082,0.12839 0.123459,0.0196 1.007085,0.0376 0.657735,0.0433 0.12346,0.0196 2.07587,0.0846 0.25174,0.009 0.68861,0.049 0.43682,0.0394 0.41104,0.003 0.0923,0.0168 0.31352,0.0183 0.25175,0.009 0.15922,-0.006 0.34432,0.0245 0.0306,0.009 0.15928,-0.006 0.28271,0.0142 0.25176,0.009 0.0923,0.0168 0.0616,0.01 0.38019,-0.001 0.43683,0.0394 0.44178,0.009 0.40597,0.0341 0.15931,-0.006 0.25176,0.009 0.0923,0.0168 0.41106,0.003 0.3135,0.0183 0.40596,0.0341 0.81711,0.0381 0.82192,0.008 z"
       id="TN-09"
       style="font-style:normal;font-weight:400;font-size:34.375px;font-family:'MS Shell Dlg 2';opacity:1;fill:none;fill-opacity:1;fill-rule:evenodd;stroke:#000000;stroke-width:0.33333385;stroke-linecap:square;stroke-linejoin:bevel;stroke-miterlimit:4;stroke-dasharray:none;stroke-opacity:1" />
  </g>
</svg>
