<?xml version="1.0" encoding="UTF-8" standalone="no"?>
<!-- Created with Inkscape (http://www.inkscape.org/) -->

<svg
   xmlns:dc="http://purl.org/dc/elements/1.1/"
   xmlns:cc="http://creativecommons.org/ns#"
   xmlns:rdf="http://www.w3.org/1999/02/22-rdf-syntax-ns#"
   xmlns:svg="http://www.w3.org/2000/svg"
   xmlns="http://www.w3.org/2000/svg"
   xmlns:sodipodi="http://sodipodi.sourceforge.net/DTD/sodipodi-0.dtd"
   xmlns:inkscape="http://www.inkscape.org/namespaces/inkscape"
   width="43.226452mm"
   height="47.542797mm"
   viewBox="0 0 153.1646 168.45874"
   id="svg12983"
   version="1.1"
   inkscape:version="0.91 r"
   sodipodi:docname="3.svg">
  <defs
     id="defs12985" />
  <sodipodi:namedview
     id="base"
     pagecolor="#ffffff"
     bordercolor="#666666"
     borderopacity="1.0"
     inkscape:pageopacity="0.0"
     inkscape:pageshadow="2"
     inkscape:zoom="4.028435"
     inkscape:cx="31.294248"
     inkscape:cy="114.17967"
     inkscape:document-units="px"
     inkscape:current-layer="layer1"
     showgrid="false"
     fit-margin-top="1"
     fit-margin-left="1"
     fit-margin-right="1"
     fit-margin-bottom="1"
     inkscape:window-width="2560"
     inkscape:window-height="1388"
     inkscape:window-x="0"
     inkscape:window-y="0"
     inkscape:window-maximized="1" />
  <metadata
     id="metadata12988">
    <rdf:RDF>
      <cc:Work
         rdf:about="">
        <dc:format>image/svg+xml</dc:format>
        <dc:type
           rdf:resource="http://purl.org/dc/dcmitype/StillImage" />
        <dc:title></dc:title>
      </cc:Work>
    </rdf:RDF>
  </metadata>
  <g
     inkscape:label="Layer 1"
     inkscape:groupmode="layer"
     id="layer1"
     transform="translate(-289.70867,-541.16182)">
    <path
       inkscape:connector-curvature="0"
       d="m 340.00369,596.04659 4.02659,9.64884 0.22891,-1.20642 1.46146,-0.60341 7.01784,0.0105 0.46592,-1.84949 1.48326,-0.29168 1.89736,1.15174 0.86922,-0.56198 1.69865,0.10046 0.20931,2.9927 -1.05626,0.57506 -0.9127,-0.0615 -0.17878,1.92345 -5.69326,0.11618 0.14153,0.67929 5.35858,1.81814 -0.0282,5.42148 1.19998,0.13533 0.1091,7.38538 25.97618,0.0945 0.0799,-22.15335 -20.77951,-0.14465 -0.0876,-2.59392 0.8017,-0.18137 -0.059,-2.18872 -1.7248,-0.47463 -0.003,-5.41919 -1.85979,-1.06035 -0.9714,0.44384 -0.0502,2.41571 -4.6412,0.82576 -0.8059,1.46599 0.0393,1.90811 -14.21327,-0.32171 z"
       id="NM-01"
       style="font-style:normal;font-weight:400;font-size:34.375px;font-family:'MS Shell Dlg 2';opacity:1;fill:none;fill-opacity:1;fill-rule:evenodd;stroke:#000000;stroke-width:0.33333385;stroke-linecap:square;stroke-linejoin:bevel;stroke-miterlimit:4;stroke-dasharray:none;stroke-opacity:1" />
    <path
       inkscape:connector-curvature="0"
       d="m 437.60922,626.40564 -1.603,-0.0759 -0.0415,-0.59234 -2.50917,-0.0438 -0.23501,-0.67273 -2.92756,-0.20249 -2.88998,3.02134 0.23241,-6.53212 -6.50596,0.14176 -0.18118,-8.41415 -9.10643,0.13555 -0.42609,-17.29371 -27.0323,0.48086 -0.0253,5.01398 0,0 -0.0799,22.15335 -25.97618,-0.0945 -0.10911,-7.38538 -1.19997,-0.13534 0.0282,-5.42148 -5.35858,-1.81813 -0.14153,-0.6793 5.69327,-0.11618 0.17877,-1.92345 0.91269,0.0615 1.05627,-0.57507 -0.20931,-2.99268 -1.69866,-0.10046 -0.8692,0.56199 -1.89737,-1.15175 -1.48326,0.29168 -0.46592,1.8495 -7.01785,-0.0105 -1.46146,0.60342 -0.2289,1.20641 -4.02658,-9.64884 0,0 -0.90731,-2.22342 -29.90494,-0.72821 -0.0435,5.20321 c -0.3665,0.12477 -0.78248,0.18373 -1.15557,0.0493 -0.71916,-0.31561 -1.54022,-0.34652 -2.29743,-0.15252 -0.18542,0.0422 -0.39613,0.0994 -0.58146,0.19725 -0.18532,0.0978 -0.34833,0.23826 -0.37469,0.46477 -0.001,0.17877 0.13604,0.44891 0.17266,0.6771 0.0365,0.22821 -0.0144,0.42428 -0.31245,0.46042 -0.61947,-0.0997 -1.2459,-0.14274 -1.86547,-0.24547 -0.0467,-0.46437 0.13683,-0.87607 0.18905,-1.32893 0.0469,-0.37568 -0.13804,-0.41748 -0.37336,-0.41246 -0.23542,0.005 -0.51,0.0436 -0.63657,-0.14344 -0.11917,-0.42814 0.004,-0.92371 -0.18731,-1.33398 -0.51174,-0.12029 -1.03835,-0.19102 -1.5558,-0.2984 l -2.85432,-0.0508 0.0123,0.18706 -0.0471,0.22252 -0.11753,4.1433 -0.067,1.72771 -0.0469,1.56958 -0.0615,0.9128 -0.005,0.37628 -0.003,0.84602 -0.0363,0.37844 -0.003,0.40749 -6.5e-4,0.43849 -0.0362,0.37846 -0.18394,5.43238 -0.0448,1.60072 -0.0688,1.25784 -0.29365,8.7919 -0.13422,3.4554 -0.0353,1.28679 -0.0375,1.25568 -0.0925,2.26195 -0.11987,2.7651 -0.0194,1.06645 -0.0673,1.72762 0.008,0.12471 -0.0577,1.41376 -0.0158,0.22035 -0.0172,1.09768 -0.0341,0.40958 -0.0866,2.79414 -0.0203,0.1581 0.008,0.12472 0.008,0.12472 -0.0405,0.31598 -0.0346,0.84829 0.005,0.9708 -0.0246,0.0956 0.008,0.0935 0.008,0.0935 -0.14736,3.26824 -0.044,1.16211 -0.0456,2.03942 -0.0346,0.84817 -0.003,0.40749 0.003,0.0313 -0.0499,0.63001 0.003,0.0312 -0.16528,4.80442 -0.0788,2.0104 -0.0244,1.44282 -0.0119,0.28269 -0.10338,2.10613 0.008,0.0935 0.008,0.12472 -0.0225,0.12688 -0.026,0.97288 -0.21874,6.28056 -0.28794,7.97712 -0.076,1.6029 0.008,0.12471 -0.036,0.37844 -0.0396,1.22446 -0.003,0.40748 -0.0975,2.63823 -0.0577,1.41377 -0.0119,0.28268 -0.0276,0.50315 -0.0281,0.94175 -0.005,0.37628 -0.14933,4.58409 -0.1683,3.86495 -0.0232,0.56539 -0.14436,4.20793 4.61531,0.14707 0.25157,0.0134 1.53836,0.0489 1.9771,0.0497 12.1783,0.33881 0.13835,-4.74001 0.0872,-3.23267 0.0669,-3.07464 -0.004,-0.0624 0.0386,-1.69426 8.34455,0.16836 0.75254,0.0101 8.56494,0.18431 1.4428,0.0244 0.0312,-0.003 3.04125,0.0379 3.57354,0.032 3.63797,0.0585 0.0623,-0.004 0.0936,-0.008 5.92451,0.0556 3.60467,0.0299 0.0312,-0.003 0.75253,0.0101 1.00191,-0.007 0.0269,-0.0645 -0.004,-0.0624 -0.003,-0.0313 -0.0667,-0.0579 -0.0624,0.004 -0.0401,-0.12252 -0.003,-0.0313 -0.0312,0.003 -0.003,-0.0313 -0.10013,-0.0869 -0.0644,-0.0269 -0.0668,-0.0579 -0.003,-0.0313 -0.0332,-0.029 -0.003,-0.0312 -0.0978,-0.0558 -0.18914,-0.0181 -0.0333,-0.0288 -0.0624,0.004 -0.004,-0.0624 -0.0935,0.008 -0.06,0.0357 -0.029,0.0332 -0.15809,-0.0203 -0.10003,-0.0871 -0.003,-0.0312 -0.17118,-0.20737 -0.13123,-0.0849 -0.21816,0.0156 -0.0377,-0.0912 0.0181,-0.18922 0.0515,-0.16019 -0.008,-0.12472 -0.0667,-0.0581 -0.0313,0.003 -0.22035,-0.0159 -0.169,-0.17615 -0.0687,-0.0891 -0.0712,-0.12035 -0.0332,-0.029 -0.13341,-0.11597 -0.0332,-0.029 0.0203,-0.15799 0.0268,-0.0645 0.0849,-0.13124 -0.003,-0.0313 0.0313,-0.003 0.0246,-0.0956 -0.0357,-0.0602 -0.003,-0.0312 -0.0978,-0.0559 -0.003,-0.0312 -0.0333,-0.0289 -0.0644,-0.0269 -0.0979,-0.0558 -0.0645,-0.0268 -0.003,-0.0313 -0.008,-0.0935 0.11379,-0.16463 0.14939,-0.10438 0.0288,-0.0333 0.18269,-0.0754 0.0601,-0.0355 0.12033,-0.0712 0.0914,-0.0376 0.0891,-0.0689 -0.0978,-0.0557 -0.19586,-0.11163 -0.12034,0.0711 -0.0376,-0.0913 0.0602,-0.0357 0.0581,-0.0667 0.0537,-0.12906 -0.003,-0.0312 0.029,-0.0333 -0.008,-0.12472 -0.04,-0.1225 0.18268,-0.0755 0.0471,-0.22263 -0.0624,0.004 -0.11816,0.10229 -0.0667,-0.058 -0.008,-0.0935 0.0247,-0.0957 0.0891,-0.0689 0.029,-0.0333 -0.004,-0.0623 -0.008,-0.12471 -0.0358,-0.0602 -0.0624,0.004 -0.058,0.0668 -0.0957,-0.0247 -0.19804,-0.14282 -0.0399,-0.12251 0.0849,-0.13126 0.11597,-0.1334 0.0623,-0.004 0.0313,-0.003 0.0313,-0.003 0.0935,-0.008 0.087,-0.10004 0.0181,-0.18921 0.37626,0.005 0.0934,-0.008 0.0313,-0.003 0.0645,0.0269 0.0624,-0.004 0.12471,-0.008 0.12472,-0.008 0.4075,0.003 0.0312,-0.003 0.0624,-0.004 0.0624,-0.004 1.03523,0.0211 1.31594,0.002 0.46975,-8e-4 0.78374,0.008 0.0312,-0.003 0.34514,0.007 0.4385,6.5e-4 1.28472,0.004 0.24942,-0.0169 2.60046,0.006 0.12473,-0.008 0.46984,-8e-4 1.37817,-0.002 1.81681,-0.002 1.25349,0.006 0.97071,-0.005 1.40942,-0.005 0.34503,0.007 0.78158,-0.0236 2.50699,0.0127 0.46974,-8e-4 4.07449,0.0283 3.25735,-0.009 0.0312,-0.003 0.90835,-7.4e-4 1.22019,-0.0223 3.35092,-0.015 1.15775,-0.0182 0.0935,-0.008 0.0312,-0.003 0.37625,0.005 0.0312,-0.003 0.34297,-0.024 0.93956,-0.003 0.0313,-0.003 3.85175,-0.0187 1.72108,-0.026 0.75037,-0.0211 0.9708,-0.005 3.22184,-0.0686 0.0623,-0.004 2.6295,-0.0273 0.0313,-0.003 4.88057,-0.0902 0.40749,0.003 0.53209,-0.006 6.47485,-0.13952 1.06197,-0.043 2.53167,-0.0834 3.09705,-0.0601 0.59453,-0.0103 0.0312,-0.003 0.21825,-0.0156 2.68968,-0.0628 6.68864,-0.21716 1.15773,-0.0182 0.18719,-0.0123 0.0623,-0.004 0.0313,-0.003 1.24911,-0.0564 2.00167,-0.0459 1.06208,-0.043 0.0624,-0.004 0.53218,-0.006 -0.0792,-2.46932 -0.041,-1.03086 -0.0129,-0.62563 -0.18784,-5.37501 -0.18569,-5.34384 -0.0308,-0.43642 -0.017,-0.688 -0.0197,-0.71922 -0.0266,-0.37406 -0.003,-0.0313 -0.0145,-0.65678 -0.0129,-0.62564 -0.039,-0.99973 -0.0168,-0.24942 -0.0123,-0.18718 -0.0212,-0.31166 0.0203,-0.15811 -0.024,-0.34287 6.5e-4,-0.4387 -0.0544,-0.7793 0.0134,-0.25156 -0.0117,-0.1558 -0.003,-0.0313 -0.0265,-0.37406 0.004,-0.84601 -0.003,-0.0313 -0.0415,-0.59224 -0.0156,-0.21826 -0.003,-0.0312 0.0119,-0.28279 -0.0213,-0.31177 -0.0104,-0.59453 -0.0528,-1.65654 -0.0117,-0.15579 -0.0389,-0.99974 0.009,-0.314 -0.0283,-0.4052 0.003,-0.40739 -0.008,-0.0935 -0.017,-0.68799 -0.0145,-0.6569 -0.008,-0.0935 10e-4,-0.87721 -8e-4,-0.46975 -0.0612,-2.21992 -0.0116,-1.06428 -0.008,-0.12472 -0.0134,-1.5341 0.003,-0.4074 -0.0245,-1.68992 -0.11029,-5.16117 -0.0178,-1.59637 -0.004,-0.0624 0.005,-0.37628 -0.0156,-0.21822 0.0161,-0.22038 -0.0283,-0.4053 -0.0274,-0.84384 -0.007,-1.00192 0.0134,-0.25157 -0.0298,-2.22202 -0.0197,-0.71922 -0.0401,-1.46957 -0.008,-0.12472 -0.0141,-1.09541 0.004,-0.84601 -0.0254,-0.81279 0.003,-0.40739 -0.0283,-0.40521 -0.008,-0.12473 -0.008,-0.12471 -0.003,-0.0313 -0.003,-0.0313 -0.0123,-0.18699 0.005,-0.37627 -0.0326,-0.46766 0.0161,-0.22046 -0.0117,-0.15579 -0.008,-0.0935 -8e-4,-0.46973 z"
       id="NM-02"
       style="font-style:normal;font-weight:400;font-size:34.375px;font-family:'MS Shell Dlg 2';opacity:1;fill:none;fill-opacity:1;fill-rule:evenodd;stroke:#000000;stroke-width:0.33333385;stroke-linecap:square;stroke-linejoin:bevel;stroke-miterlimit:4;stroke-dasharray:none;stroke-opacity:1" />
    <path
       inkscape:connector-curvature="0"
       d="m 299.11961,544.93021 -0.0369,0.81706 0.003,0.0313 -0.0119,0.28269 -0.0693,1.69647 -0.0165,0.65905 0.008,0.12472 -0.0224,0.12687 -0.0134,0.25158 -0.0221,1.03523 -0.0331,1.31802 -0.0225,0.12687 -0.0541,1.91476 -0.0231,0.56537 -0.0562,1.8835 -0.11049,2.45129 -0.008,0.78366 -0.0433,0.72359 0.003,0.0312 -0.06,1.38257 -0.0375,1.25565 -0.012,0.7214 -0.0484,1.09976 -0.026,0.97288 -0.019,0.62784 -0.10112,2.13726 -0.006,0.81497 -0.007,0.34505 -0.0478,0.66125 -0.11848,3.23483 -0.003,0.846 -0.0645,1.32032 8.1e-4,0.46974 -0.0317,0.44078 0.008,0.12473 -0.0247,0.0957 0.0123,0.18698 -0.06,1.38256 0.003,0.0313 -0.0161,0.22034 -6.6e-4,0.43871 -0.0391,0.78584 -0.0209,0.59671 -0.0326,0.8794 8e-4,0.46974 -0.0361,0.37845 -0.0282,0.94175 0.003,0.0312 -0.0208,0.59669 -0.0165,0.65898 0.004,0.0624 -0.0224,0.12687 -0.0134,0.25159 0.008,0.12471 -0.0342,0.40957 -0.003,0.40739 -0.016,0.22044 0.0123,0.18708 -0.0181,0.18922 -0.0119,0.2827 0.003,0.0313 -0.0411,0.75471 -0.003,0.4075 -0.034,0.40955 -0.005,0.37629 -6.5e-4,0.43859 -0.005,0.37628 -0.007,0.34503 -0.029,0.0333 0.003,0.0313 -6.6e-4,0.43853 -0.0134,0.25156 -0.0253,0.53437 0.008,0.12471 -0.0161,0.22035 0.008,0.0935 0.003,0.0312 0.003,0.0313 -0.0478,0.66121 0.004,0.0623 -0.0203,0.15809 0.008,0.0936 -0.0119,0.28278 0.0198,0.28061 -0.034,0.40957 -6.6e-4,0.43862 -0.036,0.37844 0.003,0.0313 -0.005,0.37628 -0.003,0.40739 -6.6e-4,0.43862 -0.0224,0.12686 0.003,0.0313 -0.0161,0.22033 -6.5e-4,0.43861 -0.0134,0.25158 2.85431,0.0508 c 0.51745,0.10735 1.04407,0.17811 1.5558,0.2984 0.191,0.41027 0.0683,0.90585 0.18731,1.33399 0.12654,0.18672 0.40114,0.14848 0.63656,0.14344 0.2353,-0.005 0.42019,0.0368 0.37338,0.41246 -0.0522,0.45285 -0.23586,0.86456 -0.18906,1.32893 0.61958,0.10273 1.24601,0.14574 1.86547,0.24546 0.29751,-0.0361 0.34895,-0.23219 0.31244,-0.46041 -0.0366,-0.22821 -0.17308,-0.49835 -0.17265,-0.67711 0.0265,-0.22649 0.18938,-0.3669 0.37469,-0.46477 0.18533,-0.0978 0.39605,-0.1551 0.58146,-0.19724 0.7572,-0.19399 1.57827,-0.16312 2.29743,0.15251 0.37308,0.13432 0.78908,0.0753 1.15558,-0.0494 l 0.0435,-5.20321 29.90493,0.72821 0.90731,2.22343 14.21328,0.32171 -0.0393,-1.90812 0.8059,-1.46598 4.64121,-0.82576 0.0502,-2.4157 0.9714,-0.44384 1.8598,1.06034 0.003,5.4192 1.72481,0.47463 0.059,2.18872 -0.8017,0.18137 0.0876,2.59391 20.7795,0.14464 0.0253,-5.01397 27.03232,-0.48086 0.42609,17.29371 9.10642,-0.13554 0.18117,8.41416 6.50596,-0.14176 -0.2324,6.53212 2.88998,-3.02136 2.92756,0.20248 0.23499,0.67275 2.50918,0.0438 0.0414,0.59232 1.603,0.0759 -0.1586,-4.06134 -0.0348,-0.93738 -0.0265,-0.37406 0.0119,-0.28279 -0.065,-1.3738 6.6e-4,-0.43851 -0.004,-0.0625 -0.003,-0.0313 -0.004,-0.0623 -0.003,-0.0313 -0.003,-0.0312 -0.008,-0.12472 -0.003,-0.0313 -0.003,-0.0313 0.0268,-0.0645 -0.008,-0.0935 -0.008,-0.12471 -0.008,-0.12473 -0.0117,-0.15579 -0.0156,-0.21824 -0.01,-1.03304 -0.008,-0.12471 -0.008,-0.0935 -0.0254,-0.81262 -0.0369,-0.53002 -0.0418,-1.93931 -0.0494,-1.15558 -0.0321,-0.90626 -0.003,-0.0313 -0.004,-0.50096 -0.0368,-0.9685 -0.0515,-1.18681 -0.0274,-1.28242 -0.0508,-1.62541 -0.0667,-1.40507 -0.0444,-1.53194 -0.0613,-2.21983 -0.0902,-2.18654 -0.0283,-0.40521 0.009,-0.31401 -0.0156,-0.21814 -0.004,-0.0624 0.005,-0.37626 -0.0394,-0.56113 0.0247,-0.0956 -0.003,-0.0313 -0.0254,-0.81271 -0.0568,-0.81052 0.0134,-0.25157 -0.13182,-4.12586 -0.22872,-6.40594 -0.0254,-0.8126 -0.0782,-2.46934 -0.0423,-1.5007 -0.04,-0.12252 -0.004,-0.50097 -0.0213,-0.31176 0.007,-0.34505 -0.12594,-3.59376 -0.0855,-2.56278 -0.15517,-4.90744 -0.0863,-1.68548 -0.0236,-0.78157 -0.003,-0.0313 -0.0748,-1.96827 -0.0954,-3.15733 0.0624,-0.004 0.81272,-0.0254 -0.0129,-0.62565 -0.008,-0.12472 -0.0116,-1.06427 -0.0452,-1.09331 -0.0283,-0.4052 -0.0508,-1.62542 -0.0249,-1.25132 -0.1857,-5.34386 -0.004,-0.0623 -0.11191,-2.49827 -1.87479,0.0684 -0.43862,-6.6e-4 -0.18706,0.0123 -0.9686,0.0368 -0.99974,0.039 -1.40713,0.036 -1.46743,0.0708 -2.21983,0.0613 -1.68777,0.055 -5.25028,0.17935 -0.0312,0.003 -6.1878,0.21307 -4.68904,0.14006 -0.78158,0.0236 -1.06208,0.043 -0.28051,0.0198 -0.65688,0.0145 -0.37627,-0.005 -0.24942,0.0168 -0.75254,-0.0101 -0.31176,0.0213 -0.37627,-0.005 -1.09334,0.0452 -0.0332,-0.029 -0.0312,0.003 -0.49876,0.0351 -0.34514,-0.007 -2.41125,0.0121 0.003,0.0312 -0.43871,-6.6e-4 -1.40714,0.0358 -0.5633,0.008 -2.44028,0.0456 -3.63144,0.0347 -0.6546,0.0458 -2.07282,-0.0743 -0.34287,0.024 -0.4386,-6.5e-4 -1.47177,0.009 -0.68789,0.017 -3.82073,0.0166 -0.40741,-0.003 -0.0935,0.008 -0.12472,0.008 -0.37844,-0.036 -0.15578,0.0117 -0.84394,0.0274 -0.0934,0.008 -0.22035,-0.016 -0.25158,-0.0134 -2.12853,0.0236 -0.8461,-0.004 -1.15776,0.0182 -0.0313,0.003 -6.29652,0.002 -0.0312,0.003 -0.18707,0.0123 -2.12855,0.0236 -1.44054,0.007 -0.84609,-0.004 -1.03304,0.01 -0.0312,0.003 -1.03315,0.009 -0.7213,-0.012 -0.31401,-0.009 -0.0623,0.004 -1.56752,-0.0157 -1.44044,0.007 -0.56342,0.008 -2.63168,-0.004 -0.25157,-0.0134 -0.75254,-0.0101 -0.31166,0.0213 -1.69221,-0.007 -0.72129,-0.012 -2.00604,-0.0164 -0.13996,-0.20945 -0.94174,-0.0282 -0.84394,0.0274 -0.65897,-0.0165 -1.19115,-0.0106 -1.5696,-0.0469 -2.03715,-0.0141 -1.31595,-0.002 -3.73143,-0.0522 -0.0313,0.003 -0.44069,-0.0319 -0.90844,9.5e-4 -0.94177,-0.0282 -0.0936,0.008 -1.66307,-0.0403 -0.0935,0.008 -2.41562,-0.0502 -1.5674,-0.0158 -1.69428,-0.0386 -0.22045,-0.016 -0.0623,0.004 -1.00409,-0.0235 -1.60082,-0.0448 -0.37628,-0.005 -0.75253,-0.0101 -0.31389,-0.009 -2.97891,-0.042 -0.15812,-0.0203 -1.41159,-0.0266 -0.0312,0.003 -0.84828,-0.0346 -0.72131,-0.0121 -1.34914,-0.0306 -1.82127,-0.0606 -1.72543,-0.0361 -1.88349,-0.0561 -0.59662,-0.021 -2.32223,-0.0569 -4.64643,-0.14491 -0.0956,-0.0247 -1.03531,-0.0221 -0.91055,-0.0304 z"
       id="NM-03"
       style="font-style:normal;font-weight:400;font-size:34.375px;font-family:'MS Shell Dlg 2';opacity:1;fill:#000000;fill-opacity:1;fill-rule:evenodd;stroke:#000000;stroke-width:0.33333385;stroke-linecap:square;stroke-linejoin:bevel;stroke-miterlimit:4;stroke-dasharray:none;stroke-opacity:1" />
  </g>
</svg>
