<?xml version="1.0" encoding="UTF-8" standalone="no"?>
<!-- Created with Inkscape (http://www.inkscape.org/) -->

<svg
   xmlns:dc="http://purl.org/dc/elements/1.1/"
   xmlns:cc="http://creativecommons.org/ns#"
   xmlns:rdf="http://www.w3.org/1999/02/22-rdf-syntax-ns#"
   xmlns:svg="http://www.w3.org/2000/svg"
   xmlns="http://www.w3.org/2000/svg"
   xmlns:sodipodi="http://sodipodi.sourceforge.net/DTD/sodipodi-0.dtd"
   xmlns:inkscape="http://www.inkscape.org/namespaces/inkscape"
   width="6.5630541mm"
   height="9.0095415mm"
   viewBox="0 0 23.254917 31.923572"
   id="svg3885"
   version="1.1"
   inkscape:version="0.91 r"
   sodipodi:docname="2.svg">
  <defs
     id="defs3887" />
  <sodipodi:namedview
     id="base"
     pagecolor="#ffffff"
     bordercolor="#666666"
     borderopacity="1.0"
     inkscape:pageopacity="0.0"
     inkscape:pageshadow="2"
     inkscape:zoom="14.978926"
     inkscape:cx="-3.7419478"
     inkscape:cy="22.484452"
     inkscape:document-units="px"
     inkscape:current-layer="layer1"
     showgrid="false"
     inkscape:window-width="2560"
     inkscape:window-height="1388"
     inkscape:window-x="0"
     inkscape:window-y="0"
     inkscape:window-maximized="1"
     fit-margin-top="1"
     fit-margin-left="1"
     fit-margin-right="1"
     fit-margin-bottom="1" />
  <metadata
     id="metadata3890">
    <rdf:RDF>
      <cc:Work
         rdf:about="">
        <dc:format>image/svg+xml</dc:format>
        <dc:type
           rdf:resource="http://purl.org/dc/dcmitype/StillImage" />
        <dc:title></dc:title>
      </cc:Work>
    </rdf:RDF>
  </metadata>
  <g
     inkscape:label="Layer 1"
     inkscape:groupmode="layer"
     id="layer1"
     transform="translate(-203.02568,-366.14728)">
    <path
       inkscape:connector-curvature="0"
       d="m 217.39132,369.92181 -0.89972,0.005 -0.73946,-0.0697 -0.57408,0.0238 -0.1204,0.0559 -0.11769,-0.0421 -0.0879,-0.0339 -0.0421,0.11767 -0.20553,-0.0751 -0.20807,0.0239 -0.14954,0.0453 -0.0878,-0.0339 -0.45651,0.0666 -0.1177,-0.0421 -0.32575,-0.0194 -0.21885,0.0533 -0.11766,-0.0422 -0.29637,-0.008 0.6128,4.34673 1.72476,-0.17036 0.26413,0.82775 0.6542,-0.42699 0.70466,0.62227 0.008,0.43516 -0.62753,0.1707 0.19734,0.73691 1.1,-0.0984 0.0691,1.08935 0.48571,0.67564 0.0338,-0.0875 0.20548,0.0752 0.33632,-0.0106 0.17654,0.0634 0.11764,0.0422 0.0454,0.14959 0.31767,0.31514 0.0746,0.16019 -0.0338,0.0875 -0.0337,0.0875 -0.0422,0.11765 0.0561,0.12021 -0.16317,0.17337 -0.11762,-0.0421 -0.10643,0.2938 0.0667,0.45657 0.0561,0.12017 0.11766,0.0422 0.13907,-0.38174 0.10632,-0.29383 0.0878,0.0339 0.0562,0.12021 0.11764,0.0422 0.0137,0.23772 0.0563,0.12022 0.0426,0.24829 0.1765,0.0634 0.36329,-0.63263 0.10643,-0.29382 0.0422,-0.11764 -0.0533,-0.21896 -0.0136,-0.23773 0.31249,-0.2188 0.0338,-0.0875 -0.0747,-0.16023 -0.2296,-0.28311 -0.10129,-0.26967 -0.0854,-0.13075 -0.0456,-0.14964 -0.0877,-0.0338 -0.14138,-0.25102 -0.4565,-0.29916 -0.0878,-0.0338 -0.20541,-0.0751 -0.43779,-0.25908 -0.20549,-0.0751 -0.0562,-0.12023 0.0422,-0.11764 0.0339,-0.0876 -0.11767,-0.0422 -0.0563,-0.12023 -0.088,-0.0339 0.0421,-0.1177 0.0337,-0.0873 -0.11764,-0.0422 0.0339,-0.0875 -0.18688,-0.40058 0.0422,-0.11766 0.14955,-0.0453 0.0337,-0.0875 0.13108,-0.0853 -0.17358,-0.16288 0.0338,-0.0875 -0.0878,-0.0339 0.10641,-0.29381 0.0751,-0.20546 0.0338,-0.0875 -0.0456,-0.1496 -0.0853,-0.13079 -0.0562,-0.12023 0.10642,-0.29379 0.0421,-0.11768 -0.0562,-0.12024 -0.14952,0.0454 -0.13107,0.0853 -0.20539,-0.0751 -0.0339,0.0877 -0.0879,-0.0339 -0.0878,-0.0339 -0.0338,0.0875 -0.11766,-0.0422 -0.0242,-0.20834 0.0194,-0.32577 0.0422,-0.11765 -0.0854,-0.13081 -0.0136,-0.23768 0.0826,-0.50203 -0.0746,-0.1602 0.0194,-0.32575 0.0826,-0.502 -0.0106,-0.33643 -0.0455,-0.14959 0.0826,-0.50202 z m 3.96463,9.75689 -0.20834,0.0239 -0.11762,-0.0423 -0.10641,0.29383 -0.0338,0.0877 -0.10631,0.29382 -0.0752,0.20544 -0.69419,0.0799 -0.1204,0.0559 -0.13109,0.0853 -0.0339,0.0876 -0.14952,0.0452 -0.13107,0.0853 -0.0337,0.0875 -0.0339,0.0876 0.0455,0.1496 -0.0633,0.17646 0.11762,0.0422 -0.0751,0.20543 -0.0752,0.20545 -0.0338,0.0876 -0.13896,0.38178 -0.0422,0.11763 -0.14951,0.0452 -0.16313,0.1734 -0.0338,0.0875 -0.0339,0.0876 -0.0422,0.11763 -0.0634,0.17646 -0.10661,0.29374 -0.0751,0.20545 -0.34452,0.30692 0.0427,0.2483 0.0561,0.12021 0.0878,0.0339 0.0746,0.16019 -0.0337,0.0875 0.0561,0.12019 0.0455,0.14963 -0.0337,0.0875 -0.0338,0.0876 -0.0422,0.11766 -0.24022,0.11209 -0.11766,-0.0422 -0.0422,0.11762 -0.17655,-0.0633 -0.14951,0.0452 -0.12037,0.0558 -0.0751,0.20544 0.20537,0.0751 0.0563,0.12022 0.29385,0.10632 0.4005,-0.18676 0.0878,0.0338 0.0746,0.16018 0.16316,-0.17337 0.10621,-0.29389 0.0194,-0.32575 0.0752,-0.20543 0.24023,-0.11211 0.33652,-0.0106 0.11764,0.0422 0.17634,0.0635 0.20548,0.0751 -0.0422,0.11767 0.0561,0.12018 0.0751,-0.20542 0.0338,-0.0876 -0.0137,-0.23776 -0.0243,-0.20835 0.10631,-0.29383 0.0421,-0.11769 0.0634,-0.1764 0.0751,-0.20547 -0.20539,-0.0751 0.0338,-0.0876 -0.0558,-0.48592 0.0826,-0.50202 0.0422,-0.11766 -0.14146,-0.25103 -0.0456,-0.14963 0.009,-0.66208 0.0339,-0.0876 0.0338,-0.0874 0.28033,-0.13077 0.1204,-0.0559 0.11769,0.0422 0.0878,0.0339 -0.0337,0.0874 0.0135,0.2377 0.0986,0.36846 -0.0634,0.17641 0.0455,0.14959 -0.0218,0.42451 -0.15757,0.70753 0.33079,0.91854 -0.13907,0.38171 0.0565,0.12027 0.0746,0.16019 0.14403,0.1522 0.0427,0.24833 -0.10633,0.29382 -0.0337,0.0877 0.0561,0.12017 0.4886,-0.15473 0.0634,-0.1764 0.62498,-0.43766 -0.0747,-0.1602 0.14952,-0.0452 0.25088,-0.14148 0.0372,-0.65144 -0.13329,-0.91316 -0.0137,-0.2377 -0.0479,-0.7823 0.0423,-0.11764 -0.14147,-0.25103 -0.0877,-0.0338 0.0422,-0.11764 -0.0242,-0.20832 0.0422,-0.11768 -0.0854,-0.13079 0.14949,-0.0452 0.0317,-0.45391 0.0507,-0.41393 0.0338,-0.0876 -0.0878,-0.0339 -0.23756,0.0134 -0.2054,-0.0751 -0.0879,-0.0339 -0.29381,-0.10642 -0.0562,-0.12018 -0.11766,-0.0422 z"
       id="RI-01"
       style="font-style:normal;font-weight:400;font-size:34.375px;font-family:'MS Shell Dlg 2';opacity:1;fill:none;fill-opacity:1;fill-rule:evenodd;stroke:#000000;stroke-width:0.33333385;stroke-linecap:square;stroke-linejoin:bevel;stroke-miterlimit:4;stroke-dasharray:none;stroke-opacity:1" />
    <path
       inkscape:connector-curvature="0"
       d="m 212.5962,369.9391 -1.10793,0.0291 -0.33642,0.0106 -0.0878,-0.0339 -0.93184,0.0932 -0.66213,-0.009 -0.20551,-0.0751 -0.6942,0.0799 -0.008,0.66218 0.0243,0.20831 -0.0317,0.45397 0.0242,0.20829 0.0239,0.57403 -0.0338,0.0875 -0.0372,0.65149 0.0904,1.03054 -0.0616,0.44324 -0.0338,0.0875 0.0878,0.0339 -0.0752,0.20543 -0.0338,0.0875 0.0986,0.36846 -0.0933,0.53136 0.11764,0.0422 0.0159,0.87043 -0.0422,0.11763 -0.0458,1.31356 0.0479,0.78227 0.0291,1.10801 -0.065,0.54188 -0.10245,1.19332 -0.0372,0.6515 -0.0403,0.7502 0.0239,0.57402 0.005,0.53402 -0.0752,0.20542 -0.0274,0.98782 -0.0338,0.0875 -0.065,0.5419 0.0563,0.12018 -0.0194,0.32575 -0.0422,0.11769 -0.0338,0.0875 -0.20835,0.0239 -0.20537,-0.0752 -0.40056,0.18682 -0.13108,0.0853 -0.0337,0.0875 0.10148,0.26968 -0.0338,0.0875 0.11765,0.0422 -0.0339,0.0875 0.0456,0.1496 0.0563,0.12022 -0.0338,0.0874 0.0746,0.1602 -0.0338,0.0876 -0.0339,0.0876 0.0878,0.0338 -0.0752,0.20536 0.0563,0.12021 -0.0752,0.2055 -0.0338,0.0876 -0.16315,0.17339 -0.1631,0.17337 -0.18162,0.13349 -0.0423,0.11765 -0.0338,0.0875 -0.0751,0.20541 0.20548,0.0751 0.44324,-0.30414 0.32571,0.0194 0.12047,-0.056 0.60597,-0.1119 0.28048,-0.13076 0.20819,-0.0241 0.66208,0.009 0.23767,-0.0133 0.40058,-0.18686 0.28028,-0.13072 1.00942,-0.39745 0.11768,0.0422 0.16313,-0.17347 0.0878,0.0338 0.51811,-0.144 0.0878,0.0339 0.48869,-0.1547 0.36837,-0.0987 0.11767,0.0422 0.35785,-0.0693 0.0879,0.0339 0.0878,0.0339 0.24832,-0.0426 0.53114,0.0942 0.0878,0.0339 0.13898,-0.38173 0.16312,-0.1734 0.22437,-0.25091 0.0338,-0.0876 0.0421,-0.11764 -0.0106,-0.33641 -0.0243,-0.20838 0.0421,-0.11765 0.0338,-0.0875 0.12039,-0.0559 0.16022,-0.0746 0.12042,-0.0559 0.0338,-0.0875 0.0752,-0.20545 0.0751,-0.20545 -0.0562,-0.12021 -0.0427,-0.2483 0.23757,-0.0134 0.0338,-0.0874 0.0422,-0.11763 -0.0561,-0.1202 -0.0427,-0.24831 0.0338,-0.0875 0.0752,-0.20544 0.0194,-0.32576 0.0634,-0.17644 -0.0137,-0.23772 -0.0853,-0.13078 -0.0878,-0.0338 -0.1307,-0.28035 -0.18687,-0.40057 -0.0561,-0.12019 -0.0456,-0.14963 -0.0532,-0.21891 -0.0456,-0.14965 0.32569,0.0194 0.63821,-0.20002 -0.005,-0.8998 -0.0986,-0.36846 0.0933,-0.53137 -0.0533,-0.21893 -0.33904,-0.25643 -0.1311,0.0853 -0.23766,0.0134 -0.0563,-0.12024 -0.0747,-0.1602 0.0194,-0.32574 0.0338,-0.0876 0.0879,0.0339 -0.0339,0.0876 0.32578,0.0194 0.20542,0.075 0.32569,0.0194 0.24829,-0.0426 0.0879,0.0338 -0.0421,0.11766 0.0243,0.20833 0.0746,0.16021 0.0878,0.0338 0.16316,-0.1734 0.0515,-0.4138 0.0751,-0.20547 0.0338,-0.0875 -0.0455,-0.14961 0.0338,-0.0874 0.0338,-0.0876 0.23798,-0.37893 0.0337,-0.0876 -0.48572,-0.6756 -0.0691,-1.08935 -1.09999,0.0985 -0.19737,-0.73696 0.62752,-0.17069 -0.008,-0.43521 -0.70469,-0.62228 -0.65419,0.42702 -0.26415,-0.82775 -1.72475,0.17036 -0.61279,-4.34672 -0.0284,-0.0145 z m 5.15527,9.95745 -0.28034,0.13076 0.0136,0.23769 0.17355,0.16289 0.1868,0.40052 0.32554,0.0204 0.17358,0.16286 0.0137,0.23772 -0.0634,0.17643 -0.16314,0.1734 -0.10622,0.29386 0.0136,0.2377 0.17345,0.16284 0.088,0.0339 0.16311,-0.17339 0.25643,-0.33902 0.10633,-0.29386 -0.0666,-0.45656 -0.25093,-0.22432 -0.29382,-0.10643 -0.2616,-0.19489 0.0338,-0.0874 0.13109,-0.0853 -0.0693,-0.35777 -0.20547,-0.0752 -0.0879,-0.0339 z m -0.47328,2.48818 -0.0752,0.20544 -0.10633,0.29382 -0.21369,0.58731 -0.0194,0.32578 0.0106,0.33642 0.26171,0.19492 -0.10643,0.29382 -0.0423,0.11763 -0.23766,0.0134 -0.083,0.8677 -0.0194,0.32575 0.16317,-0.1734 0.0752,-0.20544 0.14949,-0.0452 -0.0106,-0.33641 0.51808,-0.14402 -0.0427,-0.24829 -0.0562,-0.1202 -0.0136,-0.23773 0.10631,-0.29384 -0.0263,-1.20675 -0.0266,-0.47529 -0.11762,-0.0422 -0.0879,-0.0339 z m -4.42676,9.69573 -0.0422,0.11765 -0.0634,0.17633 0.0104,0.3365 -0.22429,0.2508 -0.16317,0.17346 -0.19518,0.26151 -0.2138,0.58731 0.0561,0.12019 0.25091,0.22432 0.0878,0.0339 0.94252,-0.12242 0.12044,-0.056 0.0752,-0.20548 -0.0563,-0.12022 -0.0878,-0.0339 -0.17345,-0.16284 -0.0456,-0.14962 -0.14141,-0.25111 0.10641,-0.29372 0.0751,-0.2055 0.10622,-0.29384 0.0338,-0.0875 -0.16283,-0.1923 -0.29376,-0.10622 z"
       id="RI-02"
       style="font-style:normal;font-weight:400;font-size:34.375px;font-family:'MS Shell Dlg 2';opacity:1;fill:#000000;fill-opacity:1;fill-rule:evenodd;stroke:#000000;stroke-width:0.333;stroke-linecap:square;stroke-linejoin:bevel;stroke-miterlimit:4;stroke-dasharray:none;stroke-opacity:1" />
  </g>
</svg>
