<?xml version="1.0" encoding="UTF-8" standalone="no"?>
<?xml-stylesheet type="text/css" href="/stylesheets/state.css" ?>
<svg
   xmlns:dc="http://purl.org/dc/elements/1.1/"
   xmlns:cc="http://creativecommons.org/ns#"
   xmlns:rdf="http://www.w3.org/1999/02/22-rdf-syntax-ns#"
   xmlns:svg="http://www.w3.org/2000/svg"
   xmlns="http://www.w3.org/2000/svg"
   xmlns:sodipodi="http://sodipodi.sourceforge.net/DTD/sodipodi-0.dtd"
   xmlns:inkscape="http://www.inkscape.org/namespaces/inkscape"
   width="100%"
   height="300px"
   viewBox="0 0 299.46297 201.68945"
   class="undefined"
   id="svg2"
   version="1.1"
   inkscape:version="0.91 r"
   sodipodi:docname="AK.svg">
  <metadata
     id="metadata11">
    <rdf:RDF>
      <cc:Work
         rdf:about="">
        <dc:format>image/svg+xml</dc:format>
        <dc:type
           rdf:resource="http://purl.org/dc/dcmitype/StillImage" />
        <dc:title></dc:title>
      </cc:Work>
    </rdf:RDF>
  </metadata>
  <defs
     id="defs9" />
  <sodipodi:namedview
     pagecolor="#ffffff"
     bordercolor="#666666"
     borderopacity="1"
     objecttolerance="10"
     gridtolerance="10"
     guidetolerance="10"
     inkscape:pageopacity="0"
     inkscape:pageshadow="2"
     inkscape:window-width="2557"
     inkscape:window-height="1211"
     id="namedview7"
     showgrid="false"
     fit-margin-top="0"
     fit-margin-left="0"
     fit-margin-right="0"
     fit-margin-bottom="0"
     inkscape:zoom="3.1904762"
     inkscape:cx="-9.026377"
     inkscape:cy="180.28399"
     inkscape:window-x="0"
     inkscape:window-y="0"
     inkscape:window-maximized="0"
     inkscape:current-layer="svg2" />
  <path
     id="AK-0"
     d="m 138.77628,10.289443 -0.2,0.3 -0.1,0.2 -0.2,0.3 -0.4,0.4 -0.4,0.3 -0.8,0.5 -0.2,0.3 -0.1,0 0,0.1 0,0.1 -0.2,0.1 -0.3,-0.1 -0.1,0 -0.1,0.3 0,0.1 -0.1,0.2 -0.1,0.1 -0.6,0.6 0,0 0,0 0,0 -0.1,0 -0.5,0.3 -0.3,0.3 -0.4,0.4 -0.2,0.1 -0.2,0 -0.2,0.1 -0.3,0.2 -0.1,0.1 -0.2,0.3 0.1,0 0,0 0.1,0.1 0.1,0.1 0.1,0.2 0,0.1 -0.6,0.8 -0.1,0.1 -0.4,0 0,0 0,0 0.1,0.3 0.1,0.2 0,0.1 0,0.1 -0.2,0.4 -0.1,0.2 -0.1,0.1 -0.1,0.3 -0.3,0.5 -0.1,0.2 0,0.1 -0.1,0.2 -0.2,0.2 -0.6,0.7 0,0 -0.3,0 -0.9,0.8 -0.4,0.4 -0.2,0.2 -0.2,0.2 -0.5,0.3 -0.4,0.2 -0.2,0.1 -0.3,0.1 -0.1,0.1 -0.2,0.2 -0.4,0.2 -0.5,0.1 -0.2,0.1 -0.1,0.1 -0.2,0 -0.5,0.1 -0.2,0 -0.3,-0.1 -0.2,0 -0.1,0 -0.4,-0.1 -0.6,-0.1 -0.5,0 -0.2,0 -0.3,-0.1 -0.1,0 -0.3,0 -0.8,0 -0.3,-0.1 -0.1,0 -0.2,-0.1 -0.2,0 0,0 -0.9,-0.2 -0.2,-0.1 0,0 -0.4,-0.2 -0.3,-0.1 -0.3,-0.2 -1,-0.4 -0.4,-0.2 -0.2,-0.1 -0.1,0 0,0 -0.1,0.1 0,0.1 -0.1,0.3 0,0.1 0,0.1 0,0.2 -0.1,0.2 0,0.1 -0.4,1 -0.1,0.2 -0.1,0.1 -0.1,0.2 -0.1,0.2 0,0.1 0,0.1 -0.1,0.3 0,0.1 0,0 -0.1,0.1 -0.1,0.1 -0.4,0.5 0,0.1 -0.1,0.4 0,0.1 0,0 -0.2,0.2 -0.1,0.1 -0.1,0.1 -0.1,0 -0.8,0.1 -0.2,0 -0.7,0 -0.2,0.1 -0.2,0.1 -0.1,0 -0.1,0.1 -0.1,0.1 0.1,0 0,0 0,0 0.2,0 0.5,0.1 0.4,0.4 0,0 0,0.1 0.2,0.1 0.1,0.2 0.2,0.2 0.2,0.2 0,0 0.2,0.2 0,0 0.2,0.4 0.3,0.6 0.5,0.9 0,0 0,0.2 0,0.1 0.3,0.4 0.1,0.1 0.3,0.3 0.2,0.1 0.4,0.1 0.1,0.1 0.1,0.1 0.2,0.1 0,0 0.1,0 0.1,0 0.1,0.1 0.2,0.3 0.1,0.2 0,0 0.1,0.1 0.4,0.5 0,0.1 0,0.1 0,0.1 0.1,0.2 0.2,0.4 0.3,0.3 0.2,0.2 0.2,0.4 0,0 0.1,0.1 0.1,0.1 0.4,0.7 0,0 0.3,0.5 0.1,0.1 0,0 0.2,0.4 0.1,0.1 0,0.1 0.1,0.3 0.1,0.2 0.1,0.1 0.6,0.8 0.2,0.2 0.1,0.1 0.2,0.3 0,0.1 0.1,0.1 0,0 0.1,0.2 0,0.2 0.1,0.4 0.1,0.1 0,0.1 0,0.1 0.1,0.5 0.1,0.9 0,0.4 0,0.5 0,0 0,0 0,0.6 0,0.3 0,0.1 0,0.1 -0.1,0.6 0,0.3 -0.1,0.3 -0.1,0.3 0,0.1 0,0.1 0.1,0.1 0.3,0.3 0.2,0.1 0.4,0.2 0.2,0.1 0.2,0.1 0.3,0.2 0.1,0.1 0.7,0.4 0.2,0.1 0.5,0.4 0.3,0.3 0.2,-0.1 0.1,0 0.1,-0.1 0.1,0 0.2,0 0.4,0 0.1,0.1 0,0.2 0,0.1 0,0 -0.1,0.1 0,0.1 0.1,0.1 0.2,0.1 0.3,0 0.1,0 0.1,-0.2 0.1,-0.1 0.1,0 0,0 0,0.1 0,0.1 -0.1,0.3 0,0 0,0.1 0,0.1 0.1,0.1 0.1,0 0,0 0.1,0 0.1,0 0.2,0.1 0.1,0 0,0 0.2,0.1 0,0 0,0 0,-0.1 0.1,-0.1 0.5,-0.1 0.7,0 0.2,0 0.2,0 0,0 0.2,0 0.1,0 0,0 0.1,0 0.1,0.1 0,0 0,0.1 0.1,0.1 0.1,0.2 0.1,0.2 0.1,-0.1 0.3,0.1 0.4,0.4 0.1,0.2 0.1,0.2 -0.1,0.2 0,0.1 -0.2,0 -0.1,0 -0.1,0 0,0 0,0 -0.2,-0.2 -0.1,-0.1 -0.1,-0.2 0,0 0,0 0,0 0,0 0,0 0,0.1 -0.2,0.3 -0.5,0.6 0,0 -0.1,0.1 -0.1,0.2 0,0 -0.1,0.1 -0.1,0 -0.1,0.2 -0.3,0.9 0,0.1 0,0.2 0.1,0.2 0,0 0.4,0.8 0.1,0.1 0.1,0.2 0.3,0.3 0.2,0.2 0.2,0.3 0,0.2 0,0 -0.1,0.1 0,0 0,0.1 0,0 0.1,0.1 0.3,0 0.2,0.1 0.1,0 0.2,0.1 0,0.2 -0.2,0.2 -0.1,0.1 -0.5,0.1 -0.4,0 -0.1,0 -0.2,0 -0.2,-0.2 -0.5,-0.7 -0.4,-0.6 -0.1,-0.2 0,-0.1 0,-0.1 0,-0.3 0,-0.2 -0.2,-0.4 -0.1,-0.2 0,0 0,-0.2 0.1,-0.4 0.1,-0.1 0.1,0 0.1,-0.1 0.1,-0.1 0.1,-0.1 0.2,-0.3 0.1,-0.3 -0.2,-0.1 -0.1,-0.1 -0.1,-0.1 -0.1,-0.1 -0.3,-0.9 -0.1,-0.5 0,-0.2 -0.2,-0.3 -0.5,0 -0.3,0 -0.4,0.1 -0.1,0 0,0 -0.1,0.1 0,0 0,0 0,0 -0.1,0.1 -0.1,0.2 0,0 0,0 0,0.1 0.1,0.1 0.1,0.2 0.1,0.3 0,0.3 0,0.3 0,0.1 0,0.1 0.3,0.2 0.3,0.2 0.4,0.2 0.2,0.1 0.2,0.3 0.1,0.3 0.1,0.2 0,0.1 0,0.2 0,0.1 0,0.1 0.2,0.3 0.5,1.1 0,0.3 -0.2,0.6 -0.1,0.3 -0.1,0.2 -0.3,0.6 0,0 0.5,-0.1 0.1,-0.1 0.5,-0.2 0.3,0.1 0.5,0.1 0,0 0.7,0.4 0.3,0.2 0.3,0.2 0.3,0.1 0.1,0.1 0.1,0.1 0,0 0,0 0,0 0,0.2 0,0.1 0,0.2 0,0.1 0.2,0.4 0,0.1 0,0.1 0,0 0,0 0,0 -0.2,0 -0.1,0 -0.1,-0.1 -0.1,0 -0.3,0.1 -0.3,0.1 -0.3,-0.1 -0.2,-0.2 0,0 0,-0.2 0,-0.1 0,-0.1 -0.1,-0.1 -0.5,-0.2 -0.4,0.2 -0.5,0.7 -0.1,0.2 0,0.1 -0.3,0.3 -0.1,0.1 -0.6,0.3 -0.2,0.2 -0.1,0.2 0,0.1 -0.1,0.1 -0.5,-0.3 -0.3,-0.4 -0.4,-0.1 0,0 0,-0.1 0,0 -0.4,0.2 -0.4,0.1 -0.3,0.1 -0.2,0 -0.1,0 -0.1,-0.1 0,-0.2 -0.1,-0.2 -0.4,0.1 -0.4,-0.1 0,0 -0.1,-0.2 0,-0.1 0,0 -0.1,-0.2 -0.1,-0.2 -0.2,-0.1 0,0 -0.4,0 -0.6,-0.1 -0.3,0 -0.3,0 -0.2,0 -0.1,0 -0.5,-0.3 -0.2,-0.1 -0.1,-0.1 -0.7,-0.2 -0.1,0 -0.2,0.1 -0.4,0 -0.7,-0.2 0.1,-0.2 0,-0.1 -0.1,-0.3 -0.1,-0.3 0,-0.2 0,-0.3 -0.1,-0.4 -0.5,0 -0.3,-0.1 0,0 0,0 0.1,-0.2 0.2,0 0.5,0 0.3,-0.1 0.4,-0.3 0.1,-0.1 0,-0.1 0,-0.3 0,0 -0.1,-0.3 0.2,-0.7 0.1,-0.2 0.1,-0.1 0.3,-0.1 0.2,-0.2 0.2,-0.4 0.1,-0.1 0.1,-0.2 0,-0.4 -0.5,-0.3 -0.1,0 -0.1,0 -0.1,0 -0.3,-0.3 0,-0.1 0,-0.1 0,-0.1 -0.5,-0.1 -0.8,-0.1 0,0 -0.4,0 -0.2,-0.1 -0.1,0 0,0 -0.8,0 0,0 -0.6,0 -0.1,0 -0.1,0 -2,0.2 -0.2,0 -0.1,0 -1,0.2 -0.1,0 -0.1,0 -0.5,0.1 -0.1,0.1 -0.7,0.1 -0.1,0 -0.7,0.1 -0.4,0.1 -0.1,0 0,0.1 0,0.1 0,0 0,0.1 0,0.1 0,0.1 -0.1,0.2 -0.1,0.1 0,0.1 0,0.1 0.1,0.1 0,0 0.1,0.1 0.3,0 0.3,0.2 0.1,0.2 0.1,0.2 0.1,0.2 0.1,0.1 0.1,0 0,0.1 0,0.1 -0.2,0.1 -0.1,0.1 -0.1,0 0,0 -0.1,0 -0.1,0.1 0,0 0,0 0,0 0,0 -0.2,0.1 -0.2,0 -0.1,0 0,-0.1 -0.2,-0.1 -0.2,-0.2 -0.1,-0.1 -0.1,-0.1 -0.2,0 -0.2,0 -0.2,-0.1 -0.2,0 -0.1,-0.1 0,0 0,0 0,-0.1 -0.2,-0.1 0,-0.1 0,0 0.1,0 0.1,0 0,0 0,0 0,-0.1 -0.2,-0.1 0,0 -0.1,-0.1 -0.1,0 -0.1,-0.1 -0.1,-0.1 -0.1,-0.1 -0.6,0.1 -0.4,0.1 0,0 0,0 -0.4,0.1 -0.1,0 -1.2,0.5 -0.7,0.3 0,0 -0.1,0.1 -0.9,0.3 -0.6,0.3 -0.3,0.1 -0.1,0.1 0,0 -1.1,0.3 -0.1,0.1 0,0 -1.099997,0.2 -0.7,0.1 -0.6,0.1 0,0 -0.1,0 -0.7,0.3 0,0 -0.2,0.3 -0.1,0.1 0,0 0,0 0,0.1 0.1,0.2 0,0.1 0,0 0,0.1 0,0 0.1,0.2 0.1,0.1 0.2,0.2 0.2,0.1 0.1,0 0.2,0.1 0.3,0.2 0,0 0,0 0.3,0.4 0.2,0.1 0,0 0,0 0,0.1 0.1,0.2 0.2,0.2 0,0.1 0.1,0.3 0,0 0.3,0.5 0.3,0.2 0.1,0.1 0.2,0.1 0.799997,0.3 0.3,0.1 0.4,0.2 0.5,0.4 0.2,0.2 0.2,0.2 0.5,0.3 0.1,0.1 0.1,0 0.2,-0.1 0.1,0 0.1,0 0.1,0.1 0,0 0.1,0.1 0.1,0.1 0.1,0.1 0.2,0.3 0.1,0.1 0,0.1 0,0.1 0,0 -0.2,0.1 -0.4,0.1 -0.1,0.1 0,0.1 0,0.3 0,0 0,0.1 0,0 -0.1,0.1 -0.2,0.1 -0.1,0 -0.5,0 -0.1,0.1 -0.1,0.1 -0.2,0 -0.3,-0.1 -0.1,0 -0.3,-0.2 0,0 0,-0.1 -0.2,-0.1 -0.1,0 0,0 0,0 0,0 0,0.1 0,0.1 0.1,0.3 0.1,0.2 0.1,0.2 0.2,0.2 0.2,0.2 0.1,0.3 0,0 0,0.1 -0.1,0.1 -0.1,0.1 0,0 0,0.2 0.2,0.3 0.1,0.1 0.1,0.2 0.1,0.2 0.1,0.1 0,0.2 0.2,0.6 0.1,0.1 0,0.1 0,0.1 0,0.1 0,0.1 0,0.1 -0.1,0.1 -0.1,0.1 -0.2,0 -0.1,0 0,0.1 -0.2,0.6 0,0.1 0,0.3 0,0.1 0,0.4 0,0.1 0,0.1 0.4,0.7 0.1,0 0,0 0.1,0.1 0.2,0.2 1.2,0.7 0.1,0 0.4,0.2 0.3,0.2 0.3,0.2 0.6,0.4 0.2,0.1 0.4,0.2 0,0 0.1,0 0,0 0.2,0.2 0.5,0.4 0.7,0.6 0,0 0.1,0.1 0.1,0 0.6,0.1 0.2,0 0.1,0 0.3,-0.1 0.1,-0.1 0.6,-0.1 0.2,0 0.3,-0.1 0.1,-0.1 0.1,0 0.2,-0.1 0.4,-0.1 0,0 0.6,0 0.3,0 0.4,0.1 0.2,0.1 0.3,0.1 0.2,0.1 0.2,0.2 0.1,0 0.3,0 0.1,0 0,-0.1 0,0 0,0 0.1,0 0.1,0 0.2,0.1 0,0 0.6,0.2 0.1,0.1 0.1,0 0.2,0.1 0.2,0.2 0.2,0.2 0.2,0.2 0.3,0.3 0.2,0.2 0.1,0.1 0.1,0.2 0,0.1 0,0.4 0.1,0.3 0,0 0,0.1 0.1,0.1 0.2,0 0.1,0 0.1,-0.2 0,-0.1 0.4,-0.4 0.1,-0.4 0,-0.1 0,-0.2 0.1,0 0.2,0 0.1,0 0.2,0.1 0.2,0.6 -0.1,0.3 0,0.4 0,0.4 0,0.1 0,0.3 -0.1,0.1 -0.1,0.1 0,0.2 0,0.1 0,0 0.1,-0.1 0.3,-0.3 0.3,-0.1 0.1,0 0.1,0 0,0 0.3,-0.7 0.1,-0.1 0,-0.2 0,0 0.1,-0.1 0.2,-0.3 0,0 0.1,-0.1 0.1,-0.1 0.5,-0.2 0.1,-0.1 0.1,-0.1 0.1,0 0.2,-0.1 0.2,0 0.2,0 0.1,0 0.1,-0.1 0.1,0 0,0 0,-0.1 0.1,-0.2 0.1,-0.1 0.2,-0.2 0.1,-0.1 0.2,0 0.2,0 0.5,0.1 0.3,0 0.2,0 0.2,0 0.1,0 0.5,-0.3 0.1,0 0.5,-0.2 0.1,-0.1 0,0 0.1,0.2 0,0.1 0.1,0.1 0.3,0.2 0.5,0.1 0.1,0 0.2,-0.1 0.1,-0.1 0,0 0,-0.1 0.1,-0.1 0.2,-0.2 0.3,-0.2 0.1,-0.1 0.3,-0.2 0.1,-0.1 0,0 0,-0.1 0.1,-0.1 0,-0.1 0.1,0 0.1,0.1 0,0.1 0,0.1 0.1,0.2 0.1,0.2 0.1,0.1 0.4,0.5 0.2,0.2 0.1,0.2 0.1,0.3 0.3,0.9 -0.1,0.4 -0.2,0.7 0,0 -0.1,0.1 -0.7,0.4 -0.1,0.1 -0.2,0 -0.1,0 -0.2,0 0,0 0,0 0,0.1 0,0 0,0.1 0,0 0.1,0.1 0,0.1 0,0.1 0,0 -0.1,0 -0.2,0 -0.4,-0.1 -0.2,-0.1 -0.1,-0.1 -0.1,-0.1 -0.2,-0.2 0,0 0,0 -0.1,-0.1 0,-0.1 0,-0.1 -0.1,0 -0.5,0.2 -0.1,0.2 -0.3,0.7 0,0.2 0.1,-0.1 0.1,0 0.1,0 0.1,0 0.2,0.1 0.4,0.3 0.2,0.1 0.1,0.3 0,0 0,0 0.3,0.7 0,0 0.2,0.4 0.1,0.2 0.1,0.2 0.1,0.1 0,0.1 0.1,0.1 0.1,0.4 0,0.1 -0.1,0.1 -0.1,0.6 0,0.1 -0.1,0.4 0,0.2 0,0.3 0,0.8 0.1,0.1 0.1,0.3 0,0.4 0,0.1 0,0.1 0,0.4 0,0.1 0,0.1 0.1,0.2 0,0 0,0.1 0,0.1 0,0.3 -0.1,0.2 -0.2,0.2 -0.2,0.2 -0.7,0.7 -0.2,0.1 -0.2,0.2 -0.4,0.4 -0.1,0.1 -0.3,0.2 -0.1,0.1 -0.1,0.2 -0.1,0.3 0,0 0,0 -0.3,0.1 -0.4,0.1 0,0 -0.2,0 -0.6,0 -0.1,0 -0.6,0 -0.1,0 0,-0.1 -0.1,0 0,0 -0.1,-0.1 -0.1,-0.1 -0.1,-0.1 -0.1,0 -0.1,0 -0.2,0 -0.1,0 -0.4,0 -0.1,-0.1 -0.2,0 -0.1,0 -0.1,0 -0.4,-0.1 0,-0.1 0,-0.1 0,-0.2 0,0 0.1,-0.2 0,-0.2 0,-0.1 0,-0.1 0,0 0,0 -0.1,0 0,0 0,0 -0.2,-0.1 0,0 0,0 -0.1,-0.1 -0.2,-0.1 -0.1,-0.1 0,0 -0.2,0 0,0 0,0.1 0,0.3 0,0.1 0,0.1 0,0 -0.1,0.1 -0.1,0 -0.1,0 -0.1,0.1 0,0 0,0 -0.1,0 -0.1,0 -0.1,0.1 -0.3,0.2 0,0.1 -0.1,0.1 0,0.1 0,0.1 -0.1,0 -0.9,0.9 -0.1,0.1 0,0 -0.1,0.1 -0.4,0.3 -0.1,0.1 -0.2,0 -0.1,0 0,0 0,0 -0.3,0.1 -0.1,0 -0.1,0.1 0,0.1 -0.1,0.2 0,0.1 -0.1,0.1 -0.2,0.1 -0.1,0.1 -0.1,0.1 -0.1,0.1 -0.5,0.2 -0.2,0.1 -0.1,0.2 -0.1,0 -0.4,0 -0.6,0 -0.1,0 -0.1,0 -0.3,0 -0.2,-0.3 -0.1,-0.1 -0.1,-0.1 -0.1,-0.2 0,0 0,0 -0.2,-0.2 -0.1,-0.1 0,-0.1 0,-0.2 0,-0.1 -0.2,-0.2 -0.1,-0.1 -0.1,0 -0.1,-0.1 -0.1,-0.1 -0.1,-0.2 -0.1,-0.2 0,-0.3 0,0 0,0 0,0 -0.1,-0.1 0,0 -0.1,0 -0.1,0 -0.2,-0.1 -0.2,-0.1 -0.1,0 0,-0.1 0,-0.1 0,0 -0.2,-0.2 -0.2,-0.1 -0.1,-0.1 -0.1,-0.1 -0.1,0 -0.2,0 -0.1,0 0,0 -0.4,0 -0.1,0 -0.1,0 -0.1,0 -0.1,0 -0.1,0 -0.1,0 -0.1,0 -0.3,0 -0.3,0.1 -0.1,0 -0.1,0.1 -0.1,0.1 0,0 -0.2,0.1 -0.7,0.5 0,0 -0.2,0.1 0,0.1 -0.1,0 0,0.1 0,0.1 0,0 0.2,0 0.1,0.1 -0.1,0.2 -0.6,0.2 -0.2,0.2 -0.4,0.5 0,0 0.1,0.1 0,0.3 -0.2,0.3 -0.2,0.2 -0.2,0.1 -0.2,0 -0.1,0.1 -0.1,0 -0.2,0.3 0,0.1 -0.1,0.2 0,0.1 0,0 0,0 0,0 -0.1,0.6 0,0.1 -0.1,0.8 -0.1,0 -0.1,0 0,-0.1 -0.2,-0.2 0,0 0,0 0,0 -0.1,0.1 -0.1,0.2 0,0.1 0,0.1 0,0.1 0.1,0.1 0.1,0 0.3,0 0.3,0 0.1,0 0,0.2 -0.6,0.1 -0.1,0 -0.1,0 -0.1,0 -0.1,0 -0.2,0 -0.4,0 -0.2,0.1 0,0 -0.1,0.1 -0.2,0.1 -0.2,0.1 -0.3,0.2 0,0 -0.2,0.2 -0.1,0.1 -0.1,0.1 -0.1,0.1 -0.1,0.2 -0.2,0.3 -0.1,0.1 -0.1,0 0,0 -0.2,0.1 -0.1,0.1 -0.899997,0.7 -0.9,0.7 -0.3,0.3 -0.1,0.1 -0.2,0.199997 0,0 0,0 0,0 -0.3,0.3 -0.1,0.1 -0.1,0.2 -0.1,0.3 0,0.1 -0.1,0.4 0,0.3 0,0.3 0.1,0.3 0.2,0.4 0,0.2 -0.1,0 -0.2,0 -0.3,-0.1 -0.2,0 -0.1,0 0,0 -0.1,0.1 -0.1,0 -0.6,-0.2 -0.4,-0.2 -0.7,0 -0.1,0 0,0.1 0,0 0.2,0.9 0.1,0.1 0.3,0.3 0.3,0.3 0.3,0.1 -0.1,0.1 0,0.1 -0.1,0 -0.5,-0.1 -0.4,0 -0.3,0 -0.1,0.1 -0.1,0 -0.4,-0.1 0,0 0,-0.1 0.1,-0.3 0.1,-0.4 0.1,-0.2 0,0 -0.1,0.1 -0.1,0.1 -0.5,1.2 0,0.1 0,0.1 0,0.3 0,0.1 0,0.1 0,0.4 0,0.2 0.2,0 0.1,-0.1 0,0 -0.1,-0.1 0,-0.1 0,0 0.1,-0.1 0,0 0.1,0 0,0 0.1,0.1 0.2,0 0.1,-0.1 0,-0.1 0.1,0 0.3,0.1 0.5,0.5 0.2,0.4 0,0.1 -0.1,0.2 -0.1,0.2 -0.2,0 -0.1,0 -0.3,0.1 -0.5,0.1 -0.1,0.1 0,0.1 0,0.2 0,0.7 0,0.2 0.1,0.2 0,0 0.1,0 0,0 0.1,0 0.6,0.4 0.1,0.1 0,0.1 0,0.1 -0.1,0.1 -0.1,0.2 0,0.2 -0.1,0.4 0,0.6 0,0 0,0.1 0,0.2 0,0 0,0.1 0.1,0.2 0.2,0.2 0.1,0.1 0.4,0.2 0.2,0.1 0.1,0 0.1,0 0,-0.1 0,0 0,0 0,-0.1 0,-0.1 0,-0.1 0.1,-0.1 0.1,-0.1 0.2,-0.4 0.1,-0.1 0.1,0 0.4,0.5 0.1,0.1 0,0 0,0.1 0,0.1 -0.1,0 0,0 0,0.1 0,0 0,0 0.1,0.5 0.3,0.3 0.1,0.1 0.1,0 0.1,-0.1 0.1,-0.2 0,0 0,-0.1 0.1,-0.3 0,0 0,0 0.3,0.1 0.2,0.1 0.1,0.1 0,0.1 -0.1,0.2 -0.2,0 -0.1,-0.1 -0.3,0.4 0,0.2 -0.1,0.1 -0.2,0 -0.1,0 -0.3,-0.1 -0.1,-0.1 -0.1,0 -0.1,0.1 -0.2,0.1 -0.1,0.1 -0.1,0.1 0,0 0,0.1 0,0.3 0,0 0,0.1 0,0 0,0 0.1,0.1 0,0.1 0,0 -0.3,0 -0.1,0.2 0.1,0.5 0,0.1 0.3,0 0.3,0 0.4,-0.3 0,-0.2 0.2,-0.1 0.4,-0.2 0.1,0 0.1,0.1 -0.1,0.1 -0.1,0 -0.1,0 0,0 -0.5,0.4 -0.3,0.4 0,0.1 0,0 0,0.1 0,0 0.1,0 0.4,0 0,0.2 -0.2,0 -0.2,0.1 -0.2,0 0,0 0,0 0,0 -0.1,0.2 0,0.2 0,0 0,0 0.1,0.1 0.2,0.2 0,0.1 0,0.1 0,0.1 -0.2,0.1 -0.2,0.1 -0.1,0 0,-0.1 0,0 -0.5,0.2 -0.1,0.1 -0.2,0.2 -0.1,0 -0.1,0 -0.5,0.3 -0.1,0 -0.1,0 -0.1,0 -0.1,-0.1 0,0 -0.1,0 0,0 0,0 -0.3,0.2 0,0.1 0,0 0.1,0.2 0.1,0.3 0.1,0.1 0.4,0.2 0.2,0.1 0.3,0.1 0.9,-0.3 0.3,0.1 0.1,0 0.1,0.1 0,0 0,0 0,0.1 -0.1,0.2 -0.3,0.3 0,0 -0.1,0 -0.2,0.1 -0.1,0 -0.3,0 0,0 -0.1,0.1 0,0.1 0.1,0.1 0.1,0.1 0,0 0,0.1 0,0 0.1,0.1 0,0 0,0.1 0.1,0.1 0,0 0.1,0.1 0,0.1 0.1,0.1 0,0 0.1,0.1 0.3,0.4 0.2,0.2 0.2,0.2 0.2,0.1 0.2,0.1 0,0 0.2,0 0,0 0.1,0.1 0.1,0.1 0.1,0.1 0,0.1 0,0.1 0.1,0.1 0.1,0.1 0.1,0.2 0.2,0.2 0.1,0 0.1,0.1 0.1,0 0,0.1 0,0.1 -0.1,0.1 0.1,0.4 0.2,0.8 0.2,0.3 0.1,0 0.1,0 0.1,0 0.1,0.2 0.2,0.1 0.2,0.2 0.1,0.1 0.2,0.5 0,0.2 -0.1,0.1 -0.2,-0.1 -0.1,0 -0.1,0.1 -0.1,0 0,0.1 0,0.1 0,0.2 0,0.1 0,0.1 0,0.1 0,0.2 0,0.1 0.1,0.2 0.1,0.1 0.1,0.1 0,0.1 0.2,0.1 0.1,0.1 0.1,0 0.1,0.1 0.1,0.1 0.1,0.1 0.1,0.1 0,0 0,0 0.1,0.1 0,0 0.1,0 0.1,0 0.2,0.1 0.3,0.1 0.2,0.1 0.2,0.1 0.3,0 0.1,0 0.1,0 0.1,0 0.1,0 0.1,0 0.9,0.1 0.2,0 0.6,0 0.2,0 0.3,0 0.4,-0.1 0.2,-0.1 0.1,0 0.2,0 0.4,-0.2 0.2,0 0.2,-0.1 0.5,-0.1 0.4,-0.1 0.1,0 0.1,0 0,-0.1 0.1,0 0.2,0.1 0.2,0.1 0.1,0 0.2,0 0.4,-0.1 0.2,0 0.1,-0.1 0.2,-0.3 0.1,-0.1 0.1,-0.5 0,-0.3 0,-0.1 0.1,-0.2 0.1,0 0.1,-0.1 0,0 0.1,-0.1 0,0 0.1,-0.1 0.1,0 0.1,0 0.1,0.1 0,0 0,0 0,0.3 0.1,0.5 0,0 0.1,-0.1 0,0 0.1,0 0.3,-0.4 0,-0.1 0,-0.1 0.1,0 0,0 0.1,0.1 0.1,0.2 0,0.1 -0.2,0.4 -0.2,0.1 -0.1,0.1 0,0 -0.1,0.2 0,0.2 0,0.4 0,0.2 0,0.2 0.1,0.3 0.1,0 0.1,0.1 0,0.1 0,0.1 -0.1,0.6 0,0 0.1,0.2 0.2,0.5 0,0.1 0.2,0.7 0,0.1 0.1,0.3 0,0 0,0.4 0,0.1 0,0.6 0.3,1.1 0.2,0.8 -0.3,0.2 -0.3,-0.1 -0.2,0.3 -0.1,0.1 0,0 -0.1,0 -0.3,0.2 -0.1,0.1 -0.1,0.1 -0.4,0.2 -0.2,0.8 0,0.3 -0.4,-0.4 -0.3,0.4 0,0.3 0,0.1 0.1,0.8 0.6,1.2 0,0.2 0,0 0,0.4 0,0.5 -0.1,0.6 -0.2,1 -0.2,0.5 -0.1,0.1 0,0 -0.5,0.4 -0.2,0.2 -0.2,0.5 -0.4,0 -0.2,-0.4 0,-0.1 -0.4,0.1 -0.1,0 -0.2,0 -0.2,0 -0.1,0 -0.2,0 0.5,0.5 0,0 0.3,0.1 0.8,0.1 0.2,0.2 0.3,0.3 0,0 0,0.1 0,0.2 0,0.1 0,0 0.2,0 0.3,0 0,0 0.4,-0.3 0,0 0.4,0 0.1,0 0.1,-0.1 0,0 0.9,-0.2 0.1,-0.5 0.2,-0.3 0.1,0 0.1,-0.1 0.1,0 0.6,-0.2 0.1,-0.1 0,0 0.1,-0.1 0,0 0.4,-0.2 0.4,-0.2 0.2,-0.1 0.1,0 0.7,-0.1 0.1,0 0,0.1 0,0.5 0.1,-0.1 0.2,-0.2 0.3,-0.4 0.1,-0.1 0.8,-0.4 0.5,-0.2 0.2,-0.1 0,0 0.4,-0.2 0.1,0 0.1,0 0.2,-0.1 0.4,-0.1 0.2,-0.1 0,0 0,0 0,0.1 0.1,0.4 0.1,0.4 -0.1,0.1 -0.3,0.2 0.1,0.1 0.1,0.1 0,0 0,0.1 0.1,0.2 0.1,0.2 0.5,-0.1 -0.1,0.5 0.1,0.1 0.1,0 0.1,0.1 0.3,-0.2 0.4,0.3 -0.1,0.2 0.1,0.1 0,0.1 0.1,0.1 0.1,0.1 0.1,0.3 0,0 0,0.1 0.3,-0.1 0.2,0 0.2,-0.1 0.1,-0.1 0,-0.1 0,0 0,-0.4 0.3,0.1 0.3,-0.8 0,-0.1 0.1,0 0.1,0 0.1,0 0.2,0 0.1,0 0.1,0.1 0.1,0.1 0,0.1 0,0.1 0,0.1 -0.1,0.1 -0.3,0.4 0.3,0.1 0.1,0 0.1,0.1 0.1,0.1 0.1,0.1 0.1,0.1 0.2,0.3 0.3,0.5 0.1,0.3 0.1,0.5 0,0.2 0.1,0.2 0.1,0.5 0.2,0.8 0.1,0.4 0.3,1 0,0.2 0,0 0.1,0.1 0.5,0.4 0.3,0.1 0.1,0 0.1,0 0.2,0 0.1,-0.1 0.1,0 0.1,-0.1 0,0 0.4,-0.5 0.1,-0.1 -0.1,-0.2 -0.2,-0.6 -0.1,-1 0,-0.8 0.1,-0.3 0.1,0 0.1,-0.1 0.1,0 0.1,-0.1 0.1,-0.2 0,-0.1 0,0 0,-0.2 0,-0.2 0,-0.1 0.2,-0.5 0.1,-0.1 0.1,0 0,0 0.1,-0.1 0.5,-0.2 0,0 0.1,0.1 0.1,0.2 0,0.2 0,0.1 -0.1,0.2 0,0 -0.1,0.2 0,0.1 0,0.1 0,0 0.1,0.1 0.1,0.1 0.1,0.1 0.1,0 0.3,0.1 0.1,0.1 0.1,0.1 0.1,0.2 0.1,0.2 0,0.2 0,0.3 0,0.1 -0.1,0.1 0,0 0,0.1 0.1,0.2 0.1,0.2 0.2,0.2 0.1,0.1 0.1,0.1 0,0 0.2,0.1 0.3,0 0.4,-0.1 0.2,0 0.9,-0.3 0.3,-0.1 0.2,-0.1 0.1,-0.1 0.2,-0.1 0.2,0 0.9,-0.1 0.1,-0.1 0,-0.1 0.1,0 0.3,-0.1 0.3,0 0.5,-0.2 0.5,-0.1 0.1,0 0.1,0 0.2,0 0.1,0 0,0 0,0 0.2,-0.1 0.3,-0.1 0.3,-0.2 0.2,-0.3 0.1,-0.4 0.1,-0.1 0.2,0.2 0,0.5 -0.1,0.1 0,0 -0.2,0.1 -0.1,0.1 0,0.2 0,0.1 -0.1,0.2 -0.5,1 -0.1,0.1 0,0 0,0 -0.4,0.2 -0.1,0.1 -0.3,0.2 -0.5,0.3 -0.1,0.1 -0.1,0.1 -0.3,0.4 -0.1,0.2 -0.2,0.2 -0.1,0.1 -0.1,0 -0.4,0.2 -0.1,0 -0.2,0.2 -0.1,0.1 -0.3,0.6 -0.1,0.3 -0.3,0.6 0,0.1 0,0.2 0,0.3 0,0.1 0.1,0.2 0.3,0.5 0.1,0.1 0.1,0 0.1,-0.2 0.1,0 0.1,0 0.1,0.1 -0.3,0.4 -0.1,0.1 -0.6,0 -0.1,0 -0.1,0 -0.1,0 0,0 -0.1,0 -0.2,0.2 0,0.1 -0.2,0.4 -0.1,0.2 0,0.1 -0.1,0.2 -0.1,0.1 -0.1,0.2 0,0.1 0,0.1 -0.1,0.3 0,0 0,0.1 0,0 -0.2,0.7 -0.1,0.3 -0.4,1 -0.2,0.4 0,0 -0.1,0.1 -0.2,0.9 0,0 0,0.1 0,0.2 0,0 0.2,0 0.3,0.1 0.1,0.1 0,0.1 0,0.2 0,0.3 0,0.2 0,0.2 0,0.1 -0.1,0.2 0,0.1 -0.2,-0.1 -0.1,-0.1 -0.1,-0.1 -0.1,-0.4 0,-0.2 0,-0.1 -0.1,0 -0.5,0.1 -0.1,0 -1,0.5 0,0.1 0,0 -0.2,0.2 -0.3,0.4 -0.1,0.1 -0.2,0.1 -0.1,0 0,0 0,0 -0.1,0 -0.1,0.1 0,0 0,0 -0.4,0.2 -0.4,0.1 -0.2,0 -0.8,0.4 -0.1,0.1 -0.6,0.5 -0.5,0.5 -0.9,1 -0.2,0.2 0,0.1 -0.1,0.3 -0.1,0.1 -0.1,0.2 -0.2,0.4 0,0.3 0,0 0,0 0,0.2 0,0.3 0.1,0.1 0,0.1 0,0.3 -0.2,0.2 -0.1,0 -0.6,-0.1 -0.1,0 -0.3,-0.2 -0.1,-0.1 -0.1,-0.1 -0.1,0 -0.1,-0.1 -0.1,-0.1 0,-0.2 0,-0.1 -0.2,0.1 -0.1,0.1 0,0 -0.2,0.1 -0.1,0.1 -0.3,0.1 -0.1,0 -0.1,0 -0.1,0 -0.2,0.1 -0.2,0 0,0 -0.7,0.3 0,0 -0.1,0.1 0.1,0.1 -0.4,0.2 -0.1,0 -0.3,0.1 -0.4,0.1 -0.1,0 -0.1,0 -0.5,0 -0.5,0.2 -0.2,0 -0.4,0.1 -0.3,0 -0.5,0.1 -0.1,0 -0.3,0.2 -0.1,0.1 -0.1,0.1 0,0 0,0 -0.3,0.2 -0.3,0.2 -0.2,0.1 -0.2,0.1 -0.4,0.1 -0.3,0 -0.1,0 0,0 -0.1,0.1 -0.3,0.2 -0.1,0.1 -0.1,0.1 -0.4,0.3 -0.2,0 -0.1,0 -0.2,0.1 -0.1,0.1 -0.2,0.3 -0.1,0.1 -0.1,0.1 -0.2,0.4 -0.4,0.7 -0.1,0.2 0,0 -0.1,0.1 -0.1,0.1 -0.1,0.1 -0.2,0.2 0,0 -0.1,0 -0.3,0.3 -0.1,0.2 0,0 0,0 0,0 0,0 0,0 0.1,0.1 0,0 0,0 0,0.1 -0.1,0.1 -0.1,0.2 0.3,0.3 0.4,0.3 0.2,0.3 0.2,0.3 0.3,0.2 -0.1,0.3 -0.3,0.1 0,0 0.1,0.2 0.1,0.2 0,0.1 -0.1,0.1 -0.1,0 -0.3,-0.2 -0.2,-0.3 -0.3,0 -0.2,-0.4 0,-0.2 0,-0.2 -0.1,-0.1 -0.1,0 -0.1,0 -0.1,0 -0.5,-0.1 -0.3,-0.1 -0.2,-0.1 -0.3,0.1 -0.1,0.8 0,0.1 0.3,0.4 0.1,0 0.1,0.1 0,0.1 0,0.1 -0.1,0.1 0,0 -0.3,-0.3 -0.2,-0.2 -0.1,0.1 -0.2,0.1 -0.6,-1 -0.1,-0.1 0,-0.1 0,-0.2 0.3,-0.5 0.5,-0.1 0.1,0 0.1,0.1 0.1,-0.2 0.1,-0.2 0,0 -0.2,-0.5 0,-0.1 -0.1,0 0,0 -0.3,0.1 -0.1,0 -0.4,0.1 -0.1,0 0,0 -0.2,0.1 -0.1,0 0,0 0,-0.1 -0.1,-0.1 -0.3,-0.1 0,0 -0.4,-0.1 -0.1,0 -0.2,-0.2 0,-0.2 0,0 -0.1,-0.1 -0.1,0 -0.2,0 -0.3,0 -0.3,0 -0.1,0 -0.3,0 -0.1,0 -0.4,0 -0.1,0 -0.4,0.1 -0.1,0 -0.4,0.1 -0.2,0 -0.1,0 -0.1,0 -0.1,0 -0.2,0 0,0 -0.2,0.1 0,0.1 -0.1,0 -0.3,0.3 -0.3,0.1 -0.3,0.1 -0.2,0 -0.2,0.1 -0.4,0.1 -0.1,0.1 -0.2,0.1 -0.2,0.2 -0.2,0.1 0,0 -0.1,0 -0.1,0.1 -0.1,0.1 -0.1,0 -0.1,0.1 -0.2,0.2 -0.3,0.3 -0.1,0 -0.5,0.4 -0.1,0.1 0,0 -0.1,0.1 -0.5,0.4 -0.2,0.1 -0.2,0.1 -0.3,0.2 0,0 -0.4,0.3 -0.3,0.4 -0.3,0.3 -0.2,0.2 -0.2,0.1 -0.1,0 -0.7,0.1 -0.2,0.1 0,0 -0.1,0.2 0,0.1 0,0 0,0 0.1,0.1 0.1,-0.1 0,0 0.1,0 0,0 0,0.2 -0.1,0.1 -0.1,0.1 -0.2,0.1 -0.5,0 -0.5,-0.1 -0.2,-0.1 -0.1,-0.1 0,0 -0.1,-0.1 -0.2,0 -0.2,0 -0.3,0 -0.3,0.1 -0.2,0 -0.2,0.1 0,0 -0.1,0 0,0 -0.1,0 0,0.1 0,0.1 0,0 -0.1,0.5 -0.1,0.6 0.2,0.5 0,0.1 0,0 -0.3,0 -0.1,0 -0.1,-0.2 0,0 -0.1,0 0,0.1 -0.1,0.2 0,0.1 0,0.1 0,0 0.1,0.2 0,0.1 0,0.2 -0.1,0.1 -0.4,0.1 -0.1,0 0,0 0.1,-0.2 0.1,-0.1 0,-0.1 0,-0.4 0,0 0,-0.2 0,-0.2 -0.1,-0.1 -0.3,-0.5 0,-0.1 0.1,-0.2 0,-0.1 -0.2,-0.1 -0.2,0 -0.3,0 -0.3,-0.1 -0.3,-0.1 -0.1,-0.1 0,0 -0.1,0 0,0 0,0 -0.1,0 -0.1,0 -0.1,0 -0.2,0 -0.1,0 -0.1,-0.1 -0.1,0 -0.1,0.1 -0.2,0.1 -0.3,0.1 -0.1,0.1 -0.1,0.1 0,0 0,0 -0.2,0.1 -0.2,0 -0.2,-0.1 -0.2,-0.1 0,-0.1 -0.1,0.1 -0.1,0 -0.1,0 -0.1,0.1 0,0 -0.1,0.1 0,0 0,0 -0.2,0.1 -0.1,0 -0.3,0.1 -0.3,0 -0.1,0 0,-0.1 -0.1,-0.1 -0.2,-0.2 -0.1,-0.1 -0.1,0 -0.3,0 -0.2,0.1 -0.3,0.2 -0.1,0.1 -0.1,0.2 -0.2,0.3 -0.1,0.2 -0.4,0.5 -0.7,0.7 -0.1,0.2 -0.1,0.1 -0.1,0.1 -0.1,0 -0.4,0 -0.3,0 -0.4,0.1 -0.1,0.1 -0.1,0.2 0,0 -0.1,0.5 0,0.2 0.1,0.2 0,0.1 0,0.3 0,0.3 0,0.1 0.1,0.3 0.2,0.1 0.2,0.1 0,0 0.1,0.1 0.1,0.1 0.5,0.2 0.1,0 0.1,0.1 0.3,-0.1 0.1,0 0.4,0 0.2,0.1 0.3,0 0.1,0 0.2,-0.1 0.2,-0.1 0.1,0 0.2,-0.1 0.1,-0.1 0,0 0,-0.1 0,-0.1 0.1,-0.2 0,0 0.1,0 0.5,-0.2 0.1,0 0.2,-0.1 0,0 0.3,0 0.4,-0.1 0,0 0.1,0 0.1,0 0.2,0 0.1,0 0.1,0 0.1,0 0.2,0 0.1,0.1 0.3,0 0.4,0.1 0.2,0 0.1,0 0.2,0.1 0.1,0 0.5,0.2 0.1,0.1 0.3,0.2 0.1,0 0.1,0 0,0 0.1,0 0,0 0,0 0,0 0.4,-0.1 0.1,0 0.1,0 0.2,0.1 0.2,-0.6 0,-0.1 0,-0.1 0.2,-0.2 0.1,0 0.1,0 0.1,0 0.1,0.1 0,0.1 0,0.3 0.2,0.3 0.1,0.1 0.1,0 0,0 0.2,0.1 0.1,-0.1 0.1,0 0.3,0.1 0,0.3 0,0 0.1,0.1 0.1,0 0.1,0 0,0 0.1,-0.1 0,-0.1 0,-0.1 -0.2,-0.6 -0.1,-0.2 0,-0.2 -0.1,-0.1 -0.2,-0.1 -0.3,0.2 -0.1,0 -0.6,-0.1 0,-0.1 -0.1,-0.1 -0.1,-0.3 0,-0.1 0.2,-0.1 0.2,0 0.2,-0.1 0.5,-0.1 0.5,-0.3 0.7,-0.3 0.2,-0.1 0,-0.3 -0.1,-0.1 -0.4,-0.5 -0.2,-0.1 -0.1,0 -0.1,-0.2 0,0 0,-0.2 0.1,-0.1 0.1,-0.1 0.2,-0.3 0.2,0 0.4,0 0.2,0 0,0 0.1,0.1 0.3,0.4 0.1,0.5 0,0.1 0,0.1 -0.1,0 -0.1,0.2 0.2,0.7 0.2,0.2 0.1,0.1 0.1,0.1 0,0 0.4,0 0,0 0.4,-0.1 0.1,0 0.1,-0.1 0,-0.1 -0.1,-0.1 0.1,-0.1 0.1,0 0.1,0 0.3,0.1 0.2,0.1 0.1,0.2 0.1,0 0.1,-0.5 -0.1,-0.5 0,-0.5 0.1,-0.2 0.1,-0.1 0,0 0.1,0 0,-0.1 -0.1,-0.5 -0.1,-0.3 -0.1,0 -0.1,0 -0.1,-0.1 -0.1,-0.2 0,-0.1 0,-0.1 0.2,-0.2 0.1,-0.1 0.1,-0.1 0.2,-0.1 0.1,-0.1 0.1,0 0.2,0.1 0.1,0.1 0.3,0.5 0,0 0,0.3 0,0.1 -0.1,0.2 0,0.2 0,0.1 0,0.1 0.2,0.2 0.1,0.4 -0.1,0.2 0,0 0,0 -0.1,-0.1 0,-0.1 0,-0.1 -0.1,0 -0.3,0 -0.1,0 0,0.1 0,0.2 0.1,0.3 0.1,0.2 0.2,0.1 0.1,0 0.1,0.1 0.4,0 0.2,0.1 0.2,0.1 0,0.1 0,0 0,0 0,0 0.1,0.1 0.1,0 0,0 0.2,-0.1 0.3,-0.3 0,-0.1 -0.1,-0.2 -0.1,-0.2 0,-0.1 0.1,-0.1 0.3,-0.3 0.2,0 0.1,0.1 0,0.1 -0.1,0.2 0,0.2 0.3,0.4 0.1,0 0.2,-0.1 0.5,-0.1 0,-0.1 0.1,-0.1 0,-0.3 -0.2,-0.2 -0.1,-0.7 0.1,-0.1 0,0 0.1,0 0.3,0.1 0.1,0.1 0.2,0.3 0.1,0 0.2,-0.2 0,0 0,-0.1 0,-0.1 0.1,-0.1 0.1,-0.2 0.1,-0.1 0.1,0 0.1,0 0,0 0.9,-0.8 0.3,-0.3 0,-0.1 0,-0.1 0.2,-1 0,0 0.799997,-0.8 0.1,-0.1 0.1,0 0.4,0 0.3,0 0.4,0.1 0.1,0.1 0.2,0.1 0,0.1 0,0.1 -0.1,0.2 -0.1,0.1 -0.8,0.7 -0.1,0.1 0,0.1 -0.2,0.4 -0.1,0.2 -0.1,0.2 -0.1,0.1 0,0.1 -0.1,0.2 0.1,0.1 0.2,0.1 0.1,-0.1 0.5,0 0.1,0 0.2,0.1 0,0.1 -0.1,0.1 0,0 0.2,0.1 0.1,0 0.1,0 0,0 0,0 1,-0.3 0.1,-0.1 0.4,-0.1 0.1,-0.1 0.1,-0.1 0,0 0.1,-0.1 0,-0.1 0,0 0.3,-0.3 0.1,-0.1 0.1,-0.1 0.3,0 0.1,0.1 0.1,0.1 0.1,0.1 0,0 -0.1,0.1 -0.1,0.1 0,0.2 0.2,0.2 0.1,0.1 0.5,0.1 0.1,0 0.1,0 0.1,-0.2 0.1,-0.2 0,-0.1 0,-0.1 0,-0.1 -0.1,-0.1 -0.1,0 -0.2,-0.1 -0.1,-0.1 -0.1,0 0,0 0,-0.1 0,-0.1 0.1,-0.1 0.1,0 0.2,0 0.2,0.2 0.1,0 0.1,-0.1 0.2,-0.2 0.1,0 0.1,0.1 0.1,0.5 0,0.2 0,0.3 0.1,0 0.1,0 0.1,-0.1 0.2,-0.2 0.1,-0.1 0,-0.1 0,-0.1 0.2,-0.3 0.1,-0.1 0.4,-0.3 -0.2,-0.4 0,-0.1 0,-0.1 0.1,0 0,0 0.1,0 0.3,0.3 0.1,0.1 0.3,0.1 0.6,-0.1 0.4,-0.2 0.5,-0.3 0.2,-0.4 0,0 0,-0.1 0.1,0 0.2,-0.2 0.1,0 0.5,0 0.2,0.3 0.1,0 0,0 0,0 0.1,-0.2 0,-0.2 0,-0.2 0,-0.1 0.1,-0.1 0.2,0 0.6,0.2 0.4,0.3 0.2,0.2 0,0.1 -0.1,0 0,0 -0.4,0.5 -0.1,0.2 -0.1,0.2 -0.1,0.4 0,0.3 0.2,0.1 0.1,0.1 0,0.2 -0.1,0.1 -0.2,0 0,0 -0.3,-0.1 -0.1,0 -0.1,0.1 0,0 0,0.3 0.2,0 0.6,-0.1 0.4,-0.3 0.1,-0.1 0.1,-0.1 0.1,-0.2 0,-0.3 -0.1,-0.2 0,-0.1 0,-0.1 0.1,-0.1 0.1,-0.1 0.2,-0.1 0.1,-0.2 0.2,-1 -0.1,-0.3 0.1,-0.1 0.1,-0.1 0.1,0 0.1,0 0.1,0.1 -0.2,0.5 0,0.1 0,0.1 0,0.1 0.1,0.5 0.1,0.1 0.1,0 0.1,-0.1 0,-0.1 0,-0.3 0.1,-0.2 0,0 0.2,-0.1 0.2,-0.1 0.5,0 0.6,0 0,0 0.2,0 0.9,0 0.6,0 0.1,-0.2 0.4,-0.5 0.7,0.1 0.1,0.1 -0.1,0.1 -0.1,0.3 0,0 0.1,0.1 0.4,0.1 0.1,-0.1 0,0 0.1,-0.2 0.1,-0.2 0,-0.1 0,-0.1 0,-0.1 -0.1,-0.1 0.1,-0.5 0.1,-0.2 0.1,-0.1 0.1,0 0.2,-0.1 0.1,0.2 -0.1,0 -0.1,0 -0.2,0.7 0,0 0.4,0.8 0,0 0.1,0 0,-0.1 0.1,-0.2 0,0 0,-0.1 0,-0.1 0.2,0 0,0 0,0.3 0,0 0,0 0.1,0 0,0 0.1,-0.1 0,-0.1 0.1,-0.1 0,-0.1 0,-0.1 -0.1,-0.2 -0.1,-0.4 0,0 0.1,-0.1 0,0 0.1,0 0,0.1 -0.1,0.1 0,0.3 0.1,0.1 0,0 0,-0.2 0,-0.1 0,-0.2 0.2,-0.3 0.4,-0.2 0.1,-0.1 0.4,-0.1 0.4,-0.2 0.1,0 0,0 0.2,-0.1 0.1,-0.1 0,0 -0.4,0 -0.1,0.1 -0.5,0.1 -0.4,-0.2 0,0 0.1,-0.2 0.4,-0.1 0.1,0 0.3,-0.1 0.1,-0.1 0,-0.1 -0.6,-0.5 -0.1,0 0,0 -0.3,-0.1 0,0 0,-0.1 -0.1,-0.1 -0.1,0 -0.1,0 -0.2,0 0,-0.3 0,-0.1 0,-0.1 0.8,-0.7 0.5,-0.2 0.3,0.1 0.2,0.2 0.6,0.2 0.1,0 0.1,-0.1 0,0 0.1,-0.2 0,0 0,-0.1 0,-0.1 0.1,-0.1 0.1,0 0.5,0.2 0.2,0 0.3,0 0.3,0.4 0.1,0.1 0.1,0 0.2,-0.2 0,0 0,-0.1 0,-0.4 0,-0.2 -0.3,-0.4 -0.3,0 -0.1,0 -0.2,0.2 -0.2,-0.1 0,-0.1 0,-0.1 0.3,-0.2 0.5,-0.3 0.1,0 0.2,0 0.8,0 0.1,0 0.1,0 0.1,0.3 0,0 0,0.1 0,0.2 0.1,0.2 0.3,0 0.1,-0.1 0.1,0 0.1,0 0.3,0.1 0,0.1 0.2,0 0.2,0 0,0 0,0 0,-0.1 0.1,0 0,0 -0.1,-0.4 -0.1,0 -0.1,0 -0.2,-0.1 0,-0.1 0,-0.2 0.1,-0.3 0.1,-0.1 0.1,-0.2 0.1,-0.1 0.6,0 0.1,-0.1 0,-0.3 0,0 -0.1,0 -0.1,0 0,-0.1 0,0 0,-0.2 0,-0.1 0.1,-0.1 0.2,-0.1 0.2,0 0.1,0 0.1,0.1 0.3,0.3 0.1,0.3 0.1,0.1 0,0.1 0,0.1 0.4,0.5 0,0 0.1,0 0,0 0.1,0 0.1,-0.1 0,0 0,0 0,-0.1 -0.1,-0.3 0,-0.1 0.5,0 0.4,-0.4 0,-0.1 0.1,-0.1 0.1,0 0.1,-0.1 0.3,0 0.1,-0.4 0.1,-0.1 0,0 0.1,0 0,0 0,0 0,0 0,0.1 0,0.2 0.1,0.5 0,0 0,0 0,0 0.2,0 0,0 0,0 0.1,-0.3 0,-0.2 0,0 0.1,-0.1 0.1,-0.1 0.1,-0.1 0.7,0.1 0.5,0.2 0,0 0,-0.2 -0.1,-0.2 0.2,-0.3 0.2,0 0.1,-0.1 0.4,-0.2 0,-0.1 0,0 0,0 0,-0.1 0.2,-0.2 0.2,-0.1 0.3,-0.1 0,-0.1 0,0 0.1,-0.1 0,0 0.1,0 0,-0.1 0,0 -0.1,-0.1 -0.2,-0.2 0,-0.1 0,-0.2 0,-0.1 0.1,-0.1 0.1,0 0.1,0.1 0.1,-0.2 0.1,-0.3 0,-0.3 0,-0.2 -0.6,0.2 -0.6,0.3 -0.2,-0.1 -0.1,-0.1 0.1,-0.3 0.1,-0.1 0.1,-0.1 0.2,0 0.7,-0.5 0.1,-0.1 0.2,-0.1 0.6,-0.1 0.2,0 0,0 0.1,-0.2 0.1,-0.2 0.1,0 0.1,0 0.3,0.2 0.2,0.4 0,0 0.2,0.1 0,0 0.1,0 0.1,0 0.1,0 0.1,-0.1 0,0 -0.1,-0.2 0,-0.2 0,-0.1 0.1,-0.7 0.1,-0.1 0.1,0 0.1,0.1 0,0 0,0.1 0.1,0 0,0.1 0.1,0.1 0.1,0.1 0.1,0 0,0 0.2,0 0.5,0.1 0.2,0 0.1,0 0.1,-0.1 0,-0.3 0,-0.1 0.1,-0.2 0,-0.1 0.1,-0.2 0.2,0 0.4,-0.1 0.1,-0.3 0,-0.1 0,-0.2 0,-0.1 0.2,-0.6 0.1,-0.1 0.1,0 0,0 0.1,0 0.1,0 0.1,0.1 0,0 0,0.1 0.1,0.2 0,0 0.1,0.1 0.1,0.1 0.5,0.5 0.5,0 0,-0.1 0.1,-0.1 0.1,-0.2 -0.1,-0.1 -0.1,-0.1 -0.1,-0.2 0,-0.1 0,-0.1 0,-0.3 0,-0.1 0.1,0 0.1,0 0,0 0.1,0 0,0 0.1,0 0.1,0 0,0 0.1,-0.1 0.2,-0.1 0.1,-0.1 0.1,0 0.1,0 0.3,-0.1 0.1,-0.1 0.1,-0.1 0.1,-0.2 0,0 0,0 0,0 -0.1,-0.2 0,-0.2 -0.1,-0.1 0.2,-0.1 0.5,-0.3 0.2,-0.1 0.2,0 0.2,0 0.2,0 0.1,0 0.1,0.1 0.2,0.1 0,0.1 0,0.1 0,0 0.1,0 0.1,0 0.1,0 0.1,-0.1 0.1,-0.1 0,-0.1 0,-0.1 0.1,-0.1 0,-0.1 0.2,0 0.1,0 0,0 0.1,0 0.1,0 0.1,0 0,0 0,0.1 0,0.2 0,0 0.3,0.2 0,0 0,0 0.1,-0.1 0,0 0.1,-0.2 0.2,0.1 0,0 0.2,0 0.1,-0.1 0.1,-0.4 0,0 0,-0.2 0,-0.1 0,-0.1 0,-0.1 0,0 0,0 0,0 0.1,0 0,0 0.2,0.3 0.1,0.1 0.1,0.1 0,0.1 0.2,-0.2 0.2,-0.2 0.2,0.1 0.3,0 0.1,0 0,-0.1 -0.1,-0.2 0.2,-0.3 0.3,0 0,0 0.1,-0.1 0.2,-0.1 0,0 0.3,-0.6 0,0 0,0 0,0 -0.2,-0.4 0,-0.1 0,0 -0.1,0 0,-0.2 0,-0.1 0.1,-0.2 0.1,0 0.1,0 0,0 0.2,0.1 0,0 0.2,-0.1 0.1,-0.1 0.3,-0.1 0.1,-0.1 0,0 -0.1,-0.1 -0.1,0 0,0 -0.1,0 0,-0.2 0,-0.1 0,-0.1 0,0 0,-0.1 0,-0.1 0.1,-0.2 0,0 0,-0.1 0.1,0 0.1,0 0.1,0 0,0 0.1,0 0.1,0 0,0.1 0.1,0 0.2,0 0,0 0.1,-0.1 0,-0.1 0.1,0 -0.1,-0.1 0,0 0.1,-0.3 0.1,-0.4 0,-0.1 0,-0.1 0.3,0 0.1,0 0.1,0.1 0.1,0 0,0 0.6,0 0.2,0 0.3,-0.2 0.1,0 0,-0.1 0.1,-0.1 0,-0.1 0.1,-0.2 0.5,-0.2 0.1,0 0,0.1 0.1,0 0.1,-0.2 0.2,-0.2 0.2,-0.2 0.1,-0.2 0.1,-0.2 0.1,-0.3 0.1,-0.2 0.1,-0.1 0,0 0,0 0.1,0 0.1,0 0,0 0.3,0 0,0 0,0 0,-0.1 -0.1,0 0,0 0,-0.1 0,0 0,0 0,0 0,-0.3 -0.1,-0.1 0,0 -0.1,0 0,-0.1 -0.1,-0.2 0,-0.1 0,-0.2 -0.1,-0.1 -0.1,0 -0.1,-0.1 0,-0.2 -0.1,-0.1 -0.2,0.1 -0.1,0 -0.1,-0.1 -0.3,-0.3 -0.1,-0.3 -0.2,-0.6 0,0 -0.3,0.1 -0.1,0.1 0,0.1 -0.2,-0.3 0,0 -0.1,0 -0.1,0.1 -0.1,0.1 -0.1,0 -0.5,-0.2 -0.1,-0.1 -0.3,-0.1 -0.1,0 -0.2,0 -0.3,0.4 -0.2,0.1 -0.1,0.1 -0.1,0.1 0,-0.1 -0.1,-0.3 0,-0.2 0,-0.1 0.1,-0.2 0.1,-0.1 0,-0.1 0,-0.2 0,-0.1 -0.3,0 -0.1,0 0,0.1 -0.1,0 0,-0.1 0,-0.2 0.1,-0.1 0.1,0 0.2,0 0.3,-0.2 0.3,-0.4 0,-0.1 0.1,-0.5 0.1,-0.3 0.1,-0.1 0.3,-0.1 0.3,-0.1 0,-0.1 0,-0.1 -0.4,-0.1 -0.1,-0.1 0,-0.1 0.1,0 0.1,0 0.1,0 0.1,-0.2 0.1,0 0,0 0.1,0 0,0.1 0.1,0 0,0 0,-0.1 0,0 0,-0.1 0.2,0 0,0 0,0.1 0,0 0.1,-0.2 0.1,-0.1 0.1,-0.1 0.2,0 0.2,0.1 0.1,0 0.3,-0.1 0.2,0 0.2,-0.3 0,-0.2 -0.1,-0.3 -0.2,-0.2 0.1,-0.2 0.3,0 0.4,0 0.1,0 0.1,0.1 0.2,0 0,-0.1 0.2,-0.3 0,-0.1 0,-0.1 -0.2,-0.1 -0.1,-0.1 0,-0.1 0,-0.1 0.1,-0.1 0.1,0.2 0.1,0.1 0.4,-0.1 0.1,-0.1 0.2,-0.4 0,-0.1 0,-0.2 0,-0.1 0,-0.2 0,-0.2 0.1,-0.3 0.1,0.1 0.3,0.7 -0.1,0.5 -0.1,0.2 -0.1,0.1 -0.1,0.1 0,0.1 0,0 0,0 0.1,0 0.1,0 0.1,0 0.1,0.2 0,0 0.1,0 0.1,0 0,0 0,-0.1 0,0 0,-0.2 -0.1,-0.1 0,0 0.1,0 0.1,0 0.1,0 0,0.3 0.1,0.1 0.1,0.1 0.2,0 0.1,0 0.3,-0.1 0.1,-0.1 0.2,-0.2 0,0 0.1,0 0.3,-0.1 0.1,-0.1 0.1,-0.3 0.3,-0.6 0,0 0,-0.1 0,-0.1 0,-0.2 -0.1,-0.2 0,0 -0.1,-0.1 -0.4,-0.1 -0.2,0.2 -0.1,0.1 -0.2,-0.2 -0.1,-0.1 -0.1,0 -0.1,0 -0.1,0.1 -0.1,0 0,-0.1 0,0 0.1,-0.1 0.1,-0.1 0.2,-0.2 0,0 0.1,-0.1 0.4,0.1 0.4,-0.1 0.2,-0.1 0.2,0 0.1,0 0.2,0.1 0.1,0.1 0.2,0 0.1,0 0.1,0 0,0.1 0.1,0 0.3,0 0,-0.1 0.1,-0.1 0.3,-0.1 0.2,-0.1 0.1,-0.1 0,-0.1 0.2,-0.4 0.2,-0.2 0.3,-0.2 0,-0.1 0,-0.1 0.1,-0.1 0.1,-0.1 0.1,-0.3 0,-0.1 -0.1,-0.2 -0.2,-0.2 -0.1,-0.1 -0.1,-0.2 0,0 0.1,-0.1 0,-0.1 -0.1,-0.1 0,0 -0.2,-0.1 -0.1,-0.1 0,-0.2 0,-0.1 0.1,-0.2 0,-0.1 0.2,0 0.1,0 0.1,0 0.1,0 0.1,0.1 0.1,0 0,0 0,0 0.4,0 0,0 0.1,-0.2 0.1,-0.1 0.3,-0.3 0,0 0.1,-0.1 0.1,0 0.1,0 0,0 0.1,-0.2 0.1,-0.2 0,-0.1 0.1,-0.2 0,-0.1 0,0 0.1,0 0.2,0 0,0 0,0 0,0 0.1,0 0.4,-0.2 -0.3,-0.3 -0.1,0 -0.1,-0.2 0,-0.1 0,-0.2 0,-0.1 0.1,-0.3 0,-0.1 0.3,-0.3 0.4,-0.3 0.2,-0.1 0.1,0.1 0.1,0 0,0 0.2,-0.6 0.3,-0.6 0.7,-0.3 0,0.1 0.1,0 0,0 0,-0.1 0.1,0 0.1,0 0,0 -0.1,0.1 0,0.1 0.3,-0.1 0.1,-0.1 0,-0.1 -0.1,-0.1 0,0 0,0 0.1,0.1 0,0 0.1,0.1 0,0 0.1,0 0.1,0.1 0.1,0.1 0.1,0 0.2,0.1 0,-0.1 0,0 0,-0.1 0,0 -0.2,-0.7 -0.1,-0.3 0,-0.2 -0.1,-0.2 0,-0.1 0.1,-0.1 0,-0.1 0.3,-0.2 0.1,-0.2 0.1,-0.2 0.1,0 0.1,-0.1 0.2,-0.2 0,0 0.1,-0.1 0.3,-0.2 0.2,-0.1 0.4,-0.2 0.1,0 0.2,0 0.4,0.1 0.1,0 0.1,-0.1 0.1,-0.1 0,0 0.1,-0.1 0.2,0 0.3,0 0.1,0 0.1,0 0,0 0.2,-0.2 0.1,-0.1 0.1,-0.1 0,0 0,0 0.1,-0.1 0.2,-0.4 0.1,-0.1 0.3,-0.4 0.1,0 0.1,-0.1 0.1,0 0,0 0.1,0 0,-0.1 0,0 0,0 0.1,0.1 0.2,0 0.3,-0.1 0,0 0.1,0 0.7,-0.2 0.1,-0.1 0,-0.1 0.1,-0.1 0.1,-0.2 0,0 0.1,0.1 0.1,0.1 0.1,0.1 0.1,0 0.1,0 0,0 0.1,0.2 0,0 0.2,0.2 0,0.1 0.1,0 0.2,0 0.2,0 0.3,0 0.1,0 0.1,0 0.1,0 0.1,0.1 0,0 0.1,0 0.1,0 0.2,0 0.4,0 0.3,0.1 0.5,0.2 0,0 0,0.1 0,0 -0.2,0.2 0,0.1 -0.3,0.3 0,0 0,0.1 0,0.1 0.1,0.1 0.2,0.1 0.1,0.2 0,0 0.1,0.1 0.2,0.2 0,0.1 0.2,0.2 0.2,0.1 0,0 0,0.1 0.1,0.1 0.1,0.1 0,0.1 0,0 0.2,0.1 0.1,0.1 0,0.3 0,0.1 -0.1,0.2 -0.1,0 0,0 -0.2,0 -0.1,0 -0.1,0 -0.1,0 -0.1,0.1 -0.1,0.1 -0.1,0.1 -0.1,0.1 0,0 -0.2,0.1 -0.2,0 -0.1,0 -0.1,0 -0.1,0 0,0 0,0 0,0.1 -0.1,0 -0.1,0 -0.1,0 -0.1,-0.1 -0.1,0 -0.3,-0.1 -0.2,-0.1 -0.1,-0.1 -0.1,-0.1 -0.1,-0.3 -0.1,-0.3 -0.2,-0.4 -0.1,-0.1 -0.1,-0.1 0,0 -0.1,0 -0.2,0.1 -0.1,0.1 -0.3,0.1 -0.1,0 0,0 -0.4,0.2 -0.1,0.1 -0.5,0.1 0,0 -0.1,0.2 -0.4,0.3 -0.3,0.2 -0.2,0.1 -0.2,0.2 0,0.1 -0.1,0 -0.3,0.2 -0.2,0.1 -0.1,0.1 -0.1,0 -0.1,0 0,0.1 -0.1,0 -0.1,0.1 -0.1,0 -0.2,0 -0.6,0 -0.1,0 -0.2,0 0,0 0,0.1 0,0.1 -0.1,0.1 0,0 0,0 0,0 -0.1,0.1 0,0 -0.1,0 0,0 -0.3,0 -0.1,0 0,0 -0.1,0.1 0,0 0,0.1 0,0 0,0.1 0,0.2 0,0.1 0,0 0,0.1 0.1,0.1 0,0 0,0.1 0,0.1 0,0.1 0,0 0,0.1 0,0 0,0.1 0,0.1 0,0.1 0,0.1 0,0.1 0.1,0.2 0.1,0.1 0,0 0.1,0.1 0,0 -0.1,0.2 -0.1,0.1 0,0.1 -0.1,0.4 0,0.1 0,0.2 0,0 0,0.2 -0.1,0.2 -0.1,0.3 0,0 0,0 -0.1,0.1 -0.3,0.1 -0.1,0.1 -0.1,0.1 0,0.1 0,0.1 0,0.1 -0.1,0.3 -0.1,0.3 -0.2,0.3 0,0.1 -0.1,0.2 -0.4,0.5 -0.2,0.3 -0.2,0.2 -0.1,0.1 -0.2,0.2 -0.1,0.1 -0.1,0.2 0,0 -0.1,0.1 0,0 -0.1,0 -0.1,0.2 0,0 0,0 0,0 -0.1,0.2 0,0.1 -0.2,0.6 0,0.1 0,0.1 -0.1,0.1 -0.2,0.2 -0.1,0.1 -0.1,0.1 0,0.1 0,0.3 -0.1,0.1 -0.1,0.2 -0.1,0.3 -0.1,0.1 0,0 0,0.1 0,0.1 0,0.2 0,0.1 0.1,0.2 0.2,0.2 0.3,0.3 0.2,0.2 0.1,0.1 0.1,0 0.2,0.1 0,0 0.5,0.2 0.1,0 0.2,0.1 0.2,-0.1 0.1,-0.1 0,0 0,-0.1 0,0 0,0 0,0 0.1,-0.1 0,0 0.2,0 0.1,0 0.2,0 0.5,-0.3 0,0 0,0 0.2,-0.1 0.3,-0.2 0.1,-0.1 0.1,-0.1 0,0 0.1,-0.1 0.2,0 0.1,-0.1 0,0 0.2,0 0.1,0 0,0 0,0 0,0 0.1,0.1 0.2,-0.1 0.1,0 -0.1,0.1 -0.5,0.3 -0.5,0.5 -0.1,0.2 -0.1,0.2 0,0.1 0,0 -0.3,0.2 -0.2,0 -0.1,0 0,0.1 0.1,0.3 0.1,0.1 0,0.1 0,0.1 -0.2,0.2 -0.1,0 0,-0.1 0,0 0,-0.1 -0.4,-0.1 0,0.1 0,0 0,0.1 0,0 0,0.1 0,0.1 0,0.1 -0.3,0 -0.3,0.1 -0.3,0 -0.1,0.1 -0.2,0.3 0,0.2 0,0.1 -0.1,0 -0.1,0 -0.1,0 -0.1,0 0,0 -0.1,0 -0.2,-0.1 -0.1,-0.1 -0.2,0.1 -0.1,0 -0.1,0 -0.1,0 0,0.1 0,0.1 0,0 0,0.1 0,0 0,0 -0.1,-0.1 -0.1,0 -0.3,0.1 -0.4,0.2 -0.1,0.2 0,0 0.1,0.1 0,0.1 0,0.1 -0.1,0.1 0,0 -0.1,0.1 -0.2,0 0,0.1 -0.1,0.1 -0.2,0.2 0,0.7 0.1,0 0.1,0 0,0 0.2,0 0.1,0.1 0,0.1 -0.1,0 0,0 0.2,0.2 0.2,0.1 0.5,-0.1 0,0 0,0.1 -0.1,0.4 0.1,0.2 0,0.1 0.1,0 0.1,0 0,-0.1 0.7,0.1 0.1,0 0,-0.1 0,-0.1 0,-0.1 0.1,0 0.2,0.1 0.1,0 0.1,-0.1 0,0 0,-0.1 0,0 -0.1,-0.1 0,-0.1 0,-0.1 0.1,0 0.1,0 0.2,-0.1 0.1,-0.1 0.1,-0.1 0.1,-0.1 0.1,0 0,0.2 0,0.1 0.1,0.1 0.2,0.3 0.2,0.2 0.1,0 0,-0.1 0,0 0,-0.1 0,0 0,0 0.1,0.1 0.2,0 0.1,0.1 0.1,0.1 0,0.1 0,0 0.1,0 0.2,-0.1 0.1,-0.1 0,-0.1 0,-0.1 0,-0.3 0.1,-0.1 0,0 0.1,-0.1 0,0 0,-0.1 0.1,-0.1 0.1,0.1 0,0 0,0.2 0.1,0.1 0.2,0 0,0.2 -0.1,0 0,0.1 0,0.2 0,0.1 0,0 0.1,-0.1 0.1,0 0.1,0 0.1,0 0.3,-0.2 0.1,-0.1 0,0 0,-0.2 -0.1,-0.2 0,-0.1 0.2,0 0.3,-0.4 0.1,0 0.2,0 0.2,-0.1 0.2,-0.3 0.1,-0.3 0,-0.1 0.1,-0.2 0.1,-0.1 0.2,0 0.1,0 0,0 0,0.1 0,0.1 0,0.1 0.3,0 0,-0.1 0.1,-0.1 0,-0.1 0,-0.2 0,-0.1 0,0 0,-0.2 0,-0.1 0,0 -0.1,-0.1 -0.1,-0.1 0,-0.1 0,-0.1 0.1,0 0.1,0.1 0.1,0 0.1,-0.1 0,-0.1 0.1,-0.1 0.1,-0.1 0.1,0 0,0 0,0.1 0,0.2 -0.1,0.3 0,0.1 0,0.2 0,0.2 0.1,0 0.1,0.1 0,0.1 0,0.1 0,0 0,0.1 0,0.1 0.1,0.1 0.1,0 0.3,-0.6 0.2,-0.5 0.4,-0.5 0,0 0.2,0.1 0,0.4 -0.1,0.3 -0.1,0.3 0.2,0.1 0.4,-0.1 0.2,-0.2 0.3,-0.2 0.4,-0.4 0.1,-0.5 0.2,0.1 0.1,0.3 0.1,-0.5 0.2,-0.3 0.2,-0.1 0.1,-0.2 -0.2,-0.3 -0.2,-0.1 -0.1,-0.2 0.1,-0.2 0.2,0 0.2,-0.1 0.5,0.2 0.3,0.4 -0.1,0.6 0.2,0.3 0.1,-0.1 0.1,-0.1 0.1,-0.2 0.1,-0.1 0.1,-1.5 0.3,-0.5 0.2,0.7 0.1,0.6 0.2,0.5 0.4,0.1 0,-0.1 0,-0.1 0.1,-0.5 -0.2,-0.2 -0.2,-0.5 0.3,-0.6 0.3,-0.5 0.2,0.1 0.1,0.1 0.2,-0.5 0,0 0.1,0 0.1,-1 0,0 0.2,-0.1 0.2,0 0.1,0.2 0,0.1 0,0.8 0,0.2 0.1,0.9 0.1,0 0,-0.1 0.1,-0.1 0.1,-0.1 0,-0.1 0.1,-0.5 0.2,-0.3 0.4,-0.4 0.2,0 0.2,-0.2 0.1,0.1 0.1,0.1 0,0.1 0,0.1 -0.2,0.1 -0.1,0.2 0,0 0,0 0,0 0,0.1 0,0.1 0,0 0.1,0 0.2,-0.2 0,0 0,0.1 0,0 0,0.1 0.1,0 0.2,0 0.1,-0.1 0.1,-0.1 0.1,0 0.1,0 0,0 0,0.1 0,0 0.1,0.1 0.1,0.1 0,0.1 0.1,0.1 0.1,0 0.1,0 0.1,-0.2 0.1,-0.1 0,0 0.2,0 0,0 0,0 0,0 0,0 0,0 0,0.1 0,0.1 0,0.1 0,0 0,0 0.2,0 0.1,0 0,0 0.1,0 0,0 0,0 -0.1,0.2 0,0 0.2,0.1 0,0 0.2,-0.1 0.1,-0.2 0.2,-0.2 0,-0.1 0.1,-0.2 0.2,0 0.2,0.1 0,0.1 0,0.1 0,0 0,0.1 0.1,0.1 0.1,-0.1 0.2,-0.3 0.2,-0.8 0.1,-0.6 0.1,-0.4 0.1,0 0.2,0 0.1,0 0.1,0.1 0,1.1 -0.1,0.1 -0.1,0.3 0.2,0.2 0.4,0 0.2,0 0.2,0.1 0.1,0 0.1,0.1 0,0.1 -0.1,0 -0.2,0 -0.1,-0.1 -0.1,0.1 -0.3,0.4 0,0 0.2,0.1 0.4,0 0.1,-0.1 0.2,-0.1 0.1,-0.1 0.1,-0.1 0.1,0 0,0.1 0,0.1 0.1,0.1 0,0 0.1,-0.1 0.6,-0.2 0.3,-0.2 0.3,-0.4 0.1,-0.2 0,0 0,0 -0.2,-0.1 -0.1,0 -0.1,0.1 -0.1,0 -0.2,0.3 -0.4,0.4 -0.2,-0.1 0,-0.1 0.1,-0.4 0.1,-0.3 0,0 0.1,0 0.4,-0.3 0.1,-0.1 0,-0.1 0,-0.1 -0.1,-0.1 -0.3,-0.1 -0.2,0.1 -0.1,0.1 0,0 0,0.1 -0.1,0.1 0,0 -0.1,0.1 0,0 0,0 -0.2,0.2 -0.1,0.1 -0.1,-0.1 0.2,-0.5 0.2,-0.3 0.2,0.1 0,0 0.1,-0.1 0.1,-0.1 0,-0.1 -0.3,-0.3 0,0 -0.1,0.1 0,0.1 0,0 0,0.1 -0.1,0 -0.2,0 0,0 0,-0.2 0,-0.1 0.1,0 0.2,-0.3 -0.3,-0.3 -0.1,0 0,0.1 -0.1,0.2 -0.1,0.1 -0.2,-0.1 -0.2,-0.2 0.1,-0.2 0.1,0 0.1,0 0,-0.1 0,0 -0.1,-0.1 0,0 -0.4,0.1 -0.3,0.3 -0.1,0 0,0 -0.1,-0.1 0.2,-0.4 0.1,0 0.1,-0.1 0.4,-0.3 0,-0.1 0,-0.1 0,-0.1 0.1,-0.1 0.1,0.1 0.1,0.1 0,0.1 0,0.1 0,0.1 0,0.1 0.2,0.2 0.3,0.1 0.2,0 0.3,-0.8 0.4,-1.1 -0.1,-0.5 0,0 0.1,-0.2 -0.1,-0.2 -0.5,-0.9 -0.1,0 0,0 -0.5,0.4 -0.3,0.4 -0.1,0.1 0,0.1 0,0.1 -0.2,0.1 -0.2,0.1 -0.1,-0.1 0,-0.2 0.1,-0.3 0,0 0.2,-0.2 0.1,-0.2 0.3,-0.3 0.1,0 0.1,0.1 0.5,-0.3 0.3,-0.4 0.1,-0.2 -0.1,-0.7 -0.1,-0.1 -0.1,-0.1 -0.5,-0.1 -0.2,0.1 -0.1,0 -0.3,0.5 -0.1,0.3 -0.1,0.1 0,-0.2 0.2,-0.6 0,-0.3 -0.1,-0.1 -0.1,0 -0.1,0 -0.2,0.1 0,-0.1 0,-0.2 0,-0.1 0,-0.1 0.2,-0.2 0.1,0.2 0.1,0.1 0.1,0 0.1,0 0.1,0 0.2,-0.3 0.1,-0.3 0.1,-0.6 0.1,-0.2 0.1,0 0.1,-0.2 0.1,-0.2 0.2,-0.3 0.1,-0.5 0,-0.3 0.1,-0.1 0.2,0.1 0.1,0.4 0,0.3 0,0.1 0.1,0 0.4,-0.5 0,-0.1 0.1,-0.1 0,0 0,0.1 0.1,0 0,0.3 0,0.1 -0.4,0.6 -0.3,0.4 -0.2,0.2 -0.1,0.2 -0.3,0.8 0,0.1 0,0.2 0.1,0.1 0.2,0 0.4,0.1 0.7,-0.3 0,-0.1 0,-0.1 0.3,0.1 0.1,0.1 0.3,0.1 0.2,0 0.1,0 0,0 0,-0.1 -0.1,-0.3 -0.1,0 -0.1,-0.1 -0.1,-0.1 0.2,-0.5 0.2,0 0.3,0.4 0,0.1 -0.1,0 0,0.3 0,0 0.2,0 0.2,0 0.1,-0.3 0,-0.5 0,-0.4 0,-0.2 0.2,-0.5 0.3,-0.7 0,-0.1 0,-0.1 0.2,0 0.1,0 0,0.3 -0.1,0.1 -0.1,0.3 0,0.1 -0.2,1.3 0,0.1 0.1,0.1 0,0 0.1,-0.2 0,-0.1 0,0 0,0 0.1,-0.4 0.1,0 0.1,0.2 0,0.2 0,0.3 0,0 0.4,0.2 0.6,-0.4 0,-0.5 0,-0.1 0.1,-0.1 0.2,0 0,0.1 0,0.1 0,0.1 0,0.1 0.1,0.1 0.1,0.1 0.1,0 0.2,-0.1 0.1,-0.1 -0.1,-0.2 0.1,-0.2 0.2,-0.2 0,-0.1 0,0 0.2,0.1 0.1,0.1 0,0 -0.1,0.2 0,0.1 0,0 0,0.1 0,0 0.1,0 0.1,0 0.2,0.1 0.1,-0.1 0.1,0 0,0 0,0 0.2,-0.1 0.1,-0.1 0,0 0,-0.1 0.1,0 0,-0.1 0,-0.1 0.1,-0.1 0,0 0.4,-0.5 0.1,0 0.3,-0.1 0.2,-0.1 0.2,0.1 0,0.2 -0.1,0.3 -0.2,0.4 -0.3,0.3 0,0.2 0,0.3 0.1,0.2 0.1,0.1 0,0.1 0,0.1 0,0 -0.1,0.1 -0.2,-0.1 -0.1,0 -0.1,0.1 -0.2,0.1 -0.1,0.2 0,0.3 0.1,0.2 0.3,0 0.2,0 0,0 0.1,-0.1 -0.1,-0.1 0,-0.1 0.1,-0.1 0.1,-0.2 0.1,-0.1 0,0 0.2,0 0.3,0.7 0.1,0 0.9,0 0.4,-0.1 0.1,-0.1 0.1,-0.2 0.1,-0.2 0,0 0.4,0 0.1,0.1 0,0 -0.1,0.2 -0.4,0.4 -0.3,0.1 -0.3,0.1 -0.6,0.1 -0.2,0 -0.4,0.2 -0.2,-0.1 -0.6,0.2 0,0.1 0.1,0.5 0.1,0.1 0.1,0 0.1,-0.1 0.1,0 0,0 0.2,0.1 0.1,0 0,0 0.1,0 0.1,0 0.2,0 0,0 0,0 0.1,0 0.1,0 0.1,0 0,-0.1 0,-0.1 0.1,-0.1 0.2,-0.2 0.2,0.1 0,0.1 0,0 0.1,0 0.1,0 0.1,0 0.1,-0.1 0,-0.1 0,-0.1 0.1,0 0,-0.1 0.1,0 0,0.1 0,0 0.1,0 0.1,0.1 0,0 0.2,-0.1 0.1,-0.1 0.1,-0.1 0.1,0 0,0 0.1,-0.1 0,0 0,0 0.1,0.1 0,0.1 0,0.1 -0.4,0.3 -0.1,0.1 -0.1,0 -0.2,0.2 -0.1,0 -0.4,0.4 -0.1,0 0,0 0,0 0.1,0.1 0,0.1 0,0.1 0.4,0 0.2,-0.1 0,0 0,-0.1 0.1,0 0.2,-0.1 0.2,-0.1 0.2,-0.1 0,0 0.2,-0.2 0.4,-0.3 0,0 0,0.1 -0.1,0.1 -0.1,0.1 0,0 -0.2,0.2 -0.2,0.3 0,0.2 0,0.1 0,0 0,0 0.2,-0.1 0.1,-0.1 0.1,-0.2 0,0 0.2,-0.2 0,0 0.1,-0.1 0.1,-0.1 0,0 0,0 0,0 -0.2,0.2 -0.1,0.1 -0.1,0.1 0,0.3 0,0.1 0,0.1 0.1,0 0.2,0 0.2,0 0.1,0.1 0.1,0.1 0,0 0,0 -0.3,0.1 -0.2,0 0,0 -0.4,0.1 -0.8,0.3 -0.4,0.2 -0.8,0 -0.2,0.2 -0.3,0.2 -0.5,0.1 -0.3,-0.2 -0.1,-0.1 0,-0.1 -0.4,0 -0.1,0.1 -0.2,0.2 -0.5,0.8 0,0.1 0,0.3 0,0.1 0.4,0.1 0.2,0 0.1,-0.1 0.2,-0.1 0.2,0 0.1,0.1 -0.1,0.1 -0.2,0.2 -0.1,0 -0.3,0.2 -0.2,0.1 -0.1,0.1 0,0.1 0,0.1 0.2,0.3 0,0 0.1,0 0.1,0 0,0 0.1,-0.1 0.1,-0.1 0,0 0.1,-0.1 0.1,0 0.1,-0.1 0.2,-0.1 0.2,-0.2 0.1,-0.1 0.2,-0.1 0,0 0.1,0 0,0 0.4,-0.1 0.2,0 0.4,-0.1 0.4,-0.3 0.3,-0.3 -0.2,-0.2 0,-0.1 0,0 0,0 -0.9,0.1 -0.1,0 -0.1,0.1 -0.1,0 0,-0.2 0,-0.3 0,-0.1 0.2,-0.1 0,0 0.4,0.1 0.2,0 0.6,-0.2 0.2,-0.1 0.2,-0.2 0.4,-0.2 0.8,-0.4 0.1,0 0.1,-0.1 0.1,-0.2 0.1,-0.1 0.1,0 0,0 0.1,0.1 0,0 0,0 -0.2,0.2 0,0.1 -0.1,0.1 -0.2,0.3 -0.4,0.2 -0.3,0.1 -0.3,0.3 0,0 0,0 0,0.1 0.4,0.2 0.1,0 0.4,-0.2 0.4,-0.1 0.4,0.1 0.4,0.2 0.2,0.1 0.1,0.2 0.2,0.1 0,0 0,0.1 0,0 0,0.2 0.8,0.6 0.8,0.5 0.6,0.1 0,-0.1 -0.3,-0.4 -0.2,-0.5 0.1,-0.3 0.1,-0.1 0.2,-0.1 0.2,-0.1 0.6,-0.2 0.2,0 0.1,0 0.3,0 0.1,-0.1 0.1,0 0.2,0.1 0.1,0.1 -0.2,0.3 -0.1,0.1 -0.2,0.5 -0.2,0.9 0.2,0.1 0.1,-0.1 0.7,0 0.1,0.1 0.2,0.2 0.3,0.4 0,0 0,0.1 0,0.1 0.1,0.2 0.3,0.3 0,0 0.1,0 0.1,0 0,0 0,0 0.1,-0.1 0.1,0 0.2,0 0.1,0.1 0.2,0.2 0.1,0.1 0.3,0 0.1,-0.2 0.1,0 0.2,0 0.4,0.1 0,0.2 0.1,0.3 0.2,0.1 0.4,0.3 0.6,0.7 -0.1,0.1 0,0.1 0.1,0.1 0,0 0.2,0 0.1,0 0.1,0 0,0 0,0 0.1,0.1 0.3,0.1 0.1,0 0.1,0 0,0 0.1,0 0.2,-0.1 0.2,0 0.5,-0.1 0,0 0.2,-0.1 0.2,0 0.6,-0.1 0.6,-0.1 1.3,-0.1 0.4,0 0.4,-0.1 0.9,-0.2 0.2,0 0.4,0 0.7,0 0.6,0.1 0.3,0 1.7,0.4 0.7,0.2 0.2,0.1 0.2,0 0.3,0 0.2,0 0.3,0.1 0.3,0.1 0.9,0.6 0.4,-0.2 0.6,-0.2 0.4,0.1 0.1,0.9 0,0.2 0.1,0 0.1,0.1 0.3,0.1 0.1,0 0.7,0.3 0,0 0.1,0.1 0.3,0.1 0.4,0.2 0.5,0.3 0.5,0.3 0.2,0.1 0,0 0.9,0.3 0.5,0.1 0.2,0 1.3,0.2 0.4,0 0.1,0 0.1,0 0,0 0.1,0 0.1,0 0.3,-0.1 0.1,-0.1 0,-0.1 0.1,-0.1 0.1,-0.1 0.2,-0.1 1.1,-0.6 0.6,-0.3 0.1,-0.1 0.2,-0.1 0,0 0,-0.3 0.3,-0.7 0.1,-0.1 0.1,0 0.2,0 0.3,-0.1 0,0 0.1,-0.6 0.1,-0.2 0,-0.1 0.3,0 0.1,0.3 0,0.2 -0.2,0.6 0,0.1 -0.2,0.2 -0.1,0.1 0,0 0,0 0,0.1 0,0.2 0,0.3 0.2,0.6 0.1,0.2 0.1,0.2 0.1,0.2 -0.1,0.1 -0.1,0.1 0,0.1 -0.1,0.1 0,0 0,0.1 0,0.1 0.2,0.1 0.1,-0.1 0.1,0.3 -0.2,0.2 0,0.1 -0.2,0.2 -0.1,0.2 0,0.1 0,0 0,0 0,0 0,0 -0.2,0.1 0,0 -0.1,0 -0.1,0 -0.1,0 0,-0.1 0,0 0.1,-0.1 0,-0.1 -0.1,-0.1 -0.2,-0.1 -0.1,0 -0.1,0 0,0.1 -0.2,0.4 -0.1,0.4 -0.1,0.1 -0.1,-0.1 -0.1,0 0,0 -0.1,0 0,0 -0.1,0.1 0,0 0,0.1 0.2,0.1 0.4,0.2 0.6,0.4 0.2,0.1 0,0 0.1,0.1 0.3,0.2 0.5,0.4 0.2,0.1 0.5,0.3 0.2,0.1 0.2,0.1 0.1,0.1 0.3,0.1 0.1,0 0.2,0.1 0,0 0.4,0.2 0,0 0.2,0.1 0.1,0.1 0.1,0 0.3,0.2 0.2,0.1 0.1,0.1 0.3,0.2 0.1,0 0.2,0.2 0.2,0.2 0.1,0.1 0.1,0.1 0.1,0.1 0.1,0.1 0.3,0.3 0.1,0.1 0.1,0.1 0,0 0.6,0.3 0.2,0.1 0.1,0.1 0.1,0 0.2,0.1 0.1,0 0.7,0.3 0.1,0 0.6,0.2 0.2,0.1 0,0.1 -0.1,0.1 0,0.2 0.4,0.3 0.4,0.5 0.1,0 0.2,0.3 0.1,0.2 0,0.3 0,0.2 0,0 -0.1,0.1 0,0.1 0,0 0,0.1 0.1,0.2 0.1,0.2 0.2,0.1 0.5,0.3 0.7,0.7 0,0.1 0,0.2 0,0.1 0,0.1 0,0.1 0.2,0.1 0.1,0.1 0.1,0 0.2,0.1 0.4,0.3 0,0 0.5,0.4 0.1,0 0.2,0.1 0,0 0.1,0.1 0.4,0.3 0.1,0.1 0.2,0.1 0,0 0.2,0.1 0.2,0.1 0,0 0.3,0.2 0,0 0.1,0.1 0.2,-0.1 0.1,-0.1 1.2,0.8 0,0.1 0.1,0 0.1,0.1 0,0 0.2,0.1 1.5,3.3 0,0.9 0,0.1 0,0.1 0,0 0.1,0 0.3,0.2 0.1,0.3 0,0 0.1,0.1 0,0.1 0.1,0 0.2,0.1 0.1,0.1 0.1,0 0,0 0,0 0.4,0.5 0,0.1 0,0.1 0.1,0.1 0.1,0.4 0,0 0.1,0.2 0.1,0.1 0.1,0.1 0.1,0.1 0.2,0.3 0,0 0,0.1 0.1,0 0.3,0 0.2,0.1 0,0 0.3,0.3 0.4,0.5 -0.1,0.2 0,0.1 0,0 0.1,0.1 0.1,0.1 0.2,0.2 0,0 0.1,0 0.1,0.2 0,0 0.1,0.1 0.1,0.1 0,0.1 0,0.2 0.1,0.1 0.2,0.1 0.1,0 0.5,0.1 0.3,0.1 0.1,0 0.1,-0.1 0,-0.1 0.1,-0.1 0,0 0,-0.1 0,0 0,0 0,0 0.1,0 0,0 0.1,0.1 0,0 0,0 0,0.1 0.1,0 0,0.1 0,0 0,0.1 -0.1,0 -0.2,0.1 -0.1,0 0,0.1 0,0.1 0.1,0.2 0.2,0.1 0,0 0.1,0.1 0.1,0.1 0,0.1 0,0 0,0 0.2,0.3 0.1,0.1 0,0 0.1,0.1 0.2,-0.2 0.1,-0.1 0.1,-0.1 0.1,0 0.1,0.1 0.1,0 0.1,0 0,0 0.3,0 0,0.1 0,0.1 -0.1,0.1 0,0.2 0.1,0.1 -0.1,0.2 -0.1,0.2 0,0.2 0.1,0.1 0,0.1 0,0.1 0,0.1 0,0 0,0.1 0,0 0.1,0.1 0,0 0,0.1 0.1,0.1 0,0.1 0,0 -0.1,0.1 0,0.1 0.2,0.1 0.1,-0.1 0,0 0.1,0 0,0.2 0,0.1 0,0.1 0,0.1 -0.1,0 -0.1,0 -0.1,0.2 0.1,0.3 0.1,0.2 0.2,0.2 -0.1,0.2 -0.1,0.1 -0.2,0.8 0,0.2 0.1,0.3 0,0.1 0.3,0 0,0 0.2,-0.1 0.2,0.2 -0.1,0 0,0 -0.1,0 0,0 0,0.1 0,0 0.1,0.1 0.2,0.3 0.3,0.1 0.1,0 0.6,0.9 0,0 0.4,0.6 0,0 0,0.1 0,0 0.2,0.3 0.1,0.2 0,0.1 0.1,0.2 0,0.2 0.1,0.1 0,0 0.2,0.4 0.2,0.3 0,0.1 0.1,0.1 0,0 0.4,0.4 0.1,0.3 0,0.1 0,0.1 0.1,0.3 0.7,0.6 0.2,0.1 0,0 0.1,-0.2 0,-0.2 0.1,-0.8 0,-0.2 0,-0.3 -0.1,-1 -0.1,-0.8 -0.1,-0.2 0,0 0,-0.1 0,-0.2 0,-0.2 0.2,0 0,0 0,-0.1 0,-1 0,-0.3 -0.2,-0.7 -0.2,-0.8 -0.1,-0.2 -0.1,-0.3 0,-0.6 -0.2,-0.3 -0.1,-0.2 0,-0.2 0,-0.4 0.7,-0.8 0.2,0.4 0.2,0.1 0.3,-0.1 0.8,2.1 0,0 0.2,1.3 0.3,0.5 0.4,0.3 0.3,0.3 0,0.4 0.2,0.3 0.8,0.8 0.1,0.1 0.1,0.1 0.4,0.6 0,0.1 0,0 -0.1,0.2 -0.5,-0.2 -0.2,-0.3 -0.1,-0.1 -0.1,-0.1 -0.1,-0.1 -0.2,0.1 0,0.1 0.1,0 0.2,0 0.1,0.1 0,0.1 0,0.2 -0.3,0.4 -0.3,0.4 0,0.7 0,0 0.1,0 0.2,0.2 0,0.5 0.2,0.6 0,0.3 -0.1,0.1 0,0.1 0.2,0.6 0,0 0.2,0.1 0.2,0.2 0.1,0.2 0.2,0.2 0,0 0.1,-0.2 0,-0.4 -0.1,-0.2 0.1,-0.1 0,-0.7 -0.1,0.1 -0.2,-0.1 -0.2,-0.1 0.1,-0.1 0.1,-0.1 0,0 0.3,-0.2 0,-0.4 0,-0.1 0.2,0 0.1,0 0.2,0.3 0.1,0.4 0,0.1 0,0.2 -0.1,0.2 0,0.1 0.1,0.2 0,0 0.2,0.1 0.1,-0.1 0.1,-0.1 0,-0.8 -0.1,-0.4 0,0 0,0 0.1,0 0.1,-0.1 0.1,0.1 0.1,-0.3 0.3,-1 0,-0.2 -0.1,-0.1 -0.3,-0.1 -0.2,-0.1 0.1,-0.2 1.7,0.9 0.2,1.2 0.3,0 0.3,0.3 0.1,0.1 0,0.2 -0.6,0.7 -0.2,0.1 -0.1,0 -0.2,0.5 -0.1,0.2 -0.1,0.1 -0.1,0.2 -0.1,0.1 -0.1,0 -0.1,0.2 0,0.2 0.2,0.3 0.1,0 0.2,0.1 0.1,0 0.1,0 0.1,0 0.1,0 0,0 0.2,-0.1 0.6,-0.7 0.3,-0.5 0.2,0.8 0.4,0.7 0.2,0.1 0.1,0 0.2,0.1 0.1,0.1 0.1,0.5 -0.1,0.1 -0.1,0 -0.4,0.2 -0.2,-0.1 -0.7,-0.4 -0.1,-0.1 -0.4,0.1 -0.1,0.1 -0.2,0.5 0,0.1 0.4,0.5 0.1,0.1 0.3,0.2 0.2,0.1 0.2,0 0.2,-0.1 0,-0.1 0,-0.1 0,-0.1 0,0 -0.1,-0.1 -0.1,-0.1 0.1,-0.1 0.3,0.1 0.2,0.1 0,0.1 0.2,0.5 0,0.3 0,0 -0.1,0 -0.2,0.3 0.4,0.3 0.6,0.3 0.1,0.1 0.1,0.1 0.6,-0.2 0.1,0.1 0.1,0.1 0.2,0.5 0,0 0,0.1 -0.1,0.1 0,0 0.1,0.1 0,0.2 0,0.1 0,0 0.1,0.2 0.1,0.1 0,0 -0.1,0.2 0,0 0,0.1 -0.2,0.2 -0.1,0.1 -0.2,-0.1 -0.1,0.1 -0.2,0.2 -0.1,0.1 0,0.1 0,0.1 0,0.1 0.2,0.1 0.1,0.1 0,0 -0.1,0.2 -0.1,0.1 -0.2,-0.1 -0.1,-0.3 0,-0.1 -0.1,-0.2 -0.1,0 -0.3,0.1 -0.2,0.2 -0.1,0.1 0,0.1 0,0.5 0,0.1 0,0.1 0.1,0.3 0.1,0.1 0,0 0.1,0 0,0 0.1,0 0.2,-0.2 0.1,0 0,0.1 0.1,0.2 0.1,0 0.3,-0.1 0.1,-0.2 0.2,0 0.3,0.3 0,0.1 -0.3,0.1 0.2,0.5 0.1,0 0,0 0,0 0,0 0.2,0.1 0.2,0.3 0,0 0,0 -0.5,0 0,0 -0.1,0.1 0.1,0.3 0,0.1 0.1,0.1 0.1,0.1 0.2,0 0,0 0.1,0.4 0,0.1 0,0 0,0.1 0.1,0.2 0.2,0.2 0.2,0.2 0.1,0.1 0.4,0.5 0,0 0.1,0.1 0.1,0 0,0.1 0.1,0.1 0.1,0.1 0,0 0,0.1 0.1,0.2 0.1,0 0.1,0 0,0 0.1,0.1 0.1,0.1 0.1,0.1 0.1,0.3 0,0.2 0,0.1 0,0.1 0.1,0 0.1,0.1 0.5,0.2 0.5,0 0.1,-0.1 0,0 0,-0.1 -0.4,-0.9 -0.2,-0.4 -0.1,-0.1 0,-0.1 0,0 0.1,-0.1 0,0 0.1,0.1 0.1,0.1 0,0.1 0.2,0.3 0.1,0.1 0.2,0.1 0.1,-0.2 0,-0.1 -0.1,-0.4 -0.1,-0.8 -0.2,-0.2 -0.5,-0.4 -0.5,0.1 -0.1,0.1 0,0.2 0,0 0.1,0.1 0,0.2 0,0 -0.1,0 -0.4,-0.2 -0.2,-0.2 0,-0.1 -0.4,-1.1 -0.4,-0.1 0,-0.1 0,-0.1 0.1,-0.1 0,-0.2 -0.2,-0.5 -0.4,-0.6 -0.4,-0.7 0.1,-0.1 0.4,0.1 0,0.2 0.2,0.3 0.2,-0.1 0.3,0 0,0 0.3,0.4 0.1,0.4 0.1,0.1 -0.1,0.2 -0.1,0.3 -0.1,0.1 0,0.1 0,0.2 0.1,0.1 0.4,0.2 0.3,0.1 0.4,0.1 0.3,-0.3 0,-0.1 0,-0.2 -0.2,-0.6 -0.2,-0.4 0.3,0 0.2,-0.1 0.2,-0.1 0,-0.2 0,0 -0.1,-0.1 0.1,-0.1 0,0 0.2,0.3 0,0.1 -0.1,0.1 0,0.1 -0.1,0.3 0,0.5 0,0.2 0.1,0 0,0 0,0 0,-0.1 0.1,-0.4 0.2,-0.1 0,0 0.1,0 0,0.2 -0.1,1.1 0,0 -0.1,0.1 -0.1,0 0,0.1 0,0.1 0,0 0.2,0.2 0.2,0.1 0.5,0.3 0.6,-0.2 0.6,0.7 0,0.1 -0.1,0.1 -0.1,0 -0.1,0.1 0,0 0.4,1.1 0.2,0 0,-0.1 0,0 0.1,-0.1 0,0 0.4,0.2 0.1,0.1 0.1,0.1 0.1,0 0.7,-0.2 0.1,-0.1 0.1,-0.2 0.2,-0.7 0,-0.2 -0.1,-0.3 -0.1,-0.1 0,-0.1 -0.2,-1.9 -0.1,-0.1 -0.2,-0.1 -0.1,0 -0.2,0.2 -0.4,0.4 0,0 -0.3,0 -0.1,-0.2 0.1,-0.1 0,0 0.1,-0.1 0.4,-0.3 0.3,-0.6 0.1,-0.4 -0.2,-0.1 0,-0.2 0.1,-0.1 0.2,-0.2 0.1,-0.2 -0.1,-0.3 -0.1,-0.5 -0.1,-0.1 -0.2,-0.1 -0.1,0 -0.1,0.2 -0.1,0.2 -0.1,0.1 0.1,0 0,0.1 -0.1,0.2 -0.1,0.1 -0.2,0 -0.5,-0.2 0,0 -0.1,-0.2 0.1,-0.1 0.3,0.1 0.2,0 0.2,-0.3 0,-0.1 0,-0.1 -0.1,0 -0.1,0 -0.2,-0.5 -0.2,-0.4 -0.4,-0.1 -0.2,-0.4 -0.1,0 -0.7,0.3 -0.1,-0.4 0.6,-0.1 0.1,0 0,0 0,-0.1 -0.2,-0.2 0,0 0,-0.1 0,0 0,0 0,-0.1 0.3,-0.2 0.3,0.1 0.1,0.1 0,0 0.1,0.1 0.3,0.2 0.1,0 0.1,-0.1 0,0 0,-0.1 -0.3,-0.4 -0.1,0 -0.3,-0.1 0.6,-0.5 0,0 0.2,0.1 0.1,0 0.2,0.1 0.1,0.1 0.2,0.2 0.2,0.2 0,0 0.2,-0.4 -0.1,-0.4 0,0 0.8,0.5 0,0 0,0.1 0.1,0.5 0,0.2 0.1,0.1 0,0 0,0 0.2,0.1 0.2,0.2 0.1,0 0.1,0 0.1,0.1 0,0 0,0 0,0.1 0,0 0.2,0.2 0,0 0,0 0,0 0.1,0.1 0,0 0,0 0.1,0 0,0 0,0 0.2,0.1 0.1,0.1 0.1,0 0,0.1 0,0 0,0 0.1,0 0.1,0.1 0,0 0,0 0.1,0 0,-0.1 0,-0.1 0,-0.1 0,-0.1 0,-0.1 0,0 0.1,0 0.1,0.1 0.1,0.1 0,0.1 0.1,0.2 0.1,0.2 0.1,0.2 0.1,0.1 0,0 0.1,0 0.4,-0.4 0.2,-0.2 0.2,0.1 -0.1,0.1 -0.2,0.1 0,0.2 0.3,0.3 0.2,0.1 0.2,0.1 0.1,0 0.2,-0.1 0.1,-0.2 0.3,0.2 0,0 0.1,0.3 0,0.1 0.1,0.1 0,0.1 0.1,0.2 0.2,0.2 0.1,0.1 0.2,0.1 0,0.2 0,0.1 -0.1,0.4 0,0.4 0.1,0 0.2,0.2 0.1,0 0,0 0,0.4 0,0.2 0.1,0.3 0.1,0.5 0,0.2 0.1,0.2 0.1,0.2 0.1,0.1 0.2,0.1 0.1,0 0.1,0 0.2,-0.2 0.1,-0.1 0,-0.1 -0.1,-0.3 0.1,0 0.2,0.2 0.1,0.1 0.1,0.1 0,0 -0.1,0.1 0.1,0.2 0.3,0.4 0.1,0 0,-0.1 0.2,-0.2 0.1,0 -0.2,-0.2 0.1,-0.2 0.1,0 0.3,-0.1 0.5,-0.6 0.4,-0.5 0.4,-0.5 0.2,-0.4 0.2,-0.3 0.1,-0.2 0,-0.2 0,-0.1 0.1,-0.1 0,-0.1 0.1,-0.2 0.1,-0.3 0,-0.1 0,-0.2 0.1,-0.1 0,-0.1 0,-0.1 0,-0.3 0.1,-0.1 0.1,-0.2 0.1,-0.2 0.1,-0.1 0.1,-0.1 0.1,-0.2 0.1,-0.2 0.1,-0.1 0.2,-0.2 0,-0.1 0.1,-0.1 0,0 0,0 0,0 0,-0.1 0,-0.1 -0.1,-0.1 -0.2,-0.2 -0.1,-0.4 -0.1,-0.7 -0.1,-0.2 -0.3,-0.4 -0.1,-0.2 -0.1,-0.4 -0.1,-0.2 -0.1,-0.2 0,-0.2 0,-0.5 -0.1,-0.5 -0.1,-0.2 -0.1,-0.2 0,-0.2 0,-0.2 0,-0.2 0,-0.1 0.1,-0.1 0,-0.1 0.1,-0.1 0.2,-0.2 0.3,-1.1 0,0 0,0 0,-0.1 0,-0.4 0,-0.2 0,-0.1 -0.1,-0.2 -0.1,-0.2 0,0 -0.2,-0.3 -0.3,-0.5 -0.9,0.3 -0.6,-0.3 -0.5,-0.1 -0.4,-1.1 -0.5,0 -0.3,-0.1 -0.2,0 -0.2,-0.1 -0.7,-0.7 -0.3,-0.2 -0.2,0 -0.1,0 -0.3,0 -0.9,-0.1 -0.3,0 -0.1,0 -0.3,-0.2 -0.3,-0.2 -0.2,-0.1 -0.2,-0.1 -0.9,-0.4 -0.7,-0.3 -0.3,-0.2 -0.6,-0.5 -1.1,0.2 -0.5,0.1 -0.1,-0.4 0,-0.2 -0.1,-0.5 -0.3,-0.5 0,-0.1 0,-0.2 0.1,-0.3 -0.4,-0.3 -0.5,0 -0.5,0 -0.3,-0.2 0.1,-0.7 0,-0.8 0.1,-0.5 -1.1,0 -1,-0.3 0.3,-0.8 0.3,-0.6 -0.3,-0.6 -0.5,-0.9 -1.3,-1.6 -0.7,-1.3 -0.7,-0.9 -0.8,-1.5 -1.4,-1.7 -0.5,-1.2 -0.2,-0.4 -0.1,-0.1 -0.2,-0.2 0,-0.1 -0.8,-0.9 -0.1,-0.1 -0.2,-0.3 -0.5,-0.8 0.5,-0.5 -0.8,-0.6 -0.4,-0.3 -0.4,-0.4 -0.5,-0.5 -0.1,-0.1 0,-0.1 -0.8,-1.1 -0.9,-0.5 -1.6,-0.8 -0.1,-0.1 -0.4,-0.5 0.1,-0.4 -0.1,0 -0.5,-0.1 0,-0.2 0.1,-0.4 -0.4,-0.5 -0.3,-0.5 -0.5,0 -0.7,-0.7 -0.2,-0.7 -1.5,-0.3 -0.3,-0.4 -0.1,-0.3 0.1,-0.2 0,-0.2 0,-0.2 -0.1,-0.1 -0.2,-0.2 -0.1,-0.4 0.3,-0.3 0,-0.7 0,-0.3 -0.6,-0.7 -0.2,0 -0.1,-0.1 -0.3,-0.4 -0.1,-0.4 -0.1,0 0,0 -0.1,-0.1 -1.3,-1 -1.4,0.9 -0.7,0.5 0,0 -0.5,0.3 -0.4,0.1 -1,0.3 -0.4,0.2 0,0.3 0.2,0.4 0,0.3 0,0.2 -0.4,0.7 -0.3,0.2 0,0 -0.7,-0.2 0.2,2.1 -0.2,0.1 0.1,0.1 -0.5,1.1 -1.4,0.2 -0.2,0.2 -2.3,1.6 -1,1.1 -0.5,0 0.1,-0.9 0,-0.2 -0.7,-2.8 -2.4,-2.3 -3.3,-3.2 -0.2,-0.1 -0.2,-0.2 -0.1,-0.1 -0.1,-0.1 -0.1,-0.2 0,0 -0.2,-1.1 -0.6,-0.2 -1.3,-0.7 -0.1,0 -0.1,-0.1 0,0 0,-0.1 -0.8,-0.9 0.6,-2.7 -0.1,-0.4 -2.9,0.2 -0.6,0 -0.2,0.3 -1.4,1.6 -2.8,-1.5 -0.4,1 -2.7,-0.9 0,-1 0.1,-15 0,-0.7 0,-0.1 0,-1.8 0,-0.2 0,-2.2 0,-0.1 0,0 0,-3.7 0,-0.9 0,-3.5 0,-5.2 0.1,-20.899997 0,-10.1 0,-1.6 0,-2.9 0.1,-24.7 0,-3.6 0,-5.6 0,-8.9 -0.5,-0.4 -0.4,-0.1 -0.2,0.4 0,0.2 0,0.1 -0.1,0 -0.4,-0.1 -0.1,0 -0.1,-0.3 0,-0.2 0,-0.2 -0.4,-0.4 -0.1,-0.1 -0.2,-0.1 -0.2,-0.2 -0.5,-0.4 -0.2,-0.1 -0.4,-0.2 -0.1,0 -0.2,0 -0.1,0.1 -0.1,0.1 -0.2,0 -0.2,-0.4 0,-0.2 0,0 0,0 0,0 -0.1,-0.1 0,0 -0.5,-0.4 -0.1,-0.1 -0.1,-0.1 -0.6,-0.2 0,-0.2 -0.2,-0.3 -0.2,-0.2 -0.3,-0.3 -0.5,-0.4 -0.2,-0.2 -0.1,0 -0.4,-0.2 -0.2,-0.1 0,0 -0.1,0 -0.4,-0.2 -0.1,0.2 -0.3,0 -0.1,-0.2 -0.1,-0.1 -0.2,-0.1 -0.2,-0.1 0,0 -0.2,0.1 0,0.1 -0.1,0.1 -0.4,0 -0.2,0 0,-0.1 0,-0.1 0,-0.1 0,-0.1 0.1,-0.1 0,0 -0.2,-0.1 -0.1,-0.1 -0.1,0 0,0.1 0,0.1 -0.1,0 -0.2,0 -0.4,0 0,0 0,0.1 0,0 0,0 -0.3,0 -0.2,-0.1 -0.1,0 0,0 -0.2,0.3 -0.4,0.4 -0.1,0.2 -0.2,0 0,0 -0.2,0.2 -0.1,0.1 -0.1,0 -0.1,0 -0.1,0 -0.2,0 0,0 -0.1,0 -0.2,0 -0.2,0 -0.2,0.2 -0.1,0.1 -0.3,0.2 -0.1,0.1 -0.1,0.1 -0.3,0 -0.3,-0.1 -0.2,-0.1 -0.1,0 -0.2,-0.1 -0.1,0.2 -0.1,0 -0.1,0.1 -0.2,0.1 -0.1,-0.1 -0.1,-0.1 0,-0.1 -0.1,-0.1 -0.1,0 -0.5,-0.1 -0.1,0 -0.1,-0.1 -0.1,-0.1 -0.1,-0.1 -0.4,-0.1 -0.1,0 -0.2,-0.1 -0.1,-0.1 -0.1,-0.1 0,-0.1 0,-0.1 -0.2,-0.2 -0.1,-0.1 -0.3,0 0,0 -0.1,-0.1 -0.1,-0.1 -0.5,-0.4 0,0 0,0 -0.1,-0.1 0,-0.1 -0.2,-0.3 -0.1,0 -0.1,0.2 -0.2,0.1 -0.2,0 -0.1,0 -0.1,0 -0.4,-0.1 -0.1,-0.1 -0.1,0 -0.2,-0.1 -0.4,-0.2 -0.1,0 -0.1,0 -0.1,0 -0.2,0 -0.2,-0.1 -0.3,-0.1 -0.1,0 0,0 -0.1,0 0,0 -0.2,0 -0.4,0.1 -0.1,0 -0.3,-0.1 -0.4,-0.1 0,0 -0.1,0.1 -0.3,0.3 -0.1,0 -0.8,-0.2 -0.1,-0.1 -0.1,-0.2 -0.1,-0.2 0,-0.2 0,-0.2 -0.5,0.4 -0.2,0 -0.1,0 -0.1,-0.1 -0.3,-0.2 -0.4,-0.1 -0.3,0 -0.2,0 -0.3,-0.3 -0.1,-0.3 0,0 -0.1,-0.4 -0.2,-0.2 -0.3,-0.3 -0.1,0 0,0 -0.5,-0.2 -0.1,-0.1 0,-0.1 0,0 -0.1,-0.1 -0.2,-0.1 -0.1,0 -0.1,0 -0.2,0.1 -0.1,0.1 -0.4,0.3 -0.1,0 -0.2,0 -0.2,-0.1 0,-0.1 0,-0.1 0,-0.3 0,-0.3 -0.1,-0.1 -0.1,-0.1 -0.2,-0.5 0,0 0,-0.1 -0.1,-0.1 -0.1,-0.1 -0.1,0 -0.1,0 -0.1,0.2 -0.3,0.1 -0.3,-0.3 -0.3,-0.1 -0.1,0 -0.5,-0.6 -0.4,-0.3 -0.5,-0.2 -0.4,0.1 -0.1,-0.1 -0.1,-0.1 -0.1,-0.2 -0.2,0.1 0,0.1 -0.1,0 -0.1,0 0,0 -0.3,-0.1 0,0 0,0 -0.3,0 0,0 -0.1,0.1 -0.3,0 -0.1,0 0,0 0,0 -0.1,-0.1 0,-0.1 0,-0.1 -1,0.8 -0.1,0.1 0,0 -0.3,-0.1 -0.2,-0.1 -0.1,0 -0.2,0 -0.3,0 -0.1,-0.1 0.2,-0.3 0,-0.3 0,0 0,0 -0.3,-0.1 -0.2,0 0,0 -0.3,0 -0.3,0 0,0 -0.1,0 -0.3,0 -0.1,-0.1 -0.1,0 0,0 -0.1,0.1 0,0.1 0,0 -0.1,0.1 0,0 -0.1,0 -0.1,0 -0.1,0 0,0 -0.1,-0.1 -0.2,0 0,0 -0.1,0 -0.1,0 -0.1,0.1 0,0 -0.1,0.3 -0.2,-0.1 0,-0.1 0,-0.1 -0.1,0 0,0 -0.1,0.1 0,0 0,0 -0.1,0.2 0,0.2 0,0.2 -0.2,0.1 -0.2,-0.3 -0.2,-0.1 -0.4,-0.3 -0.3,-0.2 0,0 -0.1,0 -0.2,0 -0.2,0 -0.6,-0.1 -0.3,0 -0.1,0 -0.1,0 -0.1,-0.3 0,-0.1 0.1,-0.1 0.4,-0.1 0.2,0 0.2,-0.1 0,-0.1 -0.1,-0.2 0,-0.1 0.1,-0.2 0.1,0 0.1,0 0,-0.1 -0.1,0 -0.1,0 -0.2,0 -0.2,0 -0.2,-0.1 -0.4,-0.2 -0.2,0 -0.2,-0.1 0,-0.1 0.1,-0.1 -0.4,-0.2 -0.1,0 -0.2,-0.1 -0.2,-0.1 -0.3,-0.3 0,0 -0.1,0.1 0,0 -0.2,-0.1 -0.1,-0.1 0,-0.4 0,-0.5 0,-0.1 0.5,-0.3 0.1,-0.2 0.5,-0.6000003 0.1,-0.1 0.1,0 0.2,0 0,0 0,-0.1 0,0 -0.1,-0.4 -0.1,-0.2 -0.5,-0.4 -0.2,-0.1 0,0 0,0 -0.1,0 -0.4,-0.2 -0.2,0 -0.4,0 -0.2,-0.1 -0.6,-0.2 0,0 -0.1,0 -0.2,-0.1 -0.1,0 -0.1,-0.1 -0.4,-0.2 -0.1,0 -0.2,0 -0.1,0 -0.1,0 -0.3,0.2 -0.2,0 -0.3,0.1 -0.3,0 -0.2,0 -0.1,0 -0.4,-0.1 -0.4,-0.1 -0.1,0 -0.5,0 -0.2,0.1 0,0 0,0.1 -0.1,0.2 -0.2,0.2 -0.1,0.1 -0.4,0.3 -0.3,0.1 -0.2,0.1 0,0 -0.2,-0.1 0.1,-0.2 0,-0.1 -0.1,-0.2 -0.2,-0.1 -0.2,-0.1 -0.3,0 -0.3,0 -0.1,0 -0.1,-0.1 -0.2,-0.2 -0.2,-0.5 0.1,-0.4 0.3,-0.7 0.1,-0.2 0.2,-0.1 0,0 0,-0.2 0,-0.2 0,0 0,-0.1 -0.1,-0.1 -0.5,-0.8 -0.3,-0.3 -0.3,-0.3 0,0 -0.1,0 -0.2,-0.3 0,0 -0.1,0 -0.2,0.2 0.1,0.3 0,0.2 0,0.1 -0.1,0.2 -0.1,0 0,-0.1 0,0 0,-0.3 0,-0.1 0,-0.1 0,0 -0.5,0.3 0,0 -0.1,0.1 0,0 0,0.1 0.3,0.6 0,0.2 0,0.1 0,0.1 0,0.1 -0.1,0.1 0,0.1 0,0 0,0 -0.2,-0.4 0,-0.1 0,-0.1 -0.4,0.1 -0.1,0.1 -0.1,0.2 -0.1,0.1 -0.3,0.2 -0.1,0 -0.2,0.3 0,0.2 0,0.2 0,0.1 0,0 -0.1,0.2 -0.2,0.1 -0.5,0.2 -0.3,-0.1 -0.6,-0.1 -0.1,0.1 -0.1,0.2 -0.1,0 -0.2,0 0,0 0,-0.1 0,-0.1 0.1,0 0.1,-0.4 -0.1,-0.4 0,-0.1 0,0 0.1,-0.2 0.2,-0.4 0.1,-0.2 0.1,0 0.3,0 0.2,0.1 0.1,-0.1 0.2,-0.1 0.3,-0.3 0,-0.1 0.3,-0.2 0.1,0 0.2,-0.1 0.2,0 0.1,-0.1 0,-0.1 0.1,-0.1 0,-0.1 0,0 0,-0.1 -0.1,-0.2 0,-0.2 0,-0.1 0,-0.1 0.1,-0.2 -0.1,-0.1 -0.3,-0.2 -0.4,-0.2 -0.2,0 -0.1,0 -0.2,0 0,-0.1 -0.1,-0.2 -0.2,0.3 -0.2,0.1 -0.1,-0.2 0.1,-0.1 0.1,-0.1 -0.1,-0.5 -0.6,-0.3 -0.4,-0.1 0,0 -0.2,-0.1 -0.2,-0.1 -0.4,-0.39999998 -0.1,0 -0.1,-0.2 0,0 0,-0.2 0,-0.2 -0.2,0.1 -0.1,0 0,0 -0.4,0.3 -0.2,0.1 0,0.1 -0.1,0.1 -0.6,0.69999998 -0.2,0.2 -0.6,0.6 0,0 -0.3,0.3 -0.7,0.8 -0.4,0.4 -0.4,0.3 -0.2,0.1 -0.4,0.3 -1,0.6 -0.2,0.1 -0.1,0 -0.3,0.1 0,0 -0.2,0 -0.2,0 -0.1,0 -0.2,0 -0.2,0 -0.1,0 -0.4,0 -0.4,-0.1 -0.1,-0.1 -0.5,-0.2 0,0 0,0.1 -0.1,0.2 -0.9,-0.1 -0.2,0 -1.3,-0.4 0,0.1 0,0 0,0.2 -0.1,0.1 -0.1,0 -0.6,-0.1 -0.6,-0.1 -0.1,0 -0.1,-0.3 0.1,-0.2 0.1,-0.1 0.2,0 0.6,0 0.2,-0.1 -0.1,-0.3 0,-0.1 0.1,-0.2 -0.1,0 -0.2,0 -0.3,0.1 -0.2,0.1 -0.6,0.1 -0.3,0.1 -0.3,0.1 -0.3,0.2 -0.2,0.2 -0.6,0.4 -0.6,0.4 -0.1,0.1 -0.7,0.5 -0.2,0.2 -0.6,0.5 -0.6,0.4 -0.5,0.4 -0.1,0.1 -0.1,0 -0.1,0.1 0,0 -0.2,0.2 -1,0.6 -0.5,0.3 -0.7,0.2 -0.1,0 0,-0.2 -0.4,0.2 -0.9,0.5 -0.3,0 -0.4,0 -0.5,-0.1 -0.5,-0.2 -0.1,-0.1 0,-0.2 0,-0.1 -0.3,-0.1 0,0 0,0.1 -0.1,0.1 -0.1,-0.1 -0.1,-0.2 0,-0.1 0.1,-0.2 0,-0.1 0,-0.1 0,0 0,0 0,0 -0.3,0.1 z m -32.5,43.6 0,0 0,0.1 0.1,0.1 0.1,0.1 0.1,0 0.2,-0.2 0.2,-0.1 0.2,0 0,-0.2 -0.1,0 -0.1,0 -0.2,0 -0.1,0 -0.1,0.1 -0.1,0.1 -0.1,0 z m 8.9,35.2 -0.1,0.1 0,0 0,0 -0.2,0.1 0,0 -0.1,0 0,0 0,0.1 0.1,0.2 0,0 0,0 0.3,0.3 0.1,0 0,0 0.1,0.1 0.1,0 0.4,0.1 0.3,0 0.2,0.1 0.2,0 0.1,-0.4 0,-0.1 -0.1,-0.4 0,0 -0.1,-0.2 0,0 0,0 0,0 0,0 0,0.1 0,0 -0.1,0 -0.2,-0.1 -0.1,0 0,0 0,-0.1 -0.1,-0.1 0,0 -0.1,0 0,0 -0.1,0 -0.2,0 0,0 0,0 z m -36.399997,30.999997 0,0.1 0,0 0,0.1 0.1,0.5 0,0.2 0,0.1 -0.1,0.3 0,0 -0.1,0.1 -0.1,0.1 0,0 0.2,0.1 0.1,0.1 0.2,0.1 0.1,0.2 0,0 0.1,0.1 0,0.1 0,0 0,0 0.2,0.3 0,0.1 0.1,0.1 0.2,0 0.3,0.1 0.1,0 0.5,0.6 0.1,0.1 0.1,0.2 0,0 0.1,0.1 0.1,0.1 0.1,0.3 0.1,0 0.1,0.1 0.2,0.1 0.2,0.2 0.1,0.2 0,0.1 0.1,0 0.1,0.1 0.4,0.1 0.3,0 0.1,0 0.2,0.1 0.1,0.1 0.1,0.1 0.2,0.3 0.3,0.3 0.2,0.3 0.1,0.1 0,0.1 0,0 0,0 0.1,0.1 0,0.1 0.2,0.1 0.1,0.1 0.2,0.1 0.1,-0.1 0.1,0 0.1,-0.1 0,-0.1 -0.1,0 0,-0.2 0,-0.2 0.1,-0.2 0.4,-0.2 0.6,-0.1 0.6,0 0,0 0.3,0 0.2,0.1 0,0 0,0 0.1,0 0.4,0.1 0,0 0.3,0.1 0.1,0 0.1,-0.1 0,0 0.1,-0.1 0.1,-0.2 0,-0.1 -0.3,-0.1 -0.3,-0.4 0,-0.4 0,-0.3 0.1,-0.4 0,-0.1 0,-0.1 0.1,-0.1 0.1,-0.4 0,-0.1 -0.1,0 0,0 -0.1,0 0,0 0.1,-0.2 0.1,-0.2 0.1,-0.2 0.3,-0.6 0,-0.1 0,-0.1 0,-0.1 -0.1,-0.2 0,0 -0.3,-0.2 0,0 -0.1,-0.1 0,0 -0.3,-0.2 -0.1,0 -0.1,0 -0.1,0 0,0 0,0.1 0,0.1 0,0 -0.3,-0.1 0,0 -0.1,-0.1 -0.2,-0.1 -0.1,0 -0.1,0 0,0 0,-0.6 0,-0.3 0,0 0.1,-0.1 0,0 -0.1,-0.1 -0.1,-0.1 0,0 -0.1,0.3 -0.2,0 -0.1,0 -0.1,0 -0.1,0 -0.4,0 -0.1,0 0,0 0,0 -0.2,0 0,0 0,0 -0.1,-0.1 -0.1,-0.1 0,0 0,0 -0.1,-0.1 0,-0.1 -0.2,-0.2 -0.4,0.2 -0.1,0 -0.2,0.4 -0.1,0 -0.1,0 -0.3,-0.1 -0.2,0 -0.2,0 0,0 -0.1,0 0,0 -0.2,0.1 -0.1,0.1 0,0 -0.1,0.1 0,0 0,0.1 0.1,0.1 0,0.2 -0.1,0.2 -0.3,0.1 -0.4,0 -0.1,0 -0.5,-0.4 -0.2,-0.1 -0.1,-0.1 -0.2,-0.1 -0.2,-0.1 0,0 -0.1,0 0,0 0,0 0,0 0,0 -0.4,-0.1 -0.1,0 -0.1,0 -0.2,0 -0.1,0 -0.3,0.1 z m -78.50000002,69 0,0.2 0.1,0 0,0 0.1,0 0.1,0 0.60000002,0.3 0,0 0.1,0.1 0.1,0.1 0.1,0 0.1,0.1 0,0 0,0 0.5,0.1 0.1,-0.1 0.1,-0.1 0.2,0 0.6,0.1 0,0 0.1,0 0.1,0 0.5,0.3 0,0.1 0,0 0,0 0,0 0,0 0.1,0.1 0.1,0 0.5,0 0.2,0 0.2,0 0.1,0 0.2,0.1 0.3,0 0.1,-0.1 0.4,0.1 0.2,0.2 0.3,-0.3 0.2,-0.1 0.2,-0.1 0.1,0 0.1,0.1 0.5,0.3 0.1,-0.1 0.4,0.1 0.1,0.2 0,0.1 0,0.1 0,0 0,0 0.1,-0.2 0,-0.1 0,-0.1 -0.2,-0.4 -0.1,-0.1 -0.1,-0.2 -0.1,-0.1 0,-0.1 0,-0.2 0,0 0.2,-0.1 0,0 0.1,0.1 0.2,0.1 0,0 0.1,0 0.2,0.1 0,0 0.1,0 0.2,-0.2 0.2,-0.1 0.4,-0.3 0.1,-0.2 0,-0.1 0,0 -0.1,-0.3 0,-0.2 0,-0.1 -0.1,-0.3 0,-0.1 0,0 -0.1,-0.1 0,0 -0.2,-0.2 -0.1,-0.1 -0.2,-0.1 -0.5,0 -0.1,0 -0.4,0 0,0 -0.1,0.1 0,0.1 0,0.1 0,0.1 0,0.1 -0.1,0.2 -0.1,0 -0.2,0 0,0 -0.1,-0.1 -0.3,-0.2 -0.1,0 -0.1,0.1 0,0 0,0.1 0.2,0.3 0.2,0.2 0.2,0.1 0,0 0.1,0.1 0.1,0.1 0,0 0.1,0.1 0.1,0.1 -0.1,0.3 -0.1,0 -0.1,0.1 -0.1,0 -0.1,0.1 -0.2,-0.1 0,0 -0.2,-0.1 -0.2,-0.2 -0.3,-0.1 -0.1,0 0,0 0,0.1 0.2,0.3 0,0 -0.1,0.1 -0.1,0 -0.2,-0.1 0,-0.1 -0.2,-0.1 -0.2,0 -0.2,0.1 0,0.1 -0.1,0.1 -0.2,0.1 -0.1,0 -0.1,0 -0.1,0 -0.1,0 -0.9,-0.1 -0.3,-0.1 0,0 -0.1,-0.2 -0.2,-0.2 0,0 -0.1,0 -0.1,0.1 0,0.1 -0.2,0.1 -0.3,0.1 -0.1,0 0,0 -0.3,-0.1 -0.4,0.1 -0.1,-0.2 0,0 0,-0.1 -0.1,0 -0.2,-0.1 -0.2,0 -0.10000002,0 0,0 -0.4,-0.1 -0.4,-0.1 -0.1,0 z m 8.60000002,2.2 0,0.1 0,0.1 0,0 0.1,0.1 0,0 0.1,0 0.1,0 0.2,0.1 0.1,0.5 0,0 0.2,0.2 0.4,0.2 0.1,0 0,0 0.1,0 0.5,0.1 0.4,0.2 0.1,0.1 0.1,0.1 0.3,0.4 0,0 0.3,0.1 0.1,0 0.4,0 0.1,0 0.6,0.1 0.1,0 0.3,0.1 0.4,0.1 0.7,0.1 0.3,0.2 0.1,0.1 0.1,0 0.5,0.1 0.1,-0.1 -0.1,0 -0.3,-0.1 0,0 -0.3,-0.1 0,0 -0.2,-0.1 0,-0.1 -0.1,0 -0.3,-0.1 -0.2,0 -0.3,0 -0.6,-0.2 -0.2,0 -0.1,-0.1 0,0 0,0 -0.4,-0.2 -0.1,-0.1 -0.2,0.1 -0.1,-0.1 -0.3,-0.6 -0.1,-0.1 -0.1,0 0,0 -0.1,0 -0.1,0 -0.3,0 0,0 -0.1,0 -0.6,0 -0.1,0 0,0 0,-0.1 -0.3,-0.3 -0.3,-0.1 0,0 -0.1,0 -0.2,-0.1 -0.1,-0.1 0,0 -0.2,-0.1 -0.1,0 0,0 z m 10.2,1.5 -0.2,0.2 0,0 -0.2,0.2 0,0 -0.1,0.1 -0.1,0.3 0,0 0.1,0.1 0,0 0.1,0 0.1,0.1 0,0 0.2,0.1 0.1,0 0.8,0 0.7,-0.2 0.1,0 0.1,0 0.1,-0.1 0,-0.1 0,-0.2 -0.1,-0.1 -0.4,-0.5 0,0 -0.1,0 -0.1,0 -0.2,0 -0.5,0.1 -0.1,0 0,0 -0.1,0 0,0 z m 8.6,1.4 -0.1,0.1 -0.1,0.2 0,0.1 -0.1,0.2 0.1,0 0,0 0.3,0.1 0.1,0 0.1,-0.1 0.1,0 0.1,0 0.1,-0.1 0.1,-0.1 0,-0.1 0,0 -0.2,-0.4 -0.2,0 -0.1,0.1 -0.1,0.1 z m 3.6,-0.3 0,0 -0.2,0.3 -0.2,0.4 0.1,0 0.2,0.3 0.1,0 0.1,-0.1 0.1,-0.1 0.1,-0.1 0.1,-0.1 0.2,-0.1 0.1,0 0.1,0 0,0 0,0.1 0,0 0.1,0 0.1,0 0.1,0 0.4,-0.3 0.1,-0.1 0.1,-0.2 0,-0.1 -0.1,-0.1 -0.1,-0.1 -0.1,-0.1 -0.1,0 -0.1,-0.1 -0.2,-0.1 0,0 -0.4,0 -0.7,0.2 z m 5.6,-1.3 -0.2,0.2 0,0.1 0,0.3 0.3,0.2 0.3,0 0.1,-0.1 0,0 0.1,-0.1 0,0 0,-0.1 0,0 0,0 0,0 -0.1,-0.1 -0.1,0 -0.1,-0.1 -0.1,0 -0.1,-0.1 -0.1,0 z m -1,1.2 -0.3,0.6 0.1,0.1 0.3,0.1 0.1,0 0.2,0.1 0.1,0 0,-0.1 0,-0.1 0.1,-0.1 0,-0.1 0,-0.1 0,0 -0.4,-0.3 -0.3,-0.1 z m 3.5,-1.5 -0.2,0.4 0,0 0,0.1 0,0.2 0.1,0.1 0,0 0.1,-0.1 0.1,0 0.3,-0.3 0,-0.1 0.1,-0.2 0,-0.1 0,0 -0.1,0 -0.3,0 0,0 0,0 z m -2.2,1.2 -0.1,0.1 -0.1,0.1 0,0.3 0.1,0.2 0.1,0 0.2,0 0.1,0 0.1,0 0.1,-0.1 0,0 0,-0.1 0.3,0.1 0.5,0.5 0.3,0.1 0,0 0.1,-0.2 0.1,-0.1 0.1,-0.2 0,-0.1 0.1,-0.1 -0.1,-0.1 -0.1,-0.2 -0.1,-0.1 0,0 -0.2,-0.1 -0.1,-0.1 -0.1,0 -0.3,0 -0.3,0.1 -0.3,-0.1 -0.2,-0.2 -0.1,0 -0.1,0 -0.1,0 z m 12.6,-2.9 -0.2,0.2 -0.2,0.2 -0.2,0.4 -0.2,0.5 0.1,0.4 0,0 0,0.1 0,0.6 -0.1,0.1 -0.1,0 -0.2,-0.1 -0.2,-0.2 -0.3,-0.1 -0.1,0.1 -0.1,0 -0.1,0 -0.5,-0.3 -0.5,0.2 -0.1,0.1 -0.3,0.1 0,0 -0.1,0.1 0,0 -0.1,0 0,0 0,0 -0.2,0.1 0,0 0,0 -0.1,0 0,0.1 0,0 -0.1,0.2 0,0.1 0,0 0.1,0.1 0,0 0,0 0,0 0,0.2 -0.1,0.1 -0.1,0.1 -0.1,0.1 0,0.1 -0.1,0.1 -0.1,0.1 -0.5,0.5 0,0 -0.3,0.2 -0.6,0.4 -0.1,0.1 -0.2,0 -0.1,0 -0.1,0 -0.1,0 -0.1,0.1 -0.3,0.2 0,0 0,0.1 0.2,0 0.2,0 1,-0.2 0.6,-0.1 0.1,0 0.2,0 0.2,0 0.3,-0.1 0.2,0 0.2,0 0.1,0 0.1,0 0.4,-0.2 0.1,-0.1 0.2,-0.1 0.1,0 0.1,0 0.1,0 0,0 0.1,0 0,0 0,0 0.2,0 0.1,0 0.2,-0.1 0,0 0,0 0.1,-0.1 0.1,-0.1 0,-0.1 0.2,-0.1 0,0 0.2,-0.1 0,0 0.1,0 0,0 0.3,-0.2 0.1,-0.3 0,0 0.3,-0.2 0.2,-0.1 0,0 0.1,-0.1 0,0 0.1,0 0.1,0 0.2,0 0.1,0 0.1,0 0.1,0 0,0 0.1,0 0.9,-0.1 0.2,-0.1 0.2,-0.1 0.2,-0.1 0.3,0 0,0 0.1,0 0.2,-0.1 0.1,0 0.1,-0.1 0.1,0 0,0 0,-0.1 0.1,-0.2 0,-0.1 0,0 0,-0.1 0,-0.1 0.1,-0.1 0.1,-0.1 0.1,-0.1 0.1,-0.1 0.1,0 0.1,-0.1 0.1,-0.1 0,-0.1 0,-0.1 0,0 0,0 -0.1,0 0,0 -0.1,0 -0.4,-0.2 -0.1,0 -0.1,-0.1 -0.2,-0.1 -0.1,-0.1 0,0 0,0 0,0 0,-0.1 0.1,-0.1 -0.1,-0.1 -0.1,-0.1 -0.1,-0.1 0,0 -0.5,0 -0.4,-0.1 0,0 -0.2,0 0,0 -0.1,0 -0.3,0.1 0,0 -0.4,0.2 -0.1,0.1 -0.1,0 -0.1,0 z m 9.6,-2.2 -0.3,0.2 -0.5,0.3 -0.1,0.4 0.2,0.4 0.1,0.1 0.2,0.4 0,0.1 0.1,0 0.1,-0.1 0.1,-0.1 0,0 0.1,0 0.1,0.1 0.5,0.4 0.4,0.3 0,0.1 0,0.1 -0.3,0.5 -0.2,0 -0.2,-0.1 0.1,-0.2 -0.1,-0.6 -0.2,-0.1 -0.5,-0.1 -0.1,0 -0.2,0 -0.1,0.1 -0.1,0.1 0,0 0,0 -0.1,0.2 0.2,0.2 0.1,0.1 0,0.1 -0.1,0.1 -0.4,0.1 0,0 -0.1,-0.1 0,-0.1 -0.1,0 -0.2,0 -0.1,0.1 0,0 0,0.1 -0.1,0.5 0,0.1 0,0.1 0.1,0.1 0,0.3 -0.4,0 -0.3,0.3 -0.1,0 -0.1,0 -0.1,-0.1 -0.2,-0.2 -0.1,-0.1 -0.2,0.1 -0.2,0.1 -0.1,0.2 -0.2,0.1 -0.1,-0.1 -0.1,-0.1 -0.4,-0.1 -0.1,0.1 0,0 -0.1,0 -0.1,0 -1,0.1 -0.2,-0.1 -0.2,0 -0.1,0 -0.1,0 0,0 0,0 0,0 -0.1,0 -0.1,0.1 0,0 0,0 -0.2,0.1 0,0 -0.5,0.1 0,0.1 0.1,0.1 0.2,0.3 0.1,0.1 0.1,0.1 0.1,0.1 0.4,0.3 0.1,0.1 0.1,0.1 0.2,-0.3 0.1,0 0.1,0 0.3,0.2 0.1,0.1 0.1,0.1 0.2,0 0.2,-0.2 0.1,-0.1 0.1,-0.1 0.1,-0.1 0.1,0 0.1,0 0.2,-0.1 0.1,0 0.1,0.1 0,0.1 0,0 0.1,0 0.1,0 0,0 0.1,0 0.1,0 0,-0.1 0.1,-0.2 0.3,-0.1 0.4,-0.1 0.5,-0.2 0,0 0.1,0.1 0.1,0.1 0.3,0 0.2,0 0.1,-0.2 0.1,0 0.2,0.3 0.3,-0.2 0.2,0.2 0.1,0 0,0.1 0.1,0.1 0.1,-0.1 0.5,0 0.2,-0.4 0.2,-0.1 0,0.1 0.1,0.2 0.2,0.2 0,0 0,0 0.5,-0.3 0.1,0 0.5,-0.9 0.1,0 0.5,-0.1 0.2,0.1 0.2,0 0.1,0 0.5,-0.1 0.1,0 0.2,0 0.1,0 0.1,-0.1 0,-0.1 0.5,-0.1 0.2,0 0.4,-0.3 0.1,0 0.3,-0.6 0,0 -0.1,-0.1 0,0 -0.6,0.1 -0.1,0.1 0,0.1 0,0 -0.6,0.1 -0.2,0 -0.6,0.1 -0.3,0.1 -0.1,0.1 -0.5,0.1 0,-0.2 0.1,-0.2 0.8,-0.3 0.2,-0.1 0.2,-0.2 0.3,-0.2 0.2,0 0.4,0.1 0.1,0 0.3,-0.3 0,-0.2 0,0 -0.2,-0.6 -0.1,-0.1 -0.3,0.2 -0.2,-0.3 0.1,-0.2 0,-0.1 0,0 -0.1,-0.1 0,0 -0.6,0.4 -0.1,0.4 0,0.1 -0.1,0.1 -0.3,0 -0.2,0 -0.4,0 -0.1,0 -0.1,-0.1 -0.1,-0.1 -0.1,-0.2 0,-0.1 0.2,-0.3 0.1,0 0.1,0 0,-0.3 -0.1,-0.2 0,-0.1 0,-0.1 -0.1,0 -0.1,-0.1 0,0 -0.4,0 0,-0.2 0,0 -0.5,0.1 -0.4,-0.1 -0.3,0 -0.1,0 -0.2,0 -0.3,0 -0.3,0 -0.2,0.1 z m 6.9,-0.7 -0.2,0.3 -0.1,0.2 0,0.2 0,0.1 0.1,0.4 0,0 0,0.1 0,0.1 0.1,0 0.1,-0.1 0.3,0 0.3,0.1 0.1,0 0.1,0 0.1,0.1 0,0 0,0.1 0.1,0.3 0.5,-0.3 0.3,0.2 0,0 0.6,-0.1 0,0 0.1,0 0.2,-0.2 0,-0.1 -0.1,0 -0.3,0 0,-0.1 0,-0.2 0,0 0,-0.1 0,0 -0.2,-0.2 0,-0.1 0,0 -0.2,0.2 -0.1,0 -0.1,-0.1 -0.1,0 0,-0.2 0.1,-0.1 0.1,-0.1 0,-0.1 0,0 0,0 -0.3,-0.1 -0.1,0 -0.2,-0.1 -0.1,0 -0.1,0.1 -0.5,0.2 -0.1,0 0,0 0,0 z m 3.2,-0.5 -0.3,0.3 -0.1,0.1 -0.1,0.1 0,0.1 0,0.1 0.2,0 0.1,0 0.1,-0.1 0,0 0.1,0.1 0,0 0,0.1 -0.1,0.1 -0.1,0 -0.2,0.1 -0.1,0.1 -0.2,0.7 0,0.2 0.2,0.2 0,0 0.1,0 0.1,0 0.1,-0.2 0.5,-0.4 0,0 0.4,0.1 0,0.1 0.1,0 0.1,-0.2 0,-0.1 -0.1,-0.1 0,0 -0.4,-0.1 -0.1,0 -0.1,0 -0.2,-0.4 0,-0.1 0,-0.1 0.3,-0.2 0.3,0 0,0 0,-0.1 -0.1,-0.1 -0.2,-0.1 -0.2,0 -0.1,0 -0.2,0 -0.1,-0.1 -0.1,-0.1 -0.1,0 -0.1,0 z m 0.3,2.7 0,0 0.1,0.1 0.1,0 0.3,0.1 0.2,0 0.1,0 0,0 0.1,0 0.1,0.1 0.2,0.1 0.2,0.1 0.1,0 0,0 -0.1,-0.4 0,0 0,0 -0.3,-0.1 -0.8,-0.1 -0.2,0 -0.1,0 z m 1.9,0.1 -0.1,0.1 -0.1,0 0,0.1 0.1,0.1 0.4,0.2 0.2,0.1 0,0 0.3,0.2 0,0 0.5,0 0.1,0 0.2,-0.3 0.1,0 0,-0.1 0,-0.1 -0.1,-0.1 -0.2,-0.1 -0.2,-0.1 -0.1,0.1 -0.2,0 -0.1,-0.1 -0.1,-0.1 -0.3,-0.1 -0.1,0 -0.2,0 -0.2,0 z m 19.6,-4 0,0.5 0,0.1 0.1,0.2 0,0 0.2,0.4 0.2,0.1 0.1,0 0.1,-0.1 0.1,0 0.3,-0.3 0,-0.1 0.2,-0.8 0,-0.2 0,0 -0.1,0 -0.4,-0.1 -0.1,0 -0.7,0.4 0,0 z m 4.1,-1.7 -0.1,0.2 0,0.1 0,0.1 0.1,0 0.1,0 0.2,0.2 0,0 0,0.1 0.1,0.3 0.1,0.2 0.1,0.1 0.1,0 0,0 0.1,-0.1 0,0 0.1,-0.1 0.1,-0.1 0,0 0,-0.1 0.2,0 0.1,0 0.1,0 0.1,0.1 0,0.1 0,0 -0.1,0.1 0,0.1 0.1,0.1 0,0 0.1,0 0,0 0.1,0 0,0 0,-0.1 0,0 0,-0.1 0,-0.2 0,0 -0.2,-0.2 -0.1,0 -0.1,-0.2 -0.1,0 -0.1,0 -0.1,-0.1 -0.1,-0.2 -0.1,-0.1 -0.5,-0.3 -0.1,0 -0.3,0.1 z m -7.7,5.8 -0.4,0.6 0.3,0.7 0.1,0 0.3,-0.2 0.6,0.5 0.4,-0.1 0.1,-0.1 0,-0.3 0,-0.1 -0.1,-0.3 -0.8,-0.5 -0.4,-0.3 -0.1,0 -0.1,-0.1 z m 15.099997,-6.5 -0.2,0.2 -0.2,0.1 -0.1,0.1 -0.1,0.1 0,0.3 -0.1,0.4 -0.1,0.4 -0.1,0.2 0.1,0.2 0,0.2 0,0.1 0,0.1 -0.1,0.1 0,0 -0.1,0.2 0,0 0.1,-0.1 0.1,-0.1 0.3,-0.4 0,-0.1 0.1,-0.1 0.4,-0.1 0,0.2 0,0.2 0.1,0.2 0.7,0.5 0.3,-0.4 0.1,-0.2 0.1,-0.1 -0.1,-0.8 -0.2,-0.1 -0.1,-0.1 0,-0.3 0,0 0.1,-0.1 0.1,-0.1 0,-0.1 0.1,0 0.1,-0.1 0,0 0.1,0.2 -0.1,0.1 0,0.1 0.2,0.2 0,0.1 0,0 0.1,0 0,0 0.1,0 0,0 0.3,0.2 0,0.2 0,0.1 0,0.1 0.2,0.1 0.1,-0.1 0,0 0.1,-0.1 0.1,-0.1 0,0 0,-0.1 0,-0.4 0,-0.2 0,-0.1 -0.1,-0.1 -0.1,0 -0.3,0.1 0,0 -0.1,0 -0.2,-0.1 -0.3,-0.2 0,0 0,-0.1 0,0 0,-0.1 -0.2,-0.1 -0.1,0 0,0 -0.3,0.4 -0.3,0 0.1,-0.1 0,-0.3 0,-0.1 -0.1,-0.1 -0.1,-0.1 -0.2,-0.1 -0.5,0.1 -0.1,0.1 z m 3.1,0 -0.2,0.2 0,0 0,0.2 0.1,0.2 0.1,0 0.1,0 0.1,0 0.5,0.2 0.2,0.1 0,0 0,0.1 0,0 0.1,0 0,0 0.2,-0.7 -0.5,-0.2 -0.1,-0.1 -0.2,-0.1 0,0 -0.4,0.1 z m 53.1,-26.5 -0.1,0.2 -0.1,0.2 -0.1,0.1 0,0.3 0,0.1 0,0.3 0.2,0.2 0.1,0 0.1,0 0,0 -0.1,0.2 -0.5,0.1 -0.2,0 -0.1,0 -0.2,0.2 -0.1,0.1 0,0.1 -0.1,0.1 -0.1,0 0,0 0,0 -0.2,0 -0.1,0 -0.1,-0.1 0,0 0.1,0.1 0.2,0.4 0.3,0.1 0.1,0.1 -0.2,0.3 -0.1,0.1 -0.3,-0.1 -0.2,-0.1 -0.2,0 -0.1,0 0,0 0.1,0.2 0,0.1 0.1,0 0.1,0 -0.1,0.2 -0.1,0 -0.3,0 -0.2,-0.1 -0.1,-0.1 -0.1,0 -0.2,-0.1 -0.3,0.3 0,0 -0.1,0.1 0,0 0,0 0.1,0.2 0.1,0.1 0.3,0.2 0.1,0.1 0,0 -0.2,0.1 -0.2,0 -0.1,0 -0.6,-0.3 0,0 -0.1,0.1 0,0.1 -0.2,0.5 0.1,0.1 0.2,0.3 0.1,0.3 -0.1,0.2 0,0 -0.2,-0.1 -0.1,-0.3 -0.2,-0.3 -0.1,-0.1 0,0 -0.2,0.1 -0.6,0.6 0,0.1 -0.1,0 0,0.1 0.3,0.3 0.1,0 0.3,0 0.4,0.1 0,0.1 0,0.1 0.6,0.4 0.7,0.3 0.2,0 0.5,-0.1 0,0 -0.4,-0.3 0,0 0,0 0,0 0,0 -0.1,-0.1 0,0 -0.2,-0.1 -0.1,-0.1 -0.1,-0.2 -0.1,-0.3 0,0 0.4,-0.3 0,0 0.1,0 0.1,0 0.1,0.1 0.1,0.1 0.1,0 0.1,0.1 0.1,0 0.1,0.1 0.1,0 0,0 0.1,0 0.1,0.1 0.1,0 0.2,0.1 0.1,0.1 0.1,0.1 0,0.1 0,0.1 0.1,0 0.4,0 0.3,-0.1 0.1,-0.1 0.1,-0.2 0.1,-0.3 0.2,-0.7 0.1,-0.1 0.1,0.1 0,0.1 0,0.1 -0.1,0.5 0,0.3 0,0 0,0 0.1,0 0,-0.1 0.1,-0.2 0.2,-0.2 0.3,0.1 0.1,0.1 0.3,0.1 0.2,0 0.3,0 0.1,-0.1 -0.1,-1 0.2,-0.2 0.2,0 0.1,0 0.1,0.4 0,0.1 0,0 -0.1,0 0,0.1 0.1,0.2 0.4,0.4 0,0 0.2,0 0,0 0.7,-0.6 0.1,-0.2 0.1,-0.4 0.1,-0.7 0,-0.1 0,-0.1 0,-0.1 0,0 0,0 -0.6,0.4 -0.2,0.3 0,0.2 -0.1,0.1 -0.2,0 0,-0.2 0.1,-0.3 0.2,-0.4 0.2,-0.4 0,0 -0.1,-0.3 0,0 0,0 0,0 -0.5,0.4 -0.1,0 0,-0.1 0.1,-0.2 -0.2,-0.4 -0.1,-0.1 0,0 0,0 -0.1,-0.1 -0.1,-0.1 0,0 -0.2,0.1 0,0.1 0,0 0,0.1 0,0.1 -0.2,0.3 -0.1,0.1 -0.6,0 -0.1,0 0,-0.8 0.1,-0.2 0.1,-0.1 0.2,-0.3 0.3,-0.4 0.2,-0.1 0.1,-0.1 0.3,-0.6 0.1,-0.5 0,-0.1 0,0 -0.1,0 -0.1,0 -0.2,0 -0.3,0.1 -0.4,0.3 -0.3,-0.1 0,-0.1 0,-0.1 -0.1,-0.1 0,0 0,0 -0.3,0.1 0,0 z m -31.8,18.1 -0.1,0.1 -0.2,0.2 0,0.1 0,0.1 0,0 0.4,0 0.4,0.1 0.1,0 0.1,0 0,0 0.1,0 0.1,-0.1 0.1,-0.1 0,0 0.3,0.1 0,0 0.1,0.1 0.1,0.1 0.1,0.1 0,0 0.1,0.1 0,0 0,0 0.1,0 0,0 -0.1,-0.1 0,0 0,-0.1 -0.1,0 0,0 -0.1,0 0,0 -0.2,-0.2 0,0 -0.1,-0.1 -0.1,0 -0.3,-0.1 -0.6,-0.1 0,0 0,0 0,0 0,0 0,0 0,0 -0.1,0 z m -19,10.7 0,0 0,0.1 0,0 0,0.1 -0.3,0.5 -0.2,0.3 -0.2,0.1 -0.1,-0.1 0,-0.1 -0.1,-0.1 -0.1,0 0,0 -0.1,0 0,0 0,0 0,0.2 0.1,0.3 0,0.2 0,0.1 0,0.1 -0.1,0 -0.2,0 0,0 0,-0.1 0,0 0,-0.1 -0.1,-0.2 -0.1,-0.2 -0.6,0.3 -0.1,0.1 0,0.6 0.2,0.2 0.3,0 0.1,0.1 0,0.1 -0.1,0.1 -0.2,0 -0.2,0.1 -0.2,0.1 -0.2,0.2 -0.1,0.1 -0.3,0.2 0,0 -0.1,0 -0.1,0.1 0,0 0,0.1 0,0 0,0 0,0.1 0.1,0.4 0.1,0 0.1,-0.1 0,0 0.2,-0.2 0,0 0,-0.1 0.2,-0.3 0.4,-0.4 0,0 0.2,-0.1 0.2,-0.1 0.7,-0.4 0.1,-0.1 0.1,-0.2 0,-0.1 0,-0.1 0.3,0 0.1,0.1 0,0.1 0.1,0.1 0.1,0 0.1,-0.1 0.2,-0.1 0.1,-0.2 0,-0.1 0.1,-0.1 0,-0.1 0,-0.1 -0.2,-0.1 -0.1,0.1 0,0.1 0,0.1 0,0.2 -0.1,0 -0.1,-0.1 0,-0.1 0.2,-0.6 0.1,-0.1 0.1,0 0,0.1 0,0 0,0 0,-0.1 0.1,-0.1 0,0 0,-0.1 0,-0.2 0,-0.1 -0.1,-0.1 0,-0.1 -0.1,0 z m 42.2,-21.4 -0.2,0.1 -0.1,0 -0.2,0.2 -0.1,0 -0.2,1.2 0,0.1 0,0 0.2,-0.1 0.1,0 0.4,0.2 0.7,0.4 0.1,0.1 0.1,0.1 -0.1,0.1 0,0 -0.2,-0.1 -0.3,-0.1 -0.6,-0.2 -0.1,0 0,0.1 -0.1,0.1 0,0 0.1,0.2 0.1,0 0.1,0.2 0.1,0.1 -0.1,0.1 -0.2,0.2 -0.1,0.1 0,0.1 -0.1,0.4 0,0.6 0,0 0.3,0.4 0.2,0.5 0,0.1 -0.1,0.1 0,0 -0.5,-0.9 0,-0.3 0,-0.5 0,-0.2 0,-0.2 0,-0.1 0,-0.1 -0.1,0 0,0 -0.1,0 -0.1,0 0,-0.2 0,-0.1 0.1,-0.5 0.1,-0.4 0,0 0,-0.1 -0.2,-0.1 -0.1,0.1 -0.2,0 -0.6,-0.2 -0.1,-0.1 -0.2,0 0,0 -0.5,0.1 -0.2,0 -0.1,0.1 -0.1,0 -0.3,0.2 -0.1,0 0,0 -0.1,0 -0.2,0.1 -0.1,0 -0.1,0 -0.1,-0.1 0,-0.1 -0.1,0 0,0.1 -0.1,0.3 -0.1,0.1 -0.2,0.1 0,0 0,0 -0.1,0 0,0 0,0 -0.1,0 -0.1,0.2 -0.4,0.5 -0.1,0.3 0,0.1 0,0.1 -0.4,0.9 0,0 0,0 -0.2,0.1 -0.1,0 0,0 0,0 0.1,0.1 0.2,0.1 0.2,0 0,0 0.4,0.3 0,0 0.1,0.1 0.1,0.2 0.1,0.5 0,0.2 0,0.1 0,0.3 0,0.1 0,0.6 -0.1,0.4 -0.1,0.2 0,0.1 -0.1,0.1 0,0.1 0.1,0 0.2,0.1 0.2,0.1 0.2,0.1 0.1,0.1 0.3,0.4 0.1,0.1 0,0.1 0,0.2 0,0.3 0,0.1 -0.1,0.1 0.1,0 0.1,-0.1 0.3,-0.2 0,-0.1 0,-0.1 0.1,-0.2 0.1,-0.1 0.2,-0.2 0.2,-0.1 0,0 0.1,0 0.1,-0.1 0.3,-0.1 0.2,-0.2 0.3,-0.3 0.2,-0.3 0.1,-0.2 0.8,-0.5 0.3,-0.2 0.1,-0.2 0.1,0 0.1,0 0,0.2 0,0.1 -0.2,0.2 -0.4,0.2 -0.1,0 -0.1,0 -0.3,0.2 -0.4,0.7 -0.1,0.4 0,0.1 0.3,0 0.1,0 0,0 0.1,0 0.2,0.1 0.1,0.1 -0.1,0.1 -0.2,0.2 -0.3,0.1 -0.3,0.2 -0.4,0.4 0,0 -0.1,0.1 -0.1,0 0,0 -0.4,0.6 -0.2,0.4 0,0 0.1,0 0.1,0 0.2,0 0.1,0 0.1,-0.1 0.1,-0.1 0.1,0 0.1,0.1 0,0.2 0.1,0 0.1,0 0.1,0 0.3,-0.2 0.2,-0.3 0.4,-0.5 0,0 0.2,-0.1 0,0 0.1,0 0,0.1 0.1,0.1 0.4,-0.1 0.1,0 0.1,0 0.1,-0.1 0,0 0,-0.1 0,0 -0.1,0 -0.1,-0.2 0.2,-0.3 0.2,0 0.1,0 0.2,0 0.2,0 0.3,-0.2 0,-0.1 0.1,-0.2 0,0 -0.1,-0.5 0,-0.1 -0.1,-0.1 -0.1,0 -0.4,0 -0.1,0 0.1,-0.2 0.1,-0.2 0.5,0 0.1,0.1 0.2,0.1 0.2,0.2 0,0 0.1,-0.1 0,-0.1 0.4,-0.4 0.1,-0.1 0.2,-0.3 0,0 0.1,-0.1 0,0 0,0 0,0 0.1,-0.1 0.2,0 0,0 0.1,0.1 0,0.1 0,0 -0.3,0.3 -0.1,0 -0.1,0.1 -0.1,0.1 0,0 -0.1,0.1 -0.1,0.3 0,0.1 0,0.1 0,0 0.2,-0.1 0.2,0.4 0,0.1 -0.2,0.3 0,0 0.2,0.2 0.1,0 0.1,0 0.3,-0.1 0.1,0 0.2,-0.3 0,0 0,-0.1 0,-0.1 -0.1,0 0,-0.1 0,-0.1 0,-0.1 0.3,-0.2 0.2,0 0,0 0,0 0,0 0,0 0.2,0 0.6,-0.1 0.3,0 0.2,-0.1 0.1,0 0.1,0 0.2,-0.1 0,-0.1 0,0 0,0 -0.4,-0.3 -0.8,-0.1 -0.1,0 -0.2,0 -0.2,-0.1 -0.2,-0.3 0,0 0,0 0,0 0.1,0 0.2,0 0,0 0.2,0.1 0.3,0 0.1,0 0.4,-0.1 0.3,-0.2 0.1,-0.1 0,0 -0.1,-0.3 -0.2,-0.2 0,0 -0.1,0 -0.1,0 -0.3,0 0,0 0,0 0,0 0,-0.1 0.1,-0.1 0.2,-0.1 0.1,-0.1 0.3,-0.1 0.1,0 0.4,0.2 0,0.3 0.1,0.1 0.4,0.4 0.1,-0.1 0.1,-0.1 0.1,-0.1 0.3,0.2 0.1,0 0.1,0 0.1,-0.1 0,0 0.2,-0.1 0.1,-0.1 0.1,-0.1 0.1,0 0.2,-0.5 0.1,-0.2 -0.1,-0.3 -0.1,0 -0.3,-0.1 -0.3,-0.3 -0.1,-0.2 -0.1,-0.1 -0.7,-0.4 -0.2,-0.2 -0.1,0 -0.1,0 -0.1,-0.1 0,0 0,-0.1 0.1,0 0.3,0.2 0.3,0.1 0.1,0 0.1,0.1 0.1,0 0.2,0 0.1,0 0.1,0.1 0,0.1 0,0.1 0,0 0.2,0.2 0.1,0 0,0 0.1,0 0.2,0 0.1,0 0.2,0.2 0.3,0.2 0.2,-0.2 0.4,0.2 0.3,0.2 0.2,-0.1 0.1,-0.3 0.1,-0.2 0.1,-0.1 0.1,-0.1 0,0 0,0 0.1,-0.1 0.1,0 0,-0.1 0.1,-0.1 0.1,-0.1 0.1,-0.1 0.2,-0.2 0.1,-0.1 0,-0.1 0.1,-0.3 0,0 0,0 0,0 0,0 -0.1,0 -0.1,0 -0.4,-0.1 -0.3,0 -0.3,0 -0.1,0.1 -0.1,0 -0.1,0.2 -0.1,0 -0.1,0 0,-0.1 0,0 0.1,0 0.2,-0.4 0.3,-0.5 0,0 0,0 -0.3,0.2 -0.1,-0.1 0,-0.2 0,-0.2 0,-0.1 0,-0.2 0,-0.1 0.2,-0.2 0,-0.1 0,0 0.1,0 0,0 0,0 0,0 0,0 0.2,0 0.1,0 0.2,0.1 0,0.1 0,0.1 0,0 0.1,-0.1 0,0 0.1,-0.2 0,-0.4 -0.1,-0.1 0,-0.1 -0.1,0 -0.1,0 -0.1,0 -0.2,0.1 -0.1,0 -0.1,-0.1 0,-0.1 -0.1,-0.5 0,-0.2 0,0 0.1,-0.1 0.1,0 0.1,0 0.1,0 0,0.1 0,0.1 0.1,0 0.1,0 0.1,0 0.1,-0.1 0.1,-0.1 0,-0.1 -0.1,-0.1 -0.1,0 -0.1,0 -0.1,0 -0.2,-0.1 0,-0.1 0,-0.1 0.1,-0.1 0.1,-0.2 0,0 0,0 0,0 0,0 -0.3,0.1 -0.1,0.2 -0.3,0.3 0,0.1 0,0 -0.1,0.1 -0.1,0 0,0 0,0 -0.1,0 0,-0.2 -0.2,0 0,0 -0.1,0 0,0 0,0.1 0,0.1 0,0 0.1,0.1 0,0.1 -0.2,0.1 -0.5,0.3 -0.1,0 -0.1,0 0,0 0,0 -0.1,-0.1 0,0 0,0 0,0 0,0 -0.1,0 -0.1,0.1 0,0 -0.1,0.1 -0.1,0.1 0,0.2 0,0 0,0.3 0,0.1 0,0.2 0,0.1 0,0 -0.1,0 0,0 -0.1,0 -0.1,-0.1 0,-0.1 0,-0.1 0,-0.1 0.1,-0.4 0.1,-0.1 0,0 0,-0.1 0.1,-0.1 0.1,-0.1 0.4,-0.4 0.1,0 0.1,0 0.4,-0.3 0.1,-0.1 0.2,-0.4 0,-0.1 -0.3,-0.1 0,0 -0.2,-0.1 -0.1,0 0,0 -0.1,0 0,0.2 -0.1,0.3 -0.1,0.1 0,0 -0.8,-0.4 -0.2,0.2 0,0 -0.1,0 -0.4,-0.2 -0.5,-0.5 0,-0.1 -0.1,-0.1 -0.2,-0.1 -0.1,0 -0.1,0 0,0.1 0.1,0.3 0.2,0.2 0.2,0.2 0.5,0.8 0,0.1 -0.2,0 -0.1,0 0,0 -0.1,0 -0.5,-0.4 -0.2,0 -0.1,0 -0.9,-1 0,-0.1 -0.1,0 -0.1,0 0,0 -0.2,0 -0.1,0.1 -0.1,0.2 0,0.1 0,0.1 0.1,0.1 0.2,0.4 0.1,0.1 0.3,0.2 0.4,0.2 0,0.1 0,0 -0.1,0.2 -0.1,0 -0.3,-0.3 -0.3,-0.2 -0.2,-0.1 0,0.1 0,0.3 0.1,0.2 -0.1,0.3 -0.2,0.4 -0.2,0.1 -0.2,0 0,-0.1 0,-0.1 0.1,-0.3 0,0 0,-0.3 0,-0.5 -0.4,-0.6 -0.4,-0.2 -0.2,0.1 -0.3,0.1 -0.1,0.1 -0.2,0.1 z m -40,22.3 -0.4,0.4 -0.1,0.2 0,0 0,0.1 -0.1,0.2 -0.2,0.2 -0.1,0.1 -0.2,0.1 -0.1,0.3 -0.1,0.2 0,0.1 0,0.1 0,0.1 0,0 0,0 0,0 0.2,-0.1 0.2,-0.1 0.2,0.1 0.1,0.2 0,0.1 0.1,-0.1 0,-0.1 0,0 -0.2,-0.3 0,-0.1 0.1,-0.2 0.2,-0.3 0.1,0 0.1,0 0.1,-0.2 0,-0.2 0,0 -0.2,-0.1 0.2,-0.2 0,-0.1 0,-0.1 0.1,-0.2 0,-0.2 0,0 z m 0,2.2 -0.1,0.3 0.2,0.2 0,0.2 -0.2,0.1 0,0 -0.1,0.1 0,0 -0.1,0.2 0,0.1 0.1,0 0.3,-0.1 0.1,0 0.3,-0.1 0,-0.1 0.1,-0.7 0,-0.2 -0.1,-0.1 -0.1,0 -0.4,-0.1 0,0 z m 0.5,1.6 -0.1,0.1 0.1,0.1 0,0.1 -0.1,0.1 0,0.1 -0.1,0.1 0.1,0.2 0,0 0,0 0,0 0.1,0 0.2,-0.1 0.1,-0.1 0.1,-0.1 0,-0.1 0.1,-0.1 0,-0.1 0,0 -0.4,-0.3 -0.1,0 0,0 -0.2,0.1 z m 33.2,-12.7 -1.2,0.7 -0.2,0.3 -0.3,0.3 -0.2,0.3 0,0.1 0,0.1 0.1,0.1 0.1,0.1 0.1,0 0.1,0 0,0 0.1,-0.1 0.1,-0.1 0.1,-0.1 0.2,-0.2 0.1,-0.1 0.1,-0.1 0.2,0 0.1,0 0.2,-0.1 0.1,0 0.2,0 0.6,-0.3 0.3,-0.2 0,0 0,0 0,-0.1 0,-0.1 0,0 -0.1,-0.1 -0.2,-0.2 -0.3,-0.1 -0.1,-0.1 0,0 -0.1,0 z m 1.3,0.4 -0.2,0.2 -0.2,0.2 0,0.2 0.1,0.1 0,0 0.3,0.1 0.4,0.2 0.2,-0.1 0.2,0 0.1,0 0.1,0.1 0.1,0 0,0 0.5,0.1 0.3,0 0.3,0 0,0 0.4,-0.2 0,0 0.1,-0.2 0,-0.1 0,-0.1 -0.1,0 -0.2,0 -0.2,0 -0.4,0 -0.1,0 0,0 0,-0.1 0,-0.1 -0.1,-0.3 0,-0.1 0,-0.1 0,-0.2 0,0 0,0 -0.1,0 -0.2,0 -0.3,0 -0.1,0 0,0 0,0 0,0 -0.1,0 -0.2,0.1 0,0 0,0 -0.2,0.1 z m 114,-2.7 -0.1,0.1 0,0 0,0.1 0,0 0.1,0 0.1,0.1 0,0.5 0.1,0.7 0.1,0.2 0.1,-0.1 0.1,0 0.1,0.1 0.1,0.2 0,0 -0.1,0.3 -0.1,0.1 -0.1,0.1 -0.2,0.2 0,0.2 0,0.2 0,0 0,0.2 0,0.3 0,0 0,0 0.1,0 0,0 0.3,-0.1 0,0 0,-0.1 0.1,0 0.4,-0.1 0.2,0 0.1,-0.1 0.3,-0.8 0,-0.1 0,-0.4 0,-0.1 0,0 -0.1,0 0,0.1 -0.1,0 0,0 0,-0.1 -0.1,-0.3 -0.1,-0.3 0,-0.1 -0.1,-0.1 -0.1,-0.1 0,0 0,-0.1 0,0 0,0 -0.2,-0.2 -0.1,-0.4 0,-0.1 0,0 -0.1,-0.1 -0.1,-0.1 -0.2,0 -0.5,0 -0.1,0 z m 10.4,15.2 -0.1,0.4 0.1,0.4 0,0.2 0.1,0.1 0.3,0.1 0,-0.1 0.2,-0.2 0,-0.1 0,0 0.2,-0.1 0.2,-0.2 0.1,-0.1 0,0 0,0 0.1,-0.1 0,-0.1 0,0 -0.2,0 -0.1,0 -0.4,0.2 -0.2,-0.1 -0.1,-0.1 -0.2,0 -0.1,0 z m 2.7,-0.3 -0.2,0.2 0,0 0,0.1 0,0.2 0,0.1 0,0 0.1,0.2 0.1,0.1 0.1,0.1 0,0 0.1,0 0.2,0 0,0 0.1,-0.3 0,-0.2 0,0 0,-0.2 0,-0.1 -0.1,-0.2 -0.1,-0.1 -0.1,0 -0.1,0 z m 1.4,4.2 0,0.1 -0.1,0.1 0,0.1 -0.1,0.6 -0.1,0.3 0.2,-0.1 0.1,-0.1 0,0 0.7,0.4 0.1,0.4 0,0.4 -0.1,0.2 -0.2,0.2 -0.1,0.1 0,0.1 0,0 0.2,0.2 0.1,0.1 0.2,0.2 0.1,0.1 0,0 0,0 0,-0.3 0,-0.3 0.1,-0.3 0.5,-0.6 0.3,-0.2 0.1,0 0.1,-0.1 0,-0.2 0,-0.1 0,0 -0.1,0 -0.2,0 -0.1,-0.1 0.3,-0.4 0.2,-0.1 0,0 0.1,0.1 0.1,0.1 0.3,-0.3 0.1,-0.2 0.1,-0.2 -0.1,-0.1 0,-0.1 -0.1,0 -0.3,-0.3 -0.4,0 -0.1,0.1 0,0.1 -0.1,0.2 0.1,0.1 -0.2,0.1 -0.3,-0.2 0,0 -0.1,0.2 0,0.2 -0.2,0.3 -0.3,0.2 -0.1,0 0,-0.1 0,0 0,-0.3 0,0 0.1,0 0.1,-0.1 0.1,-0.1 0,-0.4 -0.2,-0.1 -0.8,0 z m 12.1,0.4 0,0.1 0,0.6 0.2,0.8 0.1,0.1 0.2,0.8 0,0 0,0 0.2,0.3 0.4,0.4 0.1,-0.8 0.1,-0.3 0,-0.6 0.2,-0.1 0.1,-0.2 -0.2,-0.2 -0.1,-0.1 -0.2,-0.2 -0.2,-0.3 -0.1,-0.1 -0.3,-0.1 0,-0.1 0,-0.1 0,0 -0.1,0 -0.1,0 -0.1,0 z m 2,1.4 -0.1,0.1 0,0 0,0 -0.1,0.4 0.1,0.7 0.1,0.1 0.2,0.1 0.1,0.1 -0.1,0.2 -0.1,0 -0.1,0 0,0 0,0.1 0,0 0,0 0,0.1 0,0.1 0.1,0.2 -0.1,0.4 -0.2,0.2 0.1,0.1 0.2,0.2 0.1,0 0.1,-0.1 0.1,-0.1 0.3,-0.3 0.1,0.1 0,0 0.1,0.1 0.1,0.1 0.6,-0.1 0.1,-0.1 0.1,-0.3 0,-0.3 -0.2,-1 0,-0.1 0.1,0 -0.1,-0.2 -0.3,-0.3 -0.1,-0.1 -0.1,0 -0.1,0 -0.1,0 -0.1,-0.2 0,-0.1 -0.1,0 -0.1,0 -0.2,-0.2 -0.1,0 0,0 z m 0.9,3.6 0,0 0,0.2 0.2,0.1 0.8,0.5 0.5,-0.1 0.1,-0.1 0.3,-0.5 0,0 0,0 -0.1,-0.1 -0.1,0 -0.1,0 -0.1,-0.6 0.1,-0.1 0,-0.1 -0.1,0 -0.9,0.4 -0.4,0.2 z"
     class="a"
     inkscape:connector-curvature="0"
     style="font-weight:400;font-size:34.375px;font-family:'MS Shell Dlg 2';fill:#dddddd;stroke:#ffffff;stroke-width:0.2;stroke-linecap:square;stroke-linejoin:bevel" />
</svg>
