<?xml version="1.0" encoding="UTF-8" standalone="no"?>
<!-- Created with Inkscape (http://www.inkscape.org/) -->
<?xml-stylesheet type="text/css" href="/stylesheets/state.css" ?>
<svg
   xmlns:dc="http://purl.org/dc/elements/1.1/"
   xmlns:cc="http://creativecommons.org/ns#"
   xmlns:rdf="http://www.w3.org/1999/02/22-rdf-syntax-ns#"
   xmlns:svg="http://www.w3.org/2000/svg"
   xmlns="http://www.w3.org/2000/svg"
   xmlns:sodipodi="http://sodipodi.sourceforge.net/DTD/sodipodi-0.dtd"
   xmlns:inkscape="http://www.inkscape.org/namespaces/inkscape"
   width="100%"
   height="300px"
   viewBox="0 0 41.185262 30.367722"
   id="svg3885"
   version="1.1"
   inkscape:version="0.91 r"
   sodipodi:docname="CT.svg">
  <defs
     id="defs3887" />
  <sodipodi:namedview
     id="base"
     pagecolor="#ffffff"
     bordercolor="#666666"
     borderopacity="1.0"
     inkscape:pageopacity="0.0"
     inkscape:pageshadow="2"
     inkscape:zoom="14.978926"
     inkscape:cx="-2.4709036"
     inkscape:cy="25.786562"
     inkscape:document-units="px"
     inkscape:current-layer="layer1"
     showgrid="false"
     inkscape:window-width="2560"
     inkscape:window-height="1388"
     inkscape:window-x="0"
     inkscape:window-y="0"
     inkscape:window-maximized="1"
     fit-margin-top="0"
     fit-margin-left="0"
     fit-margin-right="0"
     fit-margin-bottom="0" />
  <metadata
     id="metadata3890">
    <rdf:RDF>
      <cc:Work
         rdf:about="">
        <dc:format>image/svg+xml</dc:format>
        <dc:type
           rdf:resource="http://purl.org/dc/dcmitype/StillImage" />
        <dc:title></dc:title>
      </cc:Work>
    </rdf:RDF>
  </metadata>
  <g
     inkscape:label="Layer 1"
     inkscape:groupmode="layer"
     id="layer1"
     transform="translate(-190.50549,-371.27227)">
    <path
       inkscape:connector-curvature="0"
       d="m 203.05073,371.62503 -1.44391,7.07446 0.72806,-0.13688 0.14772,0.37196 0.2133,-0.16354 0.1188,-0.3885 0.80706,-0.92967 0.38094,0.99878 2.9081,-0.31997 0.15729,-0.83428 -0.23924,-0.0726 0.19053,-1.47763 0.50074,-0.14104 0.16193,-0.63669 3.1778,0.1873 -0.80848,2.43241 0.15077,2.07212 0.56771,0.17372 0.39311,2.66905 -2.74543,0.10835 -0.39897,-2.1154 -2.07871,0.27946 0.30014,2.1178 0.95796,-0.0339 -0.18635,2.42655 1.46528,-0.30354 0.64413,0.45833 -0.12523,-0.65919 0.44338,-0.0605 0.28795,0.44743 0.40353,-0.46475 0.9647,-0.16264 c 0.0545,-0.26316 0.12952,-0.50754 0.36203,-0.54285 0.29201,-0.0443 0.65994,0.0562 0.8667,0.26503 -0.0594,0.41129 0.18364,0.57272 0.49958,0.61034 0.31586,0.0381 0.68643,-0.035 0.92817,-0.043 0.2944,0.0763 0.71473,0.13218 1.06422,0.26018 0.0996,0.0371 0.116,0.14349 0.20252,0.19264 l 0.73861,-2.09439 -0.21244,-0.58778 0.75799,-0.12772 0.5663,-0.6765 0.12191,-1.04106 -1.09824,-0.0414 0.0977,-0.85253 1.16226,-0.1675 -0.36662,-2.00742 -0.56951,0.15265 -0.33983,-3.69843 -4.12672,-0.18333 0.20325,-0.55874 -1.55401,-0.47516 0.023,-0.28707 -0.1378,0.0233 -0.23663,0.0257 -0.45242,0.0904 0.0414,-1.09828 -0.45504,-0.008 -0.013,0.0292 -0.22744,-0.004 -0.35612,-0.0102 -1.27518,0.002 -0.62267,0.006 -0.52385,0.003 -0.12873,-0.005 -0.29632,0.007 -0.18859,-0.0235 -0.94894,0.004 -1.55323,-0.0502 z"
       id="CT-1" />
    <path
       inkscape:connector-curvature="0"
       d="m 230.88543,371.54068 -0.0989,10e-4 -0.72129,0.008 -0.0289,-0.013 -0.0989,0.001 -0.26646,0.0166 -0.0694,0.0113 -0.0989,10e-4 -0.12871,-0.005 -0.0989,0.001 -0.099,10e-4 -0.0289,-0.013 -0.13782,0.0232 -0.25736,-0.0125 -0.32634,-0.002 -0.0593,-0.0175 -0.65252,-0.003 -0.23662,0.0257 -0.51468,-0.027 -0.0989,10e-4 -0.029,-0.013 -0.0387,0.0207 -0.29639,0.007 -0.32625,-0.002 -0.19758,0.006 -0.59276,0.015 -0.0989,10e-4 -0.68233,-0.0125 -0.0291,-0.013 -0.71235,-0.0214 -0.15838,-0.0174 -0.13777,0.0232 -1.01783,0.0155 -0.12875,-0.005 -0.029,-0.013 -0.75134,-0.001 -0.16763,0.0141 -0.43413,0.0306 -0.386,-0.0204 -0.29641,0.007 -0.2964,0.007 -0.0989,10e-4 -0.29642,0.007 -0.65249,-0.003 -0.65251,-0.003 -0.19751,0.006 -0.7215,0.008 -0.15834,-0.0174 -0.16768,0.0141 -0.029,-0.013 -0.029,-0.013 -0.0387,0.0208 -0.15833,-0.0174 -0.19767,0.005 -0.63173,0.0356 -0.0594,-0.0176 -0.19761,0.006 -0.0683,0.0116 -0.0594,-0.0176 -0.0683,0.0116 -0.44324,0.0605 -0.20681,0.0347 -0.24568,0.0554 -0.0388,0.0207 -0.13558,0.12193 -0.15846,-0.0174 -0.36523,0.019 -0.0136,-0.16755 -0.18861,-0.0235 -0.5538,-0.006 -0.63416,-0.0635 -0.28724,-0.022 -0.0988,10e-4 -0.0289,-0.013 -0.0594,-0.0175 -0.0387,0.0207 -0.029,-0.013 -0.29631,0.007 -0.0291,-0.013 -0.0988,0.001 -0.66165,0.0265 -0.099,10e-4 -0.0292,0.0892 0.0895,0.0292 0.0114,0.0688 -0.036,0.1197 -0.0753,0.14037 -0.0605,-0.0178 -0.029,-0.013 0.0113,0.0689 -0.013,0.0292 0.0605,0.0178 -0.0292,0.0892 -0.0479,0.0507 10e-4,0.0985 -0.0785,0.0414 -0.005,0.12874 -0.0684,0.0117 -0.0683,0.0116 -0.0683,0.0118 -0.023,0.28707 1.55397,0.47516 -0.20314,0.55876 4.12672,0.18334 0.33982,3.69846 0.56955,-0.15265 0.3666,2.00741 -1.16227,0.1675 -0.0977,0.85253 1.09822,0.0414 -0.1219,1.04104 -0.56635,0.67648 -0.75795,0.12775 0.21244,0.58778 -0.73861,2.09436 c 0.2163,0.12259 0.45952,0.24172 0.50635,0.48148 -0.0427,0.18973 -0.10761,0.3536 -0.13441,0.54717 l -1.59145,0.39573 -0.14284,1.002 0.65821,0.62607 -1.50677,0.22555 0.0644,2.56853 0.96863,0.78624 -0.39055,1.38392 0.21586,-0.0647 0.20673,-0.0349 0.2548,-0.0854 0.0694,-0.0115 0.39766,0.0887 0.28474,-0.0763 0.013,-0.0292 0.029,0.013 0.25987,0.11205 0.51548,0.45164 0.17432,-0.14267 0.0289,0.013 0.0936,-0.20021 0.0776,-0.0417 0.14696,-0.0532 0.0624,0.11705 0.24825,0.043 0.15383,-0.18166 0.30302,-0.13608 0.029,0.013 0.0988,-0.001 0.15835,0.0174 0.40859,-0.26725 0.42498,-5.9e-4 0.32622,0.002 0.22745,0.004 0.16777,-0.0142 0.0205,0.039 0.0624,0.11706 0.16599,0.31216 0.47078,-0.15023 0.0683,-0.0115 0.25495,-0.0854 0.029,0.013 -0.0136,-0.16757 -0.0113,-0.0688 0.15608,-0.0831 0.15605,-0.0829 0.10127,0.0964 0.05,0.048 0.19768,-0.006 0.81769,-0.1094 0.37436,-0.049 0.19264,-0.20255 0.0359,-0.11968 -0.0226,-0.13765 0.0684,-0.0117 0.26649,-0.0166 0.22751,0.004 -0.013,0.0292 0.24147,0.17193 0.029,0.013 0.16303,-0.21158 0.0289,-0.41607 0.0177,-0.0599 0.22258,-0.19335 0.013,-0.0292 0.13786,-0.0234 0.14917,0.0465 0.0533,0.14698 0.30129,0.19021 0.14034,0.0755 0.42995,0.19689 0.1886,0.0235 0.2963,-0.007 0.19264,-0.20252 0.0388,-0.0208 0.13228,-0.22098 0.0388,-0.0208 0.14474,-0.15173 0.0593,0.0175 0.12874,0.006 0.44571,0.0392 0.72144,-0.008 0.0291,0.013 0.13783,-0.0232 0.20659,-0.0347 0.0693,-0.0115 0.2457,-0.0556 0.11195,-0.25991 0.0682,-0.0117 0.18183,0.15369 0.23416,-0.12459 0.0775,-0.0416 0.2316,-0.22332 0.16773,-0.0141 0.30817,0.0605 0.0204,0.0388 0.11039,0.0664 0.0785,-0.0413 0.0289,0.013 0.10819,-0.0323 0.27561,-0.0464 0.14696,-0.0532 0.0808,0.0574 0.17949,0.0542 0.1197,0.0359 0.18429,0.25231 0.26152,-0.21409 0.013,-0.0292 0.13559,-0.12201 0.15384,-0.18163 0.0359,-0.11971 -0.005,-0.19756 -0.001,-0.0985 -0.005,-0.19746 -0.0205,-0.0389 0.013,-0.0293 0.013,-0.0292 -0.029,-0.013 0.0292,-0.0891 -0.0205,-0.039 -0.0228,-0.13767 0.013,-0.0292 -0.0113,-0.0688 0.013,-0.0293 -0.029,-0.013 0.0177,-0.0599 -0.0204,-0.039 -0.11289,-0.16525 -0.032,-0.10767 -0.029,-0.013 0.013,-0.0292 -0.029,-0.013 -0.0464,-0.27564 0.0177,-0.0599 0.0177,-0.0599 0.0478,-0.0507 0.3901,-0.2075 0.0694,-0.0115 0.12874,0.005 0.30806,0.0605 -10e-4,-0.0985 0.013,-0.0292 -0.0137,-0.16755 0.0125,-0.25728 -0.005,-0.19746 0.008,-0.45492 0.005,-0.12874 0.005,-0.97871 -0.005,-0.19746 -0.0149,-0.59274 0.027,-0.5147 8.1e-4,-0.75132 -0.008,-0.72141 0.009,-1.2062 0.008,-0.45496 -0.0987,-1.17389 -0.0382,-0.73055 -0.0619,-1.29341 -0.001,-0.0985 0.013,-0.0292 -0.082,-0.90738 0.013,-0.0292 -0.0539,-0.57203 0.002,-0.32631 0.013,-0.0292 -0.0351,-0.20681 -0.001,-0.0985 0.0178,-0.0599 -0.0204,-0.0388 -0.019,-0.3653 -0.0546,-0.99703 -0.0472,-0.70066 -0.001,-0.0985 0.013,-0.0292 -0.0204,-0.0388 -0.0124,-0.49395 0.005,-0.22728 -0.0214,-0.46404 -0.026,-0.23668 -0.0357,-0.63178 -0.0305,-0.43417 z"
       id="CT-2" />
    <path
       inkscape:connector-curvature="0"
       d="m 213.44931,393.29992 0.39054,-1.38385 -0.96863,-0.78628 -0.0644,-2.56854 1.50675,-0.22554 -0.65817,-0.62608 0.14284,-1.00199 1.59142,-0.39571 c 0.0308,-0.19232 0.0897,-0.35796 0.1345,-0.5472 -0.0469,-0.23975 -0.29006,-0.35885 -0.50638,-0.48145 l 0,0 c -0.0864,-0.0492 -0.10278,-0.15607 -0.2025,-0.19266 -0.34945,-0.12843 -0.77011,-0.18292 -1.06427,-0.26018 -0.24172,0.008 -0.61222,0.0806 -0.92815,0.043 -0.31583,-0.0381 -0.55974,-0.1991 -0.49959,-0.61033 -0.20674,-0.20897 -0.57469,-0.30922 -0.8667,-0.26492 -0.23228,0.0353 -0.30868,0.27944 -0.36205,0.54286 l 0,0 c -0.008,0.0691 -0.11228,0.0458 -0.10502,0.13133 -0.17217,0.38214 -0.10109,0.72624 0.0272,1.08673 0.12781,0.3603 0.31086,0.72068 0.35353,1.08832 -0.17202,0.15184 -0.42695,0.0523 -0.69405,-0.081 -0.2671,-0.13366 -0.54189,-0.3105 -0.77953,-0.3363 -0.19821,-0.13526 -0.37282,-0.16344 -0.51711,-0.12553 -0.14433,0.0381 -0.27915,0.13391 -0.37854,0.27639 -0.19891,0.28469 -0.3059,0.74072 -0.38002,1.02748 0.011,0.224 -0.0759,0.35886 -0.19638,0.43009 -0.12116,0.0711 -0.29424,0.0619 -0.46418,0.0215 -0.33971,-0.0805 -0.69319,-0.33583 -0.7271,-0.61442 0.15663,-0.32408 0.19215,-0.73356 0.0625,-1.05934 -0.13024,-0.32582 -0.41913,-0.56295 -0.85327,-0.52228 -0.22138,0.34922 -0.41456,0.27751 -0.62019,0.10452 -0.20561,-0.17295 -0.42234,-0.4723 -0.64656,-0.55705 -0.22763,-0.036 -0.36037,0.0414 -0.47075,0.15012 -0.11067,0.10858 -0.20436,0.27507 -0.26573,0.44158 -0.12274,0.33316 -0.20531,0.67163 -0.54555,0.71558 -0.16632,0.15169 -0.0305,0.26688 0.01,0.39518 l 0,0 c 0.0258,0.0835 -0.0864,0.18304 -0.0125,0.25726 0.18595,0.18838 0.48544,0.38088 0.62589,0.51803 -0.12638,0.72817 -0.25844,1.48861 -0.70798,2.1037 -0.27985,0.15842 -0.47058,0.3328 -0.52067,0.52703 -0.0515,0.19406 0.0173,0.42669 0.24488,0.6958 0.27336,0.65085 0.83584,1.20493 0.9959,1.87302 -0.008,0.48094 -0.28514,0.57251 -0.61695,0.62827 -0.33182,0.0558 -0.725,0.087 -0.93903,0.39917 -0.21745,0.2392 -0.32666,0.5328 -0.3549,0.83924 -0.0275,0.30648 0.058,0.60708 0.21985,0.88411 0.0416,0.22486 -0.10825,0.44615 -0.1406,0.67591 l 0.51956,0.22424 0.14034,0.0755 0.36278,-0.11778 0.0387,-0.0209 0.057,-0.0805 -0.041,-0.0778 -10e-4,-0.0987 0.0235,-0.18845 0.0177,-0.0599 0.057,-0.0805 0.25901,-0.31296 0.0479,-0.0506 0.0968,-0.10108 0.0662,-0.11049 0.0775,-0.0415 0.0867,-0.0715 0.013,-0.0293 0.30972,-0.26473 0.11736,-0.0623 0.0776,-0.0416 0.029,0.013 0.0694,-0.0115 0.24821,0.0431 0.24822,0.043 0.029,0.013 0.0205,0.039 -0.013,0.0292 0.13777,-0.0231 0.048,-0.0508 0.0958,-0.10142 0.0753,-0.14032 0.0845,-0.17026 0.0479,-0.0506 0.013,-0.0292 0.0661,-0.11048 0.15388,-0.18175 0.0387,-0.0207 0.0958,-0.10141 0.0867,-0.0715 0.013,-0.0292 0.10502,-0.13135 0.0867,-0.0715 0.0868,-0.0715 0.0387,-0.0208 0.0776,-0.0419 0.29387,-0.10611 0.13782,-0.0233 0.106,-0.13095 0.22246,-0.19339 -0.0204,-0.0388 0.005,-0.12874 0.006,-0.12867 0.057,-0.0806 0.029,0.013 0.029,0.013 0.13781,-0.0232 0.10368,0.19515 0.15688,0.34199 0.0205,0.039 0.0501,0.048 -0.0359,0.11972 -0.0388,0.0208 -0.15608,0.0829 -0.0359,0.11969 0.0205,0.0388 0.0895,0.0292 0.11041,0.0664 0.28722,0.022 0.0387,-0.0208 0.41344,-0.0696 0.013,-0.0293 0.13779,-0.0233 0.013,-0.0292 0.0644,-0.20915 0.0386,-0.0207 0.0387,-0.0208 0.12878,0.005 0.26647,-0.0167 0.029,0.013 0.14025,0.0755 0.0205,0.0389 0.15609,-0.0829 0.11731,-0.0621 0.14693,-0.0532 0.19517,-0.10381 0.0775,-0.0417 0.16764,-0.014 0.13781,-0.0232 0.013,-0.0292 0.0605,0.0178 0.0388,-0.0209 0.12874,0.006 0.0387,-0.0206 0.0989,-10e-4 0.0204,0.0389 0.19096,0.12379 0.11042,0.0664 0.1311,0.1054 0.20428,-0.13351 0.21167,0.16273 0.0411,0.0778 -0.0479,0.0508 0.0624,0.1171 0.0683,-0.0117 0.029,0.013 0.099,-10e-4 0.12879,0.005 0.11731,-0.0621 0.0753,-0.1404 0.0292,-0.0891 -0.001,-0.0987 0.22246,-0.19341 0.0479,-0.0507 0.10816,-0.0322 0.0775,-0.0417 0.17012,0.0849 0.0289,0.013 0.029,0.013 z"
       id="CT-3" />
    <path
       inkscape:connector-curvature="0"
       d="m 202.69568,396.51502 c 0.033,-0.2295 0.18269,-0.45087 0.14058,-0.67591 -0.1618,-0.27697 -0.24772,-0.57765 -0.21983,-0.88409 0.0276,-0.30659 0.13759,-0.59999 0.35487,-0.83921 0.21405,-0.31226 0.60723,-0.34337 0.93907,-0.39918 0.33177,-0.0558 0.60967,-0.14729 0.61692,-0.6283 -0.16005,-0.66808 -0.72255,-1.22215 -0.9959,-1.87302 -0.22758,-0.26906 -0.29487,-0.50141 -0.24483,-0.69579 0.0495,-0.19437 0.24074,-0.36859 0.5206,-0.52699 0.45028,-0.61493 0.58176,-1.37552 0.70802,-2.10374 -0.14046,-0.13714 -0.43994,-0.32961 -0.62591,-0.51803 -0.0734,-0.0745 0.0379,-0.17416 0.0125,-0.25726 l -1.32326,0.0528 -0.12625,1.26851 -0.84195,0.72302 0.46733,0.50228 -0.32742,0.74953 -2.77465,1.70057 -0.38083,-0.99869 -2.39936,0.90024 -0.85733,-1.47115 -0.82027,0.0106 -0.0235,0.18855 -0.0674,0.86168 -0.0174,0.15841 0.001,0.0985 -0.0125,0.25727 -0.013,0.0293 0.005,0.19744 0.0204,0.0389 -0.0178,0.0599 0.0115,0.0688 -0.013,0.0293 -0.013,0.0292 -0.0174,0.15835 0.042,0.0781 0.029,0.013 0.15438,0.24327 0.0829,0.1561 0.22567,0.33038 0.0204,0.039 0.12445,0.23424 0.0289,0.013 0.23744,0.39926 0.0921,0.12624 0.0625,0.11722 0.1244,0.23397 0.25568,0.33962 -0.0775,0.0419 -0.23414,0.1244 -0.11732,0.0622 -0.048,0.0506 -0.11735,0.0622 -0.0479,0.0508 -0.0387,0.0208 -0.19515,0.10369 -0.28225,0.17514 -0.20431,0.13371 -0.19511,0.10366 -0.17437,0.14276 -0.31217,0.16597 -0.16525,0.11293 -0.15607,0.083 -0.0479,0.0506 -0.39026,0.20754 -0.3695,0.24645 -0.0388,0.0209 -0.1173,0.0621 -0.44748,0.28807 -0.16519,0.11282 -0.0387,0.0205 -0.27312,0.14534 -0.28223,0.17511 -0.65178,0.42166 0.10372,0.19507 0.11282,0.16519 0.0717,0.0872 0.16598,0.31215 0.26727,0.4085 0.11282,0.16522 0.0421,0.0782 0.0829,0.15607 0.0204,0.0389 0.0501,0.0481 0.083,0.15605 0.0921,0.12627 0.0205,0.0388 0.0829,0.15608 0.0921,0.12625 0.0411,0.0778 0.0205,0.039 0.0716,0.0873 0.029,0.013 -0.013,0.0292 0.029,0.013 -0.0177,0.0601 -0.013,0.0292 -0.0292,0.0891 -0.0176,0.0597 -0.0292,0.0894 0.001,0.0987 -0.0177,0.0599 0.0136,0.1676 0.0112,0.0688 0.029,0.013 0.12102,-0.28976 0.15382,-0.18167 0.0387,-0.0209 0.42013,-0.19833 0.38106,-0.17754 0.19764,-0.006 0.22076,0.13298 -0.0178,0.0599 0.0261,0.23675 0.30551,-0.0374 0.043,-0.24818 0.0661,-0.1105 0.048,-0.0506 0.19261,-0.20254 0.0388,-0.0208 0.2524,-0.18426 0.0683,-0.0116 0.013,-0.0292 0.0289,0.013 0.029,0.013 0.0411,0.0778 0.005,0.19754 0.0533,0.14698 0.12643,-0.092 0.11195,-0.25995 0.013,-0.0292 0.004,-0.22756 0.013,-0.0293 0.42925,-0.22814 0.0479,-0.0508 0.10126,0.0963 0.24411,0.2707 0.1964,-0.43017 0.0785,-0.0414 0.0776,-0.0417 0.15607,-0.0829 0.0692,-0.0113 0.0386,-0.0207 0.029,0.013 0.25738,0.0125 0.29817,-0.3336 0.0387,-0.0207 0.013,-0.0293 0.0867,-0.0714 0.013,-0.0293 0.25911,-0.31292 0.013,-0.0293 0.14691,-0.0529 0.029,0.013 0.19264,-0.20251 0.21088,-0.26229 0.0684,-0.0117 0.49148,-0.11116 0.34455,-0.0581 0.22499,-0.0947 0.16524,-0.11282 0.29142,-0.20496 0.048,-0.0506 0.21584,-0.0648 0.41167,0.2566 0.0895,0.0292 0.30059,-0.23481 0.0661,-0.11047 0.14161,-0.25083 0.0359,-0.11969 0.0388,-0.021 0.14914,0.0465 0.013,-0.0292 0.13558,-0.12186 0.38766,-0.30634 0.38111,-0.17767 0.0776,-0.0416 0.0776,-0.0419 0.0595,0.0177 0.0808,0.0573 0.001,0.0986 0.14024,0.0756 0.0605,0.0178 z"
       id="CT-4" />
    <path
       inkscape:connector-curvature="0"
       d="m 194.51942,390.55145 0.82025,-0.0107 0.85733,1.47116 2.39933,-0.90023 0.38088,0.99868 2.77461,-1.70057 0.32745,-0.74952 -0.46735,-0.5023 0.84198,-0.72303 0.12624,-1.26847 1.32327,-0.0528 c -0.0392,-0.12813 -0.17625,-0.24344 -0.01,-0.39515 0.33629,-0.0451 0.42277,-0.3824 0.54554,-0.71558 0.0616,-0.16649 0.15508,-0.333 0.26572,-0.44161 0.11055,-0.10862 0.24309,-0.18595 0.47077,-0.15012 0.2242,0.0848 0.44097,0.38412 0.64659,0.55709 0.20561,0.17299 0.39876,0.2447 0.62016,-0.10456 0.43413,-0.0406 0.72293,0.19684 0.85327,0.52232 0.1303,0.32593 0.0942,0.73525 -0.0625,1.05931 0.0339,0.27859 0.38746,0.5338 0.72713,0.61447 0.16998,0.04 0.34285,0.049 0.46418,-0.0214 0.12111,-0.071 0.20727,-0.20609 0.19638,-0.43009 0.0734,-0.28695 0.18067,-0.74291 0.38003,-1.02748 0.099,-0.14258 0.23422,-0.23835 0.37855,-0.27638 0.14437,-0.0382 0.31894,-0.01 0.51708,0.12563 0.23777,0.0247 0.51241,0.20267 0.77952,0.33632 0.2671,0.13357 0.52198,0.23334 0.69405,0.081 -0.0427,-0.36767 -0.22571,-0.728 -0.35354,-1.08833 -0.12773,-0.36037 -0.19932,-0.70454 -0.0272,-1.08674 -0.007,-0.0852 0.0915,-0.0634 0.10501,-0.13133 l -0.96471,0.16265 -0.40351,0.46476 -0.28792,-0.44746 -0.4434,0.0605 0.12524,0.65923 -0.64413,-0.45838 -1.46529,0.30357 0.18636,-2.42655 -0.95795,0.0339 -0.30015,-2.1178 2.07874,-0.27946 0.39894,2.1154 2.74545,-0.10836 -0.39314,-2.66905 -0.56772,-0.17361 -0.15078,-2.07212 0.80849,-2.43241 -3.17776,-0.1873 -0.16203,0.6367 -0.50072,0.14104 -0.19055,1.47763 0.23928,0.0724 -0.15727,0.83428 -2.90816,0.31996 -0.3809,-0.99876 -0.80709,0.92966 -0.11879,0.38849 -0.21333,0.16352 -0.14773,-0.37193 -0.72802,0.13685 1.44389,-7.07445 -0.93969,-0.0254 -1.2062,-0.009 -0.0289,-0.013 -0.029,-0.013 -0.0289,-0.013 -1.23611,-0.0186 -0.029,-0.013 -0.0291,-0.013 -0.62269,0.006 -0.0289,-0.013 -0.28722,-0.022 -0.68248,-0.0125 -1.10743,-0.0123 -0.0289,-0.013 -0.0988,10e-4 -0.0684,0.0117 -0.029,-0.013 -1.05682,0.0364 -0.0344,1.39464 -0.0598,1.15811 0.0112,0.0688 -0.0292,0.0891 -0.031,0.74215 -0.005,0.12872 -0.013,0.0292 -0.0192,0.81106 -0.022,0.28737 0.001,0.0986 -0.023,0.28707 -0.013,0.0292 -0.043,0.24822 0.029,0.013 -0.0652,0.96045 -0.0558,0.93063 -0.0466,0.90068 -0.027,0.51473 -0.057,1.25687 -0.0178,0.0599 -0.005,0.12869 -0.0178,0.0598 -0.008,0.45507 0.001,0.0986 -0.0331,0.64342 0.001,0.0986 -0.0244,0.61351 10e-4,0.0987 -0.0873,1.24771 -0.0194,0.38606 -0.0374,0.8708 -0.0235,0.18867 -0.0152,0.58354 -0.0365,0.54456 -0.013,0.0293 -0.013,0.0292 0.0204,0.0388 -0.013,0.0293 -0.005,0.12873 -0.0205,0.38602 -0.0175,0.0599 0.0113,0.0688 -0.013,0.0292 -0.023,0.28705 0.001,0.0987 0.0113,0.0687 -0.0178,0.0599 -0.0697,0.76288 -0.008,0.45484 -0.013,0.0293 -0.0102,0.35614 0.001,0.0986 z"
       id="CT-5" />
  </g>
</svg>
