<?xml version="1.0" encoding="UTF-8" standalone="no"?>
<!-- Created with Inkscape (http://www.inkscape.org/) -->
<?xml-stylesheet type="text/css" href="/stylesheets/state.css" ?>
<svg
   xmlns:dc="http://purl.org/dc/elements/1.1/"
   xmlns:cc="http://creativecommons.org/ns#"
   xmlns:rdf="http://www.w3.org/1999/02/22-rdf-syntax-ns#"
   xmlns:svg="http://www.w3.org/2000/svg"
   xmlns="http://www.w3.org/2000/svg"
   xmlns:sodipodi="http://sodipodi.sourceforge.net/DTD/sodipodi-0.dtd"
   xmlns:inkscape="http://www.inkscape.org/namespaces/inkscape"
   width="100%"
   height="300px"
   viewBox="0 -5 15.26113 44"
   id="svg3885"
   version="1.1"
   inkscape:version="0.91 r"
   sodipodi:docname="DE.svg">
  <defs
     id="defs3887" />
  <sodipodi:namedview
     id="base"
     pagecolor="#ffffff"
     bordercolor="#666666"
     borderopacity="1.0"
     inkscape:pageopacity="0.0"
     inkscape:pageshadow="2"
     inkscape:zoom="0.41351974"
     inkscape:cx="-238.93566"
     inkscape:cy="373.19148"
     inkscape:document-units="px"
     inkscape:current-layer="layer1"
     showgrid="false"
     inkscape:window-width="2560"
     inkscape:window-height="1388"
     inkscape:window-x="0"
     inkscape:window-y="0"
     inkscape:window-maximized="1"
     fit-margin-top="0"
     fit-margin-left="0"
     fit-margin-right="0"
     fit-margin-bottom="0" />
  <metadata
     id="metadata3890">
    <rdf:RDF>
      <cc:Work
         rdf:about="">
        <dc:format>image/svg+xml</dc:format>
        <dc:type
           rdf:resource="http://purl.org/dc/dcmitype/StillImage" />
        <dc:title></dc:title>
      </cc:Work>
    </rdf:RDF>
  </metadata>
  <g
     inkscape:label="Layer 1"
     inkscape:groupmode="layer"
     id="layer1"
     transform="translate(-211.875,-365.56417)">
    <path
       inkscape:connector-curvature="0"
       d="m 218.34205,362.9664 -0.23033,0.0348 -0.19791,-0.0651 -0.39635,-0.12854 -0.0331,0.0987 -0.2974,-0.0959 -0.32939,0.002 -0.2303,0.0348 -0.32938,0.002 -0.46072,0.0694 -0.46065,0.0694 -0.13122,0.067 -0.36156,0.10152 -0.033,0.0989 -0.3616,0.10151 -0.0332,0.0988 -0.0989,-0.0331 -0.0331,0.0988 -0.26252,0.13381 -0.13127,0.0669 -0.0331,0.0988 -0.13129,0.0668 -0.16338,0.16594 -0.13128,0.0668 -0.0332,0.0987 -0.1313,0.0669 -0.0332,0.0988 -0.13115,0.0668 -0.0331,0.0988 -0.0332,0.0988 -0.13129,0.0669 -0.0651,0.19802 -0.13124,0.0668 -0.0961,0.29738 -0.19555,0.26502 -0.096,0.29734 -0.0333,0.0989 -0.32937,0.002 -0.0332,0.0987 0.037,0.55977 -0.0332,0.0988 0.002,0.3294 -0.0332,0.0989 -0.0332,0.0988 0.0669,0.13118 -0.0961,0.29735 0.067,0.13132 -0.0333,0.0989 -0.0332,0.0988 0.067,0.13131 -0.065,0.19792 0.0347,0.23039 0.0348,0.23032 0.002,0.32942 -0.0332,0.0988 0.0347,0.2303 0.0348,0.23035 -0.0332,0.0988 -0.0332,0.0989 0.0669,0.1312 -0.0651,0.198 0.0371,0.55967 -0.0295,0.42854 0.0988,0.0331 0.0448,1.54792 -0.0295,0.42848 0.0373,0.55972 -0.0272,0.75787 0.0745,1.11939 0.002,0.32938 0.0348,0.2304 -0.0295,0.42845 0.0421,1.21854 -0.033,0.0988 0.005,0.65881 0.0694,0.46066 0.002,0.32941 0.01,1.31756 0.0372,0.55969 0.002,0.32941 0.005,0.65881 0.005,0.65877 0.0669,0.13128 -0.0332,0.0989 0.0694,0.46067 -0.0295,0.42843 0.0347,0.23038 -0.0271,0.75781 0.0694,0.46066 0.015,1.97639 0.005,0.65879 0.0745,1.11949 -0.0271,0.75776 0.002,0.32944 0.0348,0.23039 0.0694,0.46058 -0.0332,0.0989 0.0348,0.23032 -0.0615,0.52762 0.0372,0.5597 0.0693,0.46066 -0.0197,1.74601 0.14617,1.90951 -0.096,0.29741 0.067,0.13119 -0.0332,0.0989 -0.0332,0.0989 0.0372,0.55967 0.0348,0.23034 0.005,0.65873 -0.0331,0.0988 0.0694,0.46073 0.0372,0.55966 0.002,0.3294 -0.0295,0.42853 -0.0331,0.0987 0.0397,0.88918 0.0989,0.0332 0.52755,0.0615 0.0988,0.0332 0.3294,-0.002 0.32936,-0.002 0.75795,0.0271 0.0987,0.0331 0.0989,0.0331 0.0988,0.0331 0.0332,-0.0988 0.0988,0.0332 0.0988,0.0331 0.19793,0.065 0.13129,-0.0668 0.0988,0.0331 0.0988,0.0332 0.32937,-0.002 0.0988,0.0331 0.23032,-0.0347 0.42853,0.0295 0.52754,0.0615 0.19802,0.0651 0.55966,-0.0371 0.32939,-0.002 0.0989,0.0331 0.32934,-0.002 0.32944,-0.002 0.52755,0.0615 0.32935,-0.002 0.32942,-0.002 0.19791,0.0651 1.31758,-0.01 0.29736,0.0961 0.13129,-0.0669 0.32938,-0.002 0.19791,0.0651 0.23044,-0.0348 0.32936,-0.002 0.42841,0.0295 0.98817,-0.008 1.08729,0.025 0.0988,0.0331 0.32945,-0.002 0.0987,0.0331 0.3294,-0.002 0.0331,-0.0989 -0.002,-0.32935 0.0615,-0.52754 -0.005,-0.65878 -0.002,-0.3294 -0.0988,-0.0331 -0.002,-0.3294 -0.002,-0.32936 -0.0371,-0.55977 -0.005,-0.65881 0.0332,-0.0988 -0.0693,-0.46067 -0.10406,-0.69099 0.0271,-0.75787 -0.005,-0.65883 -0.0988,-0.0331 0.0331,-0.0988 -0.0695,-0.46069 0.0331,-0.0989 -0.0347,-0.2303 -0.0695,-0.46071 -0.0347,-0.23028 0.0332,-0.0989 -0.0348,-0.23032 -0.0372,-0.5597 -0.10406,-0.69096 -0.0989,-0.0331 -0.0331,0.0988 -0.0331,0.0988 -0.26248,0.13375 -0.1313,0.0669 -0.42852,-0.0295 -0.19793,-0.0651 -0.19789,-0.0651 -0.19804,-0.065 -0.59684,-0.52248 -0.39883,-0.45819 -0.39875,-0.45814 -0.0989,-0.0332 0.0331,-0.0988 -0.0987,-0.0331 0.0331,-0.0989 -0.19801,-0.0651 0.0332,-0.0988 -0.43345,-0.68852 -0.0987,-0.0331 -0.33196,-0.32689 -0.20062,-0.39376 -0.33196,-0.32685 -0.13369,-0.26257 0.22784,-0.36403 -0.166,-0.1635 -0.0669,-0.13129 0.0332,-0.0988 0.0295,-0.42851 -0.10155,-0.36158 -0.0348,-0.23031 -0.46817,-0.91886 -0.0668,-0.13127 -0.26502,-0.19567 -0.49785,-0.49033 -0.19801,-0.0651 -0.13373,-0.26248 -0.1659,-0.16347 0.0331,-0.0988 -0.0372,-0.55981 -0.0447,-1.54783 -0.10153,-0.3616 0.0616,-0.52756 0.22788,-0.36409 0.0987,0.0331 0.0615,-0.52752 -0.002,-0.32941 -0.16592,-0.16344 -0.0989,-0.0331 0.0615,-0.52756 0.0332,-0.0988 -0.0347,-0.2303 -0.0347,-0.23041 -0.43351,-0.68845 -0.13372,-0.26247 -0.002,-0.32937 -0.067,-0.13133 -0.49782,-0.49034 -0.19792,-0.065 -0.1659,-0.16344 -0.26506,-0.19561 -0.0988,-0.0331 0.0331,-0.0988 0.0332,-0.0989 0.0332,-0.0988 -0.29739,-0.096 -0.16599,-0.16351 0.0332,-0.0988 -0.23524,-0.62405 0.0332,-0.0988 -0.26759,-0.52499 -0.0669,-0.13129 -0.39876,-0.45814 -0.265,-0.19566 0.0331,-0.0988 -0.0988,-0.0332 -0.0668,-0.13125 -0.0989,-0.0332 0.0332,-0.0989 -0.23284,-0.29465 -0.0694,-0.46066 0.0332,-0.0988 0.12853,-0.39635 0.16339,-0.16594 0.0651,-0.19802 0.19803,0.065 0.22773,-0.36405 -0.26499,-0.19568 0.096,-0.29738 -0.0669,-0.1313 0.12852,-0.39625 0.0332,-0.0989 0.0332,-0.0988 -0.19803,-0.0651 0.0331,-0.0987 -0.36397,-0.22784 0.0332,-0.0988 -0.0989,-0.0333 -0.26503,-0.19559 -0.13371,-0.26255 -0.0348,-0.23034 -0.0348,-0.23033 0.0332,-0.0988 0.0332,-0.0989 0.26004,-0.46314 0.16347,-0.16587 0.0332,-0.0989 0.13118,-0.0669 0.0332,-0.0988 0.23043,-0.0348 0.23031,-0.0347 0.16347,-0.16591 0.22775,-0.36413 0.1635,-0.16591 0.065,-0.1979 0.13128,-0.0669 0.39628,0.12854 0.065,-0.19792 0.0331,-0.0988 0.0989,0.0331 0.16347,-0.16591 0.0331,-0.0989 0.0332,-0.0989 0.0332,-0.0988 0.1312,-0.067 0.0989,0.0331 0.0988,0.0331 0.0332,-0.0988 -0.0669,-0.13124 0.0331,-0.0988 0.0332,-0.0988 0.0331,-0.0988 0.0332,-0.0988 0.0332,-0.0989 0.0331,-0.0987 0.065,-0.19804 0.0331,-0.0988 0.0332,-0.0989 0.0332,-0.0988 0.0331,-0.0988 0.0989,0.0331 0.1634,-0.16603 0.0332,-0.0988 0.16348,-0.166 0.0332,-0.0988 0.13133,-0.0668 0.1312,-0.067 0.49288,-0.16844 -0.16595,-0.16338 -0.36409,-0.22785 -0.0669,-0.13131 -0.0987,-0.0331 -0.26506,-0.19555 -0.0989,-0.0332 -0.0989,-0.0332 -0.0988,-0.0331 -0.19798,-0.0651 -0.16593,-0.16347 -0.19788,-0.0651 -0.19805,-0.0651 z"
       id="DE-0" />
  </g>
</svg>
