<?xml version="1.0" encoding="UTF-8" standalone="no"?>
<!-- Created with Inkscape (http://www.inkscape.org/) -->
<?xml-stylesheet type="text/css" href="/stylesheets/state.css" ?>
<svg
   xmlns:dc="http://purl.org/dc/elements/1.1/"
   xmlns:cc="http://creativecommons.org/ns#"
   xmlns:rdf="http://www.w3.org/1999/02/22-rdf-syntax-ns#"
   xmlns:svg="http://www.w3.org/2000/svg"
   xmlns="http://www.w3.org/2000/svg"
   xmlns:sodipodi="http://sodipodi.sourceforge.net/DTD/sodipodi-0.dtd"
   xmlns:inkscape="http://www.inkscape.org/namespaces/inkscape"
   width="100%"
   height="300px"
   viewBox="0 0 128.221 198.88307"
   id="svg3885"
   version="1.1"
   inkscape:version="0.91 r"
   sodipodi:docname="1.svg">
  <defs
     id="defs3887" />
  <sodipodi:namedview
     id="base"
     pagecolor="#ffffff"
     bordercolor="#666666"
     borderopacity="1.0"
     inkscape:pageopacity="0.0"
     inkscape:pageshadow="2"
     inkscape:zoom="2.6125541"
     inkscape:cx="126.53108"
     inkscape:cy="140.37036"
     inkscape:document-units="px"
     inkscape:current-layer="layer1"
     showgrid="false"
     inkscape:window-width="1920"
     inkscape:window-height="1028"
     inkscape:window-x="0"
     inkscape:window-y="0"
     inkscape:window-maximized="1"
     fit-margin-top="0"
     fit-margin-left="0"
     fit-margin-right="0"
     fit-margin-bottom="0" />
  <metadata
     id="metadata3890">
    <rdf:RDF>
      <cc:Work
         rdf:about="">
        <dc:format>image/svg+xml</dc:format>
        <dc:type
           rdf:resource="http://purl.org/dc/dcmitype/StillImage" />
        <dc:title></dc:title>
      </cc:Work>
    </rdf:RDF>
  </metadata>
  <g
     inkscape:label="Layer 1"
     inkscape:groupmode="layer"
     id="layer1"
     transform="translate(-97.089907,-452.03805)">
    <path
       inkscape:connector-curvature="0"
       d="m 105.04585,452.23629 6e-4,0.9196 -0.0868,2.64619 -0.0279,0.7656 0.003,0.38015 -0.029,0.38544 -0.0471,1.02257 -0.0216,0.98646 -0.0611,2.61014 -0.048,0.83249 -0.0247,0.22615 -10e-4,0.34935 -0.036,1.27425 -0.01,0.12847 -0.001,0.34936 -0.0385,0.70403 0.007,0.60103 -0.0302,0.19533 0.008,0.0307 0.003,0.38015 -0.0248,0.22616 6.1e-4,0.91959 -0.0249,0.22619 0.008,0.0307 -0.002,0.19012 -0.009,0.31855 -0.002,0.53944 -0.023,0.60633 -0.12565,3.16007 -0.0147,0.0973 -0.006,0.15926 -0.0322,0.92488 -0.0205,0.0666 0.004,0.22088 -0.0203,0.0666 0.008,0.0307 -0.0206,0.0666 0.0273,0.15393 -0.0308,0.008 0.0204,0.12329 -0.0147,0.0974 -0.0205,0.0666 0.009,0.0618 -0.0147,0.0974 0.009,0.0619 0.008,0.0307 -0.0205,0.0666 0.008,0.0308 -0.0147,0.0974 0.0178,0.0924 -0.0631,0.93019 0.008,0.25166 -0.062,1.12027 -0.0261,1.14578 -0.0847,1.91662 0.0208,0.31335 -0.0569,1.15103 -0.0318,1.115 0.0178,0.0924 -0.01,0.12848 0.008,0.0307 -0.0205,0.0666 0.008,0.2517 -0.01,0.12847 -0.0179,0.63711 0.0178,0.0925 -0.0147,0.0973 -0.002,0.19009 -0.0148,0.0974 -0.0408,1.24348 -10e-4,0.3493 0.008,0.0307 -0.0101,0.12848 0.0132,0.44178 -0.0252,0.0359 0.004,0.2209 0.008,0.0308 -10e-4,0.34934 -0.0186,0.44705 -0.006,0.15929 0.008,0.0307 0.008,0.0307 -0.0307,0.008 0.008,0.0307 0.008,0.0307 0.008,0.0308 -0.001,0.34937 -0.0147,0.0974 0.009,0.0618 -0.0551,1.53126 0.0272,0.34409 -0.0346,0.35461 0.009,0.41096 -0.01,0.12847 0.008,0.0307 -0.0101,0.1285 -0.0185,0.44707 -0.004,0.72949 -0.0101,0.12849 -0.0101,0.1285 0.008,0.0308 -0.036,1.27425 0.003,0.38013 -0.0174,0.82724 -0.0179,0.63711 -0.001,0.34936 -0.0383,0.70399 0.008,0.2517 -0.0336,0.5447 -0.0242,0.41627 -0.0275,2.06538 -0.0337,0.5447 0.008,0.0307 0.003,0.38016 -0.018,0.63714 -0.0228,0.6063 -0.0279,0.7656 -0.0285,0.57552 -0.002,0.19009 0.008,0.0307 -0.0218,0.98651 0.008,0.0307 -0.0465,1.21263 -0.0222,0.79638 -0.0408,1.24346 0.004,0.2209 -0.0101,0.12849 -0.0403,1.43351 -0.0316,1.11499 -0.001,0.34935 -0.0267,0.95569 0.008,0.0307 -0.0142,0.28775 -0.0465,1.21265 -0.002,0.19008 -0.0224,0.79643 -0.006,0.15928 0.008,0.25173 -0.01,0.12846 -0.0187,0.44704 0.009,0.0619 -0.023,0.60632 -0.0341,1.65441 -0.0322,0.9249 -0.036,1.27424 -0.0687,2.00907 0.009,0.0619 -0.002,0.19008 -0.006,0.15928 -0.0185,0.44705 -0.0353,0.16458 0.0306,0.18491 -0.0147,0.0974 0.0358,0.0252 0.008,0.0308 0.008,0.0307 0.009,0.0619 0.0414,0.0561 -0.0247,0.22614 -0.0205,0.0666 -0.0308,0.008 -0.0252,0.0358 -0.0303,0.19538 -0.0147,0.0974 -0.0307,0.008 0.0178,0.0924 -0.0408,0.13372 -0.0864,0.23671 -0.0205,0.0666 -0.0617,0.009 -0.0252,0.0358 -0.11265,0.0827 -0.0456,0.10286 -0.0514,0.0722 -0.008,0.31855 0.009,0.0619 0.0178,0.0924 0.0307,-0.008 0.008,0.0307 0.0358,0.0251 0.0359,0.0251 0.008,0.0307 0.0358,0.0252 0.0307,-0.008 0.008,0.0308 0.13375,0.0408 0.16461,0.0352 0.0308,-0.008 0.0665,0.0205 0.0723,0.0514 0.0771,0.0821 0.008,0.0307 -0.006,0.15926 -0.0146,0.0974 0.0273,0.15392 0.009,0.0617 0.0178,0.0923 0.0825,0.11273 0.15475,0.16373 0.13377,0.0408 0.0358,0.0251 0.0308,-0.008 0.0358,0.0251 0.11353,0.10739 0.0771,0.0821 0.0178,0.0924 0.0178,0.0924 -0.14786,0.2472 0.009,0.0619 -0.0206,0.0666 0.0772,0.0821 0.22695,0.21481 0.0468,0.0869 0.0414,0.0561 0.0827,0.11267 0.009,0.0619 0.0359,0.0251 0.008,0.0307 0.0832,0.30278 0.0889,0.33354 -0.0407,0.13376 -0.0661,0.1698 -0.14271,0.27804 -0.0206,0.0666 0.0204,0.12329 0.0469,0.0868 0.22167,0.18403 0.0827,0.11267 0.11872,0.13821 0.3254,0.41995 0.0466,0.0869 0.009,0.0618 -0.0408,0.13377 -0.26516,0.48915 -0.0251,0.0358 -0.21925,0.3862 -0.0206,0.0666 -0.0252,0.0358 -0.0407,0.13372 0.004,0.22088 -0.0809,0.26749 -0.0821,0.0771 -0.28257,0.0164 -0.0561,0.0412 -0.0561,0.0413 -0.0513,0.0722 -0.0251,0.0358 0.009,0.0619 -0.0101,0.12848 0.0414,0.0561 0.009,0.0619 0.17502,0.0969 0.13374,0.0408 0.0618,-0.009 0.0666,0.0203 0.16533,0.2254 0.0987,0.20508 0.19766,0.60028 0.16699,0.60551 0.0892,0.52369 0.0178,0.0924 0.008,0.0307 0.0931,0.17431 0.36153,0.44545 0.10462,0.42595 0.19694,0.41021 0.0465,0.0869 0.0848,0.49279 0.0374,0.21558 0.008,0.0307 0.0879,0.14347 0.0466,0.0869 0.0465,0.087 0.25324,0.36885 0.24719,0.14794 0.2165,0.15321 0.11343,0.10747 0.34645,0.54311 0.009,0.0617 0.0931,0.17429 0.0307,0.18488 -0.0147,0.0974 -0.0147,0.0974 0.0178,0.0924 0.009,0.0618 0.0931,0.17429 0.36069,0.2554 0.0974,0.0146 0.0924,-0.0178 0.0252,-0.0359 0.0308,-0.008 0.0561,-0.0412 0.0618,-0.009 -0.008,-0.0307 0.0561,-0.0414 0.0561,-0.0412 0.0308,-0.008 0.0252,-0.0358 0.0307,-0.008 0.411,-0.009 0.0666,0.0203 0.0307,-0.008 0.0359,0.0252 0.21111,0.12243 0.008,0.0307 0.19689,0.4102 0.11954,0.32828 0.008,0.0307 0.27876,0.3328 0.13372,0.0408 0.22623,0.0248 0.15386,-0.0273 0.0821,-0.0774 0.0561,-0.0412 0.56057,0.12612 0.20052,0.0607 0.008,0.0308 0.30434,0.29671 0.34574,0.35305 0.13373,0.0408 0.0723,0.0513 0.0307,-0.008 0.0359,0.0251 0.0574,0.14876 0.10897,0.26669 0.0178,0.0924 -0.0336,0.5447 0.0231,0.50336 -0.006,0.1593 0.0308,-0.008 0.10886,0.26671 0.088,0.14347 0.22162,0.18407 0.33066,0.45072 0.0723,0.0513 0.0466,0.087 0.0307,-0.008 0.008,0.0307 0.0785,0.27196 0.0466,0.0869 0.0573,0.14876 0.0931,0.17429 0.0575,0.14875 0.0722,0.0513 0.0308,-0.008 0.009,0.0618 0.008,0.0307 -10e-4,0.34935 -0.0251,0.0358 -0.0253,0.0358 -0.33647,0.62817 -0.0252,0.036 -0.14881,0.0573 -0.16902,0.12399 -0.0822,0.0772 -0.20431,0.28855 -0.20432,0.28853 -0.24928,0.58157 -0.16818,0.31409 -0.10743,0.11341 -0.10667,0.30355 -0.10585,0.49365 0.008,0.0308 0.0679,0.21036 -0.0141,0.28773 -0.14881,0.0573 -0.0308,0.008 -0.24561,0.23219 -0.11268,0.0828 -0.13289,0.14952 0.008,0.0307 -0.11652,0.43203 -0.0907,0.39597 -0.32751,0.3096 -0.10743,0.11341 -0.17354,0.28329 -0.29065,0.52526 -0.0253,0.036 -0.2396,0.4531 -0.42811,0.83405 -0.002,0.19009 0.0169,0.47262 0.008,0.2517 -0.0353,0.16454 -0.0302,0.19535 -0.0251,0.0358 -0.10742,0.1134 -0.1127,0.0826 -0.10744,0.11341 -0.0864,0.23669 -0.14722,0.43735 -0.15692,0.56573 0.009,0.0619 0.0164,0.2825 -0.0457,0.10297 -0.29424,0.8746 -0.0195,0.25695 -0.10048,0.52444 -0.0206,0.0666 -0.0205,0.0666 -0.47992,0.71608 -0.4049,0.22773 -0.17355,0.28331 -0.0251,0.0358 -0.006,0.15927 -0.0196,0.257 0.009,0.0619 -0.0252,0.0358 -0.24486,0.4223 -0.2404,0.26301 -0.35302,0.34566 -0.0822,0.0773 -0.2359,0.10374 -0.14788,0.24719 0.008,0.0308 0.0464,0.0869 0.0178,0.0924 0.003,0.38018 -0.0206,0.0666 -0.24474,0.42232 -0.0148,0.0974 -0.0206,0.0666 0.008,0.0307 0.1151,0.4876 0.009,0.0618 0.0931,0.17429 0.21186,0.31253 0.0679,0.21033 -0.0206,0.0666 -0.0203,0.0666 -0.10215,0.14426 -0.0864,0.23667 -0.0809,0.2675 -0.10132,0.33436 -0.0354,0.16452 -0.0913,0.20593 -0.17874,0.25245 -0.38383,0.35096 -0.2712,0.26828 -0.0913,0.20586 -0.0456,0.10286 -0.0513,0.0722 -0.31622,0.5613 -0.12767,0.18035 -0.0821,0.0771 -0.0607,0.2006 0.008,0.0307 0.009,0.0618 0.0519,0.11793 0.008,0.0308 -0.0514,0.0722 -0.0512,0.0722 -0.0561,0.0414 -0.23064,0.13441 -0.3696,0.0634 -0.0869,0.0465 -0.0252,0.0358 -0.10741,0.11344 -0.16365,0.1548 -0.0561,0.0413 -0.056,0.0412 -0.0308,0.008 0.008,0.0307 -0.0923,0.0178 -0.0562,0.0414 -0.0975,-0.0147 -0.0308,0.008 -0.12849,-0.01 -0.0307,0.008 -0.0306,0.008 -0.47182,0.20744 -0.11265,0.0827 -0.0514,0.0722 -0.30645,0.43285 0.0265,0.15401 -0.0551,0.42151 -0.0512,0.0722 -0.14352,0.088 -0.14797,0.24722 -0.0408,0.13374 -0.0204,0.0666 -0.0203,0.0666 -0.18851,0.38096 -0.10743,0.11341 0.001,0.19008 0.0265,0.15401 -0.10142,0.33437 -0.19376,0.35017 -0.14881,0.0573 -0.07131,0.139 -0.03526,0.16455 -0.01497,0.0974 -0.10594,0.49366 0.01647,0.28249 -0.05636,0.0413 -0.158492,0.1856 -0.08721,0.0465 -0.08711,0.0466 -0.05104,0.0723 -0.07142,0.13901 0.01067,0.0618 0.08803,0.14351 -0.009,0.31858 -0.117113,0.24192 -0.07141,0.13901 -0.189244,0.19089 -0.117954,0.0518 -0.287806,-0.0142 -0.07656,0.10815 -0.09688,0.17506 -0.04583,0.10287 0.01067,0.0618 -0.04581,0.10288 -0.01506,0.0974 -0.122376,0.21114 -0.194612,0.16007 -0.06155,0.009 -0.0977,-0.0146 -0.08721,0.0466 -0.06156,0.009 -0.02032,0.0666 -0.02562,0.0359 0.0053,0.0308 0.01067,0.0617 0.0053,0.0309 0.0053,0.0309 0.0053,0.0309 0.05195,0.11794 0.08351,0.30278 0.02626,0.15401 0.02625,0.15403 -0.05932,0.58077 -0.06076,0.20062 -0.132266,0.33965 -0.05098,0.0722 -0.163857,0.15483 -0.143433,0.0881 -0.03526,0.16454 0.176606,0.47707 0.124053,0.169 0.226943,0.21484 0.108144,0.0765 0.07748,0.0821 0.165333,0.22534 0.0413,0.0561 0.108996,0.2667 0.0053,0.0309 -0.03526,0.16454 -0.03059,0.008 -0.208831,0.44783 -0.05636,0.0413 -0.210416,0.0678 -0.02552,0.0358 -0.0306,0.008 -0.03536,0.1646 -0.05095,0.0722 0.0053,0.0308 0.108894,0.26669 0.356256,0.41465 0.108146,0.0765 0.443353,0.36806 0.262208,0.0501 0.282569,-0.0164 0.09214,-0.0178 0.107428,-0.11342 0.02562,-0.0358 -0.01067,-0.0618 0.05105,-0.0722 0.214833,-0.22696 0.05636,-0.0413 0.06165,-0.009 0.02553,-0.0359 0.03069,-0.008 0.09764,0.0147 0.06702,0.0204 0.03599,0.0251 0.0774,0.0821 0.0573,0.14875 0.0359,0.0253 0.0474,0.2772 0.0106,0.0617 0.23221,0.24564 0.0722,0.0514 0.14428,0.10217 0.16007,0.19451 0.0315,0.18487 0.0722,0.0514 0.0359,0.0251 0.0307,-0.008 0.0618,-0.009 -0.005,-0.0309 0.0308,-0.008 -0.005,-0.031 0.10657,-0.30353 0.10743,-0.11342 0.087,-0.0464 0.0923,-0.0178 0.0359,0.0252 0.10291,0.0456 0.0667,0.0205 0.32381,0.0395 0.28258,-0.0164 0.10287,0.0457 0.10286,0.0456 0.0308,-0.008 0.0466,0.0869 0.006,0.031 0.0108,0.0618 0.006,0.031 -0.0204,0.0666 -0.0303,0.19535 -0.008,0.50868 0.0217,0.31328 0.10824,0.0764 0.0307,-0.008 0.36522,0.0963 0.0307,-0.008 0.0871,-0.0464 0.0307,-0.008 0.0924,-0.0178 0.20051,0.0607 0.007,0.0308 0.43808,0.33727 0.0468,0.0868 0.0879,0.14346 0.0164,0.28254 0.007,0.0309 0.009,0.0618 -0.0457,0.10298 -0.0253,0.0358 -0.33117,0.659 -0.0764,0.10816 -0.23969,0.45313 -0.0203,0.0666 -0.12766,0.18033 -0.0766,0.10817 -0.0307,0.008 0.007,0.0309 -0.0619,0.009 0.006,0.031 -0.0307,0.008 -0.27715,0.0477 -0.19018,-0.002 -0.0307,0.008 -0.087,0.0464 -0.0253,0.0358 -0.0307,0.008 -0.0514,0.0722 0.006,0.031 0.0108,0.0618 0.003,0.38017 0.0211,0.12318 -0.006,0.15927 0.0211,0.12324 0.006,0.0309 -0.0148,0.0974 0.0359,0.0251 0.31411,0.16825 0.11342,0.10741 0.14427,0.10217 0.12398,0.16903 0.0264,0.15403 0.006,0.0309 0.0108,0.0618 -0.0499,0.26222 0.006,0.0309 -0.05,0.26221 -0.0458,0.10297 -0.0501,0.2622 0.006,0.031 -0.0821,0.0772 -0.22987,0.32462 -0.17429,0.0932 -0.087,0.0465 -0.0203,0.0666 -0.0203,0.0666 0.0108,0.0618 0.0108,0.0618 0.0358,0.0252 0.0359,0.0252 0.006,0.0309 0.0466,0.0868 0.0315,0.18481 -0.001,0.34932 -0.006,0.15929 -0.0303,0.1954 -0.0512,0.0721 -0.0562,0.0414 -0.17344,0.28327 -0.0254,0.0359 0.0211,0.12321 0.0265,0.15401 -0.0307,0.008 0.006,0.0309 -0.0907,0.39593 0.0158,0.0927 -0.0556,0.2314 -0.0253,0.0358 -0.087,0.0465 -0.0562,0.0413 -0.0308,0.008 -0.13376,-0.0407 -0.0307,0.008 -0.0307,0.008 -0.0562,0.0414 -0.0923,0.0178 -0.0618,0.009 -0.0513,0.0722 -0.0457,0.10287 -0.0204,0.0665 -0.13225,0.33968 -0.066,0.16978 -0.0205,0.0666 -0.0148,0.0974 0.0159,0.0926 -0.0291,0.38539 0.021,0.12325 0.005,0.0309 -0.0253,0.0358 -0.0279,0.76561 -0.0137,0.47783 0.002,0.76036 -0.0252,0.0359 -0.008,0.50864 0.008,0.25172 -0.001,0.34935 -0.0141,0.28776 -0.0205,0.0666 -0.006,0.1593 -0.008,0.31854 -0.006,0.88882 -0.0247,0.22616 -0.0148,0.0973 0.0159,0.0927 -0.002,0.19011 -0.0196,0.25697 0.005,0.0309 -0.01,0.12847 0.0107,0.0617 -0.0242,0.4163 0.005,0.0309 0.0159,0.0927 -0.0142,0.28779 -0.0669,2.38917 -0.0316,1.11494 -0.0687,2.0091 -0.0479,2.13234 -0.001,0.34928 -0.0279,0.7656 -0.1344,4.77846 -0.0396,1.62364 0.005,0.0309 -0.15968,6.11431 -0.15378,5.03539 -0.0149,0.0974 -0.0326,2.0346 -0.14935,4.87617 0.007,0.60101 -0.0321,0.92492 -0.0293,0.38544 -0.09608,4.07445 -0.0202,0.0666 -0.01187,0.85807 -0.01866,0.44695 -0.07374,3.2781 0.133748,0.0408 0.22611,0.0248 0.8272,0.0173 7.16764,0.20151 0.0359,0.0253 0.82723,0.0173 0.0924,-0.0178 1.18179,0.0513 0.31854,0.008 0.19013,0.002 0.0358,0.0252 0.28256,-0.0164 0.0666,0.0206 0.38015,-0.003 1.81366,0.0385 0.19542,0.0301 0.72427,-0.0287 0.0308,-0.008 1.30499,0.0304 2.22465,0.0317 0.0666,0.0205 2.57399,0.0355 0.15933,0.006 0.2517,-0.008 0.15398,-0.0273 0.50866,0.008 1.59267,0.0446 0.50866,0.008 0.15934,0.006 0.19536,0.0303 2.89266,0.0448 0.47252,-0.0169 1.77765,0.0133 0.15933,0.006 0.0665,0.0205 0.57036,-0.002 4.70633,0.0833 0.22083,-0.004 0.25168,-0.008 0.57551,0.0285 0.0307,-0.008 1.20221,-0.0153 0.0665,0.0204 0.1902,0.002 4.22317,0.0388 0.20758,-21.78395 -8.68226,0.0264 0.0839,-4.51623 -7.17972,-0.64329 -0.0494,-0.65729 -2.89128,-0.96412 -0.55866,1.55383 -1.27657,-0.60606 -4.88744,-4.11029 6.17505,-0.0414 0.0272,-7.07443 -4.17909,-5.53124 -3.11223,-0.95803 0.0693,-1.81902 1.68527,-3.68032 5.44368,5.69548 c 1.05304,-0.31643 2.19475,-0.0992 3.22903,-0.58365 1.0819,-0.48065 2.24016,-1.05442 3.14701,-1.80605 0.45344,-0.37586 0.86334,-0.78864 1.14543,-1.27381 0.28221,-0.48507 0.45035,-1.0445 0.47605,-1.66642 0.4557,0.0444 0.74951,-0.0262 0.94966,-0.19406 0.20016,-0.16744 0.30447,-0.41638 0.38756,-0.70032 0.16598,-0.56785 0.25113,-1.28876 0.77877,-1.74997 1.05354,-0.86898 2.45293,-1.37236 3.639,-2.08038 0.59303,-0.35402 1.11824,-0.75406 1.52572,-1.27531 0.40743,-0.52124 0.69147,-1.17488 0.76743,-2.00166 0.20759,-0.0846 0.39652,0.15872 0.59814,0.53182 0.20167,0.37306 0.4267,0.89025 0.68401,1.40483 0.25727,0.51457 0.55611,1.02232 0.9304,1.36273 0.37429,0.34035 0.81012,0.51898 1.36303,0.36935 0.38562,-0.0861 0.63969,-0.21795 0.79478,-0.35777 0.15504,-0.13981 0.21342,-0.29927 0.20355,-0.47861 -0.0185,-0.35881 -0.30058,-0.76915 -0.58552,-1.19979 -0.28504,-0.43061 -0.57183,-0.87406 -0.59603,-1.26133 -0.009,-0.19367 0.041,-0.37904 0.19291,-0.54025 0.15171,-0.16121 0.40306,-0.30503 0.78436,-0.41938 -0.35632,-0.11173 -0.53728,-0.26412 -0.61321,-0.43413 -0.0759,-0.17004 -0.0433,-0.34397 -0.0269,-0.53424 0.0158,-0.19024 0.0175,-0.38732 -0.064,-0.55975 -0.0817,-0.17239 -0.24563,-0.31759 -0.61312,-0.43414 -0.69075,-0.14114 -1.15405,-0.53562 -1.50436,-1.01099 -0.35028,-0.47535 -0.59976,-1.05116 -0.8493,-1.6302 -0.24955,-0.57908 -0.48656,-1.14183 -0.8749,-1.59415 -0.38826,-0.45234 -0.90669,-0.79186 -1.6734,-0.88698 0.48592,-0.57594 1.03217,-1.57411 1.23774,-2.5893 0.10285,-0.50763 0.11657,-1.01494 -0.002,-1.48986 -0.11761,-0.47497 -0.3787,-0.908 -0.81689,-1.25535 -0.1924,-0.37481 -0.26326,-0.67294 -0.25568,-0.93909 0.01,-0.26614 0.0823,-0.48458 0.23357,-0.67395 0.30281,-0.3788 0.85639,-0.64128 1.39877,-0.90488 0.54232,-0.26363 1.09072,-0.53682 1.4243,-0.94094 0.16684,-0.20207 0.29009,-0.43546 0.32067,-0.72058 0.0306,-0.28517 -0.0438,-0.611 -0.20457,-1.01125 0.0433,-0.42473 0.13235,-0.72671 0.25296,-0.93094 0.12061,-0.20421 0.26448,-0.31991 0.44545,-0.36146 0.36189,-0.0829 0.85288,0.0871 1.35239,0.30779 0.49964,0.22059 1.02391,0.50242 1.5231,0.56393 0.24967,0.0312 0.49016,0.005 0.71363,-0.0907 0.22367,-0.0958 0.42367,-0.26694 0.60405,-0.54709 0.81459,-0.76845 1.55234,-1.66628 2.18279,-2.62405 0.63043,-0.95778 1.15371,-1.99944 1.50807,-3.04768 0.16174,-1.20819 -0.16589,-2.5352 -0.27283,-3.82116 -0.0533,-0.64297 -0.0528,-1.26892 0.0952,-1.85503 0.14786,-0.58615 0.43064,-1.14383 0.95907,-1.62232 0.54918,-0.41474 0.83712,-0.83287 0.92462,-1.26765 0.0873,-0.43478 -0.017,-0.89448 -0.22638,-1.32454 -0.42164,-0.86009 -1.26106,-1.6781 -1.89523,-2.37083 -0.35772,-0.13933 -0.71153,-0.45302 -0.9642,-0.81799 -0.25263,-0.36497 -0.42189,-0.78678 -0.48255,-1.15394 -0.0601,-0.36722 -0.0102,-0.6821 0.20727,-0.82799 0.21814,-0.14591 0.61892,-0.1241 1.20285,0.17483 0.58791,0.32768 1.06956,0.36013 1.49067,0.189 0.42109,-0.17107 0.76502,-0.51933 1.10575,-0.94986 0.3363,-0.425 0.65431,-0.96063 0.99592,-1.40666 l -0.10815,-0.0764 -0.008,-0.0308 0.008,-0.50866 -0.008,-0.0308 0.0969,-0.17508 0.10215,-0.14428 0.10215,-0.1443 0.10215,-0.14427 -0.10888,-0.26672 -0.20599,-0.0913 -0.18637,-0.34858 0.006,-0.15929 0.0513,-0.0722 0.46122,-0.26906 0.0251,-0.0359 0.11796,-0.0518 0.0723,0.0513 0.0721,0.0513 0.30204,-0.27354 0.14271,-0.27804 0.0834,-0.99698 -0.0307,-0.18494 -0.0623,-0.17957 -0.0518,-0.11793 -0.0361,-0.0253 -0.0772,-0.0821 -0.51013,-0.38837 -0.2225,-0.37411 -0.22252,-0.3741 -0.17059,-0.25618 0.0661,-0.16982 0.12765,-0.18032 0.23066,-0.13442 0.59182,-0.9889 0.0205,-0.0666 -0.0466,-0.0868 -0.0359,-0.0251 0.0148,-0.0974 0.0409,-0.13376 0.10215,-0.14427 0.19977,-0.12921 0.22083,-0.004 0.0924,-0.0178 0.25696,0.0195 0.29752,-0.11414 0.13828,-0.11867 0.49359,0.10583 0.27276,0.11188 0.39734,-0.82878 0.0203,-0.0666 0.0353,-0.16456 -0.008,-0.0307 -0.0413,-0.0561 -0.10888,-0.26673 -0.20073,-0.0607 -0.16531,-0.22538 -0.36753,-0.66632 0.0147,-0.0973 0.20431,-0.28853 -0.004,-0.2209 -0.0788,-0.46206 -0.13466,-0.23062 -0.19081,-0.18931 -0.008,-0.0307 -0.23672,-0.0864 -0.26749,-0.0809 -0.0666,-0.0204 -0.12401,-0.16904 -0.0374,-0.21554 0.0252,-0.0358 0.0661,-0.16985 -0.008,-0.0307 -0.12484,-0.35909 -0.0923,0.0178 -0.10817,-0.0764 -0.0574,-0.14874 -0.0204,-0.12329 0.0408,-0.13374 0.27119,-0.26828 0.1945,-0.16005 -0.008,-0.0308 0.0514,-0.0722 0.0963,-0.36514 0.039,-0.51393 -0.008,-0.0307 -0.0413,-0.0562 -0.088,-0.14348 -0.16534,-0.22535 -0.25171,0.008 -0.008,-0.0307 -0.0307,0.008 -0.0359,-0.0252 -0.242,-0.11715 -0.35016,-0.1938 -0.0952,-0.55439 -0.008,-0.0307 0.21854,-0.5763 0.0252,-0.0358 0.3494,10e-4 0.12331,-0.0204 0.22695,0.21482 0.11794,-0.0518 0.28171,-0.20669 0.23592,-0.10364 0.048,-0.83249 -0.0374,-0.21554 -0.0164,-0.28252 -0.0787,-0.46209 -0.0519,-0.11794 -0.0359,-0.0252 -0.2833,-0.17348 -0.003,-0.38019 -0.0273,-0.15388 0.0969,-0.17508 0.23137,0.0555 0.24118,-0.0727 0.11266,-0.0828 0.1585,-0.1856 0.0408,-0.13376 -0.14582,-0.48234 0.0351,-0.16451 0.11719,-0.24198 0.11187,-0.27273 0.0913,-0.20589 0.0741,-0.67846 -0.0308,-0.18491 -0.19236,-0.56947 0.25525,-0.36069 0.22538,-0.16531 0.13828,-0.11872 0.0308,-0.008 0.056,-0.0413 0.14114,-0.65818 0.0248,-0.22616 -0.0373,-0.40575 -0.0178,-0.0924 -0.0622,-0.17957 -0.0308,0.008 -0.20586,-0.0913 -0.0987,-0.2051 -0.0691,-0.59052 -0.008,-0.0308 0.0307,-0.008 0.0204,-0.0666 0.0308,-0.008 0.0869,-0.0465 0.18503,-0.0307 0.139,0.0715 0.0307,-0.008 0.0307,-0.008 0.33365,-0.0889 0.11265,-0.0827 0.19905,-0.31934 -0.0879,-0.14351 -0.0575,-0.14872 0.0149,-0.0973 0.0551,-0.42151 0.066,-0.16979 0.0502,-0.26224 0.15322,-0.2164 0.0101,-0.12847 -0.009,-0.0618 -0.008,-0.0308 -0.0468,-0.0868 -0.0273,-0.15393 0.0408,-0.13374 0.22905,-0.5147 -0.009,-0.41096 -0.0231,-0.50337 0.0455,-0.10284 -0.0678,-0.2104 -0.19089,-0.18929 -0.0723,-0.0514 -0.37572,-0.15768 -0.0665,-0.0204 -0.33888,0.0581 -0.33886,0.0581 -0.16365,0.15481 -0.14881,0.0573 -0.23665,-0.0864 -0.57919,0.32096 -0.0249,0.22614 -0.24032,0.26303 -0.38542,-0.029 -0.21113,-0.12241 -0.23137,-0.0555 -0.3292,-0.0704 -0.42144,-0.055 -0.27716,0.0477 -0.39975,0.25855 -0.19,-0.002 -0.0667,-0.0205 -0.1337,-0.0408 -0.24193,-0.11716 -0.0204,-0.12328 0.0765,-0.1082 -0.0374,-0.21557 -0.13901,-0.0714 -0.2622,-0.0501 -0.0985,-0.20511 -0.0623,-0.17955 0.0303,-0.19535 0.19991,-0.12924 0.15839,-0.18557 0.0494,-0.45231 -0.1239,-0.16905 -0.10818,-0.0765 -0.25862,-0.39963 -0.0772,-0.0821 -0.46296,-0.11105 -0.0307,0.008 -0.0359,-0.0251 -0.0975,-0.0147 -0.26747,-0.0809 -0.0617,0.009 -0.0456,0.10298 -0.0351,0.16452 -0.12691,0.37045 -0.0822,0.0771 -0.25169,0.008 -0.27193,0.0784 -0.14271,0.27801 -0.0205,0.0666 -0.0512,0.0722 -0.1902,-0.002 -0.0923,0.0178 -0.38702,-0.40938 -0.0466,-0.087 0.11186,-0.27276 0.0661,-0.16982 -0.008,-0.0307 0.0923,-0.0178 0.0308,-0.008 0.12237,-0.21112 0.0351,-0.16457 -0.003,-0.38015 -0.39753,-0.47101 -0.0827,-0.11268 -0.36522,-0.0963 -0.18483,0.0306 -0.19545,-0.0303 -0.13974,-0.26146 -0.16988,-0.066 -0.22682,-0.21484 -0.0772,-0.0821 -0.008,-0.0307 -0.009,-0.0618 0.0101,-0.12851 -0.0722,-0.0513 -0.18494,0.0307 -0.12327,0.0204 -0.14353,0.088 -0.21106,-0.12244 -0.10909,-0.26668 -0.30877,-0.13745 -0.13463,-0.23059 -0.008,-0.0307 -0.008,-0.0307 -0.0178,-0.0923 -0.009,-0.0618 0.10742,-0.11337 -0.0985,-0.20511 -0.22622,-0.0247 -0.14427,-0.10216 0.0864,-0.23665 0.087,-0.0465 0.15315,-0.21639 0.006,-0.15933 -0.0575,-0.14873 -0.0477,-0.27721 0.0101,-0.12848 0.15323,-0.2164 0.01,-0.12849 -0.0573,-0.14877 -0.21116,-0.12241 -0.16983,-0.066 -0.17504,-0.0969 -0.036,-0.0251 -0.0414,-0.0561 -0.16006,-0.19455 -0.28403,-0.3636 -0.25863,-0.39965 -0.009,-0.0618 -0.0178,-0.0923 -0.52444,-0.10059 -0.0251,0.0359 -0.0513,0.0722 -0.30811,0.0519 -0.0413,-0.0561 -0.0178,-0.0923 -0.12483,-0.35912 -0.17061,-0.25614 -0.0308,-0.18493 -0.0272,-0.3441 -0.0374,-0.21558 -0.0465,-0.0869 -0.14499,-0.29227 -0.008,-0.0307 -0.008,-0.0307 -0.0988,-0.20509 -0.20588,-0.0913 -0.0869,0.0465 -0.10826,-0.0764 -0.24802,-0.33802 -0.0881,-0.14349 -0.0413,-0.056 -0.008,-0.0307 -0.1706,-0.25619 -0.0624,-0.17953 -0.004,-0.2209 -0.5718,-0.37779 -0.0307,-0.18494 -0.34648,-0.54314 -0.19618,-0.22006 -0.28329,-0.17354 -0.14428,-0.10216 -0.12847,-0.01 -0.29307,-0.0451 -0.0518,-0.11796 -0.1293,-0.19985 -0.008,-0.0307 -0.0272,-0.3441 -0.12398,-0.16901 -0.45765,-0.0802 -0.0307,0.008 -0.20588,-0.0913 -0.0361,-0.0252 0.002,-0.19011 0.0759,-0.29828 0.0717,-0.13901 -0.0518,-0.30813 -0.0518,-0.11795 -0.18029,-0.12769 -0.0667,-0.0204 -0.11341,-0.10741 -0.13975,-0.26145 -0.009,-0.0618 -0.0208,-0.31333 -0.24724,-0.14798 -0.21552,0.0374 -0.15934,-0.006 -0.13373,-0.0408 -0.11341,-0.10745 -0.12331,0.0204 -0.50862,-0.008 -0.12334,0.0204 -0.19617,-0.22008 -0.0204,-0.1233 -0.10818,-0.0765 -0.30814,0.0518 -0.25695,-0.0195 -0.25779,-0.20958 -0.32373,-0.0395 -0.17511,-0.0969 -0.28328,-0.17349 -0.2938,-0.23512 -0.009,-0.0619 -0.008,-0.0308 -0.0679,-0.21032 -0.124,-0.16904 -0.21725,-0.3433 0.006,-0.15929 -0.0272,-0.34409 -0.11351,-0.10742 -0.15926,-0.006 -0.10826,-0.0764 -0.0988,-0.20508 -0.0466,-0.0869 -0.0722,-0.0513 -0.3555,-0.22461 -0.0359,-0.0252 -0.11354,-0.10743 -0.16448,-0.0353 -0.30813,0.0518 -0.11795,0.0519 -0.0826,-0.11269 -0.10374,-0.23594 -0.14496,-0.29224 -0.63881,-0.39804 -0.36512,-0.0963 -0.1751,-0.0969 -0.0414,-0.0561 -0.008,-0.0307 -0.0359,-0.0252 -0.11354,-0.1074 -0.0517,-0.11796 0.0704,-0.32911 0.10218,-0.1443 0.11267,-0.0827 0.4876,-0.11498 0.23139,0.0556 0.16456,0.0352 0.14347,-0.0882 0.12236,-0.21111 0.0458,-0.10289 0.0555,-0.23141 -0.0415,-0.056 -0.0307,0.008 -0.0666,-0.0204 -0.40653,-0.15241 -0.10296,-0.0457 -0.12484,-0.35911 -0.1187,-0.13825 -0.0414,-0.0561 -0.0414,-0.0561 -0.0881,-0.14346 -0.009,-0.0618 -0.008,-0.0308 0.0205,-0.0666 -0.0273,-0.1539 0.002,-0.1901 -0.13901,-0.0714 -0.0666,-0.0204 -0.0359,-0.0251 -0.33951,-0.13218 -0.1188,-0.1382 -0.0204,-0.12332 -0.008,-0.0307 0.0303,-0.19538 0.22991,-0.32462 0.27633,-0.23745 0.27724,-0.0477 0.32678,-0.49969 -0.0382,-0.59577 -0.0374,-0.21558 -0.27878,-0.33278 -0.12846,-0.01 -0.28854,-0.2043 -0.0889,-0.33357 0.11193,-0.27274 0.0556,-0.23141 0.0205,-0.0666 0.0495,-0.45231 0.006,-0.15929 -0.008,-0.0307 -0.12932,-0.1998 -0.40732,-0.34253 -0.10818,-0.0764 -0.0869,0.0468 -0.15933,-0.006 -0.10818,-0.0764 -0.10907,-0.26665 0.0101,-0.12849 0.05,-0.26222 -0.1239,-0.16904 -0.19617,-0.2201 -0.13377,-0.0408 -0.14872,0.0573 -0.23589,0.10366 -0.14427,-0.10216 -0.0573,-0.14876 -0.008,-0.25168 -0.0273,-0.15393 -0.0518,-0.11794 -0.15478,-0.16376 0.0124,-0.66793 0.0352,-0.16453 -0.12461,-0.35913 -0.32467,-0.22984 -0.0933,-0.17429 -0.008,-0.0307 -0.12933,-0.19984 -0.34856,0.18637 -0.0773,-0.0821 -0.0359,-0.0251 -0.16534,-0.2254 -0.0772,-0.0821 -0.10375,-0.23592 -0.22251,-0.37409 -0.0519,-0.11795 -0.008,-0.0308 -0.0357,-0.0251 -0.0359,-0.0251 -0.16004,-0.19456 -0.0469,-0.0869 -0.077,-0.0821 -0.11964,-0.32828 -0.0518,-0.11794 -0.26749,-0.0809 -0.20659,-0.28172 -0.0374,-0.21558 -0.052,-0.1179 -0.1503,-0.32303 -0.0468,-0.087 -0.12923,-0.19985 -0.0827,-0.11265 -0.17586,-0.28699 -0.14868,0.0573 -0.0359,-0.0251 -0.0772,-0.0821 -0.0721,-0.0513 -0.0359,-0.0252 0.018,-0.63714 0.0291,-1.6852 0.002,-0.19011 0.009,-0.31858 0.008,-0.31852 0.0163,-1.01732 0.0206,-1.17656 0.015,-1.39745 0.018,-0.63716 10e-4,-0.34936 0.009,-0.31854 -0.003,-0.38019 0.0323,-0.92487 -0.009,-0.0618 0.002,-0.53942 0.0176,-1.9369 0.0138,-0.47787 0.0231,-0.60634 0.006,-0.15926 0.0261,-1.14579 -0.007,-0.60104 0.0365,-1.08418 0.0318,-2.22469 0.002,-0.19008 0.0754,-5.30736 0.10115,-5.34344 -5.79048,-0.11982 -0.19009,-0.002 -0.0923,0.0178 -0.0308,0.008 -0.19008,-0.002 -0.47789,-0.0137 -0.12846,-0.01 -0.44171,0.0132 -1.14575,-0.0261 -4.74243,-0.10875 -5.15859,-0.13273 z"
       id="ID-1" />
    <path
       inkscape:connector-curvature="0"
       d="m 151.48925,550.15474 c -0.34163,0.44604 -0.65961,0.98165 -0.99594,1.40668 -0.34072,0.4305 -0.68466,0.77876 -1.10575,0.94987 -0.42109,0.17109 -0.90273,0.13859 -1.49066,-0.18905 -0.58389,-0.29882 -0.98471,-0.32069 -1.20285,-0.17481 -0.21825,0.14589 -0.26789,0.46082 -0.20727,0.828 0.061,0.36705 0.22994,0.78894 0.48254,1.15396 0.2527,0.36495 0.60652,0.67862 0.96422,0.81795 0.6342,0.69273 1.4736,1.51076 1.89525,2.37082 0.21078,0.43008 0.3139,0.88976 0.22626,1.32456 -0.0873,0.4348 -0.37544,0.85295 -0.92462,1.26766 -0.52843,0.47847 -0.81123,1.03616 -0.95909,1.62231 -0.14794,0.58614 -0.14861,1.21206 -0.0951,1.85504 0.10662,1.28596 0.43442,2.61301 0.2728,3.82117 -0.35435,1.04825 -0.87762,2.08988 -1.50804,3.04765 -0.63046,0.95776 -1.36824,1.85564 -2.18278,2.62404 -0.18039,0.28017 -0.38041,0.45132 -0.60407,0.5471 -0.22358,0.0958 -0.46404,0.12089 -0.71364,0.0906 -0.49919,-0.0613 -1.0235,-0.34335 -1.52306,-0.56395 -0.49952,-0.22061 -0.99053,-0.39086 -1.35242,-0.30777 -0.18102,0.0413 -0.32486,0.15725 -0.44545,0.36147 -0.12061,0.20422 -0.20991,0.50621 -0.25296,0.93092 0.16159,0.40021 0.23509,0.72612 0.20457,1.01124 -0.0306,0.28515 -0.15383,0.51851 -0.32067,0.7206 -0.3336,0.40413 -0.88199,0.67732 -1.42432,0.94094 -0.54236,0.26358 -1.09593,0.52606 -1.39875,0.90485 -0.15146,0.1894 -0.22601,0.40785 -0.23359,0.67399 -0.01,0.26614 0.0635,0.56426 0.25571,0.93911 0.43816,0.3473 0.69926,0.78032 0.81686,1.2553 0.11761,0.47494 0.10394,0.98223 0.002,1.48987 -0.20558,1.01521 -0.75181,2.01334 -1.23771,2.58929 0.76668,0.0952 1.28511,0.43467 1.67338,0.887 0.38836,0.45232 0.62536,1.01505 0.87491,1.59412 0.24954,0.57903 0.49901,1.15488 0.8493,1.63023 0.35032,0.47533 0.81359,0.86983 1.50437,1.01098 0.36748,0.11653 0.53148,0.26173 0.6131,0.43415 0.0818,0.1724 0.0795,0.36945 0.064,0.55972 -0.0158,0.19026 -0.0483,0.36418 0.0269,0.53422 0.0759,0.17005 0.25693,0.32245 0.61324,0.43417 -0.38127,0.11447 -0.63265,0.25817 -0.78436,0.41938 -0.1517,0.16124 -0.20512,0.3466 -0.19295,0.54026 0.0245,0.38728 0.31101,0.83074 0.59607,1.26135 0.28493,0.43061 0.56566,0.84101 0.58551,1.19975 0.007,0.1794 -0.0484,0.33881 -0.20356,0.47864 -0.15508,0.13979 -0.40915,0.27195 -0.79478,0.35777 -0.5529,0.14955 -0.98873,-0.0293 -1.36303,-0.36938 -0.37429,-0.34036 -0.67312,-0.84814 -0.93041,-1.36272 -0.25726,-0.51458 -0.48233,-1.03176 -0.68397,-1.40485 -0.20163,-0.37307 -0.39057,-0.61601 -0.59815,-0.53183 -0.0763,0.82681 -0.36,1.48044 -0.76743,2.00171 -0.40749,0.52126 -0.9327,0.92126 -1.52571,1.27527 -1.18607,0.70806 -2.58546,1.21143 -3.63903,2.0804 -0.52762,0.46122 -0.61277,1.18213 -0.77876,1.74997 -0.083,0.28394 -0.1874,0.53289 -0.38757,0.70031 -0.20012,0.16741 -0.49396,0.23853 -0.94965,0.19407 -0.0257,0.62194 -0.19384,1.18135 -0.47604,1.66644 -0.2821,0.48518 -0.69199,0.89794 -1.14548,1.2738 -0.90679,0.75163 -2.06511,1.32541 -3.14697,1.80609 -1.03431,0.48356 -2.17597,0.26727 -3.22903,0.58361 l -5.44363,-5.69547 -1.6853,3.68033 -0.0694,1.81899 3.11223,0.95803 4.17911,5.53124 -0.0271,7.07443 -6.17508,0.0414 4.88741,4.1103 1.27656,0.60604 0.55868,-1.55384 2.89128,0.96417 0.0494,0.65729 7.17973,0.64328 -0.0839,4.51622 8.6823,-0.0254 -0.2076,21.78393 0.0618,-0.009 0.12848,0.0101 0.91443,-0.0292 0.31322,-0.0208 1.22773,-0.0507 0.31858,0.009 0.49811,-0.0538 0.19006,0.002 0.31858,0.009 0.15397,-0.0273 0.28772,0.0142 0.47788,0.0138 0.0307,-0.008 1.79341,0.10553 1.08418,0.0366 1.50036,0.0607 2.09104,-0.0107 0.63184,-0.0123 1.48983,-0.002 2.4095,7.9e-4 3.67845,0.005 0.95045,-0.005 0.28247,-0.0164 0.1285,0.01 0.98654,0.0217 1.95266,0.11007 0.19018,0.002 0.12849,0.0101 0.0618,-0.009 0.41101,-0.009 0.88356,-0.024 0.53952,0.003 0.6626,-0.0189 0.25169,-0.008 1.19681,-0.0463 0.9812,-0.01 3.09254,-0.0848 0.0923,-0.0178 0.0308,-0.008 1.3252,-0.0362 0.22095,-0.004 0.41091,-0.009 0.1233,-0.0204 0.82728,0.0173 0.33878,-0.058 1.89561,-0.0386 0.0308,-0.008 1.19677,-0.046 3.87834,-0.12417 0.12851,0.01 0.44174,-0.0132 1.47927,-0.0628 0.15934,0.006 0.41105,-0.009 0.0359,0.0251 1.00674,-0.0457 0.91431,-0.0292 1.66951,-0.0633 1.26371,-0.0259 2.93321,-0.0889 0.0665,0.0205 1.16613,-0.0404 0.19009,0.002 1.16601,-0.0404 0.44187,-0.0132 2.08031,-0.0695 0.44186,-0.0132 0.1285,0.01 0.0307,-0.008 0.1901,0.002 0.7242,-0.0287 0.43213,0.11648 0.19008,0.002 1.13,-0.0662 1.44856,-0.0572 0.28257,-0.0164 0.31323,-0.0206 0.76036,-0.002 0.0308,-0.008 0.60101,-0.007 0.0923,-0.0178 0.15924,0.006 0.37484,-0.0336 0.41103,-0.009 0.41099,-0.009 0.41098,-0.008 0.43649,-0.0431 0.28256,-0.0164 0.19525,0.0303 0.0308,-0.008 1.2893,-0.0616 0.22081,-0.004 0.81669,-0.0444 4.06305,-0.15569 0.75514,-0.0335 0.93996,-0.0655 0.12846,0.01 0.0975,0.0147 0.15394,-0.0273 0.72424,-0.0287 0.57028,-0.002 0.53414,-0.0269 2.07526,-0.10072 1.54092,-0.0731 1.0375,-0.0508 0.44184,-0.0132 0.66263,-0.0183 -0.13885,-2.4809 -0.0292,-0.91431 -0.002,-0.57027 -0.0307,-0.18492 -0.035,-0.94516 0.001,-0.34931 -0.0231,-0.50341 -0.10019,-1.88501 -0.08,-1.95203 -0.0573,-1.44843 -0.0695,-1.89031 -0.024,-0.88355 -0.0273,-0.15397 -0.004,-0.22084 -0.049,-1.9573 -0.0335,-0.75507 -0.025,-1.07354 -0.008,-0.2517 -0.0486,-1.76712 -0.0178,-0.0924 -0.0259,-1.26371 -0.11813,-2.54768 -0.0169,-0.47264 -0.0913,-2.20364 -0.0207,-0.31335 0.01,-0.12847 -0.0273,-0.15384 -0.004,-0.22095 -0.0456,-1.00673 -0.008,-0.0307 -0.009,-0.0618 0.0205,-0.0665 -0.008,-0.0308 -0.008,-0.0308 -0.0178,-0.0924 0.008,-0.31853 -0.0178,-0.0924 -0.009,-0.0618 -0.008,-0.25171 0.006,-0.15933 0.01,-0.12845 -0.009,-0.0619 -0.0204,-0.12328 -0.0269,-0.53419 -0.0628,-1.47939 -0.0195,-0.8528 -0.009,-0.0618 -0.008,-0.0308 0.002,-0.1901 0.0101,-0.12849 -0.0307,-0.18492 0.006,-0.15933 -0.13673,-3.21029 -0.22728,-5.22398 -0.16808,-3.39522 0.002,-0.53939 -0.008,-0.0307 -0.0539,-0.49811 -0.002,-0.57033 -0.008,-0.0308 -0.009,-0.0619 -0.009,-0.0618 -0.009,-0.0619 -0.04,-0.9759 0.0205,-0.0667 -0.009,-0.0617 -0.0235,-0.69354 -0.0598,-0.71894 0.002,-0.19009 -0.0292,-0.91431 0.01,-0.12848 -0.0662,-1.13002 -0.0673,-1.32015 -0.0695,-1.8903 0.002,-0.18999 -0.008,-0.0308 -0.0168,-0.47252 -0.064,-0.55984 -0.0404,-1.16602 -0.008,-0.0307 -0.0507,-1.22772 -0.008,-0.2517 -0.0273,-0.15385 0.0101,-0.12849 -0.004,-0.22094 -0.15275,-3.30272 -0.11984,-2.92795 -0.007,-0.60105 -0.0998,-1.69497 0.0205,-0.0666 -0.0455,-1.00676 -0.13378,-0.0408 -0.12844,-0.01 -0.54025,-0.19297 -0.0358,-0.0251 -0.0665,-0.0204 -0.0667,-0.0203 -0.0975,-0.0147 -0.20587,-0.0914 -0.23675,-0.0864 -0.18554,-0.15848 -0.17672,-0.47708 -0.0892,-0.52369 -0.33509,-0.29145 -0.15923,-0.006 -0.18565,-0.15851 -0.10909,-0.26669 -0.0519,-0.11795 -0.14954,-0.13294 -0.24199,-0.11715 -0.46287,-0.11111 -0.12384,-0.16905 -0.0338,-0.56492 0.0704,-0.32909 0.0409,-0.13378 -0.44417,-0.55813 -0.16007,-0.19458 -0.18493,0.0307 -0.30885,-0.13743 0.15774,-0.37568 -0.008,-0.0307 -0.12408,-0.169 -0.0413,-0.0561 -0.0878,-0.14345 -0.34645,-0.54317 -0.54709,-0.60394 -0.37046,-0.12691 -0.13822,0.11871 -0.13373,-0.0408 -0.24273,-0.30723 0.0148,-0.0975 -0.19621,-0.22006 -0.0723,-0.0513 -0.14428,-0.10215 -0.1743,0.0932 -0.0661,0.16982 0.0721,0.0514 -0.0494,0.45228 -0.006,0.15928 -0.31697,0.37122 -0.20589,-0.0913 -0.0931,-0.1743 -0.19008,-0.002 -0.11796,0.0518 -0.17956,0.0623 -0.26663,0.10898 -0.26152,0.13976 -0.12328,0.0204 -0.0513,0.0722 0.008,0.0307 -0.0408,0.13376 0.0308,-0.008 0.0889,0.33356 0.15481,0.16378 0.2006,0.061 -0.0252,0.0358 -0.0395,0.32381 -0.0252,0.0357 -0.20431,0.28856 -0.1224,0.21114 -0.10738,0.1134 -0.17884,0.25252 -0.0147,0.0974 -0.28539,0.55607 -0.0864,0.23667 0.0308,0.18492 0.009,0.0619 0.12474,0.35912 0.34573,0.35304 0.23212,0.24564 0.31412,0.16824 0.13898,0.0714 0.0374,0.21559 -0.0765,0.1082 -0.56505,0.0338 -0.36511,-0.0963 -0.11872,-0.13825 -0.44787,-0.20878 -0.21031,0.0678 -0.12847,-0.01 -0.23672,-0.0864 -0.20591,-0.0913 -0.036,-0.0252 -0.11797,0.0517 -0.18399,0.22167 -0.26148,0.13978 -0.0665,-0.0205 -0.39069,-0.0599 -0.0667,-0.0204 -0.23137,-0.0556 -0.61679,-0.0846 -0.0667,-0.0204 -0.38017,0.003 -0.076,0.2983 -0.12761,0.18032 -0.0925,0.0178 -0.19,-0.002 -0.12329,0.0204 -0.0308,0.008 -0.17955,0.0623 -0.25084,0.20142 -0.0457,0.10287 -0.11795,0.0517 -0.7895,0.38861 -0.0101,0.12847 -0.27717,0.0478 -0.18557,-0.15851 -0.26831,-0.27115 -0.13008,-0.38991 -0.17061,-0.25619 -0.17058,-0.25613 -0.124,-0.16906 -0.34417,0.0272 -0.14339,0.088 -0.16914,0.12399 -0.31846,-0.008 -0.56506,0.0338 -0.0204,0.0665 -0.0456,0.10287 -0.22537,0.16536 -0.10744,0.11342 -0.23063,0.13443 -0.30811,0.0518 -0.38102,-0.1885 -0.40122,-0.12163 -0.01,0.12847 0.0204,0.12331 -0.0556,0.23143 -0.33954,-0.13219 -0.16459,-0.0353 -0.15933,-0.006 -0.2359,0.10375 -0.23591,0.10374 -0.0609,0.20062 -0.11795,0.0518 -0.0924,0.0178 -0.38628,-0.21928 -0.0678,-0.2104 -0.14429,-0.10213 -0.57562,-0.0285 -0.30192,0.27354 -0.0974,-0.0147 -0.7462,-0.28458 -0.18556,-0.15851 0.0661,-0.16984 -0.068,-0.21036 -0.27799,-0.14266 -0.0974,-0.0147 -0.22622,-0.0247 -0.52881,0.0588 -0.087,0.0466 -0.33278,0.27879 -0.056,0.0412 -0.0821,0.0771 -0.0148,0.0974 0.008,0.0308 -0.0101,0.1285 0.009,0.0619 -0.0821,0.0774 -0.59574,0.0381 -0.11268,0.0827 -0.0913,0.20588 0.0762,1.00148 -0.0303,0.19533 -0.13747,0.30884 -0.0556,0.23143 -0.0821,0.0772 -0.27033,0.45835 -0.50948,-0.19825 -0.47337,-0.17271 -0.21644,-0.15321 -0.28851,-0.20433 -0.20591,-0.0914 -0.0665,-0.0203 -0.27642,0.23747 -0.27644,0.23747 -0.20589,-0.0914 -0.0178,-0.0924 -0.15482,-0.16375 -0.47865,-0.2035 -0.16449,-0.0352 -0.45683,0.1097 -0.22093,0.004 -0.18029,-0.12769 -0.18031,-0.12771 -0.55452,0.0952 -0.62127,0.0751 -0.0973,-0.0147 -0.008,-0.0308 -0.11344,-0.10743 -0.33972,-0.13216 -0.20575,-0.0915 -0.20602,-0.0913 -0.22603,-0.0247 -0.32304,0.15028 -0.27654,0.23747 -0.24117,0.0727 -0.0307,0.008 -0.36439,0.0936 -0.31614,0.56128 -0.29677,0.30436 -0.0822,0.0772 -0.23503,0.29382 -0.0963,0.36512 -0.061,0.20063 0.29464,0.42519 0.13452,0.23064 0.0622,0.17956 -0.006,0.15929 0.008,0.25168 -0.0512,0.0722 -0.10744,0.11344 -0.25096,0.20139 -0.22535,0.16533 -0.19535,-0.0302 -0.30436,-0.29673 -0.0771,-0.082 -0.11869,-0.13824 -0.0414,-0.0561 -0.10455,-0.42597 -0.29823,-0.076 -0.30352,-0.10665 -0.73113,-0.38228 -0.25246,-0.17875 -0.2578,-0.20958 -0.11351,-0.1074 -0.45915,-0.46047 -0.0888,-0.3336 -0.14064,-0.45151 -0.13534,-0.42072 0.0303,-0.19534 0.002,-0.53941 -0.0374,-0.2156 -0.26295,-0.24038 -0.20672,-0.28171 0.0144,-0.28777 -0.004,-0.2209 -0.29378,-0.23508 -0.0827,-0.11268 -0.11869,-0.13823 -0.21726,-0.34328 -0.1292,-0.19986 0.0204,-0.0665 0.17356,-0.28332 0.14343,-0.0879 0.18489,-0.0307 0.0513,-0.0722 0.0864,-0.23672 -0.0374,-0.21555 -0.16006,-0.19456 -0.14954,-0.13294 -0.0374,-0.2156 -0.0519,-0.30809 0.0353,-0.16452 0.002,-0.19016 -0.27362,-0.30195 -0.35013,-0.19376 -0.0519,-0.3081 -0.0272,-0.34411 -0.004,-0.22089 -0.29908,-0.26591 -0.30959,-0.32749 -0.0413,-0.0561 -0.0679,-0.21036 0.10215,-0.14428 0.0247,-0.22613 -0.20589,-0.0913 -0.33962,-0.13215 -0.087,0.0464 -0.0307,0.008 -0.31929,-0.19903 -0.0987,-0.20511 -0.1961,-0.22013 -0.31931,-0.199 -0.5914,-0.12084 -0.1706,-0.25617 -0.1742,0.0931 -0.35383,0.15556 -0.0619,0.009 0.008,0.0307 -0.0307,0.008 -0.0307,0.008 -0.0252,0.0358 -0.30723,0.24273 -0.1074,0.11344 -0.4974,0.24352 -0.28698,0.17591 -0.25778,-0.20962 -0.0178,-0.0924 0.17439,-0.0932 -0.009,-0.0619 -0.21799,-0.53337 -0.4179,-0.40411 -0.13897,-0.0716 -0.75591,-0.15612 -0.63944,-0.58817 -0.036,-0.0251 -0.11963,-0.32829 -0.0178,-0.0924 -0.008,-0.0307 -0.008,-0.0307 -0.0678,-0.21035 -0.18196,-0.50785 -0.0178,-0.0924 -0.33067,-0.4507 -0.0465,-0.087 -0.0573,-0.14876 -0.0623,-0.1796 0.0969,-0.17506 0.27201,-0.0784 0.10295,0.0455 0.16459,0.0353 0.26666,-0.10908 0.087,-0.0466 0.0969,-0.17507 -0.009,-0.41093 -0.009,-0.0619 -0.0413,-0.2465 -0.003,-0.38018 0.17873,-0.25246 -0.0414,-0.0561 -0.15631,-0.54395 -0.0624,-0.17953 0.008,-0.31859 -0.0632,-0.36958 -0.18555,-0.15852 -0.0822,0.0773 -0.15387,0.0273 -0.2622,-0.05 -0.68166,-0.83458 0.18924,-0.19086 0.0607,-0.20062 -0.0877,-0.14351 -0.0465,-0.087 -0.0618,0.009 -0.44186,0.0132 -0.14343,0.088 -0.19536,-0.0302 -0.27875,-0.33279 -0.1135,-0.10743 -0.0204,-0.12328 -0.21271,-0.5026 -0.0465,-0.087 -0.008,-0.0308 -0.0623,-0.17952 -0.052,-0.11793 0.0457,-0.10297 0.0608,-0.20061 -0.22779,-0.4049 -0.37111,-0.317 -0.18566,-0.15848 -0.18039,-0.1277 -0.0988,-0.20509 -0.10385,-0.23588 -0.0622,-0.17956 -0.16006,-0.19457 -0.18029,-0.12769 -0.14428,-0.10215 -0.0924,0.0178 -0.14429,-0.10216 -0.0623,-0.17954 -0.088,-0.14348 0.0353,-0.16456 0.0204,-0.0666 -0.008,-0.0308 0.0513,-0.0722 -0.0308,-0.18492 -0.16531,-0.22537 -0.11872,-0.13822 -0.0827,-0.11269 -0.11873,-0.13823 -0.44409,-0.55815 -0.0827,-0.11266 -0.0169,-0.47261 0.10048,-0.52443 0.0194,-0.25697 -0.009,-0.0619 0.05,-0.26222 -0.008,-0.0307 -0.0204,-0.12332 -0.0414,-0.0561 -0.33508,-0.29142 -0.2059,-0.0913 -0.0518,-0.11794 -0.0679,-0.21036 0.0146,-0.0974 0.0662,-0.16984 -0.0178,-0.0924 -0.008,-0.0307 -0.20662,-0.28175 -0.17584,-0.28693 -0.0178,-0.0925 0.2043,-0.28855 0.27559,-0.42755 -0.0374,-0.21558 -0.0961,-0.93462 -0.0975,-0.0146 -0.16447,-0.0352 -0.3494,-10e-4 -0.12849,-0.01 -0.1382,0.11868 -0.44701,-0.0185 -0.0308,0.008 0.0148,-0.0974 0.23643,-1.21342 0.18409,-0.22169 0.0821,-0.0774 0.0457,-0.10286 0.0147,-0.0974 0.0304,-0.19537 -0.008,-0.0307 -0.0784,-0.27195 -0.14956,-0.13295 -0.18566,-0.1585 -0.50937,-0.19824 -0.2419,-0.11717 -0.2359,0.10363 -0.26677,0.1091 -0.0722,-0.0513 -0.26748,-0.0809 -0.0359,-0.0253 0.0204,-0.0666 0.0347,-0.35463 0.0607,-0.20062 -0.0204,-0.12328 -0.0722,-0.0513 -0.0771,-0.0821 -0.24716,-0.14797 -0.22251,-0.37411 -0.009,-0.0619 -0.0374,-0.21557 -0.18044,-0.12767 -0.036,-0.0251 -0.0359,-0.0253 -0.139,-0.0715 -0.36604,-0.28613 -0.13376,-0.0408 -0.16973,-0.066 -0.14872,0.0574 -0.41028,0.19694 -0.082,0.0773 -0.001,0.34935 -0.0143,0.28773 0.12475,0.35916 -0.01,0.12847 -0.0714,0.139 -0.22096,0.004 -0.0618,0.009 -0.0562,0.0414 -0.63471,0.55234 -0.27032,0.45835 -0.0303,0.19535 0.0307,0.18494 -0.097,0.17508 -0.14341,0.088 -0.11796,0.0517 -0.1539,0.0273 -0.15393,0.0273 -0.0618,0.009 -0.0617,0.009 -0.17872,0.25249 -0.0205,0.0666 0.0772,0.0821 -0.01,0.12847 -0.12249,0.21116 -0.35911,0.12474 -0.0308,0.008 -0.2155,0.0374 -0.28256,0.0164 -0.1329,0.14955 -0.11183,0.27271 -0.21564,0.0374 -0.0666,-0.0204 -0.21639,-0.15323 -0.21641,-0.15323 -0.28256,0.0164 -0.0924,0.0178 -0.0913,0.20589 0.009,0.0617 0.0772,0.0821 -0.0195,0.25692 -0.0661,0.16983 -0.17722,0.63265 -0.20432,0.28856 -0.16902,0.124 -0.57396,0.35173 -0.49201,0.27432 -0.22618,-0.0247 -0.32014,-0.38911 -0.0788,-0.46208 -0.0774,-0.0821 -0.39668,-0.2809 -0.54026,-0.19298 -0.2999,-0.456 -0.0518,-0.11795 -0.0933,-0.17427 -0.24715,-0.14796 -0.10289,-0.0456 -0.0684,-0.40044 -0.0178,-0.0924 -0.16458,-0.0351 -0.0974,-0.0146 -0.1488,0.0573 -0.17954,0.0623 -0.14343,0.0879 -0.17514,-0.0969 -0.16007,-0.19457 -0.0722,-0.0513 -0.17502,-0.0969 -0.0562,0.0413 -0.39957,0.2585 -0.0414,-0.0561 -0.0308,0.008 z"
       id="ID-2" />
  </g>
</svg>
