<?xml version="1.0" encoding="UTF-8" standalone="no"?>
<!-- Created with Inkscape (http://www.inkscape.org/) -->
<?xml-stylesheet type="text/css" href="/stylesheets/state.css" ?>
<svg
   xmlns:dc="http://purl.org/dc/elements/1.1/"
   xmlns:cc="http://creativecommons.org/ns#"
   xmlns:rdf="http://www.w3.org/1999/02/22-rdf-syntax-ns#"
   xmlns:svg="http://www.w3.org/2000/svg"
   xmlns="http://www.w3.org/2000/svg"
   xmlns:sodipodi="http://sodipodi.sourceforge.net/DTD/sodipodi-0.dtd"
   xmlns:inkscape="http://www.inkscape.org/namespaces/inkscape"
   width="100%"
   height="300px"
   viewBox="0 0 241.6776 141.74835"
   id="svg3885"
   version="1.1"
   inkscape:version="0.91 r"
   sodipodi:docname="0.svg">
  <defs
     id="defs3887" />
  <sodipodi:namedview
     id="base"
     pagecolor="#ffffff"
     bordercolor="#666666"
     borderopacity="1.0"
     inkscape:pageopacity="0.0"
     inkscape:pageshadow="2"
     inkscape:zoom="5.0127021"
     inkscape:cx="158.43354"
     inkscape:cy="83.999013"
     inkscape:document-units="px"
     inkscape:current-layer="layer1"
     showgrid="false"
     inkscape:window-width="2560"
     inkscape:window-height="1388"
     inkscape:window-x="0"
     inkscape:window-y="0"
     inkscape:window-maximized="1"
     fit-margin-top="1"
     fit-margin-left="1"
     fit-margin-right="1"
     fit-margin-bottom="1" />
  <metadata
     id="metadata3890">
    <rdf:RDF>
      <cc:Work
         rdf:about="">
        <dc:format>image/svg+xml</dc:format>
        <dc:type
           rdf:resource="http://purl.org/dc/dcmitype/StillImage" />
        <dc:title></dc:title>
      </cc:Work>
    </rdf:RDF>
  </metadata>
  <g
     inkscape:label="Layer 1"
     inkscape:groupmode="layer"
     id="layer1"
     transform="translate(-27.794082,-500.58023)">
    <path
       inkscape:connector-curvature="0"
       d="m 33.471801,504.41808 0.898849,0.061 0.191845,0.0132 6.387104,0.42671 2.743392,0.17705 0.923752,0.0698 0.730536,0.0451 3.811917,0.26557 2.835968,0.1543 2.882759,0.14887 3.240141,0.15433 0.932634,0.045 0.07316,0.015 3.694042,0.17239 1.877054,0.0887 2.333621,0.13014 0.481561,0.0502 0.443565,0.0313 0.393823,0.0131 2.095002,0.12252 0,0 0.167021,0.003 2.833116,0.13086 0.802228,0.0484 3.204989,0.15857 1.562504,0.0422 0.215197,0.0112 0.405645,0.0121 2.770387,0.10253 0.572468,0.0159 0.395311,0.0249 0.358767,0.0172 2.159812,0.0675 0.118712,-0.002 0.740863,0.0318 1.47004,0.0653 0.118713,-0.002 0.06,0.005 0.0718,0.004 0.08349,0.004 0.0587,-0.007 0.06,0.005 0.08357,0.004 0.03651,0.006 1.395481,0.0381 0.02491,0.0101 12.04857,0.34425 0.14346,0.007 3.05324,0.0811 0.94159,0.0202 1.57425,0.0408 1.03679,0.0208 0.0118,-9.4e-4 0.0469,-0.007 0.76433,0.0289 1.97978,0.0528 0,0 1.71771,0.048 0,0 4.87505,0.10501 0,0 4.31005,0.0524 3.9762,0.044 0.4408,0.008 0.57123,0.004 0.24905,-0.006 1.92739,0.0104 0.0118,-9.4e-4 2.68757,0.005 2.81806,0.002 0.025,0.01 1.10849,0.0243 0.0118,-9.4e-4 1.7343,-0.0133 4.14942,2.5e-4 0.0132,0.0104 0.82018,-0.002 3.29125,-0.0182 9.25416,-0.0646 0.17865,0.002 0.0236,-8.8e-4 0.66366,-0.0186 0.31042,0.011 0.98706,0.003 0.0119,-9.4e-4 1.83976,-0.0255 0.65471,0.006 2.5896,-0.0189 0.96234,-0.005 0.0118,-9.4e-4 1.11758,-5e-5 0.10681,-0.002 8.43746,-0.13508 1.03133,-0.0256 4.7095,-0.0896 5.9506,-0.15212 0.0118,-9.4e-4 0.20207,-0.002 0.20073,-0.0129 0.2138,-0.003 3.35333,-0.0966 4.931,-0.12745 1.44304,-0.0631 3.43546,-0.10599 6.50033,-0.22854 3.85764,-0.15601 0.14217,-0.004 1.85779,-0.0757 0.33107,-0.0158 9.4e-4,0.0118 0.3897,-0.0223 1.96336,-0.0877 0.1187,-0.002 1.75082,-0.0745 0.53319,-0.0156 0.0469,-0.007 0.17732,-0.009 2.14061,-0.0969 0.13038,-0.003 1.15896,-0.0527 1.5722,-0.0772 2.45725,-0.13407 1.10035,-0.0459 2.33993,-0.12039 0.696,-0.0461 0.0952,-1.5e-4 0.54365,-0.0276 1.05199,-0.0528 2.0557,-0.11071 0.0836,0.004 0.30623,-0.025 0.0717,0.004 0.59048,-0.0339 1.46387,-0.0887 0.22564,-0.004 3.8741,-0.21733 0.63748,-0.0391 2.76354,-0.15816 1.92391,-0.11931 2.33587,-0.15499 1.93428,-0.13202 4.43578,-0.29489 4.78756,-0.33646 0.0308,0.36489 0.0444,0.5774 0.007,0.0822 0.004,0.14218 0.007,0.0468 0.008,0.15376 0.007,0.0587 0.009,0.17731 0.007,0.0823 0.0129,0.20065 0.0468,0.60083 0.008,0.15379 0.0137,0.11731 0.0146,0.22412 0.0251,0.42502 0.007,0.0704 -0.005,0.0482 0.007,0.0467 0.009,0.17743 0.0185,0.0572 -0.005,0.0482 0.0314,0.47196 0.0839,1.11953 0.0249,0.30621 0.015,0.23605 0.0523,0.6478 0.0229,0.40145 0.0141,0.1291 0.0503,0.73121 0.0879,1.25003 0.0234,0.19932 0.009,0.16555 8.7e-4,0.0236 0.003,0.13048 0.006,0.0352 0.0132,0.21239 0.006,0.0351 0.0357,0.41191 0.0128,0.20066 0.006,0.0352 0.008,0.15377 9.3e-4,0.0118 0.0339,0.59048 0.007,0.0468 0.0197,0.16414 0.0164,0.24773 0.0426,0.56568 0.029,0.44838 0.0132,0.2125 0.015,0.23593 9.4e-4,0.0118 0.0148,0.14088 0.0146,0.22424 0.0241,0.50838 0.0197,0.16412 0.0661,0.76514 0.0129,0.2006 0.0125,0.20067 9.3e-4,0.0118 0.0189,0.15238 0.006,0.0352 0.0479,0.70774 0.0213,0.28286 0.0444,0.57737 0.006,0.0351 0.007,0.0467 -0.005,0.0601 0.0126,0.0937 0.007,0.0467 0.009,0.16562 0.0132,0.0104 0.006,0.0351 0.0556,0.8733 0.0468,0.60086 0.0124,0.20064 0,0 9.4e-4,0.0118 0.0349,0.40014 0.0245,0.41326 0.0218,0.29462 0.0257,0.31798 0.009,0.17742 8.8e-4,0.0236 8.8e-4,0.0236 0.0283,0.24635 -0.005,0.0483 0.0126,0.0937 0.0845,1.2265 0.0136,0.11733 0.006,0.0351 0.0297,0.46016 0.0282,0.34147 0.0433,0.67259 0.007,0.0823 0.0143,0.1291 0.0485,0.61252 0.17964,2.44002 0.0596,0.81329 0.0126,0.0938 0.0467,0.60086 0.032,0.48361 0.0148,0.14087 0.13469,1.64878 0.0718,0.81188 0.002,0.11869 0.0312,0.47187 0.01,0.18906 0.0407,0.7562 0.006,0.0351 0,0 0.007,0.0468 0.007,0.0587 0.10244,1.58105 -0.0118,9.4e-4 0.13724,1.98132 0.10241,1.47413 0.0176,0.35465 0.0203,0.2592 0.1576,2.25237 0.11686,1.80531 0.0355,0.60219 0.0768,1.15617 0.0493,0.6244 0.0578,0.89677 0.0274,0.32968 -0.005,0.0483 0.11609,1.49639 -0.004,0.0836 0.007,0.0822 0.0134,0.11731 0.006,0.035 -0.005,0.0601 0.088,1.35699 0.13329,1.74396 0.007,0.0821 0.0421,0.66091 0.0673,0.97884 0.0274,0.32978 -0.004,0.0718 0.0282,0.34154 0.007,0.0704 0.01,0.18908 0.013,0.10553 0.0176,0.35455 0.0126,0.0937 0.1083,1.62798 0.0691,1.09765 0.0234,0.19933 0,0 0.0251,0.42501 0,0 0.0229,0.40155 0.13801,2.08815 0.0679,0.77679 0.15095,2.1937 0.0126,0.0935 8.8e-4,0.0236 0.0132,0.21249 0.004,0.14219 0.13977,1.89773 0.0274,0.32967 0.14727,2.06334 0.0274,0.43664 0.0678,0.88375 0.0538,0.86159 0.17223,2.67871 0.0446,0.48218 0.048,0.70778 0.032,0.48364 0.0987,1.24867 0.12183,1.74533 0.0176,0.35453 0.17202,2.27447 -0.006,0.0365 0.003,0.1305 0.2157,3.35123 0.1338,1.54184 0.15105,1.78943 0.0212,0.28283 0.0126,0.0936 0.2609,3.33393 0.39778,5.41055 0.0129,0.20062 0.007,0.0585 0.0202,0.2593 0.0832,1.01268 5.1e-4,0.0951 0.009,0.26077 0.0805,0.78709 0.14507,1.94464 0.039,0.54232 0.0596,0.8134 0.0202,0.25916 0.2408,3.46719 0.1838,2.47518 8.7e-4,0.0236 0.23186,3.492 0.0186,0.0572 -0.36363,0.0426 -3.8362,0.23667 -3.22085,0.21225 -1.16792,0.0776 -0.0119,9.4e-4 -3.76579,0.22835 -0.0952,1.5e-4 -0.0221,0.0146 -1.2307,0.0502 -0.65944,0.0536 -0.10692,0.002 -5.0566,0.273 -0.0236,8.6e-4 -0.11732,0.0136 -0.26069,0.009 -1.02716,0.0614 -2.30202,0.13974 0,0 -3.32025,0.17589 -3.83893,0.21328 -0.63887,0.027 -5.04616,0.25989 -1.23069,0.0502 -0.0835,-0.004 -0.0102,0.0251 -0.27389,0.19861 -1.9281,0.0838 -3.16916,0.14648 -1.60871,0.0699 -5.1131,0.19648 -1.02995,0.0376 -6.34656,0.22249 -0.0835,-0.004 -0.17731,0.009 -0.29595,0.0107 -1.46947,0.0416 -0.0118,9.4e-4 -0.29597,0.0107 -0.91123,0.036 -0.48769,-0.002 -0.18907,0.01 -0.42149,-0.0455 -0.40427,-4.1e-4 -0.1683,-0.016 -2.97535,0.0759 -0.29595,0.0107 -0.42761,10e-4 -0.14217,0.004 -0.49812,0.011 -1.01822,0.0362 -1.80046,0.0565 -2.30892,0.081 -0.0236,8.8e-4 -2.83177,0.0831 -2.6207,0.0581 -0.60501,0.0114 -1.70808,0.0341 -0.0705,0.007 -2.97528,0.0759 -1.37411,0.0428 -0.0352,0.006 -0.23592,0.015 -0.13051,0.003 -0.22284,0.0263 -0.43049,-0.0209 -4.58808,0.11099 -1.30794,-2.9e-4 -0.24907,0.006 -0.86565,0.0186 -0.87748,0.0198 -0.36774,0.005 -3.49957,0.0663 -1.82804,0.0243 -2.13577,0.037 -0.10693,0.002 -0.38074,-0.004 -0.0351,0.006 -0.41182,-0.16557 -3.19331,0.0419 -0.11871,0.002 -1.32862,0.0253 -0.80705,0.0119 -0.11872,0.002 -0.0952,5.2e-4 -0.30906,-6.2e-4 -3.44982,0.0843 -1.78124,0.0188 -1.74451,0.0263 -0.95203,-0.008 -1.13207,-0.0217 -0.41588,2.8e-4 -2.38895,0.007 -0.12008,-0.009 0,0 0,0 -0.48768,-0.002 -0.0132,-0.0104 -1.67695,-0.005 -1.79298,0.22246 -1.7384,-0.0217 -0.75673,-0.0656 -0.35727,-0.007 -0.40842,-0.0353 -0.79949,0.1772 -1.70671,0.0456 -1.17891,-0.0162 -0.10555,0.013 -3.05805,-0.0209 -0.91125,-0.16642 -0.22068,-0.0574 -0.46219,-0.0883 -5.18488,-0.009 -0.22553,0.004 -0.0327,1.84674 0.007,0.0586 -0.0521,1.88464 -0.0175,3.29531 0.009,0.68848 -0.0177,1.66658 -0.006,1.16585 -0.002,0.17875 0.0752,4.08109 -0.13452,-0.0318 -0.13453,-0.0317 -0.50077,-0.21464 -0.0381,-0.0195 -0.0746,-0.0266 -0.0627,-0.0283 0,0 -0.0993,-0.0359 -0.20138,-0.0953 -0.23665,-0.0911 -0.16415,-0.18279 -0.16342,-0.48012 -0.0724,-0.51467 -9.4e-4,-0.0118 -0.32142,-0.30698 -0.14489,-0.0189 -0.18345,-0.14489 -0.0798,-0.27596 -0.0519,-0.13659 -0.13381,-0.12696 -0.24077,-0.12625 -0.47045,-0.15869 -0.10413,-0.17798 -0.006,-0.5581 0.0944,-0.30834 0.0538,-0.149 -0.42483,-0.5803 -0.14345,-0.20898 -0.20967,0.0365 -0.28144,-0.16902 0.17244,-0.35322 -0.0157,-0.0338 -0.10413,-0.17796 -0.0303,-0.0562 -9.4e-4,-0.0118 -0.0753,-0.13384 -0.31517,-0.55742 -0.53862,-0.63812 -0.34903,-0.13742 -0.14144,0.11178 -0.15037,-0.0658 0,0 -0.21445,-0.30769 0.0109,-0.10831 -0.16967,-0.22967 -0.0641,-0.04 -0.14277,-0.10204 -0.18221,0.069 -0.0759,0.16346 0.0668,0.0634 -0.0678,0.43597 -0.0291,0.15798 -0.31458,0.35803 -0.2015,-0.0954 -0.10412,-0.17806 -0.18005,-0.0146 -0.0119,9.4e-4 0,0 -0.10273,0.0356 -0.18218,0.0692 -0.28491,0.10469 -0.27322,0.10344 -0.10271,0.0356 -0.0635,0.0669 -0.0104,0.0132 -0.0199,0.13314 0.0132,0.0104 0.0882,0.34639 0.13656,0.15039 0.1883,0.0848 -0.006,0.0365 -0.0827,0.30698 -0.005,0.0483 -0.21728,0.27523 -0.15531,0.19658 -0.093,0.11797 -0.18636,0.23583 -0.049,0.089 -0.29402,0.53386 -0.091,0.23663 0.0234,0.19931 0.007,0.0587 0.0912,0.36971 0.32968,0.3774 0.20756,0.2491 0.31799,0.17661 0.14005,0.0786 0.0253,0.21098 -0.0829,0.10486 -0.58156,0.009 -0.34762,-0.12559 -0.12073,-0.1166 -0.44621,-0.2567 -0.20564,0.0716 -0.12141,-0.0213 -0.22621,-0.10421 -0.20137,-0.0953 -0.0382,-0.0195 -0.11453,0.0371 -0.20211,0.20206 0,0 -0.25735,0.13725 -0.0118,9.4e-4 -0.0497,-0.0181 -0.39185,-0.0967 -0.0849,-0.0137 -0.23251,-0.056 -0.58772,-0.1449 -0.0717,-0.004 -0.3822,-0.0147 -0.11043,0.27455 -0.12006,0.19244 -0.0952,1.7e-4 -0.20208,0.002 -0.11871,0.002 -0.0236,8.8e-4 -0.18347,0.0572 -0.26218,0.19723 -0.0594,0.10211 -0.11307,0.0489 -0.79478,0.31931 -0.0316,0.13441 -0.27871,0.0565 -0.16553,-0.19462 -0.24696,-0.28011 -0.12892,-0.3891 -0.15036,-0.26771 -0.16209,-0.26627 -0.10277,-0.16626 -0.34285,0.0162 -0.14555,0.0764 -0.17934,0.0925 -0.33394,-0.01 -0.55942,-0.006 -0.0284,0.063 -0.0448,0.12408 -0.24427,0.14759 0,0 -0.12074,0.0856 -0.23382,0.13441 -0.29321,0.0343 -0.36907,-0.20623 -0.38417,-0.1333 -0.0463,0.11247 0.0158,0.14079 -0.0587,0.20904 -0.32558,-0.14016 -0.17116,-0.0393 -0.14623,-0.0304 -0.23794,0.0992 -0.25116,0.089 -0.0716,0.19872 -0.11172,0.0607 -0.0952,1.5e-4 -0.37176,-0.22981 -0.073,-0.21725 -0.14279,-0.10213 -0.56626,-0.0643 -0.31676,0.23928 -0.0848,-0.0136 -0.74914,-0.30437 -0.15105,-0.17248 0.0525,-0.1607 -0.0613,-0.21865 -0.24481,-0.16154 -0.10833,-0.0109 -0.21802,-0.0338 -0.54489,0.0168 -0.0766,0.0567 -0.365,0.23309 -0.0531,0.0537 -0.0634,0.067 -0.0374,0.0875 9.3e-4,0.0118 -0.009,0.0251 0.003,0.11856 -0.001,0.0836 -0.08692,0.0695 -0.594631,-0.002 -0.120751,0.0855 -0.09651,0.18975 0.0232,1.00779 -0.04835,0.19596 -0.129731,0.31247 -0.08206,0.21173 -0.07249,0.0919 -0.316768,0.44137 -0.502138,-0.22635 -0.462839,-0.19523 -0.19794,-0.16706 -0.288326,-0.22761 -0.189666,-0.0965 -0.07581,-0.0385 -0.280213,0.24687 -0.271142,0.22206 -0.226205,-0.10423 -0.01245,-0.10547 -0.126248,-0.16358 -0.468357,-0.24222 -0.169683,-0.0277 -0.464949,0.0903 -0.215291,-0.009 -0.184833,-0.15661 -0.157264,-0.1242 -0.576063,0.0555 -0.622901,0.0613 -0.07444,-0.0268 -0.02768,-0.0326 -0.0958,-0.10768 -0.326942,-0.1518 -0.18977,-0.0965 -0.214485,-0.1056 -0.23103,-0.0442 -0.329136,0.13382 -0.282863,0.22341 -0.255278,0.0539 -0.03381,0.0157 -0.371187,0.0793 -0.342168,0.52773 -0.2877,0.28341 -0.09593,0.0944 -0.253907,0.26766 -0.122848,0.37106 -0.05111,0.17245 0.26625,0.44426 0.112343,0.24839 0.06902,0.18219 -0.01734,0.15659 -0.0076,0.23862 -0.01033,0.0132 0.0014,0.0118 -0.05307,0.0538 -0.0932,0.11789 -0.263555,0.18551 -0.242869,0.15932 -0.208969,-0.0588 -0.273158,-0.3008 -0.08271,-0.0972 -0.09728,-0.11934 -0.05518,-0.065 -0.07579,-0.44287 -0.284904,-0.0973 -0.311091,-0.11799 -0.702922,-0.41674 -0.23723,-0.19808 -0.238694,-0.20968 0,0 -0.119252,-0.10489 -0.4256,-0.48507 -0.08822,-0.34627 -0.112423,-0.45045 -0.109577,-0.42707 0.02209,-0.21664 0.04633,-0.51662 -0.01581,-0.23598 -0.255832,-0.2553 -0.186893,-0.27527 0.01381,-0.28696 0.0076,-0.23862 -0.26765,-0.25391 -0.09443,-0.0961 -0.08833,-0.14419 -0.221359,-0.36637 -0.118553,-0.20003 0.02824,-0.063 0.183505,-0.25928 0.166242,-0.10277 0.176012,-0.0205 0.06346,-0.0668 0.0911,-0.23664 -0.0365,-0.20967 -0.142099,-0.19738 -0.126235,-0.16347 -0.04686,-0.19658 -0.02684,-0.32973 0.05526,-0.13727 0.0013,-0.19047 -0.265569,-0.33732 -0.319364,-0.18842 -0.04891,-0.31526 -0.0061,-0.35592 -0.0012,-0.21389 -0.282123,-0.27598 -0.303493,-0.35673 -0.04342,-0.0662 -0.04826,-0.2084 0.128342,-0.12201 0.009,-0.227 -0.180701,-0.12144 -0.347631,-0.1256 -0.06767,0.0317 -0.04551,0.0171 -0.301422,-0.23796 -0.08202,-0.19256 -0.206301,-0.23734 -0.0014,-0.0118 -0.29729,-0.20279 -0.57729,-0.15812 -0.160702,-0.2546 0,0 -0.01171,9.4e-4 -0.182188,0.0691 -0.35111,0.14819 -0.04551,0.0171 -0.01043,0.0132 -0.03379,0.0159 -0.01171,9.3e-4 -0.04412,0.0289 -0.331221,0.21722 -0.0931,0.11797 -0.508487,0.22616 -0.31594,0.14415 0,0 -0.238705,-0.20978 -0.01265,-0.10556 0.167727,-0.091 0.0078,-0.0367 -0.171692,-0.55044 -0.0262,-0.0208 -0.382168,-0.41878 -0.139927,-0.0785 -0.75741,-0.17262 -0.610432,-0.64167 -0.01448,-0.0221 -0.01309,-0.0104 -0.08558,-0.32294 -0.02412,-0.10409 -0.0014,-0.0118 -0.0039,-0.0352 -0.01171,9.3e-4 -0.05101,-0.23173 -0.142663,-0.50643 -0.02147,-0.0805 0,0 -0.306829,-0.48714 -0.0331,-0.0796 -0.04282,-0.16141 -0.0572,-0.1835 0.08767,-0.16483 0.280098,-0.0446 0.112455,0.0462 0.146251,0.0307 0.296639,-0.10616 0.07929,-0.0331 0.109728,-0.17933 1e-5,-0.40427 -0.0053,-0.0468 -0.02887,-0.24631 0.01324,-0.39392 0.199354,-0.2255 0,0 -0.0014,-0.0118 -0.01723,-0.0454 -0.0028,-0.0236 -0.146773,-0.54147 -0.0455,-0.18497 0.02413,-0.30007 -0.04408,-0.37522 -0.162784,-0.17117 -0.08834,0.0579 -0.175912,0.0205 -0.232423,-0.056 -0.660041,-0.86168 0.191763,-0.18894 0.09524,-0.2015 -0.07515,-0.13384 -0.058,-0.0883 -0.06,-0.005 -0.429089,-0.01 -0.170374,0.0676 -0.169693,-0.0278 -0.290385,-0.34628 -0.0842,-0.10904 -0.03721,-0.11451 0,0 -0.182045,-0.53744 -0.02274,-0.0922 -0.01309,-0.0104 -0.05721,-0.18358 -0.03996,-0.13797 0.03585,-0.0991 0.07182,-0.19873 -0.178608,-0.40705 -0.372421,-0.33665 -0.184834,-0.15659 -0.161404,-0.15945 -0.09523,-0.20279 -0.09924,-0.23804 -0.04412,-0.17313 -0.130366,-0.19867 -0.171748,-0.14636 -0.166219,-0.0993 -0.08227,0.007 -0.122105,-0.12833 -0.06755,-0.17047 -0.06615,-0.15868 0.01585,-0.16832 0.01172,-9.4e-4 0.01794,-0.0497 0.01033,-0.0132 0.01034,-0.0132 0.027,-0.0747 -0.0014,-0.0118 -0.01031,-0.18898 -0.156571,-0.21944 -0.100052,-0.14282 -0.09719,-0.11936 -0.101416,-0.15451 -0.413076,-0.5816 -0.06212,-0.12348 -0.0053,-0.45116 0.115265,-0.5367 0.03104,-0.24139 0.0064,-0.0483 0.05045,-0.2794 -0.0014,-0.0118 -0.01529,-0.12902 -0.01999,-0.0688 -0.308316,-0.29667 -0.204142,-0.11869 -0.07387,-0.12212 -0.04826,-0.20838 0.03733,-0.0875 0.06138,-0.18552 -0.01076,-0.0937 -0.0014,-0.0118 -0.191023,-0.31045 -0.163453,-0.27802 -0.01076,-0.0938 0.215994,-0.28695 0.295985,-0.41518 -0.01301,-0.21251 -0.06047,-0.92026 -0.09936,-0.036 -0.137272,-0.055 -0.370388,-0.0159 -0.118713,0.002 -0.132472,0.0869 -0.456654,-0.0414 -0.04692,0.007 0.02561,-0.0863 0.323719,-1.1913 0.177293,-0.21102 0.07387,-0.0802 0.0607,-0.0904 0.03456,-0.11109 0.02345,-0.20494 -0.0028,-0.0236 -0.06823,-0.27733 -0.122105,-0.12832 -0.187587,-0.18006 -0.490419,-0.22771 -0.251122,-0.11319 -0.229077,0.0745 -0.262852,0.0902 -0.07581,-0.0386 -0.262839,-0.11181 -0.02483,-0.01 0.0035,-0.0718 0.05389,-0.35111 0.08352,-0.20009 -0.02549,-0.11583 -0.05664,-0.0766 -0.09029,-0.0609 -0.221468,-0.1642 -0.200673,-0.39258 -0.0053,-0.0468 -0.05237,-0.24354 -0.157266,-0.12421 -0.02619,-0.0208 -0.05239,-0.0414 -0.116595,-0.0814 -0.365538,-0.27804 -0.138658,-0.0668 -0.150368,-0.0656 -0.148315,0.0531 -0.433233,0.15792 -0.0725,0.0918 -0.04494,0.32639 7.6e-4,0.30904 0.100011,0.34488 -0.02147,0.12143 -0.08895,0.15312 -0.203564,-0.0119 -0.08348,-0.004 -0.05456,0.0421 -0.65269,0.51657 -0.293219,0.43868 -0.03518,0.20623 0.01165,0.2007 -0.09938,0.16623 -0.14693,0.0649 -0.136602,0.0518 -0.15237,0.0189 -0.153781,0.008 -0.0587,0.007 -0.07038,0.007 -0.193932,0.27249 -0.01794,0.0497 0.07102,0.0987 -0.01105,0.10821 -0.140745,0.21873 -0.344893,0.0999 -0.04691,0.007 -0.200621,0.0128 -0.295948,0.0107 -0.135922,0.15863 -0.137999,0.24208 -0.222854,0.0263 -0.03931,-0.0312 -0.208272,-0.15385 -0.220091,-0.15244 -0.273778,-0.002 -0.118714,0.002 -0.09248,0.22494 0.02894,0.0441 0.04617,0.0898 -0.0061,0.25043 -0.07458,0.17518 -0.237396,0.61047 -0.193846,0.27238 -0.173929,0.13937 -0.595347,0.29586 -0.504256,0.26133 -0.241474,-0.031 -0.286938,-0.41808 -0.07857,-0.46642 -0.05515,-0.0648 -0.380107,-0.30011 -0.525579,-0.22361 -0.271669,-0.49124 -0.05939,-0.10012 -0.09237,-0.17934 -0.224221,-0.18761 -0.112365,-0.0462 -0.04546,-0.38704 -0.01255,-0.10546 -0.147625,-0.0422 -0.109697,-0.0227 -0.148315,0.053 -0.182095,0.069 -0.158762,0.0661 -0.155789,-0.11249 -0.166902,-0.20622 -0.05388,-0.0532 -0.16485,-0.0877 -0.05444,0.0422 -0.413255,0.22685 -0.171737,-0.14625 -0.01309,-0.0104 0.04622,-0.51671 -0.0039,-0.0351 0.08767,-0.16484 0.115234,-0.13246 0.113859,-0.14417 0,0 0.113856,-0.14416 -0.11657,-0.28352 -0.17656,-0.0861 -0.173104,-0.36019 0.0056,-0.1552 0.05181,-0.0656 0.480818,-0.25856 0.0324,-0.0275 0.12626,-0.0386 0.05112,0.0297 0.0903,0.0608 0.303636,-0.24974 0.16902,-0.28144 0.136098,-0.96708 -0.03513,-0.19805 -0.069,-0.1821 -0.03721,-0.11453 -0.01586,-0.0337 -0.0014,-0.0118 -0.01171,9.4e-4 -0.08005,-0.0736 -0.490396,-0.42983 -0.196543,-0.3574 -0.212378,-0.39109 -0.138638,-0.26905 0.07597,-0.16348 0.146262,-0.17174 0.222185,-0.13312 0.647213,-0.96773 0.02965,-0.0512 -0.04479,-0.0779 -0.03031,-0.0558 0.0033,-0.0719 0.05515,-0.13728 0.115234,-0.13244 0.210479,-0.13165 0.203464,0.012 0.09521,-1.6e-4 0.262156,0.003 0.298027,-0.0944 0.142802,-0.10005 0.501455,0.1194 0.264217,0.12351 0,0 0.430537,-0.78771 0.02838,-0.0628 0.02896,-0.15796 -0.0014,-0.0118 -0.0014,-0.0118 -0.0014,-0.0118 -0.0014,-0.0118 -0.0317,-0.0679 -0.102112,-0.26149 -0.0014,-0.0118 -0.173811,-0.0628 -0.169666,-0.22977 -0.319902,-0.69955 0.0033,-0.0719 0.226348,-0.29997 0.02344,-0.20492 -0.07855,-0.46634 -0.109697,-0.22493 -0.166902,-0.20622 -0.01585,-0.0337 -0.249743,-0.10147 -0.261361,-0.10005 -0.06282,-0.0282 -0.113048,-0.15325 -0.0028,-0.0236 5.7e-5,-0.20208 0.01793,-0.0498 0.0642,-0.16221 0.01171,-9.4e-4 -0.01309,-0.0104 -0.09107,-0.36969 -0.01309,-0.0104 0,0 -0.106928,0.002 -0.09167,-0.0726 -0.03996,-0.13799 -0.01796,-0.15246 0.05655,-0.12555 0.269768,-0.23376 0.206334,-0.16692 -0.0014,-0.0118 0.01171,-9.4e-4 0.02549,-0.0865 0.124222,-0.35936 0.06079,-0.49455 -0.0028,-0.0236 -0.0014,-0.0118 -0.03032,-0.0558 -0.08833,-0.1442 -0.0014,-0.0118 -0.133032,-0.2222 -0.264908,-0.0284 0,0 -0.01309,-0.0104 0,0 -0.02482,-0.01 -0.0131,-0.0104 -0.243542,-0.14981 -0.344168,-0.19728 -0.07647,-0.54984 -0.0053,-0.0468 0,0 0.256001,-0.55325 0.01792,-0.0498 0.346946,0.0187 0.14349,0.006 0.215267,0.21254 0.102715,-0.0358 0,0 0.30777,-0.21456 0.239328,-0.0875 0.09403,-0.81949 -0.01436,-0.22424 -0.0068,-0.2608 -0.05642,-0.48079 -0.0386,-0.12626 -0.05112,-0.0297 -0.260668,-0.19531 -0.0076,-0.36764 -0.0062,-0.15381 0.111102,-0.16761 0.235261,0.0793 0.228978,-0.0744 0.122129,-0.0738 0.168324,-0.18621 0.04631,-0.11246 -0.131041,-0.50779 0.04217,-0.14762 0.136626,-0.25378 0.146956,-0.26696 0.098,-0.17796 0.09735,-0.68917 -0.009,-0.17727 -0.187553,-0.5843 0.279528,-0.35382 0.244148,-0.14761 0.154525,-0.1014 0.01181,-9.4e-4 0.07654,-0.0565 0.161573,-0.6491 0,0 0.0455,-0.2194 -0.02335,-0.40151 -0.0095,-0.082 -0.0572,-0.18347 -0.01171,9.4e-4 -0.0014,-0.0119 -0.213096,-0.0939 -0.0966,-0.21459 -0.02188,-0.5919 -0.0028,-0.0236 0.01171,-9.4e-4 0.03859,-0.0758 0.01033,-0.0132 0,0 0.01171,-9.3e-4 0.09249,-0.0225 0.17591,-0.0205 0.162103,0.0643 0.01171,-9.4e-4 0.02482,0.01 0.01171,-9.4e-4 0.01171,-9.4e-4 0.312587,-0.0726 0.133839,-0.0753 0,0 0.01172,-9.4e-4 0.200049,-0.32072 -0.07652,-0.14556 -0.05169,-0.13662 0.0096,-0.12003 0.09528,-0.40348 0.04965,-0.18414 0.07663,-0.25873 0.165571,-0.20965 0.01103,-0.10832 0.005,-0.0601 -0.0039,-0.0352 -0.03585,-0.10282 -0.01796,-0.15244 0.03458,-0.111 0.247034,-0.52844 0.01315,-0.39382 0.02428,-0.50228 0.0462,-0.11244 -0.0703,-0.19381 -0.155184,-0.20762 -0.08904,-0.0491 -0.36623,-0.18283 -0.07444,-0.0268 -0.328411,0.0388 -0.328312,0.0387 -0.185551,0.14071 -0.148322,0.053 -0.249729,-0.10135 -0.583637,0.2944 -0.03251,0.22977 -0.255295,0.25583 -0.374526,-0.0513 -0.220089,-0.15245 -0.220689,-0.0574 -0.330403,-0.0802 -0.403571,-0.0953 -0.28009,0.0447 -0.436694,0.22959 -0.178643,-0.002 -0.01172,9.4e-4 -0.03793,-0.0194 -0.13866,-0.0669 -0.240777,-0.12627 -0.01395,-0.11729 0.09456,-0.10614 -0.04826,-0.20838 -0.129684,-0.0916 -0.267679,-0.052 -0.05994,-0.20692 -0.0572,-0.18358 0.02622,-0.1814 0.200021,-0.11866 0.178766,-0.19931 0.06631,-0.44769 -0.102797,-0.16624 -0.1166,-0.0815 -0.238583,-0.41186 -0.05791,-0.0883 -0.467685,-0.13534 -0.02492,-0.01 -0.02481,-0.01 -0.122797,-0.0331 -0.259982,-0.0883 -0.04561,0.0171 -0.04759,0.10066 -0.06559,0.15039 -0.146285,0.37381 -0.0648,0.0552 0.0014,0.0118 0,0 -0.273891,-0.002 -0.253888,0.0657 -0.160061,0.25653 -0.027,0.0747 -0.06346,0.0668 -0.190367,-10e-4 -0.09512,5e-4 -0.371728,-0.43187 0,0 -0.02137,-0.0807 0.110421,-0.27453 0.01171,-9.4e-4 0.06413,-0.16209 0.01034,-0.0132 0,0 0.08078,-0.0213 0.03512,-0.006 0.131789,-0.19381 0.04976,-0.18415 0.029,-0.36014 0,0 0,0 -0.379985,-0.50219 -0.07236,-0.11044 -0.358071,-0.11248 -0.187681,0.0213 -0.20898,-0.0589 -0.124167,-0.24702 -0.166219,-0.0993 -0.215166,-0.21257 -0.05939,-0.1 -0.0014,-0.0118 -0.0095,-0.082 -8.13e-4,-0.10694 0,0 -0.05378,-0.0533 -0.01171,9.4e-4 -0.187679,0.0213 -0.129091,0.0143 -0.145561,0.0765 -0.182077,-0.13314 -0.116581,-0.28355 -0.303513,-0.15464 -0.121305,-0.22346 -0.0028,-0.0236 -0.0028,-0.0237 -0.0014,-0.0118 -8.14e-4,-0.10684 0.005,-0.0601 0.104802,-0.11926 -0.09514,-0.20288 -0.219309,-0.0456 -0.131075,-0.10351 0.09109,-0.23664 0.09099,-0.0344 0.153851,-0.20826 0.01871,-0.14487 -0.04422,-0.17314 -0.04341,-0.26834 0.0332,-0.12284 0.152473,-0.21998 0.02137,-0.12142 -0.04136,-0.14969 -0.0014,-0.0118 -0.202766,-0.10696 -0.164853,-0.0877 -0.192523,-0.12006 -0.01309,-0.0104 -0.06825,-0.0751 -0.128991,-0.18693 -0.270988,-0.38431 -0.225588,-0.40152 -0.03033,-0.056 -0.0022,-0.11865 -0.514552,-0.12976 -0.01657,0.0614 -0.05456,0.0421 -0.316577,0.0375 -0.02757,-0.0323 -0.03721,-0.11453 -0.08821,-0.34629 -0.163457,-0.27803 -0.01031,-0.18897 -0.02694,-0.32982 -0.01301,-0.21243 -0.03446,-0.0913 -0.132428,-0.31732 -0.0014,-0.0118 -0.03033,-0.0561 0,0 -0.08339,-0.20415 -0.191146,-0.10835 -0.08964,0.0461 -0.09038,-0.0607 -0.244796,-0.36362 -0.0897,-0.15592 -0.03031,-0.0559 -0.0014,-0.0118 -0.150359,-0.26769 -0.04551,-0.18495 -0.004,-0.23724 -0.559346,-0.40993 -0.03377,-0.18625 -0.288997,-0.53676 -0.194481,-0.23873 -0.285572,-0.20418 -0.142794,-0.10213 -0.121316,-0.0213 -0.2663,-0.0403 -0.07522,-0.13385 -0.105454,-0.18967 -0.01722,-0.0454 0.0084,-0.33393 -0.106827,-0.20142 -0.472611,-0.0753 -0.02483,-0.01 -0.192422,-0.12005 -0.04964,-0.018 0.0042,-0.16693 0.116632,-0.3228 0.08145,-0.1166 -0.03724,-0.31662 -0.06212,-0.12349 -0.160018,-0.14765 -0.08348,-0.004 -0.0959,-0.10766 -0.11786,-0.29524 -0.01596,-0.0338 -0.0137,-0.31939 -0.234562,-0.17453 -0.210996,0.0253 -0.177417,0.009 -0.125465,-0.0565 -0.109003,-0.118 -0.1305,0.003 -0.489051,-0.0139 -0.131762,-0.008 -0.193105,-0.22702 -0.0153,-0.129 -0.103502,-0.0711 -0.294624,0.0221 -0.253187,-0.0295 -0.251702,-0.22014 -0.315917,-0.058 -0.166231,-0.0994 -0.294551,-0.17948 -0.266262,-0.24206 -0.02137,-0.0807 -0.0014,-0.0118 -0.06272,-0.23047 -0.09246,-0.17934 -0.195165,-0.3457 -0.0014,-0.0118 -0.0062,-0.15383 -0.0033,-0.3325 -0.0959,-0.10763 -0.168303,-0.016 -0.106255,-0.0947 -0.09511,-0.20278 -0.03585,-0.10283 -0.06558,-0.0517 -0.337968,-0.24564 -0.02759,-0.0326 -0.129683,-0.0916 -0.150379,-0.0657 -0.325589,0.0619 -0.104202,0.0239 0,0 -0.09442,-0.096 -0.0642,-0.24215 -0.154387,-0.30286 -0.611832,-0.45131 -0.368412,-0.0994 -0.154514,-0.10071 -0.03308,-0.0794 -0.01448,-0.0222 -0.02759,-0.0324 -0.107619,-0.10616 -0.0386,-0.12627 0.06837,-0.329 0.128328,-0.12214 0.09593,-0.0944 0.489769,-0.0812 0.245613,0.0662 0.171059,0.0393 0.135229,-0.0635 0.131788,-0.19382 0.07101,-0.10347 0.04421,-0.23115 -0.04202,-0.0546 -0.01309,-0.0104 -0.08763,-0.0372 -0.400121,-0.16705 -0.08755,-0.0372 -0.115881,-0.37876 -0.08685,-0.13249 -0.0448,-0.078 -0.03043,-0.0561 -0.08823,-0.14417 -0.0067,-0.0586 -0.0028,-0.0236 0.005,-0.0601 0.0028,-0.17866 -0.0076,-0.16553 -0.117872,-0.0932 -0.06281,-0.0281 -0.03793,-0.0195 -0.350391,-0.14911 -0.111766,-0.14144 -0.0036,-0.13028 -0.0039,-0.0353 0.03932,-0.17106 0.258744,-0.3276 0.269866,-0.23379 0.284131,-0.01 0.358128,-0.49385 -0.02323,-0.6036 -0.01165,-0.2008 -0.255222,-0.35043 -0.122811,-0.0331 -0.272376,-0.19385 -0.101405,-0.35671 0.124904,-0.25238 0.09248,-0.22494 0.01518,-0.0732 0.06631,-0.44771 0.01725,-0.15657 -0.0014,-0.0118 -0.0014,-0.0118 -0.108214,-0.21322 -0.389757,-0.38224 -0.115107,-0.0696 -0.101455,0.0474 -0.156583,-0.0174 -0.08007,-0.0738 -0.1151,-0.27181 0.02,-0.13315 0.06354,-0.26906 -0.114523,-0.16487 -0.184136,-0.25183 -0.122798,-0.0331 -0.160036,0.0544 -0.249757,0.10066 -0.13235,-0.11525 -0.05316,-0.14831 0.01665,-0.26353 -0.02826,-0.13937 -0.05316,-0.1483 -0.124762,-0.1518 0.02695,-0.68087 0.06422,-0.16211 -0.102769,-0.36833 -0.335212,-0.22219 -0.05859,-0.19532 -0.01723,-0.0454 -0.105552,-0.18967 -0.373176,0.16264 -0.08144,-0.0854 -0.02619,-0.0208 -0.159322,-0.24288 -0.05792,-0.0884 -0.109673,-0.22484 -0.175758,-0.38362 -0.0504,-0.12487 -0.01448,-0.0222 -0.02757,-0.0326 -0.02758,-0.0323 -0.168279,-0.21794 -0.04342,-0.0664 -0.08281,-0.0971 -0.07647,-0.34774 -0.06067,-0.1118 -0.258701,-0.0766 -0.189656,-0.29881 -0.01301,-0.21243 -0.05306,-0.14831 -0.145537,-0.32778 -0.04616,-0.0897 -0.118665,-0.20013 -0.07377,-0.12211 -0.163454,-0.27804 -0.149689,0.0412 -0.03941,-0.0312 -0.06826,-0.0751 -0.06686,-0.0635 -0.0131,-0.0104 0.04419,-0.63527 0.122476,-1.69077 -0.0014,-0.0119 0.0013,-0.19037 0.02414,-0.30007 0.02014,-0.33523 0.07189,-1.00717 0.07466,-1.1858 0.08925,-1.36585 0.04429,-0.63528 0.03036,-0.34844 0.02148,-0.32353 0.02623,-0.38356 0.08017,-0.93677 -0.0067,-0.0586 0.04356,-0.54017 0.118359,-1.92808 0.02832,-0.46697 0.04703,-0.61187 0.0056,-0.15522 0.09061,-1.15205 0.03799,-0.58703 0.07406,-1.09058 0.15561,-2.21782 0.01174,-0.20355 0.365856,-5.28617 0.37197,-5.33444"
       id="MT-0" />
  </g>
</svg>
