<?xml version="1.0" encoding="UTF-8" standalone="no"?>
<!-- Created with Inkscape (http://www.inkscape.org/) -->
<?xml-stylesheet type="text/css" href="/stylesheets/state.css" ?>
<svg
   xmlns:dc="http://purl.org/dc/elements/1.1/"
   xmlns:cc="http://creativecommons.org/ns#"
   xmlns:rdf="http://www.w3.org/1999/02/22-rdf-syntax-ns#"
   xmlns:svg="http://www.w3.org/2000/svg"
   xmlns="http://www.w3.org/2000/svg"
   xmlns:sodipodi="http://sodipodi.sourceforge.net/DTD/sodipodi-0.dtd"
   xmlns:inkscape="http://www.inkscape.org/namespaces/inkscape"
   width="100%"
   height="300px"
   viewBox="0 0 147.68654 88.175835"
   id="svg3885"
   version="1.1"
   inkscape:version="0.91 r"
   sodipodi:docname="ND.svg">
  <defs
     id="defs3887" />
  <sodipodi:namedview
     id="base"
     pagecolor="#ffffff"
     bordercolor="#666666"
     borderopacity="1.0"
     inkscape:pageopacity="0.0"
     inkscape:pageshadow="2"
     inkscape:zoom="5.0127021"
     inkscape:cx="114.13911"
     inkscape:cy="54.735835"
     inkscape:document-units="px"
     inkscape:current-layer="layer1"
     showgrid="false"
     inkscape:window-width="1920"
     inkscape:window-height="1028"
     inkscape:window-x="0"
     inkscape:window-y="0"
     inkscape:window-maximized="1"
     fit-margin-top="0"
     fit-margin-left="0"
     fit-margin-right="0"
     fit-margin-bottom="0" />
  <metadata
     id="metadata3890">
    <rdf:RDF>
      <cc:Work
         rdf:about="">
        <dc:format>image/svg+xml</dc:format>
        <dc:type
           rdf:resource="http://purl.org/dc/dcmitype/StillImage" />
        <dc:title></dc:title>
      </cc:Work>
    </rdf:RDF>
  </metadata>
  <g
     inkscape:label="Layer 1"
     inkscape:groupmode="layer"
     id="layer1"
     transform="translate(-72.487504,-524.88958)">
    <path
       inkscape:connector-curvature="0"
       d="m 199.84145,525.23445 0.2597,-0.0136 0.40132,-0.0146 3.01036,-0.11547 -0.0464,0.10663 2.5e-4,0.0354 0.0118,0.0236 0.0122,0.0473 -0.0114,0.059 -0.035,0.0476 -0.0119,0.0119 -0.0118,0.0118 -0.0464,0.0948 -0.0232,0.071 8e-5,0.0118 0.0126,0.12981 5.8e-4,0.0826 3.2e-4,0.0473 -0.0108,0.14178 0.0122,0.059 0.024,0.0354 0.0118,-10e-5 0,0 0.0473,0.0114 0.0354,0.0232 0.024,0.0355 0.0122,0.0472 3.2e-4,0.0472 9e-5,0.0118 8e-5,0.0119 1.6e-4,0.0236 9e-5,0.0118 -0.0224,0.18907 0.0122,0.0472 0.0594,0.0587 0,0 0.0118,0.0118 0.0118,0.0118 0.0123,0.0472 8e-5,0.0118 0.0119,0.0236 0.0126,0.11802 0.0362,0.11785 8e-5,0.0118 0.0712,0.0469 0.0355,0.0114 0.024,0.0589 0.0122,0.059 -0.0349,0.0831 5.7e-4,0.0827 0.024,0.059 0.0949,0.0464 0.0358,0.0351 0.0124,0.0826 -0.0228,0.11826 8e-5,0.0118 1.6e-4,0.0236 8e-5,0.0118 0,0 0.0362,0.0941 8e-5,0.0118 0.0118,-8e-5 0.0476,0.0468 0.1658,0.0697 0.0241,0.0471 8.3e-4,0.11809 -0.0233,0.0472 0,0 -0.0114,0.0354 8e-5,0.0119 0.0118,0.0118 0.0119,0.0236 8e-5,0.0118 0.024,0.059 2.5e-4,0.0355 0,0 1.6e-4,0.0236 -0.0114,0.0708 0.0122,0.0591 0.0358,0.035 0.10694,0.0936 0.059,0.0233 0.024,0.0353 0.0122,0.0354 -0.0228,0.10646 9e-5,0.0118 9e-5,0.0118 3.3e-4,0.0472 0.0358,0.0351 0.0473,0.0232 0,0 0.0118,-9e-5 0.0476,0.0586 0.0244,0.12974 0.0717,0.1058 6.8e-4,0.0944 -0.0114,0.0355 0,0 -0.0118,0.0236 2.4e-4,0.0354 0.024,0.047 0.0358,0.0587 5.6e-4,0.0826 0.0122,0.0473 -0.0118,0.0118 0,0 8e-5,0.0118 -0.0118,0.0236 -0.0118,0.0118 0,0 -0.0823,0.0595 -0.0114,0.0355 7.6e-4,0.1062 0.0358,0.0705 0.0119,0.0236 0.0118,0.0236 0.0118,-8e-5 -0.0118,0.0118 -0.011,0.0945 0,0 -0.0233,0.0827 0.0359,0.0704 0.024,0.0472 0.0594,0.0587 0.0591,0.0114 0.0472,0.0114 0.0594,0.035 0.0122,0.0473 1.6e-4,0.0236 -0.0114,0.059 0,0 8e-5,0.0118 1.6e-4,0.0236 0,0 0.0241,0.0827 0.0241,0.0354 6.5e-4,0.0945 2.6e-4,0.0354 0.024,0.059 0.024,0.0355 0.059,0.0114 0.0241,0.0354 0,0 0,0 -0.0115,0.0708 0,0 6.5e-4,0.0945 0.0241,0.0353 0.0236,0.0118 0.0236,0.0118 0.0238,0.0236 -0.011,0.0944 0,0 0,0 -0.0114,0.0355 -0.0114,0.0354 0.0119,0.0236 0.024,0.0354 0.0236,0.0236 0,0 0.0957,0.17653 4.9e-4,0.0708 -0.0232,0.0709 -0.0347,0.10645 3.2e-4,0.0473 0.0237,0.0236 0.13066,0.10539 8e-5,0.0118 0.0716,0.10571 0.0132,0.20071 3.4e-4,0.0472 0.0122,0.0354 0.0713,0.0587 0,0 0.0122,0.0354 7.4e-4,0.10628 -0.0118,0.0236 -0.0118,0.0236 0.0122,0.0472 0.0358,0.0351 0.14243,0.10521 0.0476,0.0587 0.024,0.0471 0,0 0.0363,0.10606 0.10703,0.11735 -0.011,0.11807 -0.0118,0.0237 -0.0353,0.024 0.024,0.0826 0,0 0.19063,0.24667 0.0831,0.0467 0.10671,0.0583 0.024,0.0353 2.5e-4,0.0354 2.5e-4,0.0354 -0.0118,0.0237 -0.035,0.0476 3.2e-4,0.0472 0.0252,0.23604 6.6e-4,0.0944 -0.0351,0.0359 -0.0114,0.059 0.0122,0.0354 0.0241,0.0473 6.6e-4,0.0944 -0.0114,0.0591 -0.0587,0.0594 -0.0232,0.0473 -0.0225,0.14186 -0.0583,0.0949 -0.0114,0.0472 0.0481,0.11777 0.0244,0.0944 1.6e-4,0.0236 4.1e-4,0.059 -0.0236,0.0237 -0.0118,0.0236 0,0 -0.0237,0.0118 -0.059,0.024 -0.11836,-0.0346 -0.0822,0.0477 0,0 -0.0118,0.0118 0.0122,0.0591 0.0118,0.0118 0.024,0.0354 0,0 0,0 4.2e-4,0.059 -0.0114,0.0473 -0.0118,0.0236 -0.0473,-0.0114 -0.0472,3.4e-4 -0.0114,0.059 1.7e-4,0.0236 0.0122,0.0473 -0.0112,0.0826 -0.0236,0.0118 0,0 -0.0709,0.0122 -0.0236,0.0236 -0.0114,0.0827 0.0119,0.0236 0.0122,0.0354 -0.0114,0.0827 -0.0348,0.0831 -0.0114,0.0472 -0.035,0.0476 -0.0114,0.0354 -0.0115,0.0709 0.0359,0.0586 0.024,0.0473 -0.0221,0.20087 -0.0114,0.0354 -0.0237,0.0236 -0.0708,0.0241 -0.0232,0.0354 0.0122,0.0708 9e-5,0.0118 0.0122,0.0473 5.8e-4,0.0826 -0.0114,0.0709 -0.035,0.0594 -0.0354,0.024 -0.0708,0.0241 -0.0232,0.059 0.0126,0.10622 3.2e-4,0.0472 0.0358,0.035 0.0118,-10e-5 0.0476,0.0351 0.0359,0.0586 -0.0114,0.0472 -0.0114,0.0354 -0.0473,3.2e-4 -0.094,0.0599 -0.0237,0.0236 -0.0114,0.0472 5.6e-4,0.0827 0.0359,0.035 0.0119,0.0236 0.0236,0.0118 0.1067,0.0583 0.0712,0.0586 0.024,0.0708 4.1e-4,0.059 -0.0114,0.0354 -0.035,0.0477 -0.0224,0.15366 0.0244,0.10603 0.0488,0.23587 0.0489,0.23586 0.0122,0.059 0.024,0.0471 0.11867,0.0819 0.0118,0.0118 0.024,0.0471 7.5e-4,0.1063 9e-4,0.1299 -0.0232,0.0472 -0.0705,0.0477 -0.0114,0.0354 0.0123,0.0826 0.0354,0.0233 0.0119,0.0236 0.0119,0.0236 -0.0115,0.0472 0,0 -0.0353,0.024 9e-4,0.1299 0.0241,0.0827 0.0241,0.0589 0.0476,0.0351 0.10662,0.0464 0.024,0.0352 5.7e-4,0.0827 0.0118,0.0118 -0.0118,8e-5 -0.011,0.11818 -0.0583,0.0948 -0.0114,0.0354 8e-5,0.0119 6.7e-4,0.0944 0.0118,0.0118 0.0359,0.0351 0.0118,-9e-5 0.0122,0.0708 -0.011,0.10638 -0.0114,0.0472 -0.0351,0.0358 -0.0232,0.0355 3.3e-4,0.0472 0.024,0.0708 0.0477,0.0351 8e-5,0.0118 3.4e-4,0.0472 -0.0233,0.071 -0.0236,0.0118 0,0 -0.0704,0.0358 -0.0118,0.0236 2.5e-4,0.0354 0.0122,0.0473 0.0708,0.0232 0.0118,-8e-5 0.0481,0.094 1e-4,0.0118 0.0248,0.15344 -0.0114,0.059 8e-5,0.0118 -0.0818,0.14228 -0.0704,0.0594 -0.0232,0.0474 2.5e-4,0.0354 0.013,0.15341 0.0358,0.0704 0.0476,0.0705 0.0118,0.0118 0,0 2.5e-4,0.0354 0.0122,0.0473 -0.0118,0.0236 -0.0114,0.059 0,0 -0.011,0.0945 -0.0347,0.083 -0.0236,0.0237 -0.0118,8e-5 0,0 -0.0118,0.0118 -0.0115,0.0354 8e-5,0.0118 -0.0114,0.0472 0.013,0.18892 8e-5,0.0118 0.0119,0.0118 0.0719,0.14121 0,0 0.0472,0.0114 0.0237,0.0118 0.0476,0.035 3.3e-4,0.0472 -0.0114,0.0473 2.5e-4,0.0354 0.0123,0.0827 0.0236,0.0118 0.095,0.0818 0.0122,0.0354 -0.011,0.11818 -0.0465,0.13022 0,0 8e-5,0.0118 4.2e-4,0.0591 0.0237,0.0236 0.0354,-2.4e-4 0.0118,-8e-5 0.0709,0.0232 2.4e-4,0.0354 4.9e-4,0.0709 -0.035,0.0712 -0.0232,0.0354 -0.0114,0.0355 -0.0114,0.0826 0.0122,0.0709 0.024,0.0353 0.0236,0.0118 0.0472,0.0232 0.0237,0.0236 6.7e-4,0.0945 4.9e-4,0.0709 0.0594,0.0468 0.0118,0.0118 0.0118,0.0118 -0.0114,0.0472 -0.0118,0.0236 -0.0236,1.6e-4 -0.0472,3.4e-4 -0.0237,0.0237 -0.0114,0.059 0.0122,0.0827 0.0237,0.0236 0.0354,-2.5e-4 0.0712,0.0468 0.0839,0.18831 0.0118,0.0118 8e-5,0.0119 9e-5,0.0118 0.0119,0.0236 8e-5,0.0118 0,0 8e-5,0.0118 1.6e-4,0.0236 8e-5,0.0118 -0.12832,0.2253 -0.0236,0.0236 -0.0941,0.0362 -0.0232,0.0592 2.5e-4,0.0354 0.0119,0.0236 0.0473,0.0114 0.0358,0.0586 3.4e-4,0.0473 -0.0232,0.0354 -0.0233,0.0354 1.6e-4,0.0236 0.0123,0.0355 0,0 0.0358,0.0586 2.4e-4,0.0354 -0.0114,0.0473 -0.0232,0.0354 -0.0709,0.0122 -0.0818,0.10687 -0.0115,0.0354 4.9e-4,0.0708 0.0241,0.0354 0.0358,0.0586 3.4e-4,0.0472 -0.0472,0.0241 -0.0237,0.0236 -0.035,0.0358 0.0122,0.0708 0.0358,0.0587 0.0591,0.0232 2.5e-4,0.0354 1.7e-4,0.0236 1.6e-4,0.0237 -0.0232,0.0354 -0.0114,0.059 0.0122,0.0354 0.0354,0.0233 0,0 0.0122,0.0472 2.5e-4,0.0354 9e-5,0.0118 8e-5,0.0118 -0.035,0.0477 0.0123,0.0826 0.0118,0.0118 9e-5,0.0118 0.0358,0.0351 5.7e-4,0.0826 -0.0586,0.0358 8e-5,0.0119 -0.0114,0.0354 -0.0114,0.0472 0.0122,0.0354 1.7e-4,0.0237 0,0 0.0244,0.0944 -0.0468,0.0831 -0.0115,0.0354 -0.0118,0.0236 -0.0114,0.0354 -0.0696,0.15399 0.0122,0.0473 0.024,0.0354 0.0354,0.0114 0,0 0.0236,0.0236 5e-4,0.0709 3.3e-4,0.0472 -0.0117,0.0236 -0.0468,0.0831 -0.0118,0.0236 -0.0114,0.0472 5.7e-4,0.0827 0,0 0.0484,0.16496 0.0477,0.0704 0.0472,0.0233 0.0122,0.0354 5e-4,0.0708 4.9e-4,0.0709 -0.0114,0.059 -0.0349,0.0831 5.8e-4,0.0826 0.0122,0.0473 0.059,0.0114 0.0831,0.0349 0.0476,0.0586 -0.0114,0.0473 0.0122,0.059 0.0476,0.0705 0.0367,0.16505 0.024,0.0826 0.10769,0.21185 0.0241,0.0472 3.3e-4,0.0472 2.5e-4,0.0355 -0.0118,0.0118 -0.0351,0.0712 2.4e-4,0.0354 8e-5,0.0119 0,0 0,0 0.0119,0.0236 9e-5,0.0118 0.0591,0.0232 0.12973,-0.0244 0.0236,-1.6e-4 0.0476,0.035 0.0245,0.14154 0.0713,0.0468 0.0122,0.0473 0.0122,0.0472 -0.0118,0.0236 -0.0232,0.0354 2.5e-4,0.0355 0.0118,0.0236 0.0594,0.035 0.0481,0.0941 0.0126,0.10611 -0.0229,0.13007 -0.0584,0.0831 -0.0114,0.0472 8e-5,0.0118 0.0354,0.0232 0.0945,0.0111 0.14335,0.23511 0.0834,0.12931 0.0118,0.0118 0.0355,0.0232 0.0236,0.0236 0.0594,0.0351 0.0831,0.0468 0.0118,0.0118 0.0118,0.0236 0.0118,0.0118 0.0118,0.0237 0.0118,0.0236 0.0122,0.0354 1.6e-4,0.0236 0.0118,0.0118 0.0366,0.14144 0.05,0.40117 -0.0114,0.0354 -0.0463,0.14203 8e-5,0.0118 9e-5,0.0118 2.4e-4,0.0355 0,0 9e-5,0.0118 0,0 0.0122,0.0354 0.0118,0.0236 0.0354,0.0232 0,0 0.0827,0.0113 0.0236,0.0118 9e-5,0.0118 0.0122,0.0355 -0.0469,0.0594 -0.0232,0.0472 0.0615,0.31848 0,0 0.0358,0.0704 0.0118,-8e-5 0,0 0.14227,0.0818 0.024,0.0352 8e-5,0.0118 9e-5,0.0118 0.0118,0.0118 -0.0114,0.0591 -0.0456,0.21283 -0.046,0.15384 2.4e-4,0.0354 0.048,0.0941 -0.0114,0.0472 -0.0701,0.0949 2.5e-4,0.0354 1.7e-4,0.0236 0.0477,0.0469 0.1066,0.0582 0.024,0.0707 4.9e-4,0.0709 -0.0346,0.11834 -0.0118,0.0118 2.5e-4,0.0354 0.024,0.0709 0.0714,0.0822 0.11852,0.0583 0.10628,0.011 0,0 0.0595,0.035 0.0122,0.0826 -0.0228,0.0945 0.0358,0.0823 0.11861,0.07 0.0118,0.0118 0.0118,0.0118 0.0476,0.0351 0.0118,0.0236 0.0118,-9e-5 0,0 0.0595,0.0586 0.0118,0.0118 0.0594,0.0587 3.3e-4,0.0472 -0.10571,0.0716 0.0472,0.0233 0.0354,0.0232 0.0472,0.0232 0.036,0.0822 0.0123,0.0827 -0.0469,0.0476 -0.059,-0.0232 -0.0594,-0.0586 -0.0237,0.0118 0.0124,0.0826 0.083,0.0823 3.2e-4,0.0472 -0.0704,0.0713 -0.011,0.0944 0.11875,0.10546 2.4e-4,0.0354 -0.10562,0.0835 -0.0114,0.0709 0.0476,0.0704 0.0712,0.0468 0.0359,0.0469 -0.0233,0.0472 -0.0822,0.0595 0.0118,0.0237 0.0358,0.035 0.0713,0.035 0.0236,-1.6e-4 0.21266,0.022 0.0477,0.0469 0.024,0.0354 -0.035,0.0358 -0.0472,0.024 0.0122,0.0354 0.0713,0.0705 0.0236,0.0118 0.0236,0.0236 0.024,0.0354 0.0122,0.0473 0.0122,0.0354 8e-5,0.0118 1.7e-4,0.0236 0.0118,0.0118 0.0131,0.16522 9e-5,0.0118 0,0 4e-4,0.0591 2.6e-4,0.0354 8e-5,0.0118 -0.0119,0.0118 -0.0118,0.0118 8e-5,0.0118 -0.0114,0.0355 0.10703,0.10545 0.1181,-8.2e-4 0.1077,0.20005 3.3e-4,0.0472 -0.0114,0.0591 0.0118,0.0236 0.0236,0.0118 0.0236,0.0236 0.0122,0.059 1.7e-4,0.0236 -0.0236,0.0119 9e-5,0.0118 -0.0118,0.0118 0.0127,0.14161 0.0598,0.10578 -0.0232,0.0473 -0.035,0.0476 3.4e-4,0.0472 0.0122,0.0355 0.0834,0.10563 0.0123,0.0591 0.0122,0.0354 0.0354,0.0114 0.0354,-0.0122 0.10646,0.0228 0.0476,0.0705 0.11858,0.07 0.0119,0.0236 1.6e-4,0.0236 -0.0822,0.0478 -0.0351,0.0476 -0.035,0.0595 3.3e-4,0.0472 0.0236,0.0118 0.0118,-8e-5 0.0236,-0.0118 0.0119,-9e-5 0.0594,0.0468 0.0476,0.0469 7.4e-4,0.1062 0.14186,0.0226 0,0 0.0713,0.0705 0.0118,-8e-5 0.11891,0.11727 0.048,0.10587 -0.0232,0.0591 0.0122,0.059 0,0 0,0 0,0 9e-5,0.0118 0.0118,0.0118 0.0358,0.0351 0.0476,0.035 0.0123,0.0472 -0.0119,8e-5 -0.0236,0.0236 2.4e-4,0.0355 9e-5,0.0118 9e-5,0.0118 0.10662,0.0464 0.0122,0.0709 5.7e-4,0.0826 -0.0114,0.0591 -0.0703,0.083 2.5e-4,0.0354 0.0122,0.0473 0.0477,0.0822 0.10729,0.14094 0.11891,0.11727 0.0119,0.0236 -0.0114,0.0354 -0.0704,0.0831 3.2e-4,0.0472 0.0118,0.0118 0.0476,0.0351 0.0123,0.059 -0.0115,0.059 0.0123,0.0591 0.0594,0.035 0.0236,0.0236 0.0238,0.0236 4.9e-4,0.0709 -0.0118,0.0236 8e-5,0.0118 1.6e-4,0.0236 0.0236,0.0237 0.0118,0.0118 0.0118,-0.0118 0,0 0,0 0.0119,0.0118 0.012,0.0236 0.0118,-8e-5 0,0 1.6e-4,0.0236 0.0358,0.0586 0.0358,0.0587 0.0118,0.0236 8e-5,0.0118 8e-5,0.0118 -0.0118,0.0118 -0.035,0.0595 3.3e-4,0.0472 0,0 0,0 0.0118,0.0118 0.0118,0.0118 0,0 0.0236,-1.6e-4 0,0 0.0236,-1.6e-4 0.0119,-0.0118 0.0118,-0.0118 0.035,-0.0595 0,0 0.0118,-9e-5 0.0118,-0.0118 0,0 0.0118,0.0118 0.0118,0.0119 0.0118,-9e-5 8e-5,0.0118 0.0118,0.0236 0,0 0.0369,0.20046 0.037,0.22414 0,0 0,0 0.0236,0.0236 0.0472,0.0114 0,0 0.0236,-1.7e-4 0.0119,0.0236 0,0 0.024,0.0472 0.0122,0.0591 0.0476,0.0586 0.024,0.0709 0.0118,0.0118 4.4e-4,0.059 -0.035,0.0595 8e-5,0.0118 8e-5,0.0118 0.013,0.15342 0.0831,0.082 0,0 0.0118,0.0118 9e-5,0.0119 8.3e-4,0.11799 5.7e-4,0.0827 9e-5,0.0118 -0.0118,0.0118 -0.0118,0.0118 -0.0118,8e-5 -0.0587,0.0358 -0.0114,0.0355 0.1191,0.14087 0.0488,0.21217 0.0244,0.14154 0.0595,0.0468 0.10646,0.0229 0.0118,0.0118 -0.0118,0.0236 -0.0469,0.0594 1.6e-4,0.0236 9e-5,0.0118 0.17728,0.0225 0.0827,-5.6e-4 0.0118,0.0118 0.0476,0.035 0.0359,0.0468 0,0 0.0118,0.0236 8e-5,0.0118 8e-5,0.0119 0.0118,0.0236 -0.0118,0.0118 -0.0346,0.10654 0.0358,0.035 0.0358,0.035 0.0122,0.0472 2.6e-4,0.0355 -0.0236,0.0118 8e-5,0.0118 2.5e-4,0.0354 0.024,0.0471 0.024,0.0472 0.024,0.059 -0.011,0.0945 1.6e-4,0.0236 -0.0114,0.0472 2.5e-4,0.0354 -0.0114,0.0709 8e-5,0.0118 0,0 -0.0118,0.0236 -0.0349,0.0831 0.0122,0.059 0.0358,0.035 8e-5,0.0118 2.5e-4,0.0355 -0.0468,0.0712 -0.0472,0.024 0,0 1.6e-4,0.0237 0.0122,0.059 0.0236,-1.6e-4 9e-5,0.0118 0.0118,0.0118 -0.0114,0.0472 -0.0232,0.0473 8e-5,0.0118 2.4e-4,0.0354 0.024,0.0589 0.0358,0.0351 0.0236,0.0118 0.024,0.0589 -0.0114,0.0591 -0.035,0.0476 1.6e-4,0.0236 0,0 2.5e-4,0.0354 0.0358,0.0351 0.0118,0.0236 8e-5,0.0118 -0.0114,0.0354 -0.0114,0.0354 -0.0232,0.0473 0.0122,0.0472 0.0118,0.0118 0.0118,0.0236 0.0122,0.0354 -0.10488,0.18974 -0.0355,0.0122 -0.0468,0.0358 -0.0232,0.0472 2.4e-4,0.0355 0.0598,0.12937 0.0122,0.0827 0.0359,0.035 0.0591,0.0232 0.0118,0.0119 0.0354,-2.6e-4 0.0355,-2.6e-4 0.0118,0.0236 3.3e-4,0.0472 8e-5,0.0118 0.0358,0.0468 0,0 0.0119,0.0237 -0.0114,0.0354 -0.0236,0.0236 6.5e-4,0.0945 0,0 4.1e-4,0.059 9e-5,0.0118 0.0358,0.0468 0,0 8e-5,0.0119 2.5e-4,0.0354 1.6e-4,0.0236 -0.0236,0.0236 -0.0587,0.0595 -0.0118,0.0236 0,0 -0.0236,0.0236 3.3e-4,0.0472 1.6e-4,0.0236 0.0476,0.0469 8e-5,0.0118 0.0119,0.0236 -0.0115,0.0472 -0.0353,0.024 -0.0118,0.0237 8e-5,0.0118 1.6e-4,0.0236 0.0119,0.0236 0.0118,0.0118 0.0477,0.0468 0.0122,0.0355 -0.0232,0.0709 -0.0351,0.0594 -0.0236,0.0237 -0.0114,0.059 0.0126,0.11802 0.0358,0.0704 0.0238,0.0237 -0.0115,0.0826 -0.035,0.0476 8e-5,0.0118 -0.0118,0.0237 0.0122,0.0472 8e-5,0.0118 0.0236,0.0236 2.6e-4,0.0354 -0.0114,0.0473 0.001,0.1653 0.0363,0.0941 0.0118,0.0236 2.5e-4,0.0354 -0.0351,0.0712 -0.0118,0.0237 2.4e-4,0.0354 0.0359,0.0704 -0.0119,8e-5 -0.0349,0.0831 9e-5,0.0118 1.6e-4,0.0236 0.0122,0.0472 0.0118,0.0119 0.0238,0.0236 -0.0115,0.059 -0.0704,0.0595 0,0 -0.0232,0.0354 2.6e-4,0.0354 0.0237,0.0236 0.0472,0.0232 1.6e-4,0.0237 0,0 9e-5,0.0118 -0.0232,0.0472 0.0118,0.0118 0,0 8e-5,0.0118 0.0597,0.0823 0.0118,0.0118 0,0 8e-5,0.0118 0.0472,0.0232 0.0472,0.0114 0.0122,0.0354 3.3e-4,0.0473 0.0477,0.035 0.0476,0.0468 0.0594,0.0705 0.0119,0.0118 -0.0229,0.10636 0,0 0,0 0.0122,0.0591 0.0595,0.035 0.0118,0.0118 0.024,0.0354 2.5e-4,0.0355 0.001,0.1653 -0.0704,0.0712 -0.0118,8e-5 -0.0114,0.0827 -0.0114,0.0472 -0.035,0.0477 -0.0708,0.0122 -0.0114,0.0472 0.024,0.0472 0,0 0.0712,0.035 1.7e-4,0.0237 -0.0117,0.0236 8e-5,0.0118 -0.0468,0.0358 -0.0118,0.0236 0,0 0.0594,0.0705 0.0122,0.0472 4e-4,0.0591 0.024,0.059 0.0241,0.0353 0.0354,0.0114 0.0118,-8e-5 0.024,0.0472 8e-5,0.0118 -0.0228,0.13006 0.0244,0.0944 0.0718,0.1412 0.0712,0.0587 0.0241,0.0826 -0.0464,0.10662 8e-5,0.0118 1.6e-4,0.0236 0.0354,0.0232 0.0118,0.0118 0.024,0.0354 4.2e-4,0.059 -0.0118,0.0236 8e-5,0.0118 8e-5,0.0118 -0.0118,0.0118 8e-5,0.0118 2.6e-4,0.0355 0.0118,0.0118 2.5e-4,0.0354 1.6e-4,0.0236 -0.0117,0.0236 8e-5,0.0118 -0.0354,0.0123 -0.0472,0.024 -0.0117,0.0236 -0.0111,0.12998 0.0355,0.0232 0.0708,-4.8e-4 0.0236,0.0118 0.0599,0.1059 0.0122,0.0708 -0.1285,0.20171 -0.0701,0.11849 8e-5,0.0118 9e-5,0.0119 4e-4,0.059 9e-5,0.0118 8e-5,0.0118 0.0485,0.16497 0.0366,0.18875 1.6e-4,0.0236 9e-5,0.0118 8e-5,0.0118 0,0 -0.0232,0.0354 -0.0118,0.0236 -0.0113,0.0827 0.0118,0.0236 0.0472,0.0232 0.0119,0.0236 0.0118,-9e-5 -0.0114,0.0591 -0.0472,0.0122 9e-5,0.0118 -0.0114,0.0354 1.6e-4,0.0236 0.0236,0.0118 0.0118,-8e-5 0.0122,0.0355 -0.0114,0.059 8e-5,0.0118 -0.0118,0.0236 0.0118,0.0118 0.024,0.0353 1.6e-4,0.0236 1.8e-4,0.0236 1.6e-4,0.0236 1.7e-4,0.0236 0.0236,0.0118 0.0713,0.0587 0.024,0.059 -0.0114,0.0472 -0.0232,0.0473 -0.0118,0.0236 -0.0232,0.0354 1.6e-4,0.0236 0.0122,0.0355 0.0358,0.035 0.0594,0.0468 0.0122,0.0472 -0.0118,0.0237 -0.0354,0.024 -0.0118,0.0118 -0.035,0.0594 0.0122,0.0709 8e-5,0.0118 0.0358,0.0468 1.8e-4,0.0236 -0.0586,0.0477 -0.0118,0.0236 0,0 0.0122,0.0354 0.0118,0.0236 0.0472,0.0232 0.0122,0.0473 -0.0114,0.059 -0.0114,0.0354 0.0476,0.0705 0.0237,0.0236 2.5e-4,0.0354 1.7e-4,0.0236 -0.035,0.0595 2.4e-4,0.0354 0.0118,-8e-5 0.0236,0.0236 0,0 0.0359,0.0469 -0.0118,0.0236 -0.0941,0.0834 -0.0232,0.0473 0,0 3.3e-4,0.0472 0.0122,0.0354 0,0 0.0358,0.035 0.0713,0.0469 0.0358,0.0468 1.7e-4,0.0236 -0.0232,0.0709 0.0119,0.0236 0,0 0.0122,0.059 0.0236,0.0236 0.0236,0.0119 0.0236,-1.7e-4 0.024,0.0354 2.4e-4,0.0354 3.3e-4,0.0472 -0.035,0.0713 -0.0118,0.0118 1.7e-4,0.0236 2.4e-4,0.0354 0.0237,0.0236 0.0713,0.0469 0.0122,0.0472 9e-5,0.0118 6.6e-4,0.0945 0.0236,0.0236 0.0236,0.0236 5e-4,0.0709 -0.035,0.0476 0,0 -0.0114,0.0354 0.0118,0.0236 0.0358,0.0351 8e-5,0.0118 0,0 0.0118,0.0118 -0.0118,0.0118 -0.0118,0.0118 -0.0586,0.0358 -0.0236,0.0236 -0.0583,0.0949 9e-5,0.0118 0,0 1.6e-4,0.0236 0.0236,0.0236 1.6e-4,0.0237 2.5e-4,0.0354 -0.0232,0.0472 -0.0232,0.0356 0.024,0.0471 0.0118,0.0118 0.0477,0.0468 0.0244,0.0945 3.3e-4,0.0472 -0.0114,0.0591 -0.0114,0.0354 0.0358,0.0586 0.0118,0.0236 0.0476,0.0351 4.1e-4,0.059 -0.0114,0.0472 -0.0236,0.0236 -0.0232,0.0355 0.0122,0.0354 0.0118,0.0118 0.10704,0.10556 0.0122,0.059 -0.0232,0.0591 1.7e-4,0.0236 -0.0118,0.0236 9e-5,0.0118 0.0118,0.0118 0.0118,0.0118 8e-5,0.0118 0.0594,0.035 0.0119,0.0237 4e-4,0.059 -0.0114,0.0472 -0.0114,0.0473 3.4e-4,0.0472 0.0118,0.0118 0.0118,0.0236 0.0126,0.12982 -0.035,0.0595 0,0 2.5e-4,0.0354 8e-5,0.0118 0.024,0.059 -0.0228,0.10646 0.0122,0.0472 0.0236,0.0236 -0.0113,0.0827 -0.035,0.0594 0,0 0.0122,0.0709 9e-5,0.0118 -0.0118,0.0118 -0.035,0.0358 -0.0118,0.0236 0.0246,0.14154 0.0358,0.0351 8e-5,0.0118 0,0 8e-5,0.0118 0.0119,0.0236 0,0 -0.0236,0.0237 -0.0354,0.0122 8e-5,0.0118 3.3e-4,0.0473 0.0362,0.10595 0.0476,0.0587 0.0236,0.0236 0.013,0.16522 -0.0342,0.15374 8e-5,0.0118 0.0122,0.0473 0.0359,0.0468 1.6e-4,0.0236 8e-5,0.0118 0.0118,0.0236 -0.0114,0.0355 -0.0237,0.0237 -0.0236,0.0236 2.6e-4,0.0354 1.6e-4,0.0236 0.0118,0.0236 0.0477,0.0587 0.0122,0.0354 -0.0232,0.0472 -0.12956,0.0481 -0.0587,0.0476 -0.0578,0.1657 0.0118,0.0236 -0.0226,0.14186 -0.0114,0.0355 2.4e-4,0.0354 0.0118,0.0236 8e-5,0.0118 0.0476,0.0586 0.0831,0.0704 0.0236,-0.0119 0.0594,0.0586 3.2e-4,0.0473 1.8e-4,0.0236 -0.0232,0.0354 5.8e-4,0.0827 0.0477,0.0822 0.0615,0.35387 0.0118,0.0118 -0.0118,0.0118 0,0 0,0 0,0 -0.0224,0.16546 3.4e-4,0.0472 0.0476,0.0468 0.18956,0.0933 0.14128,-0.0599 0.0118,-8e-5 0.0118,-8e-5 0.0359,0.0468 0.024,0.0471 -0.0114,0.0355 -0.0114,0.059 0.0126,0.12981 0.0122,0.0472 0,0 0,0 0,0 6.7e-4,0.0945 1.6e-4,0.0236 0,0 2.4e-4,0.0354 0.0237,0.0236 0.0118,-9e-5 0.0236,0.0118 0.0709,-4.9e-4 0.024,0.0471 0.0122,0.0708 0.0244,0.11793 -0.0228,0.0945 5.7e-4,0.0826 0.0122,0.0355 0.0118,0.0236 0.0354,-2.5e-4 0.0355,-2.5e-4 0.024,0.0708 0.0118,0.0236 0.0354,-2.5e-4 0.0586,-0.0712 0.0587,-0.0476 0.035,-0.0359 0.22349,-0.13146 0.0354,0.0115 0.024,0.0353 2.4e-4,0.0354 9e-5,0.0118 -0.0232,0.0709 0,0 1.7e-4,0.0236 2.4e-4,0.0354 0.0476,0.035 8e-5,0.0118 -0.0232,0.0355 8e-5,0.0118 -0.0114,0.0472 0.0122,0.0354 0.0358,0.035 8e-5,0.0119 1.6e-4,0.0236 0,0 0,0 -0.0236,0.0236 -0.0354,0.0122 -0.0118,0.0118 -0.011,0.11818 0.0126,0.0945 -0.0114,0.0472 -0.0232,0.0709 -0.0355,2.4e-4 -0.0594,-0.035 -0.0585,0.0831 -0.0457,0.22465 0.0366,0.15322 0,0 0.0123,0.0473 0.0122,0.0708 0.0122,0.0354 0.0354,0.0232 0.0353,-0.024 0.0354,-2.7e-4 0.0123,0.0355 -0.0111,0.10629 -0.0232,0.0591 -0.0354,0.0122 -0.0831,-0.0469 -0.0944,-0.0228 -0.0236,0.0236 0.024,0.059 0.024,0.0353 4.1e-4,0.059 2.4e-4,0.0355 0,0 -0.011,0.0944 1.6e-4,0.0237 8e-5,0.0118 -0.0117,0.0236 8e-5,0.0118 -0.035,0.0594 0,0 0,0 0,0 4.1e-4,0.0591 0.0118,0.0236 0.024,0.0354 8e-5,0.0118 0,0 0.0118,0.0236 8e-5,0.0118 1.8e-4,0.0237 -0.0114,0.0472 1.7e-4,0.0236 8e-5,0.0118 1.6e-4,0.0236 1.7e-4,0.0236 0.024,0.0354 0.0236,0.0118 0,0 0.0118,-8e-5 0.0237,0.0236 2.4e-4,0.0354 -0.0118,0.0236 -0.0232,0.0356 0,0 0,0 -0.0114,0.059 0.024,0.0471 0,0 3.3e-4,0.0473 -0.0236,0.0236 -0.0236,0.0118 -0.0236,1.6e-4 -0.0118,0.0236 2.4e-4,0.0354 0.0122,0.0355 8e-5,0.0118 1.6e-4,0.0236 8e-5,0.0118 -0.0351,0.0476 -0.0704,0.0358 0,0 -0.0118,8e-5 1.7e-4,0.0237 0.024,0.0353 0.024,0.0471 2.5e-4,0.0354 -0.0354,0.0122 8e-5,0.0119 -0.0472,-0.0115 -0.11702,0.15442 -0.0349,0.083 0.0244,0.11794 -0.0232,0.059 -0.0354,0.024 1.6e-4,0.0237 0.0241,0.0353 0.0948,0.0464 0.0118,0.0236 8e-5,0.0118 0,0 6.7e-4,0.0945 0,0 1.6e-4,0.0236 6.5e-4,0.0945 6.7e-4,0.0945 0,0 8.3e-4,0.118 0,0 0,0 1.6e-4,0.0237 0.0122,0.0472 0.0118,0.0118 0.0119,-9e-5 8e-5,0.0118 0.0118,0.0118 0.0236,0.0236 0.0358,0.0587 0.0122,0.0472 0,0 -0.0232,0.0708 1.6e-4,0.0237 3.2e-4,0.0472 0.0118,0.0118 0.059,0.0232 0,0 0.0122,0.0354 2.4e-4,0.0355 -0.0114,0.0472 0.0122,0.059 0.0713,0.0587 8e-5,0.0118 0.0236,0.0236 1.7e-4,0.0236 -0.0236,0.0236 -0.0118,8e-5 0.0122,0.0473 0.0118,0.0236 0.0236,0.0236 -0.0114,0.0354 -0.0354,0.0122 -0.0114,0.0355 -0.0114,0.0354 4.2e-4,0.059 0.0476,0.0469 0.0358,0.0468 5.7e-4,0.0826 -0.0114,0.0473 -0.0114,0.0472 1.7e-4,0.0236 8e-5,0.0118 0,0 0.0122,0.0355 2.5e-4,0.0354 0.0713,0.0586 7.3e-4,0.10629 -0.0465,0.11844 0.0478,0.0822 0.0118,-9e-5 0.0118,0.0118 0.0118,0.0119 0.0122,0.0472 9.1e-4,0.1299 -0.0941,0.0716 -0.011,0.11818 0,0 2.5e-4,0.0354 -0.0114,0.0591 -0.046,0.15382 -0.0346,0.11834 9e-5,0.0118 0.0712,0.0704 0.0244,0.12974 5.8e-4,0.0827 -0.0114,0.0472 8e-5,0.0118 0.0122,0.0708 0.0356,0.0233 0.0236,0.0236 9e-5,0.0118 2.4e-4,0.0354 -0.0701,0.0949 0.0122,0.059 -0.0118,8e-5 -0.0114,0.0354 -0.0822,0.0359 0,0 8e-5,0.0118 -0.0115,0.059 0.0119,0.0236 0,0 0.0122,0.0473 -0.0232,0.0826 -0.0232,0.0472 -0.0118,0.0119 9e-5,0.0118 -0.0468,0.0476 0.001,0.20066 0.048,0.12958 0.13072,0.11719 0.0252,0.21243 5e-4,0.0708 -0.0114,0.059 -0.011,0.10638 0.024,0.0472 0.0118,-8e-5 0.0355,0.0233 0.0118,0.0118 0.0354,0.0232 0.0118,-9e-5 0.0118,0.0236 0.0122,0.0354 -0.0114,0.0591 0.0126,0.10612 0.0945,0.011 0.0119,0.0237 0.0118,0.0236 -0.0114,0.0354 1.6e-4,0.0236 0,0 0.0119,0.0236 0.0476,0.0351 0,0 0.0236,0.0118 0.0123,0.0354 -0.0115,0.0472 8e-5,0.0118 -0.0114,0.0591 0.0241,0.0472 0.0472,0.0232 0,0 0.0119,0.0236 -0.0114,0.0591 4.2e-4,0.059 2.5e-4,0.0354 8e-5,0.0119 0.0476,0.0468 0.0118,-8e-5 0.0591,-4e-4 0.0598,0.0941 0.0236,0.0118 0.0122,0.0354 1.6e-4,0.0236 4.1e-4,0.059 1.6e-4,0.0237 8e-5,0.0118 0.0118,-8e-5 0.0713,0.0468 0.024,0.0354 3.3e-4,0.0473 8e-5,0.0118 0.0236,0.0118 0.0118,0.0118 0.0473,-3.3e-4 0.0118,0.0118 0,0 -0.011,0.0945 0.0122,0.0354 0.024,0.0353 0,0 0.059,0.0114 0.0359,0.0468 0.0488,0.22406 8e-5,0.0118 8e-5,0.0118 -0.0114,0.059 -0.0118,0.0237 -0.0114,0.0472 0,0 -0.0237,0.0236 -0.0114,0.0354 8e-5,0.0118 0.0122,0.0473 8e-5,0.0118 0.0237,0.0236 0.048,0.10597 0.0122,0.0354 -0.0232,0.059 -0.0114,0.0473 0.0594,0.0468 0.0118,0.0236 0,0 8e-5,0.0118 0,0 1e-4,0.0118 -0.035,0.0359 -0.0118,8e-5 1.6e-4,0.0236 0.0118,0.0118 0.0118,0.0118 0.0358,0.0468 0.0122,0.0473 -0.0232,0.0354 -0.0236,0.0236 2.4e-4,0.0354 8e-5,0.0118 0.0599,0.10587 0.0716,0.0941 0.0252,0.22412 0.0362,0.11785 -0.0464,0.11843 0.0118,0.0236 0.0476,0.0586 3.3e-4,0.0473 0,0 -0.0228,0.0944 -0.0118,0.0237 0.0118,0.0118 0.0118,0.0236 0.0241,0.0353 0.0118,0.0118 0.0236,0.0118 0,0 8e-5,0.0118 -0.0114,0.0709 -0.0583,0.13032 0,0 4.1e-4,0.059 0.024,0.0472 0.0241,0.0353 0,0 0.0118,0.0236 -0.0114,0.059 -0.0118,0.0118 2.7e-4,0.0355 0.0236,0.0236 8e-5,0.0118 0.16571,0.0578 0.0122,0.0354 2.4e-4,0.0355 0.0354,0.0232 0.0473,0.0114 0.0118,0.0118 0.0118,-8e-5 0.0119,0.0236 -0.0114,0.0354 8e-5,0.0118 0.024,0.0472 0.0118,0.0236 0.0476,0.0704 0.0358,0.0351 0.0245,0.11794 -0.0114,0.0708 8e-5,0.0118 8e-5,0.0118 4.1e-4,0.0591 -0.0237,0.0118 -0.035,0.0358 1.7e-4,0.0236 0.0122,0.0472 0,0 1.6e-4,0.0237 0.0236,0.0118 0.0118,0.0236 1.6e-4,0.0236 8e-5,0.0118 3.4e-4,0.0472 -0.0232,0.071 -0.0114,0.059 0.0122,0.0473 0.0595,0.0586 0.0708,-4.8e-4 0.0354,0.0114 0.0119,0.0118 0.0358,0.0705 0.0118,0.0118 8e-5,0.0118 3.4e-4,0.0472 0.0236,0.0118 0.0354,-2.4e-4 0.0236,-1.6e-4 0.0237,0.0236 0.0122,0.0591 1.6e-4,0.0236 8e-5,0.0118 -0.0114,0.0354 8e-5,0.0118 0,0 1.7e-4,0.0236 0,0 0.024,0.0591 0.059,-4e-4 0.0118,-8e-5 0.0118,0.0118 0.0122,0.0472 -0.0114,0.0355 9e-5,0.0118 0.0122,0.0354 0.0477,0.035 0.0354,0.0114 0.0708,0.0114 0.0123,0.0591 -0.0115,0.0472 0.0241,0.0471 0.059,0.0232 0.0586,-0.0358 0.0237,0.0118 0.0118,0.0118 1.6e-4,0.0237 0.0358,0.035 0.20358,0.41188 -0.0106,0.15358 0.0609,0.25928 0,0 0.0237,0.0237 0.15367,0.0224 0.0123,0.0826 8e-5,0.0118 0.0118,0.0119 0,0 0.024,0.0707 0.0118,-8e-5 1e-4,0.0118 0.0118,0.0236 0.0118,0.0118 0.0831,0.0468 0.0831,0.0349 2.4e-4,0.0354 -0.0115,0.0472 1.7e-4,0.0237 0.0246,0.14153 0.0358,0.0468 0.0826,-5.7e-4 0.16498,-0.0602 0.0472,0.0232 4.2e-4,0.059 0.0237,0.0236 0.1539,0.0579 0.0476,0.0822 -0.0346,0.0949 0.0118,0.0236 0.10688,0.0819 0.1308,0.12889 0.14195,0.0346 0.0236,0.0118 2.5e-4,0.0354 4.8e-4,0.0709 -0.0114,0.059 9.7e-4,0.1417 0.0601,0.14128 4e-4,0.059 0,0 -0.0456,0.22472 8e-5,0.0118 0.0244,0.0945 8e-5,0.0118 0,0 0.024,0.0354 0.0122,0.0354 -0.0114,0.0472 0,0 -0.0114,0.0473 0.0122,0.0472 0.0355,0.0232 0.0118,-8e-5 0,0 0,0 0.024,0.0355 9e-5,0.0118 9e-5,0.0118 0,0 8e-5,0.0118 8e-5,0.0118 4.9e-4,0.0708 8e-5,0.0118 -0.0232,0.0592 9e-5,0.0118 -0.0118,0.0118 1.6e-4,0.0236 -0.0118,0.0236 0.0123,0.0473 0.0236,0.0236 0.0122,0.0354 0.0118,-8e-5 8e-5,0.0118 0.0118,0.0118 1.8e-4,0.0236 0,0 0.0118,0.0118 8e-5,0.0118 8e-5,0.0119 -0.0114,0.059 4e-4,0.059 -0.0111,0.0827 -0.0346,0.0949 -0.0118,0.0236 3.4e-4,0.0472 0.0118,0.0236 0,0 9e-5,0.0118 0.059,0.0232 0.024,0.0355 0.0118,0.0118 0.0122,0.0354 3.5e-4,0.0472 0,0 8e-5,0.0118 -0.0114,0.0355 0.0122,0.0472 0,0 0,0 0.0355,0.0232 0.0236,0.0236 0.0118,0.0118 0,0 0.0119,0.0237 -0.0118,0.0236 -0.0118,0.0236 -0.0236,0.0236 -0.0237,0.0236 -0.0118,9e-5 -0.0704,0.0713 9e-5,0.0118 -0.0118,0.0236 0,0 0.0122,0.0708 3.2e-4,0.0473 0.0122,0.0708 3.4e-4,0.0473 0.0122,0.059 7.5e-4,0.1063 0.0488,0.21217 0.0831,0.0467 0.10786,0.22355 0.0484,0.16497 0,0 0.024,0.0827 -0.011,0.0944 -0.0118,0.0237 -0.035,0.0358 0,0 -0.0118,0.0236 6.8e-4,0.0945 -0.0114,0.059 8.3e-4,0.1181 8e-5,0.0118 0.024,0.0354 0.0118,0.0236 0,0 3.2e-4,0.0473 0,0 -0.0114,0.0354 0.0122,0.0354 9e-5,0.0118 0.0119,0.0236 0.0236,-1.6e-4 0.0236,0.0118 0.024,0.0827 -0.0118,0.0118 0.0118,0.0236 0.0122,0.0473 0,0 0.0241,0.0354 0.0236,0.0118 0.0358,0.035 0.024,0.0591 6.8e-4,0.0944 0,0 4e-4,0.0591 -0.0335,0.25994 0,0 0,0 0.0244,0.10614 0.0476,0.0705 0.0477,0.0468 0.096,0.21184 0.0241,0.059 0,0 0.001,0.1771 -0.0351,0.0476 0.0359,0.0469 0.0358,0.035 0.10689,0.0818 0,0 0.0126,0.0945 -0.0823,0.0477 0.024,0.0708 0.0477,0.0822 1.7e-4,0.0237 0.0118,0.0118 0.083,0.0704 0.024,0.0709 0.0367,0.15324 0,0 0,0 9.9e-4,0.1417 0.013,0.15342 0.0358,0.0704 -0.011,0.11818 0,0 -0.0338,0.22464 1.6e-4,0.0236 0.024,0.0589 8.3e-4,0.1181 0,0 2.4e-4,0.0354 -0.0342,0.15374 -0.0115,0.0473 -0.0118,0.0236 8e-5,0.0118 -0.10537,0.11885 -0.12725,0.37869 8e-5,0.0118 -0.0689,0.3075 0.0123,0.0827 8e-5,0.0118 0.0122,0.0354 0.0119,0.0118 0.0484,0.15316 -0.022,0.23637 0.048,0.10596 4.1e-4,0.059 0.0496,0.35396 0.0136,0.25961 0.013,0.16532 0.0493,0.30667 0.12063,0.36516 0.0594,0.0705 0.0122,0.059 -0.0102,0.24808 -0.0114,0.0472 -0.27151,0.0138 -0.20061,0.0131 -0.20072,0.0134 -0.1889,10e-4 -0.2243,0.0134 -0.40131,0.0147 -0.41321,0.0146 -0.41321,0.0146 -0.40141,0.0146 -0.4132,0.0146 -0.059,4.2e-4 -0.15341,0.013 -0.60203,0.0278 -0.5431,0.0154 -0.14161,0.0127 0,0 -0.0118,8e-5 -0.11802,0.0126 -0.66102,0.0281 -0.0945,0.0127 0,0 -0.1771,10e-4 -0.70831,0.0284 -0.1181,8.3e-4 -0.44853,0.0268 -0.96801,0.0304 -0.22432,0.0134 0,0 -0.4132,0.0146 -0.0354,0.0122 -0.37782,0.0145 -1.64102,0.0471 -0.29493,0.0374 -0.53122,0.0272 -1.64093,0.0588 -1.65265,0.0707 -0.12989,9e-4 -0.69652,0.0284 0,0 -2.43195,0.0877 -0.0236,1.6e-4 -0.0118,9e-5 -0.0118,8e-5 0,0 -0.0354,2.4e-4 -0.18881,0.013 -0.53131,0.0155 0,0 -0.4722,0.015 -1.21603,0.0438 -0.57851,0.0158 -1.23951,0.0442 -0.63761,0.0162 -0.57841,0.0158 -0.366,0.0142 -0.14161,0.0128 -1.38131,0.0332 -0.5431,0.0154 -1.51121,0.0458 -0.3896,0.003 -0.1653,10e-4 -0.41321,0.0146 -1.22789,0.032 -0.63751,0.0162 -1.40493,0.0453 0,0 -0.2125,0.001 -0.0118,8e-5 -1.41679,0.0336 -1.86541,0.0486 -0.59031,0.0158 -0.63751,0.0162 -0.85016,0.004 -0.0118,8e-5 -0.35412,0.0142 -0.60228,0.004 -1.84188,0.0246 -0.496,0.004 -0.11798,8.2e-4 -0.44879,0.004 -0.1653,10e-4 -1.21608,0.0202 -0.5785,0.0158 -0.059,4.1e-4 -0.40149,0.003 -0.2007,10e-4 -0.1654,10e-4 -0.4958,0.0155 -0.48409,0.004 -0.68488,0.004 -0.47229,0.004 -0.0236,1.6e-4 -1.33429,0.021 -0.63758,0.004 -1.72387,0.0238 -0.0826,0.0123 -0.0945,6.6e-4 -1.95997,0.0254 -0.21252,0.0134 -0.0236,1.8e-4 -0.1535,10e-4 -0.0118,8e-5 -0.70849,0.004 -0.35427,0.003 -0.1535,0.001 -0.27142,0.0138 -0.4015,0.003 -0.53138,0.004 0,0 -0.66118,0.004 -0.1417,10e-4 -0.30691,0.0138 -0.81479,0.004 -0.1181,8.2e-4 -0.81467,0.004 -0.0591,4e-4 -1.88926,0.0123 -0.43689,0.004 -1.19258,0.008 -0.425,0.0146 -0.48409,0.004 -0.59039,0.004 -0.0354,2.6e-4 0,0 -0.0119,8e-5 -1.74754,0.0121 -0.81477,-0.007 -1.68864,-5e-5 -0.77929,0.004 -1.25168,0.008 -0.29526,-0.01 -0.48409,0.004 -0.0354,2.5e-4 -0.61399,0.004 -0.2008,10e-4 -0.3778,0.003 -2.04289,-0.009 -0.0119,8e-5 -0.1771,0.001 -0.0236,1.6e-4 -0.16538,-0.0106 -2.29083,0.004 -0.2007,10e-4 -0.0827,5.8e-4 -0.11817,-0.011 -0.63759,0.004 -0.70848,0.004 -0.2479,10e-4 -2.29091,-0.008 0,0 -0.44869,0.004 -1.13365,-0.004 -0.24808,-0.0102 -0.5785,0.0158 -0.23617,-0.0102 0,0 -0.1535,0.001 -0.80307,-0.007 -1.31075,-0.004 -0.2598,0.001 -0.88566,-0.005 -0.0708,4.8e-4 -0.33059,0.003 -0.1654,10e-4 -0.24797,-0.0102 -0.0709,5e-4 -2.3853,-0.007 -0.1063,7.5e-4 -0.69677,-0.007 -0.0708,4.9e-4 -0.34248,-0.009 -0.1536,0.001 -0.0944,6.6e-4 -0.0591,4.1e-4 -0.49588,0.004 -0.0236,-0.0118 -0.3661,0.003 -0.94474,-0.0171 -0.30699,0.003 -0.50787,-0.008 -0.30699,0.003 -0.1063,7.5e-4 -0.61406,-0.008 -0.10629,7.4e-4 -0.059,-0.0114 -0.90918,0.008 -0.50778,0.004 -0.11808,-0.011 -2.0785,-0.021 -0.0944,-0.011 -0.28339,0.001 -1.02745,-0.0164 -0.56685,-0.008 -0.46058,-0.008 -0.0237,1.7e-4 -0.36607,-0.009 -0.1653,10e-4 -0.2834,10e-4 -0.12989,9e-4 -0.56695,-0.0196 -0.1063,7.4e-4 -0.0236,1.7e-4 -0.0118,9e-5 -0.47237,-0.008 -0.0945,6.6e-4 -0.57866,-0.008 -0.1771,10e-4 -0.38978,-0.009 -0.42517,-0.009 -0.2479,10e-4 -1.38181,-0.0258 -0.33058,0.003 -0.30708,-0.01 -0.0472,3.3e-4 -0.12998,-0.011 -0.0355,2.5e-4 0,0 -1.19274,-0.0152 -0.47237,-0.008 -0.0472,3.3e-4 -0.53156,-0.02 -0.1771,0.001 -0.0236,1.7e-4 -0.0237,1.6e-4 -0.18889,10e-4 -0.20077,-0.0104 0,0 -0.2126,10e-4 -0.0354,2.5e-4 -0.0236,1.7e-4 -0.23628,-0.0102 -0.1062,7.5e-4 -0.0118,8e-5 -0.38977,-0.009 -0.41337,-0.009 -0.59047,-0.008 -1.42909,-0.0373 -0.1535,10e-4 -0.49598,-0.008 -0.0118,8e-5 -0.36617,-0.009 -0.38977,-0.009 0,0 -0.0708,4.9e-4 -0.0472,3.3e-4 -0.15358,-0.0106 -0.0827,5.7e-4 -0.18898,-0.0106 -0.10629,7.5e-4 0,0 -0.38978,-0.009 -0.0236,1.6e-4 -0.25988,-0.01 -0.15349,10e-4 -0.16538,-0.0106 -0.42517,-0.009 -1.05105,-0.0165 -0.15357,-0.0106 -0.2125,10e-4 -0.61424,-0.0192 -0.41329,-0.009 -0.41336,-0.009 -0.17729,-0.0106 -0.295188,0.003 -0.118079,-0.011 -0.0237,1.6e-4 -0.38959,0.003 -0.224478,-0.0102 -0.814845,-0.018 -0.413373,-0.009 0,0 -0.992123,-0.0286 -1.039322,-0.0282 -0.188896,0.001 -0.791345,-0.018 -0.425254,-0.0208 -0.944826,-0.029 -0.106298,7.4e-4 -0.60235,-0.0195 -0.425175,-0.009 -0.318874,-0.009 -0.283474,-0.01 -0.389773,-0.009 -0.437055,-0.0204 -0.413373,-0.009 -0.389673,-0.009 -0.980324,-0.0287 -0.153579,-0.0106 -0.519668,-0.008 -0.153579,-0.0106 -0.614069,-0.008 0,0 -0.448853,-0.0204 -1.228299,-0.0387 -0.118096,8.1e-4 -0.708732,-0.0307 -0.129897,9.1e-4 -0.283475,-0.01 -0.04728,-0.0114 -1.16922,-0.0273 -1.27568,-0.0502 -0.354275,-0.009 -0.815027,-0.0298 -0.838627,-0.0294 0,0 -0.153496,10e-4 -0.177178,-0.0106 -1.28748,-0.05 -1.110204,-0.0396 -2.444983,-0.0892 -2.397866,-0.10124 0.0365,-1.5472 0.153683,-3.35467 0.01088,-0.12998 0.01156,-0.0354 0.07858,-2.27961 0.02112,-0.35435 0.0704,-1.74813 0.03857,-1.25201 0.02021,-0.48425 0.03044,-0.70873 0.0085,-0.48417 0.122983,-2.68143 0.04118,-0.8623 0.0293,-0.88584 0.02056,-0.43704 0.08006,-2.06701 0.0095,-0.33067 0.06932,-1.90164 0.0108,-0.14178 0.01032,-0.21267 -1.65e-4,-0.0236 -6.58e-4,-0.0944 0.09096,-2.19699 0.01816,-0.77955 0.09171,-2.09069 0.0208,-0.40165 0,0 0.02064,-0.42525 0,0 -0.0015,-0.2007 0.05142,-1.09858 0.07122,-1.63004 -6.6e-4,-0.0945 0.02112,-0.35436 -7.42e-4,-0.1063 0.01058,-0.18897 -4.93e-4,-0.0708 0.0094,-0.34258 0.01132,-0.0708 0.0095,-0.33077 0.04036,-0.9803 0.03079,-0.66154 -5.76e-4,-0.0826 0.0587,-1.74806 0.06132,-1.35845 0.0114,-0.059 -2.48e-4,-0.0354 -8.24e-4,-0.1181 -5.78e-4,-0.0827 0.01124,-0.0826 0.04862,-1.50008 0.01148,-0.0472 0.0095,-0.33068 0.04092,-0.8977 0.01934,-0.62606 0.05092,-1.15758 0.0312,-0.60242 0.0819,-1.80723 0.09055,-2.25608 0.01,-0.25978 0.02112,-0.35445 0.06048,-1.47646 0.08066,-1.98442 0.0118,-8e-5 0.07166,-1.58272 -4.12e-4,-0.0591 -3.31e-4,-0.0472 0,0 -2.47e-4,-0.0354 0.04192,-0.75613 0.01048,-0.18898 0.02032,-0.47245 0.01096,-0.11818 0.01792,-0.81484 0.04754,-1.65357 -9.89e-4,-0.1417 0.02023,-0.48425 0.0194,-0.60236 -6.59e-4,-0.0945 0.02972,-0.81493 0.08923,-2.44498 0.01932,-0.61414 -9.05e-4,-0.1299 -5.79e-4,-0.0827 0.03071,-0.67334 0.0095,-0.34247 0.0204,-0.46065 -2.47e-4,-0.0354 -8.25e-4,-0.1181 0.05044,-1.22838 -6.6e-4,-0.0945 0.01148,-0.0472 -0.0017,-0.24799 -1.65e-4,-0.0236 -1.64e-4,-0.0236 0.01056,-0.17728 0.0096,-0.31888 0.0097,-0.29528 0.02082,-0.41346 0.009,-0.40157 -8.1e-5,-0.0118 0,0 0.0104,-0.20078 0.0194,-0.60235 0.04109,-0.87412 -2.48e-4,-0.0354 -0.01188,-0.0118 0.01064,-0.16547 -3.29e-4,-0.0472 -6.6e-4,-0.0945 0.0114,-0.059 -3.3e-4,-0.0472 -2.46e-4,-0.0354 0.01956,-0.57877 0.0099,-0.28348 0.03044,-0.70872 -2.48e-4,-0.0355 -0.0011,-0.1535 -8.2e-5,-0.0118 0.0104,-0.20078 0.0104,-0.20077 0.01824,-0.76776 -0.0012,-0.1653 0.03184,-0.50792 0.01024,-0.22447 -9.88e-4,-0.1417 -8.4e-5,-0.0118 0.01026,-0.23618 0.01032,-0.21268 0.02048,-0.44885 0.01964,-0.56695 0.01008,-0.24807 -0.0012,-0.1653 -3.31e-4,-0.0472 0.03128,-0.59064 -8.2e-5,-0.0118 0.01072,-0.15358 -2.48e-4,-0.0355 0.0104,-0.20077 0.009,-0.41337 -2.46e-4,-0.0354 0.01032,-0.21258 -2.48e-4,-0.0355 0.01088,-0.12998 -1.64e-4,-0.0236 0.01064,-0.16538 -0.0015,-0.20069 0.05027,-1.25207 0.03028,-0.73234 -9.07e-4,-0.1299 0.0209,-0.40155 0.01908,-0.64965 0.01016,-0.23628 0.0096,-0.30707 0.03936,-1.12199 0.0203,-0.47256 0.01148,-0.0472 -0.0122,-0.059 0.01056,-0.17728 -3.31e-4,-0.0472 0.01158,-0.0472 -4.96e-4,-0.0709 0.02064,-0.42525 0.01024,-0.22438 -8.25e-4,-0.1181 0.01072,-0.15357 0.0194,-0.60235 0.0104,-0.20078 -5.78e-4,-0.0827 0.01056,-0.17718 -4.14e-4,-0.0591 0.01072,-0.15358 -3.29e-4,-0.0472 0.0108,-0.14178 -5.78e-4,-0.0827 0.01966,-0.57874 0.0093,-0.36607 1.051286,0.0518 0.0708,-5e-4 0.09458,0.011 0.0236,-1.7e-4 0.0354,-2.4e-4 0.0827,-5.8e-4 0.12998,0.011 0.0118,-8e-5 0.850426,0.0295 0.0236,-1.6e-4 0.05908,0.0114 0.0236,-1.7e-4 0.756028,0.0302 0.224296,-10e-4 0.0472,-3.2e-4 0.05918,0.0114 0.0236,-1.6e-4 0.0354,-2.5e-4 0.0709,-4.9e-4 2.338686,0.0899 1.818933,0.0698 0.61425,0.0193 1.181183,0.0506 1.287297,0.0381 0.803227,0.0299 0.862227,0.0294 0.377792,-0.003 0.413373,0.009 2.468499,0.0773 2.444901,0.0772 2.456617,0.0655 1.653471,0.0474 0.803146,0.018 2.444717,0.0655 2.03144,0.0566 0.0945,-6.4e-4 0.53154,0.0201 2.24395,0.0552 0.0709,-5.2e-4 2.37385,0.0545 1.25182,0.0266 0.0473,-3.2e-4 0.059,-4e-4 1.11014,0.016 0.37779,-0.003 2.06677,0.0328 2.44456,0.0419 2.35008,0.0308 0.0945,-6.8e-4 2.45637,0.03 0,0 0.0472,-3.4e-4 0.0354,-2.4e-4 2.3027,0.008 0.0709,-4.8e-4 0.49605,0.0201 0.24798,-10e-4 1.71233,0.0116 0.76758,0.007 1.67682,0.012 0.15349,-10e-4 0.0237,-1.7e-4 0.0826,0.0112 0.0827,-5.6e-4 1.6887,0.0235 0.4369,-0.004 2.6924,0.005 0.70847,-0.004 0.0472,-3.2e-4 0.0827,-5.8e-4 0.11809,0.011 1.23995,0.004 2.468,0.006 2.45613,-0.005 0.40148,0.009 2.06652,-0.003 0.2125,-0.001 -9e-5,-0.0118 0.0472,-3.3e-4 9e-5,0.0118 2.18452,-0.004 2.46793,-0.005 5.03018,-0.0354 0,0 0.38957,-0.003 0.5904,-0.004 0,0 0.51959,-0.004 0.22439,-0.001 3.03444,-0.033 0.0355,-2.6e-4 2.45586,-0.029 2.45587,-0.0408 0.1772,-10e-4 0.1653,-0.001 0.36599,-0.003 1.75919,-0.036 0.0945,-6.5e-4 0.6611,-0.0165 1.66487,-0.0234 2.4912,-0.053 2.44399,-0.0526 2.46759,-0.0526 2.4439,-0.0526 2.1016,-0.0503 0.35412,-0.0142 0.54308,-0.0154 1.92442,-0.049 2.46751,-0.0644 0.0709,-4.8e-4 4.79307,-0.15158 2.45563,-0.0763 0.80281,-0.0292 1.64102,-0.047 2.45555,-0.088 2.05414,-0.0735 0.40139,-0.0146"
       id="ND-0" />
  </g>
</svg>
