<?xml version="1.0" encoding="UTF-8" standalone="no"?>
<!-- Created with Inkscape (http://www.inkscape.org/) -->
<?xml-stylesheet type="text/css" href="/stylesheets/state.css" ?>
<svg
   xmlns:dc="http://purl.org/dc/elements/1.1/"
   xmlns:cc="http://creativecommons.org/ns#"
   xmlns:rdf="http://www.w3.org/1999/02/22-rdf-syntax-ns#"
   xmlns:svg="http://www.w3.org/2000/svg"
   xmlns="http://www.w3.org/2000/svg"
   xmlns:sodipodi="http://sodipodi.sourceforge.net/DTD/sodipodi-0.dtd"
   xmlns:inkscape="http://www.inkscape.org/namespaces/inkscape"
   width="100%"
   height="300px"
   viewBox="0 0 158.01373 97.572586"
   id="svg12983"
   version="1.1"
   inkscape:version="0.91 r"
   sodipodi:docname="SD.svg">
  <defs
     id="defs12985" />
  <sodipodi:namedview
     id="base"
     pagecolor="#ffffff"
     bordercolor="#666666"
     borderopacity="1.0"
     inkscape:pageopacity="0.0"
     inkscape:pageshadow="2"
     inkscape:zoom="9.1366075"
     inkscape:cx="54.585221"
     inkscape:cy="57.518533"
     inkscape:document-units="px"
     inkscape:current-layer="layer1"
     showgrid="false"
     fit-margin-top="0"
     fit-margin-left="0"
     fit-margin-right="0"
     fit-margin-bottom="0"
     inkscape:window-width="1920"
     inkscape:window-height="1028"
     inkscape:window-x="0"
     inkscape:window-y="0"
     inkscape:window-maximized="1" />
  <metadata
     id="metadata12988">
    <rdf:RDF>
      <cc:Work
         rdf:about="">
        <dc:format>image/svg+xml</dc:format>
        <dc:type
           rdf:resource="http://purl.org/dc/dcmitype/StillImage" />
        <dc:title></dc:title>
      </cc:Work>
    </rdf:RDF>
  </metadata>
  <g
     inkscape:label="Layer 1"
     inkscape:groupmode="layer"
     id="layer1"
     transform="translate(-355.49033,-529.28995)">
    <path
       inkscape:connector-curvature="0"
       d="m 359.26574,529.4636 2.3977,0.10545 2.44481,0.0935 1.11014,0.0415 1.28739,0.0524 0.17716,0.0109 0.15349,-8.1e-4 0,0 0.83857,0.0309 0.81498,0.0312 0.35426,0.0101 1.27559,0.0524 1.16916,0.0294 0.0472,0.0115 0.28345,0.0103 0.1299,-6.8e-4 0.70868,0.0319 0.1181,-6.1e-4 1.22823,0.0409 0.44882,0.0212 0,0 0.61405,0.009 0.15356,0.0109 0.51965,0.009 0.15356,0.0109 0.98028,0.0304 0.38965,0.01 0.41336,0.01 0.43703,0.0212 0.38976,0.01 0.28344,0.0103 0.31886,0.01 0.42516,0.01 0.60232,0.0204 0.1063,-5.5e-4 0.94477,0.0307 0.42522,0.0215 0.7913,0.0194 0.1889,-9.9e-4 1.03928,0.03 0.99207,0.0303 0,0 0.41336,0.01 0.8148,0.0194 0.22446,0.0106 0.3896,-0.002 0.0237,-1.3e-4 0.11806,0.0112 0.2952,-0.002 0.17726,0.0109 0.41335,0.01 0.41326,0.01 0.61422,0.0203 0.2125,-10e-4 0.15356,0.0109 1.051,0.0183 0.42516,0.01 0.16536,0.0109 0.15349,-8e-4 0.25986,0.0104 0.0236,-1.2e-4 0.38976,0.01 0,0 0.1063,-5.5e-4 0.18896,0.0109 0.0827,-4.3e-4 0.15356,0.0109 0.0472,-2.5e-4 0.0708,-3.7e-4 0,0 0.38975,0.01 0.36615,0.01 0.0118,-6e-5 0.49596,0.009 0.1535,-8e-4 1.42903,0.0398 0.59046,0.009 0.41334,0.01 0.38976,0.01 0.0118,-6e-5 0.1062,-5.5e-4 0.23626,0.0106 0.0236,-1.2e-4 0.0354,-1.9e-4 0.2126,-10e-4 0,0 0.20076,0.0108 0.18889,-9.9e-4 0.0237,-1.2e-4 0.0236,-1.3e-4 0.1771,-9.3e-4 0.53152,0.0209 0.0472,-2.5e-4 0.47236,0.009 1.1927,0.0173 0,0 0.0355,-1.8e-4 0.12996,0.0112 0.0472,-2.5e-4 0.30706,0.0104 0.33059,-0.002 1.38177,0.0282 0.24788,-10e-4 0.42516,0.01 0.38976,0.01 0.1771,-9.2e-4 0.57865,0.009 0.0945,-5e-4 0.47236,0.009 0.0118,-6e-5 0.0236,-1.3e-4 0.1063,-5.5e-4 0.56691,0.0206 0.1299,-6.8e-4 0.28339,-10e-4 0.1653,-8.7e-4 0.36606,0.01 0.0237,-1.2e-4 0.46056,0.009 0.56685,0.009 1.02741,0.0182 0.28339,-10e-4 0.0944,0.0112 2.07846,0.0246 0.11806,0.0112 0.5078,-0.003 0.90919,-0.006 0.059,0.0115 0.1063,-5.5e-4 0.61404,0.009 0.1063,-5.6e-4 0.307,-0.002 0.50786,0.009 0.30699,-0.002 0.94472,0.0187 0.3661,-0.002 0.0236,0.0118 0.49588,-0.003 0.0591,-3.1e-4 0.0944,-5e-4 0.1536,-8e-4 0.34246,0.01 0.0708,-3.7e-4 0.69675,0.008 0.1063,-5.6e-4 2.38528,0.011 0.0709,-3.7e-4 0.24796,0.0106 0.1654,-8.6e-4 0.3306,-0.002 0.0708,-3.8e-4 0.88565,0.007 0.2598,-10e-4 1.31075,0.006 0.80305,0.008 0.1535,-8e-4 0,0 0.23616,0.0106 0.57853,-0.0148 0.24806,0.0106 1.13364,0.006 0.4487,-0.003 0,0 2.29088,0.0117 0.2479,-10e-4 0.70849,-0.003 0.6376,-0.003 0.11816,0.0112 0.0827,-4.3e-4 0.20069,-10e-4 2.29083,0 0.16536,0.0109 0.0236,-1.2e-4 0.1771,-9.3e-4 0.0119,-6e-5 2.0429,0.0128 0.37779,-0.002 0.2008,-0.001 0.614,-0.003 0.0354,-1.9e-4 0.48409,-0.003 0.29526,0.0103 1.25167,-0.006 0.7793,-0.003 1.68863,0.003 0.81476,0.008 1.74758,-0.009 0.0119,-6e-5 0,0 0.0354,-1.8e-4 0.59039,-0.003 0.4841,-0.003 0.42501,-0.0139 1.19259,-0.006 0.4369,-0.003 1.88928,-0.009 0.0591,-3.1e-4 0.81468,-0.003 0.1181,-6.1e-4 0.8148,-0.003 0.30692,-0.0133 0.1417,-7.4e-4 0.6612,-0.003 0,0 0.53138,-0.003 0.4015,-0.002 0.27144,-0.0133 0.1535,-8e-4 0.3543,-0.002 0.70848,-0.003 0.0118,-6e-5 0.1535,-8e-4 0.0236,-1.3e-4 0.21254,-0.013 1.96,-0.022 0.0945,-4.9e-4 0.0826,-0.0122 1.72392,-0.0208 0.63759,-0.003 1.33432,-0.0187 0.0236,-1.2e-4 0.4723,-0.003 0.68488,-0.003 0.4841,-0.003 0.49582,-0.0146 0.1654,-8.7e-4 0.2007,-10e-4 0.4015,-0.002 0.059,-3.1e-4 0.57853,-0.0148 1.21612,-0.0181 0.1653,-8.6e-4 0.4488,-0.003 0.118,-6.1e-4 0.49598,-0.003 1.84192,-0.0214 0.60228,-0.003 0.35414,-0.0136 0.0118,-6e-5 0.85019,-0.003 0.63753,-0.0151 0.59033,-0.0148 1.86549,-0.0453 1.41686,-0.0311 0.0118,-6e-5 0.21249,-10e-4 0,0 1.40499,-0.0429 0.63754,-0.0151 1.22796,-0.0299 0.41323,-0.0139 0.1653,-8.6e-4 0.3896,-0.002 1.51129,-0.0432 0.54313,-0.0145 1.38136,-0.0308 0.14164,-0.0127 0.36603,-0.0136 0.57842,-0.0148 0.63763,-0.0151 1.2396,-0.042 0.57854,-0.0148 1.21609,-0.0417 0.47223,-0.0142 0,0 0.53133,-0.0146 0.18884,-0.0127 0.0354,-1.9e-4 0,0 0.0118,-6e-5 0.0118,-6e-5 0.0236,-1.2e-4 2.43209,-0.0835 0,0 0.69657,-0.0272 0.1299,-6.9e-4 1.65276,-0.0678 1.64103,-0.0559 0.53128,-0.0263 0.29502,-0.0369 1.64108,-0.0442 0.37783,-0.0139 0.0354,-0.0121 0.41323,-0.0139 0,0 0.22434,-0.013 0.96805,-0.0287 0.44858,-0.026 0.1181,-6.3e-4 0.70837,-0.0272 0.17709,-9.2e-4 0,0 0.0945,-0.0125 0.66107,-0.0271 0.11804,-0.0124 0.0118,-6e-5 0,0 0.14164,-0.0124 0.54311,-0.0145 0.60208,-0.0269 0.15344,-0.0127 0.059,-3.3e-4 0.41324,-0.0139 0.40143,-0.0139 0.41323,-0.0139 0.41324,-0.0139 0.40133,-0.014 0.22432,-0.013 0.1889,-9.9e-4 0.20074,-0.0129 0.20064,-0.013 0.27154,-0.0133 -0.0104,0.25986 0.0125,0.14164 2.4e-4,0.0472 -0.0469,0.0712 1.9e-4,0.0354 3.7e-4,0.0708 0.0121,0.0355 0.0239,0.0354 0.0118,0.0236 6e-5,0.0118 0.0118,-6e-5 -0.0469,0.083 6e-5,0.0118 -0.0118,0.0236 -0.0115,0.0708 0.0124,0.11804 0.001,0.2126 -0.0114,0.0826 -0.047,0.0476 -0.0103,0.28346 0.0242,0.12967 -0.0463,0.15375 2.4e-4,0.0473 0.036,0.0941 -0.01,0.42516 0,0 4.9e-4,0.0945 -0.0348,0.0948 -0.0233,0.059 0.0124,0.12984 -0.0342,0.21268 -0.0582,0.1657 -0.0118,0.0118 0,0 -0.0118,0.0118 -0.0469,0.0829 -0.11771,0.0715 -0.0706,0.0593 -0.0935,0.16581 -0.10519,0.21314 -0.0118,0.0118 -0.0587,0.0829 -0.0234,0.0355 -0.0118,0.0118 -0.0469,0.0475 -0.0469,0.0357 -0.14119,0.0954 -0.047,0.0475 -0.0233,0.0591 -0.023,0.0944 -0.10519,0.21315 -0.0348,0.10648 -0.0118,0.0236 0,0 -0.0112,0.10626 1.3e-4,0.0237 -0.0348,0.12999 6e-5,0.0119 -0.18708,0.36698 -0.16418,0.21347 -0.0236,0.0236 -0.10581,0.095 -0.0587,0.0712 -0.0236,0.0119 0,0 -0.0118,0.0118 -0.27061,0.19032 -0.47093,0.26226 -0.64702,0.47569 -0.10587,0.0833 -0.11682,0.22491 -0.0703,0.10668 -0.43516,0.33288 -0.0236,0.0118 -0.10585,0.0833 -0.18816,0.14268 -0.0236,0.0237 -0.47036,0.39216 -0.0118,6e-5 1.2e-4,0.0236 -0.0118,6e-5 -0.0118,0.0118 -0.0118,0.0118 -0.0823,0.0358 -0.0588,0.0594 -0.0118,0.0118 -0.082,0.11854 -0.0582,0.1538 -0.0808,0.33103 -0.0344,0.20088 -0.0115,0.0473 -0.0112,0.12996 -0.0817,0.16572 0,0 -0.0112,0.0944 0.0832,0.0942 0.0833,0.0939 0.0593,0.0587 0.0475,0.0587 0.0118,0.0119 0.0594,0.0705 0.11891,0.15288 0.70098,0.83475 0.0591,0.0233 0.10685,0.10574 0.19021,0.24691 0.0835,0.15316 0.321,0.39973 0.10712,0.17654 0.16716,0.35343 0.024,0.0707 0.13151,0.30642 0.0478,0.11774 0.0124,0.10624 0.0121,0.0472 0.0952,0.14122 0.0363,0.18879 0.0957,0.22382 0.0239,0.0472 0.15429,0.15269 0.2737,0.39997 0.1548,0.2472 0.0236,0.0236 0,0 0.0118,0.0236 0.0357,0.047 0.0118,-6e-5 0.1189,0.15288 0,0 0.0357,0.0469 0.0712,0.0587 0.0118,0.0119 0.0475,0.0351 0.0476,0.0469 0.0709,0.0233 0.0945,-4.9e-4 0.10614,-0.0124 0.16558,0.0345 0.27132,-0.0369 0.0118,-6e-5 0,0 0.12996,0.0112 0.0118,0.0118 0.18894,-0.0127 0.0236,-1.2e-4 0.10636,0.0112 0.14176,0.011 0.0118,-7e-5 0.0118,0.0118 0,0 0.30755,0.1047 0.33165,0.19906 0.11859,0.0938 0.1538,0.0582 0.18946,0.10521 0.33137,0.12816 0.11806,0.0112 0.17745,0.0464 0.18927,0.0699 0.2845,0.21111 0.11842,0.0584 0.20155,0.16424 0.0712,0.0588 0.14313,0.29445 0,0 0.024,0.059 0.0478,0.12966 0,0 0.0836,0.16485 0.10725,0.20015 0.0118,0.0118 0.0118,0.0237 0.0122,0.0826 0.0121,0.0473 0.0121,0.0472 0.0239,0.0472 0.10674,0.0821 0.0717,0.15313 0.0118,0.0236 0.0121,0.059 0.0121,0.0473 0.0358,0.0351 0.0118,0.0118 0.0118,0.0118 0,0 0.0242,0.0945 0.0127,0.18884 3e-4,0.059 0.0127,0.14162 1.8e-4,0.0355 0.0139,0.40134 0.0514,0.81454 0.04,0.8736 0.0124,0.11804 2.5e-4,0.0472 0.0272,0.68476 0.039,0.70831 4.3e-4,0.0826 0.0275,0.74377 2.4e-4,0.0473 0.0512,0.76723 2.4e-4,0.0472 0.0136,0.36604 0.0139,0.38953 1.2e-4,0.0237 0.0121,0.0472 0.0136,0.35413 2.5e-4,0.0473 0.013,0.21244 9.9e-4,0.1889 0.0793,1.5937 2.4e-4,0.0473 0.0139,0.41324 0.0786,1.47561 0.0124,0.10613 0.0139,0.40143 3.7e-4,0.0709 0.11873,2.37278 1.2e-4,0.0236 1.9e-4,0.0354 8.6e-4,0.1653 0.0127,0.15354 2.4e-4,0.0472 5.6e-4,0.10629 0.0251,0.2951 0.0257,0.41308 -0.0115,0.0355 0.0654,1.18047 0.0142,0.43683 0.0139,0.40144 0.0792,1.6173 6e-5,0.0118 0,0 0.10733,2.44368 6e-5,0.0119 0.0142,0.47224 0.0133,0.28332 0.0251,0.28327 0.027,0.61387 0.0136,0.33054 3.1e-4,0.0591 0.0133,0.29514 2.6e-4,0.0472 0.026,0.48397 0.0396,0.81459 0.0269,0.64928 8.6e-4,0.1653 0.0136,0.34243 0.0135,0.31873 0.0127,0.15344 0.0134,0.27154 4.3e-4,0.0826 2.5e-4,0.0473 0.0136,0.35414 0.0121,0.0591 0.0136,0.35413 1.8e-4,0.0354 0.0139,0.37782 2.5e-4,0.0472 0.0136,0.31874 1.8e-4,0.0355 2.5e-4,0.0472 0.0251,0.30688 4.3e-4,0.0827 0.0139,0.37774 1.2e-4,0.0236 0.0139,0.40144 0.0656,1.22776 0.107,2.40828 0,0 0.0817,2.0542 2.5e-4,0.0472 0.0133,0.30704 2.5e-4,0.0472 0.0121,0.059 0.0136,0.36602 0.0121,0.059 0.002,0.3306 0.0121,0.0591 0.0136,0.35413 3.1e-4,0.0591 0.0133,0.30693 1.2e-4,0.0236 0.0261,0.43678 2.4e-4,0.0472 0.0136,0.35424 2.5e-4,0.0472 0.0792,1.5819 0,0 2.5e-4,0.0472 0.0393,0.76741 0.0539,1.25133 0.0139,0.38964 0.0396,0.8145 0,0 0.0935,2.04234 0.0139,0.41323 0.0922,1.82984 3.7e-4,0.0708 0.0263,0.53127 6e-5,0.0118 6e-5,0.0118 1.2e-4,0.0236 0.0127,0.16524 0.10632,2.26667 -1.6055,0.0792 -1.21593,0.0536 -0.1653,8.7e-4 6.6e-4,0.1299 0.0238,0.0236 0.0711,0.0469 0.0588,-0.0357 0.0236,-1.2e-4 0.095,0.0939 0.0237,0.0236 0.0956,0.23559 -0.10569,0.0951 0.0365,0.20052 0.0121,0.0473 -0.0585,0.1302 -0.0469,0.0475 -0.18797,0.17809 -0.0118,0.0118 0,0 -0.0464,0.17734 0.0122,0.0355 0.0121,0.0354 0.17914,0.38877 0.0236,0.0236 0.0709,0.0233 0,0 0.0355,0.0115 0.0944,-0.0124 0.0237,-1.2e-4 0.0826,-4.3e-4 0.0472,-2.5e-4 0,0 0.0119,-6e-5 0.0829,0.0704 0.0118,0.0118 0.0118,-6e-5 6e-5,0.0118 0.0118,0.0119 6e-5,0.0118 6e-5,0.0118 -0.0115,0.059 -0.0115,0.0354 -0.0466,0.13015 0.10654,0.0467 6e-5,0.0118 0.11863,0.11739 0.11897,0.16478 0,0 0.083,0.0587 0.0118,0.0118 0.33183,0.23447 0.12978,-0.0242 0.0118,-0.0119 -6e-5,-0.0118 -1.3e-4,-0.0236 0,0 0.0118,-6e-5 -6e-5,-0.0118 0.0118,-7e-5 0.0594,0.0351 0.0236,-1.2e-4 7e-5,0.0118 0.0236,0.0237 6e-5,0.0118 0.036,0.14151 0.0121,0.0472 0.0121,0.0472 6e-5,0.0118 0.0252,0.27147 2.5e-4,0.0473 -0.0116,0.0354 1.3e-4,0.0236 6e-5,0.0118 -0.0938,0.10681 -0.0118,0.0118 0.0127,0.16524 0.0251,0.28325 0.0242,0.10618 0.0236,-1.2e-4 0,0 0,0 6e-5,0.0118 7e-5,0.0118 6e-5,0.0118 0,0 0,0 -0.0233,0.0354 -0.0233,0.0473 -0.0351,0.0475 -0.0585,0.10661 -0.0118,0.0118 0,0 -0.0469,0.0475 0.0484,0.22415 0.0963,0.33009 0.0714,0.11773 3.7e-4,0.0708 0,0 0,0 -0.0233,0.0709 1.2e-4,0.0236 -0.0118,0.0236 -0.0118,0.0236 -0.0347,0.14188 0,0 -0.0118,0.0118 -0.20017,0.11915 -0.16499,0.0599 -0.0354,0.0121 -0.0118,0.0118 -0.0354,0.0122 -6e-5,-0.0119 -0.0476,-0.0469 -0.16524,0.0127 -0.0118,6e-5 -0.0708,-0.0115 -0.0237,-0.0118 -0.0118,6e-5 -0.0118,6e-5 -0.0118,-0.0236 -0.0118,6e-5 -1.2e-4,-0.0236 -0.0118,-0.0236 -0.0118,7e-5 -0.0354,-0.0234 -0.14151,0.0363 -0.0118,0.0236 0.0239,0.0354 0.0118,0.0236 0,0 0.0121,0.0354 0.0124,0.0827 0.0372,0.34221 -0.0584,0.11841 -0.0472,2.5e-4 -2.4e-4,-0.0472 -0.0118,-0.0118 -0.0588,0.0711 0.0363,0.15332 0.0476,0.0352 0.11788,-0.0243 0.17801,0.15257 0.0947,0.0585 0.0827,0.0232 0.0708,-3.6e-4 0.0355,-0.0239 0.0354,0.0233 0.0239,0.0354 6e-5,0.0118 0.0127,0.17714 -0.0112,0.10626 -0.12953,0.0715 -0.11798,0.0242 -0.0118,0.0118 -0.10546,0.14227 0.0118,0.0236 0.036,0.12971 0.0121,0.059 0.17815,0.19987 0,0 0.0118,-7e-5 0.0236,-1.2e-4 0.0355,-0.0239 0.0115,-0.0355 0.0236,-0.0236 0.14164,-0.0126 0.0708,0.0233 0.0945,0.0112 0.0942,-0.0596 0.18939,0.0936 0.0949,0.082 0,0 0.0239,0.0709 0.0354,0.0115 0.0236,-1.2e-4 0.11797,-0.0242 0,0 0.0827,-0.024 0.15324,-0.0482 0,0 0,0 0.0118,-0.0118 0.0823,-0.0829 0.0354,-1.8e-4 0.18887,-0.0246 7e-5,0.0118 0.17734,0.0464 0.0118,0.0118 0.0118,0.0118 0,0 0.0242,0.10618 0.0603,0.21219 0.0357,0.0706 3.1e-4,0.059 -0.0463,0.17734 10e-4,0.248 0.036,0.11791 0.0829,0.0351 0.0237,-1.4e-4 0.0475,0.0351 0.0118,0.0236 1.2e-4,0.0237 -0.0115,0.0354 4.4e-4,0.0826 4.9e-4,0.0945 -0.0114,0.0827 0,0 0,0 4.9e-4,0.0944 -0.0112,0.0945 6.7e-4,0.12989 0.0368,0.25961 0.0239,0.0708 0.0118,0.0118 0.10685,0.10573 0.0236,-1.2e-4 0.0708,-0.0239 0.10646,0.0466 0.15474,0.23539 0.0243,0.12978 0.0242,0.11788 0.0121,0.0473 0.0357,0.0351 0.059,0.0233 -0.0462,0.20095 -0.17566,0.27252 -0.0703,0.11847 -0.1645,0.15436 -0.0466,0.10655 0,0 0,0 0.0121,0.0472 0.14189,0.0346 0.0239,0.0355 0.0121,0.0826 0,0 0,0 0,0 1.2e-4,0.0236 0,0 -0.0106,0.22446 1.3e-4,0.0236 -0.058,0.201 -0.0467,0.0948 -0.0469,0.0357 -0.0942,0.0361 -0.0472,-0.0115 -0.0593,-0.0352 -0.0824,0.0359 -0.18784,0.20169 -0.0351,0.0475 3.8e-4,0.0709 -0.0118,6e-5 0,0 0,0 -0.0237,0.0236 -0.23573,0.072 -0.0709,3.7e-4 -0.0711,-0.0351 -0.0354,1.9e-4 -0.15233,0.2252 0.0239,0.0589 0,0 0.0354,0.0233 -6e-5,-0.0118 0.0354,-1.8e-4 0.0473,-0.0121 0.0475,0.0706 0,0 0.0118,0.0236 -0.0348,0.13009 -0.0352,0.0593 -0.0115,0.0472 0.024,0.0473 0.0118,0.0236 0.0118,0.0236 0.0118,0.0118 0.0118,-7e-5 0.15411,0.11731 0.0236,0.0118 0.059,0.0115 6e-5,0.0118 0.0713,0.0824 0.0118,0.0118 0.0118,0.0118 0.0596,0.12957 0.0119,0.0118 -0.0116,0.0708 -0.0115,0.0591 0,0 -0.023,0.0944 -0.0468,0.083 0,0 -0.0118,0.0118 -0.0118,0.0118 0,0 -0.0473,0.0121 -0.0472,0.0239 -0.0118,6e-5 -0.0827,0.0122 -0.0587,0.0476 -0.0584,0.1065 0.0239,0.0709 4.4e-4,0.0827 -0.0821,0.11843 6e-5,0.0118 -0.0118,6e-5 -0.0708,0.024 6e-5,0.0118 0,0 0.0121,0.0708 0.095,0.1294 0.10656,0.0466 0.0945,-0.0124 0.0236,0.0118 0.0475,0.0706 0.0603,0.24769 -0.082,0.14213 -0.0581,0.1656 -0.023,0.10632 -0.0236,0.0237 -0.0944,0.0242 -0.0939,0.10669 2.5e-4,0.0473 0.083,0.0704 2.5e-4,0.0473 -0.0115,0.0354 -0.0237,0.0237 -0.0236,1.2e-4 -0.0236,-0.0236 -0.0239,-0.0591 -0.0472,-0.0233 -0.0355,0.0121 -0.31712,0.32057 3.1e-4,0.059 2.4e-4,0.0472 0.0239,0.0591 0.0603,0.22398 0.0121,0.0473 0,0 0.0242,0.0944 -0.0354,0.0239 -0.0827,-0.0113 -0.0118,0.0236 1.2e-4,0.0237 0.0833,0.0939 0.0708,-0.0239 0.14207,0.0702 0.0597,0.1177 3e-4,0.0591 -0.0234,0.0354 -0.1417,7.5e-4 -0.11781,0.036 1.2e-4,0.0236 0.0475,0.0706 0.013,0.21244 -0.11747,0.1187 -0.0472,0.0121 -0.0236,0.0119 -0.0349,0.10648 -0.0109,0.17716 1.3e-4,0.0236 0.0836,0.15306 0.0236,0.0118 0.0351,-0.0358 0.0115,-0.0354 0.0119,-0.0118 0.0236,0.0236 1.9e-4,0.0354 -0.0464,0.18925 -0.0233,0.0354 -0.10592,0.0714 -0.059,3e-4 -0.0233,0.0473 0.0121,0.059 0.0475,0.0588 0.0473,0.0233 0.0121,0.0354 6e-5,0.0118 -0.0233,0.0472 0,0 -0.0119,0.0118 6e-5,0.0119 -0.0118,0.0118 -0.0472,0.0121 -0.0118,-0.0118 -0.0236,1.2e-4 -0.0118,-0.0118 0,0 -0.0239,-0.0354 -0.024,-0.0354 0,0 -0.0118,6e-5 -0.0236,1.2e-4 -0.0118,6e-5 6e-5,0.0118 -0.0233,0.0473 -0.0115,0.0355 7.4e-4,0.14169 -0.0591,0.0239 -0.0239,-0.0354 -0.0953,-0.15299 -0.17732,-0.0228 -0.0118,0.0118 -0.0236,0.0119 -0.0112,0.10626 0.0953,0.14121 1.2e-4,0.0236 -0.07,0.15386 -0.0584,0.0948 -0.0233,0.0354 -0.10591,0.0715 -0.0827,-0.0115 -0.0118,0.0236 0.0124,0.12984 0.0591,0.0115 0.0118,-6e-5 0.0239,0.0353 7e-5,0.0118 0,0 0,0 3e-4,0.0591 -0.0115,0.0472 -0.0112,0.0945 -0.046,0.22454 6e-5,0.0118 -0.14089,0.15425 -0.0231,0.11822 0,0 -0.0118,0.0118 0,0 -0.0118,6e-5 -0.0354,1.8e-4 -0.16549,-0.0345 -0.0236,-0.0118 0,0 -0.0824,0.0359 -0.0348,0.13008 -0.0936,0.16578 6e-5,0.0118 -0.0587,0.0594 -0.0118,0.0118 -0.0118,7e-5 -0.0355,1.8e-4 0,0 1.2e-4,0.0236 -0.0115,0.0472 0.0246,0.18877 0,0 0.0832,0.11766 0.0945,-0.0124 0.0118,-0.0118 0.0118,-0.0118 0.0118,-6e-5 0.0118,0.0118 0.0118,-6e-5 0.0118,0.0236 0.0239,0.0709 -0.0233,0.0354 -0.10618,0.0242 -0.0941,0.0715 -0.0348,0.13009 -0.0584,0.14191 -0.0351,0.0358 -0.0469,0.0711 7e-5,0.0118 0.0118,0.0118 0,0 0.0118,0.0237 0,0 6e-5,0.0118 0.15491,0.27069 0.11798,-0.0242 0.0354,0.0115 0.0133,0.30702 -0.0466,0.13006 -0.0588,0.0358 -0.0115,0.0826 0,0 0,0 0.0236,0.0118 6e-5,0.0118 0.21329,0.12879 0.0947,0.0349 0.0119,-6e-5 0.0118,-7e-5 0.0118,-6e-5 0.0118,-6e-5 0,0 0.0118,0.0118 0.0118,0.0118 6e-5,0.0118 -0.0118,0.0236 0.0118,0.0236 0.0354,0.0233 0.0827,-4.3e-4 0.0236,-0.0118 0.0587,-0.0711 0.0236,-0.0118 0.0355,0.0115 0.0593,0.0587 0.0242,0.10617 -0.0115,0.0826 0,0 0.0945,-4.9e-4 0.13002,0.0231 0.20132,0.11694 0,0 0.0118,-6e-5 6e-5,0.0118 0.036,0.11792 1.8e-4,0.0354 -0.0233,0.0355 -0.0587,0.0829 1.2e-4,0.0236 0.0472,0.0116 0.0827,0.0115 0.0236,-0.0237 -6e-5,-0.0118 0.0115,-0.059 0.0233,-0.0354 0.0236,-0.0236 0.0236,0.0118 0.14262,0.17635 6e-5,0.0118 0.0951,0.11762 -0.0118,0.0236 -0.0472,2.4e-4 -0.0236,0.0236 0.0124,0.12984 0.0118,0.0118 0.059,-3e-4 0.18834,-0.10729 0.0709,-3.8e-4 0.0118,-7e-5 6e-5,0.0118 0.0118,-6e-5 0.10705,0.14116 4.9e-4,0.0945 4.9e-4,0.0945 0,0 0,0 -0.0118,0.0236 0.0118,0.0236 6e-5,0.0118 0.0118,0.0118 0,0 0.0593,0.0469 0.0118,0.0237 0.0118,-6e-5 0.0119,0.0118 0.0118,-6e-5 0.0472,0.0233 0.0708,0.0233 0.0118,0.0118 0.22588,0.28223 0.0239,0.0709 6e-5,0.0118 1.9e-4,0.0354 0,0 -0.0115,0.0354 -0.0114,0.0827 -0.0351,0.0593 -0.0473,0.0239 -0.0589,0.0239 -0.0945,0.0124 -0.0354,0.024 -0.0118,0.0118 -0.0118,0.0118 1.2e-4,0.0236 1.2e-4,0.0236 1.2e-4,0.0236 0.0239,0.0709 0.0121,0.0354 0.0118,0.0118 0.0236,0.0118 0.0119,0.0118 0,0 0.0472,-0.0121 0.0468,-0.0829 0.0118,-0.0118 0.0588,-0.0476 0.0469,-0.0357 0.0827,0.0113 0.0711,0.0469 0.0118,0.0118 6e-5,0.0119 0.0239,0.0354 0.0836,0.16486 0.0239,0.059 0.0839,0.24757 1.9e-4,0.0354 -0.0234,0.0591 0.0122,0.0354 0.0236,0.0236 0.059,0.0233 0.0475,0.047 0.0121,0.0472 -0.0233,0.0472 0,0 1.3e-4,0.0236 -0.0118,0.0237 0.0118,0.0118 6e-5,0.0118 0.0118,0.0118 6e-5,0.0118 0.0712,0.0469 0.0118,0.0118 0.059,0.0115 0.0355,0.0115 0.0118,-6e-5 0.0118,0.0237 0,0 6e-5,0.0118 1.9e-4,0.0354 -0.0233,0.0354 7e-5,0.0118 -0.0473,0.0239 -0.0826,0.0121 -0.0827,-0.0233 -0.0236,0.0237 -0.0114,0.0827 6e-5,0.0118 0.0121,0.0709 0.0124,0.11793 0,0 0.0121,0.0709 0.0712,0.0351 0.36606,0.01 0.0133,0.27154 0.002,0.29519 -0.0345,0.17728 0.0239,0.0827 -0.0233,0.0708 -0.22378,0.11927 -0.035,0.083 0.0597,0.1296 0.14201,0.0581 0.0825,-0.0239 0.0475,0.0351 0,0 0,0 0.0954,0.16479 -0.023,0.10642 -0.0469,0.0593 0.0122,0.0827 1.9e-4,0.0354 0.0475,0.047 0.24812,0.0224 0.12966,-0.0479 0.27196,0.0694 -0.33014,0.10802 -0.12941,0.095 -0.20019,0.0956 -0.059,0.0121 -0.22446,-0.0106 -0.24831,-0.0579 -0.0947,-0.0466 -0.0236,-0.0236 0,0 -0.0476,-0.0351 -0.15455,-0.2 -0.0358,-0.0823 -0.036,-0.10612 -0.0479,-0.10606 -0.0953,-0.15299 -0.083,-0.0823 -0.0593,-0.047 -0.13033,-0.082 -0.0709,-0.0115 -0.14189,-0.0348 -0.0236,-0.0118 -0.0236,1.4e-4 -0.15343,0.0128 0,0 -0.0236,0.0119 -0.12965,0.0478 -0.059,0.0239 -0.0473,0.0239 -0.0351,0.0358 -0.0118,6e-5 -0.22323,0.22547 -0.0118,0.0118 -0.0236,0.0118 -0.0587,0.0357 -0.0591,0.024 -0.0471,0.0239 -0.0354,1.8e-4 -0.0118,0.0118 -0.0355,1.8e-4 -0.0826,4.5e-4 -0.0354,1.8e-4 -0.0355,1.8e-4 -0.0236,1.2e-4 -0.0236,-0.0118 -0.0354,2.1e-4 -0.0591,-0.0233 -0.30805,-0.19918 -0.0478,-0.0941 -0.0838,-0.20037 -0.036,-0.1297 -0.0123,-0.0826 -10e-4,-0.2362 -0.0118,-0.0236 -0.0242,-0.0945 -0.0121,-0.0472 -0.0121,-0.0354 -6e-5,-0.0118 -6e-5,-0.0118 -0.0358,-0.0706 -0.0236,-0.0236 -0.0239,-0.0354 -0.0118,-0.0236 -0.0833,-0.0941 -0.0475,-0.0469 -0.0357,-0.0352 -0.0118,-0.0118 0,0 0,0 -0.13032,-0.082 -0.0712,-0.047 -0.0354,-0.0115 -0.0118,-0.0118 -0.34301,-0.1163 -0.0118,-0.0118 -0.083,-0.0469 -0.0236,-0.0236 -0.0236,-0.0236 0,0 -0.0712,-0.0706 -0.26159,-0.34104 -0.1902,-0.24701 -0.0714,-0.11773 -0.0361,-0.10601 -6e-5,-0.0119 -0.0245,-0.18877 -3.7e-4,-0.0708 0.0349,-0.13009 0.0466,-0.0948 0.17543,-0.3197 0.0233,-0.0354 0.0233,-0.0355 0.047,-0.0711 0.0118,-0.0236 0.0353,-0.0239 0.0351,-0.0358 0.0233,-0.0354 -1.3e-4,-0.0236 0.0113,-0.0945 -7e-5,-0.0118 -3e-4,-0.059 -0.0122,-0.0354 -0.0829,-0.0824 -0.0118,7e-5 0,0 -0.11848,-0.0702 -0.59132,-0.17411 -0.059,-0.0233 -0.0355,1.9e-4 -0.0708,3.7e-4 -0.0472,2.4e-4 -0.0827,0.0123 -0.059,0.0121 -0.0355,1.8e-4 -0.059,0.0121 -0.0236,0.0119 -0.0118,7e-5 -0.0118,6e-5 -0.0352,0.0475 -0.25934,0.0723 -0.25986,-0.0104 -0.0118,6e-5 -0.0236,1.3e-4 -0.0355,-0.0115 -0.0354,1.8e-4 -6e-5,-0.0118 -0.24824,-0.046 -0.1183,-0.0585 -0.0476,-0.0469 -6e-5,-0.0118 -0.0239,-0.059 0.0218,-0.34262 -0.013,-0.22423 -0.0363,-0.17702 -0.0951,-0.1411 -0.15381,-0.0582 -0.13008,-0.0348 -0.12996,-0.0112 -0.0826,4.3e-4 -0.28389,-0.093 -0.14207,-0.0701 -0.22526,-0.16413 -0.26013,-0.0812 -0.29526,-0.0103 -0.24874,-0.14039 -0.0236,-0.0118 -0.0355,-0.0233 -0.0118,6e-5 -0.0593,-0.0352 0,0 -0.0118,6e-5 -0.0236,-0.0236 -0.0118,0.0118 0,0 -0.27124,0.0724 -0.0824,0.0358 -0.11753,0.10692 -0.12929,0.095 -0.0942,0.0597 -0.1532,0.0599 -0.14163,0.0124 -0.11816,-0.0112 -0.0472,-0.0233 -0.0239,-0.0471 -0.024,-0.0591 -3.8e-4,-0.0708 0.0812,-0.27204 -3.7e-4,-0.0708 -1.9e-4,-0.0355 -0.0118,-0.0236 -0.16715,-0.35332 -0.14232,-0.11738 -0.083,-0.0469 -0.0118,6e-5 -0.0354,1.8e-4 -0.0118,-0.0119 0,0 -0.22414,0.0485 -0.20082,-0.0226 -0.27172,-0.0222 -0.12996,-0.0112 -0.059,3.3e-4 -0.0236,-0.0118 -0.0827,-0.0233 -0.0712,-0.0587 -0.40195,-0.1042 -0.27185,-0.0457 -0.0236,1.2e-4 -0.1063,5.7e-4 -0.15336,0.0245 -0.12965,0.0478 0,0 -0.22418,0.0248 -0.1063,5.7e-4 -0.21254,0.013 -0.4017,-0.0569 -0.0119,6e-5 0,0 -0.0357,-0.0351 -0.0239,-0.0353 -0.0118,-0.0119 -0.0478,-0.10596 -3.1e-4,-0.0591 -0.0118,-0.0236 -0.0118,-0.0236 0,0 -0.0119,-0.0236 -0.0593,-0.0824 -0.0357,-0.0469 -0.0119,-0.0236 -0.0236,-0.0236 -0.1425,-0.15276 -0.20135,-0.10525 -0.0711,-0.047 -0.0591,-0.0233 -0.10626,-0.0112 -0.14176,-0.0111 -0.18919,-0.0345 -0.0236,1.3e-4 -0.23616,-0.0106 -0.0945,-0.023 -0.11846,-0.0703 -0.0239,-0.0354 -0.0357,-0.0706 -0.0246,-0.18878 -6e-5,-0.0118 -0.0118,-0.0118 -0.0121,-0.0472 -1.2e-4,-0.0236 -0.0714,-0.12952 -0.0121,-0.0473 0.01,-0.38965 -0.0239,-0.0591 -0.0118,-0.0118 -0.0237,-0.0118 -0.11831,-0.0584 -0.13026,-0.0703 -0.0473,-0.0233 -0.0118,6e-5 -0.0708,-0.0233 -0.2247,-0.0579 -0.0118,6e-5 -0.0354,1.9e-4 -0.0118,6e-5 -0.0942,0.0479 -0.0118,6e-5 0,0 -0.22406,0.0484 -0.17732,-0.0227 -0.0472,-0.0115 -0.0354,1.8e-4 -0.20098,-0.0343 -0.23739,-0.24675 -0.0237,-0.0236 -0.0236,-0.0118 -0.0594,-0.0352 -0.0118,-0.0118 -0.0472,0.0121 -0.047,0.0476 -0.14132,0.0716 -0.0236,0.0118 -0.10601,0.0361 -0.0355,0.0121 -0.0118,0.0118 -0.0351,0.0475 0,0 0,0 0,0 -0.0471,0.0239 -0.10599,0.0597 -0.10618,0.0242 -0.37755,0.0493 -0.0473,-0.0115 -0.10656,-0.0702 -0.0356,-0.0234 -0.14232,-0.11726 -0.0357,-0.0588 -0.35402,0.0372 -0.10636,-0.0112 -0.10666,-0.0702 -0.0118,-0.0118 0,0 -0.059,-0.0115 -0.0118,6e-5 0,0 -0.0355,0.0121 -0.0118,7e-5 -0.0472,0.0121 0,0 -0.0118,0.0118 -0.0118,6e-5 -0.0706,0.0357 -0.11725,0.14232 -0.0351,0.083 -0.0115,0.0472 -0.12917,0.14238 7e-5,0.0118 -0.14109,0.11884 -0.059,0.0239 -0.21253,0.013 -0.0827,-0.0232 -0.0475,-0.0351 -0.0709,-0.0233 -0.17722,-0.0228 -0.29514,0.0133 -0.14188,-0.0347 -0.0948,-0.0466 -0.0711,-0.0469 -0.0239,-0.059 -0.0948,-0.0348 -0.22366,0.14288 -0.22385,0.0838 -0.0472,0.0122 -0.0591,0.0239 -0.16512,0.0363 -0.11798,0.0242 -0.0354,1.8e-4 -0.29505,0.0251 -0.26005,-0.0457 -0.36656,-0.10438 -0.15386,-0.0699 -0.083,-0.047 -0.0118,6e-5 -0.1653,8.6e-4 -0.11791,0.0361 -0.0472,0.0121 -0.0118,0.0118 -0.0824,0.0358 -0.0705,0.0357 -0.15323,0.0718 -0.23548,0.11933 -0.0706,0.0357 -0.0708,0.0239 -0.0824,0.0358 -0.0472,0.0121 0,0 -0.16511,0.0364 -0.37777,0.0256 -0.30712,-0.0221 -0.40198,-0.0924 -0.0118,6e-5 -0.61418,-0.0321 -0.0708,0.0121 -0.2244,0.001 -0.20076,-0.0106 -0.29569,-0.093 -0.23675,-0.10507 -0.0354,-0.0115 -0.0709,-0.0233 -0.24834,-0.0814 -0.1898,-0.15261 -0.0593,-0.0351 -0.1063,5.6e-4 -0.0118,6e-5 -0.0472,0.0121 -0.14158,0.0243 -0.0354,1.9e-4 -0.0591,0.024 -0.0825,0.0239 -0.11791,0.036 -0.16494,0.0718 -0.12945,0.0832 -0.0588,0.0357 -0.0348,0.13008 2.4e-4,0.0473 0.0357,0.0587 3.6e-4,0.0708 -0.0702,0.11848 -0.0106,0.23625 -0.093,0.26029 -0.0695,0.26007 -0.0352,0.0594 -0.082,0.0948 -0.21068,0.36721 -0.082,0.11853 -0.12916,0.14238 -0.10611,0.036 -0.0118,0.0118 -0.0236,0.0236 -0.0118,0.0236 -0.19946,0.23725 -0.0706,0.0712 -0.27061,0.19032 -0.0708,0.0121 -0.17714,0.0127 -0.31891,-0.0221 -0.30626,0.14332 -0.16499,0.0599 -0.0472,2.5e-4 -0.0709,-0.0233 -0.14138,0.0598 -0.0944,4.9e-4 -0.36634,-0.0454 -0.0475,-0.0469 -0.0236,1.3e-4 -0.0355,-0.0233 -0.0354,-0.0115 0,0 -0.059,-0.0234 -0.0355,1.9e-4 0,0 -0.0236,1.3e-4 -0.0826,-0.0115 -0.1066,-0.0584 -0.0711,-0.0469 -0.0364,-0.15332 -0.036,-0.0824 -0.0951,-0.10582 -0.32016,-0.25812 -0.10648,-0.0348 -0.1421,-0.0938 -0.22576,-0.25861 -0.0593,-0.0588 -0.41466,-0.25754 -0.0355,-0.0234 -0.19057,-0.31781 -0.18994,-0.19971 -0.0236,1.3e-4 -0.10618,0.0242 -0.21219,0.0602 -0.0827,0.0123 -0.0827,4.4e-4 -0.37848,-0.12792 -0.31946,-0.12824 -0.13035,-0.0821 0,0 -0.18948,-0.0935 -0.0947,-0.0585 -0.0476,-0.0705 -0.0829,-0.0587 -6e-5,-0.0118 -0.0236,-0.0236 -0.31979,-0.18722 -0.0597,-0.0942 -0.0475,-0.0351 -0.0236,1.2e-4 -0.10648,-0.0348 -0.21254,0.013 -0.23622,-0.0225 -0.36678,-0.12788 -0.26006,-0.0694 -0.20105,-0.0461 -0.13021,-0.0585 -0.0829,-0.0468 -0.0594,-0.0587 -0.0237,-0.0237 -0.0478,-0.11774 -0.0475,-0.0588 -0.095,-0.082 -0.083,-0.0585 -0.0236,-0.0118 -0.0236,-0.0118 -0.0236,-0.0118 -0.0948,-0.0466 -0.0829,-0.047 -0.30777,-0.12828 -0.0472,-0.0115 -0.23691,-0.15227 -0.26034,-0.10482 -0.17754,-0.0818 -0.27252,-0.17568 -0.1181,6.3e-4 -0.0118,6e-5 0,0 -0.0827,0.0239 -0.0705,0.0593 -0.0591,0.024 -0.0472,0.0121 -0.0948,-0.0349 -0.0357,-0.0351 -0.036,-0.12972 -0.0239,-0.0354 -0.083,-0.0469 -0.13065,-0.14102 -0.0708,-0.0233 -0.10673,-0.0821 0,0 -0.0118,-0.0118 -0.25028,-0.4356 -0.2382,-0.40025 -0.11959,-0.28278 -0.0606,-0.29489 0,0 -0.0118,6e-5 -0.95627,0.0287 -0.41329,0.002 -0.0709,3.7e-4 -1.95988,0.0457 -0.0472,2.4e-4 -0.81474,0.016 -0.76742,0.0157 -0.41324,0.0139 -0.0354,1.8e-4 -0.76742,0.0157 -0.47239,0.003 -0.75563,0.0157 -0.50764,0.0145 -0.29519,0.002 -0.0709,3.7e-4 -0.33053,0.0136 0,0 -0.48419,0.003 -0.4014,0.002 -0.79114,0.016 -0.36598,0.002 -0.0827,4.3e-4 7e-5,0.0118 -0.7911,0.003 -0.40143,0.0139 -0.0472,2.5e-4 -0.3425,0.002 -0.76742,0.0158 -0.0708,-0.0116 -0.24793,0.0131 -0.2126,10e-4 -0.3424,0.002 -0.35414,0.0136 -0.81478,0.003 -0.40144,0.0139 -0.17709,9.2e-4 -0.51943,0.0145 -0.189,9.9e-4 -1.03908,0.006 -0.43684,0.0142 -0.059,3.1e-4 -0.0591,3.1e-4 -0.43689,0.003 -0.42509,0.002 -1.14523,0.0178 -0.0709,3.7e-4 -0.3306,0.002 -0.0709,3.7e-4 -0.82641,0.0161 -0.0237,1.2e-4 -0.6966,0.003 -1.72391,0.0208 -0.3543,0.002 -0.614,0.003 -0.0354,1.8e-4 -0.36609,0.002 -0.16524,0.0127 -0.3306,0.002 -0.53145,-0.009 -0.0472,2.5e-4 -0.35413,0.0136 -0.248,10e-4 -0.0708,-0.0115 -0.1181,6.2e-4 -0.25973,0.0132 -0.57865,-0.009 -0.21254,0.013 -0.2007,10e-4 -0.1653,8.7e-4 -0.248,0.001 -0.59038,0.003 -0.1889,9.9e-4 -0.47236,-0.009 -0.0118,6e-5 -0.2126,10e-4 -0.0354,1.9e-4 -0.86199,0.005 -0.0708,3.7e-4 -0.40148,0.002 -0.1417,7.4e-4 -1.74765,-0.003 -0.1535,8e-4 -0.0118,6e-5 -1.47597,0.009 -1.64137,0.009 -0.11816,-0.0112 -1.35788,0.006 -0.1181,6.2e-4 -1.58235,-0.003 -0.85015,-0.008 -1.21628,0.006 -0.0472,2.4e-4 -0.2007,10e-4 -0.18899,9.8e-4 -0.0236,1.3e-4 -1.47598,0.009 -0.059,3.1e-4 -0.0709,0.0121 -0.81474,-0.008 -1.14546,-0.006 -0.46049,0.003 -1.20454,-0.006 -1.23986,-0.006 -0.42508,0.002 -0.3661,0.002 -0.0236,1.3e-4 -1.06274,-0.006 -0.1181,6.2e-4 -0.7557,0.003 -0.1063,5.5e-4 0,0 -0.76761,-0.0197 -2.0193,-0.0131 -1.7713,-0.0143 -0.0118,6e-5 -0.0236,1.2e-4 -0.0237,1.3e-4 -0.0236,1.2e-4 -4.25108,-0.025 -1.32261,-0.0168 -0.63759,0.003 -0.1181,6.2e-4 -0.86205,-0.008 -0.1181,6.1e-4 -0.85025,-0.008 -1.81856,-0.0258 0,0 0,0 -2.8228,-0.12692 -1.11011,-0.0179 -0.1063,5.7e-4 -2.23191,-0.0355 -0.53146,-0.009 -0.69681,-0.0201 -0.118,6.1e-4 0,0 0,0 -5.60963,-0.12413 -0.0944,5.1e-4 -0.96841,-0.0185 -0.60232,-0.0204 -0.0354,1.8e-4 -0.0827,4.4e-4 -0.9684,-0.0185 -1.38173,-0.0401 -0.0118,6e-5 -0.38976,-0.01 -0.0472,2.4e-4 -1.58252,-0.0388 -0.86217,-0.0309 -2.01955,-0.0604 -0.38975,-0.01 -0.55496,-0.009 -3.36593,-0.11229 -2.70462,-0.0921 -0.0236,1.2e-4 -3.95646,-0.13277 -0.33076,-0.0101 -0.12979,6.6e-4 -1.19293,-0.0409 -2.07861,-0.0718 -0.0118,6e-5 -0.0118,6e-5 -0.35426,-0.0101 -1.08662,-0.0415 -0.0118,6e-5 -0.85038,-0.0309 -0.72053,-0.0433 -1.27554,-0.0407 -2.04326,-0.0836 -0.0354,1.9e-4 -0.92117,-0.0307 -1.33459,-0.0521 -0.85051,-0.0545 -0.50791,-0.021 -1.28711,-0.0168 0.14545,-3.79121 0.0427,-0.83864 0.13513,-3.50775 0.0107,-0.20076 -10e-4,-0.21249 0.0204,-0.60242 0.0731,-1.83061 0.0417,-1.06293 0.0519,-1.3819 0.0318,-0.70868 0.0627,-1.55895 0.0325,-0.59057 -5.6e-4,-0.1063 -6e-5,-0.0118 0.18844,-4.59445 -4.8e-4,-0.0944 0.11469,-2.90544 0.10592,-2.32679 0.0115,-0.0473 0.10475,-2.55109 0.10465,-2.55118 0.0322,-0.61417 0.0415,-1.09834 0.0725,-1.9606 0.0833,-2.10227 -3.7e-4,-0.0709 0.0417,-1.06294 0.0309,-0.83857 0.14718,-3.46062 0.0315,-0.72037 0.0312,-0.77957 0.0104,-0.30706 0.0527,-1.21649 0.0212,-0.46062 0.0516,-1.40549 -3.8e-4,-0.0709 0.0109,-0.18896 0.0321,-0.64959 -7e-5,-0.0118 0.0318,-0.70866 0,0 0.0209,-0.53155 -7e-5,-0.0118 0.10357,-2.77544 0.0224,-0.22452 0.10005,-3.44847 0.36609,-0.002 -0.0122,-0.0591 0.1589,-3.49608 -1.3e-4,-0.0236 0.0933,-2.48022 0.14722,-3.47242 0.0103,-0.25976 0.0312,-0.81498 0.0208,-0.54331 0.0725,-1.94871 0.008,-0.79115 0.0221,-0.25992 0.0112,-0.0945 0.03,-1.01567 0.0104,-0.25986 -3.2e-4,-0.059 0.0107,-0.20076 0.20782,-5.42117 0.11241,-3.34223 -5.1e-4,-0.0945 0.0103,-0.28346 0.0497,-1.79508"
       id="SD-0" />
  </g>
</svg>
