<?xml version="1.0" encoding="UTF-8" standalone="no"?>
<?xml-stylesheet type="text/css" href="/stylesheets/state.css" ?><svg
   xmlns:dc="http://purl.org/dc/elements/1.1/"
   xmlns:cc="http://creativecommons.org/ns#"
   xmlns:rdf="http://www.w3.org/1999/02/22-rdf-syntax-ns#"
   xmlns:svg="http://www.w3.org/2000/svg"
   xmlns="http://www.w3.org/2000/svg"
   xmlns:sodipodi="http://sodipodi.sourceforge.net/DTD/sodipodi-0.dtd"
   xmlns:inkscape="http://www.inkscape.org/namespaces/inkscape"
   viewBox="0 0 918.40004 582.5"
   id="svg2"
   version="1.1"
   inkscape:version="0.91 r"
   sodipodi:docname="us_state_map.svg"
   height="100%"
   width="100%">
  <metadata
     id="metadata63">
    <rdf:RDF>
      <cc:Work
         rdf:about="">
        <dc:format>image/svg+xml</dc:format>
        <dc:type
           rdf:resource="http://purl.org/dc/dcmitype/StillImage" />
        <dc:title>Blank US states map.svg</dc:title>
      </cc:Work>
    </rdf:RDF>
  </metadata>
  <defs
     id="defs61" />
  <sodipodi:namedview
     pagecolor="#ffffff"
     bordercolor="#666666"
     borderopacity="1"
     objecttolerance="10"
     gridtolerance="10"
     guidetolerance="10"
     inkscape:pageopacity="0"
     inkscape:pageshadow="2"
     inkscape:window-width="2560"
     inkscape:window-height="1388"
     id="namedview59"
     showgrid="false"
     inkscape:zoom="7.4198625"
     inkscape:cx="779.41809"
     inkscape:cy="340.60324"
     inkscape:window-x="0"
     inkscape:window-y="0"
     inkscape:window-maximized="1"
     inkscape:current-layer="svg2"
     fit-margin-top="0"
     fit-margin-left="0"
     fit-margin-right="0"
     fit-margin-bottom="0" />
  <title
     id="title4">Blank US states map.svg</title>
  <path
     inkscape:connector-curvature="0"
     d="m 152.1,447.3 -0.3,85.4 1.6,1 3.1,0.2 1.5,-1.1 2.6,0 0.2,2.9 7,6.8 0.5,2.6 3.4,-1.9 0.6,-0.2 0.3,-3.1 1.5,-1.6 1.1,-0.2 1.9,-1.5 3.1,2.1 0.6,2.9 1.9,1.1 1.1,2.4 3.9,1.8 3.4,6 2.7,3.9 2.3,2.7 1.5,3.7 5,1.8 5.2,2.1 1,4.4 0.5,3.1 -1,3.4 -1.8,2.3 -1.6,-0.8 -1.5,-3.1 -2.7,-1.5 -1.8,-1.1 -0.8,0.8 1.5,2.7 0.2,3.7 -1.1,0.5 -1.9,-1.9 -2.1,-1.3 0.5,1.6 1.3,1.8 -0.8,0.8 c 0,0 -0.8,-0.3 -1.3,-1 -0.5,-0.6 -2.1,-3.4 -2.1,-3.4 l -1,-2.3 c 0,0 -0.3,1.3 -1,1 -0.6,-0.3 -1.3,-1.5 -1.3,-1.5 l 1.8,-1.9 -1.5,-1.5 0,-5 -0.8,0 -0.8,3.4 -1.1,0.5 -1,-3.7 -0.6,-3.7 -0.8,-0.5 0.3,5.7 0,1.1 -1.5,-1.3 -3.6,-6 -2.1,-0.5 -0.6,-3.7 -1.6,-2.9 -1.6,-1.1 0,-2.3 2.1,-1.3 -0.5,-0.3 -2.6,0.6 -3.4,-2.4 -2.6,-2.9 -4.8,-2.6 -4,-2.6 1.3,-3.2 0,-1.6 -1.8,1.6 -2.9,1.1 -3.7,-1.1 -5.7,-2.4 -5.5,0 -0.6,0.5 -6.5,-3.9 -2.1,-0.3 -2.7,-5.8 -3.6,0.3 -3.6,1.5 0.5,4.5 1.1,-2.9 1,0.3 -1.5,4.4 3.2,-2.7 0.6,1.6 -3.9,4.4 -1.3,-0.3 -0.5,-1.9 -1.3,-0.8 -1.3,1.1 -2.7,-1.8 -3.1,2.1 -1.8,2.1 -3.4,2.1 -4.7,-0.2 -0.5,-2.1 3.7,-0.6 0,-1.3 -2.3,-0.6 1,-2.4 2.3,-3.9 0,-1.8 0.2,-0.8 4.4,-2.3 1,1.3 2.7,0 -1.3,-2.6 -3.7,-0.3 -5,2.7 -2.4,3.4 -1.8,2.6 -1.1,2.3 -4.2,1.5 -3.1,2.6 -0.3,1.6 2.3,1 0.8,2.1 -2.7,3.2 -6.5,4.2 -7.8,4.2 -2.1,1.1 -5.3,1.1 -5.3,2.3 1.8,1.3 -1.5,1.5 -0.5,1.1 -2.7,-1 -3.2,0.2 -0.8,2.3 -1,0 0.3,-2.4 -3.6,1.3 -2.9,1 -3.4,-1.3 -2.9,1.9 -3.2,0 -2.1,1.3 -1.6,0.8 -2.1,-0.3 -2.6,-1.1 -2.3,0.6 -1,1 -1.6,-1.1 0,-1.9 3.1,-1.3 6.3,0.6 4.4,-1.6 2.1,-2.1 2.9,-0.6 1.8,-0.8 2.7,0.2 1.6,1.3 1,-0.3 2.3,-2.7 3.1,-1 3.4,-0.6 1.3,-0.3 0.6,0.5 0.8,0 1.3,-3.7 4,-1.5 1.9,-3.7 2.3,-4.5 1.6,-1.5 0.3,-2.6 -1.6,1.3 -3.4,0.6 -0.6,-2.4 -1.3,-0.3 -1,1 -0.2,2.9 -1.5,-0.2 -1.5,-5.8 -1.3,1.3 -1.1,-0.5 -0.3,-1.9 -4,0.2 -2.1,1.1 -2.6,-0.3 1.5,-1.5 0.5,-2.6 -0.6,-1.9 1.5,-1 1.3,-0.2 -0.6,-1.8 0,-4.4 -1,-1 -0.8,1.5 -6.1,0 -1.5,-1.3 -0.6,-3.9 -2.1,-3.6 0,-1 2.1,-0.8 0.2,-2.1 1.1,-1.1 -0.8,-0.5 -1.3,0.5 -1.1,-2.7 1,-5 4.5,-3.2 2.6,-1.6 1.9,-3.7 2.7,-1.3 2.6,1.1 0.3,2.4 2.4,-0.3 3.2,-2.4 1.6,0.6 1,0.6 1.6,0 2.3,-1.3 0.8,-4.4 c 0,0 0.3,-2.9 1,-3.4 0.6,-0.5 1,-1 1,-1 l -1.1,-1.9 -2.6,0.8 -3.2,0.8 -1.9,-0.5 -3.6,-1.8 -5,-0.2 -3.6,-3.7 0.5,-3.9 0.6,-2.4 -2.1,-1.8 -1.9,-3.7 0.5,-0.8 6.8,-0.5 2.1,0 1,1 0.6,0 -0.2,-1.6 3.9,-0.6 2.6,0.3 1.5,1.1 -1.5,2.1 -0.5,1.5 2.7,1.6 5,1.8 1.8,-1 -2.3,-4.4 -1,-3.2 1,-0.8 -3.4,-1.9 -0.5,-1.1 0.5,-1.6 -0.8,-3.9 -2.9,-4.7 -2.4,-4.2 2.9,-1.9 3.2,0 1.8,0.6 4.2,-0.2 3.7,-3.6 1.1,-3.1 3.7,-2.4 1.6,1 2.7,-0.6 3.7,-2.1 1.1,-0.2 1,0.8 4.5,-0.2 2.7,-3.1 1.1,0 3.6,2.4 1.9,2.1 -0.5,1.1 0.6,1.1 1.6,-1.6 3.9,0.3 0.3,3.7 1.9,1.5 7.1,0.6 6.3,4.2 1.5,-1 5.2,2.6 2.1,-0.6 1.9,-0.8 4.8,1.9 4.5,2.7 z M 37,476.2 l 2.1,5.3 -0.2,1 -2.9,-0.3 -1.8,-4 -1.8,-1.5 -2.4,0 -0.2,-2.6 1.8,-2.4 1.1,2.4 1.5,1.5 2.8,0.6 z m -2.6,33.5 3.7,0.8 3.7,1 0.8,1 -1.6,3.7 -3.1,-0.2 -3.4,-3.6 -0.1,-2.7 z m -20.7,-14.1 1.1,2.6 1.1,1.6 -1.1,0.8 -2.1,-3.1 0,-1.9 1,0 z M 0,568.7 l 3.4,-2.3 3.4,-1 2.6,0.3 0.5,1.6 1.9,0.5 1.9,-1.9 -0.3,-1.6 2.7,-0.6 2.9,2.6 -1.1,1.8 -4.4,1.1 -2.7,-0.5 -3.7,-1.1 -4.4,1.5 -1.6,0.3 -1.1,-0.7 z m 48.9,-4.5 1.6,1.9 2.1,-1.6 -1.5,-1.3 -2.2,1 z m 2.9,3 1.1,-2.3 2.1,0.3 -0.8,1.9 -2.4,0 z m 23.6,-1.9 1.5,1.8 1,-1.1 -0.8,-1.9 -1.7,1.2 z m 8.8,-12.5 1.1,5.8 2.9,0.8 5,-2.9 4.4,-2.6 -1.6,-2.4 0.5,-2.4 -2.1,1.3 -2.9,-0.8 1.6,-1.1 1.9,0.8 3.9,-1.8 0.5,-1.5 -2.4,-0.8 0.8,-1.9 -2.7,1.9 -4.7,3.6 -4.8,2.9 -1.4,1.1 z m 42.3,-19.8 2.4,-1.5 -1,-1.8 -1.8,1 0.4,2.3 z"
     id="AK"
     class="state" />
  <path
     inkscape:connector-curvature="0"
     d="m 224.1,512.9 1.9,-3.6 2.3,-0.3 0.3,0.8 -2.1,3.1 -2.4,0 z m 10.2,-3.7 6.1,2.6 2.1,-0.3 1.6,-3.9 -0.6,-3.4 -4.2,-0.5 -4,1.8 -1,3.7 z m 30.7,10 3.7,5.5 2.4,-0.3 1.1,-0.5 1.5,1.3 3.7,-0.2 1,-1.5 -2.9,-1.8 -1.9,-3.7 -2.1,-3.6 -5.8,2.9 -0.7,1.9 z m 20.2,8.9 1.3,-1.9 4.7,1 0.6,-0.5 6.1,0.6 -0.3,1.3 -2.6,1.5 -4.4,-0.3 -5.4,-1.7 z m 5.3,5.2 1.9,3.9 3.1,-1.1 0.3,-1.6 -1.6,-2.1 -3.7,-0.3 0,1.2 z m 7,-1.2 2.3,-2.9 4.7,2.4 4.4,1.1 4.4,2.7 0,1.9 -3.6,1.8 -4.8,1 -2.4,-1.5 -5,-6.5 z m 16.6,15.6 1.6,-1.3 3.4,1.6 7.6,3.6 3.4,2.1 1.6,2.4 1.9,4.4 4,2.6 -0.3,1.3 -3.9,3.2 -4.2,1.5 -1.5,-0.6 -3.1,1.8 -2.4,3.2 -2.3,2.9 -1.8,-0.2 -3.6,-2.6 -0.3,-4.5 0.6,-2.4 -1.6,-5.7 -2.1,-1.8 -0.2,-2.6 2.3,-1 2.1,-3.1 0.5,-1 -1.6,-1.8 -0.1,-2 z"
     id="HI"
     class="state" />
  <path
     inkscape:connector-curvature="0"
     d="m 616.6,460.4 -1.6,-15.2 -2.7,-18.8 0.2,-14.1 0.8,-31 -0.2,-16.7 0.2,-6.4 7.8,-0.4 27.8,-2.6 8.9,-0.7 -0.1,2.2 0.2,2.1 0.6,3.4 3.4,7.9 2.4,9.9 1.5,6.1 1.6,4.8 1.5,7 2.1,6.3 2.6,3.4 0.5,3.4 1.9,0.8 0.2,2.1 -1.8,4.8 -0.5,3.2 -0.2,1.9 1.6,4.4 0.3,5.3 -0.8,2.4 0.6,0.8 1.5,0.8 1,2.5 -6.3,0 -6.8,0.6 -25.5,2.9 -10.4,1.4 -0.1,3.8 1.8,1.8 2.6,1.9 0.6,7.9 -5.5,2.6 -2.7,-0.3 2.7,-1.9 0,-1 -3.1,-6 -2.3,-0.6 -1.5,4.4 -1.3,2.7 -0.6,-0.2 -2.9,0 z"
     id="AL"
     class="state" />
  <path
     inkscape:connector-curvature="0"
     d="m 582,338.6 -3.8,0.9 -6.2,-0.5 0.7,-3 3.2,-2.7 0.5,-2.3 -1.8,-3 -11,0.5 -20.8,0.9 -23.3,0.7 -23.5,0.5 1.6,6.9 0,8.2 1.4,11 0.2,37.8 2.3,1.9 3,-1.4 2.7,1.1 0.4,10.3 22.9,-0.1 18.9,-0.8 10.1,-0.2 1.1,-2.1 -0.3,-3.5 -1.8,-3 1.6,-1.5 -1.6,-2.5 0.7,-2.5 1.4,-5.6 2.5,-2.1 -0.7,-2.3 3.7,-5.4 2.7,-1.4 -0.1,-1.5 -0.3,-1.8 2.9,-5.6 2.4,-1.3 0.4,-3.4 1.8,-1.2 0.9,-4.2 -1.3,-4 4,-2.4 0.6,-2 1.2,-4.3 0.7,-3.1 z"
     id="AR"
     class="state" />
  <path
     inkscape:connector-curvature="0"
     d="m 128.7,381.1 -2.6,2.2 -0.3,1.5 0.5,1 18.9,10.7 12.1,7.6 14.7,8.6 16.8,10 12.3,2.4 25.1,2.7 2.5,-12.5 3.8,-27.2 7,-52.9 4.3,-31 -24.6,-3.7 -27.2,-4.6 -33.4,-6.3 -2.9,18.1 -0.5,0.5 -1.7,2.6 -2.5,-0.1 -1.3,-2.7 -2.7,-0.3 -0.9,-1.1 -0.9,0 -0.9,0.6 -1.9,1 -0.1,7 -0.2,1.7 -0.6,12.6 -1.5,2.2 -0.6,3.3 2.7,4.9 1.3,5.8 0.8,1 1,0.6 -0.1,2.3 -1.6,1.4 -3.4,1.7 -1.9,1.9 -1.5,3.7 -0.6,4.9 -2.9,2.7 -2.1,0.7 -0.1,5.8 -0.5,1.7 0.5,0.8 3.7,0.6 -0.6,2.7 -1.5,2.2 -3.9,0.7 z"
     id="AZ"
     class="state" />
  <path
     inkscape:connector-curvature="0"
     d="m 127.9,380.4 3.8,-0.5 1.5,-2 0.7,-1.9 -3.2,-0.1 -1.1,-1.8 0.8,-1.7 0,-6.2 2.2,-1.3 2.7,-2.6 0.4,-4.9 1.6,-3.5 1.9,-2.1 3.3,-1.7 1.3,-0.7 0.8,-1.5 -0.9,-0.9 -1,-1.5 -0.9,-5.3 -2.9,-5.2 0.1,-2.8 -2.2,-3.2 -15,-23.2 -19.4,-28.7 -22.4,-33 -12.7,-19.5 1.8,-7.2 6.8,-25.9 8.1,-31.4 -12.4,-3.3 -13.5,-3.4 -12.6,-4.1 -7.5,-2.1 -11.4,-3 -7.1,-2.4 -1.6,4.7 -0.2,7.4 -5.2,11.8 -3.1,2.6 -0.3,1.1 -1.8,0.8 -1.5,4.2 -0.8,3.2 2.7,4.2 1.6,4.2 1.1,3.6 -0.3,6.5 -1.8,3.1 -0.6,5.8 -1,3.7 1.8,3.9 2.7,4.5 2.3,4.8 1.3,4 -0.3,3.2 -0.3,0.5 0,2.1 5.7,6.3 -0.5,2.4 -0.6,2.3 -0.6,1.9 0.2,8.2 2.1,3.7 1.9,2.6 2.7,0.5 1,2.7 -1.1,3.6 -2.1,1.6 -1.1,0 -0.8,3.9 0.5,2.9 3.2,4.4 1.6,5.3 1.5,4.7 1.3,3.1 3.4,5.8 1.5,2.6 0.5,2.9 1.6,1 0,2.4 -0.8,1.9 -1.8,7.1 -0.5,1.9 2.4,2.7 4.2,0.5 4.5,1.8 3.9,2.1 2.9,0 2.9,3.1 2.6,4.8 1.1,2.3 3.9,2.1 4.8,0.8 1.5,2.1 0.6,3.2 -1.5,0.6 0.3,1 3.2,0.8 2.7,0.2 2.9,4.7 3.9,4.2 0.8,2.3 2.6,4.2 0.3,3.2 0,9.4 0.5,1.8 10,1.5 19.7,2.7 14.2,0.9 z m -88.1,-49.8 1.3,1.5 -0.2,1.3 -3.2,-0.1 -0.6,-1.2 -0.6,-1.5 3.3,0 z m 1.9,0 1.2,-0.6 3.6,2.1 3.1,1.2 -0.9,0.6 -4.5,-0.2 -1.6,-1.6 -0.9,-1.5 z m 20.7,19.8 1.8,2.3 0.8,1 1.5,0.6 0.6,-1.5 -1,-1.8 -2.7,-2 -1.1,0.2 0,1.2 z m -1.4,8.7 1.8,3.2 1.2,1.9 -1.5,0.2 -1.3,-1.2 c 0,0 -0.7,-1.5 -0.7,-1.9 0,-0.4 0,-2.2 0,-2.2 l 0.5,0 z"
     id="CA"
     class="state" />
  <path
     inkscape:connector-curvature="0"
     d="m 369.6,250.4 1.4,-21.3 -32.1,-3.1 -24.5,-2.7 -37.3,-4.1 -20.7,-2.5 -2.6,22.2 -3.2,22.4 -3.8,28 -1.5,11.1 -0.3,2.8 33.9,3.8 37.7,4.3 32,3.2 16.6,0.8"
     id="CO"
     class="state" />
  <path
     inkscape:connector-curvature="0"
     d="m 864.2,173.7 -0.6,-4.2 -0.8,-4.4 -1.6,-6 -4.2,0.9 -21.8,4.8 0.6,3.3 1.5,7.3 0,8.1 -1.1,2.3 1.8,2.1 5,-3.4 3.6,-3.2 1.9,-2.1 0.8,0.6 2.7,-1.5 5.2,-1.1 7,-3.5 z"
     id="CT"
     class="state" />
  <path
     inkscape:connector-curvature="0"
     d="m 813.4,224 0.6,-2.1 0,-1.2 -1.3,-0.1 -2.1,1.6 -1.5,1.5 1.5,4.2 2.3,5.7 2.1,9.7 1.6,6.3 5,-0.2 6.1,-1.2 -2.3,-7.4 -1,0.5 -3.6,-2.4 -1.8,-4.7 -1.9,-3.6 -2.3,-1 -2.1,-3.6 0.7,-2 z"
     id="DE"
     class="state" />
  <path
     inkscape:connector-curvature="0"
     d="m 746.4,439.1 2.3,7.3 3.7,9.7 5.3,9.4 3.7,6.3 4.8,5.5 4,3.7 1.6,2.9 -1.1,1.3 -0.7,1.4 2.9,7.4 2.9,2.9 2.6,5.3 3.6,5.8 4.5,8.2 1.3,7.6 0.5,12 0.6,1.8 -0.3,3.4 -2.4,1.3 0.3,1.9 -0.6,1.9 0.3,2.4 0.5,1.9 -2.7,3.2 -3.1,1.5 -3.9,0.2 -1.5,1.6 -2.4,1 -1.3,-0.5 -1.1,-1 -0.3,-2.9 -0.8,-3.4 -3.4,-5.2 -3.6,-2.3 -3.9,-0.3 -0.8,1.3 -3.1,-4.4 -0.6,-3.6 -2.6,-4 -1.8,-1.1 -1.6,2.1 -1.8,-0.3 -2.1,-5 -2.9,-3.9 -2.9,-5.3 -2.6,-3.1 -3.6,-3.7 2.1,-2.4 3.2,-5.5 -0.2,-1.6 -4.5,-1 -1.6,0.6 0.3,0.6 2.6,1 -1.5,4.5 -0.8,0.5 -1.8,-4 -1.3,-4.8 -0.3,-2.7 1.5,-4.7 0,-9.5 -3,-3.7 -1.3,-3.1 -5.2,-1.3 -1.9,-0.6 -1.6,-2.6 -3.4,-1.6 -1.1,-3.4 -2.7,-1 -2.4,-3.7 -4.2,-1.5 -2.9,-1.5 -2.6,0 -4,0.8 -0.2,1.9 0.8,1 -0.5,1.1 -3.1,-0.2 -3.7,3.6 -3.6,1.9 -3.9,0 -3.2,1.3 -0.3,-2.7 -1.6,-1.9 -2.9,-1.1 -1.6,-1.5 -8.1,-3.9 -7.6,-1.8 -4.4,0.6 -6,0.5 -6,2.1 -3.5,0.6 -0.2,-8 -2.6,-1.9 -1.8,-1.8 0.3,-3.1 10.2,-1.3 25.5,-2.9 6.8,-0.6 5.4,0.3 2.6,3.9 1.5,1.5 8.1,0.5 10.8,-0.6 21.5,-1.3 5.4,-0.7 4.6,0 0.2,2.9 3.8,0.8 0.3,-4.8 -1.6,-4.5 1,-0.7 5.1,0.5 5.2,0.3 z m 12.5,132.4 2.4,-0.6 1.3,-0.2 1.5,-2.3 2.3,-1.6 1.3,0.5 1.7,0.3 0.4,1.1 -3.5,1.2 -4.2,1.5 -2.3,1.2 -0.9,-1.1 z m 13.5,-5 1.2,1.1 2.7,-2.1 5.3,-4.2 3.7,-3.9 2.5,-6.6 1,-1.7 0.2,-3.4 -0.7,0.5 -1,2.8 -1.5,4.6 -3.2,5.3 -4.4,4.2 -3.4,1.9 -2.4,1.5 z"
     id="FL"
     class="state" />
  <path
     inkscape:connector-curvature="0"
     d="m 680.6,351.6 -4.8,0.8 -8.4,1.1 -8.6,0.9 0,2.2 0.2,2.1 0.6,3.4 3.4,7.9 2.4,9.9 1.5,6.1 1.6,4.8 1.5,7 2.1,6.3 2.6,3.4 0.5,3.4 1.9,0.8 0.2,2.1 -1.8,4.8 -0.5,3.2 -0.2,1.9 1.6,4.4 0.3,5.3 -0.8,2.4 0.6,0.8 1.5,0.8 0.6,3.4 2.6,3.9 1.5,1.5 7.9,0.2 10.8,-0.6 21.5,-1.3 5.4,-0.7 4.6,0 0.2,2.9 2.6,0.8 0.3,-4.4 -1.6,-4.5 1.1,-1.6 5.8,0.8 5,0.3 -0.8,-6.3 2.3,-10 1.5,-4.2 -0.5,-2.6 3.3,-6.2 -0.5,-1.4 -1.9,0.7 -2.6,-1.3 -0.6,-2.1 -1.3,-3.6 -2.3,-2.1 -2.6,-0.6 -1.6,-4.8 -2.9,-6.3 -4.2,-1.9 -2.1,-1.9 -1.3,-2.6 -2.1,-1.9 -2.3,-1.3 -2.3,-2.9 -3.1,-2.3 -4.5,-1.8 -0.5,-1.5 -2.4,-2.9 -0.5,-1.5 -3.4,-4.9 -3.4,0.2 -4.1,-3 -1.3,-1.3 -0.3,-1.8 0.8,-1.9 2.4,-1.2 -1.1,-1.2 0.1,-0.3 -5.8,1 -7,0.8 -6.8,0.4 z"
     id="GA"
     class="state" />
  <path
     inkscape:connector-curvature="0"
     d="m 557.6,195.2 0.2,1.9 2.3,1.1 1.1,1.3 0.3,1.3 3.9,3.2 0.7,2.2 -0.8,2.9 -1.5,3.5 -0.8,2.7 -2.2,1.6 -1.7,0.6 -5.5,1.5 -0.7,2.3 -0.8,2.3 0.6,1.4 1.7,1.7 0,3.7 -2.2,1.6 -0.5,1.5 0,2.5 -1.5,0.5 -1.7,1.4 -0.5,1.5 0.5,1.7 -1.4,1.2 -2.3,-2.9 -1.5,-2.6 -8.3,0.8 -10.2,0.6 -25,0.7 -13,0.2 -9.4,0.2 -1.3,0.1 -1.7,-4.5 -0.2,-6.6 -1.6,-4.1 -0.7,-5.3 -2.3,-3.7 -0.9,-4.8 -2.7,-7.5 -1.1,-5.4 -1.4,-2.2 -1.6,-2.7 1.8,-4.3 1.4,-5.7 -2.7,-2.1 -0.5,-2.7 0.9,-2.5 1.7,0 11.5,0 49.6,-0.7 19.9,-0.7 1.9,2.7 1.8,2.6 0.5,0.8 -1.8,2.7 0.5,4.2 2.5,3.9 3,1.8 2.4,0.2 1.3,2.4 z"
     id="IA"
     class="state" />
  <path
     inkscape:connector-curvature="0"
     d="M 153.1,174.6 C 130.5,170.3 139,171.8 132,170.2 l 4.4,-17.5 4.3,-17.7 1.4,-4.2 2.5,-5.9 -1.3,-2.3 -2.5,0.1 -0.8,-1 0.5,-1.1 0.3,-3.1 4.5,-5.5 1.8,-0.5 1.1,-1.1 0.6,-3.2 0.9,-0.7 3.9,-5.8 3.9,-4.3 0.2,-3.8 -3.4,-2.6 -1.3,-4.4 0.4,-9.7 3.7,-16.5 4.5,-20.8 3.8,-13.5 0.8,-3.8 13,2.5 -4.2,21.5 2.9,7.7 -1.1,4.6 2,4.6 3.2,1.7 4.5,9.8 2.7,3.8 0.6,1.1 3.4,1.1 0.5,2.5 -6.9,16.8 0.3,3.3 2.7,2.9 1.9,0.5 4.8,-3.6 0.4,-0.5 0.2,0.8 0.3,4.1 2.6,12.9 3.5,2.7 0.4,0.8 2.1,2.4 -0.8,2.8 0.7,3.8 1.9,0.9 2.1,-1.6 2.6,-0.5 3.4,1.6 2.5,-0.6 3.8,-0.2 4,1.6 2.7,-0.3 0.9,-2.3 2.5,-1.6 0.7,1.7 0.6,2.2 2.3,2.5 -3.8,24 -5.1,29 -4.2,-0.3 -8.2,-1.5 -9.8,-1.8 -12.2,-2.4 -12.5,-2.5 -8.5,-1.8 -9.3,-1.7 -9.2,-1.7 z"
     id="ID"
     class="state" />
  <path
     inkscape:connector-curvature="0"
     d="m 608.8,295.1 0,-3.6 0.3,-4.9 2.4,-3.1 1.8,-3.8 2.6,-3.9 -0.4,-5.3 -2,-3.5 -0.1,-3.3 0.7,-5.3 -0.8,-7.2 -1.1,-15.8 -1.3,-15 -0.9,-11.6 -0.3,-0.9 -0.8,-2.6 -1.3,-3.7 -1.6,-1.8 -1.5,-2.6 -0.2,-5.5 -9.9,1.3 -27.2,1.7 -8.7,-0.4 0.2,2.4 2.3,0.7 0.9,1.1 0.5,1.8 3.9,3.4 0.7,2.3 -0.7,3.4 -1.8,3.7 -0.7,2.5 -2.3,1.8 -1.8,0.7 -5.3,1.4 -0.7,1.8 -0.7,2.3 0.7,1.4 1.8,1.6 -0.2,4.1 -1.8,1.6 -0.7,1.6 0,2.7 -1.8,0.5 -1.6,1.1 -0.2,1.4 0.2,2.1 -1.7,1.3 -1,2.8 0.5,3.7 2.3,7.3 7.3,7.5 5.5,3.7 -0.2,4.3 0.9,1.4 6.4,0.5 2.7,1.4 -0.7,3.7 -2.3,5.9 -0.7,3.2 2.3,3.9 6.4,5.3 4.6,0.7 2.1,5 2.1,3.2 -0.9,3 1.6,4.1 1.8,2.1 1.9,-0.8 0.7,-2.2 2,-1.4 3.2,-1.1 3.1,1.2 2.9,1.1 0.8,-0.2 -0.1,-1.2 -1.1,-2.8 0.4,-2.4 2.3,-1.6 2.4,-1 1.2,-0.4 -0.6,-1.3 -0.8,-2.2 1.2,-1.3 0.9,-3 z"
     id="IL"
     class="state" />
  <path
     inkscape:connector-curvature="0"
     d="m 609.4,294.5 0.1,-2.9 0.5,-4.5 2.3,-2.9 1.8,-3.9 2.6,-4.2 -0.5,-5.8 -1.8,-2.7 -0.3,-3.2 0.8,-5.5 -0.5,-7 -1.3,-16 -1.3,-15.4 -1,-11.7 3.1,0.9 1.5,1 1.1,-0.3 2.1,-1.9 2.8,-1.6 5.1,-0.2 22,-2.3 5.6,-0.5 1.5,16 4.3,36.8 0.6,5.8 -0.5,2.1 1.2,1.8 0.1,1.4 -2.5,1.6 -3.5,1.6 -3.2,0.6 -0.6,4.9 -4.6,3.3 -2.8,4 0.3,2.4 -0.6,1.5 -3.3,0 -1.6,-1.6 -2.5,1.3 -2.7,1.5 0.2,3.1 -1.2,0.3 -0.5,-1 -2.2,-1.5 -3.3,1.3 -1.6,3 -1.4,-0.8 -1.5,-1.6 -4.5,0.5 -5.6,1 -2.7,1.3 z"
     id="IN"
     class="state" />
  <path
     inkscape:connector-curvature="0"
     d="m 494.4,318.7 -12.6,0.2 -46.1,-0.5 -44.6,-2.1 -24.6,-1.3 4.1,-64.7 21.8,0.8 40.5,1.4 44.1,0.5 5.1,0 3.2,3.2 2.8,0.2 0.9,1.1 0,2 -1.8,1.6 -0.5,2.6 2.2,3.6 2.5,3.1 2.5,2 1.1,11.2 -0.6,35.1 z"
     id="KS"
     class="state" />
  <path
     inkscape:connector-curvature="0"
     d="m 712.8,291.4 -2.3,2.7 -4.2,3.6 -4.3,5.9 -1.8,1.8 0,2.1 -3.9,2.1 -5.7,3.4 -3.5,0.4 -51.9,4.9 -15.8,1.8 -4.6,0.5 -3.9,0 -0.2,4.2 -8.2,0.1 -7,0.6 -10.4,0.2 1.9,-0.2 2.2,-1.8 2.1,-1.1 0.2,-3.2 0.9,-1.8 -1.6,-2.5 0.8,-1.9 2.3,-1.8 2.1,-0.6 2.7,1.3 3.6,1.3 1.1,-0.3 0.2,-2.3 -1.3,-2.4 0.3,-2.3 1.9,-1.5 2.6,-0.6 1.6,-0.6 -0.8,-1.8 -0.6,-1.9 1.1,-0.8 1.1,-3.3 3,-1.7 5.8,-1 3.6,-0.5 1.5,1.9 1.8,0.8 1.8,-3.2 2.9,-1.5 1.9,1.6 0.8,1.1 2.1,-0.5 -0.2,-3.4 2.9,-1.6 1.1,-0.8 1.1,1.6 4.7,0 0.8,-2.1 -0.3,-2.3 2.9,-3.6 4.7,-3.9 0.5,-4.5 2.7,-0.3 3.9,-1.8 2.7,-1.9 -0.3,-1.9 -1.5,-1.5 0.6,-2.2 4.1,-0.2 2.4,-0.8 2.9,1.6 1.6,4.4 5.8,0.3 1.8,1.8 2.1,0.2 2.4,-1.5 3.1,0.5 1.3,1.5 2.7,-2.6 1.8,-1.3 1.6,0 0.6,2.7 1.8,1 2.4,2.2 0.2,5.5 0.8,1.6 2.6,1.5 0.6,2.3 2.9,3.7 2.6,2.7 3.7,1.9 z"
     id="KY"
     class="state" />
  <path
     inkscape:connector-curvature="0"
     d="m 593.2,466.6 -1,-2.6 -1.1,-3.1 -3.3,-3.5 0.9,-6.8 -0.1,-1.1 -1.3,0.3 -8.2,0.9 -25,0.5 -0.7,-2.4 0.9,-8.5 3.3,-5.9 5,-8.7 -0.6,-2.4 1.3,-0.7 0.5,-2 -2.3,-2.1 -0.1,-1.9 -1.8,-4.3 -0.5,-5.9 -9.7,0.1 -19.2,0.9 -22.2,0 0,9.6 0.7,9.4 0.7,3.9 2.5,4.1 0.9,5 4.3,5.5 0.2,3.2 0.7,0.7 -0.7,8.5 -3,5 1.6,2.1 -0.7,2.5 -0.7,7.3 -1.4,3.2 0.1,3.6 4.7,-1.5 8.1,-0.3 10.3,3.6 6.5,1.1 3.7,-1.5 3.2,1.1 3.2,1 0.8,-2.1 -3.2,-1.1 -2.6,0.5 -2.7,-1.6 c 0,0 0.2,-1.3 0.8,-1.5 0.6,-0.2 3.1,-1 3.1,-1 l 1.8,1.5 1.8,-1 3.2,0.6 1.5,2.4 0.3,2.3 4.5,0.3 1.8,1.8 -0.8,1.6 -1.3,0.8 1.6,1.6 8.4,3.6 3.6,-1.3 1,-2.4 2.6,-0.6 1.8,-1.5 1.3,1 0.8,2.9 -2.3,0.8 0.6,0.6 3.4,-1.3 2.3,-3.4 0.8,-0.5 -2.1,-0.3 0.8,-1.6 -0.2,-1.5 2.1,-0.5 1.1,-1.3 0.6,0.8 c 0,0 -0.2,3.1 0.6,3.1 0.8,0 4.2,0.6 4.2,0.6 l 4,1.9 1,1.5 2.9,0 1.1,1 2.3,-3.1 0,-1.5 -1.3,0 -3.4,-2.7 -5.8,-0.8 -3.2,-2.3 1.1,-2.7 2.3,0.3 0.2,-0.6 -1.8,-1 0,-0.5 3.2,0 1.8,-3.1 -1.3,-1.9 -0.3,-2.7 -1.5,0.2 -1.9,2.1 -0.6,2.6 -3.1,-0.6 -1,-1.8 1.8,-1.9 2,-1.8 -0.2,-0.8 z"
     id="LA"
     class="state" />
  <path
     inkscape:connector-curvature="0"
     d="m 891,167.5 2.2,-0.7 0.5,-1.7 1,0.1 1,2.3 -1.3,0.5 -3.9,0.1 0.5,-0.6 z m -9.4,0.8 2.3,-2.6 1.6,0 1.8,1.5 -2.4,1 -2.2,1 -1.1,-0.9 z m -34.8,-22 17.5,-4.2 2.3,-0.6 2.1,-3.2 3.7,-1.7 2.9,4.4 -2.4,5.2 -0.3,1.5 1.9,2.6 1.1,-0.8 1.8,0 2.3,2.6 3.9,6 3.6,0.5 2.3,-1 1.8,-1.8 -0.8,-2.7 -2.1,-1.6 -1.5,0.8 -1,-1.3 0.5,-0.5 2.1,-0.2 1.8,0.8 1.9,2.4 1,2.9 0.3,2.4 -4.2,1.5 -3.9,1.9 -3.9,4.5 -1.9,1.5 0,-1 2.4,-1.5 0.5,-1.8 -0.8,-3.1 -2.9,1.5 -0.8,1.5 0.5,2.3 -2.1,1 -2.7,-4.5 -3.4,-4.4 -2.1,-1.8 -6.5,1.9 -5.1,1.1 -21.8,4.8 -0.4,-4.9 0.6,-10.6 5.2,-0.9 6.6,-1.5 z"
     id="MA"
     class="state" />
  <path
     inkscape:connector-curvature="0"
     d="m 828,248.9 -6.1,1.3 -5.8,0.2 -1.8,-7.1 -2.1,-9.7 -2.3,-5.7 -1.3,-4.4 -7.5,1.6 -14.9,2.8 -37.5,7.6 1.1,5 1,5.7 0.3,-0.3 2.1,-2.4 2.3,-2.6 2.4,-0.6 1.5,-1.5 1.8,-2.6 1.3,0.6 2.9,-0.3 2.6,-2.1 2,-1.5 1.8,-0.5 1.6,1.1 2.9,1.5 1.9,1.8 1.2,1.5 4.1,1.7 0,2.9 5.5,1.3 1.1,0.5 1.4,-2 2.9,2 -1.3,2.5 -0.8,4 -1.8,2.6 0,2.1 0.6,1.8 5.1,1.4 4.3,-0.1 3.1,1 2.1,0.3 1,-2.1 -1.5,-2.1 0,-1.8 -2.4,-2.1 -2.1,-5.5 1.3,-5.3 -0.2,-2.1 -1.3,-1.3 c 0,0 1.5,-1.6 1.5,-2.3 0,-0.6 0.5,-2.1 0.5,-2.1 l 1.9,-1.3 1.9,-1.6 0.5,1 -1.5,1.6 -1.3,3.7 0.3,1.1 1.8,0.3 0.5,5.5 -2.1,1 0.3,3.6 0.5,-0.2 1.1,-1.9 1.6,1.8 -1.6,1.3 -0.3,3.4 2.6,3.4 3.9,0.5 1.6,-0.8 3.2,4.2 1.4,0.5 6.7,-2.8 2,-4 0.5,-5 z m -16.7,9 1.1,2.5 0.2,1.8 1.1,1.9 c 0,0 0.9,-0.9 0.9,-1.2 0,-0.3 -0.7,-3.1 -0.7,-3.1 l -0.7,-2.3 -1.9,0.4 z"
     id="MD"
     class="state" />
  <path
     inkscape:connector-curvature="0"
     d="m 914.2,70.9 1.9,2.1 2.3,3.7 0,1.9 -2.1,4.7 -1.9,0.6 -3.4,3.1 -4.8,5.5 c 0,0 -0.6,0 -1.3,0 -0.6,0 -1,-2.1 -1,-2.1 l -1.8,0.2 -1,1.5 -2.4,1.5 -1,1.5 1.6,1.5 -0.5,0.6 -0.5,2.7 -1.9,-0.2 0,-1.6 -0.3,-1.3 -1.5,0.3 -1.8,-3.2 -2.1,1.3 1.3,1.5 0.3,1.1 -0.8,1.3 0.3,3.1 0.2,1.6 -1.6,2.6 -2.9,0.5 -0.3,2.9 -5.3,3.1 -1.3,0.5 -1.6,-1.5 -3.1,3.6 1,3.2 -1.5,1.3 -0.2,4.4 -1.1,6.3 -2.5,-1.2 -0.5,-3.1 -3.9,-1.1 -0.3,-2.7 -7.3,-23.4 -4.2,-13.6 1.4,-0.1 1.5,0.4 0,-2.6 0.8,-5.5 2.6,-4.7 1.5,-4 -1.9,-2.4 0,-6 0.8,-1 0.8,-2.7 -0.2,-1.5 -0.2,-4.8 1.8,-4.8 2.9,-8.9 2.1,-4.2 1.3,0 1.3,0.2 0,1.1 1.3,2.3 2.7,0.6 0.8,-0.8 0,-1 4,-2.9 1.8,-1.8 1.5,0.2 6,2.4 1.9,1 9.1,29.9 6,0 0.8,1.9 0.2,4.8 2.9,2.3 0.8,0 0.2,-0.5 -0.5,-1.1 2.8,-0.5 z m -20.9,30.2 1.5,-1.5 1.4,1.1 0.6,2.4 -1.7,0.9 -1.8,-2.9 z m 6.7,-5.9 1.8,1.9 c 0,0 1.3,0.1 1.3,-0.2 0,-0.3 0.2,-2 0.2,-2 l 0.9,-0.8 -0.8,-1.8 -2,0.7 -1.4,2.2 z"
     id="ME"
     class="state" />
  <path
     inkscape:connector-curvature="0"
     d="m 572.6,75.7 1.8,-2.1 2.2,-0.8 5.4,-3.9 2.3,-0.6 0.5,0.5 -5.1,5.1 -3.3,1.9 -2.1,0.9 -1.7,-1 z m 86.2,32.1 0.6,2.5 3.2,0.2 1.3,-1.2 c 0,0 -0.1,-1.5 -0.4,-1.6 -0.3,-0.2 -1.6,-1.9 -1.6,-1.9 l -2.2,0.2 -1.6,0.2 -0.3,1.1 1,0.5 z m 30.1,63 -3.2,-8.2 -2.3,-9.1 -2.4,-3.2 -2.6,-1.8 -1.6,1.1 -3.9,1.8 -1.9,5 -2.7,3.7 -1.1,0.6 -1.5,-0.6 c 0,0 -2.6,-1.5 -2.4,-2.1 0.2,-0.6 0.5,-5 0.5,-5 l 3.4,-1.3 0.8,-3.4 0.6,-2.6 2.4,-1.6 -0.3,-10 -1.6,-2.3 -1.3,-0.8 -0.8,-2.1 0.8,-0.8 1.6,0.3 0.2,-1.6 -2.6,-2.2 -1.3,-2.6 -2.6,0 -4.5,-1.5 -5.5,-3.4 -2.7,0 -0.6,0.6 -1,-0.5 -3.1,-2.3 -2.9,1.8 -2.9,2.3 0.3,3.6 1,0.3 2.1,0.5 0.5,0.8 -2.6,0.8 -2.6,0.3 -1.5,1.8 -0.3,2.1 0.3,1.6 0.3,5.5 -3.6,2.1 -0.6,-0.2 0,-4.2 1.3,-2.4 0.6,-2.4 -0.8,-0.8 -1.9,0.8 -1,4.2 -2.7,1.1 -1.8,1.9 -0.2,1 0.6,0.8 -0.6,2.6 -2.3,0.5 0,1.1 0.8,2.4 -1.1,6.1 -1.6,4 0.6,4.7 0.5,1.1 -0.8,2.4 -0.3,0.8 -0.3,2.7 3.6,6 2.9,6.5 1.5,4.8 -0.8,4.7 -1,6 -2.4,5.2 -0.3,2.7 -3.3,3.1 4.4,-0.2 21.4,-2.3 7.3,-1 0.1,1.7 6.9,-1.2 10.3,-1.5 3.9,-0.5 0.1,-0.6 0.2,-1.5 2.1,-3.7 2,-1.7 -0.2,-5.1 1.6,-1.6 1.1,-0.3 0.2,-3.6 1.5,-3 1.1,0.6 0.2,0.6 0.8,0.2 1.9,-1 -0.4,-9.1 z m -130.4,-66 0.7,-0.6 2.7,-0.8 3.6,-2.3 0,-1 0.6,-0.6 6,-1 2.4,-1.9 4.4,-2.1 0.2,-1.3 1.9,-2.9 1.8,-0.8 1.3,-1.8 2.3,-2.3 4.4,-2.4 4.7,-0.5 1.1,1.1 -0.3,1 -3.7,1 -1.5,3.1 -2.3,0.8 -0.5,2.4 -2.4,3.2 -0.3,2.6 0.8,0.5 1,-1.1 3.6,-2.9 1.3,1.3 2.3,0 3.2,1 1.5,1.1 1.5,3.1 2.7,2.7 3.9,-0.2 1.5,-1 1.6,1.3 1.6,0.5 1.3,-0.8 1.1,0 1.6,-1 4,-3.6 3.4,-1.1 6.6,-0.3 4.5,-1.9 2.6,-1.3 1.5,0.2 0,5.7 0.5,0.3 2.9,0.8 1.9,-0.5 6.1,-1.6 1.1,-1.1 1.5,0.5 0,7 3.2,3.1 1.3,0.6 1.3,1 -1.3,0.3 -0.8,-0.3 -3.7,-0.5 -2.1,0.6 -2.3,-0.2 -3.2,1.5 -1.8,0 -5.8,-1.3 -5.2,0.2 -1.9,2.6 -7,0.6 -2.4,0.8 -1.1,3.1 -1.3,1.1 -0.5,-0.2 -1.5,-1.6 -4.5,2.4 -0.6,0 -1.1,-1.6 -0.8,0.2 -1.9,4.4 -1,4 -3.2,7 -1.2,-1 -1.4,-1 -1.9,-10.3 -3.5,-1.4 -2.1,-2.3 -12.1,-2.7 -2.9,-1 -8.2,-2.2 -7.9,-1.1 -3.8,-5.3 z"
     id="MI"
     class="state" />
  <path
     inkscape:connector-curvature="0"
     d="m 462.9,122.1 -0.5,-8.5 -1.8,-7.3 -1.8,-13.5 -0.5,-9.8 -1.8,-3.4 -1.6,-5 0,-10.3 0.7,-3.9 -1.8,-5.5 30.1,0 0.3,-8.2 0.6,-0.2 2.3,0.5 1.9,0.8 0.8,5.5 1.5,6.1 1.6,1.6 4.8,0 0.3,1.5 6.3,0.3 0,2.1 4.8,0 0.3,-1.3 1.1,-1.1 2.3,-0.6 1.3,1 2.9,0 3.9,2.6 5.3,2.4 2.4,0.5 0.5,-1 1.5,-0.5 0.5,2.9 2.6,1.3 0.5,-0.5 1.3,0.2 0,2.1 2.6,1 3.1,0 1.6,-0.8 3.2,-3.2 2.6,-0.5 0.8,1.8 0.5,1.3 1,0 1,-0.8 8.9,-0.3 1.8,3.1 0.6,0 0.7,-1.1 4.4,-0.4 -0.6,2.3 -3.9,1.8 -9.2,4.1 -4.8,2 -3.1,2.6 -2.4,3.6 -2.3,3.9 -1.8,0.8 -4.5,5 -1.3,0.2 -3.8,2.9 -2.8,3.2 -0.2,3 0.2,7.8 -1.6,1.6 -5.2,3.8 -1.8,5.7 2.5,3.6 0.5,2.5 -1.1,3 -0.2,3.7 0.5,7.1 3.4,4.1 3,0 2.5,2.3 3.2,1.4 3.7,5 7.1,5 1.8,2.1 0.2,5.7 -20.6,0.7 -60.2,0.5 -0.3,-35.7 -0.5,-3 -4.1,-3.4 -1.1,-1.8 0,-1.6 2.1,-1.6 1.4,-1.4 -0.1,-3.4 z"
     id="MN"
     class="state" />
  <path
     inkscape:connector-curvature="0"
     d="m 546.8,243.1 -2.5,-3.1 -1.1,-2.3 -7.8,0.7 -9.8,0.5 -25.4,0.9 -13.5,0.2 -7.9,0.1 -2.3,0.1 1.3,2.5 -0.2,2.3 2.5,3.9 3.1,4.1 3.1,2.7 2.3,0.2 1.4,0.9 0,3 -1.8,1.6 -0.5,2.3 2.1,3.4 2.5,3 2.5,1.8 1.4,11.7 -0.7,35.3 0.2,4.7 0.5,5.4 23.4,-0.1 23.2,-0.7 20.8,-0.8 11.7,-0.2 2.2,3.4 -0.7,3.3 -3.1,2.4 -0.6,1.8 5.4,0.5 3.9,-0.7 1.7,-5.5 0.7,-5.9 2.3,-2 1.7,-1.5 2.1,-1 0.1,-2.9 0.6,-1.7 -1,-1.7 -2.7,0.1 -2.2,-2.6 -1.4,-4.2 0.8,-2.5 -1.9,-3.4 -1.8,-4.6 -4.8,-0.8 -7,-5.6 -1.7,-4.1 0.8,-3.2 2.1,-6.1 0.5,-2.9 -1.9,-1 -6.9,-0.8 -1,-1.7 -0.1,-4.2 -5.5,-3.4 -7,-7.8 -2.3,-7.3 -0.2,-4.2 0.4,-2.3 z"
     id="MO"
     class="state" />
  <path
     inkscape:connector-curvature="0"
     d="m 615.6,460.6 -0.3,1.3 -5.2,0 -1.5,-0.8 -2.1,-0.3 -6.8,1.9 -1.8,-0.8 -2.6,4.2 -1.1,0.8 -1.1,-2.5 -1.1,-3.9 -3.4,-3.2 1.1,-7.5 -0.7,-0.9 -1.8,0.2 -8.2,0.7 -24.2,0.7 -0.5,-1.6 0.7,-8 3.4,-6.2 5.3,-9.1 -0.9,-2.1 1.1,0 0.7,-3.2 -2.3,-1.8 0.2,-1.8 -2.1,-4.6 -0.3,-5.3 1.4,-2.7 -0.4,-4.3 -1.4,-3 1.4,-1.4 -1.4,-2.1 0.5,-1.8 0.9,-6.2 3,-2.7 -0.7,-2.1 3.7,-5.3 2.7,-0.9 0,-2.5 -0.7,-1.4 2.7,-5.3 2.7,-1.1 0.1,-3.4 8.7,-0.1 24.1,-1.9 4.6,-0.2 0,6.4 0.2,16.7 -0.8,31 -0.2,14.1 2.7,18.8 1.7,15.2 z"
     id="MS"
     class="state" />
  <path
     inkscape:connector-curvature="0"
     d="m 347.7,115.9 0.6,-11.2 2.3,-24.8 c 0.5,-5 1.1,-8.5 1.4,-15.4 L 352.9,49.9 322.2,47.1 293,43.6 263.7,39.6 231.4,34.3 213,30.9 180.3,24 l -4.5,21.3 3.4,7.5 -1.4,4.6 1.8,4.6 3.2,1.4 4.6,10.8 2.7,3.2 0.5,1.1 3.4,1.1 0.5,2.1 -7.1,17.6 0,2.5 2.5,3.2 0.9,0 4.8,-3 0.7,-1.1 1.6,0.7 -0.2,5.3 2.7,12.6 3,2.5 0.9,0.7 1.8,2.3 -0.5,3.4 0.7,3.4 1.1,0.9 2.3,-2.3 2.7,0 3.2,1.6 2.5,-0.9 4.1,0 3.7,1.6 2.7,-0.5 0.5,-3 3,-0.7 1.4,1.4 0.5,3.2 1.8,1.4 1.5,-11.6 20.7,3 28.2,4 16.6,1.9 31.4,3.5 11,1.5 1.1,-15.4 1.4,-5.5 z"
     id="MT"
     class="state" />
  <path
     inkscape:connector-curvature="0"
     d="m 823.1,292.1 1.7,4.7 3.6,6.5 2.4,2.4 0.6,2.3 -2.4,0.2 0.8,0.6 -0.3,4.2 -2.6,1.3 -0.6,2.1 -1.3,2.9 -3.7,1.6 -2.4,-0.3 -1.5,-0.2 -1.6,-1.3 0.3,1.3 0,1 1.9,0 0.8,1.3 -1.9,6.3 4.2,0 0.6,1.6 2.3,-2.3 1.3,-0.5 -1.9,3.6 -3.1,4.8 -1.3,0 -1.1,-0.5 -2.7,0.6 -5.2,2.4 -6.5,5.3 -3.4,4.7 -1.9,6.5 -0.5,2.4 -4.7,0.5 -5.5,1.3 -9.9,-8.2 -12.6,-7.6 -2.9,-0.8 -12.6,1.5 -4.3,0.8 -1.6,-3.2 -3,-2.1 -16.5,0.5 -7.3,0.8 -9.1,4.5 -6.1,2.6 -1.6,0.3 -5.8,1 -7,0.8 -6.8,0.5 0.5,-4.1 1.8,-1.5 2.7,-0.6 0.6,-3.7 4.2,-2.7 3.9,-1.5 4.2,-3.6 4.4,-2.1 0.6,-3.1 3.9,-3.9 0.6,-0.2 c 0,0 0,1.1 0.8,1.1 0.8,0 1.9,0.3 1.9,0.3 l 2.3,-3.6 2.1,-0.6 2.3,0.3 1.6,-3.6 2.9,-2.6 0.5,-2.1 0,-4 4.5,0.7 7.1,-1.3 15.8,-1.9 17.1,-2.6 19.9,-4 19.7,-4.2 11.4,-2.8 5.4,-0.8 z m 3.9,33 2.6,-2.5 3.2,-2.6 1.5,-0.6 0.2,-2 -0.6,-6.1 -1.5,-2.3 -0.6,-1.9 0.7,-0.2 2.7,5.5 0.4,4.4 -0.2,3.4 -3.4,1.5 -2.8,2.4 -1.1,1.2 -1.1,-0.2 z"
     id="NC"
     class="state" />
  <path
     inkscape:connector-curvature="0"
     d="m 462.3,121.3 -0.4,-7.5 -2,-7.3 -1.8,-13.6 -0.5,-9.8 -2,-3.1 -1.6,-5.4 0,-10.3 0.7,-3.9 -2.1,-5.5 -28.4,-0.6 -18.6,-0.6 -26.5,-1.3 -24.9,-1.9 -1.3,14.2 -1.4,15.1 -2.3,24.9 -0.5,11 56.8,3.8 56.8,1.8 z"
     id="ND"
     class="state" />
  <path
     inkscape:connector-curvature="0"
     d="m 475.2,240.6 1.4,2.7 0.1,2.1 2.4,3.7 2.7,3.2 -5,0 -43.5,-0.9 -40.8,-0.9 -21.2,-1 1.1,-21.3 -33.4,-2.7 4.3,-44 15.5,1 20.2,1.1 17.8,1.1 23.8,1.1 10.7,-0.5 2.1,2.3 4.8,3 1.1,0.9 4.3,-1.4 3.9,-0.5 2.7,-0.2 1.8,1.4 5,1.6 3,1.6 0.5,1.6 0.9,2.1 1.8,0 0.8,0 1,5.2 2.7,8 1.2,4.6 2.1,3.8 0.5,4.9 1.4,4.3 0.5,6.5"
     id="NE"
     class="state" />
  <path
     inkscape:connector-curvature="0"
     d="m 871.8,136 0.9,-1.1 1.1,-3.3 -2.5,-0.9 -0.5,-3.1 -3.9,-1.1 -0.3,-2.7 -7.3,-23.4 -4.6,-14.5 -0.9,0 -0.6,1.6 -0.6,-0.5 -1,-1 -1.5,1.9 0,5 0.3,5.7 1.9,2.7 0,4 -3.7,5.1 -2.6,1.1 0,1.1 1.1,1.8 0,8.6 -0.8,9.2 -0.2,4.8 1,1.3 -0.2,4.5 -0.5,1.8 1.5,0.9 16.4,-4.7 2.3,-0.6 1.5,-2.6 3.7,-1.6 z"
     id="NH"
     class="state" />
  <path
     inkscape:connector-curvature="0"
     d="m 819.2,183.9 -2.1,2.4 0,3.1 -1.9,3.1 -0.2,1.6 1.3,1.3 -0.2,2.4 -2.3,1.1 0.8,2.7 0.2,1.1 2.7,0.3 1,2.6 3.6,2.4 2.4,1.6 0,0.8 -3.2,3.1 -1.6,2.3 -1.5,2.7 -2.3,1.3 -1.2,0.7 -0.2,1.2 -0.6,2.6 1.1,2.2 3.2,2.9 4.8,2.3 4,0.6 0.2,1.5 -0.8,1 0.3,2.7 0.8,0 2.1,-2.4 0.8,-4.8 2.7,-4 3.1,-6.5 1.1,-5.5 -0.6,-1.1 -0.2,-9.4 -1.6,-3.4 -1.1,0.8 -2.7,0.3 -0.5,-0.5 1.1,-1 2.1,-1.9 0.1,-1.1 -0.4,-3.4 0.5,-2.7 -0.2,-2.1 -2.6,-1.1 -4.5,-1 -3.9,-1.1 -3.6,-1.7 z"
     id="NJ"
     class="state" />
  <path
     inkscape:connector-curvature="0"
     d="m 273.7,424.6 -0.7,-6.1 8.6,0.5 29.5,3.1 28.4,1.4 2,-22.3 3.7,-55.9 1.1,-19.4 2,0.3 0,-11.1 -32.2,-2.4 -36.9,-4.4 -34.5,-4.1 -4.2,30.8 -7,53.2 -3.8,26.9 -2,13.3 15.5,2 1.3,-10 16.7,2.6 12.5,1.6 z"
     id="NM"
     class="state" />
  <path
     inkscape:connector-curvature="0"
     d="m 131.7,171.2 21,4.5 9.7,1.9 9.3,1.8 6.6,1.6 -0.6,5.9 -3.5,17.3 -4.1,20 -1.9,9.7 -2.2,13.3 -3.2,16.4 -3.5,15.7 -2,10.2 -2.5,16.8 -0.5,1.1 -1.1,2.5 -1.9,-0.1 -1.1,-2.7 -2.7,-0.5 -1.4,-1 -2,0.3 -0.9,0.7 -1.3,1.3 -0.4,7 -0.5,1.7 -0.4,12.1 -1.3,1.7 -1.9,-2.3 -14.5,-22.7 -19.4,-29 -22.9,-33.8 -12.4,-18.6 1.6,-6.6 7,-25.9 7.9,-31.3 33.6,8.1 13.7,3"
     id="NV"
     class="state" />
  <path
     inkscape:connector-curvature="0"
     d="m 819.9,182.9 -1.1,-1 -2.6,-0.2 -2.3,-1.9 -1.6,-6.1 -3.5,0.1 -2.4,-2.7 -19.4,4.4 -43,8.7 -7.5,1.2 -0.7,-6.5 1.4,-1.1 1.3,-1.1 1,-1.6 1.8,-1.1 1.9,-1.8 0.5,-1.6 2.1,-2.7 1.1,-1 -0.2,-1 -1.3,-3.1 -1.8,-0.2 -1.9,-6.1 2.9,-1.8 4.4,-1.5 4,-1.3 3.2,-0.5 6.3,-0.2 1.9,1.3 1.6,0.2 2.1,-1.3 2.6,-1.1 5.2,-0.5 2.1,-1.8 1.8,-3.2 1.6,-1.9 2.1,0 1.9,-1.1 0.2,-2.3 -1.5,-2.1 -0.3,-1.5 1.1,-2.1 0,-1.5 -1.8,0 -1.8,-0.8 -0.8,-1.1 -0.2,-2.6 5.8,-5.5 0.6,-0.8 1.5,-2.9 2.9,-4.5 2.7,-3.7 2.1,-2.4 2.4,-1.8 3.1,-1.2 5.5,-1.3 3.2,0.2 4.5,-1.5 7.6,-2.1 0.5,5 2.4,6.5 0.8,5.2 -1,3.9 2.6,4.5 0.8,2.1 -0.8,2.9 2.9,1.3 0.6,0.3 3.1,11 -0.5,5.1 -0.5,10.8 0.8,5.5 0.8,3.6 1.5,7.3 0,8.1 -1.1,2.3 1.8,2 0.8,1.7 -1.9,1.8 0.3,1.3 1.3,-0.3 1.5,-1.3 2.3,-2.6 1.1,-0.6 1.6,0.6 2.3,0.2 7.9,-3.9 2.9,-2.7 1.3,-1.5 4.2,1.6 -3.4,3.6 -3.9,2.9 -7.1,5.3 -2.6,1 -5.8,1.9 -4,1.1 -1.2,-0.5 -0.2,-3.7 0.5,-2.7 -0.2,-2.1 -2.8,-1.7 -4.5,-1 -3.9,-1.1 -3.5,-2.1 z"
     id="NY"
     class="state" />
  <path
     inkscape:connector-curvature="0"
     d="m 722.4,188.6 -6.1,4.1 -3.9,2.3 -3.4,3.7 -4,3.9 -3.2,0.8 -2.9,0.5 -5.5,2.6 -2.1,0.2 -3.4,-3.1 -5.2,0.6 -2.6,-1.5 -2.4,-1.4 -4.9,0.7 -10.2,1.6 -7.8,1.2 1.3,14.6 1.8,13.7 2.6,23.4 0.6,4.8 4.1,-0.1 2.4,-0.8 3.4,1.5 2.1,4.4 5.1,0 1.9,2.1 1.8,-0.1 2.5,-1.3 2.5,0.4 2,1.5 1.7,-2.1 2.3,-1.3 2.1,-0.7 0.6,2.7 1.8,1 3.5,2.3 2.2,-0.1 1.1,-1.1 -0.1,-1.4 1.6,-1.5 0.2,-5 1,-3.9 1.5,-1.4 1.5,0.9 0.8,1.2 1.2,-0.2 -0.4,-2.4 -0.6,-0.6 0,-2.4 1,-1.3 2.3,-3.4 1.3,-1.5 2.1,0.5 2.3,-1.6 3.1,-3.4 2.3,-3.9 0.2,-5.4 0.5,-5 0,-4.7 -1.1,-3.1 1,-1.5 0.9,-1 -1.4,-9.8 -3,-19.2 z"
     id="OH"
     class="state" />
  <path
     inkscape:connector-curvature="0"
     d="m 366.3,316.2 -10.7,-0.5 -6.4,-0.5 0.3,0.2 -0.7,10.4 22,1.4 32.1,1.3 -2.3,24.4 -0.5,17.8 0.2,1.6 4.3,3.7 2.1,1.1 0.7,-0.2 0.7,-2.1 1.4,1.8 2.1,0 0,-1.4 2.7,1.4 -0.5,3.9 4.1,0.2 2.5,1.1 4.1,0.7 2.5,1.8 2.3,-2.1 3.4,0.7 2.5,3.4 0.9,0 0,2.3 2.3,0.7 2.3,-2.3 1.8,0.7 2.5,0 0.9,2.5 4.8,1.8 1.4,-0.7 1.8,-4.1 1.1,0 1.1,2.1 4.1,0.7 3.7,1.4 3,0.9 1.8,-0.9 0.7,-2.5 4.3,0 2.1,0.9 2.7,-2.1 1.1,0 0.7,1.6 4.1,0 1.6,-2.1 1.8,0.5 2.1,2.5 3.2,1.8 3.2,0.9 1.9,1.1 -0.4,-37.2 -1.4,-11 -0.2,-8.9 -1.4,-6.5 -0.8,-7.2 -0.1,-3.8 -12.1,0.3 -46.4,-0.5 -45,-2.1 -24.1,-0.9 z"
     id="OK"
     class="state" />
  <path
     inkscape:connector-curvature="0"
     d="m 131.2,170.4 4.3,-17.9 4.7,-17.9 1.1,-4.2 2.4,-5.6 -0.6,-1.2 -2.5,0 -1.3,-1.7 0.5,-1.5 0.5,-3.2 4.5,-5.5 1.8,-1.1 1.1,-1.1 1.5,-3.6 4,-5.7 3.6,-3.9 0.2,-3.5 -3.3,-2.5 -1.2,-4.5 -13.2,-3.7 -15.1,-3.5 -15.4,0.1 -0.5,-1.4 -5.5,2.1 -4.5,-0.6 -2.4,-1.6 -1.3,0.7 -4.6,-0.3 -1.7,-1.3 -5.3,-2 -0.8,0 -4.3,-1.4 -1.9,1.8 -6.2,-0.3 -5.9,-4.1 0.7,-0.8 0.2,-7.8 -2.3,-3.9 -4.1,-0.6 -0.7,-2.5 -2.4,-0.5 -5.8,2.1 -2.3,6.5 -3.2,10 -3.2,6.5 -5,14.1 -6.5,13.6 -8.1,12.6 -1.9,2.9 -0.8,8.6 -1.3,6 2.7,3.5 6.7,2.3 11.6,3.3 7.9,2.5 12.4,3.6 13.3,3.6 13.2,3.6"
     id="OR"
     class="state" />
  <path
     inkscape:connector-curvature="0"
     d="m 813.2,219.9 1.1,-0.6 2.3,-0.6 1.5,-2.7 1.6,-2.3 3.2,-3.1 0,-0.8 -2.4,-1.6 -3.6,-2.4 -1,-2.6 -2.7,-0.3 -0.2,-1.1 -0.8,-2.7 2.3,-1.1 0.2,-2.4 -1.3,-1.3 0.2,-1.6 1.9,-3.1 0,-3.1 2.3,-2.4 0.2,-1.1 -2.6,-0.2 -2.3,-1.9 -2.4,-5.3 -3,-0.9 -2.3,-2.1 -18.6,4 -43,8.7 -8.9,1.5 -0.5,-7.1 -5.5,5.6 -1.3,0.5 -4.2,3 2.9,19.1 2.9,9.5 3.6,19.3 3.3,-0.6 11.9,-1.5 37.9,-7.7 14.9,-2.8 8.3,-1.6 0.3,-0.2 2.1,-1.6 1.7,-0.8 z"
     id="PA"
     class="state" />
  <path
     inkscape:connector-curvature="0"
     d="m 865.1,173.4 -0.5,-4.2 -0.8,-4.4 -1.7,-5.9 5.7,-1.5 1.6,1.1 3.4,4.4 2.9,4.4 -2.9,1.5 -1.3,-0.2 -1.1,1.8 -2.4,1.9 -2.9,1.1 z"
     id="RI"
     class="state" />
  <path
     inkscape:connector-curvature="0"
     d="m 752.2,406.5 -1.8,1 -2.6,-1.3 -0.6,-2.1 -1.3,-3.6 -2.3,-2.1 -2.6,-0.6 -1.6,-4.8 -2.7,-6 -4.2,-1.9 -2.1,-1.9 -1.3,-2.6 -2.1,-2 -2.3,-1.3 -2.3,-2.9 -3.1,-2.3 -4.5,-1.8 -0.5,-1.5 -2.4,-2.9 -0.5,-1.5 -3.4,-5.2 -3.4,0.2 -4,-2.4 -1.3,-1.3 -0.3,-1.8 0.8,-1.9 2.3,-1 -0.3,-2.1 6.1,-2.6 9.1,-4.5 7.3,-0.8 16.5,-0.5 2.3,1.9 1.6,3.2 4.4,-0.5 12.6,-1.5 2.9,0.8 12.6,7.6 10.1,8.1 -5.4,5.5 -2.6,6.1 -0.5,6.3 -1.6,0.8 -1.1,2.7 -2.4,0.6 -2.1,3.6 -2.7,2.7 -2.3,3.4 -1.6,0.8 -3.6,3.4 -2.9,0.2 1,3.2 -5,5.5 -2.3,1.6 z"
     id="SC"
     class="state" />
  <path
     inkscape:connector-curvature="0"
     d="m 463.8,196.8 -1,-1.1 -1.5,-3.6 1.8,-3.7 1.1,-5.6 -2.6,-2.1 -0.3,-2.7 0.6,-3 2.2,-0.8 0.3,-5.7 -0.1,-30.1 -0.6,-3 -4.1,-3.6 -1,-2 0,-1.9 1.9,-1.3 1.5,-1.9 0.2,-2.7 -57.4,-1.6 -56.2,-3.9 -0.8,5.3 -1.6,15.9 -1.3,17.9 -1.6,24.6 16,1 19.6,1.1 18,1.3 23.8,1.3 10.7,-0.8 2.9,2.3 4.3,3 1,0.8 3.5,-0.9 4,-0.3 2.7,-0.1 3.1,1.2 4.5,1.4 3.1,1.8 0.6,1.9 0.9,1.9 0.7,-0.5 1.1,0.2 z"
     id="SD"
     class="state" />
  <path
     inkscape:connector-curvature="0"
     d="m 688.1,314.2 -51.9,5 -15.8,1.8 -4.6,0.5 -3.9,0 0,3.9 -8.4,0.5 -7,0.6 -11.1,0.1 -0.3,5.8 -2.1,6.3 -1,3 -1.3,4.4 -0.3,2.6 -4,2.3 1.5,3.6 -1,4.4 -1,0.8 7.3,-0.2 24.1,-1.9 5.3,-0.2 8.1,-0.5 27.8,-2.6 10.2,-0.8 8.4,-1 8.4,-1.1 4.8,-0.8 -0.1,-4.5 1.8,-1.5 2.7,-0.6 0.6,-3.7 4.2,-2.7 3.9,-1.5 4.2,-3.6 4.4,-2.1 0.9,-3.5 4.3,-3.9 0.6,-0.2 c 0,0 0,1.1 0.8,1.1 0.8,0 1.9,0.3 1.9,0.3 l 2.3,-3.6 2.1,-0.6 2.3,0.3 1.6,-3.6 2.1,-2.2 0.6,-1 0.2,-3.9 -1.5,-0.3 -2.4,1.9 -7.9,0.2 -12,1.9 -9.8,0.8 z"
     id="TN"
     class="state" />
  <path
     inkscape:connector-curvature="0"
     d="m 348.1,327 22.7,1.1 31.1,1.1 -2.3,23.5 -0.3,18.2 0.1,2.1 4.3,3.8 1.7,0.8 1.8,0.3 0.7,-1.3 0.9,0.9 1.7,0.5 1.6,-0.7 1.1,0.4 -0.3,3.4 4.3,1 2.7,0.8 4,0.5 2.2,1.8 3.2,-1.6 2.8,0.4 2,2.8 1.1,0.3 -0.2,2 3.1,1.2 2.8,-1.8 1.5,0.4 2.4,0.2 0.4,1.9 4.6,2 2.7,-0.2 2,-4.1 0.3,0 1.1,1.9 4.4,1 3.3,1.2 3.3,0.8 2.1,-0.8 0.8,-2.5 3.7,0 1.9,0.8 3.1,-1.6 0.7,0 0.4,1.1 4.3,0 2.4,-1.3 1.7,0.3 1.4,1.9 2.9,1.7 3.5,1.1 2.7,1.4 2.4,1.6 3.3,-0.9 1.9,1 0.5,10.1 0.3,9.7 0.7,9.5 0.5,4 2.7,4.6 1.1,4.1 3.9,6.3 0.5,2.9 0.5,1 -0.7,7.5 -2.7,4.4 1,2.9 -0.4,2.5 -0.8,7.3 -1.4,2.7 0.6,4.4 -5.7,1.6 -9.9,4.5 -1,1.9 -2.6,1.9 -2.1,1.5 -1.3,0.8 -5.7,5.3 -2.7,2.1 -5.3,3.2 -5.7,2.4 -6.3,3.4 -1.8,1.5 -5.8,3.6 -3.4,0.6 -3.9,5.5 -4,0.3 -1,1.9 2.3,1.9 -1.5,5.5 -1.3,4.5 -1.1,3.9 -0.8,4.5 0.8,2.4 1.8,7 1,6.1 1.8,2.7 -1,1.5 -3.1,1.9 -5.7,-3.9 -5.5,-1.1 -1.3,0.5 -3.2,-0.6 -4.2,-3.1 -5.2,-1.1 -7.6,-3.4 -2.1,-3.9 -1.3,-6.5 -3.2,-1.9 -0.6,-2.3 0.6,-0.6 0.3,-3.4 -1.3,-0.6 -0.6,-1 1.3,-4.4 -1.6,-2.3 -3.2,-1.3 -3.4,-4.4 -3.6,-6.6 -4.2,-2.6 0.2,-1.9 -5.3,-12.3 -0.8,-4.2 -1.8,-1.9 -0.2,-1.5 -6,-5.3 -2.6,-3.1 0,-1.1 -2.6,-2.1 -6.8,-1.1 -7.4,-0.6 -3.1,-2.3 -4.5,1.8 -3.6,1.5 -2.3,3.2 -1,3.7 -4.4,6.1 -2.4,2.4 -2.6,-1 -1.8,-1.1 -1.9,-0.6 -3.9,-2.3 0,-0.6 -1.8,-1.9 -5.2,-2.1 -7.4,-7.8 -2.3,-4.7 0,-8.1 -3.2,-6.5 -0.5,-2.7 -1.6,-1 -1.1,-2.1 -5,-2.1 -1.3,-1.6 -7.1,-7.9 -1.3,-3.2 -4.7,-2.3 -1.5,-4.4 -2.6,-2.9 -1.9,-0.5 -0.6,-4.7 8,0.7 29,2.7 29.3,1.6 2.3,-23.8 3.9,-55.6 1.6,-18.7 1.4,0 m 99.1,234.1 -0.6,-7.1 -2.7,-7.2 -0.6,-7 1.5,-8.2 3.3,-6.9 3.5,-5.4 3.2,-3.6 0.6,0.2 -4.8,6.6 -4.4,6.5 -2,6.6 -0.3,5.2 0.9,6.1 2.6,7.2 0.5,5.2 0.2,1.5 -0.9,0.3 z"
     id="TX"
     class="state" />
  <path
     inkscape:connector-curvature="0"
     d="m 244,302.9 -24.6,-3.5 -26.6,-4.9 -33.8,-6 1.6,-9.2 3.2,-15.2 3.2,-16.5 2.2,-13.6 1.9,-8.9 3.8,-20.5 3.5,-17.5 1.1,-5.6 12.7,2.3 12,2.1 10.3,1.8 8.3,1.4 3.7,0.5 -1.5,10.6 -2.3,13.2 7.8,0.9 16.4,1.8 8.2,0.9 -2.1,22 -3.2,22.6 -3.8,27.8 -1.7,11.1 -0.3,2.4 z"
     id="UT"
     class="state" />
  <path
     inkscape:connector-curvature="0"
     d="m 819.9,262.8 -0.1,-1.9 6.5,-2.5 -0.8,3.2 -2.9,3.8 -0.4,4.6 0.5,3.4 -1.8,5 -2.2,1.9 -1.5,-4.6 0.4,-5.4 1.6,-4.2 0.7,-3.3 z m 2.3,28.3 -58.2,12.6 -37.4,5.3 -6.7,-0.4 -2.6,1.9 -7.3,0.2 -8.4,1 -8.9,1 8.5,-4.9 0,-2.1 1.5,-2.1 10.6,-11.5 3.9,4.5 3.8,1 2.5,-1.1 2.2,-1.3 2.5,1.3 3.9,-1.4 1.9,-4.6 2.6,0.5 2.9,-2.1 1.8,0.5 2.8,-3.7 0.3,-2.1 -1,-1.3 1,-1.9 5.3,-12.3 0.6,-5.7 1.2,-0.5 2.2,2.4 3.9,-0.3 1.9,-7.6 2.8,-0.6 1,-2.7 2.6,-2.3 1.3,-2.3 1.5,-3.4 0.1,-5.1 9.8,3.8 c 0.7,0.3 0.7,-4.8 0.7,-4.8 l 4.1,1.4 -0.5,2.6 8.2,2.9 1.3,1.8 -0.9,3.7 -1.3,1.3 -0.5,1.7 0.5,2.4 2,1.3 3.9,1.4 2.9,1 4.9,0.9 2.2,2.1 3.2,0.4 0.9,1.2 -0.4,4.7 1.4,1.1 -0.5,1.9 1.2,0.8 -0.2,1.4 -2.7,-0.1 0.1,1.6 2.3,1.5 0.1,1.4 1.8,1.8 0.5,2.5 -2.6,1.4 1.6,1.5 5.8,-1.7 3.6,6.2 z"
     id="VA"
     class="state" />
  <path
     inkscape:connector-curvature="0"
     d="m 835.3,147.3 -0.8,-5.7 -2.4,-10 -0.6,-0.3 -2.9,-1.3 0.8,-2.9 -0.8,-2.1 -2.7,-4.6 1,-3.9 -0.8,-5.2 -2.4,-6.5 -0.8,-4.9 26.2,-6.7 0.3,5.8 1.9,2.7 0,4 -3.7,4 -2.6,1.1 0,1.1 1.1,1.8 0,8.6 -0.8,9.2 -0.2,4.8 1,1.3 -0.2,4.5 -0.5,1.8 0.7,1.6 -7,1.4 -3.8,0.4 z"
     id="VT"
     class="state" />
  <path
     inkscape:connector-curvature="0"
     d="m 84.6,0 4.4,1.5 9.7,2.7 8.6,1.9 20,5.7 23,5.7 15.2,3.4 -1,3.9 -4.1,13.8 -4.5,20.8 -3.2,16.1 -0.4,9.4 -13.2,-3.9 -15.6,-3.4 -13.7,0.6 -1.6,-1.5 -5.3,1.9 -4,-0.3 -2.7,-1.8 -1.6,0.5 -4.2,-0.2 -1.9,-1.4 -4.8,-1.7 -1.4,-0.2 -5,-1.3 -1.8,1.5 -5.7,-0.3 -4.8,-3.8 0.2,-0.8 0.1,-7.9 -2.1,-3.9 -4.1,-0.7 -0.4,-2.4 -2.5,-0.6 -2.9,-0.5 -1.8,1 -2.3,-2.9 0.3,-2.9 2.7,-0.3 1.6,-4 -2.6,-1.1 0.2,-3.7 4.4,-0.6 -2.7,-2.7 -1.5,-7.1 0.6,-2.9 0,-7.9 -1.8,-3.2 2.3,-9.4 2.1,0.5 2.4,2.9 2.7,2.6 3.2,1.9 4.5,2.1 3.1,0.6 2.9,1.5 3.4,1 2.3,-0.2 0,-2.4 1.3,-1.1 2.1,-1.3 0.3,1.1 0.3,1.8 -2.3,0.5 -0.3,2.1 1.8,1.5 1.1,2.4 0.6,1.9 1.5,-0.2 0.2,-1.3 -1,-1.3 -0.5,-3.2 0.8,-1.8 -0.6,-1.5 0,-2.6 L 86.4,9 85.3,6.4 82.9,1.6 83.2,0.8 84.6,0 Z m -9.5,5.9 2,-0.2 0.5,1.4 1.5,-1.6 2.3,0 0.8,1.5 -1.5,1.7 0.6,0.8 -0.7,2 -1.4,0.4 c 0,0 -0.9,0.1 -0.9,-0.2 0,-0.3 1.5,-2.6 1.5,-2.6 L 78.1,8.5 77.8,10 77.1,10.6 75.6,8.3 75.1,5.9 Z"
     id="WA"
     class="state" />
  <path
     inkscape:connector-curvature="0"
     d="m 603.9,190.8 0.4,-3 -1.6,-4.5 -0.6,-6.1 -1.1,-2.4 1,-3.1 0.8,-2.9 1.5,-2.6 -0.6,-3.4 -0.6,-3.6 0.5,-1.8 1.9,-2.4 0.2,-2.7 -0.8,-1.3 0.6,-2.6 0.5,-3.2 2.7,-5.7 2.9,-6.8 0.2,-2.3 -0.3,-1 -0.8,0.5 -4.2,6.3 -2.7,4 -1.9,1.8 -0.8,2.3 -1.5,0.8 -1.1,1.9 -1.5,-0.3 -0.2,-1.8 1.3,-2.4 2.1,-4.7 1.8,-1.6 1.1,-2.3 -1.6,-0.9 -1.4,-1.4 -1.6,-10.3 -3.7,-1.1 -1.4,-2.3 -12.6,-2.7 -2.5,-1.1 -8.2,-2.3 -8.2,-1.1 -4.2,-5.4 -0.5,1.3 -1.1,-0.2 -0.6,-1.1 -2.7,-0.8 -1.1,0.2 -1.8,1 -1,-0.6 0.6,-1.9 1.9,-3.1 1.1,-1.1 -1.9,-1.5 -2.1,0.8 -2.9,1.9 -7.4,3.2 -2.9,0.6 -2.9,-0.5 -1,-0.9 -2.1,2.8 -0.2,2.7 0,8.5 -1.1,1.6 -5.3,3.9 -2.3,5.9 0.5,0.2 2.5,2.1 0.7,3.2 -1.8,3.2 0,3.9 0.5,6.6 3,3 3.4,0 1.8,3.2 3.4,0.5 3.9,5.7 7.1,4.1 2.1,2.7 0.9,7.4 0.7,3.3 2.3,1.6 0.2,1.4 -2.1,3.4 0.2,3.2 2.5,3.9 2.5,1.1 3,0.5 1.3,1.4 9.2,0 26.1,-1.5 9.6,-1.3 z"
     id="WI"
     class="state" />
  <path
     inkscape:connector-curvature="0"
     d="m 747.4,235.8 1.1,4.9 1.1,6.9 3.6,-2.7 2.3,-3.1 2.5,-0.6 1.5,-1.5 1.8,-2.6 1.2,0.6 2.9,-0.3 2.6,-2.1 2,-1.5 1.8,-0.5 1.3,1 2.2,1.1 1.9,1.8 1.4,1.3 -0.1,4.7 -5.7,-3.1 -4.5,-1.8 -0.2,5.3 -0.5,2.1 -1.6,2.7 -0.6,1.6 -3.1,2.4 -0.5,2.3 -3.4,0.3 -0.3,3.1 -1.1,5.5 -2.6,0 -1.3,-0.8 -1.6,-2.7 -1.8,0.2 -0.3,4.4 -2.1,6.6 -5,10.8 0.8,1.3 -0.2,2.7 -2.1,1.9 -1.5,-0.3 -3.2,2.4 -2.6,-1 -1.8,4.7 c 0,0 -3.7,0.8 -4.4,1 -0.6,0.2 -2.4,-1.3 -2.4,-1.3 l -2.4,2.3 -2.6,0.6 -2.9,-0.8 -1.3,-1.3 -2.2,-3 -3.1,-2 -2.6,-2.7 -2.9,-3.7 -0.6,-2.3 -2.6,-1.5 -0.8,-1.6 -0.2,-5.3 2.2,-0.1 1.9,-0.8 0.2,-2.7 1.6,-1.5 0.2,-5 1,-3.9 1.3,-0.6 1.3,1.1 0.5,1.8 1.8,-1 0.5,-1.6 -1.1,-1.8 0,-2.4 1,-1.3 2.3,-3.4 1.3,-1.5 2.1,0.5 2.3,-1.6 3.1,-3.4 2.3,-3.9 0.3,-5.7 0.5,-5 0,-4.7 -1.1,-3.1 1,-1.5 1.3,-1.3 3.5,19.8 4.6,-0.8 10.8,-1 z"
     id="WV"
     class="state" />
  <path
     inkscape:connector-curvature="0"
     d="m 345.3,137.4 -10.5,-0.8 -32.1,-3.3 -16.2,-2.1 -28.3,-4.1 -19.9,-3 -1.4,11.2 -3.8,24.3 -5.3,30.4 -1.5,10.5 -1.7,11.9 6.5,0.9 25.9,2.5 20.6,2.3 36.8,4.1 23.8,2.9 4.5,-44.2 1.4,-25.4 1.2,-18.1 z"
     id="WY"
     class="state" />
  <path
     d="m 795.29775,244.62312 -4.17797,-3.23456 -1.75206,3.50411 3.63889,3.36933 z"
     id="DC"
     class="state"
     inkscape:connector-curvature="0" />
</svg>
