<?xml version="1.0" encoding="UTF-8" standalone="no"?>
<?xml-stylesheet type="text/css" href="/stylesheets/state.css" ?> 
<svg
   xmlns:dc="http://purl.org/dc/elements/1.1/"
   xmlns:cc="http://creativecommons.org/ns#"
   xmlns:rdf="http://www.w3.org/1999/02/22-rdf-syntax-ns#"
   xmlns:svg="http://www.w3.org/2000/svg"
   xmlns="http://www.w3.org/2000/svg"
   xmlns:sodipodi="http://sodipodi.sourceforge.net/DTD/sodipodi-0.dtd"
   xmlns:inkscape="http://www.inkscape.org/namespaces/inkscape"
   viewBox="0 0 918.40004 582.5"
   id="svg2"
   version="1.1"
   inkscape:version="0.91 r"
   sodipodi:docname="us_state_map.svg"
   height="100%"
   width="100%">
  <metadata
     id="metadata63">
    <rdf:RDF>
      <cc:Work
         rdf:about="">
        <dc:format>image/svg+xml</dc:format>
        <dc:type
           rdf:resource="http://purl.org/dc/dcmitype/StillImage" />
        <dc:title>Blank US states map.svg</dc:title>
      </cc:Work>
    </rdf:RDF>
  </metadata>
  <defs
     id="defs61" />
  <sodipodi:namedview
     pagecolor="#ffffff"
     bordercolor="#666666"
     borderopacity="1"
     objecttolerance="10"
     gridtolerance="10"
     guidetolerance="10"
     inkscape:pageopacity="0"
     inkscape:pageshadow="2"
     inkscape:window-width="1920"
     inkscape:window-height="1028"
     id="namedview59"
     showgrid="false"
     inkscape:zoom="0.7320094"
     inkscape:cx="625.87678"
     inkscape:cy="131.41547"
     inkscape:window-x="0"
     inkscape:window-y="0"
     inkscape:window-maximized="1"
     inkscape:current-layer="svg2"
     fit-margin-top="0"
     fit-margin-left="0"
     fit-margin-right="0"
     fit-margin-bottom="0" />
  <title
     id="title4">Blank US states map.svg</title>
  <g
     id="outlines"
     transform="translate(-9,-6.4)">
    <path
       class="state"
       id="AK"
       d="m 161.1,453.7 -0.3,85.4 1.6,1 3.1,0.2 1.5,-1.1 2.6,0 0.2,2.9 7,6.8 0.5,2.6 3.4,-1.9 0.6,-0.2 0.3,-3.1 1.5,-1.6 1.1,-0.2 1.9,-1.5 3.1,2.1 0.6,2.9 1.9,1.1 1.1,2.4 3.9,1.8 3.4,6 2.7,3.9 2.3,2.7 1.5,3.7 5,1.8 5.2,2.1 1,4.4 0.5,3.1 -1,3.4 -1.8,2.3 -1.6,-0.8 -1.5,-3.1 -2.7,-1.5 -1.8,-1.1 -0.8,0.8 1.5,2.7 0.2,3.7 -1.1,0.5 -1.9,-1.9 -2.1,-1.3 0.5,1.6 1.3,1.8 -0.8,0.8 c 0,0 -0.8,-0.3 -1.3,-1 -0.5,-0.6 -2.1,-3.4 -2.1,-3.4 l -1,-2.3 c 0,0 -0.3,1.3 -1,1 -0.6,-0.3 -1.3,-1.5 -1.3,-1.5 l 1.8,-1.9 -1.5,-1.5 0,-5 -0.8,0 -0.8,3.4 -1.1,0.5 -1,-3.7 -0.6,-3.7 -0.8,-0.5 0.3,5.7 0,1.1 -1.5,-1.3 -3.6,-6 -2.1,-0.5 -0.6,-3.7 -1.6,-2.9 -1.6,-1.1 0,-2.3 2.1,-1.3 -0.5,-0.3 -2.6,0.6 -3.4,-2.4 -2.6,-2.9 -4.8,-2.6 -4,-2.6 1.3,-3.2 0,-1.6 -1.8,1.6 -2.9,1.1 -3.7,-1.1 -5.7,-2.4 -5.5,0 -0.6,0.5 -6.5,-3.9 -2.1,-0.3 -2.7,-5.8 -3.6,0.3 -3.6,1.5 0.5,4.5 1.1,-2.9 1,0.3 -1.5,4.4 3.2,-2.7 0.6,1.6 -3.9,4.4 -1.3,-0.3 -0.5,-1.9 -1.3,-0.8 -1.3,1.1 -2.7,-1.8 -3.1,2.1 -1.8,2.1 -3.4,2.1 -4.7,-0.2 -0.5,-2.1 3.7,-0.6 0,-1.3 -2.3,-0.6 1,-2.4 2.3,-3.9 0,-1.8 0.2,-0.8 4.4,-2.3 1,1.3 2.7,0 -1.3,-2.6 -3.7,-0.3 -5,2.7 -2.4,3.4 -1.8,2.6 -1.1,2.3 -4.2,1.5 -3.1,2.6 -0.3,1.6 2.3,1 0.8,2.1 -2.7,3.2 -6.5,4.2 -7.8,4.2 -2.1,1.1 -5.3,1.1 -5.3,2.3 1.8,1.3 -1.5,1.5 -0.5,1.1 -2.7,-1 -3.2,0.2 -0.8,2.3 -1,0 0.3,-2.4 -3.6,1.3 -2.9,1 -3.4,-1.3 -2.9,1.9 -3.2,0 -2.1,1.3 -1.6,0.8 -2.1,-0.3 -2.6,-1.1 -2.3,0.6 -1,1 -1.6,-1.1 0,-1.9 3.1,-1.3 6.3,0.6 4.4,-1.6 2.1,-2.1 2.9,-0.6 1.8,-0.8 2.7,0.2 1.6,1.3 1,-0.3 2.3,-2.7 3.1,-1 3.4,-0.6 1.3,-0.3 0.6,0.5 0.8,0 1.3,-3.7 4,-1.5 1.9,-3.7 2.3,-4.5 1.6,-1.5 0.3,-2.6 -1.6,1.3 -3.4,0.6 -0.6,-2.4 -1.3,-0.3 -1,1 -0.2,2.9 -1.5,-0.2 -1.5,-5.8 -1.3,1.3 -1.1,-0.5 -0.3,-1.9 -4,0.2 -2.1,1.1 -2.6,-0.3 1.5,-1.5 0.5,-2.6 -0.6,-1.9 1.5,-1 1.3,-0.2 -0.6,-1.8 0,-4.4 -1,-1 -0.8,1.5 -6.1,0 -1.5,-1.3 -0.6,-3.9 -2.1,-3.6 0,-1 2.1,-0.8 0.2,-2.1 1.1,-1.1 -0.8,-0.5 -1.3,0.5 -1.1,-2.7 1,-5 4.5,-3.2 2.6,-1.6 1.9,-3.7 2.7,-1.3 2.6,1.1 0.3,2.4 2.4,-0.3 3.2,-2.4 1.6,0.6 1,0.6 1.6,0 2.3,-1.3 0.8,-4.4 c 0,0 0.3,-2.9 1,-3.4 0.6,-0.5 1,-1 1,-1 l -1.1,-1.9 -2.6,0.8 -3.2,0.8 -1.9,-0.5 -3.6,-1.8 -5,-0.2 -3.6,-3.7 0.5,-3.9 0.6,-2.4 -2.1,-1.8 -1.9,-3.7 0.5,-0.8 6.8,-0.5 2.1,0 1,1 0.6,0 -0.2,-1.6 3.9,-0.6 2.6,0.3 1.5,1.1 -1.5,2.1 -0.5,1.5 2.7,1.6 5,1.8 1.8,-1 -2.3,-4.4 -1,-3.2 1,-0.8 -3.4,-1.9 -0.5,-1.1 0.5,-1.6 -0.8,-3.9 -2.9,-4.7 -2.4,-4.2 2.9,-1.9 3.2,0 1.8,0.6 4.2,-0.2 3.7,-3.6 1.1,-3.1 3.7,-2.4 1.6,1 2.7,-0.6 3.7,-2.1 1.1,-0.2 1,0.8 4.5,-0.2 2.7,-3.1 1.1,0 3.6,2.4 1.9,2.1 -0.5,1.1 0.6,1.1 1.6,-1.6 3.9,0.3 0.3,3.7 1.9,1.5 7.1,0.6 6.3,4.2 1.5,-1 5.2,2.6 2.1,-0.6 1.9,-0.8 4.8,1.9 4.5,2.7 z M 46,482.6 l 2.1,5.3 -0.2,1 -2.9,-0.3 -1.8,-4 -1.8,-1.5 -2.4,0 -0.2,-2.6 1.8,-2.4 1.1,2.4 1.5,1.5 2.8,0.6 z m -2.6,33.5 3.7,0.8 3.7,1 0.8,1 -1.6,3.7 -3.1,-0.2 -3.4,-3.6 -0.1,-2.7 z M 22.7,502 l 1.1,2.6 1.1,1.6 -1.1,0.8 -2.1,-3.1 0,-1.9 1,0 z M 9,575.1 l 3.4,-2.3 3.4,-1 2.6,0.3 0.5,1.6 1.9,0.5 1.9,-1.9 -0.3,-1.6 2.7,-0.6 2.9,2.6 -1.1,1.8 -4.4,1.1 -2.7,-0.5 -3.7,-1.1 -4.4,1.5 -1.6,0.3 -1.1,-0.7 z m 48.9,-4.5 1.6,1.9 2.1,-1.6 -1.5,-1.3 -2.2,1 z m 2.9,3 1.1,-2.3 2.1,0.3 -0.8,1.9 -2.4,0 z m 23.6,-1.9 1.5,1.8 1,-1.1 -0.8,-1.9 -1.7,1.2 z m 8.8,-12.5 1.1,5.8 2.9,0.8 5,-2.9 4.4,-2.6 -1.6,-2.4 0.5,-2.4 -2.1,1.3 -2.9,-0.8 1.6,-1.1 1.9,0.8 3.9,-1.8 0.5,-1.5 -2.4,-0.8 0.8,-1.9 -2.7,1.9 -4.7,3.6 -4.8,2.9 -1.4,1.1 z m 42.3,-19.8 2.4,-1.5 -1,-1.8 -1.8,1 0.4,2.3 z"
       inkscape:connector-curvature="0" />
    <path
       class="state"
       id="HI"
       d="m 233.1,519.3 1.9,-3.6 2.3,-0.3 0.3,0.8 -2.1,3.1 -2.4,0 z m 10.2,-3.7 6.1,2.6 2.1,-0.3 1.6,-3.9 -0.6,-3.4 -4.2,-0.5 -4,1.8 -1,3.7 z m 30.7,10 3.7,5.5 2.4,-0.3 1.1,-0.5 1.5,1.3 3.7,-0.2 1,-1.5 -2.9,-1.8 -1.9,-3.7 -2.1,-3.6 -5.8,2.9 -0.7,1.9 z m 20.2,8.9 1.3,-1.9 4.7,1 0.6,-0.5 6.1,0.6 -0.3,1.3 -2.6,1.5 -4.4,-0.3 -5.4,-1.7 z m 5.3,5.2 1.9,3.9 3.1,-1.1 0.3,-1.6 -1.6,-2.1 -3.7,-0.3 0,1.2 z m 7,-1.2 2.3,-2.9 4.7,2.4 4.4,1.1 4.4,2.7 0,1.9 -3.6,1.8 -4.8,1 -2.4,-1.5 -5,-6.5 z m 16.6,15.6 1.6,-1.3 3.4,1.6 7.6,3.6 3.4,2.1 1.6,2.4 1.9,4.4 4,2.6 -0.3,1.3 -3.9,3.2 -4.2,1.5 -1.5,-0.6 -3.1,1.8 -2.4,3.2 -2.3,2.9 -1.8,-0.2 -3.6,-2.6 -0.3,-4.5 0.6,-2.4 -1.6,-5.7 -2.1,-1.8 -0.2,-2.6 2.3,-1 2.1,-3.1 0.5,-1 -1.6,-1.8 -0.1,-2 z"
       inkscape:connector-curvature="0" />
    <path
       class="state"
       id="AL"
       d="m 625.6,466.8 -1.6,-15.2 -2.7,-18.8 0.2,-14.1 0.8,-31 -0.2,-16.7 0.2,-6.4 7.8,-0.4 27.8,-2.6 8.9,-0.7 -0.1,2.2 0.2,2.1 0.6,3.4 3.4,7.9 2.4,9.9 1.5,6.1 1.6,4.8 1.5,7 2.1,6.3 2.6,3.4 0.5,3.4 1.9,0.8 0.2,2.1 -1.8,4.8 -0.5,3.2 -0.2,1.9 1.6,4.4 0.3,5.3 -0.8,2.4 0.6,0.8 1.5,0.8 1,2.5 -6.3,0 -6.8,0.6 -25.5,2.9 -10.4,1.4 -0.1,3.8 1.8,1.8 2.6,1.9 0.6,7.9 -5.5,2.6 -2.7,-0.3 2.7,-1.9 0,-1 -3.1,-6 -2.3,-0.6 -1.5,4.4 -1.3,2.7 -0.6,-0.2 -2.9,0 z"
       inkscape:connector-curvature="0" />
    <path
       class="state"
       id="AR"
       d="m 591,345 -3.8,0.9 -6.2,-0.5 0.7,-3 3.2,-2.7 0.5,-2.3 -1.8,-3 -11,0.5 -20.8,0.9 -23.3,0.7 -23.5,0.5 1.6,6.9 0,8.2 1.4,11 0.2,37.8 2.3,1.9 3,-1.4 2.7,1.1 0.4,10.3 22.9,-0.1 18.9,-0.8 10.1,-0.2 1.1,-2.1 -0.3,-3.5 -1.8,-3 1.6,-1.5 -1.6,-2.5 0.7,-2.5 1.4,-5.6 2.5,-2.1 -0.7,-2.3 3.7,-5.4 2.7,-1.4 -0.1,-1.5 -0.3,-1.8 2.9,-5.6 2.4,-1.3 0.4,-3.4 1.8,-1.2 0.9,-4.2 -1.3,-4 4,-2.4 0.6,-2 1.2,-4.3 0.7,-3.1 z"
       inkscape:connector-curvature="0" />
    <path
       class="state"
       id="AZ"
       d="m 137.7,387.5 -2.6,2.2 -0.3,1.5 0.5,1 18.9,10.7 12.1,7.6 14.7,8.6 16.8,10 12.3,2.4 25.1,2.7 2.5,-12.5 3.8,-27.2 7,-52.9 4.3,-31 -24.6,-3.7 -27.2,-4.6 -33.4,-6.3 -2.9,18.1 -0.5,0.5 -1.7,2.6 -2.5,-0.1 -1.3,-2.7 -2.7,-0.3 -0.9,-1.1 -0.9,0 -0.9,0.6 -1.9,1 -0.1,7 -0.2,1.7 -0.6,12.6 -1.5,2.2 -0.6,3.3 2.7,4.9 1.3,5.8 0.8,1 1,0.6 -0.1,2.3 -1.6,1.4 -3.4,1.7 -1.9,1.9 -1.5,3.7 -0.6,4.9 -2.9,2.7 -2.1,0.7 -0.1,5.8 -0.5,1.7 0.5,0.8 3.7,0.6 -0.6,2.7 -1.5,2.2 -3.9,0.7 z"
       inkscape:connector-curvature="0" />
    <path
       class="state"
       id="CA"
       d="m 136.9,386.8 3.8,-0.5 1.5,-2 0.7,-1.9 -3.2,-0.1 -1.1,-1.8 0.8,-1.7 0,-6.2 2.2,-1.3 2.7,-2.6 0.4,-4.9 1.6,-3.5 1.9,-2.1 3.3,-1.7 1.3,-0.7 0.8,-1.5 -0.9,-0.9 -1,-1.5 -0.9,-5.3 -2.9,-5.2 0.1,-2.8 -2.2,-3.2 -15,-23.2 -19.4,-28.7 -22.4,-33 -12.7,-19.5 1.8,-7.2 6.8,-25.9 8.1,-31.4 -12.4,-3.3 -13.5,-3.4 -12.6,-4.1 -7.5,-2.1 -11.4,-3 -7.1,-2.4 -1.6,4.7 -0.2,7.4 -5.2,11.8 -3.1,2.6 -0.3,1.1 -1.8,0.8 -1.5,4.2 -0.8,3.2 2.7,4.2 1.6,4.2 1.1,3.6 -0.3,6.5 -1.8,3.1 -0.6,5.8 -1,3.7 1.8,3.9 2.7,4.5 2.3,4.8 1.3,4 -0.3,3.2 -0.3,0.5 0,2.1 5.7,6.3 -0.5,2.4 -0.6,2.3 -0.6,1.9 0.2,8.2 2.1,3.7 1.9,2.6 2.7,0.5 1,2.7 -1.1,3.6 -2.1,1.6 -1.1,0 -0.8,3.9 0.5,2.9 3.2,4.4 1.6,5.3 1.5,4.7 1.3,3.1 3.4,5.8 1.5,2.6 0.5,2.9 1.6,1 0,2.4 -0.8,1.9 -1.8,7.1 -0.5,1.9 2.4,2.7 4.2,0.5 4.5,1.8 3.9,2.1 2.9,0 2.9,3.1 2.6,4.8 1.1,2.3 3.9,2.1 4.8,0.8 1.5,2.1 0.6,3.2 -1.5,0.6 0.3,1 3.2,0.8 2.7,0.2 2.9,4.7 3.9,4.2 0.8,2.3 2.6,4.2 0.3,3.2 0,9.4 0.5,1.8 10,1.5 19.7,2.7 14.2,0.9 z M 48.8,337 l 1.3,1.5 -0.2,1.3 -3.2,-0.1 -0.6,-1.2 -0.6,-1.5 3.3,0 z m 1.9,0 1.2,-0.6 3.6,2.1 3.1,1.2 -0.9,0.6 -4.5,-0.2 -1.6,-1.6 -0.9,-1.5 z m 20.7,19.8 1.8,2.3 0.8,1 1.5,0.6 0.6,-1.5 -1,-1.8 -2.7,-2 -1.1,0.2 0,1.2 z m -1.4,8.7 1.8,3.2 1.2,1.9 -1.5,0.2 -1.3,-1.2 c 0,0 -0.7,-1.5 -0.7,-1.9 0,-0.4 0,-2.2 0,-2.2 l 0.5,0 z"
       inkscape:connector-curvature="0" />
    <path
       class="state"
       id="CO"
       d="m 378.6,256.8 1.4,-21.3 -32.1,-3.1 -24.5,-2.7 -37.3,-4.1 -20.7,-2.5 -2.6,22.2 -3.2,22.4 -3.8,28 -1.5,11.1 -0.3,2.8 33.9,3.8 37.7,4.3 32,3.2 16.6,0.8"
       inkscape:connector-curvature="0" />
    <path
       class="state"
       id="CT"
       d="m 873.2,180.1 -0.6,-4.2 -0.8,-4.4 -1.6,-6 -4.2,0.9 -21.8,4.8 0.6,3.3 1.5,7.3 0,8.1 -1.1,2.3 1.8,2.1 5,-3.4 3.6,-3.2 1.9,-2.1 0.8,0.6 2.7,-1.5 5.2,-1.1 7,-3.5 z"
       inkscape:connector-curvature="0" />
    <path
       class="state"
       id="DE"
       d="m 822.4,230.4 0.6,-2.1 0,-1.2 -1.3,-0.1 -2.1,1.6 -1.5,1.5 1.5,4.2 2.3,5.7 2.1,9.7 1.6,6.3 5,-0.2 6.1,-1.2 -2.3,-7.4 -1,0.5 -3.6,-2.4 -1.8,-4.7 -1.9,-3.6 -2.3,-1 -2.1,-3.6 0.7,-2 z"
       inkscape:connector-curvature="0" />
    <path
       class="state"
       id="FL"
       d="m 755.4,445.5 2.3,7.3 3.7,9.7 5.3,9.4 3.7,6.3 4.8,5.5 4,3.7 1.6,2.9 -1.1,1.3 -0.7,1.4 2.9,7.4 2.9,2.9 2.6,5.3 3.6,5.8 4.5,8.2 1.3,7.6 0.5,12 0.6,1.8 -0.3,3.4 -2.4,1.3 0.3,1.9 -0.6,1.9 0.3,2.4 0.5,1.9 -2.7,3.2 -3.1,1.5 -3.9,0.2 -1.5,1.6 -2.4,1 -1.3,-0.5 -1.1,-1 -0.3,-2.9 -0.8,-3.4 -3.4,-5.2 -3.6,-2.3 -3.9,-0.3 -0.8,1.3 -3.1,-4.4 -0.6,-3.6 -2.6,-4 -1.8,-1.1 -1.6,2.1 -1.8,-0.3 -2.1,-5 -2.9,-3.9 -2.9,-5.3 -2.6,-3.1 -3.6,-3.7 2.1,-2.4 3.2,-5.5 -0.2,-1.6 -4.5,-1 -1.6,0.6 0.3,0.6 2.6,1 -1.5,4.5 -0.8,0.5 -1.8,-4 -1.3,-4.8 -0.3,-2.7 1.5,-4.7 0,-9.5 -3,-3.7 -1.3,-3.1 -5.2,-1.3 -1.9,-0.6 -1.6,-2.6 -3.4,-1.6 -1.1,-3.4 -2.7,-1 -2.4,-3.7 -4.2,-1.5 -2.9,-1.5 -2.6,0 -4,0.8 -0.2,1.9 0.8,1 -0.5,1.1 -3.1,-0.2 -3.7,3.6 -3.6,1.9 -3.9,0 -3.2,1.3 -0.3,-2.7 -1.6,-1.9 -2.9,-1.1 -1.6,-1.5 -8.1,-3.9 -7.6,-1.8 -4.4,0.6 -6,0.5 -6,2.1 -3.5,0.6 -0.2,-8 -2.6,-1.9 -1.8,-1.8 0.3,-3.1 10.2,-1.3 25.5,-2.9 6.8,-0.6 5.4,0.3 2.6,3.9 1.5,1.5 8.1,0.5 10.8,-0.6 21.5,-1.3 5.4,-0.7 4.6,0 0.2,2.9 3.8,0.8 0.3,-4.8 -1.6,-4.5 1,-0.7 5.1,0.5 5.2,0.3 z m 12.5,132.4 2.4,-0.6 1.3,-0.2 1.5,-2.3 2.3,-1.6 1.3,0.5 1.7,0.3 0.4,1.1 -3.5,1.2 -4.2,1.5 -2.3,1.2 -0.9,-1.1 z m 13.5,-5 1.2,1.1 2.7,-2.1 5.3,-4.2 3.7,-3.9 2.5,-6.6 1,-1.7 0.2,-3.4 -0.7,0.5 -1,2.8 -1.5,4.6 -3.2,5.3 -4.4,4.2 -3.4,1.9 -2.4,1.5 z"
       inkscape:connector-curvature="0" />
    <path
       class="state"
       id="GA"
       d="m 689.6,358 -4.8,0.8 -8.4,1.1 -8.6,0.9 0,2.2 0.2,2.1 0.6,3.4 3.4,7.9 2.4,9.9 1.5,6.1 1.6,4.8 1.5,7 2.1,6.3 2.6,3.4 0.5,3.4 1.9,0.8 0.2,2.1 -1.8,4.8 -0.5,3.2 -0.2,1.9 1.6,4.4 0.3,5.3 -0.8,2.4 0.6,0.8 1.5,0.8 0.6,3.4 2.6,3.9 1.5,1.5 7.9,0.2 10.8,-0.6 21.5,-1.3 5.4,-0.7 4.6,0 0.2,2.9 2.6,0.8 0.3,-4.4 -1.6,-4.5 1.1,-1.6 5.8,0.8 5,0.3 -0.8,-6.3 2.3,-10 1.5,-4.2 -0.5,-2.6 3.3,-6.2 -0.5,-1.4 -1.9,0.7 -2.6,-1.3 -0.6,-2.1 -1.3,-3.6 -2.3,-2.1 -2.6,-0.6 -1.6,-4.8 -2.9,-6.3 -4.2,-1.9 -2.1,-1.9 -1.3,-2.6 -2.1,-1.9 -2.3,-1.3 -2.3,-2.9 -3.1,-2.3 -4.5,-1.8 -0.5,-1.5 -2.4,-2.9 -0.5,-1.5 -3.4,-4.9 -3.4,0.2 -4.1,-3 -1.3,-1.3 -0.3,-1.8 0.8,-1.9 2.4,-1.2 -1.1,-1.2 0.1,-0.3 -5.8,1 -7,0.8 -6.8,0.4 z"
       inkscape:connector-curvature="0" />
    <path
       class="state"
       id="IA"
       d="m 566.6,201.6 0.2,1.9 2.3,1.1 1.1,1.3 0.3,1.3 3.9,3.2 0.7,2.2 -0.8,2.9 -1.5,3.5 -0.8,2.7 -2.2,1.6 -1.7,0.6 -5.5,1.5 -0.7,2.3 -0.8,2.3 0.6,1.4 1.7,1.7 0,3.7 -2.2,1.6 -0.5,1.5 0,2.5 -1.5,0.5 -1.7,1.4 -0.5,1.5 0.5,1.7 -1.4,1.2 -2.3,-2.9 -1.5,-2.6 -8.3,0.8 -10.2,0.6 -25,0.7 -13,0.2 -9.4,0.2 -1.3,0.1 -1.7,-4.5 -0.2,-6.6 -1.6,-4.1 -0.7,-5.3 -2.3,-3.7 -0.9,-4.8 -2.7,-7.5 -1.1,-5.4 -1.4,-2.2 -1.6,-2.7 1.8,-4.3 1.4,-5.7 -2.7,-2.1 -0.5,-2.7 0.9,-2.5 1.7,0 11.5,0 49.6,-0.7 19.9,-0.7 1.9,2.7 1.8,2.6 0.5,0.8 -1.8,2.7 0.5,4.2 2.5,3.9 3,1.8 2.4,0.2 1.3,2.4 z"
       inkscape:connector-curvature="0" />
    <path
       class="state"
       id="ID"
       d="M 162.1,181 C 139.5,176.7 148,178.2 141,176.6 l 4.4,-17.5 4.3,-17.7 1.4,-4.2 2.5,-5.9 -1.3,-2.3 -2.5,0.1 -0.8,-1 0.5,-1.1 0.3,-3.1 4.5,-5.5 1.8,-0.5 1.1,-1.1 0.6,-3.2 0.9,-0.7 3.9,-5.8 3.9,-4.3 0.2,-3.8 -3.4,-2.6 -1.3,-4.4 0.4,-9.7 3.7,-16.5 4.5,-20.8 3.8,-13.5 0.8,-3.8 13,2.5 -4.2,21.5 2.9,7.7 -1.1,4.6 2,4.6 3.2,1.7 4.5,9.8 2.7,3.8 0.6,1.1 3.4,1.1 0.5,2.5 -6.9,16.8 0.3,3.3 2.7,2.9 1.9,0.5 4.8,-3.6 0.4,-0.5 0.2,0.8 0.3,4.1 2.6,12.9 3.5,2.7 0.4,0.8 2.1,2.4 -0.8,2.8 0.7,3.8 1.9,0.9 2.1,-1.6 2.6,-0.5 3.4,1.6 2.5,-0.6 3.8,-0.2 4,1.6 2.7,-0.3 0.9,-2.3 2.5,-1.6 0.7,1.7 0.6,2.2 2.3,2.5 -3.8,24 -5.1,29 -4.2,-0.3 -8.2,-1.5 -9.8,-1.8 -12.2,-2.4 -12.5,-2.5 -8.5,-1.8 -9.3,-1.7 -9.2,-1.7 z"
       inkscape:connector-curvature="0" />
    <path
       class="state"
       id="IL"
       d="m 617.8,301.5 0,-3.6 0.3,-4.9 2.4,-3.1 1.8,-3.8 2.6,-3.9 -0.4,-5.3 -2,-3.5 -0.1,-3.3 0.7,-5.3 -0.8,-7.2 -1.1,-15.8 -1.3,-15 -0.9,-11.6 -0.3,-0.9 -0.8,-2.6 -1.3,-3.7 -1.6,-1.8 -1.5,-2.6 -0.2,-5.5 -9.9,1.3 -27.2,1.7 -8.7,-0.4 0.2,2.4 2.3,0.7 0.9,1.1 0.5,1.8 3.9,3.4 0.7,2.3 -0.7,3.4 -1.8,3.7 -0.7,2.5 -2.3,1.8 -1.8,0.7 -5.3,1.4 -0.7,1.8 -0.7,2.3 0.7,1.4 1.8,1.6 -0.2,4.1 -1.8,1.6 -0.7,1.6 0,2.7 -1.8,0.5 -1.6,1.1 -0.2,1.4 0.2,2.1 -1.7,1.3 -1,2.8 0.5,3.7 2.3,7.3 7.3,7.5 5.5,3.7 -0.2,4.3 0.9,1.4 6.4,0.5 2.7,1.4 -0.7,3.7 -2.3,5.9 -0.7,3.2 2.3,3.9 6.4,5.3 4.6,0.7 2.1,5 2.1,3.2 -0.9,3 1.6,4.1 1.8,2.1 1.9,-0.8 0.7,-2.2 2,-1.4 3.2,-1.1 3.1,1.2 2.9,1.1 0.8,-0.2 -0.1,-1.2 -1.1,-2.8 0.4,-2.4 2.3,-1.6 2.4,-1 1.2,-0.4 -0.6,-1.3 -0.8,-2.2 1.2,-1.3 0.9,-3 z"
       inkscape:connector-curvature="0" />
    <path
       class="state"
       id="IN"
       d="m 618.4,300.9 0.1,-2.9 0.5,-4.5 2.3,-2.9 1.8,-3.9 2.6,-4.2 -0.5,-5.8 -1.8,-2.7 -0.3,-3.2 0.8,-5.5 -0.5,-7 -1.3,-16 -1.3,-15.4 -1,-11.7 3.1,0.9 1.5,1 1.1,-0.3 2.1,-1.9 2.8,-1.6 5.1,-0.2 22,-2.3 5.6,-0.5 1.5,16 4.3,36.8 0.6,5.8 -0.5,2.1 1.2,1.8 0.1,1.4 -2.5,1.6 -3.5,1.6 -3.2,0.6 -0.6,4.9 -4.6,3.3 -2.8,4 0.3,2.4 -0.6,1.5 -3.3,0 -1.6,-1.6 -2.5,1.3 -2.7,1.5 0.2,3.1 -1.2,0.3 -0.5,-1 -2.2,-1.5 -3.3,1.3 -1.6,3 -1.4,-0.8 -1.5,-1.6 -4.5,0.5 -5.6,1 -2.7,1.3 z"
       inkscape:connector-curvature="0" />
    <path
       class="state"
       id="KS"
       d="m 503.4,325.1 -12.6,0.2 -46.1,-0.5 -44.6,-2.1 -24.6,-1.3 4.1,-64.7 21.8,0.8 40.5,1.4 44.1,0.5 5.1,0 3.2,3.2 2.8,0.2 0.9,1.1 0,2 -1.8,1.6 -0.5,2.6 2.2,3.6 2.5,3.1 2.5,2 1.1,11.2 -0.6,35.1 z"
       inkscape:connector-curvature="0" />
    <path
       class="state"
       id="KY"
       d="m 721.8,297.8 -2.3,2.7 -4.2,3.6 -4.3,5.9 -1.8,1.8 0,2.1 -3.9,2.1 -5.7,3.4 -3.5,0.4 -51.9,4.9 -15.8,1.8 -4.6,0.5 -3.9,0 -0.2,4.2 -8.2,0.1 -7,0.6 -10.4,0.2 1.9,-0.2 2.2,-1.8 2.1,-1.1 0.2,-3.2 0.9,-1.8 -1.6,-2.5 0.8,-1.9 2.3,-1.8 2.1,-0.6 2.7,1.3 3.6,1.3 1.1,-0.3 0.2,-2.3 -1.3,-2.4 0.3,-2.3 1.9,-1.5 2.6,-0.6 1.6,-0.6 -0.8,-1.8 -0.6,-1.9 1.1,-0.8 1.1,-3.3 3,-1.7 5.8,-1 3.6,-0.5 1.5,1.9 1.8,0.8 1.8,-3.2 2.9,-1.5 1.9,1.6 0.8,1.1 2.1,-0.5 -0.2,-3.4 2.9,-1.6 1.1,-0.8 1.1,1.6 4.7,0 0.8,-2.1 -0.3,-2.3 2.9,-3.6 4.7,-3.9 0.5,-4.5 2.7,-0.3 3.9,-1.8 2.7,-1.9 -0.3,-1.9 -1.5,-1.5 0.6,-2.2 4.1,-0.2 2.4,-0.8 2.9,1.6 1.6,4.4 5.8,0.3 1.8,1.8 2.1,0.2 2.4,-1.5 3.1,0.5 1.3,1.5 2.7,-2.6 1.8,-1.3 1.6,0 0.6,2.7 1.8,1 2.4,2.2 0.2,5.5 0.8,1.6 2.6,1.5 0.6,2.3 2.9,3.7 2.6,2.7 3.7,1.9 z"
       inkscape:connector-curvature="0" />
    <path
       class="state"
       id="LA"
       d="m 602.2,473 -1,-2.6 -1.1,-3.1 -3.3,-3.5 0.9,-6.8 -0.1,-1.1 -1.3,0.3 -8.2,0.9 -25,0.5 -0.7,-2.4 0.9,-8.5 3.3,-5.9 5,-8.7 -0.6,-2.4 1.3,-0.7 0.5,-2 -2.3,-2.1 -0.1,-1.9 -1.8,-4.3 -0.5,-5.9 -9.7,0.1 -19.2,0.9 -22.2,0 0,9.6 0.7,9.4 0.7,3.9 2.5,4.1 0.9,5 4.3,5.5 0.2,3.2 0.7,0.7 -0.7,8.5 -3,5 1.6,2.1 -0.7,2.5 -0.7,7.3 -1.4,3.2 0.1,3.6 4.7,-1.5 8.1,-0.3 10.3,3.6 6.5,1.1 3.7,-1.5 3.2,1.1 3.2,1 0.8,-2.1 -3.2,-1.1 -2.6,0.5 -2.7,-1.6 c 0,0 0.2,-1.3 0.8,-1.5 0.6,-0.2 3.1,-1 3.1,-1 l 1.8,1.5 1.8,-1 3.2,0.6 1.5,2.4 0.3,2.3 4.5,0.3 1.8,1.8 -0.8,1.6 -1.3,0.8 1.6,1.6 8.4,3.6 3.6,-1.3 1,-2.4 2.6,-0.6 1.8,-1.5 1.3,1 0.8,2.9 -2.3,0.8 0.6,0.6 3.4,-1.3 2.3,-3.4 0.8,-0.5 -2.1,-0.3 0.8,-1.6 -0.2,-1.5 2.1,-0.5 1.1,-1.3 0.6,0.8 c 0,0 -0.2,3.1 0.6,3.1 0.8,0 4.2,0.6 4.2,0.6 l 4,1.9 1,1.5 2.9,0 1.1,1 2.3,-3.1 0,-1.5 -1.3,0 -3.4,-2.7 -5.8,-0.8 -3.2,-2.3 1.1,-2.7 2.3,0.3 0.2,-0.6 -1.8,-1 0,-0.5 3.2,0 1.8,-3.1 -1.3,-1.9 -0.3,-2.7 -1.5,0.2 -1.9,2.1 -0.6,2.6 -3.1,-0.6 -1,-1.8 1.8,-1.9 2,-1.8 -0.2,-0.8 z"
       inkscape:connector-curvature="0" />
    <path
       class="state"
       id="MA"
       d="m 900,173.9 2.2,-0.7 0.5,-1.7 1,0.1 1,2.3 -1.3,0.5 -3.9,0.1 0.5,-0.6 z m -9.4,0.8 2.3,-2.6 1.6,0 1.8,1.5 -2.4,1 -2.2,1 -1.1,-0.9 z m -34.8,-22 17.5,-4.2 2.3,-0.6 2.1,-3.2 3.7,-1.7 2.9,4.4 -2.4,5.2 -0.3,1.5 1.9,2.6 1.1,-0.8 1.8,0 2.3,2.6 3.9,6 3.6,0.5 2.3,-1 1.8,-1.8 -0.8,-2.7 -2.1,-1.6 -1.5,0.8 -1,-1.3 0.5,-0.5 2.1,-0.2 1.8,0.8 1.9,2.4 1,2.9 0.3,2.4 -4.2,1.5 -3.9,1.9 -3.9,4.5 -1.9,1.5 0,-1 2.4,-1.5 0.5,-1.8 -0.8,-3.1 -2.9,1.5 -0.8,1.5 0.5,2.3 -2.1,1 -2.7,-4.5 -3.4,-4.4 -2.1,-1.8 -6.5,1.9 -5.1,1.1 -21.8,4.8 -0.4,-4.9 0.6,-10.6 5.2,-0.9 6.6,-1.5 z"
       inkscape:connector-curvature="0" />
    <path
       class="state"
       id="MD"
       d="m 837,255.3 -6.1,1.3 -5.8,0.2 -1.8,-7.1 -2.1,-9.7 -2.3,-5.7 -1.3,-4.4 -7.5,1.6 -14.9,2.8 -37.5,7.6 1.1,5 1,5.7 0.3,-0.3 2.1,-2.4 2.3,-2.6 2.4,-0.6 1.5,-1.5 1.8,-2.6 1.3,0.6 2.9,-0.3 2.6,-2.1 2,-1.5 1.8,-0.5 1.6,1.1 2.9,1.5 1.9,1.8 1.2,1.5 4.1,1.7 0,2.9 5.5,1.3 1.1,0.5 1.4,-2 2.9,2 -1.3,2.5 -0.8,4 -1.8,2.6 0,2.1 0.6,1.8 5.1,1.4 4.3,-0.1 3.1,1 2.1,0.3 1,-2.1 -1.5,-2.1 0,-1.8 -2.4,-2.1 -2.1,-5.5 1.3,-5.3 -0.2,-2.1 -1.3,-1.3 c 0,0 1.5,-1.6 1.5,-2.3 0,-0.6 0.5,-2.1 0.5,-2.1 l 1.9,-1.3 1.9,-1.6 0.5,1 -1.5,1.6 -1.3,3.7 0.3,1.1 1.8,0.3 0.5,5.5 -2.1,1 0.3,3.6 0.5,-0.2 1.1,-1.9 1.6,1.8 -1.6,1.3 -0.3,3.4 2.6,3.4 3.9,0.5 1.6,-0.8 3.2,4.2 1.4,0.5 6.7,-2.8 2,-4 0.5,-5 z m -16.7,9 1.1,2.5 0.2,1.8 1.1,1.9 c 0,0 0.9,-0.9 0.9,-1.2 0,-0.3 -0.7,-3.1 -0.7,-3.1 l -0.7,-2.3 -1.9,0.4 z"
       inkscape:connector-curvature="0" />
    <path
       class="state"
       id="ME"
       d="m 923.2,77.3 1.9,2.1 2.3,3.7 0,1.9 -2.1,4.7 -1.9,0.6 -3.4,3.1 -4.8,5.5 c 0,0 -0.6,0 -1.3,0 -0.6,0 -1,-2.1 -1,-2.1 l -1.8,0.2 -1,1.5 -2.4,1.5 -1,1.5 1.6,1.5 -0.5,0.6 -0.5,2.7 -1.9,-0.2 0,-1.6 -0.3,-1.3 -1.5,0.3 -1.8,-3.2 -2.1,1.3 1.3,1.5 0.3,1.1 -0.8,1.3 0.3,3.1 0.2,1.6 -1.6,2.6 -2.9,0.5 -0.3,2.9 -5.3,3.1 -1.3,0.5 -1.6,-1.5 -3.1,3.6 1,3.2 -1.5,1.3 -0.2,4.4 -1.1,6.3 -2.5,-1.2 -0.5,-3.1 -3.9,-1.1 -0.3,-2.7 -7.3,-23.4 -4.2,-13.6 1.4,-0.1 1.5,0.4 0,-2.6 0.8,-5.5 2.6,-4.7 1.5,-4 -1.9,-2.4 0,-6 0.8,-1 0.8,-2.7 -0.2,-1.5 -0.2,-4.8 1.8,-4.8 2.9,-8.9 2.1,-4.2 1.3,0 1.3,0.2 0,1.1 1.3,2.3 2.7,0.6 0.8,-0.8 0,-1 4,-2.9 1.8,-1.8 1.5,0.2 6,2.4 1.9,1 9.1,29.9 6,0 0.8,1.9 0.2,4.8 2.9,2.3 0.8,0 0.2,-0.5 -0.5,-1.1 2.8,-0.5 z m -20.9,30.2 1.5,-1.5 1.4,1.1 0.6,2.4 -1.7,0.9 -1.8,-2.9 z m 6.7,-5.9 1.8,1.9 c 0,0 1.3,0.1 1.3,-0.2 0,-0.3 0.2,-2 0.2,-2 l 0.9,-0.8 -0.8,-1.8 -2,0.7 -1.4,2.2 z"
       inkscape:connector-curvature="0" />
    <path
       class="state"
       id="MI"
       d="m 581.6,82.1 1.8,-2.1 2.2,-0.8 5.4,-3.9 2.3,-0.6 0.5,0.5 -5.1,5.1 -3.3,1.9 -2.1,0.9 -1.7,-1 z m 86.2,32.1 0.6,2.5 3.2,0.2 1.3,-1.2 c 0,0 -0.1,-1.5 -0.4,-1.6 -0.3,-0.2 -1.6,-1.9 -1.6,-1.9 l -2.2,0.2 -1.6,0.2 -0.3,1.1 1,0.5 z m 30.1,63 -3.2,-8.2 -2.3,-9.1 -2.4,-3.2 -2.6,-1.8 -1.6,1.1 -3.9,1.8 -1.9,5 -2.7,3.7 -1.1,0.6 -1.5,-0.6 c 0,0 -2.6,-1.5 -2.4,-2.1 0.2,-0.6 0.5,-5 0.5,-5 l 3.4,-1.3 0.8,-3.4 0.6,-2.6 2.4,-1.6 -0.3,-10 -1.6,-2.3 -1.3,-0.8 -0.8,-2.1 0.8,-0.8 1.6,0.3 0.2,-1.6 -2.6,-2.2 -1.3,-2.6 -2.6,0 -4.5,-1.5 -5.5,-3.4 -2.7,0 -0.6,0.6 -1,-0.5 -3.1,-2.3 -2.9,1.8 -2.9,2.3 0.3,3.6 1,0.3 2.1,0.5 0.5,0.8 -2.6,0.8 -2.6,0.3 -1.5,1.8 -0.3,2.1 0.3,1.6 0.3,5.5 -3.6,2.1 -0.6,-0.2 0,-4.2 1.3,-2.4 0.6,-2.4 -0.8,-0.8 -1.9,0.8 -1,4.2 -2.7,1.1 -1.8,1.9 -0.2,1 0.6,0.8 -0.6,2.6 -2.3,0.5 0,1.1 0.8,2.4 -1.1,6.1 -1.6,4 0.6,4.7 0.5,1.1 -0.8,2.4 -0.3,0.8 -0.3,2.7 3.6,6 2.9,6.5 1.5,4.8 -0.8,4.7 -1,6 -2.4,5.2 -0.3,2.7 -3.3,3.1 4.4,-0.2 21.4,-2.3 7.3,-1 0.1,1.7 6.9,-1.2 10.3,-1.5 3.9,-0.5 0.1,-0.6 0.2,-1.5 2.1,-3.7 2,-1.7 -0.2,-5.1 1.6,-1.6 1.1,-0.3 0.2,-3.6 1.5,-3 1.1,0.6 0.2,0.6 0.8,0.2 1.9,-1 -0.4,-9.1 z m -130.4,-66 0.7,-0.6 2.7,-0.8 3.6,-2.3 0,-1 0.6,-0.6 6,-1 2.4,-1.9 4.4,-2.1 0.2,-1.3 1.9,-2.9 1.8,-0.8 1.3,-1.8 2.3,-2.3 4.4,-2.4 4.7,-0.5 1.1,1.1 -0.3,1 -3.7,1 -1.5,3.1 -2.3,0.8 -0.5,2.4 -2.4,3.2 -0.3,2.6 0.8,0.5 1,-1.1 3.6,-2.9 1.3,1.3 2.3,0 3.2,1 1.5,1.1 1.5,3.1 2.7,2.7 3.9,-0.2 1.5,-1 1.6,1.3 1.6,0.5 1.3,-0.8 1.1,0 1.6,-1 4,-3.6 3.4,-1.1 6.6,-0.3 4.5,-1.9 2.6,-1.3 1.5,0.2 0,5.7 0.5,0.3 2.9,0.8 1.9,-0.5 6.1,-1.6 1.1,-1.1 1.5,0.5 0,7 3.2,3.1 1.3,0.6 1.3,1 -1.3,0.3 -0.8,-0.3 -3.7,-0.5 -2.1,0.6 -2.3,-0.2 -3.2,1.5 -1.8,0 -5.8,-1.3 -5.2,0.2 -1.9,2.6 -7,0.6 -2.4,0.8 -1.1,3.1 -1.3,1.1 -0.5,-0.2 -1.5,-1.6 -4.5,2.4 -0.6,0 -1.1,-1.6 -0.8,0.2 -1.9,4.4 -1,4 -3.2,7 -1.2,-1 -1.4,-1 -1.9,-10.3 -3.5,-1.4 -2.1,-2.3 -12.1,-2.7 -2.9,-1 -8.2,-2.2 -7.9,-1.1 -3.8,-5.3 z"
       inkscape:connector-curvature="0" />
    <path
       class="state"
       id="MN"
       d="m 471.9,128.5 -0.5,-8.5 -1.8,-7.3 -1.8,-13.5 -0.5,-9.8 -1.8,-3.4 -1.6,-5 0,-10.3 0.7,-3.9 -1.8,-5.5 30.1,0 0.3,-8.2 0.6,-0.2 2.3,0.5 1.9,0.8 0.8,5.5 1.5,6.1 1.6,1.6 4.8,0 0.3,1.5 6.3,0.3 0,2.1 4.8,0 0.3,-1.3 1.1,-1.1 2.3,-0.6 1.3,1 2.9,0 3.9,2.6 5.3,2.4 2.4,0.5 0.5,-1 1.5,-0.5 0.5,2.9 2.6,1.3 0.5,-0.5 1.3,0.2 0,2.1 2.6,1 3.1,0 1.6,-0.8 3.2,-3.2 2.6,-0.5 0.8,1.8 0.5,1.3 1,0 1,-0.8 8.9,-0.3 1.8,3.1 0.6,0 0.7,-1.1 4.4,-0.4 -0.6,2.3 -3.9,1.8 -9.2,4.1 -4.8,2 -3.1,2.6 -2.4,3.6 -2.3,3.9 -1.8,0.8 -4.5,5 -1.3,0.2 -3.8,2.9 -2.8,3.2 -0.2,3 0.2,7.8 -1.6,1.6 -5.2,3.8 -1.8,5.7 2.5,3.6 0.5,2.5 -1.1,3 -0.2,3.7 0.5,7.1 3.4,4.1 3,0 2.5,2.3 3.2,1.4 3.7,5 7.1,5 1.8,2.1 0.2,5.7 -20.6,0.7 -60.2,0.5 -0.3,-35.7 -0.5,-3 -4.1,-3.4 -1.1,-1.8 0,-1.6 2.1,-1.6 1.4,-1.4 -0.1,-3.4 z"
       inkscape:connector-curvature="0" />
    <path
       class="state"
       id="MO"
       d="m 555.8,249.5 -2.5,-3.1 -1.1,-2.3 -7.8,0.7 -9.8,0.5 -25.4,0.9 -13.5,0.2 -7.9,0.1 -2.3,0.1 1.3,2.5 -0.2,2.3 2.5,3.9 3.1,4.1 3.1,2.7 2.3,0.2 1.4,0.9 0,3 -1.8,1.6 -0.5,2.3 2.1,3.4 2.5,3 2.5,1.8 1.4,11.7 -0.7,35.3 0.2,4.7 0.5,5.4 23.4,-0.1 23.2,-0.7 20.8,-0.8 11.7,-0.2 2.2,3.4 -0.7,3.3 -3.1,2.4 -0.6,1.8 5.4,0.5 3.9,-0.7 1.7,-5.5 0.7,-5.9 2.3,-2 1.7,-1.5 2.1,-1 0.1,-2.9 0.6,-1.7 -1,-1.7 -2.7,0.1 -2.2,-2.6 -1.4,-4.2 0.8,-2.5 -1.9,-3.4 -1.8,-4.6 -4.8,-0.8 -7,-5.6 -1.7,-4.1 0.8,-3.2 2.1,-6.1 0.5,-2.9 -1.9,-1 -6.9,-0.8 -1,-1.7 -0.1,-4.2 -5.5,-3.4 -7,-7.8 -2.3,-7.3 -0.2,-4.2 0.4,-2.3 z"
       inkscape:connector-curvature="0" />
    <path
       class="state"
       id="MS"
       d="m 624.6,467 -0.3,1.3 -5.2,0 -1.5,-0.8 -2.1,-0.3 -6.8,1.9 -1.8,-0.8 -2.6,4.2 -1.1,0.8 -1.1,-2.5 -1.1,-3.9 -3.4,-3.2 1.1,-7.5 -0.7,-0.9 -1.8,0.2 -8.2,0.7 -24.2,0.7 -0.5,-1.6 0.7,-8 3.4,-6.2 5.3,-9.1 -0.9,-2.1 1.1,0 0.7,-3.2 -2.3,-1.8 0.2,-1.8 -2.1,-4.6 -0.3,-5.3 1.4,-2.7 -0.4,-4.3 -1.4,-3 1.4,-1.4 -1.4,-2.1 0.5,-1.8 0.9,-6.2 3,-2.7 -0.7,-2.1 3.7,-5.3 2.7,-0.9 0,-2.5 -0.7,-1.4 2.7,-5.3 2.7,-1.1 0.1,-3.4 8.7,-0.1 24.1,-1.9 4.6,-0.2 0,6.4 0.2,16.7 -0.8,31 -0.2,14.1 2.7,18.8 1.7,15.2 z"
       inkscape:connector-curvature="0" />
    <path
       class="state"
       id="MT"
       d="m 356.7,122.3 0.6,-11.2 2.3,-24.8 c 0.5,-5 1.1,-8.5 1.4,-15.4 L 361.9,56.3 331.2,53.5 302,50 272.7,46 240.4,40.7 222,37.3 l -32.7,-6.9 -4.5,21.3 3.4,7.5 -1.4,4.6 1.8,4.6 3.2,1.4 4.6,10.8 2.7,3.2 0.5,1.1 3.4,1.1 0.5,2.1 -7.1,17.6 0,2.5 2.5,3.2 0.9,0 4.8,-3 0.7,-1.1 1.6,0.7 -0.2,5.3 2.7,12.6 3,2.5 0.9,0.7 1.8,2.3 -0.5,3.4 0.7,3.4 1.1,0.9 2.3,-2.3 2.7,0 3.2,1.6 2.5,-0.9 4.1,0 3.7,1.6 2.7,-0.5 0.5,-3 3,-0.7 1.4,1.4 0.5,3.2 1.8,1.4 1.5,-11.6 20.7,3 28.2,4 16.6,1.9 31.4,3.5 11,1.5 1.1,-15.4 1.4,-5.5 z"
       inkscape:connector-curvature="0" />
    <path
       class="state"
       id="NC"
       d="m 832.1,298.5 1.7,4.7 3.6,6.5 2.4,2.4 0.6,2.3 -2.4,0.2 0.8,0.6 -0.3,4.2 -2.6,1.3 -0.6,2.1 -1.3,2.9 -3.7,1.6 -2.4,-0.3 -1.5,-0.2 -1.6,-1.3 0.3,1.3 0,1 1.9,0 0.8,1.3 -1.9,6.3 4.2,0 0.6,1.6 2.3,-2.3 1.3,-0.5 -1.9,3.6 -3.1,4.8 -1.3,0 -1.1,-0.5 -2.7,0.6 -5.2,2.4 -6.5,5.3 -3.4,4.7 -1.9,6.5 -0.5,2.4 -4.7,0.5 -5.5,1.3 -9.9,-8.2 -12.6,-7.6 -2.9,-0.8 -12.6,1.5 -4.3,0.8 -1.6,-3.2 -3,-2.1 -16.5,0.5 -7.3,0.8 -9.1,4.5 -6.1,2.6 -1.6,0.3 -5.8,1 -7,0.8 -6.8,0.5 0.5,-4.1 1.8,-1.5 2.7,-0.6 0.6,-3.7 4.2,-2.7 3.9,-1.5 4.2,-3.6 4.4,-2.1 0.6,-3.1 3.9,-3.9 0.6,-0.2 c 0,0 0,1.1 0.8,1.1 0.8,0 1.9,0.3 1.9,0.3 l 2.3,-3.6 2.1,-0.6 2.3,0.3 1.6,-3.6 2.9,-2.6 0.5,-2.1 0,-4 4.5,0.7 7.1,-1.3 15.8,-1.9 17.1,-2.6 19.9,-4 19.7,-4.2 11.4,-2.8 5.4,-0.8 z m 3.9,33 2.6,-2.5 3.2,-2.6 1.5,-0.6 0.2,-2 -0.6,-6.1 -1.5,-2.3 -0.6,-1.9 0.7,-0.2 2.7,5.5 0.4,4.4 -0.2,3.4 -3.4,1.5 -2.8,2.4 -1.1,1.2 -1.1,-0.2 z"
       inkscape:connector-curvature="0" />
    <path
       class="state"
       id="ND"
       d="m 471.3,127.7 -0.4,-7.5 -2,-7.3 -1.8,-13.6 -0.5,-9.8 -2,-3.1 -1.6,-5.4 0,-10.3 0.7,-3.9 -2.1,-5.5 -28.4,-0.6 -18.6,-0.6 -26.5,-1.3 -24.9,-1.9 -1.3,14.2 -1.4,15.1 -2.3,24.9 -0.5,11 56.8,3.8 56.8,1.8 z"
       inkscape:connector-curvature="0" />
    <path
       class="state"
       id="NE"
       d="m 484.2,247 1.4,2.7 0.1,2.1 2.4,3.7 2.7,3.2 -5,0 -43.5,-0.9 -40.8,-0.9 -21.2,-1 1.1,-21.3 -33.4,-2.7 4.3,-44 15.5,1 20.2,1.1 17.8,1.1 23.8,1.1 10.7,-0.5 2.1,2.3 4.8,3 1.1,0.9 4.3,-1.4 3.9,-0.5 2.7,-0.2 1.8,1.4 5,1.6 3,1.6 0.5,1.6 0.9,2.1 1.8,0 0.8,0 1,5.2 2.7,8 1.2,4.6 2.1,3.8 0.5,4.9 1.4,4.3 0.5,6.5"
       inkscape:connector-curvature="0" />
    <path
       class="state"
       id="NH"
       d="m 880.8,142.4 0.9,-1.1 1.1,-3.3 -2.5,-0.9 -0.5,-3.1 -3.9,-1.1 -0.3,-2.7 -7.3,-23.4 -4.6,-14.5 -0.9,0 -0.6,1.6 -0.6,-0.5 -1,-1 -1.5,1.9 0,5 0.3,5.7 1.9,2.7 0,4 -3.7,5.1 -2.6,1.1 0,1.1 1.1,1.8 0,8.6 -0.8,9.2 -0.2,4.8 1,1.3 -0.2,4.5 -0.5,1.8 1.5,0.9 16.4,-4.7 2.3,-0.6 1.5,-2.6 3.7,-1.6 z"
       inkscape:connector-curvature="0" />
    <path
       class="state"
       id="NJ"
       d="m 828.2,190.3 -2.1,2.4 0,3.1 -1.9,3.1 -0.2,1.6 1.3,1.3 -0.2,2.4 -2.3,1.1 0.8,2.7 0.2,1.1 2.7,0.3 1,2.6 3.6,2.4 2.4,1.6 0,0.8 -3.2,3.1 -1.6,2.3 -1.5,2.7 -2.3,1.3 -1.2,0.7 -0.2,1.2 -0.6,2.6 1.1,2.2 3.2,2.9 4.8,2.3 4,0.6 0.2,1.5 -0.8,1 0.3,2.7 0.8,0 2.1,-2.4 0.8,-4.8 2.7,-4 3.1,-6.5 1.1,-5.5 -0.6,-1.1 -0.2,-9.4 -1.6,-3.4 -1.1,0.8 -2.7,0.3 -0.5,-0.5 1.1,-1 2.1,-1.9 0.1,-1.1 -0.4,-3.4 0.5,-2.7 -0.2,-2.1 -2.6,-1.1 -4.5,-1 -3.9,-1.1 -3.6,-1.7 z"
       inkscape:connector-curvature="0" />
    <path
       class="state"
       id="NM"
       d="m 282.7,431 -0.7,-6.1 8.6,0.5 29.5,3.1 28.4,1.4 2,-22.3 3.7,-55.9 1.1,-19.4 2,0.3 0,-11.1 -32.2,-2.4 -36.9,-4.4 -34.5,-4.1 -4.2,30.8 -7,53.2 -3.8,26.9 -2,13.3 15.5,2 1.3,-10 16.7,2.6 12.5,1.6 z"
       inkscape:connector-curvature="0" />
    <path
       class="state"
       id="NV"
       d="m 140.7,177.6 21,4.5 9.7,1.9 9.3,1.8 6.6,1.6 -0.6,5.9 -3.5,17.3 -4.1,20 -1.9,9.7 -2.2,13.3 -3.2,16.4 -3.5,15.7 -2,10.2 -2.5,16.8 -0.5,1.1 -1.1,2.5 -1.9,-0.1 -1.1,-2.7 -2.7,-0.5 -1.4,-1 -2,0.3 -0.9,0.7 -1.3,1.3 -0.4,7 -0.5,1.7 -0.4,12.1 -1.3,1.7 -1.9,-2.3 -14.5,-22.7 -19.4,-29 -22.9,-33.8 -12.4,-18.6 1.6,-6.6 7,-25.9 7.9,-31.3 33.6,8.1 13.7,3"
       inkscape:connector-curvature="0" />
    <path
       class="state"
       id="NY"
       d="m 828.9,189.3 -1.1,-1 -2.6,-0.2 -2.3,-1.9 -1.6,-6.1 -3.5,0.1 -2.4,-2.7 -19.4,4.4 -43,8.7 -7.5,1.2 -0.7,-6.5 1.4,-1.1 1.3,-1.1 1,-1.6 1.8,-1.1 1.9,-1.8 0.5,-1.6 2.1,-2.7 1.1,-1 -0.2,-1 -1.3,-3.1 -1.8,-0.2 -1.9,-6.1 2.9,-1.8 4.4,-1.5 4,-1.3 3.2,-0.5 6.3,-0.2 1.9,1.3 1.6,0.2 2.1,-1.3 2.6,-1.1 5.2,-0.5 2.1,-1.8 1.8,-3.2 1.6,-1.9 2.1,0 1.9,-1.1 0.2,-2.3 -1.5,-2.1 -0.3,-1.5 1.1,-2.1 0,-1.5 -1.8,0 -1.8,-0.8 -0.8,-1.1 -0.2,-2.6 5.8,-5.5 0.6,-0.8 1.5,-2.9 2.9,-4.5 2.7,-3.7 2.1,-2.4 2.4,-1.8 3.1,-1.2 5.5,-1.3 3.2,0.2 4.5,-1.5 7.6,-2.1 0.5,5 2.4,6.5 0.8,5.2 -1,3.9 2.6,4.5 0.8,2.1 -0.8,2.9 2.9,1.3 0.6,0.3 3.1,11 -0.5,5.1 -0.5,10.8 0.8,5.5 0.8,3.6 1.5,7.3 0,8.1 -1.1,2.3 1.8,2 0.8,1.7 -1.9,1.8 0.3,1.3 1.3,-0.3 1.5,-1.3 2.3,-2.6 1.1,-0.6 1.6,0.6 2.3,0.2 7.9,-3.9 2.9,-2.7 1.3,-1.5 4.2,1.6 -3.4,3.6 -3.9,2.9 -7.1,5.3 -2.6,1 -5.8,1.9 -4,1.1 -1.2,-0.5 -0.2,-3.7 0.5,-2.7 -0.2,-2.1 -2.8,-1.7 -4.5,-1 -3.9,-1.1 -3.5,-2.1 z"
       inkscape:connector-curvature="0" />
    <path
       class="state"
       id="OH"
       d="m 731.4,195 -6.1,4.1 -3.9,2.3 -3.4,3.7 -4,3.9 -3.2,0.8 -2.9,0.5 -5.5,2.6 -2.1,0.2 -3.4,-3.1 -5.2,0.6 -2.6,-1.5 -2.4,-1.4 -4.9,0.7 -10.2,1.6 -7.8,1.2 1.3,14.6 1.8,13.7 2.6,23.4 0.6,4.8 4.1,-0.1 2.4,-0.8 3.4,1.5 2.1,4.4 5.1,0 1.9,2.1 1.8,-0.1 2.5,-1.3 2.5,0.4 2,1.5 1.7,-2.1 2.3,-1.3 2.1,-0.7 0.6,2.7 1.8,1 3.5,2.3 2.2,-0.1 1.1,-1.1 -0.1,-1.4 1.6,-1.5 0.2,-5 1,-3.9 1.5,-1.4 1.5,0.9 0.8,1.2 1.2,-0.2 -0.4,-2.4 -0.6,-0.6 0,-2.4 1,-1.3 2.3,-3.4 1.3,-1.5 2.1,0.5 2.3,-1.6 3.1,-3.4 2.3,-3.9 0.2,-5.4 0.5,-5 0,-4.7 -1.1,-3.1 1,-1.5 0.9,-1 -1.4,-9.8 -3,-19.2 z"
       inkscape:connector-curvature="0" />
    <path
       class="state"
       id="OK"
       d="m 375.3,322.6 -10.7,-0.5 -6.4,-0.5 0.3,0.2 -0.7,10.4 22,1.4 32.1,1.3 -2.3,24.4 -0.5,17.8 0.2,1.6 4.3,3.7 2.1,1.1 0.7,-0.2 0.7,-2.1 1.4,1.8 2.1,0 0,-1.4 2.7,1.4 -0.5,3.9 4.1,0.2 2.5,1.1 4.1,0.7 2.5,1.8 2.3,-2.1 3.4,0.7 2.5,3.4 0.9,0 0,2.3 2.3,0.7 2.3,-2.3 1.8,0.7 2.5,0 0.9,2.5 4.8,1.8 1.4,-0.7 1.8,-4.1 1.1,0 1.1,2.1 4.1,0.7 3.7,1.4 3,0.9 1.8,-0.9 0.7,-2.5 4.3,0 2.1,0.9 2.7,-2.1 1.1,0 0.7,1.6 4.1,0 1.6,-2.1 1.8,0.5 2.1,2.5 3.2,1.8 3.2,0.9 1.9,1.1 -0.4,-37.2 -1.4,-11 -0.2,-8.9 -1.4,-6.5 -0.8,-7.2 -0.1,-3.8 -12.1,0.3 -46.4,-0.5 -45,-2.1 -24.1,-0.9 z"
       inkscape:connector-curvature="0" />
    <path
       class="state"
       id="OR"
       d="m 140.2,176.8 4.3,-17.9 4.7,-17.9 1.1,-4.2 2.4,-5.6 -0.6,-1.2 -2.5,0 -1.3,-1.7 0.5,-1.5 0.5,-3.2 4.5,-5.5 1.8,-1.1 1.1,-1.1 1.5,-3.6 4,-5.7 3.6,-3.9 0.2,-3.5 -3.3,-2.5 -1.2,-4.5 -13.2,-3.7 -15.1,-3.5 -15.4,0.1 -0.5,-1.4 -5.5,2.1 -4.5,-0.6 -2.4,-1.6 -1.3,0.7 -4.6,-0.3 -1.7,-1.3 -5.3,-2 -0.8,0 -4.3,-1.4 -1.9,1.8 -6.2,-0.3 -5.9,-4.1 0.7,-0.8 0.2,-7.8 -2.3,-3.9 -4.1,-0.6 -0.7,-2.5 -2.4,-0.5 -5.8,2.1 -2.3,6.5 -3.2,10 -3.2,6.5 -5,14.1 -6.5,13.6 -8.1,12.6 -1.9,2.9 -0.8,8.6 -1.3,6 2.7,3.5 6.7,2.3 11.6,3.3 7.9,2.5 12.4,3.6 13.3,3.6 13.2,3.6"
       inkscape:connector-curvature="0" />
    <path
       class="state"
       id="PA"
       d="m 822.2,226.3 1.1,-0.6 2.3,-0.6 1.5,-2.7 1.6,-2.3 3.2,-3.1 0,-0.8 -2.4,-1.6 -3.6,-2.4 -1,-2.6 -2.7,-0.3 -0.2,-1.1 -0.8,-2.7 2.3,-1.1 0.2,-2.4 -1.3,-1.3 0.2,-1.6 1.9,-3.1 0,-3.1 2.3,-2.4 0.2,-1.1 -2.6,-0.2 -2.3,-1.9 -2.4,-5.3 -3,-0.9 -2.3,-2.1 -18.6,4 -43,8.7 -8.9,1.5 -0.5,-7.1 -5.5,5.6 -1.3,0.5 -4.2,3 2.9,19.1 2.9,9.5 3.6,19.3 3.3,-0.6 11.9,-1.5 37.9,-7.7 14.9,-2.8 8.3,-1.6 0.3,-0.2 2.1,-1.6 1.7,-0.8 z"
       inkscape:connector-curvature="0" />
    <path
       class="state"
       id="RI"
       d="m 874.1,179.8 -0.5,-4.2 -0.8,-4.4 -1.7,-5.9 5.7,-1.5 1.6,1.1 3.4,4.4 2.9,4.4 -2.9,1.5 -1.3,-0.2 -1.1,1.8 -2.4,1.9 -2.9,1.1 z"
       inkscape:connector-curvature="0" />
    <path
       class="state"
       id="SC"
       d="m 761.2,412.9 -1.8,1 -2.6,-1.3 -0.6,-2.1 -1.3,-3.6 -2.3,-2.1 -2.6,-0.6 -1.6,-4.8 -2.7,-6 -4.2,-1.9 -2.1,-1.9 -1.3,-2.6 -2.1,-2 -2.3,-1.3 -2.3,-2.9 -3.1,-2.3 -4.5,-1.8 -0.5,-1.5 -2.4,-2.9 -0.5,-1.5 -3.4,-5.2 -3.4,0.2 -4,-2.4 -1.3,-1.3 -0.3,-1.8 0.8,-1.9 2.3,-1 -0.3,-2.1 6.1,-2.6 9.1,-4.5 7.3,-0.8 16.5,-0.5 2.3,1.9 1.6,3.2 4.4,-0.5 12.6,-1.5 2.9,0.8 12.6,7.6 10.1,8.1 -5.4,5.5 -2.6,6.1 -0.5,6.3 -1.6,0.8 -1.1,2.7 -2.4,0.6 -2.1,3.6 -2.7,2.7 -2.3,3.4 -1.6,0.8 -3.6,3.4 -2.9,0.2 1,3.2 -5,5.5 -2.3,1.6 z"
       inkscape:connector-curvature="0" />
    <path
       class="state"
       id="SD"
       d="m 472.8,203.2 -1,-1.1 -1.5,-3.6 1.8,-3.7 1.1,-5.6 -2.6,-2.1 -0.3,-2.7 0.6,-3 2.2,-0.8 0.3,-5.7 -0.1,-30.1 -0.6,-3 -4.1,-3.6 -1,-2 0,-1.9 1.9,-1.3 1.5,-1.9 0.2,-2.7 -57.4,-1.6 -56.2,-3.9 -0.8,5.3 -1.6,15.9 -1.3,17.9 -1.6,24.6 16,1 19.6,1.1 18,1.3 23.8,1.3 10.7,-0.8 2.9,2.3 4.3,3 1,0.8 3.5,-0.9 4,-0.3 2.7,-0.1 3.1,1.2 4.5,1.4 3.1,1.8 0.6,1.9 0.9,1.9 0.7,-0.5 1.1,0.2 z"
       inkscape:connector-curvature="0" />
    <path
       class="state"
       id="TN"
       d="m 697.1,320.6 -51.9,5 -15.8,1.8 -4.6,0.5 -3.9,0 0,3.9 -8.4,0.5 -7,0.6 -11.1,0.1 -0.3,5.8 -2.1,6.3 -1,3 -1.3,4.4 -0.3,2.6 -4,2.3 1.5,3.6 -1,4.4 -1,0.8 7.3,-0.2 24.1,-1.9 5.3,-0.2 8.1,-0.5 27.8,-2.6 10.2,-0.8 8.4,-1 8.4,-1.1 4.8,-0.8 -0.1,-4.5 1.8,-1.5 2.7,-0.6 0.6,-3.7 4.2,-2.7 3.9,-1.5 4.2,-3.6 4.4,-2.1 0.9,-3.5 4.3,-3.9 0.6,-0.2 c 0,0 0,1.1 0.8,1.1 0.8,0 1.9,0.3 1.9,0.3 l 2.3,-3.6 2.1,-0.6 2.3,0.3 1.6,-3.6 2.1,-2.2 0.6,-1 0.2,-3.9 -1.5,-0.3 -2.4,1.9 -7.9,0.2 -12,1.9 -9.8,0.8 z"
       inkscape:connector-curvature="0" />
    <path
       class="state"
       id="TX"
       d="m 357.1,333.4 22.7,1.1 31.1,1.1 -2.3,23.5 -0.3,18.2 0.1,2.1 4.3,3.8 1.7,0.8 1.8,0.3 0.7,-1.3 0.9,0.9 1.7,0.5 1.6,-0.7 1.1,0.4 -0.3,3.4 4.3,1 2.7,0.8 4,0.5 2.2,1.8 3.2,-1.6 2.8,0.4 2,2.8 1.1,0.3 -0.2,2 3.1,1.2 2.8,-1.8 1.5,0.4 2.4,0.2 0.4,1.9 4.6,2 2.7,-0.2 2,-4.1 0.3,0 1.1,1.9 4.4,1 3.3,1.2 3.3,0.8 2.1,-0.8 0.8,-2.5 3.7,0 1.9,0.8 3.1,-1.6 0.7,0 0.4,1.1 4.3,0 2.4,-1.3 1.7,0.3 1.4,1.9 2.9,1.7 3.5,1.1 2.7,1.4 2.4,1.6 3.3,-0.9 1.9,1 0.5,10.1 0.3,9.7 0.7,9.5 0.5,4 2.7,4.6 1.1,4.1 3.9,6.3 0.5,2.9 0.5,1 -0.7,7.5 -2.7,4.4 1,2.9 -0.4,2.5 -0.8,7.3 -1.4,2.7 0.6,4.4 -5.7,1.6 -9.9,4.5 -1,1.9 -2.6,1.9 -2.1,1.5 -1.3,0.8 -5.7,5.3 -2.7,2.1 -5.3,3.2 -5.7,2.4 -6.3,3.4 -1.8,1.5 -5.8,3.6 -3.4,0.6 -3.9,5.5 -4,0.3 -1,1.9 2.3,1.9 -1.5,5.5 -1.3,4.5 -1.1,3.9 -0.8,4.5 0.8,2.4 1.8,7 1,6.1 1.8,2.7 -1,1.5 -3.1,1.9 -5.7,-3.9 -5.5,-1.1 -1.3,0.5 -3.2,-0.6 -4.2,-3.1 -5.2,-1.1 -7.6,-3.4 -2.1,-3.9 -1.3,-6.5 -3.2,-1.9 -0.6,-2.3 0.6,-0.6 0.3,-3.4 -1.3,-0.6 -0.6,-1 1.3,-4.4 -1.6,-2.3 -3.2,-1.3 -3.4,-4.4 -3.6,-6.6 -4.2,-2.6 0.2,-1.9 -5.3,-12.3 -0.8,-4.2 -1.8,-1.9 -0.2,-1.5 -6,-5.3 -2.6,-3.1 0,-1.1 -2.6,-2.1 -6.8,-1.1 -7.4,-0.6 -3.1,-2.3 -4.5,1.8 -3.6,1.5 -2.3,3.2 -1,3.7 -4.4,6.1 -2.4,2.4 -2.6,-1 -1.8,-1.1 -1.9,-0.6 -3.9,-2.3 0,-0.6 -1.8,-1.9 -5.2,-2.1 -7.4,-7.8 -2.3,-4.7 0,-8.1 -3.2,-6.5 -0.5,-2.7 -1.6,-1 -1.1,-2.1 -5,-2.1 -1.3,-1.6 -7.1,-7.9 -1.3,-3.2 -4.7,-2.3 -1.5,-4.4 -2.6,-2.9 -1.9,-0.5 -0.6,-4.7 8,0.7 29,2.7 29.3,1.6 2.3,-23.8 3.9,-55.6 1.6,-18.7 1.4,0 m 99.1,234.1 -0.6,-7.1 -2.7,-7.2 -0.6,-7 1.5,-8.2 3.3,-6.9 3.5,-5.4 3.2,-3.6 0.6,0.2 -4.8,6.6 -4.4,6.5 -2,6.6 -0.3,5.2 0.9,6.1 2.6,7.2 0.5,5.2 0.2,1.5 -0.9,0.3 z"
       inkscape:connector-curvature="0" />
    <path
       class="state"
       id="UT"
       d="m 253,309.3 -24.6,-3.5 -26.6,-4.9 -33.8,-6 1.6,-9.2 3.2,-15.2 3.2,-16.5 2.2,-13.6 1.9,-8.9 3.8,-20.5 3.5,-17.5 1.1,-5.6 12.7,2.3 12,2.1 10.3,1.8 8.3,1.4 3.7,0.5 -1.5,10.6 -2.3,13.2 7.8,0.9 16.4,1.8 8.2,0.9 -2.1,22 -3.2,22.6 -3.8,27.8 -1.7,11.1 -0.3,2.4 z"
       inkscape:connector-curvature="0" />
    <path
       class="state"
       id="VA"
       d="m 828.9,269.2 -0.1,-1.9 6.5,-2.5 -0.8,3.2 -2.9,3.8 -0.4,4.6 0.5,3.4 -1.8,5 -2.2,1.9 -1.5,-4.6 0.4,-5.4 1.6,-4.2 0.7,-3.3 z m 2.3,28.3 -58.2,12.6 -37.4,5.3 -6.7,-0.4 -2.6,1.9 -7.3,0.2 -8.4,1 -8.9,1 8.5,-4.9 0,-2.1 1.5,-2.1 10.6,-11.5 3.9,4.5 3.8,1 2.5,-1.1 2.2,-1.3 2.5,1.3 3.9,-1.4 1.9,-4.6 2.6,0.5 2.9,-2.1 1.8,0.5 2.8,-3.7 0.3,-2.1 -1,-1.3 1,-1.9 5.3,-12.3 0.6,-5.7 1.2,-0.5 2.2,2.4 3.9,-0.3 1.9,-7.6 2.8,-0.6 1,-2.7 2.6,-2.3 1.3,-2.3 1.5,-3.4 0.1,-5.1 9.8,3.8 c 0.7,0.3 0.7,-4.8 0.7,-4.8 l 4.1,1.4 -0.5,2.6 8.2,2.9 1.3,1.8 -0.9,3.7 -1.3,1.3 -0.5,1.7 0.5,2.4 2,1.3 3.9,1.4 2.9,1 4.9,0.9 2.2,2.1 3.2,0.4 0.9,1.2 -0.4,4.7 1.4,1.1 -0.5,1.9 1.2,0.8 -0.2,1.4 -2.7,-0.1 0.1,1.6 2.3,1.5 0.1,1.4 1.8,1.8 0.5,2.5 -2.6,1.4 1.6,1.5 5.8,-1.7 3.6,6.2 z"
       inkscape:connector-curvature="0" />
    <path
       class="state"
       id="VT"
       d="m 844.3,153.7 -0.8,-5.7 -2.4,-10 -0.6,-0.3 -2.9,-1.3 0.8,-2.9 -0.8,-2.1 -2.7,-4.6 1,-3.9 -0.8,-5.2 -2.4,-6.5 -0.8,-4.9 26.2,-6.7 0.3,5.8 1.9,2.7 0,4 -3.7,4 -2.6,1.1 0,1.1 1.1,1.8 0,8.6 -0.8,9.2 -0.2,4.8 1,1.3 -0.2,4.5 -0.5,1.8 0.7,1.6 -7,1.4 -3.8,0.4 z"
       inkscape:connector-curvature="0" />
    <path
       class="state"
       id="WA"
       d="m 93.6,6.4 4.4,1.5 9.7,2.7 8.6,1.9 20,5.7 23,5.7 15.2,3.4 -1,3.9 -4.1,13.8 -4.5,20.8 -3.2,16.1 -0.4,9.4 -13.2,-3.9 -15.6,-3.4 -13.7,0.6 -1.6,-1.5 -5.3,1.9 -4,-0.3 -2.7,-1.8 -1.6,0.5 -4.2,-0.2 -1.9,-1.4 -4.8,-1.7 -1.4,-0.2 -5,-1.3 -1.8,1.5 -5.7,-0.3 -4.8,-3.8 0.2,-0.8 0.1,-7.9 -2.1,-3.9 -4.1,-0.7 -0.4,-2.4 -2.5,-0.6 -2.9,-0.5 -1.8,1 -2.3,-2.9 0.3,-2.9 2.7,-0.3 1.6,-4 -2.6,-1.1 0.2,-3.7 4.4,-0.6 -2.7,-2.7 -1.5,-7.1 0.6,-2.9 0,-7.9 -1.8,-3.2 2.3,-9.4 2.1,0.5 2.4,2.9 2.7,2.6 3.2,1.9 4.5,2.1 3.1,0.6 2.9,1.5 3.4,1 2.3,-0.2 0,-2.4 1.3,-1.1 2.1,-1.3 0.3,1.1 0.3,1.8 -2.3,0.5 -0.3,2.1 1.8,1.5 1.1,2.4 0.6,1.9 1.5,-0.2 0.2,-1.3 -1,-1.3 -0.5,-3.2 0.8,-1.8 -0.6,-1.5 0,-2.6 1.8,-3.6 L 94.3,12.8 91.9,8 92.2,7.2 93.6,6.4 Z m -9.5,5.9 2,-0.2 0.5,1.4 1.5,-1.6 2.3,0 0.8,1.5 -1.5,1.7 0.6,0.8 -0.7,2 -1.4,0.4 c 0,0 -0.9,0.1 -0.9,-0.2 0,-0.3 1.5,-2.6 1.5,-2.6 l -1.7,-0.6 -0.3,1.5 -0.7,0.6 -1.5,-2.3 -0.5,-2.4 z"
       inkscape:connector-curvature="0" />
    <path
       class="state"
       id="WI"
       d="m 612.9,197.2 0.4,-3 -1.6,-4.5 -0.6,-6.1 -1.1,-2.4 1,-3.1 0.8,-2.9 1.5,-2.6 -0.6,-3.4 -0.6,-3.6 0.5,-1.8 1.9,-2.4 0.2,-2.7 -0.8,-1.3 0.6,-2.6 0.5,-3.2 2.7,-5.7 2.9,-6.8 0.2,-2.3 -0.3,-1 -0.8,0.5 -4.2,6.3 -2.7,4 -1.9,1.8 -0.8,2.3 -1.5,0.8 -1.1,1.9 -1.5,-0.3 -0.2,-1.8 1.3,-2.4 2.1,-4.7 1.8,-1.6 1.1,-2.3 -1.6,-0.9 -1.4,-1.4 -1.6,-10.3 -3.7,-1.1 -1.4,-2.3 -12.6,-2.7 -2.5,-1.1 -8.2,-2.3 -8.2,-1.1 -4.2,-5.4 -0.5,1.3 -1.1,-0.2 -0.6,-1.1 -2.7,-0.8 -1.1,0.2 -1.8,1 -1,-0.6 0.6,-1.9 1.9,-3.1 1.1,-1.1 -1.9,-1.5 -2.1,0.8 -2.9,1.9 -7.4,3.2 -2.9,0.6 -2.9,-0.5 -1,-0.9 -2.1,2.8 -0.2,2.7 0,8.5 -1.1,1.6 -5.3,3.9 -2.3,5.9 0.5,0.2 2.5,2.1 0.7,3.2 -1.8,3.2 0,3.9 0.5,6.6 3,3 3.4,0 1.8,3.2 3.4,0.5 3.9,5.7 7.1,4.1 2.1,2.7 0.9,7.4 0.7,3.3 2.3,1.6 0.2,1.4 -2.1,3.4 0.2,3.2 2.5,3.9 2.5,1.1 3,0.5 1.3,1.4 9.2,0 26.1,-1.5 9.6,-1.3 z"
       inkscape:connector-curvature="0" />
    <path
       class="state"
       id="WV"
       d="m 756.4,242.2 1.1,4.9 1.1,6.9 3.6,-2.7 2.3,-3.1 2.5,-0.6 1.5,-1.5 1.8,-2.6 1.2,0.6 2.9,-0.3 2.6,-2.1 2,-1.5 1.8,-0.5 1.3,1 2.2,1.1 1.9,1.8 1.4,1.3 -0.1,4.7 -5.7,-3.1 -4.5,-1.8 -0.2,5.3 -0.5,2.1 -1.6,2.7 -0.6,1.6 -3.1,2.4 -0.5,2.3 -3.4,0.3 -0.3,3.1 -1.1,5.5 -2.6,0 -1.3,-0.8 -1.6,-2.7 -1.8,0.2 -0.3,4.4 -2.1,6.6 -5,10.8 0.8,1.3 -0.2,2.7 -2.1,1.9 -1.5,-0.3 -3.2,2.4 -2.6,-1 -1.8,4.7 c 0,0 -3.7,0.8 -4.4,1 -0.6,0.2 -2.4,-1.3 -2.4,-1.3 l -2.4,2.3 -2.6,0.6 -2.9,-0.8 -1.3,-1.3 -2.2,-3 -3.1,-2 -2.6,-2.7 -2.9,-3.7 -0.6,-2.3 -2.6,-1.5 -0.8,-1.6 -0.2,-5.3 2.2,-0.1 1.9,-0.8 0.2,-2.7 1.6,-1.5 0.2,-5 1,-3.9 1.3,-0.6 1.3,1.1 0.5,1.8 1.8,-1 0.5,-1.6 -1.1,-1.8 0,-2.4 1,-1.3 2.3,-3.4 1.3,-1.5 2.1,0.5 2.3,-1.6 3.1,-3.4 2.3,-3.9 0.3,-5.7 0.5,-5 0,-4.7 -1.1,-3.1 1,-1.5 1.3,-1.3 3.5,19.8 4.6,-0.8 10.8,-1 z"
       inkscape:connector-curvature="0" />
    <path
       class="state"
       id="WY"
       d="m 354.3,143.8 -10.5,-0.8 -32.1,-3.3 -16.2,-2.1 -28.3,-4.1 -19.9,-3 -1.4,11.2 -3.8,24.3 -5.3,30.4 -1.5,10.5 -1.7,11.9 6.5,0.9 25.9,2.5 20.6,2.3 36.8,4.1 23.8,2.9 4.5,-44.2 1.4,-25.4 1.2,-18.1 z"
       inkscape:connector-curvature="0" />
    <circle
       id="DC"
       cx="801.29999"
       cy="251.8"
       r="5"
       style="stroke:#ffffff;stroke-width:1.5" />
  </g>
</svg>
