<?xml version="1.0" encoding="UTF-8" standalone="no"?>
<!-- Created with Inkscape (http://www.inkscape.org/) -->
<?xml-stylesheet type="text/css" href="/stylesheets/state.css" ?> 
<svg
   xmlns:dc="http://purl.org/dc/elements/1.1/"
   xmlns:cc="http://creativecommons.org/ns#"
   xmlns:rdf="http://www.w3.org/1999/02/22-rdf-syntax-ns#"
   xmlns:svg="http://www.w3.org/2000/svg"
   xmlns="http://www.w3.org/2000/svg"
   xmlns:sodipodi="http://sodipodi.sourceforge.net/DTD/sodipodi-0.dtd"
   xmlns:inkscape="http://www.inkscape.org/namespaces/inkscape"
   width="100%"
   height="300px"
   viewBox="0 0 189.61268 83.107484"
   id="svg3885"
   version="1.1"
   inkscape:version="0.91 r"
   sodipodi:docname="VA.svg">
  <defs
     id="defs3887" />
  <sodipodi:namedview
     id="base"
     pagecolor="#ffffff"
     bordercolor="#666666"
     borderopacity="1.0"
     inkscape:pageopacity="0.0"
     inkscape:pageshadow="2"
     inkscape:zoom="4.6444664"
     inkscape:cx="58.167984"
     inkscape:cy="41.376263"
     inkscape:document-units="px"
     inkscape:current-layer="layer1"
     showgrid="false"
     inkscape:window-width="1920"
     inkscape:window-height="1028"
     inkscape:window-x="0"
     inkscape:window-y="0"
     inkscape:window-maximized="1"
     fit-margin-top="0"
     fit-margin-left="0"
     fit-margin-right="0"
     fit-margin-bottom="0" />
  <metadata
     id="metadata3890">
    <rdf:RDF>
      <cc:Work
         rdf:about="">
        <dc:format>image/svg+xml</dc:format>
        <dc:type
           rdf:resource="http://purl.org/dc/dcmitype/StillImage" />
        <dc:title></dc:title>
      </cc:Work>
    </rdf:RDF>
  </metadata>
  <g
     inkscape:label="Layer 1"
     inkscape:groupmode="layer"
     id="layer1"
     transform="translate(-151.26024,-343.69259)">
    <path
       inkscape:connector-curvature="0"
       d="m 294.86631,369.7229 c -0.10368,-0.18357 -0.19241,-0.40821 -0.39421,-0.50959 -0.28678,-0.12445 -0.35834,0.33339 -0.64041,0.26735 -0.31323,0.0526 -0.50212,-0.29524 -0.31901,-0.55617 0.089,-0.30114 0.21876,-0.5571 0.46615,-0.75748 0.15194,-0.22344 0.31076,-0.50567 0.24557,-0.77687 -0.19992,-0.23969 -0.55002,-0.13186 -0.8001,-0.28367 -0.34753,-0.10098 -0.168,-0.52954 -0.37483,-0.72966 -0.19621,-0.20729 -0.50326,0.0202 -0.66751,-0.0279 -0.058,-0.21384 -0.3883,-0.6261 -0.0796,-0.75686 0.34027,-0.0667 0.66727,0.19741 1.00217,0.10626 0.2611,-0.10628 0.573,-0.12682 0.65265,-0.45695 0.11151,-0.16482 0.25169,-0.29899 0.33406,-0.46745 -0.2108,-0.0787 -0.41231,-0.13793 -0.62469,-0.21035 -0.0331,-0.16581 -0.10019,-0.32572 -0.30814,-0.32891 -0.26311,-0.17334 -0.40368,0.19193 -0.63317,0.2369 -0.0715,-0.0806 -0.15114,-0.25857 -0.24015,-0.34514 -0.089,-0.0866 -0.16407,-0.10681 -0.27191,0.0647 -0.26934,0.0888 -0.312,0.38419 -0.48436,0.56064 -0.27272,0.10674 -0.61867,0.0867 -0.83571,-0.13158 -0.20876,-0.18177 -0.33121,-0.49309 -0.6519,-0.50562 -0.22668,-0.1149 -0.55648,-0.10605 -0.53471,0.2278 10e-4,0.20607 -0.14363,0.19232 -0.19693,0.0182 -0.0973,-0.24986 -0.0649,-0.56291 0.0866,-0.78215 l 0.85729,-1.46823 -2.78771,0.11759 -1.74933,0.61747 1.12241,2.06012 c -0.21715,-0.0994 -0.63725,-0.16636 -0.67978,0.16179 -0.10034,0.4246 -0.241,0.84511 -0.29921,1.27794 -0.0432,0.25024 0.0877,0.65217 -0.23848,0.74659 -0.23489,0.1764 -0.50232,0.36716 -0.57369,0.66801 0.014,0.11142 0.17325,0.24351 0.27065,0.35217 0.0974,0.10876 0.14914,0.19996 -0.0109,0.3185 -0.26181,0.0382 -0.4718,0.25917 -0.34828,0.52821 0.13794,0.16048 0.12287,0.40385 -0.13259,0.28991 -0.33587,-0.0306 -0.40775,-0.40348 -0.5929,-0.62029 -0.16763,-0.27629 -0.29783,-0.58962 -0.55018,-0.80277 -0.0764,-0.0596 -0.21988,-0.15623 -0.34375,-0.17681 -0.12392,-0.0208 -0.23046,0.0302 -0.20917,0.20778 -0.052,0.29656 -0.10439,0.59939 -0.14624,0.89657 0.0359,0.34929 0.43265,0.49938 0.73609,0.55749 0.17745,0.0124 0.25107,0.11907 0.26143,0.25378 0.0106,0.13475 -0.0446,0.28708 -0.20719,0.33663 -0.19655,0.13279 -0.47922,0.25702 -0.69592,0.0938 -0.0495,-0.0297 -0.0935,0.0483 -0.14309,0.0628 0.11228,0.10824 0.18552,0.25469 0.30102,0.35928 0.48514,0.51691 0.60637,1.23834 0.98973,1.80434 0.0487,0.32906 0.23349,0.66 0.47506,0.84946 0.24167,0.18948 0.56041,0.22786 0.8947,0.0169 0.23246,-0.0738 0.60313,-0.0893 0.9323,-0.006 0.32909,0.0832 0.59749,0.28573 0.60006,0.58972 0.0674,0.28354 -0.043,0.59599 -0.0778,0.88046 -0.0348,0.28456 0.003,0.51816 0.35858,0.66177 -0.0227,0.20676 -0.0928,0.51048 -0.0795,0.75168 0.0124,0.24087 0.10689,0.42649 0.48359,0.40202 0.30087,0.0322 0.59766,0.10471 0.84484,0.22985 0.24716,0.12525 0.44433,0.29291 0.53926,0.5757 0.59351,0.10712 0.96172,0.72205 1.58085,0.78731 0.60301,0.0727 1.06111,0.31725 1.54858,0.65138 l -5.23417,6.31691 c 0.18227,0.30673 0.3411,0.70831 0.5755,0.96921 0.2343,0.26089 0.54544,0.36506 0.97169,0.0991 0.30519,0.14889 0.44833,0.49381 0.64862,0.79377 0.2003,0.29995 0.45535,0.57309 0.9257,0.56973 0.22151,0.16062 0.39449,0.32108 0.58202,0.39303 0.18752,0.072 0.36936,0.0345 0.61891,-0.17594 0.43922,0.30506 0.52835,0.79292 0.60263,1.26437 0.0743,0.47145 0.12774,0.95199 0.53464,1.2806 0.14123,0.25789 0.37074,0.48088 0.57678,0.55233 0.20606,0.0713 0.39076,-0.031 0.47911,-0.40135 0.23072,-0.006 0.37352,0.065 0.44223,0.16763 0.0684,0.1027 0.0886,0.25708 0.097,0.40785 0.0167,0.30164 0.0123,0.63914 0.39817,0.76727 0.23623,0.29605 0.41138,0.6538 0.65764,0.89211 0.24623,0.23842 0.55121,0.34833 0.99503,0.13674 0.1,0.43155 0.40072,0.60549 0.72373,0.74716 0.32301,0.14167 0.68584,0.25229 0.8577,0.58596 0.32551,-0.0769 0.75673,-0.1711 1.05205,-0.10678 0.14767,0.0325 0.25092,0.0999 0.29911,0.23056 0.0485,0.13069 0.0383,0.32119 -0.075,0.5922 0.35039,0.12302 0.53553,0.46441 0.76132,0.72392 0.22569,0.25948 0.48737,0.44245 0.92183,0.31206 0.21981,0.28153 0.59596,0.66384 0.93665,0.79712 0.1704,0.0666 0.33803,0.074 0.45457,-0.022 0.11589,-0.0958 0.17374,-0.29065 0.1798,-0.63195 0.18679,-0.0152 0.27346,0.0901 0.29201,0.26093 0.0185,0.17083 -0.0202,0.40189 -0.0438,0.5996 -0.0237,0.1976 -0.0296,0.3591 0.0291,0.424 0.0588,0.0649 0.19947,0.0153 0.46684,-0.21165 0.13517,-0.18691 0.29774,-0.42594 0.47713,-0.53019 0.17939,-0.10425 0.35882,-0.0701 0.46746,0.33406 0.29177,0.17636 0.40062,-0.12753 0.50948,-0.39423 0.0548,-0.13322 0.12751,-0.25947 0.20007,-0.30616 0.0725,-0.0467 0.14977,-0.009 0.28291,0.16248 -0.15319,0.23753 -0.22832,0.65931 -0.18356,0.91997 0.0229,0.13035 0.0766,0.2256 0.17022,0.23233 0.0939,0.007 0.24099,-0.0836 0.42014,-0.28678 0.14241,-0.18716 0.24514,-0.19998 0.35422,-0.14168 0.10898,0.0583 0.20059,0.18377 0.301,0.35939 0.20067,0.35098 0.41354,0.82664 0.72563,0.87588 0.39628,0.18974 0.7057,0.52192 0.79368,0.85987 0.0879,0.33794 -0.0441,0.67584 -0.54847,0.83444 -0.43762,-0.15751 -1.02732,-0.24361 -1.54076,-0.13602 -0.25684,0.0539 -0.50189,0.16308 -0.68501,0.32099 -0.18312,0.15791 -0.29877,0.37024 -0.34641,0.65703 -0.0284,0.32764 -0.14729,0.62909 -0.25104,0.93622 0.17494,0.10649 0.34292,0.24133 0.53542,0.31793 0.38474,0.59261 0.18549,1.29622 0.27957,1.95902 -0.16263,0.69461 0.0627,1.41454 -0.20352,2.10277 l 1.62109,-0.0698 0.40135,0.47911 0.0987,-0.009 0.21115,-0.0789 0.21295,0.0499 0.32433,0.39699 0.21295,0.0499 0.1129,-0.0699 0.0214,-0.0913 0.19292,-0.27568 0.0499,-0.21304 0.67979,-0.16179 0.11288,-0.0698 0.12002,-0.10028 0.86425,0.01 0.19156,0.14119 0.34572,0.30566 0.0702,0.11266 0.16318,0.26282 0.0203,0.3258 0.10035,0.11973 0.0247,0.16632 0.92261,-0.65061 0.59686,0.87799 0.45061,-0.27964 0,0 0.2182,-0.10944 1.17029,1.71833 0.63577,0.43766 0.85521,-0.0886 0.0926,-0.3956 0.67267,-0.13141 0.33465,0.0784 0.1114,0.34713 1.01959,-0.24275 0.33413,-0.46734 -0.11645,-0.18779 -0.0915,-0.0214 -0.0702,-0.11266 -0.12171,-0.0285 -0.15397,-0.16443 -0.21304,-0.0499 -0.0915,-0.0214 -0.12171,-0.0285 -0.0915,-0.0214 -0.17017,-0.23252 -0.13281,-0.25571 0.0214,-0.0912 -0.0932,-0.1502 -0.0915,-0.0214 -0.12002,0.10028 -0.2344,0.0413 -0.14138,0.19151 -0.1431,0.0628 -0.0214,0.0913 -0.18247,-0.0427 -0.1217,-0.0285 -0.0915,-0.0214 0.0428,-0.18266 0.0285,-0.12171 0.0712,-0.30417 0.0926,-0.3956 -0.19167,-0.14112 -0.0416,-0.23446 0.0214,-0.0913 0.0285,-0.12171 0.0427,-0.18247 -0.063,-0.14314 -1.69243,0.37403 -0.30417,-0.0712 -0.27587,-0.19297 -0.17018,-0.23252 0.0499,-0.21294 0.14138,-0.19152 0.2558,-0.13278 0.0915,0.0214 0.78011,-0.042 0.32553,-0.02 0.12002,-0.10028 0.13429,-0.16123 0.56707,-0.0918 0.2629,-0.16307 0.0915,0.0214 0.32566,-0.0201 0.26292,-0.16316 -0.10035,-0.11972 -0.32573,0.02 -0.28281,-0.16244 -0.13281,-0.25571 -0.0291,-0.4241 -0.25432,-0.28416 -0.23311,-0.37563 -0.6984,-0.58071 -0.23313,-0.37553 0.16276,-0.28284 0.35415,-0.1418 0.11289,-0.0698 -0.0203,-0.3257 0.0499,-0.21303 0.21294,0.0499 0.18266,0.0428 0.12171,0.0285 -0.0285,0.12171 0.0701,0.11276 0.0701,0.11276 0.46745,0.33406 0.3956,0.0926 0.10035,0.11972 0.18247,0.0427 0.35481,0.40412 0.0915,0.0214 0.16308,0.2628 0.13281,0.25571 0.1217,0.0285 0.2828,0.16255 0.18266,0.0428 0.10032,0.11982 0.063,0.14314 0.0713,-0.30437 -0.14172,-0.35403 0.0285,-0.12171 0.26419,-0.58004 0.0214,-0.0913 0.0915,0.0214 0.0214,-0.0913 0.0285,-0.12171 0.13425,-0.16104 0.0285,-0.12171 -0.0203,-0.3258 0.001,-0.41693 -0.12044,-0.44538 0.008,-0.44751 -0.12171,-0.0285 0.0712,-0.30418 -0.21155,-0.46682 0.0214,-0.0912 -0.063,-0.14314 -0.17027,-0.23254 -0.34435,-0.72252 -0.18445,-0.17157 -0.0915,-0.0214 -0.12171,-0.0285 -0.0285,0.1217 0.12171,0.0285 -0.0214,0.0913 -0.19295,0.27578 -0.20402,0.0485 -0.33267,0.0505 -0.58005,-0.26419 -0.079,-0.21096 -0.063,-0.14313 0.0713,-0.30437 0.13424,-0.16104 0.24144,-0.0719 0.23432,-0.0415 0.37561,-0.233 0.11289,-0.0698 0.0285,-0.12171 0.1343,-0.16123 -0.063,-0.14314 -0.69978,-0.16384 -0.30437,-0.0713 -0.30417,-0.0712 -0.47596,0.11328 -0.0915,-0.0214 -0.0915,-0.0214 -0.49592,-0.21245 -0.16309,-0.2628 -0.0417,-0.23437 -0.0915,-0.0214 -0.26141,-0.25388 -0.62993,-0.0512 -0.47595,0.11328 -0.5082,-0.0227 -0.44724,-0.008 -0.18266,-0.0428 -0.21294,-0.0498 -0.58579,-0.65068 -0.18455,-0.17159 -0.0488,-0.20389 -0.16306,-0.2629 0.0214,-0.0913 0.0285,-0.1217 -0.44471,-0.84226 0.0499,-0.21294 0.0214,-0.0913 -0.0701,-0.11276 -0.16318,-0.26282 -0.28291,-0.16247 -0.063,-0.14314 0.0428,-0.18266 -0.51731,-0.12112 -0.5387,-0.0298 -0.28279,-0.16255 -0.0915,-0.0214 -0.0417,-0.23437 0.0214,-0.0912 -0.0932,-0.1502 0.0214,-0.0913 0.0214,-0.0913 -0.15397,-0.16443 -0.56719,0.0919 -0.21295,-0.0499 -0.23312,-0.37554 -0.30288,-0.4882 -0.063,-0.14314 -0.42462,-0.5166 -0.3029,-0.4881 0.0285,-0.12171 -0.10033,-0.11983 0.17159,-0.18454 0.22519,-0.13974 0.42607,0.0998 0.26146,0.25368 0.0829,0.46884 0.17022,0.23232 0.063,0.14314 0.47454,0.30378 0.21294,0.0499 0.22543,-0.13989 0.12171,0.0285 0.39421,0.50959 0.16308,0.26279 0.28289,0.16257 0.58716,0.23381 0.25442,0.28419 0.21294,0.0498 0.0214,-0.0912 0.18266,0.0428 -0.0214,0.0912 0.25431,0.28416 0.35345,0.82099 0.48745,0.65969 0.0701,0.11276 0.0505,0.33277 -0.0296,0.53874 0.0702,0.11266 0.63763,0.56658 0.20384,-0.0486 0.0214,-0.0913 0.0997,-0.42588 0.0214,-0.0913 0.32576,-0.0201 0.1217,0.0285 0.65701,0.3465 1.02614,0.68948 0.0285,-0.12171 0.18247,0.0427 0.21303,0.0499 0.2544,0.28428 0.19155,0.14119 0.11291,-0.0699 0.44539,-0.12043 0.34709,-0.11121 0.24143,-0.0718 0.60855,0.14248 0.0214,-0.0913 -0.1417,-0.35413 -0.1613,-0.134 -0.30418,-0.0712 -0.60854,-0.14248 -0.16316,-0.26292 0.16277,-0.28284 0.19295,-0.27578 0.0499,-0.21304 0.11289,-0.0698 0.0915,0.0214 0.17156,-0.18445 0.13429,-0.16123 -0.16318,-0.26282 -0.23293,-0.37549 0.19294,-0.27577 -0.18325,-0.58858 0.0435,-1.14523 -0.063,-0.14314 -0.008,-0.51533 0.2628,-0.16308 0.0214,-0.0912 0.24144,-0.0719 0.063,0.14314 -0.0214,0.0912 0.0702,0.11266 0.14307,-0.0627 0.20383,-0.0485 0.33416,-0.46744 0.0723,-0.7212 0.0285,-0.12171 0.0635,-0.8197 -0.34565,-0.30554 -0.25442,-0.28418 -0.21294,-0.0499 -0.87014,-0.3964 0.0285,-0.12171 -0.0915,-0.0214 -0.21294,-0.0498 -0.44412,-0.29645 -0.12171,-0.0285 -0.18266,-0.0428 -0.1217,-0.0285 -0.0915,-0.0214 -0.30427,-0.0712 -0.30427,-0.0712 -0.48882,-0.24283 -0.2614,-0.25388 -0.18266,-0.0428 -0.65904,-0.47515 -0.1112,-0.34709 -0.0932,-0.15021 -0.21116,0.0789 -0.12171,-0.0285 -0.18246,-0.0427 -0.12171,-0.0285 -0.36711,-0.21433 -0.17022,-0.23232 -0.0416,-0.23447 -0.1418,-0.35415 -0.11123,-0.347 -0.16316,-0.26291 -0.19167,-0.14112 -0.67842,-0.25507 0.0285,-0.12171 -0.0915,-0.0214 -0.12171,-0.0285 -0.16127,-0.1341 0.0214,-0.0913 -0.12171,-0.0285 -0.0915,-0.0214 -0.0919,-0.56707 -0.18327,-0.58848 -0.18247,-0.0427 -0.12171,-0.0285 -0.0915,-0.0214 -0.24153,0.0718 -0.0214,0.0912 -0.20382,0.0485 -0.33287,0.0504 -0.37602,-0.31265 -0.44546,0.12032 -0.0214,0.0913 -0.39688,0.32426 -0.21303,-0.0499 -0.16111,-0.13395 -0.10035,-0.11973 0.0285,-0.12171 -0.16128,-0.1341 -0.28279,-0.16254 -0.12171,-0.0285 -0.32575,0.0201 -0.18247,-0.0427 -0.23442,0.0414 -0.44536,0.12034 -0.12171,-0.0285 -0.0214,0.0912 -0.18266,-0.0428 -0.12171,-0.0285 -0.30417,-0.0712 -0.48683,-0.11398 -0.26165,-0.25373 -0.12171,-0.0285 -0.27568,-0.19293 -0.16128,-0.1341 -0.10032,-0.11982 -0.32556,0.0201 -0.0915,-0.0214 -0.0915,-0.0214 -0.376,-0.31275 -0.18266,-0.0428 -0.14173,-0.35403 0.0214,-0.0913 0.0915,0.0214 0.17159,-0.18454 -0.079,-0.21096 -0.0203,-0.3258 -0.0915,-0.0214 -0.16319,-0.26282 -0.0915,-0.0214 -0.10035,-0.11973 -0.0915,-0.0214 -0.0915,-0.0214 -0.12171,-0.0285 -0.063,-0.14314 -0.21303,-0.0499 -0.51592,-0.53808 0.0214,-0.0912 -0.13259,-0.25576 0.1414,-0.19161 0.0712,-0.30418 0.0713,-0.30436 0.0926,-0.39551 -0.0417,-0.23447 0.0712,-0.30417 -0.26161,-0.25392 -0.1217,-0.0285 0.0285,-0.12171 -0.44411,-0.29645 -0.14307,0.0627 -0.11289,0.0698 -0.0499,0.21304 -0.11291,0.0699 -0.0499,0.21294 -0.14307,0.0627 -0.1414,0.19161 -0.11291,0.0699 -0.21294,-0.0499 -0.21294,-0.0498 -0.12002,0.10028 -0.65127,0.04 -0.16279,0.28294 -0.17156,0.18445 -0.14138,0.19151 -0.34704,0.11142 -0.424,0.0291 -0.82285,0.22453 -0.11291,0.0699 -0.21304,-0.0499 -0.33267,0.0505 -0.0915,-0.0214 -0.27577,-0.19295 -0.17018,-0.23251 0.0285,-0.12171 -0.0702,-0.11266 0.0214,-0.0912 -0.16316,-0.26291 -0.16108,-0.13406 -0.39759,-0.22146 0.16443,-0.15397 0.0285,-0.12171 0.0214,-0.0913 -0.10032,-0.11983 -0.0828,-0.4686 -0.10033,-0.11983 -0.0203,-0.3257 -0.12042,-0.44548 0.1211,-0.51721 0.0926,-0.39551 0.0285,-0.1217 0.0428,-0.18267 0.0285,-0.1217 0.19292,-0.27568 0.0214,-0.0913 0.1129,-0.0699 0.12002,-0.10028 0.0427,-0.18247 0.1502,-0.0932 z"
       id="VA-1" />
    <path
       inkscape:connector-curvature="0"
       d="m 340.73029,381.64864 -0.20405,0.0486 -0.1502,0.0932 -0.0915,-0.0214 -1.4223,0.18052 -1.15572,0.27497 -0.50821,-0.0226 -0.67976,0.16169 -0.12171,-0.0285 -0.23235,0.17031 -0.32575,0.0201 -0.6584,0.0705 -1.12705,0.15341 -1.78366,0.35267 -0.0214,0.0912 -0.11289,0.0698 -0.12171,-0.0285 -0.0285,0.12171 0.12171,0.0285 0.0701,0.11276 -0.0214,0.0913 -0.0915,-0.0214 -0.12171,-0.0285 -0.12002,0.10028 -0.0214,0.0912 -0.0214,0.0912 -0.051,0.62997 -0.0915,-0.0214 -0.21304,-0.0499 -0.0915,-0.0214 -0.56658,0.63763 -0.23433,0.0415 -0.16306,-0.2629 -0.12002,0.10028 -0.13429,0.16123 -0.70955,0.70039 -0.0499,0.21294 0.0915,0.0214 0.6584,-0.0705 0.0214,-0.0912 0.12171,0.0285 0.21096,-0.079 0.18454,0.17159 0.35278,0.27506 0.0505,0.33287 -0.0712,0.30417 -0.17159,0.18454 -0.1414,0.19161 -0.11289,0.0698 -0.0712,0.30427 -0.0712,0.30427 -0.17156,0.18444 -0.11291,0.0699 -0.11291,0.0699 -0.19292,0.27567 -0.0915,-0.0214 -0.44548,0.12041 -0.30417,-0.0712 -0.23442,0.0414 -0.51661,0.42462 0.0899,0.43822 0.23311,0.37563 -0.19124,0.40446 -0.25581,0.13278 -0.0498,0.21294 -0.0214,0.0912 -0.0499,0.21304 -0.0499,0.21304 -0.0427,0.18247 -0.21096,0.079 -0.2843,0.25449 -0.0427,0.18247 -0.1414,0.19161 -10e-4,0.41693 0.063,0.14314 -0.16279,0.28294 -0.32702,0.43695 -0.28218,0.38316 -0.0214,0.0913 -0.0214,0.0913 -0.2428,0.48872 -0.14141,0.19161 -0.11398,0.48684 -0.0285,0.1217 -0.2055,0.46541 0.0915,0.0214 -0.0285,0.12171 0.0702,0.11266 -0.0214,0.0912 0.022,0.45457 -0.21431,0.36701 -0.14248,0.60855 -0.1211,0.51721 -0.0428,0.18266 0.1217,0.0285 -0.0285,0.12171 0.0702,0.11267 -0.11288,0.0698 -0.0713,0.30437 -0.19292,0.27568 -0.0713,0.30436 0.022,0.45438 0.0203,0.3258 -0.0214,0.0912 -0.0214,0.0912 0.0203,0.32579 -0.0712,0.30418 -0.0499,0.21304 -0.21262,0.49578 -0.20551,0.46541 -0.0285,0.12171 -0.0926,0.3956 -0.12112,0.51731 0.0203,0.3256 0.0701,0.11276 0.10032,0.11983 -0.0285,0.1217 -0.16443,0.15397 -0.0285,0.12171 -0.0428,0.18266 0.12171,0.0285 0.27451,0.60983 0.0701,0.11276 -0.0712,0.30418 -0.0285,0.12171 0.0504,0.33286 0.13994,0.22523 0.16306,0.2629 0.39622,0.63833 0.16108,0.13405 0.26221,0.79963 -0.0712,0.30418 0.18246,0.0427 0.34709,-0.1112 0.15021,-0.0932 0.37543,-0.23315 0.25449,0.2843 0.0701,0.11276 0.0915,0.0214 0.23442,-0.0414 0.1414,-0.19161 0.0214,-0.0912 0.28419,-0.25442 0.42536,-0.44597 0.1343,-0.16123 0.0285,-0.12171 0.28416,-0.25432 0.11291,-0.0699 0.0214,-0.0913 0.15021,-0.0932 0.0214,-0.0912 0.44685,-0.53728 0.0214,-0.0912 -0.18455,-0.17158 0.11291,-0.0699 0.0499,-0.21303 0.0214,-0.0912 0.14307,-0.0627 0.0285,-0.12171 -0.10033,-0.11983 -0.0701,-0.11276 -0.11332,-0.47576 0.16386,-0.69987 -0.21158,-0.46672 0.0285,-0.12171 0.14309,-0.0628 0.18247,0.0427 0.12171,0.0285 0.2539,-0.2615 0.6396,-0.81311 0.21262,-0.49578 0.0214,-0.0913 -0.0701,-0.11276 0.0499,-0.21294 0.0499,-0.21294 0.29664,-0.44407 0.24283,-0.48881 0.16276,-0.28284 0.33404,-0.46736 0.13429,-0.16123 0.0296,-0.53864 0.0214,-0.0913 -0.0718,-0.24144 -0.0702,-0.11266 0.6605,-1.45022 0.54646,-0.96318 0.0214,-0.0913 0.30555,-0.34565 -0.0932,-0.15021 -0.30417,-0.0712 -0.0488,-0.20409 0.0296,-0.53864 0.0926,-0.39551 0.0998,-0.42608 0.27673,-0.76958 0.0296,-0.53873 0.0214,-0.0912 0.12112,-0.51731 0.0214,-0.0912 0.14141,-0.19161 0.0214,-0.0913 0.16274,-0.28274 0.12112,-0.51731 0.24283,-0.48882 0.0427,-0.18246 0.0285,-0.12171 0.13429,-0.16123 0.0499,-0.21295 0.21264,-0.49588 0.19293,-0.27567 0.0428,-0.18267 0.0915,0.0214 0.0285,-0.1217 0.18413,-0.37408 0.44665,-0.53733 0.30564,-0.34562 0.2843,-0.25449 0.0285,-0.12171 0.20383,-0.0485 0.44743,0.009 0.0915,0.0214 0.0915,0.0214 0.12171,0.0285 0.0702,0.11266 0.37414,0.18383 0.2344,-0.0414 0.11288,-0.0698 0.0285,-0.12171 0.16448,-0.15416 0.32494,-0.56583 0.0285,-0.12171 0.30691,-0.76251 0.33376,-1.01319 0.11289,-0.0698 0.24282,-0.48882 0.29645,-0.44411 0.0499,-0.21294 0.21433,-0.36711 0.30376,-0.47444 z m -16.55067,5.84981 -0.12003,0.10028 -0.001,0.41693 0.0918,0.56707 0.26161,0.25392 0.1129,-0.0699 0.1211,-0.51721 0.0428,-0.18266 0.0285,-0.12171 -0.21294,-0.0499 -0.1613,-0.134 -0.0719,-0.24143 -0.0915,-0.0214 z m -10.82554,19.64305 -0.2182,0.10944 -0.0136,0.60656 0.42657,0.64555 -0.21262,0.49578 -0.61566,-0.1121 -0.42847,-0.77427 -0.34514,0.24015 0.89273,1.39658 0.0445,-0.0539 0.12002,-0.10028 0.0932,0.1502 0.0915,0.0214 0.0488,0.20409 -0.0285,0.12171 0.10034,0.11973 0.13281,0.25571 0.12171,0.0285 0.37412,0.18393 0.19165,0.14121 0.15397,0.16443 0.40472,0.191 0.0861,0.18068 c 0.0822,-0.1231 0.15098,-0.26763 0.16012,-0.41195 0.21179,-0.18252 -0.0484,-0.35261 -0.17408,-0.48998 -0.10696,-0.15333 0.0759,-0.39861 0.25185,-0.39047 0.20718,-0.0216 0.42822,0.007 0.62276,0.0817 0.18159,0.0829 0.38554,0.0391 0.48307,-0.14366 0.14735,-0.0784 0.10619,-0.49739 0.3218,-0.27775 0.16357,0.10937 0.25038,0.31322 0.23491,0.50433 -0.0245,0.27558 0.26462,0.1739 0.41884,0.13021 0.20051,-0.0563 0.41218,0.0477 0.6138,-0.0168 0.18608,-0.0139 0.35014,-0.31856 0.51335,-0.13657 0.18176,0.13787 0.10389,0.37702 0.0311,0.55295 -0.1895,0.10619 -0.15536,0.35647 -0.0909,0.52428 0.0625,0.0884 -0.0123,0.18404 -0.0339,0.28086 -0.0157,0.067 0.0361,0.13098 0.0186,0.19702 l 0.0302,0.007 0.11291,-0.0699 0.17159,-0.18455 0.0421,-0.72827 0.0214,-0.0912 0.0285,-0.12171 0.26418,-0.58005 0.11399,-0.48683 0.0285,-0.12171 -0.0504,-0.33286 -0.28162,-0.57946 -0.0461,-0.0749 -0.33414,0.46733 -1.01959,0.24276 -0.11139,-0.34714 -0.33465,-0.0784 -0.67267,0.13141 -0.0926,0.39561 -0.85521,0.0886 -0.63577,-0.43766 -1.17029,-1.71834 z m 11.18327,6.24517 -0.25566,0.13261 -0.28242,0.38331 -0.3469,0.11125 -0.1502,0.0932 -0.0915,-0.0214 -0.11291,0.0699 -0.1217,-0.0285 -0.60855,-0.14248 -0.16108,-0.13405 -0.21304,-0.0499 -0.9342,-0.12239 -0.30427,-0.0712 -0.21304,-0.0499 -0.0915,-0.0214 -0.21294,-0.0499 -0.18266,-0.0428 -0.10033,-0.11983 -0.18246,-0.0427 -0.18455,-0.17159 -0.37414,-0.18383 -0.19168,-0.14111 -0.21304,-0.0499 -0.18246,-0.0427 -0.32573,0.02 -0.3968,0.32439 -0.10032,-0.11983 -0.11291,0.0699 -0.1211,0.51722 0.0919,0.56709 -0.14309,0.0628 -0.18266,-0.0428 c 0.0815,0.24553 0.14347,0.51589 0.27649,0.73868 -0.0244,0.14813 0.0376,0.30982 0.12745,0.41498 0.0899,0.10536 0.20471,0.153 0.37224,0.0551 0.28664,-0.0451 0.49854,-0.45801 0.81376,-0.323 0.0668,0.10961 0.19293,0.18752 0.30625,0.20009 0.11332,0.0126 0.21531,-0.0462 0.21619,-0.23819 0.0658,-0.28398 0.0422,-0.64692 -0.22453,-0.82285 -0.29006,-0.13457 -0.35771,0.32809 -0.60793,0.40323 -0.35794,0.0185 -0.41482,-0.45443 -0.54116,-0.70442 -0.0495,-0.10453 -0.0923,-0.22886 -0.081,-0.3399 0.0116,-0.11098 0.0788,-0.19179 0.26292,-0.16316 0.28006,-0.0276 0.4979,0.0286 0.67849,0.25519 0.33784,0.0595 0.53334,0.29218 0.78072,0.50375 0.23079,0.29734 0.34815,0.70369 0.64337,0.95306 0.1018,0.25872 0.32377,0.50429 0.23176,0.7924 -0.002,0.1153 -0.0442,0.32909 -0.10684,0.45636 -0.0627,0.12746 -0.14057,0.17927 -0.28817,-0.003 -0.0368,-0.0225 -0.0704,0.0419 -0.10575,0.0393 l 0.64971,1.88536 1.58221,0.37044 1.13033,1.06698 0.55541,0.64356 0.0505,0.33277 -1.25922,0.44331 0.0483,3.22083 1.94672,-0.0898 0.23433,-0.0415 1.52974,-0.0911 0.0915,0.0214 0.74264,-0.0188 0.24144,-0.0719 0.0915,0.0214 0.1217,0.0285 0.20403,-0.0485 0.1217,0.0285 0.11289,-0.0698 0.0915,0.0214 0.21304,0.0499 -0.20314,-0.91418 -0.44529,-1.38806 -0.6978,-1.54352 -0.063,-0.14314 -0.7483,-1.87619 -0.39343,-1.47225 -0.0932,-0.15021 -0.0203,-0.3256 -0.0203,-0.3258 -0.10035,-0.11973 -0.0702,-0.11266 -0.0417,-0.23447 -0.12044,-0.44538 -0.14177,-0.35425 -0.1617,-0.67976 0.0285,-0.12171 -0.0702,-0.11266 -0.28292,-0.16247 -0.21294,-0.0499 -0.3956,-0.0926 z"
       id="VA-2" />
    <path
       inkscape:connector-curvature="0"
       d="m 292.3833,394.72129 -1.92303,3.68998 c 0.0408,0.26014 0.145,0.72956 0.32673,1.0715 0.0707,0.1321 0.15755,0.20922 0.25449,0.2843 0.0287,0.0221 0.0459,0.0673 0.0773,0.0822 0.13643,0.0656 0.31043,0.048 0.49908,-0.0756 0.22632,-0.0643 0.56137,0.0281 0.7912,0.18524 0.22969,0.15689 0.35815,0.38991 0.19217,0.6869 0.51195,0.35238 0.85935,0.81671 1.23254,1.31562 0.29487,0.0281 0.68686,0.0501 1.02553,0.14377 0.33847,0.0936 0.64105,0.24356 0.75936,0.59498 0.33715,0.0707 0.47704,0.34616 0.62338,0.62743 0.14623,0.28124 0.28214,0.58379 0.63953,0.6953 0.28865,0.23664 0.25112,0.55003 0.0724,0.78724 -0.17873,0.23741 -0.50416,0.3807 -0.79963,0.26222 -0.25825,0.0476 -0.003,0.28874 0.19752,0.52762 0.0998,0.1194 0.19955,0.2281 0.20967,0.338 0.0102,0.10972 -0.0758,0.22298 -0.29139,0.28477 -0.30254,0.23368 -0.64711,0.27358 -0.98208,0.21939 -0.33497,-0.0542 -0.67352,-0.21151 -0.9613,-0.41764 -0.65273,0.0524 -1.35362,0.32888 -1.86915,0.71779 -0.10452,0.24462 -0.0532,0.47705 0.0633,0.68888 0.11721,0.2118 0.2772,0.39129 0.4176,0.547 0.52003,0.045 1.00097,-0.42028 1.52786,-0.21989 0.15229,-0.39601 0.41016,-0.46524 0.66167,-0.3586 0.25156,0.10645 0.50857,0.37163 0.66101,0.604 0.54628,0.53563 1.1668,0.96869 1.92657,1.09297 0.23916,0.15675 0.45632,0.34347 0.6965,0.45198 0.24019,0.10851 0.50696,0.13112 0.79626,0.0259 0.67046,0.21931 1.25773,0.47503 1.73499,0.95188 0.31578,0.0379 0.64584,0.0191 0.94845,0.0615 0.30255,0.0426 0.5891,0.13998 0.83245,0.41962 0.18918,0.0711 0.3926,-0.1178 0.55808,-0.19029 l 0.44195,3.18461 2.66944,-1.94261 2.85052,-1.48292 0.55024,-2.21416 0.14852,-0.22199 -0.12171,-0.0285 10e-4,-0.41703 0.0712,-0.30418 0.12002,-0.10028 0.0214,-0.0913 -0.13258,-0.25576 -0.4461,-0.42529 -0.12002,0.10028 0.0203,0.3256 -0.0713,0.30437 -0.39815,0.74115 -0.35424,0.14178 -0.18247,-0.0427 -0.19166,-0.14121 -0.25441,-0.28418 -0.60715,-0.55945 -0.27588,-0.19297 -0.10034,-0.11973 -0.0702,-0.11266 0.0285,-0.12171 0.0214,-0.0913 0.13596,-0.0324 -0.40135,-0.47911 -1.62109,0.0698 c 0.2662,-0.68823 0.0433,-1.40748 0.20352,-2.10277 -0.0941,-0.6628 0.10517,-1.3664 -0.27957,-1.95901 -0.1925,-0.0766 -0.36039,-0.21143 -0.53542,-0.31793 -0.38851,-0.2365 -0.7749,-0.50752 -1.1781,-0.72517 -1.01052,-0.3544 -2.08659,-0.51349 -3.11269,-0.82501 -0.65079,-0.16162 -1.23879,-0.53705 -1.72775,-0.98234 -0.33422,-0.64036 -0.77044,-1.28898 -1.41185,-1.64641 -0.56942,-0.06 -1.1189,-0.34023 -1.62366,-0.60487 -0.58909,-0.17161 -1.15848,-0.33964 -1.49149,-0.89477 -0.24825,-0.0929 -0.48925,-0.19538 -0.68751,-0.35354 -0.19846,-0.15821 -0.36098,-0.37559 -0.35149,-0.69205 -0.12719,-0.11564 -0.27303,-0.12617 -0.43507,-0.19821 z m 19.70511,11.9313 -0.92262,0.65061 0.016,0.0678 0.0915,0.0214 0.0789,0.21116 -0.22142,0.39739 -0.11291,0.0699 -0.0926,0.3955 0.16306,0.2629 0.91155,0.6306 0.32433,0.397 0.0932,0.1502 0.18246,0.0427 0.23965,-0.20065 -0.89273,-1.39659 0.34514,-0.24014 0.42847,0.77427 0.61566,0.1121 0.21262,-0.49579 -0.42657,-0.64554 0.0136,-0.60656 -0.45062,0.27964 -0.59686,-0.87799 z m 4.23705,3.01408 c -0.0858,0.0289 -0.0969,0.27773 -0.2072,0.33663 -0.0973,0.18294 -0.30136,0.22646 -0.48307,0.14366 -0.19466,-0.0748 -0.41546,-0.10344 -0.62276,-0.0817 -0.17567,-0.008 -0.35879,0.23705 -0.25185,0.39047 0.12567,0.13746 0.38594,0.30758 0.17408,0.48998 -0.0101,0.14399 -0.0779,0.28885 -0.16012,0.41195 l 0.0461,0.0749 0.2616,0.25392 -0.0285,0.12171 -0.0915,-0.0214 0.0488,0.20389 0.35462,0.40409 0.0417,0.23437 0.19168,0.14111 0.15397,0.16443 0.21304,0.0499 0.0498,-0.21294 0.0214,-0.0912 0.2843,-0.25449 0.16274,-0.28274 0.12002,-0.10028 0.0214,-0.0913 0.14309,-0.0628 0.35423,-0.14168 0.23232,-0.17022 0.16448,-0.15417 0.21115,-0.0789 0.21295,0.0499 0.0915,0.0214 0.0932,0.1502 c 0.0226,-0.0967 0.0964,-0.19249 0.0339,-0.28086 -0.0649,-0.16793 -0.0988,-0.41825 0.0909,-0.52428 0.073,-0.17579 0.15059,-0.4151 -0.0311,-0.55294 -0.16321,-0.182 -0.32737,0.1226 -0.51335,0.13657 -0.20162,0.0645 -0.41326,-0.0396 -0.61379,0.0168 -0.15425,0.0438 -0.44302,0.14544 -0.41885,-0.13021 0.016,-0.19099 -0.0714,-0.39499 -0.23491,-0.50433 -0.0529,-0.0547 -0.0856,-0.0685 -0.1146,-0.0589 z m 2.5109,3.66902 c -0.11207,-0.039 -0.23933,-0.0385 -0.37935,-0.0247 -0.18439,-0.0288 -0.25132,0.0522 -0.26292,0.16316 -0.0116,0.11098 0.0312,0.23531 0.0809,0.33991 0.12634,0.24998 0.18323,0.7229 0.54117,0.70441 0.25022,-0.0751 0.31789,-0.53789 0.60793,-0.40323 0.26671,0.17594 0.29032,0.53878 0.22453,0.82286 -8.1e-4,0.19207 -0.10287,0.25075 -0.21619,0.23818 -0.11332,-0.0126 -0.23958,-0.0905 -0.30626,-0.20008 -0.31522,-0.13502 -0.52712,0.27785 -0.81376,0.32299 -0.16752,0.0979 -0.28241,0.0503 -0.37223,-0.0551 -0.0899,-0.10526 -0.15326,-0.26706 -0.12746,-0.41498 -0.13299,-0.22288 -0.19501,-0.49314 -0.27648,-0.73868 l -0.10033,-0.11982 -0.11291,0.0699 -0.72115,-0.0725 -0.0795,0.75168 -0.32563,0.02 c 0.0951,0.1485 0.0224,0.28584 -0.0624,0.40267 -0.0943,0.13104 -0.19263,0.27266 -0.13703,0.44929 0.19206,0.10967 0.44522,0.19565 0.5373,0.44675 0.12109,0.22945 0.28113,0.61796 0.004,0.80337 -0.17382,0.10371 -0.17468,0.24863 -0.12281,0.38854 0.0515,0.13982 0.14259,0.26919 0.23313,0.37553 0.18038,0.35692 0.62056,0.12671 0.92696,0.15285 0.31496,-0.0477 0.55757,-0.31971 0.89806,-0.27112 0.22592,0.0418 0.30312,-0.0568 0.33792,-0.20978 0.0348,-0.153 0.0265,-0.3544 0.13703,-0.4493 0.18597,-0.30123 0.63174,0.0719 0.74589,-0.30684 0.20676,-0.0308 0.39856,-0.2266 0.59569,-0.21362 0.0354,0.002 0.0679,-0.0621 0.10575,-0.0393 0.1474,0.1824 0.22533,0.13071 0.28816,0.003 0.0627,-0.12736 0.1045,-0.34105 0.10685,-0.45635 0.0921,-0.28809 -0.12994,-0.53378 -0.23176,-0.7924 -0.29525,-0.24927 -0.41258,-0.65572 -0.64337,-0.95307 -0.24739,-0.21156 -0.44299,-0.44428 -0.78072,-0.50374 -0.0903,-0.11338 -0.18705,-0.19159 -0.29914,-0.23046 z"
       id="VA-3" />
    <path
       inkscape:connector-curvature="0"
       d="m 309.9428,408.14013 -0.14852,0.22199 -0.55025,2.21416 -2.85051,1.48293 -2.66944,1.9426 -0.44195,-3.18461 c -0.16548,0.0725 -0.3689,0.26139 -0.55808,0.19029 -0.24352,-0.27937 -0.5299,-0.37703 -0.83246,-0.41962 -0.30258,-0.0425 -0.63266,-0.0237 -0.94844,-0.0615 -0.47726,-0.47685 -1.06453,-0.73256 -1.73499,-0.95188 -0.28928,0.10512 -0.55607,0.0826 -0.79626,-0.0259 -0.24019,-0.10851 -0.45734,-0.29523 -0.6965,-0.45198 -0.75966,-0.12435 -1.38029,-0.55734 -1.92657,-1.09297 -0.15232,-0.23245 -0.40945,-0.49755 -0.66101,-0.604 -0.25154,-0.10654 -0.509,-0.0373 -0.66167,0.35861 -0.52692,-0.2003 -1.00784,0.26492 -1.52786,0.21988 -0.14038,-0.1558 -0.3004,-0.3352 -0.4176,-0.547 -0.11708,-0.21187 -0.16833,-0.44437 -0.0633,-0.68887 0.51553,-0.38892 1.21642,-0.66542 1.86915,-0.7178 0.28788,0.20616 0.62633,0.36346 0.9613,0.41765 0.33497,0.0542 0.67954,0.0143 0.98207,-0.2194 0.21576,-0.0617 0.30155,-0.17507 0.2914,-0.28477 -0.0102,-0.10983 -0.10986,-0.2186 -0.20967,-0.338 -0.19984,-0.23874 -0.45577,-0.48004 -0.19752,-0.52762 0.29537,0.11846 0.6209,-0.0248 0.79963,-0.26221 0.1787,-0.23731 0.21621,-0.55061 -0.0724,-0.78725 -0.35737,-0.1116 -0.4933,-0.41406 -0.63954,-0.6953 -0.14633,-0.28126 -0.28613,-0.5571 -0.62338,-0.62743 -0.1182,-0.3514 -0.42089,-0.50135 -0.75936,-0.59498 -0.33856,-0.0936 -0.73066,-0.11571 -1.02552,-0.14377 -0.37322,-0.49881 -0.72059,-0.96323 -1.23254,-1.31562 0.16605,-0.29686 0.0378,-0.52994 -0.19217,-0.6869 -0.22975,-0.15701 -0.56488,-0.24954 -0.7912,-0.18524 -0.18878,0.12372 -0.36265,0.14124 -0.49908,0.0756 -0.0315,-0.0146 -0.0486,-0.06 -0.0773,-0.0822 -0.11113,0.0754 -0.22406,0.14062 -0.338,0.20967 -0.15254,0.35322 -0.42419,0.39489 -0.69916,0.38187 -0.27509,-0.013 -0.56635,-0.0929 -0.81772,0.0653 -0.56616,0.28052 -1.30326,0.37785 -1.69175,0.91986 -0.17746,0.29388 -0.44806,0.29728 -0.73865,0.27639 -0.29069,-0.0209 -0.61652,-0.0755 -0.85531,0.0885 -0.41505,0.4221 -0.94064,0.14509 -1.40422,0.37743 -0.18968,0.1649 -0.39627,0.41427 -0.62029,0.5929 -0.22393,0.17866 -0.45818,0.28167 -0.74765,0.17795 -0.33029,-5.1e-4 -0.43407,-0.13101 -0.46746,-0.33406 -0.0336,-0.20311 0.005,-0.47329 -0.0329,-0.68177 -0.1853,-0.38457 -0.023,-0.49106 0.22687,-0.55664 0.24954,-0.0656 0.58754,-0.0823 0.76193,-0.23889 0.35578,0.0741 0.47368,-0.0869 0.52579,-0.32613 0.0558,-0.23845 0.0359,-0.56993 0.11677,-0.77509 l 3.10847,-2.99523 c -0.14439,-0.043 -0.26875,-0.0962 -0.36701,-0.21431 -0.33227,-0.4197 -0.90702,-0.33058 -1.35502,-0.38145 -0.16228,-0.11317 -0.29522,-0.32619 -0.4622,-0.49336 -0.16699,-0.16716 -0.36484,-0.26833 -0.60855,-0.14248 -0.17693,0.10165 -0.50294,0.17896 -0.77111,0.14041 -0.26808,-0.0385 -0.48317,-0.19981 -0.39421,-0.50958 -0.2718,-0.36785 -0.71809,-0.67036 -1.13536,-0.90773 -0.4424,-0.12658 -0.51107,-0.80665 -0.96717,-0.80406 -0.11616,0.14956 -0.37509,0.26631 -0.57755,0.41035 -0.20247,0.14403 -0.36923,0.32067 -0.2269,0.55673 0.12438,0.17589 0.19853,0.44128 0.13855,0.6422 -0.0604,0.20082 -0.23003,0.31834 -0.52048,0.16704 -0.37738,-0.24724 -0.81332,-0.34171 -1.25666,-0.39056 -0.30047,0.0288 -0.49435,-0.1332 -0.66417,-0.31593 -0.0982,-0.10576 -0.21679,-0.16281 -0.32949,-0.23767 l -1.11725,5.86853 c -0.46403,0.10837 -0.86903,0.38533 -1.23925,0.76904 -0.37013,0.38373 -0.68398,0.88682 -0.98613,1.47021 l 0.0939,7.27538 c 0,0 -0.0299,-0.0216 0.19039,0.55809 0.1099,0.28989 0.35708,0.43743 0.60715,0.55945 0.25007,0.12202 0.49919,0.21167 0.69462,0.32316 0.12693,0.45317 0.52819,0.77779 0.99051,0.84166 0.31331,0.0256 0.53236,0.24368 0.76449,0.43576 0.23212,0.19207 0.4848,0.33627 0.83771,0.26032 0.50725,0.0615 0.89903,-0.28536 1.2806,-0.53464 0.26015,0.15221 0.41107,0.48673 0.59491,0.74904 0.18382,0.26242 0.39647,0.45476 0.77872,0.375 0.51805,-0.006 1.02993,-0.0786 1.528,-0.22006 0.51595,0.0646 1.04947,0.12925 1.56398,0.17371 0.33142,0.0198 0.59059,0.15995 0.81635,0.35156 0.22586,0.19164 0.40048,0.45385 0.61627,0.65781 0.34159,0.0399 0.53545,0.23752 0.68948,0.48239 0.15404,0.24486 0.26877,0.53125 0.51079,0.6973 0.22556,0.2004 0.52822,0.20964 0.80724,0.25319 l 0.16848,5.17466 -2.46754,4.7821 0.0915,0.0214 0.33277,-0.0505 0.2344,-0.0414 1.47079,0.0234 0.65842,-0.0706 1.07734,0.0598 0.21096,-0.079 0.12171,0.0285 0.20405,-0.0486 1.73557,-0.0108 0.51533,-0.008 1.43141,-0.0821 0.96277,8e-4 1.28835,-0.0194 0.41687,0.001 0.98405,-0.0906 0.62993,0.0512 0.42409,-0.0291 0.3469,-0.11125 0.45457,-0.022 0.18247,0.0427 0.21304,0.0499 0.65131,-0.0402 0.54571,-6.1e-4 0.0915,0.0214 0.0214,-0.0912 0.30427,0.0712 0.32563,-0.02 1.28835,-0.0194 2.03806,-0.0684 0.14309,-0.0628 -0.0719,-0.24143 0.12171,0.0285 0.32553,-0.02 2.12941,-0.0471 0.53857,0.0299 0.65843,-0.0706 0.0915,0.0214 0.23433,-0.0415 0.5458,-5.9e-4 0.98394,-0.0905 0.83397,0.003 1.2883,-0.0192 0.78013,-0.0421 1.16662,-0.0478 0.6584,-0.0705 1.73559,-0.0109 0.20402,-0.0485 1.52978,-0.0913 1.70529,-0.0179 0.98396,-0.0906 0.96277,8e-4 0.65131,-0.0402 -0.0483,-3.22083 1.25922,-0.44331 -0.0505,-0.33277 -0.55541,-0.64356 -1.13033,-1.06697 -1.58221,-0.37045 -0.64971,-1.88536 c -0.19711,-0.0131 -0.38893,0.18286 -0.59569,0.21363 -0.11434,0.37871 -0.55992,0.006 -0.74589,0.30684 -0.11056,0.095 -0.10223,0.2963 -0.13703,0.44929 -0.0348,0.153 -0.11229,0.25153 -0.33792,0.20979 -0.34041,-0.0485 -0.5831,0.22346 -0.89805,0.27111 -0.30651,-0.0262 -0.74658,0.20408 -0.92697,-0.15284 -0.0905,-0.10634 -0.18135,-0.23565 -0.23313,-0.37553 -0.0515,-0.13982 -0.0507,-0.28476 0.12281,-0.38854 0.27668,-0.18551 0.1169,-0.57386 -0.004,-0.80337 -0.0921,-0.25111 -0.34525,-0.33708 -0.53731,-0.44675 -0.0552,-0.17654 0.0427,-0.31825 0.13704,-0.44929 0.0881,-0.12193 0.14541,-0.25261 0.0323,-0.40974 l -0.0613,-0.0144 -0.51721,-0.1211 -0.21304,-0.0499 -0.11289,0.0698 -0.16278,0.28294 0.0417,0.23437 -0.11288,0.0698 -0.33287,0.0504 -0.16308,-0.2628 -0.0702,-0.11266 0.0285,-0.12171 -0.12041,-0.44548 -0.0203,-0.3257 -0.0705,-0.6584 -0.32436,-0.3969 -0.30418,-0.0712 -0.19167,-0.14111 -0.063,-0.14314 0.0214,-0.0913 -0.65901,-0.47524 -0.30418,-0.0712 -0.0702,-0.11266 -0.23301,-0.37561 -0.27577,-0.19295 -0.49586,-0.21233 -0.84106,0.0277 -0.1217,-0.0285 -0.0915,-0.0214 -0.063,-0.14314 -0.12171,-0.0285 -0.13994,-0.22523 0.0285,-0.12171 -0.0789,-0.21116 0.0712,-0.30417 0.12112,-0.51731 0.14306,-0.0627 -0.0932,-0.15021 0.0428,-0.18266 -0.18308,-0.58843 -0.0416,-0.23446 -0.0702,-0.11266 z"
       id="VA-4" />
    <path
       inkscape:connector-curvature="0"
       d="m 285.59466,425.77252 2.46754,-4.7821 -0.16848,-5.17466 c -0.27902,-0.0436 -0.58168,-0.0528 -0.80724,-0.25319 -0.24202,-0.16605 -0.35675,-0.45244 -0.51078,-0.69731 -0.15404,-0.24486 -0.3479,-0.44245 -0.68949,-0.48238 -0.21579,-0.20396 -0.39041,-0.46617 -0.61627,-0.65781 -0.22576,-0.19161 -0.48493,-0.33178 -0.81635,-0.35156 -0.51451,-0.0445 -1.04803,-0.10909 -1.56398,-0.17371 -0.49807,0.14148 -1.00995,0.21431 -1.528,0.22006 -0.38225,0.0798 -0.5949,-0.11258 -0.77872,-0.375 -0.18384,-0.26231 -0.33476,-0.59683 -0.59491,-0.74904 -0.38157,0.24928 -0.77335,0.5961 -1.2806,0.53464 -0.3529,0.076 -0.60558,-0.0682 -0.83771,-0.26032 -0.23213,-0.19208 -0.45118,-0.41016 -0.76449,-0.43576 -0.46231,-0.0639 -0.86358,-0.38849 -0.99051,-0.84166 -0.19543,-0.11149 -0.44455,-0.20114 -0.69462,-0.32316 -0.25007,-0.12202 -0.49724,-0.26956 -0.60715,-0.55945 -0.21987,-0.57958 -0.19039,-0.55809 -0.19039,-0.55809 l -0.0939,-7.27538 c 0.30215,-0.58339 0.61601,-1.08648 0.98613,-1.47021 0.37022,-0.38371 0.77522,-0.66067 1.23925,-0.76904 l 1.11725,-5.86853 c -0.0817,-0.0546 -0.14286,-0.15135 -0.25253,-0.15536 -0.22421,0.0904 -0.40138,-0.0657 -0.45834,-0.23569 -0.0567,-0.17001 -0.003,-0.34436 0.29142,-0.28487 0.23164,-0.18486 0.22124,-0.3962 0.10518,-0.58523 -0.11638,-0.18901 -0.32799,-0.34629 -0.50695,-0.43954 -0.2216,-0.3638 -0.58206,-0.68021 -1.01177,-0.75042 l 2.01893,-4.37371 -5.54994,-2.61527 2.16459,-3.7619 -3.62851,-1.36308 1.6542,-2.40492 c 0.0487,0.0114 0.10351,0.0233 0.15219,0.0356 0.32211,0.12399 0.45566,0.50199 0.69327,0.73992 0.13773,0.32989 0.57106,0.4184 0.80543,0.12449 0.21681,-0.26146 0.56169,-0.38252 0.76331,-0.65586 0.22468,-0.18228 0.41863,-0.48997 0.74389,-0.43558 0.30292,-0.1274 0.6594,-0.2401 0.83324,-0.54305 0.0888,-0.32205 0.33537,-0.3818 0.59894,-0.50167 0.0631,-0.33103 -0.2257,-0.58978 -0.45893,-0.7815 -0.1432,-0.26441 -0.5459,-0.57191 -0.36968,-0.88898 0.28241,-0.10119 0.51867,-0.28209 0.64354,-0.55532 0.0727,-0.3105 -0.3886,-0.40105 -0.48742,-0.65979 -0.1003,-0.29801 -0.23447,-0.60406 -0.4447,-0.84225 l -2.30377,-2.49725 1.39955,0.32769 1.77087,-2.21718 3.1641,-2.82179 c 0.44239,-0.15503 0.68997,0.0342 0.88431,0.33543 0.19433,0.30133 0.34552,0.69784 0.58966,0.90834 0.27855,0.28726 0.22692,0.67356 0.16763,1.06629 -0.0591,0.39287 -0.1479,0.7984 0.12289,1.12011 0.31126,0.50197 0.7519,0.89661 1.17168,1.30137 0.0496,-0.0146 0.0935,-0.0925 0.14309,-0.0628 0.2167,0.1632 0.49937,0.039 0.69592,-0.0938 0.16238,-0.0496 0.21765,-0.2019 0.20719,-0.33663 -0.0106,-0.13476 -0.084,-0.2414 -0.26143,-0.25378 -0.30344,-0.0581 -0.70017,-0.2082 -0.73609,-0.55749 0.0409,-0.29741 0.0933,-0.60023 0.14624,-0.89657 -0.0211,-0.17748 0.0853,-0.22826 0.20917,-0.20778 0.12383,0.0208 0.26703,0.11716 0.34375,0.17682 0.25235,0.21314 0.38255,0.52647 0.55018,0.80276 0.18515,0.21682 0.25703,0.58972 0.5929,0.6203 0.25507,0.11384 0.27015,-0.12953 0.13259,-0.28991 -0.12352,-0.26905 0.087,-0.48988 0.34828,-0.52821 0.15955,-0.11866 0.10768,-0.20988 0.0109,-0.31851 -0.0974,-0.10866 -0.25658,-0.24073 -0.27065,-0.35217 0.0714,-0.30085 0.3388,-0.49161 0.57369,-0.668 0.3267,-0.0943 0.1953,-0.49635 0.23848,-0.7466 0.0582,-0.43283 0.19887,-0.85333 0.29921,-1.27794 0.0429,-0.32805 0.46263,-0.26121 0.67978,-0.16179 l -1.12241,-2.06012 0,0 -0.86414,-1.51827 0.41655,-1.50713 0.35938,-0.301 0.46554,-1.30318 -6.69783,-1.82495 c -0.44652,0.29857 -0.76941,0.67179 -1.0061,1.14448 l 0,0 c -0.0327,0.065 -0.10641,0.0904 -0.13427,0.16113 -0.33537,0.17434 -0.62128,0.50281 -0.84362,0.86157 -0.22236,0.35886 -0.37284,0.74451 -0.40855,1.05977 0.15384,0.28826 -0.18017,0.40982 -0.57569,0.53926 -0.39494,0.12958 -0.85031,0.2751 -0.91548,0.62013 -0.18057,0.40716 -0.48197,0.73467 -0.73421,1.07986 -0.25221,0.34509 -0.45177,0.71052 -0.4979,1.16723 -0.31323,0.18722 -0.63936,0.40018 -0.96218,0.545 -0.32269,0.14475 -0.66057,0.20696 -1.02868,0.1443 -0.32579,0.30537 -0.58859,0.68649 -0.73418,1.07976 -0.14549,0.39329 -0.16024,0.79408 0.0335,1.22745 0.007,0.41036 -0.006,0.83255 -0.11852,1.19186 -0.11289,0.35932 -0.32448,0.67346 -0.77566,0.84543 -0.18353,0.34125 -0.24314,0.72702 -0.37817,1.06689 -0.13504,0.33986 -0.36286,0.61148 -0.81515,0.73995 -0.40348,0.23665 -0.52416,0.63585 -0.59833,1.04738 -0.0738,0.41162 -0.0792,0.8528 -0.22362,1.23145 -0.38501,0.96011 -1.20278,1.60116 -1.44661,2.61405 -0.14267,0.40319 -0.37633,0.72695 -0.67523,0.96529 -0.29898,0.23821 -0.6798,0.4132 -1.07675,0.48603 l -0.0889,0.10757 -0.0855,0.36513 c -0.18827,0.21371 -0.58135,0.20199 -0.86757,0.27825 -0.14317,0.0382 -0.26458,0.11409 -0.30755,0.2169 -0.0426,0.1029 0.003,0.2494 0.14369,0.48297 0.14114,0.29905 -0.085,0.41135 -0.34831,0.52831 -0.26289,0.11695 -0.57887,0.22249 -0.65979,0.48742 -0.40544,0.0783 -0.6371,0.33786 -0.79375,0.64853 -0.15696,0.3107 -0.22818,0.67629 -0.3026,1.02049 -0.22819,0.26793 -0.40676,0.59719 -0.50888,0.93994 -0.10183,0.34281 -0.12613,0.70542 -0.0221,1.0539 0.20302,0.23086 0.27203,0.43179 0.24401,0.6028 -0.0277,0.17108 -0.16052,0.31274 -0.32693,0.43698 -0.33269,0.2484 -0.86063,0.41657 -1.18937,0.556 -0.33555,0.1593 -0.61059,0.42777 -0.81512,0.73986 -0.20456,0.31219 -0.33848,0.66792 -0.37106,1.0365 -0.0604,0.30629 -0.0821,0.65319 -0.21372,0.91282 -0.13166,0.25962 -0.37026,0.42858 -0.76725,0.39807 -0.23367,0.3216 -0.47678,0.78703 -0.80218,1.09599 -0.3254,0.30895 -0.72695,0.47293 -1.20936,0.23037 -0.26203,-0.0946 -0.49493,-0.28822 -0.71788,-0.36065 -0.22306,-0.0725 -0.44113,-0.0179 -0.60082,0.37285 -0.24535,0.0263 -0.61822,0.0616 -0.93745,0.16565 -0.31933,0.10404 -0.56482,0.25988 -0.54522,0.5464 0.28278,0.26391 0.0755,0.75961 -0.0435,1.14523 -0.0595,0.19271 -0.0997,0.36447 -0.0455,0.47072 0.0532,0.10603 0.18566,0.14227 0.49397,0.0835 0.15305,0.16616 0.30308,0.36408 0.48545,0.53095 0.18236,0.16686 0.39111,0.30129 0.70889,0.2622 0.20327,0.23195 0.14721,0.5938 0.12804,0.96079 -0.0192,0.367 0.007,0.73794 0.38583,0.95685 0.64724,0.54131 1.51603,0.76013 2.2237,1.19469 l 1.68941,3.47668 c 0.13581,0.37668 0.0963,0.87346 -0.23341,1.13292 -0.28204,0.14482 -0.70525,0.0929 -0.84226,0.4447 -0.13025,0.36769 -0.4477,0.62253 -0.76852,0.81497 -0.30815,0.24623 -0.73431,0.43064 -0.86689,0.82407 -0.0122,0.28452 -0.1641,0.31047 -0.35224,0.27052 -0.18845,-0.04 -0.40115,-0.15842 -0.55483,-0.0978 -0.22175,0.0422 -0.37045,0.17547 -0.43448,0.3476 -0.0639,0.17216 -0.0519,0.40567 0.024,0.58332 -0.1874,0.37054 -0.71701,0.0409 -0.87273,0.43757 -0.25416,0.29636 -0.63684,0.54117 -1.04628,0.49317 -0.4082,0.0555 -0.55297,0.56327 -0.95299,0.64349 -0.40659,-0.13648 -0.81727,-0.26602 -1.21897,-0.41378 l -1.48163,3.31194 c -0.65705,-0.37085 -0.97105,-1.20109 -1.56391,-1.68211 -0.12333,-0.39882 0.009,-0.75092 0.2422,-1.03443 0.23278,-0.2836 0.58062,-0.49014 0.93874,-0.58263 0.22485,-0.12956 0.28759,-0.31155 0.23569,-0.45834 -0.0519,-0.1468 -0.22224,-0.27686 -0.44409,-0.29655 0.0401,-0.26359 0.0713,-0.58535 -0.004,-0.80335 -0.0762,-0.21821 -0.26418,-0.33238 -0.64613,-0.11924 -0.76749,-0.0532 -1.29056,0.58685 -1.9675,0.72681 -0.63193,0.0412 -1.24934,-0.10374 -1.8755,-0.2144 -0.20601,-0.0808 -0.34813,-0.27213 -0.48359,-0.40203 -0.13543,-0.12999 -0.27382,-0.19033 -0.53144,-0.0603 -0.0166,-0.29331 -0.15868,-0.69744 -0.36258,-0.91927 -0.10189,-0.11095 -0.21332,-0.18377 -0.34374,-0.17682 -0.13032,0.007 -0.27352,0.0953 -0.42014,0.28678 -0.24766,0.24889 -0.30098,0.65822 -0.41764,0.9613 -0.0581,0.15165 -0.12194,0.28829 -0.24471,0.35999 -0.12249,0.0718 -0.29465,0.071 -0.54581,5.9e-4 -0.16902,0.21175 0.008,0.44736 0.13855,0.6422 0.0655,0.0976 0.11754,0.18404 0.10221,0.24864 -0.0153,0.0646 -0.087,0.11284 -0.28617,0.12557 -0.39008,-0.032 -0.81633,-0.0687 -1.21322,-0.0273 -0.39689,0.0414 -0.78454,0.1653 -1.12328,0.41105 -0.16385,0.29625 -0.47929,0.47402 -0.74003,0.69325 -0.26074,0.21923 -0.4621,0.484 -0.40339,0.90045 -0.0413,0.33861 0.21982,0.72449 0.35721,1.07864 0.0687,0.17703 0.11582,0.35238 0.0758,0.49922 -0.0444,0.14572 -0.18339,0.25378 -0.43446,0.34751 -0.39499,0.12628 -0.58362,0.42484 -0.7543,0.7542 -0.17058,0.32939 -0.31973,0.71288 -0.5536,0.99366 -0.24633,0.0546 -0.51973,0.24805 -0.79765,0.39106 -0.2779,0.14291 -0.56858,0.23733 -0.78011,0.042 0.0333,-0.44934 -0.19227,-0.63516 -0.51079,-0.69731 -0.31842,-0.0621 -0.72462,-0.009 -1.02354,-0.0149 -0.27104,0.0469 -0.51134,0.1736 -0.76902,0.26918 -0.11528,0.17657 -0.23736,0.36284 -0.37878,0.52117 -0.19371,0.21675 -0.35155,0.42197 -0.33741,0.75548 0.12951,0.58431 -0.1387,1.16043 0.0109,1.73569 0.14516,0.26476 0.24224,0.51734 0.26201,0.79958 0.0202,0.28224 -0.0464,0.57125 -0.22965,0.84489 -0.33141,0.0552 -0.38339,0.26098 -0.40201,0.48349 -0.0183,0.22271 0.003,0.48504 -0.1798,0.63195 -0.29367,-0.005 -0.53096,0.0811 -0.70116,0.25312 -0.17018,0.17194 -0.28452,0.39885 -0.37678,0.64992 -0.30908,0.4577 -0.44211,1.15308 -0.99522,1.37175 l 3.77296,0.88337 -0.007,0.57619 1.14646,1.13494 0.39518,-1.4159 4.51935,1.12232 c 0.33378,-0.12233 0.64186,-0.40514 1.01978,-0.24271 0.10763,0.0456 0.25223,-0.0671 0.35403,-0.14173 0.10171,-0.0747 0.15437,-0.0873 0.12369,0.15734 -0.0852,0.30696 -0.0655,0.61322 0.0135,0.90182 -0.26481,-0.0599 -0.5618,0.0628 -0.47911,0.40135 -0.0134,0.30733 -0.10823,0.61142 -0.26697,0.8683 -0.15329,0.14015 -0.37534,0.20729 -0.58853,0.18305 -0.21321,-0.0241 -0.41772,-0.1245 -0.49783,-0.34117 -0.0453,-0.11362 -0.2146,-0.25555 -0.37613,-0.31268 -0.1615,-0.0572 -0.31467,-0.0487 -0.35412,0.1417 -0.0444,0.3388 -0.26353,0.71321 -0.083,1.03976 0.15426,0.19695 0.50074,0.14846 0.39423,0.50949 -0.10143,0.36303 0.17511,0.64089 0.32495,0.9427 0.19504,0.2825 0.0954,0.63105 0.006,0.93219 -0.13315,0.32305 -0.54178,0.43258 -0.81701,0.61104 -0.32675,0.23798 -0.33954,0.65977 -0.43191,1.02225 -0.006,0.12481 -0.0674,0.24397 -0.0855,0.36513 l 0.28814,0.003 0.5082,0.0228 0.1217,0.0285 0.21097,-0.079 0.44746,0.008 0.50821,0.0227 0.24144,-0.0719 0.0915,0.0214 0.75161,0.0797 0.11288,-0.0698 0.39551,0.0926 1.10588,-0.0621 0.84087,-0.0277 0.53867,0.0299 1.92538,10e-4 0.0915,0.0214 0.14307,-0.0627 0.30437,0.0713 0.0915,0.0214 0.56717,-0.0918 0.0915,0.0214 0.41699,10e-4 0.12171,0.0285 0.96259,6.6e-4 0.20402,-0.0485 0.62991,0.0512 0.45438,-0.022 1.79654,0.003 0.32573,-0.02 0.65842,-0.0706 0.21294,0.0499 0.11291,-0.0699 0.45457,-0.022 1.1381,0.074 0.24144,-0.0718 1.59262,0.0518 1.72657,-0.10927 0.21304,0.0499 0.0915,0.0214 0.54571,-6.1e-4 0.55993,-0.0614 0.0915,0.0214 0.33276,-0.0505 0.62993,0.0512 0.53869,0.0298 1.1666,-0.0477 0.24143,-0.0719 0.30428,0.0712 0.1129,-0.0699 0.21295,0.0499 0.53869,0.0298 1.49926,-0.0982 0.12171,0.0285 0.20405,-0.0486 0.62992,0.0512 0.12171,0.0285 0.33267,-0.0505 0.20402,-0.0485 1.28833,-0.0193 0.21294,0.0499 0.53869,0.0298 0.6584,-0.0705 0.0915,0.0214 0.11288,-0.0698 0.30437,0.0713 0.33267,-0.0505 0.14309,-0.0628 1.16662,-0.0478 1.41003,0.009 0.20405,-0.0486 1.08428,0.0292 0.41696,0.001 0.33277,-0.0505 0.74264,-0.0188 1.50124,0.0307 0.12002,-0.10028 0.30437,0.0713 0.23433,-0.0415 1.37956,0.002 0.14307,-0.0627 3.09198,-0.0464 0.32575,-0.0201 0.12171,0.0285 0.20385,-0.0486 0.12171,0.0285 2.27247,-0.10984 z"
       id="VA-5" />
    <path
       inkscape:connector-curvature="0"
       d="m 233.54895,386.78754 0.66424,0.31605 0.72778,-0.50365 0.56382,0.1962 0.92518,0.024 0.7372,1.64898 2.09043,0.3931 1.27021,-0.21612 1.10181,1.18878 0.78468,-0.74709 1.05261,0.43912 -1.25682,2.62634 -3.28999,-1.02706 -0.92012,1.32514 -0.86362,0.53594 -0.44616,1.0831 -0.63515,0.10805 -1.91644,1.60539 1.47004,2.49451 -0.94913,0.90115 -0.80107,2.18749 -0.55609,0.31913 0.14368,0.48297 2.59596,1.2497 c -0.0608,0.15009 -0.24011,0.0759 -0.36126,0.17218 -0.0968,0.20268 -0.19224,0.43944 -0.33929,0.62665 -0.14725,0.18716 -0.33598,0.31993 -0.59371,0.34247 -0.45314,0.0141 -0.55569,0.22793 -0.53085,0.48547 0.0249,0.25757 0.17364,0.57523 0.25491,0.82996 -4.6e-4,0.33533 -0.23886,0.49601 -0.50761,0.52306 -0.26864,0.0271 -0.58407,-0.0908 -0.76251,-0.30691 -0.32582,0.29848 -0.25906,0.96608 -0.73953,1.23904 -0.0937,0.17668 -0.4595,0.34739 -0.69721,0.51081 -0.11875,0.0817 -0.20055,0.15516 -0.21629,0.23816 -0.0192,0.0822 0.0439,0.1897 0.22402,0.27717 0.31732,0.39011 0.99696,0.27409 1.22996,0.64097 -0.0276,0.0742 -0.0984,0.12649 -0.14138,0.19151 0.25767,-0.0956 0.49797,-0.22223 0.76901,-0.26918 0.29893,0.006 0.70513,-0.0472 1.02355,0.0149 0.31852,0.0621 0.54439,0.24803 0.51079,0.6973 0.21153,0.19537 0.50221,0.10095 0.78011,-0.042 0.27792,-0.14301 0.55132,-0.33648 0.79765,-0.39106 0.23386,-0.28078 0.38292,-0.6643 0.5536,-0.99366 0.17058,-0.32939 0.35931,-0.62792 0.75429,-0.7542 0.25108,-0.0937 0.39436,-0.20079 0.43446,-0.34751 0.0444,-0.14582 -0.007,-0.32212 -0.0758,-0.49922 -0.13739,-0.35415 -0.39869,-0.74008 -0.35722,-1.07864 -0.0587,-0.41645 0.14305,-0.68113 0.4034,-0.90045 0.26074,-0.21923 0.57608,-0.39703 0.74002,-0.69325 0.33875,-0.24575 0.7264,-0.36964 1.12329,-0.41105 0.39689,-0.0414 0.82314,-0.005 1.21322,0.0273 0.19934,-0.0127 0.27083,-0.061 0.28616,-0.12557 0.0153,-0.0646 -0.0375,-0.15123 -0.1022,-0.24864 -0.13032,-0.19484 -0.30757,-0.43046 -0.13855,-0.6422 0.25116,0.0704 0.42332,0.0712 0.5458,-5.9e-4 0.12239,-0.0718 0.18632,-0.20841 0.24471,-0.35999 0.11618,-0.3032 0.16697,-0.71312 0.41765,-0.9613 0.14652,-0.19155 0.28981,-0.2798 0.42014,-0.28678 0.13041,-0.007 0.24185,0.0659 0.34374,0.17682 0.2039,0.22182 0.3462,0.62601 0.36258,0.91926 0.25762,-0.12999 0.39601,-0.0696 0.53144,0.0603 0.13545,0.1299 0.27758,0.32124 0.48358,0.40203 0.62617,0.11066 1.24357,0.25563 1.87551,0.2144 0.67693,-0.13996 1.20001,-0.77997 1.9675,-0.72681 0.38195,-0.21314 0.56997,-0.099 0.64613,0.11924 0.0761,0.21809 0.0446,0.53978 0.004,0.80335 0.22185,0.0197 0.39228,0.14977 0.44409,0.29655 0.0519,0.14679 -0.0112,0.32869 -0.2357,0.45833 -0.35811,0.0925 -0.70595,0.29904 -0.93874,0.58264 -0.23275,0.28351 -0.36552,0.63561 -0.24219,1.03443 0.59285,0.48102 0.90685,1.31126 1.56391,1.68211 l 1.48163,-3.31194 c 0.40169,0.14776 0.81238,0.2773 1.21897,0.41378 0.40002,-0.0802 0.54479,-0.58799 0.95299,-0.64349 0.40944,0.048 0.79212,-0.19681 1.04628,-0.49317 0.15552,-0.39669 0.68523,-0.0671 0.87273,-0.43757 -0.0757,-0.17763 -0.0879,-0.41116 -0.0239,-0.58332 0.0639,-0.17216 0.21273,-0.30545 0.43448,-0.3476 0.15367,-0.0607 0.36636,0.0578 0.55482,0.0978 0.18844,0.04 0.33968,0.0139 0.35225,-0.27052 0.13219,-0.39353 0.55874,-0.57784 0.86689,-0.82408 0.32081,-0.19243 0.63788,-0.44736 0.76852,-0.81496 0.13682,-0.35187 0.56021,-0.29988 0.84225,-0.4447 0.32954,-0.25951 0.36903,-0.75629 0.23342,-1.13292 l -1.68941,-3.47668 c -0.70767,-0.43457 -1.57646,-0.65338 -2.22371,-1.19469 -0.37876,-0.21891 -0.40489,-0.58983 -0.38582,-0.95685 0.0192,-0.36699 0.0751,-0.72886 -0.12805,-0.96079 -0.31777,0.0391 -0.52652,-0.0953 -0.70889,-0.26221 -0.18236,-0.16686 -0.33239,-0.36478 -0.48544,-0.53094 -0.30831,0.0588 -0.44074,0.0225 -0.49397,-0.0835 -0.0532,-0.10603 -0.014,-0.27801 0.0455,-0.47072 0.11904,-0.38562 0.3263,-0.88132 0.0435,-1.14524 -0.0192,-0.28642 0.22589,-0.44235 0.54522,-0.54639 0.31923,-0.10407 0.6921,-0.13939 0.93745,-0.16565 0.1593,-0.39088 0.37776,-0.44531 0.60081,-0.37285 0.22296,0.0724 0.45586,0.26602 0.71789,0.36065 0.48241,0.24256 0.88396,0.0786 1.20936,-0.23037 0.3254,-0.30896 0.56851,-0.77439 0.80217,-1.09599 0.397,0.0305 0.6358,-0.13841 0.76725,-0.39808 0.13166,-0.25962 0.15331,-0.60652 0.21372,-0.91281 0.0329,-0.36851 0.16943,-0.72363 0.37106,-1.0365 0.20454,-0.31209 0.47958,-0.58056 0.81513,-0.73986 0.32874,-0.13943 0.85668,-0.30761 1.18937,-0.556 0.16631,-0.12426 0.2989,-0.26597 0.32693,-0.43698 0.0277,-0.17108 -0.041,-0.37194 -0.24401,-0.6028 -0.10361,-0.34839 -0.0801,-0.71118 0.0221,-1.0539 0.10183,-0.34282 0.28068,-0.67201 0.50887,-0.93995 0.0705,-0.3451 0.14662,-0.70956 0.30261,-1.02048 0.15694,-0.3106 0.38831,-0.57019 0.79374,-0.64853 0.0805,-0.26502 0.39691,-0.37047 0.65979,-0.48742 0.26281,-0.11708 0.48946,-0.22926 0.34831,-0.52831 -0.14035,-0.23355 -0.18665,-0.38016 -0.14368,-0.48297 0.0426,-0.10291 0.16438,-0.17874 0.30755,-0.21691 0.28622,-0.0763 0.6793,-0.0645 0.86757,-0.27824 l 0.0855,-0.36513 0.0889,-0.10757 c 0.39696,-0.0728 0.77778,-0.24782 1.07676,-0.48604 0.2989,-0.23833 0.53295,-0.562 0.67523,-0.96528 0.24723,-1.01209 1.0616,-1.65394 1.44661,-2.61405 0.1451,-0.37849 0.14984,-0.81983 0.22362,-1.23145 0.0738,-0.41162 0.19008,-0.81184 0.59832,-1.04738 0.4523,-0.12847 0.68002,-0.40011 0.81515,-0.73996 0.13504,-0.33986 0.19455,-0.72565 0.37818,-1.06688 0.45118,-0.17197 0.66267,-0.48613 0.77565,-0.84543 0.11289,-0.35933 0.12546,-0.78148 0.11853,-1.19187 -0.1939,-0.43341 -0.17914,-0.8342 -0.0335,-1.22745 0.14549,-0.39328 0.40839,-0.77439 0.73418,-1.07976 0.36811,0.0627 0.70599,4.6e-4 1.02868,-0.14429 0.32282,-0.14482 0.64895,-0.35778 0.96218,-0.545 0.0463,-0.45667 0.24589,-0.8221 0.4979,-1.16723 0.25224,-0.34519 0.55325,-0.6728 0.73421,-1.07986 0.0654,-0.34498 0.52053,-0.49055 0.91547,-0.62013 0.39504,-0.12956 0.72953,-0.251 0.5757,-0.53926 0.0358,-0.31524 0.18667,-0.7008 0.40855,-1.05977 0.22234,-0.35876 0.50825,-0.68723 0.84362,-0.86157 0.0269,-0.0709 0.1016,-0.0962 0.13427,-0.16113 l -1.1698,-1.17255 -0.67069,0.26025 -1.34464,-0.69996 -0.26418,0.58005 -3.31727,0.18606 c -0.0381,-0.15301 -0.10816,-0.2943 -0.1884,-0.42925 -0.12565,-0.2148 -0.36104,-0.41 -0.38901,-0.66869 0.0461,-0.37651 -0.18356,-0.72236 -0.1604,-1.09674 0.0244,-0.20524 -0.11265,-0.46944 -0.34772,-0.43441 -0.22267,0.0768 -0.42007,0.22856 -0.64731,0.29767 -0.2166,0.057 -0.48801,-0.0791 -0.6889,0.0634 -0.11296,0.22805 -0.25238,0.41951 -0.34642,0.65713 -0.12573,0.44926 -0.20442,0.91694 -0.32057,1.36917 l -2.11426,-0.9765 -0.0143,0.0609 -0.13425,0.16104 -0.0285,0.12171 -0.1129,0.0699 -0.28419,0.25442 0.19159,0.14108 0.0915,0.0214 0.063,0.14314 0.10032,0.11983 -0.0214,0.0913 -0.1502,0.0932 -0.0214,0.0912 -0.14139,0.19152 -0.0915,-0.0214 -0.19297,0.27587 -0.0214,0.0912 -0.0214,0.0912 -0.14141,0.19161 -0.0499,0.21304 -0.11288,0.0698 -0.0214,0.0912 -0.19168,-0.14111 -0.0702,-0.11266 -0.1217,-0.0285 -0.0915,-0.0214 0.0285,-0.12171 -0.0915,-0.0214 -0.12171,-0.0285 -0.0285,0.12171 -0.0214,0.0912 -0.16277,0.28284 -0.21304,-0.0499 -0.1414,0.19161 -0.0427,0.18247 -0.0499,0.21304 -0.14141,0.1916 -0.0427,0.18247 -0.17158,0.18454 -0.11291,0.0699 -0.0915,-0.0214 -0.1502,0.0932 -0.13425,0.16103 -0.12002,0.10028 -0.16447,0.15417 -0.0915,-0.0214 -0.0285,0.12171 -0.0915,-0.0214 0.0285,-0.12171 0.0713,-0.30437 -0.12171,-0.0285 0.0214,-0.0912 0.0214,-0.0912 0.0499,-0.21304 -0.11291,0.0699 -0.12002,0.10028 -0.2344,0.0414 -0.30566,0.34572 -0.0499,0.21294 -0.0214,0.0912 -0.0285,0.12171 -0.37544,0.23315 -0.0915,-0.0214 -0.13425,0.16104 -0.0285,0.12171 -0.0214,0.0913 -0.14309,0.0628 -0.0285,0.12171 -0.18412,0.37408 -0.0214,0.0913 -0.14138,0.19151 -0.0712,0.30427 -0.0712,0.30427 -0.17156,0.18445 -0.16279,0.28294 -0.32702,0.43695 -0.2625,0.70882 -0.0427,0.18247 -0.12002,0.10028 -0.63053,-0.59686 -2.14922,-1.78701 -0.0915,-0.0214 -0.0285,0.1217 -0.0214,0.0912 -0.0214,0.0912 -0.0499,0.21304 -0.0214,0.0913 -0.0285,0.12171 -0.11288,0.0698 -0.14307,0.0627 -0.16279,0.28294 0.063,0.14314 -0.0214,0.0912 -0.0499,0.21294 -0.11291,0.0699 -0.30427,-0.0712 -0.11291,0.0699 -0.0285,0.12171 -0.0214,0.0912 -0.0214,0.0912 0.0915,0.0214 -0.0285,0.12171 -0.0214,0.0913 -0.0915,-0.0214 -0.0214,0.0913 0.0417,0.23437 -0.11288,0.0698 -0.0285,0.12171 -0.25571,0.1328 0.063,0.14314 -0.11288,0.0698 -0.0214,0.0912 -0.0285,0.12171 -0.0214,0.0913 -0.14141,0.19161 -0.0214,0.0912 -0.0214,0.0912 -0.0998,0.42608 -0.0214,0.0912 0.0417,0.23437 0.0915,0.0214 0.12171,0.0285 -0.0214,0.0913 -0.0712,0.30428 -0.0499,0.21294 -0.0214,0.0913 -0.0214,0.0913 -0.35403,0.14172 -0.10035,-0.11973 -0.20402,0.0485 -0.14307,0.0627 -0.12002,0.10027 -0.0214,0.0913 -0.0214,0.0913 -0.0285,0.1217 -0.0214,0.0912 -0.0214,0.0912 -0.0915,-0.0214 -0.0713,0.30437 -0.17157,0.18444 -0.0499,0.21295 -0.0214,0.0913 0.12171,0.0285 -0.17159,0.18454 -0.0427,0.18247 0.12171,0.0285 -0.19297,0.27587 -0.0285,0.12171 -0.0214,0.0912 -0.11289,0.0698 -0.0285,0.12171 -0.0214,0.0913 -0.14141,0.19161 -0.0427,0.18247 -0.17159,0.18454 -0.0214,0.0913 -0.14138,0.19151 -0.0499,0.21294 -0.13429,0.16124 -0.0997,0.42588 0.16108,0.13405 -0.0214,0.0913 -0.12002,0.10028 -0.0214,0.0912 -0.0214,0.0912 -0.12002,0.10028 -0.0214,0.0913 -0.0214,0.0913 -0.0285,0.12171 -0.12171,-0.0285 -0.11289,0.0698 -0.0214,0.0912 -0.12002,0.10028 -0.0214,0.0913 -0.0499,0.21304 -0.0214,0.0912 -0.12171,-0.0285 -0.0915,-0.0214 -0.14138,0.19151 -0.0214,0.0913 -0.0214,0.0913 -0.12171,-0.0285 -0.0285,0.12171 -0.11288,0.0698 -0.14138,0.19151 -0.0214,0.0913 0.0701,0.11276 -0.0285,0.12171 -0.0915,-0.0214 -0.1217,-0.0285 -0.0915,-0.0214 -0.0214,0.0912 -0.11289,0.0698 -0.24153,0.0718 -1.27992,-0.42805 -2.39145,-0.75239 -0.20442,-0.49729 -0.31209,-0.58659 -0.063,-0.14314 -0.21167,-0.46675 -0.16316,-0.26291 -0.0488,-0.2039 -0.25439,-0.28428 -0.0701,-0.11276 -0.0932,-0.1502 -0.0915,-0.0214 -0.28291,-0.16247 -0.21304,-0.0499 -0.18247,-0.0427 -1.64177,-0.80168 -0.20551,0.4654 -0.0285,0.12171 -0.0214,0.0913 -0.0214,0.0913 -0.0285,0.12171 -0.12171,-0.0285 -0.0712,0.30418 -0.0428,0.18266 0.0932,0.1502 -0.0214,0.0912 -0.0499,0.21295 0.0702,0.11275 0.0701,0.11276 -0.0285,0.12171 -0.0214,0.0912 -0.11288,0.0698 -0.21295,-0.0499 -0.0285,0.12171 -0.0214,0.0913 -0.0214,0.0913 -0.0285,0.12171 -0.0915,-0.0214 -0.11288,0.0698 -0.0499,0.21295 0.0701,0.11275 -0.0214,0.0913 -0.0285,0.1217 -0.0214,0.0912 -0.0214,0.0912 0.0915,0.0214 0.12171,0.0285 -0.0285,0.12171 0.0701,0.11276 -0.0214,0.0913 -0.0285,0.12171 -0.0214,0.0912 0.0702,0.11267 -0.12002,0.10027 0.0701,0.11276 -0.0214,0.0913 -0.30356,0.4745 -0.0214,0.0913 -0.0285,0.1217 -0.14307,0.0627 -0.0214,0.0912 -0.14141,0.19161 -0.0499,0.21304 -0.0214,0.0912 -0.14138,0.19152 -0.0214,0.0913 -0.0214,0.0913 0.0915,0.0214 0.0915,0.0214 -0.0285,0.1217 -0.0214,0.0912 -0.11289,0.0698 -0.0285,0.12171 -0.11291,0.0699 -0.12171,-0.0285 -0.30417,-0.0712 -0.11291,0.0699 -0.0285,0.12171 -0.16274,0.28274 -0.0428,0.18266 -0.1502,0.0932 -0.0915,-0.0214 -0.0214,0.0912 -0.26279,0.16308 -0.0214,0.0913 -0.0214,0.0913 -0.12002,0.10028 -0.11289,0.0698 -0.0214,0.0912 0.063,0.14314 0.0701,0.11276 0.10033,0.11982 0.0915,0.0214 -0.0285,0.12171 0.17022,0.23232 0.0416,0.23447 -0.0214,0.0913 -0.24154,0.0718 -0.0214,0.0912 -0.11288,0.0698 -0.0915,-0.0214 -0.1502,0.0932 -0.0214,0.0913 -0.0214,0.0913 -0.0285,0.12171 -0.0915,-0.0214 -0.21304,-0.0499 -0.0214,0.0912 -0.0214,0.0912 -0.0285,0.12171 -0.0915,-0.0214 -0.0915,-0.0214 -0.0428,0.18266 -0.24154,0.0718 -0.13424,0.16104 -0.33406,0.46746 -0.11289,0.0698 -0.12171,-0.0285 -0.0285,0.12171 -0.0214,0.0913 -0.1414,0.19161 -0.13425,0.16104 -0.1217,-0.0285 -0.0915,-0.0214 -0.0285,0.12171 -0.0214,0.0913 -0.0214,0.0913 -0.0285,0.12171 -0.0214,0.0912 0.0702,0.11266 -0.0713,0.30437 -0.0285,0.12171 -0.11289,0.0698 -0.0214,0.0912 -0.0499,0.21304 -0.11291,0.0699 -0.1502,0.0932 -0.0214,0.0912 -0.0499,0.21295 0.14168,0.35422 0.0915,0.0214 0.12171,0.0285 -0.0214,0.0912 -0.0214,0.0912 -0.1502,0.0932 -0.0214,0.0913 -0.1129,0.0699 -0.14139,0.19152 -0.0214,0.0912 -0.1502,0.0932 -0.0713,0.30437 -0.0214,0.0912 -0.12112,0.51731 -0.11289,0.0698 -0.0214,0.0912 -0.0285,0.12171 -0.0214,0.0913 -0.0214,0.0913 -0.12002,0.10028 -0.0427,0.18246 -0.0285,0.12171 -0.0214,0.0913 -0.12171,-0.0285 -0.14141,0.19161 0.0702,0.11266 -0.0214,0.0912 -0.12002,0.10028 -0.0214,0.0913 -0.11291,0.0699 -0.1502,0.0932 -0.0214,0.0912 -0.23252,0.17017 -0.2842,0.25451 -0.16274,0.28275 -0.1431,0.0628 -0.0756,0.0465 z"
       id="VA-6" />
    <path
       inkscape:connector-curvature="0"
       d="m 283.13731,370.05788 c -0.41979,-0.40475 -0.86042,-0.79939 -1.17169,-1.30137 -0.27118,-0.32179 -0.1822,-0.72729 -0.12288,-1.12011 0.0591,-0.39277 0.11052,-0.77912 -0.16764,-1.06629 -0.24414,-0.2105 -0.39533,-0.60701 -0.58965,-0.90834 -0.19435,-0.30124 -0.44193,-0.49046 -0.88432,-0.33543 l -3.16409,2.82179 -1.77088,2.21718 -1.39955,-0.32768 2.30377,2.49724 c 0.21024,0.2382 0.3444,0.54424 0.44471,0.84226 0.0988,0.25874 0.56284,0.34992 0.48742,0.65979 -0.12458,0.27329 -0.36114,0.45413 -0.64354,0.55531 -0.17593,0.31715 0.22648,0.62458 0.36967,0.88898 0.23324,0.19172 0.52157,0.45036 0.45893,0.7815 -0.26357,0.11987 -0.51018,0.17963 -0.59893,0.50167 -0.17384,0.30295 -0.53032,0.41565 -0.83324,0.54305 -0.32527,-0.0544 -0.51922,0.25331 -0.74389,0.43559 -0.20162,0.27333 -0.5465,0.3944 -0.76331,0.65586 -0.23438,0.29391 -0.66771,0.20539 -0.80543,-0.12449 -0.23762,-0.23794 -0.37116,-0.61593 -0.69328,-0.73993 -0.0485,-0.0123 -0.10311,-0.0241 -0.15218,-0.0356 l -1.6542,2.40492 3.6285,1.36307 -2.16459,3.7619 5.54994,2.61527 -2.01892,4.37372 c 0.4297,0.0702 0.79017,0.38661 1.01177,0.75041 0.17895,0.0932 0.39057,0.25053 0.50694,0.43954 0.11626,0.18908 0.12666,0.40042 -0.10518,0.58523 -0.29376,-0.0595 -0.34825,0.11484 -0.29141,0.28487 0.0568,0.16991 0.23413,0.32606 0.45833,0.23569 0.10968,0.004 0.17034,0.10068 0.25254,0.15536 l 0,0 c 0.1127,0.0749 0.23132,0.13191 0.32949,0.23768 0.16982,0.18272 0.3637,0.34468 0.66417,0.31592 0.44334,0.0489 0.87928,0.14332 1.25665,0.39056 0.29046,0.1513 0.46051,0.0339 0.52049,-0.16704 0.0604,-0.20083 -0.0142,-0.46631 -0.13855,-0.64219 -0.14253,-0.23611 0.0237,-0.41286 0.22689,-0.55674 0.20247,-0.14404 0.4615,-0.26076 0.57755,-0.41034 0.45611,-0.003 0.52478,0.67747 0.96717,0.80405 0.41728,0.23738 0.86357,0.53988 1.13537,0.90773 -0.089,0.30978 0.12613,0.47106 0.39421,0.50959 0.26817,0.0385 0.59418,-0.0388 0.77111,-0.14041 0.24371,-0.12586 0.44155,-0.0247 0.60854,0.14248 0.16699,0.16717 0.29993,0.38018 0.4622,0.49336 0.448,0.0509 1.02275,-0.0383 1.35503,0.38144 0.0983,0.11811 0.22264,0.17116 0.367,0.21431 l -3.10847,2.99524 c -0.0809,0.20516 -0.0648,0.53572 -0.11677,0.77509 -0.0558,0.23835 -0.16975,0.40044 -0.52579,0.32612 -0.17438,0.15657 -0.51238,0.17326 -0.76192,0.2389 -0.24963,0.0656 -0.41198,0.17211 -0.22687,0.55664 0.0375,0.20843 -4.4e-4,0.4787 0.033,0.68176 0.0336,0.2031 0.13717,0.33355 0.46745,0.33406 0.28948,0.10372 0.52373,7.1e-4 0.74765,-0.17794 0.22403,-0.17864 0.43061,-0.42801 0.6203,-0.59291 0.46357,-0.23234 0.98916,0.0447 1.40422,-0.37742 0.23879,-0.16408 0.56462,-0.10947 0.8553,-0.0885 0.29059,0.0209 0.56119,0.0175 0.73866,-0.27639 0.38849,-0.54201 1.12559,-0.63933 1.69175,-0.91986 0.25137,-0.15815 0.54262,-0.0783 0.81771,-0.0653 0.27498,0.013 0.54702,-0.0286 0.69917,-0.38187 0.11374,-0.0691 0.22638,-0.13433 0.338,-0.20967 -0.0969,-0.075 -0.18423,-0.15231 -0.25449,-0.2843 -0.18184,-0.34196 -0.28597,-0.81135 -0.32674,-1.0715 l 1.92303,-3.68997 c 0.16205,0.072 0.30789,0.0826 0.43507,0.1982 -0.009,0.31659 0.15304,0.53384 0.35149,0.69205 0.19837,0.15819 0.43926,0.2606 0.68751,0.35354 0.33312,0.55516 0.90241,0.72316 1.4915,0.89477 0.50478,0.26454 1.05424,0.54489 1.62366,0.60487 0.6415,0.35746 1.07762,1.00606 1.41185,1.64641 0.48898,0.4452 1.07689,0.82102 1.72775,0.98234 1.02608,0.31162 2.10216,0.47062 3.11268,0.82502 0.4033,0.21767 0.78959,0.48867 1.17811,0.72516 0.0989,-0.30827 0.2226,-0.60858 0.25104,-0.93622 0.0476,-0.28679 0.16309,-0.49917 0.3464,-0.65703 0.18312,-0.15792 0.42817,-0.26713 0.68501,-0.32099 0.51354,-0.10798 1.10315,-0.0215 1.54076,0.13602 0.50434,-0.1586 0.63635,-0.49651 0.54847,-0.83444 -0.088,-0.33795 -0.39739,-0.67014 -0.79367,-0.85987 -0.31209,-0.0492 -0.52497,-0.5249 -0.72564,-0.87589 -0.10041,-0.17561 -0.19201,-0.3011 -0.30099,-0.35938 -0.10909,-0.0583 -0.21211,-0.0455 -0.35423,0.14168 -0.17914,0.20321 -0.32653,0.29359 -0.42014,0.28678 -0.0939,-0.007 -0.14782,-0.10209 -0.17022,-0.23233 -0.0448,-0.26069 0.0298,-0.68258 0.18356,-0.91998 -0.13314,-0.17136 -0.21036,-0.20916 -0.28291,-0.16247 -0.0726,0.0467 -0.14564,0.17285 -0.20006,0.30616 -0.10867,0.26675 -0.21781,0.57057 -0.50949,0.39423 -0.10864,-0.40411 -0.28806,-0.43831 -0.46745,-0.33406 -0.17939,0.10425 -0.34235,0.34319 -0.47713,0.53019 -0.26737,0.22692 -0.40809,0.27655 -0.46684,0.21165 -0.0588,-0.0649 -0.0533,-0.22651 -0.0291,-0.424 0.0247,-0.19748 0.0624,-0.42877 0.0438,-0.5996 -0.0186,-0.17082 -0.10522,-0.27615 -0.292,-0.26094 -0.006,0.34133 -0.0639,0.53615 -0.1798,0.63196 -0.11684,0.0955 -0.28417,0.0885 -0.45458,0.022 -0.34068,-0.13328 -0.71683,-0.5156 -0.93664,-0.79712 -0.43447,0.13039 -0.69615,-0.0526 -0.92183,-0.31206 -0.22579,-0.25951 -0.41094,-0.60091 -0.76132,-0.72392 0.11278,-0.27113 0.12249,-0.46174 0.075,-0.5922 -0.0485,-0.1307 -0.15138,-0.19833 -0.29912,-0.23056 -0.29538,-0.064 -0.72654,0.0299 -1.05204,0.10678 -0.17186,-0.33367 -0.5347,-0.44429 -0.85771,-0.58596 -0.32301,-0.14167 -0.62377,-0.31561 -0.72373,-0.74716 -0.44382,0.21159 -0.74879,0.10167 -0.99503,-0.13674 -0.24625,-0.23831 -0.42141,-0.59606 -0.65764,-0.89211 -0.38585,-0.12813 -0.3814,-0.46561 -0.39817,-0.76727 -0.009,-0.15089 -0.0282,-0.30506 -0.097,-0.40785 -0.0684,-0.1026 -0.2115,-0.174 -0.44223,-0.16763 -0.0868,0.37068 -0.27305,0.4727 -0.47911,0.40135 -0.20603,-0.0715 -0.43554,-0.29444 -0.57677,-0.55233 -0.4069,-0.32861 -0.46036,-0.80915 -0.53464,-1.2806 -0.0743,-0.47145 -0.16341,-0.95931 -0.60264,-1.26438 -0.24954,0.21046 -0.43139,0.24799 -0.6189,0.17595 -0.18754,-0.072 -0.36051,-0.23241 -0.58203,-0.39304 -0.47035,0.003 -0.7254,-0.26977 -0.92569,-0.56973 -0.2003,-0.29995 -0.34344,-0.64487 -0.64863,-0.79376 -0.42625,0.26593 -0.73739,0.16175 -0.97169,-0.0991 -0.23439,-0.2609 -0.39323,-0.66248 -0.5755,-0.96921 l 5.23418,-6.31691 c -0.48747,-0.33413 -0.94558,-0.5787 -1.54859,-0.65138 -0.61912,-0.0653 -0.98733,-0.68019 -1.58084,-0.78731 -0.0949,-0.28279 -0.2921,-0.45046 -0.53926,-0.5757 -0.24718,-0.12514 -0.54398,-0.19761 -0.84485,-0.22985 -0.3767,0.0245 -0.47078,-0.16106 -0.48358,-0.40202 -0.0124,-0.24098 0.0567,-0.54492 0.0795,-0.75169 -0.35542,-0.1436 -0.39327,-0.37718 -0.35858,-0.66177 0.0348,-0.28446 0.14978,-0.59584 0.0778,-0.88045 -0.003,-0.30404 -0.27087,-0.5069 -0.60006,-0.58972 -0.3291,-0.0832 -0.69984,-0.0675 -0.93229,0.006 -0.33429,0.21095 -0.65304,0.17257 -0.89471,-0.0169 -0.24157,-0.18946 -0.42639,-0.52041 -0.47505,-0.84947 -0.38337,-0.56599 -0.5046,-1.28743 -0.98973,-1.80433 -0.1155,-0.10459 -0.18875,-0.25104 -0.30103,-0.35929 z"
       id="VA-7" />
    <path
       inkscape:connector-curvature="0"
       d="m 296.06684,358.28922 c -0.0531,0.18301 -0.14675,0.35479 -0.0598,0.53167 0.0644,0.34362 -0.2729,0.68174 -0.14356,1.02547 0.0921,0.10671 0.17558,0.31954 0.27253,0.481 0.0969,0.16155 0.22864,0.26222 0.41884,0.13021 0.2272,-0.19833 0.30543,-0.58816 0.68106,-0.57868 0.28162,0.0557 0.6244,0.4805 0.4053,0.7368 -0.29432,0.24331 -0.68366,0.43716 -1.05341,0.52364 -0.11714,0.0353 -0.24938,0.15359 -0.32177,0.27766 -0.0722,0.12411 -0.0694,0.23065 0.1702,0.23242 0.18295,0.0573 0.16119,0.16735 0.0718,0.24153 -0.0892,0.0741 -0.23903,0.11597 -0.33979,0.0809 -0.17029,0.14171 -0.14263,0.31529 -0.0465,0.47059 0.0965,0.1553 0.23824,0.29755 0.27964,0.45062 -0.0562,0.16544 -0.19411,0.21008 -0.32177,0.27765 -0.12757,0.0676 -0.21751,0.16003 -0.15299,0.38147 0.26255,0.2902 0.19001,0.60443 0.0672,0.94645 -0.0898,0.30464 -0.10474,0.65353 -0.25104,0.93622 -0.14204,0.15921 -0.0799,0.29751 0.022,0.45438 0.0969,0.1558 0.21914,0.31772 0.20442,0.49729 0.008,0.0197 -0.0229,0.0409 -0.0142,0.0608 l 0.0302,0.007 0.0604,0.0141 0.0915,0.0214 0.18445,0.17156 0.17017,0.23252 -0.0285,0.12171 0.0915,0.0214 0.12002,-0.10028 0.23432,-0.0415 0.23433,-0.0415 0.28237,-0.38311 0.62993,0.0511 -0.0417,-0.23447 0.0214,-0.0912 -0.0702,-0.11267 0.0208,-0.63704 0.22147,-0.39758 0.11288,-0.0698 0.11289,-0.0698 0.17159,-0.18455 0.11291,-0.0699 0.12002,-0.10028 0.14307,-0.0627 0.0214,-0.0912 0.12002,-0.10028 0.0915,0.0214 0.12171,0.0285 0.0915,0.0214 0.1129,-0.0699 0.21304,0.0499 0.14141,-0.19161 0.0214,-0.0912 0.0214,-0.0912 0.0285,-0.12171 0.0214,-0.0913 -0.0417,-0.23447 0.0214,-0.0912 -0.0702,-0.11266 0.0285,-0.12171 0.0214,-0.0913 0.0499,-0.21304 -0.12171,-0.0285 0.0427,-0.18247 0.0285,-0.12171 -0.0203,-0.3258 0.0214,-0.0912 0.0214,-0.0912 0.0285,-0.12171 -0.0701,-0.11276 0.0214,-0.0913 0.0285,-0.12171 0.0214,-0.0912 0.0214,-0.0912 -0.0932,-0.15021 0.0214,-0.0913 -0.0416,-0.23447 0.0214,-0.0912 -0.0915,-0.0214 -0.12171,-0.0285 0.0214,-0.0912 0.0285,-0.12171 0.12171,0.0285 0.11291,-0.0699 0.0499,-0.21304 -0.14183,-0.35405 -0.0915,-0.0214 0.0214,-0.0913 0.0214,-0.0913 -0.0915,-0.0214 -0.14309,0.0628 -0.0701,-0.11276 -0.063,-0.14313 -0.17022,-0.23233 -0.063,-0.14313 -0.0789,-0.21116 -0.0915,-0.0214 -0.0915,-0.0214 -0.12171,-0.0285 -0.18247,-0.0427 -0.1217,-0.0285 -0.063,-0.14314 -0.0915,-0.0214 -0.10035,-0.11973 0.0214,-0.0912 -0.15397,-0.16443 -0.0772,-0.0824 c -0.28773,-0.0664 -0.56567,-0.12731 -0.85196,-0.19947 -0.38609,-0.21529 -0.65812,0.21534 -0.96594,0.28736 -0.0706,-0.0145 -0.14789,4e-4 -0.22018,-0.0194 z"
       id="VA-8" />
    <path
       inkscape:connector-curvature="0"
       d="m 237.61708,426.57511 c 0.0181,-0.12117 0.0799,-0.24032 0.0855,-0.36513 0.095,-0.36187 0.10555,-0.78419 0.43191,-1.02225 0.27523,-0.17846 0.68347,-0.28808 0.81701,-0.61104 0.089,-0.30114 0.18907,-0.64961 -0.006,-0.9322 -0.14985,-0.3018 -0.42619,-0.57962 -0.32496,-0.9427 0.10612,-0.36112 -0.23997,-0.31253 -0.39423,-0.50949 -0.18051,-0.32655 0.0383,-0.70102 0.083,-1.03975 0.0443,-0.18928 0.19262,-0.19893 0.35413,-0.1417 0.16153,0.0571 0.33083,0.19906 0.37612,0.31268 0.0801,0.21667 0.28462,0.31703 0.49783,0.34117 0.21319,0.0242 0.43524,-0.0429 0.58853,-0.18305 0.15971,-0.25665 0.25434,-0.56079 0.26697,-0.86831 -0.0827,-0.33856 0.21419,-0.4608 0.47911,-0.40134 -0.079,-0.28861 -0.0984,-0.5948 -0.0135,-0.90182 0.0306,-0.24467 -0.0217,-0.23195 -0.12369,-0.15734 -0.1017,0.0747 -0.2464,0.18736 -0.35403,0.14172 -0.37792,-0.16243 -0.686,0.12039 -1.01978,0.24272 l -4.51935,-1.12232 -0.39518,1.41589 -1.14646,-1.13494 0.007,-0.57618 -3.77296,-0.88338 c 0.55311,-0.21866 0.68614,-0.91405 0.99522,-1.37174 0.0926,-0.25099 0.20641,-0.47803 0.37678,-0.64992 0.1702,-0.17203 0.40749,-0.2582 0.70117,-0.25312 0.18299,-0.14685 0.16154,-0.40925 0.17979,-0.63195 0.0182,-0.22261 0.0705,-0.42831 0.40201,-0.48349 0.18379,-0.2735 0.24975,-0.56268 0.22966,-0.84489 -0.0202,-0.28233 -0.11686,-0.53482 -0.26202,-0.79959 -0.1496,-0.57525 0.1186,-1.15138 -0.0109,-1.73569 -0.0143,-0.33355 0.1436,-0.53875 0.33741,-0.75547 0.14142,-0.15833 0.26359,-0.34458 0.37878,-0.52117 -0.0574,0.0215 -0.11586,0.0364 -0.17356,0.0557 -0.31584,0.10538 -0.65585,0.14203 -1.00019,0.0226 l 0,0 c 0.34434,0.11944 0.68435,0.0828 1.00019,-0.0226 0.0579,-0.0192 0.11586,-0.0343 0.17356,-0.0557 0.042,-0.0653 0.11278,-0.11759 0.14138,-0.19152 -0.23299,-0.36687 -0.91264,-0.25086 -1.22996,-0.64097 -0.18001,-0.0874 -0.23975,-0.19417 -0.22402,-0.27716 0.0192,-0.0822 0.0973,-0.15656 0.21629,-0.23817 0.23772,-0.16341 0.60317,-0.33419 0.69721,-0.51081 0.48009,-0.27304 0.41371,-0.94055 0.73953,-1.23903 0.17845,0.21607 0.49387,0.33398 0.76252,0.30691 0.26874,-0.0271 0.50705,-0.18776 0.5076,-0.52306 -0.0813,-0.25473 -0.23016,-0.57244 -0.2549,-0.82996 -0.0249,-0.25757 0.0775,-0.47145 0.53084,-0.48547 0.25773,-0.0225 0.44647,-0.15531 0.59371,-0.34247 0.14724,-0.18716 0.24205,-0.42409 0.33929,-0.62665 0.12115,-0.0963 0.30074,-0.022 0.36126,-0.17218 l -2.59596,-1.2497 -0.14368,-0.48298 0.55609,-0.31913 0.80107,-2.18748 0.94913,-0.90116 -1.47004,-2.4945 1.91644,-1.60539 0.63515,-0.10805 0.44617,-1.08311 0.86361,-0.53593 0.92012,-1.32514 3.28999,1.02706 1.25682,-2.62634 -1.05261,-0.43913 -0.78468,0.74709 -1.1018,-1.18877 -1.27022,0.21612 -2.09043,-0.3931 -0.7372,-1.64898 -0.92518,-0.024 -0.56382,-0.19619 -0.72778,0.50365 -0.66424,-0.31605 -0.0373,0.0234 -0.0285,0.12171 -0.11289,0.0698 -0.12171,-0.0285 -0.14138,0.19152 -0.0214,0.0913 -0.11291,0.0699 -0.17156,0.18444 -0.16277,0.28285 -0.21304,-0.0499 -0.0499,0.21303 -0.22518,0.13975 -0.0285,0.12171 -0.0214,0.0913 0.0915,0.0214 -0.0214,0.0913 -0.0915,-0.0214 -0.12171,-0.0285 -0.12002,0.10028 -0.0214,0.0912 -0.16276,0.28285 -0.10033,-0.11983 -0.0915,-0.0214 -0.11291,0.0699 -0.0214,0.0913 -0.17157,0.18445 -0.14138,0.19151 -0.0428,0.18266 -0.14138,0.19151 -0.14307,0.0627 -0.0285,0.12171 0.0789,0.21115 -0.15021,0.0932 -0.11288,0.0698 -0.0214,0.0912 -0.12002,0.10028 -0.0214,0.0913 -0.12171,-0.0285 -0.0499,0.21304 -0.13425,0.16103 -0.0285,0.12171 -0.0915,-0.0214 -0.19297,0.27588 -0.0214,0.0912 -0.0214,0.0912 0.0932,0.15021 0.0701,0.11275 0.0915,0.0214 -0.0214,0.0913 -0.0915,-0.0214 -0.0915,-0.0214 -0.0285,0.1217 -0.12171,-0.0285 -0.13425,0.16103 -0.12002,0.10028 -0.16448,0.15417 -0.0285,0.12171 -0.0214,0.0912 -0.0915,-0.0214 -0.12112,0.51731 0.0702,0.11266 0.21294,0.0499 -0.0214,0.0912 -0.14141,0.19161 -0.14309,0.0628 -0.14138,0.19151 -0.0214,0.0912 -0.3128,0.3762 -0.20382,0.0485 -0.0214,0.0912 0.063,0.14314 0.35344,0.82099 0.13259,0.25576 0.12171,0.0285 0.0915,0.0214 0.19168,0.14111 0.30417,0.0712 0.34575,0.30556 0.0915,0.0214 -0.0214,0.0913 -0.11291,0.0699 -0.31265,0.37603 -0.22543,0.13989 -0.17156,0.18445 -0.11289,0.0698 -0.0915,-0.0214 -0.0285,0.12171 -0.12171,-0.0285 -0.0214,0.0913 -0.20405,0.0486 -0.26279,0.16308 -0.37552,0.23303 -0.37551,0.23304 0.30298,0.48822 -0.12002,0.10028 -0.11289,0.0698 -0.14306,0.0627 0.46743,0.33416 0.39687,-0.32427 0.19168,0.14112 -0.28555,0.67128 -0.23254,0.17027 -0.14309,0.0628 -0.12003,0.10028 -0.11288,0.0698 -0.12171,-0.0285 -0.35422,0.14168 -0.43828,0.0901 0.0417,0.23437 -0.11288,0.0698 -0.12002,0.10028 -0.1431,0.0628 -0.0915,-0.0214 -0.37551,0.23303 -0.0214,0.0912 -0.49527,0.33348 -0.39696,0.32424 -0.23433,0.0415 -0.12002,0.10028 -0.16443,0.15397 -0.21116,0.0789 -0.46735,-0.33403 -0.0203,-0.3257 0.0712,-0.30428 -0.37473,-0.72964 -0.11289,0.0698 -0.24143,0.0719 -0.0915,-0.0214 -0.0214,0.0913 -0.12171,-0.0285 -0.11291,0.0699 -0.0915,-0.0214 -0.12171,-0.0285 -0.23232,0.17022 -0.14307,0.0627 -0.37563,0.2331 -0.14139,0.19152 -0.26279,0.16308 -0.34714,0.1114 -0.14138,0.19151 -0.11289,0.0698 -0.1217,-0.0285 -0.0285,0.12171 -0.0214,0.0913 -0.23254,0.17027 -0.14307,0.0627 -0.0915,-0.0214 -0.11288,0.0698 -0.12171,-0.0285 -0.40413,0.35481 -0.11289,0.0698 -0.26279,0.16309 -0.11291,0.0699 -0.0915,-0.0214 -0.0214,0.0913 -0.12171,-0.0285 -0.0285,0.12171 -0.0915,-0.0214 -0.2343,0.0414 -0.11289,0.0698 -0.12002,0.10028 -0.12171,-0.0285 -0.22523,0.13994 -0.26289,0.16306 -0.1418,-0.35415 -0.16108,-0.13405 0.0285,-0.12171 0.0214,-0.0912 -0.21304,-0.0499 -0.11288,0.0698 -0.12171,-0.0285 -0.0702,-0.11266 -0.0915,-0.0214 0.0214,-0.0912 0.0285,-0.12171 -0.12171,-0.0285 -0.16128,-0.1341 -0.28279,-0.16255 -0.0932,-0.1502 -0.0915,-0.0214 -0.12002,0.10028 -0.0932,-0.15021 -0.0915,-0.0214 -0.0915,-0.0214 -0.1502,0.0932 -0.0428,0.18266 0.0932,0.1502 -0.0214,0.0912 -0.4967,0.75022 0.13989,0.22542 0.18444,0.17157 0.0702,0.11266 0.23313,0.37553 0.19156,0.14119 -0.35413,0.1417 -0.0214,0.0912 -0.0915,-0.0214 -0.2842,0.25451 -0.42537,0.44597 -0.46674,0.21167 -0.14307,0.0627 -0.12002,0.10028 -0.11291,0.0699 -0.23433,0.0415 -0.44546,0.12032 -0.14306,0.0627 -0.16111,-0.13396 0.0499,-0.21294 -0.33287,0.0505 -0.14307,0.0627 -0.20382,0.0485 -0.33287,0.0504 -0.34694,0.11145 -0.33286,0.0504 -0.12171,-0.0285 -0.55805,0.19019 -0.23433,0.0415 -0.41698,-10e-4 -0.2628,0.16308 -0.44546,0.12032 -0.34694,0.11144 -0.1502,0.0932 -0.0915,-0.0214 -0.13425,0.16103 -0.1217,-0.0285 -0.12003,0.10028 -0.0214,0.0913 -0.37551,0.23303 -0.35413,0.1417 -0.11291,0.0699 -0.19165,-0.14121 -0.18454,-0.17159 -0.0915,-0.0214 -0.26155,-0.2537 -0.18454,-0.17159 -0.16108,-0.13405 -0.28299,-0.16259 0.0285,-0.12171 -0.19158,-0.14109 -0.53731,-0.44675 -0.0915,-0.0214 -0.35484,-0.40403 -0.57866,-0.68115 -0.0915,-0.0214 -0.0285,0.12171 -0.0214,0.0913 -0.0214,0.0913 -0.0499,0.21294 -0.12171,-0.0285 -0.11288,0.0698 -0.0915,-0.0214 -0.1502,0.0932 -0.11291,0.0699 -0.0214,0.0913 0.063,0.14314 -0.11288,0.0698 -0.0214,0.0912 -0.16279,0.28294 -0.0285,0.12171 -0.0214,0.0912 -0.17156,0.18444 -0.20405,0.0486 -0.1217,-0.0285 -0.32556,0.0201 -0.12002,0.10028 -0.11289,0.0698 -0.0214,0.0912 -0.1502,0.0932 -0.11291,0.0699 -0.11291,0.0699 -0.1502,0.0932 -0.0915,-0.0214 -0.0915,-0.0214 -0.12171,-0.0285 -0.0915,-0.0214 -0.0915,-0.0214 -0.0214,0.0912 -0.0214,0.0912 -0.0285,0.12171 -0.0214,0.0913 -0.0499,0.21304 -0.25576,0.13258 -0.12002,0.10028 -0.14309,0.0628 -0.32556,0.0201 -0.0499,0.21294 -0.11288,0.0698 -0.0285,0.12171 -0.0915,-0.0214 -0.12171,-0.0285 -0.43827,0.0901 -0.72837,-0.0422 -0.46861,0.0828 -0.51533,0.008 -0.44746,-0.008 -0.0915,-0.0214 0.0214,-0.0913 -0.063,-0.14314 0.0214,-0.0912 -0.2344,0.0414 -0.0702,-0.11266 -0.37603,-0.31265 -0.0488,-0.20409 -0.063,-0.14314 -0.12171,-0.0285 -0.0915,-0.0214 -0.12002,0.10028 -0.12171,-0.0285 -0.063,-0.14314 0.0214,-0.0912 0.0499,-0.21294 -0.0915,-0.0214 0.0214,-0.0913 -0.10033,-0.11983 0.0285,-0.12171 -0.0915,-0.0214 -0.0915,-0.0214 -0.10035,-0.11973 0.0214,-0.0912 -0.0915,-0.0214 -0.11289,0.0698 -0.12171,-0.0285 -0.0915,-0.0214 -0.0915,-0.0214 0.0214,-0.0912 -0.0932,-0.1502 -0.0915,-0.0214 -0.0915,-0.0214 -0.21294,-0.0499 -0.12002,0.10028 -0.14307,0.0627 -0.11288,0.0698 -0.0915,-0.0214 -0.21294,-0.0499 0.0214,-0.0912 -0.0915,-0.0214 -0.12171,-0.0285 -0.0915,-0.0214 -0.0214,0.0912 -0.0915,-0.0214 -0.10035,-0.11972 0.0214,-0.0912 0.0285,-0.12171 -0.0699,-0.11269 0.0499,-0.21303 -0.11973,0.10034 -0.12171,-0.0285 0.0285,-0.12171 0.0214,-0.0912 0.0214,-0.0912 -0.15417,-0.16447 -0.12171,-0.0285 0.0214,-0.0913 -0.0699,-0.11269 -0.0912,-0.0214 -0.1217,-0.0285 -0.0913,-0.0214 -0.0913,-0.0214 -0.1217,-0.0285 0.0498,-0.21294 -0.0912,-0.0214 -0.0912,-0.0214 -0.12171,-0.0285 0.0499,-0.21294 -0.0913,-0.0214 -0.11983,0.10032 -0.0932,-0.1502 0.0214,-0.0913 -0.0912,-0.0214 -0.0699,-0.11269 0.0285,-0.12171 -0.079,-0.21096 -0.0628,-0.14309 -0.0699,-0.11272 0.14121,-0.19165 0.0427,-0.18247 0.0285,-0.12171 -0.0699,-0.11271 0.0214,-0.0913 0.0913,0.0214 0.0285,-0.12171 -0.07,-0.11261 -0.12171,-0.0285 -0.0699,-0.11259 -0.0413,-0.2344 0.0214,-0.0913 0.0499,-0.21294 -0.12171,-0.0285 -0.0913,-0.0214 -0.07,-0.11262 -0.12171,-0.0285 0.0285,-0.12171 -0.0912,-0.0214 -0.11973,0.10034 -0.0932,-0.1502 -0.16128,-0.1341 -0.12171,-0.0285 -0.11262,0.07 -0.0912,-0.0214 -0.10032,-0.11983 -0.0201,-0.32565 -0.0415,-0.23433 0.11272,-0.07 0.0214,-0.0913 0.0913,0.0214 0.12171,0.0285 0.0912,0.0214 0.14109,-0.19158 0.14307,-0.0627 0.18266,0.0428 0.12171,0.0285 0.0285,-0.12171 -0.12171,-0.0285 0.0214,-0.0913 0.0214,-0.0913 0.12171,0.0285 0.0912,0.0214 0.0285,-0.12171 0.0214,-0.0912 0.0214,-0.0912 -0.0912,-0.0214 0.0285,-0.12171 0.0214,-0.0913 0.0214,-0.0913 -0.12171,-0.0285 0.0285,-0.12171 -0.0913,-0.0214 -0.0913,-0.0214 0.0214,-0.0912 -0.10035,-0.11973 -0.20382,0.0485 -1.85757,1.49079 -0.28428,0.25439 -0.39677,0.32428 -0.77952,0.58778 -0.0214,0.0913 -0.23254,0.17027 -0.16443,0.15397 -0.11973,0.10035 -0.11262,0.07 -0.17159,0.18454 -0.11269,0.0698 -1.08518,0.93349 -0.39677,0.32429 -0.80091,0.6791 -0.77238,0.5573 -0.11269,0.0698 -0.2843,0.25449 -0.11973,0.10035 -0.11259,0.0699 -0.0214,0.0912 -0.0285,0.12171 -0.0214,0.0913 -0.14309,0.0628 -0.21116,0.0789 -0.14307,0.0627 -0.0214,0.0912 -0.25373,0.26165 -0.12171,-0.0285 -0.21115,0.0789 -0.25567,0.13261 -0.0912,-0.0214 -0.12171,-0.0285 -0.11982,0.10032 -0.58848,0.18327 -0.32573,0.02 -0.0214,0.0912 -0.0912,-0.0214 -0.24144,0.0718 -0.11271,0.07 -0.11272,0.0699 -0.12171,-0.0285 -0.21096,0.079 -0.14307,0.0627 -0.0913,-0.0214 -0.11269,0.0698 -0.0285,0.1217 -0.0214,0.0913 -0.1217,-0.0285 -0.0912,-0.0214 -0.23432,0.0415 -0.0285,0.12171 -0.0214,0.0912 -0.20402,0.0485 -0.12171,-0.0285 -0.11973,0.10035 -0.0214,0.0913 -0.0912,-0.0214 -0.0214,0.0913 -0.12171,-0.0285 -0.11982,0.10033 -0.0913,-0.0214 -0.16443,0.15397 -0.11973,0.10034 -0.34704,0.11142 -0.0285,0.12171 -0.0913,-0.0214 -0.14307,0.0627 -0.1126,0.0699 -0.0285,0.12171 -0.23433,0.0415 -0.0214,0.0913 -0.23252,0.17017 -0.14307,0.0627 -0.25373,0.26165 -0.24153,0.0718 -0.0913,-0.0214 -0.14307,0.0627 -0.0214,0.0912 -0.11973,0.10035 -0.11261,0.07 -0.1431,0.0628 -0.11982,0.10032 -0.21304,-0.0499 -0.11259,0.0699 -0.1126,0.0699 -0.26292,0.16316 -0.0913,-0.0214 -0.14309,0.0628 -0.11973,0.10034 -0.0214,0.0912 -0.0214,0.0912 0.0414,0.2344 -0.0214,0.0913 0.0719,0.24144 -0.1217,-0.0285 0.0719,0.24144 0.0699,0.11271 0.0913,0.0214 -0.0214,0.0913 -0.11983,0.10033 -0.0913,-0.0214 -0.0427,0.18246 0.0628,0.14309 0.0699,0.11272 -0.0499,0.21304 -0.0214,0.0912 -0.0214,0.0912 -0.0285,0.12171 -0.15417,-0.16447 -0.24143,0.0718 -0.0926,0.3956 -0.0214,0.0912 -0.0912,-0.0214 -0.21304,-0.0499 -0.11983,0.10033 -0.0214,0.0913 -0.17159,0.18454 -0.0912,-0.0214 -0.0214,0.0912 -0.0214,0.0912 -0.0912,-0.0214 -0.12171,-0.0285 -0.0285,0.12171 -0.0913,-0.0214 0.0285,-0.12171 -0.0913,-0.0214 -0.0285,0.12171 -0.32556,0.0201 -0.1217,-0.0285 -0.0913,-0.0214 -0.11272,0.0699 -0.0285,0.12171 -0.0214,0.0912 -0.0214,0.0912 -0.0285,0.12171 -0.12171,-0.0285 -0.0214,0.0913 -0.0912,-0.0214 -0.11261,0.07 -0.12171,-0.0285 -0.11983,0.10032 -0.0214,0.0912 -0.0913,-0.0214 -0.12171,-0.0285 -0.0214,0.0912 -0.0285,0.12171 -0.0428,0.18266 0.0932,0.1502 0.07,0.11262 0.0913,0.0214 -0.0214,0.0912 -0.0285,0.12171 -0.0214,0.0913 -0.0499,0.21303 0.12171,0.0285 -0.0214,0.0912 0.0699,0.1126 -0.0285,0.1217 -0.0912,-0.0214 -0.0214,0.0913 -0.0214,0.0913 -0.15021,0.0932 -0.0214,0.0912 -0.0913,-0.0214 -0.0214,0.0912 -0.0285,0.12171 0.0699,0.11271 -0.0214,0.0913 -0.0285,0.12171 -0.0913,-0.0214 -0.0214,0.0912 -0.0214,0.0912 -0.0913,-0.0214 -0.0285,0.12171 -0.12171,-0.0285 -0.11262,0.07 -0.0214,0.0913 -0.21294,-0.0499 -0.0285,0.12171 -0.0214,0.0912 -0.0913,-0.0214 -0.2344,0.0414 -0.35405,0.14182 -0.20405,0.0486 -0.12171,-0.0285 -0.21096,0.079 -0.0214,0.0912 -0.12171,-0.0285 -0.0214,0.0912 -0.0913,-0.0214 -0.0913,-0.0214 -0.21294,-0.0498 -0.24144,0.0718 -0.13409,0.16128 -0.11983,0.10032 -0.14307,0.0627 -0.1611,-0.13396 -0.12171,-0.0285 0.0285,-0.12171 -0.42409,0.0291 -0.1126,0.0699 -0.1217,-0.0285 -0.0913,-0.0214 -0.1127,0.0698 -0.1217,-0.0285 0.0214,-0.0912 -0.0912,-0.0214 -0.11259,0.0699 0.0413,0.2344 -0.0214,0.0913 -0.0912,-0.0214 -0.15021,0.0932 -0.11269,0.0698 -0.2344,0.0414 -0.0285,0.12171 -0.0214,0.0913 0.12171,0.0285 -0.0214,0.0913 -0.0499,0.21294 -0.0498,0.21294 -0.16448,0.15417 -0.11973,0.10034 -0.0427,0.18247 -0.0912,-0.0214 -0.0285,0.12171 -0.14309,0.0628 -0.11271,0.07 -0.0285,0.12171 0.0913,0.0214 -0.0427,0.18247 -0.0285,0.1217 -0.0214,0.0913 0.12171,0.0285 -0.0214,0.0913 -0.0285,0.12171 -0.0214,0.0912 -0.14307,0.0627 -0.0285,0.12171 -0.0214,0.0913 -0.18266,-0.0428 -0.23433,0.0415 -0.0912,-0.0214 -0.1502,0.0932 -0.18266,-0.0428 -0.32554,0.02 -0.12171,-0.0285 -0.0913,-0.0214 -0.0214,0.0912 -0.44538,0.12044 -0.23442,0.0414 -0.11983,0.10032 -0.12171,-0.0285 -0.11259,0.0699 -0.2343,0.0414 -0.21116,0.0789 -0.14309,0.0628 -0.0912,-0.0214 -0.23433,0.0415 -0.0913,-0.0214 -0.0285,0.12171 -0.32564,0.02 -0.0912,-0.0214 -0.12171,-0.0285 -0.0214,0.0912 -0.0913,-0.0214 -0.46677,0.21177 -0.1217,-0.0285 -0.11983,0.10032 -0.0214,0.0912 -0.0913,-0.0214 -0.0214,0.0912 -0.12171,-0.0285 -0.0912,-0.0214 -0.11973,0.10035 -0.34714,0.11139 -0.12171,-0.0285 -0.14108,0.19158 -0.0214,0.0912 -0.35415,0.1418 -0.11271,0.0699 -0.1502,0.0932 -0.18247,-0.0427 -0.12171,-0.0285 -0.0913,-0.0214 -0.11269,0.0698 -0.2343,0.0414 -0.0912,-0.0214 -0.12171,-0.0285 -0.3956,-0.0926 -0.0912,-0.0214 -0.21304,-0.0499 -0.0913,-0.0214 -0.1502,0.0932 -0.0912,-0.0214 -0.0912,-0.0214 -0.32575,0.0201 -0.0214,0.0913 -0.12171,-0.0285 -0.0285,0.12171 -0.11259,0.0699 -0.11259,0.0699 -0.24154,0.0718 -0.11271,0.07 -0.12171,-0.0285 -0.11262,0.07 -0.14108,0.19159 -0.12171,-0.0285 -0.44546,0.12032 -0.0912,-0.0214 -0.23443,0.0414 -0.0214,0.0913 -0.0285,0.12171 -0.11269,0.0699 -0.14307,0.0627 -0.0912,-0.0214 -0.0912,-0.0214 -0.21304,-0.0499 -0.0285,0.12171 -0.0214,0.0913 -0.26292,0.16316 -0.13395,0.1611 -0.11973,0.10035 0.18247,0.0427 0.30436,0.0713 0.12171,0.0285 0.11973,-0.10035 0.3956,0.0926 0.30418,0.0712 0.32573,-0.02 0.21294,0.0498 0.6299,0.0512 0.24144,-0.0718 1.04691,0.0524 0.21294,0.0499 0.4241,-0.0291 0.3956,0.0926 1.10564,-0.062 0.72126,0.0725 0.62993,0.0511 0.87143,-0.0206 0.5082,0.0228 0.21294,0.0498 0.30427,0.0712 0.30427,0.0712 0.54581,-5.9e-4 0.32556,-0.0201 0.81258,0.0939 1.59248,0.052 1.74292,-0.0414 0.93408,0.12247 0.50819,0.0227 0.78014,-0.0421 0.93429,0.12242 1.37954,0.002 1.05402,0.0221 1.41003,0.009 0.5082,0.0227 0.21294,0.0499 0.21294,0.0499 0.53672,-0.0991 0.1217,0.0285 0.41699,10e-4 0.54581,-5.9e-4 0.30417,0.0712 0.11269,-0.0698 0.3955,0.0926 0.2344,-0.0413 0.0913,0.0214 0.24144,-0.0718 0.62993,0.0512 0.53869,0.0298 0.18247,0.0427 0.1502,-0.0932 0.0913,0.0214 0.21304,0.0499 0.0912,0.0214 1.04687,0.0526 0.24144,-0.0719 0.30427,0.0712 0.11271,-0.0699 1.5925,0.0519 0.44744,0.009 0.0912,0.0214 0.54581,-5.9e-4 0.18246,0.0427 0.44746,0.008 0.20385,-0.0486 0.21304,0.0499 0.0913,0.0214 0.24144,-0.0719 0.30427,0.0712 0.0913,0.0214 0.14307,-0.0627 0.0912,0.0214 0.0912,0.0214 0.1217,0.0285 0.0913,0.0214 0.2344,-0.0413 0.18247,0.0427 0.12171,0.0285 0.42409,-0.0291 0.5387,0.0298 0.0912,0.0214 0.32566,-0.0201 0.63703,0.0208 0.86431,0.01 1.92539,10e-4 0.234,-0.58712 0.0915,0.0214 1.16858,0.0811 0.96269,6.8e-4 1.26697,0.0719 0.2344,-0.0414 0.0915,0.0214 0.0915,0.0214 0.30437,0.0713 2.03996,0.0603 -0.68118,0.57875 1.80564,0.10181 1.44941,0.11474 0.30437,0.0713 0.53859,0.0298 0.21304,0.0499 0.32556,-0.0201 0.3956,0.0926 0.24144,-0.0718 0.0915,0.0214 1.56408,0.17373 0.4241,-0.0291 0.65131,-0.0402 0.42588,0.0997 0.84106,-0.0277 0.21294,0.0498 0.2343,-0.0414 0.72837,0.0421 0.32566,-0.0201 0.0915,0.0214 0.5387,0.0298 0.0915,0.0214 0.42608,0.0998 0.12002,-0.10028 0.21294,0.0498 0.0915,0.0214 0.2344,-0.0414 0.30418,0.0712 0.18266,0.0428 0.44724,0.008 0.33287,-0.0504 0.18246,0.0427 1.16862,0.0809 0.0915,0.0214 0.45457,-0.022 0.18247,0.0427 0.75161,0.0797 0.96277,8e-4 0.0915,0.0214 1.37958,0.002 0.30437,0.0713 0.4686,-0.0828 0.0915,0.0214 0.0915,0.0214 0.54571,-6.1e-4 0.65131,-0.0402 0.33277,-0.0505 0.53867,0.0299 0.0915,0.0214 0.0915,0.0214 0.53867,0.0299 0.21294,0.0499 0.18266,0.0428 0.54571,-6.2e-4 0.11291,-0.0699 0.30417,0.0712 0.62993,0.0512 0.45457,-0.022 0.0915,0.0214 0.53867,0.0299 0.6299,0.0512 0.72827,0.0421 0.86426,0.01 0.18266,0.0428 1.17561,0.0506 0.0915,0.0214 0.62991,0.0512 0.21294,0.0499 0.4241,-0.0291 0.53859,0.0298 0.0915,0.0214 1.50126,0.0305 0.74964,-0.0491 0.21303,0.0499 0.0915,0.0214 0.14309,-0.0628 0.0915,0.0214 1.05402,0.0221 0.53857,0.0299 0.0915,0.0214 0.78011,-0.042 0.20385,-0.0486 0.62992,0.0512 0.78011,-0.042 0.0915,0.0214 0.41687,0.001 1.0845,0.0292 0.20385,-0.0486 0.21304,0.0499 0.0915,0.0214 0.24144,-0.0718 0.25053,0.0266 z m -46.26276,-27.90624 -0.0214,0.0913 0.12171,0.0285 0.0913,0.0214 0.0214,-0.0913 -0.21303,-0.0499 z"
       id="VA-9" />
    <path
       inkscape:connector-curvature="0"
       d="m 270.75294,343.85714 -0.0285,0.12171 0.0701,0.11276 -0.0214,0.0913 -0.0285,0.12171 -0.0214,0.0912 0.0915,0.0214 -0.0214,0.0912 -0.0285,0.12171 -0.11291,0.0699 0.0701,0.11276 0.0932,0.15021 -0.0214,0.0912 -0.14307,0.0627 -0.0499,0.21303 -0.11291,0.0699 0.0417,0.23437 0.19168,0.14111 -0.0285,0.12171 0.19165,0.14121 -0.2428,0.48871 -0.16279,0.28294 -0.0214,0.0912 0.0915,0.0214 0.21294,0.0499 0.21294,0.0499 0.0702,0.11266 -0.12002,0.10028 -0.0214,0.0913 -0.0214,0.0913 -0.26419,0.58005 -0.0915,-0.0214 -0.0285,0.12171 -0.13425,0.16103 -0.0285,0.12171 -0.1217,-0.0285 -0.18415,0.37417 -0.11289,0.0698 -0.0285,0.12171 -0.0214,0.0913 -0.14309,0.0628 -0.0285,0.12171 -0.0214,0.0912 -0.2537,0.26155 -0.17159,0.18454 0.12171,0.0285 0.1611,0.13396 0.16319,0.26282 -0.0214,0.0913 -0.0499,0.21304 -0.32702,0.43695 -0.12002,0.10028 -0.0214,0.0912 -0.0214,0.0912 -0.0915,-0.0214 -0.0285,0.12171 -0.0214,0.0913 -0.0214,0.0913 0.0915,0.0214 0.21294,0.0498 -0.0285,0.12171 -0.14307,0.0627 0.10035,0.11973 0.34572,0.30566 0.0915,0.0214 -0.0214,0.0913 -0.0285,0.12171 -0.11289,0.0698 -0.0214,0.0912 -0.26282,0.16319 -0.16276,0.28284 -0.0499,0.21294 -0.0214,0.0913 -0.44676,0.5373 -0.23432,0.0415 -0.12002,0.10028 -0.0915,-0.0214 -0.14307,0.0627 -0.23232,0.17022 -0.0214,0.0913 -0.17159,0.18455 -0.0214,0.0912 -0.11288,0.0698 -0.12003,0.10028 -0.0214,0.0913 -0.0499,0.21304 -0.14307,0.0627 -0.11288,0.0698 -0.14141,0.19161 -0.14309,0.0628 -0.0142,0.0607 2.11426,0.9765 c 0.11615,-0.45223 0.19484,-0.91991 0.32057,-1.36917 0.0936,-0.23771 0.23317,-0.42915 0.34642,-0.65713 0.20089,-0.14256 0.4723,-0.006 0.6889,-0.0634 0.22724,-0.0691 0.42464,-0.22091 0.6473,-0.29767 0.23508,-0.035 0.37235,0.22922 0.34773,0.43441 -0.023,0.37442 0.20635,0.7202 0.1604,1.09674 0.0278,0.25865 0.26336,0.45389 0.389,0.66869 0.0802,0.13495 0.15009,0.27619 0.18841,0.42926 l 3.31726,-0.18607 0.26419,-0.58005 1.34464,0.69996 0.67069,-0.26025 1.1698,1.17255 c 0.23669,-0.47269 0.55957,-0.84591 1.00609,-1.14448 l 6.69784,1.82495 -0.46554,1.30318 -0.35939,0.301 -0.41654,1.50713 0.86414,1.51827 1.74932,-0.61747 2.78771,-0.11759 -0.85728,1.46823 c -0.15196,0.21913 -0.18418,0.53223 -0.0866,0.78216 0.0527,0.174 0.19779,0.18783 0.19693,-0.0182 -0.0215,-0.33378 0.30804,-0.3427 0.53472,-0.2278 0.32068,0.0125 0.44314,0.32385 0.65189,0.50563 0.21705,0.21832 0.563,0.23832 0.83571,0.13158 0.17237,-0.17646 0.21502,-0.47181 0.48437,-0.56065 0.10794,-0.17151 0.1829,-0.15128 0.27191,-0.0647 0.089,0.0866 0.16893,0.26457 0.24014,0.34513 0.2295,-0.045 0.37007,-0.41024 0.63318,-0.23689 0.20795,0.003 0.27526,0.16314 0.30813,0.3289 0.21239,0.0724 0.4139,0.13162 0.6247,0.21035 0.0198,-0.0408 0.0884,-0.0528 0.0898,-0.10735 0,0 0,0 0,0 -4.9e-4,0.0547 -0.069,0.0667 -0.0898,0.10735 0.0698,0.0266 0.15123,-0.002 0.21304,0.0499 0.25614,-0.0456 0.34406,-0.41499 0.43763,-0.63567 0.23027,-0.22329 0.31704,-0.50266 0.35166,-0.81633 0.0174,-0.19271 -0.0794,-0.25564 -0.22404,-0.27707 -0.1445,-0.0215 -0.32806,-0.0196 -0.4401,-0.039 -0.1908,-0.1598 -0.2795,-0.4363 -0.5678,-0.45379 -0.18691,-0.0185 -0.27129,-0.17792 -0.42073,-0.25903 -0.14945,-0.0811 0.066,-0.78738 0.22628,-1.10244 -0.39373,-0.034 -0.86384,-0.19917 -1.22747,0.0336 -0.35972,0.0147 -0.69843,-0.0643 -1.02878,0.14427 -0.36092,0.18735 -0.80597,0.1989 -1.0934,-0.12762 -0.12715,-0.24607 -0.0279,-0.36096 0.12992,-0.41892 0.15796,-0.0579 0.37619,-0.0697 0.51335,-0.13656 0.18769,-0.30289 0.70744,-0.2457 0.78666,-0.61825 0.21103,-0.31879 0.73376,-0.21119 1.08051,-0.22839 0.23572,0.0403 0.37079,-0.0642 0.46684,-0.21165 0.0961,-0.14746 0.15377,-0.32336 0.26608,-0.45123 0.18831,-0.0849 0.2375,-0.32265 0.17435,-0.4727 -0.0625,-0.14988 -0.22768,-0.23345 -0.40985,-0.0318 -0.17246,0.0992 -0.36152,0.12107 -0.52958,0.0686 -0.16796,-0.0525 -0.31276,-0.16309 -0.36178,-0.3735 -0.17333,-0.19095 -0.34994,-0.16657 -0.52442,-0.0907 -0.17448,0.0758 -0.36401,0.19311 -0.54383,0.12944 -0.073,-0.14692 -0.22608,-0.32315 -0.303,-0.48813 -0.0768,-0.16505 -0.0664,-0.31657 0.16821,-0.44209 0.37752,-0.16047 0.44059,-0.66189 0.89925,-0.68812 0.16322,-0.0343 0.31894,-0.17521 0.48109,-0.27251 0.16205,-0.0973 0.34676,-0.1576 0.51533,-0.008 0.27099,0.18094 0.46658,0.44395 0.52682,0.76525 0.0493,0.23081 -0.032,0.48303 0.29587,0.5186 0.35916,0.0421 0.65757,0.32743 0.98989,0.29596 0.38095,-0.0935 0.77319,0.0981 1.14714,0.17225 0.30785,-0.0721 0.57986,-0.50265 0.96595,-0.28737 0.28628,0.0722 0.56423,0.13303 0.85196,0.19947 l -0.0231,-0.0374 0.0214,-0.0913 -0.0915,-0.0214 -0.18454,-0.17159 -0.0488,-0.20389 -0.18445,-0.17157 -0.13989,-0.22542 -0.12171,-0.0285 -0.30417,-0.0712 -0.0915,-0.0214 -0.0915,-0.0214 -0.21295,-0.0498 -0.0214,0.0913 -0.0915,-0.0214 -0.23443,0.0414 -0.0915,-0.0214 -0.21294,-0.0499 -0.21294,-0.0498 -0.0915,-0.0214 -0.0488,-0.20409 -0.1217,-0.0285 -0.0214,0.0913 -0.37412,-0.18393 0.0499,-0.21294 -0.0702,-0.11266 -0.0932,-0.15021 0.0713,-0.30436 0.14307,-0.0627 0.0214,-0.0912 0.0285,-0.12171 -0.10033,-0.11983 -0.0915,-0.0214 -0.0915,-0.0214 -0.1217,-0.0285 -0.18266,-0.0428 -0.12171,-0.0285 -0.16108,-0.13406 -0.25452,-0.2842 -0.21294,-0.0499 -0.0915,-0.0214 -0.12171,-0.0285 -0.0915,-0.0214 -0.0915,-0.0214 -0.10035,-0.11973 -0.0915,-0.0214 -0.0915,-0.0214 -0.12171,-0.0285 -0.0915,-0.0214 -0.21304,-0.0499 -0.20383,0.0485 -0.14307,0.0627 -0.18266,-0.0428 -0.12171,-0.0285 -0.0915,-0.0214 -0.30427,-0.0712 -0.12002,0.10028 -0.21294,-0.0499 -0.21295,-0.0499 -0.18266,-0.0428 -0.1217,-0.0285 -0.18247,-0.0427 -0.12171,-0.0285 -0.0915,-0.0214 -0.0915,-0.0214 -0.12171,-0.0285 0.0285,-0.12171 -0.16111,-0.13395 -0.0719,-0.24144 0.0214,-0.0913 -0.0915,-0.0214 0.0214,-0.0913 -0.063,-0.14314 -0.12171,-0.0285 -0.0702,-0.11267 -0.0915,-0.0214 -0.12171,-0.0285 -0.0915,-0.0214 -0.0915,-0.0214 -0.21294,-0.0499 -0.0702,-0.11266 -0.1217,-0.0285 -0.063,-0.14314 0.0428,-0.18266 -0.063,-0.14314 -0.079,-0.21096 0.1502,-0.0932 0.0713,-0.30437 0.0214,-0.0912 0.0499,-0.21295 0.0428,-0.18266 0.12002,-0.10028 0.46672,-0.21157 0.14309,-0.0628 0.11291,-0.0699 -0.0417,-0.23437 0.0499,-0.21295 0.0214,-0.0913 0.23254,-0.17027 0.0214,-0.0912 0.0214,-0.0912 0.0285,-0.12171 -0.0915,-0.0214 -0.19165,-0.14121 -0.28279,-0.16255 -0.063,-0.14314 0.0214,-0.0912 -0.21304,-0.0499 -0.0915,-0.0214 -0.21294,-0.0498 -0.30437,-0.0713 0.0214,-0.0912 -0.0915,-0.0214 -0.21294,-0.0498 -0.18266,-0.0428 0.0285,-0.12171 -0.12171,-0.0285 0.0214,-0.0913 -0.0915,-0.0214 -0.0701,-0.11276 -0.0932,-0.15021 -0.0702,-0.11266 -0.0417,-0.23437 0.0428,-0.18266 -0.12171,-0.0285 -0.063,-0.14313 -0.24144,0.0718 -0.11291,0.0699 -0.1129,0.0699 -0.12171,-0.0285 -0.0915,-0.0214 -0.0915,-0.0214 -0.12171,-0.0285 -0.12002,0.10028 -0.39551,-0.0926 -0.1217,-0.0285 -0.0915,-0.0214 -0.0915,-0.0214 -0.12171,-0.0285 -0.063,-0.14314 -0.21294,-0.0499 -0.0915,-0.0214 -0.0701,-0.11276 -0.12171,-0.0285 -0.0915,-0.0214 -0.11291,0.0699 -0.15021,0.0932 -0.0915,-0.0214 -0.21304,-0.0499 -0.20383,0.0485 -0.1217,-0.0285 -0.14139,0.19151 -0.1129,0.0699 -0.33404,0.46735 -0.0428,0.18266 -0.0285,0.12171 -0.0214,0.0912 -0.0214,0.0912 -0.0285,0.12171 -0.0214,0.0913 -0.0214,0.0913 -0.0285,0.1217 -0.0214,0.0912 -0.11289,0.0698 -0.12171,-0.0285 -0.0285,0.12171 0.10032,0.11983 -0.0926,0.3955 -0.0499,0.21304 -0.14309,0.0628 -0.16274,0.28274 -0.0499,0.21304 -0.0214,0.0913 -0.0285,0.12171 -0.0214,0.0912 -0.0214,0.0912 -0.0998,0.42608 -0.0214,0.0912 -0.0214,0.0912 -0.0285,0.12171 -0.11291,0.0699 -0.0214,0.0913 -0.0499,0.21294 -0.14307,0.0627 -0.0285,0.1217 -0.0214,0.0913 0.10033,0.11983 -0.0285,0.12171 -0.16443,0.15397 -0.6984,-0.58071 -1.3576,-1.05609 -0.37602,-0.31266 -1.16594,-0.91488 -0.34565,-0.30555 -0.65898,-0.47534 -0.9814,-0.7433 -0.65903,-0.47515 -0.60012,-0.58994 -0.0915,-0.0214 -0.19158,-0.14109 -0.19158,-0.14109 -0.34572,-0.30566 -0.34573,-0.30566 -0.38316,-0.28218 -0.53728,-0.44685 -0.69149,-0.61113 -0.28279,-0.16255 -0.28298,-0.16259 -0.446,-0.42527 -0.90429,-0.66116 z"
       id="VA-10" />
    <path
       inkscape:connector-curvature="0"
       d="m 293.32729,356.55656 c -0.16857,-0.14987 -0.35331,-0.0899 -0.51533,0.008 -0.16215,0.0973 -0.31787,0.23821 -0.48109,0.2725 -0.45866,0.0262 -0.52182,0.52764 -0.89925,0.68812 -0.2342,0.12562 -0.2445,0.27706 -0.16821,0.44209 0.0769,0.16498 0.22997,0.34122 0.303,0.48813 0.17982,0.0637 0.36935,-0.0536 0.54383,-0.12943 0.17448,-0.0758 0.35101,-0.10032 0.52442,0.0907 0.0493,0.21048 0.19391,0.32106 0.36178,0.37351 0.16806,0.0525 0.35722,0.0306 0.52958,-0.0686 0.18217,-0.20168 0.34718,-0.11817 0.40985,0.0318 0.0625,0.14989 0.0135,0.38768 -0.17436,0.4727 -0.11211,0.12791 -0.16972,0.30381 -0.26607,0.45122 -0.0962,0.14747 -0.23112,0.25195 -0.46684,0.21165 -0.34675,0.0172 -0.86951,-0.0903 -1.08052,0.22839 -0.0771,0.37306 -0.59896,0.31536 -0.78665,0.61825 -0.13716,0.0669 -0.35549,0.0786 -0.51335,0.13657 -0.15806,0.0579 -0.25737,0.17278 -0.12992,0.41891 0.28743,0.32653 0.73258,0.315 1.0934,0.12762 0.33035,-0.20858 0.66906,-0.12959 1.02877,-0.14427 0.36364,-0.23273 0.83375,-0.0675 1.22748,-0.0336 -0.16005,0.31511 -0.37553,1.02139 -0.22628,1.10245 0.14944,0.0811 0.23384,0.24044 0.42072,0.25903 0.28831,0.0175 0.37689,0.29406 0.5678,0.45379 0.11211,0.0191 0.29573,0.0174 0.44011,0.039 0.14462,0.0214 0.24162,0.0844 0.22404,0.27706 -0.0344,0.31372 -0.12139,0.59305 -0.35166,0.81633 -0.0938,0.22064 -0.18132,0.59021 -0.43763,0.63567 -0.0618,-0.0519 -0.14317,-0.0233 -0.21304,-0.0499 -0.0826,0.16842 -0.22255,0.30264 -0.33406,0.46746 -0.0774,0.33066 -0.39146,0.35069 -0.65266,0.45695 -0.3349,0.0911 -0.66183,-0.17283 -1.00216,-0.10626 -0.30874,0.13076 0.0217,0.54304 0.0795,0.75686 0.16435,0.0477 0.4713,-0.17938 0.66752,0.0279 0.20682,0.20012 0.0272,0.62865 0.37483,0.72966 0.25003,0.152 0.6002,0.0439 0.8001,0.28367 0.0647,0.27109 -0.0937,0.55352 -0.24557,0.77687 -0.24701,0.20047 -0.37706,0.45636 -0.46616,0.75748 -0.1831,0.26093 0.006,0.60867 0.31902,0.55617 0.28207,0.066 0.35353,-0.39183 0.6404,-0.26735 0.20181,0.10137 0.29046,0.3259 0.39422,0.50959 l 0.0214,-0.0913 0.0712,-0.30428 -0.0719,-0.24143 0.35542,-0.55869 -0.12032,-0.44546 0.14307,-0.0627 0.23234,-0.17032 0.0712,-0.30427 -0.0417,-0.23437 0.0214,-0.0913 0.0499,-0.21304 -0.17022,-0.23232 0.0499,-0.21304 0.14309,-0.0628 0.33267,-0.0505 c -0.009,-0.0198 0.0219,-0.0411 0.0142,-0.0608 0.0143,-0.17966 -0.10749,-0.34149 -0.20442,-0.49729 -0.0971,-0.15573 -0.16403,-0.29517 -0.022,-0.45438 0.1463,-0.28269 0.16123,-0.63157 0.25104,-0.93622 0.12319,-0.34192 0.19574,-0.65616 -0.0672,-0.94644 -0.0641,-0.22135 0.0262,-0.31369 0.15299,-0.38147 0.12767,-0.0676 0.26587,-0.11215 0.32177,-0.27766 -0.0412,-0.15302 -0.1831,-0.29532 -0.27963,-0.45061 -0.0964,-0.15538 -0.12418,-0.32897 0.0465,-0.47059 0.10075,0.0351 0.25054,-0.007 0.33978,-0.0809 0.0893,-0.0742 0.11093,-0.18427 -0.0718,-0.24154 -0.23931,-0.002 -0.24258,-0.10835 -0.17019,-0.23242 0.0722,-0.12411 0.20463,-0.24233 0.32177,-0.27766 0.36975,-0.0865 0.75909,-0.28033 1.05341,-0.52364 0.21909,-0.2563 -0.1238,-0.68064 -0.40531,-0.7368 -0.37563,-0.009 -0.45386,0.38035 -0.68105,0.57868 -0.19021,0.13202 -0.32192,0.0313 -0.41885,-0.13021 -0.0969,-0.16145 -0.18042,-0.37429 -0.27252,-0.48099 -0.12905,-0.34367 0.20791,-0.68186 0.14355,-1.02548 -0.0869,-0.17686 0.008,-0.34843 0.0598,-0.53167 -0.30755,-0.0844 -0.61847,-0.22861 -0.92696,-0.15284 -0.33233,0.0315 -0.63074,-0.25388 -0.9899,-0.29596 -0.32773,-0.0356 -0.24649,-0.28777 -0.29587,-0.5186 -0.0602,-0.3213 -0.25593,-0.58433 -0.52682,-0.76525 z"
       id="VA-11" />
  </g>
</svg>
