<?xml version="1.0" encoding="UTF-8" standalone="no"?>
<!-- Created with Inkscape (http://www.inkscape.org/) -->
<?xml-stylesheet type="text/css" href="/stylesheets/state.css" ?>
<svg
   xmlns:dc="http://purl.org/dc/elements/1.1/"
   xmlns:cc="http://creativecommons.org/ns#"
   xmlns:rdf="http://www.w3.org/1999/02/22-rdf-syntax-ns#"
   xmlns:svg="http://www.w3.org/2000/svg"
   xmlns="http://www.w3.org/2000/svg"
   xmlns:sodipodi="http://sodipodi.sourceforge.net/DTD/sodipodi-0.dtd"
   xmlns:inkscape="http://www.inkscape.org/namespaces/inkscape"
   width="100%"
   height="300px"
   viewBox="0 0 121.00071 129.69132"
   id="svg12983"
   version="1.1"
   inkscape:version="0.91 r"
   sodipodi:docname="WI.svg">
  <defs
     id="defs12985" />
  <sodipodi:namedview
     id="base"
     pagecolor="#ffffff"
     bordercolor="#666666"
     borderopacity="1.0"
     inkscape:pageopacity="0.0"
     inkscape:pageshadow="2"
     inkscape:zoom="6.5635142"
     inkscape:cx="69.350368"
     inkscape:cy="57.010235"
     inkscape:document-units="px"
     inkscape:current-layer="layer1"
     showgrid="false"
     fit-margin-top="0"
     fit-margin-left="0"
     fit-margin-right="0"
     fit-margin-bottom="0"
     inkscape:window-width="1920"
     inkscape:window-height="1028"
     inkscape:window-x="0"
     inkscape:window-y="0"
     inkscape:window-maximized="1" />
  <metadata
     id="metadata12988">
    <rdf:RDF>
      <cc:Work
         rdf:about="">
        <dc:format>image/svg+xml</dc:format>
        <dc:type
           rdf:resource="http://purl.org/dc/dcmitype/StillImage" />
        <dc:title></dc:title>
      </cc:Work>
    </rdf:RDF>
  </metadata>
  <g
     inkscape:label="Layer 1"
     inkscape:groupmode="layer"
     id="layer1"
     transform="translate(-330.84192,-542.1451)">
    <path
       inkscape:connector-curvature="0"
       d="m 432.32889,660.04357 -0.87607,-0.0449 0.0179,-0.91093 -1.31795,-0.0359 0,0 -0.40707,-0.0182 -0.62897,-0.51803 -3.3254,0.15842 -0.0414,0.59312 -0.60461,0.0517 -0.0811,-1.64716 c -0.13304,-0.11689 -0.33446,-0.19713 -0.49247,-0.0919 -0.20907,0.13726 -0.34954,0.34414 -0.50668,0.53599 -0.12884,0.16954 -0.2595,0.40997 -0.49508,0.44296 -0.15497,0.0147 -0.32947,0.029 -0.46532,-0.057 -0.13094,-0.11772 -0.0488,-0.32616 -0.036,-0.47669 0.034,-0.30979 0.0888,-0.62059 0.11426,-0.93051 -0.0888,-0.18379 -0.30861,-0.26738 -0.45439,-0.40213 -0.0223,-0.0198 -0.0377,-0.0447 -0.0543,-0.0697 l -4.725,0.0181 -0.0314,5.12815 -7.75647,-0.16529 c -0.062,0.51444 -0.12402,1.00993 -0.24854,1.51224 -0.16381,0.17391 -0.43821,0.27375 -0.67746,0.3891 -0.23933,0.11532 -0.43708,0.26856 -0.39024,0.61325 0.0579,0.22972 0.004,0.38913 -0.12286,0.48868 -0.12657,0.0995 -0.33769,0.1368 -0.52294,0.15618 -0.4096,0.24817 -0.95087,0.4144 -1.09105,0.93652 -0.081,0.35704 -0.22989,0.73181 -0.10232,1.08938 0.19201,0.48666 0.34854,0.9983 0.54205,1.48339 0.16486,-0.0766 0.34198,-0.30297 0.53006,-0.47018 0.18797,-0.16721 0.41106,-0.27571 0.61212,-0.11375 0.22597,0.37762 0.60524,0.73992 0.47944,1.2238 -0.0589,0.43864 -0.21409,0.90315 -0.10183,1.34136 0.0881,0.1502 0.29763,0.14188 0.45389,0.15012 0.15611,0.009 0.25838,0.027 0.12457,0.26717 -0.0253,0.4053 -0.36006,0.65036 -0.69981,0.82713 l 0.37598,0.0156 0.37598,0.0156 0.93059,0.11436 0.75965,-0.0326 0.81776,0.006 0.21714,0.027 0.21714,0.027 0.32149,-0.0549 0.18627,0.0222 0.21704,0.027 0.41849,-0.0746 0.21705,0.027 0.10445,-0.0816 0.21713,0.027 0.21714,0.027 1.05016,-0.0915 0.21715,0.027 0.0928,0.0132 0.0929,0.0132 0.44576,-0.0397 0.5077,-0.0321 0.12414,0.0146 0.82156,-0.0251 0.12412,0.0146 0.72487,-0.005 0.72484,-0.005 0.21705,0.027 0.63558,-0.0479 0.21703,0.027 0.093,0.0132 0.0929,0.0132 0.75584,-0.002 0.41459,-0.0436 0.31022,0.0375 0.0929,0.0132 0.54256,-0.0593 0.0929,0.0132 0.12413,0.0146 0.32169,-0.0548 0.0929,0.0132 0.0929,0.0132 0.12413,0.0146 0.0929,0.0132 0.0929,0.0132 0.22848,-0.0663 0.21704,0.027 0.18627,0.0222 0.1393,-0.10884 0.0928,0.0132 0.093,0.0132 0.31033,0.0376 0.22848,-0.0663 0.21702,0.027 0.18629,0.0222 0.44555,-0.0398 0.18629,0.0222 0.31011,0.0375 0.0146,-0.12411 0.21714,0.027 0.21713,0.027 0.18607,0.0221 0.32168,-0.0549 0.12412,0.0146 0.0929,0.0132 0.0929,0.0132 0.31034,0.0375 0.94182,0.0214 0.2324,-0.0974 0.40317,0.0495 0.53876,-0.0283 0.62034,0.0762 0.32158,-0.0548 0.0929,0.0132 0.21703,0.027 0.093,0.0132 0.54257,-0.0593 0.0929,0.0132 0.21713,0.027 0.093,0.0132 0.22848,-0.0663 0.0929,0.0132 0.12413,0.0146 0.3103,0.0375 -0.0974,-0.23234 -0.13669,-0.42611 -0.0746,-0.41846 -0.002,-0.75582 0.0375,-0.31021 -0.0548,-0.32159 0.0222,-0.18617 0.0146,-0.12412 -0.11263,-0.10823 0.027,-0.21708 -0.0817,-0.10446 0.0374,-0.31023 0.027,-0.21708 0.0132,-0.093 0.027,-0.21709 0.0375,-0.31023 0.0612,-0.49625 0.0146,-0.12412 0.11598,-0.17467 0.0376,-0.31021 0.13931,-0.10884 0.0132,-0.0929 0.11965,-0.20571 0.0132,-0.0928 0.0132,-0.0929 0.0146,-0.12413 0.0375,-0.31023 0.0222,-0.18616 0.0146,-0.12414 0.0222,-0.18617 -0.0664,-0.22853 0.027,-0.21708 0.0222,-0.18618 0.10824,-0.11264 0.0132,-0.0929 0.027,-0.21707 0.11591,-0.17468 0.0146,-0.12413 -0.16316,-0.20893 -0.12413,-0.0146 -0.0778,-0.13548 -0.29875,-0.13105 -0.51751,-0.91364 -0.0816,-0.10444 -0.26077,-0.44133 -0.086,-0.3254 0.0146,-0.12412 -0.14793,-0.33303 0.0132,-0.0929 0.0132,-0.0929 0.0132,-0.0929 z"
       id="WI-1" />
    <path
       inkscape:connector-curvature="0"
       d="m 408.94606,671.49804 c 0.33976,-0.17677 0.67392,-0.42188 0.69982,-0.82714 0.13396,-0.24184 0.0316,-0.25887 -0.12458,-0.26715 -0.1562,-0.009 -0.36572,-3.9e-4 -0.45388,-0.15014 -0.11234,-0.4382 0.0434,-0.90268 0.10183,-1.34134 0.12576,-0.4839 -0.25347,-0.84619 -0.47944,-1.22381 -0.20105,-0.16196 -0.42423,-0.0527 -0.61212,0.11377 -0.18807,0.16721 -0.36518,0.39356 -0.53005,0.47015 -0.19352,-0.48505 -0.35004,-0.99671 -0.54206,-1.48339 -0.12758,-0.35755 0.0218,-0.73232 0.10233,-1.08938 0.14014,-0.52211 0.68146,-0.68833 1.09105,-0.93652 0.18525,-0.0194 0.39637,-0.0566 0.52294,-0.15618 0.12647,-0.0996 0.1808,-0.25895 0.12285,-0.48868 -0.0469,-0.34469 0.15087,-0.49793 0.39023,-0.61324 0.23926,-0.11536 0.51366,-0.21519 0.67747,-0.3891 0.12446,-0.50232 0.18618,-0.99784 0.24853,-1.51224 l -2.19776,-0.0496 0.0736,-12.39595 -14.75641,-0.0802 1.03875,-1.79302 1.66563,-0.48815 0.0467,-5.25221 -2.69844,-0.33136 -1.22884,-1.78808 -10.4037,-0.14399 -0.1071,2.41116 2.42252,0.0141 -0.005,4.91104 -2.50803,-0.0876 -0.1947,4.91919 -2.2631,0.22587 -0.22481,19.52438 0.38745,-0.0784 0.12412,0.0146 0.63176,-0.0168 0.0929,0.0132 0.0929,0.0132 1.06608,0.0365 0.0929,0.0132 0.0928,0.0132 0.54257,-0.0593 0.0929,0.0132 0.12412,0.0146 0.18625,0.0222 0.12414,0.0146 0.50769,-0.0321 0.12413,0.0146 0.32146,-0.0549 0.0929,0.0132 0.093,0.0132 0.31013,0.0375 0.32549,-0.086 0.43411,0.0536 0.81796,0.006 0.21703,0.027 0.21705,0.027 0.19763,-0.0702 1.16279,0.0173 0.093,0.0132 0.31013,0.0375 0.31031,0.0375 0.32148,-0.0549 0.31033,0.0375 0.12412,0.0146 0.40317,0.0495 1.85672,0.008 0.0309,0.006 0.72487,-0.005 0.21703,0.027 0.22849,-0.0663 0.18628,0.0222 0.43409,0.0536 0.20146,-0.10121 0.21701,0.027 0.21704,0.027 0.63177,-0.0169 0.49624,0.0612 0.32169,-0.0549 0.12412,0.0146 0.62035,0.0761 0.18608,0.0222 0.13929,-0.10885 0.0929,0.0132 0.31023,0.0375 0.0928,0.0132 0.21714,0.027 0.94192,0.0214 0.53877,-0.0282 0.18606,0.0222 1.25593,0.0279 0.12413,0.0146 0.40325,0.0496 0.72479,-0.005 0.12411,0.0146 1.45356,-0.0419 0.52724,0.0645 0.32159,-0.0549 0.40329,0.0496 0.63176,-0.0169 0.62034,0.0762 0.12412,0.0146 0.10824,-0.11265 0.62033,0.0762 0.093,0.0132 0.13548,-0.0777 0.40328,0.0495 0.40328,0.0496 0.13546,-0.0778 0.093,0.0132 0.0928,0.0132 0.12412,0.0146 0.0929,0.0132 0.093,0.0132 0.12413,0.0146 0.0929,0.0132 0.10823,-0.11264 0.12413,0.0146 0.0929,0.0132 0.21712,0.027 0.4146,-0.0435 0.28293,0.003 z"
       id="WI-2" />
    <path
       inkscape:connector-curvature="0"
       d="m 378.8205,671.19944 0.22479,-19.5244 2.26311,-0.22586 0.1947,-4.91918 2.50801,0.0876 0.005,-4.91104 -2.42252,-0.0141 0.1071,-2.41116 10.40371,0.14399 0,0 4.18244,0.0413 -0.0145,-17.31836 7.57038,0.14244 -0.0809,-12.16304 -14.93111,-0.19611 -0.10423,7.26016 -2.12771,0.14806 -0.0859,4.80655 3.44174,-0.0812 c 0.0833,0.70692 0.0751,1.43375 0.0202,2.14345 -0.0902,0.56244 -0.65584,0.8342 -1.02843,1.19607 -0.17705,0.17008 -0.43974,0.24827 -0.67366,0.35807 -0.23392,0.10982 -0.42408,0.23894 -0.44457,0.54362 -0.0416,0.51109 -0.23531,1.04664 -0.12837,1.55848 0.21034,0.45322 0.68158,0.72857 0.85925,1.20747 0.32962,0.48849 0.78433,0.96097 0.71663,1.59926 0.026,0.28614 -0.007,0.60363 -0.13764,0.86466 -0.1315,0.26105 -0.3627,0.46756 -0.66554,0.54798 -0.57947,0.10455 -0.99307,-0.49678 -1.5748,-0.50821 -0.23587,-0.0244 -0.49066,-0.0755 -0.74441,-0.0915 -0.2537,-0.0148 -0.5181,0.009 -0.71654,0.19538 -0.20399,0.19591 -0.44466,0.3597 -0.71617,0.4473 -0.27149,0.0876 -0.57059,0.11448 -0.84883,-0.01 l 0.107,-2.41117 -7.42336,-0.31326 0.18253,-12.25661 -9.93469,-0.1179 0.0904,-4.83758 2.51565,0.0255 0.27342,-9.6637 -3.92662,-0.0725 0.9604,-2.18046 -3.19799,-0.10973 -0.0577,2.00792 -6.09779,-0.3394 0.0694,-2.101 -2.82572,-0.0635 0.2175,-5.1053 -9.04335,-0.19726 -0.48247,9.82694 -12.67997,-0.58091 -0.007,0.0621 -0.0146,0.12411 -0.0132,0.0929 0.0549,0.32159 -0.0132,0.093 -0.0146,0.12413 -0.0132,0.0929 -0.0928,-0.0132 -0.0132,0.0929 -0.0146,0.12415 -0.0132,0.0929 -0.11966,0.20569 -0.0132,0.0929 -0.0375,0.31021 -0.15074,0.20189 -0.0132,0.0929 -0.11965,0.20569 -0.10443,0.0815 -0.15073,0.20189 -0.0132,0.0929 -0.027,0.21708 -0.0222,0.18619 0.10885,0.13929 -0.0132,0.0929 0.29876,0.13105 -0.0146,0.12412 0.18617,0.0221 0.20571,0.11966 0.19045,0.24377 0.0929,0.0132 0.0928,0.0132 0.20571,0.11967 0.0816,0.10445 0.39616,0.36348 0.28352,0.2552 0.0816,0.10444 0.19045,0.24377 0.27209,0.34825 -0.0132,0.0929 0.0777,0.13547 0.0929,0.0132 0.11265,0.10823 0.46963,0.27806 0.19425,0.21275 0.0663,0.22853 -0.0132,0.0929 -0.027,0.21708 -0.0928,-0.0132 -0.0132,0.0929 0.0929,0.0132 -0.0146,0.12412 0.12412,0.0146 -0.0132,0.0929 0.19753,-0.0702 0.12411,0.0146 0.16327,0.20892 -0.0146,0.12415 0.12411,0.0146 0.0929,0.0132 0.0146,-0.12411 0.0929,0.0132 0.12414,0.0146 0.0929,0.0132 -0.0146,0.12412 0.0815,0.10444 0.1676,0.42989 0.0778,0.13548 -0.10444,0.0815 0.0816,0.10446 0.12414,0.0146 0.0929,0.0132 0.10444,-0.0815 0.13549,-0.0777 0.0929,0.0132 0.0929,0.0132 0.11264,0.10823 0.0929,0.0132 0.0929,0.0132 0.11265,0.10823 0.0929,0.0132 0.0929,0.0132 0.0132,-0.0929 0.12412,0.0146 0.17468,0.11591 0.21708,0.027 0.0929,0.0132 0.31021,0.0375 0.13549,-0.0778 0.0928,0.0132 0.0929,0.0132 0.11265,0.1082 0.0929,0.0132 0.0929,0.0132 0.12414,0.0146 0.0928,0.0132 0.0929,0.0132 0.12413,0.0146 0.31021,0.0375 0.0929,0.0132 0.0929,0.0132 0.12412,0.0146 0.18616,0.0222 0.2171,0.027 -0.0146,0.12412 0.21709,0.027 0.0815,0.10444 -0.0132,0.0929 0.0929,0.0132 -0.0146,0.12412 0.12411,0.0146 -0.0132,0.0929 0.0663,0.22852 -0.0132,0.0929 0.0816,0.10445 0.12413,0.0146 -0.0146,0.12411 -0.0375,0.31023 -0.0132,0.0929 0.0663,0.22853 -0.0132,0.0929 0.0929,0.0132 0.11265,0.10824 -0.0146,0.12411 0.0815,0.10445 0.20568,0.11967 0.28352,0.2552 0.17469,0.11579 0.10885,0.13931 0.0815,0.10445 0.0816,0.10444 0.10882,0.13929 0.17469,0.1159 0.12414,0.0146 0.39179,0.14252 0.0777,0.13548 0.12413,0.0146 0.31022,0.0376 0.17468,0.11591 0.43421,0.0536 0.31023,0.0374 0.0816,0.10444 0.0777,0.13548 0.12412,0.0146 0.17469,0.11589 0.12412,0.0146 0.18611,0.0222 0.11266,0.10823 0.0929,0.0132 0.0929,0.0132 0.21703,0.027 0.093,0.0132 -0.0146,0.12412 0.12414,0.0146 -0.0132,0.0928 0.0929,0.0132 -0.0132,0.0929 0.20193,0.15071 0.29865,0.13105 0.0929,0.0132 0.20577,0.11966 0.0928,0.0132 -0.0146,0.12412 0.20564,0.11966 0.0929,0.0132 0.093,0.0132 0.12413,0.0146 0.0928,0.0132 -0.0132,0.0929 0.0928,0.0132 0.10886,0.13929 0.0929,0.0132 0.0703,0.19755 0.10886,0.13928 0.16315,0.20896 0.12411,0.0146 0.0779,0.13551 0.0817,0.10446 0.0974,0.23235 0.0928,0.0132 -0.0222,0.18617 0.0779,0.13547 -0.0132,0.0929 -0.11966,0.2057 -0.10444,0.0816 -0.0132,0.0929 -0.0146,0.12412 0.0816,0.10446 0.29874,0.13105 -0.0146,0.12411 0.093,0.0132 0.12412,0.0146 -0.0132,0.0929 -0.027,0.21707 -0.0132,0.0929 0.0815,0.10444 0.0777,0.13548 -0.0132,0.0929 -0.0132,0.0929 -0.0536,0.43423 -0.0132,0.0928 -0.0132,0.0929 0.28359,0.25521 -0.0132,0.0929 0.10884,0.13932 -0.0132,0.0928 -0.0132,0.0929 -0.0146,0.12413 0.0929,0.0132 0.0928,0.0132 0.20575,0.11966 -0.0132,0.093 0.0929,0.0132 0.10883,0.13929 0.0929,0.0132 -0.0132,0.093 0.21702,0.027 0.0817,0.10447 0.17908,0.33682 0.17078,0.14692 0.19431,0.21276 0.512,0.18881 0.0817,0.10445 0.0817,0.10447 0.21704,0.027 -0.0146,0.12412 0.0929,0.0132 0.31033,0.0376 0.12412,0.0146 0.0816,0.10444 0.0928,0.0132 0.19052,0.24378 -0.0132,0.0929 0.0664,0.22857 -0.0132,0.0929 0.28342,0.25519 0.1241,0.0146 0.0929,0.0132 0.0929,0.0132 0.11265,0.10822 0.0816,0.10444 0.0778,0.1355 -0.0132,0.0929 0.0974,0.23234 0.0929,0.0132 -0.0132,0.0929 0.0929,0.0132 0.11267,0.10824 0.093,0.0132 0.0929,0.0132 0.10884,0.13929 -0.0132,0.0929 0.0929,0.0132 0.093,0.0132 0.11264,0.10824 0.0929,0.0132 0.0778,0.13549 0.11264,0.10823 -0.0132,0.0929 0.0929,0.0132 -0.0146,0.12413 0.0817,0.10446 0.12412,0.0146 0.0815,0.10445 0.0929,0.0132 0.12411,0.0146 0.31032,0.0375 0.18609,0.0222 0.3103,0.0375 0.21703,0.027 0.29494,0.16216 0.0929,0.0132 0.20564,0.11965 0.29876,0.13104 0.22859,-0.0663 0.0929,0.0132 0.0816,0.10445 0.12413,0.0146 0.078,0.13551 0.21713,0.027 0.0816,0.10444 0.0815,0.10443 0.10883,0.13932 -0.0132,0.0929 -0.0132,0.0929 0.28362,0.2552 -0.0132,0.0929 0.0777,0.1355 0.20565,0.11965 0.17479,0.11592 -0.0146,0.12411 0.12413,0.0146 0.16316,0.20895 0.19051,0.24378 -0.0132,0.0929 0.0664,0.22857 0.0974,0.23234 0.0815,0.10444 0.0929,0.0132 -0.0132,0.0929 0.10885,0.13929 -0.0132,0.0929 0.0817,0.10446 0.20193,0.15075 0.17457,0.11587 0.0974,0.23233 -0.0132,0.093 0.0929,0.0132 -0.0375,0.31022 0.20574,0.11966 0.0777,0.13549 0.20564,0.11964 0.0817,0.10445 0.0664,0.22856 0.11264,0.10822 -0.0146,0.12414 -0.0132,0.0929 -0.0132,0.0929 0.0663,0.22851 -0.0132,0.0929 0.17898,0.33684 -0.0146,0.12412 0.0703,0.19751 0.19051,0.2438 0.15934,0.23995 -0.0132,0.0928 -0.027,0.21709 -0.24694,0.47344 0.0549,0.3216 -0.0146,0.12411 -0.0222,0.18618 -0.0929,-0.0132 -0.0146,0.12413 -0.14691,0.17087 -0.0146,0.12411 -0.0495,0.40323 -0.0132,0.093 -0.0536,0.43423 -0.0375,0.31021 0.086,0.32541 0.0816,0.10445 -0.0132,0.0929 0.0929,0.0132 -0.0146,0.12414 -0.0132,0.0929 -0.13103,0.29876 -0.0376,0.31021 0.0663,0.22853 0.11266,0.10825 0.0929,0.0132 -0.0132,0.0929 0.0929,0.0132 0.10884,0.13931 0.0817,0.10444 0.0815,0.10445 0.10883,0.1393 -0.0132,0.0929 0.0816,0.10445 -0.0146,0.12412 -0.0221,0.18618 -0.0146,0.12412 -0.11599,0.17466 -0.1393,0.10883 -0.0132,0.0929 -0.0132,0.0928 -0.0146,0.12414 0.19433,0.21276 0.0664,0.22855 0.11264,0.10823 0.0928,0.0132 -0.0146,0.12414 0.0815,0.10443 -0.0132,0.0929 -0.027,0.21707 -0.0132,0.0928 0.10885,0.13931 -0.0132,0.0928 -0.027,0.2171 -0.0375,0.3102 -0.14693,0.17088 -0.10822,0.11264 -0.0132,0.0929 -0.0132,0.0929 -0.0146,0.12412 0.0816,0.10444 0.26076,0.44133 0.10884,0.13929 0.0928,0.0132 -0.0132,0.0928 0.0815,0.10444 -0.0146,0.12413 -0.0132,0.0928 -0.0132,0.0929 0.10885,0.13931 -0.0132,0.0929 -0.0132,0.0929 -0.027,0.2171 -0.0132,0.0929 -0.15073,0.20187 -0.0132,0.0929 -0.10821,0.11266 -0.0132,0.0929 -0.0132,0.0929 0.0663,0.22855 0.11266,0.10823 -0.0146,0.12412 0.0929,0.0132 0.093,0.0132 0.21703,0.027 0.093,0.0132 0.20576,0.11966 0.28351,0.2552 0.39185,0.14253 0.12412,0.0146 0.0928,0.0132 0.0664,0.22854 0.1241,0.0146 0.1748,0.11591 0.45107,0.68508 0.19051,0.24378 0.0702,0.19752 -0.0146,0.12413 0.0815,0.10443 -0.10445,0.0815 0.0777,0.1355 0.21712,0.027 0.0816,0.10445 -0.11977,0.20568 -0.0132,0.0928 -0.10455,0.0815 -0.15073,0.2019 -0.11964,0.20569 -0.11589,0.17468 -0.48767,0.38091 -0.10444,0.0815 -0.10444,0.0816 -0.0146,0.12411 -0.1355,0.0777 -0.027,0.21707 -0.13114,0.29875 -0.0132,0.0929 -0.10453,0.0815 -0.0146,0.12413 -0.0222,0.18618 -0.13932,0.10883 -0.22406,0.28733 -0.0132,0.0929 -0.22859,0.0663 -0.10832,0.11265 -0.0132,0.0929 -0.0132,0.0929 -0.027,0.2171 0.0437,0.41464 -0.0762,0.62035 -0.027,0.21709 -0.0132,0.0929 -0.0146,0.12413 -0.0132,0.0929 0.055,0.32161 -0.0132,0.0929 -0.0146,0.12413 0.10123,0.20132 -0.027,0.21711 0.0663,0.22853 -0.0132,0.0929 0.22258,0.75147 0.0779,0.1355 -0.022,0.18618 -0.0146,0.12412 0.11266,0.10824 0.0815,0.10444 -0.0146,0.12412 -0.0132,0.0929 0.0815,0.10445 -0.13105,0.29875 -0.0146,0.12411 -0.0132,0.0929 0.0663,0.22855 0.11265,0.10822 -0.0132,0.0929 -0.0146,0.12412 -0.0132,0.0929 -0.0132,0.0929 -0.0146,0.12412 -0.0132,0.0929 0.0929,0.0132 0.0929,0.0132 0.11265,0.10823 0.29482,0.16213 0.0817,0.10446 0.20573,0.11967 0.0779,0.13548 -0.0222,0.18617 -0.0375,0.31022 0.0777,0.13549 -0.0132,0.0929 0.11266,0.10824 -0.0146,0.12413 -0.0132,0.0929 -0.0375,0.31023 -0.0132,0.0929 0.0929,0.0132 0.0929,0.0132 0.12415,0.0146 -0.027,0.21706 0.0435,0.41465 0.0549,0.32159 0.0974,0.23234 -0.0132,0.0929 -0.027,0.21709 0.0817,0.10446 -0.0146,0.12412 0.0817,0.10445 0.11263,0.10825 -0.0146,0.12411 -0.12412,-0.0146 -0.0132,0.0928 -0.0132,0.093 0.12413,0.0146 0.0929,0.0132 -0.0146,0.12413 0.0929,0.0132 -0.0132,0.0929 -0.0132,0.0929 0.12413,0.0146 0.0929,0.0132 0.0929,0.0132 0.12412,0.0146 0.0777,0.1355 -0.0132,0.0929 0.0815,0.10445 0.10884,0.1393 0.0929,0.0132 0.0929,0.0132 0.20567,0.11966 0.0929,0.0132 0.20575,0.11965 0.17908,0.33684 0.0778,0.13548 0.21704,0.027 0.17478,0.11591 -0.0132,0.0929 0.12413,0.0146 0.18608,0.0222 0.12412,0.0146 0.0929,0.0132 0.10455,-0.0816 0.1241,0.0146 0.0815,0.10444 0.29495,0.16215 0.0929,0.0132 0.11266,0.10823 0.0928,0.0132 0.093,0.0132 0.29883,0.13104 0.31015,0.0375 0.20193,0.15074 0.21715,0.027 0.49622,0.0612 0.20565,0.11966 0.21705,0.027 0.093,0.0132 0.0929,0.0132 0.21703,0.027 0.0815,0.10443 0.12411,0.0146 0.0929,0.0132 0.21714,0.027 0.18606,0.0222 0.10885,0.1393 0.18626,0.0222 0.20564,0.11966 0.0816,0.10445 0.12411,0.0146 -0.0146,0.12413 -0.0222,0.18616 0.15956,0.23999 -0.0132,0.0929 0.0974,0.23235 -0.027,0.2171 0.0815,0.10444 0.19041,0.24376 -0.0132,0.0929 0.0929,0.0132 0.19052,0.24379 0.0549,0.32159 0.19422,0.21276 0.0778,0.1355 0.0817,0.10445 -0.027,0.21708 -0.0132,0.0929 0.11264,0.10824 0.0664,0.22852 -0.0132,0.0929 -0.11964,0.20571 0.0928,0.0132 0.4147,-0.0435 0.12413,0.0146 0.0928,0.0132 0.31022,0.0375 0.54247,-0.0593 0.18628,0.0222 0.12412,0.0146 0.093,0.0132 0.0928,0.0132 0.21714,0.027 0.84892,0.01 0.0929,0.0132 0.0929,0.0132 0.12412,0.0146 0.81797,0.006 0.21704,0.027 0.031,0.006 z"
       id="WI-3" />
    <path
       inkscape:connector-curvature="0"
       d="m 431.2447,651.69294 -0.60079,0.0206 0.042,1.45345 -0.90114,-0.86628 -0.0206,-0.60074 -2.18201,0.0784 0.0284,2.33335 0.6938,-0.009 -0.029,1.00397 1.0311,0.064 0.0582,1.83326 -1.13887,0.30095 -0.007,0.56592 1.69336,-0.20138 0.23951,1.38325 1.31795,0.0359 -0.0169,0.91092 0.87608,0.0449 0.027,-0.2171 -0.0974,-0.23234 0.0495,-0.40324 0.0146,-0.12413 0.0495,-0.40321 -0.0664,-0.22855 0.0221,-0.18617 -0.0779,-0.1355 0.0132,-0.0929 -0.17897,-0.33682 -0.28352,-0.25519 -0.0929,-0.0132 -0.11265,-0.10823 -0.0815,-0.10444 -0.0778,-0.13547 -0.11265,-0.10825 0.0132,-0.0928 -0.15954,-0.23998 0.027,-0.21708 -0.11264,-0.10823 0.0132,-0.0929 0.15074,-0.20187 0.0132,-0.0929 0.0146,-0.12411 0.20906,-0.16324 0.25514,-0.28351 0.0146,-0.12413 0.0222,-0.18617 -0.0663,-0.22853 0.0132,-0.0929 -0.10885,-0.13931 -0.055,-0.32159 -0.27208,-0.34826 -0.0929,-0.0132 -0.10121,-0.20133 0.0146,-0.12413 -0.0929,-0.0132 0.0222,-0.18615 0.0146,-0.12414 0.13115,-0.29875 0.0222,-0.18617 0.12411,0.0146 0.14633,-0.4228 0.0132,-0.0929 -0.16755,-0.42986 -0.0779,-0.1355 z"
       id="WI-4" />
    <path
       inkscape:connector-curvature="0"
       d="m 408.03681,649.15821 -0.0736,12.39593 2.19775,0.0496 c 0,0 0,0 0,0 l 7.75649,0.16529 0.0314,-5.12815 4.72502,-0.018 c 0.0168,0.0248 0.0322,0.0498 0.0543,0.0697 0.14576,0.13474 0.36561,0.21833 0.45438,0.40212 -0.0242,0.31 -0.0793,0.62082 -0.11426,0.93051 -0.0142,0.15041 -0.095,0.35897 0.036,0.4767 0.13585,0.0861 0.31035,0.072 0.46532,0.057 0.23558,-0.033 0.36626,-0.27343 0.49508,-0.44297 0.15715,-0.19184 0.29759,-0.39872 0.50671,-0.53599 0.15798,-0.10518 0.35941,-0.025 0.49245,0.0919 l 0.0811,1.64716 0.60459,-0.0517 0.0414,-0.59313 3.3254,-0.1584 0.62895,0.51801 0.40708,0.0182 -0.23951,-1.38324 -1.69336,0.20139 0.007,-0.56593 1.13888,-0.30095 -0.0582,-1.83327 -1.0311,-0.064 0.029,-1.00395 -0.6938,0.009 -0.0284,-2.33335 0,0 -0.0845,-4.95347 0.40327,0.0495 0.009,-4.94203 -8.37241,-0.0205 0.0986,2.53086 -11.57424,-0.0988 -0.0245,4.81416 z"
       id="WI-5" />
    <path
       inkscape:connector-curvature="0"
       d="m 437.71348,619.52274 -7.06208,0.0774 0.0985,2.53088 -3.24422,0.011 0.18855,10.0038 -2.28714,-0.0918 -0.0838,-1.11225 -4.93066,-0.10167 -0.22443,-8.68585 -2.2517,0.13285 0.006,2.51944 -2.53086,0.0985 0.12515,2.31375 -2.42635,0.017 -0.10731,-4.76736 -9.14016,-0.17775 0,0 -7.57037,-0.14244 0.0145,17.31837 -4.18244,-0.0413 1.22885,1.7881 2.69844,0.33133 -0.0468,5.25224 -1.66563,0.48814 -1.03875,1.79303 14.75641,0.0802 0.0245,-4.81414 11.57424,0.0988 -0.0986,-2.53088 8.37241,0.0205 -0.009,4.94202 -0.40327,-0.0496 0.0845,4.95346 2.18201,-0.0784 0.0207,0.60075 0.90115,0.86627 -0.042,-1.45346 0.60078,-0.0206 -0.0817,-0.10445 -0.2339,-0.65841 -0.086,-0.32541 0.0132,-0.0929 -0.0929,-0.0132 0.0146,-0.12411 0.0375,-0.31024 0.0991,-0.80643 0.0146,-0.12413 0.13115,-0.29873 0.17359,-0.388 0.0762,-0.62035 0.027,-0.21708 -0.0746,-0.41846 0.18881,-0.51206 0.0375,-0.31022 0.13107,-0.29876 0.0132,-0.0929 0.25517,-0.28351 0.14261,-0.3918 0.3749,-0.48921 0.13106,-0.29874 0.15072,-0.20189 0.0132,-0.0929 0.10453,-0.0815 0.0376,-0.31021 0.14642,-0.42281 0.0222,-0.18618 0.0146,-0.12411 0.0132,-0.0929 0.0132,-0.0929 -0.0929,-0.0132 0.0146,-0.12412 0.0132,-0.0929 -0.0437,-0.41466 0.0146,-0.12414 0.0375,-0.31021 0.007,-0.0621 0.006,-0.0309 0.027,-0.21709 0.0375,-0.31022 0.23572,-0.38036 0.0132,-0.0929 0.70623,-1.39309 0.13115,-0.29874 0.13549,-0.0777 0.13105,-0.29875 0.0146,-0.12413 0.29323,-0.59368 0.0132,-0.0929 0.11973,-0.20569 -0.0817,-0.10445 0.027,-0.21709 0.0132,-0.0929 0.0132,-0.0928 -0.10883,-0.1393 -0.0549,-0.32157 0.0222,-0.18619 -0.0663,-0.22854 0.0132,-0.0929 0.10824,-0.11267 0.0132,-0.0929 0.0132,-0.0929 0.0146,-0.12411 0.0132,-0.0929 0.0132,-0.0929 0.0146,-0.12411 -0.16758,-0.42988 -0.0817,-0.10445 -0.0778,-0.1355 -0.16758,-0.42987 -0.0816,-0.10444 0.0146,-0.12413 0.0132,-0.0929 -0.086,-0.32539 0.0132,-0.0929 0.027,-0.2171 -0.055,-0.3216 -0.14102,-0.64702 0.027,-0.21707 0.0132,-0.0929 0.027,-0.2171 0.16216,-0.29493 0.0375,-0.31022 0.0132,-0.0929 0.0496,-0.40322 0.0146,-0.12412 0.0222,-0.18618 0.23954,-0.41137 0.14692,-0.17088 0.0536,-0.4342 0.0375,-0.31021 0.022,-0.18619 0.0645,-0.5273 0.10444,-0.0815 0.0146,-0.12412 0.14252,-0.3918 0.25525,-0.28352 0.0132,-0.0929 0.10833,-0.11264 0.0132,-0.0929 0.0375,-0.31023 -0.055,-0.32159 0.0132,-0.0929 0.027,-0.21709 0.0132,-0.0929 0.027,-0.21705 0.0132,-0.0929 0.10832,-0.11263 0.23992,-0.15944 0.24373,-0.19047 0.35979,-0.36512 0.20124,-0.10124 0.13549,-0.0777 0.42993,-0.16762 0.25515,-0.28351 0.0929,0.0132 0.0132,-0.0929 0.10454,-0.0815 0.38624,-0.58227 0.16215,-0.29494 0.0146,-0.12413 0.0495,-0.4032 -0.0593,-0.54253 -0.0548,-0.32158 0.0132,-0.0929 -0.16756,-0.42986 -0.0929,-0.0132 0.0146,-0.12411 -0.31559,-0.76289 -0.16765,-0.42989 0.0536,-0.43421 0.007,-0.0621 0.006,-0.0309 0.0132,-0.0929 0.006,-0.0309 z"
       id="WI-6" />
    <path
       inkscape:connector-curvature="0"
       d="m 380.44626,542.31185 -0.41459,0.0435 -0.15072,0.20189 -0.10454,0.0815 -0.0375,0.31022 -0.0376,0.31021 -0.0132,0.0929 0.0397,0.44568 -0.13114,0.29874 -0.13114,0.29874 0.0703,0.19754 0.24003,-0.15945 0.4184,-0.0746 0.34825,-0.27208 0.13105,-0.29876 0.0762,-0.62035 0.16215,-0.29493 0.0132,-0.0929 0.027,-0.2171 -0.10123,-0.20134 -0.0929,-0.0132 -0.31023,-0.0375 z m -2.26471,3.0593 -0.75153,0.22258 -0.55391,0.15237 -0.66984,0.32706 -0.24384,0.19044 -0.13103,0.29878 -0.0132,0.0928 0.17901,0.33682 0.0929,0.0132 0.21715,0.027 0.65841,-0.23399 0.32148,-0.0549 0.19763,-0.0702 0.20565,0.11964 0.0929,0.0132 0.12412,0.0146 0.0132,-0.0929 0.0146,-0.12412 0.10454,-0.0815 0.10454,-0.0815 0.0146,-0.12411 0.13547,-0.0778 0.23553,-0.38041 0.15071,-0.20187 -0.11263,-0.10822 -0.17078,-0.14691 -0.12412,-0.0146 -0.0929,-0.0132 z m -6.52341,0.0491 -0.19744,0.0702 -0.59208,0.46255 -0.0132,0.0929 -0.11967,0.20572 -0.12413,-0.0146 -0.0931,-0.0132 -0.0929,-0.0132 -0.21704,-0.027 -0.20566,-0.11965 -0.17096,-0.14694 -0.12412,-0.0146 -0.10823,0.11266 -0.11589,0.17469 -0.027,0.21708 -0.24383,0.19044 -0.0132,0.0929 -0.093,-0.0132 -0.12413,-0.0146 -0.21266,0.19429 -0.33314,0.148 -0.027,0.21709 -0.0132,0.0929 -0.13931,0.10886 -0.0132,0.0929 -0.10444,0.0815 -0.0928,-0.0132 -0.33693,0.17904 0.0132,-0.0929 -0.20184,-0.15073 -0.2323,0.0974 -0.0132,0.0929 -0.0495,0.40323 -0.0146,0.12411 -0.19762,0.0702 -0.32148,0.0549 -0.20576,-0.11964 -0.0929,-0.0132 0.0132,-0.0929 0.11976,-0.20569 -0.0817,-0.10445 -0.12412,-0.0146 -0.0132,0.0929 -0.11965,0.2057 -0.11589,0.17468 -0.25527,0.2835 -0.10832,0.11263 -0.12411,-0.0146 -0.17079,-0.1469 -0.20574,-0.11967 -0.0664,-0.22855 -0.11265,-0.10822 -0.0929,-0.0132 -0.31023,-0.0375 -0.11975,0.20569 -0.27801,0.46962 -0.10823,0.11265 -0.2286,0.0663 -0.22857,0.0663 -0.18608,-0.0222 -0.2324,0.0974 -0.0929,-0.0132 -0.22849,0.0663 -0.44136,0.26067 -0.25516,0.28351 -0.11966,0.20569 -0.13549,0.0777 -0.10455,0.0816 -0.23239,0.0974 -0.18608,-0.0222 -0.12411,-0.0146 -0.32171,0.0548 -0.21264,0.19428 -0.13549,0.0778 -0.33692,0.17902 -0.32149,0.0549 -0.10455,0.0815 -0.4184,0.0746 -0.1355,0.0778 -0.21286,0.19425 -0.53866,0.0282 -0.31023,-0.0375 -0.31022,-0.0375 -0.0929,-0.0132 -0.12413,-0.0146 -0.19742,0.0702 -1.13085,0.49084 -0.42984,0.16762 -0.22858,0.0663 -1.08825,0.40163 -0.0929,-0.0132 -0.13548,0.0778 -0.0929,-0.0132 -0.10824,0.11266 -0.65846,0.23398 -0.55015,0.12137 -0.32541,0.086 -0.093,-0.0132 -0.29495,-0.16216 -0.44947,0.0708 -0.0929,-0.0132 -0.75146,0.22259 -0.12414,-0.0146 -0.32158,0.0549 -0.31023,-0.0375 -0.17469,-0.11578 -0.2835,-0.2552 -0.40758,-0.27045 -0.17468,-0.11589 -0.13549,0.0777 -0.17469,-0.11589 -0.19045,-0.24378 -0.47778,-0.46796 -0.0815,-0.10444 -0.36515,-0.35967 -0.31022,-0.0375 -0.22852,0.0663 -0.10444,0.0815 -0.23238,0.0974 -0.11588,0.17467 -0.027,0.21709 -0.027,0.21708 -0.0132,0.0929 -0.12412,-0.0146 -0.0929,-0.0132 -0.20568,-0.11965 -0.10444,0.0815 -0.0929,-0.0132 -0.21708,-0.027 -0.10446,0.0816 -0.0146,0.12414 -0.13547,0.0777 -0.0132,0.0928 -0.0928,-0.0132 -0.027,0.2171 0.093,0.0132 0.31024,0.0375 0.11265,0.10824 0.0928,0.0132 -0.0146,0.12411 -0.0132,0.0929 -0.10445,0.0815 -0.13928,0.10885 -0.0929,-0.0132 -0.1158,0.17468 -0.1393,0.10884 -0.0132,0.0929 0.11263,0.10824 -0.0146,0.12411 -0.13548,0.0778 -0.10444,0.0815 -0.0929,-0.0132 -0.11265,-0.10823 -0.0929,-0.0132 -0.10444,0.0815 -0.23236,0.0974 -0.17902,-0.33682 -0.10444,0.0815 -0.10445,0.0816 -0.12412,-0.0146 -0.0816,-0.10445 -0.0928,-0.0132 -0.11266,-0.10823 0.027,-0.21708 -0.0929,-0.0132 -0.0132,0.093 -0.0146,0.12411 -0.0222,0.18616 -0.01,0.84889 -0.0645,0.5273 0.086,0.32542 -0.0132,0.0929 -0.1088,1.65532 -0.0146,0.12412 0.005,0.72482 -0.027,0.21708 -0.0496,0.40324 -0.0401,1.34893 0.0549,0.3216 -0.0146,0.12413 -0.0723,2.38395 -0.0375,0.31023 -0.0146,0.12412 -0.0132,0.0929 -0.027,0.21709 -0.0132,0.093 0.0815,0.10443 -0.0146,0.12413 -0.0222,0.18616 -0.0914,0.74441 0.0321,0.50769 -0.0645,0.52732 -0.0279,1.25591 0.0435,0.41466 -0.027,0.21708 -0.0597,1.25209 -0.002,1.03878 -0.0146,0.12412 -0.12413,-0.0146 -0.18615,-0.0222 -0.1355,0.0778 -0.0929,-0.0132 -0.10444,0.0815 -0.1393,0.10883 -0.0132,0.0929 -0.0929,-0.0132 -0.027,0.21709 -0.0132,0.093 -0.0132,0.0929 -0.10822,0.11265 -0.0132,0.0928 0.0816,0.10444 -0.11967,0.20572 -0.0132,0.0928 -0.13928,0.10883 -0.0132,0.0929 -0.0132,0.0928 -0.0929,-0.0132 -0.0929,-0.0132 -0.12413,-0.0146 -0.0929,-0.0132 -0.0929,-0.0132 -0.20572,-0.11966 -0.39179,-0.1425 0.0146,-0.12413 -0.23236,0.0974 -0.10442,0.0815 -0.2171,-0.027 -0.11964,0.20571 -0.0132,0.0929 -0.0132,0.0929 -0.15073,0.2019 -0.0132,0.0929 -0.0146,0.12413 -0.10444,0.0815 -0.10444,0.0816 -0.0146,0.12412 -0.0132,0.0928 -0.0132,0.0929 -0.13931,0.10884 -0.18616,-0.0222 -0.10884,-0.13929 -0.10823,0.11264 -0.0778,-0.13549 -0.12412,-0.0146 -0.29877,-0.13106 -0.0929,-0.0132 -0.0928,-0.0132 -0.13548,0.0777 -0.10823,0.11262 -0.11589,0.17469 -0.12413,-0.0146 -0.0146,0.12413 -0.0221,0.18617 -0.0146,0.12411 -0.0132,0.0929 -0.18617,-0.022 -0.13548,0.0777 -0.0929,-0.0132 -0.10825,0.11264 -0.22855,0.0663 -0.22852,0.0663 -0.10824,0.11264 -0.0929,-0.0132 -0.0132,0.0929 -0.21706,-0.027 -0.0929,-0.0132 -0.12413,-0.0146 -0.0929,-0.0132 -0.0132,0.0929 -0.0146,0.12414 -0.0132,0.0929 -0.31022,-0.0375 -0.0132,0.0929 -0.24379,0.19047 -0.10443,0.0815 -0.0146,0.12411 -0.10446,0.0816 -0.12413,-0.0146 -0.10445,0.0816 -0.10824,0.11265 -0.13548,0.0778 -0.0929,-0.0132 -0.10444,0.0815 -0.15072,0.20187 -0.25085,0.50446 -0.13548,0.0779 0.11263,0.10821 -0.0146,0.12415 -0.14691,0.17085 -0.0146,0.12413 -0.10445,0.0816 -0.0928,-0.0132 -0.1355,0.0777 -0.0146,0.12414 -0.0929,-0.0132 -0.0132,0.0929 -0.0132,0.0929 -0.0146,0.12411 -0.0132,0.093 0.0816,0.10444 -0.0146,0.12412 0.10123,0.20134 -0.12413,-0.0146 -0.0146,0.1241 -0.10445,0.0815 -0.10444,0.0815 -0.0146,0.12412 -0.13548,0.0778 -0.0132,0.0929 -0.0375,0.31023 -0.11965,0.20569 -0.0132,0.093 -0.25521,0.28351 -0.093,-0.0132 -0.0146,0.12412 -0.0132,0.0929 -0.0929,-0.0132 -0.0132,0.0929 -0.12412,-0.0146 -0.21276,0.19426 -0.0132,0.0929 -0.12413,-0.0146 -0.10822,0.11265 -0.0928,-0.0132 -0.12413,-0.0146 -0.0132,0.0929 -0.10445,0.0816 -0.0929,-0.0132 -0.13931,0.10884 -0.0132,0.0929 -0.0132,0.0929 -0.0374,0.31023 -0.0146,0.12411 -0.11589,0.17469 -0.0536,0.43419 -0.0377,0.31023 -0.10445,0.0815 -0.027,0.21709 -0.0222,0.18616 -0.0146,0.12411 -0.0132,0.0929 -0.0132,0.0928 -0.027,0.21709 -0.0132,0.0929 0.0778,0.13548 -0.0222,0.18616 -0.0146,0.12413 -0.0132,0.0929 -0.027,0.21708 -0.0132,0.0929 0.0816,0.10446 -0.0375,0.31021 -0.0146,0.12414 0.11265,0.10822 0.17469,0.11589 0.43421,0.0536 0.0929,0.0132 0.20189,0.15074 0.18616,0.0222 0.12413,0.0146 0.0929,0.0132 0.23234,-0.0974 0.19754,-0.0702 0.13546,-0.0778 0.0929,0.0132 0.0929,0.0132 0.11265,0.10823 0.0928,0.0132 0.0663,0.22853 0.12412,0.0146 0.0816,0.10445 0.0929,0.0132 0.11263,0.10824 0.17087,0.1469 0.11266,0.10823 -0.0132,0.0929 -0.0377,0.31022 -0.027,0.21707 -0.0132,0.0929 0.0928,0.0132 0.0663,0.22854 0.11265,0.10823 0.15943,0.23996 0.0974,0.23235 0.0815,0.10444 -0.0132,0.0929 0.0777,0.13547 0.11265,0.10825 -0.0132,0.0929 0.0779,0.1355 0.0929,0.0132 0.29876,0.13102 0.11264,0.10824 0.0928,0.0132 0.0549,0.32159 -0.0146,0.12413 -0.0375,0.3102 -0.0222,0.18619 -0.0146,0.12413 0.11267,0.10822 -0.15074,0.20189 -0.0132,0.093 -0.0132,0.0929 -0.10823,0.11266 -0.10444,0.0816 -0.1355,0.0777 -0.10824,0.11265 -0.0132,0.0929 -0.11966,0.20569 -0.34826,0.27209 -0.14691,0.17087 -0.0146,0.12413 0.086,0.3254 -0.0132,0.0929 -0.0132,0.0929 -0.027,0.21708 -0.15074,0.20189 -0.34826,0.27207 -0.11587,0.17469 -0.10825,0.11264 -0.13549,0.0778 -0.10443,0.0815 -0.23235,0.0974 -0.0132,0.0929 -0.027,0.2171 0.11265,0.10823 0.0815,0.10444 -0.0146,0.1241 -0.0222,0.18617 -0.0146,0.12412 -0.10444,0.0815 -0.0132,0.0929 0.0549,0.32158 -0.027,0.21709 -0.0132,0.0929 0.0778,0.13549 -0.0132,0.093 -0.0132,0.0929 -0.0146,0.12414 -0.10444,0.0815 -0.0929,-0.0132 -0.0132,0.0928 -0.0375,0.31021 -0.0146,0.12413 -0.0132,0.0929 -0.0132,0.0929 0.17086,0.14691 0.11266,0.10822 -0.0132,0.0929 -0.15073,0.2019 -0.0132,0.0929 -0.0146,0.12414 0.11265,0.10822 0.0435,0.41464 0.0397,0.44566 0.11267,0.10822 0.0929,0.0132 -0.0132,0.0929 -0.11965,0.20569 -0.22854,0.0663 -0.2552,0.28351 -0.10824,0.11265 -0.23996,0.15945 -0.10823,0.11266 -0.10444,0.0816 -0.15072,0.20188 -0.0132,0.0929 -0.027,0.21708 -0.0132,0.0929 0.11265,0.10823 0.0777,0.13548 0.0815,0.10444 0.12413,0.0146 0.0816,0.10445 0.0778,0.13547 0.12413,0.0146 0.0702,0.19751 0.0777,0.13549 -0.0132,0.0929 -0.0928,-0.0132 -0.0132,0.0928 -0.0146,0.12412 -0.0132,0.0928 -0.10444,0.0815 -0.0146,0.12411 0.0702,0.19754 -0.0146,0.12412 -0.0132,0.0929 -0.0132,0.0929 -0.0146,0.12411 -0.0132,0.0929 -0.0132,0.093 0.0777,0.13548 0.11266,0.10824 0.0816,0.10444 0.0778,0.13549 -0.0222,0.18618 -0.0146,0.12411 0.11265,0.10823 -0.0132,0.0929 -0.027,0.21708 -0.16216,0.29493 -0.027,0.21711 -0.0132,0.0929 -0.093,-0.0132 -0.10445,0.0816 -0.13932,0.10883 -0.0132,0.0929 -0.0132,0.093 -0.0146,0.12413 0.10122,0.20132 0.15944,0.23997 -0.0132,0.0929 -0.10824,0.11264 -0.0146,0.12413 12.67997,0.58092 0.48247,-9.82695 9.04336,0.19736 -0.2175,5.10531 2.8257,0.0635 -0.0694,2.101 6.0978,0.33939 0.0577,-2.00792 3.19801,0.10963 -0.96039,2.18047 3.92658,0.0725 -0.27341,9.6637 -2.51563,-0.0255 -0.0904,4.83753 9.9347,0.1179 -0.18253,12.25661 7.42334,0.31327 -0.10699,2.41118 c 0.27822,0.12423 0.57731,0.0974 0.84882,0.01 0.27148,-0.0876 0.51204,-0.25142 0.71614,-0.44732 0.19846,-0.186 0.46299,-0.21112 0.71657,-0.19539 0.25381,0.0148 0.50869,0.0664 0.7444,0.0914 0.58175,0.0112 0.99544,0.61277 1.5748,0.50822 0.30286,-0.0804 0.53405,-0.28694 0.66554,-0.54798 0.13151,-0.26103 0.16362,-0.57853 0.13764,-0.86466 0.0677,-0.63831 -0.38702,-1.11079 -0.71663,-1.59928 -0.17767,-0.47891 -0.64893,-0.75424 -0.85926,-1.20745 -0.10693,-0.51185 0.0865,-1.04742 0.12837,-1.55848 0.0209,-0.30466 0.21063,-0.43381 0.44458,-0.54361 0.23391,-0.10981 0.49659,-0.18802 0.67364,-0.35808 0.3726,-0.36188 0.93812,-0.63365 1.02843,-1.1961 0.0546,-0.70969 0.0632,-1.4365 -0.0202,-2.14342 l -3.44176,0.0812 0.0859,-4.80656 2.1277,-0.14805 0.10432,-7.26017 14.93109,0.19612 -0.0525,-9.82966 4.82183,-0.0377 0.0365,-2.60869 6.81452,0.14405 -0.0904,-2.34097 -0.80644,-0.0991 0.02,-5.03508 4.93065,0.10167 0.064,-9.75239 7.03539,0.13971 -0.0392,-1.98837 -0.0619,-0.007 -0.0929,-0.0132 -0.0929,-0.0132 0.0146,-0.12414 -0.12414,-0.0146 -0.10824,0.11266 -0.0929,-0.0132 -0.10883,-0.13931 -0.0817,-0.10444 -0.0817,-0.10446 0.0146,-0.12412 0.0132,-0.0929 -0.12412,-0.0146 -0.093,-0.0132 -0.20564,-0.11965 -0.0929,-0.0132 -0.0664,-0.22854 0.0132,-0.0929 0.0146,-0.12412 0.10454,-0.0815 0.093,0.0132 0.0132,-0.0929 0.15071,-0.20188 0.10444,-0.0815 0.13104,-0.29875 0.23241,-0.0974 0.0132,-0.093 0.10454,-0.0815 0.0146,-0.12412 0.12413,0.0146 0.0132,-0.0929 0.0132,-0.0929 0.0146,-0.12414 -0.11265,-0.10822 -0.0929,-0.0132 -0.21713,-0.027 -0.0929,-0.0132 0.0132,-0.0929 -0.17899,-0.33683 0.0146,-0.12412 0.0132,-0.093 0.0132,-0.0928 0.13931,-0.10882 0.10443,-0.0815 -0.0815,-0.10444 -0.10883,-0.13932 -0.18625,-0.0222 -0.13933,0.10884 -0.093,-0.0132 -0.0928,-0.0132 0.0146,-0.12411 -0.20575,-0.11966 -0.0929,-0.0132 -0.11265,-0.10823 -0.0777,-0.13548 -0.0929,-0.0132 -0.12411,-0.0146 -0.0929,-0.0132 -0.0929,-0.0132 0.0132,-0.0929 -0.11264,-0.10823 -0.17078,-0.1469 -0.12412,-0.0146 -0.093,-0.0132 -0.10832,0.11264 0.0703,0.19753 -0.0929,-0.0132 -0.12413,-0.0146 -0.0816,-0.10445 -0.093,-0.0132 -0.12414,-0.0146 -0.0132,0.0929 -0.0929,-0.0132 -0.20575,-0.11965 -0.0929,-0.0132 0.0132,-0.093 0.0146,-0.12411 0.0132,-0.0929 -0.0929,-0.0132 -0.12412,-0.0146 -0.10455,0.0815 -0.10832,0.11265 -0.32147,0.0549 -0.22861,0.0663 -0.0929,-0.0132 0.0132,-0.0929 -0.20566,-0.11966 -0.0929,-0.0132 -0.12413,-0.0146 -0.0132,0.0929 -0.10454,0.0816 -0.0929,-0.0132 0.0132,-0.0928 0.0132,-0.0929 0.0146,-0.12412 -0.12413,-0.0146 -0.36507,-0.35967 -0.20575,-0.11967 -0.18609,-0.0221 0.0132,-0.0929 -0.12412,-0.0146 -0.093,-0.0132 -0.0132,0.0929 -0.10453,0.0815 -0.13931,0.10884 -0.0929,-0.0132 -0.22849,0.0664 -0.0132,0.0929 -0.0929,-0.0132 -0.0817,-0.10445 0.0132,-0.0929 -0.12412,-0.0146 -0.0779,-0.13549 -0.0929,-0.0132 -0.11265,-0.10822 -0.10454,0.0815 -0.0929,-0.0132 0.0132,-0.0928 -0.11265,-0.10824 -0.0777,-0.13548 -0.0929,-0.0132 -0.12412,-0.0146 -0.0146,0.12412 -0.0132,0.0929 -0.0132,0.0929 -0.093,-0.0132 -0.0929,-0.0132 -0.21704,-0.027 -0.093,-0.0132 0.0132,-0.0929 0.0132,-0.0929 -0.10882,-0.1393 -0.0703,-0.19754 0.0146,-0.12412 -0.0817,-0.10446 -0.12414,-0.0146 -0.10444,0.0816 -0.0816,-0.10445 -0.12414,-0.0146 -0.0132,0.0929 -0.10835,0.11265 -0.0132,0.0929 -0.0931,-0.0132 -0.12413,-0.0146 -0.0929,-0.0132 -0.0929,-0.0132 -0.12413,-0.0146 -0.0929,-0.0132 -0.0132,0.0929 -0.23241,0.0974 -0.10446,0.0815 -0.0815,-0.10443 0.0146,-0.12414 -0.11265,-0.10821 -0.093,-0.0132 -0.0132,0.0929 -0.10832,0.11264 -0.0221,0.18617 -0.0146,0.12411 -0.0375,0.31023 -0.12412,-0.0146 -0.0929,-0.0132 -0.22849,0.0663 -0.0132,0.0929 -0.18628,-0.0222 -0.11264,-0.10823 -0.0929,-0.0132 -0.0929,-0.0132 -0.12413,-0.0146 0.0132,-0.0929 -0.0779,-0.13551 -0.0703,-0.19753 0.0146,-0.12413 -0.11266,-0.10822 -0.0929,-0.0132 -0.21705,-0.027 -0.0817,-0.10445 -0.10454,0.0815 -0.12413,-0.0146 -0.10444,0.0815 -0.093,-0.0132 0.0132,-0.0929 0.0132,-0.0929 -0.10883,-0.1393 -0.0929,-0.0132 -0.21712,-0.027 -0.0929,-0.0132 -0.10824,0.11264 -0.13548,0.0777 -0.0132,0.0929 -0.0929,-0.0132 0.0132,-0.0929 -0.0929,-0.0132 -0.0132,0.0929 -0.13931,0.10884 -0.0929,-0.0132 -0.0929,-0.0132 0.0146,-0.12414 0.0132,-0.0929 0.11966,-0.20568 -0.0929,-0.0132 -0.12411,-0.0146 -0.093,-0.0132 -0.0929,-0.0132 -0.0146,0.12415 -0.0132,0.0928 -0.12412,-0.0146 -0.10446,0.0815 -0.0928,-0.0132 -0.11264,-0.10822 -0.18629,-0.0222 -0.11263,-0.10823 -0.0929,-0.0132 -0.0929,-0.0132 -0.10884,-0.13929 0.0132,-0.0929 -1.64935,-0.92667 -0.20196,-0.15072 -0.0929,-0.0132 -0.8809,-0.51746 -0.70633,-0.40159 -1.26904,-0.69104 -0.60893,-0.16917 -0.70202,-0.18059 -0.10883,-0.13932 -0.31011,-0.0375 -0.31033,-0.0376 -0.0929,-0.0132 0.0132,-0.0929 -0.093,-0.0132 -0.21713,-0.027 -0.0929,-0.0132 -1.12095,-0.35803 -1.91605,-0.55011 -0.91897,-0.20724 -0.42293,-0.14633 -0.91516,-0.23831 -0.0929,-0.0132 -0.70204,-0.1806 -0.42271,-0.14631 -0.91538,-0.23832 -0.79492,-0.19202 -0.20575,-0.11966 -0.0929,-0.0132 -0.21705,-0.027 -1.30702,-0.38084 -0.12412,-0.0146 -0.093,-0.0132 -0.39175,-0.14251 -0.82227,-0.22689 -0.60892,-0.16918 -0.70202,-0.1806 -0.12412,-0.0146 -0.60512,-0.20024 -0.18608,-0.0222 -0.20574,-0.11969 -0.0929,-0.0132 -1.02783,-0.3466 -2.52495,-0.71932 0.0132,-0.0929 0.0146,-0.12411 -0.0929,-0.0132 0.0132,-0.0929 0.0929,0.0132 0.027,-0.21708 -0.0817,-0.10447 -0.12413,-0.0146 0.0132,-0.0929 0.0146,-0.12411 -0.0929,-0.0132 -0.0815,-0.10454 0.0132,-0.0929 0.0146,-0.12412 0.0132,-0.0929 -0.12414,-0.0146 -0.15952,-0.23998 0.0132,-0.0929 -0.11263,-0.10823 -0.0929,-0.0132 -0.0663,-0.22854 0.0132,-0.0929 0.0146,-0.12412 0.0132,-0.093 0.0132,-0.0929 -0.10883,-0.13931 0.0222,-0.18617 -0.0778,-0.1355 -0.21714,-0.027 -0.0549,-0.3216 0.0132,-0.0929 0.0132,-0.0929 -0.21705,-0.027 -0.0779,-0.13551 0.0132,-0.0929 0.0929,0.0132 0.0132,-0.093 -0.0779,-0.1355 -0.21713,-0.027 0.0132,-0.0928 -0.14793,-0.33301 -0.0974,-0.23235 0.0132,-0.0929 -0.0929,-0.0132 -0.21713,-0.027 0.0132,-0.0929 -0.0929,-0.0132 -0.10444,0.0815 -0.12413,-0.0146 -0.18626,-0.0221 -0.13547,0.0777 -0.0817,-0.10444 -0.0929,-0.0132 0.0132,-0.0929 0.0146,-0.12413 -0.12412,-0.0146 0.14693,-0.17086 -0.10883,-0.1393 -0.0929,-0.0132 -0.0146,0.12411 -0.0132,0.0929 -0.0929,-0.0132 -0.12412,-0.0146 -0.0929,-0.0132 -0.10445,0.0815 -0.11264,-0.10822 -0.10455,0.0815 -0.0929,-0.0132 0.0132,-0.0929 0.10455,-0.0816 0.0146,-0.12412 0.0132,-0.0929 0.0132,-0.0929 0.0146,-0.12412 -0.19432,-0.21277 -0.0929,-0.0132 -0.0928,-0.0132 0.0146,-0.12413 0.0132,-0.0928 -0.12413,-0.0146 -0.10454,0.0815 -0.0929,-0.0132 -0.027,0.21708 -0.027,0.21709 -0.12414,-0.0146 0.0146,-0.12413 -0.0929,-0.0132 -0.0928,-0.0132 -0.13932,0.10885 -0.0929,-0.0132 -0.24003,0.15945 -0.0929,-0.0132 -0.0929,-0.0132 0.0132,-0.0929 0.0132,-0.0929 -0.10883,-0.13929 -0.0929,-0.0132 -0.0703,-0.19753 -0.10884,-0.13929 0.0132,-0.0929 -0.0815,-0.10444 -0.32157,0.0548 -0.6868,-0.30471 -0.11264,-0.10823 -0.0929,-0.0132 -0.28351,-0.25519 -0.20573,-0.11967 -0.32151,0.0549 -0.33692,0.17903 -0.18606,-0.0222 -0.11266,-0.10823 -0.0929,-0.0132 -0.48917,-0.37493 -0.74178,-0.62631 -0.12415,-0.0146 0.0132,-0.0929 -0.17077,-0.14693 -0.19432,-0.21276 -0.20195,-0.15073 -0.45818,-0.37109 -0.11265,-0.10823 -0.0816,-0.10445 -0.0778,-0.13549 -0.68347,-0.58768 -0.093,-0.0132 -0.16926,0.60891 -0.22849,0.0663 0.0282,0.53871 -0.22407,0.28733 -0.12412,-0.0146 -0.45278,0.35371 -0.0929,-0.0132 -0.461,0.16376 -0.10444,0.0816 -0.66986,0.32707 -0.2323,0.0974 -0.10455,0.0816 -0.24385,0.19047 -0.10443,0.0815 -0.10444,0.0816 -0.12413,-0.0146 -0.093,-0.0132 -0.21713,-0.027 -0.18606,-0.0222 -0.11266,-0.10824 -0.15955,-0.23997 0.0132,-0.0929 0.21285,-0.19427 0.27798,-0.4696 0.11967,-0.20572 0.0132,-0.0929 0.0762,-0.62034 0.1393,-0.10884 0.10454,-0.0815 0.10453,-0.0815 0.23233,-0.0974 0.34826,-0.27209 0.11597,-0.17467 0.15074,-0.20189 0.10445,-0.0816 -0.32711,-0.66985 -0.24534,-0.56536 -0.0974,-0.23235 0.0222,-0.18617 0.34815,-0.27211 0.13931,-0.10883 0.0132,-0.0929 -0.0974,-0.23235 0.13549,-0.0778 0.0132,-0.0929 0.41851,-0.0746 0.1159,-0.17468 0.027,-0.21709 0.1355,-0.0778 0.22427,-0.2873 0.12414,0.0146 0.11966,-0.20568 0.0132,-0.0929 0.13105,-0.29875 0.027,-0.21709 0.17358,-0.38799 0.25094,-0.50441 0.15073,-0.2019 0.0929,0.0132 0.10444,-0.0815 0.0132,-0.0929 0.0146,-0.12415 -0.0816,-0.10444 -0.62575,-0.80096 -0.2722,-0.34828 -0.56701,-0.51042 -0.12413,-0.0146 -0.39175,-0.1425 -0.21715,-0.027 z m 4.72279,2.56342 -0.22408,0.28735 -0.16216,0.29492 -0.22429,0.28732 -0.47223,0.25686 -0.10833,0.11263 -0.22857,0.0663 -0.19743,0.0702 -0.13929,0.10883 -0.1159,0.17469 -0.23239,0.0974 -0.0221,0.18616 -0.0146,0.12414 -0.093,-0.0132 -0.10444,0.0815 -0.32168,0.0548 -0.4608,0.16382 -0.10454,0.0815 -0.0146,0.12411 -0.0132,0.0929 0.0817,0.10445 -0.0375,0.31024 -0.0375,0.31023 0.31012,0.0374 0.13549,-0.0778 0.0929,0.0132 0.0132,-0.0929 0.44126,-0.26067 0.2705,-0.40756 0.10454,-0.0815 0.21702,0.027 0.21706,0.027 0.32168,-0.0548 0.3253,-0.086 0.0929,0.0132 0.0132,-0.093 0.10454,-0.0815 0.0146,-0.12414 -0.093,-0.0132 -0.0929,-0.0132 -0.21701,-0.027 -0.29877,-0.13105 0.11975,-0.20568 0.14693,-0.17085 0.33675,-0.17905 0.66984,-0.32706 0.18626,0.0222 0.5539,-0.15237 0.0929,0.0132 0.13548,-0.0779 0.10821,-0.11266 -0.0815,-0.10444 -0.29886,-0.13104 0.0146,-0.12414 -0.11264,-0.10823 -0.15935,-0.23995 -0.31033,-0.0376 -0.12412,-0.0146 z"
       id="WI-7" />
    <path
       inkscape:connector-curvature="0"
       d="m 426.49635,578.82107 0.0393,1.98835 -7.03541,-0.1397 -0.064,9.75241 -4.93065,-0.10167 -0.02,5.03509 0.80642,0.0991 0.0904,2.34096 -6.81453,-0.14415 -0.0365,2.6087 -4.82182,0.0377 0.0524,9.82966 0,0 0.0809,12.16304 9.14016,0.17774 0.10731,4.76737 2.42635,-0.017 -0.12516,-2.31374 2.53087,-0.0985 -0.005,-2.51944 2.25171,-0.13284 0.22442,8.68586 4.93067,0.10167 0.0838,1.11225 2.28714,0.0917 -0.18854,-10.00379 3.24421,-0.011 -0.0985,-2.53086 7.06207,-0.0774 0.16547,-0.5779 0.18881,-0.51205 0.11965,-0.20571 -0.0436,-0.41464 0.0132,-0.0929 0.0644,-0.52732 0.10444,-0.0815 0.027,-0.21707 0.0645,-0.52732 0.0132,-0.0929 0.0375,-0.31022 0.0132,-0.0929 0.027,-0.21708 0.11968,-0.20571 0.0132,-0.0929 0.0132,-0.0929 0.0914,-0.74441 0.0132,-0.0929 0.27639,-1.22546 0.42453,-0.89242 0.0132,-0.0929 0.15775,-0.51587 0.0929,0.0132 0.0132,-0.0929 0.25526,-0.28348 0.0146,-0.12411 0.24003,-0.15947 0.0929,0.0132 0.0146,-0.12413 0.13106,-0.29876 0.16215,-0.29493 0.14261,-0.39179 0.11976,-0.20569 0.0375,-0.31023 0.27799,-0.46961 0.28181,-0.50064 0.0646,-0.52732 0.27381,-0.69053 0.0132,-0.0929 0.027,-0.21709 0.027,-0.21709 0.0132,-0.0929 0.027,-0.21711 0.0132,-0.0929 0.25515,-0.28352 0.10444,-0.0815 0.33694,-0.17903 0.0646,-0.5273 0.0132,-0.0929 0.16217,-0.29495 0.10443,-0.0815 1.13786,-0.80482 -0.0664,-0.22854 -0.1791,-0.33684 0.0375,-0.31023 0.16215,-0.29493 0.34835,-0.27208 0.32149,-0.0549 0.0146,-0.12413 -0.11265,-0.10824 0.0132,-0.0929 -0.28341,-0.25519 -0.0284,-0.53872 0.14261,-0.3918 0.38625,-0.58225 0.15071,-0.2019 0.0929,0.0132 0.22858,-0.0663 0.20725,-0.91909 0.027,-0.21707 0.11578,-0.17471 0.52738,0.0646 0.2323,-0.0975 0.0495,-0.40321 0.33693,-0.17902 0.0375,-0.31022 0.18608,0.0222 -0.0169,-0.63177 0.0132,-0.0928 -0.0815,-0.10444 0.0146,-0.12412 0.0222,-0.18617 0.11965,-0.20569 0.24374,-0.19048 0.0132,-0.0929 -0.27199,-0.34823 -0.0745,-0.41847 0.12938,-1.0546 0.16216,-0.29491 0.41458,-0.0435 0.0664,0.22855 0.11265,0.10824 0.33671,-0.17906 0.13116,-0.29873 0.0761,-0.62035 -0.10832,0.11264 -0.10883,-0.1393 -0.0702,-0.19752 0.027,-0.21708 0.24375,-0.19049 0.0222,-0.18616 -0.17898,-0.33681 -0.0777,-0.1355 -0.20575,-0.11966 -0.53865,0.0282 -0.22427,0.28731 -0.23232,0.0974 -0.21702,-0.027 -0.0664,-0.22856 -0.26667,0.37654 -0.14632,0.42283 -0.56542,0.24542 -0.15394,0.48486 -0.0645,0.52732 -0.0375,0.31022 0.0663,0.22853 -0.0132,0.0929 -0.027,0.21708 -0.0132,0.0929 -0.17461,-0.11579 -0.32166,0.0548 -0.0132,0.0929 -0.12411,-0.0146 -0.20124,0.10124 -0.0132,0.0928 -0.16214,0.29494 -0.44136,0.26065 -0.31022,-0.0375 -0.19052,-0.24377 -0.18608,-0.0222 -0.15072,0.20188 -0.0644,0.52731 0.086,0.32542 -0.24003,0.15944 -0.13114,0.29874 -0.0536,0.4342 0.0436,0.41464 -0.0132,0.0929 -0.11976,0.2057 -0.16215,0.29494 -0.21267,0.19428 -0.25523,0.2835 -0.10454,0.0815 -0.0132,0.0929 -0.24371,0.19045 -0.11967,0.20572 -0.29333,0.59367 -0.40919,0.76836 -0.3199,0.81083 -0.13114,0.29871 -0.027,0.21709 -0.10454,0.0816 -0.0132,0.0929 -0.15074,0.20187 -0.0132,0.0929 -0.13104,0.29874 -0.027,0.2171 0.2835,0.2552 0.20576,0.11966 0.0663,0.22855 -0.0612,0.49625 -0.23231,0.0974 -0.19762,0.0702 -0.12413,-0.0146 -0.13648,-0.42605 0.027,-0.21708 -0.11266,-0.10823 -0.17096,-0.14694 -0.12413,-0.0146 -0.82759,0.84294 -0.4185,0.0746 -0.29484,-0.16215 -0.25525,0.2835 -0.42984,0.16761 -0.44576,0.0397 -0.18608,-0.0221 -0.59208,0.46255 -0.37491,0.48919 -0.0132,0.0929 -0.10454,0.0815 -0.16216,0.29492 -0.0146,0.12414 -0.75745,1.04044 -0.10823,0.11266 -0.29323,0.59368 -0.35979,0.36512 0.0974,0.23237 0.055,0.32159 -0.0375,0.31022 -0.26668,0.37656 -0.10445,0.0815 -0.25515,0.28351 -0.0376,0.31022 -0.027,0.21709 -0.11974,0.20568 -0.0929,-0.0132 -0.22847,0.0664 -0.64701,0.14094 -0.34825,0.27209 -0.10454,0.0815 -0.68511,0.45111 -0.51029,0.56707 -0.19763,0.0702 -0.0132,0.0928 0.0779,0.1355 -0.0132,0.0929 -0.027,0.21708 -0.29333,0.59368 -0.11589,0.17468 -0.0928,-0.0132 -0.0146,0.12413 -0.33313,0.148 -0.54248,0.0593 -0.29494,-0.16217 -0.0929,-0.0132 -0.21714,-0.027 -0.0817,-0.10445 -0.20564,-0.11965 -0.20184,-0.15071 -0.2722,-0.34827 -0.0815,-0.10445 0.0132,-0.0929 0.0146,-0.12412 0.10444,-0.0815 0.13548,-0.0778 0.10833,-0.11266 0.0132,-0.0929 0.10453,-0.0815 0.0375,-0.31024 0.23229,-0.0974 0.10444,-0.0815 0.0132,-0.0929 -0.0777,-0.13548 -0.16756,-0.42989 -0.0664,-0.22854 0.116,-0.17467 0.0536,-0.43422 0.0132,-0.0929 0.24373,-0.19045 0.0222,-0.18619 0.027,-0.21708 0.0132,-0.0929 0.0146,-0.12412 -0.005,-0.72482 0.0132,-0.0928 0.22408,-0.28732 0.16214,-0.29494 0.11976,-0.20569 0.0929,0.0132 0.0132,-0.0929 0.23231,-0.0974 0.30467,-0.68675 0.14261,-0.39179 0.14641,-0.42281 0.16216,-0.29494 0.0132,-0.0929 0.0132,-0.0928 0.0146,-0.12414 0.33291,-0.14803 0.10834,-0.11263 0.10454,-0.0815 0.12413,0.0146 0.11965,-0.20569 0.11589,-0.17468 0.0146,-0.12412 0.0132,-0.093 0.0132,-0.0929 0.15072,-0.2019 0.10454,-0.0815 0.10833,-0.11264 0.0132,-0.0928 0.15071,-0.20188 0.0132,-0.0928 -0.12413,-0.0146 0.0132,-0.0929 -0.0779,-0.13552 -0.0817,-0.10444 0.0132,-0.0929 -0.10882,-0.13931 0.0221,-0.18616 -0.0777,-0.13549 0.11588,-0.17469 0.0146,-0.12412 0.37121,-0.45816 0.13929,-0.10884 0.51914,-0.12517 0.33673,-0.17906 0.12411,0.0146 1.38331,-0.23945 0.63557,-0.0478 0.10453,-0.0815 0.53867,-0.0283 0.12938,-1.05461 -0.11816,-0.83309 0.30858,-0.71775 0.0221,-0.18617 0.10832,-0.11263 0.0132,-0.0929 0.22849,-0.0663 0.0929,0.0132 0.0146,-0.12412 -0.0702,-0.19753 -0.52738,-0.0645 -0.0777,-0.13549 -0.0929,-0.0132 -0.12411,-0.0146 -0.0929,-0.0132 -0.21713,-0.027 -0.0816,-0.10446 -0.10445,0.0816 -0.12411,-0.0146 0.0132,-0.0929 0.0132,-0.0928 -0.0929,-0.0132 0.0146,-0.12412 -0.0929,-0.0132 -0.12412,-0.0146 -0.0548,-0.32159 0.0132,-0.0929 -0.19043,-0.24376 -0.0817,-0.10446 0.0132,-0.0929 -0.0929,-0.0132 -0.12413,-0.0146 -0.0929,-0.0132 0.0146,-0.12412 -0.0929,-0.0132 0.0132,-0.0929 -0.21713,-0.027 -0.0817,-0.10446 -0.10882,-0.1393 -0.0929,-0.0132 -0.0929,-0.0132 0.0132,-0.0929 0.0132,-0.0929 -0.15244,-0.55394 0.0132,-0.0928 0.0929,0.0132 0.0146,-0.12413 0.22851,-0.0663 0.0132,-0.0929 0.0146,-0.12412 -0.093,-0.0132 0.0132,-0.0929 0.10443,-0.0815 0.0146,-0.12412 0.0132,-0.0929 -0.0929,-0.0132 0.0132,-0.0929 0.11966,-0.20571 0.0929,0.0132 0.0132,-0.0929 0.0146,-0.12414 0.0132,-0.0929 0.0132,-0.0929 0.0146,-0.12412 0.0132,-0.0929 0.15072,-0.20188 0.0929,0.0132 0.0132,-0.0929 0.0132,-0.0929 -0.0929,-0.0132 0.027,-0.21709 0.11977,-0.20568 0.093,0.0132 0.0222,-0.18616 0.0146,-0.12415 0.14695,-0.17085 0.0928,0.0132 0.13105,-0.29875 0.1393,-0.10883 0.0132,-0.0929 0.0132,-0.0929 0.0146,-0.12412 0.093,0.0132 0.13114,-0.29874 0.0132,-0.0929 -0.0664,-0.22855 -0.0929,-0.0132 -0.10121,-0.20133 0.0146,-0.12413 0.0132,-0.0929 -0.37651,-0.26663 0.0132,-0.0929 -0.20575,-0.11968 0.0146,-0.12412 -0.0929,-0.0132 -0.0929,-0.0132 -0.1393,0.10882 -0.10453,0.0815 -0.0132,0.0929 -0.23238,0.0974 -0.23552,0.38039 -0.13549,0.0777 -0.0146,0.12412 -0.19763,0.0702 -0.0132,0.093 -0.1393,0.10882 -0.0929,-0.0132 -0.20184,-0.15074 -0.0146,0.12414 -0.093,-0.0132 -0.0929,-0.0132 -0.12413,-0.0146 -0.0777,-0.13548 -0.23231,0.0974 -0.10454,0.0815 -0.0929,-0.0132 -0.21704,-0.027 -0.0928,-0.0132 -0.12413,-0.0146 -0.027,0.21707 -0.093,-0.0132 -0.10454,0.0816 -0.12411,-0.0146 0.0132,-0.0929 0.0146,-0.12413 -0.18607,-0.0222 -0.11264,-0.10824 0.0132,-0.0929 -0.0929,-0.0132 -0.0132,0.0929 -0.0929,-0.0132 -0.13549,0.0779 -0.0929,-0.0132 0.0132,-0.0929 0.027,-0.2171 0.10446,-0.0816 0.13549,-0.0778 0.0146,-0.12411 -0.11264,-0.10823 0.0132,-0.0929 0.12413,0.0146 0.10832,-0.11264 0.10453,-0.0815 0.0132,-0.0929 -0.078,-0.1355 0.0132,-0.0929 0.22859,-0.0663 0.027,-0.21712 0.0132,-0.0929 -0.12411,-0.0146 -0.078,-0.13552 -0.0816,-0.10444 0.027,-0.21709 0.0132,-0.0928 0.027,-0.21708 0.0929,0.0132 0.10455,-0.0815 0.027,-0.21709 0.21703,0.027 0.0132,-0.0929 0.0132,-0.0929 0.10824,-0.11265 0.12413,0.0146 0.20905,-0.16325 0.0146,-0.12412 0.13549,-0.0778 0.0132,-0.0929 -0.12411,-0.0146 0.0146,-0.12412 0.23993,-0.15947 0.0146,-0.12412 0.0132,-0.0929 0.0132,-0.0929 0.0146,-0.12412 0.0132,-0.0929 -0.0929,-0.0132 -0.0974,-0.23235 -0.055,-0.32161 0.0222,-0.18617 0.0146,-0.12412 0.0132,-0.0929 -0.0818,-0.10447 -0.20183,-0.15072 -0.0815,-0.10444 -0.11264,-0.10822 -0.17097,-0.14694 0.022,-0.18617 0.093,0.0132 0.31021,0.0374 0.0816,0.10445 0.21714,0.027 0.10454,-0.0816 0.0146,-0.12412 0.0222,-0.18618 0.0146,-0.12413 0.0132,-0.0929 0.13547,-0.0778 0.10823,-0.11263 0.0132,-0.093 0.0132,-0.0929 0.0146,-0.12412 -0.0815,-0.10443 0.0132,-0.0929 -0.0974,-0.23236 -0.18626,-0.0222 -0.11265,-0.10823 0.0146,-0.1241 -0.17458,-0.1158 -0.086,-0.32541 -0.17478,-0.11592 -0.12411,-0.0146 -0.0665,-0.22853 0.10444,-0.0815 -0.0777,-0.13548 0.0132,-0.0929 0.41471,-0.0435 0.13929,-0.10884 0.0132,-0.0929 0.32148,-0.0548 0.027,-0.21708 -0.12412,-0.0146 -0.0816,-0.10445 -0.28353,-0.25522 -0.0929,-0.0132 -0.11265,-0.10823 0.1393,-0.10883 0.0132,-0.0929 -0.11266,-0.10823 -0.0928,-0.0132 -0.31022,-0.0375 -0.0779,-0.13551 -0.12412,-0.0146 -0.17459,-0.1159 -0.11265,-0.1082 -0.15953,-0.24 0.027,-0.21707 -0.11265,-0.10824 0.0132,-0.0929 -0.093,-0.0132 -0.0777,-0.13549 -0.12413,-0.0146 -0.20142,0.1012 -0.12413,-0.0146 -0.0928,-0.0132 0.0146,-0.12412 -0.0928,-0.0132 -0.12413,-0.0146 -0.20143,0.10122 0.0146,-0.12413 -0.12414,-0.0146 -0.10823,0.11266 -0.21703,-0.027 -0.093,-0.0132 -0.0929,-0.0132 -0.1355,0.0778 -0.0816,-0.10444 -0.0779,-0.13549 -0.12411,-0.0146 -0.0817,-0.10444 -0.0929,-0.0132 -0.12413,-0.0146 0.0132,-0.0929 0.12412,0.0146 0.0146,-0.12411 0.0222,-0.18618 -0.0974,-0.23235 -0.0928,-0.0132 0.0132,-0.093 -0.0928,-0.0132 -0.13549,0.0777 -0.0929,-0.0132 -0.0132,0.0929 -0.0929,-0.0132 -0.12414,-0.0146 -0.0928,-0.0132 -0.10823,0.11265 -0.12412,-0.0146 -0.0929,-0.0132 -0.0132,0.0929 -0.10454,0.0815 -0.12412,-0.0146 -0.0146,0.12413 -0.0929,-0.0132 -0.0929,-0.0132 -0.0622,-0.007 z m 24.59896,9.41177 0.086,0.3254 -0.0132,0.0929 -0.46098,0.16378 -0.1746,-0.11577 -0.3103,-0.0377 -0.33292,0.14804 -0.44958,0.0708 -0.17077,-0.14692 -0.10121,-0.20132 -0.093,-0.0132 -0.10454,0.0815 -0.23832,0.91528 0.15242,0.55396 -0.0221,0.18617 -0.10834,0.11262 -0.0132,0.0929 -0.027,0.21708 0.16336,0.20898 0.21704,0.027 0.28352,0.2552 0.17908,0.33684 0.26056,0.44129 0.0929,0.0132 0.0132,-0.0929 0.027,-0.21709 -0.0436,-0.41465 0.027,-0.21709 0.19761,-0.0702 0.21704,0.027 0.10446,-0.0816 0.027,-0.21708 -0.0549,-0.3216 0.13107,-0.29875 0.15071,-0.20188 0.26237,-0.59748 0.278,-0.46962 0.21705,0.027 0.18626,0.0222 0.027,-0.21708 -0.0664,-0.22855 -0.20575,-0.11967 -0.18607,-0.0222 -0.12412,-0.0146 z m -13.14771,10.66469 -0.0132,0.0929 0.0929,0.0132 0.0929,0.0132 0.12411,0.0146 0.0132,-0.0929 -0.12414,-0.0146 -0.0929,-0.0132 -0.0929,-0.0132 z"
       id="WI-8" />
  </g>
</svg>
