<?xml version="1.0" encoding="UTF-8" standalone="no"?>
<!-- Created with Inkscape (http://www.inkscape.org/) -->
<?xml-stylesheet type="text/css" href="/stylesheets/state.css" ?>
<svg
   xmlns:dc="http://purl.org/dc/elements/1.1/"
   xmlns:cc="http://creativecommons.org/ns#"
   xmlns:rdf="http://www.w3.org/1999/02/22-rdf-syntax-ns#"
   xmlns:svg="http://www.w3.org/2000/svg"
   xmlns="http://www.w3.org/2000/svg"
   xmlns:sodipodi="http://sodipodi.sourceforge.net/DTD/sodipodi-0.dtd"
   xmlns:inkscape="http://www.inkscape.org/namespaces/inkscape"
   width="100%"
   height="300px"
   viewBox="0 0 149.30816 114.32676"
   id="svg12983"
   version="1.1"
   inkscape:version="0.91 r"
   sodipodi:docname="WY.svg">
  <defs
     id="defs12985" />
  <sodipodi:namedview
     id="base"
     pagecolor="#ffffff"
     bordercolor="#666666"
     borderopacity="1.0"
     inkscape:pageopacity="0.0"
     inkscape:pageshadow="2"
     inkscape:zoom="6.5635142"
     inkscape:cx="83.813492"
     inkscape:cy="62.149278"
     inkscape:document-units="px"
     inkscape:current-layer="layer1"
     showgrid="false"
     fit-margin-top="0"
     fit-margin-left="0"
     fit-margin-right="0"
     fit-margin-bottom="0"
     inkscape:window-width="1920"
     inkscape:window-height="1028"
     inkscape:window-x="0"
     inkscape:window-y="0"
     inkscape:window-maximized="1" />
  <metadata
     id="metadata12988">
    <rdf:RDF>
      <cc:Work
         rdf:about="">
        <dc:format>image/svg+xml</dc:format>
        <dc:type
           rdf:resource="http://purl.org/dc/dcmitype/StillImage" />
        <dc:title></dc:title>
      </cc:Work>
    </rdf:RDF>
  </metadata>
  <g
     inkscape:label="Layer 1"
     inkscape:groupmode="layer"
     id="layer1"
     transform="translate(-322.16839,-537.9668)">
    <path
       inkscape:connector-curvature="0"
       d="m 366.20736,539.31746 0.38049,0.0142 0.10691,0.002 2.13594,0.0265 1.82795,0.0297 3.5,0.0376 0.36779,0.004 0.87767,0.006 0.86582,0.007 0.24912,0.002 1.30733,0.0397 4.58936,0.0252 0.42967,0.0336 0.22353,-0.0197 0.13049,0.002 0.23627,-0.008 0.0354,-0.004 1.37479,-0.002 2.97618,0.0123 0.0707,-0.005 1.70834,0.0165 0.60507,0.007 2.62128,0.0197 2.83297,10e-4 0.0236,-10e-4 2.3103,-0.0124 1.80135,-0.003 1.01884,-0.006 0.49823,0.004 0.14221,5.1e-4 0.4275,0.01 0.29613,-0.002 2.97629,0.0122 0.16775,0.0209 0.40411,0.0122 0.41995,0.058 0.18928,-0.004 0.48739,0.0166 0.91192,-0.009 0.29613,-0.002 0.0118,-10e-4 1.47004,0.002 0.29613,-0.002 0.17749,-0.003 0.0833,0.006 6.35038,-0.0341 1.0306,-0.007 5.1167,-0.0447 1.61007,-0.0221 3.17212,-0.0524 1.92974,-0.0267 0.27966,-0.1904 0.01,-0.0247 0.0833,0.006 1.23166,-0.0125 5.05164,-0.11008 0.63939,-0.008 3.84357,-0.0993 3.324,-0.0773 0,0 2.30518,-0.0714 1.02851,-0.031 0.26079,10e-4 0.11765,-0.01 0.0236,-10e-4 5.06246,-0.12288 0.10692,0.002 0.66075,-0.034 1.23164,-0.0135 0.0226,-0.0138 0.0952,0.002 3.7709,-0.11643 0.0119,-10e-4 1.16971,-0.0428 3.22572,-0.11661 3.84153,-0.12277 0.18254,3.44508 -0.004,0.22561 0.12424,2.77459 10e-4,0.0118 0.0226,0.53147 0,0 0.0268,0.70887 10e-4,0.0118 0.0216,0.65001 0.004,0.1892 0.005,0.0706 0.0634,1.40501 0.0161,0.46083 0.0475,1.21671 0.0134,0.30694 0.0332,0.77949 0.0272,0.72056 0.13682,3.46103 0.0382,0.83829 0.0451,1.0628 0.005,0.0707 0.0891,2.10202 0.0883,1.95995 0.0486,1.09805 0.0187,0.61474 0.10484,2.55117 0.10474,2.55109 -0.007,0.0481 0.0852,2.32764 0.12362,2.90507 0.01,0.0939 0.18867,4.59444 0.001,0.0118 0.01,0.10587 0.0153,0.59127 0.0652,1.55884 0.0268,0.70889 0.0614,1.3815 0.0462,1.06274 0.0772,1.83045 0.029,0.60207 0.0191,0.21164 0.007,0.20092 0.15283,3.50703 0.0263,0.83931 0.16568,3.79039 0.15432,3.661 0.13001,3.24831 0.0103,0.12936 0.10051,2.50417 0.0158,0.30682 0.0158,0.44904 0.01,0.094 0.0115,0.54423 0.001,0.0236 0.11755,3.10718 0.16425,3.90905 0.0276,0.59022 0.0877,2.22071 0.005,0.0824 0.008,0.22457 -0.0118,10e-4 0.10146,2.24319 0.01,0.094 0.0248,0.82759 0.01,0.10575 0.009,0.24809 0.0232,0.81584 0,0 0.004,0.18928 0.023,0.40101 0.059,1.48831 0.0144,0.15287 0.01,0.37852 0.004,0.0353 0.005,0.0823 -0.002,0.10691 0.001,0.0118 10e-4,0.0236 0.01,0.10588 0,0 0.001,0.0118 -0.01,0.0246 0.0184,0.35402 0.005,0.0824 0.06,1.63049 0.009,0.24809 0.0276,0.59021 0.035,0.80303 0.0249,0.82746 0.0252,0.42452 -0.006,0.0834 0.0105,0.14125 0.0761,1.81868 0.003,0.1657 0.04,1.00401 0.0576,1.47658 0.007,0.20101 0.0124,0.42557 0.0235,0.25876 0.0175,0.60301 0.0454,0.79015 0.005,0.31963 0,0 0.0176,0.33046 0.005,0.0587 0.0172,0.47258 0.003,0.17748 0.12223,2.75113 0.0129,0.28335 0.0122,0.41379 0.0595,1.76092 0.0235,0.25875 0.001,0.0118 -0.002,0.1305 0.0462,1.06274 10e-4,0.0118 -0.006,0.0716 0.0792,2.12658 -0.002,0.1187 0.0268,0.70888 0,0 0.008,0.36666 0.058,1.20403 0.0127,0.27156 0.0234,0.41271 10e-4,0.0119 0.0811,2.00789 -0.008,0.0365 0.0268,0.43624 -0.29513,0.0131 -0.41379,0.0122 -0.39027,0.0108 -0.40205,0.011 -1.24022,0.0494 -0.63733,0.0323 -0.047,0.005 -0.0128,-0.0108 -3.33062,0.13735 -0.31963,0.005 -1.73641,0.0686 -0.62756,0.007 0,0 -2.18441,0.0963 -0.72066,0.0272 -0.90985,0.0323 -2.05408,0.0968 -1.20393,0.058 -0.55286,0.0488 -1.77271,0.0599 -0.10681,-0.002 -4.89469,0.14375 -1.73847,0.0453 -0.0352,0.004 -0.43835,0.003 -2.87288,0.0855 -3.02683,0.0871 -1.93943,0.0511 -1.69132,0.0413 -0.11767,0.0101 -0.72271,0.004 -6.33042,0.1271 -2.75925,0.0282 -0.0835,-0.006 -0.48535,0.006 -2.20543,-0.009 -1.38973,-0.0326 -0.11871,-0.002 -0.84231,-0.009 -0.1305,-0.002 -0.0481,-0.007 -0.30788,0.003 -7.68672,0.068 -0.91201,0.009 -3.04671,-0.006 -2.46324,0.0258 -0.56876,0.002 -2.09646,0.0175 -1.30323,0.007 -0.0128,-0.0108 -0.0471,0.005 -0.26087,-4.5e-4 -1.06689,-10e-4 -3.28099,0.0263 -1.10226,0.002 -0.45008,0.004 -0.66383,-0.001 -1.3984,0.004 -4.83744,-0.0154 -0.10692,-0.002 -2.62023,-0.008 -0.91191,0.009 -1.96603,0.0179 -1.46995,-0.002 -0.79539,-0.0133 -0.26087,-4.5e-4 -4.27074,-0.0411 -0.55596,0.0137 -2.23203,-0.0417 -3.33532,-0.052 -2.05253,-0.0219 -3.52762,-0.0825 -2.63613,-0.0539 -1.23772,-0.0576 -0.40102,0.023 -5.32691,-0.0554 -0.73447,0.005 -0.17748,0.003 -0.38058,-0.0142 -0.53453,-0.0126 -0.47563,-0.0175 -1.44952,-0.0391 -0.73551,-0.007 -0.0599,-0.007 -0.0353,0.004 -0.32077,-0.007 -2.37525,-0.053 -0.26087,-4.4e-4 -0.0118,0.001 -2.2939,-0.0719 -0.27366,-0.0116 -0.52069,0.0101 -0.0128,-0.0108 -0.1197,-0.0131 -0.90221,-0.016 -1.55533,-0.0299 -0.0825,0.005 -2.39774,-0.0392 -0.26291,-0.0243 -0.0118,10e-4 -0.66496,-0.0129 -1.99467,-0.0388 -2.66272,-0.0871 -0.82405,-0.0702 -0.13147,-0.0122 -1.29558,-0.0407 -0.82085,-0.0348 -1.14164,-0.0424 -0.34418,-0.005 -0.2149,-0.0168 -0.0118,0.001 -0.0834,-0.006 -0.45214,-0.0196 -2.59414,-0.11685 -3.71238,-0.16116 0.0394,-0.90428 0.25817,-6.12701 0.002,-0.10692 0.12364,-3.057 0.0294,-0.47679 0.16762,-4.04469 0.0237,-0.67774 0.007,-0.19025 0.0121,-0.13145 0.003,-0.23737 0.0239,-0.40503 0.0924,-2.3313 0.10379,-2.8776 0.006,-0.0834 0.0138,-0.25016 0.006,-0.0716 0.0635,-1.71236 0.17356,-4.51942 0.0918,-2.47353 0.0383,-0.91601 0.0212,-0.57084 0.008,-0.17847 0.0352,-0.9514 0.0172,-0.34521 0.0263,-0.51194 0.0706,-1.90269 0.0803,-1.92735 0.0626,-1.45149 0.0824,-1.90371 0.0306,-0.86798 0.0102,-0.15497 0.004,-0.22562 0.1018,-1.9528 0.0399,-0.76207 0.0592,-1.0839 0.0148,-0.23828 0.0829,-1.76154 0.006,-0.0834 0.0556,-1.26124 0.0964,-2.55694 0.0186,-0.4639 0.0909,-2.21263 0.008,-0.30891 0.0111,-0.14321 -0.002,-0.15392 0.017,-0.21488 0.0302,-1.01018 0.008,-0.0363 -0.005,-0.0705 0.007,-0.0599 -0.001,-0.0118 0.008,-0.0364 0.006,-0.0834 0.005,-0.34418 0.006,-0.0834 0.007,-0.048 0.002,-0.24912 0.0102,-0.15497 0.0101,-0.15498 -0.005,-0.0588 0.0131,-0.1197 0.0125,-0.53453 0.0607,-1.4751 0.0318,-0.85611 0.006,-0.0717 -0.001,-0.0118 0,0 0.0179,-0.20304 0.002,-0.1305 0.008,-0.17848 5.2e-4,-0.14221 0.1318,-3.2356 0.19514,-5.22067 0.1312,-3.37778 -0.001,-0.0236 0.0243,-0.53556 -10e-4,-0.0118 0.0155,-0.49915 0.0212,-0.57083 0.007,-0.0481 -0.005,-0.0588 -0.005,-0.047 0.01,-0.0246 -0.005,-0.0589 0.0343,-0.96307 0.006,-0.0835 -0.004,-0.0353 0.0108,-0.0128 0.0226,-0.6895 0.0207,-0.713 0.007,-0.19023 0.0384,-0.91605 0.0111,-0.14321 0.0434,-1.12988 0.0505,-1.32011 0.0727,-1.87919 0.006,-0.202 0,0 -0.004,-0.0353 0.0186,-0.46398 -0.0139,-0.56764 0,0 0,0 0.0543,-1.14268 -0.001,-0.0118 0.007,-0.0481 0.0479,-1.2132 0.0136,-0.25016 -0.003,-0.16568 0.002,-0.11871 0.005,-0.21376 0,0 0.1246,-3.31798 0.11256,-2.91383 0.0426,-0.59644 0.0636,-1.71237 0.007,-0.0599 0.042,-1.0111 0.0458,-4.08153 0.008,-0.17859 0.0403,-1.16514 0.0676,-1.66533 0.0108,-0.68848 0.1149,-3.29335 0.10797,-1.88225 -0.005,-0.0588 0.0875,-1.84495 0.22551,0.004 5.18233,0.16304 0.45934,0.10205 0.21888,0.0638 0.90592,0.19338 3.05609,0.11196 0.10586,-0.01 1.17794,0.051 1.7073,0.005 0.80439,-0.15338 0.40717,0.0474 0.35698,0.0162 0.75445,0.0881 1.73699,0.0733 1.7988,-0.16918 1.67605,0.0549 0.0128,0.0108 0.48741,0.0165 0,0 0,0 0.11969,0.0132 2.38814,0.0636 0.41576,0.0113 1.1309,0.0552 0.9514,0.0353 1.74455,0.0252 1.78101,0.0337 3.4508,0.0182 0.30894,0.009 0.0952,0.003 0.11871,0.002 0.80703,0.0123 1.32879,0.0141 0.11871,0.002 3.19315,0.0526 0.40674,0.17773 0.0353,-0.004"
       id="WY-0" />
  </g>
</svg>
