<?xml version="1.0" encoding="UTF-8" standalone="no"?>
<!-- Created with Inkscape (http://www.inkscape.org/) -->

<svg
   xmlns:dc="http://purl.org/dc/elements/1.1/"
   xmlns:cc="http://creativecommons.org/ns#"
   xmlns:rdf="http://www.w3.org/1999/02/22-rdf-syntax-ns#"
   xmlns:svg="http://www.w3.org/2000/svg"
   xmlns="http://www.w3.org/2000/svg"
   xmlns:sodipodi="http://sodipodi.sourceforge.net/DTD/sodipodi-0.dtd"
   xmlns:inkscape="http://www.inkscape.org/namespaces/inkscape"
   width="48.450367mm"
   height="36.531231mm"
   viewBox="0 0 171.67452 129.44137"
   id="svg12983"
   version="1.1"
   inkscape:version="0.91 r"
   sodipodi:docname="4.svg">
  <defs
     id="defs12985" />
  <sodipodi:namedview
     id="base"
     pagecolor="#ffffff"
     bordercolor="#666666"
     borderopacity="1.0"
     inkscape:pageopacity="0.0"
     inkscape:pageshadow="2"
     inkscape:zoom="4.5683037"
     inkscape:cx="41.940144"
     inkscape:cy="86.680996"
     inkscape:document-units="px"
     inkscape:current-layer="layer1"
     showgrid="false"
     fit-margin-top="1"
     fit-margin-left="1"
     fit-margin-right="1"
     fit-margin-bottom="1"
     inkscape:window-width="2560"
     inkscape:window-height="1388"
     inkscape:window-x="0"
     inkscape:window-y="0"
     inkscape:window-maximized="1" />
  <metadata
     id="metadata12988">
    <rdf:RDF>
      <cc:Work
         rdf:about="">
        <dc:format>image/svg+xml</dc:format>
        <dc:type
           rdf:resource="http://purl.org/dc/dcmitype/StillImage" />
        <dc:title></dc:title>
      </cc:Work>
    </rdf:RDF>
  </metadata>
  <g
     inkscape:label="Layer 1"
     inkscape:groupmode="layer"
     id="layer1"
     transform="translate(-348.16679,-510.99577)">
    <path
       inkscape:connector-curvature="0"
       d="m 367.72933,515.18865 -0.27592,0.19258 0.26963,0.19393 0.0796,0.20595 0.14573,0.35109 0.19764,0.43532 0.15993,0.41191 0.0227,0.0904 0.0136,0.0608 0.19542,0.56416 0.0278,0.12189 0.0588,0.11467 0.0359,0.15202 0.0705,0.30447 0.0637,0.27388 0.0111,0.0298 0.0497,0.21301 0.0562,0.24361 0.11642,0.77504 0.0338,0.698 0.009,0.15917 -0.008,0.22725 0.009,0.15925 -0.0183,0.1968 7.7e-4,0.12885 0.009,0.15919 0.0105,0.0298 -0.0558,0.17343 0.0105,0.0298 -0.11181,0.34683 -0.0653,0.27187 0.0104,0.0298 -0.0238,0.0377 -0.0842,0.0517 -0.28821,0.005 -0.0298,0.0113 -0.0237,0.0376 -0.0298,0.0114 -0.19885,0.11044 -0.50249,0.59821 0.0196,0.2201 0.25342,0.26187 0.15786,0.54075 0.0517,0.0842 0.0199,0.2201 -0.0206,0.32561 0.0264,0.25055 -0.005,0.28814 0.0112,0.3185 -0.0237,0.0377 0.0106,0.0298 0.0106,0.0298 -0.009,0.51534 -0.19457,1.23235 12.08335,0.91005 -0.0332,2.06124 -2.78056,-0.0912 0.11355,0.48694 3.71523,2.72901 -3.53388,2.87579 -0.24801,7.75811 -6.43015,-0.3325 -0.3301,3.95908 14.42975,0.65275 c 0.25475,-0.30489 0.56794,-0.61077 0.804,-0.95715 0.23605,-0.34641 0.38775,-0.73673 0.2391,-1.17866 -0.0274,-0.4536 -0.11115,-0.94533 -0.10563,-1.41919 0.006,-0.4738 0.0935,-0.94129 0.43092,-1.31953 0.26832,-0.30696 0.59006,-0.45712 0.94062,-0.50761 0.35081,-0.0499 0.71676,0.0239 1.07313,0.19942 0.37111,0.19079 0.62744,0.23441 0.79423,0.1041 0.16691,-0.13042 0.26172,-0.45421 0.36585,-1.04774 -0.088,-0.32138 -0.0647,-0.73739 0.0851,-1.0144 0.0743,-0.13838 0.17742,-0.2413 0.32276,-0.26756 0.14486,-0.0291 0.32693,0.0106 0.55075,0.16062 0.34755,0.32569 0.70302,0.41918 0.96552,0.28864 0.26251,-0.13057 0.42238,-0.46775 0.31914,-0.97265 0.0985,-0.32971 -0.0294,-0.89266 -0.0608,-1.36543 -0.0157,-0.23635 -0.0328,-0.45665 0.0481,-0.62077 0.0768,-0.15572 0.24361,-0.245 0.48202,-0.2726 l 0.0584,-1.26498 -0.43097,-0.0603 0.009,-0.64422 1.43779,-0.30196 -1.87959,-1.87272 c -0.41091,-0.37866 -0.43227,-0.79876 -0.25332,-1.22449 0.0899,-0.21289 0.27661,-0.42711 0.42748,-0.64492 l -0.18642,-0.66246 0.0369,-0.39359 0.0322,-0.13594 0.23272,-0.7921 0.056,-0.17345 -0.004,-0.70501 -0.13467,-0.57828 -0.0113,-0.0298 -0.011,-0.0298 -0.47924,-0.81889 2.7e-4,-0.41696 0.22849,-0.53442 0.0183,-0.19682 0.0183,-0.19679 -0.0124,-0.18976 0.007,-0.0984 -0.17632,-0.34397 -0.0588,-0.11468 -0.036,-0.15199 -0.12269,-0.3886 -0.0226,-0.0906 -0.0113,-0.0298 -0.0659,-0.14513 0.0238,-0.0376 0.10679,-0.50612 -0.0888,-0.65325 -0.0419,-0.18277 -0.32646,-0.43738 -0.0965,-0.13802 -0.34837,-0.94567 -0.0446,-0.054 -0.3568,-0.43032 -0.0112,-0.0298 -0.0614,-0.40279 -0.0314,-0.40984 -0.0136,-0.0609 -0.33135,-0.59666 -0.51821,-0.29647 -0.14298,-0.0628 -0.0377,-0.0237 -0.44315,-0.24981 -0.17839,-0.21518 -0.60332,-0.66172 -0.0298,0.0109 -0.0824,-0.0769 -0.21092,-0.0795 -0.0298,0.0113 -0.23227,-0.17052 -0.14301,-0.0632 -0.17133,-0.18472 -1.04129,-0.75233 -0.20889,-0.20803 -0.068,-0.0161 -0.89975,-0.14356 -0.95482,0.44675 -0.35108,0.14585 -0.41411,0.28885 -0.5733,0.29385 -0.38648,-0.009 -0.0682,-0.016 -0.55998,-0.0624 -0.62071,-0.0482 -0.15934,0.009 -1.1121,-1.05668 0.11035,-1.1807 -7.8e-4,-0.12882 -0.11765,-0.2293 -0.24423,-0.36031 -0.31226,-0.37647 -0.0823,-0.0773 -0.11974,-0.10042 -0.10548,-0.0399 -0.40067,-0.0672 -0.2972,0.10116 -0.20602,0.0798 -0.23643,0.0871 -0.18275,0.0419 -0.0274,0.29517 -0.77427,0.53312 -0.19475,-0.14716 -0.0749,-0.0465 -0.0964,-0.13807 -0.15929,0.009 -0.18264,0.042 -0.0465,0.0749 -0.008,0.22723 -0.16357,0.26267 -0.0539,0.0445 -0.37722,-0.10478 -0.2273,-0.008 -0.14509,0.0655 -0.0465,0.0749 -0.16832,0.10334 -0.42832,0.228 -0.15196,0.0359 -0.46872,-0.0832 -0.28602,-0.12599 -0.14297,-0.0632 -0.23644,0.0871 -0.32057,0.1388 -0.12187,0.0278 -0.54077,0.15787 -0.0682,-0.016 -0.27187,-0.0654 -0.21293,0.0497 -0.28822,0.005 -0.0464,0.0749 0.0657,0.14517 0.20184,0.17762 0.1642,0.15427 0.0379,0.0236 -0.0236,0.0376 -0.008,0.22725 -0.2668,0.0938 -0.0106,-0.0298 -0.0298,0.0111 -0.66325,-0.23066 -0.22523,-0.14011 -0.16205,-0.28315 -0.23723,-0.32977 -0.0377,-0.0235 -0.41062,-0.38572 -0.0682,-0.0161 -0.15714,-0.1239 -0.39358,-0.0369 -0.11261,-0.0699 -0.042,-0.18274 0.0559,-0.17347 -0.20673,-0.3369 -0.0446,-0.0539 -0.18985,0.0124 z"
       id="OR-01"
       style="font-style:normal;font-weight:400;font-size:34.375px;font-family:'MS Shell Dlg 2';opacity:1;fill:none;fill-opacity:1;fill-rule:evenodd;stroke:#000000;stroke-width:0.33333385;stroke-linecap:square;stroke-linejoin:bevel;stroke-miterlimit:4;stroke-dasharray:none;stroke-opacity:1" />
    <path
       inkscape:connector-curvature="0"
       d="m 408.23046,533.29269 c 0.009,0.57024 -0.034,1.12752 0.0408,1.69108 0.0742,0.5573 0.20067,1.10341 0.40592,1.60605 0.20568,0.50248 0.4893,0.96441 0.89487,1.36388 0.15129,0.42013 0.43199,0.75823 0.75614,1.04329 0.32414,0.28502 0.7117,0.50146 1.04142,0.75226 0.32965,0.25088 0.6068,0.52901 0.7744,0.84651 0.16767,0.31753 0.21072,0.6907 0.0494,1.17574 0.24865,0.50243 0.33552,0.98302 0.33284,1.43061 -0.003,0.44752 -0.0926,0.84512 -0.21787,1.26986 -0.1988,0.6735 -0.35387,1.3722 -0.44359,2.09252 l 0,0 c -0.023,0.18817 -0.13624,0.34671 -0.13014,0.54365 0.49198,0.48442 0.96627,1.31636 1.01328,2.01011 0.024,0.34682 -0.0658,0.65026 -0.30995,0.87425 -0.24374,0.22403 -0.64899,0.37398 -1.26414,0.35838 -0.36757,0.16645 -0.63951,0.33929 -0.80474,0.54018 -0.16526,0.20086 -0.21721,0.43595 -0.23064,0.66328 -0.0272,0.45474 0.1935,0.94967 0.46881,1.463 0.2757,0.5134 0.60475,1.04288 0.77809,1.5516 0.1733,0.50872 0.18984,1.00444 -0.14493,1.44548 -0.50086,0.24452 -0.75791,0.51192 -0.90019,0.81906 -0.14241,0.30724 -0.17172,0.64828 -0.15273,0.99816 0.0189,0.34981 0.0758,0.70493 0.0579,1.07734 -0.0174,0.37241 -0.0934,0.76407 -0.34455,1.13894 0.002,0.18266 -0.0605,0.34862 -0.0691,0.5295 l 0,0 c -0.0611,1.23921 -0.26707,2.43713 -0.43836,3.63136 -0.0981,0.68428 -0.17202,1.37496 -0.1625,2.05918 0.009,0.68421 0.0998,1.37987 0.3221,2.07469 -0.30897,0.70508 -0.37834,1.40041 -0.31472,2.09462 0.064,0.69416 0.25825,1.38763 0.45136,2.07675 0.19283,0.6892 0.40289,1.37968 0.48169,2.06967 0.0787,0.69 0.0248,1.38378 -0.25381,2.08039 -0.47135,0.37549 -0.7532,0.83515 -0.93907,1.34153 -0.18596,0.50639 -0.27918,1.05452 -0.36722,1.59346 -0.0878,0.53894 -0.1731,1.05232 -0.35084,1.52549 -0.17781,0.4731 -0.45165,0.89663 -0.90667,1.20558 -0.45489,0.10995 -0.78445,0.26679 -1.04612,0.46804 -0.2616,0.20125 -0.45404,0.4676 -0.5654,0.74122 -0.22278,0.54722 -0.18133,1.21862 -0.0621,1.93952 0.11949,0.7209 0.33275,1.46557 0.44918,2.20559 0.11561,0.74015 0.13828,1.47059 -0.0944,2.07545 -0.16667,0.60687 -0.56167,1.02757 -1.06086,1.36984 -0.49934,0.34227 -1.10402,0.60235 -1.65214,0.89777 -0.54796,0.29545 -1.0388,0.61822 -1.35172,1.08462 -0.31306,0.46645 -0.46492,1.06603 -0.25892,1.92119 1.08905,0.62636 2.08431,1.43332 2.81062,2.42611 0.36308,0.49643 0.68643,1.03576 0.89074,1.62157 0.20417,0.58582 0.31028,1.21117 0.30994,1.88503 -0.64642,0.11055 -1.06351,0.41707 -1.35473,0.79655 -0.29125,0.37946 -0.46119,0.8449 -0.58307,1.35489 -0.12194,0.51003 -0.20558,1.053 -0.34387,1.55592 -0.13822,0.50293 -0.34114,0.98756 -0.68143,1.34573 l -3.77149,-0.21326 -0.10868,2.01461 -2.22754,-0.0597 -1.55504,1.45269 -1.75689,-0.1047 -4.67137,3.36512 -0.37293,1.01722 -5.22456,0.574 -1.86948,-0.17452 -2.20833,1.54059 -0.12281,5.67563 c -0.15704,0.009 -0.25073,0.17973 -0.39784,0.22089 -0.31959,0.13541 -0.48056,-0.0188 -0.63989,-0.26821 -0.26529,-0.2932 -0.70438,-0.0295 -1.04479,-0.0776 -0.38367,0.0516 -0.82819,0.0161 -1.11194,0.32294 -0.22267,0.50328 -0.55702,0.96089 -0.85707,1.41867 -0.27539,0.44701 -0.5991,0.97009 -0.44931,1.51627 0.11823,0.37304 0.35682,0.66428 0.68322,0.86776 0.32647,0.20353 0.71334,0.31214 1.09442,0.29075 0.38383,0.0288 0.804,-0.0394 1.17359,0.0794 0.5163,0.44632 1.14598,0.86661 1.38485,1.53871 l -0.50999,8.0115 0.0299,-0.0109 0.80338,0.003 0.78913,-0.0554 0.18989,-0.0124 1.28611,0.14979 0.39358,0.0369 0.43118,0.0604 1.74967,0.074 0.41702,2.8e-4 1.00724,0.0542 0.34903,-0.0169 0.13587,0.0321 1.47801,0.0106 1.84121,0.0528 1.6138,0.0416 0.38647,0.009 0.0299,-0.0114 2.40309,-0.0144 1.55305,0.0556 0.61375,0.0178 0.18981,-0.0124 0.22713,0.008 0.18988,-0.0124 0.0376,0.0238 1.62101,0.0716 0.59041,0.055 1.54588,0.0252 0.54574,10e-4 0.0378,0.0235 0.0608,-0.0136 0.0298,-0.0116 1.11281,0.0938 2.1433,0.11065 3.22784,0.0828 0.36319,0.0436 0.0906,-0.0228 2.43855,0.13839 0.0609,-0.0136 0.35608,0.0142 0.26473,0.035 1.58341,0.0492 0.0682,0.0163 0.3256,0.0207 1.28834,0.02 0.0109,0.0298 1.5156,0.0326 0.16631,0.0255 0.0909,-0.0224 0.12881,-8e-4 1.09852,0.0328 0.35608,0.0142 0.42397,0.0292 0.0906,-0.0225 0.3793,-0.0241 0.15921,-0.009 1.22754,0.0352 0.0376,0.0235 0.0298,-0.0109 2.5533,0.0797 0.65123,0.0406 1.26501,0.0585 3.24405,0.0164 1.25791,0.0278 0.15919,-0.009 2.47813,0.0318 0.0376,0.0238 0.9627,10e-4 0.51533,0.009 2.21339,-8.7e-4 0.16644,0.0256 0.0608,-0.0136 0.0985,0.007 3.66795,0.0454 0.83399,-0.004 2.01664,-0.0205 0.18973,-0.0124 0.47785,-0.0148 3.30497,0.002 0.0378,0.0237 0.28102,-0.0329 2.30477,-0.023 0.0608,-0.0136 0.51532,0.009 1.22032,0.004 1.34919,0.005 5.91204,0.0359 1.76606,0.006 0.77297,0.0105 1.50849,0.003 0.40978,-0.0315 0.492,0.0462 4.35188,-0.0506 4.29811,-0.005 0.37939,-0.0241 0.0682,0.0162 1.63732,0.005 1.99537,-0.11112 2.10801,-0.0411 1.78236,-0.0624 1.44046,-0.014 3.15491,-0.0925 1.53179,-0.0351 4.97479,-0.13103 0.28808,-0.005 0.22013,-0.0197 4.31441,-0.0739 0.53858,-0.0299 0.12886,-8e-4 0.0297,-0.011 0.12885,-8.1e-4 0.0985,0.007 0.44025,-0.0383 1.30464,-0.0468 0.47773,-0.0148 1.33506,-0.0542 0.83384,-0.004 3.91365,-0.14048 0.18987,-0.0124 0.22718,0.008 0.63707,-0.0203 1.8128,-0.0691 0.25766,-0.001 0.25761,-10e-4 0.12883,-8e-4 0.1897,-0.0124 0.31162,-0.0397 -0.12078,-3.27672 -0.008,-0.44721 -0.0395,-0.8572 0.0159,-0.0682 -0.14537,-4.07295 0.009,-0.38655 -0.0229,-0.92518 -0.0433,-0.59947 -0.14005,-4.87649 -0.0882,-2.03294 0.007,-0.0983 -0.14504,-5.03562 -0.2032,-6.11305 -0.0108,-0.0298 -0.0567,-1.62317 -0.14914,-4.77799 -0.0181,-0.7659 -0.0169,-0.34894 -0.0788,-2.13142 -0.0508,-2.00963 -0.0356,-1.11479 -0.0745,-2.38895 -0.002,-0.28818 -0.0227,-0.0906 -0.0112,-0.0299 2.7e-4,-0.41697 -0.0136,-0.0608 -7.9e-4,-0.12884 -0.0104,-0.0299 -0.001,-0.25763 -0.0124,-0.18977 -0.0226,-0.0908 0.007,-0.0983 0.008,-0.22721 -0.0453,-0.88765 -0.0117,-0.31848 -0.009,-0.15927 0.0161,-0.0682 -0.01,-0.28813 -0.0169,-0.34902 -0.0264,-0.25056 -0.0216,-0.50827 0.0235,-0.0376 -0.0484,-0.7588 -0.0148,-0.47787 -0.0181,-0.76587 0.0238,-0.0376 -0.0106,-0.0298 -0.0278,-0.1219 0.009,-0.38644 -0.0225,-0.0907 0.007,-0.0984 0.0162,-0.0682 0.0558,-0.1734 0.11191,-0.34691 0.016,-0.0682 0.0397,-0.1055 0.0464,-0.0749 0.0607,-0.0136 0.0906,-0.0227 0.0541,-0.0444 0.0298,-0.011 0.0298,-0.0104 0.13588,0.0322 0.0299,-0.0114 0.0539,-0.0445 0.0842,-0.0516 0.0235,-0.0376 0.0416,-0.23434 -0.0226,-0.0906 0.0671,-0.40069 -0.0107,-0.0298 0.0298,-0.0109 -0.036,-0.15199 -0.0278,-0.12186 0.0238,-0.038 0.15637,-0.29308 0.0539,-0.0446 0.0464,-0.0749 0.0181,-0.19685 -0.009,-0.1592 -0.0169,-0.34901 -0.042,-0.18278 -0.0523,-0.0841 -0.0104,-0.0298 -0.0377,-0.0238 -0.0376,-0.0236 -0.0136,-0.0608 -0.0136,-0.0609 0.0159,-0.0682 0.016,-0.0682 0.0843,-0.0517 0.16844,-0.10336 0.21024,-0.33768 0.0765,-0.0824 -0.0106,-0.0298 0.0349,-0.26473 0.0398,-0.1054 0.035,-0.26476 -0.0109,-0.0297 0.0351,-0.26474 -0.0136,-0.0609 -0.0107,-0.0298 -0.0359,-0.15202 -0.13384,-0.1614 -0.15008,-0.0937 -0.11956,-0.10045 -0.32356,-0.14926 -0.0378,-0.0237 0.007,-0.0984 -0.0108,-0.0298 -0.0278,-0.12185 -0.009,-0.15932 -0.0277,-0.12181 -0.0241,-0.37938 -0.0136,-0.0609 -0.0113,-0.0297 0.0465,-0.0749 0.0298,-0.0113 0.0236,-0.0376 0.0844,-0.0523 0.0298,-0.0113 0.18981,-0.0124 0.27386,-0.0638 0.0298,-0.0114 -0.0113,-0.0298 0.0608,-0.0136 -0.0106,-0.0297 0.0298,-0.011 0.0702,-0.11256 0.11675,-0.18761 0.016,-0.0682 0.21235,-0.46653 0.07,-0.11253 0.29151,-0.67746 0.0235,-0.0376 0.0398,-0.10553 -0.0136,-0.0609 -0.0104,-0.0298 -0.0329,-0.28108 -0.0967,-0.13803 -0.052,-0.0842 -0.45733,-0.3107 -0.0106,-0.0298 -0.20374,-0.0494 -0.0906,0.0225 -0.0298,0.0113 -0.0844,0.0516 -0.0298,0.0118 -0.37021,-0.0746 -0.0298,0.0113 -0.11265,-0.07 -0.0395,-0.31156 -0.0226,-0.50818 0.0182,-0.19675 0.0161,-0.0682 -0.0113,-0.0299 -0.0136,-0.0609 -0.0104,-0.0298 -0.0519,-0.0842 -0.0298,0.0114 -0.10545,-0.0398 -0.10535,-0.0397 -0.28109,0.0329 -0.32562,-0.0206 -0.0682,-0.016 -0.10537,-0.0396 -0.0378,-0.0238 -0.0906,0.0229 -0.0843,0.0513 -0.10042,0.11963 -0.088,0.30931 0.0104,0.0298 -0.0299,0.011 0.0109,0.0298 -0.0608,0.0136 -0.0298,0.0107 -0.0378,-0.0237 -0.075,-0.0464 -0.0419,-0.18274 -0.17129,-0.18477 -0.15009,-0.0938 -0.0748,-0.0464 -0.24641,-0.23146 -0.0136,-0.0609 -0.0638,-0.27392 -0.0378,-0.0238 -0.0659,-0.14509 -0.0824,-0.077 -0.0378,-0.0235 -0.0683,-0.0159 -0.0983,-0.007 -0.0299,0.011 -0.0235,0.0376 -0.0608,0.0136 -0.0539,0.0446 -0.20101,0.23928 -0.0464,0.0749 0.0136,0.0609 -0.0239,0.0376 -0.10044,0.11963 -0.0906,0.0226 -0.28108,0.0329 -0.26475,-0.0349 -0.46439,-0.34118 -0.11252,-0.07 -0.38025,-0.39283 -0.12457,-0.25979 -0.0115,-0.0299 0.0464,-0.0748 0.0256,-0.16636 0.0297,-0.0115 0.0235,-0.0376 0.20603,-0.0797 0.0539,-0.0445 0.18193,-0.45941 0.0298,-0.0109 0.0256,-0.16638 -0.0106,-0.0297 -0.12475,-0.25976 -0.0446,-0.054 -0.1784,-0.21517 -0.0824,-0.077 -0.11248,-0.07 -0.23929,-0.20105 -0.1339,-0.1613 -0.20458,-0.46583 0.0256,-0.16631 0.13794,-0.0967 0.1544,-0.16423 0.0463,-0.0749 0.11188,-0.34693 0.0487,-0.20383 0.025,-0.58325 -0.036,-0.15206 -0.0359,-0.15201 -0.10126,-0.29731 -0.0588,-0.11468 -0.0109,-0.0297 -0.0106,-0.0298 -0.011,-0.0298 -0.0136,-0.0609 -0.0113,-0.0298 0.0238,-0.0376 0.0161,-0.0682 0.0607,-0.0136 0.0843,-0.0517 0.0986,0.007 0.0607,-0.0136 0.18475,-0.1713 0.10966,-0.21806 0.007,-0.0984 0.0397,-0.10549 -0.0136,-0.0609 0.0398,-0.10556 0.0862,-0.1805 0.07,-0.11253 0.28814,-0.003 0.11465,-0.0587 0.17761,-0.20176 0.0627,-0.14301 0.10243,-0.24845 -0.0112,-0.31854 -0.0966,-0.13797 -0.0136,-0.0608 0.0625,-0.14301 0.0464,-0.0749 0.0842,-0.0517 0.0843,-0.0519 0.14723,-0.19464 0.0539,-0.0446 -0.0329,-0.28106 0.0767,-0.49906 0.007,-0.0984 0.0256,-0.16638 0.063,-0.14302 0.14511,-0.0657 0.17272,-0.361 0.0815,-0.3398 -0.036,-0.15203 -0.0124,-0.18975 0.10042,-0.1196 0.16563,-0.39146 0.0161,-0.0682 0.0162,-0.0682 0.0322,-0.13591 0.13306,-0.25555 0.13803,-0.0968 0.0463,-0.0749 0.0292,-0.42404 -0.0359,-0.15202 0.2802,-0.45026 0.0465,-0.0749 0.10758,-0.0891 0.45869,-0.23505 0.0298,-0.0113 0.0297,-0.0119 0.12885,-7.8e-4 0.0299,-0.011 0.0985,0.007 0.054,-0.0447 0.0906,-0.0228 -0.0104,-0.0297 0.0299,-0.0109 0.0537,-0.0444 0.0541,-0.0445 0.15415,-0.16421 0.10044,-0.1196 0.0238,-0.0378 0.0842,-0.0513 0.36515,-0.0857 0.22227,-0.14796 0.0539,-0.0446 0.0464,-0.0749 0.0465,-0.0748 -0.0106,-0.0298 -0.0588,-0.11463 -0.0136,-0.0608 -0.0113,-0.0299 0.0493,-0.20379 0.0768,-0.0825 0.11675,-0.18762 0.28243,-0.57902 0.0464,-0.0749 0.0397,-0.10531 0.0795,-0.21094 0.25479,-0.28389 0.36237,-0.3731 0.16342,-0.26263 0.0796,-0.21095 0.0255,-0.16637 0.0814,-0.33976 0.0654,-0.27183 0.0719,-0.24141 0.0937,-0.15005 0.016,-0.068 0.0161,-0.0682 -0.08,-0.20598 -0.23004,-0.2994 -0.10334,-0.16842 -0.0136,-0.0609 -0.1437,-0.47993 -0.0106,-0.0297 0.0161,-0.0682 0.007,-0.0984 0.21929,-0.43603 0.0162,-0.0682 -0.0241,-0.37936 -0.0225,-0.0908 -0.0515,-0.0842 -0.0109,-0.0298 0.13296,-0.25556 0.22933,-0.11747 0.0771,-0.0824 0.33188,-0.36599 0.2244,-0.27683 0.21936,-0.43606 0.0237,-0.0378 -0.0136,-0.0609 -10e-4,-0.25766 -0.009,-0.15918 0.0237,-0.0376 0.15643,-0.29309 0.39074,-0.25135 0.43655,-0.7433 0.0161,-0.0682 0.0161,-0.0682 0.069,-0.52946 -0.001,-0.25766 0.24189,-0.89049 0.0399,-0.10542 -0.0329,-0.28105 -0.0136,-0.0609 0.12307,-0.57409 0.12103,-0.44528 0.072,-0.24136 0.10043,-0.11957 0.10758,-0.0891 0.10039,-0.11959 0.0237,-0.0379 0.0176,-0.19677 0.0256,-0.16635 -0.0264,-0.25058 -0.0451,-0.47078 -0.0124,-0.18974 0.37784,-0.85803 0.21235,-0.46645 0.0236,-0.0376 0.25895,-0.54158 0.15644,-0.29309 0.10045,-0.11959 0.30854,-0.3285 0.0671,-0.40062 0.0909,-0.43822 -0.0114,-0.0298 0.12379,-0.15711 0.10761,-0.089 0.23139,-0.24635 0.0299,-0.011 0.14514,-0.0656 -0.004,-0.28811 -0.0799,-0.20602 -0.0104,-0.0297 0.0766,-0.49901 0.088,-0.30945 0.1004,-0.11957 0.14926,-0.32346 0.21431,-0.59534 0.18688,-0.30013 0.18683,-0.30017 0.0767,-0.0825 0.16141,-0.13382 0.14515,-0.0657 0.0237,-0.0376 0.29857,-0.64705 0.0238,-0.0377 0.0236,-0.0377 -0.0169,-0.349 -0.0113,-0.0299 -0.0136,-0.0608 -0.0299,0.0114 -0.0749,-0.0464 -0.0655,-0.14508 -0.10331,-0.16851 -0.0657,-0.1451 -0.0523,-0.0842 -0.0939,-0.26686 -0.0113,-0.0298 -0.0298,0.011 -0.0515,-0.0843 -0.075,-0.0464 -0.35685,-0.43031 -0.23212,-0.17057 -0.0966,-0.13801 -0.12446,-0.2598 -0.0299,0.0112 -0.009,-0.15925 -0.0526,-0.50112 10e-4,-0.54576 -0.0227,-0.0906 -0.12458,-0.25976 -0.0657,-0.14506 -0.0376,-0.0237 -0.0298,0.011 -0.0749,-0.0464 -0.13596,-0.0322 -0.36604,-0.33193 -0.32139,-0.2781 -0.0119,-0.0298 -0.20373,-0.0492 -0.56706,-0.0927 -0.054,0.0447 -0.0773,0.0824 -0.15193,0.0359 -0.22728,-0.008 -0.13594,-0.0322 -0.29799,-0.31566 -0.0106,-0.0298 -0.13878,-0.32061 -0.22095,-0.39782 -0.0105,-0.0298 -0.21804,-0.10972 -0.0377,-0.0235 -0.0298,0.0118 -0.0682,-0.016 -0.40987,0.0314 -0.0297,0.0115 -0.0237,0.0376 -0.0299,0.0109 -0.0539,0.0445 -0.0541,0.0446 0.0105,0.0298 -0.0609,0.0136 -0.0539,0.0445 -0.0299,0.0106 -0.0236,0.0376 -0.0908,0.0227 -0.0985,-0.007 -0.37517,-0.23351 -0.10343,-0.16846 -0.0136,-0.0609 -0.0225,-0.0907 0.007,-0.0985 0.007,-0.0984 -0.0419,-0.18277 -0.10344,-0.16844 -0.0136,-0.0608 -0.37807,-0.52163 -0.11959,-0.1004 -0.22519,-0.14007 -0.25555,-0.13309 -0.27466,-0.35318 -0.0521,-0.0842 -0.0514,-0.0841 -0.0966,-0.13801 -0.0106,-0.0298 -0.0496,-0.21299 -0.11359,-0.48696 -0.0519,-0.0843 -0.22085,-0.3978 -0.12974,-0.41899 -0.38727,-0.42326 -0.10326,-0.16846 -0.48494,-0.0163 -0.8947,0.0154 -1.27409,0.0398 -0.38651,-0.009 -0.37938,0.0241 -1.09151,-0.004 -1.30462,0.0468 -0.0298,0.0113 -0.0682,-0.0159 -0.56912,0.0356 -0.0682,-0.0161 -0.57618,0.006 -1.14529,0.042 -0.33485,0.0778 -0.71911,-0.0572 -0.9557,0.0298 -0.69785,0.0338 -0.0299,0.0105 -0.0607,0.0136 -0.51534,-0.009 -1.91828,0.029 -2.26728,0.0466 -3.80609,0.0513 -0.34895,0.0169 -0.83396,0.004 -0.12885,7.9e-4 -0.37939,0.0241 -2.52486,0.0422 -0.0908,0.0229 -0.29516,-0.0274 -1.65356,0.0636 -0.12881,8.1e-4 -0.31851,0.0111 -0.0682,-0.0161 -0.54582,-10e-4 -0.62993,0.0501 -0.48489,-0.0157 -0.12881,8.1e-4 -0.41694,-2.7e-4 -0.22005,0.0199 -0.1593,0.009 -0.32547,-0.0207 -0.40993,0.0314 -0.90175,-0.0164 -0.50824,0.0216 -0.73541,0.0116 -0.0683,-0.016 -0.12187,0.0279 -0.22714,-0.008 -0.28821,0.005 -0.12881,7.9e-4 -0.0608,0.0136 -0.22731,-0.008 -0.31849,0.0112 -0.60659,0.0134 -0.0298,0.0113 -0.38641,-0.009 -0.38647,-0.009 -2.16888,0.0554 -0.64414,-0.009 -0.0609,0.0136 -0.54574,-0.001 -0.86434,0.009 -0.89469,0.0154 -0.7355,0.0116 -0.1592,0.009 -0.40406,0.60737 -0.3837,0.2818 -0.6646,0.31505 -0.63622,0.43686 -0.64138,0.27758 -0.27387,0.0638 -0.58539,0.1042 -0.48483,-0.0156 -0.60452,-0.11601 -0.62573,-0.20733 -1.08652,0.15669 -0.213,0.0496 -0.0908,0.0227 -0.58749,0.23295 -0.14508,0.0652 -0.22012,0.0198 -1.10771,0.0653 -0.34188,0.0476 -0.7326,0.29884 -0.74961,-0.0501 -0.22519,-0.14012 -0.69161,-0.35242 -0.57113,0.16496 -0.44667,0.42477 -0.0464,0.0749 -0.88535,1.29688 -0.0298,0.0114 -1.14748,0.17026 -0.836,0.12982 -0.59038,-0.0549 -1.30177,0.33492 -0.15196,0.0359 -0.60166,0.1721 -1.16153,0.10964 -0.66469,0.31507 -0.0236,0.0376 -1.36887,0.73561 -1.43057,0.33285 -0.56627,0.32426 -0.7898,1.01806 -1.41917,0.10563 -0.12189,0.0277 -0.80058,0.28253 -1.49834,0.31706 -1.54809,0.1041 -0.37725,-0.10478 -0.075,-0.0464 -0.32143,-0.27815 -0.61017,-0.69224 -0.12676,-0.13091 -0.63284,-0.23779 -0.85712,0.0395 -0.36744,0.21385 -0.30643,0.19965 -0.38576,0.41062 -0.70926,0.26124 -1.28252,0.55515 -0.92942,0.28047 -0.39564,0.092 -0.28529,0.29099 -0.51663,0.53727 -0.3722,0.0555 -0.0376,-0.0238 -0.55366,-0.4487 -0.15927,0.009 -0.49615,0.21166 -0.12188,0.0278 -0.34683,-0.1118 -0.13591,-0.0322 -0.50821,0.0226 -0.6207,-0.0482 -0.41919,0.12952 -0.67083,0.70158 0.036,0.15202 -0.0843,0.0516 -0.0608,0.0136 -0.15425,0.16423 -0.14304,-0.0632 -0.0298,0.0113 -0.0766,0.0825 -0.47082,0.0451 -0.0298,0.0112 -0.25766,0.001 -0.26047,-0.2923 -8.2e-4,-0.12887 0.0416,-0.23427 -0.036,-0.15202 -0.0553,-0.37218 -0.0136,-0.0607 -0.0731,-0.17549 -0.22794,-0.42824 -0.69371,-0.22357 -0.7008,-0.25404 -0.15008,-0.0938 -0.35189,-0.27105 -0.48271,-0.14439 -0.28818,0.006 -0.25059,0.0264 -0.15928,0.009 -0.58042,0.26341 -0.42394,-0.0293 -0.34685,-0.11178 -0.44534,-0.12098 -0.3963,-0.32484 -0.1197,-0.10046 -0.0823,-0.077 -0.10553,-0.0399 -0.21104,-0.0795 -0.23421,-0.0416 -0.2039,-0.049 -0.0298,0.0116 -0.57125,0.16505 -1.35545,0.37955 -0.12885,8.3e-4 -0.6137,-0.0178 -0.14508,0.0652 -0.62503,0.20967 -0.5458,-10e-4 -0.98888,-0.25115 -0.51328,-0.13724 -0.54069,0.15793 -0.41913,0.12954 -0.14502,0.0661 -0.18484,0.17135 -0.53784,0.44602 0.0264,0.25057 -0.0702,0.11257 -0.0773,0.0824 -0.28315,0.16204 z"
       id="OR-02"
       style="font-style:normal;font-weight:400;font-size:34.375px;font-family:'MS Shell Dlg 2';opacity:1;fill:none;fill-opacity:1;fill-rule:evenodd;stroke:#000000;stroke-width:0.33333385;stroke-linecap:square;stroke-linejoin:bevel;stroke-miterlimit:4;stroke-dasharray:none;stroke-opacity:1" />
    <path
       inkscape:connector-curvature="0"
       d="m 391.566,532.55037 c -0.15088,0.21779 -0.33779,0.43203 -0.4275,0.64494 -0.17929,0.42583 -0.15792,0.84589 0.25332,1.22446 l 1.87959,1.87273 -1.43777,0.30196 -0.009,0.64416 0.431,0.0606 -0.0584,1.26491 c 0.013,-6.7e-4 0.0178,-0.002 0.0299,-0.0108 0.44385,0.15859 0.95573,0.29418 1.45743,0.33461 0.20541,0.0168 0.13709,-0.13838 0.0881,-0.30938 -0.049,-0.17084 -0.0974,-0.36784 0.0907,-0.43812 0.21861,-0.0738 0.96693,-0.0941 1.57644,0.019 0.30477,0.0559 0.58318,0.14692 0.73838,0.27737 0.15513,0.13049 0.18839,0.31534 0.0301,0.53866 -0.3441,0.35297 -0.65679,0.79077 -0.77067,1.23812 -0.11395,0.4474 -0.0359,0.91429 0.41926,1.25003 0.14835,0.25127 0.15414,0.43991 0.0806,0.62293 -0.0732,0.18301 -0.20117,0.34363 -0.36442,0.50191 -0.32662,0.31653 -0.71491,0.6258 -0.6093,1.10432 0.032,0.42032 -0.006,0.87672 0.0468,1.30459 0.0508,0.42778 0.19398,0.81986 0.60391,1.07868 0.3711,0.23426 0.80566,0.34214 1.2679,0.34667 0.46216,0.005 0.95523,-0.0772 1.37468,-0.15928 0.4067,0.1158 0.79024,0.3394 1.20472,0.4897 0.41453,0.1503 0.84217,0.23772 1.2812,-0.0102 0.39503,-0.21681 0.5085,-0.69158 0.63975,-1.11142 0.13138,-0.41984 0.29789,-0.81286 0.81817,-0.89625 0.48826,-0.029 0.95143,-0.14936 1.28048,-0.42629 0.32898,-0.27742 0.51688,-0.68594 0.3841,-1.24449 0.40445,-0.0121 0.7194,0.2306 1.0457,0.49466 0.32622,0.26407 0.65569,0.5283 1.08308,0.51799 l 0.15917,-0.009 0.16641,0.0256 0.0295,2.33517 5.51627,0.12795 c 0.0904,-0.72034 0.24478,-1.419 0.4436,-2.09254 0.12543,-0.42472 0.21522,-0.82234 0.21781,-1.26986 0.003,-0.44761 -0.084,-0.92821 -0.3328,-1.43058 0.16158,-0.48508 0.11868,-0.85823 -0.0494,-1.17575 -0.16765,-0.31749 -0.44476,-0.59569 -0.7744,-0.8465 -0.32974,-0.2508 -0.71729,-0.46724 -1.04141,-0.7523 -0.32416,-0.285 -0.6048,-0.62315 -0.75616,-1.04323 -0.40559,-0.3995 -0.68917,-0.86144 -0.89488,-1.36396 -0.20576,-0.50253 -0.33203,-1.04861 -0.40593,-1.60604 -0.0741,-0.56359 -0.0314,-1.12081 -0.0405,-1.69097 l -0.25971,0.12459 -0.32567,-0.0206 -0.0906,0.0231 -0.14928,0.32344 -0.33692,0.20677 -0.0842,0.0519 -0.40493,0.19041 -0.3489,0.0169 -0.44959,0.13659 -1.12538,0.67903 -0.0235,0.0377 -0.213,0.0496 -0.27185,-0.0653 -0.0608,0.0136 -0.0298,0.0112 -0.20376,-0.0486 -0.86636,0.13772 -0.36247,0.37311 -0.9548,0.4468 -0.26677,0.094 -0.0609,0.0136 -0.58315,-0.024 -0.71005,-0.1556 -0.39936,-0.61294 -0.38433,-0.13517 -0.17345,-0.0559 -0.0608,0.0136 -0.15919,0.009 -0.10757,0.0891 -0.0906,0.0225 -0.17558,0.0729 -0.15204,0.036 -0.39561,0.092 -0.3164,-0.1189 -0.0106,-0.0297 -0.31434,-0.24771 -0.0682,-0.016 -0.0108,-0.0298 -0.0376,-0.0235 -0.0682,-0.0159 -0.18056,-0.0862 -0.0113,-0.0297 -0.0298,0.0113 -0.0298,0.0113 -0.0446,-0.054 -0.0299,0.0104 -0.17332,-0.0558 -0.3469,-0.1118 -0.45944,-0.18184 -0.0378,-0.0236 -0.0115,-0.0297 -0.65621,-0.20024 -0.0681,-0.016 -0.34696,-0.11178 -0.0298,0.0112 -0.0682,-0.0161 -0.68881,-0.0643 -0.63985,-0.26822 -0.30012,-0.18683 -0.44113,-0.37863 -0.32347,-0.14929 -0.0299,0.0108 -0.11253,-0.07 -0.46442,-0.34108 -0.0375,-0.0235 -0.0103,-0.0299 z"
       id="OR-03"
       style="font-style:normal;font-weight:400;font-size:34.375px;font-family:'MS Shell Dlg 2';opacity:1;fill:none;fill-opacity:1;fill-rule:evenodd;stroke:#000000;stroke-width:0.33333385;stroke-linecap:square;stroke-linejoin:bevel;stroke-miterlimit:4;stroke-dasharray:none;stroke-opacity:1" />
    <path
       inkscape:connector-curvature="0"
       d="m 378.19496,635.02909 0.50993,-8.01159 c -0.23887,-0.67202 -0.86849,-1.09237 -1.38473,-1.53865 -0.36968,-0.11979 -0.78981,-0.0514 -1.17365,-0.0797 -0.38108,0.0207 -0.76793,-0.0869 -1.09437,-0.29078 -0.32647,-0.2035 -0.56505,-0.49472 -0.68325,-0.86773 -0.1499,-0.54622 0.17392,-1.06924 0.4493,-1.51626 0.30008,-0.45784 0.6344,-0.91542 0.85709,-1.4187 0.28375,-0.30668 0.72826,-0.27112 1.11191,-0.32296 0.34039,0.048 0.7795,-0.21561 1.04482,0.0776 0.15932,0.24878 0.32031,0.40359 0.6399,0.26821 0.14691,-0.0416 0.24079,-0.21489 0.39781,-0.22091 l 0.12281,-5.67562 2.20827,-1.5406 1.86951,0.17456 5.22457,-0.57404 0.37294,-1.01722 4.67139,-3.36507 1.75686,0.10469 1.55501,-1.45278 2.22757,0.0597 0.10867,-2.01459 3.77146,0.21327 c 0.34027,-0.35816 0.54321,-0.84282 0.68144,-1.3457 0.1383,-0.50296 0.22191,-1.04592 0.34387,-1.55598 0.12189,-0.50999 0.29181,-0.97544 0.58306,-1.35491 0.29122,-0.37946 0.7085,-0.68526 1.35476,-0.79653 -0.002,-0.6738 -0.1058,-1.29912 -0.30997,-1.88502 -0.20427,-0.5858 -0.52767,-1.12514 -0.8907,-1.62155 -0.72634,-0.99282 -1.72162,-1.79978 -2.81067,-2.42612 -0.20617,-0.85512 -0.0545,-1.45475 0.25896,-1.9212 0.3129,-0.46639 0.80376,-0.78919 1.3517,-1.08459 0.54815,-0.29544 1.15282,-0.55553 1.65215,-0.89781 0.49919,-0.34226 0.89422,-0.76295 1.06085,-1.36984 0.23274,-0.60483 0.21048,-1.33533 0.0944,-2.07543 -0.11649,-0.74001 -0.32979,-1.48472 -0.44922,-2.20559 -0.11957,-0.72087 -0.1607,-1.39232 0.0621,-1.93952 0.11137,-0.27365 0.30381,-0.53997 0.56541,-0.74124 0.26169,-0.20124 0.59114,-0.35852 1.04612,-0.46802 0.45504,-0.30894 0.72888,-0.73248 0.90672,-1.20558 0.17772,-0.47315 0.26276,-0.98654 0.35083,-1.52554 0.0876,-0.5389 0.18122,-1.08702 0.36719,-1.59343 0.18586,-0.50636 0.46772,-0.96603 0.93908,-1.34148 0.27836,-0.69661 0.33262,-1.39042 0.25379,-2.08041 -0.0788,-0.69001 -0.28882,-1.38052 -0.48169,-2.06968 -0.19276,-0.68917 -0.38751,-1.38259 -0.45135,-2.07676 -0.0641,-0.69417 0.004,-1.38957 0.31469,-2.09462 -0.22208,-0.69478 -0.31293,-1.39045 -0.3221,-2.07466 -0.009,-0.68424 0.0643,-1.37489 0.16251,-2.0592 0.17129,-1.19424 0.37767,-2.39216 0.43835,-3.63135 l -2.74996,-0.098 c -0.45596,0.10388 -1.08137,0.15339 -1.55517,0.0734 -0.47061,-0.0957 -0.85611,-0.45146 -1.26861,-0.76355 -0.41248,-0.3122 -0.85325,-0.5834 -1.33367,-0.49175 -0.1586,0.28918 -0.36791,0.48725 -0.60084,0.58899 -0.233,0.10165 -0.47139,0.12294 -0.72124,0.072 -0.49995,-0.10291 -0.97261,-0.49591 -1.19642,-1.00501 -0.13329,-0.29907 -0.32765,-0.46905 -0.55158,-0.57753 -0.22379,-0.10847 -0.49896,-0.15095 -0.77081,-0.14147 -0.54352,0.0195 -1.12369,0.22162 -1.60382,0.27757 -0.55769,0.0932 -1.06996,-0.0176 -1.55797,-0.21498 -0.48811,-0.19816 -0.9613,-0.49642 -1.42794,-0.75861 -0.36022,-0.35915 -0.79907,-0.308 -1.24648,-0.25536 -0.44749,0.0526 -0.89771,0.0939 -1.27713,-0.24825 -0.48433,-0.21623 -1.02202,-0.2453 -1.55085,-0.18455 -0.52896,0.0608 -1.03393,0.23248 -1.50771,0.41505 -0.42191,0.28702 -0.66269,0.7847 -0.92991,1.24313 -0.26724,0.45846 -0.59029,0.86202 -1.1976,0.9204 -0.27889,0.0942 -0.50057,0.0701 -0.71212,-0.0263 -0.21145,-0.0973 -0.41681,-0.27179 -0.59113,-0.47203 -0.34851,-0.40047 -0.63743,-0.92229 -1.01875,-1.20675 -0.36769,-0.1224 -0.6041,-0.047 -0.74468,0.1089 -0.14051,0.15634 -0.19565,0.41662 -0.18599,0.71707 0.0197,0.60097 0.27672,1.35751 0.43417,1.72779 -0.20718,0.058 -0.66527,0.18784 -1.15664,0.26914 -0.49127,0.0816 -1.00554,0.10682 -1.37043,-0.0983 -0.13514,-0.48535 -0.36015,-0.80122 -0.63437,-1.07165 -0.27423,-0.27047 -0.61445,-0.50237 -1.018,-0.7898 l -5.90777,-0.29366 -0.26151,8.11418 -2.49938,-0.12436 -0.12438,2.49949 -1.95368,-0.12288 -0.0359,0.81051 0.87836,0.052 -0.0689,0.94639 -6.91707,-0.21915 -0.0161,0.0682 0.0109,0.0298 0.0136,0.0609 0.11251,0.07 7.7e-4,0.12881 -0.0825,0.88552 -0.14158,0.77089 0.0264,0.25061 -0.088,0.72627 -0.15777,0.83887 -0.0486,0.20384 -0.0416,0.23428 0.0113,0.0298 8.1e-4,0.12889 0.0383,0.44021 0.0115,0.0298 -0.035,0.26474 -0.0397,0.10538 -0.10214,0.66542 -0.13446,0.80132 -0.0159,0.0682 -0.0605,0.43109 -0.007,0.0984 -0.13861,1.05897 -0.0849,0.59742 -0.24125,1.30748 -0.14351,0.89969 -0.0161,0.0682 -0.0742,0.3702 0.0106,0.0298 -0.0654,0.27187 -0.0511,0.33265 -0.15062,0.86932 -0.0558,0.17338 -0.34391,1.55588 -0.27656,1.15527 -0.11395,0.47568 -0.15852,0.42197 0.0228,0.0906 0.0136,0.0607 -0.0956,0.27889 -0.13223,0.67245 -0.2003,0.65623 -0.32543,1.35913 -0.0322,0.13592 -0.22144,0.56493 -0.32627,0.94218 -0.52928,1.31029 -0.19812,0.52738 -0.6581,1.30819 -0.46001,0.78084 -0.1401,0.2251 -0.0239,0.0377 -0.21513,0.17846 -0.0298,0.0104 -0.36513,0.0857 -0.0298,0.0108 -0.0465,0.0748 -0.07,0.11253 -0.16137,0.13383 -0.0238,0.0377 -0.0937,0.15011 -0.0465,0.0748 -0.11676,0.18758 -0.0701,0.11253 -0.0299,0.0108 0.0113,0.0298 0.0519,0.0843 0.11964,0.10042 0.0872,0.23642 0.10431,0.58536 -0.26743,1.0569 -0.0416,0.23427 -0.0436,0.36314 -0.0321,0.13594 -0.11394,0.47567 -0.007,0.0984 -0.0161,0.0682 -0.42166,1.22113 -0.11889,0.3164 0.0106,0.0298 -0.0298,0.0113 -0.0235,0.0378 -0.0237,0.0376 -0.0539,0.0447 -0.10041,0.11952 0.0104,0.0299 8.1e-4,0.12882 0.002,0.28811 -0.007,0.0984 8.1e-4,0.12882 -0.007,0.0984 -0.10688,0.50612 -0.53283,1.98493 -0.1096,0.21803 -0.0464,0.0749 -0.32412,0.81333 -0.0323,0.13588 -0.0399,0.10552 -0.0539,0.0444 -0.40837,0.86513 -0.81945,1.44196 -0.133,0.25552 -0.14019,0.22521 -0.0862,0.18049 -0.0298,0.0113 0.15088,0.51034 0.15508,0.25271 0.0872,0.2364 0.1061,0.45655 0.13557,0.99525 0.0115,0.0299 -0.0142,0.35598 0.0102,0.0298 0.0227,0.0906 0.0136,0.0608 0.0298,-0.0117 0.0378,0.0237 0.0238,-0.0377 0.20597,-0.0797 0.0161,-0.0682 0.12883,-8.2e-4 0.0299,-0.0109 0.0105,0.0297 0.2321,0.17057 0.0825,0.0769 0.26124,0.70925 0.21879,0.52662 -0.016,0.0682 0.0107,0.0298 0.0106,0.0298 -0.0795,0.21092 0.0106,0.0298 0.19464,0.14722 0.22525,0.14009 0.26254,0.1635 0.0589,0.11463 0.2054,0.88268 0.0264,0.25057 -0.0624,0.55992 0.10819,0.32774 0.0778,0.33478 -0.008,0.22728 -0.20943,0.75458 -0.31497,0.715 -0.24479,0.60241 -0.0436,0.36314 -0.0154,0.48492 -0.28233,0.57899 8.3e-4,0.12888 0.092,0.39566 0.0113,0.0297 0.0197,0.22011 0.0315,0.40983 -0.0161,0.0682 0.0104,0.0298 -0.0228,0.45444 0.0136,0.0608 -0.0946,0.69589 -0.046,0.49196 -0.0464,0.0749 0.22096,0.3978 0.13154,0.29022 0.0629,0.81962 0.0107,0.0299 -0.11383,0.47572 -0.0559,0.17338 0.0227,0.0906 0.37096,0.49112 0.1479,0.22221 0.11761,0.2293 0.009,0.15932 0.0278,0.12183 -0.0436,0.36311 0.0227,0.0907 0.0518,0.0844 0.10559,0.0398 0.11746,0.22932 -0.009,0.51533 -0.07,0.11265 -0.0608,0.0136 0.009,0.15917 0.0561,0.24362 0.14304,0.0631 0.0797,0.20606 7.9e-4,0.12881 -0.14934,0.32346 0.0225,0.0906 0.27757,0.64117 0.42971,0.60596 0.0516,0.0842 0.0446,0.054 0.2958,0.4445 0.0826,0.0771 0.11253,0.07 0.0376,0.0236 0.0984,0.007 0.0377,0.0236 0.22723,0.008 0.0891,0.10755 0.41768,0.41617 0.12668,0.1309 0.4765,0.53083 0.0497,0.21304 1.79447,0.1278 0.51532,0.009 0.26475,0.035 0.0298,-0.0113 1.40089,0.0912 0.38647,0.009 0.71909,0.0575 2.78759,0.12147 0.26478,0.035 0.15917,-0.009 0.51532,0.009 1.29537,0.0518 1.46879,0.1077 0.53173,-0.059 0.1521,-0.0359 1.52255,0.0632 0.28818,-0.007 0.1897,-0.0124 0.0985,0.007 0.12883,-8e-4 0.36321,0.0436 0.0608,-0.0136 1.3563,0.0378 1.08226,0.10109 0.65123,0.0406 0.0682,0.0161 2.42648,-0.0519 z"
       id="OR-04"
       style="font-style:normal;font-weight:400;font-size:34.375px;font-family:'MS Shell Dlg 2';opacity:1;fill:#000000;fill-opacity:1;fill-rule:evenodd;stroke:#000000;stroke-width:0.33333385;stroke-linecap:square;stroke-linejoin:bevel;stroke-miterlimit:4;stroke-dasharray:none;stroke-opacity:1" />
    <path
       inkscape:connector-curvature="0"
       d="m 362.89551,570.24842 6.91705,0.21914 0.0695,-0.94642 -0.8784,-0.052 0.0359,-0.8105 1.95371,0.12288 0.12429,-2.49949 2.49943,0.12438 0.26148,-8.11418 5.90782,0.29364 c 0.40355,0.28746 0.74379,0.51938 1.018,0.78981 0.27421,0.27044 0.49926,0.58624 0.63441,1.0716 0.36483,0.20504 0.87904,0.17958 1.37038,0.0983 0.49126,-0.0815 0.94946,-0.21077 1.15661,-0.26911 -0.15754,-0.37028 -0.41499,-1.12689 -0.43415,-1.72784 -0.008,-0.30048 0.0456,-0.5607 0.18597,-0.71706 0.14055,-0.15634 0.37697,-0.23147 0.74472,-0.10891 0.38127,0.28447 0.6702,0.80631 1.01873,1.20674 0.1743,0.20023 0.37967,0.37504 0.59118,0.47208 0.21147,0.0973 0.43318,0.12102 0.71207,0.0275 0.6073,-0.0582 0.93034,-0.462 1.19756,-0.92043 0.26725,-0.45843 0.50802,-0.95613 0.92993,-1.2431 0.47386,-0.18227 0.97877,-0.35426 1.50767,-0.41508 0.52892,-0.0608 1.06657,-0.0317 1.55092,0.18453 0.3794,0.34224 0.82964,0.30096 1.27709,0.24826 0.4474,-0.0526 0.88629,-0.10354 1.24648,0.25535 0.46672,0.26218 0.93983,0.56049 1.42794,0.75862 0.488,0.19822 1.00024,0.308 1.55797,0.21498 0.48042,-0.0546 1.06043,-0.25791 1.60384,-0.27757 0.27178,-0.014 0.547,0.0332 0.7708,0.14147 0.22395,0.10846 0.41832,0.27847 0.55156,0.57756 0.22385,0.50903 0.69644,0.9022 1.19642,1.00498 0.24996,0.051 0.48834,0.0302 0.72125,-0.0725 0.23293,-0.10185 0.44227,-0.29976 0.60089,-0.58901 0.48043,-0.092 0.92115,0.17963 1.33364,0.49177 0.41249,0.31214 0.798,0.66779 1.26855,0.7636 0.47386,0.0801 1.09929,0.0299 1.55523,-0.0733 l 2.74999,0.098 c 0.006,-0.18094 0.0695,-0.34689 0.069,-0.5295 0.25082,-0.3749 0.32731,-0.76652 0.34453,-1.13897 0.018,-0.37239 -0.0389,-0.72751 -0.0579,-1.07731 -0.0189,-0.34988 0.009,-0.69095 0.15273,-0.99815 0.14229,-0.30715 0.39935,-0.57457 0.90018,-0.81905 0.33448,-0.441 0.31826,-0.93679 0.14497,-1.44554 -0.17332,-0.50866 -0.50239,-1.03817 -0.77809,-1.55153 -0.27584,-0.51327 -0.49585,-1.00828 -0.46885,-1.46304 0.016,-0.22731 0.0653,-0.46242 0.23067,-0.66327 0.16521,-0.20088 0.43719,-0.3737 0.80476,-0.54021 0.61512,0.0156 1.02043,-0.13416 1.26414,-0.35833 0.24379,-0.22401 0.33346,-0.5274 0.3099,-0.87428 -0.0466,-0.69378 -0.52122,-1.52571 -1.01326,-2.01011 -0.007,-0.19701 0.10687,-0.35548 0.13015,-0.54365 l -5.51628,-0.12794 -0.0295,-2.33516 -0.16643,-0.0256 -0.15915,0.009 c -0.42746,0.009 -0.75687,-0.25391 -1.08312,-0.51797 -0.32625,-0.26412 -0.64122,-0.50674 -1.04559,-0.49464 0.13295,0.55841 -0.0553,0.96702 -0.38417,1.24442 -0.32896,0.27744 -0.79218,0.39775 -1.28051,0.42637 -0.52022,0.0833 -0.6868,0.4764 -0.81815,0.89623 -0.13123,0.41986 -0.24473,0.89456 -0.63972,1.11138 -0.43902,0.24715 -0.86668,0.15952 -1.28121,0.0102 -0.41443,-0.15035 -0.79801,-0.3739 -1.20476,-0.48976 -0.41926,0.083 -0.91252,0.16364 -1.37466,0.15937 -0.46221,-0.005 -0.89679,-0.11246 -1.26787,-0.34669 -0.4099,-0.25884 -0.55389,-0.65081 -0.60386,-1.07868 -0.0507,-0.42779 -0.0135,-0.88433 -0.0468,-1.30459 -0.10563,-0.47847 0.28267,-0.7878 0.60925,-1.10432 0.16329,-0.15826 0.29112,-0.31885 0.36444,-0.5019 0.0732,-0.18306 0.0678,-0.3716 -0.0805,-0.62294 -0.45506,-0.33578 -0.53316,-0.80263 -0.4192,-1.25004 0.11387,-0.44734 0.42656,-0.88517 0.77062,-1.23811 0.15933,-0.22339 0.12605,-0.40823 -0.0301,-0.53862 -0.15515,-0.13048 -0.4336,-0.2213 -0.73833,-0.27738 -0.60948,-0.1122 -1.35786,-0.0925 -1.57641,-0.019 -0.18774,0.0704 -0.13918,0.26712 -0.0908,0.43812 0.049,0.17091 0.11693,0.32591 -0.0881,0.30935 -0.50168,-0.0407 -1.01356,-0.17602 -1.45746,-0.3346 -0.0135,-0.002 -0.0183,5.1e-4 -0.0299,0.0114 l 0,0 c -0.23851,0.0276 -0.40557,0.11689 -0.4821,0.27258 -0.0808,0.16416 -0.064,0.38444 -0.0481,0.6208 0.0319,0.47272 0.15986,1.03559 0.0609,1.36544 0.10322,0.50492 -0.0568,0.84208 -0.31914,0.97261 -0.26251,0.13065 -0.61796,0.0373 -0.96554,-0.28865 -0.22378,-0.15329 -0.40542,-0.18683 -0.55075,-0.16059 -0.1449,0.0283 -0.24819,0.12916 -0.32272,0.26761 -0.14914,0.27689 -0.17299,0.69294 -0.0851,1.01436 -0.10395,0.59356 -0.199,0.91728 -0.3659,1.04767 -0.16677,0.1304 -0.42312,0.0873 -0.7942,-0.10404 -0.35642,-0.17599 -0.72249,-0.24998 -1.07312,-0.19948 -0.35055,0.051 -0.67235,0.20068 -0.94063,0.50771 -0.33718,0.3782 -0.42615,0.84574 -0.43093,1.31948 -0.006,0.47382 0.0781,0.96563 0.10562,1.41927 0.14869,0.44192 9.1e-4,0.83217 -0.23912,1.17855 -0.23602,0.34639 -0.54922,0.65227 -0.80396,0.95719 l -14.42975,-0.65275 0.33008,-3.95906 6.43018,0.33248 0.24819,-7.75817 3.53387,-2.87574 -3.71521,-2.72897 -0.11365,-0.48694 2.78056,0.091 0.0332,-2.06128 -12.08332,-0.90995 -0.0349,0.2647 0.0108,0.0298 -0.26389,0.38228 -0.0559,0.17343 0.11261,0.07 0.18045,0.0862 0.0968,0.13804 0.16919,0.31356 0.15505,0.25268 0.042,0.18271 0.0114,0.0298 0.0196,0.22011 0.0124,0.18975 0.0136,0.0609 -0.0162,0.0682 -0.0584,1.26491 -0.0322,0.13594 -0.0208,0.3256 -0.1669,0.93726 -0.0743,0.3702 -0.0436,0.3631 -0.13516,0.38445 0.12674,0.1309 0.0521,0.0842 -0.0182,0.19676 -0.04,0.10539 -0.13425,0.80133 -0.0672,0.40066 -0.20521,0.49692 -0.0682,-0.016 -0.13805,0.0968 0.0148,0.47784 0.0113,0.0298 0.0228,0.0908 0.0106,0.0298 0.10618,0.45656 0.0136,0.0608 0.0614,0.4028 7.9e-4,0.12881 -0.0369,0.39357 -0.0322,0.13595 -0.0879,0.72628 -0.10679,0.50616 -0.0883,0.30929 0.0136,0.0609 -0.12388,0.15711 -0.0236,0.038 -0.18277,0.0419 -0.0541,0.0444 -0.32778,0.10836 -0.016,0.0682 0.44733,-0.008 0.12184,-0.0278 0.0104,0.0299 0.10553,0.0398 0.0563,0.24365 0.10848,0.32766 -0.0359,0.81051 0.0197,0.22005 -0.0908,0.43819 0.0113,0.0298 -0.10687,0.5062 -0.0274,0.29513 -0.0766,0.49911 0.0752,0.46367 -0.0256,0.16639 -0.15275,0.99811 0.0107,0.0297 -0.0436,0.36314 -0.0397,0.10532 -0.28372,1.1248 -0.0238,0.038 0.009,0.15919 -0.0298,0.0113 -0.32271,0.26761 -0.14729,0.19469 -0.0654,0.27182 -0.0161,0.0682 -0.007,0.0984 -0.0298,0.0106 -0.0207,0.32561 0.14297,0.063 0.0906,-0.0222 0.0136,0.0608 0.0112,0.0298 -0.0238,0.0376 -0.0183,0.19673 -0.12309,0.57415 -0.0435,0.3631 0.0104,0.0298 0.0107,0.0298 -0.0739,0.37025 -0.0322,0.13591 -0.056,0.17344 0.0112,0.0297 -0.15551,0.71001 -0.0416,0.23431 -0.0256,0.16638 -0.008,0.22724 -0.0161,0.0682 -0.16283,0.67961 -0.33742,1.16941 -0.0719,0.24135 -0.0883,0.30937 -0.0299,0.0113 0.0106,0.0299 -0.12186,0.0277 -0.0539,0.0446 -0.054,0.0446 -0.016,0.0682 -0.0323,0.13593 -0.0741,0.37014 -0.0559,0.17348 -0.0417,0.23429 -0.0274,0.29521 -0.0161,0.0682 0.0114,0.0298 -0.0322,0.13596 0.0136,0.0608 -0.0256,0.16633 0.0891,0.10758 0.0445,0.0539 0.0515,0.0842 0.10189,0.71415 -0.12019,0.86219 -0.007,0.0984 -0.0719,0.24136 -0.088,0.30935 0.1458,0.35112 0.0111,0.0298 0.0376,0.0235 0.0107,0.0298 -0.003,0.28816 -0.0974,0.4077 -0.0322,0.13596 -0.0559,0.17341 0.003,0.28816 -0.41409,0.28884 0.0446,0.0539 0.0113,0.0297 0.2293,-0.11748 0.0299,-0.011 0.0136,0.0609 0.0228,0.0907 -0.0605,0.43112 -0.007,0.0985 -0.0832,0.4686 -0.14782,1.1574 -0.0491,0.20384 -0.13938,0.64207 -0.0369,0.39357 0.0264,0.25057 -0.0228,0.45447 -0.024,0.58323 0.0705,0.30449 0.10042,-0.11956 0.0588,0.11464 0.0519,0.0842 -0.10042,0.11962 -0.0539,0.0445 -0.11468,0.0587 -0.0298,0.0113 -0.07,0.11253 -0.19452,1.23239 0.0112,0.0299 -0.22981,1.08021 -0.0861,0.1805 -0.12596,0.286 0.0278,0.12185 -0.0255,0.16638 -0.0238,0.0376 -0.0397,0.10552 -0.0881,0.30934 -0.0238,0.0376 -0.008,0.22719 z"
       id="OR-05"
       style="font-style:normal;font-weight:400;font-size:34.375px;font-family:'MS Shell Dlg 2';opacity:1;fill:none;fill-opacity:1;fill-rule:evenodd;stroke:#000000;stroke-width:0.33333385;stroke-linecap:square;stroke-linejoin:bevel;stroke-miterlimit:4;stroke-dasharray:none;stroke-opacity:1" />
  </g>
</svg>
