<?xml version="1.0" encoding="UTF-8" standalone="no"?>
<!-- Created with Inkscape (http://www.inkscape.org/) -->

<svg
   xmlns:dc="http://purl.org/dc/elements/1.1/"
   xmlns:cc="http://creativecommons.org/ns#"
   xmlns:rdf="http://www.w3.org/1999/02/22-rdf-syntax-ns#"
   xmlns:svg="http://www.w3.org/2000/svg"
   xmlns="http://www.w3.org/2000/svg"
   xmlns:sodipodi="http://sodipodi.sourceforge.net/DTD/sodipodi-0.dtd"
   xmlns:inkscape="http://www.inkscape.org/namespaces/inkscape"
   width="26.222012mm"
   height="40.837296mm"
   viewBox="0 0 92.912634 144.69909"
   id="svg3885"
   version="1.1"
   inkscape:version="0.91 r"
   sodipodi:docname="4.svg">
  <defs
     id="defs3887" />
  <sodipodi:namedview
     id="base"
     pagecolor="#ffffff"
     bordercolor="#666666"
     borderopacity="1.0"
     inkscape:pageopacity="0.0"
     inkscape:pageshadow="2"
     inkscape:zoom="1"
     inkscape:cx="51.699753"
     inkscape:cy="91.957323"
     inkscape:document-units="px"
     inkscape:current-layer="layer1"
     showgrid="false"
     inkscape:window-width="2560"
     inkscape:window-height="1388"
     inkscape:window-x="0"
     inkscape:window-y="0"
     inkscape:window-maximized="1"
     fit-margin-top="1"
     fit-margin-left="1"
     fit-margin-right="1"
     fit-margin-bottom="1" />
  <metadata
     id="metadata3890">
    <rdf:RDF>
      <cc:Work
         rdf:about="">
        <dc:format>image/svg+xml</dc:format>
        <dc:type
           rdf:resource="http://purl.org/dc/dcmitype/StillImage" />
        <dc:title></dc:title>
      </cc:Work>
    </rdf:RDF>
  </metadata>
  <g
     inkscape:label="Layer 1"
     inkscape:groupmode="layer"
     id="layer1"
     transform="translate(-141.64955,-344.16178)">
    <path
       inkscape:connector-curvature="0"
       d="m 228.44817,347.9446 -1.25207,-0.0597 -0.0928,-0.0132 -2.11619,0.0551 -0.3255,0.086 -0.40317,-0.0495 -1.88388,-0.0429 -0.23238,0.0974 -0.0929,-0.0132 -0.0928,-0.0132 -0.21713,-0.027 -0.4146,0.0436 -0.21715,-0.027 -0.31021,-0.0376 -0.10446,0.0816 -0.7444,-0.0914 -0.4185,0.0746 -0.53876,0.0282 -1.7636,0.004 -0.84885,-0.01 -0.84884,-0.01 -0.72868,0.0364 -0.84893,-0.01 -0.63176,0.0169 -0.0929,-0.0132 -0.0928,-0.0132 -0.63555,0.0479 -0.12413,-0.0146 -0.0929,-0.0132 -0.72488,0.005 -0.12412,-0.0146 -0.63178,0.017 -0.0929,-0.0132 -0.72857,0.0364 -0.3217,0.0549 -0.21703,-0.027 -0.0928,-0.0132 -0.12412,-0.0146 -0.0929,-0.0132 -0.093,-0.0132 -1.26734,0.0647 -0.31012,-0.0375 -0.84895,-0.01 -0.4146,0.0436 -0.85275,0.0213 -0.0929,-0.0132 -0.43413,-0.0536 -0.41469,0.0436 -2.42646,0.017 -0.31012,-0.0374 -1.14328,0.0801 -0.12412,-0.0146 -0.40328,-0.0496 -0.32157,0.0549 -0.0929,-0.0132 -0.31013,-0.0375 -0.21714,-0.027 -0.41459,0.0436 -0.12411,-0.0146 -0.18629,-0.0222 -0.44937,0.0708 -1.2521,-0.0597 -0.63178,0.017 -0.49624,-0.0612 -0.63558,0.0479 -0.43429,-0.0536 -1.04637,0.0604 -0.40317,-0.0496 -0.12412,-0.0146 -0.32551,0.086 -0.40319,-0.0496 -0.84891,-0.01 -0.72478,0.006 -0.41851,0.0746 -0.31013,-0.0376 -0.43432,-0.0536 -0.0928,-0.0132 -0.2285,0.0663 -0.18627,-0.0222 -0.4341,-0.0536 -0.41469,0.0435 -0.40328,-0.0495 -0.44938,0.0708 -0.093,-0.0132 -0.31021,-0.0375 -0.31021,-0.0377 -0.10456,0.0817 -0.43411,-0.0536 -0.0929,-0.0132 -0.21712,-0.027 -0.0929,-0.0132 -0.22851,0.0664 -0.093,-0.0132 -0.40319,-0.0495 -0.44956,0.0708 -0.71335,-0.0875 -0.22851,0.0663 -2.07388,-0.0342 -0.12412,-0.0146 -0.72477,0.006 -0.94194,-0.0214 -0.21713,-0.027 0.17909,0.33675 -0.0146,0.12412 0.20574,0.11976 0.0928,0.0132 0.0816,0.10454 0.10885,0.13931 0.0817,0.10444 0.51581,0.15775 0.0778,0.1355 0.0929,0.0132 -0.0132,0.0929 0.11266,0.10834 0.0663,0.22849 -0.0495,0.40329 -0.027,0.21703 -0.027,0.21701 -0.0928,-0.0132 -0.69651,0.54416 -0.47243,0.25694 -0.20886,0.16317 -0.1393,0.10882 0.19421,0.21287 2.36051,0.006 -0.007,3.65132 -0.69601,0.79611 0.40598,1.30924 -0.61052,0.86958 -0.006,0.81785 0.85163,1.26957 11.24071,-0.005 -0.0629,10.25618 4.99651,0.0782 0.0374,20.72152 2.93414,-0.0491 -1.71132,0.86045 0.0631,4.10065 3.21335,-0.0147 -0.009,10.07397 12.08192,0.0667 -0.16188,-10.22092 -3.66272,0.0855 0.0288,-4.59323 -2.84486,0.0915 -0.009,-2.48849 2.09882,0.85597 3.88741,-0.12096 -0.1441,-0.36396 0.6953,-1.04808 c 0.70362,-0.40668 1.23638,-0.36162 1.73596,-0.29061 0.49942,0.0714 0.95233,0.17528 1.51929,-0.0653 l 0.19166,7.92614 8.80234,-0.14707 0.0377,-0.31021 0.0645,-0.52726 0.0222,-0.18626 0.0762,-0.62036 0.0146,-0.12411 0.0222,-0.18608 -0.017,-0.63176 0.0645,-0.52737 0.0376,-0.31021 0.10283,-0.83751 0.0823,-1.4381 0.027,-0.21714 0.027,-0.21715 0.0221,-0.18609 0.0146,-0.1241 0.0612,-0.49625 0.0146,-0.12411 0.0762,-0.62036 0.0132,-0.0929 0.027,-0.21715 0.0132,-0.0928 0.0375,-0.31022 0.0132,-0.0929 0.0146,-0.12412 -0.10123,-0.20124 0.0645,-0.52737 0.0376,-0.31021 0.0132,-0.093 0.027,-0.21704 0.0374,-0.31023 0.10283,-0.83752 0.0496,-0.40318 0.0132,-0.0929 -0.0282,-0.53866 0.0876,-0.71344 0.027,-0.21704 0.0496,-0.40327 0.027,-0.21704 0.027,-0.21704 -0.0436,-0.4147 0.027,-0.21704 0.0132,-0.0929 0.10444,-0.0818 -0.0663,-0.22849 0.10283,-0.83741 0.0132,-0.0929 0.10284,-0.8375 0.0375,-0.31011 0.0132,-0.093 0.0645,-0.52727 0.0876,-0.71344 0.027,-0.21713 0.002,-1.03874 0.0876,-0.71344 0.0146,-0.12413 0.0376,-0.31011 0.0221,-0.18627 0.10283,-0.83743 0.0375,-0.31021 0.0646,-0.52727 -0.0703,-0.19762 0.0762,-0.62035 0.12938,-1.05449 0.0132,-0.093 0.0645,-0.52727 0.0496,-0.40328 0.0495,-0.40328 0.027,-0.21702 -0.0664,-0.22851 0.13706,-1.11664 0.10283,-0.8375 0.0132,-0.0929 0.0375,-0.31012 0.0646,-0.52737 0.078,-1.65917 0.0146,-0.12412 0.12569,-1.02352 0.027,-0.21713 -0.0702,-0.19742 0.027,-0.21714 0.0495,-0.40318 0.0146,-0.12413 0.0132,-0.0929 0.0875,-0.71348 0.0914,-0.74438 0.022,-0.18607 0.11295,-1.68643 0.0222,-0.18607 0.11426,-0.93063 0.0762,-0.62032 0.0146,-0.12414 0.0132,-0.0929 0.15235,-1.24069 0.027,-0.21703 0.0222,-0.18626 0.0536,-0.43411 0.0762,-0.62035 -0.10121,-0.20145 0.0376,-0.31011 0.0914,-0.74441 0.0762,-0.62032 0.0375,-0.31033 0.0376,-0.31011 0.10871,-1.65539 -0.5937,-0.29324 -0.21714,-0.027 -0.0816,-0.10455 -0.0928,-0.0132 -0.11263,-0.10831 -0.28361,-0.25518 -0.0663,-0.22848 0.0132,-0.0929 -0.19041,-0.24383 -0.14812,-0.33293 -0.1012,-0.20144 -0.0777,-0.13549 -0.19422,-0.21266 -0.25694,-0.47242 0.0132,-0.0929 z"
       id="MS-01"
       style="font-style:normal;font-weight:400;font-size:34.375px;font-family:'MS Shell Dlg 2';opacity:1;fill:none;fill-opacity:1;fill-rule:evenodd;stroke:#000000;stroke-width:0.33333385;stroke-linecap:square;stroke-linejoin:bevel;stroke-miterlimit:4;stroke-dasharray:none;stroke-opacity:1" />
    <path
       inkscape:connector-curvature="0"
       d="m 153.19976,439.48779 0.53104,0.0339 0.36087,1.93339 1.74787,1.66292 1.94973,0.0189 -0.0645,0.52737 10.07067,0.29193 0.0876,-2.50802 11.41098,-0.11018 c 0.48902,-0.51494 1.17776,-0.68164 1.85504,-0.74829 0.33374,-0.0513 0.70825,0.0133 1.04253,-0.0293 0.3344,-0.0427 0.63294,-0.19783 0.79725,-0.59478 0.2118,-0.14969 0.28567,-0.28025 0.27047,-0.40757 -0.0153,-0.12729 -0.12382,-0.22143 -0.24111,-0.34445 -0.23468,-0.24593 -0.53911,-0.50304 -0.43214,-0.84022 0.0867,-0.35499 0.20807,-0.72466 0.2264,-1.07412 0.0182,-0.34948 -0.058,-0.69081 -0.41678,-0.96428 -0.48117,-0.59831 -0.99031,-1.2241 -1.37249,-1.90011 -0.38215,-0.67604 -0.65754,-1.39777 -0.7064,-2.19617 -0.0687,-0.91913 -0.16113,-1.86233 -0.068,-2.779 0.28837,-0.85768 0.91805,-1.54604 1.11875,-2.44449 0.39695,-1.07987 0.26105,-2.26666 0.38395,-3.38464 0.12345,-0.77281 0.59998,-1.39748 1.09267,-1.97535 -0.0997,-0.25687 -0.3893,-0.4093 -0.7025,-0.43255 -0.31328,-0.0225 -0.64764,0.0787 -0.82491,0.30806 l -1.17876,-0.14468 -0.032,-2.30237 -4.94209,-0.009 0.11853,-2.50421 c 0.33489,0.21822 0.94949,0.12361 1.32174,0.005 0.14673,-0.21684 0.33663,-0.55813 0.53327,-0.75314 0.0983,-0.0975 0.18722,-0.14385 0.29814,-0.12085 0.11105,0.0228 0.24524,0.10832 0.36899,0.32871 0.188,0.25755 0.35524,0.58345 0.59098,0.8282 0.23572,0.24477 0.52112,0.39848 0.90003,0.36239 0.54356,-0.25032 1.12328,-0.44552 1.73587,-0.29061 0.83709,-0.0299 1.63076,0.16737 2.4542,0.26985 0.36941,0.003 0.74728,-0.091 1.11983,-0.14581 0.37256,-0.0548 0.76392,-0.0626 1.11662,0.13705 0.57237,0.23381 0.98932,0.70946 1.40182,1.14821 0.17907,0.0735 0.28961,0.0489 0.38363,-0.0474 0.094,-0.0963 0.15829,-0.26347 0.21216,-0.44626 0.10792,-0.36539 0.19021,-0.80977 0.40858,-1.02021 0.98179,-0.0431 1.7636,-0.45657 2.64195,-0.7462 0.58667,-0.23475 1.13233,-0.89678 1.7146,-1.14326 l 0.0154,1.67061 9.91125,0.052 -0.0144,-10.13982 0,0 0.009,-10.074 -3.21336,0.0147 -0.0631,-4.10063 1.71132,-0.86048 -2.93417,0.0491 -0.0373,-20.72151 -4.99652,-0.0782 0.0629,-10.25617 -11.24073,0.005 -0.85163,-1.26956 0.006,-0.81784 0.61052,-0.86958 -0.40599,-1.30923 0.69601,-0.79612 0.007,-3.65131 -2.36051,-0.006 0.0928,0.0132 -0.0146,0.12411 -0.0132,0.0929 -0.0132,0.0929 -0.10824,0.11267 -0.0132,0.0929 -0.21703,-0.027 -0.093,-0.0132 -0.19051,-0.24385 -0.16317,-0.20885 -0.24,0.15935 -0.0929,-0.0132 -0.65843,0.2341 -0.47223,0.25677 -0.0146,0.1241 -0.0929,-0.0132 -0.093,-0.0132 -0.0132,0.0929 -0.12413,-0.0146 -0.17457,-0.11589 -0.20194,-0.15074 0.0221,-0.18606 -0.0664,-0.22861 0.0132,-0.0929 0.11974,-0.20564 0.0132,-0.0929 -0.0929,-0.0132 -0.086,-0.3255 -0.0928,-0.0132 0.0146,-0.12413 -0.0929,-0.0132 0.0132,-0.0929 -0.31031,-0.0375 -0.12414,-0.0146 -0.0929,-0.0132 -0.24372,0.19042 -0.10456,0.0817 -0.10455,0.0817 -0.0146,0.12413 -0.0132,0.0929 0.0664,0.2285 -0.0132,0.0929 -0.0132,0.0929 0.19052,0.24376 0.27199,0.34824 0.14811,0.33303 -0.0132,0.0929 -0.027,0.21713 -0.19762,0.0703 -0.13929,0.10883 -0.0132,0.0929 -0.0132,0.0929 -0.0146,0.12413 -0.0132,0.0929 -0.0132,0.0929 0.0974,0.23231 0.26075,0.44138 0.14794,0.3329 -0.0146,0.12412 -0.0132,0.0929 -0.0132,0.0929 -0.0146,0.12412 -0.0132,0.0929 -0.10444,0.0815 -0.2323,0.0974 -0.19764,0.0703 -0.22851,0.0665 -0.31022,-0.0376 -0.29874,-0.13114 -0.0816,-0.10454 -0.10884,-0.13928 0.0222,-0.18608 0.0146,-0.12414 0.0132,-0.0929 0.027,-0.21713 0.33292,-0.14794 0.0146,-0.12411 0.0132,-0.093 0.0132,-0.0929 0.0146,-0.12412 -0.26056,-0.44125 0.027,-0.21714 -0.0929,-0.0132 -0.0929,-0.0132 -0.2323,0.0974 -0.10445,0.0817 -0.13549,0.078 -0.10834,0.11263 -0.0221,0.18607 -0.0146,0.12412 -0.0222,0.18627 0.0665,0.22852 0.086,0.32539 -0.0132,0.093 -0.13929,0.10883 -0.0132,0.0928 -0.093,-0.0132 -0.10455,0.0815 -0.12412,-0.0146 -0.0146,0.12413 -0.0928,-0.0132 -0.0132,0.0929 -0.027,0.21715 -0.0132,0.0929 0.0928,0.0132 0.1791,0.33684 0.28349,0.25526 0.0816,0.10445 0.21715,0.027 0.0929,0.0132 0.12413,0.0146 0.32149,-0.0549 0.20144,-0.1012 0.12413,0.0146 0.18604,0.0222 0.12414,0.0146 0.0931,0.0132 0.0929,0.0132 0.12412,0.0146 -0.0146,0.12413 0.0929,0.0132 -0.0132,0.0929 -0.0132,0.0929 0.0928,0.0132 -0.0146,0.1241 -0.10445,0.0817 -0.027,0.21712 -0.10445,0.0816 -0.16216,0.29493 -0.19763,0.0703 -0.24372,0.1904 -0.13104,0.29876 -0.12413,-0.0146 -0.0132,0.0929 -0.21285,0.19419 -0.12413,-0.0146 -0.0929,-0.0132 -0.0132,0.093 -0.0928,-0.0132 -0.12413,-0.0146 -0.18627,-0.0222 0.0132,-0.093 -0.12412,-0.0146 -0.0816,-0.10444 0.0146,-0.12413 -0.0702,-0.19761 0.027,-0.21705 0.0132,-0.0928 0.10824,-0.11265 0.25516,-0.28362 0.0374,-0.31014 -0.12411,-0.0146 0.0132,-0.0929 -0.17455,-0.11599 0.0146,-0.12412 -0.12413,-0.0146 0.0132,-0.0929 -0.19762,0.0702 -0.13932,0.10884 -0.1159,0.17477 -0.10823,0.11266 -0.13548,0.0779 -0.11977,0.20563 -0.0132,0.0929 -0.0132,0.0929 0.0399,0.44558 -0.0132,0.0929 0.11263,0.10833 -0.027,0.21704 -0.15074,0.20184 0.086,0.32549 0.0549,0.32148 0.17896,0.33694 0.16338,0.20886 0.10884,0.1393 0.17456,0.11599 0.1905,0.24383 0.0703,0.19742 0.086,0.32552 -0.0146,0.12412 -0.0221,0.18607 -0.12411,-0.0146 -0.13127,0.29884 -0.32538,0.086 -0.25516,0.28342 -0.10456,0.0817 -0.027,0.21713 -0.10454,0.0815 -0.0132,0.0929 -0.027,0.21713 -0.027,0.21714 0.0437,0.41461 0.0664,0.22861 -0.0132,0.0928 0.20565,0.11966 0.0928,0.0132 0.086,0.3255 0.0929,0.0132 -0.0146,0.12414 -0.0132,0.0929 -0.0132,0.0929 -0.0146,0.12414 -0.0132,0.0929 -0.10455,0.0817 -0.13932,0.10884 -0.11586,0.17457 -0.69652,0.54417 -0.0929,-0.0132 -0.32549,0.086 -0.12412,-0.0146 -0.10445,0.0817 -0.44136,0.26065 0.0817,0.10445 -0.11976,0.20574 -0.16215,0.29493 -0.0132,0.093 0.17907,0.33692 -0.0146,0.12414 0.0703,0.19741 -0.0146,0.12414 -0.11602,0.17476 -0.23238,0.0974 -0.18609,-0.0222 -0.12411,-0.0146 -0.0778,-0.13551 -0.0817,-0.10456 -0.0974,-0.2324 0.14691,-0.17076 0.14642,-0.42291 0.0374,-0.31013 0.0132,-0.0929 0.0132,-0.0929 -0.22862,0.0664 -0.19743,0.0703 -0.31031,-0.0376 -0.23232,0.0974 -0.21701,-0.027 -0.093,-0.0132 -0.0779,-0.1355 -0.21704,-0.027 -0.23231,0.0974 -0.0929,-0.0132 -0.10454,0.0816 -0.0132,0.0929 -0.027,0.21715 -0.0132,0.0929 0.0778,0.1355 0.27209,0.34814 0.0929,0.0132 0.11266,0.10835 -0.0132,0.093 0.078,0.13549 -0.0132,0.0929 -0.0132,0.0929 0.0664,0.22858 -0.10457,0.0817 -0.27047,0.40748 -0.10445,0.0817 -0.10445,0.0817 -0.23241,0.0974 -0.0929,-0.0132 -0.12413,-0.0146 -0.31012,-0.0375 -0.0929,-0.0132 -0.093,-0.0132 -0.2285,0.0664 -0.21701,-0.027 -0.0132,0.0929 -0.093,-0.0132 -0.0146,0.12412 -0.0929,-0.0132 -0.0132,0.0929 -0.0132,0.0929 -0.0146,0.12412 -0.0132,0.0929 -0.027,0.21704 -0.0132,0.0929 -0.0132,0.0929 -0.15073,0.20183 -0.0132,0.093 0.10883,0.1393 -0.0132,0.093 -0.0132,0.0929 -0.0146,0.12412 -0.12412,-0.0146 -0.0222,0.18606 -0.0146,0.12414 -0.17076,-0.1469 -0.12414,-0.0146 -0.18626,-0.0222 -0.29866,-0.13103 -0.2836,-0.25518 -0.21705,-0.027 0.0132,-0.0931 -0.0549,-0.32158 -0.12411,-0.0146 0.0132,-0.0929 -0.093,-0.0132 -0.0929,-0.0132 -0.21703,-0.027 -0.10445,0.0815 -0.13547,0.0778 -0.0146,0.12412 -0.0132,0.0929 -0.027,0.21714 -0.0222,0.18606 0.10883,0.13931 0.35365,0.45277 0.0817,0.10446 0.1241,0.0146 0.37651,0.26668 0.0816,0.10455 0.1355,-0.0779 0.0929,0.0132 0.0928,0.0132 0.12413,0.0146 0.0929,0.0132 0.10456,-0.0817 0.12412,0.0146 0.18608,0.0222 0.21713,0.027 0.21713,0.027 0.31013,0.0375 0.0929,0.0132 0.0817,0.10454 -0.0132,0.0929 0.0974,0.23232 -0.0132,0.0929 -0.15073,0.20193 -0.11977,0.20574 -0.10454,0.0815 -0.13549,0.0778 -0.10823,0.11264 -0.0928,-0.0132 -0.22861,0.0664 -0.21712,-0.027 -0.17456,-0.11598 -0.12412,-0.0146 -0.17098,-0.14692 -0.20564,-0.11967 -0.28353,-0.25514 -0.20575,-0.11976 -0.0928,-0.0132 -0.68507,0.45107 -0.34827,0.27219 -0.11588,0.17456 -0.027,0.21716 0.0817,0.10454 0.19052,0.24375 -0.0132,0.0929 0.58224,0.38642 0.0778,0.1355 0.10821,-0.11265 0.31032,0.0375 0.13551,-0.078 0.0928,0.0132 0.21704,0.027 0.0929,0.0132 -0.0132,0.0931 0.0779,0.1355 0.12414,0.0146 -0.0132,0.0929 -0.0132,0.0928 -0.0146,0.12411 -0.13551,0.0779 -0.13115,0.29875 -0.10454,0.0815 -0.0146,0.12412 -0.0132,0.093 -0.0132,0.0929 -0.027,0.21705 -0.0132,0.0929 0.0929,0.0132 -0.0146,0.12412 -0.10456,0.0817 -0.0132,0.0929 -0.12411,-0.0146 -0.10823,0.11266 -0.3216,0.0549 -0.21715,-0.027 -0.32147,0.0549 -0.0929,-0.0132 -0.23241,0.0974 -0.17076,-0.14691 -0.31032,-0.0375 -0.12412,-0.0146 -0.20126,0.10124 -0.1241,-0.0146 0.24912,0.53434 -0.0146,0.12412 0.20573,0.11977 0.17909,0.33684 -0.0132,0.0929 -0.0377,0.3103 -0.1393,0.10885 -0.19763,0.0702 -0.12411,-0.0146 -0.0929,-0.0132 -0.0929,-0.0132 -0.11264,-0.10823 -0.093,-0.0132 -0.078,-0.1355 0.0222,-0.18626 -0.24536,-0.56532 -0.0974,-0.2324 -0.34838,0.27218 -0.10822,0.11263 -0.10445,0.0816 -0.13547,0.0778 -0.31033,-0.0375 -0.18608,-0.022 -0.1393,0.10882 -0.0929,-0.0132 -0.10455,0.0817 -0.13551,0.0779 -0.0146,0.12414 -0.0132,0.0929 -0.0132,0.0929 -0.0146,0.12413 0.11265,0.10833 0.17476,0.11591 0.72918,0.21548 0.29866,0.13103 0.29886,0.13107 0.17075,0.1469 0.11263,0.10834 -0.0132,0.0929 -0.24374,0.19042 -0.13104,0.29876 -0.25525,0.2835 -0.10454,0.0815 -0.34817,0.2722 -0.0146,0.1241 -0.13549,0.0778 -0.22428,0.2873 -0.027,0.21714 -0.0132,0.093 -0.027,0.21704 0.0703,0.19764 0.0779,0.1355 0.19422,0.21267 0.0779,0.13548 0.1012,0.20143 0.0778,0.13549 0.093,0.0132 0.41129,0.2393 0.0929,0.0132 0.31023,0.0375 0.0778,0.13549 0.12411,0.0146 0.16335,0.20906 0.10884,0.13931 -0.0132,0.0929 -0.0132,0.0929 -0.13931,0.10883 -0.0132,0.093 -0.10457,0.0817 -0.3368,0.17897 -0.21705,-0.027 -0.0929,-0.0132 -0.67536,-0.39777 -0.12413,-0.0146 -0.63177,0.017 -0.0929,-0.0132 -0.42993,0.16755 -0.11265,-0.10822 -0.0929,-0.0132 0.0146,-0.12412 -0.20564,-0.11973 -0.093,-0.0132 -0.0929,-0.0132 -0.0132,0.0929 -0.1241,-0.0146 -0.0146,0.12411 -0.10445,0.0816 -0.027,0.21703 -0.0132,0.0929 0.0816,0.10454 -0.0146,0.12413 -0.10444,0.0816 0.0816,0.10445 -0.13106,0.29884 0.0779,0.1355 -0.0132,0.093 -0.0132,0.0929 0.27217,0.34837 0.20184,0.15074 0.20563,0.11964 0.18629,0.0222 0.12411,0.0146 0.0929,0.0132 0.22849,-0.0663 0.33693,-0.17909 0.19744,-0.0703 0.12412,0.0146 0.093,0.0132 -0.0132,0.0929 0.093,0.0132 0.20564,0.11974 0.0664,0.2285 0.11264,0.10823 -0.0146,0.12412 0.0817,0.10456 0.0929,0.0132 -0.027,0.21712 -0.0222,0.18609 -0.0929,-0.0132 -0.2324,0.0974 -0.10445,0.0817 -0.21704,-0.027 -0.19763,0.0703 -0.24373,0.19043 -0.0928,-0.0132 -0.12413,-0.0146 -0.0929,-0.0132 -0.0929,-0.0132 -0.12413,-0.0146 -0.67526,-0.39776 -0.0816,-0.10454 -0.2722,-0.34819 -0.10883,-0.1393 -0.27198,-0.34835 -0.093,-0.0132 -0.23239,0.0974 -0.32151,0.055 -0.31033,-0.0375 -0.0928,-0.0132 -0.10445,0.0817 -0.12412,-0.0146 -0.11976,0.20565 -0.10454,0.0815 -0.027,0.21712 -0.1355,0.0779 0.0974,0.2323 -0.0132,0.0929 0.0929,0.0132 -0.0146,0.12412 0.0929,0.0132 0.12412,0.0146 -0.0132,0.093 0.0928,0.0132 0.21703,0.027 0.39183,0.14262 0.0928,0.0132 0.12411,0.0146 0.0779,0.13552 0.20574,0.11966 0.28342,0.25513 0.2874,0.22431 0.0778,0.13549 -0.0132,0.0929 0.0663,0.22848 0.11263,0.10834 -0.0132,0.0929 -0.0146,0.12411 -0.13548,0.0777 -0.10443,0.0815 -0.34828,0.27219 -0.10832,0.11264 -0.4341,-0.0536 -0.0929,-0.0132 -0.24001,0.15933 -0.20124,0.10124 -0.13551,0.0779 -0.4147,0.0436 -0.10823,0.11265 -0.13549,0.0777 -0.0132,0.0929 -0.0146,0.12411 0.11265,0.10833 -0.0132,0.0929 0.0779,0.13549 0.19423,0.21267 0.0779,0.1355 0.57084,0.47945 0.0817,0.10446 -0.0146,0.12412 -0.0132,0.0929 -0.0132,0.0929 -0.10833,0.11264 -0.11599,0.17456 -0.13928,0.10883 -0.13106,0.29886 -0.0132,0.0929 -0.22849,0.0663 -0.10834,0.11261 -0.24002,0.15956 -0.0146,0.12412 -0.0375,0.31012 -0.0132,0.0931 0.31032,0.0376 0.11265,0.10831 0.0928,0.0132 0.0929,0.0132 0.1355,-0.0779 0.0929,0.0132 0.0929,0.0132 0.22851,-0.0664 0.10824,-0.11264 0.13549,-0.0778 0.11975,-0.20561 -0.0549,-0.32172 -0.10125,-0.20124 0.027,-0.21713 0.027,-0.21713 0.0132,-0.0929 0.1355,-0.0778 0.0929,0.0132 0.093,0.0132 0.13929,-0.10883 0.45822,0.37101 0.28339,0.25524 0.0746,0.41841 0.078,0.1355 -0.0132,0.093 -0.11974,0.20572 -0.14692,0.17077 -0.0146,0.12413 -0.10444,0.0817 -0.10447,0.0817 -0.21712,-0.027 -0.42983,0.16757 -0.22859,0.0663 -0.0146,0.12412 -0.0929,-0.0132 -0.10884,-0.13933 -0.20125,0.10124 -0.21712,-0.027 -0.10455,0.0817 -0.15073,0.20195 0.11266,0.10823 0.0816,0.10444 0.2835,0.25525 0.20564,0.11975 0.0778,0.1355 0.21713,0.027 0.0929,0.0132 0.21702,0.027 0.32551,-0.086 0.34817,-0.2722 0.19761,-0.0702 0.24374,-0.19041 0.23992,-0.15953 0.0374,-0.31014 0.027,-0.21714 0.0132,-0.0929 0.0146,-0.12412 0.0132,-0.0928 0.0132,-0.0929 0.10833,-0.11264 0.116,-0.17476 0.1393,-0.10883 0.0928,0.0132 0.0929,0.0132 0.12411,0.0146 0.093,0.0132 0.0779,0.13551 0.11264,0.10834 -0.0645,0.52726 -0.14691,0.17096 -0.11975,0.20564 -0.11976,0.20563 -0.13549,0.0778 -0.10445,0.0817 -0.11967,0.20565 -0.2438,0.19041 -0.11601,0.17477 -0.37482,0.48916 -0.1355,0.0779 -0.33692,0.17898 -0.10445,0.0815 0.0396,0.44575 -0.0132,0.0928 -0.0928,-0.0132 -0.0132,0.0929 0.0397,0.44577 0.086,0.3253 -0.0132,0.0931 0.35376,0.45267 -0.027,0.21714 -0.027,0.21713 0.20565,0.11966 0.0664,0.2285 -0.0132,0.093 0.0817,0.10455 0.10885,0.13929 0.17458,0.11591 0.0132,-0.0928 0.15073,-0.20194 0.027,-0.21713 0.093,0.0132 0.0132,-0.093 0.0496,-0.40328 0.10831,-0.11264 0.0132,-0.0929 0.13549,-0.0778 0.0928,0.0132 0.10823,-0.11265 0.21714,0.027 0.093,0.0132 0.10884,0.13928 0.0816,0.10445 0.0816,0.10446 -0.0146,0.12412 -0.0222,0.18627 -0.10823,0.11262 -0.0222,0.18609 -0.11965,0.20576 -0.25525,0.28351 -0.0132,0.0928 -0.0929,-0.0132 -0.0146,0.12412 -0.1355,0.0779 -0.0928,-0.0132 -0.0132,0.093 -0.0929,-0.0132 -0.23239,0.0974 0.055,0.32149 0.086,0.32551 0.0436,0.4146 -0.0645,0.52726 -0.0132,0.0929 -0.0132,0.0929 -0.0146,0.12415 -0.0132,0.0929 -0.0132,0.0929 -0.0146,0.12413 -0.0132,0.0929 -0.0928,-0.0132 -0.24384,0.1905 -0.2286,0.0663 -0.40317,-0.0494 -0.32159,0.0549 -0.20565,-0.11965 0.0132,-0.0928 -0.17098,-0.14695 -0.12412,-0.0146 -0.0928,-0.0132 -0.093,-0.0132 -0.31033,-0.0375 -0.0146,0.12411 -0.12412,-0.0146 -0.0132,0.0929 -0.0928,-0.0132 -0.13105,0.29876 -0.0132,0.0929 -0.0374,0.31015 0.0777,0.13549 0.0816,0.10455 0.21714,0.027 0.0817,0.10456 0.19042,0.24372 0.0817,0.10447 0.12412,0.0146 0.0929,0.0132 0.29494,0.16216 0.0929,0.0132 0.47782,0.46801 0.0816,0.10445 -0.0146,0.12412 -0.0376,0.31031 -0.0222,0.18607 -0.10822,0.11265 -0.23995,0.15954 -0.0929,-0.0132 -0.2324,0.0974 -0.10444,0.0815 -0.10445,0.0817 -0.15074,0.20194 -0.027,0.21715 -0.0132,0.0929 -0.027,0.21703 -0.11601,0.17479 -0.24383,0.19039 -0.10446,0.0816 -0.27039,0.40769 -0.10454,0.0816 -0.0132,0.0929 0.0929,0.0132 -0.0146,0.12412 -0.11601,0.17477 -0.11976,0.20564 -0.0132,0.0929 -0.1393,0.10882 0.11264,0.10834 -0.0132,0.0929 -0.0146,0.12411 0.0817,0.10445 0.19052,0.24376 0.0928,0.0132 0.39185,0.14261 0.11263,0.10831 0.0928,0.0132 0.0929,0.0132 0.13549,-0.0779 0.093,0.0132 0.21714,0.027 0.11966,-0.20577 0.25515,-0.28341 0.0221,-0.18627 0.1083,-0.11263 -0.0817,-0.10447 -0.0746,-0.41849 -0.0663,-0.22849 0.0132,-0.0929 0.0928,0.0132 0.0146,-0.12411 0.0132,-0.0929 -0.0816,-0.10456 0.0146,-0.12411 0.0222,-0.18606 0.0928,0.0132 0.13929,-0.10884 0.0132,-0.0929 0.32172,-0.055 0.0928,0.0132 0.31024,0.0375 -0.0132,0.0929 0.0817,0.10456 0.10884,0.1393 0.14793,0.33291 0.10119,0.20144 -0.0146,0.12412 -0.13547,0.0777 -0.0132,0.0929 0.10883,0.1393 0.17477,0.116 0.179,0.33682 -0.0132,0.0929 -0.0146,0.12413 -0.0132,0.0929 -0.0132,0.093 -0.0146,0.12411 -0.0132,0.0929 -0.0132,0.0929 -0.027,0.21714 -0.10446,0.0817 -0.37499,0.48916 -0.48365,0.34984 -0.20144,0.10121 -0.2285,0.0664 -0.093,-0.0132 -0.22862,0.0664 -0.11974,0.20564 -0.0132,0.0929 -0.16214,0.29505 -0.10823,0.11265 -0.10444,0.0816 -0.0375,0.31023 -0.0132,0.0929 -0.0146,0.12413 -0.0132,0.0928 -0.0132,0.093 -0.0146,0.12414 -0.0222,0.18628 0.0778,0.13548 0.0816,0.10444 -0.0132,0.0928 -0.23933,0.4115 -0.0132,0.0929 0.0663,0.2285 -0.0132,0.0929 0.0816,0.10455 0.12411,0.0146 0.093,0.0132 0.41459,-0.0436 0.21713,0.027 0.31024,0.0375 0.51591,0.15785 0.29483,0.16214 0.39186,0.14253 0.0928,0.0132 0.11264,0.10824 -0.0146,0.12413 -0.0222,0.18626 -0.24373,0.19042 -0.25515,0.28351 -0.10455,0.0817 -0.42981,0.16758 -0.22861,0.0663 -0.34826,0.27219 -0.11964,0.20567 -0.15072,0.20183 -0.11601,0.17475 -0.0146,0.12412 -0.0929,-0.0132 -0.12414,-0.0146 -0.10444,0.0816 -0.0132,0.0929 -0.11965,0.20573 0.0816,0.10454 -0.0146,0.12413 -0.0132,0.093 -0.027,0.21704 0.0929,0.0132 0.086,0.32552 0.0817,0.10445 -0.0132,0.0929 0.20192,0.15072 0.17457,0.116 -0.0132,0.0929 0.21715,0.027 0.11598,-0.17477 0.21705,0.027 0.42993,-0.16756 0.15071,-0.20182 0.41461,-0.0437 0.32161,-0.055 0.027,-0.21705 0.11964,-0.20565 0.1355,-0.0778 0.027,-0.21715 0.0132,-0.0928 0.21286,-0.19422 0.0132,-0.0929 0.21703,0.027 0.0815,0.10454 0.19051,0.24374 0.0664,0.2285 -0.0132,0.0929 0.0974,0.23241 -0.1355,0.0778 -0.13116,0.29875 -0.0132,0.0929 -0.093,-0.0132 -0.15073,0.20184 -0.21266,0.19424 -0.13549,0.0779 -0.19764,0.0703 -0.13932,0.10883 -0.44123,0.26057 -0.0132,0.0929 -0.3216,0.055 0.179,0.33674 0.2836,0.25525 0.2834,0.25524 0.60893,0.16918 0.2836,0.25517 0.18609,0.0222 0.28738,0.22429 0.0974,0.2323 -0.0132,0.0928 0.0929,0.0132 -0.0146,0.12413 -0.10446,0.0817 -0.13549,0.0779 -0.10834,0.11264 -0.0929,-0.0132 -0.31012,-0.0375 -0.20194,-0.15072 -0.21714,-0.027 -0.0816,-0.10454 -0.20565,-0.11976 -0.0779,-0.1355 -0.27209,-0.34815 -0.16756,-0.42993 -0.17478,-0.1159 -0.3808,-0.48764 -0.10833,0.11263 -0.0222,0.18627 -0.0146,0.12411 -0.0222,0.18607 -0.13126,0.29885 -0.28178,0.50058 -0.0132,0.0929 -0.0374,0.31013 0.0778,0.1355 0.11264,0.10832 -0.0132,0.093 0.0779,0.1355 0.19434,0.21266 0.0928,0.0132 -0.0146,0.12414 0.29874,0.13113 0.20576,0.11977 0.0777,0.13548 0.39187,0.14253 0.21703,0.027 0.31022,0.0375 0.0929,0.0132 0.32151,-0.0549 0.24382,-0.1905 0.11977,-0.20573 0.12411,0.0146 0.31013,0.0374 -0.0146,0.12411 0.0929,0.0132 0.19432,0.21286 0.0928,0.0132 -0.0146,0.12415 0.0702,0.19741 -0.0146,0.12413 -0.10445,0.0817 -0.0132,0.0929 -0.10825,0.11264 -0.13548,0.0777 -0.33692,0.17897 -0.0221,0.18628 -0.0146,0.12413 -0.0132,0.0929 -0.11965,0.20564 -0.14252,0.39185 -0.0132,0.0929 0.0929,0.0132 -0.0146,0.12413 0.0929,0.0132 0.11263,0.10831 0.17476,0.11602 0.72918,0.21547 0.32531,-0.086 0.18626,0.0222 0.29484,0.16214 0.21713,0.027 0.20577,0.11966 0.0816,0.10444 -0.027,0.21712 -0.027,0.21714 -0.0132,0.0929 -0.0928,-0.0132 -0.25525,0.28352 -0.11977,0.20575 -0.13549,0.0777 -0.10446,0.0817 -0.33683,0.17907 -0.0929,-0.0132 -0.12413,-0.0146 -0.15934,-0.24001 0.0132,-0.0928 -0.21715,-0.027 -0.0929,-0.0132 -0.0132,0.0928 -0.12412,-0.0146 -0.0146,0.12413 -0.0376,0.3103 -0.0376,0.31012 0.11264,0.10835 0.15956,0.24002 0.11263,0.10824 -0.0132,0.0928 -0.23242,0.0974 -0.10454,0.0817 -0.0375,0.31021 -0.027,0.21705 -0.0132,0.0929 -0.0132,0.0929 -0.13929,0.10884 -0.0929,-0.0132 -0.0928,-0.0132 -0.12412,-0.0146 0.0146,-0.12411 -0.0929,-0.0132 0.0132,-0.0929 -0.0816,-0.10454 -0.28343,-0.25514 -0.11264,-0.10822 -0.18627,-0.0222 -0.12413,-0.0146 -0.18606,-0.022 -0.1355,0.0779 -0.0132,0.0929 -0.027,0.21713 -0.0132,0.0929 -0.21286,0.19419 -0.19041,-0.24372 -0.0929,-0.0132 -0.21713,-0.027 -0.23241,0.0974 -0.20883,0.16317 -0.16217,0.29504 -0.0929,-0.0132 -0.0929,-0.0132 -0.12413,-0.0146 -0.0816,-0.10455 -0.0928,-0.0132 -0.12412,-0.0146 -0.54577,0.34225 -0.12413,-0.0146 -0.10832,0.11264 -0.0222,0.18627 -0.0146,0.12412 -0.13113,0.29865 -0.0375,0.31033 -0.0132,0.0929 -0.0132,0.0928 -0.0146,0.12411 -0.0132,0.0929 0.0817,0.10456 -0.0146,0.12413 0.19433,0.21267 0.18608,0.022 0.29502,0.16216 0.21705,0.027 0.0928,0.0132 0.43434,0.0536 0.0928,0.0132 0.10822,-0.11264 0.13547,-0.0778 0.1863,0.0222 0.22848,-0.0663 0.0928,0.0132 0.20576,0.11966 0.20576,0.11967 0.18606,0.0222 0.0612,-0.49624 0.0146,-0.12413 0.0132,-0.0929 0.027,-0.21702 -0.16314,-0.20906 -0.10883,-0.13929 0.0222,-0.18607 0.23231,-0.0974 0.20184,0.15071 0.28743,0.22411 0.0779,0.1355 0.21703,0.027 0.29884,0.13116 0.0549,0.32158 -0.0132,0.093 -0.10824,0.11264 -0.0132,0.0929 -0.1355,0.0779 -0.0146,0.12415 -0.10454,0.0815 -0.0132,0.0929 -0.21713,-0.027 -0.10824,0.11265 -0.0132,0.0929 0.0663,0.22859 -0.11588,0.17458 -0.10822,0.11265 -0.66986,0.32711 -0.33693,0.17897 -0.0132,0.0929 0.006,0.72487 -0.0146,0.12413 -0.0929,-0.0132 -0.31013,-0.0375 -0.21716,-0.027 -0.19048,-0.24384 -0.26058,-0.44125 -0.078,-0.13551 -0.20576,-0.11975 -0.0929,-0.0132 -0.0928,-0.0132 -0.12412,-0.0146 -0.11976,0.20573 -0.10455,0.0816 -0.13547,0.0778 -0.0146,0.12413 0.11265,0.10832 -0.0132,0.093 0.0778,0.1355 0.0817,0.10445 0.21703,0.027 0.39187,0.14253 0.12412,0.0146 0.6981,0.21165 0.093,0.0132 0.11264,0.10832 0.0817,0.10455 -0.0146,0.12414 0.0703,0.19743 0.12412,0.0146 -0.37501,0.48924 -0.13548,0.0779 -0.21268,0.19434 -0.32171,0.055 -1.17422,0.0762 -0.0132,0.0929 -0.0929,-0.0132 -0.0146,0.12414 -0.12413,-0.0146 -0.10446,0.0817 -0.0132,0.0929 -0.10823,0.11265 -0.14691,0.17076 -0.0146,0.12413 -0.0132,0.0929 -0.027,0.21713 -0.0375,0.31011 0.21704,0.027 -0.0222,0.18627 -0.0146,0.12413 0.0816,0.10444 -0.0132,0.0929 -0.18606,-0.0222 -0.0146,0.12411 -0.0132,0.0929 -0.12414,-0.0146 -0.0929,-0.0132 -0.0929,-0.0132 -0.027,0.21714 -0.13549,0.0777 -0.45267,0.35377 -0.13114,0.29866 -0.33674,0.17908 -0.44576,0.0397 -0.0146,0.12413 -0.10444,0.0816 -0.0132,0.0928 0.0778,0.13549 0.19432,0.21287 0.27209,0.34817 0.0928,0.0132 -0.0146,0.12411 -0.11591,0.17478 -0.0146,0.12412 -0.11588,0.17459 -0.12412,-0.0146 -0.10834,0.11262 -0.0929,-0.0132 -0.20185,-0.15071 -0.0929,-0.0132 -0.11265,-0.10823 -0.0664,-0.22849 -0.0817,-0.10455 0.0132,-0.0929 0.0536,-0.43409 -0.086,-0.32552 -0.0928,-0.0132 -0.74001,0.12958 -0.21713,-0.027 -0.0132,0.0929 -0.0929,-0.0132 -0.0146,0.12413 -0.12413,-0.0146 -0.0132,0.0928 -0.0132,0.0929 -0.33834,1.21784 -0.0644,0.52738 -0.0132,0.0928 -0.0377,0.31031 0.0778,0.13549 0.0928,0.0132 0.12411,0.0146 0.0817,0.10446 -0.006,0.031 z"
       id="MS-02"
       style="font-style:normal;font-weight:400;font-size:34.375px;font-family:'MS Shell Dlg 2';opacity:1;fill:none;fill-opacity:1;fill-rule:evenodd;stroke:#000000;stroke-width:0.33333385;stroke-linecap:square;stroke-linejoin:bevel;stroke-miterlimit:4;stroke-dasharray:none;stroke-opacity:1" />
    <path
       inkscape:connector-curvature="0"
       d="m 226.61553,396.20602 -8.80234,0.14705 -0.19167,-7.92614 c -0.56695,0.2406 -1.01983,0.13632 -1.5193,0.0653 -0.49952,-0.0714 -1.03227,-0.11653 -1.73594,0.29061 l -0.69531,1.04808 0.1441,0.36396 -3.8874,0.12095 -2.09882,-0.85596 0.009,2.48848 2.84486,-0.0915 -0.0288,4.59322 3.66274,-0.0855 0.16187,10.22092 -12.08192,-0.0667 0.0144,10.13983 -9.91126,-0.052 -0.0153,-1.6706 c -0.58229,0.24647 -1.12793,0.90852 -1.71461,1.14327 -0.87834,0.2896 -1.66017,0.70311 -2.64194,0.74619 -0.21838,0.21044 -0.30075,0.65482 -0.40859,1.02021 -0.0539,0.18278 -0.11828,0.35 -0.21217,0.44626 -0.094,0.0963 -0.20454,0.12098 -0.38363,0.0474 -0.4125,-0.43873 -0.82944,-0.91439 -1.40181,-1.14819 -0.3527,-0.19966 -0.74405,-0.19191 -1.11663,-0.13704 -0.37256,0.0548 -0.7504,0.14955 -1.11981,0.14581 -0.8235,-0.10208 -1.61711,-0.29982 -2.45422,-0.26985 -0.61261,-0.15488 -1.19229,0.0403 -1.73585,0.29061 -0.37893,0.0361 -0.66432,-0.11765 -0.90006,-0.36238 -0.23573,-0.24476 -0.40296,-0.57067 -0.59097,-0.8282 -0.12376,-0.22043 -0.25799,-0.30563 -0.36898,-0.32872 -0.11095,-0.0227 -0.19984,0.0232 -0.29816,0.12086 -0.19663,0.19499 -0.38654,0.5363 -0.53325,0.75313 -0.37229,0.11903 -0.98686,0.21332 -1.32176,-0.005 l -0.11852,2.50421 4.9421,0.009 0.032,2.30237 1.17875,0.14468 c 0.17727,-0.2293 0.5117,-0.3313 0.8249,-0.30806 0.31328,0.0225 0.60279,0.17568 0.70252,0.43256 -0.4927,0.57785 -0.96919,1.20254 -1.09267,1.97535 -0.12249,1.118 0.0129,2.30474 -0.38395,3.38462 -0.2007,0.89845 -0.83039,1.58683 -1.11875,2.44449 -0.0933,0.91665 -5.6e-4,1.85987 0.068,2.77901 0.0489,0.79841 0.32425,1.52014 0.7064,2.19616 0.38218,0.67601 0.8913,1.30181 1.37248,1.90013 0.35885,0.27345 0.43511,0.61479 0.41678,0.96427 -0.0182,0.34948 -0.1396,0.71914 -0.22637,1.07412 -0.10694,0.33717 0.19745,0.59429 0.43211,0.84022 0.11728,0.12301 0.22582,0.21716 0.24113,0.34446 0.0152,0.12728 -0.0587,0.25786 -0.2705,0.40757 -0.16429,0.39692 -0.46284,0.55211 -0.79722,0.59477 -0.3343,0.0427 -0.70883,-0.0214 -1.04255,0.0294 -0.67727,0.0667 -1.36602,0.23335 -1.85504,0.7483 l -11.41099,0.11016 -0.0876,2.50803 -10.07067,-0.29194 0.0644,-0.52736 -1.94971,-0.0189 -1.74788,-1.66291 -0.36086,-1.93339 -0.53104,-0.0339 -0.007,0.0619 -0.0146,0.12413 -0.0929,-0.0132 -0.12412,-0.0146 -0.19744,0.0703 -0.1355,0.0779 -0.22428,0.28721 -0.38623,0.58228 -0.0146,0.12411 -0.16218,0.29504 0.086,0.32532 -0.0612,0.49623 0.0663,0.2286 0.0282,0.53864 -0.0132,0.0929 -0.0132,0.0929 -0.0376,0.3101 -0.10822,0.11266 -0.33303,0.14812 -0.0146,0.12412 -0.0929,-0.0132 -0.21704,-0.027 -0.21703,-0.027 -0.60512,-0.20023 -0.29883,-0.13114 -0.0816,-0.10456 -0.0778,-0.13548 -0.11263,-0.10822 -0.0818,-0.10448 -0.0778,-0.13549 -0.12411,-0.0146 -0.21267,0.19424 -0.13548,0.0778 -0.10833,0.11263 -0.0132,0.0929 -0.0132,0.093 -0.0146,0.12412 -0.0222,0.18606 0.0929,0.0132 -0.0146,0.12413 -0.0132,0.0929 0.2834,0.25525 0.19434,0.21268 0.0929,0.0132 0.12414,0.0146 -0.0146,0.12412 0.0929,0.0132 0.0928,0.0132 0.12415,0.0146 0.20141,-0.10118 0.21705,0.027 0.0132,-0.0929 0.55401,-0.15231 0.0928,0.0132 0.0132,-0.0929 0.0928,0.0132 0.12413,0.0146 0.0929,0.0132 0.0929,0.0132 0.19041,0.24382 -0.0132,0.0929 -0.027,0.21705 -0.0132,0.0931 -0.0132,0.0929 -0.0146,0.12413 -0.10443,0.0815 -0.0132,0.0928 -0.12411,-0.0146 -0.21286,0.1943 -0.24375,0.19052 -0.0132,0.0929 -0.22847,0.0664 -0.0929,-0.0132 -0.10833,0.11264 -0.32149,0.055 -0.13552,0.0779 -0.20142,0.1012 -0.10885,-0.1393 -0.0928,-0.0132 -0.32541,0.086 -0.093,-0.0132 -0.12411,-0.0146 -0.0928,-0.0132 -0.10444,0.0815 -0.0132,0.0929 -0.0146,0.12411 -0.0132,0.0929 -0.0132,0.0929 0.0779,0.13549 0.0929,0.0132 -0.0221,0.18606 -0.10822,0.11265 0.0435,0.41469 0.0479,0.63558 -0.0496,0.40328 0.078,0.1355 0.0817,0.10445 0.0974,0.2323 0.0816,0.10456 0.2835,0.25525 0.19433,0.21266 0.27199,0.34833 0.0664,0.22851 -0.0132,0.0929 0.0778,0.1355 -0.0132,0.0929 -0.11976,0.20574 -0.25524,0.28341 -0.62034,-0.0762 -0.0928,-0.0132 -0.20184,-0.15072 -0.0817,-0.10446 -0.0817,-0.10445 -0.10884,-0.1393 -0.0816,-0.10454 0.0132,-0.0929 -0.23402,-0.65844 0.0146,-0.12412 0.116,-0.17455 -0.0664,-0.22861 -0.0929,-0.0132 -0.12411,-0.0146 -0.0928,-0.0132 -0.10448,0.0817 -0.24382,0.1904 -0.10454,0.0815 -0.16216,0.29504 -0.0146,0.12413 -0.0221,0.18607 0.0974,0.23241 0.0817,0.10455 0.0665,0.22849 0.13549,-0.0777 0.0146,-0.12412 0.0928,0.0132 0.0928,0.0132 0.21715,0.027 -0.0146,0.12412 -0.10454,0.0815 -0.0132,0.0929 -0.0375,0.31035 -0.0146,0.1241 0.0817,0.10445 -0.027,0.21703 0.0817,0.10455 0.20564,0.11975 0.0663,0.2285 0.12412,0.0146 0.15954,0.23993 0.12411,0.0146 0.1746,0.1159 -0.0132,0.0929 0.12413,0.0146 -0.0645,0.52724 -0.0132,0.0929 -0.1507,0.20183 -0.027,0.21705 -0.10445,0.0817 -0.42996,0.16765 -0.0132,0.0929 -0.12413,-0.0146 -0.32149,0.0549 -0.20142,0.10121 -0.12413,-0.0146 -0.18609,-0.0222 -0.3103,-0.0375 -0.43412,-0.0536 -0.38802,-0.17358 -0.41851,0.0746 -0.2285,0.0664 -0.10447,0.0818 -0.0146,0.12412 -0.0221,0.18608 0.0664,0.22857 0.19038,0.24382 0.38044,0.23553 0.28352,0.25525 0.28351,0.25525 0.19423,0.21266 0.15953,0.24004 -0.0132,0.0929 -0.027,0.21705 -0.0132,0.093 -0.0146,0.12413 -0.13114,0.29884 -0.10454,0.0815 -0.15072,0.20182 -0.37101,0.45822 -0.10833,0.11263 -0.0132,0.0929 -0.0375,0.31024 -0.0132,0.0929 0.078,0.13551 0.11263,0.10832 0.0816,0.10456 0.0928,0.0132 0.39627,0.3634 0.28339,0.25525 0.28362,0.25528 0.0816,0.10445 0.0816,0.10444 0.10884,0.13931 -0.0222,0.18625 -0.0146,0.12412 -0.0132,0.0929 -0.0132,0.0929 -0.0146,0.12412 -0.25517,0.28361 -0.11586,0.17459 -0.33695,0.17907 -0.4608,0.16386 -0.42612,0.13648 -0.24373,0.19053 0.21703,0.027 2.19787,0.0495 0.72486,-0.005 0.21703,0.027 0.31024,0.0375 0.0132,-0.0929 1.47305,0.0554 0.0929,0.0132 0.21703,0.027 0.4147,-0.0437 1.15914,0.0474 2.50802,0.0876 0.41459,-0.0435 0.0929,0.0132 0.12413,0.0146 1.13185,0.0128 1.68622,0.11294 0.63177,-0.0169 0.31032,0.0376 0.20125,-0.10125 0.4343,0.0536 1.57359,0.004 0.18626,0.0222 1.06974,0.005 0.81796,0.006 0.12412,0.0146 0.31013,0.0374 0.18627,0.0222 0.44558,-0.0398 0.40327,0.0495 0.21705,0.027 1.05026,-0.0914 0.0928,0.0132 0.12413,0.0146 0.0929,0.0132 0.31026,0.0374 0.0928,0.0132 0.44576,-0.0397 0.0928,0.0132 1.56608,0.0663 0.4146,-0.0436 0.12413,0.0146 1.45355,-0.042 0.12412,0.0146 0.40318,0.0495 0.41458,-0.0435 1.56238,0.0974 0.12412,0.0146 0.0928,0.0132 0.10824,-0.11267 0.21712,0.027 0.21714,0.027 0.31013,0.0375 0.0929,0.0132 0.3216,-0.055 0.0928,0.0132 1.06613,0.0364 0.0928,0.0132 0.0928,0.0132 0.3255,-0.086 0.21704,0.027 0.0929,0.0132 1.15912,0.0475 0.94194,0.0214 0.23239,-0.0974 1.34512,0.0707 0.21703,0.027 0.50771,-0.0322 0.44958,-0.0708 0.40318,0.0494 0.093,0.0132 0.75582,-0.002 0.50769,-0.0322 0.21704,0.027 0.40328,0.0496 0.54247,-0.0593 0.0929,0.0132 0.31014,0.0375 0.12411,0.0146 0.72489,-0.006 0.0929,0.0132 0.75584,-0.002 0.32532,-0.086 0.0929,0.0132 0.0929,0.0132 0.63176,-0.0169 0.12413,0.0146 0.62033,0.0762 0.19742,-0.0702 0.40329,0.0495 0.003,-2.07771 -2.01177,-0.0261 -0.48815,-1.66571 -1.63573,-0.0117 -0.0141,-1.16673 -0.597,-0.0103 0.0483,-6.291 5.02747,0.0818 0.0279,-1.25593 10.35318,0.0433 -0.034,-10.23663 14.33532,-1.10503 0.002,-2.58148 1.18626,0.0826 0.0474,0.38363 2.79804,-0.22315 0.54961,-0.37333 -0.53226,-0.53765 0.057,-2.25991 0.78689,0.002 0.01,-0.84882 3.81394,-0.0355 0.046,-0.37217 0.24374,-1.98509 0.0377,-0.3103 -0.006,-0.72478 0.0376,-0.3102 0.0376,-0.31023 0.0495,-0.40326 0.027,-0.21705 0.0376,-0.31022 0.0762,-0.62033 0.0132,-0.0929 0.11415,-0.93042 -0.0478,-0.63559 0.10283,-0.83751 0.10283,-0.83751 0.0221,-0.18605 0.0146,-0.12414 0.0132,-0.0929 0.0376,-0.31021 0.027,-0.21705 0.0823,-1.43828 0.0146,-0.12413 0.0376,-0.31012 0.0612,-0.49625 0.0146,-0.12412 0.22323,-2.58587 0.0762,-0.62034 0.027,-0.21714 0.0612,-0.49625 0.13115,-2.09332 0.0495,-0.40326 0.0914,-0.74442 0.0132,-0.0929 0.0132,-0.0929 -0.0778,-0.13549 0.0495,-0.40328 0.16362,-1.3337 0.12398,-1.77945 0.16382,-1.33367 0.027,-0.21714 -0.0364,-0.72867 0.12938,-1.05449 0.0974,-1.56238 0.0875,-0.71335 0.0132,-0.0928 0.22847,-1.86102 0.0597,-1.25209 0.0146,-0.12413 0.0495,-0.40326 0.0376,-0.31021 0.027,-0.21715 0.0221,-0.18607 0.10284,-0.83752 -0.0213,-0.85272 0.0132,-0.0929 z"
       id="MS-03"
       style="font-style:normal;font-weight:400;font-size:34.375px;font-family:'MS Shell Dlg 2';opacity:1;fill:none;fill-opacity:1;fill-rule:evenodd;stroke:#000000;stroke-width:0.33333385;stroke-linecap:square;stroke-linejoin:bevel;stroke-miterlimit:4;stroke-dasharray:none;stroke-opacity:1" />
    <path
       inkscape:connector-curvature="0"
       d="m 223.46339,431.36524 -3.81394,0.0355 -0.01,0.84884 -0.78689,-0.002 -0.057,2.25986 0.53224,0.53769 -0.54959,0.37331 -2.79806,0.22316 -0.0475,-0.38364 -1.18628,-0.0825 -0.002,2.58148 -14.33531,1.105 0.034,10.23666 -10.35319,-0.0433 -0.0279,1.25593 -5.02747,-0.0818 -0.0483,6.29101 0.59701,0.0103 0.0141,1.16671 1.63573,0.0118 0.48815,1.66571 2.01177,0.0261 -0.003,2.0777 0.1241,0.0146 0.32542,-0.086 0.21714,0.027 0.31012,0.0375 1.26355,-0.0339 -0.0132,0.0929 0.0929,0.0132 0.0132,-0.0929 0.093,0.0132 0.2323,-0.0974 0.0929,0.0132 -0.0146,0.12413 -0.10445,0.0817 -0.0132,0.0929 0.0928,0.0132 0.12411,0.0146 -0.0376,0.31012 -0.1393,0.10884 -0.0929,-0.0132 -0.0132,0.0929 0.20565,0.11973 -0.0146,0.12414 -0.0132,0.093 -0.11264,-0.10824 -0.0132,0.0929 -0.21265,0.19422 -0.14693,0.17098 -0.11975,0.20564 -0.0132,0.0929 0.0778,0.13551 0.11264,0.10833 -0.1355,0.0779 0.0974,0.2323 0.093,0.0132 -0.0132,0.0928 -0.0146,0.12412 -0.10444,0.0817 -0.12412,-0.0146 -0.0817,-0.10457 -0.10455,0.0817 -0.0132,0.0929 0.0779,0.1355 0.0816,0.10444 -0.0132,0.093 -0.093,-0.0132 -0.0929,-0.0132 -0.12414,-0.0146 -0.0928,-0.0132 -0.0146,0.12414 0.0816,0.10455 -0.027,0.21712 -0.10445,0.0816 -0.0928,-0.0132 -0.0132,0.0929 -0.0146,0.12412 0.0929,0.0132 0.19421,0.21285 -0.0375,0.31013 -0.13931,0.10884 -0.0779,-0.1355 -0.0928,-0.0132 -0.0146,0.12411 0.0816,0.10456 -0.0132,0.0929 -0.21704,-0.027 -0.027,0.21704 -0.027,0.21703 0.12412,0.0146 0.0816,0.10455 0.0663,0.22859 -0.0929,-0.0132 -0.0132,0.0928 -0.20564,-0.11966 -0.0929,-0.0132 -0.0929,-0.0132 0.0703,0.19744 -0.0146,0.12412 -0.116,0.17477 -0.13931,0.10884 -0.0928,-0.0132 -0.0132,0.0929 0.0929,0.0132 0.11265,0.10823 -0.0146,0.12411 -0.12413,-0.0146 -0.0928,-0.0132 0.0146,-0.12412 -0.0816,-0.10446 -0.0132,0.0928 -0.12412,-0.0146 -0.0146,0.12414 -0.0376,0.31031 -0.11598,0.17456 -0.0146,0.12413 -0.0132,0.0929 -0.0132,0.0929 0.093,0.0132 -0.0146,0.12411 -0.0132,0.0929 0.0974,0.23228 -0.0132,0.0929 0.0929,0.0132 0.0928,0.0132 -0.0132,0.0929 -0.10824,0.11265 -0.0928,-0.0132 -0.21714,-0.027 -0.10455,0.0816 0.0817,0.10446 -0.0146,0.12411 0.093,0.0132 0.12413,0.0146 -0.0222,0.18627 -0.12412,-0.0146 -0.0146,0.12412 -0.0929,-0.0132 -0.10455,0.0815 -0.13547,0.0777 -0.0146,0.12413 0.12413,0.0146 0.093,0.0132 0.0816,0.10455 -0.027,0.21713 -0.0132,0.093 -0.10454,0.0815 -0.13116,0.29883 -0.0146,0.12412 -0.0132,0.0929 0.0929,0.0132 0.0132,-0.0928 0.0929,0.0132 -0.0132,0.093 -0.0929,-0.0132 -0.0132,0.0929 -0.0929,-0.0132 -0.12414,-0.0146 -0.0146,0.12413 0.12415,0.0146 0.18627,0.0222 0.12412,0.0146 0.0929,0.0132 0.19419,0.21286 0.0665,0.22851 0.0664,0.22851 -0.13116,0.29884 -0.0132,0.0929 0.093,0.0132 -0.0132,0.0929 -0.0146,0.12413 -0.0221,0.18627 0.12413,0.0146 0.0132,-0.0929 0.0929,0.0132 -0.0132,0.0929 -0.0928,-0.0132 -0.0146,0.12412 -0.0132,0.0929 -0.0132,0.0929 -0.0146,0.12412 0.093,0.0132 0.0928,0.0132 0.11262,0.10831 -0.0132,0.0929 0.0664,0.2285 -0.0132,0.0929 -0.0146,0.12413 0.093,0.0132 0.13931,-0.10883 0.0929,0.0132 0.0778,0.13549 -0.10446,0.0817 -0.0928,-0.0132 -0.12413,-0.0146 -0.0132,0.0929 -0.0146,0.12414 0.21703,0.027 0.0816,0.10445 -0.0132,0.0929 -0.0928,-0.0132 -0.0146,0.12414 0.0928,0.0132 0.12413,0.0146 0.0929,0.0132 0.093,0.0132 0.11264,0.10835 0.0663,0.22857 0.0816,0.10444 -0.027,0.21704 0.11263,0.10832 0.093,0.0132 0.0816,0.10456 -0.027,0.21703 0.12413,0.0146 0.0928,0.0132 0.0929,0.0132 0.11266,0.10823 -0.0146,0.12412 0.18628,0.0221 0.12412,0.0146 0.0929,0.0132 0.0928,0.0132 -0.0132,0.0929 0.12411,0.0146 -0.027,0.21714 0.0817,0.10444 0.0929,0.0132 0.12411,0.0146 0.0817,0.10446 0.0663,0.22859 0.12411,0.0146 0.17477,0.116 0.19041,0.24373 -0.027,0.21704 -0.0222,0.18627 -0.0146,0.12412 0.0929,0.0132 -0.0132,0.0929 0.0746,0.4185 -0.0146,0.12413 -0.12412,-0.0146 -0.0222,0.18607 0.1241,0.0146 -0.0146,0.12411 0.14809,0.33314 0.10124,0.20125 0.1479,0.33311 0.0974,0.23229 0.0817,0.10446 0.078,0.13549 0.21705,0.027 -0.0132,0.0929 0.20566,0.11975 0.17095,0.14693 -0.0221,0.18608 -0.027,0.21713 0.11262,0.10832 -0.0146,0.12413 0.0816,0.10446 -0.11965,0.20563 -0.12413,-0.0146 -0.093,-0.0132 -0.0132,0.0929 -0.0929,-0.0132 -0.0132,0.0929 -0.027,0.21705 -0.027,0.21704 0.18626,0.0222 0.11263,0.10832 0.0816,0.10455 -0.0375,0.31012 -0.0146,0.12412 -0.0132,0.0929 -0.0132,0.0929 0.20183,0.15072 0.1748,0.11592 0.12411,0.0146 -0.0132,0.0929 -0.0146,0.12413 -0.0132,0.0929 -0.027,0.21712 -0.0132,0.0929 -0.0132,0.0929 0.0778,0.13547 0.0928,0.0132 0.21712,0.027 0.0816,0.10454 -0.0132,0.0929 0.12413,0.0146 -0.0146,0.12415 0.0816,0.10444 0.0816,0.10444 -0.0146,0.12412 0.19429,0.21286 0.0929,0.0132 -0.0146,0.12413 0.12411,0.0146 0.0928,0.0132 0.10821,-0.11267 0.22862,-0.0664 0.10455,-0.0817 0.0146,-0.12411 0.12413,0.0146 0.0132,-0.0928 0.0929,0.0132 0.21703,0.027 -0.0132,0.093 0.0929,0.0132 0.0664,0.22858 0.12413,0.0146 0.4146,-0.0437 0.32541,-0.086 0.2399,-0.15936 0.093,0.0132 0.16767,0.42983 0.17457,0.11589 0.0132,-0.0929 0.34835,-0.27209 0.0645,-0.52735 0.38623,-0.58226 0.17357,-0.38794 0.027,-0.21713 0.13116,-0.29864 0.10454,-0.0817 0.2285,-0.0664 0.23231,-0.0974 0.0929,0.0132 0.2286,-0.0663 0.10444,-0.0815 0.27038,-0.40768 0.20905,-0.16313 0.3253,-0.086 0.0132,-0.0929 0.33695,-0.17906 0.14691,-0.17077 0.027,-0.21714 0.0132,-0.0929 -0.24552,-0.56535 -0.11263,-0.10832 -0.18607,-0.0222 -0.20194,-0.15073 -0.21715,-0.027 -0.0816,-0.10445 0.0132,-0.0929 0.2704,-0.4077 0.0929,0.0132 0.2286,-0.0663 0.10444,-0.0816 0.54258,-0.0593 0.59368,0.29325 0.26056,0.44134 -0.0376,0.31012 0.0664,0.22859 -0.21713,-0.027 -0.11967,0.20574 -0.0374,0.31013 -0.0221,0.18627 0.0778,0.13549 0.21715,0.027 0.0929,0.0132 0.23231,-0.0974 0.56545,-0.24551 0.6584,-0.23392 0.84443,-0.21124 0.45717,-0.13268 0.21267,-0.19434 0.12414,0.0146 0.19763,-0.0703 0.13929,-0.10883 0.42602,-0.1365 0.56534,-0.24552 0.10835,-0.11265 0.0929,0.0132 0.13549,-0.0778 0.0929,0.0132 0.10444,-0.0815 0.7825,-0.21888 0.75152,-0.22247 0.41841,-0.0746 0.22861,-0.0664 0.21712,0.027 0.32151,-0.055 0.0929,0.0132 0.41843,-0.0746 0.32167,-0.0549 0.31012,0.0375 0.75585,-0.002 0.18626,0.0222 0.11266,0.10823 0.0815,0.10443 0.6051,0.20023 -0.0549,-0.32148 -0.10884,-0.1393 0.3596,-0.3652 0.13548,-0.0777 0.29886,0.13105 0.0929,0.0132 0.20566,0.11965 0.17097,0.14691 -0.0132,0.0929 -0.10456,0.0817 0.078,0.13549 1.00498,0.53265 0.17477,0.116 0.40748,0.27036 -0.0132,0.0929 0.48103,0.185 0.23242,-0.0974 0.093,0.0132 0.31011,0.0375 0.24002,-0.15934 0.33683,-0.17908 0.34827,-0.27208 0.52723,0.0645 0.31034,0.0377 0.18607,0.0221 0.20574,0.11967 0.32159,-0.0549 0.10444,-0.0815 0.47784,0.46793 0.22849,-0.0664 0.093,0.0132 0.0929,0.0132 0.31012,0.0375 0.21715,0.027 0.0929,0.0132 0.0146,-0.12413 0.29483,0.16213 0.29884,0.13125 -0.0132,0.0929 0.20184,0.15072 -0.0132,0.0929 0.60891,0.16919 0.22851,-0.0664 0.44135,-0.26065 0.13104,-0.29878 0.0132,-0.0928 0.0146,-0.12411 0.0132,-0.0931 0.33693,-0.17906 0.31012,0.0376 0.27218,0.34836 0.22849,-0.0664 0.11965,-0.20576 0.0132,-0.0929 -0.0663,-0.22847 0.0222,-0.18628 0.0929,0.0132 -0.1916,-2.5423 -0.0708,-0.4494 0.0612,-0.49623 -0.0397,-0.44576 0.0132,-0.093 -0.14091,-0.64699 0.0375,-0.31023 0.0132,-0.0929 0.0146,-0.12411 -0.049,-1.1395 -0.12566,-0.77106 0.0222,-0.18607 0.027,-0.21713 0.0132,-0.0929 -0.10283,-0.95707 -0.0567,-1.07754 0.0221,-0.18607 -0.0593,-0.54258 0.0132,-0.0928 -0.007,-1.4807 -0.19439,-2.00744 0.0146,-0.12412 0.0132,-0.0929 -0.0549,-0.32156 -0.0533,-1.36045 -0.0283,-0.53867 -0.11975,-1.58893 0.0132,-0.0929 -0.0816,-1.89912 -0.0398,-0.44577 -0.0251,-0.82158 -0.0832,-0.86034 -0.12968,-2.53469 -0.0435,-0.4146 0.027,-0.21714 0.0132,-0.0929 -0.0169,-0.63177 -0.17919,-2.13141 -0.0436,-0.41471 -0.0169,-0.63176 -0.086,-0.32531 -0.0283,-0.53876 0.0496,-0.40327 -0.055,-0.32151 -0.086,-0.32551 0.0761,-0.62033 -0.0282,-0.53866 -0.0663,-0.22859 0.0132,-0.0928 0.0132,-0.093 -0.0708,-0.44958 -0.072,-0.95329 0.0612,-0.49622 -0.0974,-0.2324 0.0214,-0.94194 0.0132,-0.0928 -0.0549,-0.32169 -0.13127,-1.49585 0.027,-0.21703 -0.0631,-0.5115 0.027,-0.21715 -0.10824,-1.68193 0.0146,-0.12411 -0.0703,-0.19765 0.027,-0.21704 -0.0283,-0.53876 -0.01,-0.94564 -0.10984,-0.64319 0.0612,-0.49624 -0.0213,-0.85275 0.027,-0.21715 0.0132,-0.093 0.27624,-3.02013 0.0132,-0.0929 0.027,-0.21703 0.0132,-0.0929 0.006,-0.0309 z"
       id="MS-04"
       style="font-style:normal;font-weight:400;font-size:34.375px;font-family:'MS Shell Dlg 2';opacity:1;fill:#000000;fill-opacity:1;fill-rule:evenodd;stroke:#000000;stroke-width:0.33333385;stroke-linecap:square;stroke-linejoin:bevel;stroke-miterlimit:4;stroke-dasharray:none;stroke-opacity:1" />
  </g>
</svg>
