<?xml version="1.0" encoding="UTF-8" standalone="no"?>
<!-- Created with Inkscape (http://www.inkscape.org/) -->

<svg
   xmlns:dc="http://purl.org/dc/elements/1.1/"
   xmlns:cc="http://creativecommons.org/ns#"
   xmlns:rdf="http://www.w3.org/1999/02/22-rdf-syntax-ns#"
   xmlns:svg="http://www.w3.org/2000/svg"
   xmlns="http://www.w3.org/2000/svg"
   xmlns:sodipodi="http://sodipodi.sourceforge.net/DTD/sodipodi-0.dtd"
   xmlns:inkscape="http://www.inkscape.org/namespaces/inkscape"
   width="32.629581mm"
   height="29.381468mm"
   viewBox="0 0 115.61662 104.10756"
   id="svg3885"
   version="1.1"
   inkscape:version="0.91 r"
   sodipodi:docname="1.svg">
  <defs
     id="defs3887" />
  <sodipodi:namedview
     id="base"
     pagecolor="#ffffff"
     bordercolor="#666666"
     borderopacity="1.0"
     inkscape:pageopacity="0.0"
     inkscape:pageshadow="2"
     inkscape:zoom="4.6444664"
     inkscape:cx="7.3218454"
     inkscape:cy="61.615154"
     inkscape:document-units="px"
     inkscape:current-layer="layer1"
     showgrid="false"
     inkscape:window-width="2560"
     inkscape:window-height="1388"
     inkscape:window-x="0"
     inkscape:window-y="0"
     inkscape:window-maximized="1"
     fit-margin-top="1"
     fit-margin-left="1"
     fit-margin-right="1"
     fit-margin-bottom="1" />
  <metadata
     id="metadata3890">
    <rdf:RDF>
      <cc:Work
         rdf:about="">
        <dc:format>image/svg+xml</dc:format>
        <dc:type
           rdf:resource="http://purl.org/dc/dcmitype/StillImage" />
        <dc:title></dc:title>
      </cc:Work>
    </rdf:RDF>
  </metadata>
  <g
     inkscape:label="Layer 1"
     inkscape:groupmode="layer"
     id="layer1"
     transform="translate(-201.24515,-342.93141)">
    <path
       inkscape:connector-curvature="0"
       d="m 251.84686,346.64391 -0.0683,0.0168 -0.007,0.0304 -0.0302,-0.007 -0.0371,0.0237 -0.0302,-0.007 -0.0605,-0.0135 -0.0303,-0.007 -0.007,0.0306 -0.0302,-0.007 -0.0439,0.0542 -0.0302,-0.007 -0.0371,0.0237 -0.0371,0.0238 -0.14245,0.0641 -0.0371,0.0238 -0.0673,0.017 -0.15609,0.12514 -0.0371,0.0237 -0.0302,-0.007 -0.0507,0.0848 -0.081,0.078 -0.007,0.0304 -0.0673,0.0169 -0.007,0.0306 -0.0673,0.017 -0.0371,0.0237 -0.0302,-0.007 -0.0303,-0.007 -0.0302,-0.007 -0.0302,-0.007 -0.0303,-0.007 0.007,-0.0305 -0.0537,-0.0441 -0.0234,-0.0373 -0.0302,-0.007 -0.0234,-0.0372 -0.0547,-0.0442 -0.0537,-0.0441 -0.0849,-0.0511 -0.0986,0.01 -0.14244,0.0641 -0.0303,-0.007 -0.1054,0.0406 -0.0371,0.0237 -0.1288,0.003 -0.0673,0.017 -0.007,0.0306 -0.0741,0.0474 -0.0371,0.0238 -0.0371,0.0238 -0.0439,0.0541 -0.0439,0.0543 -0.0371,0.0237 -0.0712,0.17621 -0.0371,0.0238 -0.13949,0.1929 -0.0371,0.0238 -0.0303,-0.007 -0.0439,0.0541 -0.11222,0.071 -0.007,0.0304 -0.007,0.0306 -0.0507,0.0847 -0.0575,0.11521 0.003,0.12875 0.0332,0.13553 0.0781,0.0816 0.15568,0.16293 0.0781,0.0814 0.20625,0.36647 0.0303,0.007 -0.007,0.0305 0.0469,0.0745 0.0303,0.007 0.0947,0.14928 0.0537,0.0441 0.0849,0.051 0.003,0.12875 0.081,0.21027 0.01,0.0982 0.01,0.0983 0.04,0.10507 -0.007,0.0305 0.0674,0.27126 0.0644,0.14251 0.11149,0.21708 0.13197,0.12555 0.0302,0.007 0.0468,0.0746 0.0537,0.044 0.0332,0.13552 0.003,0.12875 0.0234,0.0372 -0.041,0.18307 -0.0341,0.15243 -0.10145,0.16944 -0.0439,0.0542 -0.0136,0.061 0.0234,0.0373 -0.15313,0.25389 -0.0137,0.061 -0.004,0.1593 -0.0136,0.0609 0.0234,0.0373 -0.0205,0.0914 0.003,0.12876 -9.2e-4,0.28805 0.0332,0.13552 -0.007,0.0305 -0.0741,0.0474 -0.14928,0.0947 -0.13565,0.0338 -0.081,0.0779 -0.0507,0.0847 0.0644,0.14251 0.0302,0.007 0.0605,0.0135 0.17624,0.0715 0.10834,0.0883 0.0712,0.11206 0.0302,0.007 0.0332,0.13552 -0.0175,0.22019 -0.0205,0.0914 -0.0507,0.0848 -0.0175,0.22029 0.0508,0.2034 0.0644,0.14251 0.0468,0.0746 0.0234,0.0372 0.0166,0.0678 0.0234,0.0373 0.0576,0.17295 -0.007,0.0304 0.0166,0.0679 -0.0136,0.0609 -0.0273,0.12199 -0.007,0.0305 -0.0205,0.0914 -0.0878,0.10844 -0.10245,0.16932 -0.0643,0.14566 -0.0273,0.12199 -0.0137,0.061 -0.0107,0.18974 0.0205,0.19674 -0.0644,0.14576 -0.007,0.0304 -0.0575,0.11522 -0.32901,0.18256 -0.14927,0.0947 -0.0439,0.0542 -0.12586,0.132 -0.0136,0.0609 -0.1668,0.31497 -0.0136,0.061 -0.0682,0.30496 -0.0137,0.061 0.003,0.12875 -0.004,0.1593 -0.0409,0.18288 -0.11606,0.23021 -0.16295,0.15578 -0.0371,0.0237 -0.0371,0.0237 -0.0507,0.0848 -0.0137,0.061 -0.0946,0.13899 -0.10826,0.19989 -0.007,0.0305 -0.0644,0.14566 -0.0878,0.10845 -0.0137,0.061 -0.0136,0.061 -0.007,0.0305 -0.0205,0.0915 -0.0136,0.061 -0.007,0.0305 -0.0136,0.0609 -0.0273,0.12198 -0.007,0.0306 -0.007,0.0305 -0.0107,0.18965 0.003,0.12875 0.0205,0.19683 0.0234,0.0372 0.0234,0.0372 -0.007,0.0305 0.0234,0.0373 -0.0136,0.0609 -0.004,0.15929 -0.0273,0.12199 -0.0371,0.0238 -0.0575,0.11522 -0.081,0.0779 -0.22401,0.14201 -0.0371,0.0237 -0.0371,0.0238 -0.0439,0.0542 -0.0946,0.13889 -0.0273,0.12199 -0.0205,0.0915 0.0234,0.0372 0.0273,0.16628 -0.007,0.0306 0.0469,0.0744 0.0234,0.0373 -0.007,0.0306 0.0302,0.007 -0.007,0.0304 0.0234,0.0372 -0.007,0.0306 0.0166,0.0678 0.0166,0.0678 -0.007,0.0305 0.0234,0.0372 -0.007,0.0304 -0.0175,0.22029 -0.007,0.0305 -0.0273,0.12198 -0.0575,0.11522 -0.0439,0.0543 0.003,0.12875 -0.0136,0.0609 -0.007,0.0305 -0.0273,0.12199 -0.0478,0.21342 -0.007,0.0305 -0.007,0.0306 0.0166,0.0677 -0.007,0.0306 0.0234,0.0373 0.01,0.0982 0.01,0.0982 0.0166,0.0679 -0.007,0.0304 0.0166,0.0678 0.01,0.0982 -0.0273,0.12198 0.01,0.0983 -0.007,0.0305 -0.007,0.0305 0.01,0.0982 -0.0742,0.0475 -0.081,0.0779 -0.14928,0.0947 -0.0439,0.0542 -0.007,0.0305 -0.0302,-0.007 -0.0371,0.0238 -0.007,0.0305 -0.0946,0.1389 -0.0205,0.0915 0.01,0.0982 0.0469,0.3627 0.0332,0.13552 0.081,0.21037 -0.007,0.0304 0.0234,0.0372 -0.007,0.0306 0.0234,0.0373 -0.007,0.0304 -0.007,0.0305 -0.007,0.0305 -0.0507,0.0847 -0.007,0.0306 -0.0371,0.0238 -0.0302,-0.007 -0.0303,-0.007 -0.0605,-0.0135 -0.0302,-0.007 -0.0302,-0.007 -0.0605,-0.0135 -0.0234,-0.0373 -0.22351,-0.14603 -0.0917,-0.0205 -0.18298,-0.0409 -0.0917,-0.0205 -0.007,0.0304 -0.0673,0.0169 -0.0371,0.0238 -0.007,0.0306 -0.0371,0.0237 -0.007,0.0305 -0.007,0.0305 -0.0136,0.061 -0.007,0.0304 0.003,0.12876 -0.0137,0.0611 0.0234,0.0372 0.0644,0.14251 0.0644,0.14251 0.15577,0.16295 0.0234,0.0372 -0.007,0.0306 0.0234,0.0373 -0.007,0.0305 0.041,0.10529 -0.007,0.0305 0.0302,0.007 -0.007,0.0304 0.0166,0.0679 -0.004,0.1592 -0.0507,0.0848 -0.16291,0.15558 -0.24755,0.10478 -0.10538,0.0405 -0.0888,0.10822 -0.081,0.078 -0.0136,0.0609 -0.0507,0.0848 0.0264,0.16596 0.0742,0.24082 0.0166,0.0678 -0.007,0.0305 0.0235,0.32539 -0.0273,0.12198 -0.0273,0.12199 -0.0137,0.0611 -0.0205,0.0914 -0.20702,0.20986 -0.26127,0.16564 -0.34948,0.27411 -0.082,0.0778 -0.0273,0.12198 -0.0136,0.0609 -0.007,0.0305 -0.007,0.0306 -0.007,0.0304 0.041,0.1053 0.0234,0.0372 -0.0136,0.061 0.0537,0.0441 0.21992,0.30539 0.0537,0.044 0.0547,0.0442 0.0849,0.0511 0.19946,0.39683 0.0468,0.0746 0.0302,0.007 0.0234,0.0372 0.0302,0.007 0.0332,0.13553 -0.0136,0.061 -0.007,0.0305 -0.0341,0.15243 -0.0439,0.0542 -0.11219,0.0709 -0.0371,0.0238 -0.0371,0.0238 -0.0303,-0.007 -0.16616,0.0268 -0.0742,0.0476 -0.0439,0.0541 -0.0303,-0.007 -0.0371,0.0238 -0.0371,0.0238 -0.0136,0.0609 -0.0302,-0.007 -0.0137,0.0611 -0.0205,0.0914 -0.0205,0.0914 0.003,0.12876 0.003,0.12875 0.0235,0.32558 -0.0205,0.0914 -0.0107,0.18974 -0.0712,0.17621 -0.0136,0.061 -0.007,0.0304 0.0234,0.0373 -0.0137,0.061 -0.007,0.0305 -0.007,0.0306 -0.007,0.0305 -0.0916,0.26765 -0.10145,0.16943 -0.24755,0.10478 -0.0985,0.01 -0.21352,-0.0478 -0.25762,0.006 -0.0605,-0.0135 -0.10538,0.0405 -0.17291,0.0574 -0.0819,0.0777 -0.16293,0.15568 -0.081,0.078 -0.47513,0.40606 -0.0751,0.0471 -0.0878,0.10845 -0.007,0.0305 -0.20028,0.1793 -0.13269,0.16255 -0.0751,0.0471 -0.0371,0.0238 -0.0742,0.0475 -0.0371,0.0237 -0.0371,0.0238 -0.0742,0.0474 -0.081,0.078 -0.1629,0.15559 -0.081,0.078 -0.0575,0.11521 -0.0439,0.0542 -0.0371,0.0238 -0.007,0.0305 -0.0751,0.0472 -0.11219,0.0709 -0.11903,0.10145 -0.12586,0.13201 -0.007,0.0305 -0.0371,0.0237 -0.0507,0.0848 -0.0371,0.0237 -0.0742,0.0475 -0.007,0.0306 -0.0819,0.0777 -0.15611,0.12523 -0.007,0.0304 -0.0946,0.13889 -0.0888,0.10823 -0.0742,0.0476 -0.16974,0.18613 -0.007,0.0306 -0.0303,-0.007 -0.10143,0.16934 -0.0507,0.0848 -0.0371,0.0237 -0.28899,0.57579 -0.15316,0.25399 -0.0878,0.10845 -0.0575,0.11521 -0.0888,0.10823 -0.0302,-0.007 -0.007,0.0306 -0.10536,0.0404 -0.19655,0.0202 -0.0302,-0.007 -0.0302,-0.007 -0.0605,-0.0135 -0.0683,0.0167 -0.0673,0.0169 -0.0752,0.0473 -0.0985,0.01 -0.0742,0.0475 -0.2171,0.11159 -0.0371,0.0237 -0.081,0.078 -0.078,0.20666 -0.12586,0.132 -0.0819,0.0777 -0.007,0.0306 -0.0302,-0.007 -0.007,0.0304 -0.0878,0.10844 -0.0507,0.0848 -0.0575,0.11522 -0.0371,0.0237 0.0332,0.13553 -0.0136,0.061 -0.0136,0.061 -0.0205,0.0915 -0.0741,0.0473 -0.0371,0.0238 -0.0742,0.0475 -0.0605,-0.0135 -0.38969,-0.11916 -0.16605,0.0268 -0.17291,0.0574 -0.0371,0.0237 -0.0302,-0.007 -0.19655,0.0202 -0.0302,-0.007 -0.11219,0.0709 -0.12567,0.13205 -0.0373,0.0236 -0.10518,0.0405 -0.0678,0.0169 -0.1356,0.0336 -0.007,0.0306 -0.0374,0.0237 -0.0745,0.0473 -0.0374,0.0237 -0.3122,0.25037 -0.17982,0.0879 -0.19337,0.14887 -0.12567,0.13205 -0.0373,0.0236 -0.0746,0.0473 -0.0305,-0.007 -0.007,0.0305 -0.0609,-0.0136 -0.0747,0.0472 -0.0373,0.0237 -0.12882,0.003 -0.0678,0.0168 -0.0305,-0.007 -0.0983,0.01 -0.0983,0.0101 -0.0984,0.0101 -0.0236,-0.0374 -0.0611,-0.0137 -0.0305,-0.007 0.007,-0.0306 -0.0779,-0.0814 -0.0541,-0.0442 -0.0474,-0.0747 -0.0404,-0.10517 -0.10803,-0.37637 -0.0437,-0.23388 -0.081,-0.21036 -0.0101,-0.0983 -0.1183,-0.18663 -0.18623,-0.16976 -0.1388,-0.095 -0.0542,-0.0442 -0.11515,-0.0578 -0.0237,-0.0373 -0.21343,-0.0478 -0.0374,0.0236 -0.19655,0.0202 -0.25444,0.13511 -0.0373,0.0237 -0.0816,0.0778 -0.15286,0.25405 -0.0746,0.0473 -0.13248,0.16249 -0.28166,0.25721 -0.007,0.0304 -0.007,0.0306 -0.1119,0.071 -0.11202,0.0711 -0.0373,0.0236 -0.11202,0.071 -0.0815,0.0779 -0.0305,-0.007 -0.21017,0.0811 -0.0442,0.0541 -0.11873,0.10153 -0.34633,0.4029 -0.0341,0.15243 -0.0137,0.0611 0.01,0.38641 -0.0614,0.27441 -0.0513,0.37279 -0.0205,0.0915 0.0168,0.0677 -0.004,0.15934 -0.0104,0.18981 -0.0273,0.12199 -0.007,0.0304 -0.0815,0.0779 -0.25078,-0.0241 -0.061,-0.0136 -0.0305,-0.007 -0.0305,-0.007 -0.0304,-0.007 -0.0237,-0.0373 -0.11517,-0.0577 -0.061,-0.0136 -0.0236,-0.0374 -0.0915,-0.0205 -0.0305,-0.007 -0.0305,-0.007 -0.0306,-0.007 -0.0677,0.0169 -0.0306,-0.007 -0.0374,0.0236 -0.0983,0.01 -0.0747,0.0474 -0.48793,-0.10918 -0.25078,-0.0241 -0.16608,0.0269 -0.16618,0.0269 -0.17301,0.0574 -0.1119,0.071 -0.12556,0.13207 -0.007,0.0305 -0.0374,0.0236 -0.007,0.0305 -0.0374,0.0237 -0.007,0.0304 -0.0577,0.11517 -0.007,0.0304 -0.0205,0.0915 0.01,0.0984 -0.0136,0.0609 0.0237,0.0374 -0.007,0.0306 0.0237,0.0373 -0.007,0.0305 0.0168,0.0679 0.0474,0.0745 0.0237,0.0374 0.0168,0.0678 -0.007,0.0304 0.0168,0.0679 -0.0136,0.0609 -0.007,0.0305 -0.007,0.0306 -0.0305,-0.007 -0.0136,0.0609 -0.0305,-0.007 -0.0748,0.0474 -0.0373,0.0236 -0.007,0.0304 -0.0305,-0.007 -0.0984,0.0101 -0.0984,0.0101 -0.007,0.0305 -0.16608,0.0269 -0.10518,0.0405 -0.0373,0.0236 -0.0305,-0.007 -0.0578,0.11515 -0.0951,0.13888 -0.007,0.0305 -0.0614,0.27442 -0.0136,0.061 -0.0883,0.10834 -0.17982,0.0879 -0.0745,0.0474 -0.0137,0.061 -0.0374,0.0237 -0.007,0.0304 -0.007,0.0304 -0.007,0.0306 -0.007,0.0305 -0.007,0.0304 0.0237,0.0373 0.0404,0.10516 0.1754,0.64773 0.0268,0.16606 -0.0205,0.0915 0.0133,0.22709 0.003,0.12879 0.0369,0.26445 -5.2e-4,0.28814 -0.0273,0.12198 -0.0577,0.11518 -0.0136,0.0609 3.65783,1.97126 3.21753,-2.93056 2.75074,-1.27391 c -0.0483,0.33945 0.0488,0.61642 0.21908,0.88161 0.17031,0.26519 0.39652,0.51224 0.56489,0.76685 0.19491,0.32561 0.27312,0.72349 0.36112,1.10553 0.088,0.38203 0.19393,0.75772 0.54768,0.9871 0.31997,0.16925 0.6729,0.30243 1.04011,0.36082 0.3671,0.0585 0.76144,0.0345 1.11182,-0.10343 0.6577,-0.10185 1.25179,0.32887 1.81936,0.59922 0.36756,0.18779 0.59643,0.4793 0.74114,0.83826 0.1446,0.35903 0.19293,0.75258 0.19483,1.13246 0.0178,0.71155 0.21068,1.44538 3.2e-4,2.14555 -0.17292,0.86901 -0.58075,1.69242 -0.61026,2.58543 0.0835,0.35347 0.34658,0.52341 0.64637,0.68896 0.29978,0.16555 0.62832,0.32166 0.7888,0.62481 l 6.39574,-4.39708 1.54978,-0.48582 -2.35853,-2.76932 -0.23705,-2.51873 0.48793,0.10917 0.94797,-1.51722 c 0.32576,0.11081 0.63736,0.0459 0.9221,-0.1138 0.28476,-0.15978 0.54674,-0.43256 0.80781,-0.74796 l 0.97869,0.63533 c 1.25109,-0.0138 2.37674,0.33208 3.40548,0.66586 1.02874,0.33378 1.96868,0.64769 2.89707,0.64822 0.11804,-0.32148 0.31696,-0.40722 0.55985,-0.35513 0.24284,0.0523 0.53623,0.24736 0.81607,0.50293 0.55994,0.51099 1.1033,1.26503 1.28241,1.56785 l 1.44052,0.002 c 0.36399,0.48908 0.37441,0.922 0.24554,1.33584 -0.1285,0.41404 -0.39138,0.80528 -0.65256,1.19905 l 3.99388,-0.67553 1.01828,-3.26268 0.73673,-0.85989 c 0.36905,0.28332 0.68499,0.58642 0.84256,0.95707 0.15764,0.37077 0.15735,0.82138 -0.1409,1.3455 l 6.18024,1.57497 3.21976,0.20806 5.08501,4.17989 1.8857,-3.13255 -0.93556,-2.25878 c 0.0749,-0.33473 -0.12387,-0.93071 -0.0389,-1.25753 0.14378,-0.75708 0.63018,-1.43195 0.90146,-2.16808 0.33081,-0.36743 0.49144,-0.81147 0.60509,-1.27361 0.11363,-0.46204 0.19078,-0.95796 0.37534,-1.38896 0.42812,-0.47488 0.5683,-1.07618 0.8158,-1.64281 0.22082,-0.39748 0.5333,-0.69215 0.90982,-0.91717 0.37644,-0.22514 0.80779,-0.37189 1.20736,-0.53047 0.35325,-0.21352 0.49598,-0.57436 0.59795,-0.95498 0.10158,-0.38071 0.14399,-0.78551 0.34419,-1.10778 0.13006,-0.33396 0.2742,-0.70473 0.45236,-1.01963 0.17805,-0.31492 0.40746,-0.57172 0.77043,-0.72425 0.66046,-0.32892 1.28977,-0.73255 1.71712,-1.37709 0.20408,-0.25581 0.36914,-0.53829 0.56382,-0.80245 l -0.22707,0.0132 -0.0302,-0.007 -0.15253,-0.0341 -0.10152,-0.11873 -0.1288,0.003 -0.17606,-0.0714 -0.1457,-0.0647 -0.0537,-0.0441 -0.01,-0.0982 0.007,-0.0306 -0.0303,-0.007 -0.0303,-0.007 -0.0302,-0.007 -0.0605,-0.0135 -0.0303,-0.007 -0.0917,-0.0205 -0.0537,-0.044 -0.0302,-0.007 -0.0234,-0.0372 -0.1015,-0.11884 -0.0303,-0.007 -0.12198,-0.0273 -0.0917,-0.0205 -0.0166,-0.0678 0.007,-0.0305 -0.0302,-0.007 -0.0234,-0.0372 -0.0947,-0.14928 -0.0371,-0.26449 -0.0166,-0.0678 -0.0986,0.01 -0.0371,0.0237 -0.0644,0.14567 -0.0673,0.017 -0.22035,-0.0172 -0.0917,-0.0205 -0.15568,-0.16293 -0.0166,-0.0679 0.0136,-0.0609 -0.0478,-0.0748 -0.0537,-0.044 -0.0303,-0.007 -0.0469,-0.0745 -0.0537,-0.0441 0.007,-0.0304 0.007,-0.0305 0.007,-0.0305 0.0303,0.007 0.15611,-0.12524 0.17289,-0.0573 0.0986,-0.01 0.0303,0.007 0.0605,0.0135 0.0303,0.007 0.0303,0.007 -0.007,0.0306 -0.007,0.0305 0.0605,0.0135 0.0371,-0.0238 0.0742,-0.0475 0.0683,-0.0167 0.007,-0.0305 0.081,-0.0779 0.007,-0.0306 0.007,-0.0305 -0.0234,-0.0372 -0.0332,-0.13552 -0.0303,-0.007 -0.0469,-0.0745 -0.0615,-0.0138 -0.12199,-0.0273 -0.0303,-0.007 -0.0741,0.0474 -0.0742,0.0475 -0.15611,0.12523 -0.0605,-0.0135 -0.0673,0.0169 -0.0849,-0.051 -0.0917,-0.0205 -0.0234,-0.0373 0.007,-0.0305 0.007,-0.0304 0.0136,-0.061 0.0136,-0.061 0.078,-0.20675 0.0439,-0.0541 0.0371,-0.0238 0.0507,-0.0847 0.0137,-0.0611 0.0136,-0.0609 -0.0234,-0.0373 -0.0303,-0.007 -0.0371,0.0238 -0.0303,-0.007 -0.0673,0.0169 -0.0371,0.0237 -0.0575,0.11522 -0.007,0.0305 -0.0576,0.11522 -0.0371,0.0238 -0.0303,-0.007 -0.15253,-0.0341 -0.0303,-0.007 -0.0371,0.0237 -0.0303,-0.007 -0.007,0.0304 -0.078,0.20676 -0.007,0.0304 -0.0371,0.0238 0.0879,0.17982 0.0166,0.0677 0.0234,0.0373 0.0234,0.0373 -0.007,0.0304 0.01,0.0983 0.0234,0.0372 -0.0137,0.061 -0.007,0.0305 -0.0439,0.0541 -0.0605,-0.0135 -0.0234,-0.0372 -0.12198,-0.0273 -0.0303,-0.007 -0.078,0.20675 0.0166,0.0677 -0.007,0.0305 -0.13949,0.19289 -0.12881,0.003 -0.0439,0.0542 0.003,0.12875 0.0166,0.0678 0.01,0.0982 -0.007,0.0305 0.0605,0.0135 0.0615,0.0138 0.13197,0.12554 0.04,0.10508 -0.0303,-0.007 -0.0712,0.1762 -0.0741,0.0475 -0.10834,-0.0883 -0.0849,-0.0511 -0.18307,-0.041 -0.0303,-0.007 -0.0371,0.0238 -0.007,0.0305 -0.0819,0.0777 -0.0371,0.0238 -0.0741,0.0474 -0.007,0.0305 -0.007,0.0306 0.01,0.0982 -0.0136,0.061 -0.29225,0.44697 -0.0575,0.11521 -0.007,0.0304 -0.12192,0.26097 -0.0371,0.0238 -0.0673,0.0169 -0.14571,-0.0646 -0.0946,0.1389 -0.0371,0.0237 -0.0644,0.14576 -0.29215,0.44699 -0.15997,0.28443 -0.007,0.0305 -0.18971,-0.0104 -0.0303,-0.007 -0.0302,-0.007 -0.0986,0.01 -0.007,0.0304 -0.11222,0.071 -0.0819,0.0777 -0.007,0.0305 0.0478,0.0747 0.0537,0.0441 -0.007,0.0305 -0.0576,0.11522 -0.0878,0.10844 -0.17983,0.0879 -8.1e-4,0.57612 -0.0439,0.0543 -0.007,0.0304 -0.0302,-0.007 -0.10538,0.0405 -0.0302,-0.007 -0.0303,-0.007 -0.0303,-0.007 -0.0234,-0.0373 -0.0166,-0.0677 -0.0849,-0.0511 -0.13878,-0.0951 -0.17626,-0.0714 -0.0537,-0.0441 -0.0917,-0.0205 -0.0537,-0.0441 -0.0917,-0.0205 -0.0781,-0.0814 -0.11515,-0.0578 -0.0303,-0.007 -0.12524,-0.15611 -0.0302,-0.007 -0.0673,0.017 -0.0371,0.0237 -0.0985,0.01 -0.007,0.0305 -0.0302,-0.007 -0.0303,-0.007 -0.0781,-0.0815 -0.0469,-0.0745 0.0137,-0.061 -0.0234,-0.0372 0.007,-0.0305 -0.0234,-0.0373 -0.0537,-0.044 -0.13195,-0.12564 -0.0234,-0.0372 -0.0986,0.01 -0.007,0.0306 -0.0371,0.0238 -0.0136,0.0609 -0.007,0.0305 -0.007,0.0306 -0.007,0.0304 0.01,0.0983 -0.0439,0.0541 -0.0303,-0.007 -0.0302,-0.007 -0.20671,-0.0782 -0.31536,0.12158 -0.18297,-0.0409 -0.0605,-0.0135 -0.0605,-0.0135 -0.007,0.0306 -0.0371,0.0237 -0.007,0.0304 0.0166,0.0679 0.0469,0.0744 0.0166,0.0679 -0.1492,0.38286 -0.007,0.0304 -0.082,0.0778 -0.14246,0.0642 -0.0507,0.0847 -0.0136,0.061 0.0166,0.0678 -0.0371,0.0238 -0.0136,0.0609 -0.0605,-0.0135 -0.007,0.0305 -0.0303,-0.007 -0.11903,0.10146 -0.007,0.0306 -0.007,0.0304 0.01,0.0983 -0.0205,0.0914 -0.0439,0.0542 -0.0303,-0.007 -0.0673,0.0169 -0.0751,0.0473 -0.0439,0.0541 0.003,0.12875 -0.0439,0.0543 -0.0673,0.0169 -0.0605,-0.0135 -0.0303,-0.007 -0.041,-0.1053 -0.0917,-0.0205 -0.0302,-0.007 -0.0439,0.0543 -0.0439,0.0541 -0.0273,0.12198 -0.0273,0.12198 0.01,0.0983 -0.0273,0.12198 -0.0741,0.0475 -0.0303,-0.007 -0.0605,-0.0135 -0.0615,-0.0138 -0.0137,0.061 -0.0136,0.061 -0.23388,0.0437 -0.0917,-0.0205 -0.0303,-0.007 -0.0439,0.0543 -0.0507,0.0847 -0.0644,0.14576 -0.23441,0.33182 -0.007,0.0305 -0.14247,0.0642 -0.18979,-0.0105 -0.0439,0.0542 -0.0303,-0.007 -0.007,0.0306 -0.081,0.0779 -0.23398,0.0437 -0.0986,0.01 -0.007,0.0306 -0.0371,0.0237 0.0274,0.16619 -0.007,0.0306 -0.004,0.15929 0.01,0.0982 -0.007,0.0306 -0.007,0.0304 -0.0371,0.0237 -0.0742,0.0476 -0.21027,0.0811 -0.081,0.0779 -0.19347,0.14884 -0.0273,0.12199 0.007,0.25772 -0.12971,0.29121 -0.0303,-0.007 -0.0371,0.0238 -0.22033,-0.0173 -0.19987,-0.10876 -0.0303,-0.007 -0.0302,-0.007 -0.0303,-0.007 -0.0371,0.0238 -0.30852,0.091 -0.007,0.0304 -0.2613,0.16575 -0.007,0.0304 -0.0205,0.0915 0.0478,0.0747 -0.007,0.0305 -0.21393,0.24029 -0.0985,0.01 -0.0439,0.0543 -0.0371,0.0237 -0.0985,0.01 -0.0673,0.017 -0.0605,-0.0135 -0.0673,0.017 -0.0303,-0.007 -0.007,0.0304 -0.0439,0.0542 -0.16292,0.15568 -0.17658,0.21668 -0.28534,0.41654 -0.081,0.0779 -0.0371,0.0238 -0.13561,0.0336 -0.12586,0.132 0.0264,0.16607 -0.11902,0.10146 -0.20702,0.20986 -0.29172,0.15884 -0.3459,0.11474 -0.15609,0.12513 -0.21343,-0.0477 -0.0225,-0.90166 -0.0192,-0.77285 -0.0235,-0.32538 0.0137,-0.0611 -0.0234,-0.0372 0.004,-0.44747 0.0145,-0.63721 0.004,-0.73549 0.0303,0.007 -0.0274,-0.16628 0.007,-0.0306 0.008,-0.60666 -0.0319,-1.28806 0.008,-0.89484 -0.01,-0.0982 -10e-4,-1.56942 0.004,-0.1593 0.004,-0.1592 -0.01,-0.0983 -0.0196,-0.19642 0.0986,-0.01 -0.009,-0.67459 0.008,-0.3184 -0.0192,-0.77284 -0.002,-0.99318 -0.0167,-0.35603 0.0303,0.007 0.007,-0.0304 -0.006,-0.54568 -0.0484,-1.64403 -1.03046,0.0256 -0.48478,0.0196 -0.0303,-0.007 -0.96265,0.009 -0.1288,0.003 -0.22023,-0.0173 -0.0371,0.0238 -0.34905,-0.014 -0.7424,0.026 -1.09145,0.012 -0.19662,0.0201 -0.41688,0.003 -0.54577,0.006 -0.96264,0.009 -0.96263,0.009 -0.0371,0.0238 -0.0303,-0.007 -0.0302,-0.007 -0.0303,-0.007 -1.12873,0.0357 -0.12198,-0.0273 -1.47796,0.0215 -0.12882,0.003 -1.1219,0.005 -0.22705,0.0131 -0.1899,-0.0104 -0.0303,-0.007 -0.0673,0.017 -0.22705,0.0131 -1.122,0.005 -0.99319,0.002 -0.25762,0.006 -0.4473,-0.004 -0.0303,-0.007 -0.28818,-3.3e-4 -0.45414,0.0265 -0.0615,-0.0138 -0.64402,0.016 -0.28806,-4.1e-4 -0.44741,-0.004 -0.0303,-0.007 -0.64405,0.0161 -1.31852,0.0252 -0.47797,-0.0108 -0.67447,0.009 -0.0302,-0.007 -0.0985,0.01 -0.0605,-0.0135 -0.31863,-0.007 -0.93208,0.0156 -0.0108,-1.95586 -0.003,-0.41692 0.008,-0.89483 -0.0303,-0.29494 0.004,-0.15929 9.2e-4,-0.28805 0.008,-0.3184 0.0137,-0.0611 -0.01,-0.38648 -0.001,-1.28124 -0.0166,-0.0677 -0.0196,-0.48478 0.0205,-0.0915 -0.0166,-0.0677 0.007,-0.0306 0.0136,-0.061 0.002,-1.4405 -0.0302,-0.007 0.004,-0.73559 -0.002,-0.70503 0.004,-0.1593 0.0205,-0.0914 -0.0234,-0.0373 0.0106,-0.47792 -0.0128,-0.22696 -0.003,-0.41702 0.004,-0.73549 0.004,-0.44756 -0.0167,-0.35594 -0.016,-0.64402 0.0189,-1.3727 0.007,-0.0305 -0.0235,-0.32549 0.007,-0.31871 -0.0167,-0.35594 0.0146,-0.34904 -0.016,-0.64402 0.0204,-0.37971 -0.0235,-0.32549 0.0136,-0.061 -0.003,-0.12875 0.0214,-0.37949 0.004,-0.1592 -0.0224,-0.90164 0.0273,-0.12198 -0.006,-0.54578 -0.012,-1.09145 0.007,-0.0304 -0.0303,-0.29504 -0.01,-0.0982 -0.003,-0.12875 -0.003,-0.12875 0.008,-0.89481 -0.0156,-0.93221 0.0175,-0.22019 -0.0293,-0.87121 0.0137,-0.061 -0.009,-0.67457 0.008,-0.60667 z"
       id="WV-01"
       style="font-style:normal;font-weight:400;font-size:34.375px;font-family:'MS Shell Dlg 2';opacity:1;fill:#000000;fill-opacity:1;fill-rule:evenodd;stroke:#000000;stroke-width:0.333;stroke-linecap:square;stroke-linejoin:bevel;stroke-miterlimit:4;stroke-dasharray:none;stroke-opacity:1" />
    <path
       inkscape:connector-curvature="0"
       d="m 292.7991,377.00605 c -0.19468,0.26416 -0.35974,0.54664 -0.56382,0.80245 -0.42735,0.64454 -1.05666,1.04816 -1.71712,1.37709 -0.36297,0.15253 -0.59237,0.40933 -0.77043,0.72425 -0.17816,0.3149 -0.3224,0.68565 -0.45236,1.01963 -0.19981,0.32235 -0.24163,0.72729 -0.34419,1.10778 -0.10158,0.3807 -0.2448,0.74143 -0.59795,0.95498 -0.39957,0.15858 -0.83092,0.30533 -1.20736,0.53047 -0.37652,0.22501 -0.689,0.51969 -0.90982,0.91717 -0.2475,0.56663 -0.38768,1.16793 -0.8158,1.64281 -0.18358,0.43122 -0.26171,0.92692 -0.37534,1.38896 -0.11365,0.46213 -0.27447,0.90613 -0.60509,1.27361 -0.27128,0.73612 -0.75817,1.41089 -0.90146,2.16808 -0.0854,0.32673 0.11853,0.92387 0.0389,1.25752 l 0.93556,2.25879 -1.8857,3.13254 -5.08501,-4.17988 -3.21976,-0.20806 -6.18023,-1.57497 c 0.29824,-0.52412 0.29902,-0.97462 0.14089,-1.3455 -0.15757,-0.37065 -0.47351,-0.67375 -0.84256,-0.95707 l -0.73673,0.85988 -1.01828,3.26269 -3.99388,0.67553 c 0.26118,-0.39377 0.52367,-0.7851 0.65256,-1.19905 0.12848,-0.41393 0.11875,-0.8467 -0.24554,-1.33585 l -1.44052,-0.002 c -0.17911,-0.30282 -0.72247,-1.05686 -1.28241,-1.56785 -0.27984,-0.25557 -0.57321,-0.45074 -0.81607,-0.50293 -0.24285,-0.0523 -0.4422,0.0336 -0.55985,0.35513 -0.92839,-5.3e-4 -1.86833,-0.31444 -2.89707,-0.64822 -1.02874,-0.33379 -2.15439,-0.67962 -3.40548,-0.66587 l -0.97869,-0.63532 c -0.26107,0.3154 -0.52305,0.58818 -0.80781,0.74796 -0.28474,0.15968 -0.59634,0.22461 -0.9221,0.1138 l -0.94797,1.51722 -0.48793,-0.10917 0.23705,2.51873 2.35853,2.76931 -1.54978,0.48583 -6.39574,4.39708 c -0.16048,-0.30315 -0.48902,-0.45926 -0.7888,-0.62481 -0.29979,-0.16556 -0.56283,-0.33549 -0.64637,-0.68896 0.0297,-0.89296 0.43734,-1.71643 0.61026,-2.58544 0.20997,-0.70025 0.0174,-1.43399 -3.2e-4,-2.14554 -0.002,-0.37992 -0.0502,-0.77343 -0.19483,-1.13247 -0.14471,-0.35896 -0.37358,-0.65046 -0.74114,-0.83825 -0.56757,-0.27036 -1.16166,-0.70107 -1.81936,-0.59922 -0.35037,0.13792 -0.74472,0.16189 -1.11182,0.10343 -0.36721,-0.0584 -0.72014,-0.19157 -1.04011,-0.36082 -0.35375,-0.22938 -0.45967,-0.60507 -0.54768,-0.98711 -0.088,-0.38203 -0.16621,-0.77991 -0.36112,-1.10552 -0.16837,-0.25461 -0.39458,-0.50167 -0.56489,-0.76685 -0.1703,-0.26519 -0.26698,-0.54208 -0.21908,-0.88161 l -2.75077,1.2739 -3.21753,2.93056 -3.65783,-1.97126 -0.007,0.0306 -0.13247,0.16249 -0.11874,0.10152 -0.0442,0.0542 -0.0677,0.0169 -0.0374,0.0236 -0.007,0.0305 -0.20346,0.0506 -0.007,0.0304 -0.0304,-0.007 -0.12882,0.003 -0.0915,-0.0205 -0.0915,-0.0205 -0.16923,-0.10191 -0.0915,-0.0205 -0.0305,-0.007 -0.0984,0.01 -0.0678,0.0169 -0.0374,0.0237 -0.0205,0.0914 -0.004,0.15936 0.003,0.12882 0.01,0.0982 0.0168,0.0678 0.0101,0.0984 0.0237,0.0373 0.0472,0.0746 0.0169,0.0678 0.0542,0.0441 0.0405,0.10519 0.0237,0.0373 0.0236,0.0374 0.0305,0.007 0.0543,0.0442 0.0778,0.0814 0.16249,0.13247 0.1625,0.13248 0.0237,0.0373 0.10834,0.0883 0.0236,0.0374 0.0947,0.14927 0.0236,0.0373 0.0474,0.0747 -0.007,0.0306 -0.007,0.0304 0.003,0.12879 -0.0136,0.061 0.0236,0.0374 -0.0205,0.0914 -0.0509,0.0846 -0.11201,0.0711 -0.0205,0.0915 -0.007,0.0304 -0.0305,-0.007 -0.0136,0.061 -0.007,0.0305 -0.0273,0.12198 0.01,0.0983 0.0237,0.0374 -0.0783,0.20658 -0.0373,0.0237 0.003,0.12879 -0.0205,0.0914 -0.007,0.0306 -0.007,0.0304 0.0101,0.0984 0.0237,0.0373 0.0168,0.0678 0.10152,0.11873 0.11515,0.0578 0.0947,0.14928 0.0779,0.0815 0.1015,0.11883 0.01,0.0983 -0.0205,0.0914 -0.0137,0.0611 -0.0441,0.0541 -0.0748,0.0474 -0.0677,0.0168 -0.0679,0.0168 -0.0983,0.0101 -0.11515,-0.0578 -0.061,-0.0136 -0.0847,-0.0509 -0.16924,-0.10191 -0.0847,-0.051 -0.18938,-0.29856 -0.16935,-0.10183 -0.12198,-0.0273 -0.0374,0.0236 -0.0914,-0.0205 -0.0374,0.0236 -0.11192,0.0711 -0.13238,0.16251 -0.15295,0.25404 -0.0345,0.44049 0.0169,0.0679 -0.0614,0.27442 -0.17658,0.21667 -0.051,0.0847 -0.14928,0.0947 -0.22389,0.14194 -0.29856,0.18938 -0.0373,0.0237 -0.0306,-0.007 -0.0305,-0.007 -0.12882,0.003 -0.19294,-0.13929 -0.0951,0.13879 2.67177,4.08833 -0.52247,0.33142 0.88307,1.06225 -4.04794,0.63136 -2.34748,1.33196 0.14623,8.93514 c 0.29934,0.0493 0.65446,0.18742 0.97587,0.21835 0.32142,0.0308 0.62943,-0.0387 0.8242,-0.3921 0.24185,-0.37104 0.62665,-0.57125 1.03811,-0.63228 0.41155,-0.061 0.83296,0.0304 1.20985,0.17469 0.24244,0.12966 0.53495,0.0859 0.77602,0.10948 0.24114,0.0237 0.43069,0.10856 0.46714,0.4888 0.23767,0.29706 0.33544,0.67073 0.28321,1.02415 -0.0523,0.35331 -0.24408,0.69426 -0.5843,0.89399 -0.2399,0.0586 -0.36167,0.17649 -0.39376,0.32814 -0.0319,0.1517 0.0161,0.32455 0.118,0.47472 0.10186,0.15017 0.24785,0.26163 0.40973,0.31579 0.16176,0.0542 0.35038,0.0557 0.49831,-0.0805 0.23976,-0.11072 0.33373,-0.48719 0.45194,-0.73157 0.059,-0.12217 0.12005,-0.19397 0.20702,-0.20986 0.087,-0.0158 0.21541,0.027 0.36911,0.21068 -0.0674,0.26437 -0.006,0.44656 0.1416,0.51207 0.14817,0.0655 0.37551,0.0341 0.54934,-0.16524 0.0642,-0.38887 0.26653,-0.59721 0.52971,-0.65002 0.2633,-0.0529 0.5686,0.0308 0.86072,0.16052 0.1925,0.0217 0.28155,0.1005 0.30138,0.22759 0.0198,0.127 -0.01,0.30696 -0.0414,0.47104 -0.0316,0.16406 -0.0798,0.33815 -0.0413,0.47104 0.0384,0.13299 0.16318,0.21461 0.39281,0.24806 0.35061,0.0178 0.6417,0.16448 0.91123,0.36405 0.26965,0.19949 0.51444,0.45511 0.70064,0.73307 0.25821,0.15441 0.54843,0.39755 0.68372,0.66535 0.13526,0.2679 0.10746,0.55198 -0.24475,0.8099 -0.0972,0.21456 -0.0921,0.36601 -0.004,0.44747 0.0856,0.0808 0.25002,0.0999 0.42001,0.12605 0.3402,0.0523 0.7599,0.0739 0.84351,0.38077 0.22104,0.32562 0.1583,0.76585 0.18811,1.16294 0.015,0.19856 0.0702,0.39506 0.16524,0.54933 0.0951,0.15429 0.24075,0.26773 0.50125,0.33637 0.41455,0.13446 0.86785,0.14192 1.28757,0.25602 l 1.08304,-5.84198 2.37322,-2.73531 7.0867,-4.05034 1.9615,-1.61057 -0.16848,-0.67815 -1.21984,-0.27294 2.11393,-1.57646 0.84948,0.92655 c 0.25239,-0.2033 0.59352,-0.25691 0.97994,-0.22896 0.38635,0.0278 0.84026,0.12284 1.28757,0.25602 l 3.12012,-3.49679 1.0884,-2.57447 c 0.17763,0.2366 0.37527,0.34251 0.55533,0.38044 0.18,0.0382 0.33904,0.0259 0.54578,-0.006 0.4133,-0.0638 0.9046,-0.14416 1.56891,0.28689 0.0312,0.64559 0.20624,0.86573 0.40877,0.89209 0.20263,0.0264 0.45504,-0.1555 0.7191,-0.35147 l 2.25042,4.82655 -1.36135,3.7943 2.83029,-2.34478 1.90449,0.36209 3.71861,-2.59434 c 0.0788,-0.35107 0.0765,-0.52046 0.10326,-0.74544 0,-0.32976 0.097,-0.63494 0.15006,-0.95918 0.14668,-0.65692 0.36238,-1.35855 0.8332,-1.86302 0.2671,-0.46285 0.47868,-0.95595 0.79173,-1.39191 0.0996,-0.16566 0.22273,-0.15142 0.33918,-0.0843 0.11635,0.0671 0.20563,0.19018 0.25028,0.31218 0.16554,0.2718 0.28227,0.58822 0.31052,0.90207 0.17513,0.28163 0.52847,0.22112 0.77566,0.39776 0.16513,0.17887 0.43253,0.2304 0.46791,-0.0875 0.0772,-0.25356 0.18426,-0.75939 0.53653,-0.68047 0.27836,0.2329 0.34935,0.62322 0.42567,0.95991 0.0855,0.33003 -0.009,0.68176 -0.0964,1.00316 -0.096,0.38329 0.0207,0.76405 0.0289,1.15928 l 1.42604,0.6392 0.12198,0.0273 0.24397,0.0546 0.27766,0.19022 0.11515,0.0578 0.0303,0.007 0.0644,0.14251 0.0234,0.0373 0.0166,0.0677 0.23345,0.24447 0.11161,0.21701 0.10475,0.24764 0.0234,0.0372 0.2704,0.50892 -0.007,0.0304 0.31095,0.61391 0.21625,0.46473 2.3478,0.81358 1.32137,0.39167 0.24071,-0.0742 0.0741,-0.0474 0.0439,-0.0542 0.0751,-0.0472 0.0371,-0.0237 0.0303,0.007 0.0303,0.007 0.0605,0.0135 0.0537,0.044 0.0507,-0.0848 0.0205,-0.0914 -0.0234,-0.0373 -0.0234,-0.0372 -0.0166,-0.0678 -0.0234,-0.0373 0.007,-0.0304 0.18654,-0.11833 0.0439,-0.0543 0.0985,-0.01 0.0575,-0.11522 0.0439,-0.0542 0.0273,-0.12198 0.14632,-0.22345 0.0302,0.007 0.1457,0.0647 0.0986,-0.01 -0.01,-0.0982 0.0107,-0.18984 0.0341,-0.15243 0.11902,-0.10146 0.0741,-0.0475 0.14245,-0.0641 0.007,-0.0306 0.0819,-0.0777 -0.0234,-0.0373 0.0205,-0.0914 0.0439,-0.0543 0.081,-0.0779 0.0888,-0.10823 0.007,-0.0306 0.007,-0.0304 0.0575,-0.11522 0.0273,-0.12198 -0.10834,-0.0883 0.10918,-0.48793 0.0878,-0.10845 0.0848,-0.2372 0.10144,-0.16944 0.0644,-0.14566 0.11902,-0.10146 0.0546,-0.24396 0.10244,-0.16932 0.0371,-0.0237 0.0741,-0.0475 0.007,-0.0306 -0.0166,-0.0677 0.0137,-0.0611 0.0575,-0.11522 0.007,-0.0304 0.0946,-0.1389 0.11509,-0.23043 0.0137,-0.0611 -0.0303,-0.007 -0.0196,-0.19642 0.13269,-0.16255 -0.0537,-0.044 0.0136,-0.061 0.0917,-0.26775 0.0956,-0.13867 0.007,-0.0304 0.0848,-0.2372 0.0507,-0.0848 0.0371,-0.0237 0.0137,-0.0611 0.0136,-0.0609 0.0371,-0.0238 0.0136,-0.061 0.0409,-0.18297 0.007,-0.0306 0.0439,-0.0541 0.15611,-0.12524 0.0371,-0.0238 0.22033,0.0173 0.10834,0.0883 0.2781,-0.0979 0.0136,-0.0609 0.007,-0.0306 0.007,-0.0305 0.0341,-0.15243 0.0575,-0.11522 0.0516,-0.37272 -0.0166,-0.0678 -0.0546,-0.0443 -0.0537,-0.044 -0.0508,-0.2035 0.007,-0.0305 -0.0166,-0.0677 0.11213,-0.35919 -0.003,-0.12875 0.0273,-0.12198 0.0946,-0.13899 0.0341,-0.15253 0.0644,-0.14566 0.0507,-0.0848 0.0439,-0.0541 0.007,-0.0305 -0.0166,-0.0678 0.16975,-0.18623 0.081,-0.0779 0.0819,-0.0777 0.007,-0.0306 0.004,-0.1593 0.0273,-0.12198 0.0371,-0.0237 0.0371,-0.0237 0.007,-0.0305 -0.003,-0.12875 -0.0234,-0.0373 -0.0303,-0.007 -0.0469,-0.0744 0.0205,-0.0915 0.12584,-0.13191 0.0439,-0.0543 0.31167,0.0378 0.0683,-0.0167 0.0673,-0.017 0.078,-0.20666 -0.01,-0.0983 -0.0234,-0.0372 0.004,-0.1593 0.0848,-0.23719 0.0742,-0.0475 0.0985,-0.01 0.082,-0.0778 0.0371,-0.0237 0.007,-0.0305 0.007,-0.0306 0.0273,-0.12198 0.0409,-0.18288 0.0878,-0.10845 0.007,-0.0305 -0.0332,-0.13552 0.0371,-0.0238 0.0507,-0.0847 0.0303,0.007 0.0537,0.0441 2.15311,1.82661 0.59594,0.48565 0.0878,-0.10845 0.0273,-0.12198 0.34003,-0.66049 0.26842,-0.48428 0.0507,-0.0848 0.10923,-0.19966 0.12193,-0.26098 0.13653,-0.32165 0.078,-0.20665 0.0712,-0.17631 0.0136,-0.0609 0.0137,-0.0611 0.22433,-0.4301 0.0819,-0.0777 0.0439,-0.0543 0.0341,-0.15243 0.0439,-0.0542 0.13268,-0.16245 0.16607,-0.0269 0.27495,-0.22674 0.0439,-0.0541 0.0507,-0.0848 0.0136,-0.061 0.078,-0.20666 0.23431,-0.33184 0.007,-0.0306 0.27809,-0.0979 0.0302,0.007 0.0683,-0.0167 0.0507,-0.0848 0.0439,-0.0541 -0.0311,0.28118 -0.0137,0.061 -0.007,0.0306 -0.007,0.0304 0.0234,0.0372 -0.038,0.31183 0.0234,0.0372 0.0166,0.0678 0.0234,0.0373 0.0303,0.007 0.0371,-0.0238 0.007,-0.0305 0.0371,-0.0237 0.007,-0.0304 0.17657,-0.21667 0.15937,0.004 0.13948,-0.1929 0.0439,-0.0543 0.007,-0.0304 0.0303,0.007 0.13563,-0.0337 0.081,-0.0779 0.1327,-0.16255 0.0956,-0.13868 0.0136,-0.061 0.0946,-0.13899 0.0439,-0.0541 0.10146,-0.16953 0.0409,-0.18288 0.1151,-0.23043 0.18297,0.0409 0.11509,-0.23043 0.0137,-0.0611 0.0205,-0.0914 0.0371,-0.0238 0.0371,-0.0237 0.0371,-0.0237 0.12882,-0.003 0.0234,0.0373 -0.0273,0.12199 0.0469,0.0744 0.0741,-0.0474 0.0986,-0.01 0.0576,0.17306 0.15568,0.16292 -0.0166,-0.0679 0.0819,-0.0777 0.0439,-0.0542 0.0673,-0.0169 0.078,-0.20675 0.1395,-0.193 0.0205,-0.0914 0.0136,-0.061 0.19022,-0.27766 0.0371,-0.0238 0.007,-0.0305 0.16976,-0.18622 0.0507,-0.0847 0.0878,-0.10845 0.0673,-0.017 0.0439,-0.0541 -0.16921,-0.10201 -0.0479,-0.0746 -0.0849,-0.0511 -0.0302,-0.007 -0.0303,-0.007 -0.13197,-0.12554 0.25794,-0.29459 0.082,-0.0778 0.0273,-0.12198 0.13265,-0.16236 0.0673,-0.017 0.0136,-0.061 0.0878,-0.10844 0.20031,-0.17939 0.10535,-0.0404 0.081,-0.078 0.10828,-0.19998 0.0136,-0.0609 0.0137,-0.0611 0.081,-0.0779 0.007,-0.0305 0.081,-0.0779 0.081,-0.0779 0.17657,-0.21667 0.0137,-0.0611 0.23756,-0.20303 0.14244,-0.0641 -0.007,0.0305 0.0537,0.044 0.0371,-0.0237 0.0752,-0.0473 0.007,-0.0305 0.0742,-0.0474 0.13563,-0.0337 0.44153,-0.54166 0.0205,-0.0915 0.0409,-0.18288 0.1668,-0.31498 0.29174,-0.15893 0.0439,-0.0541 0.081,-0.078 0.0956,-0.13868 -0.0781,-0.0816 -0.0849,-0.051 -0.35546,-0.27167 -0.0332,-0.13552 0.0946,-0.13899 -0.0234,-0.0372 -0.14571,-0.0646 -0.0917,-0.0205 -0.0615,-0.0138 0.0137,-0.0611 0.12584,-0.13191 0.007,-0.0304 0.0439,-0.0543 0.0371,-0.0237 0.0878,-0.10845 0.13267,-0.16245 0.24796,-0.39284 0.0107,-0.18974 0.0205,-0.0914 0.081,-0.078 -0.20302,-0.23756 -0.13879,-0.0951 -0.0302,-0.007 -0.0615,-0.0138 0.007,-0.0304 0.0956,-0.13877 0.007,-0.0306 0.23431,-0.33184 0.007,-0.0304 0.007,-0.0305 0.0575,-0.11521 0.1054,-0.0406 0.0303,0.007 0.0136,-0.0609 0.0371,-0.0238 0.0205,-0.0914 0.0507,-0.0848 -0.0166,-0.0678 0.0371,-0.0238 0.22748,-0.3013 0.081,-0.0779 0.0742,-0.0476 0.078,-0.20666 0.0371,-0.0238 0.0605,0.0135 0.0136,-0.0609 0.25845,-0.58263 0.007,-0.0305 -0.0166,-0.0678 0.0575,-0.11522 0.0303,0.007 0.0234,0.0372 0.0507,-0.0847 0.007,-0.0306 -0.041,-0.10519 -0.18288,-0.0409 -0.18307,-0.041 -0.12198,-0.0273 -0.0849,-0.0511 0.081,-0.0779 0.15316,-0.25399 0.23797,-0.49108 -0.16259,-0.1325 0.0273,-0.12199 -0.18613,-0.16973 -0.0644,-0.14251 0.0205,-0.0914 0.0575,-0.11522 0.12586,-0.132 0.0575,-0.11522 0.0205,-0.0914 -0.0166,-0.0678 -0.12523,-0.15612 0.0946,-0.13889 0.0439,-0.0543 -0.0166,-0.0677 -0.0166,-0.0679 0.0205,-0.0914 0.0136,-0.061 0.0107,-0.18975 -0.11515,-0.0578 0.0575,-0.11521 0.87351,0.67584 0.44016,0.32269 0.3013,0.22748 0.28447,0.15977 0.75155,0.64845 0.51124,0.43462 0.41645,0.28532 0.34874,0.30214 0.29444,0.25812 0.22351,0.14602 0.0303,0.007 0.13879,0.0951 0.10833,0.0883 0.62641,0.49235 -0.007,0.0306 0.60257,0.45505 0.0615,0.0138 1.03593,0.8082 0.60277,0.4551 0.32501,0.26485 1.22897,0.94751 0.37919,0.30895 1.34423,1.00528 0.0234,0.0372 0.71101,0.54337 0.11509,-0.23043 -0.0166,-0.0677 -0.0166,-0.0679 0.0205,-0.0914 0.0273,-0.12199 0.0507,-0.0847 0.12193,-0.26097 0.0204,-0.0914 0.0683,-0.0168 0.0575,-0.11522 0.0137,-0.061 0.0205,-0.0915 -0.0234,-0.0372 0.11895,-0.38963 0.0137,-0.0611 -0.003,-0.12875 0.007,-0.0305 0.0712,-0.17621 0.0136,-0.061 0.007,-0.0304 0.0946,-0.139 0.0917,-0.26774 0.0507,-0.0847 0.081,-0.0779 0.10828,-0.19998 0.0819,-0.36595 -0.0605,-0.0135 -0.003,-0.12875 0.007,-0.0304 0.0371,-0.0238 0.007,-0.0305 0.0302,0.007 0.0741,-0.0474 0.0137,-0.0611 0.0136,-0.0609 0.007,-0.0306 0.0575,-0.11521 0.007,-0.0306 0.0644,-0.14566 0.007,-0.0305 0.0439,-0.0543 -0.0234,-0.0372 0.007,-0.0305 0.0205,-0.0915 0.0409,-0.18297 0.0341,-0.15253 0.27523,-0.51472 0.11221,-0.071 0.14928,-0.0947 0.0371,-0.0237 0.0439,-0.0543 -0.18971,-0.0104 -0.0303,-0.007 -0.0234,-0.0373 -0.0234,-0.0372 -0.11517,-0.0577 -0.23713,-0.0851 -0.0234,-0.0373 -0.0917,-0.0205 -0.0537,-0.044 -0.0303,-0.007 -0.0303,-0.007 -0.0234,-0.0372 -0.0303,-0.007 0.007,-0.0305 -0.0469,-0.0745 -0.0166,-0.0678 0.0136,-0.061 0.0371,-0.0237 0.18656,-0.11842 0.0888,-0.10823 0.0409,-0.18298 -0.003,-0.12875 0.007,-0.0305 -0.0303,-0.007 -0.20615,-0.36645 0.007,-0.0304 0.007,-0.0305 0.007,-0.0305 0.007,-0.0306 0.0371,-0.0237 0.0371,-0.0237 0.1662,-0.027 0.007,-0.0304 0.0303,0.007 0.0303,0.007 0.007,-0.0304 0.0371,-0.0238 0.007,-0.0305 -0.0303,-0.007 0.007,-0.0304 0.0136,-0.061 -0.0469,-0.0745 -0.0576,-0.17296 -0.0468,-0.0746 -0.11843,-0.18656 -0.1351,-0.25444 -0.01,-0.0982 -0.0234,-0.0373 -0.0849,-0.051 -0.0303,-0.007 -0.0917,-0.0205 -0.0303,-0.007 -0.22707,0.0132 -0.25081,-0.024 -0.12198,-0.0273 -0.0537,-0.0441 -0.0302,-0.007 -0.0303,-0.007 -0.0303,-0.007 -0.0234,-0.0373 -0.0234,-0.0372 -0.0303,-0.007 -0.0234,-0.0372 0.0137,-0.0611 0.007,-0.0304 0.0371,-0.0237 0.27126,-0.0674 0.0371,-0.0238 0.007,-0.0305 0.0136,-0.0609 -0.1694,-0.10205 -0.12514,-0.15609 -0.0234,-0.0372 0.0136,-0.061 0.0439,-0.0542 0.0673,-0.0169 0.21343,0.0478 0.0615,0.0138 0.0371,-0.0238 0.0371,-0.0238 -0.0234,-0.0372 0.007,-0.0305 -0.26758,-0.0919 -0.13888,-0.0951 -0.0234,-0.0372 -0.01,-0.0983 -0.0166,-0.0678 0.0439,-0.0542 0.007,-0.0304 0.14927,-0.0947 0.0371,-0.0238 0.0303,0.007 0.0741,-0.0474 0.17292,-0.0574 0.0683,-0.0167 0.0371,-0.0237 0.007,-0.0306 0.0371,-0.0238 0.0371,-0.0237 0.007,-0.0304 -0.0166,-0.0679 -0.0303,-0.007 -0.0234,-0.0372 -0.0303,-0.007 -0.0302,-0.007 0.007,-0.0305 -0.0985,0.01 -0.1288,0.003 -0.0303,-0.007 -0.0371,0.0238 -0.007,0.0306 -0.0371,0.0237 -0.007,0.0304 -0.0575,0.11522 -0.0303,-0.007 -0.007,0.0306 -0.0302,-0.007 -0.007,0.0305 -0.0673,0.0169 -0.0302,-0.007 -0.0673,0.0169 -0.0302,-0.007 -0.0303,-0.007 -0.0673,0.017 -0.0302,-0.007 -0.0303,-0.007 -0.0537,-0.0441 -0.0303,-0.007 -0.15253,-0.0341 -0.0303,-0.007 -0.0303,-0.007 -0.0615,-0.0138 -0.12882,0.003 -0.29803,-0.0988 -0.0303,-0.007 -0.0537,-0.044 0.0137,-0.061 0.007,-0.0306 0.0507,-0.0847 0.34275,-0.24354 0.081,-0.078 0.0107,-0.18965 0.0137,-0.0611 -0.0166,-0.0677 -0.0303,-0.007 -0.0234,-0.0373 -0.0303,-0.007 -0.11515,-0.0578 -0.0683,0.0168 -0.0673,0.017 -0.0205,0.0914 0.0127,0.22696 -0.0439,0.0543 -0.17972,0.0879 -0.20354,0.0505 -0.0605,-0.0135 -0.0546,-0.0443 0.007,-0.0305 -0.0303,-0.007 0.0136,-0.061 -0.0303,-0.007 0.007,-0.0306 0.0136,-0.0609 0.007,-0.0305 0.0137,-0.061 0.0136,-0.061 -0.0234,-0.0373 0.0273,-0.12199 -0.0166,-0.0677 -0.0234,-0.0373 0.007,-0.0306 -0.16251,-0.13238 -0.30811,-0.19703 -0.0234,-0.0373 -0.0469,-0.0744 0.007,-0.0306 0.007,-0.0305 0.007,-0.0305 0.0439,-0.0542 0.0683,-0.0168 0.0371,-0.0237 0.0371,-0.0237 0.0371,-0.0238 0.12882,-0.003 0.12879,-0.003 0.0371,-0.0237 0.1661,-0.027 0.31858,0.007 0.11222,-0.071 0.0439,-0.0542 0.007,-0.0306 0.007,-0.0305 0.0273,-0.12198 0.0409,-0.18298 -0.01,-0.0982 0.0137,-0.0611 -0.01,-0.0982 -0.0371,-0.26449 -0.0234,-0.0373 -0.0234,-0.0372 -0.10834,-0.0883 -0.0917,-0.0205 -0.0986,0.01 -0.0917,-0.0205 -0.0371,0.0237 -0.0302,-0.007 -0.0605,-0.0135 -0.0302,-0.007 -0.0303,-0.007 -0.0537,-0.044 -0.0917,-0.0205 -0.0303,-0.007 -0.0303,-0.007 -0.10831,-0.0884 -0.2508,-0.024 -0.0371,0.0238 -0.007,0.0304 0.0947,0.14928 0.0303,0.007 0.0234,0.0372 0.01,0.0983 -0.0205,0.0915 -0.0371,0.0237 -0.007,0.0304 -0.0303,-0.007 -0.0371,0.0238 -0.0303,-0.007 -0.007,0.0306 -0.0303,-0.007 -0.12198,-0.0273 -0.30496,-0.0682 -0.15243,-0.0341 -0.14569,-0.0647 -0.0781,-0.0815 -0.0576,-0.17295 -0.11515,-0.0578 -0.0605,-0.0135 -0.0371,0.0238 -0.0371,0.0237 0.0234,0.0372 -0.007,0.0305 0.0478,0.0747 0.003,0.12875 0.01,0.0983 -0.0946,0.13889 -0.0371,0.0237 -0.0371,0.0238 -0.0303,-0.007 -0.0605,-0.0135 -0.0605,-0.0135 -0.0166,-0.0678 -0.0478,-0.0747 -0.0469,-0.0745 -0.0234,-0.0372 -0.0605,-0.0135 -0.10536,0.0404 -0.0605,-0.0135 -0.0371,0.0238 -0.0575,0.11521 -0.0741,0.0475 -0.16617,0.0269 -0.15253,-0.0341 -0.0302,-0.007 -0.19663,0.02 -0.0303,-0.007 -0.0605,-0.0135 -0.0302,-0.007 -0.0537,-0.044 -0.0234,-0.0373 -0.26046,-0.41048 -0.0468,-0.0746 -0.0234,-0.0372 -0.10151,-0.11883 -0.14195,-0.2238 -0.0478,-0.0748 -0.16925,-0.10182 -0.0546,-0.0443 -0.0303,-0.007 0.007,-0.0305 -0.0781,-0.0814 0.007,-0.0306 -0.37226,-0.33947 -0.13207,-0.12557 -0.0781,-0.0816 -0.0849,-0.051 -0.0673,0.0169 -0.0917,-0.0205 -0.18623,-0.16976 -0.0537,-0.044 -0.0303,-0.007 -0.14562,-0.0646 -0.0917,-0.0205 -0.24397,-0.0546 -0.21342,-0.0477 -0.0537,-0.0441 -0.18298,-0.0409 -0.22707,0.0132 -0.0234,-0.0372 -0.0303,-0.007 -0.0917,-0.0205 -0.0303,-0.007 -0.17604,-0.0715 -0.0303,-0.007 -0.0986,0.01 -0.13561,0.0336 -0.0751,0.0473 -0.11903,0.10146 -0.0371,0.0237 -0.078,0.20675 -0.0878,0.10845 -0.0371,0.0237 -0.0741,0.0474 -0.4475,-0.004 -0.0742,0.0476 -0.0303,-0.007 -0.0136,0.0609 -0.0137,0.0611 0.13207,0.12557 0.0781,0.0815 0.0166,0.0678 -0.0439,0.0542 -0.0439,0.0542 -0.22382,0.14205 -0.0439,0.0542 -0.0371,0.0238 -0.0946,0.13889 -0.15609,0.12514 -0.15999,0.28453 -0.0273,0.12199 0.003,0.12875 -0.0439,0.0541 -0.0371,0.0238 -0.0917,-0.0205 -0.25081,-0.0241 -0.20668,-0.0783 -0.11515,-0.0578 -0.0917,-0.0205 -0.14572,-0.0646 -0.11517,-0.0577 -0.21342,-0.0477 -0.20659,-0.0783 -0.0302,-0.007 -0.12199,-0.0273 -0.27451,-0.0614 -0.0605,-0.0135 -0.0303,-0.007 -0.0439,0.0542 -0.007,0.0305 0.0166,0.0679 0.0537,0.044 0.0469,0.0745 0.0166,0.0678 -0.007,0.0304 -0.0752,0.0473 -0.0371,0.0237 -0.0917,-0.0205 -0.0917,-0.0205 -0.0166,-0.0678 -0.12198,-0.0273 -0.13563,0.0337 -0.0302,-0.007 -0.007,0.0305 -0.0303,-0.007 -0.007,0.0306 -0.0205,0.0914 0.0234,0.0373 -0.007,0.0306 0.10153,0.11873 0.12513,0.15609 0.0234,0.0373 -0.0371,0.0237 -0.007,0.0304 -0.0303,-0.007 -0.0673,0.017 -0.0917,-0.0205 -0.17624,-0.0715 -0.10836,-0.0882 -0.38272,-0.14978 -0.17617,-0.0714 -0.0917,-0.0205 -0.10538,0.0405 -0.081,0.0779 0.0166,0.0679 0.0234,0.0372 0.0166,0.0678 0.14894,0.19349 0.10152,0.11874 0.16242,0.13235 0.0303,0.007 0.19975,0.10885 0.10836,0.0882 0.0478,0.0749 -0.007,0.0304 0.0302,0.007 -0.0136,0.061 -0.0507,0.0847 -0.0752,0.0473 -0.13561,0.0336 -0.18288,-0.0409 -0.0615,-0.0138 -0.0303,-0.007 -0.0469,-0.0744 -0.14569,-0.0647 -0.32857,-0.10559 -0.0303,-0.007 -0.0673,0.017 -0.0303,-0.007 -0.0303,-0.007 -0.0741,0.0475 -0.0439,0.0542 -0.0136,0.061 -0.0273,0.12198 0.11842,0.18656 0.0781,0.0816 0.27085,0.22066 0.26077,0.12239 0.0546,0.0443 0.0303,0.007 0.0166,0.0677 0.0478,0.0748 -0.007,0.0304 0.0234,0.0372 -0.0137,0.0611 -0.0303,-0.007 -0.0683,0.0167 -0.0605,-0.0135 -0.0849,-0.051 -0.0673,0.0169 -0.0137,0.061 0.0166,0.0678 -0.0136,0.061 -0.007,0.0306 -0.007,0.0304 -0.0371,0.0237 -0.0303,-0.007 -0.0537,-0.044 -0.11517,-0.0577 -0.0302,-0.007 -0.0371,0.0237 -0.007,0.0304 -0.007,0.0305 0.0302,0.007 -0.007,0.0305 -0.007,0.0304 -0.0371,0.0237 -0.0371,0.0238 -0.0302,-0.007 -0.0986,0.01 -0.0439,0.0541 -0.007,0.0305 0.003,0.12876 0.0234,0.0373 -0.007,0.0304 -0.0341,0.15243 -0.12586,0.132 -0.0673,0.017 -0.0605,-0.0135 -0.1457,-0.0647 -0.0605,-0.0135 -0.0303,-0.007 -0.10538,0.0405 -0.18989,-0.0105 -0.0986,0.01 -0.23032,-0.11558 -0.15253,-0.0341 -0.0303,-0.007 -0.0303,-0.007 -0.0985,0.01 -0.0303,-0.007 -0.14247,0.0642 -0.24081,0.0742 -0.0605,-0.0135 -0.0605,-0.0135 -0.0986,0.01 -0.17291,0.0574 -0.0605,-0.0135 -0.11517,-0.0577 -0.13205,-0.12567 -0.18288,-0.0409 -0.0303,-0.007 -0.0537,-0.044 -0.0234,-0.0373 -0.0166,-0.0678 -0.0234,-0.0372 -0.0303,-0.007 -0.0371,0.0237 -0.0751,0.0472 -0.0303,-0.007 -0.0605,-0.0135 -0.0302,-0.007 -0.0234,-0.0373 -0.0605,-0.0135 -0.0605,-0.0135 -0.0303,-0.007 -0.20671,-0.0782 -0.10538,0.0405 -0.007,0.0306 -0.0371,0.0237 -0.33225,0.0537 z"
       id="WV-02"
       style="font-style:normal;font-weight:400;font-size:34.375px;font-family:'MS Shell Dlg 2';opacity:1;fill:none;fill-opacity:1;fill-rule:evenodd;stroke:#000000;stroke-width:0.333;stroke-linecap:square;stroke-linejoin:bevel;stroke-miterlimit:4;stroke-dasharray:none;stroke-opacity:1" />
    <path
       inkscape:connector-curvature="0"
       d="m 271.64618,404.1357 c -0.008,-0.39516 -0.12205,-0.77536 -0.0289,-1.15928 0.0873,-0.32149 0.18236,-0.67302 0.0964,-1.00316 -0.0763,-0.33669 -0.14731,-0.72701 -0.42568,-0.95991 -0.35187,-0.0788 -0.45949,0.42687 -0.53652,0.68047 -0.0353,0.31797 -0.30278,0.26642 -0.46791,0.0875 -0.24719,-0.17663 -0.60053,-0.11613 -0.77566,-0.39776 -0.0282,-0.31382 -0.14498,-0.63027 -0.31053,-0.90207 -0.0444,-0.12195 -0.13392,-0.24506 -0.25027,-0.31218 -0.11645,-0.0672 -0.23952,-0.0814 -0.33919,0.0843 -0.31304,0.43596 -0.52462,0.92906 -0.79173,1.39191 -0.47032,0.50458 -0.68652,1.2061 -0.8332,1.86302 -0.054,0.32402 -0.15103,0.62921 -0.15006,0.95918 -0.0258,0.2252 -0.0237,0.39454 -0.10326,0.74544 l -3.7186,2.59434 -1.9045,-0.36209 -2.83028,2.34478 1.36134,-3.7943 -2.25041,-4.82655 c -0.26407,0.19597 -0.51647,0.37785 -0.7191,0.35147 -0.20253,-0.0264 -0.37759,-0.2465 -0.40877,-0.89208 -0.66431,-0.43106 -1.15561,-0.3507 -1.56892,-0.2869 -0.20673,0.0318 -0.36569,0.0438 -0.54577,0.006 -0.18,-0.0382 -0.37771,-0.14384 -0.55533,-0.38044 l -1.0884,2.57447 -3.12012,3.49679 c -0.44732,-0.13318 -0.90122,-0.22818 -1.28757,-0.25602 -0.38642,-0.0279 -0.72756,0.0257 -0.97994,0.22896 l -0.84948,-0.92655 -2.11393,1.57646 1.21983,0.27294 0.16849,0.67816 -1.9615,1.61056 -7.0867,4.05034 -2.37322,2.73531 -1.08304,5.84198 c -0.41972,-0.1141 -0.87303,-0.12156 -1.28757,-0.25602 -0.2605,-0.0686 -0.40614,-0.18208 -0.50125,-0.33637 -0.095,-0.15426 -0.15033,-0.35079 -0.16524,-0.54933 -0.0298,-0.39709 0.0329,-0.83732 -0.18811,-1.16294 -0.0836,-0.30686 -0.50331,-0.32852 -0.84351,-0.38077 -0.16999,-0.0262 -0.3344,-0.0452 -0.42001,-0.12605 -0.0857,-0.0809 -0.0937,-0.23298 0.004,-0.44747 0.3527,-0.2578 0.3805,-0.54189 0.24474,-0.8099 -0.13528,-0.2678 -0.4255,-0.51094 -0.68371,-0.66534 -0.1862,-0.27797 -0.43099,-0.53359 -0.70064,-0.73308 -0.26953,-0.19957 -0.56062,-0.34627 -0.91123,-0.36405 -0.22964,-0.0335 -0.35443,-0.11507 -0.39281,-0.24806 -0.0384,-0.13289 0.01,-0.30695 0.0413,-0.47104 0.0316,-0.16406 0.0612,-0.34404 0.0413,-0.47103 -0.0198,-0.1271 -0.10889,-0.20585 -0.30138,-0.2276 -0.29212,-0.12972 -0.59742,-0.2134 -0.86072,-0.16051 -0.26318,0.0528 -0.46556,0.26114 -0.52972,0.65002 -0.17382,0.19935 -0.40117,0.23077 -0.54933,0.16523 -0.14807,-0.0655 -0.20847,-0.24759 -0.14161,-0.51207 -0.15369,-0.18369 -0.28215,-0.22648 -0.3691,-0.21068 -0.087,0.0159 -0.14802,0.0877 -0.20702,0.20986 -0.11821,0.24439 -0.21218,0.62085 -0.45194,0.73157 -0.14793,0.13629 -0.33655,0.13477 -0.49831,0.0805 -0.16188,-0.0542 -0.30787,-0.16562 -0.40974,-0.31579 -0.10187,-0.15017 -0.14998,-0.32304 -0.11799,-0.47472 0.0319,-0.15169 0.15386,-0.2695 0.39375,-0.32814 0.34022,-0.19973 0.532,-0.54068 0.58431,-0.89399 0.0522,-0.35342 -0.0455,-0.72708 -0.28321,-1.02415 -0.0365,-0.38023 -0.22601,-0.46507 -0.46715,-0.48879 -0.24106,-0.0236 -0.53358,0.0202 -0.77601,-0.10949 -0.37689,-0.14428 -0.7983,-0.2357 -1.20985,-0.17469 -0.41146,0.061 -0.79626,0.26124 -1.03811,0.63228 -0.19477,0.3534 -0.50278,0.42293 -0.82421,0.3921 -0.3214,-0.0309 -0.67652,-0.169 -0.97587,-0.21835 l -0.14622,-8.93513 2.34748,-1.33197 4.04793,-0.63136 -0.88306,-1.06225 0.52247,-0.33141 -2.67177,-4.08834 0.0951,-0.13879 -0.061,-0.0136 -0.13194,-0.12565 -0.24041,-0.21385 -0.0169,-0.0678 0.007,-0.0305 0.0409,-0.18288 0.051,-0.0847 0.11873,-0.10152 0.0137,-0.061 0.11883,-0.1015 0.0137,-0.061 0.0305,0.007 0.0442,-0.0542 0.16974,-0.18612 0.007,-0.0306 0.0578,-0.11515 -0.0406,-0.10511 -0.003,-0.12879 -0.11831,-0.18664 -0.0474,-0.0747 -0.0473,-0.0746 -0.0101,-0.0983 -0.0306,-0.007 0.007,-0.0306 -0.071,-0.1119 -0.081,-0.21036 -0.15203,-0.32217 -0.0642,-0.14247 -0.0947,-0.14927 -0.0542,-0.0441 -0.0237,-0.0374 -0.10833,-0.0883 -0.15243,-0.0341 -0.0542,-0.0441 -0.16616,0.0268 -0.0373,0.0237 -0.0678,0.0169 -0.0678,0.0168 -0.16608,0.0269 -0.0611,-0.0137 -0.0609,-0.0136 -0.0237,-0.0374 -0.0237,-0.0373 -0.003,-0.12879 -0.0236,-0.0373 0.007,-0.0306 0.007,-0.0305 -0.0237,-0.0373 0.007,-0.0304 -0.0405,-0.10519 -0.0236,-0.0373 0.007,-0.0305 -0.0306,-0.007 -0.0879,-0.17983 -0.0474,-0.0745 -0.0236,-0.0374 -0.0779,-0.0815 -0.0542,-0.0441 -0.0306,-0.007 -0.0541,-0.0442 -0.0305,-0.007 -0.2508,-0.024 -0.13561,0.0336 -0.0374,0.0237 -0.0305,-0.007 -0.0678,0.0169 -0.1119,0.071 -0.0747,0.0473 -0.0645,0.14562 -0.007,0.0305 -0.0136,0.061 -0.007,0.0305 -0.0341,0.15252 -0.0205,0.0914 -0.007,0.0305 -0.10193,0.16933 -0.051,0.0847 -0.007,0.0305 -0.0373,0.0236 -0.0373,0.0237 -0.0747,0.0473 -0.15609,0.12513 -0.0305,-0.007 -0.007,0.0305 -0.24765,0.10476 -0.14928,0.0947 -0.0745,0.0473 -0.0374,0.0237 -0.007,0.0305 -0.0442,0.0541 -0.007,0.0306 -0.041,0.18297 -0.0714,0.17616 -0.0441,0.0542 -0.007,0.0304 -0.0884,0.10832 -0.0577,0.11517 -0.0441,0.0543 -0.0341,0.15244 0.003,0.12879 -0.0136,0.061 -0.0509,0.0846 -0.0952,0.13886 -0.0882,0.10836 -0.0578,0.11515 -0.007,0.0305 -0.10191,0.16923 -0.12566,0.13205 -0.20019,0.17932 -0.041,0.18307 0.0132,0.22707 -0.007,0.0305 0.0573,0.17289 0.0101,0.0984 0.0474,0.0745 -0.0205,0.0915 0.0236,0.0373 -0.007,0.0306 -0.0136,0.061 -0.0137,0.061 -0.007,0.0306 0.0169,0.0677 -0.0137,0.0611 -0.0205,0.0914 -0.0205,0.0914 -0.0137,0.0611 -0.007,0.0305 -0.007,0.0304 -0.0205,0.0915 -0.051,0.0847 -0.0373,0.0236 -0.007,0.0304 -0.0747,0.0474 -0.007,0.0305 -0.17657,0.21667 -0.0374,0.0236 -0.0746,0.0475 -0.32227,0.152 -0.0983,0.0101 -0.0679,0.0168 -0.0677,0.0168 -0.007,0.0306 -0.0306,-0.007 -0.16292,0.15569 -0.23075,0.17257 -0.007,0.0304 -0.0373,0.0236 -0.007,0.0305 -0.0374,0.0237 -0.0306,-0.007 -0.0509,0.0846 -0.085,0.23716 0.003,0.12879 -0.0205,0.0914 -0.007,0.0306 0.0236,0.0374 0.0101,0.0983 0.0947,0.14928 0.0778,0.0815 0.11517,0.0577 0.10832,0.0884 0.0779,0.0814 -0.007,0.0305 0.0711,0.11192 0.0537,0.33236 0.071,0.11189 0.0405,0.10509 0.02,0.19672 0.0101,0.0983 0.0199,0.1966 0.0574,0.17292 -0.007,0.0305 -0.007,0.0305 -0.007,0.0304 -0.007,0.0304 -0.0273,0.12198 -0.0137,0.0611 -0.0136,0.0609 -0.0137,0.0611 -0.0714,0.17606 -0.007,0.0306 -0.0205,0.0914 0.01,0.0983 0.0438,0.234 0.0404,0.10506 -0.0136,0.061 0.0305,0.007 -0.0104,0.18981 0.15884,0.29172 0.0269,0.16617 0.0606,0.30171 0.0168,0.0678 0.0237,0.0374 0.0101,0.0983 -0.004,0.15934 -0.0546,0.24397 -0.007,0.0304 -0.007,0.0304 -0.0577,0.11517 -0.007,0.0306 -0.0374,0.0237 -0.051,0.0846 -0.15611,0.12524 -0.0373,0.0236 -0.0746,0.0474 -0.22707,0.0132 -0.0305,-0.007 -0.0374,0.0236 -0.25763,0.007 -0.0914,-0.0205 -0.35229,-0.14297 -0.14571,-0.0646 -0.0305,-0.007 -0.0984,0.01 -0.0305,-0.007 -0.0304,-0.007 -0.1662,0.027 -0.0678,0.0168 -0.0305,-0.007 -0.11202,0.0711 -0.0305,-0.007 -0.007,0.0304 -0.0305,-0.007 -0.007,0.0305 -0.0374,0.0237 -0.21385,0.2404 -0.0373,0.0236 -0.0884,0.10831 -0.0577,0.11518 -0.0137,0.061 0.0168,0.0678 -3.1e-4,0.28809 -0.007,0.0305 -0.0483,0.50156 -0.0136,0.061 -0.0341,0.15243 -0.0577,0.11517 -0.0441,0.0543 -0.007,0.0304 -0.0205,0.0915 -0.0136,0.0609 -0.007,0.0305 -0.0137,0.061 0.0164,0.35596 -0.0104,0.18971 -0.0137,0.0611 -0.007,0.0305 -0.0273,0.12198 -0.10886,0.19985 -0.0205,0.0914 -0.0205,0.0914 -0.007,0.0306 -0.0341,0.15253 -0.007,0.0304 -0.007,0.0305 -0.007,0.0305 -0.0205,0.0914 -0.007,0.0306 -0.0646,0.14571 -0.11558,0.23032 -0.15609,0.12514 -0.21709,0.11149 -0.43052,0.0638 -0.26443,0.0369 -0.0374,0.0237 -0.0305,-0.007 -0.16608,0.0269 -0.15925,-0.004 -0.007,0.0305 -0.0543,-0.0442 -0.2676,-0.0919 -0.0984,0.01 -0.0304,-0.007 -0.32219,0.15212 -0.13563,0.0337 -0.007,0.0306 -0.0679,0.0168 -0.0305,-0.007 -0.0678,0.0168 -0.21027,0.0811 -0.0678,0.0169 -0.19662,0.0201 -0.0373,0.0236 -0.0679,0.0169 -0.0373,0.0237 -0.061,-0.0136 -0.0374,0.0236 -0.0304,-0.007 -0.31536,0.12158 -0.21037,0.081 -0.24755,0.10477 -0.51879,0.17208 -0.0611,-0.0137 -0.0677,0.0168 -0.0984,0.0101 -0.19663,0.0201 -0.15253,-0.0341 -0.0914,-0.0205 -0.21343,-0.0478 -0.0305,-0.007 -0.0306,-0.007 -0.0846,-0.0509 -0.0306,-0.007 -0.0305,-0.007 -0.0236,-0.0374 -0.0847,-0.051 -0.0474,-0.0745 -0.061,-0.0136 0.007,-0.0305 -0.0236,-0.0374 -0.0779,-0.0814 -0.0815,0.0778 0.003,0.12882 -0.007,0.0305 0.0168,0.0677 0.01,0.0983 -0.007,0.0304 0.0169,0.0679 0.0237,0.0373 -0.0442,0.0542 -0.0578,0.11515 -0.0136,0.061 -0.0205,0.0915 0.0237,0.0373 0.0879,0.17972 -0.007,0.0306 0.0573,0.17299 -0.0205,0.0914 -0.0441,0.0542 -0.007,0.0304 -0.007,0.0306 -0.0509,0.0846 0.0305,0.007 -0.041,0.18307 -0.007,0.0304 0.0132,0.22716 0.0101,0.0983 -0.007,0.0305 0.0236,0.0373 0.0847,0.0509 0.0304,0.007 0.0305,0.007 0.0237,0.0374 0.0641,0.14245 0.18622,0.16976 0.0168,0.0678 0.0811,0.21027 0.0169,0.0678 -0.007,0.0304 -0.007,0.0305 -0.0136,0.061 -0.13238,0.16252 -0.0647,0.14569 -0.0578,0.11515 0.0237,0.0373 0.071,0.112 -0.0104,0.18971 0.0101,0.0984 0.0404,0.10516 0.0475,0.0746 0.0305,0.007 -0.007,0.3187 -0.11558,0.23032 -0.007,0.0304 -0.0577,0.11517 -0.007,0.0304 -0.0442,0.0543 -0.0374,0.0236 -0.19653,0.0201 -0.21352,-0.0478 -0.0304,-0.007 -0.0374,0.0237 -0.12921,0.29122 -0.007,0.0305 0.0506,0.20346 0.0404,0.10516 0.0779,0.0814 0.11515,0.0578 0.0236,0.0374 -0.004,0.44733 -0.007,0.0305 -0.007,0.0306 -0.0136,0.0609 -0.007,0.0306 -0.007,0.0305 -0.0441,0.0541 -0.0647,0.1457 -0.16333,0.44374 -0.0441,0.0543 -0.0611,-0.0137 -0.0441,0.0541 -0.0305,-0.007 -0.11517,-0.0577 -0.28816,-4.3e-4 -0.0305,-0.007 -0.0305,-0.007 -0.0373,0.0237 -0.007,0.0304 -0.051,0.0847 0.13522,0.25437 0.003,0.12879 0.006,0.25764 0.003,0.1288 0.0305,0.007 0.0237,0.0374 0.0305,0.007 0.0541,0.0441 0.0306,0.007 0.0914,0.0205 0.0915,0.0205 -0.007,0.0304 0.0305,0.007 -0.0172,0.22035 -0.007,0.0304 0.0237,0.0374 -0.007,0.0305 0.0305,0.007 0.0305,0.007 0.0305,0.007 0.0306,0.007 0.0304,0.007 0.0678,-0.0169 0.0983,-0.0101 0.0779,0.0816 0.0305,0.007 0.0237,0.0373 0.061,0.0136 0.0405,0.10518 0.0237,0.0373 0.0305,0.007 0.0236,0.0373 0.0915,0.0205 0.0542,0.0442 0.006,0.25762 -0.0273,0.12198 0.0473,0.0746 -0.007,0.0305 0.20301,0.23766 0.18297,0.0409 0.14206,0.22382 0.15253,0.0341 0.0236,0.0374 0.0305,0.007 0.0237,0.0374 -0.004,0.15927 0.0472,0.0746 0.0474,0.0747 0.01,0.0984 0.0168,0.0677 0.0237,0.0374 0.0169,0.0678 0.0305,0.007 0.0779,0.0815 -0.0136,0.061 -0.051,0.0847 0.0237,0.0373 -0.007,0.0305 0.0472,0.0747 -0.007,0.0304 0.0543,0.0441 -0.007,0.0305 0.10834,0.0883 0.0609,0.0136 0.0237,0.0373 -0.0104,0.18991 0.0811,0.21017 0.071,0.112 0.0542,0.0441 -0.0137,0.0611 -0.007,0.0304 -0.007,0.0305 0.0236,0.0374 0.0237,0.0374 0.061,0.0136 0.0747,-0.0474 0.0305,0.007 0.007,-0.0305 0.0304,0.007 0.0542,0.0441 0.0846,0.051 0.22716,-0.0132 0.061,0.0136 -0.007,0.0304 0.0473,0.0747 -0.004,0.15924 0.0169,0.0678 0.0169,0.0678 0.0305,0.007 0.0305,0.007 0.0679,-0.0168 0.13565,-0.0338 0.007,-0.0305 0.0305,0.007 0.0236,0.0373 0.0611,0.0137 0.0304,0.007 -0.007,0.0306 0.0305,0.007 0.0101,0.0983 -0.0205,0.0915 -0.11873,0.10152 -0.22717,0.0132 -0.0746,0.0473 -0.007,0.0304 -0.0273,0.12199 0.0169,0.0679 0.12198,0.0273 0.12199,0.0273 0.0236,0.0373 -0.007,0.0304 -0.0577,0.11517 -0.1325,0.16259 -0.112,0.071 -0.0677,0.0169 -0.15253,-0.0341 -0.0374,0.0236 -0.0205,0.0915 0.0305,0.007 0.0542,0.0441 -0.007,0.0304 0.0304,0.007 0.0611,0.0137 0.0305,0.007 -0.007,0.0305 -0.007,0.0306 -0.0373,0.0236 -0.15253,-0.0341 -0.0678,0.0168 -0.0441,0.0543 0.0236,0.0373 -0.007,0.0304 0.071,0.11201 0.0541,0.0441 0.2576,-0.006 0.0847,0.0509 -0.007,0.0304 -0.15612,0.12523 -0.0136,0.061 0.0304,0.007 0.14572,0.0646 0.0306,0.007 0.0541,0.0442 0.0237,0.0374 0.0237,0.0373 0.0168,0.0678 -0.007,0.0305 -0.007,0.0304 -0.0136,0.061 -0.007,0.0306 -0.007,0.0305 0.0236,0.0372 0.0543,0.0442 0.007,-0.0306 0.0745,-0.0473 0.007,-0.0305 0.007,-0.0305 -0.02,-0.19651 0.0205,-0.0915 0.0677,-0.0168 0.0306,0.007 0.0305,0.007 -0.007,0.0304 0.0305,0.007 0.0168,0.0678 -0.007,0.0305 0.0611,0.0137 0.0609,0.0136 0.0305,0.007 0.0306,0.007 0.0304,0.007 0.0474,0.0745 0.0305,0.007 -0.007,0.0306 0.19978,0.10874 0.0237,0.0373 0.0236,0.0374 0.0305,0.007 -0.007,0.0306 0.0406,0.10511 0.0472,0.0746 0.0543,0.0441 0.14559,0.0646 0.0305,0.007 0.0169,0.0678 0.0237,0.0373 -0.0105,0.18989 0.0236,0.0373 -0.007,0.0304 -0.007,0.0306 0.0237,0.0374 0.0237,0.0373 0.0609,0.0136 0.0915,0.0205 0.061,0.0136 -0.0442,0.0542 -0.007,0.0305 -0.26443,0.0369 -0.0304,-0.007 -0.0373,0.0237 -0.007,0.0304 0.0236,0.0373 0.0236,0.0374 0.14569,0.0647 0.0305,0.007 -0.007,0.0304 -0.007,0.0304 -0.007,0.0306 -0.0815,0.0778 -0.0137,0.0611 -0.0373,0.0236 -0.007,0.0305 0.0305,0.007 0.0305,0.007 0.0306,0.007 0.0609,0.0136 0.0306,0.007 0.0305,0.007 -0.007,0.0306 0.0168,0.0678 -0.007,0.0304 0.0305,0.007 0.0169,0.0679 0.0237,0.0373 -0.007,0.0304 0.0609,0.0136 -0.007,0.0305 0.0237,0.0374 0.11517,0.0577 -0.007,0.0305 0.0132,0.22717 -0.0546,0.24397 -0.0136,0.061 0.0847,0.051 0.0305,0.007 0.007,-0.0306 0.0373,-0.0237 0.0374,-0.0236 0.10193,-0.16933 0.0373,-0.0237 0.0543,0.0442 0.0947,0.14928 0.0305,0.007 0.0168,0.0678 -0.007,0.0304 0.0338,0.13566 0.0305,0.007 0.12198,0.0273 0.0542,0.0442 0.0237,0.0374 0.0236,0.0373 -0.007,0.0304 0.0542,0.0442 0.0305,0.007 0.12199,0.0273 0.0304,0.007 0.0236,0.0374 0.0475,0.0746 0.0305,0.007 0.0473,0.0747 0.18298,0.0409 0.0337,0.13563 -0.0136,0.0609 -0.0137,0.0611 0.0237,0.0373 0.0305,0.007 0.0305,0.007 0.0611,0.0137 0.0745,-0.0474 0.0984,-0.0101 0.0236,0.0374 0.0237,0.0374 -0.007,0.0305 -0.18664,0.1183 -0.0441,0.0543 -0.007,0.0304 0.0473,0.0746 0.061,0.0137 0.0305,0.007 0.21037,-0.081 0.0983,-0.0101 0.0305,0.007 0.0236,0.0374 0.0236,0.0374 -0.007,0.0305 -0.0677,0.0168 -0.10521,0.0406 -0.007,0.0304 -0.0509,0.0847 -0.0205,0.0914 -0.007,0.0306 -0.0374,0.0236 -0.10508,0.0405 -0.12567,0.13205 0.0168,0.0677 0.12524,0.15611 0.15253,0.0341 0.0236,0.0374 0.0305,0.007 -0.004,0.15936 0.0269,0.16608 0.10833,0.0883 0.0236,0.0374 0.0101,0.0983 -0.007,0.0306 -0.007,0.0304 0.0778,0.0815 -0.007,0.0305 0.0543,0.0441 0.0373,-0.0236 0.061,0.0137 0.0474,0.0745 0.0542,0.0442 -0.007,0.0306 -0.007,0.0304 -0.007,0.0305 -0.11192,0.0711 -0.0205,0.0915 0.0168,0.0677 0.10831,0.0884 -0.007,0.0304 0.0305,0.007 -0.0137,0.061 -0.16293,0.15568 -0.007,0.0304 -0.007,0.0305 -0.007,0.0306 0.0611,0.0137 0.11192,-0.0711 0.0374,-0.0236 0.0236,0.0373 0.01,0.0983 -0.007,0.0304 -0.0137,0.061 0.0543,0.0442 0.0914,0.0205 0.0442,-0.0543 0.0341,-0.15243 0.0305,0.007 0.0305,0.007 0.0474,0.0747 0.0473,0.0746 0.0474,0.0747 0.071,0.1119 0.0914,0.0205 0.13886,0.0952 0.0846,0.0509 0.0305,0.007 0.061,0.0136 0.0305,0.007 0.007,-0.0305 0.0679,-0.0169 0.11189,-0.071 0.0678,-0.0169 0.0305,0.007 0.30137,0.2276 0.0236,0.0373 -0.004,0.15926 0.0237,0.0374 0.11515,0.0578 0.0541,0.0441 -0.007,0.0304 -0.0646,0.14572 -0.007,0.0305 0.11832,0.18654 -0.0441,0.0542 0.061,0.0136 0.0914,0.0205 0.10518,-0.0405 0.0305,0.007 0.007,-0.0304 0.0374,-0.0237 0.0305,0.007 0.17605,0.0715 0.1052,-0.0406 0.007,-0.0304 0.0136,-0.061 -0.02,-0.19662 0.0136,-0.061 -0.0542,-0.0442 -0.0474,-0.0745 0.007,-0.0305 0.0883,-0.10834 0.0373,-0.0237 0.0611,0.0137 0.12879,-0.003 0.0609,0.0136 -0.007,0.0304 -0.007,0.0305 -0.0137,0.061 -0.0136,0.061 -0.007,0.0305 0.0101,0.0983 0.0778,0.0814 0.0237,0.0373 -0.007,0.0305 -0.0374,0.0237 -0.007,0.0304 -0.0677,0.0168 -0.0748,0.0474 -0.0373,0.0236 -0.007,0.0304 -0.007,0.0305 -0.007,0.0305 0.0236,0.0373 0.0237,0.0373 0.0305,0.007 0.0236,0.0374 0.0236,0.0374 0.0306,0.007 0.0374,-0.0237 0.0373,-0.0237 0.0746,-0.0473 0.0374,-0.0237 0.0541,0.0442 -0.007,0.0304 -0.007,0.0304 -0.0577,0.11517 -0.007,0.0305 -0.007,0.0305 -0.0136,0.0609 0.0236,0.0374 0.0915,0.0205 0.10518,-0.0405 0.0609,0.0136 0.0101,0.0984 -0.024,0.2508 0.01,0.0983 0.17614,0.0715 0.0442,-0.0542 0.11189,-0.071 0.21343,0.0478 0.0542,0.0442 -0.007,0.0304 0.071,0.112 0.0101,0.0983 0.003,0.1288 0.0304,0.007 -0.007,0.0305 0.0237,0.0373 -0.051,0.0847 -0.0373,0.0236 -0.0373,0.0236 -0.28818,-3.4e-4 -0.007,0.0304 -0.0305,-0.007 -0.0137,0.061 -0.007,0.0305 0.0237,0.0373 0.14571,0.0646 0.0846,0.051 -0.007,0.0305 -0.0205,0.0914 0.0101,0.0983 0.0236,0.0374 0.0305,0.007 0.0915,0.0205 0.0304,0.007 0.0611,0.0137 0.0373,-0.0237 0.0273,-0.12198 0.0814,-0.0778 0.19662,-0.02 0.0304,0.007 0.0679,-0.0168 0.0236,0.0373 0.0236,0.0373 -0.0746,0.0475 -0.007,0.0304 -0.007,0.0305 0.0305,0.007 -0.007,0.0306 0.0305,0.007 0.0984,-0.0101 0.21027,-0.0811 0.0914,0.0205 0.0679,-0.0168 0.0609,0.0136 0.0984,-0.01 0.0304,0.007 0.19622,0.26801 -0.007,0.0305 0.0305,0.007 -0.007,0.0304 -0.007,0.0304 0.0237,0.0374 -0.0442,0.0542 -0.007,0.0304 0.0237,0.0374 0.0236,0.0374 0.0373,-0.0237 0.0984,-0.0101 0.061,0.0136 0.12198,0.0273 0.0237,0.0374 -0.004,0.15934 0.0305,0.007 0.0374,-0.0237 0.0305,0.007 0.0205,-0.0914 0.0137,-0.0611 0.007,-0.0304 -0.0574,-0.17292 -0.01,-0.0983 0.007,-0.0305 0.007,-0.0306 0.0373,-0.0237 0.0915,0.0205 0.0304,0.007 0.003,0.12879 0.19304,0.13931 0.0678,-0.0168 0.11193,-0.0711 0.0611,0.0137 0.0168,0.0678 0.0405,0.10509 0.0237,0.0374 0.12882,-0.003 0.0304,0.007 0.15975,-0.28438 0.0609,0.0136 0.0101,0.0983 0.0542,0.0442 0.0373,-0.0237 0.0884,-0.10831 0.0305,0.007 0.12199,0.0273 0.0373,-0.0237 0.0884,-0.10831 0.1288,-0.003 0.0304,0.007 0.10834,0.0883 -0.0136,0.061 -0.0815,0.0779 -0.0205,0.0914 0.0542,0.0442 0.17291,-0.0574 0.0611,0.0137 -0.007,0.0304 0.01,0.0984 -0.0136,0.061 0.0915,0.0205 0.15611,-0.12524 0.0609,0.0136 -0.007,0.0305 -0.0814,0.0778 -0.0137,0.0611 0.0236,0.0373 0.0779,0.0815 -0.0137,0.061 -0.0442,0.0542 0.0405,0.10508 0.0542,0.0442 0.0746,-0.0473 0.0373,-0.0236 0.0952,-0.13886 0.13198,0.12555 -0.0137,0.0611 -0.007,0.0305 -0.0915,-0.0205 -0.21017,0.0811 -0.0374,0.0236 -0.0442,0.0543 0.0101,0.0983 -0.0374,0.0237 -0.0914,-0.0205 -0.0374,0.0236 -0.0373,0.0236 -0.0373,0.0237 0.003,0.1288 0.0541,0.0442 -0.0136,0.0609 -0.0305,-0.007 -0.0677,0.0169 -0.18307,-0.041 -0.11873,0.10152 -0.15611,0.12524 -0.0306,-0.007 -0.0305,-0.007 -0.12198,-0.0273 -0.10516,0.0404 -0.0746,0.0475 -0.0715,0.17605 0.02,0.19672 0.0674,0.27126 0.10152,0.11873 -0.007,0.0305 0.0304,0.007 0.0306,0.007 0.0374,-0.0237 0.0745,-0.0474 0.0983,-0.01 0.15568,0.16292 -0.007,0.0305 0.0709,0.112 0.0306,0.007 0.13565,-0.0338 0.0914,0.0205 0.0306,0.007 0.0914,0.0205 0.0574,0.17301 0.0984,-0.0101 0.0305,0.007 0.0373,-0.0236 0.0779,0.0815 -0.007,0.0305 -0.0341,0.15243 -0.0815,0.0779 0.10477,0.24755 0.0642,0.14245 0.061,0.0136 0.16933,0.10194 -0.0205,0.0915 -0.0374,0.0236 -0.0305,-0.007 -0.0746,0.0474 -0.0273,0.12198 0.0778,0.0815 -0.007,0.0305 -0.0205,0.0915 -0.095,0.1388 -0.0851,0.23714 0.0169,0.0679 0.0609,0.0136 0.0101,0.0983 -0.007,0.0305 0.0573,0.17289 0.0779,0.0815 -0.0205,0.0914 0.0168,0.0679 0.0237,0.0373 0.0914,0.0205 0.0237,0.0373 0.0237,0.0374 0.071,0.1119 0.0914,0.0205 0.0305,0.007 0.0641,0.14245 0.0237,0.0374 0.0305,0.007 0.0373,-0.0237 0.0236,0.0374 0.0611,0.0137 0.0236,0.0374 0.0574,0.17291 0.0168,0.0678 0.0305,0.007 0.0237,0.0374 0.13565,-0.0338 -0.007,0.0306 0.0678,-0.0169 0.0984,-0.01 0.007,-0.0304 0.0305,0.007 0.01,0.0983 0.10152,0.11874 0.0237,0.0374 0.0473,0.0746 0.0678,-0.0168 0.15568,0.16293 0.0236,0.0373 -0.10509,0.0405 -0.051,0.0846 0.0305,0.007 -0.007,0.0305 0.0778,0.0814 0.0611,0.0137 0.0745,-0.0474 0.0305,0.007 0.0269,0.16618 -0.0305,-0.007 -0.007,0.0305 0.0336,0.13561 -0.0205,0.0915 0.01,0.0982 -0.007,0.0305 0.0849,0.051 0.0615,0.0138 0.0986,-0.01 0.0302,0.007 0.0742,-0.0476 0.0234,0.0373 0.0605,0.0135 0.0303,0.007 -0.007,0.0306 -0.007,0.0305 -0.007,0.0304 0.21352,0.0478 0.0605,0.0135 0.0605,0.0135 0.0371,-0.0237 0.10538,-0.0405 0.0439,-0.0542 0.0302,0.007 0.0371,-0.0237 0.0439,-0.0543 0.0673,-0.0169 0.21342,0.0478 -0.007,0.0305 -0.007,0.0305 0.0234,0.0373 0.081,-0.078 0.0302,0.007 0.0917,0.0205 0.0303,0.007 0.0781,0.0815 -0.0137,0.061 0.0537,0.044 0.0537,0.0441 0.15927,0.004 0.0683,-0.0167 0.0302,0.007 0.0371,-0.0237 0.0302,0.007 0.0537,0.044 -0.0136,0.061 0.0234,0.0373 -0.007,0.0304 0.0547,0.0442 0.0537,0.0441 0.0234,0.0373 0.0303,0.007 0.0605,0.0135 0.0234,0.0372 0.0166,0.0678 0.0166,0.0678 0.0469,0.0745 0.0303,0.007 0.0234,0.0373 -0.0712,0.17611 0.0166,0.0679 -0.0371,0.0237 0.0166,0.0678 0.0781,0.0815 0.0234,0.0372 0.1288,-0.003 0.10538,-0.0405 0.0371,-0.0238 0.0303,0.007 0.0683,-0.0167 0.0781,0.0815 0.0713,0.11196 -0.004,0.1593 0.37919,0.30895 0.1015,0.11883 0.18979,0.0105 0.0537,0.044 -0.004,0.1592 0.0478,0.0749 0.0917,0.0205 -0.007,0.0305 0.38643,-0.01 0.55259,-0.0364 0.45414,-0.0265 0.71194,-0.0328 0.48469,-0.0196 0.0302,0.007 0.0302,0.007 0.0439,-0.0542 0.0302,0.007 0.0303,0.007 0.0673,-0.0169 0.0644,-0.14576 0.10826,-0.19988 0.0371,-0.0238 0.23398,-0.0437 0.14246,-0.0643 0.14247,-0.0642 0.25444,-0.1351 0.0439,-0.0543 0.0273,-0.12199 0.004,-0.1592 0.0205,-0.0915 0.0136,-0.0609 0.0205,-0.0915 0.0371,-0.0237 0.0507,-0.0848 0.0302,0.007 0.0166,0.0678 0.0537,0.0441 0.0849,0.051 0.18979,0.0105 0.0673,-0.017 0.0878,-0.10844 0.14245,-0.0641 0.1054,-0.0406 0.0683,-0.0167 0.0507,-0.0848 0.007,-0.0304 -0.0166,-0.0678 0.0371,-0.0238 0.0985,-0.01 0.11221,-0.071 0.0371,-0.0237 0.33215,-0.0538 0.11517,0.0577 0.24082,-0.0742 0.13948,-0.19289 0.0273,-0.12199 0.007,-0.0305 0.007,-0.0304 0.12873,-0.29142 -0.0234,-0.0373 0.0507,-0.0847 0.10538,-0.0405 0.0136,-0.061 0.007,-0.0306 -0.0469,-0.0744 0.0137,-0.0611 0.10142,-0.16934 0.14928,-0.0947 0.0302,0.007 0.0234,0.0372 0.0302,0.007 0.0605,0.0135 0.0683,-0.0167 0.0986,-0.01 0.007,-0.0305 0.0575,-0.11522 0.081,-0.0779 -0.0166,-0.0678 -0.0234,-0.0372 -0.0234,-0.0373 0.0371,-0.0238 0.0136,-0.0609 0.0371,-0.0238 0.0742,-0.0475 0.61591,0.68215 0.0302,0.007 0.32814,0.39375 0.0234,0.0372 0.0547,0.0442 0.54166,0.44152 0.13197,0.12555 0.0303,0.007 0.0234,0.0373 0.21668,0.17657 0.18613,0.16974 0.16261,0.1324 0.0234,0.0373 0.27085,0.22066 0.0781,0.0815 0.19307,0.13921 0.18622,0.16976 0.14245,-0.0641 0.29172,-0.15884 0.0371,-0.0238 0.34265,-0.24356 0.0751,-0.0472 0.11902,-0.10146 0.0371,-0.0238 0.0302,0.007 0.0371,-0.0237 0.14928,-0.0947 0.0371,-0.0237 0.1662,-0.027 0.007,-0.0304 0.37635,-0.10793 0.42054,-0.16208 0.27809,-0.0979 0.37633,-0.10783 0.234,-0.0438 0.63406,-0.11431 0.0985,-0.01 0.33226,-0.0538 0.34592,-0.11483 0.30181,-0.0606 0.16605,-0.0268 0.11222,-0.071 0.36951,-0.0774 0.0166,0.0677 -0.0575,0.11521 0.0166,0.0679 0.0234,0.0372 0.12199,0.0273 0.19662,-0.0201 0.40689,-0.1011 0.22392,-0.14203 0.14244,-0.0642 0.0986,-0.01 0.17289,-0.0573 0.41057,-0.26043 0.0302,0.007 0.44468,-0.41287 0.25112,-0.26404 0.0751,-0.0472 0.35945,-0.17575 -0.14194,-0.22389 -0.24363,-0.34277 -0.0234,-0.0372 -0.0234,-0.0372 -0.17939,-0.2003 -0.14204,-0.22392 0.42138,-0.7383 0.0371,-0.0238 -0.0479,-0.0747 -0.01,-0.0983 -0.0166,-0.0678 0.0644,-0.14575 0.0878,-0.10845 0.0302,0.007 0.0234,0.0373 0.0917,0.0205 0.0302,0.007 0.10834,0.0883 0.0371,-0.0237 0.0751,-0.0473 0.0986,-0.01 0.0234,0.0372 0.10151,0.11883 0.24031,0.21384 0.19303,0.13931 0.0849,0.051 0.0537,0.0441 -0.0205,0.0914 -0.007,0.0306 0.0166,0.0678 0.0917,0.0205 0.0537,0.044 0.0302,0.007 0.0985,-0.01 0.0985,-0.01 0.12198,0.0273 0.0166,0.0677 -0.0137,0.0611 0.0537,0.044 0.13195,0.12565 0.14531,0.35263 0.21027,-0.081 0.26117,-0.16567 0.0615,0.0138 0.17289,-0.0573 0.14247,-0.0643 0.18654,-0.11832 0.0302,0.007 0.0673,-0.017 0.0371,-0.0238 0.0371,-0.0237 0.0371,-0.0237 0.0302,0.007 0.007,-0.0305 0.0673,-0.017 0.10535,-0.0404 0.0752,-0.0473 0.007,-0.0304 0.22381,-0.14206 0.14245,-0.0641 0.44783,-0.28406 0.17982,-0.0879 0.081,-0.078 0.17291,-0.0574 0.19345,-0.14875 -0.0234,-0.0373 0.007,-0.0306 0.0751,-0.0471 0.0371,-0.0238 0.13563,-0.0337 0.0985,-0.01 0.0137,-0.0611 0.11903,-0.10146 0.35954,-0.17573 0.19335,-0.14877 0.0439,-0.0543 0.0878,-0.10845 0.44784,-0.28407 0.081,-0.0779 0.2171,-0.11159 0.16606,-0.0268 0.12882,-0.003 0.14244,-0.0641 0.0986,-0.01 0.12882,-0.003 0.17289,-0.0573 0.0371,-0.0238 0.0439,-0.0541 0.42603,0.67163 -0.0751,0.33551 -0.007,0.0305 0.0303,0.29503 0.44018,0.3226 0.24081,-0.0742 0.16974,-0.18613 0.13563,-0.0337 0.18654,-0.11833 0.40051,-0.3588 0.47837,-0.27724 0.081,-0.0779 0.40374,-0.22989 0.0673,-0.0169 0.14247,-0.0642 0.081,-0.078 0.11903,-0.10146 -0.0644,-0.14251 0.49516,-0.20933 0.26445,-0.0369 0.11221,-0.071 0.14928,-0.0947 0.13561,-0.0336 0.11221,-0.071 0.007,-0.0305 0.21711,-0.11159 0.35357,-0.7215 -0.17616,-0.0714 -0.40364,0.22991 -0.46064,-0.23116 0.0575,-0.11521 0.0673,-0.017 0.0673,-0.0169 0.14927,-0.0947 0.0439,-0.0542 -0.33813,-0.49201 0.33582,-0.21301 0.3969,-0.19935 0.26801,-0.19621 0.14247,-0.0642 0.0742,-0.0475 0.0439,-0.0542 0.0683,-0.0167 0.1054,-0.0406 0.11219,-0.0709 0.16974,-0.18613 0.22404,-0.14211 0.33266,-0.34181 0.0575,-0.11521 0.0575,-0.11522 -0.0302,-0.007 -0.0234,-0.0372 -0.36237,-0.24125 -0.0303,-0.007 -0.32857,-0.10559 -0.20661,-0.0782 -0.0234,-0.0372 -0.0605,-0.0135 -0.0468,-0.0746 -0.20986,-0.20702 -0.30728,-0.77325 -0.081,-0.21027 0.0439,-0.0542 0.17289,-0.0573 0.27179,-0.35553 0.0507,-0.0847 0.14632,-0.22344 0.17291,-0.0574 0.0946,-0.1389 0.007,-0.0305 0.0205,-0.0914 -0.20659,-0.0783 -0.0342,-0.13574 0.11602,-0.51848 0.0302,0.007 0.0303,0.007 0.0673,-0.0169 0.0371,-0.0237 -0.003,-0.12875 -0.0234,-0.0373 0.0946,-0.13899 0.10535,-0.0404 0.20031,-0.1794 0.0507,-0.0848 0.0605,0.0135 0.007,-0.0304 0.12198,0.0273 0.0849,0.051 0.0302,0.007 0.0371,-0.0237 -0.003,-0.12875 -0.0849,-0.051 -0.0303,-0.007 -0.1015,-0.11883 -0.0713,-0.11206 -0.0303,-0.007 0.0136,-0.0609 0.0273,-0.12198 0.19706,-0.30821 0.0303,0.007 0.0371,-0.0237 0.11222,-0.071 0.0878,-0.10845 0.0136,-0.061 0.0712,-0.1762 0.0371,-0.0237 0.007,-0.0306 0.0371,-0.0238 0.0439,-0.0541 0.0507,-0.0848 0.082,-0.0778 0.11219,-0.0709 0.0986,-0.01 0.0439,-0.0541 -0.0879,-0.17982 -0.003,-0.12875 0.0439,-0.0542 0.10538,-0.0405 0.007,-0.0306 0.0956,-0.13867 0.0137,-0.061 0.0644,-0.14576 0.14632,-0.22344 0.16973,-0.18613 0.0439,-0.0542 0.081,-0.078 0.0303,0.007 0.0234,0.0373 0.0781,0.0815 0.23747,-0.20304 0.0137,-0.061 0.0136,-0.061 0.0371,-0.0237 0.11902,-0.10145 0.0547,0.0442 0.0742,-0.0475 0.0205,-0.0914 -0.0605,-0.0135 0.0137,-0.0611 0.0439,-0.0541 0.21386,-0.2404 0.0956,-0.13878 0.15244,0.0341 0.20386,-0.33866 0.13265,-0.16235 0.11903,-0.10146 0.0205,-0.0915 0.19347,-0.14885 0.0371,-0.0238 0.11219,-0.0709 0.0371,-0.0238 0.0371,-0.0237 0.0956,-0.13867 0.0673,-0.017 0.25812,-0.29444 0.27485,-0.22676 0.2444,-0.23357 0.007,-0.0304 0.007,-0.0305 0.0137,-0.0611 0.0741,-0.0474 0.14246,-0.0642 0.0507,-0.0848 0.0644,-0.14566 0.0136,-0.061 0.0136,-0.061 0.0205,-0.0915 0.0946,-0.1389 0.0673,-0.0169 0.0507,-0.0848 -0.0234,-0.0372 0.007,-0.0305 0.11509,-0.23043 0.0439,-0.0542 0.0302,0.007 0.0371,-0.0237 0.0205,-0.0915 0.0507,-0.0848 -0.0469,-0.0744 0.007,-0.0306 0.0575,-0.11521 0.0575,-0.11522 0.16284,-0.44385 0.004,-0.1593 0.13555,-0.32187 0.007,-0.0305 0.1122,-0.0709 0.14632,-0.22344 0.081,-0.078 0.0751,-0.0472 0.007,-0.0306 0.0136,-0.0609 0.0742,-0.0476 0.0575,-0.11522 0.0439,-0.0541 -0.0849,-0.0511 -0.0917,-0.0205 -0.0917,-0.0205 -0.0234,-0.0373 -0.0674,-0.27126 -0.0234,-0.0372 0.007,-0.0304 -0.01,-0.0983 -0.041,-0.10529 0.0507,-0.0847 0.19663,-0.0201 0.0946,-0.13889 -0.003,-0.12876 0.0712,-0.1763 0.0673,-0.0169 0.0878,-0.10845 0.0819,-0.36595 -0.0303,-0.007 -0.0302,-0.007 -0.0166,-0.0678 -0.0234,-0.0373 0.0507,-0.0847 0.0136,-0.061 -0.11517,-0.0577 0.007,-0.0306 0.081,-0.0779 0.0371,-0.0238 -0.0166,-0.0678 0.0439,-0.0542 0.0917,0.0205 0.10538,-0.0405 0.15609,-0.12514 0.1327,-0.16255 0.0204,-0.0914 0.007,-0.0306 0.007,-0.0305 0.0507,-0.0848 0.0303,0.007 0.0371,-0.0237 0.0302,0.007 0.11222,-0.071 0.33947,-0.37225 0.14632,-0.22345 0.14247,-0.0642 0.0712,-0.17621 0.0439,-0.0542 0.0605,0.0135 0.0986,-0.01 0.0673,-0.017 0.007,-0.0305 0.0136,-0.0609 0.0137,-0.0611 0.0439,-0.0541 0.13565,-0.0338 0.0849,0.0511 0.0303,0.007 0.0673,-0.017 0.0507,-0.0847 -0.0234,-0.0373 -0.0166,-0.0677 0.0507,-0.0848 0.0439,-0.0542 0.12198,0.0273 0.1122,-0.0709 0.0575,-0.11522 0.0302,0.007 0.17292,-0.0574 0.007,-0.0304 0.0273,-0.12198 -0.0439,-0.23405 -0.13511,-0.25444 -0.0547,-0.0442 -0.0371,0.0237 -0.0605,-0.0135 0.007,-0.0305 -0.04,-0.10507 0.0136,-0.0609 -0.10831,-0.0884 -0.0469,-0.0744 0.0137,-0.0611 0.0136,-0.0609 0.007,-0.0306 0.0878,-0.10845 0.11902,-0.10145 0.0136,-0.061 0.0273,-0.12198 0.0303,0.007 0.20021,-0.17941 0.007,-0.0304 0.16618,-0.0269 0.11902,-0.10145 0.0712,-0.17621 0.0614,-0.27442 -0.0166,-0.0679 0.0819,-0.0777 0.13563,-0.0337 0.0605,0.0135 0.23715,0.085 0.0985,-0.01 0.11221,-0.071 0.0507,-0.0847 0.0439,-0.0542 0.0303,0.007 0.0371,-0.0237 0.0371,-0.0238 0.007,-0.0306 -0.0166,-0.0677 -0.003,-0.12875 -0.0302,-0.007 -0.0605,-0.0135 -0.0234,-0.0373 0.0273,-0.12199 0.0205,-0.0914 0.0712,-0.1763 0.081,-0.0779 0.0341,-0.15253 0.0439,-0.0541 0.0273,-0.12198 0.0507,-0.0848 0.0371,-0.0237 0.0946,-0.13899 -0.0166,-0.0678 0.0507,-0.0848 0.3905,-0.45696 -0.0234,-0.0372 -0.0234,-0.0373 -0.0166,-0.0678 0.0205,-0.0915 0.0205,-0.0914 -0.0469,-0.0745 0.0575,-0.11522 0.0371,-0.0237 -0.0264,-0.16607 0.007,-0.0306 -0.0234,-0.0372 -0.0332,-0.13552 -0.0547,-0.0442 -0.04,-0.10507 -0.0917,-0.0205 -0.01,-0.0983 0.0136,-0.0609 0.081,-0.078 0.0303,0.007 0.0205,-0.0915 -0.0605,-0.0135 -0.0166,-0.0677 -0.041,-0.1053 0.0712,-0.1762 0.0439,-0.0542 0.0371,-0.0237 0.0605,0.0135 0.12586,-0.132 0.0205,-0.0914 -0.01,-0.0983 0.0507,-0.0848 0.12879,-0.003 -0.007,0.0304 0.0302,0.007 0.0537,0.0441 0.0205,-0.0914 0.007,-0.0305 0.0371,-0.0238 0.0371,-0.0237 0.0673,-0.0169 0.007,-0.0306 -0.01,-0.0982 -0.0947,-0.14927 -0.0781,-0.0816 -0.0302,-0.007 -0.0234,-0.0372 0.0946,-0.1389 0.0273,-0.12198 -0.0644,-0.14251 0.004,-0.1593 0.1053,-0.32863 0.0302,0.007 0.081,-0.078 -0.04,-0.10508 0.0341,-0.15243 0.0371,-0.0237 0.0507,-0.0848 0.13262,-0.45071 0.29139,0.12934 z"
       id="WV-03"
       style="font-style:normal;font-weight:400;font-size:34.375px;font-family:'MS Shell Dlg 2';opacity:1;fill:none;fill-opacity:1;fill-rule:evenodd;stroke:#000000;stroke-width:0.333;stroke-linecap:square;stroke-linejoin:bevel;stroke-miterlimit:4;stroke-dasharray:none;stroke-opacity:1" />
  </g>
</svg>
