<?xml version="1.0" encoding="UTF-8" standalone="no"?>
<!-- Created with Inkscape (http://www.inkscape.org/) -->

<svg
   xmlns:dc="http://purl.org/dc/elements/1.1/"
   xmlns:cc="http://creativecommons.org/ns#"
   xmlns:rdf="http://www.w3.org/1999/02/22-rdf-syntax-ns#"
   xmlns:svg="http://www.w3.org/2000/svg"
   xmlns="http://www.w3.org/2000/svg"
   xmlns:sodipodi="http://sodipodi.sourceforge.net/DTD/sodipodi-0.dtd"
   xmlns:inkscape="http://www.inkscape.org/namespaces/inkscape"
   width="11.378195mm"
   height="10.762179mm"
   viewBox="0 0 40.316437 38.133708"
   id="svg3885"
   version="1.1"
   inkscape:version="0.91 r"
   sodipodi:docname="11.svg">
  <defs
     id="defs3887" />
  <sodipodi:namedview
     id="base"
     pagecolor="#ffffff"
     bordercolor="#666666"
     borderopacity="1.0"
     inkscape:pageopacity="0.0"
     inkscape:pageshadow="2"
     inkscape:zoom="6.4033046"
     inkscape:cx="30.244696"
     inkscape:cy="-17.732358"
     inkscape:document-units="px"
     inkscape:current-layer="layer1"
     showgrid="false"
     inkscape:window-width="2560"
     inkscape:window-height="1388"
     inkscape:window-x="0"
     inkscape:window-y="0"
     inkscape:window-maximized="1"
     fit-margin-top="3"
     fit-margin-left="3"
     fit-margin-right="3"
     fit-margin-bottom="3" />
  <metadata
     id="metadata3890">
    <rdf:RDF>
      <cc:Work
         rdf:about="">
        <dc:format>image/svg+xml</dc:format>
        <dc:type
           rdf:resource="http://purl.org/dc/dcmitype/StillImage" />
        <dc:title></dc:title>
      </cc:Work>
    </rdf:RDF>
  </metadata>
  <g
     inkscape:label="Layer 1"
     inkscape:groupmode="layer"
     id="layer1"
     transform="translate(-163.26079,-350.56406)">
    <path
       inkscape:connector-curvature="0"
       d="m 266.53603,418.26033 c -0.21197,0.0828 -0.41733,0.16845 -0.62363,0.26077 -0.58475,0.26154 -1.12226,0.58819 -1.52011,1.10526 -0.30628,0.43892 -0.49715,0.95447 -0.75826,1.44436 -0.26115,0.48989 -0.57714,0.93843 -1.09064,1.18875 -0.22641,0.11083 -0.4617,0.0614 -0.656,-0.0645 -0.19448,-0.12529 -0.37069,-0.33029 -0.53599,-0.51811 -0.16543,-0.1877 -0.31655,-0.36202 -0.45594,-0.43874 -0.13948,-0.0767 -0.26254,-0.0593 -0.37914,0.1491 l -0.11175,0.90151 -8.14332,2.58743 c -0.17837,0.18384 -0.15176,0.39806 -0.027,0.63145 0.12464,0.23346 0.35343,0.48819 0.55562,0.74468 0.20218,0.25659 0.3726,0.49856 0.42692,0.7516 0.0543,0.25298 -0.0149,0.50817 -0.3331,0.73115 -0.48555,0.16408 -0.9695,0.37408 -1.39995,0.65104 -0.43046,0.27695 -0.80463,0.62027 -1.09744,1.06008 -0.42999,0.65244 -0.66645,1.40668 -0.9261,2.14386 -0.25966,0.73731 -0.54954,1.45783 -1.09823,2.04687 -0.42325,0.35619 -0.86157,1.42569 -1.02758,1.51935 -0.28245,-0.30267 -0.83995,-0.69279 -1.3651,-0.83839 -0.26258,-0.0727 -0.52694,-0.0644 -0.73532,0.0163 -0.20834,0.0803 -0.34854,0.24491 -0.426,0.5539 -0.0557,0.22357 -0.11715,0.44494 -0.19208,0.66314 -0.076,0.218 0.0938,0.33648 0.0938,0.33648 l -1.04216,-0.0434 0.18796,8.69563 -0.60665,0.009 c -0.90482,-1.02781 -1.76368,-1.82075 -2.57519,-2.47432 -0.81149,-0.65355 -1.59245,-1.1451 -2.30076,-1.59327 -1.41668,-0.89639 -2.61269,-1.57598 -3.55681,-2.66513 l -0.56404,-0.0465 0.0427,1.0907 -2.69007,0.0819 0.0969,8.83717 0,0 0.0376,2.42677 -1.70428,-0.0768 -0.0338,1.64881 0.55731,1.06338 -7.21977,-0.0344 0.0304,9.01516 -1.04467,0.62464 -0.842,-2.71046 -3.08891,0.004 -0.0111,-2.07152 -1.64269,1.08143 -0.048,1.23212 0.60503,0.81808 0.84951,-0.43981 0.73808,2.75394 1.27475,-0.007 0.0272,0.51464 -0.68503,0.24886 -0.0279,5.05629 0.0303,0.01 0.0982,-0.0126 0.19003,0.004 0.12281,0.0233 1.53897,0.10798 2.86892,0.14429 1.5082,0.10254 0.0303,0.01 4.43257,0.28857 0.2207,0.0119 2.6176,0.1267 0.34334,0.035 0.0921,0.0196 0.31867,-10e-4 0.21465,0.0421 0.19012,0.004 0.28797,-0.008 1.60032,0.11995 1.04206,0.0434 1.06684,0.0797 2.17631,0.105 0.72341,0.045 0.21461,0.0421 0.85217,0.0388 0.0186,0.0673 -0.10422,0.0433 -0.10423,0.0434 -0.11017,0.074 -0.12209,0.13551 -0.0112,0.0612 -0.0841,0.27021 0.019,0.22651 0.0124,0.0979 0.12354,0.18315 0.0311,0.16525 -0.0196,0.0918 -0.01,0.0304 0.0929,0.17729 0.049,0.073 0.1414,0.0913 0.16031,0.1585 0.1482,0.21972 0.12361,0.18325 0.0386,0.29406 -0.0966,0.17214 -0.0781,0.23949 0.0124,0.098 0.0245,0.0365 0.043,0.10385 0.0191,0.22663 -0.072,0.20874 -0.0858,0.11067 -0.0119,0.22059 0.15686,0.6672 0.11755,0.21394 0.16792,0.44645 0.0803,0.0792 0.17798,0.0665 0.0685,0.14065 0.20963,0.23165 0.0303,0.01 0.0245,0.0366 0.12278,0.0233 0.0982,-0.0128 0.0738,-0.0493 0.37317,-0.11854 0.39196,-0.0512 0.0364,-0.0247 0.061,0.0112 0.17135,-0.0623 0.061,0.0112 0.22672,-0.0196 0.061,0.0112 0.0244,0.0365 -0.01,0.0304 0.0549,0.0425 0.11079,0.0851 0.34342,0.035 0.31861,-10e-4 0.19605,-0.0255 0.23851,-0.081 0.0668,-0.0189 0.12811,-0.16614 0.0362,-0.0247 0.0603,-0.14753 0.0483,-0.0861 0.004,-0.1901 0.01,-0.0304 -0.13031,-0.31178 -0.026,-0.19617 0.035,-0.1841 0.0232,-0.12279 0.0543,-0.11678 0.0848,-0.11086 -0.0311,-0.16527 -0.0565,-0.20201 0.0196,-0.0918 0.13401,-0.19674 0.0423,-0.0555 0.0901,-0.30083 0.004,-0.19002 0.0196,-0.0917 0.14003,-0.22746 0.0112,-0.0613 0.0112,-0.0614 -0.019,-0.22649 -0.007,-0.12862 0.0482,-0.0861 0.01,-0.0305 -0.007,-0.12863 0.0237,-0.28199 0.0112,-0.0612 -0.0244,-0.0366 -0.037,-0.13455 -0.0244,-0.0365 0.01,-0.0305 -0.0491,-0.0731 0.01,-0.0306 0.004,-0.18991 0.13775,-0.54635 0.16977,-0.3808 -0.0125,-0.098 -0.0386,-0.29398 -0.0685,-0.14062 0.01,-0.0305 -0.0691,-0.30001 -0.081,-0.23853 -0.0303,-0.01 -0.0863,-0.0486 -0.17808,-0.0666 0.004,-0.18991 -0.0446,-0.26336 -0.11765,-0.21399 -0.11076,-0.0851 -0.043,-0.10385 -0.007,-0.12859 -0.0185,-0.0673 -0.0625,-0.17135 -0.0862,-0.0484 -0.0744,-0.11003 -0.0519,-0.55123 0.01,-0.0305 0.01,-0.0305 0.01,-0.0306 0.20614,-0.40551 0.11386,-0.42366 -0.0267,-0.35534 -0.0429,-0.10372 -0.0499,-0.0736 -0.0685,-0.14065 0.0542,-0.11679 0.0196,-0.0918 0.035,-0.18415 -0.0124,-0.098 0.0112,-0.0613 0.0728,-0.0498 0.0921,0.0196 0.0982,-0.0126 0.24449,-0.11159 0.13403,-0.19684 0.0424,-0.0554 -0.15506,-0.34848 -0.17894,-0.22578 0.0112,-0.0614 0.01,-0.0305 0.01,-0.0306 0.14653,-0.0988 0.23258,-0.0502 0.0549,0.0425 0.2581,0.14575 0.0988,0.14655 0.062,0.0112 0.17202,0.097 0.062,0.0112 0.13463,-0.0374 0.0543,-0.11679 0.21215,-0.43637 0.0196,-0.0918 -0.0191,-0.22651 -2.2e-4,-0.15933 -0.007,-0.12862 0.0787,-0.0801 0.22577,-0.17891 0.15927,-2.2e-4 0.0303,0.01 0.0863,0.0485 0.0743,0.10993 0.0302,0.01 0.23349,0.10907 0.31289,0.028 0.0303,0.01 0.13466,-0.0378 0.0423,-0.0553 0.0424,-0.0554 0.0668,-0.019 0.0921,0.0196 0.0863,0.0485 0.0184,0.0673 0.0743,0.10994 0.14826,0.21981 0.16022,0.15848 0.1602,0.15848 0.0302,0.01 0.39195,-0.0512 0.16626,0.1279 0.0549,0.0425 0.0559,0.0427 0.0303,0.01 0.061,0.0112 0.26927,-0.075 0.1653,-0.0314 0.0609,0.0112 0.22672,-0.0199 0.061,0.0112 0.23344,0.10916 0.0922,0.0196 0.1484,0.21976 0.0744,0.11001 0.0428,0.10394 0.0863,0.0484 0.0981,-0.0126 0.0668,-0.0189 0.01,-0.0306 0.0482,-0.0861 0.0365,-0.0248 0.12864,-0.007 0.11676,0.0545 0.1048,0.11592 0.0922,0.0196 0.0302,0.01 0.061,0.0112 0.0304,0.01 0.0245,0.0365 0.0244,0.0365 0.0245,0.0366 0.0187,0.067 -0.01,0.0305 0.26512,0.27431 0.11672,0.0546 0.17799,0.0664 0.0364,-0.0248 0.19596,-0.0256 0.0981,-0.0127 0.29989,-0.0691 0.0549,0.0424 0.0125,0.098 0.0245,0.0364 0.0549,0.0426 0.34333,0.035 0.0301,0.01 0.0302,0.01 0.0668,-0.0189 0.01,-0.0306 0.0232,-0.12283 0.0364,-0.0248 0.0668,-0.019 0.0304,0.01 0.0303,0.01 0.12281,0.0233 0.0245,0.0365 0.0303,0.01 0.061,0.0112 -0.01,0.0305 0.0245,0.0365 -0.01,0.0305 -0.0232,0.1228 0.0184,0.0673 0.043,0.10374 0.0244,0.0366 0.061,0.0112 0.33069,-0.0631 0.0787,-0.0802 0.12869,-0.007 0.0862,0.0486 0.0244,0.0365 0.0379,0.13474 0.0187,0.0672 0.12277,0.0233 0.0921,0.0196 0.0424,-0.0555 0.0482,-0.0862 0.0423,-0.0552 0.0668,-0.0189 0.11673,0.0546 0.061,0.0112 0.18418,0.035 0.24552,0.0469 0.0609,0.0112 0.0303,0.01 0.0303,0.01 0.11079,0.0851 0.0303,0.01 0.0863,0.0485 0.0303,0.01 0.19609,-0.0256 0.0303,0.01 0.061,0.0112 0.055,0.0426 0.061,0.0112 0.0609,0.0112 0.0304,0.01 0.0301,0.01 0.0728,-0.0496 0.0365,-0.0249 0.0112,-0.0614 0.0112,-0.0615 0.0423,-0.0554 0.0364,-0.0247 0.0302,0.01 0.0364,-0.0249 0.18426,0.0351 0.12868,-0.007 0.19585,-0.0255 0.20207,-0.0563 0.26328,-0.0443 0.0304,0.01 0.0864,0.0486 0.20366,0.2624 0.0863,0.0486 0.061,0.0112 0.092,0.0196 0.061,0.0112 0.0921,0.0196 0.28206,0.0227 0.12864,-0.007 -0.12948,-0.15251 -0.10564,-0.27519 -0.16791,-0.44642 0.01,-0.0305 -0.038,-0.13474 -0.025,-0.19586 0.0265,-0.47229 0.0649,-0.49673 0.0233,-0.1228 0.0423,-0.0553 0.15722,-0.47878 0.15786,-0.31956 0.21903,-0.30766 0.0543,-0.11678 0.11985,-0.45416 0.41426,-1.63856 0.0187,-1.07878 -2.2e-4,-0.15932 -2.2e-4,-0.15924 -0.13127,-0.47122 -0.0126,-0.0978 -0.16521,0.0314 -0.11017,0.0741 -0.16223,0.50959 -0.19005,-0.004 -0.31868,0.001 -0.14232,-0.2506 -0.3562,-0.13273 -0.13462,0.0374 -0.0847,0.11088 -0.20871,-0.0722 -0.056,-0.0428 -0.14814,-0.21991 0.0421,-0.21463 0.53762,-0.30939 0.24366,-0.27089 0.0306,-0.15328 0.12808,-0.16612 0.2266,-0.0197 0.19599,-0.0256 0.0125,0.098 0.0558,0.0428 0.20188,-0.0563 0.0797,-0.0801 0.12035,-0.29493 0.31831,-1.30709 -0.0208,-0.38603 -0.0768,-0.58784 0.0402,-0.53338 0.0233,-0.12282 0.0232,-0.1228 0.28203,0.0227 0.0303,0.01 0.0981,-0.0127 0.26928,-0.075 0.0677,-0.0187 0.0303,0.01 0.01,-0.0305 0.0482,-0.0861 0.13989,-0.22746 0.01,-0.0304 -0.0309,-0.16525 0.01,-0.0304 0.12647,-0.32568 0.36465,-0.56581 0.59735,-0.61604 0.0302,0.01 0.21472,0.0423 0.22662,-0.0196 0.0609,0.0112 0.0906,-0.1415 0.0196,-0.092 -0.0326,-0.32468 0.13783,-0.54623 0.15187,-0.28884 7.2e-4,-0.98669 0.15849,-0.16031 0.18232,-0.28281 0.1579,-0.31957 -0.33233,-0.25558 -0.15321,-0.0306 -0.22072,-0.0118 0.0764,-0.71742 -0.009,-0.44737 0.0482,-0.0861 0.41753,-1.00135 0.29126,-0.51628 0.0543,-0.11681 0.39539,-0.55983 0.53505,-0.78735 0.3569,-0.8539 0.27359,-0.42428 -0.038,-0.13475 -0.0685,-0.14064 -0.30159,-0.24971 -0.1533,-0.0306 -0.34174,0.28382 -0.0982,0.0126 -0.76005,-0.0203 -0.22062,-0.0119 -0.12282,-0.0232 -0.0185,-0.0672 0.0306,-0.15322 0.0539,-0.2761 0.14003,-0.22748 0.3315,0.0964 0.63657,-0.16282 0.24952,-0.30162 0.25738,-0.0137 0.19014,0.004 0.0565,0.20201 0.13555,0.12178 0.12866,-0.007 0.30414,-0.41843 0.22341,-0.65686 0.38772,-0.84788 0.02,-0.91945 -0.14403,-0.56915 0.0168,-0.25134 0.0961,-0.33156 -0.19693,-0.13373 -0.23263,0.0503 -0.0668,0.019 -0.0543,0.1168 -0.17728,0.093 -0.6143,-0.27864 -0.41332,-0.49413 0.10266,-0.20297 0.13402,-0.19673 0.77289,0.11864 0.17805,0.0664 0.38681,0.1389 0.0738,-0.0493 0.0982,-0.0127 0.52403,-0.56664 0.28623,-0.32638 0.01,-0.0305 0.0303,0.01 0.42777,-0.23531 0.23167,-0.20964 0.27266,-0.58371 0.20617,-0.40549 0.12211,-0.13551 0.1221,-0.1355 -0.025,-0.19577 -0.043,-0.10394 -0.21473,-0.0421 -0.0787,0.0802 -0.15332,-0.0306 -0.44815,-0.15094 -0.0261,-0.196 0.33578,-0.25319 0.0967,-0.17213 -0.0191,-0.22658 -0.0507,-0.23273 -0.13052,-0.3118 0.092,0.0196 0.0301,0.01 0.12865,-0.007 0.31879,-10e-4 0.23945,0.0784 0.41744,0.14475 0.0301,0.01 0.19083,0.16441 0.1603,0.15851 0.17124,-0.0623 0.0303,0.01 0.46269,-0.57855 0.57943,-0.52408 0.01,-0.0305 0.29221,-0.35711 -0.17215,-0.0971 -0.29391,0.0385 -0.35618,-0.13296 -0.185,-0.19507 0.0592,-0.30683 0.0119,-0.22059 0.56743,-0.46283 0.12277,0.0233 0.0668,-0.0187 0.25138,0.0168 0.0326,0.3246 0.4413,0.0224 0.31786,-0.16113 0.34769,-0.31442 0.20781,-0.0869 0.29309,-0.1977 0.23691,-0.39963 0.01,-0.0305 0.0482,-0.0861 0.01,-0.0306 0.0301,0.01 0.01,-0.0305 0.0662,-0.17814 0.0721,-0.20876 0.0119,-0.22068 0.01,-0.0305 0.01,-0.0306 -0.0937,-0.33656 -0.18415,-0.035 -0.0245,-0.0364 -0.14655,0.0988 -0.29472,-0.12105 -0.38097,-0.16949 -0.15938,2.2e-4 -0.43532,-0.0527 -0.19016,-0.004 -0.11672,-0.0546 -0.0864,-0.0485 -0.19086,-0.16447 -0.2284,-0.29906 -0.28968,-0.31098 -0.11675,-0.0546 -0.20879,-0.0725 -0.27009,-0.0844 -0.0863,-0.0484 -0.12947,-0.15253 -0.0869,-0.20802 -0.0803,-0.0791 -0.13543,-0.12186 -0.0559,-0.0427 -0.0609,-0.0112 -0.0619,-0.0112 -0.1042,0.0433 -0.11019,0.0742 -0.0917,0.14129 -0.0425,0.0554 -0.25651,0.17292 -0.12867,0.007 -0.0982,0.0126 -0.1594,2.2e-4 -0.061,-0.0112 -0.18428,-0.0349 -0.0302,-0.01 -0.0301,-0.01 -0.0804,-0.0791 -0.061,-0.0112 -0.39366,-0.26762 -0.11079,-0.0851 -0.0245,-0.0366 -0.05,-0.0734 -0.0124,-0.098 -0.061,-0.0112 -0.19006,-0.004 -0.25138,-0.0168 -0.0303,-0.01 -0.12957,-0.15252 -0.0571,-0.36133 -0.0125,-0.098 0.01,-0.0306 0.004,-0.19003 0.0112,-0.0614 -0.0445,-0.26335 0.01,-0.0305 -0.0565,-0.20209 -0.0244,-0.0364 -0.12281,-0.0233 -0.0244,-0.0366 0.01,-0.0304 0.0196,-0.0918 0.11018,-0.0742 0.0482,-0.0861 0.0668,-0.019 -0.0245,-0.0364 -0.0244,-0.0366 0.0196,-0.0919 0.0543,-0.11678 -0.0125,-0.098 -0.043,-0.10396 -0.0184,-0.0671 -0.0624,-0.17137 -0.14828,-0.21983 -0.17213,-0.0972 -0.0244,-0.0366 -0.17894,-0.22567 -0.0489,-0.0733 -0.0185,-0.0672 -0.0498,-0.0736 -0.0929,-0.17719 -0.055,-0.0425 -0.0244,-0.0366 -0.0186,-0.0673 -0.0186,-0.0673 0.0112,-0.0614 0.18233,-0.28296 0.0421,-0.21458 0.16442,-0.19094 0.0483,-0.0861 0.14056,-0.0681 0.0739,-0.0493 0.1704,-0.22156 0.01,-0.0305 0.0112,-0.0614 0.0112,-0.0614 -0.0699,-0.45939 -0.0244,-0.0364 -0.0246,-0.0366 -0.0244,-0.0366 -0.12362,-0.18325 -0.14829,-0.21974 -0.0429,-0.10383 0.0112,-0.0615 0.0907,-0.14156 -0.0371,-0.13456 0.01,-0.0304 0.01,-0.0305 -0.17888,-0.22589 -0.0303,-0.01 -0.0245,-0.0364 -0.0302,-0.01 -0.0787,0.0802 -0.01,0.0305 -0.0364,0.0247 -0.01,0.0305 -0.061,-0.0112 -0.0364,0.0248 -0.0303,-0.01 0.01,-0.0305 0.0112,-0.0614 -0.0301,-0.01 0.01,-0.0304 -0.0802,-0.0794 -0.0803,-0.0792 -0.19679,-0.13379 -0.0245,-0.0364 0.01,-0.0304 0.0112,-0.0614 0.0112,-0.0614 0.0112,-0.0614 -0.11077,-0.0851 -0.10484,-0.11583 -0.0245,-0.0366 z"
       id="GA-01"
       style="font-style:normal;font-weight:400;font-size:34.375px;font-family:'MS Shell Dlg 2';opacity:1;fill:none;fill-opacity:1;fill-rule:evenodd;stroke:#000000;stroke-width:0.33333385;stroke-linecap:square;stroke-linejoin:bevel;stroke-miterlimit:4;stroke-dasharray:none;stroke-opacity:1" />
    <path
       inkscape:connector-curvature="0"
       d="m 219.47195,468.92971 0.0276,-5.0563 0.68507,-0.24885 -0.0273,-0.51466 -1.27479,0.007 -0.73808,-2.75394 -0.8495,0.43977 -0.605,-0.81804 0.048,-1.2321 1.64272,-1.08142 0.0112,2.0715 3.08889,-0.004 0.84199,2.71046 1.04468,-0.62462 -0.0304,-9.01515 7.21977,0.0344 -0.55733,-1.06336 0.0338,-1.64884 1.70428,0.0769 -0.0376,-2.42677 -4.44287,0.0914 -0.65103,-1.39994 -7.25831,-0.32841 c -0.32269,-0.44252 -0.5196,-0.77592 -0.50183,-1.02083 0.0176,-0.2448 0.2568,-0.42603 0.74471,-0.55551 0.62151,-0.36594 0.91228,-0.92829 1.13137,-1.56286 0.21911,-0.63465 0.35971,-1.31971 0.5964,-1.92148 0.21703,-0.79114 0.98175,-1.22224 1.30097,-1.94378 0.18042,-1.18382 0.2515,-2.40238 0.31795,-3.59919 0.6597,0.21599 2.3862,0.34784 2.78298,0.0952 1.29511,-1.14884 2.17131,-1.61545 3.30604,-2.92284 1.17013,-0.13838 1.84327,-0.45495 2.01165,-0.8505 0.0843,-0.19775 0.039,-0.42746 -0.12615,-0.66121 -0.16635,-0.23384 -0.4632,-0.46107 -0.88027,-0.71235 -1.20757,-0.93805 -2.3191,-2.04806 -3.65568,-2.81159 -0.20941,-0.31829 -0.44234,-0.0606 -0.88528,-0.52233 -0.4791,-0.5006 -1.02885,-0.7021 -1.48276,-1.05225 l 1.68879,-1.6455 -0.48062,-0.47545 -2.50507,1.42317 -5.68088,-12.3738 6.47746,-3.51616 0.0668,-0.0189 c 0.0118,-0.0512 0.0208,-0.10175 0.0306,-0.15322 0.14318,-0.62128 0.0908,-1.26881 -0.11425,-1.86861 -0.22284,-0.70313 -0.38951,-1.50723 -0.97926,-2.00499 -0.62224,-0.39988 -0.99997,-1.05449 -1.29026,-1.7151 -0.20842,-0.52523 -0.62695,-0.93115 -1.09748,-1.23206 -0.35276,-0.23951 -0.44739,-0.65632 -0.6307,-1.01398 -0.13455,-0.23233 -0.34766,-0.32184 -0.57771,-0.30342 -0.22999,0.0186 -0.47258,0.14419 -0.65437,0.25484 l -4.34735,1.89288 -1.89633,-7.27683 -9.10537,1.47723 -0.67926,-2.07389 -4.6891,-0.11575 -0.13588,7.74131 -1.86946,-0.0449 0.0316,2.45748 5.43039,0.0686 c 0.41977,-0.26183 0.88494,-0.34377 1.37702,-0.36903 0.49204,-0.0252 1.00048,-6.4e-4 1.46474,-0.002 0.18286,0.11998 0.39484,0.3847 0.59736,0.52992 0.20252,0.14519 0.40373,0.19012 0.55042,-0.21137 0.0961,-0.22132 0.24051,-0.30328 0.40896,-0.30252 0.16855,9.4e-4 0.36435,0.0714 0.54628,0.13804 0.1819,0.0663 0.35423,0.11991 0.49077,0.0956 0.13654,-0.0246 0.23523,-0.12153 0.26747,-0.39378 0.005,-0.24979 0.0686,-0.41514 0.19344,-0.50356 0.12478,-0.0884 0.30987,-0.11243 0.49596,-0.0946 0.37202,0.0365 0.80426,0.23858 1.07452,0.36809 0.34666,0.18801 0.75541,0.34457 1.09999,0.56396 0.34467,0.21939 0.61882,0.4908 0.74654,0.90916 0.13549,0.4161 -0.0182,0.70046 -0.27683,0.93302 -0.25802,0.23263 -0.62537,0.41975 -0.91006,0.58712 -0.3906,0.21455 -0.69687,0.53081 -0.90825,0.90596 -0.21141,0.37502 -0.32544,0.80019 -0.30582,1.2457 0.002,0.2704 -0.0485,0.4518 -0.16864,0.54027 -0.12059,0.0884 -0.30206,0.0765 -0.49002,0.064 -0.37589,-0.0258 -0.81713,-0.14918 -1.12819,-0.0917 -0.37298,-0.0682 -0.75458,0.008 -0.99779,0.21984 -0.24323,0.21201 -0.35292,0.56987 -0.22152,0.97572 0.0508,0.73316 0.39837,1.4743 0.20802,2.20518 -0.11042,0.35689 -0.29371,0.66509 -0.55296,0.87945 -0.25915,0.21429 -0.6064,0.311 -0.99769,0.21988 -0.31641,0.19235 -0.28664,0.59003 -0.28288,0.96374 0.004,0.37365 -0.009,0.7443 -0.4183,0.84182 -0.39613,0.0625 -0.52219,0.35092 -0.58453,0.71419 -0.0615,0.36331 -0.0586,0.79407 -0.14751,1.08551 -0.2786,0.65499 -0.1491,1.30503 -0.10007,1.98616 0.002,0.24673 -0.12499,0.48987 -0.0147,0.72947 l 5.75601,0.19599 -0.15252,13.72301 -4.73082,0.0991 -1.37795,-0.9364 -1.95727,-0.41237 -0.99427,0.85734 -0.11279,1.72891 -0.85801,1.1385 0.65117,2.54601 -0.22734,15.74594 -2.72169,-0.0833 -0.19162,3.11447 1.08144,1.64273 -0.18444,6.68135 0.0615,0.0112 0.0305,0.01 0.28201,0.0227 0.38003,0.0106 0.25135,0.0168 0.12282,0.0233 0.0674,-0.0188 0.46613,0.0581 0.31866,-0.001 3.13913,0.22851 0.60077,0.0213 0.84608,0.0692 0.25135,0.0168 0.0614,0.0112 1.60632,0.0892 1.6309,0.12598 0.0671,-0.0189 0.78484,0.0568 0.75414,0.0508 1.13415,0.0614 0.72337,0.0449 0.0615,0.0112 0.85204,0.0388 1.25097,0.11545 0.22056,0.0119 0.25139,0.0168 0.98084,0.0312 0.28202,0.0227 0.53353,0.0392 0.40484,0.0466 0.72331,0.0458 0.061,0.0112 1.04207,0.0434 0.28213,0.0227 1.69825,0.10725 0.31278,0.028 0.061,0.0112 0.22072,0.0119 0.15926,-2.2e-4 0.49677,0.0649 z"
       id="GA-08"
       style="font-style:normal;font-weight:400;font-size:34.375px;font-family:'MS Shell Dlg 2';opacity:1;fill:none;fill-opacity:1;fill-rule:evenodd;stroke:#000000;stroke-width:0.33333385;stroke-linecap:square;stroke-linejoin:bevel;stroke-miterlimit:4;stroke-dasharray:none;stroke-opacity:1" />
    <path
       inkscape:connector-curvature="0"
       d="m 174.35264,414.60371 c 0.15607,-0.13672 0.31233,-0.27188 0.48817,-0.38257 0.21788,-0.16231 0.31776,0.1628 0.25311,0.33564 -0.0388,0.30131 -0.15591,0.61374 -0.0498,0.91344 0.12939,0.18213 0.28202,-0.1477 0.33572,-0.25299 0.0672,-0.23641 0.27889,-0.40595 0.50607,-0.47474 0.19559,-0.0713 0.41706,-0.077 0.53176,-0.27866 0.1,-0.17008 0.15415,-0.41371 0.0518,-0.59474 -0.11161,-0.16431 -0.31646,-0.30388 -0.2787,-0.53165 0.0332,-0.2394 0.23823,-0.39633 0.34001,-0.60249 l 5.22842,0.12497 0.12527,-7.52064 3.00362,0.10583 c 0,0 1.4216,-0.99402 1.66748,-1.04472 0.2459,-0.0508 0.31141,0.51101 0.46961,0.69609 0.1743,0.32902 0.33315,0.66856 0.61776,0.91601 0.15035,0.12161 0.3334,-0.001 0.49597,-0.0947 0.1625,-0.0938 0.30785,-0.13097 0.39276,0.10828 0.22665,0.43616 0.36755,0.92451 0.59578,1.35731 0.29502,0.0792 0.66565,-0.0599 0.95679,0.15462 0.3842,0.17992 0.70012,0.48826 1.13667,0.53929 0.49909,0.10522 0.98206,0.34158 1.28507,0.75914 0.23958,0.20653 0.58229,0.35206 0.73279,0.6518 0.0898,0.14329 0.18678,0.26818 0.35114,0.32292 l 1.35632,-3.04717 0.62549,0.0576 -9.2e-4,-1.30535 0,0 -0.0316,-2.45752 1.86946,0.0449 0.13589,-7.7413 -2.18822,-0.0432 c 0.0432,-0.22852 0.1309,-0.43977 0.13119,-0.67485 -0.0558,-0.46766 0.29338,-0.80918 0.57004,-1.1307 0.1393,-0.16446 0.15582,-0.4205 0.21728,-0.62637 0.0614,-0.20585 0.18518,-0.35986 0.48223,-0.35195 0.30853,-0.0895 0.52691,-0.35242 0.6339,-0.64079 0.10703,-0.28838 0.0943,-0.60775 -0.0844,-0.87602 -0.17947,-0.30616 -0.46481,-0.47338 -0.77547,-0.59631 -0.31062,-0.12305 -0.66265,-0.19972 -0.95182,-0.34424 -0.19409,-0.0726 -0.36957,-0.19705 -0.50443,-0.35274 -0.13486,-0.1557 -0.21885,-0.34429 -0.17477,-0.57521 -0.11091,-0.5236 0.24266,-0.90371 0.58789,-1.22268 -0.0439,-0.19039 -0.0768,-0.39645 -0.13805,-0.59998 -0.0539,-0.007 -0.0777,0.048 -0.13463,0.0378 -0.26771,-0.0494 -0.56,-0.10168 -0.772,0.0408 -0.16232,0.0569 -0.45015,0.0995 -0.67315,0.1876 -0.22299,0.0881 -0.37229,0.21144 -0.24877,0.46102 0.12837,0.0426 0.26038,0.15798 0.30165,0.24952 0.0412,0.0916 -0.0187,0.15131 -0.25047,0.14243 -0.27427,0.0274 -0.59384,0.0578 -0.8573,0.15161 -0.26333,0.0939 -0.45381,0.24633 -0.49929,0.60341 0.0635,0.22599 0.0317,0.55974 -0.0879,0.77877 -0.11945,0.21902 -0.3423,0.3218 -0.64255,0.19346 -0.37104,-0.057 -0.73965,-0.17456 -1.10433,-0.2146 -0.18705,0.17876 -0.23316,0.45221 -0.29642,0.70642 -0.0633,0.25419 -0.14402,0.51019 -0.40732,0.62119 -0.40142,0.003 -0.47338,-0.24534 -0.43209,-0.56157 0.0424,-0.31603 0.20971,-0.71297 0.21558,-0.94493 0.0723,-0.28483 -0.13755,-0.49727 -0.27361,-0.72176 -0.13598,-0.22438 -0.20295,-0.43633 0.0458,-0.72331 0.17928,-0.22322 0.15132,-0.58089 0.0266,-0.79082 -0.12508,-0.20981 -0.35114,-0.28473 -0.58798,0.0768 -0.0575,0.23504 -0.19057,0.33723 -0.31694,0.32041 -0.12652,-0.0156 -0.25466,-0.14226 -0.31445,-0.34766 -0.16935,-0.25452 -0.41787,-0.36433 -0.60836,-0.30929 -0.19061,0.0551 -0.31414,0.26655 -0.24196,0.58967 -0.0265,0.22197 -0.1159,0.39229 -0.2548,0.49162 -0.13891,0.0994 -0.32169,0.1357 -0.54539,0.0213 -0.28328,-0.0229 -0.42648,-0.20868 -0.52319,-0.41992 -0.0967,-0.21131 -0.16632,-0.47283 -0.28552,-0.66041 -0.14566,-0.19243 -0.14879,-0.46444 -0.21217,-0.70973 -0.0634,-0.24541 -0.17026,-0.4631 -0.47466,-0.50616 -0.35064,-0.12514 -0.5929,0.2743 -0.73873,0.52498 l -5.72518,-0.18975 0.60411,-0.4875 -0.1867,-0.51376 0.49927,-0.6033 -2.10291,-0.15409 0.0175,-5.82245 -3.46817,-0.99237 0.0684,2.43272 -5.92193,1.96862 -0.91345,-0.05 -0.01,0.0305 0.1397,0.91854 0.007,0.12869 0.14659,1.04719 0.0316,0.16538 0.14658,1.04721 -0.01,0.0305 0.0248,0.0366 0.007,0.12864 -0.01,0.0304 0.2157,1.3472 0.15345,1.17591 0.0198,0.2266 0.0377,0.13463 0.173,1.40248 0.0759,0.42867 0.15344,1.17586 0.22935,1.60454 0.11426,0.72248 0.0322,0.32474 0.0886,0.52661 0.17903,1.37174 0.0768,0.58806 0.0255,0.19586 0.0315,0.16537 0.10745,0.59389 0.16025,1.30455 0.0256,0.196 0.23535,1.57379 0.0127,0.098 0.15173,0.85729 0.0198,0.2266 0.13981,0.91854 0.0512,0.39198 0.0571,0.36123 0.0443,0.26328 -0.01,0.0306 0.0503,0.23258 -0.01,0.0305 0.0187,0.0673 0.0188,0.0673 -0.0112,0.0615 -0.01,0.0305 0.0189,0.0674 -0.01,0.0305 2.2e-4,0.15925 0.0186,0.0673 0.0742,0.10989 0.0247,0.0366 0.0305,0.01 -0.01,0.0305 0.0248,0.0364 0.0305,0.01 0.0305,0.01 0.0614,0.0112 0.0614,0.0112 0.0615,0.0112 0.0613,0.0112 0.0306,0.01 0.0554,0.0428 0.0247,0.0366 -0.01,0.0304 -0.01,0.0305 -0.01,0.0304 0.0248,0.0366 0.0188,0.0672 -0.01,0.0305 -0.01,0.0304 -0.0427,0.0552 -0.0792,0.08 -0.01,0.0304 -0.01,0.0305 -0.0304,-0.01 -0.0485,0.086 -0.01,0.0306 2.2e-4,0.15938 -0.004,0.18995 -0.0112,0.0614 0.0187,0.0672 0.0989,0.14656 0.0188,0.0674 0.20367,0.26237 0.0304,0.01 0.0246,0.0366 0.0247,0.0366 0.1108,0.0851 0.0555,0.0427 0.11079,0.0851 0.11077,0.0854 0.0187,0.0672 0.0247,0.0366 0.0188,0.0673 -0.0427,0.0555 -0.01,0.0304 -0.01,0.0305 -0.0366,0.0247 -0.0426,0.0555 -0.0233,0.12279 -0.0306,0.15319 2.2e-4,0.1593 0.0683,0.1406 0.08,0.0793 0.11077,0.0851 0.086,0.0485 0.0497,0.0733 0.0553,0.0426 -0.01,0.0305 -0.0112,0.0614 0.0127,0.098 0.0188,0.0672 -0.0112,0.0616 -0.0547,0.11671 -0.01,0.0305 -0.01,0.0305 -0.0234,0.12281 0.0188,0.0673 0.10138,0.62452 0.0376,0.13464 0.0247,0.0365 0.0496,0.0732 0.0304,0.01 0.1721,0.0972 0.0248,0.0364 0.20964,0.23176 0.11838,0.37312 -0.01,0.0306 -0.0365,0.0248 -0.10998,0.074 -0.0484,0.086 -0.0232,0.12279 -0.0112,0.0615 0.0376,0.13461 0.11676,0.0546 0.0554,0.0427 0.0304,0.01 0.0495,0.0734 -0.01,0.0306 -0.01,0.0304 -0.01,0.0306 -0.01,0.0304 -0.0427,0.0553 -0.01,0.0305 0.0188,0.0673 0.0188,0.0673 -0.01,0.0304 0.0305,0.01 0.0306,0.01 -0.01,0.0304 0.0306,0.01 0.0247,0.0367 0.0315,0.16537 0.0189,0.0673 0.007,0.12865 0.0186,0.0673 0.0623,0.17132 0.0188,0.0671 -0.01,0.0305 0.18578,0.35447 0.24034,0.23775 0.50525,0.51211 0.0306,0.01 0.2897,0.31097 -0.01,0.0304 0.0248,0.0366 -0.0112,0.0614 0.0433,0.10388 0.0496,0.0733 0.0435,0.10397 0.0554,0.0426 -0.01,0.0305 0.15331,0.0306 0.0247,0.0366 0.0683,0.1406 z"
       id="GA-03"
       style="font-style:normal;font-weight:400;font-size:34.375px;font-family:'MS Shell Dlg 2';opacity:1;fill:none;fill-opacity:1;fill-rule:evenodd;stroke:#000000;stroke-width:0.33333385;stroke-linecap:square;stroke-linejoin:bevel;stroke-miterlimit:4;stroke-dasharray:none;stroke-opacity:1" />
    <path
       inkscape:connector-curvature="0"
       d="m 200.85989,377.32024 c -0.48391,-0.18716 -0.96227,-0.37542 -1.45538,-0.53759 -0.40577,-0.24941 -0.70388,0.0824 -1.05915,0.20802 -0.39979,0.0248 -0.50781,-0.5445 -0.94676,-0.53415 -0.51395,-0.028 -1.04699,-0.092 -1.55169,-0.20615 -0.17615,-0.0287 -0.37226,-0.0385 -0.55213,-0.10756 -0.17974,-0.07 -0.33287,-0.19674 -0.36385,-0.42086 0.0214,-0.20557 -0.058,-0.3983 -0.18067,-0.54447 -0.12271,-0.1463 -0.30756,-0.23776 -0.53434,-0.19941 -0.36635,0.0971 -0.72187,0.21225 -1.08301,0.33062 0.14646,0.14959 0.27527,0.30603 0.38268,0.48827 0.041,0.17271 0.30784,0.38686 0.49344,0.5734 0.1855,0.18663 0.28625,0.35341 0.008,0.4474 -0.664,0.0358 -1.2227,0.44939 -1.86002,0.56165 -0.23058,-0.0615 -0.46843,-0.10679 -0.69963,-0.16776 -0.043,0.38814 -0.10992,0.7682 -0.0984,1.15877 0.009,0.49475 0.36563,0.91549 0.63831,1.30191 0.34242,0.44051 0.74503,0.86913 0.90239,1.41701 -0.17547,0.63408 -0.88052,0.95624 -1.01463,1.61733 -0.005,0.06 0.0604,0.0864 0.0683,0.14056 0.478,0.0761 0.93984,0.16778 1.417,0.24386 0.21332,-0.074 0.44714,-0.13374 0.66124,-0.12615 0.21406,0.008 0.39929,0.0935 0.49852,0.38336 0.23576,0.38597 0.53477,0.72599 0.69881,1.15456 0.17774,0.4299 0.51392,0.84082 1.00375,0.89559 0.0196,10e-4 0.0415,0.0107 0.0614,0.0112 0,0 0,0 0,0 0.22476,0.0428 0.4851,0.085 0.69953,0.16775 0.23326,0.0897 0.42004,0.23529 0.54195,0.48738 0.14446,0.24679 0.28448,0.51595 0.4577,0.75745 0.17318,0.24157 0.38466,0.4418 0.6953,0.51715 0.7736,0.17976 1.5737,-0.0864 2.29648,-0.34941 0.6255,-0.63533 1.02359,-1.4366 1.47735,-2.19596 0.41652,-0.80491 0.90169,-1.60179 1.12034,-2.48824 l -4.52916,-3.3953 1.80556,-1.591 z"
       id="GA-04"
       style="font-style:normal;font-weight:400;font-size:34.375px;font-family:'MS Shell Dlg 2';opacity:1;fill:none;fill-opacity:1;fill-rule:evenodd;stroke:#000000;stroke-width:0.33333385;stroke-linecap:square;stroke-linejoin:bevel;stroke-miterlimit:4;stroke-dasharray:none;stroke-opacity:1" />
    <path
       inkscape:connector-curvature="0"
       d="m 187.15222,377.74377 c -0.72993,0.73534 -1.48264,1.4538 -2.18213,2.21807 -0.3744,0.35806 -0.75863,0.68231 -1.15272,1.01755 -0.085,0.22095 0.0151,0.42074 0.17467,0.57511 0.15946,0.15444 0.37594,0.28223 0.52923,0.38943 0.75775,0.32109 1.62202,0.25072 2.36277,0.61849 0.2176,0.12314 0.42263,0.27897 0.57866,0.46262 0.15601,0.18364 0.27744,0.40641 0.24888,0.68507 0.0533,0.20616 0.19697,0.31468 0.37579,0.35962 0.17879,0.0449 0.37079,0.0135 0.5393,0.01 0.63652,0.0597 1.23681,0.29349 1.85934,0.42512 0.73137,0.25667 1.29829,0.93582 2.08938,1.04284 0.27919,-0.2978 -0.002,-0.82997 0.14097,-1.21413 -0.001,-0.33302 -0.22908,-0.5813 -0.44575,-0.8189 -0.17875,-0.19611 -0.27969,-0.41042 -0.31613,-0.66636 0,0 0,0 0,0 -0.008,-0.0543 -0.074,-0.0805 -0.0682,-0.14059 0.13377,-0.66112 0.83912,-0.98326 1.01464,-1.61732 -0.15734,-0.54788 -0.55996,-0.97647 -0.90239,-1.41701 -0.27269,-0.38643 -0.62895,-0.80713 -0.63831,-1.30191 -0.0126,-0.39069 0.0549,-0.77067 0.0984,-1.15878 -0.41281,-0.10937 -0.82431,-0.23795 -1.23974,-0.33652 0,0 0,0 0,0 -0.0906,-0.0228 -0.1852,-0.0333 -0.27612,-0.0539 -0.64066,0.0468 -1.23298,0.35976 -1.7365,0.74484 -0.23701,0.31051 -0.55458,0.38405 -0.85629,0.31103 -0.0757,-0.0168 -0.12371,-0.0999 -0.19691,-0.13373 z"
       id="GA-05"
       style="font-style:normal;font-weight:400;font-size:34.375px;font-family:'MS Shell Dlg 2';opacity:1;fill:none;fill-opacity:1;fill-rule:evenodd;stroke:#000000;stroke-width:0.33333385;stroke-linecap:square;stroke-linejoin:bevel;stroke-miterlimit:4;stroke-dasharray:none;stroke-opacity:1" />
    <path
       inkscape:connector-curvature="0"
       d="m 190.21805,376.8753 c 0.41544,0.0985 0.82695,0.22718 1.23978,0.33655 l 0,0 c 0.23119,0.0609 0.46905,0.10621 0.69965,0.16775 0.63731,-0.11226 1.196,-0.52585 1.86004,-0.56162 0.27771,-0.0941 0.17701,-0.2608 -0.008,-0.44743 -0.18561,-0.18653 -0.45248,-0.40069 -0.49345,-0.57338 -0.1074,-0.18224 -0.23623,-0.33869 -0.38268,-0.48829 0,0 0,0 0,0 -0.2616,-0.26721 -0.54967,-0.50332 -0.69104,-0.86648 -0.29576,-0.27612 -0.30777,-0.5749 -0.15771,-0.82657 0.15007,-0.2516 0.45172,-0.45914 0.74472,-0.5555 0.16386,-0.2001 0.38989,-0.34933 0.61681,-0.38947 0.22705,-0.0402 0.45485,0.0288 0.61442,0.27856 0.19544,-0.16096 0.25902,-0.48131 0.36376,-0.72512 0.10487,-0.24387 0.26429,-0.41987 0.6485,-0.22419 0.21089,0.11843 0.55254,0.0602 0.77798,-0.0718 0.22531,-0.13093 0.30539,-0.33895 -0.0213,-0.54529 -0.27721,-0.10843 -0.5914,-0.10744 -0.88955,-0.17289 -0.29837,-0.0651 -0.57947,-0.19121 -0.76868,-0.46773 -0.16027,-0.26933 -0.33506,-0.48842 -0.57349,-0.65273 -0.23847,-0.16422 -0.5176,-0.25016 -0.84105,-0.25894 l -0.23349,-0.10907 0.007,-2.16352 c -0.63989,-0.0847 -1.27652,-0.2141 -1.91375,-0.30811 -0.26084,0.003 -0.45494,0.16227 -0.58025,0.3647 -0.12541,0.20247 -0.16906,0.44215 -0.16193,0.66897 -0.0542,0.31356 -0.0334,0.69903 -0.062,0.97476 -0.44648,-0.11702 -0.88145,0.1464 -1.19885,0.43556 -0.1172,0.17668 -0.0177,0.44035 0.0282,0.67394 0.0448,0.23356 0.0291,0.42335 -0.30422,0.41842 -0.50748,-0.0604 -0.99374,-0.27207 -1.51501,-0.23071 -0.50967,0.0766 -0.9607,-0.13597 -1.45377,-0.21883 -0.30098,0.0292 -0.33606,0.25688 -0.25467,0.49159 0.0814,0.23478 0.26009,0.47103 0.35885,0.61091 0.12928,0.448 0.51476,0.9065 0.36902,1.37703 -0.13067,0.18821 -0.1873,0.4211 -0.14993,0.60755 0.0373,0.18645 0.1618,0.34248 0.3945,0.42682 0.084,0.31369 0.26931,0.42163 0.51133,0.48141 0.24201,0.0599 0.55085,0.064 0.80356,0.12423 0.10617,0.19015 -0.0242,0.46563 -0.076,0.7175 -0.0515,0.25176 -0.0344,0.46534 0.27868,0.53164 0.23091,-0.0435 0.34759,-0.24163 0.49414,-0.4133 0.14664,-0.17168 0.31378,-0.30403 0.61189,-0.19941 0.2212,-0.0402 0.46816,-0.0769 0.67395,-0.0281 0.20568,0.0492 0.36846,0.16569 0.41926,0.4635 0.28994,0.32551 0.30282,0.78377 0.24552,1.19379 -0.007,0.0524 -0.0226,0.10098 -0.0306,0.15319 z"
       id="GA-06"
       style="font-style:normal;font-weight:400;font-size:34.375px;font-family:'MS Shell Dlg 2';opacity:1;fill:none;fill-opacity:1;fill-rule:evenodd;stroke:#000000;stroke-width:0.33333385;stroke-linecap:square;stroke-linejoin:bevel;stroke-miterlimit:4;stroke-dasharray:none;stroke-opacity:1" />
    <path
       inkscape:connector-curvature="0"
       d="m 192.7455,366.00158 -0.0162,1.55672 c 0,0 0,0 0,0 l -0.007,2.16348 0.23353,0.10909 c 0.32345,0.01 0.60258,0.0947 0.84101,0.25895 0.23845,0.1643 0.41324,0.38336 0.57353,0.65269 0.1892,0.2765 0.47032,0.40256 0.76867,0.46778 0.29825,0.0651 0.61234,0.0643 0.88955,0.17288 0.32673,0.20633 0.24665,0.41438 0.0214,0.5453 -0.22535,0.131 -0.56708,0.19009 -0.77796,0.0717 -0.38421,-0.19572 -0.54365,-0.0195 -0.64848,0.22419 -0.10477,0.24379 -0.1684,0.56413 -0.36377,0.72514 -0.15962,-0.24949 -0.38737,-0.31881 -0.61443,-0.27859 -0.22692,0.0402 -0.45294,0.18938 -0.61684,0.38947 -0.29297,0.0964 -0.59462,0.3039 -0.74468,0.55551 -0.15008,0.25166 -0.13812,0.55046 0.15768,0.82657 0.1414,0.36314 0.42947,0.59925 0.69107,0.86647 0.36113,-0.11837 0.71661,-0.23353 1.08298,-0.33062 0.22681,-0.0383 0.41173,0.0522 0.53438,0.19943 0.12265,0.14616 0.20093,0.33876 0.18061,0.54448 0.031,0.22412 0.18413,0.35085 0.36389,0.42085 0.17975,0.07 0.37606,0.0783 0.55213,0.10755 0.5047,0.11409 1.03778,0.17794 1.55165,0.20614 0.43896,-0.0103 0.54701,0.55906 0.94682,0.53416 0.35527,-0.12561 0.65337,-0.45742 1.05913,-0.20801 0.49312,0.16219 0.97149,0.35042 1.45536,0.53758 l 1.26865,-1.12227 c -0.27097,-0.1535 -0.28859,-0.18303 -0.40551,-0.20614 -0.35571,-0.0591 -0.73074,-0.0876 -1.07967,-0.17807 -0.22997,-0.18899 -0.0274,-0.50415 0.076,-0.71752 0.20922,-0.22043 -0.14723,-0.46688 -0.21813,-0.6791 -0.33992,-0.56393 -0.36402,-1.29955 -0.0777,-1.89342 0.12342,-0.28521 0.31349,-0.51537 0.49846,-0.76259 -0.028,-0.35949 -0.6314,-0.33954 -0.69022,-0.70721 0.003,-0.31652 0.30212,-0.5093 0.51717,-0.69529 0.20831,-0.16611 0.44072,-0.33568 0.64078,-0.51215 l -4.04255,-1.80448 -0.0556,-2.33483 c -0.32532,-0.18211 -0.62187,-0.24242 -0.94493,-0.21555 -0.3231,0.027 -0.6629,0.12378 -1.06512,0.23873 -0.58632,0.16752 -1.56832,0.23215 -2.53582,0.27114 z"
       id="GA-07"
       style="font-style:normal;font-weight:400;font-size:34.375px;font-family:'MS Shell Dlg 2';opacity:1;fill:none;fill-opacity:1;fill-rule:evenodd;stroke:#000000;stroke-width:0.33333385;stroke-linecap:square;stroke-linejoin:bevel;stroke-miterlimit:4;stroke-dasharray:none;stroke-opacity:1" />
    <path
       inkscape:connector-curvature="0"
       d="m 195.99649,467.35913 0.18463,-6.68134 -1.08142,-1.64273 0.19152,-3.1145 2.72171,0.0833 0.22734,-15.74593 -0.65114,-2.54602 0.85799,-1.13849 0.11279,-1.72889 0.99424,-0.85734 1.95728,0.41235 1.37793,0.93641 4.73084,-0.0991 0.15262,-13.723 -5.75601,-0.19599 c -0.1105,-0.23959 0.0164,-0.48272 0.0147,-0.72944 -0.0495,-0.68115 -0.17897,-1.33118 0.10007,-1.98614 0.0883,-0.2915 0.085,-0.72235 0.14752,-1.08553 0.0614,-0.36339 0.1884,-0.65171 0.58448,-0.71416 0.40963,-0.0976 0.4221,-0.46818 0.41832,-0.84187 -0.004,-0.37369 -0.0336,-0.77137 0.28289,-0.96371 0.39129,0.0913 0.73855,-0.006 0.9977,-0.2199 0.25927,-0.21435 0.44264,-0.52253 0.55294,-0.87943 0.1904,-0.73089 -0.1571,-1.47205 -0.20805,-2.20521 -0.13135,-0.40583 -0.0216,-0.76365 0.22147,-0.97568 0.24321,-0.212 0.62463,-0.28709 0.99777,-0.21984 0.31106,-0.0574 0.75225,0.0668 1.12822,0.0916 0.18794,0.0123 0.36951,0.0234 0.49,-0.064 0.12046,-0.0884 0.17132,-0.26987 0.16863,-0.54025 -0.0196,-0.44554 0.0945,-0.87066 0.30596,-1.24569 0.21136,-0.37516 0.51765,-0.69144 0.90825,-0.90593 0.28464,-0.16738 0.65203,-0.35455 0.91005,-0.58715 0.25793,-0.23258 0.41232,-0.51693 0.27682,-0.93304 -0.12772,-0.41833 -0.40185,-0.68975 -0.74654,-0.90916 -0.34457,-0.21936 -0.75332,-0.37593 -1.10002,-0.56395 -0.27025,-0.12949 -0.70238,-0.33234 -1.07449,-0.36808 -0.18621,-0.0168 -0.3712,0.006 -0.49597,0.0946 -0.12479,0.0884 -0.18789,0.25381 -0.19342,0.50353 -0.0329,0.27219 -0.13097,0.3691 -0.26748,0.39379 -0.13659,0.0245 -0.30906,-0.0276 -0.49074,-0.0957 -0.18199,-0.0664 -0.37778,-0.13723 -0.54631,-0.13805 -0.16845,-9.4e-4 -0.31283,0.0811 -0.40896,0.30252 -0.14671,0.40149 -0.34791,0.35656 -0.55043,0.21137 -0.20252,-0.14522 -0.41448,-0.40995 -0.59734,-0.52993 -0.46426,8.9e-4 -0.9727,-0.024 -1.46475,0.002 -0.49206,0.0252 -0.95725,0.10723 -1.37704,0.36906 l -5.43036,-0.0686 9.2e-4,1.30536 -0.62544,-0.0577 -1.35636,3.04719 c -0.16436,-0.0548 -0.2613,-0.17966 -0.35113,-0.32294 -0.15047,-0.2997 -0.49321,-0.44529 -0.7328,-0.65181 -0.30298,-0.41757 -0.786,-0.65389 -1.28506,-0.75912 -0.43647,-0.0519 -0.75243,-0.35938 -1.13668,-0.53931 -0.29118,-0.2142 -0.66178,-0.0756 -0.95677,-0.15462 -0.22823,-0.43279 -0.36914,-0.92115 -0.59581,-1.35732 -0.0849,-0.23919 -0.23023,-0.20204 -0.39273,-0.10818 -0.16261,0.0939 -0.34562,0.2163 -0.49599,0.0947 -0.28459,-0.24747 -0.44344,-0.58701 -0.61776,-0.91602 -0.15818,-0.18508 -0.22369,-0.747 -0.4696,-0.6961 -0.24591,0.0507 -1.66749,1.04473 -1.66749,1.04473 l -3.0036,-0.10583 -0.12528,7.52063 -5.22842,-0.12497 c -0.10171,0.20614 -0.30573,0.36322 -0.34002,0.60249 -0.038,0.22773 0.16708,0.36735 0.27867,0.53165 0.10232,0.18102 0.0481,0.42466 -0.0518,0.59473 -0.11461,0.20162 -0.33614,0.20745 -0.53172,0.27865 -0.22721,0.0688 -0.43883,0.23835 -0.5061,0.47476 -0.0536,0.1053 -0.2063,0.43513 -0.33573,0.25298 -0.10576,-0.29968 0.0107,-0.61224 0.0499,-0.91343 0.0647,-0.17281 -0.0352,-0.49796 -0.25312,-0.33565 -0.17582,0.11069 -0.3321,0.24586 -0.48815,0.38259 l 0.0246,0.0366 0.0187,0.0672 0.0248,0.0365 -0.01,0.0306 -0.0112,0.0614 -0.01,0.0306 0.0494,0.0733 -0.0112,0.0614 0.0316,0.16539 -0.0112,0.0612 0.0188,0.0674 0.0494,0.0732 0.0128,0.0981 0.0188,0.0673 -0.0196,0.0917 0.0247,0.0366 -0.0234,0.12279 -0.0112,0.0614 -0.0112,0.0614 -0.0484,0.0861 2.2e-4,0.15937 -0.01,0.0305 -0.01,0.0305 0.081,0.23866 0.0186,0.0671 0.25229,0.1764 0.27015,0.0844 0.11754,0.21385 0.0997,0.30584 -0.0112,0.0616 -0.22568,0.17896 -0.17729,0.0928 -0.0306,0.15332 -0.0233,0.12281 0.0496,0.0732 0.0434,0.1041 0.0127,0.098 -0.0427,0.0552 -0.0112,0.0615 -0.0112,0.0614 -0.01,0.0305 -0.0196,0.0918 0.0248,0.0368 0.0186,0.0673 -0.0112,0.0615 -0.0112,0.0614 -0.01,0.0304 -0.0733,0.0497 -0.0196,0.0918 -0.0112,0.0614 0.0248,0.0365 -0.0112,0.0614 -0.0427,0.0552 -0.0366,0.0248 -0.01,0.0304 -0.0367,0.0247 -0.0792,0.0802 -0.15252,0.12948 -0.15847,0.16022 -0.10906,0.23347 0.0315,0.16539 -0.01,0.0305 -0.01,0.0305 0.0305,0.01 0.0928,0.17727 0.0305,0.01 0.0305,0.01 0.23944,0.0783 0.7619,0.339 0.0614,0.0112 0.14744,0.0605 0.25827,0.14565 0.11674,0.0545 0.24705,0.36637 0.30169,0.24963 0.1414,0.0912 0.24036,0.23776 0.0304,0.01 0.0187,0.0674 0.0247,0.0364 -0.0112,0.0616 -0.01,0.0306 -0.0365,0.0246 -0.13466,0.0376 -0.0672,0.0189 -0.0112,0.0614 -0.0485,0.0861 -0.0305,-0.01 -0.0427,0.0555 -0.0674,0.0188 -0.0672,0.0187 -0.0112,0.0615 0.0187,0.0671 -0.097,0.17223 -0.10987,0.074 -0.0428,0.0554 -0.01,0.0304 -0.0365,0.0248 0.0247,0.0366 0.0128,0.0978 -0.0853,0.11075 -0.0732,0.0497 -0.0306,-0.01 -0.23263,0.0505 -0.0615,-0.0112 -0.15925,2.3e-4 -0.12867,0.007 -0.0673,0.0188 -0.0427,0.0554 -0.0305,-0.01 -0.01,0.0304 -0.0426,0.0554 -0.0366,0.0246 -0.0427,0.0555 -0.0365,0.0248 -0.01,0.0304 -0.01,0.0305 -0.0112,0.0614 0.0247,0.0364 0.0188,0.0673 0.0247,0.0369 -0.0112,0.0614 -0.0485,0.0861 -0.17131,0.0621 -0.54445,0.1806 -0.29988,0.069 -0.0734,0.0493 -0.0428,0.0553 -0.0426,0.0555 -0.28035,0.29564 -0.0851,0.11079 -0.0973,0.17222 -0.2922,0.35698 -0.0673,0.0188 -0.0366,0.0248 -0.21991,0.14825 -0.0427,0.0554 -0.0365,0.0248 -0.01,0.0304 0.0187,0.0673 0.0376,0.13462 0.0938,0.3366 0.0315,0.16524 0.0937,0.33666 0.0622,0.17122 -0.0112,0.0614 -0.0112,0.0614 -0.0791,0.0802 -0.0427,0.0552 -0.0665,0.17817 -0.0112,0.0613 0.0555,0.0427 -0.0196,0.0918 -0.0548,0.1167 -0.0196,0.0918 0.0188,0.0673 0.0128,0.0979 -0.0724,0.20883 0.0126,0.0979 0.0801,0.0791 -0.0112,0.0616 0.0188,0.0673 -0.01,0.0306 -0.0366,0.0248 -0.0112,0.0613 0.007,0.12862 0.0305,0.01 -0.01,0.0304 0.0306,0.01 0.0189,0.0673 -0.01,0.0305 -0.01,0.0304 -0.01,0.0305 -0.0196,0.0918 0.0127,0.0978 -0.0196,0.0917 -0.22579,0.17901 -0.0427,0.0553 -0.035,0.18426 -0.0426,0.0552 -0.01,0.0306 -0.01,0.0305 0.007,0.12863 -0.0604,0.1474 0.0127,0.098 0.0742,0.1099 0.0187,0.0673 -0.01,0.0304 -0.0484,0.0861 -0.0427,0.0554 -0.10409,0.0434 -0.20194,0.0563 -0.0733,0.0494 -0.0427,0.0554 0.0247,0.0366 0.0937,0.33656 0.0742,0.10992 -0.0112,0.0615 -0.1406,0.0682 -0.0365,0.0248 -0.13381,0.19679 -0.14655,0.0989 -0.0304,-0.01 -0.0427,0.0554 -0.0306,0.15321 -0.01,0.0305 -0.17729,0.0929 -0.10388,0.0435 0.0189,0.0673 0.086,0.0486 0.0128,0.0979 -0.0606,0.14746 0.0128,0.0979 -0.0427,0.0554 -0.0305,-0.01 -0.01,0.0304 -0.0304,-0.01 -0.01,0.0305 -0.0615,-0.0112 -0.0305,-0.01 -0.0613,-0.0112 -0.28803,0.008 -0.01,0.0304 -0.01,0.0305 -0.01,0.0305 0.0493,0.0732 0.0435,0.10398 0.0248,0.0366 0.0187,0.0674 -0.0112,0.0612 -0.01,0.0305 -0.13377,0.19677 -0.0422,0.21473 -0.0426,0.0554 -0.0733,0.0493 -0.01,0.0305 0.0188,0.0674 0.0434,0.10386 2.1e-4,0.15939 -0.0112,0.0614 -0.0734,0.0496 -0.01,0.0304 -0.01,0.0305 -0.01,0.0305 0.0247,0.0366 0.0189,0.0672 0.0247,0.0366 0.0801,0.0792 0.0376,0.13462 0.0503,0.2327 0.0247,0.0364 -0.0112,0.0614 -0.01,0.0304 -0.0196,0.0917 -0.0112,0.0614 -0.0119,0.22074 -0.01,0.0305 -0.0112,0.0613 0.0188,0.0673 -0.0112,0.0615 -0.0912,0.14152 -0.12785,0.16602 0.0248,0.0366 -0.01,0.0304 0.16021,0.15848 0.0861,0.0484 0.1108,0.0851 -0.01,0.0305 0.0246,0.0365 -0.0196,0.0918 -0.0365,0.0247 -0.0546,0.11676 0.0433,0.10396 0.0187,0.0672 0.0684,0.1406 0.10653,0.43461 -0.0112,0.0614 -0.0725,0.20883 -0.0484,0.0861 -0.0365,0.0248 -0.0112,0.0614 -0.0118,0.22069 -0.0119,0.22073 0.0127,0.0978 0.0128,0.0979 0.0741,0.10999 0.19679,0.13379 0.0248,0.0365 0.0809,0.23863 0.4193,0.46351 -0.01,0.0304 0.0305,0.01 0.0554,0.0426 0.0305,0.01 0.0554,0.0427 0.0304,0.01 0.0555,0.0427 0.0247,0.0365 -0.01,0.0304 -0.0112,0.0616 -0.0305,-0.01 -0.01,0.0304 -0.01,0.0306 -0.0545,0.11672 -0.0112,0.0616 -0.01,0.0304 0.0248,0.0367 0.0553,0.0427 0.0555,0.0427 0.14819,0.21972 0.13554,0.12189 0.0614,0.0112 0.14138,0.0911 0.0247,0.0366 0.0248,0.0366 -0.01,0.0304 -0.01,0.0306 -0.0112,0.0614 -0.0486,0.0861 -0.0196,0.0919 0.0247,0.0366 0.0613,0.0112 0.0248,0.0366 -0.01,0.0305 0.0305,0.01 -0.0196,0.0917 -0.0112,0.0614 -0.0306,0.1533 -0.0351,0.18407 0.0127,0.098 0.0188,0.0673 0.0248,0.0366 0.0248,0.0364 -0.01,0.0305 -0.0546,0.11674 -0.0112,0.0616 0.11169,0.24452 0.0375,0.13461 0.0189,0.0673 0.12361,0.18316 0.08,0.0793 0.0248,0.0365 -0.0112,0.0615 -0.01,0.0305 0.0247,0.0366 -0.0196,0.0918 -0.0426,0.0553 -0.01,0.0305 -0.0974,0.17209 -0.0112,0.0614 0.0189,0.0673 0.0494,0.0733 0.0127,0.0978 -0.0365,0.0248 -0.0485,0.086 -0.13384,0.19688 -0.15767,0.3196 -0.0725,0.20874 -0.0853,0.11077 -0.15072,0.44814 0.0451,0.4227 0.0622,0.17132 0.007,0.12865 0.0128,0.0978 -0.004,0.19003 -0.0112,0.0614 -0.0112,0.0614 -0.0366,0.0246 -0.0367,0.0248 -0.0303,-0.01 -0.0674,0.0188 -0.0365,0.0247 -0.0233,0.12279 -0.0306,0.15321 -0.0852,0.11078 -0.01,0.0306 0.0128,0.0979 0.0684,0.14059 -0.0196,0.0918 -0.0196,0.0917 -0.0427,0.0552 -0.0539,0.27607 -0.12088,0.29488 -0.0427,0.0554 -0.10306,0.20278 -0.0112,0.0615 -0.01,0.0305 0.0187,0.0673 -0.01,0.0305 -0.01,0.0305 0.0248,0.0366 0.0247,0.0366 0.0613,0.0112 0.0305,0.01 0.0305,0.01 -0.0196,0.0917 -0.01,0.0305 -0.0168,0.25138 -0.0112,0.0615 -0.0426,0.0554 -0.0112,0.0615 0.12945,0.15251 0.008,0.28794 -0.0112,0.0616 -0.0912,0.1414 0.0188,0.0674 -0.0306,0.15332 -0.01,0.0305 -0.0421,0.2147 -0.085,0.11082 -0.01,0.0304 -0.0485,0.0861 -0.0305,-0.01 -0.0791,0.08 -0.1713,0.0621 -0.0615,-0.0112 -0.0365,0.0248 -0.01,0.0304 -0.0306,-0.01 -0.0365,0.0246 -0.0112,0.0614 -0.01,0.0304 0.0495,0.0732 -0.01,0.0305 2.2e-4,0.15937 -0.0196,0.0918 0.007,0.12866 0.0247,0.0366 0.0435,0.10399 0.0869,0.20787 0.0316,0.16531 0.0434,0.10395 0.0434,0.10409 0.0553,0.0427 0.0256,0.196 -0.0349,0.18416 -0.0168,0.25138 -0.01,0.0305 -0.15253,0.12956 -0.0427,0.0554 -0.0421,0.21473 0.0315,0.16526 -0.0112,0.0615 -0.01,0.0305 0.0247,0.0365 0.0366,-0.0246 0.0306,0.01 0.0553,0.0426 0.0684,0.14061 0.0186,0.0673 -0.0591,0.30685 -0.01,0.0304 0.1909,0.16447 0.22071,0.0119 0.0305,0.01 0.11675,0.0546 0.0305,0.01 0.0188,0.0674 0.0741,0.10989 0.0495,0.0733 0.15414,0.18907 0.0188,0.0674 0.0316,0.16529 0.1304,0.31179 0.0188,0.0673 0.0247,0.0365 0.0305,0.01 0.0615,0.0112 0.08,0.0792 0.16616,0.12782 0.0861,0.0486 -0.01,0.0306 0.0248,0.0364 0.0563,0.20198 0.0683,0.14057 0.0937,0.33658 -0.0421,0.21473 -0.01,0.0304 -0.01,0.0305 0.2351,0.42773 0.13552,0.1219 0.0494,0.0733 0.0563,0.20197 -0.0112,0.0614 -0.01,0.0305 -0.028,0.31269 0.11751,0.21394 2.2e-4,0.15931 0.1048,0.11593 0.0247,0.0366 -0.0234,0.12278 -0.0234,0.12282 -0.0233,0.12278 -0.0112,0.0615 0.0247,0.0366 -0.0168,0.25134 -0.01,0.0305 -0.10295,0.20289 -0.0112,0.0613 0.0304,0.01 -0.01,0.0305 0.0247,0.0366 -0.01,0.0305 0.0247,0.0366 0.086,0.0486 0.0615,0.0112 0.2394,0.0785 0.0613,0.0112 0.0305,0.01 -0.01,0.0305 0.0248,0.0367 0.074,0.10996 0.0128,0.0981 -0.01,0.0305 0.0187,0.0673 -0.0545,0.1167 -0.0196,0.0918 -0.0112,0.0615 -0.0196,0.0917 -0.0306,0.15331 0.0305,0.01 -0.01,0.0303 -0.01,0.0306 0.0554,0.0426 0.14745,0.0606 0.1108,0.085 0.0315,0.16536 0.0377,0.13465 0.26491,0.27427 0.0928,0.1773 0.0682,0.1406 0.17308,0.25643 0.0304,0.01 0.0246,0.0366 0.0555,0.0427 0.0303,0.01 0.0187,0.0671 0.0128,0.098 -0.01,0.0304 -0.0428,0.0554 -0.01,0.0305 -0.0112,0.0615 -0.0112,0.0614 0.0247,0.0366 0.0248,0.0366 0.0305,0.01 0.0187,0.0673 -0.0112,0.0614 -0.01,0.0304 -0.0112,0.0614 -0.0112,0.0615 -0.0112,0.0614 0.0188,0.0675 0.0494,0.0732 0.0802,0.0793 0.0248,0.0366 0.0187,0.0673 -0.0112,0.0614 -0.0112,0.0614 -0.0426,0.0555 -0.0365,0.0247 -0.0546,0.11674 -0.0196,0.0917 -0.0306,0.15322 0.007,0.12867 0.0128,0.0981 0.0928,0.17717 0.0623,0.17134 0.0188,0.0673 -0.0306,0.1532 -0.01,0.0305 0.0247,0.0366 -0.0112,0.0613 0.0248,0.0366 -0.01,0.0304 0.21651,0.36036 0.0188,0.0673 -0.0196,0.0917 -0.035,0.18419 0.0493,0.0733 0.0554,0.0426 0.0315,0.16528 -0.01,0.0305 -0.01,0.0306 0.0247,0.0364 0.0553,0.0426 0.0919,0.0196 0.0305,0.01 0.0734,-0.0494 0.0613,0.0112 0.0918,0.0196 0.0247,0.0366 0.20962,0.23169 0.0563,0.20202 0.0187,0.0672 0.19688,0.13382 0.15424,0.18908 0.10575,0.27523 0.0305,0.01 0.69272,0.0393 1.12825,0.0916 1.60614,0.0892 1.15887,0.0984 0.0305,0.01 0.25139,0.0168 0.0366,-0.0248 0.50271,0.0344 0.46624,0.0581 0.47203,0.0278 1.37955,0.10889 0.25733,-0.0137 0.12282,0.0233 0.2206,0.0118 1.28157,0.12218 0.15938,-2.2e-4 0.38006,0.0106 0.66201,0.0338 1.10354,0.0549 0.0305,0.01 0.12867,-0.007 2.29294,0.15933 0.66211,0.0338 0.0917,0.0196 2.36035,0.14061 0.75412,0.0508 0.12279,0.0234 0.0673,-0.0188 0.21463,0.0421 0.50871,0.004 z"
       id="GA-02"
       style="font-style:normal;font-weight:400;font-size:34.375px;font-family:'MS Shell Dlg 2';opacity:1;fill:none;fill-opacity:1;fill-rule:evenodd;stroke:#000000;stroke-width:0.33333385;stroke-linecap:square;stroke-linejoin:bevel;stroke-miterlimit:4;stroke-dasharray:none;stroke-opacity:1" />
    <path
       inkscape:connector-curvature="0"
       d="m 219.73088,344.60114 -1.88735,0.0471 -0.12864,0.007 -0.0673,0.0188 -0.92534,0.0113 -1.18872,0.0554 -0.19005,-0.004 -0.57601,0.0155 -0.28808,0.008 -0.0365,0.0247 -0.34941,-0.004 -0.0917,-0.0196 -0.29397,0.0383 -0.34934,-0.004 -2.32881,0.0248 -1.53209,0.0206 -1.18264,0.0249 -0.47809,0.003 2.2e-4,0.15926 -2.28617,-0.0309 -0.0613,-0.0112 -0.0979,0.0128 -0.56996,-0.0149 -0.60079,-0.0213 -0.3554,0.0264 -0.22057,-0.0119 -0.60665,0.009 -0.1228,-0.0232 -0.60673,0.009 -0.25734,0.0136 -0.1228,-0.0233 -0.44736,0.009 -0.66807,-0.003 -0.34935,-0.004 -0.60066,-0.0214 -0.386,0.0205 -0.60672,0.009 -0.374,-0.0418 -0.19598,0.0256 -1.39743,-0.0174 -0.15938,2.2e-4 -0.76008,-0.0203 -0.3493,-0.004 -0.82738,-0.002 -0.60079,-0.0213 -0.22059,-0.0119 -0.41674,0.0146 -0.63737,0.003 -1.4221,-0.0536 -0.50867,-0.004 -0.0673,0.0188 -0.28809,0.008 -0.28202,-0.0227 -0.0673,0.0188 -0.19005,-0.004 -0.2207,-0.0119 -0.0305,-0.01 -0.0365,0.0246 -1.39743,-0.0174 -1.2688,-0.0242 -1.36083,-0.0416 -1.24413,0.0128 -0.0918,-0.0196 -0.0304,-0.01 0.0386,3.73214 0.88714,0.84093 -1.3956,1.4479 -0.4831,1.33859 0.0455,5.00688 4.90891,-0.0326 -0.11543,1.41023 -1.23986,-0.33656 0.62546,1.20397 -0.86994,0.0536 -0.002,0.8275 1.62576,0.31602 0.57445,0.81195 -0.34001,0.6025 4.09426,0.0635 -0.0338,3.94096 c 0.9675,-0.0389 1.94949,-0.10365 2.53581,-0.27115 0.40223,-0.11495 0.74204,-0.21178 1.06512,-0.23875 0.32308,-0.0269 0.61964,0.0332 0.94495,0.21558 l 0.0556,2.33478 4.04255,1.80452 c 0,0 0,0 0,0 l 0.41148,0.17542 1.19719,-0.75411 0.27179,0.40296 c 0.14613,0.63976 0.5334,0.99059 1.03623,1.22014 0.50294,0.22959 1.12259,0.33885 1.66337,0.45067 0.49902,0.17482 1.11391,0.24563 1.66934,0.41995 0.55532,0.17448 1.05302,0.44877 1.30456,0.98583 -0.0112,0.35517 0.0621,0.5704 0.21218,0.70969 0.15025,0.13946 0.36862,0.19842 0.60157,0.1807 0.46611,-0.0354 1.01071,-0.32196 1.33274,-0.63231 0.53336,-0.14082 0.99649,0.0726 1.42982,0.34148 0.43334,0.26841 0.83986,0.59783 1.33356,0.67312 0.42942,-0.11325 0.99553,0.0254 1.45881,0.0285 0.23159,0.002 0.46013,-0.0444 0.60585,-0.1688 0.14566,-0.12428 0.23245,-0.33369 0.22919,-0.68758 0.37936,-0.45327 0.87943,-0.74356 1.42886,-0.96379 0.54943,-0.2203 1.11968,-0.37634 1.68286,-0.46879 0.46137,0.16734 0.94632,0.28174 1.43586,0.31093 0.48939,0.0296 0.98344,-0.003 1.46387,-0.16123 0.45758,-0.16665 0.91768,-0.1464 1.33607,0.005 0.41839,0.15152 0.82304,0.41345 1.12565,0.76006 0.62575,0.27239 1.26161,0.51876 1.94033,0.66374 0.67862,0.14477 1.39217,0.19959 2.0782,0.11689 0.66606,-0.35971 1.33359,-0.30535 1.99741,-0.12111 0.66376,0.18419 1.32201,0.50412 1.98282,0.60823 l 0.0112,-0.0614 -0.0309,-0.16526 -0.0558,-0.0428 -0.1108,-0.0851 -0.0744,-0.11005 -0.049,-0.0732 -0.0185,-0.0674 -0.0187,-0.0673 0.0424,-0.0554 0.0423,-0.0554 0.0364,-0.0247 0.01,-0.0305 0.01,-0.0305 -0.0245,-0.0365 -0.0303,-0.01 -0.11672,-0.0546 -0.0864,-0.0485 -0.0803,-0.0792 -0.0507,-0.23263 0.01,-0.0305 -0.0245,-0.0366 -0.0187,-0.0671 -0.0245,-0.0366 -0.0245,-0.0366 -0.0124,-0.0978 0.035,-0.18419 -0.0124,-0.098 -0.0245,-0.0364 -0.16624,-0.12792 -0.16607,-0.12779 -0.0869,-0.20791 -0.13552,-0.12188 -0.0429,-0.10374 -0.0185,-0.0671 0.01,-0.0305 -0.12959,-0.15251 -0.0548,-0.0426 -0.0301,-0.01 -0.0365,0.0248 -0.0303,-0.01 -0.0303,-0.01 -0.0303,-0.01 -0.0864,-0.0486 -0.10482,-0.11583 0.01,-0.0305 -0.0185,-0.0673 -0.0245,-0.0364 0.0196,-0.0918 0.0423,-0.0555 0.0603,-0.14751 0.01,-0.0306 -0.0245,-0.0364 0.0112,-0.0616 -0.0245,-0.0365 -0.12958,-0.15254 -0.0245,-0.0364 -0.0921,-0.0196 -0.061,-0.0112 -0.11075,-0.0854 -0.0124,-0.0978 -0.0303,-0.01 -0.0245,-0.0366 -0.049,-0.073 -0.0495,-0.0734 -0.0246,-0.0366 -0.0316,-0.16526 -0.16698,-0.28716 -0.0248,-0.0366 -0.23944,-0.0785 -0.0741,-0.10989 -0.0615,-0.0112 -0.0673,0.0188 -0.0917,-0.0196 -0.11673,-0.0545 -0.24631,-0.20713 -0.086,-0.0484 -0.1126,-0.40392 0.01,-0.0304 -0.0493,-0.0734 -0.0189,-0.0672 -0.12958,-0.15254 -0.0188,-0.0673 -0.0188,-0.0672 0.004,-0.34942 -0.0187,-0.0673 -0.18574,-0.35447 0.01,-0.0305 -0.0247,-0.0366 -0.0128,-0.0978 0.0233,-0.12279 0.01,-0.0305 -0.0928,-0.17727 0.0112,-0.0613 0.0486,-0.0861 -0.0503,-0.23268 -0.0127,-0.0978 -0.0188,-0.0673 0.042,-0.21471 -0.0434,-0.10399 -0.0434,-0.10388 -0.0435,-0.10399 0.01,-0.0305 0.0426,-0.0554 -0.0683,-0.1406 -0.13553,-0.12181 -0.16011,-0.15845 -0.0247,-0.0366 -0.0367,0.0248 -0.1414,-0.0912 -0.0742,-0.10999 -0.0246,-0.0366 -0.12352,-0.18315 -0.0317,-0.1654 -0.11755,-0.21385 -0.11844,-0.37324 0.01,-0.0304 -0.0189,-0.0673 0.0196,-0.0918 0.01,-0.0305 -0.0305,-0.01 -0.0563,-0.20197 0.01,-0.0304 -0.0246,-0.0367 -0.0614,-0.0112 -0.30161,-0.24964 -0.1108,-0.085 -0.19092,-0.16446 -0.22754,-0.13972 -0.0304,-0.01 -0.0248,-0.0366 0.0196,-0.0918 -0.007,-0.12867 0.01,-0.0306 -0.0305,-0.01 -0.0256,-0.19598 0.01,-0.0305 -0.0683,-0.14061 -0.0248,-0.0366 -0.0247,-0.0366 -0.0247,-0.0364 0.01,-0.0305 0.01,-0.0304 0.0196,-0.0917 -0.0246,-0.0366 0.01,-0.0304 -0.0998,-0.30585 -0.0248,-0.0364 -0.0135,-0.25731 -0.0189,-0.0674 0.01,-0.0304 -0.0305,-0.01 -0.0494,-0.0733 -0.0683,-0.14062 -0.0265,-0.35528 -0.0246,-0.0366 -0.0742,-0.1099 -0.0247,-0.0366 -0.0128,-0.0979 0.0196,-0.0918 -0.0306,-0.01 0.01,-0.0304 -0.0917,-0.0196 -0.23346,-0.10917 -0.0189,-0.0672 0.0112,-0.0616 0.0365,-0.0246 0.0112,-0.0614 -0.0495,-0.0733 -0.0247,-0.0366 -0.14136,-0.0913 -0.467,-0.2181 -0.13465,0.0378 -0.33664,0.0936 -0.0614,-0.0112 -0.0802,-0.0792 -0.28202,-0.0227 -0.15846,0.16009 -0.14655,0.0989 -0.1603,-0.15851 -0.098,0.0128 -0.34932,-0.004 -0.26925,0.075 -0.0305,-0.01 -0.01,0.0305 -0.0426,0.0555 -0.01,0.0305 -0.01,0.0305 -0.0112,0.0615 -0.0305,-0.01 -0.12866,0.007 -0.0614,-0.0112 -0.57176,-0.33404 -0.0733,0.0497 -0.0614,-0.0112 -0.19081,-0.16441 -0.1048,-0.11595 -0.0435,-0.10407 -0.0741,-0.10988 -0.0495,-0.0734 -0.0615,-0.0112 -0.17729,0.0929 -0.0859,-0.0484 -0.13555,-0.1219 -0.3016,-0.24965 0.0112,-0.0614 0.22576,-0.17903 -0.0304,-0.01 0.01,-0.0305 -0.12958,-0.15251 -0.0306,-0.01 -0.0554,-0.0427 -0.12279,-0.0233 -0.01,0.0304 -0.0979,0.0126 -0.12281,-0.0232 -0.0246,-0.0366 -0.0188,-0.0673 0.0196,-0.0918 -0.15424,-0.18919 -0.0742,-0.10992 -0.23431,-0.26843 -0.11077,-0.0851 -0.0366,0.0247 -0.19689,-0.13379 -0.0554,-0.0426 -0.29566,-0.28037 -0.0384,-0.29393 -0.33748,-0.0657 -0.0247,-0.0366 -0.0304,-0.01 0.004,-0.19002 0.0196,-0.0917 0.0112,-0.0614 0.01,-0.0305 -0.0614,-0.0112 -0.0247,-0.0366 -0.0614,-0.0112 -0.0305,-0.01 -0.0613,-0.0112 -0.39794,0.0819 -0.0801,-0.0791 -0.27018,-0.0845 -0.23256,0.0503 -0.12278,-0.0232 -0.0615,-0.0112 -0.0305,-0.01 -0.0305,-0.01 -0.0247,-0.0366 -0.14151,-0.0911 -0.086,-0.0485 0.035,-0.1842 -0.0801,-0.0791 -0.0682,-0.1406 -0.19093,-0.16445 -0.14737,-0.0605 -0.24553,-0.0469 -0.14142,-0.0911 -0.0496,-0.0734 -0.0553,-0.0427 -0.0861,-0.0484 -0.0247,-0.0367 -0.11675,-0.0545 -0.20365,-0.26241 -0.0128,-0.098 -0.0494,-0.0734 -0.12278,-0.0233 -0.12871,0.007 -0.0304,-0.01 -0.0377,-0.13467 -0.0247,-0.0366 -0.0554,-0.0426 -0.086,-0.0484 -0.0248,-0.0367 -0.0918,-0.0196 -0.0306,-0.01 -0.0979,0.0129 -0.0861,-0.0485 0.01,-0.0306 -0.0188,-0.0672 0.01,-0.0304 -0.0188,-0.0673 -0.0554,-0.0426 -0.0494,-0.0734 -0.0555,-0.0427 -0.0246,-0.0365 -0.0248,-0.0369 -0.0247,-0.0366 0.0112,-0.0613 0.0427,-0.0554 0.01,-0.0305 0.01,-0.0305 -0.0495,-0.0734 -0.0315,-0.16525 -0.0248,-0.0366 0.01,-0.0304 -0.0264,-0.35528 0.01,-0.0304 0.0725,-0.20873 0.25049,-0.1424 0.15845,-0.16011 0.0912,-0.14149 0.19504,-0.18487 -0.0314,-0.16537 0.0168,-0.25139 -0.0758,-0.42864 -0.0305,-0.01 0.24967,-0.30162 0.23255,-0.0503 0.0734,-0.0496 -0.007,-0.12867 -0.0494,-0.0732 0.01,-0.0304 0.01,-0.0305 0.0365,-0.0246 0.0367,-0.0246 0.0305,0.01 0.0305,0.01 0.0673,-0.0188 0.0548,-0.11675 0.0196,-0.0918 0.0112,-0.0616 0.15321,0.0306 0.0186,0.0674 0.16628,0.12783 0.10378,-0.0435 0.0852,-0.11076 -0.001,-0.31873 -0.0433,-0.10375 0.047,-0.24551 0.0673,-0.0188 0.0673,-0.0188 0.0247,0.0366 0.0305,0.01 0.0306,0.01 0.0672,-0.0188 0.0306,0.01 0.0112,-0.0612 0.0306,-0.15333 0.0485,-0.086 0.0426,-0.0554 0.0305,0.01 0.01,-0.0304 -0.0187,-0.0673 0.0112,-0.0613 0.0427,-0.0554 0.0674,-0.0188 0.0305,0.01 0.0547,-0.11672 0.0112,-0.0613 -0.0247,-0.0367 0.0112,-0.0614 0.01,-0.0304 0.13465,-0.0377 0.0732,-0.0494 0.0306,0.01 0.18408,0.035 0.0305,0.01 0.12182,-0.13555 0.0803,0.0792 0.12277,0.0234 0.0912,-0.14142 -0.0928,-0.17729 0.0485,-0.086 0.0305,0.01 0.10398,-0.0435 0.01,-0.0305 0.0426,-0.0554 0.0614,0.0112 0.0366,-0.0248 0.10398,-0.0433 0.12179,-0.13558 0.0112,-0.0614 0.0428,-0.0554 0.0366,-0.0248 0.0672,-0.0188 0.01,-0.0305 0.0792,-0.0801 0.0484,-0.0861 0.01,-0.0305 0.0304,0.01 0.0366,-0.0246 0.0306,0.01 0.0918,0.0196 0.0427,-0.0554 0.0546,-0.11672 0.0733,-0.0494 0.0673,-0.0188 0.14735,0.0606 0.0674,-0.0188 0.25046,-0.14234 0.0112,-0.0614 -0.0189,-0.0673 0.0112,-0.0614 0.0366,-0.0248 0.0613,0.0112 0.0674,-0.0186 0.0366,-0.0246 0.0112,-0.0614 -0.0248,-0.0366 0.01,-0.0304 -0.0305,-0.01 0.01,-0.0305 -0.1048,-0.11582 -0.007,-0.12863 0.0734,-0.0495 0.0853,-0.11081 -0.0377,-0.13459 0.0234,-0.12281 0.20112,-0.21558 0.0604,-0.14742 0.0733,-0.0494 0.035,-0.1842 0.0196,-0.0917 -0.0434,-0.10379 -0.0683,-0.1406 z"
       id="GA-09"
       style="font-style:normal;font-weight:400;font-size:34.375px;font-family:'MS Shell Dlg 2';opacity:1;fill:none;fill-opacity:1;fill-rule:evenodd;stroke:#000000;stroke-width:0.33333385;stroke-linecap:square;stroke-linejoin:bevel;stroke-miterlimit:4;stroke-dasharray:none;stroke-opacity:1" />
    <path
       inkscape:connector-curvature="0"
       d="m 232.61899,373.94312 c -0.66077,-0.10415 -1.31903,-0.42397 -1.98274,-0.60821 -0.66385,-0.18427 -1.33133,-0.23887 -1.99746,0.12108 -0.68602,0.0824 -1.39956,0.0275 -2.07822,-0.11689 -0.67871,-0.14501 -1.31457,-0.39133 -1.94028,-0.66374 -0.30264,-0.34662 -0.70729,-0.60853 -1.1257,-0.76007 -0.41836,-0.1514 -0.87848,-0.1716 -1.33606,-0.005 -0.48042,0.15823 -0.97443,0.19036 -1.46386,0.16123 -0.4895,-0.0298 -0.97442,-0.1441 -1.43582,-0.31093 -0.56318,0.0924 -1.13348,0.24848 -1.6829,0.46879 -0.54944,0.22023 -1.04951,0.51054 -1.42886,0.96379 0.003,0.35389 -0.083,0.56337 -0.22919,0.68759 -0.14572,0.12438 -0.37425,0.17054 -0.60583,0.16878 -0.46328,-0.003 -1.02947,-0.14157 -1.45882,-0.0285 -0.49369,-0.0755 -0.90023,-0.4047 -1.33356,-0.67311 -0.43337,-0.26832 -0.89645,-0.48231 -1.42982,-0.34148 -0.32203,0.31034 -0.86662,0.59689 -1.33274,0.63232 -0.23295,0.0176 -0.4513,-0.0416 -0.60158,-0.18067 -0.15018,-0.13933 -0.22396,-0.35457 -0.21216,-0.70973 -0.25156,-0.53707 -0.74928,-0.8114 -1.30458,-0.98584 -0.55541,-0.17441 -1.17031,-0.24517 -1.66932,-0.41994 -0.54075,-0.11214 -1.16037,-0.2215 -1.66339,-0.45067 -0.50282,-0.22956 -0.89009,-0.58041 -1.03623,-1.22014 l -0.2718,-0.40297 -1.19717,0.75414 -0.41149,-0.17544 c -0.20004,0.17646 -0.43247,0.346 -0.64081,0.51211 -0.21502,0.18601 -0.51554,0.3788 -0.51717,0.69531 0.0588,0.3677 0.66212,0.34774 0.69026,0.7072 -0.185,0.24726 -0.37508,0.4774 -0.49848,0.76259 -0.28627,0.59388 -0.26239,1.32947 0.0778,1.89344 0.071,0.21224 0.42733,0.45865 0.21812,0.67908 -0.10344,0.2134 -0.30578,0.52857 -0.076,0.71749 0.34895,0.0906 0.72397,0.11874 1.07965,0.17807 0.11703,0.0228 0.13455,0.0527 0.40552,0.20619 l -1.26865,1.12226 c 0,0 0,0 0,0 l -1.80554,1.591 4.52917,3.39528 c -0.21873,0.88647 -0.70382,1.68334 -1.12036,2.48825 -0.45375,0.75939 -0.85185,1.56065 -1.47738,2.19596 -0.72275,0.26302 -1.52285,0.52923 -2.29645,0.34944 -0.31064,-0.0754 -0.52211,-0.2756 -0.69531,-0.51721 -0.1732,-0.24146 -0.3132,-0.51063 -0.45767,-0.75742 -0.12194,-0.2521 -0.3087,-0.39772 -0.54196,-0.48737 -0.21453,-0.0824 -0.47472,-0.12533 -0.69955,-0.16775 -0.004,0.0333 0.0162,0.0659 0.0128,0.0979 -0.0256,0.25099 -0.1196,0.44792 -0.43288,0.42522 -0.23428,-0.0504 -0.39278,0.0547 -0.48911,0.22328 -0.0964,0.16849 -0.13609,0.39753 -0.14403,0.57691 -0.0605,0.21512 0.0473,0.39436 0.10749,0.59381 0,0 0,0 0,0 0.0613,0.20356 0.0942,0.40958 0.13805,0.59997 -0.34531,0.31899 -0.69884,0.69909 -0.5879,1.2227 -0.0438,0.23099 0.0399,0.41951 0.17475,0.5752 0.13489,0.15569 0.31033,0.28016 0.50445,0.35274 0.28914,0.14451 0.64115,0.22122 0.95182,0.34424 0.31065,0.12294 0.59599,0.29015 0.77548,0.59632 0.17898,0.26828 0.19136,0.58765 0.0844,0.87601 -0.10703,0.28837 -0.32537,0.55124 -0.63393,0.64081 -0.29706,-0.007 -0.4208,0.14609 -0.48221,0.35195 -0.0614,0.20586 -0.0784,0.46187 -0.21728,0.62635 -0.27663,0.32152 -0.62593,0.66305 -0.57002,1.13071 -1e-4,0.23507 -0.0878,0.44634 -0.13121,0.67487 l 2.18824,0.0432 0,0 4.6891,0.11565 0.67923,2.07391 9.10536,-1.47727 1.89636,7.27686 4.34736,-1.89287 c 0.18175,-0.11064 0.42438,-0.23626 0.65435,-0.25482 0.23003,-0.0184 0.44316,0.0713 0.57773,0.3034 0.18331,0.35764 0.27791,0.77445 0.63071,1.01396 0.47051,0.30092 0.88904,0.70684 1.09746,1.23205 0.29029,0.66061 0.66802,1.31523 1.29025,1.7151 0.58976,0.49778 0.75644,1.30185 0.97926,2.00499 0.20471,0.59979 0.25792,1.24744 0.11422,1.86864 -0.01,0.0514 -0.0198,0.10194 -0.0306,0.15321 l 2.17449,-0.21403 1.78779,0.7933 -0.0508,0.75417 2.83848,1.2839 -0.0405,2.6662 c 0.59867,0.0105 1.21951,0.0772 1.80131,-0.0955 0.36927,-0.008 0.53875,-0.0658 0.59997,-0.13807 0.0609,-0.0724 0.0205,-0.14438 -0.075,-0.26927 -0.18667,-0.24919 -0.5262,-0.6152 -0.41001,-1.00285 0.0953,-0.32803 0.32262,-0.56593 0.62718,-0.76946 0.30443,-0.20365 0.68724,-0.36447 1.02668,-0.53268 0.33947,-0.16823 0.64279,-0.34622 0.84275,-0.56845 0.19987,-0.22214 0.28085,-0.49356 0.16699,-0.85893 -0.29081,-0.13789 -0.3447,-0.30943 -0.29059,-0.47026 0.0536,-0.16094 0.22519,-0.29852 0.40205,-0.43121 0.35384,-0.26547 0.73042,-0.42343 0.24379,-0.27099 -0.20839,-0.31778 0.0365,-0.73572 0.41054,-1.12992 0.37408,-0.39414 0.87513,-0.7717 1.15293,-1.01749 -0.16663,-0.3487 -0.16493,-0.58115 -0.047,-0.7413 0.1177,-0.16018 0.33834,-0.26153 0.60501,-0.32807 0.53342,-0.13307 1.24614,-0.16466 1.56016,-0.49256 0.3075,-1.32518 0.78869,-2.63983 0.78108,-4.0186 -0.13852,-0.84955 -0.0666,-1.69996 0.0783,-2.53158 0.14456,-0.83169 0.36575,-1.65104 0.51342,-2.47876 0.14524,-0.64249 0.22358,-1.44949 0.0682,-2.15155 -0.0779,-0.35114 -0.22999,-0.69313 -0.45253,-0.94755 -0.22243,-0.25442 -0.50274,-0.44492 -0.91603,-0.52829 -0.49213,-0.086 -0.74308,-0.2141 -0.81718,-0.38165 -0.074,-0.1675 0.0163,-0.35256 0.17513,-0.57078 0.31675,-0.43678 0.9079,-0.9665 1.04034,-1.4214 -0.28733,-0.35465 -0.63192,-0.8778 -0.72442,-1.35055 -0.0468,-0.23648 -0.03,-0.43234 0.089,-0.6194 0.1189,-0.18702 0.32952,-0.3535 0.69013,-0.43887 0.24341,-0.22927 0.28776,-0.46105 0.19799,-0.69376 -0.0893,-0.23253 -0.29679,-0.45673 -0.50024,-0.70205 -0.20344,-0.24535 -0.41986,-0.50184 -0.51892,-0.76945 -0.0992,-0.26756 -0.0875,-0.56562 0.13664,-0.86483 0.50774,-0.663 1.2122,-1.01159 1.97252,-1.30376 0.34514,-0.13259 0.68522,-0.27647 1.03357,-0.40404 l -0.26504,-0.27431 0.01,-0.0305 -0.10655,-0.43451 0.028,-0.31277 -0.0125,-0.0978 -0.0124,-0.098 -0.19687,-0.13383 -0.0185,-0.0673 -0.0683,-0.14062 -0.11753,-0.21395 -0.0245,-0.0365 -0.11077,-0.0854 -0.0549,-0.0426 -0.10485,-0.11584 -0.0187,-0.0672 -0.11077,-0.0852 -0.0565,-0.20199 0.01,-0.0304 0.0351,-0.18426 -0.0818,-0.39793 -0.0185,-0.0673 -0.043,-0.10383 0.01,-0.0304 -0.13636,-0.28118 -0.025,-0.19599 -0.18497,-0.19509 -0.0921,-0.0196 -0.12282,-0.0233 -0.0185,-0.0672 -0.0245,-0.0366 -0.0245,-0.0365 0.01,-0.0305 -0.0303,-0.01 -0.0609,-0.0112 -0.1721,-0.0973 -0.0245,-0.0365 -0.049,-0.0732 -0.0245,-0.0366 -0.1108,-0.0851 -0.0548,-0.0427 -0.0301,-0.01 -0.062,-0.0112 -0.0668,0.0189 -0.0864,-0.0486 -0.0186,-0.0674 0.01,-0.0303 0.0168,-0.25133 -0.0245,-0.0366 0.01,-0.0304 0.01,-0.0305 -0.0245,-0.0365 -0.0549,-0.0426 0.01,-0.0305 -0.0303,-0.01 -0.14142,-0.091 -0.0802,-0.0794 -0.0548,-0.0426 0.01,-0.0304 -0.0302,-0.01 -0.049,-0.0733 -0.1602,-0.15848 -0.0864,-0.0485 -0.0559,-0.0427 -0.11672,-0.0547 -0.0548,-0.0425 -0.0559,-0.0427 -0.16011,-0.15846 -0.11674,-0.0546 -0.0863,-0.0486 -0.061,-0.0112 -0.26419,-0.11508 -0.0608,-0.0112 -0.0558,-0.0427 -0.12351,-0.18323 -0.14139,-0.0912 -0.14749,-0.0604 -0.11074,-0.0854 -0.10482,-0.11582 -0.0864,-0.0486 -0.0921,-0.0196 -0.13464,0.0376 -0.0669,0.019 -0.0303,-0.01 -0.01,0.0304 -0.0921,-0.0196 -0.12278,-0.0233 -0.0303,-0.01 -0.0301,-0.01 -0.0245,-0.0364 -0.18497,-0.19508 -0.0549,-0.0427 -0.1781,-0.0664 -0.16614,-0.12779 -0.0743,-0.10991 -0.0303,-0.01 -0.25226,-0.17637 -0.24026,-0.23781 -0.0245,-0.0366 -0.28303,-0.18235 -0.0743,-0.10999 -0.0625,-0.17129 -0.12362,-0.18314 -0.0988,-0.14657 -0.12363,-0.18325 -0.25216,-0.17637 -0.0609,-0.0112 -0.0669,0.0189 -0.0609,-0.0112 -0.0668,0.0188 -0.0365,0.0247 -0.0677,0.0188 -0.1042,0.0433 -0.2642,-0.11502 -0.0609,-0.0112 -0.16111,-0.31787 -0.049,-0.0731 -0.0185,-0.0673 z"
       id="GA-10"
       style="font-style:normal;font-weight:400;font-size:34.375px;font-family:'MS Shell Dlg 2';opacity:1;fill:none;fill-opacity:1;fill-rule:evenodd;stroke:#000000;stroke-width:0.33333385;stroke-linecap:square;stroke-linejoin:bevel;stroke-miterlimit:4;stroke-dasharray:none;stroke-opacity:1" />
    <path
       inkscape:connector-curvature="0"
       d="m 188.685,361.99694 -3.5609,-0.0236 -0.04,-0.61269 -9.87335,0.0227 -0.0231,1.2688 -0.4908,-0.0956 -0.13202,3.95377 -0.36808,-0.0718 -0.13949,3.66572 7.15338,0.21257 0.008,3.72626 0.35528,-0.0264 -0.0109,1.36671 c 0.76805,0.15133 1.52593,0.34755 2.30067,0.44721 0.48334,-0.10734 0.93275,-0.21783 1.33698,0.1645 0.2144,0.0107 0.35611,-0.3122 0.51798,-0.53602 0.0811,-0.11198 0.17541,-0.19132 0.26248,-0.20364 0.0869,-0.0123 0.16504,0.0512 0.27099,0.24359 0.35165,0.24857 0.31132,0.6001 0.23187,0.93644 -0.0795,0.33639 -0.18092,0.64565 0.0785,0.90661 0.15404,0.18074 0.37086,0.29999 0.59047,0.40134 0,0 0,0 0,0 0.0731,0.0337 0.12142,0.11547 0.19689,0.13374 0.30171,0.0731 0.61926,-4.9e-4 0.85628,-0.31103 0.50357,-0.3851 1.09585,-0.69812 1.73653,-0.74484 0.0908,0.0218 0.1853,0.032 0.27608,0.0539 0.009,-0.0521 0.0244,-0.10077 0.0306,-0.15322 0.0564,-0.41012 0.0446,-0.86828 -0.24551,-1.19378 -0.0508,-0.29777 -0.21347,-0.41485 -0.41926,-0.46351 -0.2057,-0.0491 -0.45274,-0.0119 -0.67398,0.0281 -0.2981,-0.10461 -0.46521,0.0277 -0.61186,0.19939 -0.14659,0.17171 -0.26322,0.36988 -0.49415,0.41332 -0.31335,-0.0661 -0.33036,-0.27989 -0.27867,-0.53166 0.0516,-0.25186 0.1819,-0.52736 0.0758,-0.71751 -0.25257,-0.061 -0.56144,-0.0651 -0.80355,-0.12422 -0.24205,-0.0597 -0.42735,-0.1677 -0.51132,-0.48141 -0.23269,-0.0843 -0.35721,-0.24036 -0.39453,-0.42681 -0.0373,-0.18644 0.0186,-0.41934 0.15004,-0.60754 0.14568,-0.47052 -0.23975,-0.92901 -0.36903,-1.377 -0.0987,-0.13992 -0.27744,-0.37615 -0.35883,-0.61089 -0.0814,-0.23475 -0.0464,-0.46235 0.2547,-0.49164 0.49299,0.0831 0.94409,0.29536 1.45372,0.21884 0.52126,-0.0412 1.00752,0.1705 1.51503,0.23072 0.33339,0.005 0.34907,-0.18489 0.30422,-0.41844 -0.0448,-0.23355 -0.14527,-0.49726 -0.0283,-0.67392 0.31744,-0.28918 0.75239,-0.55262 1.19886,-0.43559 0.0292,-0.27566 0.009,-0.66104 0.0621,-0.97475 -0.007,-0.22683 0.0366,-0.4665 0.16191,-0.66899 0.1254,-0.20238 0.3194,-0.36088 0.58023,-0.36467 0.63734,0.0935 1.27385,0.22368 1.91379,0.30813 l 0.0161,-1.55674 c 0,0 0,0 0,0 l 0.0338,-3.94096 -4.09429,-0.0635 z"
       id="GA-11"
       style="font-style:normal;font-weight:400;font-size:34.375px;font-family:'MS Shell Dlg 2';opacity:1;fill:#000000;fill-opacity:1;fill-rule:evenodd;stroke:#000000;stroke-width:0.33333385;stroke-linecap:square;stroke-linejoin:bevel;stroke-miterlimit:4;stroke-dasharray:none;stroke-opacity:1" />
    <path
       inkscape:connector-curvature="0"
       d="m 241.74729,383.48519 c -0.34835,0.12757 -0.68843,0.27141 -1.03356,0.40401 -0.76034,0.29218 -1.4648,0.64078 -1.97252,1.30378 -0.22381,0.29927 -0.2354,0.59737 -0.13664,0.86482 0.0991,0.26761 0.31548,0.52411 0.51891,0.76947 0.20341,0.24529 0.41097,0.46953 0.50022,0.70202 0.0892,0.23262 0.0449,0.4644 -0.19797,0.69379 -0.36063,0.0853 -0.57167,0.25173 -0.69015,0.43887 -0.11889,0.18704 -0.13457,0.38315 -0.089,0.61939 0.0925,0.47272 0.43707,0.9959 0.7244,1.35053 -0.13224,0.45494 -0.72356,0.98465 -1.04034,1.42141 -0.15846,0.21827 -0.24873,0.40335 -0.17514,0.57077 0.0741,0.16752 0.32506,0.29576 0.8172,0.38166 0.4133,0.0833 0.69361,0.27385 0.91605,0.52829 0.2225,0.25442 0.37457,0.5964 0.45249,0.94756 0.1561,0.70216 0.077,1.50901 -0.0682,2.15152 -0.14799,0.8277 -0.36901,1.64706 -0.51344,2.4788 -0.14554,0.8315 -0.21683,1.68203 -0.0783,2.53157 0.008,1.37877 -0.47384,2.69337 -0.78106,4.01859 -0.31404,0.3279 -1.02675,0.35949 -1.56017,0.49256 -0.26668,0.0666 -0.48698,0.16797 -0.60503,0.32808 -0.1177,0.16019 -0.1201,0.3925 0.047,0.7413 -0.27782,0.24581 -0.77885,0.62335 -1.15294,1.01748 -0.37399,0.3942 -0.61893,0.81214 -0.41053,1.12995 0.48661,-0.15247 0.11004,0.006 -0.24378,0.27095 -0.1769,0.13269 -0.3481,0.27035 -0.4021,0.43122 -0.0536,0.1609 -8e-4,0.33231 0.29062,0.47027 0.11388,0.36536 0.0329,0.63678 -0.16708,0.8589 -0.19997,0.22223 -0.50331,0.40023 -0.84273,0.56845 -0.33946,0.16821 -0.72227,0.32904 -1.02672,0.53268 -0.30452,0.20354 -0.53201,0.44142 -0.62715,0.76947 -0.11615,0.38768 0.22329,0.75366 0.40998,1.00286 0.0932,0.12458 0.13612,0.197 0.075,0.26926 -0.0608,0.0725 -0.23073,0.12987 -0.59999,0.13808 -0.58183,0.17314 -1.20265,0.10615 -1.80132,0.0955 l 0.0405,-2.66619 -2.8385,-1.2839 0.0508,-0.75416 -1.78778,-0.79333 -2.17447,0.21404 c 0,0 0,0 0,0 l -0.0669,0.0189 -6.47745,3.51616 5.68087,12.37378 2.50511,-1.42313 0.48056,0.47543 -1.68877,1.64549 c 0.45391,0.35015 1.00368,0.55164 1.48275,1.05226 0.44284,0.4627 0.67586,0.20405 0.88528,0.52232 1.33659,0.76356 2.44811,1.87352 3.65571,2.8116 0.41703,0.25129 0.7139,0.47852 0.88024,0.71234 0.16646,0.23388 0.21044,0.46348 0.12615,0.66121 -0.16854,0.39551 -0.84154,0.71212 -2.01162,0.85048 -1.13472,1.30743 -2.01095,1.77402 -3.30606,2.92289 -0.39678,0.25256 -2.1233,0.12087 -2.78296,-0.0952 -0.0657,1.19687 -0.13738,2.41536 -0.31795,3.5992 -0.31925,0.72153 -1.08445,1.15257 -1.30099,1.94375 -0.2367,0.60182 -0.37719,1.28689 -0.59641,1.92152 -0.21909,0.63454 -0.50983,1.19691 -1.13138,1.56283 -0.48787,0.12949 -0.72705,0.31069 -0.74467,0.55553 -0.0176,0.2449 0.17912,0.5783 0.50183,1.0208 l 7.25827,0.3285 0.65105,1.39995 4.44287,-0.0914 -0.0969,-8.83717 2.69005,-0.0819 -0.0427,-1.09069 0.56406,0.0466 c 0.9441,1.08916 2.14014,1.76876 3.55683,2.66514 0.70828,0.44819 1.48924,0.93974 2.30076,1.5933 0.81149,0.65354 1.67037,1.44651 2.57519,2.47432 l 0.60662,-0.009 -0.18794,-8.69561 1.04216,0.0434 c 0,0 -0.16972,-0.11849 -0.0938,-0.3365 0.076,-0.21798 0.13742,-0.43934 0.19207,-0.66312 0.0773,-0.309 0.21767,-0.47366 0.42601,-0.55389 0.20833,-0.0802 0.47277,-0.0889 0.73532,-0.0163 0.52514,0.14561 1.08268,0.53572 1.36511,0.83838 0.16601,-0.0936 0.60434,-1.16316 1.02758,-1.51934 0.54866,-0.58903 0.83856,-1.30952 1.09823,-2.04683 0.25966,-0.73723 0.49609,-1.49146 0.9261,-2.14391 0.29278,-0.4398 0.66698,-0.78313 1.09741,-1.06007 0.43046,-0.27696 0.91443,-0.48697 1.39995,-0.65104 0.31901,-0.22292 0.38745,-0.47816 0.33314,-0.73115 -0.0543,-0.25304 -0.22478,-0.49501 -0.42694,-0.75159 -0.20216,-0.25648 -0.43098,-0.51123 -0.5556,-0.74471 -0.12465,-0.23338 -0.1512,-0.44756 0.027,-0.63143 l 8.14333,-2.58743 0.11155,-0.90154 c 0.11675,-0.20792 0.23969,-0.2258 0.37912,-0.1491 0.13943,0.0768 0.29055,0.25107 0.45595,0.43876 0.16532,0.1878 0.34154,0.39278 0.53599,0.51808 0.19437,0.1253 0.42967,0.17468 0.65602,0.0645 0.5135,-0.25033 0.82951,-0.69885 1.09066,-1.18874 0.26108,-0.48988 0.45195,-1.00543 0.75822,-1.44435 0.3979,-0.51708 0.9354,-0.84373 1.52014,-1.10527 0.20631,-0.0923 0.41163,-0.17801 0.62361,-0.26078 l -0.0548,-0.0426 0.0543,-0.11678 0.0118,-0.22061 -0.0685,-0.14063 -0.22832,-0.29905 -0.13555,-0.12181 -0.0744,-0.11003 -0.17898,-0.2258 -0.0937,-0.33657 0.0425,-0.0554 0.0668,-0.0188 0.0424,-0.0553 0.01,-0.0306 0.0112,-0.0614 0.01,-0.0304 -0.0245,-0.0366 -0.0244,-0.0366 0.01,-0.0304 0.0112,-0.0614 0.0364,-0.0249 0.0728,-0.0494 0.11613,-0.10475 0.134,-0.19686 0.01,-0.0304 -0.0244,-0.0366 -0.0303,-0.01 -0.0668,0.0188 -0.0668,0.0188 -0.14139,-0.0912 -0.29578,-0.28026 -0.35789,-0.45161 -0.16615,-0.12788 -0.12354,-0.18313 -0.0124,-0.098 0.01,-0.0304 0.0424,-0.0555 0.0363,-0.0246 0.0362,-0.0247 -0.0186,-0.0672 -0.0549,-0.0424 -0.22062,-0.0118 -0.062,-0.0112 -0.0364,0.0249 -0.0608,-0.0112 -0.0302,-0.01 -0.21556,-0.20114 -0.14143,-0.091 -0.14139,-0.0913 -0.0499,-0.0734 -0.0302,-0.01 0.01,-0.0305 0.0112,-0.0614 0.0483,-0.0862 -0.0187,-0.067 -0.0245,-0.0366 -0.075,-0.26926 -0.056,-0.0428 -0.17206,-0.0968 -0.0303,-0.01 -0.0921,-0.0196 -0.0863,-0.0486 -0.0302,-0.01 -0.0303,-0.01 -0.0302,-0.01 -0.0668,0.0189 -0.13461,0.0374 -0.23268,0.0503 -0.0667,0.0191 -0.18417,-0.0348 -0.46101,-0.24876 -0.23947,-0.0783 -0.23346,-0.10918 -0.0251,-0.19576 -0.025,-0.19598 -0.0301,-0.01 -0.0245,-0.0365 -0.0301,-0.01 -0.0788,0.0802 -0.0678,0.0185 -0.061,-0.0112 -0.19089,-0.16444 -0.12356,-0.18313 -0.0744,-0.11003 -0.19685,-0.13383 -0.1542,-0.18909 -0.0244,-0.0366 -0.14229,-0.25054 0.01,-0.0305 -0.0303,-0.01 0.01,-0.0306 -0.007,-0.1286 0.0423,-0.0554 0.0303,0.01 0.0363,-0.0247 0.0303,0.01 0.0429,0.10375 -0.01,0.0305 0.0303,0.01 -0.01,0.0305 0.0303,0.01 0.0364,-0.0247 0.1221,-0.13548 0.01,-0.0305 -0.0548,-0.0425 -0.0125,-0.098 0.0364,-0.0247 0.22577,-0.17901 0.0112,-0.0614 -0.0186,-0.0673 -0.11081,-0.0851 -0.0669,0.019 -0.0922,-0.0196 -0.0428,-0.10396 -0.0245,-0.0364 0.0364,-0.0246 0.0602,-0.14749 0.0539,-0.27611 0.0112,-0.0612 -0.11764,-0.21397 -0.0869,-0.2078 -0.0303,-0.01 -0.0302,-0.01 -0.01,0.0305 -0.01,0.0304 -0.0301,-0.01 -0.0864,-0.0486 -0.22752,-0.13973 -0.0549,-0.0425 0.15184,-0.28881 0.0168,-0.25137 0.0656,-0.33736 0.134,-0.19685 0.01,-0.0304 0.01,-0.0306 0.0112,-0.0614 0.01,-0.0304 0.01,-0.0306 -0.0245,-0.0366 -0.0244,-0.0365 -0.0301,-0.01 -0.0303,-0.01 -0.0244,-0.0365 -0.0186,-0.0673 0.01,-0.0305 0.01,-0.0304 0.0196,-0.0918 -0.049,-0.0733 -0.0186,-0.0674 -0.049,-0.0733 -0.0548,-0.0426 -0.0549,-0.0425 -0.0302,-0.01 -0.0303,-0.01 0.01,-0.0306 0.01,-0.0304 0.01,-0.0305 0.0303,0.01 0.01,-0.0304 0.061,0.0112 0.0112,-0.0614 0.01,-0.0306 0.01,-0.0305 0.01,-0.0305 -0.0301,-0.01 0.01,-0.0305 -0.061,-0.0112 -0.0549,-0.0426 -0.0549,-0.0426 0.01,-0.0305 -0.0244,-0.0366 0.0425,-0.0555 0.01,-0.0305 0.0425,-0.0555 0.0233,-0.12282 -0.026,-0.19598 0.0168,-0.25132 0.11609,-0.10476 0.0112,-0.0616 0.0112,-0.0613 -0.057,-0.36133 -0.038,-0.13473 -0.12946,-0.1525 -0.39968,-0.23682 0.01,-0.0305 -0.0301,-0.01 -0.10422,0.0434 -0.0425,0.0555 -0.0303,-0.01 -0.0549,-0.0426 -0.0371,-0.13451 0.0602,-0.1474 0.0469,-0.24555 -0.043,-0.10396 0.01,-0.0305 -0.0303,-0.01 -0.0244,-0.0364 -0.15319,-0.0306 -0.15322,-0.0306 -0.0678,0.0186 -0.15322,-0.0306 -0.0744,-0.11005 0.0349,-0.18407 0.1406,-0.0682 0.0365,-0.0247 0.12208,-0.13548 0.0112,-0.0614 -0.0186,-0.0673 -0.0922,-0.0196 -0.23347,-0.10906 -0.0505,-0.23271 -0.0809,-0.23853 -0.26503,-0.27434 -0.12282,-0.0231 -0.0488,-0.0733 -0.0303,-0.01 0.01,-0.0305 -0.0186,-0.0673 0.0907,-0.14162 0.01,-0.0304 -0.11078,-0.0851 -0.0745,-0.10991 -0.0184,-0.0675 -0.0187,-0.067 -0.0244,-0.0366 0.01,-0.0304 0.0364,-0.0246 0.01,-0.0304 0.0112,-0.0616 0.0302,0.01 0.0362,-0.0247 0.0303,0.01 0.0301,0.01 0.0364,-0.0248 0.01,-0.0304 0.0774,-0.39884 0.0894,-0.46009 0.01,-0.0306 0.01,-0.0305 0.01,-0.0304 -0.0387,-0.29407 -0.25229,-0.1764 -0.2165,-0.36043 -0.0609,-0.0112 -0.12282,-0.0233 -0.48577,-0.28543 -0.0303,-0.01 -0.0684,-0.14064 -0.0245,-0.0366 -0.061,-0.0112 -0.0678,0.0188 -0.0728,0.0497 -0.0302,-0.01 -0.092,-0.0196 -0.0245,-0.0364 -0.0303,-0.01 0.0112,-0.0615 0.0112,-0.0612 0.01,-0.0305 -0.0185,-0.0673 -0.0302,-0.01 -0.0303,-0.01 -0.0303,-0.01 -0.0301,-0.01 -0.01,0.0305 -0.0668,0.0189 -0.0364,0.0248 -0.0921,-0.0196 -0.12957,-0.15254 -0.0744,-0.11002 -0.0744,-0.11003 -0.10482,-0.11583 -0.062,-0.0112 -0.0425,0.0555 -0.0302,-0.01 -0.11671,-0.0547 -0.0245,-0.0366 -0.0185,-0.0673 0.01,-0.0304 0.0303,0.01 0.0112,-0.0616 0.0112,-0.0612 -0.0803,-0.0793 -0.0244,-0.0365 -0.0363,0.0247 -0.0788,0.0802 -0.0619,-0.0112 -0.0245,-0.0365 0.0112,-0.0616 0.01,-0.0305 0.0196,-0.0918 -0.0489,-0.0731 -0.0549,-0.0426 -0.0245,-0.0366 -0.0302,-0.01 -0.061,-0.0112 -0.23268,0.0503 -0.0981,0.0126 -0.0668,0.019 -0.0668,0.0189 -0.061,-0.0112 -0.061,-0.0112 -0.0302,-0.01 -0.061,-0.0112 -0.0245,-0.0367 -0.14153,-0.0912 -0.0244,-0.0364 -0.0863,-0.0486 0.01,-0.0304 -0.0302,-0.01 -0.061,-0.0112 -0.5283,-0.23003 -0.32556,-0.12685 -0.0668,0.019 -0.0981,0.0126 -0.0301,-0.01 -0.27704,-0.21297 -0.0245,-0.0365 -0.0864,-0.0486 -0.0804,-0.0792 -0.47979,-0.31621 -0.15417,-0.18904 -0.11076,-0.085 0.01,-0.0305 -0.2156,-0.20102 0.01,-0.0305 -0.038,-0.13474 -0.0311,-0.16523 -0.1424,-0.25049 0.01,-0.0306 0.1281,-0.16609 0.01,-0.0304 0.0669,-0.019 0.0668,-0.019 0.078,-0.23948 -0.0304,-0.01 -0.0186,-0.0673 -0.0558,-0.0428 -0.0549,-0.0426 -0.075,-0.26926 -0.0499,-0.0734 0.01,-0.0304 -0.0244,-0.0366 -0.0864,-0.0485 -0.0245,-0.0364 -0.0303,-0.01 -0.0921,-0.0196 -0.0363,0.0247 -0.01,0.0305 0.0185,0.0675 0.0489,0.0731 0.0124,0.098 -0.0425,0.0554 -0.13463,0.0376 -0.12865,0.007 -0.36216,-0.10213 -0.0609,-0.0112 0.01,-0.0305 -0.0309,-0.16528 -0.0124,-0.0979 -0.061,-0.0112 -0.17221,-0.0971 -0.21462,-0.0421 -0.0989,-0.14656 -0.10482,-0.11581 -0.0302,-0.01 -0.0864,-0.0486 -0.11671,-0.0545 -0.16021,-0.15849 -0.0124,-0.0979 0.10797,-0.39281 0.0112,-0.0614 0.12867,-0.007 0.061,0.0112 0.0112,-0.0614 0.0233,-0.12279 -0.0803,-0.0794 -0.0499,-0.0734 -0.0304,-0.01 -0.16614,-0.12788 -0.23947,-0.0783 -0.0185,-0.0675 -0.0301,-0.01 0.01,-0.0305 0.0422,-0.21474 0.0787,-0.0802 0.0303,0.01 0.0921,0.0196 0.0304,0.01 0.0364,-0.0248 0.0847,-0.1109 -0.0186,-0.0671 -0.0803,-0.0794 -0.0864,-0.0485 -0.30094,-0.0902 -0.0303,-0.01 -0.0423,0.0553 -0.0303,-0.01 -0.1221,0.13546 -0.20879,-0.0725 -0.0566,-0.20187 -0.0919,-0.0196 -0.14148,-0.0913 -0.0245,-0.0365 0.01,-0.0305 0.0196,-0.092 -0.049,-0.0733 -0.0245,-0.0366 -0.0668,0.019 -0.01,0.0304 -0.0112,0.0612 -0.0484,0.0863 -0.0668,0.0189 -0.0302,-0.01 -0.0245,-0.0364 -0.0185,-0.0673 -0.0548,-0.0427 -0.10482,-0.11581 -0.0245,-0.0367 -2.2e-4,-0.15925 0.01,-0.0304 -0.11077,-0.0852 -0.0301,-0.01 -0.1287,0.007 -0.0669,0.0191 -0.0982,0.0126 -0.0303,-0.01 -0.0245,-0.0364 -0.0303,-0.01 0.0112,-0.0615 0.0423,-0.0552 0.0482,-0.0861 0.0196,-0.0918 -0.13555,-0.1218 -0.10483,-0.11581 -0.0429,-0.10383 0.0112,-0.0614 0.01,-0.0305 0.0728,-0.0495 0.092,0.0196 0.11079,0.0851 0.0921,0.0196 0.11017,-0.074 0.0196,-0.0918 -0.0489,-0.0733 -0.0804,-0.0791 -0.12523,-0.50191 -0.0428,-0.10384 0.0196,-0.0918 0.0424,-0.0553 0.0981,-0.0126 0.17124,-0.0623 0.0738,-0.0493 0.0196,-0.0918 0.0112,-0.0614 -0.0558,-0.0427 -0.0863,-0.0484 -0.0744,-0.11003 0.0196,-0.0917 0.0482,-0.0861 0.10419,-0.0435 0.0728,-0.0496 0.0364,-0.0248 0.01,-0.0305 0.01,-0.0304 0.0425,-0.0554 -0.0186,-0.0671 0.01,-0.0306 0.01,-0.0305 -0.0549,-0.0426 -0.0245,-0.0365 -0.11763,-0.21399 0.01,-0.0304 -0.093,-0.17718 0.01,-0.0305 -0.0491,-0.0732 -0.0489,-0.0732 -0.11673,-0.0546 -0.1842,-0.035 -0.11673,-0.0545 -0.20284,-0.10306 -0.14738,-0.0605 -0.0548,-0.0424 -0.0863,-0.0485 -0.17816,-0.0666 -0.15321,-0.0306 -0.0302,-0.01 -0.0864,-0.0487 -0.0744,-0.10992 -0.0743,-0.10991 0.0232,-0.12281 0.0112,-0.0616 -0.0429,-0.10375 -0.0989,-0.14651 0.01,-0.0305 -0.13634,-0.28117 -0.0863,-0.0484 -0.0301,-0.01 -0.0303,-0.01 -0.0506,-0.23273 -0.061,-0.0112 -0.0304,-0.01 -0.17227,-0.097 -0.0803,-0.0794 -0.0186,-0.0671 -0.10482,-0.11592 -0.0864,-0.0484 -0.049,-0.0733 -0.0624,-0.17129 -0.24025,-0.23772 -0.0548,-0.0427 -0.12868,0.007 -0.0301,-0.01 -0.055,-0.0426 -0.27109,-0.24359 -0.0863,-0.0486 -0.0921,-0.0196 -0.23945,-0.0784 -0.17817,-0.0665 -0.0549,-0.0424 -0.0559,-0.0427 -0.17294,-0.25642 -0.0863,-0.0486 -0.13465,0.0376 -0.0302,-0.01 -0.10418,0.0434 -0.11614,0.10476 -0.0365,0.0248 -0.0302,-0.01 -0.0303,-0.01 -0.0302,-0.01 -0.061,-0.0112 -0.0302,-0.01 -0.17798,-0.0665 -0.13554,-0.12179 -0.049,-0.0733 -0.0625,-0.17126 -0.0863,-0.0485 -0.061,-0.0112 -0.0549,-0.0426 -0.0301,-0.01 -0.0303,-0.01 -0.24552,-0.047 -0.0245,-0.0366 -0.0921,-0.0196 -0.0245,-0.0364 -0.13553,-0.1219 z"
       id="GA-12"
       style="font-style:normal;font-weight:400;font-size:34.375px;font-family:'MS Shell Dlg 2';opacity:1;fill:none;fill-opacity:1;fill-rule:evenodd;stroke:#000000;stroke-width:0.33333385;stroke-linecap:square;stroke-linejoin:bevel;stroke-miterlimit:4;stroke-dasharray:none;stroke-opacity:1" />
    <path
       inkscape:connector-curvature="0"
       d="m 196.29482,385.41044 c -0.0199,-10e-4 -0.0419,-0.0107 -0.0615,-0.0112 -0.48976,-0.0557 -0.82601,-0.46568 -1.00374,-0.89559 -0.16406,-0.42858 -0.46307,-0.76858 -0.69886,-1.15457 -0.0992,-0.28985 -0.2844,-0.37577 -0.49851,-0.38335 -0.21408,-0.008 -0.44787,0.0522 -0.66122,0.12615 -0.47716,-0.0761 -0.93921,-0.16638 -1.417,-0.24384 0.0363,0.25595 0.13738,0.47025 0.31615,0.66638 0.21665,0.23759 0.44414,0.48586 0.44575,0.81889 -0.1423,0.38422 0.13858,0.91638 -0.14096,1.21413 -0.79112,-0.10712 -1.35805,-0.78617 -2.08943,-1.04284 -0.62249,-0.13166 -1.22279,-0.36555 -1.85934,-0.42514 -0.16852,0.004 -0.36051,0.0356 -0.53934,-0.009 -0.1788,-0.0449 -0.32244,-0.15342 -0.37581,-0.35962 0.0286,-0.27867 -0.0928,-0.50141 -0.24884,-0.68507 -0.15603,-0.18365 -0.36105,-0.33942 -0.57865,-0.4626 -0.74077,-0.36759 -1.60503,-0.29752 -2.3628,-0.6185 -0.15325,-0.10717 -0.36976,-0.23499 -0.52922,-0.38943 -0.15947,-0.15437 -0.25958,-0.35415 -0.17466,-0.57511 0.39408,-0.33526 0.77832,-0.65951 1.15272,-1.01754 0.69948,-0.76427 1.45221,-1.48275 2.18211,-2.21809 -0.21958,-0.10125 -0.43641,-0.22061 -0.59044,-0.40134 -0.25939,-0.26097 -0.15801,-0.57023 -0.0785,-0.90661 0.0794,-0.33634 0.11928,-0.68797 -0.23191,-0.93646 -0.10591,-0.19235 -0.18393,-0.25601 -0.271,-0.24358 -0.0869,0.0122 -0.18141,0.0915 -0.26248,0.20365 -0.16188,0.22382 -0.30354,0.54601 -0.51797,0.536 -0.40418,-0.38223 -0.85365,-0.27176 -1.33699,-0.1645 -0.77468,-0.10013 -1.53262,-0.2958 -2.30065,-0.44723 l -0.0313,3.27286 -3.63845,0.37525 -0.63221,-0.1866 -0.0175,5.82244 2.10293,0.15409 -0.49929,0.60331 0.18672,0.51378 -0.60411,0.48749 5.7252,0.18975 c 0.14579,-0.25067 0.38806,-0.65019 0.7387,-0.52496 0.30435,0.0434 0.41131,0.26076 0.47467,0.50616 0.0633,0.24528 0.0665,0.51729 0.21216,0.70969 0.11921,0.18762 0.18888,0.44912 0.28553,0.66044 0.0967,0.21123 0.23989,0.39747 0.52318,0.41994 0.22368,0.11437 0.40654,0.0777 0.5454,-0.0213 0.13889,-0.0993 0.22913,-0.26954 0.25478,-0.49163 -0.0722,-0.32311 0.051,-0.53463 0.24198,-0.58965 0.1905,-0.0551 0.43907,0.0542 0.60836,0.30925 0.0598,0.20541 0.18803,0.33077 0.31444,0.34772 0.12666,0.0146 0.25932,-0.0853 0.31696,-0.32041 0.23683,-0.36157 0.46287,-0.28666 0.58794,-0.0768 0.12504,0.2099 0.1529,0.56759 -0.0266,0.79079 -0.24813,0.28703 -0.18109,0.49901 -0.0458,0.72333 0.13609,0.22447 0.34599,0.43693 0.27363,0.72176 -0.006,0.23196 -0.17423,0.62882 -0.21557,0.94491 -0.0423,0.31613 0.0306,0.56496 0.43208,0.5616 0.26331,-0.11101 0.34396,-0.36704 0.4073,-0.62123 0.0633,-0.25418 0.10968,-0.52753 0.29644,-0.7064 0.36478,0.039 0.73315,0.1584 1.10434,0.2146 0.30022,0.12839 0.52308,0.0252 0.64252,-0.19341 0.11934,-0.21908 0.1512,-0.55286 0.088,-0.77878 0.0447,-0.35719 0.23593,-0.50955 0.49929,-0.60343 0.26344,-0.0937 0.58305,-0.12424 0.85728,-0.15159 0.23347,0.009 0.29176,-0.0508 0.25047,-0.14245 -0.0413,-0.0915 -0.17329,-0.20694 -0.30163,-0.24953 -0.12355,-0.24956 0.0255,-0.37305 0.24875,-0.46101 0.22302,-0.088 0.51084,-0.13072 0.67315,-0.18759 0.21191,-0.14208 0.50425,-0.09 0.77197,-0.0407 0.0571,0.01 0.0806,-0.0435 0.13467,-0.0376 -0.0601,-0.19945 -0.16794,-0.37869 -0.10748,-0.59383 0.007,-0.17943 0.047,-0.40848 0.14414,-0.57689 0.0964,-0.16853 0.25487,-0.27401 0.4891,-0.2233 0.31325,0.0225 0.40692,-0.17426 0.43288,-0.42518 0.006,-0.032 -0.0137,-0.0644 -0.0129,-0.098 z"
       id="GA-13"
       style="font-style:normal;font-weight:400;font-size:34.375px;font-family:'MS Shell Dlg 2';opacity:1;fill:none;fill-opacity:1;fill-rule:evenodd;stroke:#000000;stroke-width:0.33333385;stroke-linecap:square;stroke-linejoin:bevel;stroke-miterlimit:4;stroke-dasharray:none;stroke-opacity:1" />
    <path
       inkscape:connector-curvature="0"
       d="m 167.02517,382.20399 0.91341,0.05 5.92194,-1.96862 -0.0683,-2.43274 3.46815,0.99239 0,0 0.63222,0.1866 3.63843,-0.37524 0.0313,-3.27286 c 0,0 0,0 0,0 l 0.011,-1.36672 -0.35527,0.0264 -0.008,-3.72628 -7.15336,-0.21257 0.13949,-3.66572 0.36804,0.0718 0.13203,-3.95377 0.49078,0.0956 0.0231,-1.26882 9.87332,-0.0227 0.0401,0.61269 3.56088,0.0237 0.34002,-0.60249 -0.57444,-0.81193 -1.62572,-0.31604 0.002,-0.82747 0.86995,-0.0536 -0.62548,-1.20398 1.23985,0.33659 0.11543,-1.41026 -4.90894,0.0326 -0.0455,-5.00686 0.48311,-1.33861 1.39561,-1.44791 -0.88716,-0.84091 -0.0386,-3.7321 -1.30535,9.1e-4 -1.04205,-0.0434 -0.0981,0.0127 -0.15925,2.2e-4 -0.63139,-0.027 -0.22676,0.0199 -0.76006,-0.0203 -0.0305,-0.01 -0.0365,0.0246 -0.15935,2.2e-4 -0.0614,-0.0112 -0.0917,-0.0196 -0.1593,2.2e-4 -0.63736,0.003 -0.0615,-0.0112 -0.60065,-0.0214 -0.01,0.0306 -0.0917,-0.0196 -0.91947,-0.019 -0.19004,-0.004 -0.12866,0.007 -0.25135,-0.0168 -0.50873,-0.003 -0.0673,0.0188 -1.33605,-0.005 -0.19007,-0.004 -0.41076,-0.0162 -0.0305,-0.01 -0.41664,0.0146 -0.0306,-0.01 -0.28807,0.008 -0.15318,-0.0306 -0.50872,-0.003 -0.0304,-0.01 -0.0366,0.0248 -0.28213,-0.0227 -0.18993,-0.004 -0.63737,0.003 -0.12866,0.007 -0.1228,-0.0232 -0.22674,0.0198 -0.0918,-0.0196 -0.0366,0.0246 -0.0918,-0.0196 -0.12863,0.007 -0.12282,-0.0233 -0.0365,0.0248 -0.0614,-0.0112 -0.0306,-0.01 -0.12867,0.007 -0.0614,-0.0112 -0.12864,0.007 -0.15939,2.2e-4 -0.28806,0.008 -0.25136,-0.0168 -0.15928,2.2e-4 -0.0981,0.0128 -0.0304,-0.01 -0.098,0.0128 -0.0304,-0.01 -0.0918,-0.0196 -0.15926,2.2e-4 -0.0304,-0.01 -0.12864,0.007 -0.098,0.0127 -0.0615,-0.0112 -0.44735,0.008 -0.28794,0.008 -0.0614,-0.0112 -0.0305,-0.01 -0.0304,-0.01 -0.01,0.0305 -0.0305,-0.01 -0.41073,-0.0162 -0.0304,-0.01 -0.098,0.0128 -0.34929,-0.004 -0.19009,-0.004 -0.0304,-0.01 -0.3188,0.001 -0.0304,-0.01 -0.38003,-0.0106 -0.60675,0.009 -0.34335,-0.035 -0.0979,0.0127 -0.0305,-0.01 -0.0614,-0.0112 -0.53932,-0.01 -0.41077,-0.0162 -0.88277,-0.0442 -1.20146,-0.0426 0.1031,0.94321 -0.01,0.0305 0.0316,0.16539 0.0135,0.2573 0.0128,0.0979 0.0198,0.22671 0.1398,0.91856 0.11514,0.88198 0.11583,1.04122 0.0505,0.23258 0.0963,0.81464 0.14664,1.04725 0.0885,0.52656 -0.01,0.0305 0.10149,0.62463 -0.01,0.0305 0.15772,0.82648 0.0392,0.45343 0.0188,0.0672 0.0127,0.098 0.14575,0.88793 -0.01,0.0304 0.15255,1.01658 0.19102,1.31054 0.0571,0.36123 0.007,0.12866 -0.01,0.0304 0.0623,0.17122 0.0699,0.45927 0.0198,0.22663 0.0502,0.23265 0.0385,0.29394 -0.01,0.0304 0.16455,0.95522 0.21562,1.3471 0.057,0.36133 0.12789,0.9798 0.0247,0.0366 0.0699,0.45929 0.0512,0.39195 0.0954,0.65526 0.007,0.12865 0.0946,0.49598 -0.0196,0.0918 0.0877,0.3672 -0.0112,0.0615 0.1919,1.46982 0.075,0.26923 0.0135,0.25733 0.13981,0.91855 0.0255,0.196 0.0699,0.45927 0.0323,0.32464 -0.01,0.0305 0.13979,0.91857 0.0135,0.25734 0.1594,1.14513 0.12707,0.82061 -0.0112,0.0613 0.0304,0.01 0.13386,0.94927 -0.0112,0.0614 0.25483,1.80052 0.0435,0.10378 0.046,0.58197 0.10746,0.59391 2.2e-4,0.15938 0.0818,0.39791 0.0384,0.29392 0.12192,1.01065 0.0188,0.0672 0.0512,0.39196 0.0255,0.19608 0.064,0.48991 0.0189,0.0672 0.0135,0.25731 0.0571,0.36136 0.17229,1.24312 0.0188,0.0673 0.0322,0.32454 0.082,0.39794 z"
       id="GA-14"
       style="font-style:normal;font-weight:400;font-size:34.375px;font-family:'MS Shell Dlg 2';opacity:1;fill:none;fill-opacity:1;fill-rule:evenodd;stroke:#000000;stroke-width:0.33333385;stroke-linecap:square;stroke-linejoin:bevel;stroke-miterlimit:4;stroke-dasharray:none;stroke-opacity:1" />
  </g>
</svg>
