<?xml version="1.0" encoding="UTF-8" standalone="no"?>
<!-- Created with Inkscape (http://www.inkscape.org/) -->

<svg
   xmlns:dc="http://purl.org/dc/elements/1.1/"
   xmlns:cc="http://creativecommons.org/ns#"
   xmlns:rdf="http://www.w3.org/1999/02/22-rdf-syntax-ns#"
   xmlns:svg="http://www.w3.org/2000/svg"
   xmlns="http://www.w3.org/2000/svg"
   xmlns:sodipodi="http://sodipodi.sourceforge.net/DTD/sodipodi-0.dtd"
   xmlns:inkscape="http://www.inkscape.org/namespaces/inkscape"
   width="34.015301mm"
   height="41.869888mm"
   viewBox="0 0 120.52666 148.35787"
   id="svg12983"
   version="1.1"
   inkscape:version="0.91 r"
   sodipodi:docname="3.svg">
  <defs
     id="defs12985" />
  <sodipodi:namedview
     id="base"
     pagecolor="#ffffff"
     bordercolor="#666666"
     borderopacity="1.0"
     inkscape:pageopacity="0.0"
     inkscape:pageshadow="2"
     inkscape:zoom="4.5217818"
     inkscape:cx="-7.3640057"
     inkscape:cy="88.67014"
     inkscape:document-units="px"
     inkscape:current-layer="layer1"
     showgrid="false"
     fit-margin-top="1"
     fit-margin-left="1"
     fit-margin-right="1"
     fit-margin-bottom="1"
     inkscape:window-width="2560"
     inkscape:window-height="1388"
     inkscape:window-x="0"
     inkscape:window-y="0"
     inkscape:window-maximized="1" />
  <metadata
     id="metadata12988">
    <rdf:RDF>
      <cc:Work
         rdf:about="">
        <dc:format>image/svg+xml</dc:format>
        <dc:type
           rdf:resource="http://purl.org/dc/dcmitype/StillImage" />
        <dc:title></dc:title>
      </cc:Work>
    </rdf:RDF>
  </metadata>
  <g
     inkscape:label="Layer 1"
     inkscape:groupmode="layer"
     id="layer1"
     transform="translate(-320.78947,-525.53854)">
    <path
       inkscape:connector-curvature="0"
       d="m 327.85903,529.22059 -0.0423,3.06692 -0.0242,0.95025 -0.0548,2.7531 0.008,0.062 -0.07,3.54423 -0.027,0.25626 0.007,0.0308 -0.0266,0.0354 -0.0316,2.24494 -0.0243,0.95024 -1.4e-4,0.22091 -0.22058,7.63632 0.004,0.2519 0.0148,0.0928 -0.0811,2.56757 -0.0781,3.26132 26.53774,0.43588 7.545,-2.44888 6.54548,-0.13096 c 0.39734,0.2485 0.44493,0.86591 0.57138,1.37121 0.0632,0.25275 0.15153,0.48686 0.30801,0.61947 0.15649,0.13261 0.37653,0.16491 0.73356,0.0547 0.23593,0.08 0.28861,0.36933 0.39636,0.57543 0.10774,0.206 0.28267,0.33655 0.6847,0.15625 0.73994,0.0161 1.46339,-0.14336 2.20579,-0.24688 0.74249,-0.10377 1.49839,-0.16254 2.22285,0.0979 0.19303,0.17708 0.24591,0.41815 0.25038,0.65908 0.004,0.24093 -0.0412,0.50637 -0.0813,0.7688 -0.0401,0.26244 -0.079,0.51864 -0.0193,0.76009 0.0596,0.24145 0.19469,0.44625 0.49801,0.62427 0.24081,0.44451 0.61796,0.78998 1.02306,0.99228 0.40501,0.2023 0.84834,0.28308 1.32527,0.22403 0.37447,0.71585 0.58367,1.47219 0.72843,2.26436 0.10924,0.59672 0.19501,1.19268 0.28323,1.79051 l 0,0 c 0.0274,0.19594 0.0494,0.39456 0.0827,0.58801 -0.0805,0.62409 0.14008,1.14576 0.50474,1.57003 0.36448,0.42421 0.87886,0.7518 1.34545,1.04158 0.53026,-0.0775 0.88908,-0.36902 1.1552,-0.76187 0.2662,-0.39297 0.42535,-0.8635 0.54217,-1.30698 0.21619,-0.29838 0.42827,-0.4218 0.60198,-0.4318 0.17379,-0.01 0.32242,0.0889 0.44585,0.25302 0.24685,0.32805 0.39175,0.86966 0.39054,1.20742 0.41527,0.3587 0.94435,0.46963 1.47468,0.61311 0.53044,0.14358 1.0454,0.33862 1.38136,0.84731 0.31394,0.16298 0.69636,0.52369 1.08551,0.76265 0.19452,0.11938 0.41496,0.22443 0.60051,0.23105 0.18554,0.007 0.34211,-0.0655 0.50003,-0.2595 0.21114,-0.52398 0.63205,-0.98089 1.09868,-1.16423 0.2332,-0.0917 0.48077,-0.10711 0.72038,-0.0383 0.23966,0.0691 0.4631,0.22544 0.67058,0.5054 0.53016,-0.15729 0.9513,-0.57357 1.30182,-1.06657 0.3504,-0.49295 0.64697,-1.06782 0.95358,-1.52253 0.004,-0.32462 0.36618,-0.20748 0.56193,-0.26831 l 0.70915,24.35706 21.7577,-0.34388 c -0.73745,0.88626 -1.31441,1.76885 -1.74725,2.61229 -0.43273,0.84343 -0.72143,1.65401 -0.91599,2.46396 -0.38895,1.6199 -0.35369,3.18653 -0.18748,4.7283 l 19.87094,-0.52056 c 0.14342,-0.46033 0.37672,-0.74195 0.69152,-0.91759 0.1311,-0.0731 0.306,-0.0845 0.45553,-0.12718 l -0.007,-0.0308 -0.16597,-4.55234 -0.0874,-2.41769 -0.0978,-3.61525 -0.1916,-5.18006 -0.007,-0.0309 -0.0988,-3.17334 -0.0308,-0.21662 -0.0376,-1.16235 -0.21524,-6.24961 -0.0414,-1.41424 0.009,-0.15904 -0.0282,-1.10056 -0.007,-0.0308 -0.0568,-2.20109 -0.0111,-0.97668 -0.0843,-1.72373 -0.0902,-3.11152 -0.1772,-3.73046 -0.0414,-1.19323 -2.63857,0.0872 -1.22862,0.0144 -0.40671,0.0253 -5.3303,0.24417 -0.72049,0.0383 -0.19001,-0.005 -0.37565,0.0222 -0.53486,0.0113 -0.47283,0.003 -1.44525,0.0454 -0.72051,0.0382 -0.0661,-0.0223 -0.0309,0.007 -0.34468,0.017 -2.3558,0.0782 -0.25191,0.004 -0.0308,0.007 -2.29826,0.0391 -0.2519,0.004 -0.53046,0.0432 -0.12815,-0.0137 -0.91039,0.0338 -1.53804,0.0588 -0.0926,0.0148 -2.38668,0.0831 -0.28715,-0.0227 -0.65859,0.03 -2.01096,0.0622 -2.64295,0.0561 -0.85724,-0.0373 -0.12385,0.0168 -1.29056,0.0235 -0.82198,-0.0108 -1.13148,0.0326 -0.34479,0.017 -0.22091,-1.4e-4 -0.0971,-0.0178 -0.44205,-10e-4 -2.61629,0.0207 -3.71684,0.049 -0.002,-0.91479 -0.0745,-6.14325 0.0179,-0.0972 -0.0503,-3.0539 0.0276,-0.47729 -0.0659,-4.06155 0.002,-0.66286 0.005,-0.1901 -0.0168,-0.12387 -0.004,-0.25191 0.005,-0.41095 -0.0437,-2.32913 -0.0245,-2.86821 -0.0148,-0.0927 -0.004,-0.25192 0.0224,-0.0662 -0.0222,-1.73242 -0.0649,-4.50359 -0.66288,-0.002 -0.44202,-10e-4 -1.03856,0.0201 -1.5424,0.0273 -2.07732,0.0393 -0.53476,0.0113 -0.57007,-0.0147 -0.72475,0.008 -0.15469,0.0225 -0.0971,-0.0178 -0.12811,-0.0136 -0.94154,0.0378 -0.75575,0.0112 -4.0659,0.0351 -0.81764,0.0203 -0.2209,-1.4e-4 -1.29059,0.0235 -0.0309,0.007 -0.19429,-0.0359 -0.28292,0.008 -0.43757,0.0299 -0.41097,-0.005 -0.41104,-0.005 -0.41106,-0.005 -0.37565,0.0222 -0.15903,-0.009 -0.0927,0.0148 -0.60097,-0.0102 -0.0309,0.007 -0.76009,-0.0193 -0.31373,0.0115 -0.28293,0.008 -1.44962,0.0144 -1.13145,0.0326 -0.19001,-0.005 -0.42846,-0.12923 -0.72474,0.008 -0.19004,-0.005 -0.0308,0.007 -0.12813,-0.0136 -0.44204,-10e-4 -2.08149,0.008 -0.44203,-10e-4 -1.1667,0.006 -0.19003,-0.005 -1.1668,0.006 -0.0661,-0.0223 -2.93455,0.002 -1.26392,-0.0118 -1.67065,0.0138 -0.91477,0.002 -1.00766,0.0156 -0.0352,-0.0264 -0.41106,-0.005 -0.15912,-0.009 -1.4805,0.0189 -0.44194,-10e-4 -0.12814,-0.0136 -3.88032,0.009 -1.19759,0.0106 -0.0309,0.007 -1.89591,-0.0176 -0.34033,0.0479 -0.82645,-0.0415 -0.12384,0.0168 -0.41094,-0.005 -0.22103,-1.4e-4 -1.32571,-0.003 -0.0309,0.007 -0.0927,0.0148 -3.09371,-0.007 -0.98101,-0.0199 -1.19767,0.0107 -0.25191,0.004 -0.66287,-10e-4 -0.53915,-0.0189 -0.8839,-0.002 -0.41106,-0.005 -0.0618,0.008 -0.12815,-0.0137 -0.1901,-0.005 -1.94854,-0.16796 -0.98547,-0.0508 z"
       id="UT-01"
       style="font-style:normal;font-weight:400;font-size:34.375px;font-family:'MS Shell Dlg 2';opacity:1;fill:none;fill-opacity:1;fill-rule:evenodd;stroke:#000000;stroke-width:0.33333385;stroke-linecap:square;stroke-linejoin:bevel;stroke-miterlimit:4;stroke-dasharray:none;stroke-opacity:1" />
    <path
       inkscape:connector-curvature="0"
       d="m 384.33322,670.1385 c 0.2252,-0.1206 0.39608,-0.33832 0.63288,-0.43603 0.78839,-0.32518 1.61522,-0.53954 2.45448,-0.72363 0.69727,-0.74224 1.50411,-1.15771 2.36313,-1.37356 0.85892,-0.21573 1.77086,-0.24488 2.78023,-0.20139 0.62337,-0.41094 1.42482,-0.84823 2.11112,-1.36973 0.68641,-0.5214 1.26642,-1.12591 1.43633,-1.90586 0.34216,-0.44888 0.24015,-1.53606 0.23073,-2.39926 -0.005,-0.43166 0.0183,-0.80628 0.13939,-1.0294 0.12111,-0.22312 0.32229,-0.29351 0.71171,-0.0999 0.35814,-0.25271 0.84239,-0.4894 1.27901,-0.77939 0.43667,-0.28989 0.84258,-0.6194 1.02325,-1.02741 -0.22735,-0.54345 -0.31992,-1.01898 -0.16433,-1.39691 0.15513,-0.37787 0.53346,-0.66632 1.23495,-0.86782 0.0301,-0.0901 0.0733,-0.85453 0.30866,-1.62123 0.1176,-0.38329 0.31211,-0.75184 0.54587,-1.05505 0.2339,-0.3031 0.53605,-0.51563 0.9294,-0.57231 0.44004,-0.23603 0.76182,-0.57693 1.03632,-0.93463 0.27448,-0.35768 0.48284,-0.73251 0.69196,-1.13869 0.41841,-0.81221 0.82038,-1.67416 1.5784,-2.24147 -0.20864,-0.38451 -0.61504,-0.91794 -0.73044,-1.38048 -0.0576,-0.23134 -0.037,-0.4562 0.10306,-0.61403 0.1401,-0.15792 0.39055,-0.254 0.84472,-0.27653 -0.0946,-0.47307 -0.0364,-0.83934 0.12637,-1.12222 0.16238,-0.28296 0.44639,-0.4904 0.76588,-0.61255 0.639,-0.24452 1.48496,-0.17735 2.15216,0.0447 0.68054,0.20487 1.12681,0.0649 1.45006,-0.23537 0.32337,-0.30024 0.54184,-0.76183 0.74092,-1.24018 0.19907,-0.47826 0.39345,-0.96829 0.70121,-1.29763 0.30776,-0.32942 0.72146,-0.49714 1.37088,-0.3505 0.21785,-0.76627 0.69946,-1.48044 1.27318,-2.16698 0.57384,-0.68664 1.24368,-1.36253 1.86512,-1.99781 0.47552,-0.33777 0.74912,-0.73562 0.90439,-1.20004 0.15517,-0.46443 0.17814,-0.98368 0.10495,-1.49787 -0.14653,-1.02865 -0.64761,-2.06873 -1.15587,-2.83555 -0.52785,-0.19755 -0.87054,-0.5487 -1.08049,-0.9527 -0.21008,-0.40389 -0.27937,-0.8618 -0.34616,-1.33986 -0.0668,-0.47797 -0.12896,-0.96827 -0.22664,-1.38816 -0.098,-0.41985 -0.24617,-0.7664 -0.55012,-0.99564 l -27.84328,0.37872 -0.10035,-25.86272 -9.64776,0.062 -0.0513,1.20647 -4.5519,-0.0546 -0.0205,1.20213 -4.8482,0.0816 0.005,-0.19001 c -0.24234,-1.41798 -0.42308,-2.87449 -0.54261,-4.31013 0.11039,-0.37421 0.12773,-0.65324 0.0639,-0.89257 -0.0639,-0.23944 -0.19994,-0.41673 -0.3921,-0.54454 -0.38432,-0.2556 -0.9635,-0.33353 -1.586,-0.28202 -0.42413,0.15796 -0.73856,0.19995 -0.92825,0.13058 -0.18984,-0.0695 -0.26313,-0.22257 -0.28191,-0.4338 -0.0376,-0.4224 0.2158,-1.04472 0.48075,-1.51911 0.20032,-0.6921 0.73773,-1.09755 1.31142,-1.44659 0.5737,-0.34915 1.17037,-0.6706 1.43468,-1.24306 -0.14364,-0.31205 -0.17391,-0.53106 -0.1309,-0.70737 0.0429,-0.17638 0.15812,-0.30627 0.32351,-0.39264 0.33068,-0.17269 0.85133,-0.18862 1.28667,-0.27554 0.55021,-0.39978 0.8038,-1.07725 0.91454,-1.80102 0.11067,-0.72374 0.056,-1.50251 0.0446,-2.15214 -0.0308,-0.73925 -0.40518,-1.29281 -0.82669,-1.84037 -0.4215,-0.54758 -0.88708,-1.08178 -1.09653,-1.73931 -0.21147,-1.34092 0.18049,-2.70718 0.28324,-4.04753 0.17906,-0.44969 0.1013,-0.47136 -0.0388,-0.49946 -0.13985,-0.0282 -0.3336,-0.0738 -0.33452,-0.58411 -0.22469,-0.68329 -0.18874,-1.37139 -0.13235,-2.06429 0.0561,-0.69275 0.12927,-1.38971 -0.0393,-2.07713 0.0245,-0.56269 -0.26461,-1.22975 -0.38473,-1.83935 -0.0601,-0.3049 -0.0709,-0.59665 0.006,-0.85299 0.0771,-0.25634 0.24601,-0.44972 0.57596,-0.61735 0.25437,-0.65751 0.28711,-1.35516 0.2477,-2.05449 -0.0396,-0.69939 -0.12884,-1.41442 -0.10605,-2.09949 l 2.87311,-0.21456 0.21097,-1.41815 0.92347,0.0595 0.21959,-1.35625 2.12998,0.11093 2.08056,0.43337 0.062,-0.008 0,0 3.40303,-0.0365 c -0.088,-0.59787 -0.17378,-1.19382 -0.28319,-1.79052 -0.14472,-0.79216 -0.35396,-1.5485 -0.72845,-2.26434 -0.47691,0.0592 -0.92026,-0.0218 -1.32527,-0.22405 -0.40509,-0.20229 -0.78225,-0.54776 -1.02304,-0.99228 -0.30334,-0.178 -0.43844,-0.3828 -0.49803,-0.62424 -0.0596,-0.24147 -0.0214,-0.49766 0.0193,-0.76011 0.0401,-0.26243 0.0858,-0.52787 0.0813,-0.76879 -0.004,-0.24093 -0.0568,-0.48208 -0.25036,-0.65908 -0.72443,-0.2599 -1.48039,-0.20164 -2.22285,-0.0979 -0.74238,0.10388 -1.46586,0.2632 -2.20581,0.24687 -0.40203,0.1803 -0.57692,0.0494 -0.68471,-0.15624 -0.10774,-0.2061 -0.16038,-0.49548 -0.39634,-0.57542 -0.35705,0.11013 -0.57708,0.0779 -0.73356,-0.0548 -0.15649,-0.13261 -0.24473,-0.36671 -0.30802,-0.61947 -0.12641,-0.50532 -0.17404,-1.12268 -0.57139,-1.3712 l -6.54548,0.13096 -7.545,2.4489 -26.53772,-0.4359 0.007,0.0309 -0.0258,1.61297 -0.15168,4.53394 0.004,0.25191 -0.014,0.34917 0.007,0.0308 -0.0177,0.0973 -1.4e-4,0.221 0.0115,0.31374 -0.0177,0.0972 -0.005,0.19001 -0.0193,0.7601 -0.0665,1.99738 -0.0917,3.38956 -0.0185,0.31814 0.007,0.0309 -0.0305,1.80301 -0.009,0.15903 -0.0193,0.76008 -0.13436,4.65785 -0.0824,3.23039 0.007,0.0309 0.0148,0.0926 0.004,0.25192 0.007,0.0309 -0.0137,0.12815 -0.0422,1.04726 -0.002,0.88386 -0.0193,0.7601 -0.009,0.15903 -10e-4,0.44207 -0.049,2.12113 -0.0465,1.01638 -0.0298,1.36107 -0.0276,0.47728 0.008,0.28282 0.004,0.25192 -0.009,0.15913 -0.0147,0.57007 -0.0136,0.12812 0.007,0.0309 -0.14608,5.92174 0.0107,1.19768 -0.0224,0.0662 -0.099,4.68436 -0.25953,9.15643 -0.0654,3.5752 0.008,0.062 -0.0266,0.0352 -0.0699,3.54421 -0.0455,0.57453 -0.0166,1.45385 -0.0906,2.94762 0.003,0.69385 -0.0137,0.12813 -0.0469,1.23737 -0.0371,2.65601 -0.0753,3.95517 -0.0364,0.41529 -0.0727,2.85045 -0.0758,4.1762 -0.0524,1.64834 -0.0127,1.70578 -0.0319,0.44638 -0.014,0.34905 -0.0107,0.822 0.0222,0.37564 -0.0427,1.2683 -0.027,0.25626 -0.027,0.25627 0.007,0.0308 -0.041,0.60541 -0.0607,3.38518 -0.0494,0.32242 -0.0171,1.67497 0.007,0.0309 0.007,0.0308 -0.01,0.38003 -0.0309,0.007 -0.005,0.41093 0.0115,0.31394 -0.0188,0.53906 -0.0249,1.17107 0.017,0.34478 -0.0297,1.36118 -0.0446,2.15215 0.007,0.0309 -0.0314,0.22534 0.007,0.0309 -0.0252,1.39206 -0.0392,1.7412 -0.028,0.69811 -0.01,0.38002 -0.0374,0.85738 0.0222,0.37563 0.008,0.062 -0.0322,2.46597 1.90024,0.0485 0.007,0.0309 1.13579,-0.002 4.7816,0.11686 1.8339,0.0263 0.44207,0.001 0.69809,0.0281 1.73687,0.008 0.79099,0.0151 0.31825,0.0185 0.95004,0.0243 2.20979,0.005 0.72911,0.0238 3.47799,0.0477 0.91477,-0.002 1.45405,0.0164 0.12813,0.0137 0.98102,0.0199 0.0309,-0.007 0.0309,-0.007 0.2519,-0.004 0.57008,0.0146 0.63195,0.006 0.85289,0.006 0.75574,-0.0112 2.33795,0.0186 2.62063,0.0104 1.1358,-0.002 0.25192,-0.004 0.0662,0.0224 0.0972,0.0178 0.0309,-0.007 0.0926,-0.0148 0.12812,0.0136 1.03856,-0.0201 0.50819,0.0233 0.84863,-0.0248 1.0738,0.007 0.15912,0.009 0.25192,-0.004 2.93455,-0.002 2.62065,0.0104 1.79877,-3.9e-4 3.75643,0.009 3.43402,-0.0408 0.82193,0.0108 0.85298,0.006 0.12383,-0.0168 1.41863,-0.01 3.59316,-0.0316 0.0309,-0.007 0.12813,0.0136 0.0308,-0.007 0.0353,0.0264 0.0309,-0.007 z"
       id="UT-02"
       style="font-style:normal;font-weight:400;font-size:34.375px;font-family:'MS Shell Dlg 2';opacity:1;fill:none;fill-opacity:1;fill-rule:evenodd;stroke:#000000;stroke-width:0.33333385;stroke-linecap:square;stroke-linejoin:bevel;stroke-miterlimit:4;stroke-dasharray:none;stroke-opacity:1" />
    <path
       inkscape:connector-curvature="0"
       d="m 435.0182,598.76492 c -0.14952,0.0427 -0.32451,0.0536 -0.45552,0.12719 -0.31483,0.17563 -0.54811,0.45723 -0.69153,0.91757 l -19.87094,0.52055 c -0.16612,-1.5418 -0.2015,-3.10842 0.18746,-4.72831 0.19457,-0.80998 0.48329,-1.62054 0.91599,-2.46398 0.43282,-0.84344 1.00981,-1.72604 1.74725,-2.6123 l -21.7577,0.34388 -0.70912,-24.35706 c -0.19575,0.0609 -0.55799,-0.0563 -0.56195,0.26832 -0.30659,0.4547 -0.60318,1.02956 -0.95358,1.52252 -0.35051,0.49298 -0.77167,0.90925 -1.30184,1.06658 -0.20746,-0.27995 -0.43092,-0.43638 -0.67057,-0.50542 -0.23962,-0.0689 -0.48719,-0.0535 -0.72038,0.0383 -0.46663,0.18333 -0.88752,0.64026 -1.09867,1.16424 -0.15794,0.19397 -0.31449,0.26626 -0.50003,0.25952 -0.18553,-0.007 -0.406,-0.11168 -0.60051,-0.23108 -0.38913,-0.23896 -0.77156,-0.59966 -1.0855,-0.76266 -0.33596,-0.50867 -0.85091,-0.7037 -1.38136,-0.84728 -0.53034,-0.14349 -1.05944,-0.25445 -1.47468,-0.61312 0.001,-0.33778 -0.14362,-0.87937 -0.39055,-1.20741 -0.12344,-0.16411 -0.27203,-0.2629 -0.44586,-0.25302 -0.17368,0.01 -0.38577,0.13342 -0.60196,0.43178 -0.11682,0.44347 -0.27598,0.91402 -0.54216,1.30699 -0.26612,0.39286 -0.62492,0.68462 -1.15522,0.76188 -0.46657,-0.28979 -0.98097,-0.61739 -1.34545,-1.04158 -0.36459,-0.42428 -0.58526,-0.94595 -0.50473,-1.57004 -0.0328,-0.1935 -0.0542,-0.39218 -0.0827,-0.58801 l -3.40303,0.0365 -0.0693,1.30364 -1.27643,-0.32552 -0.12635,1.12221 -0.61891,0.087 0.0564,2.42203 c -0.23506,0.009 -0.33376,0.0825 -0.38051,0.21121 -0.0468,0.12865 -0.0557,0.31159 -0.0498,0.54343 0.0121,0.46376 0.008,1.1288 -0.58332,1.91239 l 3.08276,2.84868 0.0706,1.85188 0.79388,0.7089 0.0666,1.82097 1.80301,0.0307 -0.004,1.76775 -1.68805,1.90971 c -0.72445,0.82486 -0.71461,1.29507 -0.76412,1.74837 -0.0248,0.22665 -0.0723,0.4349 -0.21822,0.69331 -0.14574,0.2585 -0.3863,0.56598 -0.84618,0.93952 l 1.69649,2.19142 -0.48509,1.48819 11.09736,-0.0764 0.0398,9.71398 -1.13146,0.0326 -0.003,1.32582 0,0 0.10037,25.86273 27.84326,-0.37872 c 0.30397,0.22923 0.45213,0.57577 0.55011,0.99563 0.098,0.41983 0.15999,0.91018 0.22665,1.38814 0.0668,0.47808 0.13657,0.93591 0.34615,1.3399 0.20997,0.40399 0.55267,0.75512 1.0805,0.95266 0.50827,0.76683 1.00969,1.80689 1.15588,2.83556 0.0732,0.5142 0.0503,1.03344 -0.10497,1.49787 -0.15527,0.46443 -0.42885,0.86228 -0.90438,1.20004 -0.62142,0.63527 -1.29129,1.31118 -1.86511,1.99781 -0.57374,0.68654 -1.05532,1.40073 -1.2732,2.16698 -0.64944,-0.14662 -1.06311,0.0216 -1.37087,0.35051 -0.30775,0.32935 -0.50215,0.81937 -0.70122,1.29763 -0.19907,0.47836 -0.41756,0.93995 -0.74091,1.24018 -0.32325,0.30031 -0.76952,0.44028 -1.45004,0.23536 -0.66727,-0.2224 -1.51319,-0.28912 -2.15217,-0.0446 -0.3195,0.1222 -0.6035,0.32961 -0.7659,0.61254 -0.16251,0.28289 -0.22091,0.64918 -0.12635,1.12223 -0.45417,0.0228 -0.70465,0.11867 -0.84474,0.27655 -0.1401,0.15783 -0.1607,0.3827 -0.10304,0.61403 0.11551,0.46252 0.52178,0.99597 0.73042,1.38047 -0.75802,0.56733 -1.15996,1.42924 -1.5784,2.24148 -0.20909,0.40615 -0.41747,0.78099 -0.69196,1.1387 -0.2745,0.35765 -0.59627,0.69857 -1.03631,0.93461 -0.39339,0.0563 -0.6955,0.26922 -0.92939,0.5723 -0.23378,0.30321 -0.42829,0.67177 -0.54588,1.05505 -0.23538,0.76672 -0.27861,1.53119 -0.30868,1.62125 -0.70147,0.20148 -1.0798,0.48994 -1.23493,0.86782 -0.15521,0.37787 -0.0626,0.85341 0.16443,1.39689 -0.18068,0.40802 -0.58658,0.73752 -1.0233,1.02742 -0.43657,0.28997 -0.92084,0.52667 -1.27896,0.77938 -0.38942,-0.19349 -0.59059,-0.1231 -0.71171,0.0999 -0.12114,0.22312 -0.14402,0.59776 -0.13941,1.0294 0.009,0.8632 0.11126,1.95039 -0.23072,2.39928 -0.16991,0.77994 -0.74993,1.38444 -1.43634,1.90583 -0.6863,0.5215 -1.48775,0.95879 -2.11109,1.36975 -1.00933,-0.0431 -1.92133,-0.0145 -2.78026,0.20138 -0.85902,0.21585 -1.66585,0.6313 -2.36313,1.37355 -0.83926,0.18404 -1.66607,0.39845 -2.45448,0.72363 -0.23682,0.0978 -0.40767,0.31542 -0.63286,0.43603 l 0.0619,-0.008 0.0309,-0.007 0.062,-0.008 0.0308,-0.007 0.0309,-0.007 0.0353,0.0266 0.59663,-0.0207 0.0309,-0.007 0.12812,0.0136 0.0309,-0.007 0.91478,-0.002 0.38006,0.01 0.0309,-0.007 0.44193,0.001 0.50385,-0.008 0.062,-0.008 0.19001,0.005 0.21661,-0.0308 2.08582,0.0224 0.0621,-0.008 0.12385,-0.0168 0.9104,-0.0338 0.62765,-0.025 0.12812,0.0136 7.01843,-0.1343 1.10043,-0.0282 1.70151,-0.0183 0.12385,-0.0168 0.38006,0.01 0.0926,-0.0148 0.78665,-0.0157 0.38003,0.01 0.40661,-0.0253 0.44205,10e-4 0.21652,-0.0308 0.15913,0.009 0.0661,0.0225 0.46378,0.15566 0.0619,-0.008 0.65859,-0.03 0.41103,0.005 0.44186,10e-4 0.40671,-0.0253 0.78673,-0.0157 0.44184,0.001 0.40672,-0.0253 0.78674,-0.0157 2.23627,-0.03 0.28294,-0.008 0.40661,-0.0253 0.78666,-0.0157 0.4067,-0.0253 0.38005,0.01 0.34469,-0.017 0.0621,-0.008 0.0308,-0.007 0.81763,-0.0203 0.44194,0.001 0.0352,0.0265 1.50717,-0.0536 0.9415,-0.0379 0.0309,-0.007 0.3448,-0.017 2.07711,-0.0393 0.0973,0.0179 1.53804,-0.0587 0.2519,-0.004 1.66628,-0.0448 0.28294,-0.008 0.0927,-0.0148 2.57668,-0.0782 0.53477,-0.0113 2.01095,-0.0622 0.0309,-0.007 0.0926,-0.0148 0.34479,-0.017 0.12813,0.0136 0.34478,-0.017 0.50387,-0.008 1.09609,-0.0594 0.062,-0.008 0.0972,0.0179 0.37565,-0.0222 0.28285,-0.008 1.19332,-0.0414 3.08057,-0.0858 -0.0207,-0.59671 -0.008,-0.0619 -0.0414,-1.41435 -0.008,-0.062 -0.017,-0.34477 -0.004,-0.2519 -0.0222,-0.37566 -0.008,-0.0619 0.0266,-0.0353 -0.0971,-1.81662 -0.0341,-0.6895 0.0179,-0.0971 0.009,-0.15912 -0.0506,-0.81332 -0.008,-0.28285 -0.0622,-2.01095 -0.0225,-0.15471 -0.0378,-0.94141 10e-4,-0.44195 -0.0561,-2.64293 0.005,-0.19003 -0.004,-0.25191 -0.007,-0.0308 0.01,-0.38002 -0.0288,-0.87956 -0.0393,-2.07732 -0.0526,-0.37129 0.009,-0.15902 -0.0414,-1.19336 -0.055,-1.28621 0.0266,-0.0352 -0.0423,-0.75141 -0.0168,-0.12386 0.009,-0.15904 -0.0168,-0.12383 -0.003,-0.47295 -0.0203,-0.81762 -0.0465,-1.00332 0.005,-0.19 -0.055,-0.84434 0.0271,-0.25626 -0.0382,-0.72043 -0.11074,-1.90948 -0.025,-0.62761 0.0223,-0.0661 -0.0858,-3.08064 -0.025,-0.62763 -0.0249,-0.62764 -0.0115,-0.31372 -0.3484,-2.25477 -0.1527,-0.86213 -0.1278,-3.83196 -0.0956,-2.47958 -0.10867,-2.79327 -0.0985,-3.39433 -0.0438,-2.10822 0.0136,-0.12814 -0.0129,-2.11246 -0.0203,-0.81762 -0.007,-0.0308 -0.0201,-1.03864 -0.007,-0.0309 -0.036,-1.6043 -0.0169,-0.56571 -0.007,-0.0308 -0.0651,-2.48393 0.005,-0.19002 -0.007,-0.0309 -0.004,-0.25191 -0.22322,-6.75335 -0.0953,-2.70049 -0.042,-0.97243 z"
       id="UT-03"
       style="font-style:normal;font-weight:400;font-size:34.375px;font-family:'MS Shell Dlg 2';opacity:1;fill:#000000;fill-opacity:1;fill-rule:evenodd;stroke:#000000;stroke-width:0.33333385;stroke-linecap:square;stroke-linejoin:bevel;stroke-miterlimit:4;stroke-dasharray:none;stroke-opacity:1" />
    <path
       inkscape:connector-curvature="0"
       d="m 375.56342,565.74941 -0.062,0.008 -2.08056,-0.43336 -2.12999,-0.11093 -0.21957,1.35625 -0.92348,-0.0595 -0.21098,1.41815 -2.87311,0.21447 c -0.0234,0.68512 0.0664,1.40009 0.10605,2.0995 0.0396,0.6993 0.007,1.39696 -0.24769,2.05446 -0.32997,0.16765 -0.4988,0.36104 -0.57597,0.61737 -0.0772,0.25632 -0.0664,0.54807 -0.006,0.85299 0.12005,0.6096 0.40924,1.27666 0.38471,1.83935 0.16878,0.6874 0.0958,1.38436 0.0393,2.07713 -0.0561,0.69284 -0.0924,1.38101 0.13235,2.06427 9e-4,0.51034 0.19466,0.55592 0.33454,0.58412 0.13997,0.0281 0.21776,0.0498 0.0388,0.49947 -0.10275,1.34035 -0.49471,2.7066 -0.28324,4.04753 0.20947,0.65753 0.67504,1.19173 1.09654,1.73931 0.42151,0.54755 0.7963,1.10108 0.82668,1.84035 0.0113,0.64964 0.0659,1.42842 -0.0446,2.15216 -0.11074,0.72376 -0.36432,1.40124 -0.91455,1.80102 -0.43533,0.0869 -0.95602,0.1026 -1.28665,0.27553 -0.1654,0.0864 -0.28055,0.21625 -0.32351,0.39264 -0.0429,0.17631 -0.0127,0.39532 0.1309,0.70738 -0.26429,0.57246 -0.86099,0.89391 -1.43466,1.24305 -0.5737,0.34905 -1.1111,0.75449 -1.31142,1.4466 -0.26497,0.47439 -0.51833,1.09671 -0.48077,1.51909 0.0191,0.21122 0.0921,0.36433 0.28191,0.43379 0.1897,0.0694 0.50412,0.0275 0.92826,-0.13047 0.6225,-0.0516 1.20168,0.0265 1.58601,0.28202 0.19215,0.12781 0.32824,0.30509 0.39208,0.54452 0.0639,0.23936 0.0464,0.51839 -0.0639,0.89259 0.11947,1.43565 0.29988,2.8922 0.5426,4.31014 l -0.005,0.19 4.84821,-0.0816 0.0205,-1.20215 4.55191,0.0546 0.0514,-1.20647 9.64776,-0.062 0.003,-1.32582 1.13146,-0.0325 -0.0398,-9.714 -11.09738,0.0764 0.48511,-1.48818 -1.69649,-2.19144 c 0.45988,-0.37352 0.70043,-0.68101 0.84618,-0.9395 0.14586,-0.25841 0.19344,-0.46667 0.21823,-0.69331 0.0495,-0.45331 0.0396,-0.92352 0.76412,-1.74836 l 1.68805,-1.90973 0.004,-1.76776 -1.80302,-0.0307 -0.0666,-1.82097 -0.79389,-0.7089 -0.0706,-1.85186 -3.08278,-2.84869 c 0.59122,-0.78361 0.59519,-1.44863 0.58333,-1.91239 -0.006,-0.23183 0.003,-0.41478 0.0498,-0.54344 0.0468,-0.12865 0.14548,-0.20139 0.38051,-0.2112 l -0.0564,-2.42202 0.61893,-0.087 0.12634,-1.12222 1.27642,0.32554 0.0693,-1.30364 z"
       id="UT-04"
       style="font-style:normal;font-weight:400;font-size:34.375px;font-family:'MS Shell Dlg 2';opacity:1;fill:none;fill-opacity:1;fill-rule:evenodd;stroke:#000000;stroke-width:0.33333385;stroke-linecap:square;stroke-linejoin:bevel;stroke-miterlimit:4;stroke-dasharray:none;stroke-opacity:1" />
  </g>
</svg>
