<?xml version="1.0" encoding="UTF-8" standalone="no"?>
<!-- Created with Inkscape (http://www.inkscape.org/) -->

<svg
   xmlns:dc="http://purl.org/dc/elements/1.1/"
   xmlns:cc="http://creativecommons.org/ns#"
   xmlns:rdf="http://www.w3.org/1999/02/22-rdf-syntax-ns#"
   xmlns:svg="http://www.w3.org/2000/svg"
   xmlns="http://www.w3.org/2000/svg"
   xmlns:sodipodi="http://sodipodi.sourceforge.net/DTD/sodipodi-0.dtd"
   xmlns:inkscape="http://www.inkscape.org/namespaces/inkscape"
   width="43.296444mm"
   height="49.092812mm"
   viewBox="0 0 153.41261 173.95091"
   id="svg12983"
   version="1.1"
   inkscape:version="0.91 r"
   sodipodi:docname="4.svg">
  <defs
     id="defs12985" />
  <sodipodi:namedview
     id="base"
     pagecolor="#ffffff"
     bordercolor="#666666"
     borderopacity="1.0"
     inkscape:pageopacity="0.0"
     inkscape:pageshadow="2"
     inkscape:zoom="7.0016243"
     inkscape:cx="55.826597"
     inkscape:cy="86.748628"
     inkscape:document-units="px"
     inkscape:current-layer="layer1"
     showgrid="false"
     fit-margin-top="1"
     fit-margin-left="1"
     fit-margin-right="1"
     fit-margin-bottom="1"
     inkscape:window-width="2560"
     inkscape:window-height="1388"
     inkscape:window-x="0"
     inkscape:window-y="0"
     inkscape:window-maximized="1" />
  <metadata
     id="metadata12988">
    <rdf:RDF>
      <cc:Work
         rdf:about="">
        <dc:format>image/svg+xml</dc:format>
        <dc:type
           rdf:resource="http://purl.org/dc/dcmitype/StillImage" />
        <dc:title></dc:title>
      </cc:Work>
    </rdf:RDF>
  </metadata>
  <g
     inkscape:label="Layer 1"
     inkscape:groupmode="layer"
     id="layer1"
     transform="translate(-430.72538,-373.08242)">
    <path
       inkscape:connector-curvature="0"
       d="m 538.0402,523.29541 -4.51304,0.0291 0.0772,2.48012 -4.89368,0.0964 -0.017,-2.44464 -17.14592,0.14803 0.0262,-4.8537 -2.50264,-0.0497 -0.1315,-3.0479 -1.24912,-0.0564 -0.0381,-1.69427 -10.87188,0.0229 c 0.0307,0.1909 0.0252,0.3925 0.0543,0.56778 -0.0244,0.33259 -0.0265,0.76099 -0.14091,1.11788 -0.11433,0.3568 -0.34124,0.64807 -0.74021,0.73135 l -17.22858,-0.0144 c -0.16216,-0.37022 -0.39253,-0.5866 -0.66681,-0.76708 -0.27426,-0.18057 -0.59908,-0.31947 -0.90906,-0.43948 l -0.0821,6.10284 -4.94736,-0.0327 -0.0939,2.68749 -1.00629,0.055 -0.0157,1.12661 -0.47192,0.0297 0.003,0.8461 1.69002,0.0245 -0.0491,7.42084 -27.58257,-0.67569 -0.0248,1.25131 -0.0283,0.40531 -0.0254,0.81271 -0.0483,2.03278 -0.0283,0.40531 -0.0352,1.84575 -0.004,0.0625 -0.006,0.53209 -0.003,0.0312 -0.003,0.0313 -0.0117,0.15589 -0.0656,2.28217 0.12472,0.008 1.97055,0.0434 0.4074,-0.003 0.0313,0.003 0.77941,0.0544 0.37626,-0.005 0.43852,-3.4e-4 0.78157,0.0236 0.0935,0.008 0.21825,0.0156 0.53207,0.006 1.56316,0.0466 0.87505,0.0299 0.71911,0.0195 0.43861,-3.5e-4 0.34516,-0.007 0.0312,0.003 0.93742,0.0338 1.46948,0.0403 0.56342,0.008 0.24941,0.0168 0.12472,0.008 1.50289,0.0111 0.0312,0.003 0.93742,0.0338 0.22034,-0.0161 0.71923,0.0196 0.12472,0.008 0.40738,-0.003 0.99973,0.039 1.22021,0.0223 0.18921,-0.018 0.37627,-0.005 0.24943,0.0168 0.40748,-0.003 0.43853,-3.5e-4 -0.003,0.0312 0.93967,0.003 0.25158,-0.0137 0.81261,0.0254 0.21824,0.0156 1.15774,0.0182 0.37627,-0.005 0.0958,-0.0247 0.62564,0.0129 0.688,0.017 0.0313,0.003 0.25155,-0.0137 0.24943,0.0168 0.0934,0.008 0.59444,0.0103 0.15588,0.0117 0.4075,-0.003 0.84601,-0.004 0.40531,0.0283 0.40739,-0.003 0.37627,-0.005 0.43641,0.0308 0.40749,-0.003 0.4074,-0.003 0.40738,-0.003 0.56342,0.008 0.24942,0.0168 0.0312,0.003 0.25157,-0.0136 0.0624,0.004 0.0623,0.004 0.22046,-0.0161 0.0935,0.008 0.846,-0.004 1.31376,0.0289 0.81261,0.0254 0.31401,-0.009 1.28462,-0.004 0.0312,0.003 1.00192,0.007 0.12471,0.008 1.3782,0.002 0.46766,0.0326 0.46984,10e-4 0.0957,-0.0247 1.06428,0.0116 0.25157,-0.0136 0.18707,0.0123 0.93958,0.003 1.53401,0.0134 0.8461,-0.004 1.18896,0.0205 0.43863,-3.5e-4 0.34514,-0.007 0.0623,0.004 0.0313,0.003 0.15811,-0.0204 0.0934,0.008 0.0313,0.003 0.0934,0.008 0.18708,0.0123 0.22045,-0.0161 1.2201,0.0223 0.75254,-0.0101 1.6899,0.0245 0.75255,-0.0102 1.15992,-0.0129 0.0313,0.003 0.53217,0.006 0.6879,0.017 0.37845,-0.0361 0.15588,0.0117 0.0935,0.008 0.0935,0.008 1.03523,-0.0215 0.65688,0.0145 0.81487,-0.006 0.37628,-0.005 0.56332,0.008 0.0624,0.004 0.59672,-0.0209 0.0312,0.003 0.18921,-0.018 0.12473,0.008 0.0624,0.004 0.12471,0.008 0.0935,0.008 0.81696,-0.037 0.40531,0.0283 0.18923,-0.018 0.0312,0.003 0.37626,-0.005 0.53218,0.006 1.12879,-0.0149 0.18708,0.0123 0.37625,-0.005 0.22046,-0.016 0.65677,0.0145 0.0332,-0.0291 0.53219,0.006 0.65904,-0.0164 0.37628,-0.005 0.18696,0.0123 0.81498,-0.006 1.06636,-0.0194 0.50096,0.004 0.34514,-0.007 0.59671,-0.021 0.59444,0.0103 0.40749,-0.003 0.22034,-0.016 0.28061,0.0198 0.0332,-0.029 0.28269,-0.0116 0.40532,0.0283 0.81706,-0.0369 0.40739,-0.003 0.0313,0.003 0.37626,-0.005 0.78375,-0.008 0.94166,-0.0281 0.2828,-0.0117 0.0624,0.004 0.34514,-0.007 0.40738,-0.003 0.0935,0.008 1.63195,-0.0425 0.31382,-0.009 0.2828,-0.0116 1.53628,-0.0179 0.31167,0.0213 0.28498,-0.0427 0.56332,0.008 0.0312,0.003 0.37627,-0.005 0.25158,-0.0136 0.15588,0.0117 0.25156,-0.0137 0.53438,-0.0253 0.2805,0.0198 0.12687,-0.0224 0.62784,-0.019 0.0624,0.004 1.38036,-0.0287 0.2182,0.0156 0.40967,-0.034 1.53628,-0.0179 0.2827,-0.0117 0.18707,0.0123 1.4449,-0.0556 0.688,0.017 0.12688,-0.0224 0.0624,0.004 0.34515,-0.007 0.18912,-0.0181 1.4116,-0.0266 0.43859,-3.5e-4 0.53428,-0.0253 0.34515,-0.007 0.0624,0.004 0.28279,-0.0116 0.22033,-0.016 0.0624,0.004 0.31393,-0.009 0.46974,10e-4 0.0333,-0.0289 0.0935,0.008 0.0313,0.003 0.0313,0.003 0.59661,-0.0209 0.62785,-0.0189 0.21814,0.0156 0.1581,-0.0203 0.15589,0.0117 0.0956,-0.0247 0.0935,0.008 0.18932,-0.0181 0.0935,0.008 0.0624,0.004 0.0312,0.003 0.0313,0.003 0.0623,0.004 0.44079,-0.0317 0.81489,-0.006 0.18922,-0.018 0.1559,0.0117 0.8794,-0.0326 0.53426,-0.0252 0.0624,0.004 0.31392,-0.009 0.0935,0.008 0.91055,-0.0302 0.40738,-0.003 0.0957,-0.0246 0.0312,0.003 0.0313,0.003 1.60071,-0.0447 0.18932,-0.018 0.40957,-0.0342 0.18708,0.0123 0.12471,0.008 0.59662,-0.0208 -0.016,-0.22046 0.008,-0.12471 -0.0289,-0.0332 -0.087,-0.10014 -0.0289,-0.0332 -0.12033,-0.0712 -0.0581,-0.0666 -0.076,-0.25592 -0.14283,-0.19805 -0.0204,-0.15799 0.008,-0.0935 0.003,-0.0312 0.003,-0.0312 0.0355,-0.0602 0.003,-0.0312 0.13995,-0.20955 0.004,-0.0623 0.0168,-0.24941 0.003,-0.0313 0.003,-0.0313 0.003,-0.0312 -0.0203,-0.15799 0.003,-0.0313 -0.058,-0.0667 0.003,-0.0312 -0.058,-0.0668 -0.0312,-0.003 -0.0871,-0.10003 -0.14709,-0.13559 -0.0581,-0.0667 -0.029,-0.0332 -0.0914,-0.0377 -0.0557,-0.0979 -0.087,-0.10013 -0.0514,-0.16019 -0.0405,-0.31619 0.11532,-0.3051 0.008,-0.0935 0.004,-0.0624 -0.029,-0.0333 0.008,-0.0935 -0.029,-0.0333 -0.11817,-0.10219 -0.0268,-0.0645 -0.0449,-0.25375 0.004,-0.0624 0.003,-0.0313 -0.0137,-0.25157 0.064,-0.46537 0.0357,-0.0601 -0.0342,-0.40958 0.04,-0.12251 0.10438,-0.14939 0.04,-0.1225 0.0357,-0.0601 0.008,-0.12471 0.0332,-0.0289 0.004,-0.0625 -0.0405,-0.31599 0.16829,-0.61476 0.0444,-0.18496 0.004,-0.0623 -0.17188,-0.23136 -0.14492,-0.16671 -0.0289,-0.0333 -0.0602,-0.0357 -0.016,-0.22035 -0.0848,-0.13124 -0.10725,-0.25811 -0.0224,-0.12687 -0.0493,-0.1914 -0.0225,-0.12688 -0.0245,-0.0957 -0.0224,-0.12686 -0.0848,-0.13125 -0.0224,-0.12686 -0.14719,-0.1356 -0.029,-0.0332 -0.12034,-0.071 -0.0288,-0.0333 -0.029,-0.0332 -0.029,-0.0332 -0.20289,-0.23352 -0.0472,-0.22263 -0.0268,-0.0644 -0.0246,-0.0957 -0.11381,-0.16455 0.003,-0.0313 -0.1472,-0.1356 -0.21163,-0.10874 -0.029,-0.0333 -0.0558,-0.0979 -0.0312,-0.003 0.003,-0.0313 0.003,-0.0313 -0.0848,-0.13123 -0.0268,-0.0644 -0.0892,-0.069 -0.0892,-0.0688 -0.0312,-0.003 -0.10725,-0.2581 -0.0493,-0.1915 0.003,-0.0312 0.003,-0.0312 -0.029,-0.0333 0.003,-0.0313 -0.17603,-0.16889 -0.23196,-0.26682 -0.0581,-0.0668 -0.14927,-0.10437 -0.21173,-0.10883 -0.0289,-0.0332 -0.0827,-0.16247 -0.0268,-0.0645 -0.26525,-0.23786 0.004,-0.0623 -0.029,-0.0334 -0.0247,-0.0956 -0.0536,-0.12905 -0.0559,-0.098 -0.06,-0.0356 -0.0602,-0.0357 -0.0289,-0.0333 -0.0312,-0.003 -0.15158,-0.0732 -0.0601,-0.0357 -0.12251,-0.04 -0.15147,-0.0731 -0.0935,-0.008 -0.19139,0.0492 -0.0313,-0.003 -0.0312,-0.003 -0.27398,-0.11309 -0.14938,-0.10438 -0.12032,-0.0712 -0.34069,-0.0552 -0.18933,0.018 -0.2805,-0.0198 -0.24503,-0.0797 -0.2472,-0.0487 -0.0312,-0.003 -0.12688,0.0225 -0.0313,-0.003 -0.029,-0.0333 -0.0913,-0.0377 -0.0289,-0.0332 -0.0913,-0.0376 -0.0313,-0.003 -0.0579,-0.0668 -0.0269,-0.0644 -0.029,-0.0333 -0.0268,-0.0645 -0.058,-0.0667 0.003,-0.0313 -0.0313,-0.003 0.003,-0.0312 -0.0289,-0.0332 -0.0288,-0.0333 -0.0602,-0.0357 -0.12036,-0.0709 -0.0913,-0.0377 -0.0602,-0.0357 -0.0914,-0.0376 -0.0289,-0.0332 -0.087,-0.10013 -0.0601,-0.0356 0.003,-0.0313 -0.0313,-0.003 -0.0624,-0.004 -0.0332,0.029 -0.0313,-0.003 -0.029,-0.0333 -0.0623,-0.004 -0.0559,-0.0979 -0.0288,-0.0333 -0.0288,-0.0333 -0.029,-0.0332 -0.0313,-0.003 -0.0556,-0.0979 -0.0827,-0.16237 -0.0537,-0.12906 -0.0269,-0.0645 -0.06,-0.0357 -0.029,-0.0332 -0.058,-0.0667 -0.058,-0.0668 -0.0891,-0.0689 -0.0313,-0.003 -0.0602,-0.0357 -0.0957,0.0247 -0.0935,-0.008 -0.2385,-0.17335 -0.029,-0.0332 -0.0203,-0.15799 -0.018,-0.18933 -0.0269,-0.0644 -0.17179,-0.23134 -0.0312,-0.003 -0.029,-0.0332 -0.029,-0.0333 -0.15364,-0.0421 -0.0624,-0.004 -0.34287,-0.024 -0.0313,-0.003 -0.029,-0.0332 -0.0312,-0.003 -0.0288,-0.0332 -0.11816,-0.10229 -0.15157,-0.0733 -0.11815,-0.10218 -0.42553,-0.18645 -0.24067,-0.14213 -0.20955,-0.13996 -0.22323,-0.39153 -0.0912,-0.0377 -0.12034,-0.071 -0.0601,-0.0357 -0.0602,-0.0357 -0.0601,-0.0356 -0.0914,-0.0376 -0.0869,-0.10013 z"
       id="MN-01"
       style="font-style:normal;font-weight:400;font-size:34.375px;font-family:'MS Shell Dlg 2';opacity:1;fill:none;fill-opacity:1;fill-rule:evenodd;stroke:#000000;stroke-width:0.33333385;stroke-linecap:square;stroke-linejoin:bevel;stroke-miterlimit:4;stroke-dasharray:none;stroke-opacity:1" />
    <path
       inkscape:connector-curvature="0"
       d="m 519.28562,504.7858 -4.38177,-0.0558 0.092,0.47631 -0.4075,0.003 -0.24624,-0.95701 -0.70964,-1.05208 -1.40941,-0.005 c -0.15306,0.3982 -0.37946,0.51512 -0.6068,0.6154 -0.13901,0.0612 -0.25259,0.20613 -0.36695,0.31894 l 0,0 c -0.0728,0.0718 -0.18388,0.0693 -0.23353,0.20295 -0.0747,0.18596 -0.15373,0.36788 -0.22616,0.54806 l 0,0 c -0.0484,0.12011 -0.0883,0.25756 -0.15086,0.36536 -0.15659,0.26955 -0.34952,0.46806 -0.72953,0.57553 -0.33224,0.11232 -0.58696,0.40761 -0.82944,0.6625 -0.24246,0.25491 -0.49059,0.47442 -0.84976,0.50447 -0.43262,0.0884 -0.81171,-0.0769 -1.20482,-0.2409 -0.39322,-0.16396 -0.80279,-0.33345 -1.23388,-0.27423 -0.78657,0.0251 -1.56673,0.059 -2.35336,0.0547 -0.26548,0.2286 -0.50615,0.56079 -0.78026,0.85389 l 0,0 c -0.17346,0.18554 -0.43779,0.30296 -0.5068,0.52844 -0.0495,0.34575 0.0814,0.86706 0.0375,1.25568 -0.0216,0.19432 -0.0779,0.37481 -0.21975,0.45453 -0.1419,0.0797 -0.37416,0.0682 -0.71705,-0.05 -0.57768,0.75074 -1.09238,1.0711 -1.95692,1.55478 l 0,0 c -0.0154,0.01 -0.018,0.0203 -0.0333,0.029 -0.61157,0.41254 -1.47628,0.47878 -2.06923,0.9203 -0.37895,0.29267 -0.5085,0.68881 -0.51701,1.12297 -0.005,0.24457 0.0662,0.4817 0.10569,0.72786 l 10.87189,-0.0229 0.0381,1.69428 1.24911,0.0564 0.13151,3.04789 2.50264,0.0497 -0.0262,4.8537 17.14591,-0.14802 0.017,2.44464 4.89368,-0.0964 -0.0772,-2.48013 4.51302,-0.029 -0.029,-0.0332 -0.14928,-0.10447 -0.15145,-0.0733 -0.0602,-0.0357 0.003,-0.0312 -0.029,-0.0332 0.003,-0.0313 0.008,-0.0935 -0.0268,-0.0646 0.008,-0.0935 -0.0871,-0.10004 -0.20084,-0.26466 -0.0536,-0.12905 -0.0225,-0.12687 0.11523,-0.30531 0.003,-0.0312 0.008,-0.1247 -0.0268,-0.0645 -0.0268,-0.0645 -0.0269,-0.0645 -0.0891,-0.0689 -0.029,-0.0332 0.003,-0.0313 0.004,-0.0624 0.0156,-0.21825 -0.029,-0.0333 -0.0268,-0.0645 -0.0312,-0.003 -0.029,-0.0334 -0.0602,-0.0355 -0.0288,-0.0332 -0.029,-0.0333 -0.0313,-0.003 -0.24287,-0.11085 -0.0601,-0.0357 -0.0245,-0.0956 -0.0313,-0.003 0.003,-0.0313 0.003,-0.0313 0.003,-0.0312 0.003,-0.0312 0.003,-0.0313 0.0712,-0.12032 0.10873,-0.21163 0.0357,-0.0602 0.003,-0.0312 -0.0494,-0.1914 -0.0536,-0.12904 -0.0581,-0.0667 -0.10943,-0.22698 -0.058,-0.0666 -0.15154,-0.0734 -0.12034,-0.0709 -0.17397,-0.20022 -0.0537,-0.12906 -0.14503,-0.16672 -0.0869,-0.10013 -0.0313,-0.003 -0.0288,-0.0332 -0.0312,-0.003 -0.029,-0.0332 -0.029,-0.0334 -0.0623,-0.004 0.003,-0.0313 -0.0313,-0.003 -0.0313,-0.003 -0.0312,-0.003 -0.0935,-0.008 -0.0623,-0.004 -0.0313,-0.003 -0.12034,-0.0709 -0.11816,-0.10229 -0.058,-0.0667 -0.0914,-0.0377 -0.0289,-0.0332 -0.21826,-0.0156 -0.0288,-0.0332 -0.0312,-0.003 -0.33205,-0.17989 -0.1471,-0.1356 -0.0313,-0.003 0.003,-0.0313 -0.058,-0.0666 -0.0558,-0.098 -0.029,-0.0332 -0.0623,-0.004 -0.0914,-0.0377 -0.21825,-0.0156 -0.12472,-0.008 -0.12033,-0.0711 -0.06,-0.0356 -0.18282,-0.0756 -0.0312,-0.003 -0.0935,-0.008 -0.18476,-0.0441 -0.0582,-0.0667 -0.0312,-0.003 -0.11597,-0.13342 -0.0601,-0.0357 -0.30956,-0.0528 -0.46549,-0.0638 -0.0312,-0.003 -0.1225,-0.04 -0.39867,-0.12181 -0.12472,-0.008 -0.39876,-0.12192 -0.0291,-0.0332 -0.0935,-0.008 -0.23848,-0.17336 -0.0869,-0.10003 -0.0581,-0.0669 -0.0579,-0.0666 -0.0269,-0.0646 -0.0892,-0.0688 -0.30312,-0.1465 -0.26525,-0.23789 -0.11598,-0.13341 -0.14711,-0.1356 -0.0581,-0.0667 -0.0268,-0.0645 -0.058,-0.0667 0.003,-0.0313 -0.029,-0.0332 0.003,-0.0312 -0.0579,-0.0668 -0.0538,-0.12907 0.003,-0.0312 -0.0268,-0.0645 0.004,-0.0624 0.0198,-0.28052 -0.0268,-0.0646 0.003,-0.0312 -0.11597,-0.13342 -0.0538,-0.12906 -0.047,-0.22262 0.003,-0.0312 -0.0581,-0.0667 0.003,-0.0313 -0.0312,-0.003 0.003,-0.0312 -0.058,-0.0667 -0.0313,-0.003 0.003,-0.0313 -0.1471,-0.1356 -0.15146,-0.0732 -0.2139,-0.0777 -0.24722,-0.0485 -0.0624,-0.004 -0.12472,-0.008 -0.15809,0.0203 -0.25376,0.045 -0.0312,-0.003 -0.1247,-0.008 -0.0624,-0.004 -0.0624,-0.004 -0.0914,-0.0377 -0.1558,-0.0117 -0.0288,-0.0333 -0.0935,-0.008 -0.087,-0.10004 -0.12471,-0.008 -0.0312,-0.003 -0.16235,0.0826 -0.28499,0.0429 -0.12252,-0.04 -0.18484,-0.0444 -0.0601,-0.0356 -0.15156,-0.0733 -0.0644,0.0269 -0.0313,-0.003 -0.0645,0.0268 -0.0332,0.0288 -0.0313,-0.003 -0.0313,-0.003 -0.0312,-0.003 -0.0312,-0.003 -0.029,-0.0332 -0.0934,-0.008 -0.12034,-0.0711 -0.0313,-0.003 -0.0602,-0.0357 -0.11816,-0.10219 -0.0312,-0.003 -0.12904,0.0537 -0.13343,0.11597 -0.0624,-0.004 -0.0356,0.0601 -0.0312,-0.003 -0.003,0.0313 -0.0313,-0.003 -0.0313,-0.003 -0.0312,-0.003 -0.0312,-0.003 -0.0313,-0.003 0.003,-0.0313 -0.0313,-0.003 -0.0289,-0.0333 -0.0268,-0.0644 0.003,-0.0313 0.0376,-0.0913 0.003,-0.0313 0.008,-0.0935 -0.25435,-0.39371 -0.11162,-0.19587 -0.0313,-0.003 0.003,-0.0312 -0.0313,-0.003 0.003,-0.0312 -0.0312,-0.003 -0.0312,-0.003 -0.0935,-0.008 -0.0332,0.0289 -0.0377,0.0914 -0.0645,0.0268 -0.0312,-0.003 0.003,-0.0312 -0.0313,-0.003 -0.029,-0.0333 -0.0224,-0.12687 -0.24067,-0.14214 -0.12471,-0.008 -0.12688,0.0224 -0.0601,-0.0356 -0.0313,-0.003 -0.0289,-0.0332 -0.0289,-0.0332 -0.0269,-0.0645 0.003,-0.0312 -0.029,-0.0332 0.003,-0.0312 0.0377,-0.0913 0.0421,-0.15369 0.008,-0.12472 -0.0515,-0.16023 -0.23196,-0.26683 -0.4523,-0.25091 -0.12033,-0.0711 -0.058,-0.0667 -0.11816,-0.10218 -0.058,-0.0667 -0.28777,-0.36471 -0.17614,-0.16895 -0.029,-0.0332 -0.058,-0.0667 -0.0289,-0.0332 -0.23632,-0.20448 -0.41247,-0.37344 -0.0892,-0.0689 -0.27179,-0.1443 -0.0601,-0.0356 -0.0624,-0.004 -0.17614,-0.16895 -0.24284,-0.11096 -0.0313,-0.003 -0.15145,-0.0733 -0.0289,-0.0332 -0.29876,-0.20885 0.003,-0.0312 -0.0288,-0.0332 0.003,-0.0312 -0.0601,-0.0356 -0.029,-0.0332 0.0156,-0.21821 0.0117,-0.15583 0.04,-0.12251 0.0798,-0.24503 0.10447,-0.14934 0.1356,-0.14713 0.0709,-0.12035 0.0444,-0.18487 0.0213,-0.31175 0.003,-0.0312 0.003,-0.0312 0.003,-0.0312 0.0313,0.003 0.11097,-0.24286 0.0357,-0.0601 -0.0269,-0.0645 0.003,-0.0312 0.003,-0.0312 0.0377,-0.0913 0.0332,-0.0288 0.0332,-0.0289 0.0357,-0.0601 0.003,-0.0312 0.003,-0.0312 0.008,-0.0934 -0.0695,-0.34944 0.003,-0.0312 -0.0246,-0.0956 0.008,-0.0934 z"
       id="MN-02"
       style="font-style:normal;font-weight:400;font-size:34.375px;font-family:'MS Shell Dlg 2';opacity:1;fill:none;fill-opacity:1;fill-rule:evenodd;stroke:#000000;stroke-width:0.33333385;stroke-linecap:square;stroke-linejoin:bevel;stroke-miterlimit:4;stroke-dasharray:none;stroke-opacity:1" />
    <path
       inkscape:connector-curvature="0"
       d="m 502.65769,507.38222 c 0.27412,-0.2931 0.51478,-0.62529 0.78027,-0.85389 0.78662,0.005 1.56679,-0.0297 2.35336,-0.0547 0.43108,-0.0593 0.84065,0.11028 1.23387,0.27423 0.39312,0.16398 0.77221,0.32923 1.20483,0.2409 0.35917,-0.03 0.60729,-0.24956 0.84976,-0.50447 0.24248,-0.25489 0.49719,-0.55018 0.82944,-0.6625 0.38002,-0.10747 0.57294,-0.30598 0.72952,-0.57553 0.0625,-0.1078 0.10239,-0.24525 0.15086,-0.36537 l -2.49828,-0.11191 -0.0478,-0.6612 -0.49876,-0.0351 -0.12819,-0.85478 -0.97287,0.0259 -0.0597,0.40307 -0.37406,-0.0265 -0.2392,-0.61192 0.62287,-0.39501 0.0572,-3.50456 0.87287,0.0611 0.0195,-0.71916 1.49852,0.0736 -0.0586,-0.50532 -0.33049,-0.64963 0.5633,0.008 0.074,-2.40695 -1.9748,0.0186 c -0.15615,0.27344 -0.0181,0.57862 -0.0611,0.87287 -0.15339,-0.0498 -0.43477,-0.36955 -0.73291,-0.27054 -0.23608,0.006 -0.29406,-0.1859 -0.35012,-0.36908 -0.056,-0.18316 -0.0806,-0.36487 -0.28339,-0.42705 -0.33201,-0.0816 -0.86015,0.12123 -1.04684,-0.26116 -0.11231,-0.27594 -0.53112,-0.51998 -0.81984,-0.3706 -0.33025,0.36206 -0.76258,0.60963 -1.21452,0.79221 -0.38429,0.19997 -0.84519,-0.10417 -1.20205,0.16656 -0.19105,0.14892 -0.19887,0.32521 -0.12845,0.49223 0.0705,0.16704 0.21155,0.3222 0.34575,0.43142 0.1966,0.27785 0.26033,0.72831 0.17746,1.04618 -0.35865,-0.0123 -0.63501,-0.37051 -1.00908,-0.3525 -0.36672,-0.094 -0.62801,0.16339 -0.6627,0.51754 -0.10038,0.38753 -0.11358,0.81688 -0.39239,1.13164 -0.10162,0.41266 -0.74207,0.47087 -0.72447,0.95177 l 0.0866,7.27378 1.82334,-0.0918 -0.095,0.46325 0.65896,-0.0165 0.0696,0.34946 0.90399,0.0632 z"
       id="MN-03"
       style="font-style:normal;font-weight:400;font-size:34.375px;font-family:'MS Shell Dlg 2';opacity:1;fill:none;fill-opacity:1;fill-rule:evenodd;stroke:#000000;stroke-width:0.33333385;stroke-linecap:square;stroke-linejoin:bevel;stroke-miterlimit:4;stroke-dasharray:none;stroke-opacity:1" />
    <path
       inkscape:connector-curvature="0"
       d="m 519.64852,497.35551 -9.58707,0.0188 -0.0459,2.00168 0.45954,0.596 0.16772,3.42629 0.19199,0.38935 0.41464,0.34226 c 0.11434,-0.11282 0.22793,-0.25766 0.36694,-0.31895 0.22735,-0.10028 0.45376,-0.21719 0.60681,-0.6154 l 1.4094,0.005 0.70965,1.05206 0.24623,0.95701 0.4075,-0.003 -0.092,-0.47633 4.38179,0.0558 0.003,-0.0312 0.04,-0.12252 0.042,-0.15369 0.004,-0.0624 0.004,-0.0624 -0.11162,-0.19575 -0.0805,-0.1936 -0.0268,-0.0645 0.008,-0.12472 0.003,-0.0312 0.004,-0.0624 0.003,-0.0312 0.13124,-0.0847 0.10013,-0.0869 0.0312,0.003 0.0356,-0.0602 0.003,-0.0312 0.003,-0.0312 0.0443,-0.18486 0.0573,-0.3719 0.0441,-0.18487 -0.0246,-0.0956 0.003,-0.0312 0.003,-0.0312 -0.0225,-0.12688 -0.0269,-0.0645 -0.0204,-0.15807 -0.0827,-0.1624 -0.0557,-0.0979 -0.12033,-0.071 -0.029,-0.0332 0.003,-0.0312 -0.0269,-0.0645 0.004,-0.0624 -0.0224,-0.12687 0.003,-0.0312 0.008,-0.0935 0.008,-0.12471 -0.0224,-0.12687 0.004,-0.0624 -0.0181,-0.18923 0.008,-0.0934 0.0377,-0.0913 0.003,-0.0312 0.0399,-0.12253 0.003,-0.0312 0.0356,-0.0602 0.0357,-0.0601 0.004,-0.0624 0.004,-0.0623 0.003,-0.0312 -0.0537,-0.12906 -0.11597,-0.1334 -0.058,-0.0667 -0.0914,-0.0376 -0.0269,-0.0645 -0.0313,-0.003 -0.12033,-0.071 -0.0289,-0.0332 -0.11816,-0.10219 -0.087,-0.10003 -0.0826,-0.16242 0.003,-0.0312 -0.0247,-0.0956 0.008,-0.12471 0.003,-0.0312 0.003,-0.0312 0.0357,-0.0601 0.14212,-0.24067 0.0333,-0.0289 0.0332,-0.0288 0.0332,-0.0288 0.0668,-0.058 0.23124,-0.1718 0.13779,-0.17831 0.23561,-0.23413 0.13122,-0.0847 0.0646,-0.0268 0.0732,-0.15153 0.004,-0.0624 0.003,-0.0312 -0.0268,-0.0645 -0.0288,-0.0332 -0.0559,-0.0979 0.003,-0.0312 z"
       id="MN-04"
       style="font-style:normal;font-weight:400;font-size:34.375px;font-family:'MS Shell Dlg 2';opacity:1;fill:#000000;fill-opacity:1;fill-rule:evenodd;stroke:#000000;stroke-width:0.33333385;stroke-linecap:square;stroke-linejoin:bevel;stroke-miterlimit:4;stroke-dasharray:none;stroke-opacity:1" />
    <path
       inkscape:connector-curvature="0"
       d="m 509.21534,497.37779 -0.5633,-0.008 0.33049,0.64963 0.0586,0.50532 -1.49853,-0.0736 -0.0196,0.71917 -0.87287,-0.0611 -0.0572,3.50455 -0.62288,0.39502 0.2392,0.61193 0.37406,0.0265 0.0597,-0.40308 0.97288,-0.0259 0.12818,0.85478 0.49877,0.0351 0.0478,0.66121 2.49827,0.11191 c 0.0725,-0.18017 0.15153,-0.3621 0.22619,-0.54805 0.0496,-0.13357 0.16074,-0.13116 0.23352,-0.20296 l -0.41463,-0.34226 -0.19201,-0.38934 -0.1677,-3.4263 -0.45955,-0.596 0.046,-2.00167 -0.84611,0.004 z"
       id="MN-05"
       style="font-style:normal;font-weight:400;font-size:34.375px;font-family:'MS Shell Dlg 2';opacity:1;fill:none;fill-opacity:1;fill-rule:evenodd;stroke:#000000;stroke-width:0.33333385;stroke-linecap:square;stroke-linejoin:bevel;stroke-miterlimit:4;stroke-dasharray:none;stroke-opacity:1" />
    <path
       inkscape:connector-curvature="0"
       d="m 519.5123,492.58439 -5.38588,-0.032 -0.085,-3.26387 -9.71188,0.0101 -0.0262,-4.10557 -4.94946,-0.001 -0.14024,-7.4028 -11.52649,-0.0229 c 0.4552,0.70389 0.97093,1.18323 1.5963,1.36468 l -4.85381,-0.0261 0.0268,9.02385 -1.08816,0.33115 10e-4,0.87723 -1.50724,0.0512 -0.012,2.41131 5.10309,0.0436 0.013,1.15998 2.4069,0.074 0.0974,8.46491 4.91168,0.0927 -0.0737,7.32521 2.47358,0.0164 -0.0539,1.21796 2.56499,0.0538 0.001,0.87724 c 0.86455,-0.48368 1.37925,-0.80406 1.95692,-1.55478 0.34288,0.1184 0.57515,0.12986 0.71705,0.0501 0.14191,-0.0797 0.19784,-0.26022 0.21974,-0.45454 0.0439,-0.38861 -0.087,-0.90992 -0.0375,-1.25567 0.0691,-0.22548 0.33334,-0.34291 0.5068,-0.52844 l -0.90399,-0.0632 -0.0696,-0.34946 -0.65897,0.0165 0.0951,-0.46326 -1.82336,0.0918 -0.0866,-7.27377 c -0.0175,-0.4809 0.62282,-0.53911 0.72446,-0.95178 0.27875,-0.31476 0.29201,-0.74409 0.3924,-1.13163 0.0348,-0.35415 0.29597,-0.61151 0.6627,-0.51754 0.37408,-0.0181 0.6504,0.34098 1.00909,0.35251 0.0829,-0.31787 0.0184,-0.76836 -0.17747,-1.04619 -0.13421,-0.10923 -0.27523,-0.26438 -0.34575,-0.43142 -0.0704,-0.16702 -0.0626,-0.34331 0.12845,-0.49223 0.35686,-0.27077 0.81775,0.0336 1.20205,-0.16656 0.45194,-0.18258 0.88426,-0.43015 1.21452,-0.79221 0.28873,-0.14938 0.70752,0.0947 0.81984,0.3706 0.18669,0.38239 0.71484,0.17946 1.04683,0.26116 0.20276,0.0623 0.22735,0.24389 0.2834,0.42705 0.0561,0.18318 0.11403,0.37484 0.35013,0.36908 0.29813,-0.099 0.57951,0.22072 0.73291,0.27054 0.0425,-0.29425 -0.0951,-0.59944 0.0611,-0.87287 l 1.9748,-0.0185 -0.074,2.40693 0.84613,-0.004 0,0 9.58706,-0.0188 -0.0985,-0.3828 -0.12966,-0.38499 -0.0246,-0.0956 -0.0204,-0.15807 0.008,-0.12471 0.10659,-0.18049 0.004,-0.0624 -0.0312,-0.003 -0.0871,-0.10003 -0.14493,-0.16677 -0.0268,-0.0645 -0.0225,-0.12689 0.008,-0.12471 0.003,-0.0312 0.0486,-0.24721 0.0356,-0.0601 0.10014,-0.087 0.0688,-0.0891 0.04,-0.12251 0.003,-0.0312 -0.0247,-0.0956 -0.0289,-0.0332 -0.0246,-0.0956 -0.0538,-0.12906 0.0156,-0.2182 -0.0716,-0.31828 0.008,-0.0935 0.10003,-0.087 0.0734,-0.1515 -0.0225,-0.12688 0.003,-0.0312 0.004,-0.0624 -0.11379,-0.16459 -0.087,-0.10003 -0.0203,-0.15805 0.004,-0.0624 0.0357,-0.0602 0.0356,-0.0601 0.16018,-0.0515 0.0333,-0.0288 z"
       id="MN-06"
       style="font-style:normal;font-weight:400;font-size:34.375px;font-family:'MS Shell Dlg 2';opacity:1;fill:none;fill-opacity:1;fill-rule:evenodd;stroke:#000000;stroke-width:0.33333385;stroke-linecap:square;stroke-linejoin:bevel;stroke-miterlimit:4;stroke-dasharray:none;stroke-opacity:1" />
    <path
       inkscape:connector-curvature="0"
       d="m 473.5944,376.79236 -0.003,0.0312 0.003,0.40743 -0.003,0.0312 -0.004,0.0624 0.009,0.31391 -0.0198,0.28055 -0.003,0.0312 -0.005,0.97075 -0.003,0.0312 -0.004,0.0624 -0.0177,1.59641 -0.0194,1.62759 0.016,0.2204 -0.008,0.12471 -0.004,0.0623 -0.0747,5.10096 -3.16169,-0.0332 -0.34286,-0.024 -0.2828,0.0116 -0.24942,-0.0168 -2.15966,-0.0257 -5.25467,-0.11683 -2.09521,-0.0527 -0.34287,-0.024 -1.46948,-0.0402 -0.62564,-0.0129 -2.47152,-0.0471 -4.94072,-0.12625 -2.43813,-0.0762 -2.50043,-0.0814 -2.43811,-0.0762 -0.0313,-0.003 -2.43802,-0.0762 -2.43601,-0.10773 -3.0927,-0.1223 -0.0689,0.0891 -0.004,0.0624 0.0268,0.0645 -0.0356,0.0602 -0.0332,0.0289 -0.003,0.0312 -0.069,0.0891 -0.0356,0.0601 -0.003,0.0312 0.0224,0.12687 -0.004,0.0623 -0.004,0.0624 -0.042,0.1537 0.0289,0.0332 -0.004,0.0624 0.0313,0.003 0.0313,0.003 0.0289,0.0332 0.0289,0.0332 0.029,0.0332 -0.004,0.0624 -0.003,0.0312 -0.003,0.0312 -0.0443,0.18485 -0.003,0.0312 0.0582,0.0667 -0.003,0.0312 0.0312,0.003 -0.003,0.0312 -0.003,0.0312 0.0288,0.0332 -0.008,0.0935 0.0225,0.12688 -0.003,0.0312 0.0602,0.0356 0.0312,0.003 0.0269,0.0645 0.0269,0.0645 -0.069,0.0891 -0.004,0.0624 0.0269,0.0645 0.0891,0.0689 0.029,0.0332 0.0247,0.0956 -0.0377,0.0913 -0.003,0.0312 -0.003,0.0312 0.0248,0.0956 0.0312,0.003 0.0268,0.0645 0.15156,0.0733 0.0269,0.0645 -0.008,0.0935 -0.0356,0.0601 -0.003,0.0312 -0.003,0.0312 0.029,0.0332 -0.004,0.0623 -0.003,0.0312 -0.003,0.0312 -0.004,0.0624 -0.004,0.0624 0.06,0.0356 0.0871,0.10004 0.0601,0.0356 0.029,0.0332 -0.003,0.0312 -0.0377,0.0913 -0.003,0.0312 -0.004,0.0624 0.0291,0.0332 0.06,0.0356 0.0581,0.0667 0.0224,0.12686 0.0557,0.0978 -0.008,0.0935 -0.0333,0.0289 -0.003,0.0312 -0.003,0.0312 0.0269,0.0645 0.0269,0.0645 -0.004,0.0624 -0.004,0.0624 -0.003,0.0312 -0.0333,0.0288 -0.0645,0.0268 -0.0356,0.0602 -0.008,0.0935 0.0268,0.0645 0.0289,0.0332 -0.003,0.0312 -0.008,0.0935 -0.0376,0.0913 0.0268,0.0645 0.0269,0.0645 0.0602,0.0356 0.0601,0.0356 0.0313,0.003 0.06,0.0356 -0.004,0.0624 -0.003,0.0312 -0.004,0.0624 -0.003,0.0312 0.0269,0.0645 -0.003,0.0312 -0.008,0.0935 -0.004,0.0624 0.029,0.0332 0.0268,0.0645 0.0624,0.004 0.029,0.0332 -0.0357,0.0602 -0.008,0.0935 0.0269,0.0645 0.0312,0.003 0.0312,0.003 -0.003,0.0312 -0.008,0.0934 -0.003,0.0312 -0.0332,0.0289 0.0288,0.0332 -0.003,0.0312 0.029,0.0332 0.0804,0.19359 -0.004,0.0624 -0.0356,0.0601 -0.0399,0.12253 -0.003,0.0312 0.0288,0.0332 0.11814,0.10218 -0.003,0.0312 0.0557,0.0978 0.0181,0.18922 -0.004,0.0624 -0.003,0.0312 0.0579,0.0667 0.029,0.0332 -0.008,0.12471 -0.0313,-0.003 -0.003,0.0312 -0.004,0.0624 0.0602,0.0356 0.11817,0.10219 0.0579,0.0667 -0.003,0.0312 0.0225,0.12688 0.11597,0.13341 -0.0377,0.0913 -0.003,0.0312 -0.0332,0.0288 0.0245,0.0956 0.1697,0.26248 0.06,0.0356 0.12034,0.071 0.0291,0.0332 -0.003,0.0312 -0.003,0.0312 -0.0333,0.0288 -0.0356,0.0601 -0.003,0.0312 0.0136,0.25156 -0.008,0.0935 -0.0332,0.0288 -0.0356,0.0602 0.0289,0.0332 -0.003,0.0312 -0.008,0.0934 -0.004,0.0624 -0.0667,0.058 -0.0357,0.0601 -0.008,0.12472 -0.0688,0.0891 -0.0357,0.0601 0.0537,0.12905 0.0245,0.0957 -0.004,0.0624 -0.0332,0.0288 -0.003,0.0312 -0.0312,-0.003 -0.0646,0.0268 -0.12251,-0.0399 -0.0956,0.0245 -0.003,0.0312 -0.003,0.0312 0.029,0.0332 0.0288,0.0332 -0.004,0.0624 -0.0332,0.0288 -0.003,0.0312 -0.0625,-0.004 -0.0312,-0.003 -0.0356,0.0601 0.0268,0.0645 -0.0376,0.0913 -0.0935,-0.008 -0.003,0.0312 -0.0376,0.0913 0.0312,0.003 -0.004,0.0624 -0.004,0.0624 -0.0376,0.0913 -0.0333,0.0288 -0.0357,0.0602 -0.003,0.0312 -0.0356,0.0602 0.0268,0.0645 0.0269,0.0645 -0.0442,0.18486 -0.003,0.0312 -0.0332,0.0288 -0.0645,0.0268 -0.0333,0.0288 0.0269,0.0645 -0.003,0.0312 -0.003,0.0312 -0.008,0.0935 -0.004,0.0623 -0.0667,0.058 -0.0332,0.0288 -0.0624,-0.004 -0.0356,0.0601 0.0224,0.12688 -0.003,0.0312 0.029,0.0332 0.0601,0.0356 0.0268,0.0645 -0.0356,0.0601 -0.003,0.0312 -0.0312,-0.003 -0.098,0.0558 -0.0332,0.0289 -0.0333,0.0288 -0.008,0.0935 0.0601,0.0356 -0.003,0.0312 0.0312,0.003 0.0892,0.0689 0.058,0.0667 0.0269,0.0645 -0.004,0.0624 -0.003,0.0312 -0.0357,0.0601 -0.0421,0.15369 0.0248,0.0957 0.0137,0.25157 0.047,0.22258 -0.004,0.0624 0.029,0.0332 0.11815,0.10219 -0.003,0.0312 0.029,0.0332 -0.008,0.0935 -0.0117,0.15585 -0.0333,0.0288 -0.0667,0.0581 -0.0332,0.0289 0.0268,0.0645 0.0289,0.0332 -0.003,0.0312 0.0289,0.0332 -0.0333,0.0288 -0.0332,0.0288 -0.008,0.1247 0.0246,0.0957 0.0269,0.0645 0.029,0.0333 0.0913,0.0376 0.0289,0.0332 -0.008,0.0935 -0.008,0.1247 -0.069,0.0891 -0.003,0.0312 -0.003,0.0312 -0.008,0.0935 0.029,0.0333 0.0247,0.0956 -0.0377,0.0913 -0.003,0.0312 -0.0357,0.0602 -0.0332,0.0288 -0.003,0.0312 0.0268,0.0645 0.0269,0.0645 -0.004,0.0624 -0.004,0.0624 -0.0313,-0.003 -0.0644,0.0268 -0.0333,0.0288 -0.003,0.0312 0.0269,0.0645 0.0623,0.004 0.0559,0.0978 -0.003,0.0312 0.0202,0.15805 -0.0356,0.0601 -0.0734,0.15149 -0.0956,0.0246 -0.004,0.0624 -0.003,0.0312 -0.0117,0.15585 0.0269,0.0645 0.0556,0.0978 -0.003,0.0312 -0.004,0.0624 -0.004,0.0623 -0.0376,0.0913 -0.0376,0.0913 -0.0333,0.0288 -0.0333,0.0288 -0.003,0.0312 -0.003,0.0312 -0.0123,0.18707 0.029,0.0332 0.0537,0.12907 0.0289,0.0332 0.0313,0.003 0.0601,0.0356 -0.004,0.0624 -0.0332,0.0289 -0.003,0.0312 0.0247,0.0956 0.0871,0.10003 0.0289,0.0332 -0.0399,0.1225 -0.04,0.12252 -0.003,0.0312 -0.003,0.0312 0.0291,0.0332 0.0312,0.003 0.0601,0.0355 -0.003,0.0312 -0.004,0.0624 -0.0377,0.0913 -0.0332,0.0288 -0.003,0.0312 -0.008,0.0935 -0.004,0.0624 0.0288,0.0332 0.0313,0.003 0.029,0.0332 0.0289,0.0332 -0.008,0.0935 -0.004,0.0624 0.058,0.0667 0.0313,0.003 -0.0356,0.0601 -0.003,0.0312 -0.0313,-0.003 -0.0312,-0.003 -0.0312,-0.003 -0.0356,0.0602 0.0247,0.0956 0.0288,0.0332 0.0312,0.003 0.0602,0.0356 0.0804,0.19359 -0.003,0.0312 -0.003,0.0312 -0.003,0.0312 -0.003,0.0312 -0.13996,0.20949 -0.0333,0.0289 -0.0956,0.0246 -0.004,0.0624 -0.003,0.0312 -0.003,0.0313 0.0623,0.004 0.0268,0.0645 -0.004,0.0624 -0.0332,0.0288 -0.0332,0.0288 -0.003,0.0312 0.0288,0.0332 0.0268,0.0645 -0.003,0.0312 -0.0332,0.0289 -0.003,0.0312 -0.0957,0.0245 -0.0688,0.0891 -0.0333,0.0288 -0.008,0.0935 0.0291,0.0332 0.0268,0.0645 -0.003,0.0312 -0.0332,0.0289 -0.0333,0.0288 -0.0333,0.0288 -0.004,0.0624 0.0269,0.0645 0.0601,0.0356 -0.003,0.0312 -0.003,0.0312 -0.0356,0.0601 -0.003,0.0312 -0.004,0.0624 0.0312,0.003 0.0268,0.0645 -0.003,0.0312 -0.003,0.0312 -0.0332,0.0288 -0.008,0.0935 -0.003,0.0312 0.0601,0.0356 -0.004,0.0624 -0.0667,0.058 -0.0332,0.0288 -0.004,0.0624 -0.003,0.0312 0.0245,0.0956 -0.0376,0.0913 -0.0333,0.0288 -0.003,0.0312 -0.0333,0.0289 -0.0732,0.15152 0.0268,0.0645 -0.003,0.0312 0.0312,0.003 0.029,0.0332 -0.004,0.0624 -0.004,0.0624 -0.0689,0.0891 -0.003,0.0312 -0.003,0.0312 -0.008,0.0935 0.0203,0.15806 0.0581,0.0667 0.0289,0.0332 -0.003,0.0312 -0.008,0.0935 -0.004,0.0624 -0.004,0.0624 -0.0356,0.0601 -0.008,0.0935 -0.004,0.0624 0.0623,0.004 0.0914,0.0376 0.0268,0.0645 -0.003,0.0312 -0.004,0.0624 0.0559,0.0978 0.0203,0.15805 0.0246,0.0956 0.0805,0.19358 0.0268,0.0645 -0.003,0.0312 -0.004,0.0624 -0.0666,0.058 -0.003,0.0312 -0.003,0.0312 0.0312,0.003 -0.003,0.0312 0.0601,0.0356 0.12688,-0.0224 0.0313,0.003 0.0288,0.0332 0.0224,0.12688 0.0581,0.0667 0.0268,0.0645 -0.003,0.0312 -0.003,0.0312 -0.0332,0.0288 -0.003,0.0312 -0.003,0.0312 0.06,0.0356 0.0559,0.0978 -0.008,0.0935 -0.0421,0.15368 -0.0667,0.0581 -0.004,0.0624 0.0289,0.0332 0.0935,0.008 0.13839,0.26029 0.0537,0.12906 0.0312,0.003 0.0288,0.0332 0.029,0.0332 0.029,0.0332 0.0913,0.0376 -0.003,0.0312 0.0289,0.0332 0.0289,0.0332 -0.004,0.0624 0.0289,0.0332 0.0225,0.12687 0.003,0.40745 -0.003,0.0312 -0.0734,0.15151 -0.003,0.0312 -0.003,0.0312 0.0291,0.0332 -0.003,0.0312 0.029,0.0332 0.0934,0.008 0.0313,0.003 -0.003,0.0312 -0.003,0.0312 -0.0357,0.0601 -0.0333,0.0289 0.0385,0.34729 0.0268,0.0645 0.15144,0.0733 0.0269,0.0645 -0.003,0.0312 -0.004,0.0624 -0.0754,0.18269 -0.042,0.15369 -0.003,0.0312 0.0245,0.0956 -0.004,0.0624 -0.10014,0.0869 -0.003,0.0312 -0.003,0.0312 0.0602,0.0356 0.0891,0.0689 0.0247,0.0956 -0.004,0.0624 -0.0399,0.1225 -0.003,0.0312 -0.004,0.0624 0.0869,0.10003 0.0892,0.0689 0.12474,0.008 0.0601,0.0356 -0.008,0.0934 -0.0377,0.0913 0.0247,0.0956 0.12034,0.0711 0.0313,0.003 -0.003,0.0312 0.0288,0.0332 0.0289,0.0332 0.0582,0.0667 0.0579,0.0667 -0.003,0.0312 -0.0688,0.0891 0.06,0.0356 0.029,0.0332 0.0248,0.0956 0.0268,0.0645 -0.0667,0.0581 -0.0602,-0.0356 -0.0581,-0.0667 -0.008,0.0934 0.0869,0.10003 -0.003,0.0312 -0.0978,0.0558 -0.008,0.0935 0.11598,0.13341 -0.003,0.0312 -0.13124,0.0847 -0.004,0.0624 0.0269,0.0645 0.0891,0.0689 0.029,0.0332 -0.0357,0.0602 -0.0667,0.058 0.0268,0.0645 0.0602,0.0356 0.0312,0.003 0.21824,0.0156 0.0268,0.0645 0.0288,0.0332 -0.0332,0.0288 -0.0645,0.0268 0.029,0.0332 0.0579,0.0667 0.029,0.0332 0.0313,0.003 -0.004,0.0624 0.0289,0.0332 -0.003,0.0312 -0.003,0.0312 -0.003,0.0312 0.0204,0.15805 -0.004,0.0624 -0.003,0.0312 -0.003,0.0312 -0.0312,-0.003 -0.003,0.0312 -0.003,0.0312 0.0849,0.13123 0.12471,0.008 0.0804,0.19357 -0.003,0.0312 -0.004,0.0624 -0.003,0.0312 0.0313,0.003 0.0288,0.0332 -0.004,0.0624 -0.003,0.0312 -0.0312,-0.003 -0.003,0.0312 -0.0117,0.15584 0.0557,0.0978 -0.003,0.0312 -0.0666,0.058 -0.003,0.0312 0.0268,0.0645 0.0558,0.0979 0.0269,0.0645 -0.003,0.0312 0.0312,0.003 0.0312,0.003 0.12252,0.0399 0.0269,0.0645 0.12034,0.071 0.0291,0.0332 -0.003,0.0312 -0.0957,0.0245 -0.0356,0.0602 -0.0356,0.0601 -0.003,0.0312 -0.003,0.0312 0.0313,0.003 0.0332,-0.0289 0.058,0.0667 0.029,0.0332 -0.008,0.12471 0.15578,0.0117 0.0558,0.0978 0.11816,0.10219 0.0537,0.12905 -0.0356,0.0602 -0.004,0.0624 0.0312,0.003 0.0268,0.0645 0.029,0.0332 -0.003,0.0312 -0.003,0.0312 -0.003,0.0312 -0.003,0.0312 0.0913,0.0376 -0.008,0.0934 -0.004,0.0624 -0.004,0.0624 -0.0688,0.0891 -0.003,0.0312 -0.003,0.0312 0.0557,0.0978 0.0827,0.16242 0.11816,0.10218 -0.003,0.0312 -0.003,0.0312 -0.0689,0.0891 -0.003,0.0312 -0.003,0.0312 0.029,0.0332 0.0268,0.0645 -0.0356,0.0602 0.0268,0.0645 0.0601,0.0356 0.029,0.0332 -0.008,0.0934 -0.003,0.0312 0.0289,0.0332 -0.003,0.0312 0.0312,0.003 0.0313,0.003 -0.003,0.0312 0.0269,0.0645 0.0268,0.0645 -0.003,0.0312 -0.003,0.0312 -0.0356,0.0601 -0.003,0.0312 -0.003,0.0312 0.0312,0.003 0.0312,0.003 0.0333,-0.0288 0.0357,-0.0601 0.0312,0.003 -0.003,0.0312 0.0312,0.003 -0.003,0.0312 0.0181,0.18923 0.0161,0.22041 0.0289,0.0332 0.0624,0.004 0.0291,0.0332 0.0268,0.0645 -0.004,0.0623 0.0268,0.0645 0.0269,0.0645 0.0313,0.003 -0.004,0.0624 -0.0668,0.058 -0.003,0.0312 0.0204,0.15804 0.058,0.0668 0.0289,0.0332 -0.008,0.12472 -0.004,0.0624 -0.003,0.0312 -0.0312,-0.003 -0.003,0.0312 -0.0645,0.0268 -0.0333,0.0288 0.11596,0.13343 0.0472,0.22258 -0.0117,0.15585 0.06,0.0356 0.12253,0.0399 -0.003,0.0312 -0.0666,0.058 -0.003,0.0312 0.18477,0.0442 0.0935,0.008 0.0288,0.0332 0.0581,0.0668 -0.003,0.0312 -0.003,0.0312 -0.003,0.0312 -0.0377,0.0913 0.0289,0.0332 0.0289,0.0332 -0.004,0.0624 -0.003,0.0312 -0.003,0.0312 -0.003,0.0312 -0.003,0.0312 0.0268,0.0645 0.0269,0.0645 -0.008,0.0935 -0.0357,0.0601 -0.003,0.0312 -0.004,0.0624 -0.003,0.0312 -0.0332,0.0289 -0.0356,0.0601 0.0268,0.0645 0.0289,0.0332 -0.003,0.0312 -0.003,0.0312 -0.0667,0.058 -0.0333,0.0288 -0.004,0.0623 0.0313,0.003 -0.003,0.0312 -0.004,0.0624 -0.0333,0.0288 -0.003,0.0312 -0.003,0.0312 0.0269,0.0645 0.0289,0.0332 0.0312,0.003 0.0269,0.0645 -0.0357,0.0602 -0.0332,0.0288 -0.003,0.0312 -0.003,0.0312 0.0289,0.0332 0.029,0.0332 -0.0357,0.0601 -0.003,0.0312 -0.0332,0.0288 -0.004,0.0624 0.0312,0.003 -0.003,0.0312 0.0289,0.0332 -0.13778,0.17833 -0.0313,-0.003 -0.0356,0.0601 -0.0332,0.0289 -0.003,0.0312 0.0536,0.12906 -0.008,0.0934 0.029,0.0332 0.0601,0.0356 0.0624,0.004 0.0313,0.003 -0.003,0.0312 -0.004,0.0624 0.0288,0.0332 0.0288,0.0332 -0.0332,0.0288 -0.0332,0.0289 -0.008,0.0934 -0.004,0.0624 0.0579,0.0667 -0.003,0.0312 -0.003,0.0312 -0.0332,0.0288 -0.0667,0.058 -0.003,0.0312 -0.0313,-0.003 -0.004,0.0624 -0.003,0.0312 0.029,0.0332 -0.003,0.0312 0.0313,0.003 -0.0356,0.0601 -0.0333,0.0288 -0.003,0.0312 -0.003,0.0312 0.029,0.0332 0.029,0.0332 -0.003,0.0312 -0.004,0.0624 -0.0356,0.0601 -0.0333,0.0288 -0.0356,0.0602 0.0224,0.12686 0.0269,0.0645 0.029,0.0332 -0.0356,0.0601 -0.0357,0.0601 -0.003,0.0312 -0.004,0.0624 0.029,0.0332 -0.003,0.0312 -0.003,0.0312 -0.0123,0.18707 0.0247,0.0956 -0.004,0.0624 -0.0357,0.0602 -0.003,0.0312 -0.003,0.0312 0.0269,0.0645 -0.0313,-0.003 -0.0377,0.0913 -0.003,0.0312 0.029,0.0332 -0.003,0.0312 0.0313,0.003 -0.0357,0.0601 -0.0667,0.0581 -0.0332,0.0288 -0.003,0.0312 0.0288,0.0332 0.0602,0.0356 -0.003,0.0312 -0.0357,0.0601 0.0559,0.0978 -0.003,0.0312 0.06,0.0356 0.0313,0.003 0.029,0.0332 -0.004,0.0624 0.0288,0.0332 0.0602,0.0356 0.058,0.0667 -0.003,0.0312 -0.0376,0.0913 0.0268,0.0645 0.0601,0.0356 -0.003,0.0312 0.029,0.0332 -0.003,0.0312 -0.0117,0.15584 -0.0668,0.058 -0.0312,-0.003 -0.008,0.0935 -0.0356,0.0602 -0.0333,0.0288 -0.0645,0.0268 -0.003,0.0312 -0.004,0.0624 0.0914,0.0376 -0.0333,0.0288 -0.003,0.0312 -0.0333,0.0289 -0.0312,-0.003 0.0558,0.0978 0.029,0.0332 -0.004,0.0624 -0.004,0.0624 0.0289,0.0332 0.0289,0.0332 0.0313,0.003 -0.003,0.0312 -0.0117,0.15584 -0.008,0.0934 0.0848,0.13122 0.0581,0.0667 0.0246,0.0956 -0.0689,0.0891 -0.003,0.0312 0.029,0.0332 0.0312,0.003 -0.003,0.0312 -0.004,0.0624 -0.003,0.0312 -0.003,0.0312 -0.003,0.0312 -0.003,0.0312 -0.003,0.0312 -0.003,0.0312 -0.003,0.0312 -0.0332,0.0289 -0.0625,-0.004 -0.003,0.0312 -0.0399,0.12252 0.0288,0.0332 0.0935,0.008 0.0537,0.12904 0.0269,0.0645 -0.13777,0.17832 -0.10229,0.11816 -0.003,0.0312 -0.004,0.0624 -0.003,0.0312 0.0514,0.16022 0.0181,0.18922 -0.003,0.0312 -0.0356,0.0601 -0.0377,0.0913 0.0289,0.0332 0.029,0.0332 0.0312,0.003 -0.004,0.0624 -0.0645,0.0268 -0.003,0.0312 -0.003,0.0312 0.0313,0.003 -0.003,0.0312 -0.004,0.0623 -0.003,0.0312 -0.003,0.0312 0.0289,0.0332 -0.003,0.0312 -0.003,0.0312 -0.003,0.0312 0.0892,0.0689 0.0268,0.0645 -0.0356,0.0602 -0.0333,0.0288 -0.003,0.0312 -0.0333,0.0288 -0.003,0.0312 0.029,0.0332 0.0289,0.0332 0.06,0.0356 -0.004,0.0624 -0.003,0.0312 -0.0312,-0.003 -0.0332,0.0289 -0.0357,0.0601 -0.004,0.0623 0.0581,0.0668 -0.003,0.0312 -0.0645,0.0268 -0.0333,0.0288 0.029,0.0332 -0.003,0.0312 0.0601,0.0356 -0.003,0.0312 -0.004,0.0624 -0.0332,0.0288 0.058,0.0667 -0.003,0.0312 -0.003,0.0312 -0.003,0.0312 -0.0356,0.0601 -0.003,0.0312 0.0312,0.003 -0.003,0.0312 0.0602,0.0356 -0.0333,0.0288 -0.10003,0.0869 -0.0333,0.0289 -0.004,0.0624 0.0289,0.0333 0.0289,0.0332 0.058,0.0667 0.029,0.0332 -0.003,0.0312 -0.004,0.0624 -0.003,0.0312 -0.004,0.0624 0.0312,0.003 0.0288,0.0332 0.0313,0.003 -0.003,0.0312 -0.003,0.0312 -0.004,0.0624 -0.0357,0.0601 -0.003,0.0312 -0.003,0.0312 0.0289,0.0332 0.0602,0.0356 -0.004,0.0624 -0.008,0.0935 0.0288,0.0332 0.029,0.0332 -0.004,0.0624 -0.0357,0.0601 -0.0332,0.0289 0.0289,0.0332 0.029,0.0332 -0.003,0.0312 -0.0313,-0.003 -0.0644,0.0268 -0.003,0.0312 -0.069,0.0891 -0.003,0.0312 0.029,0.0332 -0.003,0.0312 -0.003,0.0312 -0.0333,0.0288 -0.0332,0.0289 0.0268,0.0645 0.0582,0.0667 -0.008,0.0934 -0.003,0.0312 -0.004,0.0624 -0.003,0.0312 0.0268,0.0645 -0.003,0.0312 0.0601,0.0356 -0.004,0.0624 -0.0357,0.0601 -0.0356,0.0602 -0.003,0.0312 0.0312,0.003 0.0871,0.10004 -0.004,0.0623 -0.004,0.0624 -0.003,0.0312 -0.003,0.0312 -0.003,0.0312 0.0602,0.0356 -0.003,0.0312 -0.004,0.0624 -0.004,0.0624 -0.0333,0.0288 -0.004,0.0624 0.0313,0.003 -0.003,0.0312 0.0225,0.12688 -0.0668,0.058 -0.003,0.0312 0.0269,0.0645 -0.0399,0.12249 0.029,0.0333 0.0289,0.0332 -0.0357,0.0601 -0.0357,0.0601 -0.008,0.0934 -0.0332,0.0288 -0.003,0.0312 -0.0117,0.15583 0.0288,0.0332 -0.003,0.0312 -0.003,0.0312 -0.0332,0.0288 -0.003,0.0312 0.0224,0.12687 0.0581,0.0668 0.018,0.18921 -0.042,0.15369 -0.004,0.0624 0.0289,0.0332 -0.003,0.0312 0.0289,0.0332 -0.0332,0.0288 -0.0332,0.0289 -0.003,0.0312 -0.003,0.0312 -0.003,0.0312 0.0579,0.0667 -0.003,0.0312 -0.0356,0.0602 -0.12687,0.0224 -0.0667,0.058 -0.0733,0.15152 0.0288,0.0332 -0.0399,0.12251 -0.0356,0.0601 -0.003,0.0312 0.0312,0.003 -0.003,0.0312 0.0268,0.0645 0.0892,0.0689 0.0312,0.003 0.0602,0.0356 -0.004,0.0624 -0.003,0.0312 -0.0333,0.0288 -0.008,0.0935 0.0269,0.0645 0.0384,0.34726 -0.003,0.0312 -0.0123,0.18708 -0.003,0.0312 0.0269,0.0645 0.18051,0.10659 0.16019,-0.0514 0.0291,0.0332 0.0269,0.0645 -0.003,0.0312 -0.0357,0.0601 0.0225,0.12688 -0.003,0.0312 -0.008,0.0934 -0.003,0.0312 -0.003,0.0312 0.0288,0.0332 0.0312,0.003 0.0624,0.004 0.0268,0.0645 0.0268,0.0645 -0.008,0.12472 -0.008,0.0934 -0.008,0.0935 -0.003,0.0312 -0.003,0.0312 0.0313,0.003 0.0624,0.004 -0.004,0.0624 0.0289,0.0332 0.0313,0.003 0.0689,-0.0891 0.0645,-0.0268 0.0333,-0.0288 0.22688,-0.10944 0.0313,0.003 0.0289,0.0332 -0.003,0.0312 -0.003,0.0312 -0.0356,0.0602 -0.003,0.0312 -0.003,0.0312 0.06,0.0356 -0.0332,0.0288 -0.003,0.0312 -0.0332,0.0288 0.0288,0.0332 0.0268,0.0645 -0.003,0.0312 -0.0312,-0.003 -0.0332,0.0288 -0.04,0.12251 0.0247,0.0957 -0.0333,0.0288 -0.008,0.0935 -0.0624,-0.004 -0.0288,-0.0332 -0.0668,0.058 -0.0776,0.21387 0.0204,0.15804 0.0268,0.0645 -0.004,0.0624 -0.003,0.0312 0.0602,0.0356 0.0332,-0.0288 0.0312,0.003 -0.003,0.0312 -0.008,0.12471 -0.0356,0.0601 -0.0312,-0.003 -0.0914,-0.0376 -0.0915,-0.0376 -0.0332,0.0289 0.0289,0.0332 0.0269,0.0645 -0.003,0.0312 -0.004,0.0624 -0.008,0.0935 -0.003,0.0312 -0.0313,-0.003 -0.003,0.0312 -0.0356,0.0601 -0.004,0.0623 0.0268,0.0645 0.029,0.0332 -0.003,0.0312 -0.0333,0.0289 -0.003,0.0312 -0.003,0.0312 -0.003,0.0312 0.029,0.0332 0.0313,0.003 0.0288,0.0332 -0.003,0.0312 -0.0332,0.0288 -0.003,0.0312 -0.0356,0.0601 0.0269,0.0645 -0.003,0.0312 -0.0333,0.0288 -0.0313,-0.003 -0.0332,0.0288 -0.003,0.0312 0.0288,0.0332 -0.003,0.0312 -0.003,0.0312 -0.0332,0.0288 -0.0957,0.0245 -0.003,0.0312 0.0291,0.0332 0.0269,0.0645 -0.003,0.0312 -0.0625,-0.004 -0.0312,-0.003 -0.13559,0.14714 -0.0376,0.0913 0.0224,0.12687 -0.0356,0.0601 -0.0313,-0.003 -0.003,0.0312 0.029,0.0332 0.0891,0.0689 -0.003,0.0312 -0.008,0.0935 -0.003,0.0312 -0.008,0.0935 -0.008,0.0934 -0.008,0.12472 -0.004,0.0624 0.0313,0.003 -0.003,0.0312 0.0312,0.003 -0.003,0.0312 0.0268,0.0645 0.029,0.0332 -0.0357,0.0601 -0.003,0.0312 -0.004,0.0624 0.0602,0.0356 0.0288,0.0332 -0.003,0.0312 -0.0356,0.0602 0.0288,0.0332 0.058,0.0667 -0.003,0.0312 0.0313,0.003 -0.003,0.0312 -0.0333,0.0288 -0.003,0.0312 -0.003,0.0312 0.0289,0.0332 -0.003,0.0312 -0.0313,-0.003 -0.0357,0.0602 -0.003,0.0312 -0.004,0.0624 0.029,0.0332 0.0269,0.0645 -0.004,0.0624 -0.004,0.0624 -0.003,0.0312 -0.003,0.0312 -0.004,0.0623 -0.003,0.0312 0.0579,0.0667 -0.008,0.0935 -0.0399,0.12252 0.0268,0.0645 0.0313,0.003 -0.003,0.0312 0.0313,0.003 -0.004,0.0624 -0.008,0.12471 -0.0979,0.0558 -0.0399,0.12251 -0.003,0.0312 -0.004,0.0624 -0.0421,0.15369 -0.0711,0.12033 0.0892,0.0689 -0.008,0.12471 -0.008,0.0935 -0.004,0.0624 -0.004,0.0624 0.06,0.0356 -0.003,0.0312 -0.003,0.0312 -0.0688,0.0891 -0.004,0.0624 -0.003,0.0312 -0.0958,0.0245 -0.003,0.0312 -0.004,0.0624 -0.004,0.0624 -0.008,0.0934 -0.0332,0.0288 -0.003,0.0312 -0.0646,0.0268 -0.0156,0.21821 0.0537,0.12906 0.11598,0.13341 -0.0156,0.2182 -0.004,0.0624 -0.004,0.0624 -0.008,0.0935 -0.004,0.0624 0.0312,0.003 0.0312,0.003 -0.003,0.0312 0.0625,0.004 -0.003,0.0312 0.029,0.0332 -0.0356,0.0602 0.0224,0.12687 0.0936,0.008 -0.003,0.0312 -0.003,0.0312 -0.003,0.0312 -0.003,0.0312 0.06,0.0356 0.0291,0.0332 -0.003,0.0312 -0.003,0.0312 -0.003,0.0312 -0.0357,0.0601 0.029,0.0333 0.0601,0.0356 -0.003,0.0312 -0.004,0.0624 -0.003,0.0312 -0.004,0.0624 0.0289,0.0332 0.0625,0.004 0.0557,0.0978 0.029,0.0332 -0.003,0.0312 -0.003,0.0312 -0.004,0.0624 -0.003,0.0312 0.0313,0.003 0.06,0.0356 0.029,0.0332 -0.004,0.0623 0.029,0.0332 0.0312,0.003 0.0312,0.003 -0.0376,0.0913 0.0268,0.0645 0.029,0.0332 0.0313,0.003 0.058,0.0667 0.0161,0.22042 -0.003,0.0312 -0.003,0.0312 -0.0333,0.0289 -0.004,0.0624 -0.0312,-0.003 -0.004,0.0624 -0.003,0.0312 -0.003,0.0312 0.0288,0.0332 0.0248,0.0956 0.029,0.0332 -0.0357,0.0601 -0.004,0.0624 0.0602,0.0356 -0.003,0.0312 -0.003,0.0312 -0.0332,0.0289 -0.003,0.0312 0.0268,0.0645 0.0289,0.0332 -0.0332,0.0288 -0.0332,0.0289 -0.003,0.0312 -0.003,0.0312 0.0556,0.0978 0.0559,0.0978 0.016,0.2204 0.0224,0.12687 -0.04,0.12252 -0.003,0.0312 0.0601,0.0356 -0.004,0.0624 -0.0377,0.0913 -0.003,0.0312 -0.003,0.0312 0.029,0.0332 0.0289,0.0332 -0.004,0.0623 -0.0734,0.15151 -0.003,0.0312 0.0269,0.0645 -0.003,0.0312 0.029,0.0332 -0.0356,0.0601 -0.003,0.0312 0.029,0.0333 0.15145,0.0733 -0.003,0.0312 -0.004,0.0624 0.0624,0.004 0.029,0.0332 0.0312,0.003 -0.003,0.0312 -0.003,0.0312 0.0268,0.0645 -0.003,0.0312 0.0269,0.0645 0.0601,0.0356 -0.008,0.12471 -0.004,0.0624 -0.003,0.0312 -0.004,0.0624 -0.0312,-0.003 -0.0333,0.0288 -0.003,0.0312 -0.003,0.0312 -0.003,0.0312 0.029,0.0332 0.0312,0.003 -0.003,0.0312 -0.004,0.0624 -0.0356,0.0601 -0.0357,0.0602 0.0269,0.0645 0.0579,0.0668 0.0625,0.004 0.0312,0.003 0.0312,0.003 0.0248,0.0956 -0.004,0.0624 0.0313,0.003 0.0312,0.003 0.0312,0.003 -0.003,0.0312 0.0269,0.0645 -0.003,0.0312 -0.0333,0.0288 -0.003,0.0312 0.0269,0.0645 0.0624,0.004 0.0289,0.0332 -0.003,0.0312 -0.003,0.0312 -0.003,0.0312 -0.003,0.0312 0.0602,0.0356 0.0312,0.003 0.0601,0.0356 0.029,0.0332 -0.0356,0.0602 0.029,0.0332 0.06,0.0356 0.0646,-0.0268 0.0289,0.0332 -0.003,0.0312 0.0289,0.0332 0.15881,0.41834 -0.0117,0.15584 0.0448,0.25374 0.029,0.0333 0.15375,0.042 -0.004,0.0624 -0.003,0.0312 0.0268,0.0645 -0.003,0.0312 0.0289,0.0332 0.0914,0.0376 0.058,0.0667 -0.003,0.0312 -0.003,0.0312 -0.003,0.0312 0.0225,0.12688 0.0268,0.0645 0.0935,0.008 0.16018,-0.0515 0.0288,0.0332 -0.004,0.0624 0.0289,0.0332 0.15376,0.042 0.0556,0.0978 -0.0688,0.0891 0.0289,0.0332 0.0892,0.0689 0.11381,0.16459 0.15365,0.042 0.0312,0.003 -0.003,0.0312 -0.008,0.0935 -0.0332,0.0288 -0.0117,0.15584 0.0537,0.12905 -0.004,0.0624 -0.0487,0.2472 -0.008,0.0934 0.029,0.0332 0.0269,0.0645 -0.0333,0.0288 -0.004,0.0624 -0.003,0.0312 0.0289,0.0332 0.0312,0.003 -0.003,0.0312 -0.003,0.0312 -0.003,0.0312 -0.004,0.0624 -0.004,0.0624 -0.0332,0.0289 -0.003,0.0312 -0.004,0.0624 0.0289,0.0332 -0.003,0.0312 0.0312,0.003 -0.003,0.0312 0.0289,0.0332 -0.0357,0.0601 -0.004,0.0624 -0.008,0.0935 -0.0376,0.0913 -0.0332,0.0289 -0.003,0.0312 0.0288,0.0332 0.0601,0.0356 -0.003,0.0312 0.029,0.0332 -0.003,0.0312 -0.003,0.0312 -0.003,0.0312 -0.003,0.0312 -0.003,0.0312 0.0289,0.0332 0.0288,0.0332 0.029,0.0332 -0.0333,0.0288 -0.0332,0.0288 -0.003,0.0312 -0.0312,-0.003 -0.0668,0.058 -0.0332,0.0288 0.0247,0.0956 -0.003,0.0312 -0.004,0.0624 -0.004,0.0624 0.0269,0.0645 -0.008,0.0934 0.0161,0.22041 0.0913,0.0376 0.0761,0.25593 0.0515,0.16023 -0.008,0.0934 -0.008,0.0935 -0.0333,0.0288 -0.0333,0.0289 -0.008,0.0935 -0.004,0.0624 -0.008,0.12471 0.029,0.0332 -0.003,0.0312 -0.004,0.0623 -0.003,0.0312 -0.003,0.0312 -0.003,0.0312 0.0313,0.003 0.0312,0.003 0.0246,0.0956 -0.003,0.0312 -0.004,0.0624 0.029,0.0332 0.0601,0.0356 -0.004,0.0624 -0.008,0.0935 -0.004,0.0624 -0.0485,0.24721 0.0224,0.12687 0.0268,0.0645 0.0581,0.0667 0.0804,0.19358 0.0269,0.0645 -0.0123,0.18707 -0.0357,0.0601 0.029,0.0332 0.0289,0.0332 0.0871,0.10004 0.0246,0.0956 -0.0957,0.0245 0.0247,0.0956 0.0269,0.0645 -0.003,0.0312 0.0312,0.003 0.0558,0.0978 0.0269,0.0645 0.0203,0.15806 -0.008,0.12471 0.0202,0.15804 0.0248,0.0957 -0.0377,0.0913 -0.0485,0.24722 0.0268,0.0645 -0.008,0.12471 -0.003,0.0312 -0.042,0.1537 -0.0332,0.0288 -0.003,0.0312 -0.003,0.0312 -0.10014,0.087 -0.15303,0.39654 -0.11532,0.3052 0.0269,0.0645 -0.003,0.0312 -0.003,0.0312 0.0514,0.16023 -0.0486,0.2472 0.0557,0.0979 -0.004,0.0624 0.007,0.3451 0.0117,0.28276 -0.0117,0.15583 0.009,0.31393 0.10072,0.35163 0.0558,0.0978 0.0269,0.0645 -0.0486,0.24721 -0.003,0.0312 -0.0485,0.24722 0.0204,0.15806 -0.003,0.0312 -0.0689,0.0891 -0.003,0.0312 -0.004,0.0624 0.0288,0.0332 -0.003,0.0312 0.0289,0.0332 -0.003,0.0312 -0.0357,0.0601 -0.003,0.0312 -0.0312,-0.003 -0.008,0.0934 -0.008,0.0935 -0.0156,0.2182 -0.008,0.0935 -0.0645,0.0268 -0.0198,0.28057 0.0204,0.15806 -0.0711,0.12032 -0.004,0.0624 0.0248,0.0957 -0.0308,0.43643 -0.008,0.0935 -0.0377,0.0913 -0.0332,0.0288 -0.0117,0.15586 -0.0442,0.18486 -0.0755,0.18267 -0.003,0.0312 -0.0666,0.058 -0.12906,0.0537 -0.0668,0.058 -0.1066,0.1805 -0.10659,0.18051 -0.0333,0.0288 -0.0668,0.058 -0.004,0.0623 -0.0312,-0.003 -0.0333,0.0288 -0.0667,0.058 -0.13121,0.0847 -0.0645,0.0268 -0.0357,0.0601 -0.008,0.0934 -0.13995,0.2095 -0.0376,0.0913 -0.003,0.0312 -0.0376,0.0913 -0.003,0.0312 -0.04,0.12251 -0.003,0.0312 -0.21103,0.32983 -0.17108,0.20733 -0.0333,0.0288 -0.10003,0.087 -0.0668,0.058 -0.0332,0.0288 -0.2936,0.16743 -0.4851,0.21669 -0.6873,0.42183 -0.10013,0.0869 -0.13996,0.2095 -0.071,0.12035 -0.45824,0.28121 -0.0332,0.0289 -0.098,0.0558 -0.19794,0.14278 -0.0333,0.0289 -0.49373,0.34139 -0.0313,-0.003 -0.003,0.0312 -0.0332,0.0288 -0.0645,0.0268 -0.0667,0.058 -0.0312,-0.003 -0.0711,0.12033 -0.0731,0.15152 -0.11534,0.3052 -0.0464,0.21604 -0.003,0.0312 -0.0399,0.12253 -0.0754,0.18267 -0.0376,0.0913 0.0869,0.10004 0.0558,0.0978 0.058,0.0667 0.0602,0.0356 -0.003,0.0312 0.058,0.0667 0.11381,0.16459 0.62696,0.88965 0.0601,0.0356 0.087,0.10003 0.20083,0.26466 0.0514,0.16022 0.2834,0.42706 0.11381,0.16459 0.12966,0.38498 0.0269,0.0645 0.10289,0.32047 0.0537,0.12904 -0.008,0.0934 -0.003,0.0312 0.0827,0.1624 0.018,0.18922 0.0783,0.22477 0.0268,0.0645 0.14492,0.16678 0.25227,0.42488 0.14067,0.22913 -0.003,0.0312 0.0288,0.0332 0.0289,0.0332 0.11381,0.16459 0.0269,0.0645 0.0891,0.0689 0.029,0.0332 0.0581,0.0667 0.0601,0.0356 0.0935,0.008 0.12687,-0.0224 0.15375,0.042 0.28278,-0.0116 0.12252,0.0399 0.0312,0.003 0.18708,0.0123 0.1247,0.008 0.12472,0.008 0.0313,0.003 -0.003,0.0312 0.3051,0.11523 0.29659,0.24002 0.11815,0.10218 0.15364,0.042 0.17834,0.13777 0.33414,0.14867 0.12472,0.008 0.15155,0.0733 0.1827,0.0754 0.26524,0.23785 0.12033,0.071 0.17625,0.16895 0.0891,0.0689 0.10509,0.28928 0.0269,0.0645 0.0514,0.16024 0.0515,0.16022 0.11161,0.19578 -0.003,0.0312 0.0246,0.0956 -0.004,0.0624 -0.003,0.0312 0.0268,0.0645 0.12033,0.071 0.0516,0.16023 -0.003,0.0312 0.0268,0.0645 -0.003,0.0312 0.0288,0.0332 0.029,0.0332 0.0248,0.0957 -0.0123,0.18706 -0.004,0.0624 -0.0117,0.15584 -0.003,0.0312 0.003,0.40743 -0.0254,0.81271 -0.0299,0.87505 0.0247,0.0956 -0.004,0.0624 -0.017,0.688 -0.0196,0.71917 -0.004,0.0624 -0.0211,0.75034 -0.003,0.0312 -0.0236,0.78152 -0.004,0.0624 -0.024,0.3429 0.003,0.40744 -0.004,0.0624 0.007,0.34508 -0.004,0.0624 -0.0156,0.2182 -0.0123,0.18707 -0.0486,1.59425 -0.003,0.0312 0.003,0.40744 -0.0423,1.50072 -0.008,0.0934 0.003,0.40745 -0.004,0.0624 -0.0723,2.37574 -0.003,0.0312 -0.003,0.0312 -0.0117,0.15584 -0.0117,0.15584 -0.004,0.0624 -0.008,0.0935 0.009,0.31397 0.003,0.40738 -0.0332,0.0289 -0.0205,1.18906 3.4e-4,0.43851 -0.0283,0.40533 -0.0486,1.59419 -0.003,0.0313 -0.0762,2.43813 -10e-4,0.46984 -0.0198,0.28051 0.009,0.31389 -0.0102,0.59445 -0.024,0.34295 -0.004,0.0624 -0.0198,0.28061 -0.004,0.0623 -10e-4,0.46984 -0.0254,0.8127 -0.0145,0.65688 -0.0117,0.15579 -0.024,0.34295 0.009,0.31384 -0.0117,0.15587 0.0117,0.28281 -0.008,0.0935 -0.003,0.0313 -0.0266,0.37405 -0.003,0.0312 0.005,0.37626 -0.003,0.0312 -0.0265,0.37406 -0.003,0.0313 -0.024,0.34287 -0.003,0.0313 -0.003,0.0313 0.009,0.31381 -0.008,0.0935 0.005,0.37626 -0.003,0.0312 -0.0265,0.37408 -0.0248,1.25131 -0.074,2.40699 -0.082,2.0618 -0.003,0.0312 0.009,0.31402 -0.003,0.0312 -0.004,0.0624 -0.0265,0.37407 0.0269,0.0645 -0.024,0.34295 -0.003,0.0312 -0.0265,0.37407 -0.004,0.0624 0.0116,0.2828 -0.003,0.0312 3.4e-4,0.43861 -0.004,0.0624 -0.024,0.34296 -0.004,0.0623 -0.0466,1.56316 -0.004,0.0623 -0.0211,0.75035 27.58256,0.6757 0.049,-7.42085 -1.69002,-0.0245 -0.003,-0.8461 0.47192,-0.0297 0.0157,-1.12664 1.00628,-0.0549 0.0939,-2.6875 4.94736,0.0326 0.0821,-6.10284 c 0.30998,0.12003 0.63479,0.25893 0.90907,0.43949 0.27426,0.18047 0.50463,0.39687 0.6668,0.76709 l 17.22858,0.0143 c 0.39897,-0.0833 0.62584,-0.37456 0.74021,-0.73135 0.11444,-0.35687 0.11698,-0.78525 0.14091,-1.11788 -0.0292,-0.17527 -0.0236,-0.37687 -0.0543,-0.56779 l 0,0 c -0.0395,-0.24616 -0.11057,-0.48329 -0.1057,-0.72783 0.008,-0.43419 0.13804,-0.83029 0.517,-1.12298 0.59294,-0.44151 1.45767,-0.50775 2.06924,-0.9203 0.0157,-0.01 0.0183,-0.0205 0.0333,-0.029 l -0.001,-0.87722 -2.56498,-0.0538 0.0539,-1.21796 -2.47359,-0.0164 0.0736,-7.3252 -4.91169,-0.0927 -0.0974,-8.46492 -2.40689,-0.074 -0.013,-1.15997 -5.10309,-0.0436 0.012,-2.41129 1.50724,-0.0512 -10e-4,-0.87721 1.08815,-0.33115 -0.0268,-9.02385 -2.44246,-0.0141 -0.11341,-16.29761 -1.31584,0.002 -0.40373,-0.49813 -8.23356,-0.0745 -0.0352,-29.51185 7.4165,0.11135 -0.0438,-2.50918 -1.28253,-0.0274 c -0.35147,0.009 -0.58862,-0.0934 -0.76622,-0.24154 -0.17759,-0.14818 -0.31298,-0.3623 -0.39937,-0.56049 l 0.002,-7.64348 2.44911,-0.0794 0.11725,-2.122 1.02879,0.072 0.12209,-1.74574 6.09847,0.14455 -0.1416,-21.71904 -0.10219,0.11815 -0.12905,0.0536 -0.12687,0.0224 -0.21381,-0.0776 -0.15374,-0.042 -0.24721,-0.0486 -0.28279,0.0116 -0.15147,-0.0732 -0.27833,-0.0508 -0.18932,0.018 -0.0914,-0.0376 -0.13846,-0.26029 -0.0556,-0.0978 -0.0313,-0.003 -0.0913,-0.0376 -0.25157,0.0136 -0.34078,-0.0552 -0.0602,-0.0356 -0.0269,-0.0645 -0.0891,-0.0689 -0.0246,-0.0956 -0.06,-0.0356 -0.14937,-0.10437 -0.0313,-0.003 -0.1471,-0.13557 -0.21392,-0.0777 -0.21599,-0.0464 -0.0558,-0.0978 -0.0224,-0.12688 0.003,-0.0312 -0.11379,-0.16459 -0.1472,-0.1356 -0.14502,-0.16677 -0.0869,-0.10003 -0.30085,-0.17768 -0.058,-0.0667 -0.0405,-0.31611 -0.0247,-0.0956 -0.0181,-0.18923 0.004,-0.0624 0.0156,-0.2182 -0.1587,-0.41833 0.0464,-0.21604 0.10228,-0.11817 0.13123,-0.0848 0.0667,-0.058 -0.13195,-0.35382 0.0509,-0.27839 0.003,-0.0312 -0.0537,-0.12906 0.16454,-0.11381 0.004,-0.0623 0.0168,-0.24941 -0.64615,-3.30313 -0.56322,-0.008 0.0112,-2.8499 -0.42833,-0.59383 0.008,-0.12472 -0.45057,-2.06771 0.0326,-0.46762 -0.49994,-2.25911 0.0308,-0.43643 0.14869,-0.33419 -0.40095,-0.0907 -0.31165,-0.0213 -0.45241,-0.25091 -0.50156,-0.44233 -0.0602,-0.0356 -0.77554,-0.55546 -0.12252,-0.0399 -0.31837,0.0717 -0.24943,-0.0168 -0.49371,0.3414 -0.66342,0.0789 -0.15579,-0.0117 -0.57928,-0.22846 -0.24503,-0.0798 -0.0288,-0.0332 -0.0914,-0.0376 -0.12471,-0.008 -0.18259,-0.0754 -0.26317,-0.26901 -0.0934,-0.008 -0.0581,-0.0667 -0.0268,-0.0645 -0.0602,-0.0356 z"
       id="MN-07"
       style="font-style:normal;font-weight:400;font-size:34.375px;font-family:'MS Shell Dlg 2';opacity:1;fill:none;fill-opacity:1;fill-rule:evenodd;stroke:#000000;stroke-width:0.33333385;stroke-linecap:square;stroke-linejoin:bevel;stroke-miterlimit:4;stroke-dasharray:none;stroke-opacity:1" />
    <path
       inkscape:connector-curvature="0"
       d="m 486.48573,396.38999 0.1416,21.71904 -6.09847,-0.14456 -0.12199,1.74574 -1.0288,-0.072 -0.11725,2.122 -2.44911,0.0794 -0.002,7.64348 c 0.0864,0.19818 0.22178,0.41232 0.39938,0.56049 0.17759,0.14817 0.41475,0.25036 0.76621,0.24153 l 1.28253,0.0274 0.0438,2.50917 -7.4165,-0.11135 0.0352,29.51185 8.23357,0.0745 0.40373,0.49813 1.31583,-0.002 0.11341,16.29762 2.44247,0.0141 0,0 4.85379,0.0261 c -0.62536,-0.18144 -1.14108,-0.66078 -1.59628,-1.36468 l 11.52647,0.0229 0.14026,7.4028 4.94945,0.001 0.0262,4.10558 9.71187,-0.0101 0.085,3.26387 5.38588,0.032 0.0667,-0.058 0.16672,-0.14497 0.0668,-0.058 0.003,-0.0312 0.10437,-0.14934 0.36902,-0.35011 0.10447,-0.14932 0.0776,-0.21386 0.004,-0.0624 0.004,-0.0624 0.003,-0.0312 -0.0247,-0.0956 -0.0739,-0.28711 0.008,-0.0934 0.004,-0.0624 0.1356,-0.14715 0.33135,-0.25878 0.0332,-0.0288 -0.0268,-0.0645 0.0399,-0.12252 0.0357,-0.0601 0.0377,-0.0913 0.0688,-0.0891 0.10229,-0.11814 0.10013,-0.087 0.16019,-0.0514 0.003,-0.0312 0.008,-0.0934 0.003,-0.0312 0.0376,-0.0913 0.003,-0.0312 0.0421,-0.1537 -0.029,-0.0332 -0.0268,-0.0645 -0.0268,-0.0645 0.004,-0.0624 0.003,-0.0312 0.008,-0.12472 0.008,-0.0935 0.0464,-0.21603 0.008,-0.0935 0.003,-0.0312 -0.0289,-0.0332 -0.0291,-0.0332 -0.0738,-0.2871 -0.0313,-0.003 -0.14939,-0.10438 -0.33631,-0.11745 -0.029,-0.0332 -0.0847,-0.13121 -0.029,-0.0332 -0.0268,-0.0645 -0.058,-0.0668 -0.029,-0.0332 -0.0579,-0.0667 -0.0225,-0.12687 -0.0847,-0.13123 -0.0515,-0.16023 -0.0312,-0.003 -0.20083,-0.26465 -0.0535,-0.12905 -0.17844,-0.13778 -0.0579,-0.0667 -0.0225,-0.12689 0.0123,-0.18707 0.0529,-0.30955 0.003,-0.0312 -0.0313,-0.003 0.008,-0.0935 -0.12033,-0.071 -0.17614,-0.16895 -0.087,-0.10003 -0.0312,-0.003 -0.0624,-0.004 -0.0601,-0.0356 -0.0601,-0.0356 -0.029,-0.0332 -0.14491,-0.16676 -0.11818,-0.10219 -0.0601,-0.0356 -0.0624,-0.004 -0.0312,-0.003 -0.1581,0.0203 -0.0956,0.0246 -0.22915,0.1406 -0.19142,0.0493 -0.0934,-0.008 -0.12471,-0.008 -0.2161,-0.0464 -0.21389,-0.0776 -0.0312,-0.003 -0.49876,-0.0351 -0.20737,-0.17113 -0.06,-0.0356 0.008,-0.0934 0.0213,-0.31176 -0.0827,-0.16241 0.008,-0.0935 0.0123,-0.18707 0.042,-0.1537 0.008,-0.0935 -0.0826,-0.16239 -0.0204,-0.15806 0.008,-0.0935 0.008,-0.12472 0.003,-0.0312 0.004,-0.0624 0.003,-0.0312 -0.0288,-0.0332 0.008,-0.0935 0.004,-0.0624 0.0356,-0.0601 0.0168,-0.24942 0.04,-0.12252 0.0754,-0.18267 0.0198,-0.28057 0.0265,-0.37405 0.10882,-0.21169 0.003,-0.0312 -0.0269,-0.0645 0.0553,-0.34072 -0.0247,-0.0957 0.004,-0.0624 0.0689,-0.0891 0.0667,-0.058 0.18923,-0.018 0.0332,-0.0289 0.008,-0.0935 0.0333,-0.0288 0.12688,-0.0224 0.0333,-0.0288 0.0978,-0.0558 0.0956,-0.0246 0.0333,-0.0288 0.0689,-0.0891 0.19794,-0.14277 0.0333,-0.0288 0.0644,-0.0268 0.0333,-0.0288 0.0333,-0.0288 0.0332,-0.0289 0.0356,-0.0601 0.0357,-0.0601 0.0667,-0.058 0.24008,-0.29646 0.0312,0.003 0.0508,-0.27838 0.0485,-0.24722 0.0421,-0.15368 0.004,-0.0624 0.0732,-0.15152 0.10013,-0.087 0.10013,-0.0869 0.0688,-0.0891 0.0357,-0.0601 -0.0225,-0.12688 -0.0536,-0.12905 0.003,-0.0312 -0.029,-0.0332 0.003,-0.0312 0.003,-0.0312 -0.0537,-0.12907 -0.0268,-0.0645 0.008,-0.0935 0.0688,-0.0891 0.0356,-0.0601 0.0667,-0.058 0.13123,-0.0848 0.0957,-0.0246 0.10437,-0.14933 0.003,-0.0312 0.0509,-0.27837 0.003,-0.0312 0.008,-0.12472 0.042,-0.1537 0.24878,-0.42116 0.14213,-0.24068 0.0312,0.003 0.0689,-0.0891 0.0313,0.003 0.0332,-0.0289 0.0332,-0.0289 0.0935,0.008 0.13342,-0.11597 0.098,-0.0558 0.0644,-0.0268 0.003,-0.0312 0.12906,-0.0537 0.0333,-0.0289 -0.0558,-0.0978 0.0332,-0.0288 0.10447,-0.14932 0.23135,-0.17178 0.0356,-0.0602 0.34515,-0.007 0.003,-0.0312 -0.0203,-0.15804 0.004,-0.0624 0.0313,0.003 0.0332,-0.0288 0.15146,0.0733 0.0333,-0.0288 0.0979,-0.0558 0.1559,0.0117 0.0667,-0.058 0.0645,-0.0268 0.10003,-0.0869 0.25374,-0.0449 0.16464,-0.11378 0.12906,-0.0537 0.0956,-0.0246 0.16246,-0.0826 0.18922,-0.018 0.042,-0.15368 -0.0246,-0.0957 0.0123,-0.18707 0.0356,-0.0601 0.0333,-0.0289 0.17117,-0.20731 0.13341,-0.11599 0.0666,-0.058 0.0313,0.003 0.0645,-0.0268 0.0601,0.0356 0.0313,0.003 0.30729,0.0841 0.14939,0.10437 0.0624,0.004 0.12471,0.008 0.0914,0.0376 0.15363,0.042 0.0645,-0.0268 0.10004,-0.0869 0.069,-0.0891 -0.0602,-0.0356 -0.0288,-0.0332 0.003,-0.0312 0.004,-0.0624 0.0356,-0.0601 0.12904,-0.0537 0.069,-0.0891 -0.0247,-0.0956 0.0357,-0.0601 0.004,-0.0623 0.0355,-0.0601 0.10669,-0.1805 0.004,-0.0624 0.0117,-0.15583 0.13559,-0.14715 0.13124,-0.0847 0.0312,0.003 0.13122,-0.0847 0.18708,0.0123 0.0313,0.003 0.0312,0.003 0.30083,0.17768 0.24505,0.0797 0.15157,0.0732 0.0312,0.003 0.12252,0.0399 0.0312,0.003 0.0313,0.003 0.0956,-0.0245 0.0979,-0.0558 0.003,-0.0312 0.0312,0.003 0.003,-0.0312 0.003,-0.0312 0.008,-0.0935 0.004,-0.0624 0.0646,-0.0268 0.0356,-0.0601 0.003,-0.0312 0.0442,-0.18487 -0.018,-0.18921 0.003,-0.0312 0.0376,-0.0913 0.04,-0.1225 0.004,-0.0624 0.0465,-0.21602 0.0332,-0.0289 0.004,-0.0624 0.0312,0.003 0.0333,-0.0289 0.003,-0.0312 0.0333,-0.0288 0.0312,0.003 0.13124,-0.0847 0.0645,-0.0268 0.19358,-0.0804 0.15799,-0.0203 0.0957,-0.0245 -0.0224,-0.12688 0.007,-1.00193 -0.0396,-1.2245 0.0198,-0.28056 -0.007,-0.34509 -0.0353,-1.28684 0.006,-0.53213 -0.0298,-0.47198 -0.01,-0.75253 0.0156,-0.21819 -0.0247,-0.0956 0.0117,-0.15583 0.008,-0.0934 -0.0181,-0.18924 0.003,-0.0312 0.008,-0.12471 0.004,-0.0624 -0.0116,-0.28274 -0.0504,-2.41567 0.008,-0.0934 -0.009,-0.31392 -0.0331,-1.31803 0.004,-0.50095 0.0156,-0.2182 -0.0102,-0.75254 -0.0268,-0.0645 -0.009,-1.66094 -0.0224,-0.12686 0.0168,-0.24942 -0.0232,-0.5655 -0.003,-0.84605 -0.0137,-0.25157 -0.0269,-0.0645 0.0357,-0.0601 0.0624,0.004 0.0224,0.12687 0.0247,0.0957 0.029,0.0332 0.0935,0.008 0.0913,0.0376 0.0538,0.12907 0.0289,0.0332 0.0935,0.008 0.1066,-0.18051 0.0667,-0.058 0.26309,0.269 0.15809,-0.0203 0.13124,-0.0847 0.0313,0.003 0.0623,0.004 0.15157,0.0733 0.0624,0.004 0.098,-0.0558 0.0666,-0.058 0.0333,-0.0288 0.004,-0.0624 0.004,-0.0624 -0.0826,-0.16241 0.0356,-0.0601 0.0689,-0.0891 0.13778,-0.17832 0.10003,-0.087 0.0958,-0.0244 0.0312,0.003 0.069,-0.0891 0.0376,-0.0913 -0.0224,-0.12688 -0.029,-0.0332 -0.0869,-0.10003 -0.31186,-0.0213 -0.12252,-0.0399 -0.0224,-0.12687 0.003,-0.0312 0.0667,-0.058 0.0979,-0.0558 0.069,-0.0891 0.042,-0.1537 0.0332,-0.0288 0.21824,0.0156 0.0957,-0.0245 0.10003,-0.0869 0.24285,0.11095 0.12252,0.04 0.0645,-0.0268 0.004,-0.0624 0.003,-0.0312 0.0754,-0.18268 -0.0269,-0.0645 -0.018,-0.18921 0.003,-0.0312 0.10228,-0.11816 0.23125,-0.1718 0.16246,-0.0826 0.18911,-0.018 0.34513,-0.007 0.3523,0.3379 0.14711,0.13559 0.43931,0.43796 0.17396,0.20012 0.18268,0.0754 0.0914,0.0376 0.0979,-0.0558 -0.20945,-0.13994 -0.78071,-0.93174 -0.4754,-0.8164 -0.0515,-0.16023 -0.0782,-0.22475 0.0333,-0.0288 0.1356,-0.14715 0.003,-0.0312 0.12907,-0.0537 0.003,-0.0312 0.0644,-0.0268 0.13123,-0.0847 0.0979,-0.0557 0.0711,-0.12034 0.004,-0.0624 0.16464,-0.11378 0.16672,-0.14498 0.13342,-0.11598 0.13123,-0.0848 0.0332,-0.0288 0.0333,-0.0289 0.20013,-0.17396 0.16236,-0.0826 0.16245,-0.0826 0.20884,-0.29866 0.62941,-0.48854 0.59155,-0.3972 0.003,-0.0312 0.13123,-0.0847 0.17118,-0.20732 0.30459,-0.32328 0.13123,-0.0847 0.2247,-0.0782 0.56707,-0.4929 0.12906,-0.0537 0.15801,-0.0203 0.35821,-0.19424 0.26247,-0.16961 0.0332,-0.0289 0.23134,-0.17177 0.042,-0.1537 0.24007,-0.29648 0.0332,-0.0289 0.0332,-0.0289 0.44676,-0.56394 0.10004,-0.087 0.50907,-0.55961 0.16018,-0.0515 0.16028,-0.0514 0.12907,-0.0537 0.28932,-0.10508 0.0709,-0.12033 0.0646,-0.0268 0.26464,-0.20078 0.15304,-0.39654 0.004,-0.0624 0.0644,-0.0268 0.003,-0.0312 0.003,-0.0312 0.10229,-0.11815 0.2712,-0.2943 0.13123,-0.0847 0.0332,-0.0288 0.0625,0.004 0.16672,-0.14497 0.10448,-0.14932 0.22182,-0.48571 0.22699,-0.10943 0.32482,-0.16524 0.19357,-0.0804 0.32481,-0.16524 0.003,-0.0312 0.20667,-0.26748 0.0332,-0.0288 0.13341,-0.11597 0.41404,-0.0964 0.3712,-0.38128 0.004,-0.0624 0.0712,-0.12032 0.0332,-0.0288 0.17108,-0.20731 0.17117,-0.20733 0.27338,-0.32548 0.1356,-0.14714 0.10003,-0.0869 0.13341,-0.11598 0.22699,-0.10943 0.10448,-0.14932 0.10437,-0.14934 0.0667,-0.058 0.26466,-0.20079 0.042,-0.1537 0.0333,-0.0289 0.0711,-0.12033 0.17326,-0.23849 0.0712,-0.12033 0.20656,-0.2675 0.30677,-0.35446 0.30896,-0.38563 0.0644,-0.0268 0.10229,-0.11815 0.2357,-0.23413 0.0667,-0.058 0.0935,0.008 0.0733,-0.1515 0.13777,-0.17833 0.0333,-0.0288 0.0732,-0.15152 0.0734,-0.1515 0.003,-0.0312 0.0356,-0.0601 0.44445,-0.53279 0.169,-0.17615 0.30459,-0.32329 0.0732,-0.15152 0.0333,-0.0288 0.003,-0.0312 0.1131,-0.27403 0.11106,-0.24286 0.17543,-0.26966 0.10013,-0.0869 0.0356,-0.0601 0.0625,0.004 0.0644,-0.0268 0.30895,-0.38563 0.0421,-0.1537 0.40023,-0.34793 0.16236,-0.0826 0.10013,-0.0869 0.27553,-0.35665 0.20658,-0.26749 0.10447,-0.14933 0.24007,-0.29648 0.0356,-0.0601 0.003,-0.0312 0.0624,0.004 0.19139,-0.0493 0.17108,-0.20732 0.0668,-0.058 0.33563,-0.32112 0.10013,-0.0869 0.36693,-0.31893 0.0356,-0.0602 0.1667,-0.14497 0.43584,-0.40809 0.0667,-0.058 0.19577,-0.11161 0.0645,-0.0268 0.0645,-0.0268 0.0313,0.003 0.10003,-0.087 0.0689,-0.0891 0.008,-0.12472 0.0356,-0.0601 0.46924,-0.4371 0.17108,-0.20732 0.10013,-0.0869 0.16454,-0.1138 0.43356,-0.37693 0.13123,-0.0848 0.10013,-0.087 0.10013,-0.0869 0.56261,-0.43057 0.40025,-0.34792 0.56479,-0.46173 0.26245,-0.1696 0.19587,-0.1116 0.45814,-0.28124 0.74757,-0.38629 0.10013,-0.087 0.0312,0.003 0.0356,-0.0601 0.52276,-0.30803 0.49163,-0.31021 0.61635,-0.30149 0.24432,-0.35884 0.16028,-0.0514 0.12905,-0.0537 0.0956,-0.0245 0.42056,-0.18988 0.6764,-0.26597 0.0312,0.003 0.29151,-0.13626 0.0733,-0.1515 0.29141,-0.13626 0.53872,-0.0876 0.13123,-0.0848 0.41404,-0.0964 0.158,-0.0202 0.19139,-0.0493 0.0313,0.003 0.0623,0.004 0.16029,-0.0515 0.04,-0.12251 0.0332,-0.0288 0.098,-0.0558 0.0332,-0.0288 0.0957,-0.0246 0.0332,-0.0289 0.0312,0.003 0.12688,-0.0224 0.19366,-0.0804 0.42049,-0.18988 0.22699,-0.10944 0.0332,-0.0288 0.19357,-0.0804 0.0313,0.003 0.35375,-0.13189 0.31392,-0.009 0.47419,-0.0608 0.17325,-0.2385 0.29579,-0.19861 0.0333,-0.0289 0.0935,0.008 0.41403,-0.0964 0.0313,0.003 0.2827,-0.0116 0.32263,-0.13407 0.22689,-0.10944 0.0957,-0.0246 0.15578,0.0117 0.04,-0.1225 0.008,-0.0935 0.0645,-0.0268 0.32264,-0.13409 0.0645,-0.0268 0.0958,-0.0245 0.54079,-0.11882 0.61199,-0.23916 0.12905,-0.0537 0.55825,-0.36821 0.16453,-0.11379 0.0333,-0.0288 0.10218,-0.11816 -0.0513,-0.16022 0.003,-0.0312 0.10218,-0.11816 0.0333,-0.0288 0.0644,-0.0268 0.90119,-0.34421 0.0625,0.004 0.0312,0.003 0.18923,-0.018 0.0313,0.003 0.0312,0.003 0.19358,-0.0804 0.0667,-0.058 0.19577,-0.11162 0.0313,0.003 0.0644,-0.0268 0.5518,-0.27468 0.49372,-0.3414 0.16682,-0.14497 0.10003,-0.087 0.0313,0.003 0.2356,-0.23412 0.13996,-0.20951 0.33145,-0.25876 0.26684,-0.23195 0.29142,-0.13625 0.38716,-0.16088 0.0957,-0.0246 0.31817,-0.0717 0.0333,-0.0288 -0.0514,-0.16024 -0.0159,-0.2204 0.042,-0.15369 0.0754,-0.18268 0.13342,-0.11598 0.0313,0.003 0.15365,0.042 0.0935,0.008 -0.003,0.0312 0.0312,0.003 0.26525,0.23784 0.14721,0.13559 0.3161,-0.0405 0.16454,-0.11381 0.003,-0.0312 0.16464,-0.11379 0.0117,-0.15584 0.0123,-0.18706 0.20013,-0.17397 0.64309,-0.23697 0.19359,-0.0804 0.0667,-0.058 0.003,-0.0312 0.0485,-0.24722 -1.40654,0.40287 -0.10437,0.14935 -0.22253,0.047 -0.029,-0.0332 -0.058,-0.0667 -0.058,-0.0667 -0.12251,-0.0399 -0.12473,-0.008 -0.12251,-0.04 -0.0247,-0.0956 0.004,-0.0624 -0.0224,-0.12686 -0.0289,-0.0332 -0.0357,0.0601 -0.0689,0.0891 -0.003,0.0312 -0.0645,0.0268 -0.0313,-0.003 -0.0601,-0.0356 -0.2248,0.0782 -0.0356,0.0602 0.0289,0.0332 0.0289,0.0332 -0.003,0.0312 -0.0312,-0.003 -0.0312,-0.003 -0.029,-0.0332 -0.0934,-0.008 -0.0333,0.0288 -0.003,0.0312 -0.0645,0.0268 -0.029,-0.0332 -0.0559,-0.0979 -0.0268,-0.0645 -0.1247,-0.008 -0.008,0.0935 -0.0624,-0.004 -0.029,-0.0332 -0.06,-0.0356 -0.029,-0.0332 -0.0645,0.0268 -0.0645,0.0268 -0.0935,-0.008 -0.0313,-0.003 -0.0313,-0.003 -0.22905,0.1406 -0.0313,-0.003 -0.0601,-0.0356 -0.0269,-0.0645 -0.0313,-0.003 -0.0935,-0.008 -0.0333,0.0289 -0.0289,-0.0332 0.0117,-0.15586 -0.0289,-0.0332 -0.0333,0.0289 -0.0357,0.0601 -0.0644,0.0268 0.008,-0.0934 0.003,-0.0312 0.0312,0.003 0.0312,0.003 -0.0268,-0.0645 -0.0312,-0.003 -0.003,0.0312 -0.12688,0.0224 -0.029,-0.0332 -0.0912,-0.0376 -0.0646,0.0268 -0.0644,0.0268 -0.0269,-0.0645 -0.0913,-0.0376 -0.28278,0.0116 -0.1914,0.0493 -0.10013,0.0869 -0.0644,0.0268 -0.15588,-0.0117 -0.0645,0.0268 -0.003,0.0312 -0.004,0.0624 -0.0624,-0.004 -0.12688,0.0224 -0.058,-0.0667 -0.22263,0.047 -0.003,0.0312 -0.0399,0.12252 -0.14432,0.27183 -0.004,0.0624 -0.0624,-0.004 -0.087,-0.10003 -0.0625,-0.004 -0.003,0.0312 -0.008,0.12473 -0.0399,0.1225 -0.0332,0.029 -0.38063,0.0673 -0.0357,0.0601 -0.0333,0.0289 -0.003,0.0312 -0.003,0.0312 -0.0312,-0.003 -0.15579,-0.0117 -0.0935,-0.008 -0.1558,-0.0117 -0.0313,-0.003 -0.0313,-0.003 -0.0289,-0.0332 -0.0892,-0.0689 -0.0288,-0.0332 -0.12251,-0.0399 -0.0601,-0.0356 -0.14719,-0.1356 -0.17169,-0.23128 -0.0269,-0.0645 -0.0269,-0.0645 -0.0268,-0.0645 -0.31392,0.009 -0.0711,0.12032 -0.18268,-0.0754 -0.0624,-0.004 -0.11379,-0.16458 -0.0892,-0.0689 -0.12034,-0.071 -0.0312,-0.003 -0.0332,0.0289 -0.0313,-0.003 -0.0891,-0.0689 -0.0269,-0.0645 -0.0536,-0.12905 0.0123,-0.18708 0.0156,-0.21819 -0.0783,-0.22476 -0.22977,-0.29801 -0.0312,-0.003 -0.0645,0.0268 -0.0848,-0.13123 -0.10072,-0.35163 -0.12035,-0.071 -0.18495,-0.0443 -0.0913,-0.0376 -0.0313,-0.003 -0.0622,-0.004 -0.17842,-0.13778 -0.30511,-0.11523 -0.36972,-0.0885 -0.44089,0.0317 -0.12252,-0.0399 -0.0288,-0.0332 -0.029,-0.0332 -0.0625,-0.004 -0.0869,-0.10003 -0.0624,-0.004 -0.1558,-0.0117 -0.003,0.0312 -0.12905,0.0537 -0.25156,0.0136 -0.24723,-0.0486 -0.22916,0.1406 -0.0935,-0.008 -0.31818,0.0717 -0.0935,-0.008 -0.15365,-0.042 -0.1581,0.0204 -0.38716,0.16089 -0.21816,-0.0156 -0.18932,0.018 -0.26028,0.13843 -0.0623,-0.004 -0.11817,-0.10217 -0.15155,-0.0733 -0.12688,0.0224 -0.0956,0.0245 -0.22264,0.0471 -0.13123,0.0847 -0.0376,0.0913 -0.0646,0.0268 -0.0332,0.0288 -0.0332,0.0289 -0.15589,-0.0117 -0.25157,0.0136 -0.0956,0.0246 -0.004,0.0624 -0.0333,0.0288 -0.15156,-0.0733 -0.0289,-0.0332 -0.0289,-0.0332 -0.0269,-0.0645 -0.058,-0.0667 -0.0624,-0.004 -0.21163,-0.10874 -0.12471,-0.008 -0.51622,0.2145 -0.12034,-0.071 -0.0581,-0.0667 -0.0913,-0.0376 -0.21599,-0.0464 -0.0602,-0.0356 -0.0312,-0.003 -0.0667,0.0581 -0.12904,0.0537 -0.0377,0.0913 -0.0332,0.0289 -0.0979,0.0557 -0.0312,-0.003 -0.0892,-0.0689 -0.0355,0.0602 -0.003,0.0312 -0.18706,-0.0123 -0.0313,-0.003 -0.0666,0.0581 -0.12034,-0.0711 -0.76125,0.13474 -0.12034,-0.0711 -0.0581,-0.0667 -0.0513,-0.16022 0.23997,-0.29648 -0.0537,-0.12905 -0.15579,-0.0117 -0.0646,0.0268 -0.12688,0.0224 -0.0579,-0.0667 -0.0624,-0.004 -0.13341,0.11598 -0.0356,0.0601 -0.25375,0.0449 -0.19576,0.11162 -0.0645,0.0268 -0.12686,0.0224 -0.26683,0.23195 -0.85483,0.12818 -0.32254,0.13407 -0.72577,0.0746 -0.19358,0.0804 -0.17396,-0.20012 0.003,-0.0312 -0.13619,-0.29147 -0.0515,-0.16024 -0.06,-0.0356 -0.0291,-0.0332 -0.0247,-0.0956 -0.0268,-0.0645 -0.12033,-0.0711 -0.0935,-0.008 -0.0579,-0.0667 0.0688,-0.0891 0.003,-0.0312 -0.0289,-0.0332 -0.0312,-0.003 -0.0935,-0.008 -0.0601,-0.0356 0.004,-0.0624 0.20011,-0.17396 0.16454,-0.1138 -0.0159,-0.22039 0.0117,-0.15585 -0.0289,-0.0332 -0.0602,-0.0356 -0.0332,0.0288 -0.0376,0.0913 -0.1915,0.0493 -0.0869,-0.10003 -0.0964,-0.41398 -0.12032,-0.0711 -0.12688,0.0224 -0.0557,-0.0978 -0.0268,-0.0645 -0.0668,0.058 -0.004,0.0624 -0.008,0.12472 -0.13123,0.0847 -0.0556,-0.0978 0.0213,-0.31175 -0.0362,-0.37845 -0.0455,-0.69236 -0.0313,-0.003 -0.0288,-0.0332 0.003,-0.0312 0.042,-0.15368 -0.0513,-0.16023 -0.087,-0.10003 -0.0602,-0.0356 -0.38935,0.19206 -0.12687,0.0224 -0.12034,-0.071 -0.0826,-0.16241 -0.26248,0.16961 -0.13122,0.0847 -0.17118,0.20731 -0.18922,0.018 -0.96355,0.33988 -0.50461,0.49726 0.0268,0.0645 -0.16018,0.0514 -0.20022,0.17395 -0.0376,0.0913 -0.12905,0.0537 -0.0602,-0.0356 -0.0313,-0.003 -0.12686,0.0224 -0.25375,0.0449 -0.12906,0.0537 -0.0398,0.12252 -0.19359,0.0804 -0.0934,-0.008 0.003,-0.0312 -0.0291,-0.0332 -0.13341,0.11597 -0.04,0.12251 -0.12906,0.0537 -0.19348,0.0804 -0.10013,0.0869 -0.071,0.12033 -0.0333,0.0288 -0.35376,0.13188 -0.004,0.0624 -0.003,0.0312 0.0269,0.0645 0.0268,0.0645 -0.36258,0.25658 -0.37338,0.41244 -0.10219,0.11818 -0.15156,-0.0733 -0.41986,0.6285 -0.22688,0.10944 -0.16463,0.11378 -0.27338,0.32548 -0.32483,0.16525 -0.18921,0.018 -0.26029,0.13843 -0.22252,0.047 -0.18718,-0.0123 -0.0623,-0.004 -0.18933,0.018 -0.0356,0.0601 -0.0312,-0.003 -0.003,0.0312 -0.0625,-0.004 -0.0623,-0.004 0.003,-0.0312 -0.0892,-0.0689 -0.19357,0.0804 -0.26029,0.13843 -0.12034,-0.071 -0.16464,0.11377 -0.20438,0.23633 -0.44744,0.12534 -0.29141,0.13626 -0.1558,-0.0117 -0.0313,-0.003 0.0377,-0.0913 -0.19866,-0.29583 0.008,-0.1247 -0.0601,-0.0356 -0.28716,0.0739 -0.43631,-0.0308 -1.03462,0.4602 -0.45834,0.28121 -0.1471,-0.1356 0.0485,-0.2472 -0.0448,-0.25374 0.0544,-0.77935 0.33343,-0.28995 -0.11598,-0.13342 -0.31816,0.0717 -0.25816,0.10724 -0.50314,0.0275 -0.44962,0.15651 -0.28766,-0.3647 0.0376,-0.0913 -0.0288,-0.0332 -0.16247,0.0826 -0.008,0.0934 -0.0645,0.0268 -0.0289,-0.0332 -0.0646,0.0268 -0.0956,0.0246 -0.0913,-0.0376 -0.14938,-0.10437 0.0732,-0.15153 0.0399,-0.12251 -0.19348,0.0804 0.0288,0.0332 -0.0356,0.0601 -0.19368,0.0804 -0.15365,-0.042 -0.0289,-0.0332 0.003,-0.0312 0.0753,-0.18268 0.0668,-0.058 0.0753,-0.18269 0.0509,-0.27838 -0.0269,-0.0645 0.003,-0.0312 -0.0623,-0.004 -0.0313,-0.003 -0.0804,-0.19359 0.003,-0.0312 0.0442,-0.18486 -0.009,-0.3139 -0.0914,-0.0376 -0.158,0.0203 -0.10013,0.0869 -0.0268,-0.0645 0.0464,-0.21604 0.003,-0.0312 0.17107,-0.20733 0.004,-0.0624 0.0421,-0.15368 -0.0847,-0.13123 -0.0313,-0.003 -0.46103,-0.12617 -0.0313,-0.003 -0.0117,0.15586 -0.0645,0.0268 -0.0602,-0.0356 -0.0891,-0.0689 -0.0559,-0.0978 -0.0956,0.0246 -0.0377,0.0913 -0.0332,0.0289 -0.31392,0.009 -0.071,0.12033 -0.0623,-0.004 -0.0493,-0.19139 -0.0935,-0.008 -0.0312,-0.003 -0.21391,-0.0777 -0.12033,-0.0711 0.004,-0.0624 -0.31816,0.0717 -0.0602,-0.0356 -0.0956,0.0245 -0.12687,0.0224 -0.3161,0.0405 -0.10289,-0.32047 -0.2965,-0.24001 -0.19853,-0.29582 -0.1915,0.0493 -0.0312,-0.003 -0.0289,-0.0332 -0.15588,-0.0117 -0.0333,0.0288 -0.0644,0.0268 -0.1581,0.0203 -0.16028,0.0515 -0.0666,0.058 -0.004,0.0624 -0.0625,-0.004 -0.12033,-0.071 -0.0312,-0.003 -0.0935,-0.008 -0.0246,-0.0957 0.003,-0.0312 0.003,-0.0312 0.003,-0.0312 0.004,-0.0624 0.0979,-0.0558 0.008,-0.0935 -0.029,-0.0333 0.003,-0.0312 -0.029,-0.0332 0.003,-0.0312 -0.0914,-0.0376 -0.18921,0.018 -0.0312,-0.003 -0.0377,0.0913 0.0624,0.004 -0.004,0.0624 -0.10013,0.087 -0.0312,-0.003 0.003,-0.0312 0.003,-0.0312 -0.0601,-0.0356 -0.19636,-0.32699 -0.30311,-0.14651 -0.0317,-0.44079 -0.0805,-0.19358 -0.0427,-0.28493 0.23499,-0.67274 -0.58799,-0.10378 -0.14055,-0.22912 -0.15364,-0.042 -0.045,-0.25376 0.0668,-0.058 -0.0269,-0.0645 -0.0624,-0.004 -0.13619,-0.29146 -0.18717,-0.0123 -0.22253,0.0471 -0.10218,0.11817 -0.15589,-0.0117 -0.96851,-0.0368 -0.045,-0.25377 -0.31817,0.0717 -0.29369,0.16742 -0.0357,0.0601 0.0247,0.0956 -0.28934,0.10508 -0.0268,-0.0645 -0.15365,-0.042 -0.0711,0.12032 -0.003,0.0312 -0.003,0.0312 -0.18911,0.018 -0.0269,-0.0645 -0.0913,-0.0376 -0.74164,-0.14579 -0.49381,0.34139 -0.10163,0.55677 -0.18923,0.018 -0.0123,0.18707 0.22976,0.29802 -0.12844,0.49223 0.10507,0.28929 0.0269,0.0645 0.0313,0.003 -0.008,0.12471 0.0826,0.16242 0.2943,0.27118 0.0783,0.22475 -0.19587,0.11162 -0.63438,0.11228 -0.13341,0.11598 -0.0623,-0.004 -0.13124,0.0847 -0.0313,-0.003 -0.029,-0.0332 -0.0312,-0.003 -0.0645,0.0268 -0.0357,0.0602 -0.12686,0.0224 -0.0666,0.058 -0.17118,0.20732 -0.16028,0.0515 -0.058,-0.0667 -0.11161,-0.19576 0.003,-0.0312 0.004,-0.0624 -0.0269,-0.0645 -0.058,-0.0667 -0.0268,-0.0645 -0.0269,-0.0645 0.0357,-0.0601 -0.0646,0.0268 -0.0268,-0.0645 0.0376,-0.0913 -0.0557,-0.0978 -0.10945,-0.22695 -0.0538,-0.12905 -0.192,-0.38934 -0.18766,-0.4517 -0.1697,-0.26247 -0.0601,-0.0356 -0.0646,0.0268 -0.11816,-0.10218 0.003,-0.0312 0.003,-0.0312 -0.0848,-0.13125 -0.22322,-0.39153 -0.11381,-0.16458 -0.21886,-0.45387 -0.11669,-0.57203 0.3707,-0.8199 -0.0362,-0.37844 -0.33632,-0.11746 -0.11162,-0.19576 0.003,-0.0312 -0.0269,-0.0645 -0.0289,-0.0332 -0.0935,-0.008 -0.0869,-0.10003 -0.28559,-0.39589 -0.12472,-0.008 -0.44079,0.0318 -0.70325,0.20143 -1.54493,0.14258 -0.11814,-0.10219 -0.4633,-0.095 -0.49504,-0.53585 0.0775,-0.21385 0.008,-0.0934 0.1465,-0.30302 0.0213,-0.31176 0.25592,-0.0761 0.46766,0.0326 0.1356,-0.14716 0.12251,0.0399 0.18708,0.0123 0.12905,-0.0537 0.0667,-0.058 -0.058,-0.0667 -0.029,-0.0332 0.003,-0.0312 0.10447,-0.14932 -0.0312,-0.003 0.003,-0.0312 0.008,-0.0935 -0.0225,-0.12687 -0.14781,-0.57421 -0.43207,-0.0928 -1.33109,0.22017 -3.15054,-1.53601 -0.27832,-0.0508 -0.38789,-0.27774 -0.37191,-0.0572 -0.0188,-0.62784 -0.0914,-0.0376 -0.54953,0.24351 -1.96836,-0.0748 -1.00629,0.055 -0.6322,0.0811 -0.0312,-0.003 -0.0268,-0.0645 -0.0871,-0.10004 -0.44368,-0.37562 -0.87723,10e-4 -1.75376,0.44123 -0.0333,0.0289 -0.003,0.0312 -0.0797,0.24504 -0.003,0.0312 -0.004,0.0624 -0.003,0.0312 -0.0313,-0.003 -0.12252,-0.0399 -0.0733,0.15152 -0.0332,0.0288 -0.0668,0.058 -0.22034,0.016 -0.1914,0.0493 -0.0312,-0.003 -0.0602,-0.0356 -0.0891,-0.0689 0.003,-0.0312 -0.0291,-0.0332 -0.0644,0.0268 -0.10013,0.0869 -0.0312,-0.003 -0.19587,0.11162 -0.0666,0.058 -0.0333,0.0288 -0.003,0.0312 -0.0667,0.058 -0.0667,0.058 -0.2828,0.0116 -0.22035,0.016 -0.004,0.0624 -0.003,0.0312 -0.0357,0.0601 0.10071,0.35162 0.0805,0.19359 -0.003,0.0312 0.0224,0.12686 -0.0442,0.18487 -0.042,0.1537 -0.069,0.0891 -0.0644,0.0268 -0.25593,0.076 -0.0313,-0.003 -0.31826,0.0716 -0.2936,0.16743 -0.0646,0.0268 -0.25376,0.0449 -0.13122,0.0847 -0.12687,0.0224 -0.2827,0.0116 -0.31828,0.0717 -0.0313,-0.003 -0.15145,-0.0733 -0.12688,0.0224 -0.0645,0.0268 -0.10219,0.11816 -0.0333,0.0289 -0.0313,-0.003 -0.0312,-0.003 -0.0332,0.0289 -0.0602,-0.0356 -0.0913,-0.0376 -0.0891,-0.0689 -0.0537,-0.12908 -0.0622,-0.004 -0.0646,0.0268 -0.0356,0.0601 -0.0733,0.15151 -0.0689,0.0891 -0.003,0.0312 -0.0645,0.0268 -0.19141,0.0493 -0.34297,-0.024 -0.31816,0.0717 -0.0625,-0.004 -0.18259,-0.0754 -0.0313,-0.003 -0.029,-0.0332 -0.0312,-0.003 -0.0312,-0.003 -0.0646,0.0268 -0.0935,-0.008 -0.0934,-0.008 -0.0624,-0.004 -0.0934,-0.008 -0.0624,-0.004 -0.0957,0.0245 -0.0312,-0.003 -0.003,0.0312 -0.19142,0.0493 -0.0624,-0.004 -0.12251,-0.0399 -0.18923,0.018 -0.22034,0.0159 -0.18717,-0.0123 -0.058,-0.0667 -0.0892,-0.0689 -0.21172,-0.10874 -0.058,-0.0667 -0.0247,-0.0956 -0.0269,-0.0645 0.004,-0.0624 0.0333,-0.0288 0.10437,-0.14933 0.003,-0.0312 0.008,-0.0934 -0.0224,-0.12686 0.003,-0.0312 0.042,-0.15368 0.0421,-0.1537 0.0443,-0.18485 0.004,-0.0624 -0.0472,-0.22258 0.004,-0.0624 -0.0847,-0.13124 -0.1363,-0.29147 -0.016,-0.2204 0.003,-0.0312 -0.0288,-0.0332 -0.0248,-0.0956 -0.0269,-0.0645 -0.0891,-0.0689 -0.1029,-0.32045 -0.0581,-0.0668 -0.0601,-0.0356 -0.0602,-0.0356 -0.15579,-0.0117 -0.56122,-0.0394 -0.0956,0.0245 -0.46103,-0.12616 -0.0646,0.0268 -0.003,0.0312 -0.0332,0.0288 -0.18922,0.018 -0.34287,-0.024 -0.18495,-0.0443 -0.12035,-0.0711 -0.06,-0.0356 -0.22045,0.0159 -0.27615,-0.082 -0.18278,-0.0754 -0.12252,-0.0399 -0.44506,0.0942 -0.0935,-0.008 -0.15145,-0.0732 -0.18718,-0.0123 -0.12688,0.0224 -0.0934,-0.008 -0.0247,-0.0956 -0.0956,0.0245 -0.0979,0.0558 -0.2828,0.0116 -0.15155,-0.0733 -0.19131,0.0493 -0.31401,0.009 -0.21599,-0.0464 -0.37627,0.005 -0.18268,-0.0754 -0.0312,-0.003 -0.37191,-0.0572 -0.18717,-0.0123 -0.2827,0.0116 -0.18922,0.018 -0.18267,-0.0754 -0.2161,-0.0464 -0.0289,-0.0332 -0.0601,-0.0356 -0.0826,-0.16242 0.004,-0.0624 0.0906,-0.40091 -0.0203,-0.15805 -0.0268,-0.0645 -0.11379,-0.16461 -0.0538,-0.12905 -0.0579,-0.0667 -0.18497,-0.0442 -0.14492,-0.16675 -0.18487,-0.0442 -0.12251,-0.0399 -0.18487,-0.0442 -0.38715,0.16088 -0.28488,0.0428 -0.18497,-0.0442 -0.27834,-0.0508 -0.18051,-0.1066 -0.12251,-0.0399 -0.0935,-0.008 -0.31618,0.0405 -0.18698,-0.0123 -0.0646,0.0268 -0.0332,0.0288 -0.0376,0.0913 -0.13341,0.11598 -0.0668,0.058 z"
       id="MN-08"
       style="font-style:normal;font-weight:400;font-size:34.375px;font-family:'MS Shell Dlg 2';opacity:1;fill:none;fill-opacity:1;fill-rule:evenodd;stroke:#000000;stroke-width:0.33333385;stroke-linecap:square;stroke-linejoin:bevel;stroke-miterlimit:4;stroke-dasharray:none;stroke-opacity:1" />
  </g>
</svg>
