<?xml version="1.0" encoding="UTF-8" standalone="no"?>
<!-- Created with Inkscape (http://www.inkscape.org/) -->

<svg
   xmlns:dc="http://purl.org/dc/elements/1.1/"
   xmlns:cc="http://creativecommons.org/ns#"
   xmlns:rdf="http://www.w3.org/1999/02/22-rdf-syntax-ns#"
   xmlns:svg="http://www.w3.org/2000/svg"
   xmlns="http://www.w3.org/2000/svg"
   xmlns:sodipodi="http://sodipodi.sourceforge.net/DTD/sodipodi-0.dtd"
   xmlns:inkscape="http://www.inkscape.org/namespaces/inkscape"
   width="28.373281mm"
   height="30.735832mm"
   viewBox="0 0 100.53525 108.9065"
   id="svg12983"
   version="1.1"
   inkscape:version="0.91 r"
   sodipodi:docname="8.svg">
  <defs
     id="defs12985" />
  <sodipodi:namedview
     id="base"
     pagecolor="#ffffff"
     bordercolor="#666666"
     borderopacity="1.0"
     inkscape:pageopacity="0.0"
     inkscape:pageshadow="2"
     inkscape:zoom="11.394135"
     inkscape:cx="27.637241"
     inkscape:cy="43.894265"
     inkscape:document-units="px"
     inkscape:current-layer="layer1"
     showgrid="false"
     fit-margin-top="1"
     fit-margin-left="1"
     fit-margin-right="1"
     fit-margin-bottom="1"
     inkscape:window-width="2560"
     inkscape:window-height="1388"
     inkscape:window-x="0"
     inkscape:window-y="0"
     inkscape:window-maximized="1" />
  <metadata
     id="metadata12988">
    <rdf:RDF>
      <cc:Work
         rdf:about="">
        <dc:format>image/svg+xml</dc:format>
        <dc:type
           rdf:resource="http://purl.org/dc/dcmitype/StillImage" />
        <dc:title></dc:title>
      </cc:Work>
    </rdf:RDF>
  </metadata>
  <g
     inkscape:label="Layer 1"
     inkscape:groupmode="layer"
     id="layer1"
     transform="translate(-327.68924,-534.19114)">
    <path
       inkscape:connector-curvature="0"
       d="m 338.49923,619.66815 c -0.0514,-0.0712 -0.12857,-0.11051 -0.15424,-0.18911 -0.0582,-0.17847 -0.0306,-0.375 0.16272,-0.5096 0.15771,-0.10127 0.3569,-0.23879 0.49423,-0.41328 0.13722,-0.17455 0.19106,-0.38665 0.1132,-0.58283 -0.16405,-0.15494 -0.10758,-0.2715 -0.0205,-0.38598 0.087,-0.11459 0.20372,-0.23106 0.26158,-0.36305 0.0867,-0.0986 0.16025,-0.32083 0.15673,-0.4789 -0.003,-0.15808 -0.0872,-0.22274 -0.30685,-0.0593 -0.32788,0.27184 -0.75479,0.17153 -1.12728,0.0674 -0.32923,-0.12729 -0.68232,-0.10292 -1.02421,-0.13583 -0.19263,-0.0274 -0.21218,-0.16094 -0.19176,-0.32374 0.0215,-0.16268 0.0911,-0.33373 0.0893,-0.4602 0.0536,-0.18304 0.0334,-0.44421 0.0635,-0.65609 0.0322,-0.21171 0.1045,-0.37711 0.34082,-0.44312 0.43446,-0.0722 0.90437,-0.0485 1.31224,0.12776 0.14764,0.0407 0.3962,0.0801 0.57087,0.17466 0.17481,0.0943 0.25724,0.24936 0.13128,0.47122 -0.17106,0.14787 -0.1503,0.24286 -0.0589,0.30685 0.0907,0.0639 0.25964,0.0745 0.39871,0.0776 0.1852,0.0515 0.39882,0.0519 0.57615,-0.0151 0.17728,-0.0677 0.32029,-0.19243 0.36545,-0.40644 0.0994,-0.30474 0.23732,-0.75613 0.62715,-0.76947 0.22709,0.0524 0.27703,0.1937 0.27777,0.37223 0.001,0.17861 -0.0579,0.39679 -0.10756,0.55225 -0.1985,0.34411 -0.0159,0.68435 0.19521,0.96109 0.14935,0.17981 0.1442,0.34261 0.064,0.48999 -0.0803,0.14731 -0.23179,0.28198 -0.33486,0.4124 -0.034,0.14753 -0.11049,0.35607 -0.13812,0.54618 -0.027,0.19022 0.0165,0.36954 0.19862,0.45241 0.39017,-0.044 0.72362,-0.29209 1.0267,-0.53258 0.35042,-0.27662 0.73779,-0.54992 0.83415,-1.01578 0.0806,-0.25256 -0.0512,-0.36826 -0.22926,-0.45837 -0.17809,-0.0901 -0.38864,-0.16461 -0.40046,-0.39621 -0.0708,-0.36673 0.38928,-0.51631 0.53507,-0.78735 -0.18644,0.0551 -0.29061,0.0101 -0.36216,-0.10225 -0.0716,-0.11208 -0.11759,-0.28375 -0.17385,-0.41582 0.0659,-0.24023 0.30361,-0.23069 0.53851,-0.14998 0.23481,0.0807 0.49203,0.22859 0.63898,0.31531 l 5.45697,0.42399 0.70581,-8.87214 -6.76911,-0.55173 -1.69143,0.0215 0.0564,1.3479 0.81373,-0.25562 -0.72039,7.30934 -5.6349,-0.49097 -4.50505,-0.0796 -0.0693,0.84607 -0.0196,0.0919 -0.0196,0.0918 0.12281,0.0233 -0.0232,0.12279 -0.0196,0.0918 -0.0196,0.0918 -0.0233,0.12281 -0.0196,0.0919 0.074,0.10998 -0.0837,0.42928 -0.0196,0.0918 -0.0196,0.0919 0.0682,0.14061 0.003,0.63734 -0.087,0.93805 0.0742,0.11 -0.0422,0.21473 -0.0196,0.0918 0.0453,0.42269 -0.0233,0.1228 -0.035,0.18408 0.0503,0.23265 -0.0421,0.2147 0.0918,0.0196 0.14653,-0.0988 0.34267,-0.12452 0.11581,-0.10482 0.0917,0.0196 0.44397,-0.64584 0.14059,-0.0683 0.11583,-0.1048 0.0196,-0.0919 0.21465,0.0421 0.16624,0.12794 0.2146,0.0422 0.0918,0.0196 0.0988,0.14654 0.0742,0.1099 -0.0196,0.0919 0.26503,0.2744 0.0503,0.23266 0.10481,0.11583 0.0742,0.1099 0.0683,0.1406 0.21464,0.0421 0.23853,-0.081 0.16029,0.15848 0.1968,0.13384 0.35709,0.29229 -0.0196,0.0919 0.21464,0.0421 0.0917,0.0196 0.2147,0.0422 0.0918,0.0196 0.14059,-0.0682 0.0919,0.0196 0.11583,-0.10483 0.46535,-0.10064 0.11583,-0.10481 0.15153,-0.2888 0.0196,-0.0918 0.1228,0.0233 0.20206,-0.0563 0.10479,0.11593 0.28875,0.15162 0.0918,0.0196 0.11002,-0.0742 0.12279,0.0232 0.1099,-0.0742 0.1158,-0.10483 0.0366,-0.0246 z"
       id="OH-01"
       style="font-style:normal;font-weight:400;font-size:34.375px;font-family:'MS Shell Dlg 2';opacity:1;fill:none;fill-opacity:1;fill-rule:evenodd;stroke:#000000;stroke-width:0.33333385;stroke-linecap:square;stroke-linejoin:bevel;stroke-miterlimit:4;stroke-dasharray:none;stroke-opacity:1" />
    <path
       inkscape:connector-curvature="0"
       d="m 374.08166,629.70451 0.1279,-0.16616 -0.0213,-0.5453 -1.17069,-0.0368 0.0217,-1.58736 -1.85754,-0.10644 c -0.0745,0.16165 -0.1613,0.33142 -0.13209,0.51548 0.0871,0.19072 0.24669,0.37494 0.26677,0.59299 -0.0407,0.28953 -0.43463,0.071 -0.63051,0.1321 -0.19898,-0.0195 -0.46698,0.10911 -0.58289,-0.1133 -0.21206,-0.3754 -0.37246,-0.77127 -0.43543,-1.19884 -0.0824,-0.34354 0.43746,-0.11434 0.4635,-0.41926 -0.0113,-0.24634 -0.17908,-0.45064 -0.32221,-0.63567 -0.14216,-0.18011 -0.31984,-0.32152 -0.52319,-0.42002 0.46465,0.0986 0.91382,0.17703 1.3805,0.26822 0.15436,0.0796 0.28478,0.02 0.3672,-0.0878 0.0824,-0.10784 0.13456,-0.26325 0.0776,-0.39876 -0.13502,-0.28907 -0.49118,-0.40534 -0.62889,-0.69525 -0.0791,-0.36949 -0.0666,-0.60625 -0.1279,-0.97991 l 5.272,0.22893 0.34647,-6.2042 0.44737,-0.009 0.0614,-1.13417 0,0 0.0458,-0.72339 -2.94318,-0.25349 -0.83851,-0.92703 0.0112,-0.0615 c 0.0493,-0.3352 0.41274,-0.50401 0.44895,-0.83591 0.0624,-0.39371 -0.23568,-0.7141 -0.56239,-0.87336 -0.39333,-0.0943 -0.46387,-0.5223 -0.67235,-0.79927 -0.2655,-0.19638 -0.60513,-0.0738 -0.89469,0.0166 -0.3843,0.0752 -0.71053,0.28068 -0.99608,0.53864 -0.29109,0.23489 -0.59077,0.4481 -0.84182,0.72775 -0.28293,0.12846 -0.56029,0.35574 -0.87428,0.40299 -0.32234,-0.0658 -0.66925,-0.0341 -0.939,-0.24613 0.0164,-0.32839 -0.29092,-0.55928 -0.61521,-0.43803 -0.19894,0.0204 -0.50468,0.42146 -0.61775,0.23015 l -0.0815,0.90739 -1.13495,-0.22067 -0.27191,-0.40298 -1.85754,-0.10634 0.34677,-1.61991 -4.83563,-0.0167 -4.09596,3.05592 -0.60569,1.31479 -0.64424,-0.12529 0.052,-0.59479 -3.76457,-0.286 0,0 -5.45696,-0.42401 c -0.14694,-0.0867 -0.40419,-0.23453 -0.63897,-0.31533 -0.23494,-0.0807 -0.47271,-0.0896 -0.53854,0.15001 0.0562,0.13206 0.10222,0.3038 0.17386,0.41582 0.0716,0.11218 0.17571,0.15731 0.36215,0.10224 -0.14579,0.27105 -0.60589,0.42061 -0.53508,0.78736 0.012,0.23162 0.2224,0.30606 0.40049,0.39619 0.17805,0.0901 0.30981,0.2058 0.22924,0.45837 -0.0967,0.46581 -0.48374,0.73916 -0.83415,1.01579 -0.30305,0.2405 -0.63651,0.48853 -1.02668,0.53259 -0.18214,-0.0829 -0.2262,-0.26228 -0.19863,-0.4524 0.0269,-0.19021 0.10457,-0.39858 0.13813,-0.54621 0.10313,-0.13042 0.25458,-0.26509 0.33484,-0.41236 0.0802,-0.14745 0.0853,-0.31023 -0.064,-0.49 -0.21106,-0.27677 -0.39371,-0.61699 -0.1952,-0.96113 0.05,-0.15541 0.10801,-0.37363 0.10755,-0.5522 -10e-4,-0.17854 -0.0506,-0.32008 -0.27776,-0.37228 -0.38983,0.0138 -0.52776,0.46473 -0.62715,0.76948 -0.0458,0.2139 -0.1882,0.33882 -0.36547,0.40643 -0.17735,0.0676 -0.39096,0.067 -0.57613,0.0151 -0.1391,-0.002 -0.30809,-0.0124 -0.39873,-0.0775 -0.0907,-0.0638 -0.11144,-0.1589 0.0592,-0.30685 0.12587,-0.22185 0.0446,-0.37691 -0.13132,-0.47122 -0.17474,-0.0942 -0.42321,-0.1339 -0.57082,-0.17465 -0.40787,-0.17628 -0.8778,-0.19997 -1.31224,-0.12778 -0.23635,0.0661 -0.30955,0.23129 -0.34083,0.44312 -0.0322,0.21168 -0.0104,0.47302 -0.0645,0.656 0.002,0.12644 -0.069,0.29741 -0.0893,0.46022 -0.0215,0.16268 1.5e-4,0.29498 0.19176,0.32373 0.34187,0.033 0.69501,0.008 1.0242,0.13583 0.3725,0.10413 0.7994,0.20445 1.12728,-0.0674 0.21955,-0.16314 0.30327,-0.0985 0.30687,0.0592 0.003,0.15808 -0.0704,0.38028 -0.15671,0.47889 -0.0578,0.132 -0.17453,0.24847 -0.2616,0.36305 -0.0871,0.11449 -0.14352,0.23106 0.0205,0.386 0.0778,0.19617 0.0239,0.40827 -0.1132,0.5828 -0.13734,0.1745 -0.33654,0.31202 -0.49426,0.41329 -0.19311,0.13461 -0.22094,0.33112 -0.16272,0.50963 0.0255,0.0787 0.10282,0.11783 0.15426,0.18911 l 0.10399,-0.0435 0.0196,-0.0918 0.13383,-0.19689 0.11,-0.0742 0.14657,-0.0989 0.10986,-0.074 0.23255,-0.0503 0.0742,0.10991 0.0919,0.0196 0.10483,0.1158 0.0683,0.1406 0.17888,0.22588 0.0503,0.23257 -0.0421,0.21464 0.0563,0.20205 -0.0233,0.12279 -0.035,0.18408 0.0809,0.23864 -0.0196,0.0919 0.0918,0.0196 0.0682,0.14058 0.12282,0.0234 0.28897,0.15156 0.10989,-0.0741 0.0918,0.0196 0.21473,0.0422 0.39872,0.0777 0.1228,0.0232 0.38097,0.16952 0.2146,0.0421 0.16628,0.12782 0.17293,0.2565 0.0741,0.11001 0.26511,0.27432 -0.0196,0.0916 0.0809,0.23864 0.0741,0.10999 -0.0421,0.21465 0.0917,0.0196 -0.0592,0.30683 -0.0196,0.0917 0.12281,0.0233 -0.0233,0.1228 0.0742,0.1099 -0.0196,0.0919 0.0917,0.0196 0.0989,0.14655 -0.0196,0.0916 0.0918,0.0196 -0.0196,0.0919 0.0917,0.0196 0.17306,0.25644 0.0742,0.10989 0.0988,0.14656 0.0917,0.0196 0.0562,0.20204 0.17303,0.25641 0.0743,0.10989 -0.0233,0.12283 0.17886,0.22587 0.0503,0.23257 -0.0196,0.0919 -0.0234,0.12281 -0.0196,0.0919 -0.0196,0.0918 -0.0233,0.12283 0.0869,0.20778 -0.0234,0.12282 -0.0196,0.0919 -0.0196,0.0917 -0.0233,0.12281 0.0741,0.10987 -0.0421,0.21462 0.0918,0.0196 -0.0196,0.0918 0.0809,0.23867 0.074,0.10987 0.0741,0.10987 0.19091,0.16445 0.0742,0.11 0.21463,0.0421 0.21463,0.0421 0.0917,0.0196 0.52147,0.10112 0.0917,0.0196 0.0918,0.0196 0.2146,0.0421 0.21463,0.0421 0.38092,0.16961 0.0681,0.14058 0.12282,0.0232 0.0918,0.0196 0.19691,0.13371 0.49074,0.0956 0.14061,-0.0683 0.30675,0.0591 0.0918,0.0196 0.11593,-0.10481 0.23258,-0.0503 0.0919,0.0196 0.12279,0.0232 0.11,-0.0741 0.2386,-0.081 0.20186,-0.0562 0.34855,-0.15504 0.23258,-0.0503 0.21464,0.0421 0.0918,0.0196 0.30683,0.0591 0.26501,0.27442 -0.0196,0.0918 0.0919,0.0196 0.12281,0.0233 0.0917,0.0196 0.0916,0.0196 0.21475,0.0421 0.30683,0.059 0.30685,0.0593 0.0919,0.0196 0.10481,0.11582 0.0919,0.0196 0.19083,0.16445 -0.0196,0.0918 0.0918,0.0196 0.0742,0.11 -0.0233,0.1228 -0.0196,0.0918 0.0809,0.23851 -0.0196,0.0918 0.0918,0.0196 -0.0196,0.0918 0.0918,0.0196 -0.0233,0.12279 0.1228,0.0233 0.28896,0.15158 0.074,0.10989 0.23257,-0.0502 0.16626,0.12782 0.12279,0.0233 0.0682,0.14059 0.074,0.10998 0.0809,0.23862 0.0919,0.0196 0.0143,0.41668 -0.0196,0.0918 0.0989,0.14657 -0.0196,0.0918 0.0917,0.0196 -0.0196,0.0918 0.0917,0.0196 0.12281,0.0233 0.0917,0.0196 0.21474,0.0421 0.18406,0.035 0.42954,0.0838 0.0683,0.1406 0.0919,0.0196 0.1228,0.0232 0.0917,0.0196 0.36297,0.26165 0.12277,0.0234 0.0919,0.0196 0.21475,0.0421 0.0919,0.0196 0.10988,-0.0741 0.12279,0.0233 0.0196,-0.0919 0.1159,-0.10482 0.0349,-0.18407 0.0591,-0.30693 0.0233,-0.12282 0.0591,-0.30675 0.0196,-0.0917 0.25654,-0.17305 0.0196,-0.0919 0.0917,0.0196 0.0196,-0.0918 0.0918,0.0196 0.47133,-0.13129 0.44048,-0.13727 0.0918,0.0196 0.14058,-0.0681 0.34839,-0.1551 0.32475,-0.0324 0.20188,-0.0563 0.21472,0.0421 0.21469,0.0422 0.28876,0.15166 0.0742,0.11 0.26504,0.27432 0.0741,0.10987 0.12279,0.0232 0.1603,0.15851 0.0232,-0.1228 0.28282,0.18233 0.12278,0.0232 0.0918,0.0196 0.33061,-0.0631 0.2146,0.0421 0.61353,0.11928 0.18426,0.035 0.19083,0.16445 0.1968,0.13379 0.38093,0.16962 0.26503,0.27429 0.1969,0.13372 -0.0421,0.21472 0.0502,0.23269 -0.0196,0.0917 0.074,0.10987 0.0989,0.14657 0.0917,0.0196 -0.0196,0.0918 0.0917,0.0196 0.12281,0.0234 0.0917,0.0196 0.0917,0.0196 0.0196,-0.0917 0.1228,0.0234 0.0233,-0.12282 0.38435,-0.33908 0.0196,-0.0919 0.0232,-0.12279 0.0918,0.0196 0.10989,-0.0741 0.12281,0.0232 0.10998,-0.074 0.11591,-0.10479 0.12281,0.0232 0.0682,0.14059 0.0918,0.0196 0.12282,0.0232 0.16625,0.1278 0.21461,0.0421 0.0917,0.0196 0.14057,-0.0681 0.0918,0.0196 0.0919,0.0196 0.23855,-0.081 0.21461,0.0421 0.11,-0.0742 0.34851,-0.15517 0.10989,-0.0741 0.0196,-0.0918 0.12278,0.0233 0.0421,-0.21471 0.0196,-0.0918 0.11592,-0.10481 0.0591,-0.30677 0.0591,-0.30693 0.10998,-0.074 0.1406,-0.0681 0.11584,-0.10484 0.34256,-0.12451 0.0918,0.0196 0.14655,-0.0989 0.21971,-0.1482 0.25654,-0.17301 0.29229,-0.357 0.042,-0.21472 0.0196,-0.0919 0.11583,-0.10483 0.0196,-0.0917 0.0916,0.0196 0.14059,-0.0683 0.11592,-0.10481 0.0917,0.0196 0.21461,0.0421 0.0917,0.0196 0.12282,0.0232 0.0918,0.0196 0.0916,0.0196 0.12281,0.0234 0.10988,-0.0741 0.0917,0.0196 0.14059,-0.0683 0.11593,-0.1048 0.25054,-0.14222 0.0233,-0.12281 0.1099,-0.0742 0.23256,-0.0503 0.11592,-0.10479 0.0918,0.0196 0.58107,-0.20529 0.0917,0.0196 0.0989,0.14658 0.0917,0.0196 0.074,0.10987 z"
       id="OH-02"
       style="font-style:normal;font-weight:400;font-size:34.375px;font-family:'MS Shell Dlg 2';opacity:1;fill:none;fill-opacity:1;fill-rule:evenodd;stroke:#000000;stroke-width:0.33333385;stroke-linecap:square;stroke-linejoin:bevel;stroke-miterlimit:4;stroke-dasharray:none;stroke-opacity:1" />
    <path
       inkscape:connector-curvature="0"
       d="m 370.54841,593.99934 c -0.0383,0.14321 -0.0669,0.30675 -0.16961,0.3809 -0.17448,0.29227 0.015,0.34488 0.24129,0.39705 0.22633,0.052 0.48512,0.0907 0.54106,0.32795 0.10597,0.21415 -0.0481,0.36092 -0.26756,0.3938 -0.21888,0.0328 -0.49734,-0.0254 -0.55904,-0.23601 -0.14876,-0.1471 -0.36181,-0.24443 -0.53509,-0.35868 -0.17326,-0.11436 -0.29398,-0.26049 -0.27866,-0.53174 -0.12768,-0.31742 -0.2541,-0.31846 -0.39963,-0.23682 -0.14554,0.0815 -0.30778,0.25629 -0.52578,0.24791 -0.30434,-0.0113 -0.59714,-0.0457 -0.76608,0.0104 -0.16886,0.0572 -0.226,0.18428 -0.0956,0.49078 0.0452,0.47617 -0.17568,0.96744 0.008,1.43403 -0.16973,0.38978 0.18055,0.58888 0.34773,0.83162 -0.16036,0.30759 -0.0296,0.41157 0.16788,0.44647 0.19781,0.036 0.46487,-0.0205 0.64332,-0.0341 0.33398,0.0768 0.51786,-0.0751 0.6603,-0.28544 0.14256,-0.21036 0.25753,-0.48426 0.46869,-0.60937 0.2681,-0.15613 0.29335,0.006 0.31365,0.1883 0.0201,0.18188 0.0148,0.38951 0.28369,0.34171 0.2694,0.0536 0.29711,-0.0904 0.28027,-0.29565 -0.0167,-0.20536 -0.0783,-0.46202 0.0214,-0.60078 -0.0875,-0.23207 0.044,-0.45814 0.19931,-0.53427 0.15567,-0.076 0.344,-0.0166 0.39378,0.26755 -0.1346,0.26162 -0.087,0.50506 0.0158,0.73541 0.10303,0.23017 0.28052,0.45945 0.44486,0.65939 0.31165,0.27604 0.57499,0.71637 0.44747,1.13756 -0.17022,0.006 -0.28657,0.2381 -0.3963,0.40046 -0.10959,0.16248 -0.19374,0.28241 -0.33647,0.0938 -0.2539,-0.40499 -0.21331,-0.88161 -0.28302,-1.32843 -0.1841,-0.2111 -0.29534,-0.16354 -0.38003,-0.0106 -0.0847,0.15336 -0.14713,0.40375 -0.16876,0.54021 -0.17104,0.36957 0.37046,0.87253 0.0673,1.12729 -0.17075,0.0927 -0.24376,0.23307 -0.22491,0.33829 0.0189,0.10534 0.14526,0.16884 0.36214,0.10224 0.4346,0.0106 0.85962,-0.14942 1.28585,-0.22753 0.26412,-0.0449 0.35549,-0.24406 0.40805,-0.46194 0.0526,-0.21785 0.0748,-0.45345 0.15602,-0.63827 0.36969,-0.20177 0.75332,-0.0555 1.17677,0.006 0.46255,-0.20358 1.04476,-0.21205 1.51926,-0.11853 l 0.0843,-1.41617 -0.41067,-0.0162 0.0326,-0.8214 0.69264,0.0393 0.20336,-3.17573 -0.43964,0.29653 -0.027,0.63145 -1.57469,0.0759 c -0.02,0.17301 -0.1009,0.25605 -0.17638,0.25218 -0.0756,-0.002 -0.17235,-0.0771 -0.25225,-0.17638 -0.15964,-0.19859 -0.26363,-0.50579 -0.1381,-0.59976 -4.5e-4,-0.31202 0.14234,-0.3081 0.30504,-0.25917 0.16274,0.049 0.35434,0.13407 0.45936,-0.0698 0.15253,-0.11124 0.42639,-0.0705 0.6493,-0.0648 0.2228,0.006 0.38608,-0.0435 0.26149,-0.36309 -0.59133,-0.41057 -1.32664,-0.53374 -1.91722,-0.94559 -0.33837,-0.34084 -0.82766,-0.39528 -1.27733,-0.47118 -0.2172,0.0524 -0.30916,-0.033 -0.35025,-0.16365 -0.0412,-0.12902 -0.043,-0.29429 -0.009,-0.44727 l -0.60066,-0.0214 0.21072,3.82928 c -0.19912,0.12335 -0.2636,-0.009 -0.28291,-0.18233 -0.0195,-0.17483 0.004,-0.38922 -0.10054,-0.46517 -0.21969,-0.2167 -0.302,-0.13653 -0.35539,0.0264 -0.0142,0.0381 -0.0426,0.0725 -0.0546,0.11673 z"
       id="OH-03"
       style="font-style:normal;font-weight:400;font-size:34.375px;font-family:'MS Shell Dlg 2';opacity:1;fill:none;fill-opacity:1;fill-rule:evenodd;stroke:#000000;stroke-width:0.33333385;stroke-linecap:square;stroke-linejoin:bevel;stroke-miterlimit:4;stroke-dasharray:none;stroke-opacity:1" />
    <path
       inkscape:connector-curvature="0"
       d="m 360.05065,594.12354 0.28486,-2.77797 6.40512,0.13082 0,0 0.91948,0.0189 -0.1741,-3.85404 -1.67946,-0.0398 0.0379,-7.72847 3.59763,-9.9e-4 0.17067,-2.35431 0.9782,-0.44657 0.8947,-0.0166 0.77451,-0.70907 1.75274,-0.009 0.1182,-1.91896 2.79488,0.0339 0.0361,-8.04716 -2.25545,-0.0245 -0.25857,-5.87599 14.26843,0.13127 0.0619,-2.12094 2.10808,-0.0359 -0.0864,-5.77894 0,0 -5.7e-4,-0.31861 -1.36507,0.3076 -0.0344,0.50272 c 0.51856,0.16392 0.71032,0.45571 0.6595,0.70132 -0.0505,0.2456 -0.33026,0.46179 -0.70214,0.50022 l -2.74535,0.0389 0.0588,1.82606 -12.3622,-0.11084 -0.0415,-1.91806 -2.18138,0.0853 -0.0904,-0.84527 -2.3901,0.013 0,0 -5.67505,0.043 0.0109,-1.36683 -1.69139,0.0215 -0.0937,14.40293 6.56976,-0.06 -0.0336,8.52521 -6.50237,0.0414 -0.002,5.25228 -2.04079,0.0171 -7.93556,-0.93759 0.14585,-10.41351 -4.98894,-0.0466 -0.0297,1.29949 -4.82967,-0.0474 -0.10377,1.18953 -1.13413,-0.0614 -0.0288,3.75102 -1.33012,-0.0357 0.0794,3.35814 -1.53205,0.0208 -1.0071,0.75937 -0.24196,0.5897 0.12867,-0.007 0.0836,1.8627 2.48814,-0.0257 0.002,2.6108 0.36214,0.10225 0.006,4.55356 4.33887,-0.048 4.48201,0.36182 -0.28449,4.08325 11.23248,0.8463 z"
       id="OH-04"
       style="font-style:normal;font-weight:400;font-size:34.375px;font-family:'MS Shell Dlg 2';opacity:1;fill:none;fill-opacity:1;fill-rule:evenodd;stroke:#000000;stroke-width:0.33333385;stroke-linecap:square;stroke-linejoin:bevel;stroke-miterlimit:4;stroke-dasharray:none;stroke-opacity:1" />
    <path
       inkscape:connector-curvature="0"
       d="m 332.37713,581.2313 2.48206,0.005 0.0568,-0.78487 0.65777,-0.76348 1.63686,0.0958 0.24197,-0.58968 1.00709,-0.75936 1.53206,-0.0207 -0.0794,-3.35814 1.33011,0.0357 0.0288,-3.75104 1.13411,0.0614 0.10378,-1.18954 4.82965,0.0474 0.0297,-1.29948 4.98897,0.0466 -0.14587,10.41348 7.93558,0.93759 2.04076,-0.0171 0.002,-5.25229 6.50239,-0.0414 0.0336,-8.5252 -6.56976,0.06 0.0937,-14.40294 1.69137,-0.0215 -0.0111,1.36682 5.67506,-0.0429 -0.0113,-2.07149 -2.42077,0.007 -0.0326,-2.61668 -8.18693,0.19141 c -0.18466,0.23986 -0.32997,0.34232 -0.62281,0.42008 -0.25324,0.15257 -0.67007,-0.13528 -0.93815,-0.087 -0.20641,0.0504 -0.52211,-0.10472 -0.7064,-0.29654 -0.1647,-0.35281 -0.23577,-0.41116 -0.32293,-0.79491 l 0.0393,-0.69286 c 0.49654,-0.0326 0.5979,0.0154 0.79755,0.1551 0.25773,0.0385 0.32573,0.24232 0.5837,0.27268 0.22358,-0.10942 0.0712,-0.47005 0.13119,-0.67485 0.10357,-0.26647 0.47157,-0.22902 0.65354,-0.41411 0.14693,-0.24386 0.0987,-0.56536 0.0992,-0.84028 -0.007,-0.0614 7.8e-4,-0.12743 0.004,-0.19003 l -0.0304,-0.01 -0.20192,0.0562 -0.21465,-0.0421 -0.0917,-0.0196 -0.0918,-0.0196 -0.23853,0.081 -0.0918,-0.0196 -0.12281,-0.0233 -0.10999,0.0741 -0.0919,-0.0196 -0.1228,-0.0233 -0.32455,0.0324 -0.42272,0.0453 -0.21459,-0.0421 -0.20207,0.0562 -0.1228,-0.0232 -0.20182,0.0562 -0.45342,0.0392 -0.39873,-0.0775 -0.41667,0.0143 -0.65526,0.0956 -0.84618,-0.0692 -0.10996,0.074 -0.45322,0.0393 -0.41675,0.0143 -1.26878,-0.0241 -0.86394,0.0231 -0.18429,-0.035 -1.83196,0.0897 -0.4166,0.0143 -0.12283,-0.0232 -0.44056,0.13715 -1.26282,-0.0543 -0.23854,0.0809 -0.18428,-0.035 -0.12278,-0.0233 -0.95594,0.005 -1.80137,0.0956 -0.77195,0.0408 -0.0918,-0.0196 -0.72941,-0.0147 -0.44727,0.009 -0.41675,0.0143 -0.72929,-0.0147 -0.44746,0.008 -0.83921,0.0596 -2.04079,0.0172 -0.41671,0.0143 -0.42271,0.0452 -0.84604,-0.0691 -1.1947,0.0861 -0.0421,0.21462 0.0452,0.42267 -0.01,0.53944 -0.027,0.63139 -0.0591,0.30675 0.10481,0.11594 -0.0196,0.0919 -0.0508,0.75409 -0.0242,1.26875 0.0325,0.32456 -0.003,0.50872 -0.0592,0.30695 0.0631,0.33051 -0.027,0.6314 -0.027,0.6314 -0.0421,0.21473 0.0631,0.33062 0.0325,0.32465 -0.0196,0.0919 -0.006,1.1767 -0.0591,0.30686 -0.01,0.53938 0.0323,0.32454 -0.0833,1.57565 -0.003,0.50874 -0.0514,1.90013 0.0631,0.33052 -0.0421,0.21472 -0.0196,0.0918 0.0503,0.23258 -0.0777,0.39884 0.0503,0.23256 -0.059,0.30685 0.003,0.63736 0.0503,0.23265 -0.0591,0.30676 0.0415,1.91808 0.003,0.63734 -0.027,1.77744 -0.027,0.63146 -0.0512,1.90018 -0.0421,0.21471 0.0323,0.32465 0.0452,0.42269 0.009,0.44727 -0.0775,0.39884 -0.0196,0.0918 -0.01,0.53941 -0.0196,0.0918 0.0393,0.45343 0.0324,0.32454 -0.0776,0.39883 0.0323,0.32464 0.0453,0.42261 -0.0838,0.42951 0.0742,0.10989 -0.0592,0.30686 -0.0196,0.0917 -0.0232,1.26881 0.0408,0.77197 -0.0957,0.49077 0.0956,0.65524 -0.1011,0.52151 0.0503,0.23267 0.0273,0.51466 -0.0591,0.30676 -0.0421,0.21473 -0.0112,0.0615 z"
       id="OH-05"
       style="font-style:normal;font-weight:400;font-size:34.375px;font-family:'MS Shell Dlg 2';opacity:1;fill:none;fill-opacity:1;fill-rule:evenodd;stroke:#000000;stroke-width:0.33333385;stroke-linecap:square;stroke-linejoin:bevel;stroke-miterlimit:4;stroke-dasharray:none;stroke-opacity:1" />
    <path
       inkscape:connector-curvature="0"
       d="m 423.89309,565.72089 -4.00146,0.11365 -0.0303,-2.13881 -6.29954,0.14447 0.0973,2.12002 -1.78941,0.0342 0.0564,2.49409 0,0 0.14261,4.83482 -3.18086,-0.0135 0.0374,2.42677 -1.7348,-0.0829 0.0249,2.32882 1.15202,-0.0307 0.0138,2.54946 -1.64194,0.0947 0.0979,1.1333 -2.54945,0.0138 -0.015,0.57001 -0.41499,0.33319 -0.6305,0.13214 0.0546,1.02934 -2.34155,-0.0728 -0.008,4.13691 -0.9867,-7.8e-4 -0.0444,2.02882 -11.24764,-0.27623 -0.033,4.10033 4.67126,0.20754 -0.2162,1.93183 6.54666,0.22161 -0.0712,4.95239 1.2628,0.0546 0.007,2.42077 1.17682,0.006 0.0487,2.20611 -2.21877,-0.0492 -0.57522,0.17475 -0.0655,1.48344 0.31881,-5.6e-4 -0.0111,1.36682 -1.15202,0.0307 -0.66981,-0.3213 -0.7047,0.0223 0.0127,1.24403 -0.50872,-0.003 -0.10889,3.67168 0.79931,0.47373 -0.002,0.82738 -2.94832,-0.0638 -0.10888,2.52559 -7.59557,-0.39406 -0.30394,5.00262 -2.4463,-0.18889 0.18051,-2.89374 -2.55037,-0.14568 0.0858,-1.09746 -2.51367,-0.17084 -5.6e-4,-0.31869 -2.47712,-0.19501 -0.0614,1.13414 -0.44734,0.009 -0.34647,6.20421 -5.27196,-0.22892 c 0.0613,0.37366 0.0489,0.61043 0.12787,0.9799 0.1377,0.2899 0.49386,0.40621 0.62887,0.69526 0.0571,0.13552 0.005,0.29089 -0.0776,0.39876 -0.0824,0.10794 -0.21285,0.16737 -0.36719,0.0878 -0.46664,-0.0915 -0.91588,-0.16957 -1.38048,-0.26824 0.20333,0.0985 0.38102,0.23994 0.52316,0.42004 0.14311,0.18501 0.31101,0.38932 0.32223,0.63566 -0.0262,0.30494 -0.54599,0.0757 -0.46352,0.41927 0.063,0.42756 0.2234,0.82344 0.43546,1.19881 0.11589,0.22241 0.38403,0.0923 0.58285,0.11352 0.19587,-0.0611 0.5894,0.15725 0.63052,-0.13215 -0.0201,-0.21802 -0.17967,-0.40225 -0.26676,-0.59296 -0.0292,-0.18406 0.0568,-0.35395 0.13207,-0.51548 l 1.85754,0.10644 -0.0217,1.58737 1.17071,0.0368 0.0213,0.54528 -0.1279,0.16617 0.1228,0.0233 -0.0196,0.0918 0.0683,0.1406 -0.0591,0.30694 0.0742,0.10992 -0.0196,0.0917 -0.0421,0.21472 -0.0422,0.21472 -0.0348,0.18409 -0.0421,0.21472 0.0809,0.23862 0.074,0.10988 0.17295,0.25641 0.0563,0.20206 0.1313,0.47111 -0.0196,0.0918 -0.0591,0.30684 0.0322,0.32461 -0.0196,0.0919 0.0917,0.0196 -0.0233,0.12281 0.0869,0.2078 0.0503,0.23268 0.0742,0.11001 0.0989,0.14654 0.0918,0.0196 -0.0196,0.0918 0.0917,0.0196 0.10483,0.11581 0.1603,0.15852 0.12281,0.0233 0.0741,0.10997 0.0917,0.0196 0.19689,0.13382 0.21472,0.0422 0.18407,0.035 0.12279,0.0232 0.20207,-0.0563 0.30673,0.0592 0.14059,-0.0683 0.0917,0.0196 0.21473,0.0422 0.18407,0.035 0.10481,0.11594 0.0919,0.0196 0.0742,0.11001 0.12276,0.0233 0.18408,0.035 -0.0234,0.1228 0.19691,0.13373 0.0742,0.10989 0.0988,0.14658 -0.0196,0.0918 0.14219,0.25055 0.1228,0.0233 0.14841,0.21975 0.0989,0.14657 -0.0196,0.0918 0.0917,0.0196 0.0741,0.10999 0.12282,0.0234 0.0682,0.1406 0.0918,0.0196 0.10483,0.11582 0.0919,0.0196 0.0916,0.0196 0.12283,0.0233 0.0742,0.10988 0.0917,0.0196 0.0989,0.14655 0.0917,0.0196 -0.0196,0.0918 0.0503,0.23265 0.0451,0.42261 0.0742,0.10998 0.0325,0.32457 0.0988,0.14656 -0.0196,0.0917 0.0919,0.0196 0.074,0.10997 0.12278,0.0234 0.0683,0.14063 0.0918,0.0196 0.12278,0.0234 0.16609,0.12771 0.12278,0.0233 0.11,-0.074 0.2147,0.0422 0.11582,-0.10483 0.0917,0.0196 0.1228,0.0232 0.43463,-0.1066 0.25642,-0.17294 0.20205,-0.0562 0.34838,-0.15518 0.12282,0.0233 0.0196,-0.0916 0.0918,0.0196 0.23861,-0.0809 0.0917,0.0196 0.10987,-0.0741 0.12281,0.0234 0.0196,-0.0919 0.0919,0.0196 0.11595,-0.1048 0.34242,-0.12453 0.12282,0.0233 0.30694,0.0591 0.18405,0.035 0.14658,-0.0989 0.0917,0.0196 0.23269,-0.0502 0.44047,-0.13717 0.23267,-0.0503 0.1099,-0.0743 0.15155,-0.2888 0.0232,-0.12278 0.0196,-0.0919 0.0196,-0.0919 0.0233,-0.12279 0.0196,-0.0919 0.0196,-0.0917 0.0232,-0.12281 0.035,-0.18426 0.0233,-0.1228 0.0196,-0.0918 0.0422,-0.2146 -0.0323,-0.32474 0.0196,-0.0917 0.0196,-0.0918 0.0232,-0.1228 0.0196,-0.0917 0.1099,-0.0741 0.0233,-0.12282 0.0196,-0.0917 0.01,-0.53941 0.0592,-0.30677 -0.0917,-0.0196 0.0196,-0.0919 0.1099,-0.0741 0.0233,-0.12276 0.0196,-0.0918 0.0918,0.0196 0.16444,-0.19084 0.0196,-0.0918 0.0918,0.0196 0.10999,-0.0742 0.14654,-0.0988 0.0917,0.0196 0.0918,0.0196 0.12281,0.0233 0.18427,0.035 0.30674,0.0591 0.12281,0.0232 0.18426,0.035 0.12279,0.0233 0.20184,-0.0562 0.1406,-0.0682 0.11591,-0.1048 0.10999,-0.0742 0.0196,-0.0918 0.0233,-0.12278 0.0196,-0.0918 0.0421,-0.2146 0.035,-0.18427 0.0233,-0.12281 -0.0917,-0.0196 0.0196,-0.0919 -0.0503,-0.23257 -0.087,-0.20802 -0.14225,-0.25043 0.0421,-0.21464 -0.12278,-0.0233 0.0196,-0.0919 -0.0503,-0.23268 0.0196,-0.0919 0.0196,-0.0918 0.0233,-0.12279 0.0196,-0.0917 0.0196,-0.0919 0.0233,-0.12281 0.0196,-0.0919 0.0196,-0.0918 0.0233,-0.1228 -0.0742,-0.10998 -0.081,-0.23866 0.0196,-0.0916 -0.0503,-0.23259 0.0196,-0.0918 -0.0919,-0.0196 -0.0631,-0.33063 -0.0742,-0.10991 0.0233,-0.12278 -0.0918,-0.0196 -0.1048,-0.11592 -0.0919,-0.0196 -0.074,-0.10997 -0.0989,-0.14655 -0.0742,-0.10991 0.0196,-0.0918 0.0233,-0.12282 0.0592,-0.30694 0.0196,-0.0919 0.0918,0.0196 0.0196,-0.0918 0.25643,-0.17303 0.13371,-0.19691 0.12282,0.0233 0.10996,-0.0741 0.0918,0.0196 0.2564,-0.17294 0.1099,-0.0741 0.16445,-0.19095 0.10998,-0.074 0.0196,-0.0918 0.11593,-0.1048 0.0196,-0.0919 0.0196,-0.0919 0.0233,-0.12277 0.0196,-0.0919 -0.0742,-0.10991 0.0232,-0.12277 0.0196,-0.0919 0.0196,-0.0918 0.0233,-0.12279 -0.0919,-0.0196 0.0196,-0.0919 -0.10479,-0.1158 0.0421,-0.21473 0.0422,-0.21471 0.15844,-0.16012 0.13383,-0.19689 0.10998,-0.0741 0.0233,-0.12277 0.0196,-0.092 0.0196,-0.0917 0.16445,-0.19093 0.0196,-0.0918 0.0421,-0.21462 0.0196,-0.0917 0.13371,-0.19692 0.0196,-0.0918 0.0232,-0.1228 0.12777,-0.16603 0.0233,-0.12282 0.0196,-0.0918 0.0196,-0.0918 0.12282,0.0233 0.13381,-0.19678 0.23263,-0.0503 0.0233,-0.12278 0.0918,0.0196 0.10992,-0.0742 0.0196,-0.0918 0.12281,0.0234 0.11592,-0.10479 0.035,-0.18407 0.0233,-0.12281 0.0196,-0.0918 0.0196,-0.0919 0.0232,-0.12278 0.0196,-0.0919 0.10998,-0.074 0.14657,-0.0989 0.0196,-0.0919 0.0919,0.0196 0.0917,0.0196 0.23266,-0.0503 0.0919,0.0196 -0.0196,0.0918 0.1228,0.0233 0.0741,0.10999 0.0917,0.0196 -0.0233,0.12281 0.10481,0.11583 0.0917,0.0196 -0.0196,0.0917 0.0682,0.14059 -0.0196,0.0919 -0.0196,0.0918 0.1228,0.0233 -0.0233,0.1228 0.0916,0.0196 0.23853,-0.081 0.0918,0.0196 0.0196,-0.0919 0.21472,0.0422 0.18406,0.035 0.10482,0.11593 0.0919,0.0196 0.0503,0.23257 0.10481,0.11585 0.14221,0.25051 0.0809,0.23864 0.0742,0.10989 0.0742,0.1099 -0.0233,0.12282 0.1228,0.0232 0.14816,0.21992 -0.0232,0.12278 -0.0196,0.0917 -0.0196,0.0918 -0.15159,0.28898 -0.0918,-0.0196 -0.0233,0.1228 -0.14059,0.0682 -0.0421,0.21462 -0.10999,0.0741 -0.0196,0.0918 -0.0233,0.12279 0.0917,0.0196 0.17892,0.22569 0.19084,0.16443 0.16625,0.12792 0.23258,-0.0503 0.0918,0.0196 0.25651,-0.17294 0.25649,-0.17292 0.10989,-0.0741 0.0196,-0.0919 0.15154,-0.2888 0.16446,-0.19093 -0.12281,-0.0233 0.0196,-0.0919 0.0838,-0.4293 0.059,-0.30697 0.15846,-0.16011 0.0918,0.0196 0.1159,-0.10479 0.12282,0.0232 0.0918,0.0196 0.19084,0.16445 0.14839,0.21974 0.1228,0.0232 0.16013,0.15847 0.12277,0.0233 0.18428,0.035 0.12278,0.0232 0.11584,-0.10481 0.0196,-0.0918 0.1099,-0.0741 -0.0682,-0.14059 -0.0741,-0.10999 -0.1048,-0.11593 -0.0682,-0.14059 -0.0919,-0.0196 -0.10483,-0.11585 -0.0741,-0.10987 0.0232,-0.12279 0.0196,-0.0918 -0.074,-0.10995 0.0233,-0.12281 0.0917,0.0196 0.035,-0.18407 -0.0682,-0.14059 0.0196,-0.0918 0.0196,-0.0917 0.0919,0.0196 0.0233,-0.12279 0.10987,-0.074 0.0196,-0.0918 0.0232,-0.1228 0.0196,-0.0918 -0.074,-0.10998 0.0233,-0.12279 -0.0741,-0.10988 -0.10482,-0.11583 -0.0683,-0.1406 -0.0918,-0.0196 -0.10481,-0.11593 -0.16604,-0.12788 -0.1228,-0.0233 -0.0682,-0.1406 -0.0917,-0.0196 0.0196,-0.0919 -0.10484,-0.11583 -0.0681,-0.14058 0.0196,-0.0918 -0.0741,-0.11 0.0422,-0.2146 -0.10485,-0.11584 0.14657,-0.0988 0.0196,-0.0918 0.0917,0.0196 0.0919,0.0196 0.19688,0.13381 0.0918,0.0196 0.12279,0.0233 0.10989,-0.0741 0.0918,0.0196 0.1406,-0.0683 0.0917,0.0196 0.0233,-0.1228 0.25054,-0.14223 0.0232,-0.12279 0.0196,-0.0917 0.1099,-0.0742 0.0422,-0.21464 -0.0503,-0.23254 -0.063,-0.33073 0.0196,-0.0919 -0.0504,-0.23257 0.0196,-0.0918 0.0421,-0.21472 -0.21134,-0.55042 -0.0681,-0.14059 0.0196,-0.0915 0.0196,-0.0919 0.0232,-0.12279 0.0919,0.0196 0.12781,-0.16628 0.14656,-0.0989 0.0196,-0.0917 0.0422,-0.21462 0.035,-0.18426 0.11593,-0.10479 0.10997,-0.074 0.23257,-0.0502 0.0915,0.0196 0.14654,-0.0989 0.10999,-0.0741 0.0196,-0.0917 0.0233,-0.12277 0.0196,-0.0918 -0.0917,-0.0196 0.0196,-0.0917 -0.0989,-0.14654 0.0196,-0.0918 0.0196,-0.0918 0.0232,-0.1228 0.0196,-0.0917 0.0196,-0.0917 0.0233,-0.12279 0.15852,-0.16031 0.11592,-0.10478 0.21471,0.0421 0.10988,-0.0741 0.21462,0.0421 0.20203,-0.0562 0.52148,0.10122 0.0917,0.0196 0.0232,-0.12279 0.12281,0.0234 0.0919,0.0196 0.0918,0.0196 0.12279,0.0234 0.18427,0.035 -0.0233,0.12279 0.12281,0.0233 0.0233,-0.12278 0.30675,0.0589 0.0196,-0.0917 0.0196,-0.0917 0.0422,-0.21462 0.0196,-0.0919 0.0233,-0.12279 -0.10483,-0.11594 0.0775,-0.39872 0.0422,-0.21473 -0.0143,-0.41661 0.0233,-0.12282 0.0196,-0.0917 0.40811,-0.46183 0.0196,-0.0916 0.0917,0.0196 0.23258,-0.0504 0.0233,-0.12281 0.0918,0.0196 0.14057,-0.0681 0.0196,-0.0919 0.11591,-0.10481 0.10999,-0.0741 0.2743,-0.26505 0.13371,-0.19679 0.18236,-0.28301 0.10995,-0.074 0.25652,-0.17292 0.20186,-0.0563 0.21472,0.0421 0.0917,0.0196 0.10481,0.11588 0.16011,0.15846 0.19691,0.13375 0.0742,0.10988 0.0989,0.14656 0.0562,0.20205 0.0503,0.23254 0.15515,0.34852 -0.0196,0.0919 0.0682,0.14061 0.10483,0.11583 0.0917,0.0196 0.0917,0.0196 0.1228,0.0233 0.10997,-0.074 0.0918,0.0196 0.12279,0.0233 0.0917,0.0196 0.0233,-0.12281 0.0917,0.0196 0.1406,-0.0682 0.13383,-0.19687 0.25053,-0.14222 0.11583,-0.10483 0.27431,-0.26513 0.0917,0.0196 0.0196,-0.0918 0.0918,0.0196 0.14056,-0.0681 0.11582,-0.10483 0.0919,0.0196 0.15849,-0.1603 0.092,0.0196 0.23862,-0.081 0.20185,-0.0563 0.14056,-0.0681 0.39885,0.0774 0.0921,0.0196 0.0232,-0.12277 0.1228,0.0234 0.0196,-0.0918 0.0196,-0.0918 0.0232,-0.12279 0.0196,-0.0918 0.0196,-0.0918 0.0233,-0.1228 0.1102,-0.0741 0.0196,-0.0919 0.0921,0.0196 0.16443,-0.19083 0.0421,-0.21463 0.11018,-0.0741 0.25644,-0.17306 0.11016,-0.074 0.0922,0.0196 0.12281,0.0234 0.0196,-0.0919 0.0922,0.0196 0.23852,-0.081 0.092,0.0196 0.0196,-0.0917 0.11017,-0.0741 0.0233,-0.12281 0.14056,-0.0682 0.15185,-0.28884 0.21155,-0.59557 0.1406,-0.0683 0.134,-0.19674 0.13399,-0.19673 0.0196,-0.0917 0.14061,-0.0681 0.1161,-0.10476 0.0196,-0.0918 0.11015,-0.074 0.0232,-0.12281 0.1228,0.0232 0.0196,-0.0918 0.11021,-0.0742 0.0233,-0.1228 0.11017,-0.074 0.16445,-0.19083 0.11018,-0.0741 0.0196,-0.0918 0.092,0.0196 0.0232,-0.1228 0.14057,-0.0682 0.13401,-0.19674 0.11018,-0.0741 0.0196,-0.0919 0.1228,0.0233 0.0232,-0.1228 0.0921,0.0196 0.0196,-0.0917 0.13401,-0.19674 0.25058,-0.14241 0.0232,-0.12281 0.11018,-0.074 0.53073,-0.43806 0.0196,-0.0919 0.11016,-0.074 0.11612,-0.10478 0.14059,-0.0683 0.1102,-0.0741 0.0919,0.0196 0.21473,0.0421 0.2147,0.0422 0.0922,0.0196 0.25639,-0.17297 0.13402,-0.19671 0.035,-0.18429 0.0233,-0.12281 0.0196,-0.0917 0.0196,-0.0917 0.0421,-0.2147 0.0421,-0.21472 0.0196,-0.0918 -0.0327,-0.32472 0.0196,-0.0917 0.0233,-0.12282 -0.1048,-0.11583 0.14056,-0.0681 0.0233,-0.12284 0.0196,-0.0917 0.092,0.0196 0.0196,-0.0919 0.21474,0.0422 0.0233,-0.12279 0.0922,0.0196 0.11019,-0.0741 0.0196,-0.0916 0.0233,-0.12278 0.0196,-0.0919 0.0196,-0.0917 -0.092,-0.0196 0.0232,-0.12283 -0.0919,-0.0196 -0.24725,-0.3663 -0.10481,-0.11592 -0.0919,-0.0196 -0.15509,-0.34848 -0.092,-0.0196 0.0196,-0.0919 -0.0685,-0.14063 0.0196,-0.0919 0.0196,-0.0919 0.11614,-0.10477 0.38426,-0.3391 0.13402,-0.19685 0.25055,-0.14221 0.0233,-0.12279 0.0196,-0.0918 0.0196,-0.0919 0.0232,-0.1228 -0.0326,-0.3246 0.0196,-0.0918 -0.081,-0.2386 -0.0565,-0.2019 0.0233,-0.12283 0.1102,-0.0741 0.1406,-0.0683 0.0233,-0.12279 0.3247,-0.0323 0.13402,-0.19673 0.0196,-0.0919 0.0196,-0.0916 -0.0685,-0.14068 0.0196,-0.0917 -0.10484,-0.11584 0.0233,-0.12278 -0.16623,-0.12791 -0.10482,-0.11593 -0.0505,-0.2326 0.0422,-0.21463 0.0196,-0.0918 0.0196,-0.0918 0.0921,0.0196 0.14656,-0.0988 0.18428,0.035 0.12281,0.0232 0.14217,0.25055 0.12283,0.0232 0.0922,0.0196 0.0921,0.0196 0.0196,-0.0918 0.0233,-0.12279 0.0196,-0.0917 0.0196,-0.0918 -0.092,-0.0196 -0.0505,-0.23272 0.0196,-0.0919 -0.0631,-0.3305 -0.0686,-0.14065 0.0196,-0.0919 0.11019,-0.0741 0.0233,-0.12281 0.14058,-0.0681 0.11019,-0.074 0.0232,-0.1228 0.11017,-0.0741 0.0196,-0.0919 0.0233,-0.12282 -0.0744,-0.1099 0.0196,-0.0918 0.0232,-0.1228 0.0196,-0.092 -0.0743,-0.10998 0.0233,-0.1228 0.0196,-0.0918 -0.12281,-0.0232 0.0422,-0.21463 0.15852,-0.1603 0.0233,-0.1228 -0.10484,-0.11581 0.14057,-0.0681 0.0421,-0.21471 -0.0809,-0.23865 0.0196,-0.0918 0.0196,-0.0918 0.0232,-0.1228 -0.0921,-0.0196 0.0196,-0.0919 -0.0922,-0.0196 0.0196,-0.0919 -0.0989,-0.14656 0.0196,-0.0916 0.0421,-0.21464 0.14059,-0.0683 0.0196,-0.0919 0.0921,0.0196 0.13399,-0.19676 0.14058,-0.0682 0.0233,-0.12282 0.0922,0.0196 0.035,-0.18427 -0.0685,-0.14067 0.0196,-0.0918 0.0196,-0.0918 -0.0809,-0.23864 0.0196,-0.0918 -0.0505,-0.23263 0.0421,-0.21461 0.0196,-0.0919 0.0196,-0.0918 0.0233,-0.1228 0.0196,-0.0917 0.11015,-0.074 0.0232,-0.12282 0.15849,-0.16029 0.0421,-0.21465 0.0196,-0.0918 0.0921,0.0196 0.0233,-0.12279 0.12809,-0.16622 0.16444,-0.19084 0.0421,-0.21462 0.035,-0.18426 0.0233,-0.1228 -0.10481,-0.11583 0.0422,-0.21463 0.1406,-0.0683 0.0591,-0.30686 0.0196,-0.0918 0.0922,0.0196 0.0233,-0.12281 0.11017,-0.0741 0.1406,-0.0683 0.24376,-0.27085 0.14658,-0.0988 0.035,-0.18427 0.0233,-0.12282 -0.0869,-0.2078 0.0233,-0.12278 0.0196,-0.0917 0.16447,-0.19094 0.0196,-0.0919 0.11017,-0.074 0.0423,-0.21474 0.0196,-0.0919 -0.0685,-0.14063 -0.0869,-0.20781 0.0233,-0.12282 -0.0743,-0.10999 -0.0744,-0.11003 -0.081,-0.23854 0.0422,-0.21463 0.0196,-0.0917 0.0196,-0.0918 0.0422,-0.21461 -0.0743,-0.1099 -0.0684,-0.14065 -0.1228,-0.0234 -0.16627,-0.12791 -0.12281,-0.0233 -0.0743,-0.11004 0.1161,-0.10474 0.0196,-0.0918 0.12277,0.0234 0.20205,-0.0562 0.0233,-0.12279 0.0196,-0.0918 0.0196,-0.0918 -0.0505,-0.23262 0.0196,-0.0918 0.0233,-0.12278 -0.0744,-0.11003 0.0422,-0.21472 0.15183,-0.28872 0.0196,-0.0919 0.0196,-0.0918 0.0421,-0.21465 0.11019,-0.074 -0.0505,-0.23271 0.0196,-0.0918 -0.0685,-0.14066 0.0196,-0.0918 -0.12281,-0.0233 -0.16609,-0.12778 -0.0809,-0.23863 -0.0744,-0.11003 -0.0327,-0.32461 -0.0989,-0.14655 0.0196,-0.0918 0.0196,-0.0919 -0.0506,-0.23262 -0.0744,-0.10992 -0.12281,-0.0234 -0.16031,-0.15848 0.0196,-0.0919 -0.12278,-0.0234 -0.24707,-0.36635 0.0196,-0.0918 -0.16032,-0.15851 -0.1048,-0.11592 -0.0744,-0.11005 0.0233,-0.12279 0.0196,-0.0918 0.11016,-0.074 0.0232,-0.12277 0.0196,-0.0919 0.12281,0.0233 0.0196,-0.0918 0.13404,-0.19673 0.134,-0.19677 0.0196,-0.0919 0.12278,0.0233 0.0196,-0.0916 0.11612,-0.10479 0.0921,0.0196 0.14059,-0.0682 0.0921,0.0196 0.11017,-0.074 0.12279,0.0233 0.0922,0.0196 0.0921,0.0196 0.1228,0.0234 -0.0196,0.0918 0.092,0.0196 -0.0196,0.0919 0.0921,0.0196 0.0196,-0.0917 0.12281,0.0232 0.092,0.0196 0.0196,-0.0917 0.11612,-0.10479 0.0196,-0.0918 0.25651,-0.17303 0.0921,0.0196 0.14059,-0.0682 0.0196,-0.0919 0.0922,0.0196 0.11612,-0.10477 0.1228,0.0234 0.11019,-0.0741 -0.0743,-0.11 0.0233,-0.1228 0.0196,-0.0918 0.0196,-0.0917 -0.0392,-0.45339 -0.0744,-0.10993 0.0776,-0.39885 -0.0716,-0.77794 -0.0327,-0.32459 0.035,-0.18428 -0.0359,-0.96191 -0.0684,-0.14064 0.0351,-0.18427 0.0422,-0.21461 -0.0744,-0.10993 0.0422,-0.21474 -0.0631,-0.3306 0.027,-0.63145 -0.0153,-0.41678 0.0233,-0.12277 -0.0954,-0.65524 0.027,-0.63148 0.0196,-0.0917 -0.12282,-0.0233 0.0196,-0.0918 0.0421,-0.21472 -0.0505,-0.23272 0.0591,-0.30676 -0.0565,-0.20207 0.0233,-0.1228 0.0348,-0.18409 -0.081,-0.23864 0.0421,-0.21472 0.003,-0.50875 -0.0922,-0.0196 0.01,-0.0303 z"
       id="OH-06"
       style="font-style:normal;font-weight:400;font-size:34.375px;font-family:'MS Shell Dlg 2';opacity:1;fill:none;fill-opacity:1;fill-rule:evenodd;stroke:#000000;stroke-width:0.33333385;stroke-linecap:square;stroke-linejoin:bevel;stroke-miterlimit:4;stroke-dasharray:none;stroke-opacity:1" />
    <path
       inkscape:connector-curvature="0"
       d="m 409.46193,566.09926 -3.25412,0.0359 -0.18261,3.56181 -1.23806,-0.0176 -0.12936,3.2857 -0.9733,-2.0355 -3.73303,-0.12038 0.14084,4.51615 -10.22769,0.20853 -0.245,-9.05694 3.27284,0.0313 0.0374,-2.15752 3.90341,-0.10074 0.0625,-1.96163 -1.15204,0.0307 -0.0333,0.66213 -1.37268,0.0199 -0.17224,-1.24332 0.76605,-0.0104 -0.007,-1.27475 1.90533,-0.13901 -0.04,-0.61267 -1.10525,-0.37399 -0.0726,-0.93723 -0.73621,-0.14311 0.0135,-2.0348 -2.04076,0.0171 -0.0436,-3.54221 -2.00419,-0.007 0.0864,5.77896 -2.10808,0.0359 -0.0619,2.12096 -14.26842,-0.13126 0.25856,5.87599 2.25545,0.0246 -0.0361,8.04716 0.91945,0.019 -0.0273,-0.51467 2.42676,-0.0374 0.0705,-1.67348 0.99688,-1.52541 0.7746,0.43713 -0.35441,1.33185 0.83929,-0.0597 -0.61083,1.50479 0.8214,0.0326 0.13565,2.41393 2.3288,-0.0247 0.0311,2.29809 -6.51336,0.26199 -0.17082,5.79251 -1.92485,-0.0875 -0.0691,1.99215 5.94091,0.39075 -0.0775,0.39886 6.1854,0.27903 0.004,1.94284 11.24764,0.27624 0.0444,-2.02884 0.98668,7.8e-4 0.008,-4.1369 2.34157,0.0728 -0.0546,-1.02933 0.6305,-0.13212 0.41499,-0.33324 0.0148,-0.56998 2.5495,-0.0138 -0.098,-1.13331 1.64193,-0.0947 -0.0138,-2.54945 -1.15203,0.0307 -0.0248,-2.32881 1.73478,0.0829 -0.0374,-2.42674 3.18085,0.0135 -0.1426,-4.83483 -2.1575,-0.0373 0.0118,-2.35351 -0.3187,5.6e-4 z"
       id="OH-07"
       style="font-style:normal;font-weight:400;font-size:34.375px;font-family:'MS Shell Dlg 2';opacity:1;fill:none;fill-opacity:1;fill-rule:evenodd;stroke:#000000;stroke-width:0.33333385;stroke-linecap:square;stroke-linejoin:bevel;stroke-miterlimit:4;stroke-dasharray:none;stroke-opacity:1" />
    <path
       inkscape:connector-curvature="0"
       d="m 331.55427,613.79762 4.50504,0.0796 5.63494,0.49096 0.72038,-7.30933 -0.81373,0.25565 -0.0564,-1.34793 -2.48216,-0.005 -0.0202,-9.39518 6.98721,0.0847 0.15851,0.98574 2.25636,0.18396 -0.0388,0.85213 2.44054,0.21953 0.0143,0.41661 2.4217,0.1525 -0.07,0.68668 1.95044,0.28422 0.0256,0.19602 1.99308,0.22827 0,0 1.24487,0.14685 1.93637,-6.85018 -0.31269,-0.028 0,0 -11.2325,-0.8463 0.2845,-4.08326 -4.482,-0.36183 -4.33886,0.048 -0.006,-4.55355 -0.36215,-0.10224 -0.002,-2.61084 -2.48812,0.0257 -0.0836,-1.86266 -0.12866,0.007 0,0 -1.63685,-0.0958 -0.65778,0.76353 -0.0568,0.78484 -2.48206,-0.005 -0.01,0.0305 0.009,0.44727 -0.0631,0.81555 0.0988,0.14655 -0.0196,0.0919 -0.0421,0.21461 -0.0196,0.0919 0.0143,0.41665 0.0538,0.87003 -0.0368,1.1707 -0.035,0.18429 -0.0797,1.06676 -0.0308,1.14012 0.0393,0.4534 -0.035,0.18408 -0.0233,0.12279 0.0562,0.20204 -0.0591,0.30677 -0.0655,1.48355 -0.009,0.53935 0.0143,0.41672 -0.0241,1.26879 -0.0776,0.39881 0.009,0.44727 -0.0775,0.39885 0.081,0.23853 -0.027,0.63142 -0.0242,1.26877 -0.0351,0.18428 -0.0232,0.12279 0.0143,0.41662 -0.0592,0.3068 0.0917,0.0196 -0.10121,0.52159 0.0273,0.51465 -0.0234,0.12282 0.0563,0.20187 -0.0422,0.21472 -0.0196,0.0917 -0.0234,0.12279 -0.0196,0.0918 0.0503,0.23258 -0.0196,0.0919 0.0631,0.33062 -0.0776,0.39883 -0.0369,1.1707 0.0213,0.54529 -0.0544,1.26283 0.0631,0.33072 -0.0777,0.39872 0.0323,0.32463 -0.0196,0.0918 -0.0592,0.30696 0.0358,0.96193 -0.01,0.53939 -0.0196,0.0919 -0.0233,0.1228 -0.0196,0.0919 0.0916,0.0196 -0.0775,0.39876 -0.0203,0.76007 0.0323,0.32472 -0.003,0.50872 -0.0838,0.42929 -0.0232,1.26882 1.1e-4,1.14607 -0.0369,1.17081 -0.006,1.17681 -0.0196,0.0917 z"
       id="OH-08"
       style="font-style:normal;font-weight:400;font-size:34.375px;font-family:'MS Shell Dlg 2';opacity:1;fill:#000000;fill-opacity:1;fill-rule:evenodd;stroke:#000000;stroke-width:0.33333385;stroke-linecap:square;stroke-linejoin:bevel;stroke-miterlimit:4;stroke-dasharray:none;stroke-opacity:1" />
    <path
       inkscape:connector-curvature="0"
       d="m 375.4834,546.665 -0.34852,0.15514 -0.23268,0.0504 -0.22566,0.17893 0.22912,0.45845 0.20203,-0.0563 0.0196,-0.0919 0.0421,-0.21459 0.25639,-0.17298 0.12781,-0.16627 -0.0681,-0.14057 z m -0.17888,0.92034 -0.23854,0.081 -0.0196,0.0916 -0.32473,0.0323 -0.20778,0.087 -0.27443,0.26509 0.11937,0.53256 0.10986,-0.0741 0.2326,-0.0503 0.15164,-0.28879 0.11594,-0.10479 0.29221,-0.35711 0.0196,-0.0919 0.0233,-0.12284 z m 21.41347,4.48065 -0.23854,0.081 -0.18427,-0.0351 -0.14061,0.0683 -0.53253,0.11937 -0.34244,0.12435 -0.14655,0.0989 -0.30695,-0.0591 -0.10988,0.0741 -0.61352,-0.11929 -0.30686,-0.059 -0.30685,-0.059 -0.38092,-0.1696 -0.12282,-0.0232 -0.0681,-0.14058 0.0196,-0.0919 -0.0919,-0.0196 -0.42951,-0.0838 -0.16609,-0.12777 -0.3247,0.0323 -0.12279,-0.0233 -0.10988,0.074 -0.44059,0.13726 -0.1406,0.0683 -0.3305,0.0631 -0.0196,0.0918 -0.0917,-0.0196 -0.23266,0.0503 -0.22571,0.17901 -0.23268,0.0505 -0.58105,0.2053 -0.44058,0.13726 -0.0196,0.0919 -0.23853,0.081 -0.0917,-0.0196 -0.10996,0.074 -0.1228,-0.0233 -0.0917,-0.0196 -0.0918,-0.0196 -0.0196,0.0918 -0.0232,0.1228 -0.0196,0.0918 -0.23269,0.0503 -0.39021,0.36973 -0.10989,0.0741 -0.48918,0.22324 -0.0196,0.0916 -0.0919,-0.0196 -0.25642,0.17308 -0.32476,0.0324 -0.18408,-0.035 -0.23861,0.081 -0.72345,-0.046 -0.23254,0.0503 -0.33062,0.0631 -0.59896,0.29747 -0.10998,0.074 -0.60493,0.3282 -0.12788,0.16605 -0.58108,0.20549 -0.208,0.087 -0.25045,0.14222 -0.39883,-0.0776 -0.30674,-0.0591 -0.12282,-0.0233 -0.0917,-0.0196 -0.28887,-0.15155 -0.2889,-0.15159 -0.0918,-0.0196 -0.19082,-0.16444 -0.38094,-0.16959 -0.19678,-0.1338 -0.375,-0.20023 -0.19679,-0.13371 0.0196,-0.0918 -0.19082,-0.16444 -0.70227,-0.64584 -0.59312,-0.87935 -0.18408,-0.035 -0.28896,-0.1517 -0.10481,-0.1159 -0.14222,-0.25045 0.0196,-0.0919 0.17548,-0.41168 0.0351,-0.18406 -0.19081,-0.16443 -0.49079,-0.0956 -0.1228,-0.0233 -0.53256,0.11927 -0.23263,0.0503 -0.1969,-0.13372 -0.41329,-0.49426 0.0233,-0.1228 -0.1968,-0.13368 -0.22923,-0.45848 -0.10997,0.0741 -0.21463,-0.0421 -0.10991,0.0742 -0.16443,0.19084 0.15508,0.34846 -0.0423,0.21473 -0.0593,0.30673 -0.29219,0.35712 -0.10996,0.0741 -0.0233,0.12281 -0.25058,0.14239 -0.1158,0.10483 -0.32465,0.0323 -0.56316,0.11333 -0.0917,-0.0196 -0.49762,-0.22408 -0.0919,-0.0196 -0.64599,-0.44378 -0.39354,-0.26762 -0.16031,-0.15851 -0.10484,-0.11583 -0.26493,-0.2743 -0.0742,-0.10997 0.0196,-0.0919 -0.19091,-0.16446 -0.0563,-0.20184 -0.0917,-0.0196 -0.0989,-0.14656 0.0196,-0.0918 -0.3571,-0.29232 -0.0918,-0.0196 -0.28899,-0.15158 -0.52146,-0.10113 -0.41665,0.0143 -0.41167,-0.17546 -0.59564,-0.21122 -0.75573,-0.36981 -0.1228,-0.0234 -0.0741,-0.11 0.0233,-0.12281 -0.86069,-0.48553 -0.074,-0.10998 -0.21472,-0.0421 -0.0742,-0.11001 -0.53008,-0.5486 -0.1228,-0.0233 -0.30673,-0.0591 0.0989,0.14654 -0.14057,0.0682 -0.22591,0.17892 -0.1228,-0.0233 -0.20185,0.0563 -0.1228,-0.0232 -0.39882,-0.0774 -0.32469,0.0324 -0.48562,-0.2855 -0.28303,-0.18235 -0.0741,-0.10988 0.0196,-0.0918 -0.15501,-0.3486 0.0421,-0.21461 -0.20202,0.0562 -0.12283,-0.0232 -0.18406,-0.035 -0.1228,-0.0233 -0.11593,0.10483 -0.0919,-0.0196 -0.1228,-0.0233 -0.0919,-0.0196 -0.41676,0.0143 -0.14059,0.0683 -0.39871,-0.0775 -0.33063,0.0631 -0.41674,0.0143 c -9e-4,0.0628 -0.0103,0.12869 -0.004,0.19002 -10e-4,0.27489 0.0473,0.59628 -0.0993,0.84029 -0.18195,0.18507 -0.55008,0.14764 -0.65351,0.41412 -0.0599,0.20484 0.0924,0.5654 -0.13119,0.67482 -0.25782,-0.0315 -0.32587,-0.23487 -0.58369,-0.27266 -0.19969,-0.13885 -0.30103,-0.18768 -0.79759,-0.15502 l -0.0393,0.69286 c 0.0871,0.38376 0.15823,0.4421 0.32294,0.79494 0.18422,0.19217 0.49999,0.34686 0.70639,0.29654 0.26803,-0.0483 0.68491,0.23936 0.93815,0.087 0.29283,-0.0778 0.43826,-0.18029 0.62281,-0.42009 l 8.18694,-0.19141 0.0326,2.61669 2.42077,-0.007 0.0113,2.07149 2.39011,-0.013 0.0904,0.84527 2.18136,-0.0854 0.0415,1.91808 12.3622,0.11085 -0.0588,-1.82608 2.74536,-0.0389 c 0.37184,-0.0383 0.65136,-0.2548 0.70213,-0.50023 0.0505,-0.24566 -0.14106,-0.53736 -0.65951,-0.70132 l 0.0344,-0.50271 1.36506,-0.30761 5.6e-4,0.31859 2.0042,0.008 2.39007,-0.0129 c 0.21823,-0.0499 0.45446,-0.27318 0.64334,-0.0341 0.14708,0.19086 0.1094,0.46542 0.0281,0.67405 -0.14427,0.18041 -0.33963,0.30439 -0.45077,0.51721 -0.18056,0.23241 -0.29454,0.52158 -0.54782,0.68942 -0.19006,0.21 -0.23465,0.50452 -0.27772,0.77374 0.0386,0.3184 0.29074,0.53612 0.4883,0.76338 0.28453,0.0663 0.62617,-0.18643 0.54265,-0.49933 -0.074,-0.17728 -0.033,-0.30638 0.0773,-0.39884 0.11048,-0.0923 0.28177,-0.16346 0.44057,-0.13714 0.1219,-0.005 0.27205,0.0512 0.40484,0.0466 0.13238,-0.004 0.23736,-0.0399 0.23761,-0.24028 -0.0141,-0.18679 0.033,-0.57298 0.3102,-0.44908 0.22123,0.10399 0.13904,0.41782 0.41925,0.46354 0.21542,0.11751 0.42301,0.27017 0.68174,0.25986 0.27184,0.0271 0.52597,-0.11485 0.78989,-0.13294 l -0.0649,-1.79539 -1.79191,-0.44385 -0.0333,-0.48404 -0.0917,-0.0196 -0.28293,-0.18232 z m -19.02843,-3.15754 -0.13371,0.19682 -0.21459,-0.0422 -0.0682,-0.14058 -0.0916,-0.0196 -0.21463,-0.0421 -0.13372,0.19688 -0.27442,0.26503 -0.0196,0.0918 0.2829,0.18235 0.48575,0.2855 0.20186,-0.0563 0.14059,-0.0682 0.13379,-0.19679 -0.0504,-0.23259 0.0777,-0.39882 -0.12281,-0.0233 z"
       id="OH-09"
       style="font-style:normal;font-weight:400;font-size:34.375px;font-family:'MS Shell Dlg 2';opacity:1;fill:none;fill-opacity:1;fill-rule:evenodd;stroke:#000000;stroke-width:0.33333385;stroke-linecap:square;stroke-linejoin:bevel;stroke-miterlimit:4;stroke-dasharray:none;stroke-opacity:1" />
    <path
       inkscape:connector-curvature="0"
       d="m 350.00519,606.4966 8.33259,0.69648 -0.0314,-0.16535 1.91887,0.1182 0.0725,0.93735 2.58102,0.15148 1.2942,-0.92628 1.29793,0.85709 0.23574,-5.14322 -8.6386,-0.59706 0.11369,-1.56951 -1.99305,-0.22829 -0.0256,-0.196 -1.95044,-0.28424 0.07,-0.68666 -2.4217,-0.15251 -0.0143,-0.41662 -2.44054,-0.21963 0.0388,-0.85213 -2.25636,-0.18395 -0.15852,-0.98578 -6.98719,-0.0847 0.0202,9.39515 2.48217,0.005 0,0 1.69145,-0.0215 6.76909,0.55174 z"
       id="OH-10"
       style="font-style:normal;font-weight:400;font-size:34.375px;font-family:'MS Shell Dlg 2';opacity:1;fill:none;fill-opacity:1;fill-rule:evenodd;stroke:#000000;stroke-width:0.33333385;stroke-linecap:square;stroke-linejoin:bevel;stroke-miterlimit:4;stroke-dasharray:none;stroke-opacity:1" />
    <path
       inkscape:connector-curvature="0"
       d="m 397.09298,552.26621 0.0332,0.48404 1.79191,0.44386 0.065,1.79537 c 0,0 0,0 0,0 l 0.0119,1.08461 -0.48992,0.064 0.0296,1.9794 0.41065,0.0162 -0.003,3.94691 0.95018,0.0256 0.0104,0.76606 0.70466,-0.0223 0.56078,0.55469 -0.005,1.33609 c 0.10513,-0.13146 0.21069,-0.25894 0.37821,-0.30849 0.29509,-0.1125 0.60877,-0.11568 0.88277,0.0442 0.28594,0.0823 0.58446,0.19597 0.77465,0.43702 0.13978,0.099 0.29728,0.0947 0.41065,0.0162 0.11349,-0.0787 0.18109,-0.22345 0.10828,-0.39288 -0.0998,-0.34985 -0.52274,-0.48626 -0.63577,-0.82394 -0.001,-0.10128 0.0258,-0.24248 0.035,-0.34341 0.0109,-0.10074 -0.01,-0.15573 -0.19093,-0.16447 -0.41721,-0.0988 -0.86017,-0.11678 -1.28748,-0.091 -0.31072,-0.30659 -0.49442,-0.71782 -0.78404,-1.04375 -0.17168,-0.32851 0.39377,-0.39596 0.29653,-0.70642 -0.0195,-0.22555 -0.0931,-0.4378 -0.12616,-0.66121 l -0.0257,-2.48811 -1.53207,0.0208 -0.15443,-3.62742 0.47624,-0.32121 2.26659,0.94994 0.611,0.78724 1.1956,0.0734 -0.76447,-0.81707 -0.14149,-1.23735 0.63049,-0.13211 0.0931,-0.80946 0.43456,-0.1067 0.0559,-1.10338 -1.29354,-0.0608 -0.0317,-3.60344 -0.23185,0.20961 -0.20781,0.0869 -0.12278,-0.0234 -0.21992,0.14816 -0.14657,0.0989 -0.0196,0.0917 -0.10989,0.0742 -0.1337,0.19681 -0.27439,0.26502 -0.0196,0.0917 -0.11591,0.1048 -0.15844,0.16012 -0.24363,0.27109 -0.25653,0.17294 -0.51797,0.53602 -0.14059,0.0682 -0.0918,-0.0196 -0.0233,0.12281 -0.32466,0.0324 -0.25644,0.17305 -0.75064,0.58624 -0.11,0.0741 -0.13382,0.19688 -0.3663,0.24715 -0.12277,-0.0233 -0.0196,0.0917 -0.208,0.087 -0.1228,-0.0233 -0.30674,-0.0591 z"
       id="OH-11"
       style="font-style:normal;font-weight:400;font-size:34.375px;font-family:'MS Shell Dlg 2';opacity:1;fill:none;fill-opacity:1;fill-rule:evenodd;stroke:#000000;stroke-width:0.33333385;stroke-linecap:square;stroke-linejoin:bevel;stroke-miterlimit:4;stroke-dasharray:none;stroke-opacity:1" />
    <path
       inkscape:connector-curvature="0"
       d="m 388.65351,589.62352 -0.004,-1.94282 -6.18539,-0.27906 0.0777,-0.39884 -5.94091,-0.39077 0.0691,-1.99215 1.92486,0.0875 0.17081,-5.79251 6.51337,-0.26198 -0.0311,-2.2981 -2.32882,0.0248 -0.13555,-2.41392 -0.82141,-0.0326 0.61084,-1.5048 -0.83928,0.0597 0.35441,-1.33185 -0.77461,-0.43713 -0.99689,1.5254 -0.0705,1.6735 -2.42676,0.0374 0.0273,0.51469 -0.91947,-0.019 0,0 -2.79488,-0.0339 -0.1183,1.91895 -1.75272,0.009 -0.77452,0.70906 -0.89472,0.0166 -0.97817,0.44655 -0.17068,2.35433 -3.59761,9.9e-4 -0.0379,7.72845 1.67945,0.0399 0.1741,3.85401 -0.91948,-0.019 -0.0614,1.13413 0.3639,0.42089 0.64331,-0.034 1.20489,-0.46616 -0.0282,-0.67406 0.50871,0.004 0.40732,0.52486 0.36718,-0.0877 0.40152,1.70157 c 0.0132,-0.0441 0.042,-0.0785 0.0546,-0.11672 0.0534,-0.16294 0.13569,-0.24309 0.35538,-0.0264 0.10401,0.076 0.0813,0.29035 0.10063,0.46514 0.0194,0.1749 0.0837,0.3057 0.28292,0.18233 l -0.21072,-3.82925 0.60067,0.0214 c -0.035,0.15282 -0.033,0.31817 0.009,0.44727 0.0414,0.12913 0.13302,0.21606 0.35021,0.16363 0.44962,0.0762 0.93906,0.12985 1.27737,0.4712 0.59057,0.41183 1.32587,0.535 1.91719,0.94557 0.12462,0.31954 -0.0383,0.36876 -0.26147,0.36308 -0.22292,-0.006 -0.49678,-0.0465 -0.64931,0.0648 -0.10497,0.2039 -0.29663,0.1189 -0.45935,0.0698 -0.16269,-0.0489 -0.30543,-0.0535 -0.30507,0.25915 -0.12553,0.094 -0.022,0.40113 0.13811,0.59979 0.0798,0.0993 0.17681,0.1726 0.25226,0.17638 0.0756,0.002 0.15569,-0.0793 0.17638,-0.25221 l 1.57471,-0.0759 0.027,-0.63145 0.43964,-0.29655 -0.20335,3.17573 13.36431,0.68768 -0.13346,2.48905 2.11493,0.0927 -0.0297,1.29952 8.22021,0.29206 0.0713,-4.95238 -6.54665,-0.22161 0.21618,-1.93183 -4.67126,-0.20757 0.033,-4.10033 z"
       id="OH-12"
       style="font-style:normal;font-weight:400;font-size:34.375px;font-family:'MS Shell Dlg 2';opacity:1;fill:none;fill-opacity:1;fill-rule:evenodd;stroke:#000000;stroke-width:0.33333385;stroke-linecap:square;stroke-linejoin:bevel;stroke-miterlimit:4;stroke-dasharray:none;stroke-opacity:1" />
    <path
       inkscape:connector-curvature="0"
       d="m 423.61044,555.38323 -2.09535,0.13399 0.10416,2.24869 -1.98547,0.0598 -0.0725,-2.08338 -6.01158,0.13673 -0.0255,2.09616 -4.02616,0.0773 0.0538,2.01603 -2.39606,0.0438 -0.0658,-1.95477 -1.92483,-0.0875 0.12626,4.09941 -1.12131,0.0367 -0.75845,-0.84779 -0.69611,0.46959 -0.80615,-0.60247 0.66542,-1.62154 -0.68178,-1.40591 -0.89467,0.0166 0.0257,2.48813 c 0.033,0.22341 0.10672,0.43567 0.12615,0.66122 0.0972,0.31047 -0.46819,0.37791 -0.29653,0.7064 0.28962,0.32594 0.47333,0.73718 0.78404,1.04379 0.42735,-0.0263 0.87026,-0.008 1.28749,0.091 0.18129,0.008 0.19944,0.0635 0.19093,0.16447 -0.0108,0.10081 -0.0359,0.24225 -0.035,0.3434 0.11303,0.33768 0.53598,0.4741 0.63577,0.82396 0.0729,0.16942 0.005,0.31428 -0.10828,0.39286 -0.11339,0.0785 -0.27087,0.0827 -0.41063,-0.0162 -0.19021,-0.24101 -0.48874,-0.35467 -0.77465,-0.43703 -0.274,-0.15993 -0.58771,-0.15669 -0.88277,-0.0442 -0.16755,0.0495 -0.2731,0.17707 -0.37822,0.30852 l 0,0 c -0.12003,0.14985 -0.2339,0.30762 -0.42095,0.36386 -0.28158,0.0514 -0.7494,0.12062 -0.7328,0.49424 0.0981,0.31124 0.46955,0.44231 0.76273,0.4984 0.61146,0.15929 1.23625,0.01 1.85153,0.1375 0.25555,-0.0145 0.69841,0.12385 0.82656,-0.15765 0.0637,-0.38871 0.39853,-0.63942 0.77453,-0.70904 0.33743,-0.17729 0.69937,-0.25903 1.05824,-0.36725 -0.0363,-0.24409 -0.36187,-0.45755 -0.39634,-0.74561 -0.11255,-0.23907 0.006,-0.27848 0.15767,-0.31949 0.15237,-0.0412 0.34234,-0.0766 0.3664,-0.24724 -0.0229,-0.13178 -0.05,-0.32165 -0.0333,-0.48396 0.0174,-0.16222 0.0967,-0.29578 0.31098,-0.28968 0.1293,0.0566 0.26197,0.0648 0.34935,0.004 0.0875,-0.0605 0.1209,-0.1936 0.035,-0.34333 -0.0531,-0.11018 -0.065,-0.28534 -0.0143,-0.41674 0.0505,-0.13128 0.14957,-0.21492 0.3119,-0.13029 l 5.1603,-0.0157 0.11521,2.02795 -2.20005,0.018 0.0171,2.04076 0.31871,-5.6e-4 -0.0118,2.3535 2.15751,0.0372 -0.0564,-2.49408 1.78941,-0.0342 -0.0973,-2.12002 6.2995,-0.14446 0.0303,2.1388 4.00148,-0.11355 0.035,-0.18418 -0.003,-0.63735 -0.0506,-0.23263 0.035,-0.18429 0.009,-0.53934 -0.0631,-0.33062 0.0421,-0.21465 -0.0744,-0.11002 0.0421,-0.21471 -0.0326,-0.32462 0.0351,-0.18425 -0.0989,-0.14655 0.059,-0.30677 -0.0326,-0.32481 0.0348,-0.18406 -0.0326,-0.32481 -0.0392,-0.45321 -0.0325,-0.32475 -0.0153,-0.41669 0.0421,-0.21475 0.035,-0.18406 -0.081,-0.23863 0.0421,-0.21472 -0.0744,-0.10992 0.0421,-0.21461 0.0196,-0.0919 -0.0326,-0.32467 0.0196,-0.0917 -0.0392,-0.45342 0.0196,-0.0918 -0.0744,-0.10993 -0.0357,-0.96211 0.0421,-0.21463 0.009,-0.53947 -0.0744,-0.10993 0.0196,-0.0919 0.0594,-0.30694 -0.037,-0.13453 z"
       id="OH-13"
       style="font-style:normal;font-weight:400;font-size:34.375px;font-family:'MS Shell Dlg 2';opacity:1;fill:none;fill-opacity:1;fill-rule:evenodd;stroke:#000000;stroke-width:0.33333385;stroke-linecap:square;stroke-linejoin:bevel;stroke-miterlimit:4;stroke-dasharray:none;stroke-opacity:1" />
    <path
       inkscape:connector-curvature="0"
       d="m 423.03154,537.88896 -0.69102,0.27948 -0.0918,-0.0196 -0.25651,0.17302 -0.10997,0.074 -0.14057,0.068 -0.69703,0.31034 -0.0917,-0.0196 -0.0196,0.0918 -0.21464,-0.0421 -0.10996,0.074 -0.25652,0.17304 -0.89884,0.36642 -0.23267,0.0503 -0.23269,0.0504 -0.11582,0.10484 -0.783,0.26159 -0.4713,0.13128 -0.0918,-0.0196 0.0233,-0.12283 -0.0917,-0.0196 -0.14658,0.0989 -0.0917,-0.0196 -0.0196,0.0918 -0.0917,-0.0196 -0.16445,0.19085 -0.10989,0.0742 -0.0196,0.0919 -0.0917,-0.0196 -0.14659,0.0989 -0.45842,0.22914 -0.10989,0.0741 -0.23265,0.0503 -0.71489,0.40219 -0.32465,0.0324 -0.11583,0.10482 -0.23268,0.0504 -0.65523,0.0954 -0.0916,-0.0196 -0.1406,0.0682 -0.41663,0.0143 -0.11593,0.10482 -0.21463,-0.0422 -0.0196,0.0918 -0.25644,0.17295 -0.20203,0.0562 -0.25643,0.17306 -0.0917,-0.0196 -0.25053,0.14222 -0.11591,0.10478 -0.1406,0.0683 -0.20187,0.0563 -0.14654,0.0988 -0.0196,0.0917 -0.0919,-0.0196 -0.0919,-0.0196 -0.0196,0.0918 -0.2385,0.081 -0.0918,-0.0196 -0.52496,0.4073 -0.45836,0.22936 -0.36637,0.24704 -0.11583,0.10481 -0.23268,0.0503 -0.59895,0.2974 -0.0233,0.12278 -0.34265,0.1245 -0.34839,0.15508 -0.30693,-0.059 -0.18408,-0.035 -0.0196,0.0916 -0.14655,0.0989 -0.11,0.0741 -0.27439,0.26501 -0.45836,0.22925 -0.25653,0.17306 -0.10988,0.074 -0.25643,0.17295 -0.49423,0.4133 -0.39025,0.36991 -0.0196,0.0918 -0.3664,0.24714 -0.1337,0.19691 -0.14057,0.0681 -0.13382,0.1968 -0.15168,0.28897 -0.12279,-0.0233 -0.0196,0.0918 -0.10987,0.074 -0.42603,0.55387 -0.0426,0.0555 0.0317,3.60344 1.29351,0.0608 -0.0548,1.10343 -0.43455,0.1067 -0.0931,0.80943 -0.63051,0.13211 0.14153,1.23735 0.76441,0.81708 -1.19556,-0.0734 -0.61101,-0.78727 -2.26658,-0.94991 -0.47625,0.3212 0.15443,3.62742 1.53206,-0.0207 0,0 0.89472,-0.0166 0.68174,1.40591 -0.66539,1.62154 0.80614,0.60248 0.69608,-0.46959 0.75847,0.84778 1.12132,-0.0368 -0.12636,-4.09942 1.92484,0.0875 0.0659,1.95479 2.39602,-0.0438 -0.0538,-2.01602 4.02619,-0.0773 0.0255,-2.09616 6.01156,-0.13674 0.0725,2.08343 1.98551,-0.0598 -0.10416,-2.24868 2.09536,-0.13399 -0.044,-0.10404 0.0196,-0.0919 -0.0326,-0.32477 0.0233,-0.12281 -0.0327,-0.3246 0.0147,-0.72944 -0.0505,-0.23272 0.0349,-0.18408 0.0233,-0.1228 -0.0565,-0.20209 -0.0213,-0.54528 -0.0468,-0.74135 0.0233,-0.12279 0.0351,-0.18409 -0.0537,-0.87003 0.0196,-0.0918 -0.0505,-0.23264 -0.0631,-0.3306 0.009,-0.53935 0.0351,-0.1843 -0.0716,-0.77794 0.0123,-1.04806 -0.0213,-0.54528 -0.0565,-0.20209 -0.0537,-0.86996 0.0774,-0.39883 -0.0648,-0.64931 -0.0392,-0.4532 0.0196,-0.0918 0.0422,-0.21472 -0.0468,-0.74125 -0.13144,-1.61729 0.0592,-0.30684 0.0196,-0.0917 -0.0685,-0.14064 -0.0153,-0.41678 0.0421,-0.21463 -0.0451,-0.42269 0.027,-0.63144 -0.0508,-0.23263 0.035,-0.18426 -0.0809,-0.23855 0.0458,-0.72333 z"
       id="OH-14"
       style="font-style:normal;font-weight:400;font-size:34.375px;font-family:'MS Shell Dlg 2';opacity:1;fill:none;fill-opacity:1;fill-rule:evenodd;stroke:#000000;stroke-width:0.33333385;stroke-linecap:square;stroke-linejoin:bevel;stroke-miterlimit:4;stroke-dasharray:none;stroke-opacity:1" />
    <path
       inkscape:connector-curvature="0"
       d="m 399.55082,601.03755 -8.22018,-0.29307 0.0297,-1.29946 -2.11495,-0.0926 0.13346,-2.48904 -13.36431,-0.68769 0,0 -0.69265,-0.0393 -0.0326,0.82143 0.41066,0.0162 -0.0842,1.41616 c -0.47462,-0.0927 -1.05665,-0.0854 -1.51926,0.11853 -0.42361,-0.0601 -0.80708,-0.20774 -1.17676,-0.006 -0.0809,0.18486 -0.10326,0.42041 -0.15601,0.63824 -0.0526,0.21789 -0.1439,0.4171 -0.40806,0.46192 -0.42623,0.0782 -0.85127,0.23756 -1.28584,0.22753 -0.21687,0.0664 -0.34328,0.003 -0.36214,-0.10222 -0.0189,-0.10525 0.0538,-0.24565 0.22488,-0.33833 0.30307,-0.25474 -0.23841,-0.75769 -0.0673,-1.12726 0.02,-0.13667 0.0845,-0.38678 0.16873,-0.5402 0.0847,-0.15338 0.19595,-0.20091 0.38004,0.0106 0.0697,0.4468 0.0291,0.92342 0.28302,1.32837 0.14273,0.18862 0.22688,0.0685 0.33647,-0.0938 0.1097,-0.16236 0.2261,-0.39483 0.3963,-0.40041 0.12749,-0.42123 -0.13579,-0.86158 -0.44747,-1.13763 -0.16434,-0.19993 -0.34186,-0.4292 -0.44485,-0.65937 -0.10293,-0.23027 -0.15076,-0.4738 -0.0158,-0.73542 -0.0498,-0.28431 -0.23813,-0.34366 -0.39379,-0.26756 -0.1556,0.0761 -0.28674,0.30227 -0.19932,0.53429 -0.0996,0.13876 -0.0376,0.39547 -0.0214,0.60078 0.0168,0.20528 -0.0111,0.3494 -0.28027,0.29565 -0.26914,0.0477 -0.26353,-0.15983 -0.2837,-0.34173 -0.0202,-0.18179 -0.0454,-0.34437 -0.31363,-0.18829 -0.21115,0.12511 -0.32613,0.399 -0.4687,0.60937 -0.14244,0.21028 -0.3263,0.3622 -0.66027,0.28545 -0.17849,0.0136 -0.44539,0.0691 -0.64335,0.034 -0.19779,-0.0359 -0.32821,-0.13892 -0.16789,-0.44643 -0.16716,-0.24276 -0.51747,-0.44187 -0.3477,-0.83163 -0.18384,-0.46665 0.0374,-0.95786 -0.008,-1.43404 -0.1306,-0.30654 -0.0735,-0.43379 0.0957,-0.49075 0.16904,-0.0572 0.46179,-0.0219 0.76608,-0.0104 0.218,0.009 0.38022,-0.16642 0.52575,-0.24793 0.14556,-0.0816 0.27196,-0.0806 0.39966,0.23679 -0.0164,0.27118 0.1054,0.41738 0.27866,0.53173 0.17328,0.11425 0.38633,0.2116 0.53508,0.3587 0.0617,0.21034 0.34016,0.26885 0.55905,0.236 0.21888,-0.0328 0.37353,-0.17961 0.26756,-0.39377 -0.0559,-0.23783 -0.31476,-0.27583 -0.54105,-0.32796 -0.22646,-0.0521 -0.41578,-0.10478 -0.24129,-0.39705 0.10255,-0.0741 0.13137,-0.2377 0.1696,-0.38092 l -0.4015,-1.70158 -0.3672,0.0878 -0.40733,-0.5249 -0.50872,-0.003 0.0282,0.67407 -1.20487,0.46616 -0.64333,0.0341 -0.36389,-0.42085 0.0614,-1.13416 -6.40512,-0.1308 -0.28487,2.77794 0.31271,0.028 -1.93636,6.85018 -1.24489,-0.14687 -0.1137,1.56951 8.63862,0.59704 -0.23574,5.14324 -1.29793,-0.85711 -1.29421,0.92628 -2.58103,-0.15138 -0.0725,-0.93732 -1.91889,-0.11821 0.0314,0.16531 -8.33257,-0.69657 -0.70583,8.87213 3.76458,0.286 -0.052,0.59479 0.64422,0.1253 0.60571,-1.31479 4.09594,-3.05589 4.83567,0.0167 -0.34679,1.6199 1.85752,0.10643 0.27192,0.40299 1.13493,0.22076 0.0815,-0.9074 c 0.11308,0.19129 0.41882,-0.20973 0.61777,-0.23014 0.32428,-0.12127 0.63154,0.10924 0.61523,0.43803 0.26971,0.21237 0.6166,0.18036 0.93897,0.24612 0.31397,-0.0472 0.59136,-0.27452 0.87426,-0.40299 0.25107,-0.27964 0.55076,-0.49287 0.84181,-0.72774 0.28558,-0.25794 0.61181,-0.46348 0.9961,-0.53863 0.28959,-0.0911 0.62918,-0.21347 0.8947,-0.0166 0.20849,0.27696 0.27904,0.70479 0.67235,0.79927 0.3267,0.15928 0.62516,0.47971 0.56238,0.87334 -0.036,0.33194 -0.39986,0.50071 -0.44895,0.83592 l -0.0112,0.0615 0.83851,0.92703 2.94319,0.25348 -0.0459,0.72344 2.4771,0.1951 5.6e-4,0.31867 2.51367,0.17084 -0.0858,1.09748 2.55038,0.14569 -0.1805,2.89372 2.44629,0.18888 0.30393,-5.00259 7.59558,0.39406 0.10888,-2.52563 2.94831,0.0639 0.002,-0.82739 -0.79931,-0.47373 0.10891,-3.6717 0.50873,0.003 -0.0127,-1.24402 0.70472,-0.0223 0.6698,0.3213 1.15205,-0.0307 0.0111,-1.36682 -0.31877,5.7e-4 0.0655,-1.48347 0.5752,-0.17475 2.21876,0.0492 -0.0486,-2.20613 -1.17681,-0.006 -0.007,-2.42082 -1.26282,-0.0544 z"
       id="OH-15"
       style="font-style:normal;font-weight:400;font-size:34.375px;font-family:'MS Shell Dlg 2';opacity:1;fill:none;fill-opacity:1;fill-rule:evenodd;stroke:#000000;stroke-width:0.33333385;stroke-linecap:square;stroke-linejoin:bevel;stroke-miterlimit:4;stroke-dasharray:none;stroke-opacity:1" />
    <path
       inkscape:connector-curvature="0"
       d="m 401.16249,564.74068 0.005,-1.33609 -0.56077,-0.55469 -0.70467,0.0223 -0.0104,-0.76604 -0.95021,-0.0256 0.003,-3.94692 -0.41065,-0.0162 -0.0296,-1.97941 0.48992,-0.064 -0.0119,-1.08459 c -0.2638,0.0182 -0.51792,0.15891 -0.78987,0.13293 -0.25863,0.0105 -0.46632,-0.14221 -0.68176,-0.25986 -0.28028,-0.0453 -0.198,-0.35959 -0.41925,-0.46353 -0.27683,-0.12389 -0.3242,0.26227 -0.31017,0.44906 4.9e-4,0.20035 -0.10524,0.23681 -0.23762,0.2403 -0.13248,0.004 -0.28299,-0.0509 -0.40484,-0.0465 -0.15861,-0.0276 -0.33002,0.0449 -0.44056,0.13716 -0.11039,0.0923 -0.15154,0.22156 -0.0777,0.39885 0.0834,0.31286 -0.25815,0.56542 -0.54265,0.49933 -0.19747,-0.22738 -0.44976,-0.445 -0.48832,-0.7634 0.0436,-0.26912 0.0872,-0.5638 0.27776,-0.77373 0.25337,-0.16783 0.36725,-0.45702 0.5478,-0.68943 0.11111,-0.2129 0.3065,-0.3368 0.45075,-0.51721 0.0813,-0.20861 0.11897,-0.48318 -0.0282,-0.67405 -0.18886,-0.23913 -0.42511,-0.0154 -0.64336,0.0341 l -2.39003,0.0129 0.0436,3.5422 2.04076,-0.0171 -0.0135,2.03479 0.73619,0.14322 0.0725,0.93722 1.10528,0.37397 0.04,0.6127 -1.90535,0.13901 0.007,1.27472 -0.76604,0.0104 0.17224,1.24334 1.3727,-0.02 0.0338,-0.66211 1.15204,-0.0307 -0.0625,1.96161 -3.9034,0.10074 -0.0374,2.15752 -3.27284,-0.0313 0.24501,9.05694 10.22768,-0.20853 -0.14083,-4.51614 3.73303,0.12038 0.9733,2.0355 0.12937,-3.28569 1.23804,0.0176 0.18262,-3.56182 3.25412,-0.0359 -0.0171,-2.04077 2.20006,-0.018 -0.11521,-2.02793 -5.16029,0.0156 c -0.16233,-0.0847 -0.26144,-0.002 -0.31189,0.13028 -0.0503,0.13141 -0.0385,0.30663 0.0143,0.41677 0.086,0.14977 0.0526,0.28283 -0.035,0.34335 -0.0874,0.0606 -0.22006,0.0523 -0.34935,-0.004 -0.21434,-0.007 -0.2942,0.12741 -0.31096,0.2897 -0.0174,0.16222 0.0101,0.35215 0.0333,0.48393 -0.024,0.17067 -0.21402,0.20615 -0.36638,0.24722 -0.15233,0.041 -0.27021,0.0804 -0.15768,0.3195 0.0345,0.28806 0.36003,0.5015 0.39631,0.74562 -0.35885,0.1082 -0.72078,0.18995 -1.0582,0.36722 -0.37598,0.0697 -0.71089,0.32034 -0.77452,0.70905 -0.12813,0.28141 -0.571,0.14359 -0.82659,0.15766 -0.61521,-0.12777 -1.24011,0.0223 -1.85152,-0.1375 -0.29325,-0.0555 -0.66468,-0.18723 -0.76273,-0.49839 -0.0166,-0.37362 0.45121,-0.44285 0.7328,-0.49426 0.18707,-0.0563 0.30095,-0.214 0.42094,-0.36384 z"
       id="OH-16"
       style="font-style:normal;font-weight:400;font-size:34.375px;font-family:'MS Shell Dlg 2';opacity:1;fill:none;fill-opacity:1;fill-rule:evenodd;stroke:#000000;stroke-width:0.33333385;stroke-linecap:square;stroke-linejoin:bevel;stroke-miterlimit:4;stroke-dasharray:none;stroke-opacity:1" />
  </g>
</svg>
