<?xml version="1.0" encoding="UTF-8" standalone="no"?>
<!-- Created with Inkscape (http://www.inkscape.org/) -->

<svg
   xmlns:dc="http://purl.org/dc/elements/1.1/"
   xmlns:cc="http://creativecommons.org/ns#"
   xmlns:rdf="http://www.w3.org/1999/02/22-rdf-syntax-ns#"
   xmlns:svg="http://www.w3.org/2000/svg"
   xmlns="http://www.w3.org/2000/svg"
   xmlns:sodipodi="http://sodipodi.sourceforge.net/DTD/sodipodi-0.dtd"
   xmlns:inkscape="http://www.inkscape.org/namespaces/inkscape"
   width="13.08017mm"
   height="20.443428mm"
   viewBox="0 0 46.347057 72.437343"
   id="svg3885"
   version="1.1"
   inkscape:version="0.91 r"
   sodipodi:docname="0.svg">
  <defs
     id="defs3887" />
  <sodipodi:namedview
     id="base"
     pagecolor="#ffffff"
     bordercolor="#666666"
     borderopacity="1.0"
     inkscape:pageopacity="0.0"
     inkscape:pageshadow="2"
     inkscape:zoom="4.8150732"
     inkscape:cx="-8.4499271"
     inkscape:cy="64.215909"
     inkscape:document-units="px"
     inkscape:current-layer="layer1"
     showgrid="false"
     inkscape:window-width="2560"
     inkscape:window-height="1388"
     inkscape:window-x="0"
     inkscape:window-y="0"
     inkscape:window-maximized="1"
     fit-margin-top="1"
     fit-margin-left="1"
     fit-margin-right="1"
     fit-margin-bottom="1" />
  <metadata
     id="metadata3890">
    <rdf:RDF>
      <cc:Work
         rdf:about="">
        <dc:format>image/svg+xml</dc:format>
        <dc:type
           rdf:resource="http://purl.org/dc/dcmitype/StillImage" />
        <dc:title></dc:title>
      </cc:Work>
    </rdf:RDF>
  </metadata>
  <g
     inkscape:label="Layer 1"
     inkscape:groupmode="layer"
     id="layer1"
     transform="translate(-195.95255,-344.81252)">
    <path
       inkscape:connector-curvature="0"
       d="m 201.04701,349.14779 1.88157,-0.0382 0.1677,-0.0213 0.97432,-0.027 0.43675,-0.0109 1.68726,-0.0501 0.0194,0.0185 0.39581,10e-4 0.10744,-0.028 0.14933,-0.002 0.0802,0.021 0.66078,-0.0148 0.012,8.9e-4 0.35494,0.012 0.0751,-0.003 0.50433,0.0104 0.63471,-0.0108 9e-4,-0.0118 0.1039,-0.0168 0.48887,-0.0191 1.21313,-0.0384 0.25784,0.006 0.32115,0.003 0.79176,0.003 1.48632,-10e-4 0.14936,-0.002 0.41062,-0.007 0.34373,0.009 0.77348,0.021 0.59017,0.0121 0.0564,0.0176 0.0891,0.03 0.0835,0.008 0.4457,0.0787 0.0276,-0.0102 0,0 0.44448,0.004 1.02643,-0.0354 0.64238,0.004 0.30647,0.009 0.30642,0.009 0.34011,0.0207 0.82915,3.8e-4 0.22043,0.008 0.37753,0.0206 0.012,9e-4 0.39227,0.0125 0.35444,-0.0244 0.41831,0.007 0.48899,-0.0191 1.72038,-0.0767 0.36975,0.003 0.64597,-0.007 0.13462,0.003 0.29106,-0.0199 0.012,8.9e-4 0,0 0.012,9e-4 0.70523,-0.0376 0.36857,-0.0696 0.0825,0.0507 0.12332,4.6e-4 0.58188,-0.0393 0.1493,-0.002 0.0635,-0.005 0.72765,-0.0306 0.64252,0.004 0.3508,-0.0131 2.5969,-0.14699 1.39622,-0.0302 0.012,8.9e-4 0.11193,-10e-4 1.63451,-0.0789 0.98192,-0.0123 1.16811,-0.0526 0.75026,-0.0234 -0.0255,0.0413 -0.13746,0.0432 -0.0511,0.0459 -0.012,-9e-4 -0.0292,0.0526 -0.0353,0.11272 -8.9e-4,0.0118 -8.9e-4,0.0118 -0.0553,0.0195 -0.097,0.0314 -0.19919,-0.0752 -0.072,-0.0845 -0.024,-7.8e-4 -0.0527,-0.029 -0.0635,0.005 -0.12533,0.12154 -0.11445,0.0504 -0.09,0.008 -0.10755,0.065 -0.13602,0.1552 -9e-4,0.0118 -0.0279,0.16468 0.0279,0.10788 0.1269,0.22567 0.0908,0.0658 0.0967,0.20379 0.12035,0.0502 0.0366,0.16006 -0.029,0.32538 0.0279,0.10788 0,0 -8.9e-4,0.0118 0,0 0,0 -0.006,0.06 -0.0221,0.0301 0.0504,0.35033 0.11385,0.11013 0.099,0.11784 0.0844,0.12558 0.12451,0.0764 0,0 0.0102,0.0154 0,0 0.0102,0.0154 -0.016,0.0446 -0.0139,0.0334 -0.007,0.0716 -9e-4,0.0118 -8.9e-4,0.0118 -0.0156,0.0102 -8.9e-4,0.0118 -0.024,-7.8e-4 -0.0331,-0.014 0,0 -0.0156,0.0102 -0.012,-9e-4 -0.0291,0.0526 -9e-4,0.0118 -0.0406,0.049 -0.0768,0.0872 -0.0996,0.0799 -7.8e-4,0.0237 0.0102,0.0272 0.0491,0.0402 0,0 -9e-4,0.0118 -9e-4,0.0118 -7.8e-4,0.0236 -0.19361,0.26084 -9e-4,0.0118 0,0 -0.0775,0.0498 -0.0337,0.0264 -0.0139,0.0334 -0.008,0.0972 -0.10677,0.10252 0,0 -8.9e-4,0.0118 -0.10839,0.0277 -0.10758,0.0653 -0.0689,0.10212 -0.0223,0.0301 0.005,0.0637 0.042,0.0628 -0.005,0.0484 -0.10318,0.0914 -0.0406,0.0491 -0.0176,0.0564 -0.005,0.0485 0.0379,0.0366 0.0542,0.10389 0.0121,0.0779 -9e-4,0.0118 -9e-4,0.0119 0.0102,0.0154 -0.0406,0.0491 -0.0776,0.0497 -0.0677,0.21399 -0.005,0.0485 0,0 -8.9e-4,0.0118 -0.0337,0.0265 -0.024,-7.8e-4 -0.0102,-0.0154 -0.0553,0.0195 -0.12805,0.17011 -0.0175,0.0564 0.005,0.0635 0.0464,0.0889 0.0826,0.0507 -0.005,0.0485 -0.0257,0.0414 -0.0422,0.20977 0.02,0.0929 -0.0209,0.0799 -0.11668,0.17363 -0.0156,0.0102 -0.0862,-0.005 -0.17775,0.0926 -0.0688,0.10207 0.008,0.0524 0.0158,0.0297 -8e-4,0.0236 -0.10687,0.10254 -0.0326,0.0639 -0.0256,0.0414 -8.9e-4,0.0118 -0.0156,0.0102 -0.0371,0.0378 -0.0187,0.0191 -0.074,0.0386 -0.0434,0.0978 0.005,0.0636 -0.012,-8.8e-4 -0.0256,0.0415 -0.0371,0.038 0,0 -0.11909,0.0241 -0.15231,0.0511 -8.9e-4,0.0118 -9e-4,0.0118 0,0 -9e-4,0.0118 -9e-4,0.0118 0.0102,0.0271 -9e-4,0.0118 0.012,8.9e-4 -9e-4,0.0118 0,0 0,0 0.0102,0.0272 0.0102,0.0154 0.012,9e-4 0.0757,0.0361 0.0348,0.0852 0.0144,0.19023 -0.006,0.0599 -0.003,0.13455 0.0122,0.041 0.0414,0.0255 0.012,8.9e-4 0.0741,-0.0386 0.024,7.9e-4 0.0102,0.0272 -0.0122,0.11977 -0.003,0.0372 0.10614,0.0952 0.17676,0.3034 0.10187,0.0693 0,0 0.0102,0.0153 0.0102,0.0272 0,0 -9e-4,0.0118 -0.021,0.0797 0.0102,0.0272 0.0102,0.0272 0.0298,0.0219 0.10125,0.0326 -8e-4,0.0236 -0.0477,0.0347 -0.0327,0.0639 0.0191,0.0556 0.0278,0.10779 0.0464,0.0889 -0.006,0.0599 -0.0408,0.0492 0.0102,0.0272 0.1322,0.0911 0.0446,0.016 0.0967,0.008 0.0159,0.0298 -0.016,0.0446 -0.0291,0.0527 -0.0222,0.0301 -0.005,0.0484 0.0191,0.0556 -0.006,0.06 -0.0292,0.0526 -9e-4,0.0118 -0.003,0.0372 0,0 0.0102,0.0154 0.0343,0.0479 0.012,9e-4 0.0194,0.0186 0.012,8.8e-4 0,0 0.0444,0.016 0.0967,0.008 -0.003,0.0371 -0.0139,0.0335 -0.003,0.0373 0.0157,0.0298 0,0 0.012,8.8e-4 0.0599,0.006 0.012,9e-4 0.0154,-0.0102 0.012,9e-4 0.0154,-0.0102 8e-4,-0.0237 0.012,9e-4 8e-4,-0.0236 0.014,-0.0334 8.8e-4,-0.0118 0.0156,-0.0102 0.012,9e-4 0,0 0.0194,0.0184 0.0194,0.0185 0.0535,0.0664 0.0624,0.15587 0.0102,0.0272 0.0121,0.041 0,0 -8.9e-4,0.0118 0,0 0,0 -0.016,0.0448 -0.0705,0.0272 -0.006,0.06 0.0194,0.0186 0.0102,0.0154 0.012,8.9e-4 0.0299,0.022 0.0686,0.0587 0.0298,0.022 0.0157,0.0298 0.0427,0.10017 -0.0187,0.0191 -0.016,0.0447 -0.024,-7.9e-4 -8.9e-4,0.0118 -9e-4,0.0118 -7.9e-4,0.0236 0,0 -0.0107,0.19438 0.0443,0.21207 0.0156,0.0669 -0.0175,0.0563 -0.0256,0.0417 0.005,0.0635 0.0121,0.041 0.0227,0.0444 -9e-4,0.0118 -0.006,0.0599 0.0309,0.0593 0,0 -9e-4,0.0118 0.0156,-0.0102 0.0715,0.008 0.17659,0.0681 0.0942,0.0543 -0.0352,0.1127 -0.0408,0.0492 -9e-4,0.0118 -0.0918,0.0948 -0.0403,0.0119 -0.0156,0.0102 -0.033,-0.0139 -0.0377,-0.0367 -0.0446,-0.016 -0.0139,0.0334 -0.003,0.0371 0.0122,0.041 0.0913,0.10307 -0.003,0.0371 -0.0139,0.0334 -0.0441,0.0234 0,0 -0.0156,0.0102 -0.08,-0.0209 0,0 8.9e-4,-0.0118 -8.9e-4,0.0118 -0.012,-9e-4 -0.0154,0.0102 -0.012,-9e-4 -8.9e-4,0.0118 -7.9e-4,0.0236 -9e-4,0.0118 0.0102,0.0272 0.005,0.0636 -0.0255,0.0415 0,0 -8.9e-4,0.0118 -0.03,0.0152 -0.0364,-0.004 -0.11916,0.0244 -0.13157,-0.0538 -0.29157,-0.0177 -0.0403,0.0119 -9e-4,0.0118 -0.0156,0.0102 -9e-4,0.0119 -0.0154,0.0102 -8e-4,0.0236 -0.0139,0.0334 -0.0223,0.0301 -0.0327,0.10124 -0.005,0.0485 0.0227,0.0444 0.0102,0.0154 0.0298,0.0218 0.14404,0.13212 0.2644,0.18241 0.0343,0.0478 0.0123,0.041 -0.003,0.0371 -0.021,0.0798 -0.0435,0.0978 -0.11658,0.1737 -0.0625,0.0424 -0.0301,0.0152 -0.10459,-0.0218 -0.037,0.0381 0.008,0.0523 0.0421,0.0628 0.10967,0.084 0.0157,0.0297 0.0199,0.093 0.0455,0.0514 0.10611,0.0953 0.0157,0.0298 0,0 -8e-4,0.0236 0,0 -8.9e-4,0.0118 0,0 -0.0185,0.019 0,0 -0.0156,0.0102 -0.012,-8.9e-4 0,0 -0.012,-9e-4 0,0 -0.0756,-0.036 -0.0521,0.008 0.0235,0.0818 -0.0255,0.0414 0,0 -0.0275,0.0102 -0.0276,0.0102 0,0 -0.0102,-0.0153 9e-4,-0.0118 -0.0194,-0.0185 0,0 -0.0194,-0.0185 -0.012,-9e-4 0,0 -0.048,-0.006 -0.007,0.0716 -0.007,0.0717 0.012,9e-4 -0.014,0.0334 -0.0233,0.11639 -0.0175,0.0564 -8e-4,0.0236 0,0 -0.0186,0.0191 -9e-4,0.0118 -8.8e-4,0.0118 0,0 -0.0276,0.0102 -0.11093,0.0394 -0.0669,0.016 -0.12416,-0.0382 -0.0364,-0.004 -9e-4,0.0118 -0.0186,0.019 -0.0155,0.0102 -0.0548,0.0941 -0.0564,-0.0174 0,0 -0.0122,-0.041 -0.0412,-0.0253 -0.0156,0.0102 -0.012,-9e-4 -0.0364,-0.004 -0.012,-9e-4 -0.0156,0.0102 -0.0156,0.0102 0,0 -0.12803,0.17009 -0.074,0.0385 -0.0511,0.0457 -0.0407,0.049 -0.014,0.0334 0.005,0.0635 0.0299,0.022 0.12089,0.0878 0.0123,0.041 -0.0478,0.0717 -0.0476,0.0347 -0.14576,-0.0103 -0.0186,0.019 -0.0833,0.1843 -0.0204,0.21669 -0.003,0.0371 -0.0326,0.0639 -7.9e-4,0.0236 -8e-4,0.0236 -7.9e-4,0.0236 -0.0547,0.057 -0.0776,0.0497 -0.0156,0.0102 -0.16768,0.0214 -0.0337,0.0263 -0.0186,0.019 0.0192,0.0556 -0.0122,0.11985 -0.1175,0.13625 -0.10385,0.0539 -0.17301,0.15589 -9e-4,0.0118 -0.074,0.0384 -0.0847,0.0724 -0.012,-9e-4 0,0 -0.12251,0.0355 -0.0156,0.0102 -0.012,-9e-4 -0.0599,-0.006 -0.12326,-4.6e-4 -0.024,-7.9e-4 -0.11562,0.0132 -0.082,0.0238 -8.9e-4,0.0118 -0.03,0.0152 -9e-4,0.0118 -0.0222,0.0303 -0.0222,0.0302 -0.014,0.0333 -0.0396,0.0866 -8e-4,0.0236 -0.0414,0.0117 -0.093,-0.0189 -0.0949,-0.0918 -0.0413,-0.0252 -0.10471,-0.0218 -0.012,-9e-4 -0.0555,0.0196 0,0 0,0 0,0 -0.0591,0.031 -0.0961,0.0688 -0.0547,0.0568 -0.0626,0.0424 -0.24307,-0.0132 -0.0591,0.0311 -0.0155,0.0102 0,0 -0.16173,0.15945 -0.0255,0.0414 -0.005,0.0485 0,0 0.0729,0.12195 0.012,9e-4 -9e-4,0.0118 -0.0139,0.0334 -0.0591,0.0308 -0.1083,-0.0109 -0.0819,0.0238 -0.0336,0.0266 0,0 0,0 -0.0188,0.1795 0.0102,0.0272 0.0686,0.0585 0.0102,0.0272 -0.014,0.0335 -0.0511,0.0456 -0.0222,0.0301 0.0279,0.10789 0.0517,0.15246 0.0157,0.0298 -0.0175,0.0563 -0.0336,0.0267 -0.0889,0.0461 -0.1452,0.0286 -0.14103,0.0544 -0.0847,0.0724 -0.13225,0.10688 -0.03,0.0153 -0.1369,0.0806 -0.19375,0.0255 -0.15171,0.0884 -0.0276,0.0102 -0.012,-8.9e-4 -0.0155,0.0102 -0.0683,-0.0192 -0.12442,-0.0767 -0.37643,-0.18055 -0.0445,-0.016 -0.012,-9e-4 -0.0835,-0.008 -0.21212,0.0444 -0.15461,0.13694 -0.076,0.12463 -0.12622,0.0468 -0.0751,0.003 -0.12037,-0.0502 -0.26489,0.0155 -0.0969,0.0315 -0.36627,-0.0166 -0.0705,0.0273 -0.036,0.14974 -0.0371,0.0379 -0.28147,0.14644 -0.14814,0.0772 -0.0969,0.0314 -0.0933,0.0199 -0.0445,-0.016 -0.0892,-0.03 -0.0715,-0.008 -0.0811,0.0613 -0.008,0.0831 0.0343,0.048 0.008,0.25022 -0.004,0.0861 -0.0175,0.0564 -0.0725,0.11339 -0.037,0.0378 -0.15107,0.12564 -0.13743,0.0434 -0.11389,0.12505 -0.12995,0.25617 -0.0412,0.17267 0.0384,0.0741 0.0329,0.014 0.0662,-0.0535 0.052,-0.008 0.005,0.0637 -8e-4,0.0237 -0.003,0.037 -0.0186,0.019 -0.0155,0.0102 -0.016,0.0447 0.0329,0.20853 0,0 0.1198,0.24822 0.0649,0.0698 0.0195,0.0187 -9e-4,0.0119 0.0308,0.0592 0.0102,0.0272 0.008,0.0523 -0.0409,0.13559 -0.0565,0.21752 -0.008,0.0972 0.0164,0.1042 0.0102,0.0272 0,0 0,0 -0.0139,0.0335 -0.014,0.0334 -0.0904,0.20668 0.005,0.0637 -0.01,0.10842 -0.0292,0.0527 -0.0662,0.0536 -0.016,0.0446 -0.0273,0.20189 0.0956,0.12914 0.0736,0.15938 0.0985,0.31575 0.1186,0.17362 0,0 0.10126,0.0326 0.0543,0.10377 -0.003,0.0371 -0.0256,0.0416 -0.0291,0.0528 0.0102,0.0272 0.012,0.23896 0.001,0.11178 -0.003,0.0371 0.0102,0.0154 0,0 0.0836,0.0881 0.0758,0.0362 0.0102,0.0272 -0.0754,0.19913 -0.024,-7.9e-4 -0.0298,-0.022 -0.0275,0.0102 -0.0889,0.0462 -0.12532,0.12142 -0.0422,0.20978 -0.006,0.0599 0.0436,0.17466 -0.003,0.0371 0.0158,0.0297 0,0 -8.8e-4,0.0118 0.0102,0.0153 0.0158,0.0298 0.0102,0.0153 0.0194,0.0185 0.0262,0.0333 0.012,8.9e-4 0.0329,0.014 0.024,7.9e-4 0,0 0.012,8.9e-4 9e-4,-0.0118 0.0156,-0.0102 0.012,8.9e-4 7.9e-4,-0.0236 0.003,-0.0863 0.0292,-0.0525 0.0156,-0.0102 9e-4,-0.0118 0.012,9e-4 9e-4,-0.0118 0.012,8.9e-4 0.0364,0.004 0.012,9e-4 0.0758,0.0362 0.0343,0.0478 0.008,0.0525 -0.0147,0.13125 -0.0175,0.0564 -9e-4,0.0118 -0.0156,0.0102 -8e-4,0.0236 -0.044,0.0235 -0.0669,0.016 -0.024,-8e-4 -0.10848,-0.01 -0.03,0.0152 -0.0175,0.0565 0.0229,0.0443 0.16237,0.11318 0.11679,0.0616 0.0344,0.0478 0.012,8.9e-4 -9e-4,0.0118 -9e-4,0.0118 -7.8e-4,0.0236 -0.0187,0.019 0,0 -9e-4,0.0118 -0.0155,0.0102 -0.0364,-0.004 -0.0156,0.0102 0,0 -0.0331,-0.014 -0.012,-9e-4 -0.0102,-0.0152 -0.0342,-0.0479 -0.024,-7.9e-4 0,0 -0.17123,0.0326 -0.0156,0.0102 0,0 -8.9e-4,0.0118 0,0 0.0122,0.041 0,0 0.0534,0.0664 0.005,0.0635 -0.1023,0.12869 -0.0578,0.14274 -0.0222,0.0301 -0.03,0.0153 -0.1346,-0.003 -0.0404,0.0119 -0.03,0.0897 0,0 0.0102,0.0152 0.012,9e-4 0.11324,0.0728 0.0123,0.041 -0.0934,0.0201 -0.16651,0.0961 -0.0511,0.0456 -9e-4,0.0118 -0.0156,0.0102 -7.8e-4,0.0236 -0.016,0.0447 0.008,0.0523 0.0805,0.13686 0.008,0.0522 -0.014,0.0334 -0.0776,0.05 0,0 -0.0156,0.0102 -9e-4,0.0118 -0.0186,0.0191 0,0 -9e-4,0.0118 -8e-4,0.0236 -9e-4,0.0119 0.007,0.0894 -0.016,0.0447 -0.012,-8.8e-4 -0.0336,0.0265 -0.12445,-0.0766 -0.033,-0.0139 -0.0372,0.038 -0.0256,0.0414 -0.006,0.0601 0.012,0.0779 0.099,0.11795 0.0122,0.0409 -0.003,0.037 -0.03,0.0152 -0.0364,-0.004 9e-4,-0.0118 -0.0102,-0.0154 9e-4,-0.0118 -0.0465,-0.0888 -0.0608,-0.044 -0.012,-9e-4 0,0 -0.0669,0.0161 -0.0546,0.0569 -9e-4,0.0118 -9e-4,0.0118 0.0123,0.0412 -0.003,0.0371 0.0287,0.14524 -0.003,0.0371 -0.10746,0.0652 0,0 -0.13239,0.14397 -0.0371,0.0378 0.0155,0.0669 0.0765,0.11064 0.0236,0.0817 -0.005,0.20915 -0.006,0.06 -0.007,0.0717 -0.0326,0.10121 0.0102,0.0272 0.0102,0.0272 0.0716,0.008 0.0811,-0.0612 0.0441,-0.0233 0.16896,0.0532 0.10913,0.0465 0.0194,0.0185 -8.9e-4,0.0118 -0.012,-9e-4 -0.15227,0.0511 -0.0476,0.0346 -0.005,0.0485 0.0455,0.0514 -0.003,0.0371 0,0 0,0 -0.11232,0.19987 -0.0222,0.0301 -0.10385,0.0538 -0.09,0.008 -0.0276,0.0102 -0.0301,0.0153 0,0 -9e-4,0.0118 -9e-4,0.0118 -8e-4,0.0236 -7.9e-4,0.0236 0.0102,0.0272 -8.9e-4,0.0119 0,0 0.0365,0.16008 0.0102,0.0272 0.0157,0.0297 -0.003,0.0371 -0.0203,0.30293 -0.0326,0.064 -0.0326,0.0639 -0.27614,0.24724 -0.20674,0.14534 -0.12864,0.0958 -0.0795,0.13586 -0.062,0.11663 -0.003,0.13444 -0.0336,0.0267 -0.1339,0.032 -0.0715,-0.008 -0.0222,0.0301 -0.0175,0.0565 -0.01,0.10854 0.0314,0.0966 0.0499,0.0777 0.0102,0.0272 0.0226,0.0442 0.0191,0.0555 -0.14807,0.077 -0.10017,0.004 0,0 -0.0405,0.0122 -0.03,0.0153 0,0 -0.0292,0.0525 -0.0646,0.2026 0.012,0.078 0.0896,0.22631 0.0239,0.31705 -0.0191,0.0934 -0.0583,0.10541 -0.0506,0.12025 -0.005,0.0485 0.0506,0.15216 0.0465,0.0889 -9e-4,0.0118 0.012,9e-4 0.0165,0.10421 -0.0327,0.10123 -0.12183,0.11018 -0.0411,0.17265 -0.0547,0.0941 -0.0255,0.0416 -0.14389,0.10321 -0.0291,0.0527 0.005,0.0636 0.0136,0.15286 0.002,0.14929 -9e-4,0.0118 0,0 0,0 -0.0186,0.0189 -0.0337,0.0265 -0.0661,0.0538 -0.11091,0.0393 -0.03,0.0152 -0.0442,0.0603 -0.0468,0.10901 -0.029,0.0525 -8.9e-4,0.0118 -0.0292,0.0526 -0.0909,0.13227 -0.0511,0.0827 -0.0275,0.0102 -0.15526,0.0997 0,0 -0.074,0.0386 -0.3324,0.22946 -0.0477,0.0345 -0.14936,0.002 -0.0868,0.1954 -0.0847,0.0724 -0.0989,0.11739 -0.0396,0.0865 -0.10523,0.1774 -0.0547,0.057 -9e-4,0.0118 -0.0962,0.0685 -0.0326,0.0638 -0.0256,0.0416 -0.014,0.0333 -0.039,0.16109 -0.003,0.0862 -9e-4,0.0118 0.0102,0.0272 -0.003,0.0371 -8.9e-4,0.0118 -0.004,0.17178 0,0 0,0 -8.8e-4,0.0118 0.0421,0.0628 0.0238,0.0816 -0.01,0.10854 -0.0147,0.13122 -0.0208,0.0796 -0.0654,0.12792 -0.0361,0.0754 -0.03,0.0152 -8e-4,0.0236 -8.9e-4,0.0118 -7.9e-4,0.0237 -0.0185,0.0189 -0.005,0.0485 -0.0118,0.14546 0.0102,0.0272 0.0201,0.056 -0.008,0.0971 -8.9e-4,0.0118 -0.016,0.0447 -0.15584,0.0623 -0.0663,0.0535 -0.012,-8.9e-4 -0.0185,0.0189 -0.0155,0.0102 -0.0186,0.019 0,0 -8e-4,0.0236 0,0 0,0 0,0 -8.9e-4,0.0118 0.008,0.0524 0,0 0.0378,0.0367 0.0102,0.0272 -0.0326,0.10124 -0.0661,0.0533 -0.0391,0.16105 -0.003,0.13455 0.0392,0.11145 0.0686,0.0586 -9e-4,0.0118 0.0299,0.022 -8.9e-4,0.0118 0.0102,0.0155 0.003,0.10047 -0.0175,0.0565 -0.0187,0.0191 -0.0554,0.0195 -0.35311,0.33442 -0.28553,0.12043 -0.16647,0.096 -0.0185,0.0191 -0.0186,0.0191 -0.11751,0.13626 -0.007,0.0716 -0.0422,0.20975 -0.005,0.0485 0.0329,0.20842 0.0216,0.403 -0.0576,0.14281 -9e-4,0.0118 -7.8e-4,0.0236 -0.0796,0.13586 -0.0256,0.0416 -0.0156,0.0102 -0.0185,0.0189 0,0 -0.075,0.003 -0.03,0.0895 0.003,0.10057 -8e-4,0.0236 -9e-4,0.0118 -0.0533,0.16904 0.0156,0.0669 -9e-4,0.0118 0.0422,0.0629 0.13631,0.11729 0.10262,0.10669 0.0777,0.18557 0.019,0.0557 -0.014,0.0334 0.0102,0.027 -9e-4,0.0118 0.0102,0.0154 -0.0259,0.23942 -9e-4,0.0118 -7.9e-4,0.0236 0.0102,0.0272 -0.0175,0.0564 -0.0292,0.0526 0,0 -0.14649,0.15199 -0.016,0.0447 -0.006,0.06 0.0512,0.38765 -0.0176,0.0564 -0.0505,0.12025 -9e-4,0.0118 -0.006,0.0599 -0.0188,0.0934 -8e-4,0.0236 0,0 0.001,0.1119 -0.002,0.0861 -8.8e-4,0.0118 0.0102,0.0154 -0.016,0.0447 0,0 -0.0725,0.38578 0.001,0.11181 -0.0204,0.21676 0,0 -0.0399,0.32177 -0.0156,0.0102 -0.0175,0.0564 -0.16173,0.15948 -0.0469,0.10901 -0.01,0.10852 0.0161,0.30216 0.0121,0.0412 0.0343,0.0479 0.19628,0.12366 0.06,0.006 0.012,9e-4 0.10033,-0.004 0.0636,-0.005 0.0194,0.0185 0.024,7.9e-4 0,0 -9e-4,0.0118 -8.9e-4,0.0118 0.0102,0.0272 -9e-4,0.0118 -0.0909,0.13229 -0.0156,0.0102 -0.0697,0.0647 -0.0292,0.0528 -0.11947,0.22236 -8e-4,0.0236 -0.0397,0.0866 -8e-4,0.0236 0,0 -8e-4,0.0236 -7.8e-4,0.0236 -0.003,0.0373 0.035,0.0852 0.12274,0.19968 0.0985,0.0807 0.0102,0.0154 0.012,8.9e-4 0.0157,0.0297 0.0158,0.0297 0,0 0.0102,0.0271 -7.9e-4,0.0236 0,0 -0.12215,0.27103 -0.11775,0.56956 -0.14355,0.33862 -0.12727,0.20741 -9e-4,0.0119 -8.9e-4,0.0118 -0.11445,0.0505 0,0 -0.044,0.0233 -0.11805,0.0618 -0.0222,0.0301 -0.038,0.12416 -0.003,0.24659 0.047,0.16342 0.0578,0.0924 0.008,0.0525 0,0 0,0 0,0 -0.008,0.0831 -0.0222,0.0301 -9e-4,0.0118 -0.0434,0.0978 -0.056,0.18049 0.003,0.10048 0.0435,0.17466 0.0107,0.16413 0.0102,0.0154 -9e-4,0.0118 -8e-4,0.0237 -0.0186,0.0191 -0.0917,0.0949 -0.0619,0.0797 -0.0696,0.0649 0.02,0.0928 0.11501,0.18484 -9e-4,0.0118 0.0102,0.0154 -0.005,0.0485 0.012,9e-4 -9e-4,0.0118 -0.0256,0.0416 -0.12532,0.12143 -0.0408,0.0493 0.019,0.0554 -0.003,0.2466 0.0215,0.16773 -7.9e-4,0.0236 -9e-4,0.0118 -8.9e-4,0.0118 -9e-4,0.0118 -7.9e-4,0.0236 -9e-4,0.0118 -0.0186,0.0191 -0.0546,0.0571 -0.0186,0.0191 -9e-4,0.0118 0,0 0,0 0.008,0.0523 0.0102,0.0153 0,0 0.10014,0.19256 0,0 0.072,0.0475 0.0863,0.005 0.0446,0.016 0.0298,0.022 -8e-4,0.0236 0,0 -0.003,0.0371 0.0123,0.041 -7.8e-4,0.0237 -0.0405,0.0121 0,0 0,0 -9e-4,0.0118 0.0102,0.0154 0.0102,0.0272 0.0264,0.0332 0.0102,0.0154 0.0649,0.07 0.0102,0.0153 0.0264,0.0331 0.0423,0.0628 0.0261,0.0331 -8.9e-4,0.0118 0.0136,0.15285 -0.016,0.0449 -0.0362,0.0753 -0.1033,0.0915 -0.0154,0.0102 -0.014,0.0333 -7.8e-4,0.0237 -0.0186,0.0191 -0.008,0.0831 0.0849,0.16297 0.0859,0.23765 -9e-4,0.0118 -0.003,0.037 0.0102,0.0154 -7.8e-4,0.0236 -0.016,0.0445 -0.0795,0.13601 -0.10168,0.16602 -0.13239,0.14395 -0.0617,0.0797 -0.012,-8.9e-4 -0.12887,0.13268 -0.0474,0.0344 -0.0257,0.0414 -0.0222,0.0303 -8.9e-4,0.0118 0,0 -8e-4,0.0236 -0.0139,0.0333 0.003,0.10059 0.0228,0.0442 0,0 0.0837,0.0881 0.0428,0.10017 -0.0147,0.13125 -0.0235,0.11637 -0.0189,0.0934 0.0102,0.0272 0.0122,0.041 -8e-4,0.0236 0.0694,0.13335 0,0 0.0122,0.0409 0,0 0.0308,0.0593 0.0861,0.0393 0.17792,0.14276 0.0123,0.0409 0.012,9e-4 -8e-4,0.0236 -0.003,0.0371 0.0102,0.0154 -0.0291,0.0525 -0.0766,0.0872 -0.0555,0.0197 -0.10821,-0.0109 -0.0705,0.0272 -0.0548,0.0941 -0.0395,0.0866 -0.0122,0.11987 0.0313,0.0966 0.0569,0.055 -9e-4,0.0119 -8e-4,0.0236 -0.0548,0.0941 -0.0222,0.0303 -0.13236,0.14391 -0.037,0.0381 0,0 0,0 -0.0521,0.008 -0.0605,-0.0439 -0.0446,-0.016 -0.10748,0.0652 -0.12181,0.11014 -0.24182,0.06 -0.0661,0.0535 -0.21632,0.0185 -9e-4,0.0118 -0.0474,0.0344 -0.23576,0.19811 -0.0363,0.0753 -0.006,0.06 0.0122,0.041 0.0423,0.0628 0.0479,0.006 -9e-4,0.0119 0.012,9e-4 0.0102,0.0154 0.012,9e-4 0.0102,0.0272 0.0157,0.0297 0.007,0.0896 0.0102,0.0154 0.003,0.10058 -0.005,0.0485 -0.008,0.0972 -0.006,0.0601 0.0606,0.27904 0.005,0.0636 -8e-4,0.0236 0,0 -7.9e-4,0.0236 -8.9e-4,0.0118 -0.012,-8.9e-4 -0.0776,0.0498 -0.014,0.0334 -8e-4,0.0236 -0.0175,0.0564 -0.005,0.0485 -9e-4,0.0118 0.0102,0.0154 -0.007,0.18306 0.0124,0.041 -8.9e-4,0.0118 -0.0156,0.0102 -0.0139,0.0334 -0.0581,0.0684 -0.0256,0.0416 -0.0155,0.0102 -0.0619,0.0794 -0.11802,0.0618 -0.11451,0.0507 -0.0155,0.0102 -0.0493,0.26935 -4.6e-4,0.1231 -0.0122,0.11987 -9e-4,0.0118 -9e-4,0.0118 0.024,8e-4 0.0216,0.16776 -0.016,0.0449 -0.016,0.0445 -0.0138,0.0334 -9e-4,0.0118 -0.0176,0.0565 0,0 -9e-4,0.0118 0.0194,0.0184 0,0 0.0102,0.0154 -9e-4,0.0118 0.0623,0.11867 0.10676,0.13265 0.0207,0.13036 0.007,0.13802 0.0223,0.24227 0,0 0.0779,0.4207 -9e-4,0.0118 0,0 0.065,0.10703 0.29175,0.25295 0.15529,0.1356 0.057,0.0553 0.0261,0.0331 0.0229,0.0442 0.0342,0.0478 0.0228,0.0444 0.0308,0.0593 0.0102,0.0152 0.0199,0.0931 -7.9e-4,0.0236 0.0102,0.0272 -8.9e-4,0.0118 -0.037,0.038 -0.0925,0.0576 -0.0477,0.0716 0.0156,0.0669 0.0102,0.0154 0,0 0.0568,0.0551 0.0365,0.004 0.012,8.9e-4 0.0554,-0.0194 0.1517,-0.0885 9e-4,-0.0118 0.0222,-0.0301 0.008,-0.0832 0.0222,-0.0301 0.052,-0.008 0.0835,0.008 0.072,0.0845 0.0271,0.0704 0.0342,0.0481 0.11684,0.0615 0.0342,0.0479 0.0428,0.10018 0.0258,0.19387 0.0323,0.13399 0.10675,0.13265 0.14941,0.23287 0.0507,0.11494 0.005,0.0637 -1.2143,-0.0368 -1.01992,-0.0247 -0.0749,0.002 -0.60153,-0.0163 -0.36635,-0.0166 -1.20305,-0.0325 -0.24643,-0.003 -1.93919,-0.0538 -0.048,-0.006 -0.18678,0.004 -0.37743,-0.0206 -0.65364,-0.008 -0.49319,-0.007 -1.28893,-0.0348 -0.0749,0.002 -1.83425,-0.0335 -0.086,-0.006 -0.52688,-0.0178 -0.27262,3.8e-4 -0.20917,-0.005 -0.024,-7.8e-4 -0.35853,-4.4e-4 -0.41838,-0.007 -0.29518,-0.006 -0.38112,-0.009 -0.44091,-0.0156 -1.00862,-0.0204 -0.0364,-0.004 -0.63897,-0.0157 -0.41828,-0.007 -0.23534,6e-5 -0.30942,-1.57094 0.10512,-0.17728 0.0192,-0.0682 0.03,-0.0896 -0.0664,-0.1819 0.024,-0.38871 0.0222,-0.0302 0.12414,0.0381 -0.001,-0.11189 0,0 0.0234,-0.62404 0.0356,-1.0537 -0.001,-0.11189 0.0224,-0.93399 0.004,-0.17179 -0.008,-0.0523 0.003,-0.0371 0.0246,-0.5494 0.0481,-1.60672 0.006,-0.29523 9e-4,-0.0118 0.003,-0.13456 0.0154,-0.40357 0.0543,-1.03531 0.008,-0.25788 0.008,-0.22042 0.007,-0.0716 0.008,-0.22043 0.006,-0.25789 0.0631,-1.84962 0.021,-0.77336 0.0132,-0.31776 0.005,-0.0485 0,0 -0.0102,-0.0271 0.043,-0.80356 0.034,-1.56169 0.0272,-1.06853 9e-4,-0.0118 0.005,-0.0485 0.003,-0.24656 -0.004,-0.18668 8e-4,-0.0236 0.017,-0.76218 0.007,-0.18306 -0.0122,-0.041 0.007,-0.0716 0.009,-0.30654 0.006,-0.53046 0.0177,-0.29148 0.004,-0.36986 8.9e-4,-0.0118 -5e-5,-0.23534 0.0163,-0.60146 0.008,-0.65371 0.01,-0.1084 -0.024,-8e-4 -0.001,-0.11187 0.0192,-0.0682 0.0696,-0.0645 0.0255,-0.0416 0.008,-0.0831 -0.003,-0.075 -0.012,-8.9e-4 -0.0464,-0.0888 -0.0308,-0.0593 -0.0227,-0.0444 -0.0158,-0.0298 -0.0563,-0.0175 -0.004,-0.18666 0.0442,-0.0603 -0.0102,-0.0154 -0.0102,-0.0272 -0.0719,-0.0846 -0.127,-0.22575 -0.0455,-0.0515 -0.0686,-0.0585 -0.1097,-0.084 -0.21385,-0.0676 -0.0265,-0.0333 -0.005,-0.0637 -0.072,-0.0475 -0.17897,0.018 0,0 -0.024,-8e-4 -0.0158,-0.0298 0.0175,-0.0564 9e-4,-0.0118 0.0441,-0.0605 0,0 9e-4,-0.0118 -0.012,-8.9e-4 -0.0909,-0.0657 0.0833,-0.14712 0.003,-0.0371 0.006,-0.06 0.006,-0.06 4.6e-4,-0.12317 -0.0271,-0.0705 -0.0918,-0.1404 0,0 -0.0445,-0.016 -0.0137,-0.15286 -0.0305,-0.21999 9e-4,-0.0119 -0.0123,-0.041 -0.0262,-0.0331 -0.0527,-0.0291 -0.03,0.0153 -0.0548,0.0941 -0.0446,-0.016 -0.0986,-0.0804 -0.1233,-4.6e-4 -0.0776,0.0499 -0.012,-9e-4 0,0 -0.28376,-0.003 -0.11832,0.0988 -0.22536,-0.0707 -9e-4,0.0118 -0.1338,0.0321 -0.0373,-0.004 -0.0261,-0.0331 -0.012,-9e-4 -0.0155,0.0102 -0.0364,-0.004 0,0 -9e-4,0.0118 -0.016,0.0448 0.0499,0.0776 0.0102,0.0154 -0.10241,0.12868 -0.0292,0.0527 0.0777,0.18547 -0.003,0.0371 -0.0255,0.0415 -0.0838,0.10977 -0.11099,0.0764 -0.01,0.34355 0.0252,0.15649 -0.016,0.0448 -7.9e-4,0.0236 -0.014,0.0333 -0.16171,0.15946 -0.0776,0.0498 0,0 -0.048,-0.006 -0.0413,-0.0253 -0.11679,-0.0616 -0.22707,-0.18302 -0.0648,-0.10713 -0.13563,-0.0408 0,0 0,0 -0.0413,-0.0253 -0.0308,-0.0593 -0.0158,-0.0298 -0.0102,-0.0272 0.0192,-0.0681 0.10785,-0.22601 0.0655,-0.12791 -0.004,-0.10063 -0.0357,-0.12271 0.003,-0.037 0.12295,-0.23363 -0.0102,-0.0272 -0.008,-0.0523 -0.19924,-0.31046 -0.02,-0.0559 0.0411,-0.17276 0.0291,-0.0528 0.037,-0.0378 0.0924,-0.0576 0.0654,-0.12793 0.0279,-0.16468 0.12577,-0.31936 0.008,-0.0832 7.9e-4,-0.0236 0,0 0.0589,-0.22903 0.008,-0.0831 9e-4,-0.0118 -0.0102,-0.0153 -0.0348,-0.0854 0.0175,-0.0562 0,0 0,0 0.0512,-0.0829 0.074,-0.0386 0.0548,-0.0571 9e-4,-0.0118 0.0441,-0.0603 9e-4,-0.0118 0.0353,-0.11269 0.11937,-0.22239 0.0582,-0.0684 0.11033,-0.1138 0.14223,-0.21507 0.008,-0.0831 9e-4,-0.0118 -0.0259,-0.19389 0.007,-0.18305 0.014,-0.0335 7.8e-4,-0.0236 0,0 0.016,-0.0448 0.0867,-0.15838 0.0291,-0.0526 0.17065,-0.30521 0.0833,-0.18417 9e-4,-0.0118 -0.0102,-0.0155 9e-4,-0.0118 -0.0807,-0.13677 -0.0228,-0.0444 -0.033,-0.20843 -0.11029,-0.12142 -0.10964,-0.0842 -0.17428,-0.15395 -0.008,-0.0525 -0.0251,-0.15648 -0.0156,-0.0668 -0.0386,-0.074 -0.0536,-0.0665 -0.13989,-0.10591 -0.0427,-0.10008 -0.0123,-0.0409 0.0529,-0.20626 0.0395,-0.0864 0.12884,-0.13276 0.11805,-0.0618 0.0511,-0.083 9e-4,-0.0118 0,0 0.0192,-0.0681 -0.0102,-0.0272 9e-4,-0.0118 -0.0194,-0.0186 -0.0102,-0.0154 -0.14403,-0.13212 -0.0191,-0.0556 8.9e-4,-0.0119 -0.012,-9e-4 9e-4,-0.0118 0.01,-0.10841 0.0503,-0.15752 0.0965,-0.26673 0.0139,-0.0335 -0.0102,-0.0154 -0.0471,-0.12621 -0.14291,-0.2927 -0.25208,-0.33954 -0.0271,-0.0705 -0.0836,-0.3235 -0.0631,-0.19318 -0.0699,-0.17066 -0.0198,-0.0931 0.0647,-0.43787 -0.0311,-0.52975 -0.0896,-0.22639 -0.0243,-0.11902 0.002,-0.0861 0.03,-0.0895 0.0343,-0.26182 0.0671,-0.44931 0.003,-0.13452 -0.0358,-0.12275 0,0 -0.0102,-0.0272 -0.0122,-0.0409 -0.035,-0.0854 -0.0158,-0.0296 -0.0194,-0.0186 -0.0492,-0.0404 -0.0102,-0.0154 -0.0298,-0.0219 -0.0413,-0.0253 -0.0414,-0.0255 -0.0683,-0.0192 -0.0843,-0.12549 0,0 -0.0102,-0.0153 -0.0565,-0.0175 -0.12505,-0.11388 -0.0156,-0.0669 0.11525,-0.52089 0.0372,-0.23579 0.0204,-0.21679 0.16911,-0.38003 0.0937,-0.18089 0.0589,-0.22904 0.019,-0.0934 8e-4,-0.0237 0.0139,-0.0334 -0.007,-0.13802 -0.0121,-0.0782 -0.0365,-0.16009 -0.0401,-0.14883 0.003,-0.0371 0.0832,-0.14714 0.0742,-0.0385 0.0946,-0.14351 0.0257,-0.0414 0.0302,-0.17612 0.0188,-0.0933 0.022,-0.19089 0.0585,-0.10542 7.9e-4,-0.0236 -0.0189,-0.0556 -0.0235,-0.0816 0.0175,-0.0564 0.0175,-0.0564 0.10679,-0.10254 0.0175,-0.0564 9e-4,-0.0118 -0.0209,-0.13039 -0.003,-0.075 0.005,-0.0486 0.0371,-0.0378 9e-4,-0.0118 0.0275,-0.0102 0.0374,0.004 0.0301,-0.0153 0.0353,-0.11269 0.0811,-0.0611 0.0555,-0.0196 0.0546,-0.057 0.0362,-0.0753 0.18131,-0.10379 0.006,-0.0602 0.0761,-0.16164 0.0548,-0.0942 -0.007,-0.0894 0.0185,-0.019 0.0733,-0.0759 0.0235,-0.11635 0.15108,-0.1257 -0.0198,-0.093 0.12613,-0.0469 0.0625,-0.0422 0.0654,-0.0908 0.0276,-0.0102 0.09,0.0302 0.03,-0.0154 0.0725,-0.15041 0.0625,-0.24022 0.0683,-0.17661 8.9e-4,-0.0118 7.9e-4,-0.0236 0.0288,-0.25072 -0.0216,-0.16777 -0.0932,-0.21506 -0.11453,-0.38275 -0.0339,-0.24599 -0.008,-0.25013 0.007,-0.18314 0,0 -5e-5,-0.23527 -0.0208,-0.13038 -0.0436,-0.13761 -0.0102,-0.0271 -0.019,-0.0556 -0.12811,-0.30041 -0.007,-0.21276 0.0204,-0.2168 0.069,-0.10213 0.19484,-0.18609 0.0803,-0.0987 0.0362,-0.0753 0.0533,-0.16895 0.0335,-0.22455 0.29071,-0.72554 0.0442,-0.25855 8.9e-4,-0.0118 9e-4,-0.0118 -0.0102,-0.0154 8e-4,-0.0236 -0.0102,-0.0272 0,0 -0.0102,-0.0272 -0.0206,-0.13035 -0.1086,-0.24468 0.0344,-0.26179 0,0 -0.0109,-0.20159 0,0 0,0 -0.005,-0.0635 -0.007,-0.0894 -0.0158,-0.0299 -0.0783,-0.22276 -0.0144,-0.19025 -0.041,-0.22349 -0.12274,-0.19966 -0.12155,-0.12492 -0.0342,-0.0478 -0.005,-0.0635 -0.0102,-0.0154 0,0 0,0 0.005,-0.0484 0.005,-0.0485 -0.0102,-0.0154 -0.017,-0.14159 -0.0342,-0.0479 -0.024,-7.9e-4 -0.0642,-0.0323 -0.0298,-0.022 -0.0191,-0.0556 9e-4,-0.0118 9e-4,-0.0118 -0.0156,-0.0669 -0.0122,-0.041 9e-4,-0.0118 -0.065,-0.0699 -0.0842,-0.12557 0,0 0,0 -0.0102,-0.0272 -0.0102,-0.0153 0,0 0.0192,-0.0683 -0.0102,-0.0272 -0.0878,-0.11445 -0.14344,-0.0948 -0.0979,-0.0431 -0.012,-9e-4 -0.0102,-0.0154 0,0 -0.012,-9e-4 -0.012,-9e-4 -0.0271,-0.0704 0,0 -0.0308,-0.0594 -0.0298,-0.0219 -0.0102,-0.0153 0,0 -0.11385,-0.11011 -0.14167,-0.2181 -0.0294,-0.18263 -0.0465,-0.0888 -0.0729,-0.12206 -0.0102,-0.0272 9e-4,-0.0118 0.0155,-0.0102 0.0618,-0.0796 0.0256,-0.0416 0.006,-0.0599 -0.0155,-0.0669 -0.0658,-0.14459 -0.0102,-0.0153 9e-4,-0.0118 -0.0314,-0.0966 -0.0236,-0.0818 -0.12921,-0.13986 -0.0123,-0.0409 0.0138,-0.0333 0.047,-0.109 0.019,-0.0935 0.005,-0.0484 0.006,-0.06 9e-4,-0.0118 -0.0102,-0.0273 -0.0102,-0.0272 -0.0157,-0.0668 7.9e-4,-0.0236 0.13579,-0.11814 0.0222,-0.0303 -0.0842,-0.12561 0.0974,-0.1922 0.003,-0.0371 -0.0157,-0.0297 0.005,-0.0485 0.0866,-0.15847 0.0275,-0.0102 0.048,0.006 0.0222,-0.0301 -0.0156,-0.0669 9e-4,-0.0118 -0.0535,-0.0664 0.0189,-0.17954 -0.0102,-0.0272 7.9e-4,-0.0236 9e-4,-0.0118 0,0 8.9e-4,-0.0119 0.0819,-0.0238 -0.003,-0.075 -0.05,-0.0776 -0.0102,-0.0271 0.0997,-0.08 0.0754,-0.19905 0,0 9e-4,-0.0118 -0.0102,-0.0154 -0.0499,-0.0777 -0.0308,-0.0592 -0.0102,-0.0154 0.0111,-0.70232 -0.003,-0.0749 -0.004,-0.2615 -0.004,-0.10052 8.8e-4,-0.0119 0.0326,-0.10112 0.12457,-0.15892 0.0654,-0.12789 7.9e-4,-0.0236 0,0 0.0176,-0.0562 0.0192,-0.0682 0.0677,-0.21387 0.0276,-0.13955 0.0513,-0.083 0.17652,-0.16713 0.0397,-0.0866 0.007,-0.0715 0.003,-0.0372 9e-4,-0.0118 0,0 -0.003,-0.075 -0.018,-0.17895 7.8e-4,-0.0236 -0.0118,-0.0782 -0.0123,-0.041 -0.0102,-0.0272 -0.012,-8.9e-4 -0.10674,-0.13275 -0.0377,-0.0367 -0.14467,-0.16943 -0.0649,-0.10711 -0.0378,-0.0367 -0.0606,-0.0438 -0.15472,-0.0982 -0.0379,-0.0365 -0.0298,-0.0218 0,0 -0.0102,-0.0155 -0.0378,-0.0365 -0.0736,-0.15942 -0.0757,-0.0362 -0.0102,-0.0154 -0.0364,-0.19719 0,0 -0.003,-0.10058 0.0258,-0.23931 0.0802,-0.0985 0.0776,-0.05 0.0618,-0.11661 0.0499,-0.24408 0.0634,-0.36365 0.0139,-0.0334 0.006,-0.06 0.039,-0.16106 0.0507,-0.12025 0.03,-0.0896 0.0512,-0.0829 0.0881,-0.0837 0.0336,-0.0266 0.096,-0.0686 0.0336,-0.0265 0.0327,-0.0641 8.9e-4,-0.0118 0,0 0.0156,-0.0102 -0.0102,-0.0154 0,0 0.0163,-0.16821 -0.0277,-0.54111 0.0293,-0.48594 -0.001,-0.11188 -0.0123,-0.041 -0.024,-7.8e-4 -0.099,-0.11795 -0.0264,-0.0332 -0.0844,-0.12547 -0.0576,-0.12964 -0.0156,-0.0669 -0.0102,-0.0272 -0.007,-0.0893 0.0209,-0.0799 8.9e-4,-0.0118 0.0583,-0.10542 0.13821,-0.47642"
       id="VT-AL"
       style="font-style:normal;font-weight:400;font-size:34.375px;font-family:'MS Shell Dlg 2';opacity:1;fill:#000000;fill-opacity:1;fill-rule:evenodd;stroke:#000000;stroke-width:0.33333385;stroke-linecap:square;stroke-linejoin:bevel;stroke-miterlimit:4;stroke-dasharray:none;stroke-opacity:1" />
  </g>
</svg>
