<?xml version="1.0" encoding="UTF-8" standalone="no"?>
<!-- Created with Inkscape (http://www.inkscape.org/) -->

<svg
   xmlns:dc="http://purl.org/dc/elements/1.1/"
   xmlns:cc="http://creativecommons.org/ns#"
   xmlns:rdf="http://www.w3.org/1999/02/22-rdf-syntax-ns#"
   xmlns:svg="http://www.w3.org/2000/svg"
   xmlns="http://www.w3.org/2000/svg"
   xmlns:sodipodi="http://sodipodi.sourceforge.net/DTD/sodipodi-0.dtd"
   xmlns:inkscape="http://www.inkscape.org/namespaces/inkscape"
   width="10.913509mm"
   height="11.151399mm"
   viewBox="0 0 38.669918 39.512831"
   id="svg12983"
   version="1.1"
   inkscape:version="0.91 r"
   sodipodi:docname="3.svg">
  <defs
     id="defs12985" />
  <sodipodi:namedview
     id="base"
     pagecolor="#ffffff"
     bordercolor="#666666"
     borderopacity="1.0"
     inkscape:pageopacity="0.0"
     inkscape:pageshadow="2"
     inkscape:zoom="6.4941131"
     inkscape:cx="24.152259"
     inkscape:cy="-3.373606"
     inkscape:document-units="px"
     inkscape:current-layer="layer1"
     showgrid="false"
     fit-margin-top="4"
     fit-margin-left="4"
     fit-margin-right="4"
     fit-margin-bottom="4"
     inkscape:window-width="2560"
     inkscape:window-height="1388"
     inkscape:window-x="0"
     inkscape:window-y="0"
     inkscape:window-maximized="1" />
  <metadata
     id="metadata12988">
    <rdf:RDF>
      <cc:Work
         rdf:about="">
        <dc:format>image/svg+xml</dc:format>
        <dc:type
           rdf:resource="http://purl.org/dc/dcmitype/StillImage" />
        <dc:title></dc:title>
      </cc:Work>
    </rdf:RDF>
  </metadata>
  <g
     inkscape:label="Layer 1"
     inkscape:groupmode="layer"
     id="layer1"
     transform="translate(-509.16614,-430.87186)">
    <path
       inkscape:connector-curvature="0"
       d="m 543.0634,464.24303 c -0.0851,-0.0145 -0.16859,-0.01 -0.25192,-0.004 -0.33369,0.0244 -0.63868,0.20311 -0.84707,0.63831 -0.34677,0.75803 -0.88012,1.20829 -1.49066,1.39989 -0.61051,0.1918 -1.30942,0.14389 -1.97565,-0.0882 -0.66623,-0.2323 -1.27862,-0.65323 -1.79259,-1.16715 -0.51378,-0.51391 -0.9202,-1.13856 -1.07347,-1.79183 l -2.13197,5.06508 1.38014,2.5292 -2.96056,0.18342 -0.0958,0.68091 2.66917,1.88987 2.83965,4.94331 -4.20588,2.53299 -2.55551,-0.45374 -0.88742,-1.54484 -1.69128,0.58277 0.84685,9.01813 -5.44123,3.46395 -2.23367,-2.74378 -1.61956,-2.84692 -2.76417,1.03154 -2.69447,2.55618 -4.42577,-0.84282 -2.61484,-5.19582 -5.69167,-1.71511 1.29401,-4.26762 6.31789,-4.76087 -1.42386,-4.2394 1.82519,0.0358 -1.30185,-3.08622 -3.93799,-2.06821 -1.19189,0.62147 1.12966,1.16859 -3.00646,1.40769 -1.57798,1.79789 -2.36983,-0.42768 -6.22077,-3.11477 0.32768,-1.65816 2.29714,-0.40292 -0.86129,-1.73037 0.47228,-2.23736 -0.20796,-0.0924 -0.0799,-0.10595 -0.21652,-0.0309 -0.0927,-0.0148 -0.21661,-0.0307 -0.0756,-0.13687 -0.11075,-0.11017 -0.0926,-0.0148 -0.0798,-0.10585 -0.12387,-0.0167 -0.1553,-0.24279 -0.20354,-0.12331 -0.0927,-0.0148 -0.12382,-0.0167 -0.16838,-0.1499 -0.12385,-0.0167 -0.18566,-0.0254 -0.12386,-0.0168 -0.0928,-0.0148 -0.0927,-0.0148 -0.23398,0.0934 -0.21651,-0.0307 -0.10598,0.0799 -0.3399,0.17314 -0.0148,0.0927 -0.35297,0.26597 -0.10595,0.0799 -0.0169,0.12385 -0.24266,0.15513 -0.11018,0.11074 -0.12385,-0.0168 -0.29215,-0.16727 -0.17253,-0.11894 -0.29653,-0.13623 -0.10633,-0.14119 -0.0927,-0.0148 -0.0797,-0.10596 -0.12385,-0.0167 0.0148,-0.0927 -0.0755,-0.1368 -0.0799,-0.10591 -0.11076,-0.11016 -0.0623,-0.22972 0.0148,-0.0926 0.0167,-0.12387 0.0148,-0.0927 -0.0797,-0.10586 -0.10634,-0.14116 -0.0926,-0.0148 -0.0927,-0.0148 -0.12387,-0.0168 -0.11017,0.11077 -0.0148,0.0927 -0.10586,0.0796 0.0754,0.13683 -0.0148,0.0926 -0.0308,0.21661 -0.11892,0.17255 -0.24713,0.18622 -0.10595,0.0799 -0.0307,0.2165 -0.0307,0.21654 0.0799,0.10598 0.0799,0.10595 -0.0166,0.12385 0.12385,0.0168 0.15949,0.21167 0.19927,0.15422 0.0926,0.0148 0.0977,0.20318 0.0753,0.13682 -0.0254,0.18564 0.0755,0.13684 -0.0429,0.30962 -0.10587,0.0797 -0.0148,0.0927 -0.11018,0.11073 -0.16727,0.29216 -0.11903,0.17252 -0.0927,-0.0148 -0.23399,0.0932 -0.10584,0.0799 -0.12386,-0.0168 -0.19885,0.0668 -0.12384,-0.0168 -0.0926,-0.0148 -0.0926,-0.0148 -0.12387,-0.0168 -0.0926,-0.0148 -0.0927,-0.0148 0.0148,-0.0927 -0.12385,-0.0168 0.0148,-0.0927 -0.0755,-0.13682 0.0254,-0.18566 -0.0623,-0.22969 0.13627,-0.29645 0.10585,-0.0798 0.0168,-0.12384 0.13683,-0.0756 0.0308,-0.21665 0.0148,-0.0926 -0.0933,-0.23393 -0.0797,-0.10596 -0.0797,-0.10594 -0.12385,-0.0167 -0.0927,-0.0148 -0.0926,-0.0148 -0.0148,0.0927 -0.22962,0.0623 -0.23396,0.0933 -0.19883,0.0667 -0.12385,-0.0167 -0.0927,-0.0148 -0.0926,-0.0148 -0.12386,-0.0168 -0.19882,0.0667 -0.12386,-0.0168 -0.0927,-0.0148 -0.11019,0.11075 -0.22971,0.0623 -0.0148,0.0927 -0.1103,0.11074 -0.13683,0.0753 -0.0927,-0.0148 -0.0148,0.0927 -0.0927,-0.0148 -0.30962,-0.0429 -0.14117,0.10634 -0.0927,-0.0148 -0.21651,-0.0308 -0.0927,-0.0148 -0.0926,-0.0148 -0.10633,-0.14119 -0.0798,-0.10584 0.0148,-0.0926 -0.0754,-0.13682 -0.28344,-0.22928 -0.0803,-0.32675 -0.0753,-0.13683 -0.0797,-0.10593 -0.12386,-0.0168 -0.0799,-0.10595 -0.0927,-0.0148 -0.12384,-0.0168 -0.0927,-0.0148 -0.0926,-0.0148 -0.13687,0.0754 -0.0927,-0.0148 -0.0148,0.0928 -0.26015,0.2789 -0.0167,0.12383 -0.11893,0.17275 -0.0927,-0.0148 -0.0168,0.12386 -0.14985,0.16815 -0.11026,0.11074 -0.0148,0.0928 -0.0148,0.0927 0.0927,0.0148 -0.0168,0.12385 -0.0148,0.0927 -0.0148,0.0928 0.12383,0.0167 0.15512,0.24276 0.26607,0.35296 0.11076,0.11019 0.0755,0.13682 0.12956,0.64937 -0.0148,0.0928 -0.15424,0.19928 -0.19861,0.0667 -0.22971,0.0623 -0.0168,0.12384 -0.0927,-0.0148 -0.0148,0.0926 -0.0148,0.0927 -0.1412,0.10634 -0.0428,0.30942 -0.10587,0.0799 -0.0926,-0.0148 -0.12388,-0.0168 -0.0926,-0.0148 -0.0799,-0.10596 -0.10644,-0.14119 -0.0926,-0.0148 -0.0798,-0.10586 -0.1107,-0.11016 -0.0927,-0.0148 -0.0928,-0.0148 0.017,-0.12385 -0.12389,-0.0168 -0.1725,-0.11899 -0.21663,-0.0307 -0.22971,0.0623 -0.0927,-0.0148 -0.11017,0.11072 -0.0254,0.18567 -0.15422,0.19926 -0.0308,0.21665 -0.0148,0.0926 -0.0148,0.0928 -0.0168,0.12384 -0.13644,0.29649 -0.26015,0.27892 -0.0254,0.18584 -0.20297,0.0976 -0.22967,0.0624 -0.10597,0.0797 -0.247,0.18624 -0.10587,0.0799 -0.14117,0.10633 -0.19885,0.0667 -0.13681,0.0754 -0.0167,0.12383 -0.11894,0.17276 -0.0168,0.12384 -0.10585,0.0798 -0.0148,0.0927 -0.24712,0.18623 -0.12333,0.20359 -0.16726,0.292 -0.0148,0.0928 -0.0148,0.0927 -0.0167,0.12385 0.11075,0.11018 -0.0429,0.3095 0.0799,0.10598 -0.0167,0.12388 0.0668,0.19863 0.2354,0.56961 -0.0148,0.0927 0.10633,0.14121 -0.0148,0.0926 -0.0307,0.21662 0.0799,0.10587 0.0625,0.22962 0.29632,0.13633 0.20359,0.12332 0.0626,0.22963 0.12382,0.0168 0.0797,0.10585 0.17306,0.33998 0.0754,0.13685 0.0927,0.0148 0.12383,0.0168 0.0799,0.10585 0.0927,0.0148 -0.0148,0.0927 0.12386,0.0167 0.0625,0.22975 -0.0148,0.0926 -0.0168,0.12382 0.0799,0.10588 -0.0429,0.30952 -0.0148,0.0926 -0.0167,0.12386 -0.0148,0.0926 -0.10594,0.0797 -0.0799,-0.10587 -0.13682,0.0754 -0.0168,0.12387 -0.10587,0.0799 -0.0148,0.0928 -0.0927,-0.0148 -0.12385,-0.0167 -0.30961,-0.043 -0.41963,0.0673 -0.0926,-0.0148 -0.12384,-0.0167 -0.33545,0.14212 -0.0927,-0.0148 -0.0926,-0.0148 -0.23397,0.0932 -0.0926,-0.0148 -0.32261,0.0493 -0.0148,0.0926 -0.4331,-0.0611 -0.32697,0.0803 -0.0148,0.0926 -0.30942,-0.0429 -0.41537,0.0362 -0.5566,0.14272 -0.3224,0.0493 -0.1103,0.11074 -0.24273,0.15512 -0.0927,-0.0148 -0.0169,0.12385 -0.0927,-0.0148 -0.0148,0.0927 -0.22972,0.0623 -0.0168,0.12384 -0.10595,0.0797 -0.13683,0.0753 -0.0168,0.12383 -0.11892,0.17274 -0.247,0.18612 -0.0927,-0.0148 -0.0148,0.0927 -0.21663,-0.0309 0.0148,-0.0926 -0.0797,-0.10584 -0.27903,-0.26017 -0.20362,-0.12332 -0.0926,-0.0148 -0.0926,-0.0148 -0.12385,-0.0168 -0.0927,-0.0148 -0.0148,0.0928 -0.22974,0.0625 -0.0926,-0.0148 -0.23395,0.0933 -0.19882,0.0667 -0.1542,0.19917 -0.2117,0.15968 -0.0168,0.12386 -0.26014,0.2789 0.0493,0.32259 -0.10595,0.0798 -0.0148,0.0926 -0.0169,0.12385 -0.0429,0.30962 -0.0252,0.18566 -0.0308,0.21663 -0.10596,0.0799 -0.0308,0.21656 -0.16727,0.29204 -0.13625,0.29643 -0.0148,0.0926 -0.12326,0.20366 -0.0307,0.21662 -0.0255,0.18564 0.0623,0.22972 0.0623,0.22973 -0.0148,0.0927 -0.0148,0.0926 0.19924,0.15423 0.20361,0.12331 0.0797,0.10596 -0.0167,0.12384 0.0927,0.0148 0.0803,0.32676 0.0798,0.10597 0.20361,0.12333 0.0753,0.13682 0.20355,0.12325 0.17272,0.11891 -0.0168,0.12385 0.16002,0.43277 0.0623,0.22962 0.16009,0.43279 -0.0148,0.0927 0.0754,0.13684 0.11075,0.11028 -0.0148,0.0926 -0.22814,0.72533 -0.14944,0.38919 -0.0148,0.0927 -0.0309,0.21653 -0.14946,0.3893 -0.16722,0.29196 -0.43271,0.16014 -0.10596,0.0799 -0.21654,-0.0307 -0.0928,-0.0148 -0.23407,0.0932 -0.21662,-0.0307 -0.0927,-0.0148 -0.0926,-0.0148 -0.21665,-0.0309 -0.30952,-0.0429 -0.29207,-0.16728 -0.2036,-0.12331 -0.0798,-0.10595 -0.0927,-0.0148 0.0167,-0.12384 -0.11073,-0.11017 -0.0928,-0.0148 0.0148,-0.0927 -0.0755,-0.13684 -0.12383,-0.0168 -0.15947,-0.21185 -0.12387,-0.0168 -0.0926,-0.0148 0.0167,-0.12384 -0.0926,-0.0148 -0.20354,-0.12324 -0.0927,-0.0148 -0.12385,-0.0167 -0.0927,-0.0148 -0.0927,-0.0148 -0.11074,-0.11017 -0.60152,-0.21078 -0.0798,-0.10595 -0.0926,-0.0148 -0.20361,-0.12332 -0.0927,-0.0148 -0.12387,-0.0169 -0.0927,-0.0148 -0.30953,-0.0429 -0.10594,0.0798 -0.12386,-0.0168 -0.0927,-0.0148 0.0148,-0.0928 -0.0926,-0.0148 -0.12386,-0.0167 -0.0754,-0.13684 -0.0928,-0.0148 0.0148,-0.0927 -0.12382,-0.0167 -0.0798,-0.10586 -0.0926,-0.0148 -0.10633,-0.14117 -0.0928,-0.0148 -0.2036,-0.12333 -0.0797,-0.10594 -0.19917,-0.15423 -0.15971,-0.2117 -0.19919,-0.15421 -0.3095,-0.0429 -0.0926,-0.0148 -0.11077,-0.11026 -0.18564,-0.0254 -0.12387,-0.0168 -0.17267,-0.11903 -0.12386,-0.0168 -0.27895,-0.26005 -0.79163,-0.20588 -0.29197,-0.16726 -0.12383,-0.0167 -0.18587,-0.0254 0.0148,-0.0926 -0.12385,-0.0168 -0.18563,-0.0254 -0.53919,0.0184 -0.32686,0.0803 -0.30955,-0.0429 -0.10585,0.0797 -0.22971,0.0623 -0.12332,0.20362 -0.33981,0.17319 -0.14988,0.16817 -0.0926,-0.0148 -0.11027,0.11071 -0.26008,0.27913 -0.1189,0.17251 -0.34001,0.17317 -0.0148,0.0927 -0.15424,0.19916 -0.0927,-0.0148 -0.13628,0.29643 -0.0307,0.21662 -0.0148,0.0927 -0.0148,0.0926 -0.16728,0.29217 -0.0167,0.12384 -0.11903,0.17251 -0.11027,0.11073 -0.13686,0.0755 -0.0148,0.0926 -0.11019,0.11076 -0.22961,0.0623 -0.0148,0.0926 -0.0168,0.12386 -0.10596,0.0798 -0.10596,0.0799 -0.12388,-0.0168 -0.0167,0.12384 -0.22907,0.28327 -0.13683,0.0755 -0.12335,0.20363 -0.0254,0.18563 -0.11026,0.11073 -0.0148,0.0928 -0.0309,0.21663 -0.0255,0.18566 0.0493,0.32259 -0.0168,0.12386 -0.0148,0.0927 0.0928,0.0148 -0.0148,0.0927 0.10644,0.14117 0.0798,0.10593 -0.0148,0.0927 0.0927,0.0148 0.10643,0.14118 0.28345,0.22909 0.1682,0.14986 0.2036,0.12332 0.10595,-0.0799 0.21656,0.0308 0.0798,0.10594 0.11073,0.11027 0.0757,0.13686 0.0926,0.0148 -0.0148,0.0926 0.11075,0.11016 -0.0167,0.12384 -0.0566,0.40237 -0.0148,0.0926 -0.21075,0.60154 -0.22335,0.91541 -0.0168,0.12385 -0.0148,0.0927 -0.10597,0.0797 -0.0168,0.12385 -0.0148,0.0927 -0.16727,0.29203 -0.13624,0.29646 -0.21654,-0.0309 -0.10597,0.0799 -0.11027,0.11074 -0.21654,-0.0307 -0.10587,0.0798 -0.1368,0.0755 -0.0168,0.12382 -0.0148,0.0927 0.0803,0.32686 -0.0148,0.0927 -0.0168,0.12385 -0.0148,0.0927 0.15512,0.24273 -0.0148,0.0927 0.20361,0.12323 0.0927,0.0148 0.3094,0.0429 0.21665,0.0308 0.0927,0.0148 0.12385,0.0168 0.0755,0.13682 0.0667,0.19881 -0.0168,0.12384 0.11074,0.11018 -0.15424,0.19919 -0.0254,0.18584 -0.0926,-0.0148 -0.11018,0.11075 -0.12385,-0.0168 -0.16837,-0.14991 -0.12386,-0.0168 -0.0927,-0.0148 -0.0926,-0.0148 -0.2036,-0.12331 -0.10598,0.0799 -0.12384,-0.0168 -0.11018,0.11074 -0.10586,0.0798 -0.13683,0.0754 -0.13637,0.29651 -0.0168,0.12384 -0.0254,0.18566 -0.0168,0.12385 -0.0148,0.0927 -0.0148,0.0927 0.0756,0.13686 0.26588,0.35285 0.20361,0.1233 0.18624,0.24714 0.0667,0.1986 -0.11017,0.11078 -0.0148,0.0926 0.0927,0.0148 0.20352,0.12332 -0.15421,0.19915 -0.22907,0.28341 -0.24713,0.18618 -0.10595,0.0798 -0.0148,0.0925 -0.15423,0.19928 -0.0148,0.0927 -0.12322,0.20355 0.0184,0.53918 -0.27257,0.59284 -0.13682,0.0754 -0.0148,0.0926 -0.20315,0.0977 -0.22964,0.0626 -0.41541,0.0365 -0.12383,-0.0168 -0.0798,-0.10594 -0.0926,-0.0148 -0.12382,-0.0167 -0.0799,-0.10598 0.0168,-0.12385 -0.35876,-0.36588 -0.17318,-0.34001 -0.25293,-0.44574 -0.0798,-0.10597 -0.18625,-0.24701 -0.0927,-0.0148 -0.12385,-0.0168 -0.1986,0.0667 -0.32695,0.0803 -0.13684,0.0755 -0.0927,-0.0148 -0.10584,0.0799 -0.0308,0.21655 -0.12385,-0.0168 -0.0307,0.21653 -0.0565,0.40233 -0.0429,0.30955 -0.27275,0.5928 -0.0148,0.0927 -0.0169,0.12383 -0.0429,0.30942 -0.18035,0.38497 -0.30298,0.80941 0.30942,0.0429 0.30962,0.0429 0.20296,-0.0977 0.12386,0.0167 0.50816,-0.0238 0.22972,-0.0622 1.05162,-0.0732 0.30963,0.043 0.12383,0.0168 1.03425,0.0503 0.41963,-0.0673 0.12385,0.0167 1.03428,0.0513 0.0926,0.0148 0.94151,0.0378 0.63632,-0.0363 0.43311,0.0613 0.32261,-0.0495 0.49511,0.0699 0.63197,-0.006 0.21654,0.0307 0.85289,-0.006 0.9415,0.0378 0.0927,0.0148 0.41538,-0.0364 0.12388,0.0168 0.0927,0.0148 0.0926,0.0148 0.21664,0.0309 0.0168,-0.12383 0.0926,0.0148 0.21652,0.0308 0.0926,0.0148 0.53922,-0.0184 0.0926,0.0148 0.30962,0.0429 0.32242,-0.0495 1.25524,0.0498 0.75573,0.0112 1.14451,-0.06 0.84863,0.0248 1.15802,0.0676 0.63635,-0.0363 0.7118,0.0999 0.10595,-0.0797 0.52608,0.0737 0.32249,-0.0492 0.52615,0.0738 0.41965,-0.0673 0.30952,0.043 1.99307,-0.0355 0.12384,0.0168 0.0926,0.0148 0.30955,0.0429 1.04735,-0.0416 1.8872,0.0441 0.94133,0.0378 0.21662,0.0307 0.94579,0.007 0.72474,0.008 0.13681,-0.0755 0.11029,-0.11075 0.11903,-0.17269 0.0168,-0.12387 0.0148,-0.0927 0.0148,-0.0926 0.0168,-0.12385 0.0254,-0.18584 0.0307,-0.21654 -0.0495,-0.32252 0.0429,-0.30951 -0.17318,-0.33992 0.0429,-0.30952 -0.11163,-0.55221 -0.20953,-0.75519 0.0148,-0.0927 -0.10643,-0.14117 0.0148,-0.0926 -0.15512,-0.24273 -0.0978,-0.20297 -0.0184,-0.5392 0.53908,-0.0184 0.7292,-0.0234 2.25902,0.31747 0.94151,0.0378 0.52605,0.0736 -0.11741,0.83558 1.26829,-0.0423 1.2683,-0.0422 1.03419,0.0513 0.13681,-0.0756 1.13144,0.0326 1.71471,-0.0748 0.0926,0.0148 1.99302,-0.0353 0.84863,0.0248 0.0148,-0.0927 0.21662,0.0307 0.30942,0.0429 0.41976,-0.0672 0.84851,0.0248 0.19884,-0.0667 0.12385,0.0167 0.0927,0.0148 0.0926,0.0148 0.54353,-0.0498 0.63195,-0.006 0.0927,0.0148 0.75577,0.0112 0.30959,0.043 0.63635,-0.0363 0.10586,-0.0798 0.0928,0.0148 0.52617,0.0738 0.53916,-0.0184 0.7291,-0.0234 1.26397,-0.0118 0.23394,-0.0933 0.18589,0.0254 0.75573,0.0112 0.18565,0.0254 0.32259,-0.0492 0.63633,-0.0363 0.8616,-0.0684 0.30953,0.0429 1.1754,-0.0555 0.30962,0.0429 0.19862,-0.0667 0.3096,0.043 0.12386,0.0168 0.0168,-0.12385 0.632,-0.006 0.49507,0.0698 0.13686,-0.0756 1.03854,0.0201 0.3225,-0.0493 0.41538,-0.0362 0.63634,-0.0363 1.07819,-0.0379 0.30962,0.0429 0.45164,0.37916 0.11071,0.11017 0.3398,-0.17311 0.0255,-0.18584 0.18585,0.0254 -0.0148,0.0928 0.12384,0.0167 0.67546,-0.31528 0.7291,-0.0234 0.0927,0.0148 1.38773,0.006 0.18586,0.0255 0.63633,-0.0363 0.30941,0.0429 0.44642,-0.0314 0.18565,0.0254 0.8356,0.11744 0.72484,0.008 0.94568,0.007 0.12384,0.0169 0.30963,0.043 0.0927,0.0148 0.72477,0.007 0.84862,0.0248 0.30951,0.0429 0.5262,0.0738 0.20295,-0.0977 0.12387,0.0168 0.92847,0.13049 0.10586,-0.0798 0.61889,0.087 0.41538,-0.0363 0.21656,0.0309 0.0927,0.0148 0.30961,0.0429 0.85291,-0.006 0.41541,-0.0364 0.7427,0.10438 0.94132,0.0378 0.64933,-0.12957 0.30963,0.0429 0.81755,0.0203 0.21663,0.0308 0.23407,-0.0933 0.7117,0.0999 0.22966,-0.0623 0.30959,0.0429 0.30944,0.043 1.68365,-0.0792 0.0926,0.0148 0.75571,0.0112 1.13148,0.0324 0.32262,-0.0494 1.18843,-0.1485 0.0927,0.0148 0.44615,-0.0324 1.79389,-0.18976 0.21663,0.0308 0.53908,-0.0184 0.10593,-0.0797 0.0927,0.0148 0.32675,-0.0802 0.30962,0.043 1.17104,-0.0244 0.0927,0.0148 0.12385,0.0168 0.18567,0.0254 0.14116,-0.10643 0.40237,0.0565 1.66625,0.045 0.23396,-0.0933 0.84856,0.0248 0.61888,0.087 0.81774,0.0203 0.21656,0.0307 0.0926,0.0148 0.031,0.007 c -0.0483,-0.0796 -0.004,-0.18262 -0.058,-0.26059 -0.37272,-0.5354 -0.8431,-1.02765 -1.13937,-1.54865 -0.20592,-0.26558 -0.28118,-0.5637 -0.28918,-0.86104 -0.008,-0.29753 0.0381,-0.59378 0.0951,-0.90184 0.0562,-0.30806 0.11235,-0.63545 0.0991,-0.93274 -0.0122,-0.29727 -0.10955,-0.5695 -0.3244,-0.83449 -0.45009,-0.37519 -0.63376,-0.92995 -0.58668,-1.43948 0.0474,-0.50944 0.3408,-0.97495 0.89872,-1.2307 0.65323,-0.23829 1.30986,-0.55127 1.8982,-0.93226 0.58861,-0.38123 1.10535,-0.82098 1.52166,-1.39562 0.16691,-0.25273 0.22763,-0.49667 0.19715,-0.72966 -0.0304,-0.23301 -0.14076,-0.48209 -0.28001,-0.702 -0.27835,-0.44012 -0.70949,-0.86365 -0.89123,-1.29294 0.0164,-0.54255 0.34186,-1.04922 0.72129,-1.53959 0.37944,-0.49036 0.82402,-0.95146 1.17249,-1.38157 0.73835,-0.38276 1.38751,-1.03618 1.76809,-1.80266 0.19019,-0.38326 0.33174,-0.79396 0.35953,-1.21175 0.0289,-0.4177 -0.0497,-0.85198 -0.2326,-1.26348 -0.18785,-0.7257 -0.65007,-1.22047 -1.18376,-1.68111 -0.5339,-0.46049 -1.12483,-0.88336 -1.56772,-1.41939 -0.55919,-0.59118 -0.76609,-1.30909 -0.78259,-2.0666 -0.007,-0.31117 0.0913,-0.61402 0.13048,-0.92829 -0.39014,0.32423 -0.80062,0.40319 -1.24978,0.36076 -0.47351,-0.0445 -0.97478,-0.17834 -1.45016,-0.23527 -0.60715,0.044 -0.96459,-0.10066 -1.11452,-0.3776 -0.15011,-0.27698 -0.091,-0.69351 0.10744,-1.21565 0.24531,-0.35744 0.26336,-0.74228 0.15652,-1.11408 -0.10664,-0.37166 -0.35225,-0.73074 -0.65184,-0.97518 -0.22467,-0.18317 -0.48356,-0.31569 -0.73878,-0.35631 z m -100.14679,31.99866 -0.32686,0.0803 -0.0927,-0.0148 -0.13684,0.0756 -0.0926,-0.0148 -0.10597,0.0799 -0.0168,0.12384 -0.14989,0.16816 -0.11017,0.11076 -0.0148,0.0926 -0.0148,0.0927 -0.0167,0.12385 0.0798,0.10583 0.0933,0.23397 -0.0148,0.0928 0.15529,0.24278 -0.0148,0.0927 0.11073,0.11019 0.0755,0.13682 0.19047,0.21622 0.0623,0.22963 0.94141,0.0378 0.0927,0.0148 0.23409,-0.0933 0.0148,-0.0926 0.10598,-0.0799 0.0169,-0.12384 0.1368,-0.0753 0.0148,-0.0926 0.11018,-0.11076 0.043,-0.3096 0.0148,-0.0926 0.0148,-0.0928 -0.0927,-0.0148 0.0307,-0.21663 -0.0933,-0.23406 -0.0668,-0.19864 -0.0755,-0.13684 0.0148,-0.0926 -0.12383,-0.0169 -0.0926,-0.0148 -0.2964,-0.13632 -0.30951,-0.0429 -0.0927,-0.0148 -0.10643,-0.14117 -0.0927,-0.0148 z"
       id="KY-01"
       style="font-style:normal;font-weight:400;font-size:34.375px;font-family:'MS Shell Dlg 2';opacity:1;fill:none;fill-opacity:1;fill-rule:evenodd;stroke:#000000;stroke-width:0.33333385;stroke-linecap:square;stroke-linejoin:bevel;stroke-miterlimit:4;stroke-dasharray:none;stroke-opacity:1" />
    <path
       inkscape:connector-curvature="0"
       d="m 493.12611,459.4023 -0.47228,2.23736 0.86128,1.73037 -2.29715,0.40293 -0.32768,1.65814 6.22078,3.11477 2.36983,0.42769 1.57798,-1.79789 3.00645,-1.40766 -1.12966,-1.16861 1.19188,-0.62148 3.93802,2.06822 1.30183,3.08621 -1.82519,-0.0358 1.42384,4.23942 -6.31785,4.76088 -1.29404,4.26762 5.69167,1.71511 2.61485,5.19579 4.42576,0.84288 2.69448,-2.55623 2.76416,-1.03152 1.61956,2.8469 2.23366,2.7438 5.44125,-3.46396 -0.84686,-9.01813 1.69128,-0.58277 0.88742,1.54482 2.55552,0.45376 4.20588,-2.53302 -2.83966,-4.9433 -2.66918,-1.88985 0.0958,-0.68091 2.96058,-0.18344 -1.38014,-2.52918 2.13195,-5.06507 c 0.15339,0.65329 0.5597,1.27791 1.07345,1.7918 0.5139,0.51393 1.12638,0.93486 1.79265,1.16715 0.66617,0.2322 1.36511,0.28 1.97563,0.0882 0.61053,-0.19169 1.14391,-0.64185 1.49065,-1.39987 0.2085,-0.43521 0.5134,-0.61369 0.84708,-0.63832 0.33358,-0.0244 0.69112,0.11579 0.99071,0.36011 0.29962,0.24435 0.5452,0.60354 0.65183,0.9752 0.10674,0.37177 0.0888,0.7566 -0.15651,1.11405 -0.1987,0.52205 -0.25777,0.93866 -0.10744,1.21568 0.15,0.27696 0.50735,0.42161 1.11446,0.37757 0.47553,0.056 0.97672,0.19052 1.45021,0.23525 0.44928,0.0424 0.85966,-0.036 1.24975,-0.36076 0,0 0,0 0,0 0.0208,-0.0175 0.0455,-0.002 0.0663,-0.0224 1.45639,-0.77771 2.90916,-1.54366 4.36555,-2.32134 1.63417,1.21032 3.1911,2.6282 4.87419,3.71451 0.36639,-0.0504 0.88092,0.11822 1.30403,0.15205 0.21149,0.0181 0.41621,-0.0163 0.55213,-0.11174 0.13599,-0.0954 0.20601,-0.27389 0.20641,-0.5705 -0.006,-0.45728 0.1826,-0.57784 0.35629,-0.73894 -0.44193,-0.37767 -0.88077,-0.75796 -1.17841,-1.27006 -0.41584,-0.71563 -0.74125,-1.48712 -1.14513,-2.18058 -0.26519,-0.42122 -0.66576,-1.24124 -1.12678,-1.86255 -0.23052,-0.31059 -0.46518,-0.56506 -0.72197,-0.70101 -0.25678,-0.13594 -0.52739,-0.14258 -0.79546,0.0457 -0.0724,0.38204 -0.21033,0.52302 -0.38763,0.51347 -0.17741,-0.009 -0.4176,-0.18008 -0.63744,-0.40509 -0.43944,-0.45003 -0.89263,-1.16506 -1.12566,-1.42048 0.13181,-0.33562 -0.14311,-0.40363 -0.28871,-0.64021 -0.0729,-0.11827 -0.10935,-0.28914 -0.0498,-0.54342 0.0594,-0.25441 0.20586,-0.59523 0.53228,-1.09286 0.4119,-0.36139 0.72232,-1.00879 0.80046,-1.65468 0.0783,-0.6459 -0.0609,-1.29658 -0.49857,-1.61644 -0.40379,-0.23971 -0.65955,-0.23839 -0.83551,-0.11731 -0.17605,0.12108 -0.25818,0.36189 -0.31668,0.68135 -0.11707,0.63893 -0.12794,1.53181 -0.4374,1.9897 0.041,0.28315 -0.0457,0.55363 -0.20595,0.79163 -0.16037,0.23791 -0.37795,0.43372 -0.61302,0.54499 -0.23516,0.11117 -0.48407,0.1296 -0.66735,0.0324 -0.18322,-0.0973 -0.30612,-0.31931 -0.31098,-0.70645 -0.37945,-0.16856 -0.50879,-0.70751 -0.62138,-1.19178 -0.11258,-0.4844 -0.22561,-0.90098 -0.51889,-0.7988 -0.28115,0.27749 -0.58638,0.34971 -0.90084,0.34682 -0.31434,-0.002 -0.63343,-0.0901 -0.95926,-0.13489 -0.32582,-0.0449 -0.64767,-0.0348 -0.96318,0.11708 -0.31549,0.15187 -0.62034,0.45348 -0.90361,1.04056 -0.40029,0.34646 -1.11086,0.55447 -1.81949,0.59639 -0.7085,0.0422 -1.42602,-0.0787 -1.84371,-0.35383 -0.20403,-0.64853 -0.43517,-1.36131 -0.41541,-1.98332 0.008,-0.31111 0.10289,-0.59477 0.27647,-0.84476 0.17346,-0.25009 0.43389,-0.45473 0.84272,-0.60741 0.0924,-0.0873 0.11442,-0.2272 0.20253,-0.31872 -0.24474,-0.0636 -0.48862,-0.10882 -0.68562,-0.28564 -0.19784,-0.13501 -0.40884,-0.33642 -0.62861,-0.467 -0.21977,-0.13065 -0.44263,-0.20831 -0.70748,-0.131 -0.43865,0.0932 -0.54134,0.59554 -0.789,0.89897 -0.44148,0.4412 -1.00412,0.7046 -1.55775,0.98021 -0.33744,0.0972 -0.68513,0.42923 -1.05117,0.29407 -0.37266,-0.28493 -0.64744,-0.6888 -0.82021,-1.12511 -0.12268,-0.46833 -0.73188,-0.48517 -0.98745,-0.83301 -0.19462,-0.42593 -0.39363,-0.93066 -0.15337,-1.37858 l -2.33973,1.15442 c 0.0299,0.15728 0.0419,0.32277 0.0585,0.48163 0,0 0,0 0,0 -0.0164,-0.15889 -0.0287,-0.32435 -0.0585,-0.48163 l -0.37082,0.16882 -3.47897,-0.39431 -3.93865,1.52925 -0.85477,1.14215 -0.29208,-0.1673 -0.0661,0.0224 -0.0927,-0.0148 -0.0148,0.0926 -0.12385,-0.0168 -0.41541,0.0365 -0.41976,0.0673 -0.0148,0.0927 -0.21652,-0.0307 -0.32252,0.0493 -0.11024,0.11075 -0.13684,0.0756 -0.0148,0.0926 -0.0168,0.12386 -0.0148,0.0926 0.0803,0.32684 -0.0148,0.0927 -0.0168,0.12386 -0.12384,-0.0168 -0.0148,0.0927 -0.0926,-0.0148 -0.0927,-0.0148 -0.12384,-0.0167 0.0148,-0.0927 -0.0755,-0.13682 -0.0927,-0.0148 0.0148,-0.0926 -0.12384,-0.0167 0.0148,-0.0928 -0.0754,-0.13682 -0.0797,-0.10586 -0.0933,-0.23394 0.0148,-0.0927 -0.0927,-0.0148 -0.0799,-0.10597 -0.10633,-0.14118 -0.18567,-0.0254 0.0148,-0.0926 -0.12386,-0.0168 -0.18584,-0.0254 -0.2165,-0.0307 -0.0927,-0.0148 -0.12387,-0.0168 -0.0927,-0.0148 -0.0927,-0.0148 -0.12386,-0.0167 -0.0148,0.0926 -0.18566,-0.0253 -0.14119,0.10633 -0.18586,-0.0254 -0.0148,0.0927 -0.12385,-0.0167 -0.18564,-0.0254 -0.20365,-0.12334 -0.0927,-0.0148 -0.12386,-0.0167 0.0168,-0.12385 -0.0927,-0.0148 -0.0927,-0.0148 -0.29652,-0.13627 -0.18612,-0.24698 -0.0797,-0.10597 -0.42032,-0.15379 -0.0927,-0.0148 -0.19919,-0.15421 -0.0668,-0.19866 -0.18621,-0.2471 -0.0986,-0.64498 -0.0933,-0.2341 0.0148,-0.0926 0.0148,-0.0927 0.18469,-0.41596 0.0148,-0.0926 0.0308,-0.21653 -0.0977,-0.20316 -0.15534,-0.24269 -0.17309,-0.33989 -0.37191,-0.27323 -0.14115,0.10643 -0.0927,-0.0148 -0.10587,0.0799 -0.15423,0.19927 -0.0148,0.0927 0.11075,0.11021 -0.0429,0.3096 -0.0168,0.12386 -0.12385,-0.0169 -0.0148,0.0926 -0.0926,-0.0148 -0.0148,0.0927 -0.30951,-0.0429 -0.54353,0.0498 -0.0927,-0.0148 -0.24267,0.15532 -0.0429,0.30942 -0.11027,0.11074 -0.10596,0.0799 -0.12385,-0.0168 -0.27893,-0.26013 0.0148,-0.0926 -0.1727,-0.11894 -0.12386,-0.0167 -0.40226,-0.0565 -0.10595,0.0798 -0.13683,0.0754 -0.0168,0.12388 -0.10587,0.0799 -0.0307,0.21663 0.0797,0.10581 0.0933,0.234 0.3096,0.0431 0.29632,0.1363 0.0624,0.22975 -0.0429,0.30941 -0.0148,0.0928 -0.10597,0.0799 -0.27744,0.40271 -0.41542,0.0364 -0.22962,0.0623 -0.21653,-0.0308 -0.18586,-0.0254 -0.23396,0.0932 -0.22961,0.0625 -0.0148,0.0927 -0.13636,0.29651 0.0626,0.22963 -0.0309,0.21654 -0.0148,0.0927 -0.0429,0.30951 0.0673,0.41975 0.0324,0.44616 -0.0148,0.0928 0.0623,0.22969 0.11075,0.1102 0.0799,0.10586 0.0755,0.13684 0.11071,0.11028 -0.0148,0.0928 -0.0167,0.12385 -0.0148,0.0927 -0.0148,0.0926 -0.23407,0.0933 -0.10597,0.0799 -0.12384,-0.0169 -0.10588,0.0799 -0.0926,-0.0148 -0.12385,-0.0168 -0.0928,-0.0148 -0.40224,-0.0565 -0.30964,-0.043 -0.12386,-0.0168 -0.11014,0.11075 -0.11883,0.17254 -0.0168,0.12384 -0.0148,0.0928 -0.0148,0.0927 0.0184,0.53909 -0.0148,0.0927 -0.0168,0.12385 0.0798,0.10588 -0.0148,0.0927 -0.13625,0.29652 -0.11017,0.11071 -0.1368,0.0753 -0.21622,0.19047 -0.22961,0.0623 -0.0927,-0.0148 -0.22972,0.0623 -0.0927,-0.0148 -0.11071,-0.11028 -0.0798,-0.10597 -0.0623,-0.2296 0.10587,-0.0797 0.0307,-0.21664 0.16673,-0.51298 0.16727,-0.29216 -0.0976,-0.20296 0.0167,-0.12385 -0.0927,-0.0148 0.0148,-0.0928 -0.30951,-0.0429 -0.21662,-0.0309 -0.18569,-0.0254 -0.13682,0.0755 -0.11029,0.11072 -0.26014,0.27891 -0.10586,0.0799 -0.10589,0.0799 -0.12382,-0.0167 -0.11029,0.11072 -0.19927,-0.15424 -0.0927,-0.0148 0.0148,-0.0927 -0.0926,-0.0148 0.0148,-0.0927 -0.10633,-0.1412 -0.17269,-0.11893 -0.11077,-0.11019 0.0168,-0.12383 -0.14204,-0.33566 -0.12384,-0.0168 0.0148,-0.0927 -0.08,-0.10585 -0.0756,-0.13685 0.0148,-0.0927 -0.12384,-0.0168 -0.0623,-0.22971 -0.0797,-0.10582 -0.0803,-0.32687 -0.0623,-0.22971 -0.0668,-0.19863 -0.12384,-0.0168 -0.0754,-0.13684 -0.0927,-0.0148 -0.12383,-0.0168 0.0148,-0.0927 -0.0927,-0.0148 -0.0926,-0.0148 -0.12385,-0.0168 -0.21605,0.19059 -0.33563,0.14207 -0.1412,0.10633 -0.10585,0.08 -0.10587,0.0799 -0.0167,0.12386 -0.14989,0.16819 -0.11025,0.11071 -0.10598,0.0799 -0.15422,0.19927 -0.22908,0.2833 -0.1368,0.0755 -0.10598,0.0799 -0.11029,0.11073 -0.22961,0.0625 -0.0928,-0.0148 -0.22969,0.0622 -0.41966,0.0673 -0.12386,-0.0168 -0.0928,-0.0148 -0.22968,0.0625 -0.44576,0.25294 -0.2297,0.0623 -0.11018,0.11075 -0.10586,0.08 -0.24713,0.18621 -0.10592,0.0797 -0.0148,0.0926 -0.14117,0.10644 -0.0148,0.0928 -0.0148,0.0926 -0.0168,0.12388 0.11076,0.11015 -0.0308,0.21656 -0.0148,0.0926 -0.16729,0.29207 -0.0308,0.21652 -0.0255,0.18586 -0.0429,0.30942 -0.0307,0.21664 -0.16671,0.51298 -0.0148,0.0926 -0.0926,-0.0148 -0.0148,0.0927 -0.14117,0.10643 -0.0148,0.0926 -0.10593,0.0797 -0.12336,0.20365 -0.12384,-0.0168 -0.10584,0.0799 -0.21654,-0.0309 -0.11027,0.1107 -0.0927,-0.0148 -0.12385,-0.0168 -0.0753,-0.13681 -0.0927,-0.0148 -0.11072,-0.11028 -0.0365,-0.41529 -0.0623,-0.22972 -0.25284,-0.44574 -0.12384,-0.0168 0.0167,-0.12386 -0.0799,-0.10597 -0.0927,-0.0148 -0.21654,-0.0308 -0.21653,-0.0309 -0.40233,-0.0566 -0.30954,-0.043 -0.0798,-0.10597 -0.12385,-0.0168 -0.74363,-0.54618 -0.11072,-0.1103 -0.0927,-0.0148 -0.0799,-0.10596 -0.10643,-0.14118 -0.66823,-0.40939 -0.0884,-0.044 z"
       id="KY-02"
       style="font-style:normal;font-weight:400;font-size:34.375px;font-family:'MS Shell Dlg 2';opacity:1;fill:none;fill-opacity:1;fill-rule:evenodd;stroke:#000000;stroke-width:0.33333385;stroke-linecap:square;stroke-linejoin:bevel;stroke-miterlimit:4;stroke-dasharray:none;stroke-opacity:1" />
    <path
       inkscape:connector-curvature="0"
       d="m 523.4398,455.89956 0.29207,0.16728 0.85477,-1.14217 3.93865,-1.52919 3.47899,0.3943 0.37079,-0.16884 c -0.0577,-0.3048 -0.11895,-0.62111 -0.12141,-0.93217 0.0423,-0.24948 -0.053,-0.6382 0.23252,-0.75632 0.22813,-0.0467 0.6516,-0.007 0.61802,-0.35492 -0.0525,-0.36001 -0.0294,-0.72872 0.14777,-1.05217 0.16237,-0.36567 -0.002,-0.7604 0.002,-1.13581 0.0469,-0.58412 0.17094,-1.15142 0.24347,-1.73297 l -3.4705,-2.47581 -0.0148,0.0926 -0.0148,0.0927 -0.0307,0.21659 -0.0148,0.0926 0.10634,0.14116 -0.13684,0.0753 -0.0429,0.30954 -0.0148,0.0927 -0.12322,0.20354 -0.0148,0.0926 -0.0167,0.12385 -0.0148,0.0927 -0.10588,0.0799 -0.0168,0.12383 -0.13683,0.0754 -0.0148,0.0926 -0.0926,-0.0148 -0.0309,0.21668 -0.0148,0.0926 -0.0927,-0.0148 -0.15422,0.19916 -0.33979,0.17311 -0.10595,0.0798 -0.10597,0.0799 -0.14117,0.10644 -0.21164,0.1595 -0.1412,0.10633 -0.10595,0.0798 -0.0927,-0.0148 -0.13686,0.0755 -0.0926,-0.0148 0.0148,-0.0928 -0.21653,-0.0307 -0.17273,-0.11906 0.0169,-0.12384 -0.11075,-0.11019 -0.0797,-0.10586 -0.0927,-0.0148 -0.22971,0.0622 -0.0928,-0.0148 -0.13682,0.0753 -0.18567,-0.0252 -0.14118,0.10643 -0.19882,0.0667 -0.13685,0.0754 -0.0168,0.12384 -0.0148,0.0925 -0.13624,0.29643 -0.0148,0.0926 0.0754,0.13682 -0.0148,0.0927 -0.0308,0.21652 -0.11895,0.17271 -0.0168,0.12386 -0.11892,0.17254 -0.14118,0.10643 -0.22927,0.28344 -0.13681,0.0755 -0.10586,0.0798 -0.38341,0.48264 -0.0148,0.0927 -0.0168,0.12384 -0.0148,0.0927 -0.14941,0.38919 -0.087,0.61892 0.0988,0.64502 0.0933,0.23406 -0.0429,0.30952 -0.0148,0.0926 -0.0308,0.21665 -0.0148,0.0927 -0.043,0.30942 -0.15422,0.19928 -0.0148,0.0926 -0.0308,0.21653 -0.0148,0.0926 0.0804,0.32696 -0.0169,0.12385 -0.0148,0.0927 -0.0148,0.0926 -0.15424,0.19928 -0.10596,0.0799 -0.0168,0.12384 -0.11893,0.17253 -0.16773,0.0712 z"
       id="KY-03"
       style="font-style:normal;font-weight:400;font-size:34.375px;font-family:'MS Shell Dlg 2';opacity:1;fill:#000000;fill-opacity:1;fill-rule:evenodd;stroke:#000000;stroke-width:0.33333385;stroke-linecap:square;stroke-linejoin:bevel;stroke-miterlimit:4;stroke-dasharray:none;stroke-opacity:1" />
    <path
       inkscape:connector-curvature="0"
       d="m 555.2921,423.48591 -0.22962,0.0623 -0.10584,0.0797 -0.14121,0.10644 -0.10597,0.0798 -0.12329,0.20362 -0.0148,0.0926 -0.13684,0.0753 -0.11015,0.11073 -0.10588,0.0799 -0.12384,-0.0169 -0.10598,0.0799 -0.0927,-0.0148 -0.2963,-0.13635 -0.11076,-0.11028 -0.19879,0.0668 -0.12388,-0.0168 -0.0148,0.0928 -0.13624,0.29635 -0.11017,0.11071 -0.45946,0.1249 -0.11017,0.11074 -0.0927,-0.0148 -0.1368,0.0753 -0.0927,-0.0148 -0.21662,-0.0307 -0.0927,-0.0148 -0.21653,-0.0309 0.0148,-0.0927 -0.37188,-0.27325 -0.20349,-0.12331 -0.16839,-0.1499 -0.23397,0.0933 -0.21654,-0.0308 -0.0755,-0.13684 -0.0799,-0.10589 -0.11072,-0.11013 -0.0623,-0.22972 -0.27902,-0.26016 0.0148,-0.0927 -0.0798,-0.10586 -0.10633,-0.14116 -0.0927,-0.0148 -0.21653,-0.0307 -0.17271,-0.11906 -0.21654,-0.0307 -0.0148,0.0928 -0.11016,0.11075 -0.13686,0.0752 -0.40957,0.66818 -0.0927,-0.0148 -0.11017,0.11074 -0.33567,0.14228 -0.14119,0.10643 -0.0927,-0.0148 -0.10586,0.0798 -0.13683,0.0753 -0.11026,0.11074 -0.0148,0.0927 -0.0927,-0.0148 -0.0148,0.0927 -0.12385,-0.0168 -0.0169,0.12387 -0.0926,-0.0148 -0.0148,0.0926 -0.12326,0.20351 -0.22968,0.0625 -0.35295,0.26596 -0.10587,0.0798 -0.15422,0.19927 -0.0148,0.0926 0.12382,0.0168 -0.0166,0.12382 0.15948,0.2117 0.10643,0.14115 0.1727,0.11906 0.11075,0.11026 0.0754,0.13683 0.0797,0.10583 0.20364,0.12323 0.0623,0.22973 0.12385,0.0168 -0.0148,0.0927 0.0754,0.13684 0.0797,0.10583 0.11074,0.11019 0.0623,0.22972 0.0798,0.10596 -0.0308,0.21652 -0.0307,0.21654 -0.0148,0.0926 -0.10597,0.0799 -0.0168,0.12384 -0.0926,-0.0148 -0.13684,0.0754 -0.0148,0.0925 -0.11017,0.11074 -0.11894,0.17272 -0.15421,0.19917 -0.12335,0.20353 -0.0148,0.0927 -0.0148,0.0926 -0.0166,0.12384 0.0927,0.0148 -0.0148,0.0926 0.11074,0.11017 -0.0167,0.12388 0.0928,0.0148 0.0927,0.0148 0.12384,0.0168 0.6363,-0.0363 0.18588,0.0254 0.12385,0.0168 0.0927,0.0148 0.0927,0.0148 0.12387,0.0168 0.0755,0.13684 0.20366,0.12335 0.0927,0.0148 -0.0148,0.0927 -0.0168,0.12386 -0.0254,0.18566 -0.0168,0.12384 -0.0148,0.0928 -0.10586,0.0798 -0.15421,0.19918 -0.21617,0.19046 -0.12389,-0.0167 -0.0148,0.0927 -0.10588,0.0799 -0.1102,0.11076 -0.0254,0.18564 -0.017,0.12386 0.0667,0.19882 0.26597,0.35284 0.0755,0.13686 0.0977,0.20315 -0.0168,0.12388 -0.0148,0.0926 -0.12388,-0.017 -0.10596,0.0798 -0.21662,-0.0307 -0.0927,-0.0148 -0.30949,-0.043 -0.20368,-0.12324 -0.18561,-0.0254 -0.21662,-0.0309 -0.0927,-0.0148 -0.12387,-0.0167 -0.19862,0.0668 -0.14118,0.10633 -0.10595,0.0799 -0.10598,0.0799 -0.12384,-0.0167 -0.35283,0.26586 -0.18588,-0.0254 -0.14115,0.10634 -0.292,-0.16727 -0.41974,0.0672 -0.0927,-0.0148 -0.12383,-0.0167 -0.0148,0.0927 -0.0927,-0.0148 -0.10595,0.0799 -0.24702,0.18613 -0.24698,0.18612 -0.19883,0.0667 -0.13685,0.0755 -0.21601,0.19048 -0.13681,0.0753 -0.11031,0.11072 -0.0927,-0.0148 -0.13682,0.0755 -0.10589,0.0799 -0.11016,0.11076 -0.24276,0.1551 -0.0927,-0.0148 -0.14116,0.10643 -0.0148,0.0926 -0.10585,0.08 -0.12324,0.20352 -0.12388,-0.0169 -0.0148,0.0927 -0.12334,0.20361 -0.10595,0.0799 -0.14118,0.10644 -0.19861,0.0667 -0.22972,0.0622 -0.33992,0.17319 -0.0927,-0.0148 -0.22972,0.0623 -0.0927,-0.0148 -0.20352,-0.12331 -0.0926,-0.0148 -0.21662,-0.0307 0.0148,-0.0927 -0.0755,-0.13682 -0.12388,-0.0168 -0.0797,-0.10586 -0.25292,-0.44584 -0.0755,-0.13681 -0.11077,-0.1102 -0.0926,-0.0148 -0.20352,-0.12326 -0.18587,-0.0254 -0.21653,-0.0308 -0.30952,-0.0429 -0.0927,-0.0148 -0.22961,0.0623 -0.55657,0.14265 -0.0927,-0.0148 -0.10587,0.08 -0.22973,0.0623 -0.32685,0.0803 -0.0927,-0.0148 -0.12385,-0.0169 -0.0927,-0.0148 -0.0927,-0.0148 -0.21655,-0.0307 -0.0927,-0.0148 -0.12384,-0.0167 -0.18586,-0.0255 -0.12384,-0.0168 -0.10584,0.0797 -0.22962,0.0623 -0.0169,0.12384 -0.0927,-0.0148 -0.0254,0.18585 -0.0927,-0.0148 -0.0167,0.12385 -0.13684,0.0754 -0.0148,0.0927 -0.0611,0.43331 -0.0148,0.0926 -0.0148,0.0927 -0.0168,0.12383 -0.0148,0.0926 0.12386,0.0168 0.14228,0.33558 0.18615,0.24701 0.0493,0.32259 -0.0148,0.0927 -0.0148,0.0926 -0.0309,0.21666 0.0363,0.63632 -0.0148,0.0926 0.0753,0.13685 -0.0148,0.0927 0.0799,0.10585 0.0933,0.23409 0.26587,0.35291 0.0495,0.32252 0.0624,0.22973 -0.0429,0.30943 -0.0148,0.0926 -0.13634,0.29643 -0.0148,0.0926 -0.23406,0.0933 -0.10586,0.0799 -0.44583,0.25294 -0.13686,0.0755 -0.11016,0.11072 -0.0148,0.0927 -0.12323,0.20363 -0.0148,0.0926 -0.0148,0.0926 -0.0168,0.12385 -0.26016,0.2791 -0.11902,0.17253 -0.14117,0.10633 -0.19865,0.0668 -0.0148,0.0927 -0.12385,-0.0168 -0.11028,0.11072 -0.22972,0.0623 -0.18567,-0.0254 -0.22969,0.0623 -0.21663,-0.0309 -0.20297,0.0977 -0.32263,0.0494 -0.35284,0.26598 -0.0148,0.0927 -0.29062,0.49568 -0.0148,0.0927 -0.0168,0.12384 -0.0927,-0.0148 -0.0429,0.30961 -0.0148,0.0927 -0.12383,-0.0168 -0.0148,0.0926 -0.0167,0.12382 -0.043,0.30964 3.4705,2.47579 c -0.0724,0.58158 -0.19599,1.14887 -0.24347,1.73298 -0.005,0.3754 0.16058,0.77013 -0.002,1.1358 -0.17743,0.32343 -0.20038,0.69213 -0.14776,1.05214 0.0335,0.34797 -0.3899,0.30826 -0.61801,0.35497 -0.28552,0.1181 -0.1907,0.50678 -0.23252,0.7563 0.003,0.31106 0.0639,0.62737 0.1214,0.93217 l 2.33973,-1.15439 c -0.2403,0.4479 -0.0412,0.95262 0.15336,1.37852 0.25558,0.34789 0.86475,0.36472 0.98746,0.83307 0.17277,0.43628 0.44756,0.84013 0.82021,1.12509 0.36606,0.13508 0.71375,-0.19679 1.05116,-0.29407 0.55364,-0.27563 1.11628,-0.53898 1.55778,-0.98024 0.24764,-0.30341 0.35036,-0.8057 0.78898,-0.89894 0.26484,-0.0773 0.48771,4.9e-4 0.70746,0.13101 0.21979,0.13054 0.43079,0.33199 0.62864,0.46702 0.19701,0.17676 0.44088,0.22202 0.68561,0.28561 0.76981,-0.79905 1.44947,-1.70548 1.83678,-2.73973 0.43154,-1.15267 0.59607,-2.39747 0.41587,-3.63377 0.12042,-0.5359 0.0982,-1.15688 0.23475,-1.671 0.0682,-0.25709 0.18014,-0.49553 0.3476,-0.67702 0.16748,-0.18147 0.41593,-0.30942 0.74608,-0.36855 0.17831,-0.28738 0.32796,-0.39934 0.49845,-0.40325 0.17052,-0.004 0.35788,0.0784 0.53963,0.20205 0.36349,0.24752 0.77377,0.61286 1.29582,0.43458 0.36437,0.14509 0.66362,0.15686 0.96811,0.0726 0.30446,-0.084 0.60691,-0.27099 0.89157,-0.50585 0.71511,-0.33786 1.06772,-1.00753 1.68928,-1.46667 0.79941,-0.64118 1.59873,-1.90486 2.35942,-2.19297 0.17208,0.74178 0.68869,1.20881 1.21913,1.65447 0.53042,0.44575 1.07036,0.87699 1.22344,1.62364 -0.11564,0.40294 -0.11003,0.79759 -0.002,1.13583 0.10777,0.33811 0.32158,0.6103 0.58067,0.80738 0.2592,0.19708 0.56844,0.3055 0.9067,0.28525 0.33827,-0.0198 0.70106,-0.17029 1.04629,-0.48409 0.39865,-0.021 0.63529,-0.14368 0.77261,-0.33331 0.13741,-0.18954 0.17421,-0.4369 0.16197,-0.703 -0.0246,-0.53229 -0.25858,-1.13343 -0.211,-1.41817 0.36198,-0.58955 0.72464,-1.2257 1.16281,-1.76163 0.43804,-0.53583 0.94646,-0.94749 1.66804,-1.09086 -0.26487,-0.66108 -0.21496,-1.20948 0.0138,-1.67061 0.2288,-0.46116 0.66107,-0.8424 1.15073,-1.22679 0.19462,-0.31652 0.38973,-0.51267 0.62171,-0.6069 0.23199,-0.0943 0.47667,-0.0921 0.73356,-0.0546 0.51351,0.0753 1.07941,0.32603 1.61835,0.38519 l 0.83178,2.38901 1.88543,1.18009 4.8389,-2.09697 1.11117,0.85053 0.43247,1.63853 2.41913,0.75028 0.39944,0.7504 c 0.23751,-0.19191 0.45437,-0.46527 0.7282,-0.46569 0.44999,-8.6e-4 0.9585,0.2984 1.52268,1.06599 0.3228,0.31075 0.59008,0.50756 0.83212,0.59034 0.24212,0.0828 0.45698,0.06 0.63635,-0.0363 0.35872,-0.19353 0.60382,-0.71521 0.81897,-1.33654 0.21529,-0.62127 0.3811,-1.33716 0.59661,-1.9989 0.2154,-0.66175 0.46356,-1.2735 0.82279,-1.58846 0.61602,-0.0907 1.17284,0.05 1.66237,0.29669 0.48951,0.24674 0.93426,0.62664 1.3723,1.01336 0.43807,0.38675 0.86682,0.77267 1.32838,1.10191 0.4615,0.32914 0.95728,0.58086 1.51731,0.65496 0.55611,0.0157 1.04854,-0.13028 1.5327,-0.35255 0.48424,-0.22237 0.94862,-0.52882 1.39931,-0.75014 0.45069,-0.22125 0.88699,-0.36551 1.34275,-0.34774 0.45568,0.0181 0.91658,0.20878 1.41582,0.70392 0.4372,0.0258 0.87549,0.0642 1.31268,0.0897 l -0.0668,-0.1986 0.0167,-0.12385 0.0254,-0.18584 0.0168,-0.12387 -0.0798,-0.10585 0.0148,-0.0926 0.0168,-0.12386 0.0254,-0.18584 -0.10634,-0.1412 -0.0493,-0.3224 -0.0798,-0.10595 -0.0673,-0.41969 -0.0624,-0.22969 0.0148,-0.0927 -0.0928,-0.0148 -0.10643,-0.1412 -0.0927,-0.0148 -0.0799,-0.10586 -0.12385,-0.0168 -0.0927,-0.0148 -0.0926,-0.0148 -0.11075,-0.11018 -0.0926,-0.0148 -0.0756,-0.13686 -0.12385,-0.0167 -0.0797,-0.10594 -0.0927,-0.0148 0.0148,-0.0927 -0.10633,-0.14118 -0.15968,-0.21168 -0.12387,-0.0167 -0.1551,-0.24277 0.0148,-0.0926 -0.10633,-0.14119 -0.0798,-0.10586 -0.20364,-0.12323 0.0167,-0.12384 -0.18567,-0.0254 -0.12384,-0.017 -0.0798,-0.10595 -0.0927,-0.0148 -0.11076,-0.11027 -0.18563,-0.0255 -0.21662,-0.0308 -0.0927,-0.0148 -0.13686,0.0755 -0.30939,-0.0429 -0.19887,0.0668 -0.12384,-0.0168 -0.18563,-0.0254 -0.21664,-0.0309 -0.20365,-0.12333 -0.0927,-0.0148 -0.0797,-0.10596 -0.12384,-0.0168 -0.16839,-0.14988 -0.11076,-0.11018 -0.0927,-0.0148 0.0148,-0.0926 -0.0927,-0.0148 -0.10644,-0.14115 -0.0798,-0.10596 -0.0623,-0.22974 -0.0978,-0.20297 0.0167,-0.12385 -0.0927,-0.0148 0.0148,-0.0926 -0.0492,-0.3225 0.0429,-0.30952 0.0148,-0.0928 -0.1558,-0.46359 -0.0668,-0.19884 -0.18615,-0.24702 -0.0797,-0.10585 -0.0934,-0.23405 0.0309,-0.21665 0.0255,-0.18563 0.0308,-0.21667 0.0307,-0.21659 0.0148,-0.0927 -0.0798,-0.10583 0.043,-0.30964 -0.0755,-0.13683 0.0148,-0.0927 -0.12386,-0.0168 -0.0797,-0.10584 -0.0928,-0.0148 -0.10634,-0.14117 -0.0927,-0.0148 -0.56949,0.23542 -0.0927,-0.0148 -0.11031,0.11073 -0.2296,0.0623 -0.10588,0.08 -0.0169,0.12386 -0.24274,0.15511 -0.11029,0.11074 -0.13682,0.0755 -0.0927,-0.0148 -0.10588,0.0799 -0.12386,-0.0167 -0.0927,-0.0148 -0.0926,-0.0148 -0.12386,-0.0169 -0.0927,-0.0148 -0.21654,-0.0307 -0.0926,-0.0148 -0.11026,0.11075 -0.13684,0.0754 -0.0927,-0.0148 -0.0148,0.0927 -0.11018,0.11073 -0.0148,0.0927 -0.0308,0.21665 -0.2732,0.37179 -0.24713,0.18624 -0.21166,0.15948 -0.14118,0.10633 -0.0927,-0.0148 -0.33556,0.14227 -0.11021,0.11077 -0.1368,0.0755 -0.10597,0.0798 -0.0429,0.30961 -0.0429,0.30945 -0.11029,0.11071 -0.0148,0.0927 -0.0308,0.21663 -0.12382,-0.0168 -0.0148,0.0926 -0.10584,0.0797 -0.33991,0.1732 -0.10597,0.0799 -0.21649,-0.0307 -0.23402,0.0933 -0.0927,-0.0148 -0.0927,-0.0148 -0.13682,0.0755 -0.0927,-0.0148 -0.21653,-0.0307 -0.17274,-0.11894 -0.12385,-0.0167 -0.0927,-0.0148 -0.0755,-0.13678 -0.12386,-0.017 -0.11026,0.11075 -0.10594,0.0797 -0.12388,-0.0168 -0.10585,0.0798 -0.0927,-0.0148 -0.0168,0.12387 -0.0148,0.0927 -0.3661,0.35874 -0.0167,0.12385 -0.12386,-0.0168 -0.0148,0.0926 -0.0927,-0.0148 -0.0927,-0.0148 -0.12384,-0.0168 -0.0927,-0.0148 0.0148,-0.0926 -0.0926,-0.0148 -0.10633,-0.14117 -0.0797,-0.10584 0.0148,-0.0927 -0.0623,-0.22972 0.0307,-0.21663 -0.20363,-0.12323 -0.27903,-0.26005 -0.38927,-0.14946 -0.20354,-0.12332 -0.1992,-0.15422 -0.18582,-0.0254 -0.61893,-0.087 -0.2165,-0.0307 -0.32687,0.0803 -0.0927,-0.0148 -0.12384,-0.0168 -0.29197,-0.16725 -0.017,0.12383 -0.16837,-0.14987 -0.12384,-0.0167 -0.0798,-0.10587 -0.27903,-0.26007 -0.0798,-0.10595 -0.29633,-0.13632 -0.2166,-0.0307 -0.21667,-0.0308 -0.19861,0.0668 -0.32263,0.0494 -0.33981,0.17307 -0.13679,0.0753 -0.0927,-0.0148 -0.43269,0.16011 -0.46379,0.15576 -0.0927,-0.0148 -0.0148,0.0927 -0.0926,-0.0148 -0.0148,0.0926 -0.24713,0.18623 -0.0148,0.0928 -0.0429,0.30941 -0.0167,0.12385 -0.0429,0.30961 -0.0253,0.18565 -0.11029,0.11074 -0.0148,0.0926 -0.12386,-0.0168 -0.10587,0.0799 -0.0926,-0.0148 -0.21665,-0.0308 -0.0927,-0.0148 -0.12386,-0.0168 -0.37613,-0.24231 -0.0927,-0.0148 -0.12385,-0.0168 -0.0928,-0.0148 -0.0753,-0.13681 -0.43329,-0.0611 -0.18565,-0.0254 -0.21665,-0.0309 -0.0927,-0.0148 -0.12384,-0.0168 -0.0927,-0.0148 0.0148,-0.0927 -0.0926,-0.0148 0.0148,-0.0926 -0.10644,-0.1412 0.0148,-0.0926 -0.0363,-0.4153 -0.0928,-0.0148 -0.0933,-0.23407 -0.0797,-0.10593 -0.0753,-0.13686 -0.12385,-0.0168 -0.17271,-0.11892 -0.22962,0.0623 -0.0797,-0.10585 -0.2965,-0.13626 -0.12386,-0.0168 0.0168,-0.12386 -0.0926,-0.0148 0.0148,-0.0926 -0.0926,-0.0148 0.0148,-0.0928 -0.0933,-0.23398 0.0148,-0.0927 0.0169,-0.12381 -0.0798,-0.10598 -0.0927,-0.0148 0.0148,-0.0927 -0.19919,-0.15423 -0.0927,-0.0148 -0.11075,-0.11016 -0.0927,-0.0148 -0.30954,-0.0429 -0.30951,-0.0429 -0.21661,-0.0307 -0.0927,-0.0148 -0.0927,-0.0148 -0.12387,-0.0168 -0.0927,-0.0148 0.0148,-0.0926 -0.27904,-0.26016 -0.30951,-0.0429 -0.0926,-0.0148 -0.21656,-0.0308 -0.2296,0.0626 -0.34,0.17305 -0.19861,0.0667 -0.23409,0.0933 -0.10597,0.0799 -0.12385,-0.0168 -0.0926,-0.0148 -0.22963,0.0624 -0.11025,0.11074 -0.0927,-0.0148 -0.30942,-0.0429 -0.13684,0.0755 -0.49509,-0.0699 -0.20363,-0.1232 -0.0927,-0.0148 -0.12386,-0.0168 -0.0753,-0.13683 -0.3893,-0.14941 -0.21652,-0.0307 -0.21653,-0.0309 -0.0926,-0.0148 -0.0927,-0.0148 -0.52607,-0.0738 -0.0927,-0.0148 -0.2165,-0.0308 -0.21655,-0.0309 -0.0798,-0.10596 -0.19929,-0.15422 -0.0797,-0.10587 -0.0798,-0.10584 -0.0933,-0.23405 0.0148,-0.0926 -0.0926,-0.0148 0.0309,-0.21657 -0.0799,-0.10585 0.0169,-0.12386 0.0148,-0.0927 0.0148,-0.0927 0.0168,-0.12384 -0.0978,-0.20297 0.0169,-0.12386 0.0148,-0.0927 0.0148,-0.0927 0.0169,-0.12384 0.0148,-0.0927 -0.0623,-0.22961 -0.19044,-0.21622 0.0167,-0.12385 -0.0798,-0.10585 -0.18625,-0.24705 -0.0667,-0.19878 -0.0927,-0.0148 -0.10643,-0.14116 -0.0799,-0.10587 -0.18624,-0.24704 -0.0927,-0.0148 0.0148,-0.0926 -0.0926,-0.0148 0.0148,-0.0927 -0.10644,-0.14116 -0.0927,-0.0148 0.0148,-0.0926 -0.0798,-0.10586 0.0168,-0.12385 -0.12386,-0.0167 0.0148,-0.0927 0.0429,-0.30951 -0.0927,-0.0148 0.0307,-0.21653 -0.0797,-0.10593 -0.0934,-0.23406 0.0148,-0.0927 -0.27911,-0.26006 -0.0797,-0.10597 -0.1861,-0.24711 -0.17274,-0.11892 -0.21653,-0.0308 -0.38932,-0.14932 -0.12384,-0.0167 -0.40225,-0.0565 -0.21662,-0.0309 -0.0928,-0.0148 -0.10584,0.0798 -0.29654,-0.13626 -0.12383,-0.0169 -0.0754,-0.13682 -0.0927,-0.0148 0.0148,-0.0928 -0.0933,-0.23407 0.0254,-0.18565 0.0168,-0.12384 -0.0668,-0.19882 0.0309,-0.21656 -0.0623,-0.22963 -0.19045,-0.2162 -0.0753,-0.13682 -0.11076,-0.11018 -0.0927,-0.0148 -0.0799,-0.10589 z"
       id="KY-04"
       style="font-style:normal;font-weight:400;font-size:34.375px;font-family:'MS Shell Dlg 2';opacity:1;fill:none;fill-opacity:1;fill-rule:evenodd;stroke:#000000;stroke-width:0.33333385;stroke-linecap:square;stroke-linejoin:bevel;stroke-miterlimit:4;stroke-dasharray:none;stroke-opacity:1" />
    <path
       inkscape:connector-curvature="0"
       d="m 597.34571,442.20824 c -0.43719,-0.0258 -0.87547,-0.0642 -1.31268,-0.0898 -0.49929,-0.49509 -0.96013,-0.68609 -1.41581,-0.70389 -0.45577,-0.0179 -0.89208,0.12651 -1.34277,0.34771 -0.45069,0.22132 -0.91505,0.5278 -1.39932,0.75014 -0.48414,0.2223 -0.97655,0.36749 -1.53269,0.35256 -0.56006,-0.0738 -1.05583,-0.32584 -1.5173,-0.65495 -0.46156,-0.32928 -0.89032,-0.71518 -1.32837,-1.10193 -0.43803,-0.38669 -0.88283,-0.76662 -1.37233,-1.01332 -0.48952,-0.24674 -1.04635,-0.38752 -1.66239,-0.2967 -0.35924,0.31495 -0.60735,0.92668 -0.82275,1.58843 -0.21552,0.66174 -0.38136,1.37762 -0.59662,1.99893 -0.21517,0.62128 -0.46025,1.14297 -0.81901,1.3365 -0.17928,0.0968 -0.39415,0.11961 -0.63632,0.0363 -0.24202,-0.0829 -0.50933,-0.2796 -0.83213,-0.59035 -0.56416,-0.76759 -1.07267,-1.06668 -1.52266,-1.06598 -0.27382,-2.2e-4 -0.49066,0.27375 -0.7282,0.46569 l 0,0 c -0.15287,0.12352 -0.34173,0.10068 -0.48108,0.27955 -0.71172,0.91383 -1.2701,2.42603 -1.72496,3.29198 -0.35404,0.45634 -0.58135,0.8859 -0.71302,1.25668 -0.13183,0.37076 -0.1509,0.69093 -0.10847,0.99458 0.0851,0.60728 0.45474,1.10344 0.94923,1.55354 0.49457,0.45001 1.09622,0.85893 1.61611,1.29997 0.51984,0.44115 0.95587,0.90191 1.11705,1.48247 0.14712,0.31184 0.17937,0.6903 0.10404,1.05598 -0.0754,0.36567 -0.25976,0.73107 -0.43937,1.10581 -0.35943,0.74966 -0.77959,1.47669 -0.84852,1.99513 0.45707,0.36557 0.72479,0.61394 1.17749,0.82811 0.45268,0.21431 1.07767,0.39537 2.25085,0.60041 0.65919,0.40682 1.64053,1.73542 2.03921,2.77957 0.19939,0.5221 0.25688,0.991 0.0512,1.20652 -0.20548,0.21538 -0.6797,0.18872 -1.51631,-0.21309 -0.50624,-0.3986 -0.88699,-0.49606 -1.23403,-0.42588 -0.34703,0.07 -0.64233,0.31293 -0.93116,0.56328 -0.28897,0.25042 -0.58162,0.51842 -0.91344,0.6606 -0.3317,0.14223 -0.70892,0.15112 -1.18454,-0.10328 -1.01766,-0.35314 -2.13503,-1.02277 -3.19383,-1.30094 -0.52939,-0.13909 -1.0547,-0.17642 -1.54241,-0.0274 -0.48778,0.14907 -0.94276,0.48652 -1.35436,1.10344 -0.28384,0.16319 -0.50996,0.63672 -0.73957,1.22145 -0.22972,0.58472 -0.45087,1.27224 -0.66764,1.83121 -0.21682,0.55887 -0.44182,0.98519 -0.68705,1.07101 -0.24514,0.0858 -0.52251,-0.16654 -0.83751,-1.00132 -0.3873,0.2848 -0.8615,0.37022 -1.37798,0.37437 -0.51653,0.004 -1.05918,-0.0624 -1.59133,-0.12911 -0.53214,-0.0663 -1.04202,-0.12094 -1.47618,-0.0496 -0.43417,0.0715 -0.78771,0.25909 -1.01056,0.67847 -0.18386,0.4418 -0.54233,0.60106 -0.93988,0.62529 -0.39754,0.0238 -0.83198,-0.0934 -1.26881,-0.17825 -0.43677,-0.0848 -0.86502,-0.12067 -1.16669,-0.006 -0.0802,0.0304 -0.0693,0.20729 -0.13204,0.26553 0,0 0,0 0,0 -0.17372,0.16108 -0.36204,0.28165 -0.35632,0.73888 1.8e-4,0.29665 -0.0708,0.47508 -0.2064,0.57053 -0.13589,0.0955 -0.34055,0.12877 -0.55213,0.11174 -0.42312,-0.0337 -0.9377,-0.20218 -1.30404,-0.15205 -1.68309,-1.08632 -3.24002,-2.50418 -4.87416,-3.71449 -1.45641,0.77764 -2.90914,1.54362 -4.36557,2.32131 -0.0208,0.0191 -0.0452,0.004 -0.0663,0.0224 -0.0391,0.31444 -0.13718,0.6171 -0.13057,0.92827 0.0162,0.75746 0.2234,1.47548 0.78258,2.06663 0.44302,0.53608 1.03379,0.95889 1.56771,1.41941 0.53381,0.46057 0.99592,0.9554 1.18378,1.68108 0.18269,0.41143 0.26062,0.8457 0.2326,1.26348 -0.0269,0.41787 -0.16935,0.8285 -0.35953,1.21178 -0.38049,0.76649 -1.02974,1.41988 -1.76809,1.80265 -0.34834,0.43 -0.79307,0.89121 -1.1725,1.38158 -0.37944,0.49035 -0.70442,0.99705 -0.7213,1.53958 0.18173,0.42927 0.61291,0.8528 0.89124,1.29292 0.13922,0.22003 0.24956,0.46901 0.28005,0.702 0.0304,0.23301 -0.0299,0.47696 -0.19718,0.72967 -0.41623,0.57466 -0.93306,1.01442 -1.52164,1.3956 -0.58847,0.38112 -1.24499,0.69399 -1.8982,0.93229 -0.55804,0.25564 -0.85171,0.7212 -0.89876,1.23072 -0.0474,0.50945 0.13662,1.06426 0.58669,1.43947 0.21499,0.26507 0.31175,0.53721 0.3244,0.83445 0.0132,0.29727 -0.0431,0.62467 -0.0991,0.93277 -0.056,0.30809 -0.10336,0.6043 -0.0951,0.90186 0.008,0.29738 0.0832,0.59546 0.28918,0.86102 0.29631,0.52088 0.76664,1.01322 1.13936,1.54862 0.0542,0.0779 0.0102,0.18102 0.058,0.26061 l 0.58789,0.0826 0.76012,-0.0193 1.25085,0.0815 0.30962,0.0429 0.95871,-0.086 0.40234,0.0566 0.0927,0.0148 2.656,-0.0374 0.50821,-0.0228 0.12384,0.0167 0.18584,0.0254 0.5434,-0.0498 0.94145,0.0378 0.40234,0.0565 0.53909,-0.0194 0.41964,-0.0674 1.17112,-0.0244 0.21655,0.0307 0.11029,-0.11075 0.40225,0.0565 3.38085,-0.0298 0.21663,0.0307 0.74216,-0.11667 0.63197,-0.006 0.0927,0.0148 0.12384,0.0168 0.95893,-0.086 0.0927,0.0148 0.41536,-0.0362 0.12388,0.0167 0.0927,0.0148 0.21654,0.0308 1.26831,-0.0423 0.63195,-0.006 0.83512,-0.10349 1.25086,0.0815 0.1412,-0.10643 0.72474,0.007 1.15813,0.0676 1.26828,-0.0423 1.59068,-0.0924 0.63196,-0.006 0.0169,-0.12384 0.11888,-0.17252 0.0927,0.0148 0.0168,-0.12384 0.0148,-0.0928 0.0148,-0.0927 0.23397,-0.0932 0.11893,-0.17255 0.24712,-0.18622 0.0148,-0.0926 0.017,-0.12387 0.21664,0.0307 0.0926,0.0148 0.0927,0.0148 0.13681,-0.0753 0.10597,-0.0798 0.0169,-0.12386 0.0148,-0.0926 0.22969,-0.0626 0.0927,0.0148 0.43278,-0.16001 0.12385,0.0168 0.12321,-0.20355 0.10588,-0.0799 0.12387,0.0168 0.10592,-0.0799 0.23408,-0.0932 0.10585,-0.0797 0.10587,-0.0798 0.0169,-0.12386 0.12384,0.0167 0.0148,-0.0927 0.32263,-0.0494 0.0925,0.0148 0.0927,0.0148 0.14115,-0.10643 0.0927,0.0148 0.21663,0.0307 0.0928,0.0148 0.40236,0.0565 0.12384,0.0168 0.0927,0.0148 0.2296,-0.0625 0.10596,-0.0797 0.0927,0.0148 0.12384,0.0168 0.18566,0.0254 0.14117,-0.10633 0.10595,-0.0799 0.33992,-0.17317 0.0148,-0.0926 0.12321,-0.20353 0.12385,0.0168 0.33566,-0.14225 0.11019,-0.11076 0.0927,0.0148 0.12387,0.0168 0.0148,-0.0926 0.0928,0.0148 0.0148,-0.0926 0.11024,-0.11073 0.12385,0.0167 0.44577,-0.25302 0.0927,0.0148 0.0148,-0.0926 0.12386,0.0167 0.0927,0.0148 0.32249,-0.0493 0.0169,-0.12386 0.0926,0.0148 0.22964,-0.0625 0.0927,0.0148 0.13685,-0.0755 0.20317,-0.0977 0.22962,-0.0623 0.10586,-0.0798 0.12386,0.0168 0.11028,-0.11072 0.22973,-0.0624 0.43271,-0.16014 0.0148,-0.0927 0.0927,0.0148 0.12384,0.0168 0.3224,-0.0493 0.18587,0.0254 0.14116,-0.10634 0.0927,0.0148 0.22962,-0.0623 0.18587,0.0254 0.0148,-0.0926 0.0168,-0.12386 0.13685,-0.0753 0.0148,-0.0927 0.0169,-0.12387 0.0148,-0.0927 -0.12382,-0.0168 0.0148,-0.0927 0.0169,-0.12384 0.0254,-0.18566 -0.0928,-0.0148 0.0168,-0.12385 0.10595,-0.0799 0.13683,-0.0755 0.0169,-0.12381 0.0927,0.0148 0.0254,-0.18566 0.11016,-0.11072 0.14988,-0.16838 0.0309,-0.21652 0.0307,-0.21657 0.0148,-0.0926 -0.12382,-0.0167 0.0148,-0.0926 0.017,-0.12386 0.22968,-0.0624 0.10596,-0.0797 0.14117,-0.10643 0.0927,0.0148 0.0148,-0.0926 -0.0623,-0.2297 0.10584,-0.0797 0.0927,0.0148 -0.0148,0.0926 0.12386,0.0168 0.10595,-0.0797 0.0927,0.0148 0.12385,0.0168 0.10583,-0.0797 0.41975,-0.0672 -0.0168,0.12387 0.12381,0.0168 0.17257,0.11892 0.13682,-0.0754 0.11027,-0.11075 0.11903,-0.17272 0.23398,-0.0933 0.21653,0.0308 0.0927,0.0148 0.0926,0.0148 0.0148,-0.0927 0.12388,0.0168 0.0148,-0.0927 0.20296,-0.0976 0.12386,0.0168 0.19883,-0.0668 0.3398,-0.17319 0.22973,-0.0623 0.0927,0.0148 0.0148,-0.0926 0.0169,-0.12385 0.21654,0.0307 0.0148,-0.0928 0.10588,-0.0799 0.12385,0.0168 0.0168,-0.12386 0.0927,0.0148 0.0148,-0.0927 0.0148,-0.0927 0.0927,0.0148 0.0168,-0.12383 0.0148,-0.0928 -0.0798,-0.10595 0.0169,-0.12385 0.0148,-0.0927 0.0927,0.0148 0.0148,-0.0927 0.14116,-0.10633 0.0148,-0.0926 0.0148,-0.0928 0.0928,0.0148 0.0168,-0.12385 -0.0797,-0.10583 0.0148,-0.0926 -0.12383,-0.0167 0.0307,-0.21663 0.0148,-0.0926 0.0168,-0.12387 0.0148,-0.0926 -0.0926,-0.0148 -0.0799,-0.10586 -0.10643,-0.14119 0.0254,-0.18585 0.0168,-0.12384 0.0148,-0.0927 0.12384,0.0168 0.0927,0.0148 0.0148,-0.0927 0.11027,-0.1107 0.12384,0.0167 0.10587,-0.0799 0.0927,0.0148 0.0148,-0.0927 0.12384,0.0168 0.0168,-0.12389 0.0148,-0.0927 0.0148,-0.0926 0.0168,-0.12385 0.10595,-0.0799 0.0927,0.0148 0.12384,0.0167 0.32243,-0.0493 0.0168,-0.12387 0.0928,0.0148 -0.0168,0.12386 0.0928,0.0148 0.0169,-0.12383 0.12384,0.0168 0.0927,0.0148 0.0148,-0.0926 0.0148,-0.0927 0.0927,0.0148 0.15424,-0.19931 0.0148,-0.0926 0.11029,-0.11074 0.21665,0.0308 0.0926,0.0148 0.0148,-0.0927 0.0565,-0.40235 0.23398,-0.0933 0.16836,0.14989 0.0169,-0.12386 0.0148,-0.0926 0.0148,-0.0927 0.0309,-0.21664 -0.0799,-0.10598 -0.0755,-0.13682 0.0254,-0.18568 0.0927,0.0148 0.11028,-0.11074 0.0148,-0.0928 -0.0927,-0.0148 -0.0799,-0.10597 -0.0933,-0.23396 0.12384,0.0169 -0.0934,-0.23399 0.0148,-0.0927 -0.0623,-0.22971 0.0148,-0.0926 0.0148,-0.0927 0.11017,-0.11073 0.13687,-0.0755 0.0927,0.0148 0.24713,-0.18623 0.10585,-0.0798 0.10584,-0.0797 0.21664,0.0309 0.11031,-0.11075 0.13683,-0.0755 0.10585,-0.0799 0.11018,-0.11073 0.0148,-0.0927 0.13684,-0.0754 0.0928,0.0148 0.23407,-0.0933 0.22906,-0.28348 0.13682,-0.0754 0.21622,-0.19046 0.0148,-0.0927 0.22961,-0.0624 0.0169,-0.12385 0.0927,0.0148 0.0148,-0.0926 0.13682,-0.0755 0.0927,0.0148 0.0168,-0.12385 0.33561,-0.1423 0.11016,-0.11073 0.14987,-0.16818 0.0927,0.0148 0.11029,-0.11073 0.12384,0.0168 0.0148,-0.0928 0.0926,0.0148 0.0148,-0.0926 0.11021,-0.11075 0.12384,0.0168 0.1988,-0.0667 0.0148,-0.0927 0.0166,-0.12383 0.22961,-0.0623 0.0927,0.0148 0.12384,0.0168 0.0148,-0.0928 0.0169,-0.12387 0.10595,-0.0797 0.0927,0.0148 0.13682,-0.0753 0.20296,-0.0977 0.12386,0.0168 0.10597,-0.0798 0.10597,-0.0799 0.23396,-0.0932 0.0927,0.0148 0.0148,-0.0927 0.3226,-0.0492 0.56952,-0.23563 0.1103,-0.11075 0.12383,0.0168 0.0927,0.0148 0.24266,-0.15515 0.20318,-0.0977 0.12382,0.0168 0.2291,-0.28348 0.0148,-0.0926 0.13682,-0.0753 0.20315,-0.0977 0.13684,-0.0755 0.0148,-0.0926 0.0168,-0.12385 0.0148,-0.0926 0.10583,-0.0798 0.11017,-0.11076 0.26019,-0.27911 0.10596,-0.0798 0.71896,-0.62475 0.73632,-0.74859 0.36591,-0.35877 0.99651,-1.02761 0.10595,-0.0797 0.15423,-0.19927 0.10587,-0.0799 0.11018,-0.11076 0.14987,-0.16818 0.21622,-0.19057 0.0148,-0.0927 0.72329,-0.65571 0.36589,-0.3588 0.26017,-0.27901 1.72849,-1.7451 0.0169,-0.12386 -0.11072,-0.1103 -0.0927,-0.0148 -0.10597,0.0799 -0.0166,0.12383 -0.12382,-0.0168 -0.0928,-0.0148 -0.0148,0.0926 -0.0928,-0.0148 0.0148,-0.0927 -0.12381,-0.0167 -0.13634,0.2963 -0.0927,-0.0148 -0.12386,-0.0168 0.0169,-0.12385 -0.0927,-0.0148 -0.0927,-0.0148 -0.14117,0.10643 -0.16838,-0.1499 0.0148,-0.0926 -0.12384,-0.0167 -0.0928,-0.0148 -0.0148,0.0927 0.0927,0.0148 -0.0309,0.21663 -0.0148,0.0927 -0.0927,-0.0148 0.0148,-0.0927 -0.0926,-0.0148 -0.12386,-0.0168 -0.0926,-0.0148 0.0148,-0.0927 -0.0926,-0.0148 0.0168,-0.12386 -0.19047,-0.21602 -0.0927,-0.0148 -0.12388,-0.017 -0.10593,0.0797 -0.0927,-0.0148 -0.13682,0.0755 -0.0927,-0.0148 -0.0927,-0.0148 0.0148,-0.0927 0.0148,-0.0926 -0.12386,-0.0167 -0.19879,0.0667 -0.0148,0.0927 -0.0167,0.12382 -0.12384,-0.0169 -0.0148,0.0927 -0.0926,-0.0148 -0.0797,-0.10595 0.0168,-0.12384 0.0148,-0.0926 -0.12385,-0.0168 -0.17272,-0.11895 0.0168,-0.12385 0.3226,-0.0494 0.0926,0.0148 0.0148,-0.0927 0.0168,-0.12383 -0.0927,-0.0148 0.0148,-0.0927 0.0148,-0.0926 -0.10643,-0.14116 -0.0927,-0.0148 -0.21661,-0.0309 -0.0927,-0.0148 -0.0169,0.12386 -0.21656,-0.0308 0.0169,-0.12387 0.0254,-0.18583 -0.0755,-0.13685 -0.0927,-0.0148 -0.12383,-0.0168 0.0148,-0.0927 0.0148,-0.0927 0.0168,-0.12381 -0.0927,-0.0148 -0.0927,-0.0148 -0.0167,0.12382 -0.12386,-0.0167 -0.0754,-0.13686 0.0148,-0.0927 0.10596,-0.0799 0.14117,-0.10644 -0.11072,-0.11015 -0.0798,-0.10588 0.0169,-0.12385 0.0148,-0.0927 -0.0927,-0.0148 -0.12383,-0.0168 -0.0148,0.0926 -0.1102,0.11075 0.0797,0.10585 -0.0148,0.0927 0.10643,0.14118 -0.0148,0.0926 -0.13683,0.0755 -0.18568,-0.0254 -0.12385,-0.0168 -0.11027,0.11071 -0.0927,-0.0148 0.017,-0.12388 -0.11074,-0.1103 0.0148,-0.0926 0.0169,-0.12385 -0.0799,-0.10587 -0.0927,-0.0148 -0.0933,-0.23395 -0.28345,-0.22929 -0.10587,0.08 -0.10585,0.0799 -0.12385,-0.0168 -0.0928,-0.0148 -0.0927,-0.0148 -0.11071,-0.11029 -0.0927,-0.0148 -0.0797,-0.10595 -0.12384,-0.0168 0.0168,-0.12384 -0.0926,-0.0148 -0.0168,0.12387 -0.10596,0.0799 -0.11073,-0.11027 0.0307,-0.21655 -0.0927,-0.0148 0.0148,-0.0926 0.0167,-0.12385 -0.0927,-0.0148 -0.11074,-0.11026 0.0148,-0.0927 0.14119,-0.10643 0.0148,-0.0928 -0.12385,-0.0167 0.0148,-0.0928 -0.0928,-0.0148 -0.0926,-0.0148 -0.10644,-0.14118 0.0148,-0.0928 0.0148,-0.0926 -0.18564,-0.0254 0.0308,-0.21652 -0.11071,-0.11019 0.0168,-0.12385 -0.18585,-0.0254 -0.11073,-0.11029 0.15422,-0.19928 0.10595,-0.0797 0.0148,-0.0928 0.0168,-0.12387 0.10597,-0.0799 0.0148,-0.0926 -0.0927,-0.0148 -0.22972,0.0623 -0.0926,-0.0148 0.0148,-0.0927 0.11019,-0.11078 0.0148,-0.0926 -0.0926,-0.0148 -0.10585,0.0797 -0.12387,-0.0168 0.0148,-0.0927 0.0148,-0.0928 -0.0756,-0.13682 -0.21663,-0.0307 -0.0798,-0.10597 -0.0797,-0.10592 -0.12386,-0.0168 -0.0926,-0.0148 0.0166,-0.12384 -0.0927,-0.0148 -0.12384,-0.0168 -0.0927,-0.0148 0.0148,-0.0926 0.0148,-0.0927 -0.0927,-0.0148 -0.0934,-0.23406 -0.0927,-0.0148 -0.0148,0.0926 -0.11028,0.11072 -0.0148,0.0927 -0.12382,-0.0168 -0.0927,-0.0148 0.0148,-0.0927 0.12322,-0.20363 -0.0623,-0.22971 -0.0798,-0.10585 -0.12385,-0.0168 0.0148,-0.0927 -0.0754,-0.13684 0.0148,-0.0926 -0.0927,-0.0148 -0.12385,-0.0167 0.0148,-0.0927 0.0169,-0.12386 0.0148,-0.0926 -0.0927,-0.0148 -0.0927,-0.0148 0.0148,-0.0927 0.0928,0.0148 0.23395,-0.0933 0.0148,-0.0927 -0.12386,-0.0168 -0.0927,-0.0148 0.0148,-0.0928 -0.0927,-0.0148 0.0309,-0.21656 0.0148,-0.0926 -0.12382,-0.0167 -0.0927,-0.0148 -0.0755,-0.13685 -0.12388,-0.0168 0.0148,-0.0926 0.0148,-0.0927 -0.0927,-0.0148 -0.19918,-0.15422 -0.0798,-0.10587 -0.0927,-0.0148 -0.12386,-0.0167 -0.0798,-0.10587 -0.0927,-0.0148 -0.0148,0.0927 0.0623,0.22963 -0.0148,0.0927 -0.0927,-0.0148 -0.12384,-0.0168 0.0148,-0.0926 0.0167,-0.12387 0.0148,-0.0926 -0.0928,-0.0148 -0.0927,-0.0148 -0.11074,-0.11018 0.15425,-0.19928 -0.12386,-0.0168 -0.18563,-0.0254 -0.12386,-0.0168 -0.0798,-0.10595 0.0169,-0.12388 0.0927,0.0148 0.12383,0.0168 0.0148,-0.0927 -0.12385,-0.0168 0.0148,-0.0927 -0.0927,-0.0148 0.0169,-0.12385 0.0927,0.0148 0.12386,0.0168 0.0926,0.0148 0.0148,-0.0927 0.12322,-0.20361 0.13683,-0.0752 0.0148,-0.0927 -0.21651,-0.0309 -0.0928,-0.0148 0.0168,-0.12383 0.0148,-0.0926 0.0148,-0.0928 0.30944,0.0429 0.0167,-0.12386 0.0148,-0.0925 0.0148,-0.0928 -0.10643,-0.14118 -0.0927,-0.0148 -0.11018,0.11076 -0.12386,-0.0168 -0.0927,-0.0148 0.0169,-0.12385 0.0148,-0.0927 -0.0798,-0.10595 -0.21654,-0.0309 -0.0927,-0.0148 -0.12384,-0.0169 -0.10595,0.0799 -0.0927,-0.0148 0.0148,-0.0928 0.0168,-0.12385 -0.12386,-0.0169 -0.0797,-0.10585 -0.0623,-0.22961 0.0255,-0.18586 -0.12385,-0.0167 -0.0755,-0.13686 -0.0798,-0.10585 -0.11076,-0.11018 0.0168,-0.12387 0.0148,-0.0928 -0.0927,-0.0148 0.0148,-0.0928 -0.0926,-0.0148 0.0309,-0.21654 -0.12385,-0.0168 0.0148,-0.0926 0.0168,-0.12384 -0.0927,-0.0148 0.0148,-0.0926 -0.21664,-0.0307 -0.15512,-0.24274 -0.12386,-0.0167 -0.29651,-0.13625 0.0148,-0.0927 0.0169,-0.12384 -0.0492,-0.32261 -0.0927,-0.0148 -0.12385,-0.0168 0.0148,-0.0926 -0.0927,-0.0148 -0.0799,-0.10586 -0.12386,-0.0168 -0.0927,-0.0148 -0.0927,-0.0148 -0.12389,-0.0169 0.0167,-0.12388 -0.0667,-0.1988 -0.0927,-0.0148 -0.12384,-0.0167 -0.0927,-0.0148 0.0169,-0.12384 -0.0927,-0.0148 0.0148,-0.0926 -0.0933,-0.23398 0.0254,-0.18586 -0.15533,-0.24269 0.10594,-0.0798 0.32686,-0.0803 0.0927,0.0148 0.12384,0.0168 0.0927,0.0148 0.0148,-0.0926 0.14943,-0.3892 0.0309,-0.21665 0.0148,-0.0927 0.017,-0.12383 -0.0363,-0.41533 0.0148,-0.0927 -0.0927,-0.0148 -0.12386,-0.0169 -0.0754,-0.13684 -0.0667,-0.19863 0.0167,-0.12384 0.11895,-0.17271 0.0168,-0.12386 0.30951,0.043 0.0928,0.0148 0.13682,-0.0754 0.0148,-0.0927 0.0169,-0.12384 0.13623,-0.29653 -0.0668,-0.19862 0.0168,-0.12384 -0.11074,-0.11028 0.0148,-0.0927 -0.0623,-0.22963 -0.0799,-0.10586 0.0169,-0.12388 0.11901,-0.17271 0.11029,-0.11071 0.0148,-0.0926 0.0148,-0.0927 -0.0926,-0.0148 -0.0624,-0.22972 0.0148,-0.0927 -0.19918,-0.15424 -0.0797,-0.10582 -0.12383,-0.0168 -0.0798,-0.10587 -0.0756,-0.13684 0.0255,-0.18585 0.0168,-0.12386 0.0148,-0.0926 0.0148,-0.0927 0.0168,-0.12383 0.0148,-0.0927 -0.0933,-0.23406 z"
       id="KY-05"
       style="font-style:normal;font-weight:400;font-size:34.375px;font-family:'MS Shell Dlg 2';opacity:1;fill:none;fill-opacity:1;fill-rule:evenodd;stroke:#000000;stroke-width:0.33333385;stroke-linecap:square;stroke-linejoin:bevel;stroke-miterlimit:4;stroke-dasharray:none;stroke-opacity:1" />
    <path
       inkscape:connector-curvature="0"
       d="m 542.09546,454.51365 c -0.0881,0.0916 -0.11019,0.23151 -0.20254,0.3187 -0.40884,0.1527 -0.66926,0.35735 -0.84275,0.60743 -0.17349,0.24999 -0.26666,0.53367 -0.27646,0.84474 -0.0201,0.62202 0.21139,1.33482 0.41542,1.98332 0.4177,0.27499 1.13518,0.39563 1.8437,0.35384 0.70862,-0.0422 1.41917,-0.24992 1.81951,-0.59638 0.28325,-0.5871 0.5881,-0.88869 0.9036,-1.04057 0.31554,-0.15196 0.63734,-0.16187 0.96318,-0.11709 0.32581,0.0449 0.64494,0.13185 0.95928,0.13489 0.31445,0.002 0.61967,-0.0693 0.90081,-0.34682 0.29328,-0.10214 0.40631,0.31442 0.51888,0.79881 0.11257,0.48428 0.24197,1.02324 0.62137,1.1918 0.005,0.38714 0.12776,0.60918 0.31103,0.70645 0.18329,0.0971 0.43214,0.0788 0.66731,-0.0324 0.23507,-0.11126 0.45265,-0.30711 0.61304,-0.54499 0.16039,-0.23799 0.24687,-0.50851 0.20596,-0.79166 0.30934,-0.4579 0.32031,-1.35075 0.43737,-1.98969 0.0586,-0.31946 0.14067,-0.56027 0.31671,-0.68135 0.17596,-0.12098 0.43171,-0.12236 0.83549,0.11743 0.43776,0.31983 0.57685,0.97052 0.49861,1.61642 -0.0783,0.64588 -0.38859,1.2933 -0.8005,1.65468 -0.32642,0.49761 -0.47276,0.83846 -0.53226,1.09286 -0.0595,0.25431 -0.0228,0.42518 0.0498,0.54344 0.1456,0.23654 0.42052,0.30457 0.28872,0.64022 0.23303,0.25541 0.68622,0.97042 1.12563,1.42047 0.21985,0.22498 0.46004,0.39558 0.63747,0.40504 0.17729,0.009 0.31525,-0.1314 0.3876,-0.51345 0.2681,-0.18872 0.5387,-0.182 0.79546,-0.0457 0.25681,0.13598 0.49148,0.39042 0.72199,0.70102 0.46101,0.62131 0.86158,1.44133 1.12674,1.86253 0.40393,0.69345 0.72932,1.46497 1.14516,2.1806 0.29762,0.51211 0.7365,0.89238 1.17844,1.27007 0.0628,-0.0583 0.0519,-0.23506 0.13202,-0.26552 0.30168,-0.11455 0.72994,-0.0786 1.1667,0.006 0.43683,0.0848 0.8713,0.20251 1.26884,0.17827 0.39753,-0.0239 0.75597,-0.18348 0.93988,-0.62531 0.22279,-0.41934 0.57637,-0.60696 1.01053,-0.67845 0.43416,-0.0715 0.94409,-0.0173 1.47613,0.0496 0.53225,0.0663 1.07487,0.133 1.59137,0.1291 0.5165,-0.004 0.99068,-0.0896 1.37799,-0.37434 0.31498,0.83477 0.59237,1.08712 0.83752,1.00131 0.24522,-0.0858 0.47024,-0.51215 0.68703,-1.07099 0.2168,-0.559 0.43792,-1.2465 0.66762,-1.83121 0.22962,-0.58476 0.45574,-1.05829 0.73962,-1.22148 0.41156,-0.61689 0.86655,-0.95437 1.35435,-1.10342 0.48771,-0.1492 1.01299,-0.1117 1.54239,0.0274 1.05881,0.27819 2.17616,0.9478 3.19386,1.30094 0.47559,0.25449 0.8528,0.24559 1.18453,0.10319 0.33182,-0.1422 0.62447,-0.41018 0.91341,-0.6606 0.28888,-0.25034 0.58414,-0.49319 0.93118,-0.5633 0.34702,-0.0702 0.72778,0.0274 1.23402,0.42591 0.83663,0.40183 1.31083,0.42848 1.51632,0.21306 0.20547,-0.21549 0.14801,-0.68436 -0.0512,-1.2065 -0.39869,-1.04413 -1.38002,-2.37275 -2.03921,-2.77954 -1.17319,-0.20506 -1.79815,-0.38614 -2.25083,-0.60041 -0.4527,-0.2142 -0.72046,-0.46257 -1.17753,-0.82813 0.0687,-0.51848 0.48909,-1.24546 0.84851,-1.99513 0.17962,-0.37475 0.36407,-0.74013 0.4394,-1.10582 0.0754,-0.36566 0.043,-0.74413 -0.10404,-1.05596 -0.16117,-0.58058 -0.59719,-1.04134 -1.11707,-1.48248 -0.51984,-0.44105 -1.12152,-0.84996 -1.6161,-1.29999 -0.49444,-0.45009 -0.864,-0.94624 -0.94923,-1.55352 -0.0425,-0.30367 -0.0238,-0.62383 0.10857,-0.99457 0.1317,-0.37077 0.35899,-0.80033 0.71306,-1.25669 0.45481,-0.86593 1.01321,-2.37814 1.72494,-3.29196 0.13936,-0.17896 0.32818,-0.15606 0.48108,-0.27956 l -0.39945,-0.75042 -2.41914,-0.75028 -0.43247,-1.63853 -1.11113,-0.85052 -4.83893,2.09697 -1.88543,-1.1801 -0.8318,-2.38901 c -0.53898,-0.0585 -1.10478,-0.31016 -1.61832,-0.38518 -0.25676,-0.0385 -0.50154,-0.0401 -0.73356,0.0546 -0.23196,0.0943 -0.42704,0.2904 -0.62171,0.60688 -0.48967,0.3844 -0.92191,0.76564 -1.15074,1.22678 -0.22881,0.46114 -0.2787,1.00955 -0.014,1.67065 -0.72156,0.14336 -1.23,0.55502 -1.66803,1.09088 -0.43817,0.53593 -0.80084,1.17203 -1.16279,1.76158 -0.0481,0.28472 0.18652,0.88587 0.21097,1.41817 0.0126,0.26608 -0.0251,0.51346 -0.16193,0.703 -0.13735,0.18964 -0.37396,0.31261 -0.77263,0.33332 -0.34522,0.31381 -0.70803,0.46377 -1.04626,0.4841 -0.33831,0.0198 -0.64762,-0.0876 -0.90673,-0.28526 -0.25906,-0.19706 -0.47288,-0.46927 -0.58068,-0.80737 -0.10786,-0.33823 -0.11393,-0.73288 0.002,-1.13581 -0.15308,-0.74666 -0.69301,-1.17791 -1.22342,-1.62368 -0.53046,-0.44564 -1.04708,-0.9127 -1.21911,-1.65446 -0.76073,0.28814 -1.56008,1.55181 -2.3595,2.19297 -0.62153,0.45918 -0.97417,1.12882 -1.68925,1.46669 -0.28464,0.23486 -0.58712,0.42188 -0.89156,0.50583 -0.30446,0.0841 -0.60374,0.0722 -0.96807,-0.0726 -0.52211,0.17825 -0.93236,-0.18709 -1.29587,-0.43458 -0.18173,-0.12371 -0.36912,-0.20597 -0.53962,-0.20208 -0.17053,0.004 -0.32014,0.11592 -0.49846,0.40326 -0.33016,0.0591 -0.57858,0.18709 -0.74605,0.36856 -0.1675,0.18146 -0.27936,0.4199 -0.34764,0.677 -0.13661,0.51409 -0.11432,1.13515 -0.23469,1.67098 0.18006,1.23632 0.0156,2.48113 -0.41592,3.6338 -0.38731,1.03424 -1.06696,1.94069 -1.83674,2.73973 z"
       id="KY-06"
       style="font-style:normal;font-weight:400;font-size:34.375px;font-family:'MS Shell Dlg 2';opacity:1;fill:none;fill-opacity:1;fill-rule:evenodd;stroke:#000000;stroke-width:0.33333385;stroke-linecap:square;stroke-linejoin:bevel;stroke-miterlimit:4;stroke-dasharray:none;stroke-opacity:1" />
  </g>
</svg>
