<?xml version="1.0" encoding="UTF-8" standalone="no"?>
<!-- Created with Inkscape (http://www.inkscape.org/) -->

<svg
   xmlns:dc="http://purl.org/dc/elements/1.1/"
   xmlns:cc="http://creativecommons.org/ns#"
   xmlns:rdf="http://www.w3.org/1999/02/22-rdf-syntax-ns#"
   xmlns:svg="http://www.w3.org/2000/svg"
   xmlns="http://www.w3.org/2000/svg"
   xmlns:sodipodi="http://sodipodi.sourceforge.net/DTD/sodipodi-0.dtd"
   xmlns:inkscape="http://www.inkscape.org/namespaces/inkscape"
   width="10.674403mm"
   height="10.921475mm"
   viewBox="0 0 37.822687 38.698143"
   id="svg3885"
   version="1.1"
   inkscape:version="0.91 r"
   sodipodi:docname="13.svg">
  <defs
     id="defs3887" />
  <sodipodi:namedview
     id="base"
     pagecolor="#ffffff"
     bordercolor="#666666"
     borderopacity="1.0"
     inkscape:pageopacity="0.0"
     inkscape:pageshadow="2"
     inkscape:zoom="34.714254"
     inkscape:cx="18.299943"
     inkscape:cy="21.07037"
     inkscape:document-units="px"
     inkscape:current-layer="layer1"
     showgrid="false"
     inkscape:window-width="2560"
     inkscape:window-height="1388"
     inkscape:window-x="0"
     inkscape:window-y="0"
     inkscape:window-maximized="1"
     fit-margin-top="5"
     fit-margin-left="5"
     fit-margin-right="5"
     fit-margin-bottom="5" />
  <metadata
     id="metadata3890">
    <rdf:RDF>
      <cc:Work
         rdf:about="">
        <dc:format>image/svg+xml</dc:format>
        <dc:type
           rdf:resource="http://purl.org/dc/dcmitype/StillImage" />
        <dc:title></dc:title>
      </cc:Work>
    </rdf:RDF>
  </metadata>
  <g
     inkscape:label="Layer 1"
     inkscape:groupmode="layer"
     id="layer1"
     transform="translate(-254.2906,-407.56512)">
    <path
       inkscape:connector-curvature="0"
       d="m 316.5485,417.46792 -0.12232,0.0975 -0.32592,0.0126 -0.12116,-0.0306 -0.0909,-0.0252 -0.0907,-0.0252 -0.44698,-0.0188 -0.21293,0.0741 -0.14444,0.0594 -0.11448,0.0671 -0.24305,0.0662 -0.11452,0.0673 -0.055,0.21175 0.0674,0.11424 -0.055,0.21165 -0.0462,0.1818 -0.33393,0.0428 -0.38068,0.22424 -0.13801,0.15808 -0.14576,0.18818 -0.38069,0.22434 -0.30275,-0.0779 -0.0252,0.0903 -0.0305,0.12118 0.0441,0.20498 -0.0306,0.12115 -0.0907,-0.0252 -0.12114,-0.0305 -0.32592,0.0125 -0.0252,0.0903 -0.0551,0.21165 -0.0907,-0.0252 -0.14575,0.1882 -0.12117,-0.0305 -0.11452,0.0672 -0.0906,-0.0252 -0.18835,-0.14559 -0.15709,-0.26653 -0.31499,-0.40424 -0.0362,-0.23538 -0.0741,-0.21272 -0.0598,-0.14457 -0.18828,-0.14556 -0.0905,-0.0252 -0.0907,-0.0252 -0.12115,-0.0306 -0.0252,0.0904 -0.0908,-0.0252 -0.14578,0.18819 -0.0551,0.21168 -0.0252,0.0904 -0.12113,-0.0306 -0.0252,0.0903 -0.0906,-0.0252 -0.24314,0.0662 -0.0907,-0.0252 -0.18044,-0.17577 -0.30278,-0.0777 -0.18158,-0.0462 -0.47839,0.10217 -0.0908,-0.0252 -0.18826,-0.14548 -0.1931,-0.50192 0.0252,-0.0905 0.0551,-0.21164 -0.0908,-0.0252 -0.33387,0.0428 -0.0597,-0.14455 -0.21163,-0.055 -0.21168,-0.0551 -0.0676,-0.11436 -0.31502,-0.40425 -0.0662,-0.24303 0.0252,-0.0906 0.19927,-0.27124 0.0252,-0.0903 0.1223,-0.0976 0.0252,-0.0905 0.0907,0.0252 0.12115,0.0306 0.0906,0.0252 0.0675,0.11437 0.0428,0.33374 -0.055,0.21179 0.23623,-0.16494 0.14451,-0.0596 0.1145,-0.0672 0.29011,-0.24783 0.16917,-0.27891 0.36822,-0.55034 -0.21165,-0.055 -0.34947,0.10319 -0.12231,0.0976 -0.12112,-0.0306 -0.0908,-0.0252 -0.23522,0.036 -0.0908,-0.0252 -0.14579,0.18827 -0.14448,0.0595 -0.14578,0.18818 -0.0906,-0.0252 -0.0252,0.0904 -0.23534,0.036 -0.47147,0.20072 -0.15232,0.0897 -0.16921,0.27909 -0.33702,0.42929 -0.14579,0.18819 -0.0252,0.0903 -0.38082,0.2244 -0.44802,0.11004 -0.14447,0.0594 -0.14577,0.18831 -0.19275,0.36973 -0.23058,0.39237 -0.0906,-0.0252 -0.25866,0.12668 -0.23637,0.16488 -0.26654,0.15704 -0.0909,-0.0252 -0.0252,0.0903 -0.58012,0.49551 -0.23621,0.16482 -0.0463,0.18179 -0.41216,0.34519 -0.14452,0.0596 -0.88821,0.18986 -0.68338,0.14614 -0.54566,-0.0128 -0.47155,0.2007 -0.85133,0.29631 -0.0907,-0.0252 -0.32126,0.36893 -0.0907,-0.0252 -0.21173,-0.0551 -0.50762,-0.0341 -0.32587,0.0124 -0.68338,0.14616 -0.12115,-0.0306 -0.12231,0.0975 -0.23526,0.0359 -0.0907,-0.0252 -0.11453,0.0671 -0.21173,-0.0551 -0.24313,0.0662 -0.0907,-0.0252 -0.11451,0.0672 -0.30273,-0.0777 -0.23523,0.0361 -0.0906,-0.0252 -0.45496,0.0115 -0.0906,-0.0252 -0.11451,0.0672 -0.21172,-0.0551 -0.32601,0.0124 -0.24302,0.0662 -0.32614,0.0126 -0.11451,0.0673 -0.0908,-0.0252 -0.30281,-0.0776 -0.12113,-0.0306 -0.18157,-0.0462 -0.12115,-0.0306 -0.0907,-0.0252 -0.24315,0.0661 -0.32586,0.0124 -0.11451,0.0672 -0.0907,-0.0252 -0.35722,0.13362 -0.12117,-0.0306 -0.0252,0.0905 -0.0307,0.12115 -0.0252,0.0905 0.0427,0.33385 0.0127,0.32608 -0.0252,0.0904 -0.0306,0.12112 -1.5591,0.66202 -0.0611,-0.0151 c 0.0272,0.0309 -0.008,0.0908 0.0375,0.10652 0.14106,0.0403 0.29769,0.20496 0.0661,0.24312 -0.17473,0.045 -0.24177,0.22874 -0.23055,0.39227 -0.0188,0.22445 -0.14159,0.4471 -0.14207,0.67335 0.20395,-0.0614 0.10641,0.2048 0.0808,0.31139 -0.0636,0.16582 -0.25056,0.28461 -0.41203,0.34542 -0.10224,0.0324 -0.27872,0.16042 -0.0768,0.17371 0.11376,0.0345 0.31589,0.0524 0.17257,0.20606 -0.0935,0.14959 -0.15891,0.32682 -0.16312,0.50659 l 0.75168,-0.1607 0.21074,0.18361 0.68332,-0.14605 -0.0364,-0.23528 0.8346,-0.10705 0.14608,-0.31722 0.67554,-0.11586 -0.0358,0.63635 1.41937,-0.24615 0.15386,0.65303 0.14348,0.0694 0.0929,1.63792 -1.29163,0.37608 -0.46841,-0.18576 -0.44339,0.46633 0.0615,1.75893 0.17472,-0.0517 1.64999,-0.6384 0.26653,-0.15708 0.34943,-0.10318 0.12233,-0.0976 0.14451,-0.0596 0.3807,-0.22434 0.38086,-0.22425 1.11882,-0.58223 1.23317,-0.64932 1.84919,-0.90977 0.0907,0.0252 0.26649,-0.15709 0.0907,0.0252 0.1445,-0.0596 0.38088,-0.2243 0.70682,-0.23675 0.35721,-0.13361 0.61709,-0.38909 0.70678,-0.23686 0.50192,-0.19301 0.35725,-0.1336 0.11447,-0.0671 0.61601,-0.26038 0.2364,-0.16477 0.97331,-0.39384 0.11447,-0.067 0.15229,-0.0897 1.46841,-0.68547 0.87585,-0.51584 0.50282,-0.32197 0.63956,-0.35102 0.12229,-0.0975 0.38088,-0.22417 0.52522,-0.28386 0.38087,-0.22427 0.61707,-0.38908 0.14453,-0.0596 0.61705,-0.38909 0.14452,-0.0595 0.49497,-0.29155 0.12227,-0.0975 0.14452,-0.0596 0.23623,-0.16493 0.99686,-0.48454 0.61601,-0.26034 0.0305,-0.12114 1.23315,-0.64934 0.49508,-0.29164 0.14448,-0.0595 0.59365,-0.29848 0.50169,-0.1929 0.13804,-0.15808 0.16917,-0.27893 0.1758,-0.18053 0.0252,-0.0905 -0.18053,-0.17579 z"
       id="NY-01"
       style="font-style:normal;font-weight:400;font-size:34.375px;font-family:'MS Shell Dlg 2';opacity:1;fill:none;fill-opacity:1;fill-rule:evenodd;stroke:#000000;stroke-width:0.33333385;stroke-linecap:square;stroke-linejoin:bevel;stroke-miterlimit:4;stroke-dasharray:none;stroke-opacity:1" />
    <path
       inkscape:connector-curvature="0"
       d="m 290.09714,431.38205 -0.0615,-1.75894 0.44341,-0.46634 0.4684,0.18568 1.29162,-0.37609 -0.0929,-1.63792 -0.1435,-0.0694 -0.15387,-0.65304 -1.41936,0.24617 0.0358,-0.63637 -0.67551,0.11586 -0.14611,0.3172 -0.83458,0.10705 0.0362,0.23528 -0.68332,0.14604 -0.21072,-0.1836 -0.7517,0.16072 c -10e-4,0.0102 -10e-4,0.0209 -0.0117,0.0297 0,0 0,0 0,0 0.001,-0.0103 0.001,-0.021 0.0117,-0.0297 l -0.50864,0.0944 0.0868,0.53887 -3.11621,1.0662 0.19302,0.50181 -1.25144,0.096 -0.11108,-0.3193 -1.06886,0.0141 0.0945,0.50856 0.36362,0.96549 0.6677,-0.0856 0.13247,0.48625 -0.21292,0.0741 0.014,0.19721 -0.11453,0.0672 0.20769,0.57016 0.28898,-0.11893 0.0724,1.3422 0.65315,-0.15397 0.50169,-0.19294 0.71467,-0.26717 0.85238,-0.42515 0.68332,-0.14593 0.0597,0.14454 0.18826,0.14546 -0.0252,0.0904 0.98583,-0.0677 0.47156,-0.20091 0.59258,-0.16944 0.0907,0.0252 0.1445,-0.0595 0.35744,-0.13358 0.56229,-0.17725 0.14453,-0.0597 0.11453,-0.0673 0.0679,-0.0148 z"
       id="NY-02"
       style="font-style:normal;font-weight:400;font-size:34.375px;font-family:'MS Shell Dlg 2';opacity:1;fill:none;fill-opacity:1;fill-rule:evenodd;stroke:#000000;stroke-width:0.33333385;stroke-linecap:square;stroke-linejoin:bevel;stroke-miterlimit:4;stroke-dasharray:none;stroke-opacity:1" />
    <path
       inkscape:connector-curvature="0"
       d="m 276.0892,427.75936 c -0.0349,0.0426 -0.0403,0.1532 -0.0991,0.1357 -0.17453,-0.0469 -0.36873,-0.1047 -0.54465,-0.14096 -0.17044,0.11867 -0.008,0.35952 -0.0717,0.53017 -0.0112,0.0294 -0.0151,0.061 -0.0252,0.0904 0.0753,0.0148 0.13679,0.0386 0.21166,0.055 0.19781,0.001 0.40242,0.18609 0.59042,0.0882 0.1613,-0.097 0.31522,-0.0953 0.49298,-0.0338 0.16544,0.10562 0.2538,0.3219 0.39803,0.45795 0.0968,0.13038 0.41413,0.23748 0.30717,0.43455 -0.0806,0.13584 -0.17249,0.21569 -0.2753,0.31614 l 0.58944,0.21696 c 0.0867,-0.0358 0.15856,-0.0679 0.22053,-0.10439 0.0611,-0.0359 0.11914,-0.0733 0.16016,-0.11992 0.0322,-0.0365 0.01,-0.15378 0.0253,-0.21956 0.0272,-0.10278 9.1e-4,-0.14962 -0.0363,-0.23527 -0.01,-0.0231 0.0447,-0.17448 0.0551,-0.21166 l 1.69949,-0.20605 1.11894,-0.58219 0.39896,0.32921 0.11689,0.54665 1.06885,-0.0141 0.11108,0.31928 1.25144,-0.096 -0.19302,-0.5018 3.11622,-1.06625 -0.0867,-0.53885 0.50863,-0.0944 c 0.004,-0.17977 0.0689,-0.35717 0.1631,-0.50659 0.14344,-0.15431 -0.0591,-0.17144 -0.17258,-0.20607 -0.2014,-0.0153 -0.0255,-0.14149 0.0771,-0.17365 0.16146,-0.0608 0.34856,-0.17957 0.412,-0.34545 0.0281,-0.10602 0.12321,-0.37265 -0.0806,-0.31136 9.8e-4,-0.22623 0.1263,-0.44818 0.14207,-0.67335 -0.0115,-0.1636 0.0547,-0.34739 0.23056,-0.39228 0.23145,-0.0382 0.0753,-0.20325 -0.0661,-0.24313 -0.0422,-0.0165 -0.01,-0.0752 -0.0376,-0.10653 l -0.0602,-0.0151 -0.0252,0.0903 -1.36834,-0.45068 -0.2117,-0.055 -0.21164,-0.055 -0.20508,0.0438 -0.12115,-0.0306 -0.0908,-0.0252 -0.24303,0.0662 -0.0252,0.0903 -0.0907,-0.0252 -0.0908,-0.0252 -0.27894,-0.16898 -0.18056,-0.17581 -0.43605,-0.43545 -0.0908,-0.0252 -0.0306,0.12117 -0.046,0.18161 -0.0306,0.12115 0.11011,0.44815 -0.17579,0.18042 -0.32612,0.0125 -0.0907,-0.0252 -0.0675,-0.11434 0.0306,-0.12116 -0.18838,-0.14549 -0.0906,-0.0252 -0.23519,0.036 -0.21166,-0.055 -0.30274,-0.0777 -0.15799,-0.13758 -0.17576,0.18042 -0.004,0.51536 -0.15231,0.0897 -0.2286,0.13469 -0.12114,-0.0306 -0.12231,0.0975 -0.1145,0.0672 -0.47841,0.10216 -0.15015,-0.16794 -0.21174,-0.055 -0.12231,0.0975 -0.23522,0.0362 -0.11449,0.0672 -0.0306,0.12115 -0.14446,0.0593 -0.38086,0.2243 -0.0909,-0.0252 -0.0907,-0.0252 -0.14452,0.0596 -0.0907,-0.0252 -0.055,0.21164 -0.14578,0.18821 -0.168,0.15034 0.0115,0.45474 -0.25872,0.12687 -0.0905,-0.0252 -0.0306,0.12115 -0.87644,-0.35577 -0.26648,0.15698 -0.0252,0.0904 0.0597,0.14454 -0.0252,0.0904 -0.16919,0.27903 -0.16921,0.27901 -0.17582,0.18055 -0.0252,0.0904 -0.0252,0.0903 -0.0306,0.12115 -0.0776,0.30278 -0.13795,0.15788 -0.14579,0.18829 -0.12116,-0.0306 -0.0675,-0.11437 -0.0222,-0.0378 z"
       id="NY-03"
       style="font-style:normal;font-weight:400;font-size:34.375px;font-family:'MS Shell Dlg 2';opacity:1;fill:none;fill-opacity:1;fill-rule:evenodd;stroke:#000000;stroke-width:0.33333385;stroke-linecap:square;stroke-linejoin:bevel;stroke-miterlimit:4;stroke-dasharray:none;stroke-opacity:1" />
    <path
       inkscape:connector-curvature="0"
       d="m 282.93566,433.11288 -0.0724,-1.34218 -0.289,0.11892 -0.20766,-0.57016 0.11454,-0.0673 -0.014,-0.19719 0.21292,-0.0741 -0.13247,-0.48627 -0.6677,0.0856 -0.36364,-0.9655 -0.0945,-0.50857 0,0 -0.11683,-0.54666 -0.39901,-0.32919 -1.1189,0.58217 -1.69953,0.20606 c -0.0124,0.0371 -0.0641,0.18874 -0.055,0.21165 0.0347,0.0852 0.0628,0.13235 0.0362,0.23527 -0.0156,0.066 0.007,0.18326 -0.0253,0.21955 -0.0411,0.0466 -0.0993,0.0842 -0.16013,0.11993 -0.0623,0.0364 -0.13382,0.0684 -0.22057,0.10438 l 0,0 c -0.0669,0.0276 -0.20699,0.10792 -0.069,0.14356 0.078,0.0166 0.16265,0.0621 0.24217,0.062 0.0847,-0.003 0.18387,-0.0468 0.28805,0.009 0.0651,0.0355 -0.0376,0.23133 0.0362,0.23538 0.0612,0.002 0.26376,-0.0215 0.24987,0.0322 -0.0261,0.0953 -0.01,0.15986 0.0362,0.23526 0.0445,0.0755 0.0938,0.13676 0.0741,0.21284 -0.0167,0.0814 -0.0421,0.1612 -0.062,0.24221 -0.0263,0.0974 -0.0484,0.19285 -0.0706,0.27222 -0.027,0.10104 -0.0271,0.18665 -0.13802,0.15804 -0.12422,-0.0311 -0.0647,0.0707 -0.15231,0.0897 -0.0579,0.0121 -0.21447,0.0973 -0.26649,0.15697 -0.0324,0.0369 -0.12525,0.14083 -0.16796,0.15023 -0.0248,0.01 -0.2153,0.0838 -0.22075,0.10425 -0.0243,0.086 -0.0538,0.14882 -0.0252,0.21958 0.0342,0.0838 0.0781,0.16463 0.0965,0.25094 0.01,0.0462 0.006,0.18469 0.0364,0.23527 0.0316,0.0536 0.0668,0.15757 0.005,0.22725 -0.0427,0.0489 -0.12718,0.1163 -0.14579,0.18833 -0.029,0.11311 0.01,0.10287 0.0518,0.17473 0.0209,0.0352 0.0902,0.15154 0.044,0.20516 -0.0395,0.0446 -0.16022,0.11989 -0.16794,0.15011 -0.0142,0.0539 -0.018,0.10041 -0.0401,0.15119 l 0.0679,-0.0149 0.50756,0.0341 0.32612,-0.0124 0.1523,-0.0896 0.0907,0.0252 0.0908,0.0252 0.12117,0.0306 0.44029,-0.0799 0.0909,0.0252 0.12116,0.0305 0.0905,0.0252 0.12228,-0.0975 0.12116,0.0305 0.11448,-0.0672 0.3573,-0.1335 0.21176,0.0551 0.11452,-0.0672 0.30266,0.0777 0.0908,0.0252 0.0252,-0.0906 0.12113,0.0306 0.1816,0.0462 1.63329,-0.44909 0.14445,-0.0594 z"
       id="NY-04"
       style="font-style:normal;font-weight:400;font-size:34.375px;font-family:'MS Shell Dlg 2';opacity:1;fill:none;fill-opacity:1;fill-rule:evenodd;stroke:#000000;stroke-width:0.33333385;stroke-linecap:square;stroke-linejoin:bevel;stroke-miterlimit:4;stroke-dasharray:none;stroke-opacity:1" />
    <path
       inkscape:connector-curvature="0"
       d="m 277.29845,433.81757 c 0.023,-0.0506 0.0263,-0.0971 0.0401,-0.15114 0.0117,-0.0297 0.12849,-0.1055 0.16794,-0.15013 0.0468,-0.0535 -0.0233,-0.17002 -0.044,-0.20517 -0.0424,-0.0719 -0.0811,-0.0616 -0.0519,-0.17476 0.0161,-0.0725 0.10319,-0.13952 0.14579,-0.18831 0.0613,-0.0697 0.0259,-0.1736 -0.005,-0.22724 -0.0295,-0.0503 -0.0266,-0.18919 -0.0363,-0.23527 -0.0188,-0.0865 -0.0621,-0.16705 -0.0965,-0.25099 -0.0292,-0.0707 10e-4,-0.13334 0.0252,-0.21951 10e-4,-0.0213 0.19691,-0.0992 0.22073,-0.10427 0.0427,-0.01 0.13593,-0.1134 0.16797,-0.15025 0.0518,-0.0598 0.20859,-0.14467 0.26651,-0.15699 0.0876,-0.019 0.0306,-0.12111 0.1523,-0.0896 0.11053,0.0288 0.11174,-0.0568 0.13802,-0.15807 0.018,-0.08 0.0448,-0.17479 0.0707,-0.27223 0.0182,-0.0811 0.042,-0.16131 0.062,-0.24217 0.0163,-0.0766 -0.0295,-0.13741 -0.0741,-0.21283 -0.0446,-0.0754 -0.0609,-0.13971 -0.0362,-0.23526 0.0142,-0.0538 -0.18913,-0.0284 -0.24989,-0.0322 -0.0745,-0.002 0.0308,-0.19948 -0.0362,-0.23537 -0.10412,-0.0569 -0.20304,-0.01 -0.28803,-0.009 -0.0795,0.003 -0.16419,-0.0425 -0.24219,-0.062 -0.13797,-0.0338 0.002,-0.11608 0.0691,-0.14357 l -0.58945,-0.21706 c -0.0236,0.0235 -0.0257,0.0593 -0.0535,0.0831 -0.12966,0.17376 -0.32201,0.21419 -0.5018,0.19292 -0.0491,-0.1971 -0.21282,-0.082 -0.32601,0.0125 -0.26939,0.10623 0.0743,0.19914 0.004,0.35642 -0.15441,0.11737 -0.31399,0.16976 -0.48716,0.26133 -0.1806,0.027 -0.36313,0.0738 -0.54665,0.11685 -0.0229,0.01 -0.0461,0.007 -0.0679,0.0146 l 0.10221,0.47835 0,0 0.28745,1.01044 -0.40999,0.0875 c 0.30945,0.33031 0.42385,0.63928 0.33331,0.95777 -0.0925,0.31795 -0.38435,0.64034 -0.82625,0.94833 l -1.39017,0.38293 0.0753,0.0839 -0.0305,0.12114 0.0127,0.32617 0.82892,-0.33437 0.38071,-0.22435 0.2666,-0.15706 0.0908,0.0252 0.14449,-0.0594 0.11446,-0.0671 0.12232,-0.0975 0.14448,-0.0595 0.11453,-0.0673 0.2431,-0.0661 0.0252,-0.0904 0.20491,-0.0437 0.12114,0.0306 0.0306,-0.12113 0.0907,0.0252 0.11453,-0.0673 0.32591,-0.0126 0.0306,-0.12113 0.12116,0.0305 0.0907,0.0252 0.2353,-0.0359 -0.0252,0.0903 -0.0306,0.12116 0.2655,-0.028 z"
       id="NY-05"
       style="font-style:normal;font-weight:400;font-size:34.375px;font-family:'MS Shell Dlg 2';opacity:1;fill:none;fill-opacity:1;fill-rule:evenodd;stroke:#000000;stroke-width:0.33333385;stroke-linecap:square;stroke-linejoin:bevel;stroke-miterlimit:4;stroke-dasharray:none;stroke-opacity:1" />
    <path
       inkscape:connector-curvature="0"
       d="m 277.07413,429.69252 c 0.10237,-0.10054 0.19435,-0.18038 0.27533,-0.31612 0.1068,-0.19713 -0.21033,-0.30416 -0.30719,-0.43455 -0.14423,-0.13603 -0.23257,-0.35236 -0.39802,-0.45795 -0.17776,-0.0615 -0.33156,-0.0636 -0.493,0.0338 -0.18798,0.0979 -0.39251,-0.087 -0.59039,-0.0882 -0.0759,-0.0122 -0.13737,-0.0361 -0.21167,-0.055 -0.0441,0.1714 -0.0902,0.35063 -0.194,0.49859 -0.0923,0.20944 0.0362,0.32366 0.0261,0.52319 -0.0617,0.18702 -0.16583,0.26172 -0.33595,0.30047 -0.13611,0.006 -0.2908,0.0796 -0.32489,-0.11646 -0.12338,-0.10437 -0.36027,-0.14896 -0.51445,-0.13275 0.0139,0.18941 -0.0662,0.39639 -0.2765,0.4449 -0.0352,0.008 -0.004,0.0582 -0.0252,0.0903 l 0,0 c -0.037,0.0791 -0.0849,0.16861 -0.0848,0.20409 0.01,0.0128 0.0142,0.0258 0.0221,0.0379 l 0,0 c 0.11311,0.16571 0.2202,0.33356 0.35995,0.48044 0.16809,0.0953 0.35638,0.23005 0.55926,0.2092 0.18663,-0.0392 0.35223,-0.12468 0.53199,-0.1852 l 0,0 c 0.0228,-0.01 0.0462,-0.007 0.0679,-0.0147 0.18348,-0.043 0.36606,-0.0899 0.54665,-0.11684 0.17315,-0.0916 0.33277,-0.14399 0.48714,-0.26137 0.0697,-0.15716 -0.274,-0.25007 -0.004,-0.35636 0.11335,-0.0948 0.27633,-0.2098 0.32604,-0.0125 0.17994,0.0202 0.37223,-0.0191 0.50178,-0.1929 0.0316,-0.0229 0.0299,-0.0595 0.0536,-0.083 z"
       id="NY-06"
       style="font-style:normal;font-weight:400;font-size:34.375px;font-family:'MS Shell Dlg 2';opacity:1;fill:none;fill-opacity:1;fill-rule:evenodd;stroke:#000000;stroke-width:0.33333385;stroke-linecap:square;stroke-linejoin:bevel;stroke-miterlimit:4;stroke-dasharray:none;stroke-opacity:1" />
    <path
       inkscape:connector-curvature="0"
       d="m 275.09503,430.73005 c -0.17975,0.0604 -0.34542,0.14617 -0.53203,0.18518 -0.20287,0.0209 -0.39115,-0.11377 -0.5592,-0.20918 -0.1398,-0.14686 -0.24687,-0.31472 -0.35999,-0.48044 l -0.78287,0.28176 -0.38554,-0.13206 0.04,-0.15115 -0.23326,-0.22166 -0.20837,0.43036 -0.0907,-0.0252 -0.014,-0.19741 -0.12112,-0.0306 -0.22277,0.36207 0.24887,0.16116 -0.40733,0.70165 0.10428,0.22062 0.19718,-0.0136 0.22638,0.12303 -0.13797,0.15799 -0.33495,0.1716 -0.20836,0.43026 0.35413,0.253 0.2373,-0.29364 0.34962,-0.10336 -0.0507,-0.30354 -0.12781,-0.12994 0.20835,-0.43025 -0.0976,-0.12199 0,0 -0.11991,-0.16015 -0.0652,-0.37195 1.09116,0.0237 0.7486,0.22585 0.10999,0.44812 1.24567,-0.32342 -0.10221,-0.47833 z"
       id="NY-07"
       style="font-style:normal;font-weight:400;font-size:34.375px;font-family:'MS Shell Dlg 2';opacity:1;fill:none;fill-opacity:1;fill-rule:evenodd;stroke:#000000;stroke-width:0.33333385;stroke-linecap:square;stroke-linejoin:bevel;stroke-miterlimit:4;stroke-dasharray:none;stroke-opacity:1" />
    <path
       inkscape:connector-curvature="0"
       d="m 273.19158,434.59537 1.39016,-0.38293 c 0.44188,-0.30796 0.73575,-0.62984 0.82627,-0.94832 0.0927,-0.31793 -0.0239,-0.62744 -0.33333,-0.95776 l 0.40997,-0.0875 -0.28744,-1.01043 -1.24564,0.32342 -0.11001,-0.44815 -0.74863,-0.22576 -1.09115,-0.0236 0.0651,0.37195 0.11994,0.16014 0.10009,-0.13556 1.02859,0.26592 0.56705,0.17899 0.0741,0.21276 -0.41212,0.3454 -0.31825,0.98282 0.44859,0.76156 -0.7663,0.0924 0,0 -0.73597,0.10024 -0.49185,-0.095 -0.0252,0.0904 -0.11451,0.0672 -0.0305,0.12113 0.0907,0.0252 0.18823,0.14557 0.23525,-0.036 0.68331,-0.14595 0.18179,0.0462 0.12113,0.0306 -0.0252,0.0905 0.18158,0.0462 0.022,0.038 z"
       id="NY-08"
       style="font-style:normal;font-weight:400;font-size:34.375px;font-family:'MS Shell Dlg 2';opacity:1;fill:none;fill-opacity:1;fill-rule:evenodd;stroke:#000000;stroke-width:0.33333385;stroke-linecap:square;stroke-linejoin:bevel;stroke-miterlimit:4;stroke-dasharray:none;stroke-opacity:1" />
    <path
       inkscape:connector-curvature="0"
       d="m 272.18688,431.36596 0.0976,0.122 -0.20834,0.43024 0.12782,0.12995 0.0507,0.30354 0.1747,-0.0516 0.0965,0.25084 -0.17579,0.18054 0.044,0.20506 0.21175,0.055 0.0653,0.37186 0.13664,-0.029 0.10014,0.73589 0.76628,-0.0924 -0.44859,-0.76159 0.31826,-0.98281 0.41212,-0.34543 -0.0741,-0.2127 -0.56704,-0.17908 -1.02855,-0.26592 -0.1001,0.13555 z"
       id="NY-09"
       style="font-style:normal;font-weight:400;font-size:34.375px;font-family:'MS Shell Dlg 2';opacity:1;fill:none;fill-opacity:1;fill-rule:evenodd;stroke:#000000;stroke-width:0.33333385;stroke-linecap:square;stroke-linejoin:bevel;stroke-miterlimit:4;stroke-dasharray:none;stroke-opacity:1" />
    <path
       inkscape:connector-curvature="0"
       d="m 271.01014,432.54632 0.80702,0.49927 -0.13151,0.25654 0.43714,0.30663 -0.16144,0.24881 0.14351,0.0694 0.39849,-0.54248 0.16691,-0.0215 -0.0652,-0.37186 -0.21181,-0.055 -0.044,-0.20507 0.17579,-0.18054 -0.0964,-0.25083 -0.17468,0.0515 0,0 -0.34961,0.10337 -0.2373,0.29364 -0.3541,-0.25302 0.20834,-0.43028 0.33494,-0.17156 0.138,-0.15799 -0.22641,-0.12312 -0.19715,0.0136 -0.10427,-0.22063 0.40732,-0.70166 -0.24887,-0.16115 0.22275,-0.36206 0,0 0.0117,-0.0296 -0.0427,-0.33385 -0.17357,-0.0773 0.43861,-0.82259 0.17371,0.0773 0.36148,-0.64886 c -0.15206,-0.0256 -0.32704,-0.13817 -0.20975,-0.31247 0.0924,-0.13382 0.11421,-0.34161 -0.0953,-0.37968 -0.0522,-0.0167 -0.0964,-0.0432 -0.14346,-0.0694 l -0.15366,0.21848 -0.14575,0.18821 -0.0252,0.0904 -0.0776,0.30266 -0.0907,-0.0252 -0.0252,0.0904 -0.055,0.21175 -0.0252,0.0905 -0.19922,0.27115 -0.0551,0.21176 -0.13266,0.51435 -0.0462,0.18177 0.12114,0.0306 -0.0305,0.12114 -0.0252,0.0904 -0.0252,0.0905 -0.0306,0.12117 -0.0252,0.0903 -0.0252,0.0905 0.1818,0.0461 -0.0306,0.12115 0.0976,0.12203 -0.0252,0.0904 -0.15231,0.0896 -0.0463,0.18181 0.0897,0.15229 0.0675,0.11426 -0.0551,0.21166 0.0675,0.11437 -0.0252,0.0904 0.0897,0.15233 -0.16796,0.15013 -0.12232,0.0976 -0.0252,0.0906 -0.04,0.15103 z"
       id="NY-10"
       style="font-style:normal;font-weight:400;font-size:34.375px;font-family:'MS Shell Dlg 2';opacity:1;fill:none;fill-opacity:1;fill-rule:evenodd;stroke:#000000;stroke-width:0.33333385;stroke-linecap:square;stroke-linejoin:bevel;stroke-miterlimit:4;stroke-dasharray:none;stroke-opacity:1" />
    <path
       inkscape:connector-curvature="0"
       d="m 271.01014,432.54632 -0.0151,0.0606 -0.0252,0.0904 -0.0252,0.0903 -0.0306,0.12117 -0.0252,0.0905 -0.0252,0.0904 -0.0306,0.12119 0.0908,0.0252 -0.0252,0.0904 0.0976,0.122 0.0907,0.0252 -0.0305,0.12115 0.21169,0.055 0.12231,-0.0975 0.21167,0.0551 0.15033,0.16798 -0.0252,0.0904 -0.055,0.21175 0.49186,0.095 0.73593,-0.10023 -0.10011,-0.73589 -0.13666,0.0292 -0.16693,0.0217 -0.39853,0.5425 -0.14348,-0.0694 0.16145,-0.24882 -0.43716,-0.30661 0.13142,-0.25656 -0.80699,-0.49925 z m -0.92329,-0.17419 -0.23529,0.036 -0.32588,0.0124 -0.0306,0.12115 -0.0909,-0.0252 -0.0906,-0.0252 -0.0252,0.0904 -0.12116,-0.0306 -0.20492,0.0439 -0.2431,0.0661 -0.2353,0.036 -0.1816,-0.0462 -0.21176,-0.055 -0.0906,-0.0252 -0.12117,-0.0306 -0.11448,0.0671 -0.0907,-0.0252 -0.0305,0.12113 -0.0462,0.18183 -0.15232,0.0896 0.0427,0.33374 -0.0252,0.0905 0.0908,0.0252 0.0127,0.32609 0.0662,0.24302 -0.16797,0.15032 -0.0777,0.30259 -0.055,0.21174 0.0427,0.33384 -0.14442,0.0594 -0.0306,0.12117 -0.0906,-0.0252 -0.21167,-0.0551 -0.0462,0.18179 -0.0905,-0.0252 -0.12231,0.0975 -0.0252,0.0903 -0.0252,0.0905 0.12682,0.25883 -0.0551,0.21172 -0.0252,0.0904 -0.14576,0.18818 -0.0252,0.0904 -0.0252,0.0904 0.0598,0.14454 0.0741,0.21272 0.0907,0.0252 0.11447,-0.0671 0.0252,-0.0904 0.1523,-0.0896 0.0906,0.0252 0.0907,0.0252 0.0252,-0.0904 0.12116,0.0305 0.14578,-0.1883 0.23519,-0.036 0.0252,-0.0904 0.0907,0.0252 0.14578,-0.18831 0.0252,-0.0905 0.12114,0.0306 0.21274,-0.0741 0.16796,-0.15015 0.0905,0.0252 0.0306,-0.12114 0.11455,-0.0673 0.14451,-0.0596 0.0674,0.11432 0.0906,0.0252 0.17583,-0.18055 0.13794,-0.15789 0.12233,-0.0975 0.0252,-0.0904 0.31344,-0.3385 0.0306,-0.12114 0.11449,-0.0672 0.0252,-0.0905 0.43567,-0.43601 0.19926,-0.27125 0.0777,-0.30267 -0.0976,-0.1221 -0.0597,-0.14454 -0.0675,-0.11428 -0.0976,-0.122 -0.0127,-0.32618 -0.0362,-0.23526 -0.12115,-0.0306 -0.0675,-0.11427 z"
       id="NY-11"
       style="font-style:normal;font-weight:400;font-size:34.375px;font-family:'MS Shell Dlg 2';opacity:1;fill:none;fill-opacity:1;fill-rule:evenodd;stroke:#000000;stroke-width:0.333;stroke-linecap:square;stroke-linejoin:bevel;stroke-miterlimit:4;stroke-dasharray:none;stroke-opacity:1" />
    <path
       inkscape:connector-curvature="0"
       d="m 271.84782,430.18073 0.12117,0.0305 0.0141,0.19744 0.0907,0.0252 0.2084,-0.43035 0.23322,0.22165 -0.04,0.15115 0.38552,0.13206 0.78288,-0.28176 c -0.01,-0.0129 -0.0141,-0.026 -0.0222,-0.0378 0.002,-0.0352 0.0478,-0.12485 0.0848,-0.20409 l -0.48299,-0.25401 0.002,-0.25759 0.40635,-0.57274 -0.37661,-0.29113 0.28423,-0.47517 c -0.12402,-0.0233 -0.23572,-0.0681 -0.30926,-0.17688 -0.0332,-0.0392 -0.0997,-0.0455 -0.14352,-0.0692 0.0204,0.11291 0.056,0.22478 0.0127,0.32607 -0.10947,0.16006 -0.31833,0.20814 -0.48613,0.13249 l -0.36148,0.64889 -0.17371,-0.0773 -0.43862,0.82257 0.1736,0.077 0.0428,0.33385 -0.0117,0.0298 z"
       id="NY-12"
       style="font-style:normal;font-weight:400;font-size:34.375px;font-family:'MS Shell Dlg 2';opacity:1;fill:none;fill-opacity:1;fill-rule:evenodd;stroke:#000000;stroke-width:0.33333385;stroke-linecap:square;stroke-linejoin:bevel;stroke-miterlimit:4;stroke-dasharray:none;stroke-opacity:1" />
    <path
       inkscape:connector-curvature="0"
       d="m 272.16449,427.58357 c 0.047,0.0262 0.0914,0.0523 0.14349,0.0694 0.20957,0.0384 0.18784,0.24586 0.0955,0.37969 -0.11738,0.17425 0.0574,0.28878 0.20975,0.31247 l 0,0 c 0.1678,0.0756 0.37617,0.028 0.48617,-0.13251 0.0439,-0.10116 0.009,-0.21312 -0.0127,-0.32607 0,0 0,0 0,0 -0.0206,-0.11294 -0.003,-0.21615 -0.0127,-0.32609 -0.0528,-0.22364 -0.0349,-0.43879 0.0129,-0.67452 0.0799,-0.15298 0.14387,-0.31232 0.24623,-0.45278 0.11326,-0.0866 0.20175,-0.28642 0.37306,-0.19398 0.0926,0.0429 0.15107,-0.0306 0.21272,-0.0741 0,0 0,0 0,0 0.0732,-0.0519 0.15631,-0.0744 0.25096,-0.0964 0.0382,-0.0324 -0.0189,-0.0832 3.6e-4,-0.12885 l 0,0 c 0.0574,-0.13007 0.11367,-0.29574 -0.0349,-0.36412 l -0.51448,-0.13267 -0.28322,0.34631 -0.53677,-0.17103 -0.0117,0.0296 -0.0462,0.1818 -0.224,0.49074 -0.0551,0.21175 -0.0252,0.0904 -0.15651,0.60511 -0.0252,0.0903 -0.0306,0.12115 -0.069,0.14357 z"
       id="NY-13"
       style="font-style:normal;font-weight:400;font-size:34.375px;font-family:'MS Shell Dlg 2';opacity:1;fill:#000000;fill-opacity:1;fill-rule:evenodd;stroke:#000000;stroke-width:0.33333385;stroke-linecap:square;stroke-linejoin:bevel;stroke-miterlimit:4;stroke-dasharray:none;stroke-opacity:1" />
    <path
       inkscape:connector-curvature="0"
       d="m 276.05428,425.52318 -0.71826,-0.21815 -0.0297,0.86379 -1.13505,-0.22896 c -0.022,0.0451 0.037,0.0965 -3.7e-4,0.12882 -0.0946,0.0221 -0.17737,0.0446 -0.25096,0.0964 0.0805,0.0564 0.16879,0.10415 0.24883,0.16126 0.10192,0.11633 -0.0634,0.33089 0.12569,0.3875 0.15207,0.0364 0.3842,0.12403 0.36892,0.32129 0.0979,0.14772 0.30952,0.058 0.4381,0.17792 0.091,0.10687 -0.12031,0.226 -0.0943,0.36299 -0.0541,0.1174 -0.0215,0.30909 -0.18492,0.33952 -0.16218,0.0193 -0.28477,0.16773 -0.41892,0.24666 -0.1502,0.0229 -0.31267,-0.16282 -0.43918,-0.0493 -0.0759,0.17769 -0.25961,0.0543 -0.39435,0.0271 -0.011,-10e-4 -0.02,-10e-4 -0.0296,-0.0117 l -0.28421,0.47519 0.37657,0.29115 -0.40633,0.5727 -0.002,0.25759 0.48298,0.25402 c 0.0187,-0.0326 -0.0117,-0.0827 0.0252,-0.0905 0.21054,-0.0485 0.29033,-0.25556 0.27652,-0.44494 0.15411,-0.0159 0.39098,0.0288 0.51444,0.13277 0.034,0.19595 0.18877,0.12359 0.32489,0.11644 0.17031,-0.0387 0.27455,-0.11339 0.33594,-0.30046 0.009,-0.19956 -0.11892,-0.31386 -0.0261,-0.52319 0.0984,-0.1493 0.15062,-0.32703 0.19401,-0.4986 0,0 0,0 0,0 0.0112,-0.0295 0.0162,-0.0608 0.0252,-0.0905 0.0647,-0.17062 -0.098,-0.41134 0.0717,-0.53019 0.17613,0.0354 0.37016,0.0941 0.54464,0.14107 0.0616,0.0173 0.0653,-0.0928 0.0991,-0.13574 l -0.20182,-0.34264 -0.0907,-0.0252 -0.12114,-0.0306 0.0305,-0.12116 -0.0907,-0.0252 -0.0908,-0.0252 0.0252,-0.0903 -0.0976,-0.1221 0.0306,-0.12115 -0.0907,-0.0252 0.0252,-0.0905 0.0252,-0.0903 0.0306,-0.12116 0.11452,-0.0673 0.12115,0.0306 0.0252,-0.0905 0.0305,-0.12119 0.0908,0.0252 0.0252,-0.0904 0.0676,0.11428 0.0252,-0.0903 0.0252,-0.0903 -0.0127,-0.32617 0.055,-0.21169 0.0252,-0.0903 z"
       id="NY-14"
       style="font-style:normal;font-weight:400;font-size:34.375px;font-family:'MS Shell Dlg 2';opacity:1;fill:none;fill-opacity:1;fill-rule:evenodd;stroke:#000000;stroke-width:0.33333385;stroke-linecap:square;stroke-linejoin:bevel;stroke-miterlimit:4;stroke-dasharray:none;stroke-opacity:1" />
    <path
       inkscape:connector-curvature="0"
       d="m 273.08667,427.88663 c 0.0434,0.0238 0.1102,0.0298 0.14354,0.0693 0.0732,0.10878 0.18549,0.15219 0.30924,0.17686 l 0,0 c 0.011,10e-4 0.021,10e-4 0.0296,0.0117 0.13522,0.0246 0.31799,0.15045 0.39436,-0.0272 0.12653,-0.11374 0.28918,0.0714 0.43919,0.0493 0.13414,-0.0789 0.25674,-0.22744 0.41893,-0.24665 0.1612,-0.0307 0.13073,-0.22214 0.18489,-0.33954 -0.0264,-0.1371 0.18492,-0.25615 0.0943,-0.36296 -0.12865,-0.11953 -0.34019,-0.0309 -0.4381,-0.17793 0.0122,-0.19754 -0.21684,-0.28493 -0.3689,-0.32129 -0.18894,-0.0569 -0.0238,-0.2712 -0.1257,-0.38752 -0.0802,-0.0571 -0.16811,-0.10462 -0.24883,-0.16121 -0.062,0.0432 -0.12015,0.11703 -0.21273,0.0741 -0.17131,-0.0924 -0.25946,0.10745 -0.37306,0.19396 -0.10231,0.14046 -0.16643,0.29981 -0.2462,0.45277 -0.0466,0.23598 -0.0663,0.45081 -0.0129,0.67456 0.01,0.10996 -0.009,0.21312 0.0127,0.32608 z"
       id="NY-15"
       style="font-style:normal;font-weight:400;font-size:34.375px;font-family:'MS Shell Dlg 2';opacity:1;fill:none;fill-opacity:1;fill-rule:evenodd;stroke:#000000;stroke-width:0.33333385;stroke-linecap:square;stroke-linejoin:bevel;stroke-miterlimit:4;stroke-dasharray:none;stroke-opacity:1" />
    <path
       inkscape:connector-curvature="0"
       d="m 272.80192,425.61807 0.53677,0.17104 0.28322,-0.34633 0.51444,0.13287 c 0.14889,0.0684 0.092,0.23397 0.0349,0.36415 l 1.13505,0.22897 0.0297,-0.8638 0.71824,0.21814 0.0306,-0.12113 0.0252,-0.0905 0.34471,-0.45952 0.0252,-0.0904 0.14577,-0.18829 0.11452,-0.0672 0.0252,-0.0905 0.12116,0.0305 0.14581,-0.18831 0.28996,-0.24778 0.11448,-0.0671 0.24315,-0.0662 0.11449,-0.0672 0.26651,-0.15708 0.0462,-0.18157 0.0306,-0.12115 0.0252,-0.0905 0.0252,-0.0904 0.12228,-0.0975 0.1145,-0.0672 0.12117,0.0306 0.0252,-0.0903 0.0776,-0.30278 -0.0896,-0.15233 -0.0676,-0.11426 0.0117,-0.0299 -0.52206,-0.10296 -0.49349,1.03438 -0.57491,-0.14859 -0.071,-0.59934 -0.61082,-0.38398 -0.30623,-0.56332 c -0.12324,0.37697 -0.1857,0.33076 -0.2676,0.28583 -0.0823,-0.0452 -0.17001,-0.0912 -0.33589,0.30045 l -0.29474,-0.10845 0.0347,-0.37848 -0.43139,-0.0792 -0.22565,0.74865 -0.78654,-0.20341 -0.0924,0.23432 0.0294,0.0117 -0.0118,0.41686 -0.0551,0.21163 -0.13285,0.51443 -0.0462,0.18159 -0.0551,0.21176 -0.0552,0.21175 0.0128,0.32596 -0.0252,0.0904 -0.0252,0.0903 -0.0305,0.12117 -0.12539,0.48403 -0.0551,0.21164 -0.13799,0.15799 z"
       id="NY-16"
       style="font-style:normal;font-weight:400;font-size:34.375px;font-family:'MS Shell Dlg 2';opacity:1;fill:none;fill-opacity:1;fill-rule:evenodd;stroke:#000000;stroke-width:0.33333385;stroke-linecap:square;stroke-linejoin:bevel;stroke-miterlimit:4;stroke-dasharray:none;stroke-opacity:1" />
    <path
       inkscape:connector-curvature="0"
       d="m 273.51029,422.37979 0.0925,-0.23427 0.78649,0.20346 0.22566,-0.74861 0.43138,0.0793 -0.0348,0.37848 0.29478,0.10836 c 0.16535,-0.39188 0.25395,-0.34531 0.33591,-0.30045 0.0823,0.0452 0.14429,0.0911 0.2676,-0.28581 l 0.30621,0.56332 0.61081,0.38396 0.0709,0.59931 0.5749,0.1486 0.49353,-1.03435 0.52207,0.10286 0.0151,-0.0604 0.0306,-0.12114 0.0252,-0.0904 0.0252,-0.0903 0.0305,-0.12115 0.0252,-0.0903 -0.0907,-0.0252 0.0252,-0.0903 -0.12116,-0.0305 0.0306,-0.12114 -0.0908,-0.0252 -0.0674,-0.11434 -0.0976,-0.12211 -0.15032,-0.168 -0.0741,-0.21272 -0.0907,-0.0252 -0.0598,-0.14459 -0.0976,-0.1221 -0.0675,-0.11435 -0.31504,-0.40414 -0.15706,-0.26662 -0.0674,-0.11435 -0.0897,-0.15231 -0.13451,-0.22836 0.64054,-0.4799 0.26652,-0.15705 0.0378,-0.0225 c -0.0448,-0.13449 -0.0539,-0.27506 -0.0878,-0.41002 -0.10252,-0.3044 -10e-4,-0.63257 -0.11365,-0.93316 -0.12247,-0.23303 -0.32353,-0.42611 -0.44177,-0.66304 -0.13964,-0.19976 -0.02,-0.47268 -0.18419,-0.66088 -0.24728,-0.12228 -0.31817,0.30928 -0.46583,0.42822 -0.19539,0.22381 -0.62379,0.0371 -0.61184,-0.25514 -0.01,-0.21491 0.13169,-0.40142 0.15652,-0.60507 l -0.64268,-3.00668 -4.34987,0.84407 -4.94665,5.27309 0.39234,0.23061 0.12119,0.0305 0.27893,0.169 0.30277,0.0777 0.36979,0.19249 0.0908,0.0252 -0.0306,0.12119 0.21168,0.055 0.0908,0.0252 0.12113,0.0305 0.27922,0.16895 0.0675,0.11425 0.0908,0.0252 0.21173,0.055 0.0908,0.0252 0.0896,0.15231 0.0907,0.0252 0.0905,0.0252 0.27913,0.16904 0.21169,0.055 0.0907,0.0252 0.18836,0.1456 0.0906,0.0252 0.12114,0.0306 0.15015,0.16794 0.12115,0.0306 0.0906,0.0252 0.18837,0.14546 0.27899,0.16891 0.30273,0.0779 0.0598,0.14456 0.39335,0.10173 0.18825,0.14557 0.21168,0.055 0.15812,0.13784 0.12114,0.0306 0.18158,0.0462 -0.0306,0.12116 0.42361,0.10993 -0.0252,0.0905 0.1816,0.0462 0.12114,0.0306 0.0676,0.11428 0.20501,-0.0439 z"
       id="NY-17"
       style="font-style:normal;font-weight:400;font-size:34.375px;font-family:'MS Shell Dlg 2';opacity:1;fill:none;fill-opacity:1;fill-rule:evenodd;stroke:#000000;stroke-width:0.33333385;stroke-linecap:square;stroke-linejoin:bevel;stroke-miterlimit:4;stroke-dasharray:none;stroke-opacity:1" />
    <path
       inkscape:connector-curvature="0"
       d="m 280.46984,407.20136 -0.90971,0.023 -1.86065,0.45482 -2.12047,-3.03374 -1.4308,-0.2087 -0.47208,-2.5429 -1.25295,-0.6468 -0.80543,0.24357 -0.0434,4.41095 -2.06361,0.24102 -0.40372,-0.68552 -1.47571,-0.28464 0.26403,1.10119 -2.61177,-0.38536 0.0162,-1.06093 -3.41046,1.82936 -1.32855,2.14175 -6.00613,0.3834 0.21185,1.92703 0.0679,-0.0147 0.11446,-0.0671 0.0908,0.0252 0.12114,0.0306 -0.0252,0.0904 -0.0777,0.30263 -0.0252,0.0904 -0.0305,0.12118 0.0676,0.11425 0.0676,0.11425 0.12114,0.0305 0.1818,0.0461 0.12116,0.0306 0.0597,0.14456 0.0676,0.11437 0.0976,0.12208 0.0597,0.14456 0.0907,0.0252 0.12114,0.0306 -0.0252,0.0904 0.0907,0.0252 0.0675,0.11429 -0.0305,0.12114 -0.0252,0.0905 0.12116,0.0306 0.27915,0.16903 0.27114,0.19925 0.27921,0.16893 0.1816,0.0462 0.67134,0.39952 0.73975,0.38508 0.27116,0.19924 0.12115,0.0306 0.46061,0.2159 0.18836,0.14549 0.55033,0.36832 0.58161,0.24729 0.0905,0.0252 0.27115,0.19923 0.4002,0.2003 0.27901,0.16889 0.0909,0.0252 -0.0305,0.12115 0.0907,0.0252 0.12114,0.0306 0.64887,0.36158 0.0908,0.0252 -0.0307,0.12114 0.12117,0.0306 0.0906,0.0252 0.0907,0.0252 0.279,0.16891 0.21177,0.055 -0.0252,0.0904 0.0907,0.0252 0.30258,0.0776 0.18054,0.1758 0.36978,0.19252 0.45962,0.34487 0.88415,0.32544 0.18837,0.14549 0.0601,0.0151 4.94663,-5.27313 4.34992,-0.84407 0.64264,3.00668 c -0.0268,0.20345 -0.16594,0.39006 -0.15652,0.6051 -0.0116,0.2923 0.41645,0.47894 0.61181,0.2551 0.14759,-0.11892 0.21872,-0.55036 0.46585,-0.42818 0.16423,0.18819 0.0446,0.46114 0.1842,0.66085 0.11824,0.23697 0.31926,0.43015 0.44178,0.66304 0.11209,0.30061 0.0111,0.62891 0.11366,0.9332 0.0334,0.13482 0.0432,0.27573 0.0877,0.41001 l 0.2284,-0.13468 0.0252,-0.0904 0.20511,-0.0437 0.412,-0.34543 0.14448,-0.0596 0.38091,-0.22425 0.38068,-0.22434 0.0252,-0.0903 0.12228,-0.0975 0.13803,-0.1581 0.35721,-0.13351 0.17579,-0.18043 0.2051,-0.0437 0.17577,-0.18055 0.22837,-0.13451 0.26662,-0.15706 0.0252,-0.0903 0.12231,-0.0975 0.12114,0.0306 0.0252,-0.0902 0.23618,-0.16481 0.1445,-0.0596 -0.24767,-0.29007 -0.16488,-0.23619 -0.0598,-0.14456 -0.0976,-0.12211 -0.31504,-0.40425 -0.15707,-0.26651 -0.25546,-0.25983 -0.0598,-0.14457 -0.25561,-0.25968 0.0306,-0.12114 -0.0674,-0.11433 0.0252,-0.0903 0.0306,-0.12116 0.0252,-0.0904 -0.0976,-0.12201 0.0777,-0.30276 -0.0598,-0.14455 0.0252,-0.0906 -2e-4,-0.87162 -0.0128,-0.32618 0.0776,-0.30257 0.0252,-0.0904 0.0108,-0.41685 -0.0241,-0.7809 0.0252,-0.0904 0.0252,-0.0903 -0.0127,-0.32598 -0.0897,-0.15233 0.0118,-0.41684 0.0252,-0.0903 0.0305,-0.12117 0.0341,-0.50762 -0.0553,-0.65988 0.0252,-0.0905 z"
       id="NY-18"
       style="font-style:normal;font-weight:400;font-size:34.375px;font-family:'MS Shell Dlg 2';opacity:1;fill:none;fill-opacity:1;fill-rule:evenodd;stroke:#000000;stroke-width:0.33333385;stroke-linecap:square;stroke-linejoin:bevel;stroke-miterlimit:4;stroke-dasharray:none;stroke-opacity:1" />
    <path
       inkscape:connector-curvature="0"
       d="m 283.65213,367.06339 -7.3482,0.45594 c -0.0992,0.20342 -0.34024,0.13694 -0.52421,0.15492 -0.0446,0.004 -0.0311,-0.0755 -0.0753,-0.0839 -0.0172,0.25498 -0.0319,0.50046 -0.12719,0.74175 -0.0777,0.25215 -0.18685,0.51871 -0.26344,0.77108 0.0852,0.29209 0.37494,0.51444 0.36452,0.83668 0.0359,0.31718 -0.0594,0.64053 0.0455,0.94779 0.13869,0.28936 0.42242,0.52775 0.38702,0.87475 -0.006,0.32679 -0.11196,0.66931 -0.18958,0.9839 l 0.37403,1.54926 0.78187,-0.15285 -0.47351,3.20222 c -0.0478,0.27318 -0.5576,0.33841 -0.45222,0.62544 0.21273,0.16438 0.48181,0.22978 0.7172,0.34688 0.1984,0.20009 0.39717,0.4193 0.54052,0.65623 -0.082,0.27743 -0.4706,0.18053 -0.67551,0.11582 -0.23488,-0.0787 -0.47977,-0.1085 -0.69019,0.0475 -0.36789,0.18439 -0.83532,0.10869 -1.18514,0.33909 -0.21508,0.12555 -0.44888,0.0514 -0.6755,0.11578 -0.34259,0.16324 -0.42645,0.60019 -0.3714,0.93685 0.03,0.15536 0.0731,0.31101 0.072,0.47051 l -9.9767,2.13247 c -0.29909,-0.23065 -0.0859,-0.59543 -0.0309,-0.8795 0.22932,-0.68663 0.43989,-1.36539 0.59988,-2.07204 0.10353,-0.39704 -0.0663,-0.77488 -0.22586,-1.12356 -0.0123,-0.41544 0.13528,-0.84449 0.34304,-1.20242 0.46165,-0.51625 0.68019,-1.22396 0.7506,-1.90398 -0.0111,-0.53411 0.27854,-0.97335 0.35359,-1.49018 -0.14004,-0.19097 -0.24858,-0.16234 -0.37073,-0.0645 -0.12263,0.0987 -0.24572,0.26073 -0.41891,0.24672 -0.49226,0.22565 -1.00725,-0.0792 -1.43759,-0.30717 -0.15135,-0.10775 -0.3775,-0.2484 -0.54248,-0.3985 -0.16499,-0.15007 -0.28073,-0.33756 -0.17736,-0.56233 0.37511,-0.15201 0.84964,-0.14124 1.15595,-0.47571 0.23097,-0.1399 0.2538,-0.35324 0.1631,-0.50657 -0.0905,-0.15327 -0.30333,-0.26171 -0.51319,-0.26184 l -0.70115,0.46424 -2.38178,0.2233 -0.50437,-4.16523 -0.97759,0.90918 -0.44954,-2.50487 -1.10703,0.0366 -4.56632,-1.43911 c 0.0869,0.1039 0.2191,0.16573 0.27809,0.29783 0.12683,0.28414 0.17526,0.64758 0.13506,1.1001 l -0.2342,3.65145 -2.48663,-0.86904 -0.41103,2.0886 -4.15786,-2.26959 -0.7632,1.57793 -1.41837,0.11737 -0.13029,-0.74383 -0.70583,0.10797 c 0.0831,0.66022 0.20549,1.32305 0.0372,1.97854 -0.0947,0.61297 -0.26318,1.33408 -0.77211,1.73703 -0.25615,0.21567 -0.30573,0.54029 -0.32575,0.88411 -0.02,0.34386 -0.0121,0.70184 -0.18945,0.98382 -0.4367,0.19035 -0.42546,0.49282 -0.34013,0.81586 0.0854,0.32298 0.23558,0.64116 0.0835,0.92536 -0.18181,0.25772 -0.005,0.53749 0.12258,0.7741 0.12895,0.2366 0.22226,0.43345 -0.1565,0.60505 -0.37043,0.44951 -0.68888,0.90314 -0.89095,1.44811 -0.16108,0.26357 -0.32472,0.6058 -0.37138,0.9368 -0.0466,0.33107 0.0276,0.65974 0.28063,0.91183 0.25254,0.16296 0.36701,0.45478 0.3881,0.74592 0.0207,0.29107 -0.0673,0.5727 -0.29444,0.76306 -0.2843,0.18753 -0.33933,0.48143 -0.29445,0.76311 0.0451,0.28178 0.18717,0.57036 0.28175,0.78299 -0.1912,0.27241 -0.31644,0.70627 -0.63591,0.83615 l 0.0703,3.47199 -1.50124,0.0637 0.16648,0.97904 -0.99846,-0.25823 -0.007,0.90191 -0.51536,-0.004 0.20402,3.82935 0.0293,0.0117 1.49334,-0.0335 0.0906,0.0252 0.89512,-0.0912 0.0907,0.0252 0.54566,0.0128 0.98578,-0.0679 0.0906,0.0252 0.21177,0.0551 0.0597,0.14455 0.0675,0.11438 -0.0252,0.0903 -0.0775,0.30259 0.12113,0.0306 0.0908,0.0252 0.0906,0.0252 0.15696,0.2666 0.0675,0.11435 0.18052,0.17585 0.0907,0.0252 0.12115,0.0306 0.0306,-0.12112 0.0252,-0.0905 0.0906,0.0252 0.0907,0.0252 -0.0551,0.21176 0.0976,0.12201 0.18182,0.0463 0.0976,0.122 -0.0306,0.12114 -0.0252,0.0906 0.0674,0.11436 -0.0306,0.12115 0.16482,0.2362 0.0596,0.14452 -0.0252,0.0903 -0.14578,0.18829 0.0675,0.11428 -0.0252,0.0904 0.0907,0.0252 0.12114,0.0306 0.0907,0.0252 0.0363,0.2354 -0.0252,0.0904 -0.0907,-0.0252 -0.0306,0.12114 -0.0252,0.0903 0.0906,0.0252 -0.0252,0.0903 0.12115,0.0306 0.11449,-0.0672 0.0907,0.0252 0.0252,-0.0904 0.12115,0.0306 0.15797,0.13768 0.21172,0.0551 0.0252,-0.0903 0.1458,-0.1883 0.14448,-0.0595 0.0906,0.0252 0.0907,0.0252 0.12115,0.0306 0.0908,0.0252 -0.0252,0.0904 0.0908,0.0252 0.12118,0.0306 0.0252,-0.0904 0.0305,-0.12113 0.0252,-0.0904 0.0252,-0.0905 0.0907,0.0252 -0.0252,0.0904 0.0905,0.0252 -0.0551,0.21164 0.0741,0.21292 0.0907,0.0252 0.0597,0.14454 0.12114,0.0307 0.0306,-0.12114 0.1145,-0.0672 0.0907,0.0252 0.27916,0.16906 0.23522,-0.036 0.0906,0.0252 0.0976,0.1221 -0.0306,0.12113 -0.0462,0.18161 -0.0306,0.12113 0.0907,0.0252 -0.0252,0.0904 0.30268,0.0776 0.18827,0.14556 0.0907,0.0252 0.1145,-0.0672 0.12113,0.0306 0.0908,0.0252 -0.0252,0.0904 -0.0306,0.12114 -0.0252,0.0903 -0.0252,0.0904 -0.12228,0.0975 -0.12114,-0.0306 -0.0907,-0.0252 -0.0252,0.0905 -0.11452,0.0672 -0.0306,0.12114 -0.0252,0.0904 -0.0252,0.0903 -0.0306,0.12116 -0.0252,0.0903 0.0905,0.0252 -0.0252,0.0904 0.0908,0.0252 0.12116,0.0306 0.34938,-0.10339 0.0907,0.0252 0.0905,0.0252 0.12118,0.0306 0.0674,0.11434 0.0674,0.11433 -0.0306,0.12116 0.12116,0.0306 -0.0252,0.0903 0.0675,0.11426 -0.0777,0.30278 0.0362,0.23525 0.13347,0.35732 -0.0252,0.0903 -0.0907,-0.0252 -0.12117,-0.0306 -0.1223,0.0975 -0.0906,-0.0252 -0.0252,0.0903 0.0908,0.0252 -0.0252,0.0903 0.18052,0.17579 0.0907,0.0252 0.0441,0.20519 0.0896,0.15233 -0.0252,0.0903 -0.0252,0.0905 -0.15231,0.0897 -0.0252,0.0904 0.12116,0.0306 0.12685,0.25879 -0.0252,0.0903 0.0662,0.24304 -0.0463,0.18174 0.0363,0.2353 0.15697,0.26648 -0.0462,0.18179 -0.12114,-0.0306 -0.0907,-0.0252 -0.1223,0.0975 -0.0252,0.0904 0.0907,0.0252 -0.0252,0.0904 -0.0908,-0.0252 -0.12114,-0.0306 -0.0306,0.12115 -0.0907,-0.0252 -0.0252,0.0904 0.0907,0.0252 0.0976,0.12211 0.0597,0.14456 0.0675,0.11422 0.21177,0.055 0.0675,0.11427 0.15695,0.26657 0.0675,0.11437 -0.0306,0.12115 0.12117,0.0306 0.0907,0.0252 0.0907,0.0252 0.16481,0.2362 0.0362,0.23538 -0.0252,0.0903 -0.0905,-0.0252 -0.0307,0.12115 -0.0252,0.0903 0.0675,0.11428 0.12117,0.0305 0.18179,0.0463 0.0897,0.1523 0.0907,0.0252 -0.0252,0.0904 -0.0252,0.0905 -0.0306,0.12115 -0.0252,0.0903 0.0907,0.0252 0.14448,-0.0594 0.0907,0.0252 0.0907,0.0252 0.12113,0.0306 -0.0252,0.0903 -0.0252,0.0904 -0.0305,0.12112 0.0675,0.11439 -0.0252,0.0903 -0.0306,0.12118 -0.0252,0.0903 0.0906,0.0252 0.21174,0.0551 0.0907,0.0252 0.12117,0.0306 0.11447,-0.0671 0.12229,-0.0975 0.14454,-0.0596 0.0907,0.0252 0.11451,-0.0672 0.18825,0.14556 0.21164,0.055 0.0907,0.0252 0.0674,0.11436 -0.0306,0.12113 -0.0252,0.0903 0.12115,0.0306 0.0675,0.11428 0.1145,-0.0672 0.0976,0.12203 0.0908,0.0252 -0.0306,0.12114 -0.13802,0.1581 -0.0306,0.12114 0.0907,0.0252 0.0905,0.0252 0.12118,0.0306 0.12229,-0.0976 0.25872,-0.12684 0.18177,0.0463 0.12117,0.0305 0.0907,0.0252 0.0675,0.11434 0.18835,0.14557 0.0908,0.0252 0.14452,-0.0596 0.0252,-0.0905 0.12228,-0.0975 0.0252,-0.0903 0.0907,0.0252 0.12118,0.0306 0.0907,0.0252 -0.0252,0.0903 0.0907,0.0252 -0.0306,0.12116 0.0976,0.1221 -0.0252,0.0904 0.0907,0.0252 0.0906,0.0252 0.14451,-0.0597 0.11452,-0.0671 0.0908,0.0252 0.12115,0.0305 0.0908,0.0252 0.0907,0.0252 0.0306,-0.12114 0.0766,-0.0448 -0.21188,-1.92703 6.00612,-0.38341 1.32859,-2.14175 3.41046,-1.82937 -0.0162,1.06093 2.61173,0.38535 -0.26399,-1.10118 1.47575,0.28465 0.4037,0.68555 2.06359,-0.24103 0.0435,-4.41096 0.80544,-0.2436 1.25295,0.64683 0.47206,2.54288 1.43082,0.20871 2.12045,3.03377 1.86064,-0.45485 0.90974,-0.0228 0.0305,-0.12118 -1.9e-4,-0.8717 0.0118,-0.41675 -0.0131,-1.19764 0.0252,-0.0903 -0.0552,-0.65987 0.0252,-0.0904 0.042,-0.53785 -0.0674,-0.11434 0.0128,-0.54554 0.0252,-0.0906 0.0306,-0.12116 0.0106,-1.28844 0.0341,-0.50763 -2e-4,-0.87158 -0.0679,-0.9859 0.0535,-0.95456 0.055,-0.21169 -0.0427,-0.33387 0.0252,-0.0905 -0.0127,-0.32605 -0.0319,-0.75065 0.055,-0.21169 -0.002,-0.74278 0.0306,-0.12116 -0.0209,-1.16742 -0.0792,-1.44073 -0.12227,0.0975 -0.16952,-0.59256 -0.20085,-0.47155 0.21117,-0.81691 0.0551,-0.21168 0.23472,-0.90763 0.15652,-0.6051 0.22159,-1.2338 0.33644,-1.30095 0.11401,-0.9389 0.33643,-1.30096 0.0306,-0.12115 0.0252,-0.0904 0.12075,-0.84035 0.2035,-0.7866 0.13267,-0.51439 0.0252,-0.0904 0.51136,-2.35316 0.0907,-0.84812 0.48002,-2.23216 0.10162,-0.39331 0.43339,-2.05055 0.13266,-0.51442 0.17983,-0.69589 -0.23522,0.0359 -0.48036,-1.51218 0.17578,-0.18049 0.0252,-0.0904 0.0252,-0.0903 -0.0896,-0.15231 0.0108,-0.41689 0.0907,0.0252 0.0252,-0.0904 -0.0251,-0.65207 -0.0365,-1.10689 0.0252,-0.0903 -2e-4,-0.87168 -0.044,-0.20505 0.0151,-0.0605 z"
       id="NY-19"
       style="font-style:normal;font-weight:400;font-size:34.375px;font-family:'MS Shell Dlg 2';opacity:1;fill:none;fill-opacity:1;fill-rule:evenodd;stroke:#000000;stroke-width:0.33333385;stroke-linecap:square;stroke-linejoin:bevel;stroke-miterlimit:4;stroke-dasharray:none;stroke-opacity:1" />
    <path
       inkscape:connector-curvature="0"
       d="m 258.54144,367.05722 0.44957,2.50485 0.97759,-0.90919 0.50436,4.16524 2.38178,-0.22328 0.70118,-0.46424 c 0.20981,8.4e-4 0.42263,0.10871 0.51317,0.26184 0.0906,0.15329 0.0677,0.3666 -0.16302,0.50657 -0.30631,0.33448 -0.78085,0.32374 -1.15595,0.47574 -0.10352,0.22472 0.0124,0.41222 0.17736,0.56231 0.16496,0.15008 0.39116,0.29079 0.5425,0.39851 0.43032,0.228 0.94529,0.53285 1.43758,0.30717 0.17327,0.0136 0.2966,-0.14801 0.41892,-0.24671 0.12263,-0.0987 0.23084,-0.12735 0.37074,0.0645 -0.0751,0.51685 -0.36422,0.95616 -0.3536,1.49018 -0.0705,0.68 -0.28841,1.38784 -0.75064,1.90396 -0.20803,0.35793 -0.35522,0.78695 -0.34297,1.20243 0.15944,0.34867 0.32896,0.72644 0.22586,1.12357 -0.16067,0.7065 -0.37067,1.38539 -0.5999,2.07207 -0.0546,0.28413 -0.26803,0.6489 0.0309,0.87946 l 9.97667,-2.13245 c 0.001,-0.1596 -0.042,-0.31523 -0.072,-0.47052 -0.055,-0.33665 0.0293,-0.7736 0.37139,-0.93685 0.22662,-0.0643 0.46039,0.01 0.6755,-0.11579 0.34985,-0.2304 0.81727,-0.15469 1.18514,-0.33909 0.21033,-0.15543 0.45531,-0.12611 0.69015,-0.0475 0.20498,0.0646 0.59625,0.16253 0.67552,-0.11579 -0.14333,-0.23694 -0.34206,-0.45614 -0.5405,-0.65624 -0.23536,-0.11713 -0.5045,-0.18246 -0.7172,-0.34685 -0.10538,-0.28705 0.40419,-0.35236 0.4522,-0.62549 l 0.47354,-3.20219 -0.78188,0.15284 -0.37402,-1.54924 c 0.0813,-0.31364 0.18432,-0.65691 0.18959,-0.98388 0.0354,-0.34708 -0.24835,-0.58544 -0.387,-0.87478 -0.10501,-0.3073 -0.01,-0.63066 -0.0455,-0.94781 0.0104,-0.32235 -0.27923,-0.54455 -0.36452,-0.83668 0.0767,-0.25235 0.1868,-0.51869 0.26345,-0.77109 0.0965,-0.24112 0.10987,-0.48661 0.12707,-0.74176 -0.14828,-0.0301 -0.32469,-0.0635 -0.29372,-0.23737 -0.0201,-0.19716 0.0456,-0.45291 -0.13922,-0.5847 -0.26074,-0.0777 -0.52466,-0.13398 -0.79455,-0.17315 -0.20195,-0.0203 -0.49167,-0.0111 -0.58164,-0.24721 -0.11182,-0.31255 -0.0851,-0.65855 0.0836,-0.94672 0.18928,-0.24255 0.38856,-0.51678 0.49916,-0.807 0.10062,-0.34941 0.18167,-0.70267 0.41736,-0.98952 l -0.1315,-0.61501 -3.1579,0.60356 0.53471,2.3009 -5.63941,0.96244 -7.96003,0.20085 z"
       id="NY-20"
       style="font-style:normal;font-weight:400;font-size:34.375px;font-family:'MS Shell Dlg 2';opacity:1;fill:none;fill-opacity:1;fill-rule:evenodd;stroke:#000000;stroke-width:0.33333385;stroke-linecap:square;stroke-linejoin:bevel;stroke-miterlimit:4;stroke-dasharray:none;stroke-opacity:1" />
    <path
       inkscape:connector-curvature="0"
       d="m 278.86248,308.95062 -0.1223,0.0975 -0.21177,-0.055 -0.4402,0.0799 -0.42457,0.0193 -0.56132,0.0486 -0.33385,0.0427 -1.31191,0.0804 -0.11449,0.0671 -0.65987,0.0552 -1.55493,0.14662 -0.32598,0.0124 -0.4167,-0.0118 -1.76687,0.0918 -0.98581,0.0678 -1.19087,0.11166 -3.11006,0.29313 -2.32117,0.23893 -1.2884,-0.0106 -0.53888,0.0867 -0.12113,-0.0305 -0.65989,0.0552 -1.07667,0.0443 -0.0907,-0.0252 -0.14447,0.0594 -2.0078,-0.0998 -0.0907,-0.0252 -0.24304,0.0662 -0.98586,0.0678 -0.8639,-0.0297 -0.42452,0.0191 -1.52374,0.0256 -0.32588,0.0124 -0.0675,-0.11428 -0.11451,0.0673 -0.12115,-0.0305 -0.12232,0.0976 -0.30267,-0.0777 -0.44019,0.0798 -0.0306,0.12118 -0.16796,0.15022 -0.21292,0.0741 -0.27115,-0.19924 -0.25572,-0.25978 -0.47042,0.0719 -0.15812,-0.1377 -0.12116,-0.0306 -0.15797,-0.1377 -0.1445,0.0595 -0.0907,-0.0252 -0.21174,-0.055 -0.14579,0.18824 -0.25866,0.12679 -0.1223,0.0976 -0.1145,0.0671 -0.12114,-0.0306 -0.20488,0.0437 -0.2901,0.24775 -0.14574,0.18825 -0.65988,0.0552 -0.12113,-0.0306 -0.53103,0.0563 -0.38071,0.22431 -0.17578,0.1805 0.0976,0.12199 -0.1758,0.1805 -0.14576,0.18821 -0.29008,0.2478 -0.5858,0.26811 -0.17577,0.18049 -0.53102,0.0563 -0.17579,0.18049 -0.11449,0.0671 -0.24303,0.0662 -0.22857,0.13457 -0.0305,0.12116 -0.19929,0.27123 -0.38066,0.22434 -0.49508,0.29157 -0.11449,0.0672 -0.15234,0.0897 -0.32607,0.0123 -0.16921,0.279 -0.2352,0.036 -0.12232,0.0975 -0.13798,0.15799 -0.24303,0.0662 -0.38078,0.22429 -0.40427,0.3151 0.0127,0.32606 -0.57321,0.59415 -0.24311,0.0661 -0.30663,0.43714 -0.15232,0.0896 -0.0252,0.0903 -0.32611,0.0124 -0.16922,0.27898 -0.35733,0.13357 -0.19273,0.36977 -0.32125,0.36879 -0.28999,0.2478 -0.11451,0.0672 -0.31354,0.33853 -0.41199,0.34534 -0.0252,0.0904 -0.0907,-0.0252 -0.0252,0.0904 -0.29007,0.24775 -0.0306,0.12117 -1.05573,1.21175 -0.41211,0.34532 -0.16919,0.27902 -0.16796,0.15024 -0.0306,0.12116 -0.54976,0.50339 -0.29006,0.24775 -0.68752,0.66143 -0.63472,0.70736 -0.16921,0.27904 -0.54976,0.50336 -0.79138,1.31242 -0.0777,0.30264 -0.20352,0.7866 -0.75011,0.90347 -0.28997,0.24778 -0.7491,0.77462 -0.20491,0.0438 -0.17578,0.18049 -0.11445,0.0671 -0.29009,0.24778 -0.35722,0.13358 -0.0907,-0.0252 -0.0907,-0.0252 -0.12114,-0.0306 -0.32592,0.0124 -0.11446,0.0672 -0.73813,0.35784 -0.54976,0.5034 -0.55665,0.40477 -0.2284,0.1346 -0.15231,0.0896 -0.18178,-0.0462 -0.12114,-0.0305 -0.54978,0.50339 -0.0464,1.05318 -0.4826,0.6176 -0.24302,0.0661 -0.1145,0.0671 -0.73811,0.35783 -0.12114,-0.0306 -0.3261,0.0124 -0.41672,-0.0118 -0.4715,0.20084 -0.77211,1.73699 -0.15231,0.0897 0.0427,0.33387 -0.19928,0.27123 0.0428,0.33386 0.10336,0.3495 -0.004,0.51538 1.08918,0.28162 0.12114,0.0306 0.10321,0.34946 -0.10972,0.42352 0.0741,0.21279 -0.0306,0.12118 0.0675,0.11425 0.21177,0.0551 0.0675,0.11423 0.27126,0.19927 0.0675,0.11428 -0.0776,0.30268 0.0977,0.12201 0.0597,0.14454 0.0907,0.0252 0.12116,0.0306 0.21292,-0.074 0.14446,-0.0593 0.11448,-0.0671 0.39336,0.10174 0.51434,0.13277 0.27909,0.1689 0.0675,0.11427 0.47057,-0.0718 0.0907,0.0252 0.16479,0.23631 0.0362,0.23531 -0.0551,0.21169 0.0675,0.11428 -0.0252,0.0904 0.19289,0.50177 -0.0777,0.30265 -0.0252,0.0904 -0.0551,0.21169 -0.22835,0.13462 -0.33397,0.0428 -0.40415,0.31508 -0.26658,0.15699 -0.138,0.158 -0.4234,-0.10983 -0.15817,-0.13771 -0.0976,-0.12201 -0.2049,0.0438 -0.1445,0.0595 -0.21293,0.0739 -0.16792,0.15024 -0.1223,0.0976 -0.138,0.158 -0.055,0.21169 0.0362,0.23534 0.0907,0.0252 0.30277,0.0777 0.34523,0.41204 0.22442,0.38082 0.15793,0.13768 0.0662,0.24307 0.10339,0.34953 0.14594,0.68333 0.0742,0.21282 0.11483,0.80437 0.0907,0.0252 -0.0252,0.0904 0.13516,1.10012 0.0143,0.0683 3.52362,0.10427 -0.0455,-0.94783 5.12924,0.2613 0.54931,6.1135 4.57414,1.40891 8.5517,-5.85791 1.08028,7.92928 c -0.46447,0.27351 -0.9444,0.55641 -1.4089,0.82993 -0.13306,0.15124 -0.0724,0.37278 -0.0807,0.56011 0.0283,0.33223 -0.0478,0.69864 0.12832,1.00155 0.0649,0.18701 0.22918,0.32595 0.42147,0.36722 0.51357,0.15896 1.04327,0.19357 1.56649,0.30844 l 0.99469,-0.22695 -0.374,-1.54922 2.82521,1.18251 0.57072,4.40834 c 0.64228,0.17644 1.31307,0.32451 1.79853,0.65879 0.12983,0.0895 0.19257,0.24668 0.29262,0.36616 l 4.56632,1.4392 1.107,-0.0365 0,0 7.96003,-0.20088 5.63941,-0.96242 -0.53472,-2.30092 3.15791,-0.60355 0.13148,0.61503 c -0.23205,0.28779 -0.32026,0.63921 -0.41735,0.98951 -0.11017,0.29032 -0.30989,0.56445 -0.49916,0.80699 -0.16854,0.28821 -0.19509,0.63425 -0.0835,0.94676 0.09,0.2365 0.37968,0.22726 0.58162,0.24718 0.26984,0.0398 0.5338,0.0954 0.79457,0.17306 0.18538,0.13192 0.11846,0.3874 0.13923,0.58475 -0.0302,0.17467 0.14511,0.20886 0.29373,0.23734 0,0 0,0 0,0 0.0443,0.0104 0.0307,0.0892 0.0753,0.084 0.18397,-0.018 0.42516,0.0481 0.52415,-0.15496 l 7.34824,-0.45593 0.0151,-0.0606 -0.0865,-0.53883 -0.002,-1.61445 0.0778,-0.30264 -0.0897,-0.15234 0.0118,-0.4168 0.0232,-0.96238 -0.0128,-0.3261 -0.0363,-0.23532 0.0462,-0.18169 -0.0428,-0.33384 -0.038,-1.84972 -0.0317,-0.7506 -0.0127,-0.32608 0.0305,-0.12119 -0.0318,-0.75061 -0.002,-1.61445 -0.0679,-0.98589 0.0252,-0.0905 -0.0661,-0.2431 0.055,-0.21169 -0.002,-0.74279 -0.0662,-0.24307 0.0252,-0.0905 -0.0127,-0.32606 0.0419,-0.53788 -0.0741,-0.21284 0.0188,-0.44711 -0.044,-0.20504 0.0358,-0.6364 -0.0252,-0.65202 0.0306,-0.12115 -0.0976,-0.12203 0.14447,-0.0595 0.0306,-0.12116 -0.0976,-0.122 0.0252,-0.0903 -0.0908,-0.0252 0.0306,-0.12118 -0.0907,-0.0252 0.0252,-0.0903 0.0252,-0.0905 -0.0896,-0.15231 -0.13467,-0.22849 -0.12114,-0.0306 -0.0908,-0.0252 -0.0598,-0.14455 -0.21172,-0.055 -0.0675,-0.1143 -0.23519,0.036 0.0252,-0.0903 0.0252,-0.0904 -0.0907,-0.0252 0.055,-0.2117 0.0252,-0.0903 -0.0897,-0.15231 0.0252,-0.0905 -0.0675,-0.11426 -0.0907,-0.0252 0.0305,-0.12118 -0.0741,-0.21283 0.0306,-0.12114 -0.0905,-0.0252 -0.0907,-0.0252 -0.0306,0.12117 -0.12116,-0.0306 -0.18178,-0.0462 -0.0252,0.0902 -0.32594,0.0124 -0.1523,0.0897 -0.18179,-0.0462 -0.14451,0.0596 -0.0907,-0.0252 -0.0252,0.0903 -0.0306,0.12116 -0.0252,0.0903 0.0675,0.11429 -0.0306,0.12115 -0.0252,0.0904 -0.14575,0.18823 0.0128,0.32609 -0.0252,0.0903 -0.0252,0.0904 -0.14576,0.18825 -0.0252,0.0904 -0.0909,-0.0252 -0.0976,-0.12202 -0.27916,-0.16891 -0.0907,-0.0252 -0.0907,-0.0252 -0.12116,-0.0306 0.0306,-0.12115 0.0252,-0.0904 0.055,-0.21169 0.0463,-0.18167 0.0306,-0.12116 -0.0676,-0.11427 0.0776,-0.30265 -0.2243,-0.3808 0.0551,-0.21172 0.0252,-0.0903 0.0908,0.0252 0.0551,-0.2117 0.0252,-0.0904 0.10172,-0.3933 0.0306,-0.12116 0.0463,-0.18169 0.0306,-0.12115 -0.0676,-0.11426 0.0252,-0.0903 0.12229,-0.0976 0.0252,-0.0904 0.12114,0.0306 0.0252,-0.0905 0.0776,-0.30268 0.0306,-0.12117 0.11448,-0.0671 0.14577,-0.18826 0.0252,-0.0905 -0.0362,-0.2353 -0.044,-0.20506 0.0306,-0.12117 0.11447,-0.0671 0.0252,-0.0904 0.0776,-0.30267 0.14579,-0.18826 0.0252,-0.0903 -0.15033,-0.168 -0.0741,-0.2128 -0.0906,-0.0252 -0.0598,-0.14456 -0.18839,-0.14549 -0.0908,-0.0252 0.055,-0.2117 -0.12112,-0.0306 0.0252,-0.0903 -0.0909,-0.0252 -0.18826,-0.14548 0.0306,-0.12116 -0.044,-0.20503 0.12231,-0.0975 0.0252,-0.0905 0.14449,-0.0594 0.0305,-0.12118 0.0252,-0.0904 0.0252,-0.0903 -0.21176,-0.0552 0.0306,-0.12112 0.0252,-0.0904 0.055,-0.21171 0.0462,-0.18168 0.0305,-0.12118 -0.0676,-0.11426 -0.15697,-0.26654 -0.31511,-0.40431 -0.13348,-0.35727 -0.0675,-0.11427 -0.0662,-0.24306 0.0252,-0.0905 0.0108,-0.41686 -0.0788,-0.5691 -0.0676,-0.11426 -0.0597,-0.14456 0.0252,-0.0905 0.0252,-0.0902 -0.0427,-0.33387 0.10993,-0.42348 -0.0676,-0.11426 0.0252,-0.0903 -0.0908,-0.0252 0.0306,-0.12115 -0.0976,-0.122 -0.0908,-0.0252 -0.0906,-0.0252 -0.0976,-0.12199 -0.0908,-0.0252 -0.18053,-0.17581 0.0252,-0.0903 0.13274,-0.5144 -0.0441,-0.20506 0.055,-0.21169 0.10174,-0.39332 0.14576,-0.18824 -0.0362,-0.23532 0.0252,-0.0904 0.0252,-0.0906 0.0306,-0.12114 0.0252,-0.0903 -0.0675,-0.11426 -0.0896,-0.15233 0.0252,-0.0903 0.0252,-0.0906 0.15229,-0.0896 0.0252,-0.0905 0.0252,-0.0903 0.0551,-0.21173 0.055,-0.21168 0.0252,-0.0904 0.0252,-0.0905 -0.0897,-0.15232 0.0252,-0.0904 0.14449,-0.0595 0.0306,-0.12115 -0.0977,-0.12202 0.0252,-0.0903 0.0305,-0.12116 0.12114,0.0305 0.0252,-0.0904 0.0252,-0.0902 0.0907,0.0252 0.0306,-0.12115 0.0252,-0.0903 0.23518,-0.036 0.0306,-0.12116 0.0462,-0.1817 0.0306,-0.12115 0.0252,-0.0906 0.0252,-0.0903 0.0306,-0.12114 0.1145,-0.0671 0.0252,-0.0902 0.12231,-0.0975 0.14447,-0.0594 0.0252,-0.0903 0.0906,0.0252 0.0306,-0.12114 0.0776,-0.30267 0.0462,-0.1817 0.055,-0.2117 -0.0362,-0.23531 -0.0976,-0.12202 -0.20095,-0.47157 -0.0362,-0.23533 0.0551,-0.21169 -0.044,-0.20506 -0.0661,-0.24308 0.0252,-0.0904 -0.0597,-0.14455 0.0252,-0.0903 -0.15708,-0.26657 -0.044,-0.20507 -0.0362,-0.23532 0.11452,-0.0671 0.1692,-0.27903 0.0306,-0.12117 0.12115,0.0306 0.0462,-0.18168 -0.0661,-0.2431 0.33228,-0.78555 -0.0741,-0.21282 0.0305,-0.12115 0.0252,-0.0903 -0.12668,-0.25868 -0.0427,-0.33386 0.0463,-0.18168 -0.0907,-0.0252 0.0306,-0.12113 -0.0441,-0.20508 -0.0662,-0.24307 -0.0362,-0.23531 -0.18824,-0.14547 -0.0676,-0.11426 -0.0908,-0.0252 0.0306,-0.12116 0.0252,-0.0905 -0.0976,-0.122 0.0306,-0.12118 -0.0908,-0.0252 -0.0905,-0.0252 0.0252,-0.0904 -0.12113,-0.0306 0.0252,-0.0904 -0.15034,-0.16795 0.0252,-0.0905 -0.0976,-0.12202 -0.18155,-0.0462 -0.0897,-0.15235 -0.0907,-0.0252 0.0252,-0.0905 -0.18836,-0.1455 -0.15013,-0.16793 -0.0742,-0.21283 -0.0596,-0.14455 0.0252,-0.0904 0.0252,-0.0904 0.0306,-0.12116 -0.0675,-0.11426 0.0252,-0.0903 -0.12114,-0.0306 0.0307,-0.12115 -0.15795,-0.13766 0.0252,-0.0905 0.0306,-0.12116 0.0252,-0.0904 0.0252,-0.0903 -0.12118,-0.0306 0.0306,-0.12117 0.16798,-0.15022 -0.0897,-0.15231 0.0461,-0.18169 0.0306,-0.12113 0.046,-0.18176 0.12115,0.0306 0.0305,-0.12115 -0.12114,-0.0306 0.0462,-0.18172 -0.0905,-0.0252 0.0306,-0.12111 0.0907,0.0252 0.0252,-0.0903 -0.0907,-0.0252 0.0252,-0.0905 0.12229,-0.0976 0.0462,-0.18168 -0.0907,-0.0252 0.0305,-0.12118 -0.0552,-0.65987 -0.0676,-0.11427 0.0776,-0.30265 -0.0907,-0.0252 0.0252,-0.0905 0.0307,-0.12114 0.11449,-0.0672 0.055,-0.21169 0.0252,-0.0905 0.0551,-0.21168 0.0461,-0.18172 0.0306,-0.12117 0.13799,-0.15795 0.0306,-0.12116 0.0252,-0.0903 -0.0363,-0.23529 0.0252,-0.0904 -0.18828,-0.14549 0.0305,-0.12115 -0.15815,-0.13771 -0.0976,-0.12205 -0.0907,-0.0252 -0.21167,-0.055 0.0306,-0.12115 -0.0907,-0.0252 -0.0675,-0.11428 -0.12116,-0.0306 0.0252,-0.0904 -0.0598,-0.14453 0.0252,-0.0904 -0.0362,-0.2353 0.13789,-0.15801 0.0551,-0.21172 0.0551,-0.21168 0.0777,-0.30265 0.0252,-0.0903 -0.0363,-0.23533 0.11445,-0.0671 0.0252,-0.0904 0.0306,-0.12118 0.0252,-0.0903 0.0908,0.0252 0.0252,-0.0903 0.15232,-0.0897 0.0252,-0.0904 -0.0976,-0.12201 -0.0485,-0.56124 0.0128,-0.54562 0.0252,-0.0904 -0.15817,-0.13775 -0.0897,-0.15231 -0.0675,-0.11426 -0.0676,-0.11428 0.0306,-0.12117 0.0462,-0.18168 0.10982,-0.4235 -0.12115,-0.0305 z"
       id="NY-21"
       style="font-style:normal;font-weight:400;font-size:34.375px;font-family:'MS Shell Dlg 2';opacity:1;fill:none;fill-opacity:1;fill-rule:evenodd;stroke:#000000;stroke-width:0.33333385;stroke-linecap:square;stroke-linejoin:bevel;stroke-miterlimit:4;stroke-dasharray:none;stroke-opacity:1" />
    <path
       inkscape:connector-curvature="0"
       d="m 237.31529,395.58893 -0.20401,-3.82936 0.51537,0.004 0.007,-0.9019 0.99844,0.25823 -0.16648,-0.97907 1.50128,-0.0636 -0.0704,-3.47198 c 0.3195,-0.12989 0.44473,-0.56374 0.63591,-0.83617 -0.0946,-0.21261 -0.23666,-0.50118 -0.28172,-0.78297 -0.0452,-0.28176 0.0105,-0.57563 0.29444,-0.76309 0.22679,-0.19043 0.31522,-0.47198 0.29445,-0.76307 -0.0207,-0.29108 -0.13557,-0.58296 -0.38811,-0.74592 -0.25294,-0.25209 -0.3273,-0.58081 -0.28064,-0.91181 0.0467,-0.33107 0.21031,-0.67328 0.3714,-0.93686 0.20189,-0.545 0.52049,-0.99858 0.89095,-1.44808 0.37874,-0.1716 0.28546,-0.36845 0.15651,-0.60506 -0.12894,-0.23659 -0.30438,-0.51635 -0.12257,-0.77407 0.15204,-0.28425 0.002,-0.60238 -0.0835,-0.92539 -0.0854,-0.323 -0.0966,-0.62549 0.34011,-0.81585 0.17735,-0.28198 0.16582,-0.64099 0.18955,-0.9838 0.02,-0.3439 0.0693,-0.66849 0.32574,-0.88412 0.50861,-0.40302 0.67752,-1.12407 0.7721,-1.737 0.16947,-0.65523 0.0461,-1.31836 -0.0372,-1.97857 l 0.70583,-0.10797 0.13029,0.74382 1.41839,-0.11736 0.76318,-1.57794 4.15786,2.26962 0.41103,-2.08859 2.48661,0.869 0.23419,-3.65142 c 0.0406,-0.45243 -0.008,-0.81599 -0.13505,-1.10009 -0.0587,-0.13206 -0.19109,-0.19402 -0.27806,-0.29787 l 0,0 c -0.10007,-0.11944 -0.16284,-0.27672 -0.29266,-0.36619 -0.4854,-0.33444 -1.15615,-0.48272 -1.79852,-0.65881 l -0.57073,-4.40832 -2.8252,-1.18254 0.37401,1.54925 -0.99468,0.22693 c -0.52326,-0.11452 -1.05297,-0.14935 -1.56649,-0.30843 -0.1927,-0.0392 -0.35663,-0.18027 -0.4215,-0.36724 -0.17614,-0.30291 -0.0998,-0.66926 -0.12831,-1.0015 0.009,-0.18725 -0.0522,-0.40889 0.0807,-0.56011 0.46448,-0.27356 0.9444,-0.55643 1.40888,-0.82993 l -1.08027,-7.9293 -8.5517,5.8579 -4.57413,-1.40889 -0.5493,-6.11353 -5.12928,-0.26128 0.0456,0.94782 -3.52363,-0.10428 0.0766,0.82676 -0.0252,0.0903 0.0115,0.45488 -0.0118,0.41679 -0.0118,0.41687 -0.0358,0.63635 -0.13278,0.51438 -0.22272,0.36203 -0.20056,0.40001 -0.1145,0.0672 -0.1445,0.0596 -0.35721,0.13354 -0.20509,0.0437 -0.533,0.31408 -0.74284,0.002 -0.30264,-0.0777 -0.46747,-0.31456 -0.0294,-0.0117 0.0309,0.87948 1.36198,1.22374 0.53725,1.04274 2.02039,0.4256 -0.85345,2.42607 c 0.22963,0.30986 0.17372,0.72219 0.34015,1.05633 0.22987,0.22708 0.40338,0.53428 0.69165,0.69532 0.30434,0.28868 0.73068,0.33743 1.13405,0.35783 0.44176,0.0376 0.77143,0.32483 1.10955,0.57743 0.35143,0.1639 0.75962,0.24028 1.06457,0.50127 0.40835,0.32343 0.59681,0.43346 0.90248,0.87897 0.24662,0.25853 0.0232,0.7162 0.51487,1.00465 -0.0207,0.16243 -0.14086,0.35282 -0.23187,0.52106 -0.0909,0.16821 -0.14629,0.34224 0.004,0.48513 0.311,0.0481 0.68839,0.12434 0.97805,-0.0376 l 0.65937,8.43372 -7.86566,0.70946 0.27701,4.17095 0,0 0.42822,6.08221 2.58583,-0.13827 c -0.15536,0.77332 0.49722,1.40587 0.40677,2.17102 -0.0792,0.71329 0.36028,1.32707 0.59057,1.9603 -0.0974,0.54515 0.11319,1.02975 0.24516,1.54831 0.0394,0.29544 -0.11305,0.43671 -0.29213,0.50534 -0.17908,0.0687 -0.40823,0.048 -0.56915,0.0788 -0.1206,0.95399 0.28533,1.90212 0.19669,2.85909 0.0726,0.21006 0.0575,0.34018 -0.0108,0.41686 -0.0684,0.0766 -0.20175,0.0914 -0.34157,0.073 -0.27989,-0.0369 -0.62355,-0.20575 -0.77001,-0.39269 -0.17585,-0.18793 -0.40006,-0.32459 -0.61861,-0.35376 -0.21862,-0.029 -0.44832,0.0443 -0.6161,0.26035 -0.21308,-0.17534 -0.46044,-0.2326 -0.66553,-0.17217 -0.20515,0.0605 -0.3509,0.24104 -0.39852,0.54251 -0.12822,0.32384 -0.47102,0.25655 -0.80544,0.2436 -0.16723,-0.007 -0.34021,0.007 -0.4705,0.0718 -0.13032,0.0657 -0.24195,0.20269 -0.27649,0.44497 0.0231,0.36706 -0.13066,0.58674 -0.36923,0.67917 -0.23833,0.0926 -0.53951,0.0575 -0.81019,-0.11275 -0.25144,-0.1397 -0.57625,-0.21807 -0.85495,-0.18891 -0.27858,0.0292 -0.53412,0.1549 -0.69314,0.43397 -0.0559,0.21515 0.0148,0.43178 0.025,0.65201 l 0.12887,3.7e-4 0.20514,-0.0439 1.74313,-0.001 0.65209,-0.0252 0.0907,0.0252 1.53155,-0.0557 0.1816,0.0461 1.22119,-0.10383 1.28844,0.0106 0.32603,-0.0126 0.0907,0.0252 0.243,-0.0661 0.0907,0.0252 0.98592,-0.0677 0.12117,0.0306 1.0766,-0.0445 0.326,-0.0124 0.0906,0.0252 0.12114,0.0306 0.41681,0.0118 1.41047,-0.0872 0.44713,0.0188 0.75058,-0.0317 1.28846,0.0106 0.1145,-0.0671 0.12114,0.0306 0.41681,0.0118 0.24304,-0.0661 1.16738,-0.0209 0.44714,0.0197 0.86475,-0.0992 0.12115,0.0306 0.18182,0.0462 0.89504,-0.0913 z"
       id="NY-22"
       style="font-style:normal;font-weight:400;font-size:34.375px;font-family:'MS Shell Dlg 2';opacity:1;fill:none;fill-opacity:1;fill-rule:evenodd;stroke:#000000;stroke-width:0.33333385;stroke-linecap:square;stroke-linejoin:bevel;stroke-miterlimit:4;stroke-dasharray:none;stroke-opacity:1" />
    <path
       inkscape:connector-curvature="0"
       d="m 217.91527,396.09123 c -0.0102,-0.22026 -0.0828,-0.43733 -0.0249,-0.65198 0.15895,-0.27911 0.41454,-0.40471 0.69315,-0.43398 0.27867,-0.0293 0.6035,0.0495 0.85494,0.18888 0.27066,0.1703 0.57181,0.20526 0.81015,0.11284 0.23825,-0.0926 0.39235,-0.31208 0.36921,-0.6792 0.0337,-0.24236 0.14655,-0.37907 0.27652,-0.44493 0.13031,-0.0657 0.3033,-0.0785 0.4705,-0.072 0.33446,0.013 0.67749,0.0804 0.80545,-0.24361 0.0467,-0.30158 0.19291,-0.48214 0.39855,-0.54247 0.20505,-0.0604 0.4524,-0.003 0.66548,0.17214 0.1678,-0.21588 0.39752,-0.28937 0.6161,-0.26034 0.21843,0.0299 0.44277,0.16588 0.61865,0.35377 0.14644,0.18692 0.49013,0.35574 0.77,0.39269 0.14022,0.0151 0.27307,0.004 0.34155,-0.073 0.0683,-0.0767 0.0834,-0.20671 0.0108,-0.41681 0.0883,-0.95703 -0.31728,-1.90515 -0.19667,-2.85912 0.16096,-0.0309 0.39003,-0.0101 0.56915,-0.0788 0.17909,-0.0686 0.33141,-0.20993 0.29212,-0.50536 -0.13195,-0.51856 -0.34174,-1.00303 -0.24513,-1.54831 -0.2303,-0.63321 -0.67022,-1.24702 -0.59062,-1.96031 0.09,-0.76517 -0.56234,-1.3977 -0.40676,-2.17098 l -2.58577,0.13825 -0.42829,-6.08219 -8.36903,0.15963 c -0.11828,-0.66538 -0.27279,-1.07476 -0.45119,-1.37553 -0.17848,-0.30076 -0.35865,-0.47911 -0.53267,-0.68648 -0.17391,-0.20736 -0.32795,-0.43696 -0.43299,-0.8221 -0.10488,-0.38511 -0.18095,-0.94839 -0.15225,-1.7824 0.30811,-0.52555 0.39295,-0.9938 0.37557,-1.45222 -0.0172,-0.4584 -0.11561,-0.89567 -0.22379,-1.38127 -0.10814,-0.48559 -0.22723,-1.0241 -0.19147,-1.63115 0.0366,-0.60702 0.22389,-1.27157 0.6387,-2.0943 l -8.79569,0.43666 0.006,-0.7731 -2.3952,0.0261 0.0871,5.15477 -0.45497,0.0115 c -0.0361,0.59172 -0.19431,1.13132 -0.43036,1.66397 -0.23589,0.53271 -0.55675,1.06253 -0.92225,1.56907 -0.1659,0.35009 -0.40405,1.45061 -0.46945,1.81532 -0.098,0.54339 -1.12288,1.61078 -1.78862,2.79749 l -4.45581,-0.11969 -0.0639,1.37142 -1.24247,-0.0632 -0.0605,1.85641 -2.44691,-0.14871 0.0844,-1.07562 -12.91449,-0.11215 -0.0788,-0.56914 c -0.65058,0.003 -1.02943,0.6269 -1.64308,0.73706 -0.50038,0.26651 -1.07579,0.36591 -1.62329,0.16131 -0.34871,-0.0865 -0.64512,-0.0239 -0.91081,0.15178 -0.26571,0.17629 -0.48471,0.44201 -0.66513,0.69943 -0.34637,0.13643 -0.79448,-0.0907 -1.07868,0.30207 -0.5927,-0.12268 -0.984,0.5873 -1.60298,0.457 -0.26393,0.1722 -0.54022,0.2908 -0.8289,0.33431 -0.2886,0.0435 -0.59879,0.0129 -0.90089,-0.13574 -0.38435,-0.0914 -0.67226,-0.33158 -0.90445,-0.62124 -0.23222,-0.28979 -0.39237,-0.6336 -0.52265,-0.9745 -0.11795,-0.28964 -0.28248,-0.59199 -0.50142,-0.80747 -0.21879,-0.21542 -0.49904,-0.34677 -0.85382,-0.31768 -0.40765,0.0816 -0.61868,-0.14239 -0.80022,-0.40054 -0.18143,-0.25856 -0.3437,-0.54573 -0.63895,-0.64945 -0.14172,-0.0378 -0.28163,-0.0728 -0.42359,-0.10993 l -0.0992,0.13571 -0.0307,0.12113 -0.0252,0.0903 -0.0252,0.0906 -0.14577,0.18818 -0.11449,0.0672 -0.12117,-0.0306 -0.12228,0.0976 -0.0908,-0.0252 -0.14452,0.0595 -0.2051,0.0438 -0.12116,-0.0305 -0.2362,0.16481 -0.35739,0.13348 -0.14449,0.0596 -0.20491,0.0439 -0.12117,-0.0306 -0.14576,0.18819 -0.26656,0.15695 -0.11451,0.0673 -0.28999,0.2478 -0.0907,-0.0252 -0.11451,0.0672 -0.35722,0.13358 -0.14452,0.0596 -0.14577,0.1882 -0.11447,0.0671 -0.0306,0.12115 -0.12118,-0.0306 -0.0905,-0.0252 -0.0907,-0.0252 -0.14451,0.0596 -0.14577,0.18831 -0.11449,0.0672 -0.31348,0.33858 -0.38075,0.22423 -0.14578,0.18831 -0.1758,0.18055 -0.28313,0.34631 -0.0252,0.0903 -0.29004,0.24767 -0.14579,0.18827 -0.14448,0.0596 -0.47151,0.20076 -0.0305,0.12114 -0.0907,-0.0252 -0.29002,0.24789 -0.28993,0.24767 -0.3809,0.22438 -0.13801,0.15788 -0.12227,0.0976 -0.1445,0.0595 -0.38089,0.22428 -0.61709,0.38916 -0.14448,0.0594 -0.23618,0.16483 -0.0252,0.0904 -0.38086,0.22426 -0.14449,0.0594 -0.12227,0.0975 -0.38082,0.2244 -0.1145,0.0671 -0.12115,-0.0306 -0.785,0.53932 -0.12231,0.0975 -0.0907,-0.0252 -0.88261,0.4173 0.0192,0.42466 0.0127,0.32609 -0.0882,1.59099 0.0676,0.11428 -0.0551,0.21172 0.0427,0.33385 -0.0551,0.21167 -0.0252,0.0904 0.0485,0.56122 0.0427,0.33393 -0.0535,0.9545 -0.07,1.14393 0.0551,0.65985 -0.0654,0.62863 0.23528,-0.036 0.9623,0.0232 0.74287,-0.002 0.30268,0.0777 0.24301,-0.0661 0.30277,0.0776 0.11448,-0.0671 0.30271,0.0775 1.1976,-0.013 0.32614,-0.0126 0.18158,0.0461 0.33396,-0.0426 0.44696,0.0188 0.41681,0.0118 1.28845,0.0106 0.33382,-0.0428 0.30268,0.0777 0.74273,-0.002 0.96251,0.0232 0.23522,-0.036 0.75057,-0.0317 0.21174,0.0551 0.0907,0.0252 1.19761,-0.0131 0.2353,-0.036 0.51537,0.004 0.3026,0.0776 1.43288,-0.0491 0.18179,0.0462 1.28843,0.0106 0.12115,0.0306 0.11449,-0.0672 0.0907,0.0252 0.30277,0.0777 0.33376,-0.0427 0.53788,0.0419 0.32604,-0.0124 0.54556,0.0128 0.0905,0.0252 0.98584,-0.0677 0.95462,0.0535 0.65985,-0.0552 0.71929,0.0898 0.33375,-0.0428 1.10701,-0.0366 0.0908,0.0252 0.53777,0.0429 0.44803,-0.11002 0.21172,0.0551 0.0908,0.0252 0.23522,-0.0361 0.75071,-0.0319 0.30263,0.0777 1.19769,-0.0129 1.6144,-0.002 0.75067,-0.0317 0.0907,0.0252 0.44696,0.0188 0.32612,-0.0125 0.75058,-0.0317 0.0907,0.0252 0.30276,0.0777 0.9858,-0.0678 0.32612,-0.0125 0.45475,-0.0115 0.50758,0.0341 0.44715,0.0188 0.75061,-0.0318 0.32603,-0.0126 0.30267,0.0777 0.0905,0.0252 0.47845,-0.10216 0.50747,0.0351 0.21166,0.055 0.75058,-0.0319 0.12113,0.0306 0.32615,-0.0125 0.84129,-0.008 0.32609,-0.0124 0.7809,-0.0241 0.0907,0.0252 0.23522,-0.0361 0.18179,0.0462 1.53145,-0.0557 0.41682,0.0118 1.9483,-0.0448 0.53779,0.0418 2.27431,-0.0574 0.41684,0.0118 0.12114,0.0306 0.42452,-0.0192 0.326,-0.0124 1.07667,-0.0442 1.28844,0.0106 0.21165,0.055 0.56914,-0.0787 1.49336,-0.0335 0.44707,0.0197 0.5154,0.004 0.32592,-0.0126 0.32614,-0.0125 0.42339,0.10981 0.21291,-0.0741 0.2352,-0.036 0.41681,0.0118 0.33375,-0.0428 0.32615,-0.0125 0.44696,0.0188 0.42465,-0.0192 0.86377,0.0297 0.53886,-0.0867 0.12117,0.0306 0.20508,-0.0439 0.12116,0.0306 0.42457,-0.0195 1.37922,0.0341 0.14451,-0.0596 0.30257,0.0777 0.53886,-0.0867 0.77302,0.006 0.0907,0.0252 0.33385,-0.0427 0.0907,0.0252 0.53778,0.0428 1.31191,-0.0803 1.7131,-0.009 0.21167,0.055 0.11451,-0.0673 0.12113,0.0306 0.0907,0.0252 0.11449,-0.0671 0.12116,0.0306 0.18158,0.0462 0.15233,-0.0896 0.49969,0.065 z"
       id="NY-23"
       style="font-style:normal;font-weight:400;font-size:34.375px;font-family:'MS Shell Dlg 2';opacity:1;fill:none;fill-opacity:1;fill-rule:evenodd;stroke:#000000;stroke-width:0.33333385;stroke-linecap:square;stroke-linejoin:bevel;stroke-miterlimit:4;stroke-dasharray:none;stroke-opacity:1" />
    <path
       inkscape:connector-curvature="0"
       d="m 198.77815,360.38105 0.14295,6.68624 2.55446,-0.0172 0,0 2.39524,-0.026 -0.006,0.77307 8.7957,-0.43661 c -0.41453,0.82277 -0.6027,1.48729 -0.63874,2.09429 -0.0366,0.60701 0.0833,1.14553 0.19151,1.63114 0.10817,0.48558 0.20641,0.92287 0.22379,1.38126 0.0173,0.45844 -0.0678,0.92663 -0.37567,1.4522 -0.0288,0.83402 0.0473,1.39731 0.15227,1.7824 0.10502,0.38516 0.25906,0.61473 0.43294,0.82209 0.17403,0.2074 0.35421,0.38573 0.53269,0.6865 0.17841,0.3008 0.33291,0.71018 0.45118,1.37553 l 8.36904,-0.15965 -0.27701,-4.17095 7.86567,-0.70944 -0.65937,-8.43374 c -0.2896,0.16169 -0.66728,0.0873 -0.97806,0.0375 -0.15017,-0.14295 -0.0944,-0.31688 -0.004,-0.48511 0.0909,-0.16824 0.21172,-0.35857 0.23186,-0.52106 -0.49175,-0.28845 -0.26823,-0.74612 -0.51487,-1.00466 -0.30568,-0.44552 -0.49414,-0.55553 -0.90248,-0.87895 -0.30494,-0.26099 -0.71315,-0.33729 -1.06459,-0.50128 -0.33812,-0.25262 -0.66774,-0.54002 -1.10955,-0.57744 -0.40335,-0.0207 -0.8297,-0.0692 -1.13405,-0.35783 -0.28828,-0.16101 -0.46176,-0.46824 -0.6916,-0.69535 -0.16644,-0.33413 -0.11054,-0.74646 -0.34017,-1.05631 l 0.85341,-2.42608 -2.02039,-0.42558 -0.5372,-1.04273 -1.362,-1.22375 -0.0309,-0.8795 -0.83453,0.10697 -0.14446,0.0594 -0.40438,0.31505 -0.64057,0.4799 -0.19927,0.27128 -0.14577,0.18823 -0.3808,0.22431 -0.21171,-0.055 -0.11451,0.0671 -0.0551,0.21166 -0.1145,0.0672 -0.12116,-0.0306 -0.0306,0.12116 -0.4716,0.20079 -0.93055,0.72771 -0.16796,0.15023 -0.23639,0.16483 -0.31348,0.33853 -0.47773,0.97389 -0.28335,0.34636 -0.0252,0.0904 -0.28999,0.24775 -0.0907,-0.0252 -0.24313,0.0662 -0.0907,-0.0252 -0.12114,-0.0306 -0.11449,0.0672 -0.0907,-0.0252 -0.31356,0.33851 -0.14578,0.18825 -0.12115,-0.0305 -0.14576,0.18824 -0.25868,0.12676 -0.23642,0.16484 -0.23518,0.036 -0.56915,0.0787 -0.18161,-0.0461 -0.29005,0.24775 -0.44805,0.11008 -0.14449,0.0595 -0.41682,-0.0118 -0.38079,0.22428 -0.2666,0.15705 -0.25969,0.25558 -0.14446,0.0595 -0.0907,-0.0252 -0.0907,-0.0252 -0.21163,-0.0551 -0.0907,-0.0252 -0.12116,-0.0306 -0.21293,0.0741 -0.23518,0.036 -0.32598,0.0124 -0.21177,-0.0551 -0.30258,-0.0777 -0.0907,-0.0252 -0.27909,-0.16889 -0.1145,0.0672 -0.30278,-0.0777 -0.12114,-0.0306 -0.0907,-0.0252 -0.30267,-0.0776 -0.12227,0.0975 -0.21168,-0.055 -0.0907,-0.0252 -0.14447,0.0595 -0.0907,-0.0252 -0.56905,0.0787 -0.0252,0.0903 -0.18178,-0.0463 -0.12116,-0.0306 -0.20489,0.0438 -0.21174,-0.055 -0.0907,-0.0252 -0.56907,0.0788 -0.2353,0.036 -0.0305,0.12117 -0.20486,0.0438 -0.30278,-0.0777 -0.12115,-0.0305 -0.11449,0.0671 -0.30266,-0.0777 -0.0907,-0.0252 -0.12117,-0.0306 -0.53884,0.0865 -0.12118,-0.0305 -0.53883,0.0865 -0.0987,0.007 z"
       id="NY-24"
       style="font-style:normal;font-weight:400;font-size:34.375px;font-family:'MS Shell Dlg 2';opacity:1;fill:none;fill-opacity:1;fill-rule:evenodd;stroke:#000000;stroke-width:0.33333385;stroke-linecap:square;stroke-linejoin:bevel;stroke-miterlimit:4;stroke-dasharray:none;stroke-opacity:1" />
    <path
       inkscape:connector-curvature="0"
       d="m 189.82642,358.55014 -0.49036,1.64849 -3.41045,-0.0428 0.0338,4.2372 1.83414,0.022 -0.83307,2.72189 11.96101,-0.07 -0.14293,-6.68626 -0.13668,0.0292 -0.0907,-0.0252 -0.26662,0.15701 -0.23527,0.0359 -0.2049,0.0437 -0.24313,0.0661 -0.34949,0.10329 -0.0306,0.12114 -0.0908,-0.0252 -0.14444,0.0595 -0.20511,0.0437 -0.50171,0.19304 -0.1223,0.0975 -0.0909,-0.0252 -0.28995,0.24777 -0.23519,0.036 -0.32612,0.0124 -0.46059,-0.21591 -0.4,-0.20023 -0.15034,-0.168 -0.12113,-0.0306 -0.34631,-0.28324 -0.0907,-0.0252 -0.27117,-0.19925 -0.12116,-0.0305 -0.18179,-0.0462 -0.0976,-0.12202 -0.33849,-0.31347 -0.21177,-0.0551 -0.25548,-0.25974 -0.0906,-0.0252 -0.19301,-0.50182 -0.36991,-0.19242 -0.30255,-0.0776 -0.21177,-0.055 -0.0675,-0.11426 -0.32593,0.0125 -0.23529,0.0359 -0.21175,-0.055 -0.18161,-0.0462 -0.15113,-0.0401 z"
       id="NY-25"
       style="font-style:normal;font-weight:400;font-size:34.375px;font-family:'MS Shell Dlg 2';opacity:1;fill:none;fill-opacity:1;fill-rule:evenodd;stroke:#000000;stroke-width:0.33333385;stroke-linecap:square;stroke-linejoin:bevel;stroke-miterlimit:4;stroke-dasharray:none;stroke-opacity:1" />
    <path
       inkscape:connector-curvature="0"
       d="m 168.209,373.61757 3.29623,0.11008 -0.0183,-6.16984 -0.62076,-0.0958 -0.0335,-1.49346 c -0.0464,0.0634 -0.0719,0.16623 -0.12254,0.22655 -0.2346,0.19744 -0.55614,0.0864 -0.83465,0.10694 -0.30538,-0.0353 -0.52024,0.2027 -0.80536,0.24361 -0.47444,-0.0145 -0.90609,-0.24268 -1.37717,-0.29157 -0.35735,-0.082 -0.69188,0.1432 -1.03956,0.15078 -0.18997,-0.18043 -0.0285,-0.5571 -0.14506,-0.81221 -0.055,-0.31569 -0.45241,-0.0838 -0.6587,-0.0741 -0.17529,0.12782 -0.30734,0.0961 -0.38652,-0.003 -0.0794,-0.0992 -0.10912,-0.27378 -0.0496,-0.43245 0.0384,-0.19612 -0.0473,-0.22947 -0.1648,-0.23628 -0.11761,-0.007 -0.25619,0.0461 -0.36414,0.035 -0.19252,-0.12838 -0.38031,-0.27675 -0.5727,-0.40633 l -0.0766,0.0448 -0.1523,0.0897 -0.0252,0.0903 0.0661,0.2431 -0.0252,0.0903 0.0675,0.11423 -0.0776,0.30269 -0.0305,0.12118 -0.1145,0.0672 -0.17578,0.1805 0.0976,0.122 0.60509,0.15654 0.0907,0.0252 0.21174,0.055 0.0907,0.0252 0.27908,0.1689 0.0597,0.14456 0.0428,0.33385 -0.12548,0.484 -0.17578,0.1805 -0.055,0.2117 0.0427,0.33382 -0.0252,0.0904 0.0675,0.11424 0.15697,0.26657 0.55032,0.36827 0.15814,0.13771 0.24765,0.29006 0.63639,0.0358 0.24788,0.29 0.15697,0.26647 0.0675,0.11438 0.0428,0.33384 0.0362,0.23526 -0.0461,0.1818 0.0363,0.2353 -0.14574,0.18819 -0.0463,0.18176 0.41674,0.0118 0.15706,0.26662 0.0441,0.20498 0.22421,0.38084 0.12114,0.0306 0.0907,0.0252 0.13362,0.35723 -0.0551,0.21175 -0.14452,0.0596 -0.0306,0.12115 0.11001,0.44802 -0.0252,0.0905 0.0907,0.0252 z"
       id="NY-26"
       style="font-style:normal;font-weight:400;font-size:34.375px;font-family:'MS Shell Dlg 2';opacity:1;fill:none;fill-opacity:1;fill-rule:evenodd;stroke:#000000;stroke-width:0.33333385;stroke-linecap:square;stroke-linejoin:bevel;stroke-miterlimit:4;stroke-dasharray:none;stroke-opacity:1" />
    <path
       inkscape:connector-curvature="0"
       d="m 162.41941,380.02838 c 0.14182,0.0377 0.28192,0.0717 0.42359,0.10973 0.29528,0.10366 0.4575,0.39089 0.63897,0.64945 0.18148,0.25848 0.39255,0.48224 0.8002,0.40051 0.3548,-0.0291 0.63508,0.10197 0.85387,0.31772 0.2189,0.21547 0.38344,0.51778 0.5014,0.80746 0.13028,0.34087 0.29039,0.68473 0.52264,0.97451 0.23217,0.28963 0.52011,0.52978 0.90446,0.62124 0.30201,0.14899 0.61222,0.17955 0.90088,0.13565 0.28867,-0.0435 0.56498,-0.16212 0.8289,-0.33432 0.61906,0.12993 1.0102,-0.57923 1.60297,-0.45701 0.2842,-0.39277 0.73232,-0.16562 1.07869,-0.30205 0.18042,-0.25743 0.39941,-0.52316 0.66515,-0.69943 0.26569,-0.17639 0.56222,-0.23886 0.91079,-0.15179 0.54751,0.20457 1.12291,0.1052 1.6233,-0.16131 0.61362,-0.11015 0.99247,-0.73355 1.64308,-0.7371 l 0.0788,0.56919 12.91449,0.11205 -0.0844,1.07566 2.44691,0.14871 0.0605,-1.85637 1.24246,0.0632 0.064,-1.37142 4.45582,0.11969 c 0.66571,-1.1867 1.6908,-2.25402 1.78859,-2.7975 0.0637,-0.36502 0.30322,-1.46529 0.46944,-1.8153 0.3655,-0.50657 0.68616,-1.03643 0.92224,-1.56907 0.23589,-0.53268 0.39412,-1.07228 0.43038,-1.664 l 0.45496,-0.0115 -0.0871,-5.15476 -2.55446,0.0172 0,0 -11.96101,0.07 0.83304,-2.72189 -1.8341,-0.022 -0.0339,-4.23719 3.41044,0.0428 0.49037,-1.64849 -0.0602,-0.0151 -1.26492,-0.10142 -0.27907,-0.16894 -0.30269,-0.0777 -0.32599,0.0124 -0.60512,-0.15654 -0.27906,-0.16891 -0.0907,-0.0252 -0.12114,-0.0305 -0.44024,0.0798 -0.54554,-0.0128 -0.2051,0.0437 -0.12114,-0.0306 -0.30259,-0.0776 -0.41679,-0.0118 -0.0907,-0.0252 -0.30278,-0.0777 -0.21164,-0.0551 -0.24303,0.0662 -0.41679,-0.0118 -0.0906,-0.0252 -0.12116,-0.0306 -0.20506,0.0437 -0.12117,-0.0307 -0.65986,0.0552 -0.20487,0.0437 -0.56914,0.0787 -0.41679,-0.0118 -0.21168,-0.0551 -0.33382,0.0428 -0.21178,-0.0551 -0.3259,0.0124 -0.0907,-0.0252 -0.41675,-0.0118 -0.21174,-0.055 -0.33386,0.0428 -0.0907,-0.0252 -0.12118,-0.0306 -0.0907,-0.0252 -0.0907,-0.0252 -0.23522,0.036 -0.98586,0.0678 -0.23531,0.0359 -0.42455,0.0194 -0.0907,-0.0252 -0.21165,-0.0551 -0.0907,-0.0252 -0.12117,-0.0306 -0.53102,0.0564 -0.33393,0.0428 -0.0252,0.0903 -0.21166,-0.055 -0.44815,0.11006 -1.15374,0.21806 -0.21293,0.074 -1.29931,0.40635 -0.44803,0.11007 -0.56133,0.0485 -0.12232,0.0975 -0.5926,0.16952 -0.44029,0.0798 -0.33376,0.0428 -0.0252,0.0904 -0.12113,-0.0306 -0.20509,0.0437 -0.35724,0.13358 -0.14445,0.0594 -0.80545,0.24357 -0.70682,0.23682 -0.47149,0.20085 -0.35742,0.13353 -0.59251,0.16953 -0.41673,-0.0118 -0.94996,0.30304 0.13362,0.35733 0.10317,0.34949 0.11013,0.44809 -0.0252,0.0903 -0.0777,0.30266 0.0598,0.14456 0.0741,0.21282 -0.0305,0.12115 -0.0463,0.1817 -0.055,0.21168 0.0674,0.11425 0.0362,0.23534 0.0976,0.12198 0.0362,0.23533 -0.0252,0.0903 0.0598,0.14459 -0.0462,0.18168 -0.1223,0.0975 -0.0252,0.0905 -0.0378,0.0224 c 0.19237,0.12965 0.38019,0.27807 0.5727,0.40632 0.1079,0.0119 0.2466,-0.0417 0.36416,-0.035 0.1175,0.007 0.20753,0.0419 0.16479,0.23629 -0.0596,0.15866 -0.0294,0.33337 0.0496,0.43243 0.0793,0.0992 0.21122,0.13097 0.38651,0.003 0.20637,-0.0103 0.60377,-0.24214 0.65868,0.0742 0.11663,0.25512 -0.0447,0.63178 0.14505,0.81221 0.3477,-0.007 0.68261,-0.23424 1.03959,-0.15079 0.47109,0.0485 0.90268,0.27743 1.37713,0.29175 0.28512,-0.041 0.50005,-0.2797 0.80534,-0.2436 0.27852,-0.0206 0.60008,0.0903 0.83466,-0.10693 0.0508,-0.0605 0.0763,-0.16315 0.12252,-0.22656 l 0.0335,1.49345 0.62076,0.0959 0.0183,6.16984 -3.29625,-0.11009 -0.0306,0.12116 0.12115,0.0306 0.0127,0.32597 -0.0462,0.18178 -0.14578,0.1882 -0.0252,0.0904 -0.15232,0.0896 -0.57324,0.59421 -0.11448,0.0672 -0.28997,0.24766 -0.24304,0.0661 -0.34959,0.10339 -0.12232,0.0975 -0.40426,0.31501 -0.40424,0.31502 -0.33384,0.0428 -0.23532,0.0361 -0.23622,0.16491 -0.38085,0.22419 -0.22272,0.36205 -0.0551,0.21167 -0.0252,0.0904 0.0192,0.42453 -0.0306,0.12115 -0.25871,0.12689 -0.0907,-0.0252 -0.29006,0.24767 -0.0305,0.12114 -0.33703,0.4293 -0.0551,0.21174 -0.16919,0.27902 -0.11448,0.0671 -0.0306,0.12115 -0.0252,0.0905 -0.1236,0.22625 z"
       id="NY-27"
       style="font-style:normal;font-weight:400;font-size:34.375px;font-family:'MS Shell Dlg 2';opacity:1;fill:none;fill-opacity:1;fill-rule:evenodd;stroke:#000000;stroke-width:0.33333385;stroke-linecap:square;stroke-linejoin:bevel;stroke-miterlimit:4;stroke-dasharray:none;stroke-opacity:1" />
  </g>
</svg>
