<?xml version="1.0" encoding="UTF-8" standalone="no"?>
<!-- Created with Inkscape (http://www.inkscape.org/) -->

<svg
   xmlns:dc="http://purl.org/dc/elements/1.1/"
   xmlns:cc="http://creativecommons.org/ns#"
   xmlns:rdf="http://www.w3.org/1999/02/22-rdf-syntax-ns#"
   xmlns:svg="http://www.w3.org/2000/svg"
   xmlns="http://www.w3.org/2000/svg"
   xmlns:sodipodi="http://sodipodi.sourceforge.net/DTD/sodipodi-0.dtd"
   xmlns:inkscape="http://www.inkscape.org/namespaces/inkscape"
   width="41.525993mm"
   height="47.627617mm"
   viewBox="0 0 147.13937 168.75928"
   id="svg12983"
   version="1.1"
   inkscape:version="0.91 r"
   sodipodi:docname="6.svg">
  <defs
     id="defs12985" />
  <sodipodi:namedview
     id="base"
     pagecolor="#ffffff"
     bordercolor="#666666"
     borderopacity="1.0"
     inkscape:pageopacity="0.0"
     inkscape:pageshadow="2"
     inkscape:zoom="4.950896"
     inkscape:cx="49.315443"
     inkscape:cy="84.125562"
     inkscape:document-units="px"
     inkscape:current-layer="layer1"
     showgrid="false"
     fit-margin-top="1"
     fit-margin-left="1"
     fit-margin-right="1"
     fit-margin-bottom="1"
     inkscape:window-width="2560"
     inkscape:window-height="1388"
     inkscape:window-x="0"
     inkscape:window-y="0"
     inkscape:window-maximized="1" />
  <metadata
     id="metadata12988">
    <rdf:RDF>
      <cc:Work
         rdf:about="">
        <dc:format>image/svg+xml</dc:format>
        <dc:type
           rdf:resource="http://purl.org/dc/dcmitype/StillImage" />
        <dc:title></dc:title>
      </cc:Work>
    </rdf:RDF>
  </metadata>
  <g
     inkscape:label="Layer 1"
     inkscape:groupmode="layer"
     id="layer1"
     transform="translate(-429.2778,-375.26217)">
    <path
       inkscape:connector-curvature="0"
       d="m 482.45383,379.59944 c 0.0209,1.54466 0.0372,3.08309 0.0575,4.62775 1.73188,0.10414 3.45008,0.20428 5.18184,0.30851 -0.015,1.69899 -0.50874,3.44894 -0.85165,5.12914 -0.17147,0.84006 -0.29847,1.67549 -0.29695,2.46825 0.003,0.79275 0.12073,1.55344 0.46464,2.27072 0.0216,0.95473 -0.13185,1.66759 -0.4234,2.23316 -0.29148,0.56542 -0.71248,0.96759 -1.20769,1.33002 -0.99022,0.7248 -2.29825,1.23435 -3.44652,2.26337 -1.59472,0.43188 -3.27109,0.91516 -4.76736,1.5907 -0.74809,0.33769 -1.46418,0.71586 -2.08156,1.1644 -0.61728,0.44847 -1.1384,0.97372 -1.55416,1.56606 -1.13285,0.0484 -2.08926,0.13704 -2.69589,0.58521 -0.30326,0.22395 -0.52204,0.51921 -0.62602,0.9676 -0.10385,0.44845 -0.0877,1.03428 0.053,1.79034 0.27034,0.62088 0.43889,1.24441 0.49898,1.82459 0.06,0.58018 0.0186,1.11473 -0.0962,1.62121 -0.11508,0.50659 -0.31635,0.97034 -0.57156,1.37024 -0.25511,0.39989 -0.57563,0.74907 -0.93558,1.00947 -0.36007,0.2604 -0.75889,0.45113 -1.18849,0.53909 -0.42968,0.0881 -0.89687,0.0807 -1.36098,-0.0367 -0.4641,-0.11739 -0.92765,-0.37085 -1.39109,-0.72646 -0.46353,-0.35562 -0.93596,-0.82858 -1.3636,-1.45543 -0.40021,0.0269 -0.73952,-0.061 -1.04121,-0.23763 -0.30168,-0.17659 -0.56597,-0.45337 -0.79856,-0.775 -0.46522,-0.64336 -0.80543,-1.49022 -1.17116,-2.36439 -0.36562,-0.87421 -0.73541,-1.74782 -1.23719,-2.38706 -0.25087,-0.31958 -0.53135,-0.59307 -0.86047,-0.76664 -0.3291,-0.17346 -0.69738,-0.25585 -1.13417,-0.22505 -0.12681,2.78864 -0.25847,5.55714 -0.38528,8.34567 -0.65009,-0.10242 -1.16349,-0.0715 -1.54253,0.0193 -0.37899,0.0909 -0.63382,0.26621 -0.78591,0.48469 -0.15202,0.21839 -0.21297,0.46996 -0.18239,0.74987 0.031,0.27998 0.16506,0.56246 0.33406,0.83781 0.33786,0.55088 0.88972,1.04552 1.51582,1.18256 0.31311,0.0684 0.64541,0.035 0.96411,-0.0993 0.31884,-0.13379 0.62294,-0.38209 0.90305,-0.78436 0.7395,0.28973 1.32435,0.96223 1.86995,1.70239 0.54568,0.74007 1.06622,1.5487 1.67664,2.13834 0.43244,0.83984 0.98158,1.42805 1.65739,1.76254 0.67586,0.33454 1.46611,0.44012 2.39796,0.24349 0.87172,-0.0229 1.86891,0.0811 2.74453,0.008 0.43785,-0.0362 0.8431,-0.11196 1.19108,-0.28717 0.3478,-0.1756 0.63527,-0.43988 0.83261,-0.83791 1.2014,0.12292 2.25609,0.5212 3.20495,1.08031 0.94886,0.55912 1.78028,1.25993 2.63243,1.97764 0.85225,0.71767 1.69854,1.44514 2.60996,2.04372 0.91131,0.59858 1.91776,1.08938 3.04414,1.29125 0.76635,-0.0145 1.52881,0.10824 2.28246,0.32211 0.75373,0.21382 1.47707,0.51917 2.19056,0.80756 0.71336,0.28834 1.41288,0.55339 2.05808,0.76234 0.64531,0.20889 1.26022,0.34747 1.80959,0.32293 -0.13755,0.59761 -0.16263,1.07065 -0.0594,1.42711 0.10347,0.35638 0.3156,0.61387 0.58183,0.80431 0.53239,0.38071 1.32982,0.50176 2.04562,0.66936 0.10971,0.72977 -0.005,1.65555 -0.0366,2.5277 -0.0318,0.87223 0.0133,1.66268 0.35503,2.15949 2.32983,0.0101 4.64392,0.0242 6.97373,0.0346 -0.62231,0.632 -1.01369,1.3394 -1.21261,1.99297 -0.19894,0.65353 -0.1898,1.26583 0.0175,1.76351 0.20745,0.4977 0.61522,0.86992 1.21194,1.03445 0.59682,0.16452 1.36614,0.12487 2.33524,-0.22105 0.44946,0.22471 0.72429,0.46848 0.85628,0.73569 0.13197,0.26724 0.13959,0.54564 0.0506,0.84461 -0.17679,0.59777 -0.71445,1.26867 -1.19004,1.92683 -0.47564,0.65806 -0.9054,1.32093 -0.90296,1.95098 10e-4,0.31505 0.10689,0.60411 0.37338,0.89563 0.26634,0.29144 0.71298,0.57071 1.34174,0.82771 0.40846,0.0718 0.72825,0.26368 1.01693,0.52467 0.28867,0.26097 0.52903,0.59083 0.7308,0.97334 0.40347,0.76516 0.65989,1.70941 0.91324,2.55701 0.25344,0.84749 0.50244,1.60396 0.86897,1.99525 0.18328,0.19573 0.40866,0.30723 0.66961,0.28787 0.26092,-0.0204 0.57332,-0.17286 0.94494,-0.47457 0.2616,-0.56828 0.54385,-1.01845 0.88544,-1.3811 0.34156,-0.36274 0.74435,-0.62143 1.15079,-0.81785 0.813,-0.39287 1.73019,-0.49711 2.71264,-0.46131 1.96498,0.0714 4.14626,0.67128 6.06821,0.56704 0.83543,0.18828 1.64053,0.59819 2.41811,1.09206 0.77759,0.49387 1.52633,1.06834 2.29095,1.55083 0.76463,0.4824 1.55099,0.88436 2.34783,1.03849 0.39839,0.0771 0.787,0.0913 1.20189,0.0267 0.41497,-0.0642 0.82597,-0.20894 1.26299,-0.4545 0.23048,0.24704 0.37679,0.5865 0.44785,0.98 0.0712,0.39355 0.0915,0.84668 0.0829,1.31327 -0.0167,0.93305 -0.12491,1.92415 0.0195,2.70932 0.10149,2.06776 0.071,4.15275 0.17859,6.21961 0.0537,1.03343 0.12551,2.06445 0.29053,3.08256 0.16556,1.01822 0.40464,2.02686 0.75513,3.01987 -0.0802,0.32172 -0.30252,0.58147 -0.62009,0.77758 -0.3177,0.19615 -0.7297,0.33955 -1.16595,0.47299 -0.87243,0.2668 -1.86646,0.48042 -2.49924,0.87395 -0.44215,0.0153 -0.85502,-0.15162 -1.2789,-0.36314 -0.42384,-0.2115 -0.84,-0.46896 -1.2631,-0.71217 -0.42301,-0.24322 -0.86394,-0.46916 -1.30402,-0.54903 -0.44005,-0.0798 -0.87964,-0.0321 -1.35422,0.24629 0.58062,2.21719 1.92172,4.82571 2.80106,7.18951 0.32048,0.45296 0.53411,0.87542 0.64041,1.23775 0.10619,0.36245 0.11248,0.67531 10e-4,0.94589 -0.11084,0.2705 -0.33731,0.48023 -0.66787,0.65783 -0.33068,0.17771 -0.7492,0.3134 -1.30238,0.39687 -0.62671,0.0997 -0.91524,0.29408 -0.99849,0.54491 -0.0831,0.25091 0.0424,0.54938 0.24531,0.88138 0.40641,0.66392 1.11186,1.42579 1.1208,1.99277 0.17456,0.58439 0.17235,1.02809 0.0254,1.35253 -0.14704,0.32454 -0.43647,0.54611 -0.78755,0.70567 -0.70228,0.31919 -1.68795,0.39312 -2.5017,0.62201 -0.76428,-0.32604 -1.63559,-0.35476 -2.24477,-0.0432 -0.30467,0.15572 -0.56353,0.38617 -0.69051,0.72405 -0.12699,0.33786 -0.12234,0.78647 0.0212,1.32159 0.15297,0.63625 0.14575,1.0548 0.0212,1.32161 -0.12406,0.26673 -0.36111,0.37416 -0.6436,0.37087 -0.565,-0.007 -1.34378,-0.46101 -1.83141,-0.95078 -0.37213,-0.091 -0.69595,-0.41317 -1.01947,-0.77662 -0.32357,-0.36341 -0.63611,-0.77525 -0.96435,-1.0679 0.11598,-0.62206 0.0661,-1.04884 -0.0872,-1.34416 -0.15338,-0.29541 -0.43122,-0.4509 -0.76504,-0.52724 -0.66771,-0.15292 -1.58815,0.0333 -2.44482,0.11027 -0.42113,0.16623 -0.66043,0.0874 -0.80349,-0.11213 -0.14305,-0.19915 -0.19143,-0.53682 -0.18765,-0.92058 0.005,-0.49704 0.003,-0.92862 4.2e-4,-1.38775 -1.63541,0.022 -3.27528,0.0431 -4.91059,0.0649 0.0364,-0.80141 0.0788,-1.61068 0.11523,-2.41221 l -5.67896,-0.0207 -0.52559,-0.62278 0,0 -2.13369,-2.48653 c -0.18882,0.11782 -0.15991,0.23392 -0.6127,0.36669 -0.28168,0.0489 -0.52163,0.33038 -0.69042,0.72403 -0.16878,0.39366 -0.26159,0.90875 -0.28452,1.39439 -0.0229,0.48573 0.0156,0.94483 0.17169,1.26976 0.15606,0.32491 0.41568,0.51888 0.7835,0.43018 0.63146,-0.19737 1.0218,-0.17862 1.26386,0.0184 0.24205,0.19692 0.33564,0.57036 0.35501,0.99266 0.0387,0.84463 -0.19482,1.95283 -0.0468,2.68679 0.009,4.06835 9e-4,8.13393 0.01,12.20239 0.63264,-0.0833 1.11209,-0.38317 1.64459,-0.66385 0.53257,-0.28069 1.14725,-0.52825 2.04559,-0.49737 -0.0554,-0.59991 0.073,-0.97205 0.34476,-1.18185 0.27177,-0.20969 0.68138,-0.25348 1.13322,-0.24777 0.9039,0.0122 2.00993,0.2762 2.75707,0.10021 0.65554,-0.18639 1.13137,-0.21385 1.46814,-0.10403 0.33665,0.10997 0.54838,0.34664 0.65781,0.66787 0.21897,0.64247 0.0512,1.62033 -0.09,2.598 0.17234,0.68792 -0.13424,1.7961 -0.25925,2.74701 -0.0625,0.47546 -0.0684,0.9344 0.0432,1.25549 0.11207,0.32108 0.34342,0.50312 0.79597,0.52306 3.34166,0.19866 6.70398,0.39815 10.04554,0.59691 0.87743,1.20684 1.87482,2.18824 3.02253,2.99705 1.0482,0.73863 2.24961,1.31524 3.56156,1.85201 l 0,0 c 0.12466,0.0509 0.21177,0.12514 0.339,0.17496 -0.18972,-0.58679 -0.22014,-1.02797 -0.14889,-1.33589 0.0709,-0.3079 0.23381,-0.48874 0.49053,-0.57088 0.51332,-0.16427 1.3427,0.0768 2.14847,0.49783 -0.14189,-0.83363 -0.0207,-1.53562 0.2812,-2.11918 0.30143,-0.58366 0.76687,-1.03256 1.35826,-1.38205 0.59143,-0.34938 1.28842,-0.583 2.01632,-0.714 0.7278,-0.13113 1.48208,-0.1791 2.1928,-0.1074 2.03109,-0.0533 4.06487,-0.10887 6.09586,-0.16188 -0.17553,0.61395 -0.20093,1.08207 -0.12135,1.4355 0.0797,0.35331 0.26451,0.59582 0.54251,0.74645 0.55586,0.30133 1.46449,0.26929 2.47405,0.10704 10.37545,-0.1762 20.74194,-0.34174 31.1175,-0.5178 l -0.0142,-0.0926 -0.18703,-6.28158 -0.0369,-0.97252 0.0143,-0.12808 -0.0162,-0.12395 -0.0142,-0.0927 -0.0327,-2.10841 -0.008,-0.28287 -0.0689,-1.44139 -0.0507,-2.0113 -0.14461,-4.80509 -0.007,-0.0308 0.009,-0.63192 -0.007,-0.0309 -0.0232,-0.40683 -0.0203,-0.84867 -0.0861,-2.03811 -0.0316,-1.16251 -0.0639,-3.27091 -0.0142,-0.0927 -0.0142,-0.0927 0.0184,-0.0971 -0.0675,-0.96846 -0.0203,-0.84874 0.0201,-0.31796 -0.0162,-0.12392 -0.0162,-0.12395 0.009,-0.15907 -0.0939,-2.79393 0.008,-0.4109 -0.0537,-1.09651 10e-4,-0.2209 -0.0339,-1.41453 -0.0162,-0.12394 -0.0444,-1.72836 -0.0494,-1.06547 -0.0589,-2.76705 -0.0537,-2.26321 -0.0432,-1.25548 -0.0484,-1.28639 -0.0891,-3.45684 -0.27435,-8.79253 -0.0124,-1.25967 -0.0586,-1.60029 -0.16725,-5.43289 0.0121,-0.38001 -0.0274,-0.43762 -0.0232,-0.40684 0.0121,-0.38 -0.0516,-0.84443 -0.0202,-0.37577 0.003,-0.91488 -0.0547,-1.56935 -0.0444,-1.72842 -0.15003,-4.14225 0.0327,-0.22511 -0.0275,-0.43772 -0.0275,-0.43772 10e-4,-0.22093 -0.007,-0.0309 0.0142,-0.12805 -0.0275,-0.43772 -0.0232,-0.40674 -0.0201,-0.3758 -0.007,-0.0309 0.0121,-0.37997 -0.0275,-0.43774 0.008,-0.41089 -0.0379,-0.27875 -0.008,-0.28299 -0.0142,-0.0926 0.009,-0.15909 -0.008,-0.0619 0.004,-0.66295 -0.007,-0.0309 -0.007,-0.0308 -0.0142,-0.0927 10e-4,-0.22092 -0.0162,-0.12394 -0.008,-0.53489 -0.004,-0.25193 -0.0276,-0.43763 -0.007,-0.0309 0.0268,-0.0351 -0.0152,-0.34477 -0.0201,-0.37577 -0.0274,-0.43774 -0.0201,-0.37578 0.008,-0.41088 -0.0232,-0.40685 -0.008,-0.75579 -0.007,-0.0309 -0.008,-0.28287 0.005,-0.19002 -0.0246,-0.18587 10e-4,-0.221 -0.0232,-0.40675 0.008,-0.41092 -0.0162,-0.12393 -0.004,-0.25194 0.0142,-0.12805 -0.008,-0.0621 -0.0267,-0.65865 -0.0178,-0.59682 -0.007,-0.0308 -0.0329,-0.9416 0.0121,-0.38002 -0.0312,-0.46868 -0.0242,-0.87968 -0.0176,-0.59685 -0.0115,-0.7867 -0.0276,-0.43784 10e-4,-0.22091 -0.007,-0.0309 -0.0294,-1.38354 -0.0245,-0.18578 0.0185,-0.0973 -0.0162,-0.12391 0.003,-0.44189 -0.0312,-0.46872 -0.0212,-1.32171 -0.0515,-0.84442 -0.0901,-3.23576 0.004,-0.66295 -0.0152,-0.34478 -0.0464,-0.81369 -0.037,-2.13933 -0.0217,-0.62774 -0.0369,-0.97254 -0.0225,-1.10058 -0.0345,-0.72068 -0.0432,-1.25548 -0.0292,-1.38355 -0.007,-0.0308 -0.005,-0.72487 -0.0429,-0.78255 -0.0478,-2.45328 -0.0659,-1.88322 -0.0139,-0.56568 -0.0696,-1.91423 0.0143,-0.12807 -0.052,-1.31741 -0.0459,-1.03445 -0.004,-0.25193 0.0142,-0.12802 -0.0162,-0.12396 -0.0265,-0.65873 -0.0401,-1.69741 -0.008,-0.28288 -0.007,-0.0309 -0.0161,-0.81775 -3.08097,0.0696 -1.19353,0.0351 -0.28288,0.008 -0.37577,0.0201 -0.0972,-0.0185 -0.062,0.008 -1.09639,0.0537 -0.50388,0.005 -0.34487,0.0152 -0.12806,-0.0142 -0.34488,0.0152 -0.0927,0.0142 -0.0309,0.007 -2.01125,0.0517 -0.5348,0.008 -2.57707,0.0647 -0.0927,0.0142 -0.28298,0.006 -1.66651,0.0361 -0.25191,0.004 -1.53833,0.0506 -0.0972,-0.0185 -2.07732,0.0284 -0.34487,0.0152 -0.0308,0.007 -0.94168,0.033 -1.50745,0.0458 -0.0351,-0.0268 -0.44192,-0.004 -0.81775,0.0161 -0.0308,0.007 -0.062,0.008 -0.34479,0.0152 -0.38,-0.0121 -0.40683,0.0232 -0.78674,0.0115 -0.40674,0.0232 -0.28297,0.007 -2.2364,0.0183 -0.7868,0.0115 -0.40684,0.0232 -0.44182,-0.004 -0.78683,0.0115 -0.40684,0.0232 -0.44185,-0.004 -0.41101,-0.008 -0.65873,0.0265 -0.0619,0.008 -0.46295,-0.1581 -0.0661,-0.0227 -0.15906,-0.009 -0.21672,0.0296 -0.44202,-0.004 -0.40673,0.0232 -0.37998,-0.0121 -0.78674,0.0115 -0.0927,0.0142 -0.38001,-0.0121 -0.12392,0.0162 -1.70161,0.009 -1.10057,0.0225 -7.01903,0.0976 -0.12804,-0.0142 -0.62776,0.0217 -0.91058,0.029 -0.12393,0.0162 -0.062,0.008 -2.08568,-0.0332 -0.21679,0.0296 -0.18999,-0.005 -0.062,0.008 -0.50385,0.005 -0.44193,-0.004 -0.0309,0.007 -0.37998,-0.0121 -0.91481,-0.003 -0.0308,0.007 -0.12807,-0.0142 -0.0309,0.007 -0.59669,0.0177 -0.0353,-0.0269 -0.0309,0.007 -0.0309,0.007 -0.062,0.008 -0.0309,0.007 -0.0619,0.008 -0.0663,-0.0227 -0.0308,0.007 -0.12807,-0.0142 -0.0309,0.007 -3.5933,0.0126 -1.41864,0.004 -0.12394,0.0162 -0.85294,-0.009 -0.82183,-0.015 -3.43421,0.0228 -3.75634,-0.0278 -1.79873,-0.009 -2.62059,-0.0242 -2.93453,-0.0131 -0.25189,0.004 -0.15911,-0.009 -1.07372,-0.0128 -0.84876,0.0203 -0.50807,-0.026 -1.03866,0.0147 -0.12802,-0.0142 -0.0927,0.0142 -0.0309,0.007 -0.0972,-0.0184 -0.0662,-0.0228 -0.25193,0.004 -1.1358,-0.004 -2.62054,-0.0242 -2.33782,-0.0309 -0.0618,0.008 z"
       id="AZ-01"
       style="font-style:normal;font-weight:400;font-size:34.375px;font-family:'MS Shell Dlg 2';opacity:1;fill:none;fill-opacity:1;fill-rule:evenodd;stroke:#000000;stroke-width:0.333;stroke-linecap:square;stroke-linejoin:bevel;stroke-miterlimit:4;stroke-dasharray:none;stroke-opacity:1" />
    <path
       inkscape:connector-curvature="0"
       d="m 571.85787,508.37549 c -10.37555,0.17607 -20.74204,0.34163 -31.1175,0.51778 -1.00957,0.16219 -1.91814,0.19448 -2.47404,-0.10704 -0.27799,-0.15063 -0.46287,-0.39315 -0.54252,-0.74645 -0.0796,-0.35343 -0.0543,-0.82154 0.12136,-1.43549 -2.03098,0.0532 -4.06476,0.10896 -6.09588,0.16188 -0.71068,-0.0714 -1.46498,-0.0238 -2.19278,0.1074 -0.72791,0.13104 -1.4249,0.36462 -2.01631,0.714 -0.59142,0.34949 -1.05684,0.79839 -1.35826,1.38205 -0.30153,0.58356 -0.42317,1.28557 -0.28119,2.11917 -0.80579,-0.42102 -1.63518,-0.66207 -2.14849,-0.49781 -0.25672,0.082 -0.41944,0.26297 -0.49053,0.57087 -0.0709,0.30789 -0.0406,0.74911 0.1489,1.33589 -0.12726,-0.0498 -0.21435,-0.12392 -0.33902,-0.17496 l 0.47632,1.89074 c 0.80618,-0.008 1.61614,-0.0355 2.42229,-0.0438 0.13383,0.69038 0.43133,1.29589 0.81703,1.84455 0.3857,0.54877 0.83221,1.04644 1.25219,1.56515 0.26032,0.29609 0.38674,0.54672 0.38763,0.76747 0.002,0.22079 -0.10039,0.39591 -0.27362,0.54156 -0.34669,0.29126 -0.95048,0.4612 -1.48397,0.45292 -0.62418,1.20649 -1.33444,2.33988 -2.30899,3.21331 -0.0992,0.52072 -0.0226,1.17939 -0.1146,1.71838 -0.0459,0.26946 -0.11634,0.51946 -0.2837,0.70052 -0.16733,0.18115 -0.43605,0.29912 -0.80687,0.32988 -0.0504,0.57485 0.18898,1.11584 0.38099,1.65134 0.19198,0.53553 0.33348,1.05514 0.15961,1.64977 -0.0582,0.35614 0.14949,0.42238 0.4344,0.41421 0.28486,-0.01 0.65743,-0.0822 0.87968,-0.0242 4.44309,-0.0485 8.87844,-0.0815 13.32151,-0.12976 -0.0686,3.75543 -0.11316,7.49542 -0.18177,11.25078 l 0.062,-0.008 6.2279,-0.1168 1.60456,-0.0276 0.0971,0.0184 3.23994,-0.0595 0.0662,0.0226 1.06548,-0.0493 0.97671,-0.005 1.22456,-0.0395 0.9106,-0.028 0.91067,-0.029 4.27868,-0.0739 0.94158,-0.0329 0.25192,-0.004 0.062,-0.008 0.0927,-0.0142 0.0353,0.0269 0.0309,-0.007 0.22094,10e-4 0.12392,-0.0162 0.12395,-0.0162 0.0971,0.0184 0.15482,-0.0216 0.062,-0.008 0.41093,0.009 0.15908,0.009 0.24783,-0.0329 4.24346,-0.10076 0.50387,-0.005 0.53489,-0.008 5.5961,-0.12597 -0.12793,-4.20846 -0.0139,-0.5657 -0.0815,-3.86773 -0.14681,-4.58418 -0.0203,-0.37576 -0.033,-0.94161 -0.005,-0.50388 -0.008,-0.28287 -0.0339,-1.41454 -0.0734,-2.63901 -0.0232,-0.40684 -0.0395,-1.22445 0.0121,-0.37996 -0.0162,-0.12394 -0.0276,-1.60449 -0.21485,-7.88611 z"
       id="AZ-02"
       style="font-style:normal;font-weight:400;font-size:34.375px;font-family:'MS Shell Dlg 2';opacity:1;fill:none;fill-opacity:1;fill-rule:evenodd;stroke:#000000;stroke-width:0.333;stroke-linecap:square;stroke-linejoin:bevel;stroke-miterlimit:4;stroke-dasharray:none;stroke-opacity:1" />
    <path
       inkscape:connector-curvature="0"
       d="m 538.15038,540.11553 c 0.0687,-3.75537 0.11326,-7.49537 0.18178,-11.2508 -4.44309,0.0482 -8.87844,0.0814 -13.32154,0.12976 -0.22215,-0.0571 -0.59478,0.0164 -0.87967,0.0242 -0.28485,0.01 -0.49273,-0.0582 -0.43442,-0.4142 0.1735,-0.5946 0.0319,-1.11424 -0.15959,-1.64979 -0.19198,-0.5355 -0.43141,-1.07648 -0.38099,-1.65133 0.37079,-0.0309 0.63953,-0.14881 0.80687,-0.32989 0.16736,-0.18107 0.23779,-0.43105 0.2837,-0.70051 0.0918,-0.53898 0.0153,-1.19766 0.11462,-1.71837 0.97454,-0.87345 1.68479,-2.00683 2.30895,-3.21332 0.53353,0.008 1.13728,-0.16185 1.48399,-0.45293 0.17325,-0.14563 0.27451,-0.32077 0.27362,-0.54155 -0.002,-0.22078 -0.12729,-0.47139 -0.38764,-0.76747 -0.41997,-0.51871 -0.86647,-1.01637 -1.25219,-1.56516 -0.38569,-0.54865 -0.68321,-1.15418 -0.81701,-1.84454 -0.80618,0.008 -1.61612,0.0356 -2.4223,0.0438 l -0.47632,-1.89072 c -1.31194,-0.53676 -2.51336,-1.11338 -3.56155,-1.85201 -1.14773,-0.80881 -2.14511,-1.79021 -3.02254,-2.99703 -3.34156,-0.19877 -6.70388,-0.39826 -10.04555,-0.59691 -0.45255,-0.0199 -0.68391,-0.20201 -0.79595,-0.52307 -0.11216,-0.32106 -0.10604,-0.78004 -0.0432,-1.25548 0.12503,-0.95094 0.4316,-2.05911 0.25928,-2.74703 0.14148,-0.97766 0.30908,-1.95555 0.09,-2.59802 -0.10947,-0.32121 -0.32115,-0.55788 -0.65782,-0.66786 -0.33677,-0.11 -0.81259,-0.0825 -1.46812,0.10405 -0.74715,0.17598 -1.85318,-0.0886 -2.75707,-0.10021 -0.45185,-0.006 -0.86147,0.0375 -1.13322,0.24777 -0.27174,0.2098 -0.39925,0.58184 -0.34476,1.18185 -0.89834,-0.0309 -1.51302,0.2167 -2.0456,0.49737 -0.53249,0.28067 -1.01194,0.58051 -1.64458,0.66384 -0.009,-4.06847 -9e-4,-8.13405 -0.01,-12.20241 -0.14805,-0.73397 0.0852,-1.84213 0.0467,-2.68677 -0.0197,-0.4223 -0.11266,-0.79582 -0.35502,-0.99269 -0.24205,-0.19686 -0.63237,-0.2156 -1.26383,-0.0181 -0.36782,0.0887 -0.62745,-0.10527 -0.78352,-0.43021 -0.15591,-0.32492 -0.19447,-0.784 -0.17158,-1.26974 0.0229,-0.48565 0.11574,-1.00073 0.28452,-1.3944 0.16879,-0.39368 0.40874,-0.67515 0.69044,-0.72404 0.45279,-0.13273 0.42386,-0.24883 0.61268,-0.3667 l 0,0 c 0.17804,-0.11092 0.58135,-0.23289 0.58585,-0.33148 0.008,-0.203 -0.29458,-0.35785 -0.63697,-0.51297 -0.34237,-0.15513 -0.732,-0.29942 -0.90737,-0.41346 -0.17525,-0.11394 -0.14117,-0.22229 0.36913,-0.3022 0.48772,-0.19621 0.73286,-0.44156 0.78756,-0.70557 0.0547,-0.264 -0.0775,-0.54341 -0.29049,-0.74913 -0.0525,-0.0507 -0.13999,-0.0562 -0.20257,-0.0988 l 0,0 c -0.19062,-0.12932 -0.39777,-0.24491 -0.63436,-0.26103 -0.31434,-0.0215 -0.61443,0.0801 -0.86465,0.36915 -0.15845,0.64242 -0.81152,1.55304 -1.45617,2.05736 -0.32243,0.25227 -0.62549,0.41456 -0.89564,0.37337 -0.27004,-0.0411 -0.51088,-0.29309 -0.61274,-0.80011 -0.0906,-0.29534 -0.31778,-0.34556 -0.53146,-0.43269 0,0 0,0 0,0 -0.0759,-0.0308 -0.092,-0.15464 -0.18,-0.16478 -0.33484,-0.0391 -0.73096,0.0608 -1.16834,0.22091 -0.87494,0.32053 -1.8532,0.85542 -2.48249,0.99792 -5.60413,-1.39498 -11.19869,-2.76606 -16.80284,-4.16116 -0.11417,6.75237 -0.24096,13.4776 -0.35506,20.22999 0.17752,0.64362 0.18098,1.12256 0.0733,1.47217 -0.1082,0.34976 -0.31213,0.58048 -0.6286,0.71567 -0.63282,0.27063 -1.60209,0.20858 -2.60389,0.0999 -1.59487,-0.20959 -3.17147,-0.0833 -4.69954,0.22563 -1.5282,0.30892 -3.02288,0.77701 -4.53477,1.21233 -0.52466,0.0186 -0.99141,0.12546 -1.38108,0.28127 -0.38959,0.15529 -0.68655,0.38242 -0.9507,0.66468 -0.52842,0.56439 -0.82579,1.34828 -0.91053,2.36199 -2.07017,-0.15744 -4.14025,-0.29572 -6.21043,-0.45328 -0.54163,0.0879 -0.99992,0.0754 -1.3877,-4.2e-4 -0.38783,-0.0771 -0.70601,-0.21888 -1.02696,-0.36571 -0.64205,-0.2937 -1.24249,-0.6521 -2.13863,-0.65698 -0.56212,-0.21905 -1.01066,-0.24609 -1.38182,-0.19158 -0.37129,0.0542 -0.66509,0.21728 -0.9575,0.38174 -0.29246,0.16457 -0.56124,0.32473 -0.88723,0.43541 -0.32592,0.11058 -0.71741,0.17308 -1.18928,0.0662 -0.28845,-0.59161 -0.21862,-1.4827 -0.10588,-2.4138 0.0571,-0.47082 0.0746,-0.90456 0.12962,-1.37357 l -0.13226,-0.0451 -0.0308,0.007 -0.19844,-0.0677 -0.159,-0.009 -0.0973,-0.0186 -0.0352,-0.0267 -0.0308,0.007 -0.28712,-0.0243 -0.007,-0.0309 -0.15911,-0.009 -0.0308,0.007 -0.2603,-0.0596 -0.13224,-0.045 -0.12806,-0.0143 -0.25034,-0.21844 -0.0308,0.007 -0.0308,0.007 -0.0805,0.10544 -0.24516,0.28541 -0.0184,0.0972 -0.0412,0.16316 -0.0535,0.0705 -0.072,0.16734 -0.21843,0.25034 0.0162,0.12392 -0.0269,0.0351 -0.33564,0.54992 -0.0366,0.19418 -0.0537,0.0703 0.007,0.0308 -0.0184,0.0972 -0.13385,0.17572 -0.11546,0.0788 -0.16918,0.149 -0.0227,0.0661 0.0352,0.0269 0.008,0.062 -0.0268,0.0351 -0.0535,0.0704 -0.20417,0.12216 -0.0844,0.0745 -0.0308,0.007 -0.0269,0.0351 -0.0577,0.0395 0.008,0.062 0.0142,0.0927 -0.20845,0.0911 -0.0971,-0.0183 -0.0745,-0.0845 -0.0308,0.007 -0.20842,0.0913 -0.0495,0.10119 0.007,0.0309 -0.001,0.2209 0.0216,0.15481 0.0435,0.0887 0.0662,0.0227 0.0309,-0.007 0.007,0.0309 0.007,0.0308 0.0479,0.11968 0.007,0.0309 -0.0451,0.13225 -0.0535,0.0703 -0.0227,0.0662 0.007,0.0309 0.007,0.0308 0.0394,0.0578 -0.0227,0.0662 -0.0493,0.10141 -0.11552,0.0786 -0.0227,0.0663 -0.0227,0.0661 0.007,0.0309 0.0393,0.0578 0.0927,-0.0142 0.18171,-0.0562 0.0351,0.0268 0.0308,-0.007 0.0393,0.0578 0.007,0.0309 0.007,0.0308 0.008,0.062 0.007,0.0309 0.007,0.0308 -0.0494,0.1014 -0.0308,0.007 -0.0269,0.0351 -0.21254,0.0601 -0.0268,0.0351 0.007,0.0309 0.0142,0.0927 0.0745,0.0844 -0.0183,0.0972 -0.1071,0.1406 -0.1113,0.10971 -0.0186,0.0971 0.008,0.062 0.0352,0.0268 0.10544,0.0805 0.007,0.0308 0.008,0.0621 -0.0228,0.0661 -0.0225,0.0663 -0.0268,0.0351 -0.0309,0.007 -0.062,0.008 -0.0308,0.007 0.007,0.0308 -0.0269,0.0352 -0.0309,0.007 0.007,0.0309 0.0477,0.11971 -0.0535,0.0702 0.0142,0.0926 0.73573,0.3104 0.66124,0.22606 0.86797,0.3556 1.96536,0.77495 1.70075,0.68452 1.49827,0.58573 5.96198,2.34735 4.96604,1.97744 6.26168,2.46454 0.73563,0.31055 6.16042,2.41507 3.82929,1.50045 2.8291,1.09955 2.19884,0.86952 6.20565,2.28281 0.0351,0.0269 0.46705,0.18914 5.77787,2.15155 1.99209,0.73975 3.08932,1.15892 0.19849,0.0678 0.0661,0.0226 0.29971,0.11721 0.16328,0.0412 0.10121,0.0495 2.8868,1.06028 6.47849,2.43513 8.66466,3.21181 1.5293,0.58152 4.74663,1.75486 5.90595,2.16579 1.2295,0.46446 1.82976,0.004 0.59672,-0.0177 0.28298,-0.008 0.47283,-1.8e-4 0.062,-0.008 0.0309,-0.007 0.69396,4.3e-4 0.5657,-0.0139 0.97678,-0.005 0.81776,-0.0161 0.53068,-0.0405 0.41093,0.009 0.41089,0.008 0.94588,-0.001 2.45733,-0.0168 3.90286,-0.0547 z"
       id="AZ-03"
       style="font-style:normal;font-weight:400;font-size:34.375px;font-family:'MS Shell Dlg 2';opacity:1;fill:none;fill-opacity:1;fill-rule:evenodd;stroke:#000000;stroke-width:0.333;stroke-linecap:square;stroke-linejoin:bevel;stroke-miterlimit:4;stroke-dasharray:none;stroke-opacity:1" />
    <path
       inkscape:connector-curvature="0"
       d="m 454.90682,379.00377 -0.0267,1.20192 -0.0993,3.22995 -0.0361,0.66703 0.008,0.0621 -0.0241,0.28702 -10e-4,0.22102 -0.0869,3.3228 -0.0276,0.72907 0.007,0.0308 -0.009,0.85295 0.0142,0.0926 -0.0743,3.41575 0.0384,0.7516 -0.009,0.1591 -0.0176,0.56989 0.0162,0.1239 -0.0509,1.48907 -0.0977,1.84221 0.007,0.28296 -0.0627,0.70217 0.0178,0.5968 0.008,0.5348 -0.0142,0.12807 -0.0409,1.33008 -0.0142,0.12803 -0.29715,0.1347 -0.19158,0.2151 -0.14405,0.33483 -0.34971,0.67797 -0.26113,0.63442 -0.0888,0.0435 -0.18989,-0.005 -0.231,0.15738 -0.0185,0.0972 -0.0451,0.13226 0.008,0.062 0.1013,0.0494 0.0393,0.0577 0.0744,0.0844 -0.0227,0.0663 -0.33135,0.58084 -0.1975,0.4051 -0.0367,0.1942 0.0216,0.15479 -0.041,0.16318 -0.0495,0.10122 -0.18323,0.27706 -0.0805,0.10543 -0.062,0.008 -0.20255,-0.0989 -0.0662,-0.0227 -0.22091,-10e-4 -0.0309,0.007 -0.35485,0.17412 -0.48713,0.12891 -0.46872,0.0312 -0.0353,-0.0267 -0.0309,0.007 -0.0308,0.007 -0.0309,0.007 -0.007,-0.0308 -0.23776,-0.12557 -0.0662,-0.0227 -0.24184,-0.1564 -0.0478,-0.11967 -0.087,-0.17755 -0.23185,-0.31546 -0.77085,-0.33726 -0.007,-0.0308 -0.0142,-0.0928 0.0184,-0.0973 0.16904,-0.149 0.0495,-0.1012 -0.0601,-0.21258 -0.43702,-0.66624 -0.0971,-0.0184 -0.10122,-0.0495 -0.48637,-0.56491 -0.0743,-0.0844 -0.20931,-0.3817 -0.062,0.008 -0.0662,-0.0226 -0.61767,-0.13728 -0.18597,0.0245 -0.0927,0.0142 -0.24525,0.28545 -0.43936,0.2487 -0.062,0.008 -0.0829,-0.14651 -0.12218,-0.20418 -0.13223,-0.0451 -0.12395,0.0162 -0.40852,0.24454 -0.21253,0.0601 -0.007,-0.0308 -0.12805,-0.0143 -0.0352,-0.0269 -0.0393,-0.0577 -0.008,-0.0621 0.0183,-0.097 -0.008,-0.062 0.0227,-0.0662 0.0185,-0.0972 -0.0395,-0.0578 -0.007,-0.0308 -0.13224,-0.0451 -0.0971,-0.0185 -0.54327,-0.0525 -0.12803,-0.0142 -0.18999,-0.005 -0.12394,0.0162 -0.28705,-0.0243 -0.1465,0.083 -0.44773,0.18668 -0.25365,0.2234 -0.20835,0.0912 -0.10143,-0.0494 -0.13062,-0.26611 -0.10123,-0.0495 -0.40003,0.30635 -0.25773,0.19258 -0.0495,0.10121 -0.0844,0.0745 -0.0926,0.0142 -0.0888,0.0433 -0.36745,0.0814 -0.27447,0.0686 -0.18597,0.0245 -0.15903,-0.009 -0.46036,0.0939 -0.25773,0.19246 -0.16486,0.17991 -0.0185,0.0972 -0.009,0.15898 0.007,0.0309 0.0351,0.0269 0.0394,0.0576 0.0745,0.0845 0.10969,0.11129 0.13896,0.32814 0.007,0.0309 -0.0143,0.12807 -0.0804,0.10554 -0.005,0.18988 -0.0227,0.0663 0.0393,0.0578 0.007,0.0309 0.10141,0.0494 0.0829,0.14643 0.0142,0.0927 -0.0411,0.16316 -0.13385,0.17581 -0.0309,0.007 -0.0268,0.0351 -0.0268,0.0351 -0.0267,0.0351 -0.0269,0.0353 0.007,0.0309 -0.0227,0.0661 -0.0131,0.601 0.0379,0.27866 0.15736,0.23098 0.0829,0.14652 0.0245,0.18588 -0.0367,0.1942 -0.0412,0.16328 0.0394,0.0577 0.31227,0.21005 0.18421,0.19587 -0.005,0.19001 -0.0284,0.25613 0.16575,0.29293 0.22349,0.25355 0.2193,0.22263 0.0216,0.15479 0.0433,0.0888 0.008,0.0621 -0.0227,0.0661 -0.0494,0.10141 -0.0411,0.16315 -0.23518,0.12649 -0.1464,0.0829 0.007,0.0309 -0.0761,0.13645 0.0216,0.15472 0.0686,0.27447 0.0142,0.0927 -0.0719,0.16735 -0.15232,0.27287 -0.14221,0.11389 -0.0495,0.1014 0.2838,0.46618 -0.0754,0.60926 0.11204,0.36328 -0.0241,0.28711 -0.0159,0.34898 -0.23003,0.63023 0.008,0.062 0.091,0.20836 0.1532,0.19996 0.24194,0.15659 0.0434,0.0888 0.007,0.0309 -0.0366,0.19407 -0.14823,0.30391 -0.0225,0.0662 -0.009,0.15898 -10e-4,0.22103 0.26279,0.31137 0.43279,0.63515 0.0955,0.23938 -0.0468,0.35324 -0.11722,0.2996 -0.16486,0.18001 0.0142,0.0928 0.0543,0.40265 0.005,0.50386 0.0245,0.18588 0.0745,0.0845 0.007,0.0308 -0.0451,0.13226 -0.10294,0.17153 -0.1465,0.0831 -0.11552,0.0786 -0.0803,0.10552 0.007,0.0308 -0.0552,0.29134 0.007,0.0309 -0.027,0.0351 0.008,0.062 0.0329,0.24782 0.0911,0.20835 0.12059,0.42528 0.0142,0.0926 0.0328,0.24782 0.007,0.0309 -0.0143,0.12808 0.0477,0.11967 0.007,0.0308 0.17829,0.38579 0.0353,0.0269 0.007,0.0309 0.5524,0.58749 0.16402,0.51386 0.17669,0.60681 0.15576,0.45198 0.144,0.83202 -0.0202,0.31794 -0.03,0.47714 0.19577,0.98263 0.0614,0.68545 -10e-4,0.22093 0.0487,0.59263 0.13643,0.0761 0.0518,0.15061 0.007,0.0308 0.007,0.0309 0.0216,0.1548 -0.005,0.18991 0.0142,0.0927 -0.0203,0.31806 0.0142,0.0927 -0.009,0.15909 -0.0268,0.0352 0.007,0.0308 -0.0711,0.6403 -0.1522,0.27286 -0.0888,0.0435 -0.11549,0.0787 -0.27447,0.0686 -0.0972,-0.0183 -0.22102,-10e-4 -0.0972,-0.0185 -0.0309,0.007 -0.0308,0.007 -0.0309,0.007 -0.0578,0.0395 -0.0619,0.008 -0.0621,0.008 -0.0267,0.0353 -0.0308,0.007 -0.0805,0.10545 -0.11133,0.10961 -0.0578,0.0394 -0.0844,0.0743 -0.0495,0.1013 0.0788,0.11547 0.007,0.0308 0.007,0.0308 0.0308,-0.007 0.13647,0.0761 0.0351,0.0268 0.0352,0.0269 0.2335,0.0945 0.14061,0.10711 0.0704,0.0535 0.0351,0.0268 0.0477,0.11968 0.10554,0.0804 0.007,0.0308 0.0216,0.15481 0.007,0.0309 -0.0183,0.0971 -0.0761,0.13644 -0.19588,0.18419 -0.0576,0.0393 -0.22681,0.18831 -0.11721,0.29967 -0.0327,0.22511 -0.0267,0.0353 -0.0328,0.22511 0.0245,0.186 -0.0227,0.0661 0.0216,0.15479 0.0601,0.21254 0.008,0.0621 0.0245,0.1858 -0.045,0.13223 -0.11299,0.3307 -0.0143,0.12808 0.007,0.0309 -0.0142,0.12805 0.0601,0.21264 0.0561,0.18152 -0.0227,0.0663 0.0162,0.12395 -0.0635,0.22928 -0.0185,0.0972 -0.0225,0.0663 0.008,0.0619 -0.0267,0.0353 0.0477,0.11968 0.0162,0.12394 0.008,0.062 -0.0183,0.0972 -0.0451,0.13224 -0.072,0.16736 0.007,0.0308 -0.0411,0.16328 -0.0184,0.097 0.0414,0.30986 0.008,0.0618 0.007,0.0309 0.0829,0.14652 0.007,0.0308 0.0748,0.0844 0.0393,0.0577 0.0351,0.0269 0.0746,0.0844 0.0661,0.0228 0.10555,0.0804 0.20254,0.0987 0.0351,0.027 0.007,0.0309 0.0351,0.0268 0.0308,-0.007 0.007,0.0308 0.0352,0.0269 0.14481,0.13814 0.1138,0.14224 0.007,0.0308 0.0955,0.23938 0.0308,-0.007 0.007,0.0309 0.0685,0.27459 0.033,0.24779 0.007,0.0309 0.007,0.0308 0.0686,0.27455 0.007,0.0309 0.007,0.0309 0.0911,0.20845 0.0433,0.0888 0.0478,0.11966 0.083,0.14651 0.12225,0.20418 0.14483,0.13812 0.14479,0.13804 0.24604,0.18756 0.0786,0.11549 0.0743,0.0844 0.0435,0.0887 0.0786,0.11553 0.14062,0.10713 0.16747,0.072 0.16745,0.0721 0.10543,0.0804 0.0353,0.0269 0.056,0.18153 0.0662,0.0227 0.0703,0.0535 0.1013,0.0495 0.0971,0.0186 0.007,0.0308 0.0309,-0.007 0.008,0.062 0.0435,0.0888 0.0216,0.15483 0.0413,0.30973 0.0827,0.14642 0.1263,0.2352 0.008,0.0621 0.0142,0.0926 0.007,0.0309 0.0435,0.0887 0.008,0.062 0.007,0.0309 0.007,0.0309 -0.0143,0.12805 0.008,0.062 0.0142,0.0927 0.0435,0.0887 0.1138,0.14236 0.0478,0.11967 0.0436,0.0887 -0.0367,0.19421 0.008,0.062 0.0329,0.24782 0.24612,0.18738 0.0786,0.11552 -10e-4,0.22103 -0.0227,0.0662 -0.0578,0.0394 -0.0535,0.0702 0.007,0.0309 -0.0184,0.0971 0.16995,0.32396 0.39085,0.32556 0.35659,0.77167 0.17831,0.3859 0.008,0.0619 0.0414,0.30982 0.004,0.25194 -0.0493,0.1012 -0.0451,0.13227 -0.0183,0.097 0.007,0.0309 -0.041,0.16327 0.0414,0.30964 0.007,0.0309 0.007,0.0309 -0.0719,0.16736 -0.0678,0.19837 -0.0227,0.0662 0.008,0.062 0.18411,0.19581 0.007,0.0309 0.0745,0.0844 0.0352,0.0269 0.0308,-0.007 0.21677,-0.0296 0.18579,-0.0245 0.21678,-0.0296 0.0929,-0.0142 0.0618,-0.008 0.0351,0.0269 0.0309,-0.007 0.0351,0.0267 0.0351,0.0268 0.007,0.0309 0.0353,0.0269 0.0352,0.0268 0.091,0.20847 0.007,0.0308 0.13225,0.0451 0.0352,0.0269 0.10122,0.0493 0.0663,0.0227 0.24603,0.18743 0.0353,0.0269 0.10959,0.11132 0.0478,0.11968 -0.005,0.18999 0.0394,0.0578 0.0393,0.0578 0.0351,0.0267 0.17164,0.10294 0.28298,-0.008 0.0703,0.0536 0.26288,0.31139 0.10553,0.0803 0.0702,0.0536 0.25868,0.28036 0.0912,0.20834 0.0745,0.0845 0.2996,0.11712 0.35327,0.0468 0.17572,0.13388 0.13644,0.076 0.10132,0.0495 0.0743,0.0844 0.1138,0.14234 0.0831,0.14649 0.10367,0.30124 0.13903,0.32813 0.39095,0.32556 0.0435,0.0888 0.008,0.0619 -0.0451,0.13224 0.0296,0.2168 0.0603,0.21262 -0.0495,0.10121 0.0142,0.0928 0.0519,0.15069 0.008,0.062 -0.0185,0.0972 -0.0227,0.0661 -0.0888,0.0436 -0.12809,-0.0143 -0.0619,0.008 -0.1548,0.0216 -0.062,0.008 -0.0662,-0.0227 -0.0535,0.0703 -0.0578,0.0394 0.008,0.0619 -0.0268,0.0351 -0.0578,0.0394 -0.0888,0.0435 -0.0578,0.0394 -0.0269,0.0353 -0.0494,0.1012 -0.0536,0.0704 -0.31548,0.23177 -0.41423,0.43443 -0.0804,0.10553 -0.0845,0.0745 -0.17735,0.087 -0.0578,0.0393 -0.0227,0.0663 0.0296,0.21669 -0.0721,0.16747 -0.0308,0.007 -0.0268,0.0351 -0.27036,0.0997 -0.0804,0.10544 -0.23519,0.1264 -0.30141,0.10379 -0.0308,0.007 -0.16735,-0.0719 -0.27874,0.0379 -0.14232,0.11382 -0.12968,0.20674 -0.0308,0.007 -0.0269,0.0351 -0.0269,0.0353 -0.24095,0.31643 -0.22683,0.1883 -0.0887,0.0435 -0.27448,0.0686 -0.25612,-0.0283 -0.15061,0.0517 -0.0578,0.0394 -0.0988,0.20257 -0.16895,0.14898 -0.0578,0.0393 -0.24783,0.0329 -0.26609,0.13064 -0.25611,-0.0284 -0.0973,-0.0185 -0.0887,0.0436 -0.0309,0.007 -0.1155,0.0787 -0.11132,0.10969 -0.13386,0.17574 -0.0493,0.10121 -0.14234,0.1138 -0.0267,0.0353 0.007,0.0309 -0.0367,0.19418 -0.0635,0.22927 -0.0427,0.38419 -0.0142,0.12804 0.0142,0.0926 0.0912,0.20847 -0.0142,0.12805 -0.0243,0.28705 -0.0411,0.16315 -0.0845,0.0746 -0.0804,0.10542 -0.0887,0.0435 -0.0579,0.0394 -0.11968,0.0477 -0.0972,-0.0183 -0.0578,0.0393 -0.0267,0.0353 0.008,0.062 0.008,0.062 0.008,0.062 0.007,0.0308 0.0393,0.0579 -0.0227,0.0661 -0.0227,0.0663 -0.0309,0.007 -0.0927,0.0142 -0.0269,0.0351 -0.0804,0.10554 -0.11131,0.1096 -0.14653,0.0828 -0.0267,0.0352 -0.0226,0.0663 -0.0227,0.0661 -0.25363,0.2236 -0.10713,0.14062 -0.2352,0.12641 -0.0618,0.008 -0.0971,-0.0185 -0.15059,0.0518 -0.1608,0.21094 -0.14384,0.3348 -0.0269,0.0351 -0.005,0.18992 0.0394,0.0578 0.10542,0.0803 0.0972,0.0185 0.007,0.0308 0.10553,0.0805 0.0351,0.0267 0.0393,0.0578 0.11389,0.14232 0.0477,0.11971 0.007,0.0308 0.0352,0.0267 0.007,0.0309 -0.0227,0.0662 0.007,0.0308 -0.0308,0.007 -0.0309,0.007 0.007,0.0309 -0.0888,0.0435 -0.0578,0.0394 -0.0269,0.0353 -0.0268,0.0352 0.007,0.0309 0.008,0.0619 0.008,0.0621 0.007,0.0308 0.0351,0.0268 0.0746,0.0844 0.18411,0.1959 0.0351,0.0268 -10e-4,0.221 -0.0267,0.0351 -0.0536,0.0703 -0.1155,0.0786 -0.0844,0.0743 -0.0309,0.007 -0.0308,0.007 -0.15901,-0.009 -0.0621,0.008 -0.0534,0.0703 -0.0185,0.0971 -0.0185,0.0972 0.0996,0.27039 0.0435,0.0887 0.0645,0.24356 0.007,0.0309 -0.0184,0.0971 -0.0495,0.10141 -0.11551,0.0786 -0.0269,0.0352 0.18668,0.44775 0.073,0.30547 0.20761,0.60262 0.0296,0.21679 0.0142,0.0927 -0.009,0.15912 -0.045,0.13224 -0.0452,0.13226 -0.10292,0.17152 0.007,0.0308 0.0393,0.0578 0.0703,0.0534 0.0744,0.0845 0.0142,0.0927 0.0393,0.0576 0.1096,0.1113 0.0478,0.11969 -0.005,0.1901 -0.0283,0.25613 -0.0267,0.0351 -0.20428,0.12227 -0.12395,0.0162 -0.062,0.008 -0.14653,0.0826 -0.1155,0.0787 -0.11548,0.0786 -0.0493,0.10139 -0.0227,0.0662 -0.0268,0.0353 0.007,0.0308 0.0142,0.0927 0.0434,0.0887 0.008,0.0619 0.0395,0.0578 0.0351,0.027 0.007,0.0308 0.008,0.062 0.008,0.062 -0.0308,0.007 -0.0227,0.0662 -0.0579,0.0394 -0.0184,0.0971 -0.0227,0.0662 0.0435,0.0888 0.008,0.0619 0.007,0.0309 0.008,0.062 0.008,0.062 0.0162,0.12394 -0.0537,0.0703 -0.0268,0.0352 0.007,0.0309 -0.009,0.15906 0.0434,0.0888 0.0434,0.0887 0.008,0.0621 0.008,0.0618 -0.0493,0.10131 -0.0578,0.0394 -0.0267,0.0351 -0.0268,0.0353 -0.0227,0.0661 -0.21424,0.28125 -0.009,0.15909 -0.009,0.15908 0.108,0.33223 0.20097,0.31965 0.0477,0.1197 0.007,0.0309 -0.43526,0.27953 -0.40415,0.27544 0.007,0.0308 -0.0367,0.19432 -0.009,0.15895 0.007,0.0308 -0.22261,0.21941 -0.1197,0.0476 -0.15471,0.0216 -0.17334,0.11815 -0.0308,0.007 -0.0536,0.0703 -0.15648,0.24196 -0.0184,0.0972 -0.0184,0.0971 -0.0844,0.0743 -0.13396,0.17576 -0.11133,0.10969 -0.26361,0.38257 -0.0227,0.0661 0.0245,0.18598 -0.13566,0.39676 -0.0411,0.16317 -0.16916,0.14899 -0.19997,0.15318 -0.14653,0.0828 -0.0577,0.0394 -0.15909,-0.009 -0.33898,-0.17485 -0.34489,0.0152 -0.18153,0.0562 -0.0269,0.0351 0.008,0.062 -0.0309,0.007 -0.11549,0.0787 -0.2167,0.0296 -0.19418,-0.0367 -0.11966,0.0479 -0.0267,0.0351 0.007,0.0308 0.008,0.0621 0.0433,0.0887 0.20084,0.31971 0.10555,0.0804 0.007,0.0309 0.0394,0.0578 0.008,0.0618 -0.0267,0.0352 0.008,0.062 0.0435,0.0888 0.1432,0.35904 0.0162,0.12392 -0.0142,0.12806 -0.0694,0.41929 -0.12138,0.26869 -0.0451,0.13224 -0.0888,0.0434 -0.31545,0.23195 -0.1649,0.17991 -0.0226,0.0662 0.007,0.0309 0.18249,0.41669 0.007,0.0309 0.10123,0.0495 0.16742,0.072 0.1941,0.0366 0.19846,0.0678 0.23767,0.12548 0.10545,0.0805 0.0435,0.0888 0.13054,0.2661 -0.0225,0.0662 -0.0495,0.10131 -0.32386,0.16993 -0.0227,0.0663 0.007,0.0308 0.13469,0.29712 0.10971,0.11133 0.0828,0.14651 0.0142,0.0926 -0.0184,0.097 -0.0636,0.22939 -0.0635,0.22937 0.0142,0.0927 0.077,0.33644 -0.0227,0.0663 -0.0143,0.12807 -0.0719,0.16735 -0.0452,0.13225 0.0296,0.21679 -0.0184,0.0971 -0.0805,0.10545 -0.0676,0.19846 -0.0719,0.16733 -0.0452,0.13227 -0.16478,0.17988 -0.18494,0.49809 -0.0945,0.23357 -0.0328,0.22514 -0.009,0.15906 0.0433,0.0888 0.0393,0.0578 0.062,-0.008 0.15896,0.009 0.0663,0.0228 0.0702,0.0535 0.007,0.0309 -0.0184,0.0972 0.0142,0.0927 0.0517,0.15061 0.27546,0.40424 -0.0285,0.25612 0.0244,0.18588 0.0786,0.11549 0.10969,0.1113 0.0702,0.0535 0.0621,-0.008 0.0576,-0.0394 0.0845,-0.0744 0.15231,-0.27287 0.0535,-0.0704 0.1013,0.0495 0.0393,0.0577 0.11815,0.17333 0.15739,0.231 0.0393,0.0577 0.16733,0.0719 0.41939,0.0694 0.28299,-0.007 0.0576,-0.0394 0.0621,-0.008 0.0759,-0.13642 0.0844,-0.0745 0.0888,-0.0435 0.062,-0.008 0.45448,0.0963 0.28705,0.0243 0.0663,0.0227 0.0661,0.0227 0.19429,0.0367 0.097,0.0183 0.0662,0.0227 0.0745,0.0844 0.0309,-0.007 0.007,0.0309 0.10544,0.0804 0.0872,0.17752 0.0351,0.0268 0.007,0.0308 0.0394,0.0579 0.008,0.0619 0.0394,0.0578 0.0216,0.15472 0.0507,0.37157 0.0414,0.30974 0.0216,0.15482 0.0433,0.0887 0.0703,0.0535 0.0309,-0.007 0.1506,-0.0517 0.0971,0.0184 0.0394,0.0579 0.0745,0.0844 0.008,0.0621 0.0142,0.0927 0.007,0.0309 -0.0185,0.0972 0.008,0.0619 -0.0142,0.12802 -0.0451,0.13228 -0.10711,0.14062 -0.0535,0.0703 -0.0227,0.0662 0.0601,0.21263 0.0477,0.11969 0.0747,0.0844 0.1883,0.22681 0.0351,0.0269 0.0162,0.12393 -0.0142,0.12805 0.007,0.0309 -0.0837,0.54734 -0.0185,0.0973 0.0162,0.12392 -0.10785,0.83448 -0.16498,0.18003 -0.16896,0.14899 -0.19591,0.18411 -0.1113,0.10969 -0.062,0.008 -0.11968,0.0478 -0.20416,0.12225 -0.0845,0.0745 -0.0267,0.0351 -0.13394,0.17584 0.008,0.0618 -0.0578,0.0393 -0.16486,0.17999 -0.0535,0.0702 -0.0225,0.0662 -10e-4,0.22091 -0.041,0.16327 0.0142,0.0927 0.0871,0.17743 0.0414,0.30974 -0.31806,-0.0201 -10e-4,0.22099 -0.28716,-0.0243 -0.31387,0.01 -0.005,0.18999 -0.41099,-0.008 -0.001,0.22101 -0.0308,0.007 -0.72907,-0.0276 -0.0619,0.008 -0.0143,0.12809 0.007,0.0308 -0.062,0.008 c -0.055,0.46903 -0.0725,0.90277 -0.12964,1.37356 -0.11305,0.93114 -0.1828,1.82222 0.10591,2.4138 0.47187,0.10694 0.86333,0.0444 1.18927,-0.0662 0.32599,-0.11068 0.59476,-0.27083 0.88724,-0.43539 0.29239,-0.16447 0.58626,-0.3271 0.9575,-0.38174 0.3712,-0.0541 0.81972,-0.0274 1.38181,0.19158 0.89615,0.006 1.49659,0.36328 2.13862,0.65699 0.32096,0.14681 0.63916,0.28866 1.02696,0.36568 0.38781,0.077 0.84607,0.0892 1.38772,4.2e-4 2.07016,0.15754 4.14027,0.29583 6.21042,0.45328 0.0848,-1.01368 0.3821,-1.7976 0.91054,-2.36199 0.26415,-0.28224 0.56111,-0.50937 0.95071,-0.66469 0.38971,-0.1553 0.85643,-0.2628 1.38106,-0.28128 1.5119,-0.43528 3.00656,-0.90339 4.53476,-1.21231 1.52809,-0.30894 3.10469,-0.4351 4.69957,-0.22561 1.00181,0.10894 1.97105,0.17083 2.60389,-0.0998 0.31645,-0.13525 0.52037,-0.36591 0.62859,-0.71568 0.1081,-0.34962 0.10461,-0.82859 -0.0733,-1.47217 0.11418,-6.75237 0.24088,-13.47759 0.35506,-20.22996 5.60418,1.39508 11.19875,2.76616 16.80288,4.16116 0.62927,-0.14255 1.60754,-0.6774 2.48247,-0.99793 0.43738,-0.16014 0.83349,-0.25991 1.16833,-0.22093 0.088,0.0106 0.10392,0.13378 0.18001,0.16478 0.006,-1.73336 0.0151,-3.47263 0.0212,-5.206 -1.16551,-0.162 -2.33559,-0.31067 -3.5011,-0.47266 0.0587,-0.37825 -0.0422,-0.91442 0.11956,-1.21445 0.43451,0.0314 0.5954,-0.004 0.68139,-0.0921 0.0858,-0.0879 0.0834,-0.20482 0.11292,-0.33061 0.0296,-0.12581 0.0992,-0.25117 0.36485,-0.33319 0.2656,-0.0818 0.74047,-0.12462 1.53422,-0.0813 -0.18135,-0.45782 -0.56274,-0.88489 -0.62615,-1.36581 0.0534,-0.65287 0.12473,-1.2949 0.17814,-1.94773 0.56655,0.20927 1.12593,0.41326 1.69239,0.62255 -0.0382,0.71162 -0.0838,1.41778 -0.12201,2.12934 0.99229,7.3e-4 1.97306,0.007 2.96546,0.008 0.1137,0.29664 0.3001,0.41786 0.46962,0.44105 0.16945,0.0235 0.3283,-0.0698 0.47456,-0.22177 0.29239,-0.30351 0.45274,-0.83994 0.17731,-1.25389 -0.15488,-0.35069 -0.11549,-0.58428 0.0276,-0.72894 0.14302,-0.14467 0.38584,-0.22352 0.62109,-0.30467 0.23515,-0.0811 0.46821,-0.1404 0.59005,-0.30057 0.12174,-0.16016 0.15449,-0.40082 -0.0429,-0.78251 -0.19919,-0.54159 -0.0896,-1.03065 0.19992,-1.31999 0.29015,-0.28939 0.76174,-0.39664 1.30078,-0.17592 0.38258,0.14356 0.57018,0.1025 0.65448,-0.057 0.0843,-0.15951 0.0702,-0.43734 0.0626,-0.70231 -0.009,-0.26492 -0.0136,-0.53376 0.0937,-0.70636 0.10764,-0.17267 0.30943,-0.24891 0.73904,-0.13156 0.41421,-0.17558 0.68707,-0.15623 0.81762,-0.0161 0.13069,0.14037 0.14199,0.41675 0.074,0.77844 -0.0124,0.43652 -0.0334,0.86241 -0.0452,1.29906 0.29525,0.001 0.58868,0.005 0.88385,0.008 l 0,0 c 0.66413,0.003 1.32459,0.0103 1.98873,0.014 0.0557,0.31682 -0.28175,0.97161 0.018,1.06968 0.41039,0.006 0.82252,0.0171 1.23293,0.0226 0.0275,-0.16508 -0.0387,-0.42012 -0.0532,-0.62351 -0.0159,-0.20335 0.0191,-0.34134 0.3114,-0.2629 0.18296,0.0216 0.44169,-0.0401 0.62776,-0.0216 0.18597,0.0186 0.32496,0.1078 0.24432,0.40833 0.0345,0.66843 0.0479,1.33875 0.0822,2.00708 0.48567,-0.015 0.99078,-0.0265 1.47641,-0.0418 0.007,0.55395 -0.007,1.08566 10e-4,1.63964 0.74677,0.0504 1.51469,0.11681 2.26147,0.16719 0.21632,0.31757 0.33586,0.81808 0.61105,1.02114 0.17862,-0.002 0.43663,-0.0777 0.61937,-0.0837 0.18288,-0.006 0.26941,0.047 0.1432,0.35906 -0.15601,1.47107 -0.31929,2.94492 -0.47511,4.41597 -0.23822,0.007 -0.43432,0.0588 -0.5758,0.17239 -0.14158,0.11333 -0.22391,0.28812 -0.24281,0.53738 -0.0109,0.15553 -0.1423,0.4019 -0.20326,0.59519 -0.01,0.0241 0.0398,0.003 0.0352,0.0268 0.0732,-0.0403 0.17305,-0.0201 0.24356,-0.0646 0,0 0,0 0,0 -0.0707,0.044 -0.17051,0.0241 -0.24356,0.0646 -0.0334,0.15437 -0.0531,0.29799 0.21939,0.22261 0.54187,-0.0172 1.09363,-0.0144 1.63548,-0.0317 -0.0427,0.2303 -0.0723,0.422 -0.0177,0.56998 0.0548,0.14801 0.19758,0.24414 0.49807,0.18493 0.2918,0.1549 0.0519,0.79794 0.12377,1.14998 -0.0334,2.06562 -0.0749,4.12978 -0.10831,6.19538 -0.84934,0.0113 -1.70101,0.0177 -2.55024,0.0291 0.001,0.45915 0.002,0.89071 -4.3e-4,1.38774 -0.004,0.38375 0.0445,0.72146 0.18767,0.92056 0.14301,0.19924 0.38235,0.27839 0.80348,0.11217 0.85669,-0.0765 1.77712,-0.26271 2.44483,-0.11027 0.33383,0.0765 0.61168,0.23184 0.76501,0.52727 0.15338,0.29531 0.20311,0.72209 0.0873,1.34413 0.32828,0.29265 0.64078,0.70449 0.96439,1.06791 0.32353,0.36344 0.64731,0.68577 1.01946,0.77663 0.48761,0.48976 1.26642,0.94411 1.8314,0.95077 0.2825,0.002 0.51953,-0.10416 0.64361,-0.37087 0.12408,-0.26673 0.13186,-0.68535 -0.0212,-1.3216 -0.14333,-0.53513 -0.1479,-0.98375 -0.0212,-1.32162 0.12699,-0.33784 0.38584,-0.56831 0.69054,-0.72406 0.60915,-0.31141 1.48045,-0.28269 2.24474,0.0433 0.81375,-0.2289 1.79945,-0.30281 2.50172,-0.62199 0.35106,-0.15959 0.64048,-0.38117 0.78754,-0.70569 0.14705,-0.32442 0.14931,-0.76814 -0.0254,-1.35251 -0.009,-0.56702 -0.7144,-1.32888 -1.12081,-1.99279 -0.20322,-0.33197 -0.32853,-0.63048 -0.24532,-0.88139 0.083,-0.25082 0.37178,-0.44531 0.99851,-0.54489 0.55313,-0.0838 0.9717,-0.21919 1.30237,-0.39689 0.33058,-0.17758 0.55703,-0.38732 0.66788,-0.65782 0.11072,-0.27057 0.10446,-0.58346 -10e-4,-0.94589 -0.10631,-0.36233 -0.31992,-0.7848 -0.64043,-1.23774 -0.87933,-2.36381 -2.22043,-4.97234 -2.80105,-7.18954 0.47457,-0.27849 0.91416,-0.32603 1.35422,-0.2463 0.44007,0.08 0.88099,0.30583 1.30401,0.54904 0.42309,0.24322 0.83928,0.50068 1.26312,0.71221 0.42387,0.2115 0.83673,0.37828 1.27891,0.36312 0.63276,-0.39355 1.62681,-0.60715 2.49921,-0.87397 0.43625,-0.13338 0.84826,-0.27684 1.16594,-0.47299 0.31759,-0.19609 0.53999,-0.45585 0.62011,-0.77758 -0.35051,-0.99299 -0.58961,-2.00166 -0.75512,-3.01984 -0.16563,-1.01809 -0.23669,-2.04915 -0.29053,-3.08257 -0.10785,-2.06689 -0.0779,-4.15182 -0.1786,-6.21963 -0.14428,-0.78516 -0.0362,-1.77626 -0.0195,-2.70935 0.009,-0.4665 -0.0119,-0.91967 -0.083,-1.31321 -0.0711,-0.39352 -0.21735,-0.73298 -0.44784,-0.98001 -0.43702,0.24556 -0.84808,0.39002 -1.26297,0.4545 -0.41497,0.0642 -0.80355,0.0499 -1.20194,-0.0267 -0.79681,-0.15413 -1.58318,-0.55608 -2.34781,-1.03849 -0.76466,-0.48249 -1.51335,-1.05696 -2.29092,-1.55084 -0.7776,-0.49385 -1.58269,-0.90377 -2.41813,-1.09204 -1.92196,0.10438 -4.1032,-0.4956 -6.06823,-0.56707 -0.98244,-0.0358 -1.89962,0.0687 -2.71263,0.46133 -0.40645,0.19642 -0.80921,0.45513 -1.1508,0.81786 -0.34158,0.36264 -0.62383,0.81283 -0.88542,1.38108 -0.37164,0.30173 -0.68397,0.45524 -0.94495,0.47459 -0.2609,0.0203 -0.48632,-0.0922 -0.6696,-0.28787 -0.36655,-0.39134 -0.61554,-1.14778 -0.86897,-1.99527 -0.25337,-0.84759 -0.50979,-1.79184 -0.91324,-2.55698 -0.20177,-0.38253 -0.44215,-0.7124 -0.73081,-0.97337 -0.28865,-0.26099 -0.60844,-0.45277 -1.01698,-0.52465 -0.62868,-0.25699 -1.07533,-0.53628 -1.34169,-0.82772 -0.26644,-0.2915 -0.37223,-0.58054 -0.37337,-0.89564 -0.003,-0.63004 0.42733,-1.29291 0.90294,-1.95098 0.47562,-0.65815 1.01327,-1.32905 1.19008,-1.92683 0.0884,-0.29893 0.0808,-0.57733 -0.0506,-0.8446 -0.13199,-0.26722 -0.40683,-0.51099 -0.85631,-0.73569 -0.96907,0.34607 -1.73838,0.3857 -2.33522,0.22108 -0.59673,-0.16456 -1.00447,-0.53678 -1.21192,-1.03447 -0.20756,-0.49768 -0.2167,-1.10997 -0.0175,-1.76354 0.19894,-0.65355 0.59029,-1.36094 1.21262,-1.99293 -2.32983,-0.0101 -4.6439,-0.0242 -6.97373,-0.0346 -0.34154,-0.49681 -0.38695,-1.28726 -0.35504,-2.15951 0.0318,-0.87213 0.14631,-1.7979 0.0366,-2.52769 -0.71582,-0.16759 -1.51321,-0.28866 -2.04564,-0.66936 -0.2662,-0.19043 -0.47841,-0.4479 -0.58179,-0.8043 -0.10336,-0.35646 -0.0783,-0.82949 0.0594,-1.42712 -0.54936,0.0253 -1.16429,-0.11401 -1.8096,-0.32293 -0.64521,-0.20895 -1.34473,-0.474 -2.05808,-0.7623 -0.71351,-0.28843 -1.43684,-0.59376 -2.19058,-0.8076 -0.75363,-0.21386 -1.51611,-0.3369 -2.28243,-0.32209 -1.12642,-0.2019 -2.13284,-0.69267 -3.04417,-1.29126 -0.91142,-0.59859 -1.7577,-1.32605 -2.60995,-2.04372 -0.85214,-0.71773 -1.68355,-1.41852 -2.63241,-1.97765 -0.94886,-0.55909 -2.00355,-0.95737 -3.20494,-1.08031 -0.19735,0.39803 -0.48484,0.66233 -0.83265,0.83792 -0.34792,0.17547 -0.75326,0.25027 -1.19106,0.28719 -0.8756,0.074 -1.8728,-0.0301 -2.74451,-0.008 -0.93186,0.19665 -1.72214,0.0913 -2.39799,-0.24351 -0.67578,-0.33447 -1.22497,-0.92268 -1.65739,-1.76252 -0.61041,-0.58962 -1.13094,-1.39827 -1.67661,-2.13833 -0.54561,-0.74017 -1.13049,-1.41267 -1.86997,-1.70238 -0.28012,0.40224 -0.58421,0.65052 -0.90305,0.78436 -0.31876,0.1338 -0.65106,0.1673 -0.96412,0.0993 -0.62611,-0.13706 -1.17795,-0.63167 -1.51583,-1.18257 -0.16899,-0.27535 -0.30345,-0.55778 -0.33404,-0.83781 -0.031,-0.27985 0.0303,-0.53145 0.18236,-0.74989 0.15211,-0.21846 0.40694,-0.39366 0.78594,-0.48467 0.37902,-0.0909 0.89246,-0.12162 1.54253,-0.0193 0.12682,-2.78853 0.25847,-5.55703 0.38525,-8.34567 0.4368,-0.031 0.80509,0.0516 1.13419,0.22507 0.32913,0.17355 0.6096,0.44703 0.86048,0.7666 0.50178,0.63924 0.87155,1.51288 1.23719,2.38709 0.36574,0.87417 0.70595,1.72102 1.17117,2.36437 0.23257,0.32164 0.49684,0.59844 0.79854,0.77501 0.30168,0.17657 0.641,0.26428 1.04122,0.23763 0.42765,0.62684 0.90009,1.09982 1.3636,1.45542 0.46344,0.35562 0.92697,0.6091 1.39108,0.72646 0.46411,0.11728 0.93129,0.12465 1.36099,0.0367 0.4296,-0.0879 0.82843,-0.2787 1.18849,-0.53909 0.35995,-0.26039 0.68047,-0.60957 0.93558,-1.00947 0.25522,-0.39991 0.45649,-0.86364 0.57155,-1.37021 0.11519,-0.50653 0.15622,-1.04104 0.0961,-1.62125 -0.0601,-0.58017 -0.22861,-1.20372 -0.49896,-1.82457 -0.14069,-0.75609 -0.1569,-1.34191 -0.053,-1.79037 0.10396,-0.44837 0.32277,-0.74364 0.62599,-0.96758 0.60668,-0.44784 1.56302,-0.53709 2.69591,-0.58521 0.41577,-0.59234 0.9369,-1.11761 1.55416,-1.56604 0.61738,-0.44858 1.33348,-0.82674 2.08158,-1.16441 1.49627,-0.67557 3.17265,-1.15886 4.76735,-1.59072 1.14827,-1.02903 2.45629,-1.5386 3.44651,-2.26338 0.49519,-0.36243 0.91623,-0.76455 1.20769,-1.33001 0.29153,-0.56557 0.44492,-1.27845 0.42341,-2.23316 -0.3443,-0.71723 -0.46321,-1.47796 -0.46465,-2.27072 -0.003,-0.79276 0.12548,-1.62819 0.29698,-2.46825 0.34285,-1.68018 0.83676,-3.43013 0.85164,-5.12915 -1.73177,-0.10415 -3.44998,-0.2043 -5.18185,-0.3085 -0.0209,-1.54466 -0.0373,-3.08308 -0.0575,-4.62775 l -0.69394,-4.2e-4 -0.85285,-0.009 -0.63192,-0.009 -0.56998,-0.0177 -0.25193,0.004 -0.0308,0.007 -0.0309,0.007 -0.98094,-0.025 -0.12803,-0.0143 -1.45396,-0.024 -0.91477,-0.003 -3.47769,-0.066 -0.72897,-0.0276 -2.20972,-0.0168 -0.94992,-0.0292 -0.31811,-0.0203 -0.79093,-0.0193 -1.7368,-0.017 -0.69796,-0.0317 -0.44203,-0.004 -1.83373,-0.0359 -4.78093,-0.14189 -1.13578,-0.004 -0.007,-0.0309 -1.89995,-0.0584 z"
       id="AZ-04"
       style="font-style:normal;font-weight:400;font-size:34.375px;font-family:'MS Shell Dlg 2';opacity:1;fill:none;fill-opacity:1;fill-rule:evenodd;stroke:#000000;stroke-width:0.333;stroke-linecap:square;stroke-linejoin:bevel;stroke-miterlimit:4;stroke-dasharray:none;stroke-opacity:1" />
    <path
       inkscape:connector-curvature="0"
       d="m 508.28413,478.75135 c -0.47155,0.25973 -0.99734,0.48108 -1.53747,0.52321 -0.15817,0.0497 -0.41706,0.0424 -0.61935,0.0837 -0.20236,0.0411 -0.32786,0.1397 -0.19752,0.40512 l -1.22865,0.008 c -0.0778,0.0258 -0.15377,0.11056 -0.23099,0.15733 l 0.364,0.36082 0.5684,0.2385 -0.0568,1.67893 -0.86538,-0.10373 0.45878,1.29392 -0.009,1.32589 -1.63966,10e-4 c -0.0364,0.80152 -0.0788,1.61078 -0.11523,2.4122 1.63532,-0.0219 3.27519,-0.0431 4.9106,-0.0649 0,0 0,0 0,0 0.84924,-0.0113 1.70089,-0.0177 2.55023,-0.029 0.0334,-2.0656 0.0749,-4.12976 0.10832,-6.19537 -0.0719,-0.35204 0.1679,-0.99505 -0.12388,-1.14996 -0.30048,0.0592 -0.44324,-0.037 -0.49804,-0.18495 -0.055,-0.14796 -0.0249,-0.33972 0.0176,-0.56999 -0.54187,0.0172 -1.09362,0.0144 -1.63549,0.0318 -0.27255,0.0754 -0.25271,-0.0681 -0.21939,-0.22262 z"
       id="AZ-05"
       style="font-style:normal;font-weight:400;font-size:34.375px;font-family:'MS Shell Dlg 2';opacity:1;fill:none;fill-opacity:1;fill-rule:evenodd;stroke:#000000;stroke-width:0.33333385;stroke-linecap:square;stroke-linejoin:bevel;stroke-miterlimit:4;stroke-dasharray:none;stroke-opacity:1" />
    <path
       inkscape:connector-curvature="0"
       d="m 500.18048,467.32794 -0.14542,2.88924 -1.50741,0.0458 -1.40006,3.4059 0.0438,3.58888 0,0 -0.008,0.41103 0.81783,-0.0161 c 0.0224,-0.29164 0.0504,-0.56948 0.0727,-0.86121 0.62139,0.10661 1.21415,-0.22689 1.83136,-0.21602 0.30793,0.19085 0.74524,0.15242 1.01867,0.30365 0.0593,0.2628 -0.19481,0.40414 -0.39759,0.5583 -0.20276,0.15426 -0.3836,0.30788 -0.14564,0.55582 0.1758,0.2054 0.40337,0.25264 0.63451,0.26105 0.23114,0.007 0.46599,-0.008 0.69387,4.2e-4 0.19072,0.0343 0.46399,0.19567 0.62023,0.38919 0.15623,0.19341 0.20696,0.40755 -0.0485,0.57407 0.10131,0.0528 0.33777,0.01 0.53896,0.0217 0.20132,0.0125 0.38473,0.0894 0.33739,0.39587 0.0392,0.19241 -0.10444,0.46054 -0.15981,0.68387 -0.0554,0.22324 -0.0433,0.40524 0.33737,0.39578 0.37662,-0.15134 0.76878,-0.55269 1.15499,-0.78688 l 0,0 c 0.0773,-0.0469 0.15311,-0.13179 0.23099,-0.15733 l 1.22865,-0.008 c -0.13035,-0.26544 -0.004,-0.36436 0.19752,-0.40513 0.20235,-0.0408 0.46121,-0.034 0.61937,-0.0837 0.5401,-0.0419 1.06591,-0.26348 1.53745,-0.52322 0.008,-0.0216 -0.0425,-0.001 -0.035,-0.0267 0.0609,-0.19331 0.19273,-0.43971 0.2033,-0.59519 0.0189,-0.2493 0.10118,-0.42408 0.24278,-0.53739 0.14151,-0.11321 0.33753,-0.16642 0.57577,-0.1724 0.15582,-1.47103 0.31912,-2.9449 0.47511,-4.41597 0.12621,-0.31212 0.0396,-0.36502 -0.14319,-0.35905 -0.18275,0.006 -0.44077,0.0821 -0.61935,0.0837 -0.27521,-0.20305 -0.39474,-0.70356 -0.61105,-1.02114 -0.74678,-0.0504 -1.51469,-0.1168 -2.26147,-0.16719 -0.007,-0.55399 0.007,-1.08569 -0.001,-1.63964 -0.48564,0.0148 -0.99075,0.0265 -1.47641,0.0418 -0.0345,-0.6683 -0.0479,-1.33864 -0.0822,-2.00708 0.0806,-0.30052 -0.0588,-0.38971 -0.24431,-0.40833 -0.18607,-0.0187 -0.44478,0.0436 -0.62774,0.0217 -0.29236,-0.0783 -0.32558,0.0593 -0.31139,0.26288 0.0159,0.20334 0.0802,0.45849 0.0532,0.62352 -0.41042,-0.006 -0.82255,-0.0172 -1.23294,-0.0226 -0.30024,-0.098 0.037,-0.75284 -0.018,-1.06966 -0.66414,-0.003 -1.32458,-0.0113 -1.9887,-0.015 z"
       id="AZ-06"
       style="font-style:normal;font-weight:400;font-size:34.375px;font-family:'MS Shell Dlg 2';opacity:1;fill:#000000;fill-opacity:1;fill-rule:evenodd;stroke:#000000;stroke-width:0.33333385;stroke-linecap:square;stroke-linejoin:bevel;stroke-miterlimit:4;stroke-dasharray:none;stroke-opacity:1" />
    <path
       inkscape:connector-curvature="0"
       d="m 497.08487,484.08116 1.72662,0.17657 1.68397,-0.60609 0.65701,-0.97182 0.1724,-0.59092 -0.20528,-2.6842 -1.97037,-0.11202 -0.19489,-1.67647 -0.97256,0.0369 c 0,0 0,0 0,0 l -0.81783,0.0161 0.008,-0.41105 -2.49258,-0.009 -0.0226,1.23282 c 0.0625,0.0425 0.15001,0.0482 0.20258,0.0988 0.21267,0.20575 0.34521,0.48512 0.29049,0.74911 -0.0547,0.26402 -0.29988,0.50939 -0.78756,0.7056 -0.51031,0.0799 -0.54438,0.18824 -0.36916,0.3022 0.17537,0.11404 0.56502,0.25832 0.90738,0.41344 0.3424,0.15514 0.64627,0.31001 0.63698,0.51298 -0.003,0.0986 -0.4078,0.22054 -0.58584,0.3315 l 2.13369,2.48653 z"
       id="AZ-07"
       style="font-style:normal;font-weight:400;font-size:34.375px;font-family:'MS Shell Dlg 2';opacity:1;fill:none;fill-opacity:1;fill-rule:evenodd;stroke:#000000;stroke-width:0.33333385;stroke-linecap:square;stroke-linejoin:bevel;stroke-miterlimit:4;stroke-dasharray:none;stroke-opacity:1" />
    <path
       inkscape:connector-curvature="0"
       d="m 489.66128,479.78713 c 0.21369,0.0872 0.44089,0.13735 0.53146,0.43266 0.10191,0.50704 0.34269,0.75904 0.61274,0.80012 0.27016,0.0413 0.57322,-0.12112 0.89565,-0.37337 0.64464,-0.50431 1.29773,-1.41491 1.45616,-2.05734 0.25027,-0.28876 0.55031,-0.39068 0.86466,-0.36919 0.23657,0.0161 0.44372,0.13174 0.63436,0.26105 l 0.0225,-1.23281 2.49258,0.009 -0.0437,-3.58888 1.40007,-3.4059 1.50742,-0.0458 0.14541,-2.88923 c -0.29518,-0.001 -0.58862,-0.005 -0.88386,-0.008 0.0116,-0.43662 0.0333,-0.86255 0.0452,-1.29907 0.0682,-0.3617 0.0569,-0.63808 -0.074,-0.77842 -0.13059,-0.14026 -0.40341,-0.15959 -0.81762,0.0161 -0.42962,-0.11739 -0.63141,-0.0412 -0.73904,0.13156 -0.10776,0.1726 -0.10114,0.44144 -0.0937,0.70634 0.009,0.26502 0.0213,0.54281 -0.0626,0.70233 -0.0844,0.15945 -0.27192,0.20044 -0.65448,0.057 -0.53905,-0.22077 -1.01065,-0.11351 -1.30078,0.17591 -0.29004,0.28937 -0.3991,0.77839 -0.19993,1.31999 0.19731,0.3817 0.16454,0.62237 0.0429,0.78253 -0.12185,0.16015 -0.35491,0.21932 -0.59006,0.30054 -0.23524,0.0812 -0.47809,0.16001 -0.62106,0.30467 -0.14304,0.14468 -0.18247,0.37826 -0.0276,0.72895 0.27542,0.41395 0.11473,0.95041 -0.17729,1.25385 -0.1463,0.1518 -0.30512,0.24511 -0.47456,0.22181 -0.16957,-0.0233 -0.35597,-0.14441 -0.46965,-0.44106 -0.9924,-7.3e-4 -1.97314,-0.007 -2.96545,-0.008 0.0382,-0.71155 0.0838,-1.4177 0.12201,-2.12934 -0.56645,-0.20929 -1.12584,-0.41329 -1.69239,-0.62257 -0.0532,0.65284 -0.12452,1.29486 -0.17813,1.94774 0.0627,0.48103 0.44477,0.90798 0.62615,1.36581 -0.79378,-0.0435 -1.26863,-2.1e-4 -1.53423,0.0813 -0.26551,0.0819 -0.33524,0.20736 -0.36485,0.33317 -0.0296,0.12581 -0.027,0.24261 -0.11293,0.33062 -0.086,0.088 -0.24688,0.12352 -0.6814,0.0921 -0.16136,0.30002 -0.061,0.8362 -0.11955,1.21446 1.16552,0.16199 2.33558,0.31067 3.5011,0.47268 -0.006,1.73336 -0.0151,3.47261 -0.0212,5.206 z"
       id="AZ-08"
       style="font-style:normal;font-weight:400;font-size:34.375px;font-family:'MS Shell Dlg 2';opacity:1;fill:none;fill-opacity:1;fill-rule:evenodd;stroke:#000000;stroke-width:0.33333385;stroke-linecap:square;stroke-linejoin:bevel;stroke-miterlimit:4;stroke-dasharray:none;stroke-opacity:1" />
    <path
       inkscape:connector-curvature="0"
       d="m 503.28939,484.72444 1.63967,-0.001 0.009,-1.32589 -0.45879,-1.29391 0.86539,0.10373 0.0568,-1.67895 -0.56841,-0.23848 -0.364,-0.36082 c -0.38621,0.23418 -0.77836,0.63554 -1.15498,0.78686 -0.38069,0.01 -0.39277,-0.17252 -0.33738,-0.39575 0.0554,-0.22333 0.19884,-0.49149 0.15981,-0.68388 0.0472,-0.30663 -0.13602,-0.38314 -0.33739,-0.39589 -0.20121,-0.0129 -0.43758,0.0312 -0.53896,-0.0217 0.25548,-0.1665 0.20472,-0.38065 0.0485,-0.57405 -0.15624,-0.19353 -0.4295,-0.35487 -0.62023,-0.3892 -0.22791,-0.009 -0.46273,0.007 -0.69387,-4.3e-4 -0.23114,-0.007 -0.4587,-0.0556 -0.6345,-0.26103 -0.23797,-0.24796 -0.0574,-0.40154 0.14563,-0.55583 0.20278,-0.15417 0.45703,-0.29549 0.39759,-0.55829 -0.27343,-0.15125 -0.71073,-0.11281 -1.01866,-0.30366 -0.61722,-0.0112 -1.21,0.32263 -1.83136,0.21612 -0.0223,0.29174 -0.0502,0.56956 -0.0727,0.86122 l 0.97255,-0.0369 0.1948,1.6765 1.97036,0.11201 0.20528,2.68421 -0.17238,0.59092 -0.65702,0.97181 -1.68397,0.60609 -1.72663,-0.17655 0.52558,0.62279 5.67896,0.0207 z"
       id="AZ-09"
       style="font-style:normal;font-weight:400;font-size:34.375px;font-family:'MS Shell Dlg 2';opacity:1;fill:none;fill-opacity:1;fill-rule:evenodd;stroke:#000000;stroke-width:0.33333385;stroke-linecap:square;stroke-linejoin:bevel;stroke-miterlimit:4;stroke-dasharray:none;stroke-opacity:1" />
  </g>
</svg>
