<?xml version="1.0" encoding="UTF-8" standalone="no"?>
<!-- Created with Inkscape (http://www.inkscape.org/) -->

<svg
   xmlns:dc="http://purl.org/dc/elements/1.1/"
   xmlns:cc="http://creativecommons.org/ns#"
   xmlns:rdf="http://www.w3.org/1999/02/22-rdf-syntax-ns#"
   xmlns:svg="http://www.w3.org/2000/svg"
   xmlns="http://www.w3.org/2000/svg"
   xmlns:sodipodi="http://sodipodi.sourceforge.net/DTD/sodipodi-0.dtd"
   xmlns:inkscape="http://www.inkscape.org/namespaces/inkscape"
   width="37.526184mm"
   height="22.489361mm"
   viewBox="0 0 132.96679 79.686711"
   id="svg3885"
   version="1.1"
   inkscape:version="0.91 r"
   sodipodi:docname="6.svg">
  <defs
     id="defs3887" />
  <sodipodi:namedview
     id="base"
     pagecolor="#ffffff"
     bordercolor="#666666"
     borderopacity="1.0"
     inkscape:pageopacity="0.0"
     inkscape:pageshadow="2"
     inkscape:zoom="9.288933"
     inkscape:cx="73.758876"
     inkscape:cy="36.948547"
     inkscape:document-units="px"
     inkscape:current-layer="layer1"
     showgrid="false"
     inkscape:window-width="2560"
     inkscape:window-height="1388"
     inkscape:window-x="0"
     inkscape:window-y="0"
     inkscape:window-maximized="1"
     fit-margin-top="1"
     fit-margin-left="1"
     fit-margin-right="1"
     fit-margin-bottom="1" />
  <metadata
     id="metadata3890">
    <rdf:RDF>
      <cc:Work
         rdf:about="">
        <dc:format>image/svg+xml</dc:format>
        <dc:type
           rdf:resource="http://purl.org/dc/dcmitype/StillImage" />
        <dc:title></dc:title>
      </cc:Work>
    </rdf:RDF>
  </metadata>
  <g
     inkscape:label="Layer 1"
     inkscape:groupmode="layer"
     id="layer1"
     transform="translate(-223.07978,-379.23858)">
    <path
       inkscape:connector-curvature="0"
       d="m 346.97169,444.94779 -0.28947,-0.49637 c -0.0618,0.0424 -0.11341,0.097 -0.16865,0.14957 -0.27874,0.16674 -0.47591,0.38346 -0.6824,0.62814 -0.15315,0.0714 -0.29878,0.0339 -0.45483,0.01 -0.15594,-0.0256 -0.31994,-0.0526 -0.42631,0.14631 -0.25467,0.0809 -0.26448,0.23365 -0.23226,0.39126 0.0319,0.15751 0.11144,0.3442 0.0619,0.50094 -0.0544,0.20437 -0.13152,0.1694 -0.21304,0.0732 -0.0819,-0.0964 -0.17054,-0.26587 -0.23867,-0.32138 -0.26664,-0.0881 -0.55083,-0.11467 -0.8319,-0.15384 l -0.0662,0.37044 -0.47575,1.07034 -0.12852,1.22642 -0.85898,0.19391 -0.6425,-0.75081 -0.11279,-1.28994 -0.73328,0.45326 0,0 -0.41995,0.24481 0.32759,0.47406 c -0.031,0.14934 -0.0984,0.30351 -0.11919,0.45324 0.0278,0.17369 0.30319,0.41004 0.002,0.48523 -0.14446,0.14138 -0.0467,0.37425 -0.1128,0.55193 0.0745,0.19928 0.19625,0.38299 0.34185,0.54242 0.11753,0.17344 -0.10269,0.3505 -0.26253,0.38328 -0.24891,0.12069 -0.51387,-0.009 -0.76505,-0.0398 -0.2264,-0.0945 -0.4461,0.18059 -0.62985,0.0604 -0.0197,-0.17239 5.4e-4,-0.3535 0.12758,-0.48346 0.0858,-0.17274 0.15596,-0.38013 0.15119,-0.57412 -0.0605,-0.19095 -0.29487,-0.21104 -0.38162,-0.39138 -0.11483,-0.1657 -0.36521,-0.30729 -0.54401,-0.14344 -0.15147,0.14284 -0.14077,0.37349 -0.21105,0.55837 -0.0776,0.22483 0.0324,0.42873 0.20508,0.57104 0.0569,0.17721 0.27581,0.33734 0.25119,0.51865 -0.28707,0.0994 -0.56327,0.19851 -0.85256,0.29255 l 0.58518,1.09118 0.15271,-0.089 0.054,-0.0828 0.0839,-0.0748 0.076,-0.0448 0.0918,-0.10507 0.22266,-0.23216 0.0378,-0.0223 0.0839,-0.0748 0.0378,-0.0224 0.0768,-0.0445 0.0759,-0.0448 0.25137,-0.0954 0.16695,-0.0206 0.0989,-0.006 0.0378,-0.0223 0.12886,10e-4 0.18946,0.016 0.0599,0.0154 0.12887,4.4e-4 0.069,-0.0142 0.0379,-0.0222 0.32608,-0.0114 0.0294,0.0118 0.31169,-0.0795 0.28154,-0.0874 0.17494,-0.051 0.14477,-0.059 0.18298,-0.0811 0.1989,-0.14145 0.21467,-0.20198 0.0918,-0.10512 0.0378,-0.0223 0.12272,-0.0971 0.10693,-0.0364 0.0293,0.0119 0.16706,-0.0206 0.52331,-0.0239 0.11476,-0.0666 0.0459,-0.0525 0.0458,-0.0525 0.0998,-0.13536 0.0538,-0.0828 0.0618,-0.11301 4.3e-4,-0.12882 0.0256,-0.0902 0.0311,-0.12103 -0.0451,-0.0766 -0.022,-0.038 0.0118,-0.0298 -0.0141,-0.0685 -0.0293,-0.0119 -0.022,-0.038 -0.0282,-0.13667 -0.022,-0.0379 -0.0139,-0.0685 -0.0141,-0.0682 -0.0218,-0.0381 0.016,-0.18937 -0.006,-0.0985 0.0154,-0.0605 -0.022,-0.0381 0.0118,-0.0297 0.0118,-0.0297 0.0256,-0.0902 0.0118,-0.0297 0.0697,-0.14314 0.0378,-0.0225 0.0458,-0.0525 0.0118,-0.0297 0.0379,-0.0225 0.11479,-0.0667 0.12271,-0.097 0.10694,-0.0365 0.29743,-0.14784 0.12889,10e-4 0.33569,-0.17016 0.0538,-0.0827 0.046,-0.0526 0.0379,-0.0221 0.10856,-0.16541 0.0379,-0.0223 0.1395,-0.28642 0.0154,-0.0605 0.0697,-0.14315 0.11482,-0.0668 0.0294,0.0118 0.0459,-0.0525 0.18288,-0.081 0.0294,0.0118 0.18298,-0.0811 0.10684,-0.0365 0.0118,-0.0297 0.0294,0.0118 0.0378,-0.0222 0.0838,-0.0748 0.0998,-0.13536 0.2609,-0.25447 0.0538,-0.083 0.0379,-0.0222 0.0459,-0.0524 0.0458,-0.0524 0.13069,-0.1271 0.0379,-0.0225 z"
       id="PA-01"
       style="font-style:normal;font-weight:400;font-size:34.375px;font-family:'MS Shell Dlg 2';opacity:1;fill:none;fill-opacity:1;fill-rule:evenodd;stroke:#000000;stroke-width:0.33333385;stroke-linecap:square;stroke-linejoin:bevel;stroke-miterlimit:4;stroke-dasharray:none;stroke-opacity:1" />
    <path
       inkscape:connector-curvature="0"
       d="m 343.49614,445.87473 0.21099,-1.04329 -1.13555,-0.71901 -0.26894,0.28471 -0.75224,-0.45657 -0.80974,1.11168 -0.493,-0.58221 -0.94485,0.39755 0,0 -0.35789,0.1319 1.5347,2.14917 0.73325,-0.45323 0.11279,1.28991 0.64252,0.75082 0.85896,-0.19388 0.12852,-1.22643 0.47578,-1.07036 0.0662,-0.37041 z"
       id="PA-02"
       style="font-style:normal;font-weight:400;font-size:34.375px;font-family:'MS Shell Dlg 2';opacity:1;fill:none;fill-opacity:1;fill-rule:evenodd;stroke:#000000;stroke-width:0.33333385;stroke-linecap:square;stroke-linejoin:bevel;stroke-miterlimit:4;stroke-dasharray:none;stroke-opacity:1" />
    <path
       inkscape:connector-curvature="0"
       d="m 227.88102,420.92923 6.38945,0.0339 1.31382,-0.81743 0.0882,7.52029 9.89501,0.34314 c 0.23267,-0.2195 0.46384,-0.16744 0.64417,0.008 0.18041,0.17542 0.28775,0.46408 0.27195,0.68555 0.43956,-0.0144 0.77161,0.5118 1.09422,0.38497 -0.006,0.41976 0.30333,0.64683 0.48989,0.84 -0.15635,0.36182 -0.14788,0.72559 -0.0125,1.03072 0.13479,0.30498 0.42373,0.55227 0.78717,0.6919 0.21712,0.0881 0.4188,0.24552 0.62512,0.32622 0.20631,0.0805 0.39873,0.0942 0.5933,-0.16706 0.30191,0.0524 0.27597,0.26802 0.25922,0.48838 l 5.28789,-7.0743 0.10067,-3.81905 0,0 0.14531,-5.58441 -3.18119,0.42268 0.10574,-1.74954 -0.87782,-1.94385 c -0.0885,0.14353 -0.13337,0.30997 -0.18732,0.46772 -0.1673,0.36433 -0.37842,0.70275 -0.59661,1.03866 -0.15993,0.29697 -0.61192,0.38983 -0.5632,0.78879 -0.0587,0.30695 -0.38756,0.41397 -0.60598,0.58376 -0.18866,0.15102 -0.28156,0.0577 -0.33247,-0.0876 -0.0508,-0.14532 -0.0566,-0.33878 -0.0395,-0.46296 0.0379,-0.20413 -0.0449,-0.31707 -0.19248,-0.37371 -0.14766,-0.0566 -0.35289,-0.0762 -0.48349,-0.12759 -0.40326,-0.10499 -0.68281,-0.55732 -1.13079,-0.4917 -0.35411,0.13103 -0.0916,0.62118 -0.32164,0.85248 -0.24088,0.20132 -0.69044,0.0142 -0.86055,0.32284 -0.0904,0.26128 -0.32437,0.41242 -0.53763,0.5693 -0.26264,0.0498 -0.26784,-0.39242 -0.20518,-0.57106 0.14767,-0.39617 0.009,-0.79794 -0.14453,-1.16903 l -6.52461,-0.13431 0.28099,-9.16815 3.79391,-3.36362 4.40908,0.19133 0.1804,-6.57699 -12.58626,-0.30842 0.0829,-1.17378 -1.27248,-0.0762 0.13368,-2.22695 1.228,3.6e-4 0.094,-1.46188 1.22473,-0.35611 0.34549,-0.94311 2.78836,-1.14016 -0.69808,-1.15322 -0.0378,0.0222 -0.10688,0.0364 -0.0378,0.0222 -0.1148,0.0668 -0.27514,0.18609 -0.15099,-0.0406 -0.0905,-0.0256 -0.0831,-0.0543 -0.0441,-0.0763 0.13071,-0.12712 -0.16374,-0.23709 0.16065,-0.11924 -0.0749,-0.0842 -0.24194,-0.0629 -0.28158,0.0875 -0.10679,0.0363 -0.068,0.0144 -0.17498,0.0507 -0.26082,0.25458 -0.11658,0.19545 -0.0935,0.23392 -0.31981,0.72372 -0.17658,0.17966 -0.0837,0.0748 -0.16066,0.11933 -0.0758,0.0447 -0.0378,0.0222 -0.0379,0.0221 -0.16067,0.11935 -0.14472,0.0588 -0.11479,0.0666 -0.18295,0.081 -0.068,0.0145 -0.37384,0.19246 -0.15267,0.089 -0.37383,0.19237 -0.18287,0.0811 -0.38185,0.22264 -0.34356,0.20043 -0.0378,0.0223 -0.5488,0.24329 -0.0758,0.0448 -0.0379,0.0223 -0.28945,0.11757 -0.0296,-0.0118 -0.0759,0.0449 -0.0378,0.0223 -0.23533,0.0351 -0.0294,-0.0118 -0.0378,0.0222 -0.1527,0.0889 -0.0294,-0.0118 -0.15272,0.089 -0.10684,0.0365 -0.50262,0.19079 -0.34995,0.10176 -0.21317,0.0732 -1.01326,0.41186 -0.57899,0.23532 -0.183,0.081 -0.0118,0.0297 -0.002,0.74286 -0.0111,0.1589 -0.0161,0.18937 0.005,0.22751 -0.0385,0.63621 -0.0135,0.41682 0.004,0.22727 0.002,0.4852 -0.0256,0.0904 -0.0154,0.0605 0.0115,0.32621 -0.0512,1.66693 -0.0236,0.70453 -0.0262,0.21941 -4.4e-4,0.12884 -0.005,0.38656 -0.0236,0.70464 0.003,0.35633 -0.0335,0.86374 -0.0118,0.0297 -0.003,0.25758 -0.0206,0.44712 -0.0208,1.06087 -0.0483,0.79522 0.005,0.22763 -0.007,0.51532 -0.0279,0.34822 0.005,0.22756 0.006,0.0985 -0.0483,0.79531 0.0192,0.29596 -0.0324,0.73475 -0.0118,0.0297 -0.0311,0.60594 -0.001,0.12881 0.0122,0.19712 -4.3e-4,0.1288 -0.0262,0.21946 -0.0253,0.83335 -0.0262,0.21945 0.0132,0.19733 -0.0203,0.31797 -0.0103,0.28795 -0.003,0.25756 -0.0118,0.0297 -0.0118,0.0298 0.0295,0.0118 -0.0154,0.0604 -0.0118,0.0297 0.014,0.0685 -0.0226,0.57577 0.0122,0.19709 -0.0494,0.92414 -4.3e-4,0.12883 0.006,0.0985 -0.0206,0.44698 -0.0111,0.15899 -0.0119,0.0297 -0.003,0.25781 -0.0111,0.15887 0.0122,0.1972 -0.0118,0.0297 -0.0117,0.28769 -0.0111,0.15901 -0.0154,0.0605 0.005,0.22768 -0.0111,0.15889 -0.0206,0.44701 0.0193,0.29598 -0.0206,0.44691 -0.0269,0.3485 0.004,0.2274 -0.002,0.25779 -0.0118,0.28774 -4.4e-4,0.12879 -0.0118,0.28773 0.004,0.22739 -0.0263,0.21943 -0.0154,0.0605 0.0219,0.0381 -0.0262,0.21931 0.0219,0.0381 -0.0118,0.28781 -0.0311,0.60589 -0.0111,0.15898 -0.003,0.25781 -0.0151,0.54549 -0.0154,0.0605 -0.0111,0.15898 0.0139,0.0683 -0.0151,0.54558 -0.0263,0.21932 -4.4e-4,0.12883 0.006,0.0985 -0.0111,0.15888 -0.0154,0.0607 0.0193,0.29587 -0.0118,0.28771 -0.0118,0.0297 -0.0263,0.21936 -0.0111,0.15899 0.006,0.0983 z"
       id="PA-03"
       style="font-style:normal;font-weight:400;font-size:34.375px;font-family:'MS Shell Dlg 2';opacity:1;fill:none;fill-opacity:1;fill-rule:evenodd;stroke:#000000;stroke-width:0.33333385;stroke-linecap:square;stroke-linejoin:bevel;stroke-miterlimit:4;stroke-dasharray:none;stroke-opacity:1" />
    <path
       inkscape:connector-curvature="0"
       d="m 319.71278,454.83339 c -0.18311,-0.35867 -0.33826,-0.73951 -0.55503,-1.08334 -0.12001,-0.44965 -0.51267,-0.70165 -0.87472,-0.97349 -0.36199,-0.27182 -0.69552,-0.55251 -0.66161,-1.04664 -0.36822,-0.27708 -0.57515,-0.63621 -0.73786,-1.00217 -0.16266,-0.36598 -0.28601,-0.76309 -0.47066,-1.15801 -0.40011,-0.21371 -0.83329,-0.34243 -1.24375,-0.55359 -0.41056,-0.21131 -0.79072,-0.50093 -1.04173,-0.95293 -0.06,-0.32636 -0.10606,-0.6549 -0.23056,-0.96553 -0.12451,-0.31064 -0.31286,-0.60272 -0.66483,-0.78897 0.0813,-0.35186 -0.0388,-0.48629 -0.2433,-0.54883 -0.20452,-0.0621 -0.50777,-0.0315 -0.773,-0.009 -0.43453,-0.0137 -0.90117,-0.0709 -1.33119,-0.22158 -0.43012,-0.15031 -0.82459,-0.42175 -1.03532,-0.85424 -0.0554,-0.37575 -0.3353,-0.50845 -0.59799,-0.67448 -0.0407,-0.0256 -0.0285,-0.0881 -0.0671,-0.11466 l 0,0 c -0.21121,-0.14598 -0.41824,-0.2857 -0.38639,-0.61878 -0.0952,-0.33291 -0.2781,-0.64869 -0.46605,-0.93053 0,0 0,0 0,0 -0.0519,-0.0781 -0.0647,-0.19137 -0.12553,-0.25932 -0.28089,-0.3132 -0.66252,-0.49951 -1.17698,-0.4391 -0.005,-0.42954 -0.3423,-0.61296 -0.66481,-0.789 -0.32253,-0.17598 -0.6335,-0.34677 -0.60432,-0.77301 0.1917,0.0955 0.53877,-0.0123 0.72209,-0.16538 0.0915,-0.0767 0.1482,-0.13908 0.12354,-0.226 -0.0237,-0.0866 -0.13742,-0.19254 -0.35315,-0.2545 -0.28752,0.0519 -0.4504,0.0246 -0.52971,-0.074 -0.0794,-0.0994 -0.0575,-0.26009 -0.0478,-0.43257 0.0195,-0.34512 0.0734,-0.77473 -0.26867,-0.94332 l -0.27845,-0.17016 c -0.51626,0.33905 -1.1036,0.56774 -1.73701,0.70601 -0.63327,0.13834 -1.32122,0.19476 -2.02638,0.20971 l -0.58696,2.10763 0.15581,0.88111 0.85723,-0.0652 1.18351,-0.69022 0.38009,0.52023 0.34672,0.15586 -0.3866,0.60915 -0.64256,-0.13673 0.20827,0.9273 -0.37218,0.0636 -3.27067,3.33973 -4.81,0.96343 -1.31879,1.20392 -0.10157,0.26414 0.24751,6.30187 1.12923,0.007 0.35627,-0.003 0.16703,-0.0206 0.0294,0.0118 0.068,-0.0144 0.15902,0.0111 0.0679,-0.0143 0.0294,0.0118 0.0988,-0.006 0.0296,0.0118 0.25768,0.003 0.65217,-0.0222 0.51534,0.007 0.0689,-0.0143 1.06088,0.0208 0.0988,-0.006 0.48508,-0.002 0.0296,0.0118 1.06882,-0.01 0.2958,-0.0192 0.67447,0.0158 0.32607,-0.0115 0.8717,0.003 0.16692,-0.0206 0.0294,0.0118 0.22751,-0.005 0.0988,-0.006 0.93206,0.0193 0.19719,-0.0126 0.35626,-0.003 0.36432,-0.0334 0.0987,-0.006 0.35625,-0.003 0.35625,-0.003 0.0907,0.0256 0.39444,-0.0254 0.15895,0.0111 0.19733,-0.0128 0.64418,0.008 0.93999,-0.0111 0.068,-0.0144 0.0987,-0.006 0.2959,-0.019 0.4851,-0.002 0.15902,0.0111 0.9098,-0.0189 0.0987,-0.006 0.18948,0.016 0.12889,0.001 0.25765,0.003 0.5916,-0.0382 0.061,0.0154 0.48508,-0.002 0.5233,-0.0238 0.84144,-0.004 0.39447,-0.0254 0.18937,0.016 0.35627,-0.003 0.1973,-0.0128 0.55351,-0.0158 0.67433,0.0158 0.39447,-0.0254 0.0688,-0.014 0.44686,0.0206 0.32619,-0.0115 0.15892,0.0111 0.35634,-0.003 0.78099,-0.0206 0.16697,-0.0208 0.0987,-0.006 1.45535,-0.004 0.49311,-0.0316 z"
       id="PA-04"
       style="font-style:normal;font-weight:400;font-size:34.375px;font-family:'MS Shell Dlg 2';opacity:1;fill:none;fill-opacity:1;fill-rule:evenodd;stroke:#000000;stroke-width:0.33333385;stroke-linecap:square;stroke-linejoin:bevel;stroke-miterlimit:4;stroke-dasharray:none;stroke-opacity:1" />
    <path
       inkscape:connector-curvature="0"
       d="m 239.17813,385.99819 0.69809,1.15321 -2.78838,1.14015 -0.34553,0.94314 -1.2247,0.35614 -0.0939,1.46182 -1.22798,-3.5e-4 -0.13368,2.22696 1.27249,0.0763 -0.0829,1.1738 12.58625,0.3084 -0.1804,6.57701 -4.40909,-0.19135 -3.79388,3.36362 -0.28101,9.16816 6.52461,0.13432 c 0.15379,0.37106 0.29233,0.77289 0.14453,1.16899 -0.0626,0.17867 -0.0578,0.62093 0.20517,0.57107 0.21326,-0.15688 0.44705,-0.30803 0.53766,-0.56926 0.17019,-0.30864 0.61966,-0.12158 0.86055,-0.32284 0.22999,-0.23137 -0.0327,-0.7215 0.32165,-0.85253 0.44797,-0.0656 0.72741,0.38707 1.1308,0.49172 0.1309,0.0499 0.33581,0.071 0.48344,0.12749 0.14767,0.0566 0.22874,0.1693 0.19249,0.37374 -0.0163,0.12419 -0.0121,0.3176 0.0395,0.46292 0.0508,0.14521 0.14378,0.2386 0.33244,0.0876 0.21842,-0.16981 0.54563,-0.27711 0.606,-0.58376 -0.0487,-0.39897 0.40371,-0.49171 0.56318,-0.7888 0.21823,-0.33591 0.42884,-0.67442 0.59662,-1.03862 0.054,-0.15777 0.0997,-0.32397 0.18724,-0.46774 l 0.87781,1.94384 -0.10573,1.74954 3.18115,-0.4227 -0.1453,5.58442 8.75141,0.26827 -0.11689,5.10728 9.51335,-0.0485 5.25694,-0.32871 c -0.35493,0.17137 -0.56421,0.55977 -0.95603,0.68547 -0.29081,0.26365 -0.66321,0.35483 -0.98473,0.54865 -0.15307,0.47128 -0.12272,1.02026 0.17169,1.43472 0.0966,0.39271 0.68014,0.55165 0.54868,0.98461 -0.17145,0.53748 -0.22896,1.11511 -0.52057,1.60797 0.0472,0.14314 0.17472,0.33484 0.33561,0.44379 0.16083,0.10894 0.35156,0.15396 0.5074,0.0364 0.10527,-0.13225 0.2238,-0.16939 0.2895,-0.11766 0.0659,0.0518 0.091,0.1888 0.0114,0.32611 -0.15387,0.3016 -0.19144,0.64824 -0.22471,0.97493 0.13471,0.041 0.35234,-0.0281 0.49307,-0.0318 0.14078,-0.004 0.19997,0.0482 0.0794,0.31182 -0.0604,0.39091 -0.24918,0.73053 -0.38529,1.09428 -0.13675,0.43683 -0.37108,0.87567 -0.72704,1.16568 -0.066,0.11708 -0.0806,0.26243 -0.13345,0.38502 l 1.10379,1.45395 0.42786,-0.27515 3.10465,0.84981 2.3683,1.56057 1.93763,-2.81834 -1.92296,-0.18306 -1.25495,-0.8798 2.19382,-2.68628 -0.6488,-1.46342 1.40462,-2.02137 1.38554,-1.08944 1.01981,-2.1551 6.54878,-3.02616 1.50013,-1.7702 1.74993,-2.35062 1.46034,-1.61907 -3.77715,-4.67834 c -0.56447,-0.21616 -1.51264,-0.85427 -2.26963,-1.56702 -0.37843,-0.35636 -0.69495,-0.73977 -0.91125,-1.08006 -0.21628,-0.34028 -0.34053,-0.64404 -0.25441,-0.87494 -0.52164,-0.29367 -0.91615,-0.42709 -1.27071,-0.8192 -0.46706,-0.51622 -0.30091,-0.99491 -1.27704,-2.14585 l -0.13447,-6.8538 4.3964,-0.006 -0.0222,-0.65213 c -0.37038,0.0659 -0.60157,0.0155 -0.71097,-0.12275 -0.10934,-0.1381 -0.0993,-0.3644 -0.038,-0.59158 0.11957,-0.45525 0.50987,-0.96852 0.7715,-1.08947 l -0.0444,-1.30429 1.00042,0.005 -0.0983,-2.44959 -2.59266,0.0284 0.0206,0.78097 -2.81207,0.003 -0.065,-3.3131 -0.52327,0.0238 -0.0294,-0.0118 -1.91036,0.0144 -0.48511,0.002 -1.52369,0.0188 -0.18949,-0.016 -0.16697,0.0208 -0.12099,-0.0311 -0.74286,-0.002 -0.42467,0.0175 -0.80318,-0.0175 -0.35636,0.003 -0.12889,-0.001 -0.71258,0.006 -0.0294,-0.0119 -0.21936,-0.0261 -0.45494,0.01 -0.51532,-0.007 -0.0906,-0.0256 -0.32594,0.0114 -0.28797,-0.0103 -0.71259,0.006 -0.0601,-0.0154 -0.38652,-0.005 -0.52329,0.0239 -0.48508,0.002 -0.28799,-0.0103 -1.03864,0.0174 -0.2577,-0.003 -0.0294,-0.0118 -0.0378,0.0222 -0.79519,-0.0483 -0.29593,0.0191 -0.51534,-0.006 -0.0295,-0.0118 -0.0379,0.0221 -0.73495,-0.0314 -1.61434,-0.005 -1.19772,0.007 -0.31807,-0.0203 -0.773,-0.009 -0.15889,-0.0111 -0.069,0.0142 -0.0906,-0.0256 -0.19722,0.0126 -0.4549,0.01 -0.51535,-0.007 -0.12889,-10e-4 -1.03069,-0.0125 -0.35623,0.003 -0.74288,-0.002 -0.62194,0.03 -1.00044,-0.005 -1.00042,-0.005 -0.0609,-0.0154 -0.57578,-0.0216 -0.28797,-0.0103 -0.5456,-0.0151 -0.34827,-0.0269 -0.2577,-0.003 -0.068,0.0144 -0.0294,-0.0118 -0.0987,0.006 -0.15895,-0.0111 -1.28835,-0.0161 -0.1895,-0.016 -1.44737,-0.026 -0.29584,0.0192 -0.50731,-0.0374 -0.19735,0.0128 -0.0294,-0.0119 -1.15953,-0.0141 -0.0987,0.006 -0.22742,0.005 -0.74274,-0.002 -0.21947,-0.0262 -0.97024,0.003 -0.80329,-0.0175 -0.28789,-0.0103 -0.35633,0.003 -1.28045,-0.0461 -0.3865,-0.006 -0.41664,-0.0135 -0.35635,0.003 -0.22741,0.005 -0.2577,-0.003 -1.25012,-0.0384 -0.31816,-0.0203 -0.12887,-0.001 -0.28786,-0.0103 -0.22749,0.005 -0.28787,-0.0103 -0.70466,-0.0236 -1.03071,-0.0125 -0.15899,-0.0111 -0.0294,-0.0118 0.0151,-0.54553 0.008,-0.64417 0.0382,-1.25026 0.0193,-0.932 -0.003,-0.35642 0.0151,-0.5455 0.0311,-0.12102 -0.0122,-0.19718 -0.0193,-0.29587 0.0161,-0.18934 0.0256,-0.0902 0.0122,-1.64471 0.0118,-0.0297 0.003,-0.2576 0.0207,-0.44712 -0.0142,-0.0682 -0.26727,0.15577 -0.4803,0.22896 -0.60292,0.32603 -0.15266,0.0889 -0.22919,0.13359 -0.48661,0.13038 -0.39611,0.15423 -0.0759,0.0448 -0.23705,0.16386 -0.0378,0.022 -0.10682,0.0365 -0.34355,0.20045 -0.16703,0.0206 -0.1607,0.11933 -0.26718,0.1558 -0.16067,0.11932 -0.38981,0.25279 -0.11478,0.0667 -0.0378,0.022 -0.076,0.0449 -0.0378,0.0221 -0.0759,0.0448 -0.19082,0.11137 -0.19095,0.11125 -0.0294,-0.0118 -0.16065,0.11922 -0.15271,0.0889 -0.11479,0.0667 z"
       id="PA-05"
       style="font-style:normal;font-weight:400;font-size:34.375px;font-family:'MS Shell Dlg 2';opacity:1;fill:none;fill-opacity:1;fill-rule:evenodd;stroke:#000000;stroke-width:0.33333385;stroke-linecap:square;stroke-linejoin:bevel;stroke-miterlimit:4;stroke-dasharray:none;stroke-opacity:1" />
    <path
       inkscape:connector-curvature="0"
       d="m 314.59898,440.62567 0.62517,-0.28781 2.87113,-0.47207 3.28151,-1.78585 1.31374,1.02452 c 0.27498,-0.0814 0.42451,-0.35314 0.59805,-0.55357 0.14586,-0.25135 0.44756,-0.31813 0.46301,-0.65367 0.21511,-0.16547 0.49298,-0.28187 0.72528,-0.42299 0.29658,-0.12497 0.35239,0.30643 0.61721,0.35641 0.23429,-0.0443 0.55474,-0.0913 0.55823,-0.40232 0.0829,-0.21726 0.0177,-0.38583 -0.1145,-0.54718 0.0908,-0.25116 0.4772,-0.35602 0.47097,-0.68394 0.0935,-0.30783 0.46669,-0.41205 0.74126,-0.48353 0.0478,0.17953 -0.13638,0.43573 0.20678,0.44222 -0.0532,0.30661 -0.23842,0.58738 -0.26864,0.89885 0.15016,0.16806 0.57074,0.10119 0.56307,0.43901 -0.0734,0.21602 -0.20776,0.60061 -0.51382,0.47877 -0.18115,-0.12508 -0.45004,-0.1803 -0.45658,0.1383 -0.2315,0.2474 -0.59803,-0.11853 -0.88593,-0.0717 -0.17121,0.004 -0.25942,0.12797 -0.38178,0.22264 0.10881,0.0895 0.24614,0.16532 0.20828,0.31335 -0.0751,0.24569 0.19754,0.32314 0.3834,0.26257 0.12417,-0.0627 0.26386,0.004 0.18763,0.14628 -0.0932,0.18087 -0.0314,0.41623 0.16861,0.46454 0.20093,0.0706 0.45357,0.009 0.61547,-0.12884 0.19505,-0.13045 0.37026,-0.33372 0.34853,-0.58689 0.0685,-0.17732 0.33295,0.024 0.47715,0.0278 0.28157,0.0844 0.57878,0.097 0.84616,0.22278 0.20126,0.0737 0.13701,0.3091 0.23689,0.45017 0.10736,0.12417 0.27014,0.19624 0.42152,0.24026 0.15132,0.0444 0.42014,-2.0868 0.42014,-2.0868 l -0.79994,-0.8893 0.40764,-1.66994 1.20083,0.34853 0.41822,0.49792 1.32011,0.50906 -0.44864,0.72207 1.01318,0.81617 -1.20752,2.00878 -0.98782,0.80624 c 0.60819,0.3411 0.79783,0.57838 0.89224,0.78421 0.0944,0.20593 0.0906,0.39229 0.28782,0.62519 -0.18222,0.18809 -0.70879,0.50756 -1.08165,0.42613 -0.34958,0.0823 -0.68824,0.13461 -1.0307,-0.0125 -0.24313,-0.11733 -0.33661,0.0231 -0.31335,0.20831 0.0237,0.18521 0.159,0.41052 0.29734,0.46604 0.2768,0.25693 0.73107,0.26366 0.88588,0.68576 0.19152,0.0895 0.3036,0.26131 0.33558,0.44375 0.0315,0.18235 -0.0267,0.38938 -0.14341,0.54392 -0.15177,0.0992 -0.36482,0.13985 -0.54089,0.2131 -0.17593,0.0732 -0.32028,0.18198 -0.27835,0.44377 -0.0704,0.16956 -0.0897,0.37773 -0.0521,0.56782 0.0378,0.1903 0.15484,0.34827 0.38164,0.39135 -0.0485,0.18913 0.0205,0.38804 0.16066,0.49472 0.13997,0.10654 0.33478,0.14587 0.49302,-0.0316 0.23546,-0.0726 0.40721,0.0919 0.11135,0.19084 -0.19758,0.0569 -0.30671,0.27891 -0.31666,0.46592 -0.01,0.18721 0.0924,0.34397 0.37542,0.29286 0.12182,0.0412 0.33755,-0.0192 0.49307,-0.0317 0.15546,-0.0123 0.24494,0.0209 0.1256,0.25924 -0.0725,0.27561 0.048,0.37953 0.22263,0.38188 0.17457,0.002 0.41434,-0.0954 0.54078,-0.21314 0.16605,-0.22268 0.30787,-0.21336 0.44864,-0.10817 0.14073,0.10528 0.2773,0.30061 0.36572,0.45184 0.29872,0.24509 0.63485,0.49439 0.94636,0.70154 0.38522,-0.0233 0.63015,-0.36355 0.90197,-0.60273 0.28984,-0.20648 0.34597,-0.64009 0.66168,-0.79524 l 1.58915,-1.00347 -0.27836,-0.17014 0.97516,-1.00358 -0.28308,-0.39767 0.56463,-0.30376 -0.72835,-1.16122 -0.67757,0.24179 -0.17655,-0.43428 1.02605,-0.21466 0.59647,-0.42461 0.4041,-0.79844 -1.969,-1.35857 -0.0889,-1.38064 0.3054,-0.1781 -0.33081,-0.21635 -0.40729,0.44216 -1.57134,-1.02774 1.09606,-1.58569 -1.05923,-0.76354 0.17849,-0.30855 -0.47392,-0.28628 0.26244,-0.38342 0.72526,0.19095 0.55665,0.95447 0.30696,-0.30696 -0.64085,-0.87965 0.21026,-0.42943 -1.77805,-1.4698 -0.43917,1.17695 -0.73168,0.32441 -0.25922,-0.4884 0.45502,-0.62339 -1.54934,0.2384 -0.77444,-1.10872 -0.50908,0.7062 -1.50931,-1.14072 0.14658,-0.18754 -0.36572,-0.45172 -0.272,-0.0718 -0.96871,1.10212 -1.86109,0.93187 0.0222,0.65211 -1.46176,0.51996 -0.65518,-1.56196 -0.7524,0.15735 c -0.0159,0.0694 -0.0502,0.10826 -0.0777,0.17349 -0.0883,0.13921 -0.0523,0.31766 -0.0584,0.46916 -0.0302,0.20148 -0.0807,0.39238 -0.0604,0.59806 0.051,0.1953 -0.0977,0.3239 -0.24023,0.42152 -0.1341,0.13233 -0.32199,0.13539 -0.49468,0.16055 -0.19083,0.0579 -0.39551,0.0576 -0.56312,0.175 l -2.81054,-0.12601 -0.75069,-0.58538 -0.53936,1.3122 0.35635,-0.003 0.10488,0.70619 -0.87811,0.51208 -1.27077,-0.20574 0.12717,0.74443 0.54393,0.14332 0.26396,0.71582 -1.52706,0.27661 0.21456,1.63989 z"
       id="PA-06"
       style="font-style:normal;font-weight:400;font-size:34.375px;font-family:'MS Shell Dlg 2';opacity:1;fill:#000000;fill-opacity:1;fill-rule:evenodd;stroke:#000000;stroke-width:0.33333385;stroke-linecap:square;stroke-linejoin:bevel;stroke-miterlimit:4;stroke-dasharray:none;stroke-opacity:1" />
    <path
       inkscape:connector-curvature="0"
       d="m 338.17018,451.74333 -0.58518,-1.09117 c 0.28928,-0.094 0.56549,-0.19308 0.85258,-0.29255 0.0242,-0.1813 -0.19428,-0.34144 -0.25123,-0.51866 -0.17248,-0.14227 -0.28286,-0.34625 -0.20505,-0.571 0.0703,-0.18491 0.0596,-0.41552 0.21103,-0.55841 0.17884,-0.16407 0.42923,-0.0223 0.544,0.14345 0.0867,0.18033 0.32126,0.20038 0.38163,0.39135 0.005,0.19399 -0.065,0.40148 -0.15129,0.5741 -0.12625,0.13005 -0.14714,0.31111 -0.1276,0.48347 0.18376,0.12022 0.40343,-0.15489 0.62986,-0.0603 0.25131,0.0299 0.51608,0.16058 0.76505,0.0398 0.16341,-0.032 0.38006,-0.20986 0.26256,-0.38328 -0.14563,-0.15942 -0.26717,-0.34311 -0.34187,-0.54242 0.0665,-0.17772 -0.0315,-0.41057 0.1128,-0.55192 0.30167,-0.0751 0.0265,-0.31149 -0.002,-0.48521 0.0214,-0.14968 0.0901,-0.30354 0.11918,-0.45327 l -0.32759,-0.47405 0.41997,-0.24486 -1.53469,-2.14912 0.35786,-0.13195 -0.48028,-0.38498 -1.06561,-0.24829 -0.11778,-0.28949 0.60927,-0.22739 0.11167,-0.4231 0.82565,-1.1721 0.8446,-0.26231 0.12729,0.13042 -0.7032,1.07509 -0.0957,0.36257 0.20351,0.086 0.52974,-0.53919 1.16258,0.98477 0.42319,-0.50255 0.46289,-0.0397 0.32283,0.24662 0.23703,-0.16385 -0.13038,-0.48673 -1.91485,-1.44132 0.12543,-0.35476 1.65889,0.69525 0.25453,-0.35301 0.54077,0.4009 0.38499,-0.48034 -1.80194,-1.37921 -0.37866,0.57896 -0.37385,0.19238 -0.58528,-0.47723 -0.14746,0.31657 -0.33724,-0.31494 0.10955,-0.29433 -0.4422,-0.40721 0.14661,-0.18764 -0.86361,-0.6474 -1.01016,1.38205 -1.26285,-0.84953 -0.3054,0.17813 0.089,1.38063 1.96899,1.35858 -0.40411,0.79843 -0.59645,0.42465 -1.02609,0.21461 0.17656,0.43427 0.67759,-0.24177 0.72834,1.16121 -0.56464,0.30377 0.2831,0.39766 -0.97516,1.00359 0.27836,0.17015 -1.58915,1.00346 c -0.3157,0.15515 -0.37187,0.58874 -0.66169,0.79524 -0.27186,0.23919 -0.51675,0.57946 -0.902,0.60274 -0.31147,-0.20716 -0.6476,-0.45646 -0.94634,-0.70156 -0.0884,-0.15124 -0.22498,-0.34652 -0.36572,-0.45183 -0.14073,-0.10517 -0.28253,-0.11452 -0.4486,0.10814 -0.12616,0.11778 -0.36622,0.21538 -0.5408,0.21317 -0.17456,-0.002 -0.29491,-0.10614 -0.22262,-0.3819 0.11924,-0.23713 0.0307,-0.27161 -0.12563,-0.2592 -0.1555,0.0125 -0.37129,0.0732 -0.49306,0.0318 -0.28301,0.0512 -0.38532,-0.10552 -0.37543,-0.29283 0.01,-0.1871 0.11916,-0.40908 0.31666,-0.46596 0.29599,-0.0994 0.12425,-0.26355 -0.11134,-0.19082 -0.15825,0.17767 -0.35306,0.13838 -0.49305,0.0316 -0.14003,-0.10674 -0.20685,-0.30489 -0.16063,-0.49469 -0.22682,-0.043 -0.34346,-0.20096 -0.38165,-0.39136 -0.0387,-0.19043 -0.0177,-0.3981 0.0521,-0.56782 -0.0421,-0.2618 0.0982,-0.37165 0.27833,-0.44377 0.17609,-0.0731 0.38914,-0.11387 0.5409,-0.21309 0.11729,-0.15453 0.17493,-0.36161 0.14335,-0.54393 -0.0315,-0.18234 -0.14409,-0.35416 -0.33561,-0.44379 -0.15482,-0.4221 -0.60908,-0.42879 -0.88587,-0.68572 -0.13831,-0.0556 -0.27413,-0.28094 -0.29736,-0.46608 -0.0238,-0.18514 0.071,-0.32549 0.31337,-0.20828 0.34241,0.14742 0.68118,0.0948 1.0307,0.0125 0.37283,0.0817 0.89946,-0.23805 1.08165,-0.42615 -0.1972,-0.2329 -0.19344,-0.41927 -0.28783,-0.62518 -0.0944,-0.2058 -0.28403,-0.44313 -0.89223,-0.78421 l 0.98781,-0.80626 1.20754,-2.00875 -1.0132,-0.81614 0.44863,-0.72209 -1.32007,-0.50909 -0.41825,-0.49787 -1.20081,-0.34855 -0.40765,1.66993 0.79993,0.88928 c 0,0 -0.26885,2.13077 -0.42013,2.0868 -0.15129,-0.0443 -0.31418,-0.11609 -0.42152,-0.24022 -0.0998,-0.1411 -0.0357,-0.37651 -0.2369,-0.45018 -0.26747,-0.12501 -0.5646,-0.13821 -0.84615,-0.22281 -0.14399,-0.008 -0.40891,-0.20608 -0.47716,-0.0278 0.0212,0.25302 -0.15322,0.45652 -0.34854,0.58688 -0.16188,0.13775 -0.4145,0.19944 -0.61545,0.12885 -0.20078,-0.0491 -0.26172,-0.28369 -0.1686,-0.46453 0.0768,-0.14204 -0.0635,-0.20904 -0.18763,-0.1463 -0.18584,0.0607 -0.45852,-0.017 -0.38338,-0.26258 0.0398,-0.1475 -0.0995,-0.22378 -0.20828,-0.31332 -0.0557,0.0427 -0.0966,0.0838 -0.1829,0.081 -0.15903,0.09 -0.18171,0.0551 -0.18155,-0.0471 10e-4,-0.10273 0.0169,-0.25548 -0.0115,-0.32611 -0.15793,-0.16329 -0.25707,-0.003 -0.26722,0.15591 -0.2218,0.0256 -0.59815,0.0136 -0.63311,0.31797 -0.23034,0.27161 0.0419,0.58006 0.31799,0.63315 0.18313,0.0108 0.1884,0.0966 0.13371,0.22895 -0.0546,0.13247 -0.17217,0.30813 -0.17227,0.40717 -0.0452,0.17319 -0.12405,0.25866 -0.29903,0.2767 l 3.78208,3.06387 -1.40297,0.66472 c -0.29058,0.16659 -0.54121,0.42491 -0.89237,0.44373 -0.28153,-0.0575 -0.4429,0.163 -0.46761,0.4262 -0.11382,0.23184 -0.44375,0.28056 -0.65703,0.40867 -0.13522,0.0223 -0.20062,0.1415 -0.26087,0.25447 -0.0598,0.11311 -0.14105,0.21383 -0.31968,0.10972 -0.30731,-0.0786 -0.59794,-0.20729 -0.87488,-0.35959 -0.26843,-0.0126 -0.484,0.23934 -0.76663,0.0891 -0.28348,-0.0807 -0.68189,0.026 -0.76992,0.34663 -0.0158,0.1037 -0.13681,0.178 -0.20043,0.27037 -0.0636,0.0923 -0.0664,0.19631 0.12572,0.25923 0.27376,0.1908 0.51491,0.39266 0.78087,0.5934 0.13128,0.27776 -0.4432,0.10213 -0.41208,0.21474 l 0.51689,1.71947 0.41192,-0.21469 0.53895,1.75762 -0.96386,0.10182 c -0.16842,-0.0141 -0.22339,0.0864 -0.21469,0.20198 0.008,0.11549 0.0662,0.2537 0.1399,0.32763 0.0482,0.15429 0.18883,0.14594 0.31641,0.14797 0.1278,4.4e-4 0.24464,-0.004 0.24025,0.19248 -0.0113,0.25829 0.2213,0.43239 0.39445,0.58847 0.24023,0.0928 0.33994,0.33885 0.47071,0.5441 0.16008,0.24152 0.46585,0.3546 0.74591,0.35804 0.32198,-0.12985 0.1673,-0.58409 0.4566,-0.75234 0.20574,-0.0972 0.39845,-0.2947 0.61084,-0.35623 0.27906,0.047 0.55399,0.16355 0.78418,0.33567 0.22427,0.1528 0.46506,0.29124 0.69177,0.44071 0.12818,0.19192 0.58168,-0.0159 0.51215,0.26409 l -0.0119,0.0297 -0.0118,0.0297 1.32019,-0.10486 -0.4101,-2.37 0.50586,-0.4485 -0.53279,-1.04506 -0.76814,-0.39614 -0.76032,0.1876 0.0203,-0.31796 0.32134,-0.23855 0.53279,-0.18289 0.28003,-0.57256 1.79423,-0.43243 0.21143,0.66971 0.31184,-0.0795 0.0382,0.59171 -0.35018,1.3297 1.94839,0.57755 0.49629,0.32457 0.5408,-0.21317 0.2814,1.14053 -0.35943,-0.35314 -2.84876,0.5102 0.28766,1.85312 -0.61722,0.25752 -0.31979,0.72372 0.0286,0.75076 0.0987,-0.006 0.0294,0.0118 0.22751,-0.005 0.25767,0.003 0.30375,-0.0492 0.0154,-0.0604 0.10953,-0.29433 0.054,-0.083 0.10155,-0.26405 0.12364,-0.22595 0.0154,-0.0605 0.0539,-0.0828 0.0998,-0.13534 0.0118,-0.0298 0.0118,-0.0297 0.0618,-0.11299 0.0294,0.0119 0.0118,-0.0297 0.0378,-0.0224 0.0119,-0.0298 0.0457,-0.0524 0.0459,-0.0524 0.0618,-0.113 0.0839,-0.0748 0.0379,-0.0223 0.0118,-0.0297 0.0118,-0.0296 0.0379,-0.0223 0.0378,-0.0224 0.0154,-0.0605 0.0294,0.0119 0.0457,-0.0526 0.1686,-0.1494 0.0538,-0.0829 0.0294,0.0118 0.0539,-0.0828 0.16065,-0.11923 0.15268,-0.0889 0.0378,-0.0221 0.0459,-0.0525 0.068,-0.0143 0.0118,-0.0297 0.0759,-0.0449 0.26718,-0.15579 0.1067,-0.0365 0.0118,-0.0297 0.36584,-0.16218 0.14478,-0.059 0.38008,-0.0938 0.44861,-0.10805 0.0379,-0.0224 0.32593,-0.0114 0.20532,-0.0429 0.35625,-0.003 0.28794,0.0103 0.46924,0.0585 0.15902,0.0111 0.27993,0.0411 0.11292,0.0621 0.27187,0.0718 0.18159,0.047 0.20359,0.0859 0.06,0.0153 0.1431,0.07 0.0295,0.0118 0.0601,0.0154 -0.0118,0.0298 0.28631,0.13988 0.0907,0.0256 0.11293,0.0622 0.30061,0.20839 0.1988,-0.14156 0.0378,-0.022 0.0538,-0.0828 0.0293,0.0118 0.16863,-0.1495 0.0459,-0.0524 z"
       id="PA-07"
       style="font-style:normal;font-weight:400;font-size:34.375px;font-family:'MS Shell Dlg 2';opacity:1;fill:none;fill-opacity:1;fill-rule:evenodd;stroke:#000000;stroke-width:0.33333385;stroke-linecap:square;stroke-linejoin:bevel;stroke-miterlimit:4;stroke-dasharray:none;stroke-opacity:1" />
    <path
       inkscape:connector-curvature="0"
       d="m 341.69269,429.40398 -1.32826,0.74902 -3.10985,2.60663 -1.59557,2.13283 -0.13522,-0.10039 -0.21027,0.42944 0.64085,0.87964 -0.30696,0.30695 -0.55662,-0.95446 -0.72527,-0.19096 -0.26251,0.38344 0.47395,0.28627 -0.17843,0.30854 1.05921,0.76353 -1.09605,1.5857 1.5713,1.02773 0.4073,-0.44216 0.33081,0.21635 0,0 1.26284,0.84952 1.01017,-1.38207 0.86362,0.64742 0.23858,-0.2927 0.38341,0.26259 0.53923,-0.69822 5.29458,3.94686 c 0.22811,0.11859 0.51799,0.13387 0.73171,0.28953 0.0988,0.28905 0.40948,0.61472 0.30681,0.92097 -0.14343,0.25427 -0.39744,0.36348 -0.62041,0.51524 l 0.28946,0.49636 0.12272,-0.0971 0.11479,-0.0666 0.31338,-0.20838 0.0759,-0.0448 0.22907,-0.13357 0.0118,-0.0297 0.1069,-0.0363 0.0379,-0.0223 0.0295,0.0118 0.069,-0.0142 0.21937,0.0262 0.0379,-0.0223 0.1368,-0.0286 0.0758,-0.0446 0.25137,-0.0954 0.15271,-0.0889 0.24343,-0.0652 0.10685,-0.0365 0.0758,-0.0447 0.0118,-0.0297 0.0311,-0.12103 0.0458,-0.0523 0.0459,-0.0525 0.0457,-0.0524 0.0118,-0.0298 0.068,-0.0144 0.0119,-0.0297 0.0294,0.0118 0.068,-0.0143 0.0918,-0.10508 0.0538,-0.0828 0.0256,-0.0904 0.0311,-0.121 0.0406,-0.15089 0.0118,-0.0297 0.0118,-0.0297 0.0459,-0.0526 0.0619,-0.11297 0.0538,-0.083 0.068,-0.0144 0.0601,0.0154 0.0679,-0.0144 0.0519,0.0459 0.12103,0.0311 0.121,0.0311 0.18148,0.047 0.0601,0.0154 0.0294,0.0118 0.0296,0.0118 0.0758,-0.0447 0.12273,-0.097 0.16066,-0.11933 0.12275,-0.097 0.0118,-0.0297 0.0679,-0.0144 0.0379,-0.0225 0.0377,-0.0224 0.0294,0.0119 0.18946,0.016 0.068,-0.0144 0.0379,-0.0223 0.30697,-0.30695 0.0459,-0.0524 0.0256,-0.0903 0.0256,-0.0902 4.3e-4,-0.12878 -0.014,-0.0685 -0.29107,-0.3674 -0.0749,-0.0843 -0.13517,-0.10009 -0.18149,-0.047 0.0118,-0.0296 -0.06,-0.0154 -0.014,-0.0684 -0.0531,-0.0462 0.0118,-0.0296 -0.0731,-0.21316 -0.022,-0.0381 -0.0669,-0.11464 -0.067,-0.11463 -0.0442,-0.0761 -0.0281,-0.13667 -0.0295,-0.0118 -0.1351,-0.1003 -0.0293,-0.0119 -0.0531,-0.0462 -0.052,-0.0459 -0.0294,-0.0118 -0.0219,-0.038 -0.0294,-0.0119 -0.0519,-0.0459 -0.13524,-0.10009 -0.12103,-0.0311 -0.39909,-0.20207 -0.083,-0.054 -0.0519,-0.0459 -0.23378,-0.094 -0.13529,-0.10009 -0.0953,-0.25137 -0.14794,-0.29746 -0.0732,-0.21315 -0.11129,-0.1909 -0.0811,-0.1829 -0.0971,-0.12251 -0.28475,-0.26876 -0.0219,-0.0381 -0.075,-0.0843 -0.0294,-0.0118 -0.10497,-0.0925 -0.0907,-0.0256 -0.0904,-0.0256 -0.06,-0.0154 -0.12105,-0.0311 -0.18772,-0.14631 -0.21784,-0.1544 0.0118,-0.0297 -0.13509,-0.10039 -0.15747,-0.13841 -0.0749,-0.0842 -0.0219,-0.0379 -0.0362,-0.10643 -0.006,-0.0986 0.001,-0.12882 -0.0141,-0.0684 -0.0732,-0.21324 -0.0953,-0.25128 -0.0141,-0.0685 -0.10341,-0.22111 -0.14785,-0.29746 -0.0141,-0.0684 -0.0601,-0.0154 -0.0519,-0.0459 -0.20349,-0.086 -0.0296,-0.0119 -0.0294,-0.0118 -0.0519,-0.0461 -0.0293,-0.0118 -0.075,-0.0841 -0.151,-0.0407 -0.068,0.0145 -0.0837,0.0748 -0.28154,0.0874 -0.17503,0.0508 -0.0601,-0.0154 -0.0294,-0.0119 -0.0601,-0.0153 -0.11292,-0.0621 -0.10497,-0.0922 -0.022,-0.038 -0.0294,-0.0118 -0.0294,-0.0118 -0.022,-0.0381 -0.0601,-0.0154 -0.12099,-0.031 -0.0294,-0.0118 -0.022,-0.0381 -0.0294,-0.0118 -0.014,-0.0683 -0.0294,-0.0119 0.0118,-0.0298 -0.0219,-0.0381 -0.0494,-0.30376 -0.0859,-0.41037 -0.0811,-0.18289 0.0118,-0.0297 0.0406,-0.15099 0.0154,-0.0604 0.0118,-0.0297 -0.0294,-0.0119 -0.006,-0.0985 10e-4,-0.12883 0.0618,-0.113 0.0311,-0.12101 0.0111,-0.15897 4.4e-4,-0.12885 -0.014,-0.0685 -0.0794,-0.3117 0.0111,-0.15901 -0.0132,-0.19735 -0.022,-0.038 0.016,-0.18945 -0.0193,-0.29586 -0.0441,-0.0763 -0.0142,-0.0684 -0.20993,-0.18453 -0.15733,-0.13845 -0.0452,-0.0765 -0.20199,-0.2148 -0.0749,-0.0843 -0.0294,-0.0118 -0.0293,-0.0118 -0.17341,-0.0779 -0.14317,-0.07 -0.12889,-10e-4 -0.31018,-0.0484 -0.0378,0.0223 -0.0601,-0.0153 -0.0379,0.0223 -0.0378,0.0223 -0.0379,0.0222 -0.0377,0.0223 -0.0118,0.0297 -0.17659,0.17968 -0.0294,-0.0118 -0.0769,0.0446 -0.068,0.0145 -0.0293,-0.0118 -0.0296,-0.0118 -0.0294,-0.0119 -0.0987,0.006 -0.0219,-0.0379 -0.121,-0.0312 -0.0294,-0.0118 -0.0294,-0.0118 -0.0221,-0.0379 -0.0295,-0.0118 -0.0519,-0.0459 -0.0749,-0.0842 -0.0529,-0.0461 -0.014,-0.0684 0.0118,-0.0296 -0.0141,-0.0684 0.0379,-0.0223 0.0539,-0.0828 0.0118,-0.0297 0.0256,-0.0903 0.0118,-0.0297 -0.0295,-0.0118 0.0119,-0.0297 -0.022,-0.038 -0.0273,-0.26568 -0.075,-0.0843 -0.0221,-0.0379 z"
       id="PA-08"
       style="font-style:normal;font-weight:400;font-size:34.375px;font-family:'MS Shell Dlg 2';opacity:1;fill:none;fill-opacity:1;fill-rule:evenodd;stroke:#000000;stroke-width:0.33333385;stroke-linecap:square;stroke-linejoin:bevel;stroke-miterlimit:4;stroke-dasharray:none;stroke-opacity:1" />
    <path
       inkscape:connector-curvature="0"
       d="m 293.255,455.17077 -0.24749,-6.30188 0.10157,-0.26414 0,0 0.18903,-0.59652 -1.52192,-1.95181 c -0.18289,-0.87643 -0.42657,-1.47314 -0.71882,-1.93424 -0.29214,-0.46108 -0.63917,-0.78789 -0.97167,-1.09601 l -0.4866,-1.09756 0.28308,-0.21624 -1.29758,-2.31291 -0.5282,0.41035 -1.19571,-3.19087 -0.30063,0.40552 0,0 -1.93759,2.81834 -2.36834,-1.56059 -3.10466,-0.8498 -0.42785,0.27514 -1.10381,-1.45395 c 0.0529,-0.12253 0.0707,-0.26712 0.13344,-0.385 0.35598,-0.29003 0.58994,-0.72893 0.72706,-1.16572 0.13613,-0.36373 0.32569,-0.70325 0.3853,-1.09425 0.12046,-0.26497 0.0625,-0.31539 -0.0795,-0.31183 -0.14069,0.004 -0.35861,0.0737 -0.49302,0.0317 0.032,-0.3269 0.0708,-0.67336 0.22471,-0.97489 0.0795,-0.13739 0.0553,-0.2742 -0.0114,-0.32615 -0.0659,-0.0518 -0.18408,-0.0136 -0.28948,0.11768 -0.1558,0.1173 -0.34654,0.0723 -0.50734,-0.0374 -0.16085,-0.10894 -0.28856,-0.30069 -0.33555,-0.44378 0.29189,-0.49281 0.34903,-1.0705 0.52054,-1.60795 0.1315,-0.43298 -0.45211,-0.5919 -0.54872,-0.98465 -0.29459,-0.41445 -0.32459,-0.96339 -0.17168,-1.43468 0.32156,-0.1938 0.69395,-0.28502 0.98475,-0.54867 0.3918,-0.12569 0.60109,-0.51407 0.95603,-0.68548 l -5.25692,0.32871 -9.51336,0.0485 0.11679,-5.10726 -8.75139,-0.26831 -0.10067,3.81905 -5.2879,7.07436 c -0.005,0.0528 0.0745,0.0583 0.067,0.11453 -0.0405,0.29071 -0.11097,0.61622 0.2098,0.79854 0.14049,0.22448 0.34477,0.45414 0.58375,0.60611 0.23886,0.15196 0.5194,0.21483 0.79359,0.1765 0.22959,-0.169 0.41024,-0.0881 0.61398,6.7e-4 0.20379,0.0882 0.4334,0.18781 0.68873,0.0845 0.2722,0.0393 0.30736,0.26188 0.36571,0.45181 0.0584,0.18995 0.14096,0.36284 0.47404,0.28634 0.26645,0.18295 0.57627,0.14422 0.862,0.16264 0.28591,0.0178 0.53776,0.093 0.73005,0.41834 0.64873,-0.0302 1.2615,0.44246 1.63499,0.7859 -0.0756,0.23662 -0.0283,0.40174 0.062,0.50109 0.0904,0.0994 0.23471,0.12164 0.39282,0.10336 0.31628,-0.0363 0.65914,-0.27766 0.66025,-0.66638 0.2552,0.0419 0.42281,-0.0519 0.54072,-0.21305 0.11798,-0.16127 0.18447,-0.39008 0.31031,-0.5646 0.26666,-0.11654 0.50465,-0.009 0.70284,0.15331 0.19831,0.16151 0.36745,0.37191 0.56306,0.43915 1.63077,-3.1768 2.47006,-5.44598 3.09447,-7.45791 0.27273,0.21242 0.68656,-0.13721 0.93048,0.14818 0.21315,0.24844 0.40017,0.51691 0.60426,0.7731 0.17653,0.32287 -0.0691,0.6861 -0.0125,1.03071 0.0737,0.2354 0.0492,0.6366 0.14952,0.78255 0.20391,-0.28324 0.40504,-0.56956 0.73646,-0.71093 0.0965,-0.0765 0.14686,-0.20818 0.2084,-0.30055 0.0616,-0.0923 0.15704,-0.13703 0.32615,-0.0114 0.34154,0.1474 0.66453,0.34558 1.04973,0.30865 0.0706,0.26699 -0.0471,0.61263 -0.19294,0.85401 -0.21725,0.16845 -0.42017,0.3665 -0.4327,0.66165 -0.0917,0.3971 -0.21207,0.80606 -0.15865,1.21846 0.0452,0.52286 -0.36372,0.94278 -0.35188,1.45849 0.008,0.22563 0.15224,0.34994 0.32131,0.37538 0.16896,0.0261 0.37838,-0.0267 0.51693,-0.12243 0.22935,-0.0848 0.37238,-0.49178 0.57432,-0.4627 l 1.64446,1.24087 -0.12796,1.09733 -0.87801,0.51205 -1.08027,2.13927 0.23535,0.579 -0.83514,1.33124 -1.2761,3.86495 -0.30065,-0.20837 -0.62689,1.03063 -2.4684,-1.42542 c -0.53609,0.0243 -1.00729,0.36485 -1.25344,0.83332 -0.34018,0.57038 -0.41009,1.25113 -0.59218,1.87988 -0.0323,0.20526 -0.0533,0.47994 -0.1451,0.67273 -0.091,0.19287 -0.2447,0.29195 -0.5409,0.21311 -0.24328,-0.0552 -0.48011,-9e-5 -0.64583,0.12077 -0.16559,0.12072 -0.267,0.31895 -0.21917,0.58861 -0.11606,0.57334 -0.55709,1.00568 -1.00222,1.35187 -0.17893,0.16664 -0.33319,0.0907 -0.47725,-0.0279 -0.14408,-0.11931 -0.26251,-0.2668 -0.35304,-0.25448 -0.11659,0.44293 -0.12732,0.95098 -0.47095,1.29788 -0.24431,0.23741 -0.36504,0.95875 -0.6937,0.91606 -0.15386,-0.14264 -0.20921,-0.45866 -0.29413,-0.72375 -0.0848,-0.26503 -0.21264,-0.46492 -0.48831,-0.35467 -0.14877,0.23897 -0.34922,0.41101 -0.59013,0.52314 -0.2409,0.1122 -0.51338,0.14717 -0.79687,0.081 -0.48131,-0.0611 -0.57932,-0.74069 -0.8811,-1.07206 -0.0752,-0.41966 0.1648,-0.81408 0.0687,-1.24229 -0.0471,-0.40569 -0.21874,-0.89579 -0.6234,-1.06892 l -0.0296,-0.0119 -0.10693,0.0364 1.61798,-2.70864 c -0.11313,0.0645 -0.168,0.20373 -0.31338,0.20838 -0.29073,0.009 -0.5953,-0.0937 -0.77778,-0.23713 -0.28536,-0.49468 -0.46715,-1.11292 -1.02902,-1.36954 -0.31409,-0.41339 -1.02128,-0.35894 -1.1944,-0.86386 -0.15222,-0.27543 -0.40778,-0.47393 -0.69814,-0.53921 -0.29065,-0.0645 -0.61012,-0.013 -0.85899,0.1939 -0.47924,0.43581 -1.10398,0.6823 -1.57475,1.07186 -0.0621,0.27361 -0.21171,0.29305 -0.35957,0.26078 -0.14749,-0.0333 -0.30332,-0.12994 -0.46922,-0.0584 -0.31474,0.17782 -0.52529,0.0695 -0.71088,-0.12285 -0.18572,-0.19205 -0.33866,-0.46073 -0.56944,-0.53772 -0.20747,-0.0353 -0.56099,-0.0329 -0.84769,-0.0945 -0.2869,-0.0607 -0.5298,-0.17383 -0.48663,-0.48354 l -2.31905,-0.0294 c -0.0655,-0.14755 -0.19273,-0.31279 -0.25922,-0.48829 -0.0666,-0.17565 -0.0685,-0.37353 0.0741,-0.52987 0.25071,-0.003 0.3358,-0.21293 0.30874,-0.43579 -0.027,-0.22283 -0.16035,-0.46089 -0.34363,-0.41358 -0.26697,0.11657 -0.50426,0.1016 -0.71248,0.006 -0.2083,-0.0953 -0.37754,-0.25812 -0.579,-0.37858 -0.46125,-0.26104 -1.03192,-0.14957 -1.43466,0.17159 -0.31038,0.0992 -0.33697,0.26296 -0.27844,0.44373 0.0587,0.18077 0.16999,0.39199 0.10651,0.57735 0.0473,0.19019 0.10727,0.40441 0.0763,0.56946 -0.0315,0.16495 -0.13659,0.27911 -0.40553,0.31336 -0.2289,0.0485 -0.30673,0.35128 -0.25798,0.61065 0.0491,0.25942 0.21904,0.48527 0.4739,0.28631 0.19454,-0.36574 0.50204,-0.44733 0.88289,-0.28462 0.29307,0.0482 0.37936,0.26792 0.41034,0.52819 0.0308,0.26022 0.0104,0.55301 0.12706,0.7444 0.17765,0.18305 0.0287,0.43609 -0.1511,0.57423 -0.17989,0.13803 -0.3977,0.16611 -0.37045,-0.0662 -0.0501,-0.21013 -0.14972,-0.30757 -0.26874,-0.32927 -0.11906,-0.0211 -0.26144,0.0278 -0.41038,0.0858 -0.23588,-0.14835 -0.40159,-0.0698 -0.4708,0.0699 -0.0691,0.14026 -0.0238,0.34703 0.16054,0.49469 0.18252,0.1395 0.21435,0.32448 0.1686,0.46453 -0.0472,0.13959 -0.17059,0.24101 -0.36751,0.29101 -0.27179,0.34467 -0.50986,0.28706 -0.86517,0.0952 -0.31065,-0.0728 -0.50037,0.11312 -0.58065,0.36415 -0.0807,0.25103 -0.0541,0.56443 -0.0398,0.76505 -0.15697,0.11028 -0.3034,0.25053 -0.33084,0.39769 -0.0291,0.14683 0.0569,0.32005 0.27508,0.42794 -0.0669,0.11327 -0.38924,0.36336 -0.59015,0.52319 0.14854,0.391 0.0593,0.86903 0.151,1.26772 0.40008,0.44387 0.74507,0.99716 0.80619,1.60173 -0.0568,0.27792 -0.14271,0.54102 -0.11531,0.80987 0.0233,0.2678 0.13354,0.53863 0.4231,0.72532 0.0757,0.35945 0.0629,0.72751 0.002,1.09906 l 0.068,-0.0144 1.12133,0.0363 0.12887,4.4e-4 1.47774,0.0337 0.121,0.0311 1.12928,0.007 0.0295,0.0118 0.0293,0.0118 0.0294,0.0118 0.0378,-0.0225 0.96229,0.0274 0.96229,0.0274 0.54559,0.0151 0.4167,0.0135 0.19723,-0.0128 1.09116,0.0283 0.74284,0.002 0.34832,0.0269 0.0378,-0.0224 0.21937,0.0262 0.12885,10e-4 0.96231,0.0274 0.0294,0.0118 0.4852,-0.002 1.03071,0.0125 1.83389,0.03 1.2582,0.008 0.35633,-0.003 0.41666,0.0135 0.83346,0.0253 0.159,0.0111 0.0986,-0.006 0.93211,0.0193 2.57675,0.0317 0.68234,-0.0143 0.15892,0.0111 0.069,-0.014 2.47811,0.0385 0.3484,0.0269 0.2274,-0.005 0.41679,0.0135 0.68227,-0.014 0.06,0.0154 0.12887,10e-4 0.51534,0.006 0.12891,4.5e-4 0.159,0.0111 0.48509,-0.002 0.0294,0.0118 0.25769,0.003 0.068,-0.0143 0.19736,-0.0127 0.41666,0.0135 0.12889,4.3e-4 0.25768,0.003 0.0601,0.0154 0.32608,-0.0115 0.47723,0.0278 0.19717,-0.0128 0.32616,-0.0115 0.0906,0.0256 0.4549,-0.01 0.34841,0.0269 0.41667,0.0135 0.19722,-0.0127 0.32608,-0.0115 0.3865,0.005 0.25764,0.003 0.0601,0.0153 0.0295,0.0119 0.068,-0.0144 0.8033,0.0175 0.19725,-0.0128 0.32603,-0.0114 0.34833,0.0269 0.19731,-0.0126 0.15891,0.0111 0.12889,4.3e-4 0.28786,0.0103 0.97036,-0.003 0.84132,-0.004 0.0293,0.0118 0.0295,0.0119 0.06,0.0154 0.13681,-0.0286 1.06096,0.0208 0.25768,0.003 0.58372,-0.008 0.0601,0.0153 0.32607,-0.0114 0.44691,0.0216 0.0293,0.0118 0.58365,-0.008 0.61399,6.8e-4 0.22754,-0.005 0.1589,0.0111 0.68229,-0.0143 0.50745,0.0364 0.0378,-0.0224 0.28794,0.0103 1.38695,0.0101 1.06894,-0.01 0.19713,-0.0128 0.0294,0.0118 0.74276,0.002 0.48518,-0.002 0.0987,-0.006 0.0294,0.0118 0.1894,0.016 0.38646,0.005 0.22748,-0.005 0.061,0.0154 0.97014,-0.003 0.15902,0.0111 0.32609,-0.0114 0.28787,0.0103 0.25769,0.003 0.0379,-0.0222 0.18937,0.016 0.0905,0.0256 0.0681,-0.0144 1.09921,-0.002 0.0296,0.0118 0.0679,-0.0142 1.38692,0.0101 0.67448,0.0158 0.15898,0.0111 0.52332,-0.0239 0.18932,0.0161 0.0294,0.0118 0.5837,-0.008 0.19725,-0.0128 0.61391,6.8e-4 0.18949,0.016 z"
       id="PA-09"
       style="font-style:normal;font-weight:400;font-size:34.375px;font-family:'MS Shell Dlg 2';opacity:1;fill:none;fill-opacity:1;fill-rule:evenodd;stroke:#000000;stroke-width:0.33333385;stroke-linecap:square;stroke-linejoin:bevel;stroke-miterlimit:4;stroke-dasharray:none;stroke-opacity:1" />
    <path
       inkscape:connector-curvature="0"
       d="m 337.10825,390.3562 -0.94794,0.0414 -0.55357,0.0159 -0.0987,0.006 -0.87965,0.027 -0.0987,0.006 -0.0294,-0.0119 -1.43312,0.0428 -0.94794,0.0414 -0.19729,0.0126 -0.0601,-0.0154 -0.94803,0.0414 -0.35626,0.003 -1.23597,0.0301 -0.2354,0.035 -0.41674,-0.0135 -0.0987,0.006 -0.12886,-4.4e-4 -1.26607,0.0221 -0.78098,0.0206 -0.41674,-0.0135 -1.43313,0.0428 -0.45492,0.01 -0.0601,-0.0153 -0.0988,0.006 -0.35633,0.003 -1.13732,0.0238 -0.068,0.0144 -0.90979,0.019 -0.15902,-0.0111 -0.19728,0.0128 -0.15889,-0.0111 -0.32613,0.0115 -1.2358,0.0302 -1.23603,0.03 -0.25763,-0.003 -1.40285,0.0506 -0.15901,-0.0111 -0.64419,-0.008 -1.68283,0.009 -0.0987,0.006 -0.12885,-10e-4 -0.0378,0.0223 -0.64419,-0.008 -0.15893,-0.0111 -0.12887,-0.001 -0.0379,0.0222 -0.0905,-0.0256 -0.0989,0.006 -0.0601,-0.0154 -0.0689,0.0143 -0.12891,-10e-4 -0.12886,-4.4e-4 -0.22741,0.005 -1.65256,0.0174 -1.35689,-0.002 -0.54549,-0.0151 -0.0295,-0.0118 -0.0294,-0.0119 -0.32604,0.0114 -0.068,0.0145 -0.81123,0.0126 -0.58367,0.008 -0.28798,-0.0102 -0.0987,0.006 -1.39503,0.0205 -0.41665,-0.0135 -0.12887,-4.4e-4 -0.19732,0.0127 -0.12886,-4.4e-4 -0.48508,0.002 -0.87957,0.0271 -0.48514,0.002 -0.45494,0.01 -0.23537,0.0352 -0.41677,-0.0135 -0.39445,0.0253 -0.25768,-0.003 -0.19725,0.0128 -0.35633,0.003 -0.38652,-0.006 -0.35623,0.003 -0.51535,-0.007 -0.38653,-0.006 -1.49355,0.0268 -0.5455,-0.0151 -0.22753,0.005 -1.35672,-0.002 -0.97821,0.0333 -0.34843,-0.0269 -0.42464,0.0176 -0.15891,-0.0111 -0.42471,0.0173 -0.0294,-0.0118 -2.19821,0.004 0.0649,3.31309 2.81207,-0.003 -0.0206,-0.78098 2.59265,-0.0283 0.0983,2.44954 -1.00045,-0.005 0.0444,1.30429 c -0.26161,0.12098 -0.64915,0.63495 -0.77152,1.08947 -0.0598,0.22758 -0.0718,0.45337 0.0381,0.59158 0.10941,0.13822 0.3406,0.18863 0.71099,0.12275 l 0.0221,0.65216 -4.39636,0.006 0.13445,6.85382 c 0.97613,1.15094 0.80998,1.6296 1.27703,2.14583 0.35458,0.39209 0.74908,0.52554 1.2707,0.81923 -0.0856,0.231 0.0382,0.53461 0.25444,0.87491 0.21626,0.3403 0.5328,0.7237 0.91124,1.08009 0.75699,0.71272 1.70515,1.35085 2.26963,1.56698 l 3.77715,4.67834 -1.46035,1.61907 -1.74992,2.35063 -1.50013,1.77019 -6.54879,3.0262 -1.0198,2.15507 -1.38553,1.08945 -1.40462,2.02138 0.64878,1.46342 -2.19384,2.68624 1.25495,0.87983 1.92301,0.18298 0.30063,-0.40554 1.19569,3.19088 0.5282,-0.41033 1.29757,2.31289 0,0 0.20047,0.34353 1.04351,-1.01784 c 0,0 -0.10002,0.16394 0.42474,-0.0174 0.52452,-0.18145 0.9507,-0.56031 1.36798,-0.90017 0.20837,-0.11192 0.36355,-0.28257 0.53612,-0.44041 0.21459,-0.24608 0.4156,-0.4942 0.70627,-0.71889 0.26769,-0.20716 0.50987,-0.25313 0.91458,-0.4055 0.0767,-0.0289 0.23817,-0.0731 0.30378,-0.0493 0.0663,0.0231 0.0435,0.10181 -0.13948,0.28632 -0.25617,0.10463 -0.4797,0.2823 -0.7032,0.46116 -0.34729,0.27825 -0.37249,0.37832 -0.44698,0.59335 -0.0552,0.135 0.0533,0.39138 0.26244,0.23061 0.20291,-0.13176 0.47184,-0.10884 0.65535,-0.27986 0.24181,-0.12909 0.35407,-0.4203 0.62041,-0.5153 0.14178,-0.0148 0.38954,-0.27522 0.46441,-0.16854 -0.0352,0.19169 -0.22901,0.49281 0.0842,0.53923 0.0554,0.0137 0.18672,0.0497 0.24194,0.063 l 0.66961,-0.21149 -0.66289,-3.37376 0.9432,-0.26869 0.31972,0.50431 0.92725,0.40576 c 1.05702,-0.98495 2.44621,-1.72857 3.90357,-2.43007 l 0.27663,0.91306 c 0.36731,-0.0337 0.4403,-0.56203 0.85103,-0.77766 0.32147,-0.0399 0.4957,-0.2342 0.54402,-0.47082 0.0477,-0.23667 -0.006,-0.50082 -0.16689,-0.59324 -0.28791,-0.16593 -0.47301,-0.42596 -0.55983,-0.69678 -0.0868,-0.27082 -0.0879,-0.55502 -0.0427,-0.8192 -0.2073,-0.26015 -0.20761,-0.52495 -0.089,-0.76662 0.11842,-0.24169 0.36187,-0.4405 0.62191,-0.64417 0.12545,-0.14681 0.11188,-0.42381 0.15343,-0.70285 0.044,-0.27846 0.12607,-0.5718 0.45654,-0.75225 0.45588,-1.0311 1.06899,-0.83402 1.3156,-1.56029 0.23125,-0.68175 0.20471,-1.16154 0.10474,-1.74969 -0.045,-0.67947 0.20776,-1.4171 0.66831,-1.92447 0.53665,-0.48381 0.40586,-1.24717 0.91637,-1.76226 0.64407,-0.39688 1.3268,-0.78981 2.0074,-1.11952 0.25902,-0.0323 0.54063,-0.13094 0.69356,-0.30217 0.15295,-0.17118 0.15545,-0.40577 -0.11281,-0.67596 l -2.81232,0.61677 1.24117,-4.10041 0.0144,-2.38734 1.10693,0.58218 1.85785,-0.0602 3.86724,-4.37851 2.06933,-0.004 1.75194,-6.16337 0.43476,-3.24631 10.15914,-0.16904 -1.81529,3.33525 0.72836,0.54726 -1.27105,2.25055 0.20028,0.95754 0.70785,0.38017 0,0 0.79843,0.4042 0.10523,-0.52172 1.65616,-2.73081 c 0.71143,-0.24556 1.20712,-0.66706 1.57633,-1.20075 0.36923,-0.53366 0.60085,-1.16978 0.78122,-1.86247 l 1.59379,-0.16207 -0.20685,0.78575 -0.96395,0.10161 0.73476,0.64595 -0.92726,0.20818 0.13656,1.19931 0.59643,0.8033 -0.4232,0.50262 -1.23093,-0.97038 -0.5187,0.86528 1.10382,0.8399 -0.33257,0.52648 -0.93201,-0.0193 -0.51063,0.83503 1.03055,0.62682 0.90353,-0.11764 0.15719,1.98029 -1.60174,0.19232 1.63013,1.78632 0.45503,-0.6234 0.38492,0.13372 0.15539,-0.34686 4.26446,-0.36384 -0.63672,3.0316 -0.48347,-0.12761 -0.99792,3.42113 1.30721,2.1538 2.04577,-2.36973 0.27037,0.20045 c -0.13511,0.0699 -0.28953,0.20465 -0.19433,0.36891 0.13007,0.19462 0.35403,0.25078 0.56463,0.31025 0.1368,0.0443 0.31143,0.053 0.40726,0.17178 0.0385,0.21894 0.26027,0.28094 0.45965,0.21802 0.14079,-0.0607 0.34523,0.0225 0.44851,-0.10816 0.084,-0.17748 0.12041,-0.35536 0.11281,-0.55194 -0.0493,-0.14225 -0.0633,-0.34052 -0.21478,-0.41197 -0.13941,-0.0793 -0.3267,-0.0922 -0.31967,0.10964 -0.054,0.14225 -0.0365,0.30247 -0.1413,0.4153 -0.14536,-0.0586 -0.16742,-0.21956 -0.23067,-0.35162 -0.10598,-0.22707 -0.0841,-0.49421 -0.0969,-0.73646 -0.0152,-0.21308 -0.16451,-0.38455 -0.27346,-0.55674 -0.0393,-0.14147 0.15279,-0.28955 -0.0254,-0.39448 -0.0366,-0.0417 -0.0576,-0.0832 -0.0971,-0.12243 l 1.01147,0.3309 -0.25572,-2.58793 2.21732,0.29261 1.07818,1.67342 0.93058,-0.46588 0.1254,-0.3548 0.0458,-0.0524 0.1527,-0.089 0.0689,-0.0141 0.0679,-0.0144 0.0294,0.0118 0.33724,-0.299 0.0294,0.0119 -0.0142,-0.0685 0.0539,-0.083 0.28949,-0.11757 0.1686,-0.14962 0.3547,-0.48816 0.0778,-0.17351 0.0154,-0.0604 0.0256,-0.0904 0.21471,-0.202 0.1546,-0.21781 0.0777,-0.17343 -0.006,-0.0983 0.0935,-0.2339 0.0154,-0.0607 0.0118,-0.0296 0.0857,-0.20374 0.12459,-0.2257 0.0457,-0.0523 -0.0293,-0.0118 0.0118,-0.0298 -0.0141,-0.0684 -0.13523,-0.10029 -0.0219,-0.0382 0.0311,-0.12101 0.0697,-0.14316 0.0311,-0.12103 0.0559,-0.21149 0.0457,-0.0524 0.0294,0.0118 0.10695,-0.0365 0.0458,-0.0524 0.0154,-0.0606 0.0256,-0.0903 -0.0451,-0.0764 0.0118,-0.0297 0.0935,-0.23388 0.031,-0.12105 0.0118,-0.0297 0.0118,-0.0297 0.046,-0.0523 0.0538,-0.0828 0.0779,-0.17339 0.17655,-0.17967 0.1148,-0.0667 0.0758,-0.0448 0.10767,-0.16555 0.28317,-0.21624 0.0378,-0.0225 -0.0141,-0.0684 -0.067,-0.11464 -0.0294,-0.0118 0.0459,-0.0524 0.0459,-0.0524 0.0118,-0.0297 0.0294,0.0118 0.0378,-0.0223 0.0296,0.0119 0.068,-0.0144 0.0377,-0.0222 0.068,-0.0144 0.061,0.0154 0.0378,-0.0223 0.0295,0.0118 0.0294,0.0118 0.0154,-0.0607 0.0837,-0.0748 0.0459,-0.0524 0.0118,-0.0297 0.0118,-0.0297 0.0256,-0.0904 0.0311,-0.12099 0.0697,-0.14327 0.0379,-0.0223 0.0294,0.0118 0.0379,-0.0221 0.32618,-0.0115 0.12101,0.0311 0.18287,-0.0811 0.26728,-0.15575 0.0758,-0.0448 0.0988,-0.006 0.0838,-0.0749 0.12272,-0.097 0.0119,-0.0296 0.0154,-0.0607 -0.0359,-0.10633 -0.11292,-0.0621 -0.0218,-0.0379 -0.0519,-0.0459 -0.0831,-0.0543 -0.0519,-0.046 -0.0831,-0.0542 -0.036,-0.10648 -0.0593,-0.14484 -0.014,-0.0683 -0.0441,-0.0763 -0.121,-0.0311 -0.18152,-0.047 -0.0601,-0.0154 -0.083,-0.054 -0.0442,-0.0762 -0.0671,-0.11454 -0.014,-0.0685 0.0256,-0.0902 0.0457,-0.0525 0.0718,-0.2719 -0.006,-0.0985 -0.022,-0.0379 -0.022,-0.0381 -0.0519,-0.0461 -0.0294,-0.0119 -0.0679,0.0144 -0.15267,0.0891 -0.0538,0.0828 -0.0294,-0.0119 -0.0459,0.0524 -0.0294,-0.0118 -0.068,0.0144 -0.0294,-0.0118 -0.0293,-0.0118 -0.11294,-0.062 -0.0601,-0.0154 -0.11478,0.0667 -0.11477,0.0666 -0.10682,0.0364 -0.0294,-0.0118 -0.0294,-0.0118 -0.0219,-0.0381 -0.0599,-0.0154 0.0118,-0.0297 -0.0671,-0.11459 -0.014,-0.0684 -0.0219,-0.038 -0.006,-0.0984 -0.022,-0.038 -0.0971,-0.12255 -0.0294,-0.0118 -0.12887,-10e-4 -0.0459,0.0526 -0.0378,0.0221 -0.0295,-0.0119 -0.0118,0.0297 -0.0459,0.0526 -0.0378,0.0223 -0.0697,0.14317 -0.0379,0.0223 -0.0379,0.0223 -0.0987,0.006 -0.0519,-0.0459 -0.18771,-0.1464 -0.0441,-0.0761 -0.14317,-0.0701 -0.083,-0.0541 -0.13677,0.0286 -0.25925,0.12562 -0.0294,-0.0119 -0.14476,0.0589 -0.0679,0.0144 -0.0905,-0.0256 -0.06,-0.0154 -0.014,-0.0684 0.0311,-0.12099 0.13872,-0.1574 -0.0218,-0.0379 -0.0139,-0.0684 -0.0531,-0.0462 -0.0599,-0.0154 -0.18155,-0.0471 -0.0907,-0.0256 4.5e-4,-0.12886 -0.0141,-0.0684 -0.0281,-0.13669 -0.0294,-0.0118 -0.0442,-0.0764 -0.0907,-0.0256 -0.12884,-4.3e-4 -0.0294,-0.0118 -0.0611,-0.0154 -0.12721,-0.13038 -0.0989,0.006 -0.0906,-0.0256 -0.068,0.0143 -0.0457,0.0524 -0.19892,0.14154 -0.0295,-0.0118 -0.06,-0.0154 -0.0988,0.006 -0.0601,-0.0154 -0.0118,0.0298 -0.0294,-0.0118 -0.24194,-0.063 -0.0218,-0.0381 -0.022,-0.038 -0.0294,-0.0119 0.0118,-0.0296 -0.022,-0.0381 0.0118,-0.0297 0.0118,-0.0297 0.0154,-0.0605 0.016,-0.18934 0.0154,-0.0606 -0.0141,-0.0684 -0.006,-0.0985 -0.0219,-0.038 -0.0219,-0.0379 -0.022,-0.0381 -0.0294,-0.0118 -0.12889,-10e-4 -0.11477,0.0667 -0.0907,-0.0256 -0.0139,-0.0683 0.0118,-0.0297 0.0256,-0.0903 0.0256,-0.0904 -0.0141,-0.0682 0.0118,-0.0297 -0.0749,-0.0843 -0.12727,-0.1305 -0.11292,-0.0619 -0.022,-0.038 -0.12886,-10e-4 -0.022,-0.0381 -0.0218,-0.0381 -0.006,-0.0984 0.0459,-0.0526 0.11477,-0.0667 0.0118,-0.0297 -0.0142,-0.0683 -0.0281,-0.13671 -0.2084,-0.31337 -0.0219,-0.0381 -0.0905,-0.0256 -0.0831,-0.0543 -0.0829,-0.0541 -0.089,-0.15272 -0.0652,-0.24341 -0.12718,-0.1304 -0.14318,-0.07 -0.022,-0.038 -0.0748,-0.0843 -0.0669,-0.11455 -0.0528,-0.0462 -0.1272,-0.13037 0.0154,-0.0607 0.0378,-0.0223 0.0378,-0.022 0.0681,-0.0145 0.0906,0.0256 0.0118,-0.0297 0.0294,0.0118 0.0378,-0.0223 -0.0218,-0.038 0.0154,-0.0606 -0.0219,-0.038 -0.022,-0.0379 0.0379,-0.0223 0.0989,-0.006 0.0378,-0.0222 0.0294,0.0118 0.022,0.0379 0.061,0.0154 0.0293,0.0118 0.0294,0.0119 0.0154,-0.0604 0.0111,-0.15895 -0.0953,-0.25127 -0.022,-0.0381 -0.004,-0.22727 -0.0219,-0.0381 0.0161,-0.18937 -0.0202,-0.16683 -0.0123,-0.19719 -0.089,-0.15271 -0.0601,-0.0154 -0.0294,-0.0118 -0.0451,-0.0764 0.0154,-0.0606 0.13066,-0.12711 0.0378,-0.0223 -0.006,-0.0986 -0.0203,-0.16685 -0.11135,-0.19093 -0.067,-0.11455 -0.15745,-0.1385 -0.0442,-0.0762 0.0154,-0.0605 0.0538,-0.0828 0.0987,-0.006 0.18152,0.047 0.0378,-0.0223 0.0118,-0.0297 0.0118,-0.0297 0.0119,-0.0297 -0.10164,-0.34993 0.0118,-0.0298 -0.0294,-0.0118 -0.0203,-0.16686 0.0421,-0.27973 -0.0133,-0.19748 0.0118,-0.0297 -0.0749,-0.0843 -0.006,-0.0985 -0.0889,-0.15269 -0.083,-0.0543 -0.0907,-0.0256 -0.0294,-0.0118 -0.0601,-0.0154 -0.0219,-0.0381 -0.022,-0.038 -0.0295,-0.0118 -0.0378,0.0223 -0.0294,-0.0119 -0.28157,0.0876 -0.0689,0.0143 -0.0601,-0.0154 -0.0294,-0.0119 -0.0519,-0.0459 -0.0219,-0.0381 0.0118,-0.0297 -0.0294,-0.0119 0.0111,-0.15888 0.0256,-0.0902 -0.006,-0.0985 0.0459,-0.0523 0.0118,-0.0298 0.0459,-0.0524 0.0697,-0.14317 0.0378,-0.0225 0.10666,-0.0363 0.12104,0.0311 0.0758,-0.0446 0.0379,-0.0223 0.0154,-0.0604 0.0118,-0.0298 0.0294,0.0118 -0.0142,-0.0685 0.0313,-0.121 0.0118,-0.0297 0.0154,-0.0606 -0.0219,-0.0379 0.0118,-0.0297 -0.0294,-0.0118 -0.0218,-0.0381 -0.0379,0.0222 -0.0294,-0.0118 -0.0379,0.0222 -0.11482,0.0668 -0.0118,0.0296 -0.0907,-0.0256 -0.0905,-0.0256 -0.12727,-0.1305 -0.28632,-0.1398 -0.0141,-0.0685 -0.0221,-0.038 -0.006,-0.0985 0.047,-0.18138 -0.0361,-0.10653 -0.006,-0.0985 -0.0294,-0.0118 -0.0519,-0.0459 -0.20527,0.0429 -0.0599,-0.0153 -0.20993,-0.18453 -0.0689,0.014 -0.0378,0.0223 -0.14479,0.0591 -0.0679,0.0144 -0.12104,-0.0311 -0.0519,-0.0457 -0.0441,-0.0762 -0.0591,-0.14482 0.0262,-0.21934 -0.0441,-0.0763 0.0118,-0.0297 -0.0293,-0.0118 -0.0294,-0.0118 -0.0294,-0.0119 -0.0294,-0.0118 -0.0296,-0.0118 -0.0457,0.0525 -0.0118,0.0297 -0.0313,0.12098 -0.0154,0.0603 -0.0118,0.0297 -0.0379,0.0223 -0.0118,0.0297 -0.0379,0.022 -0.0294,-0.0119 -0.0294,-0.0118 -0.0294,-0.0118 -0.0141,-0.0684 -0.0218,-0.0381 -0.0451,-0.0765 -0.0906,-0.0256 -0.15097,-0.0406 -0.10693,0.0364 -0.0679,0.0145 -0.0379,0.0222 -0.11659,0.19554 -0.0538,0.0828 -0.0295,-0.0118 -0.0118,0.0297 -0.14316,-0.07 -0.0519,-0.0459 -0.0971,-0.12244 -0.0521,-0.0459 -0.0379,0.0224 -0.0918,0.1051 -0.0296,-0.0118 -0.0458,0.0525 -0.12888,-4.4e-4 -0.0519,-0.0458 -0.022,-0.0379 -0.0294,-0.0118 0.0118,-0.0298 -0.0218,-0.0381 -0.0141,-0.0682 0.0538,-0.083 0.0118,-0.0297 0.0379,-0.0223 0.0118,-0.0298 0.0118,-0.0296 -0.081,-0.18288 -0.0519,-0.046 -0.0907,-0.0256 -0.0519,-0.0459 -0.0592,-0.14481 10e-4,-0.12883 0.0998,-0.13529 4.4e-4,-0.1288 -0.0669,-0.11464 -0.10332,-0.22101 -0.037,-0.10677 -0.006,-0.0985 -0.0203,-0.16686 0.0118,-0.0297 -0.0202,-0.16694 -0.23379,-0.0939 -0.0441,-0.0762 -0.0219,-0.0381 0.0111,-0.15898 -0.0519,-0.0458 -0.0601,-0.0154 -0.0379,0.0223 -0.0379,0.0223 -0.0118,0.0296 0.006,0.0985 -0.0118,0.0297 -0.0609,-0.0154 -0.12889,-4.3e-4 -0.0519,-0.0459 -0.10493,-0.0924 -0.0732,-0.21305 -0.0293,-0.0119 -0.14951,-0.16857 -0.14308,-0.07 -0.0905,-0.0256 -0.0519,-0.0459 0.0118,-0.0296 0.079,-0.3023 0.0154,-0.0605 -0.0889,-0.15268 -0.0294,-0.0118 -0.0749,-0.0843 -0.15099,-0.0407 -0.14307,-0.07 z"
       id="PA-10"
       style="font-style:normal;font-weight:400;font-size:34.375px;font-family:'MS Shell Dlg 2';opacity:1;fill:none;fill-opacity:1;fill-rule:evenodd;stroke:#000000;stroke-width:0.33333385;stroke-linecap:square;stroke-linejoin:bevel;stroke-miterlimit:4;stroke-dasharray:none;stroke-opacity:1" />
    <path
       inkscape:connector-curvature="0"
       d="m 289.8828,441.71251 -0.28311,0.21625 0.4866,1.09755 c 0.33251,0.30811 0.67953,0.63494 0.97169,1.09601 0.29224,0.4611 0.53592,1.05782 0.71883,1.93424 l 1.52191,1.95182 -0.18913,0.5965 1.31878,-1.20391 4.80998,-0.96341 3.27069,-3.33971 0.37217,-0.0638 -0.20829,-0.92728 0.64255,0.13671 0.38664,-0.60912 -0.34673,-0.15587 -0.38007,-0.52022 -1.18355,0.69026 -0.85724,0.0651 -0.15578,-0.88107 0.587,-2.10764 c 0.70511,-0.0149 1.39306,-0.0714 2.02633,-0.20968 0.63339,-0.13828 1.2208,-0.36698 1.737,-0.70602 l 0.27846,0.17017 c 0.34173,0.1686 0.28811,0.59816 0.2687,0.94326 -0.0107,0.17239 -0.0317,0.33321 0.0477,0.43261 0.0793,0.0993 0.24208,0.12684 0.52969,0.074 0.21571,0.062 0.32904,0.16772 0.35315,0.25448 0.0236,0.0867 -0.0311,0.14962 -0.12352,0.22599 -0.18334,0.15349 -0.53041,0.26095 -0.72213,0.16542 -0.0285,0.42619 0.28179,0.59701 0.60431,0.77302 0.3225,0.17599 0.66015,0.35941 0.66482,0.78894 0.51446,-0.0604 0.89608,0.12603 1.17699,0.43918 0.0608,0.0679 0.0735,0.1813 0.12554,0.25929 0.0243,-0.0173 0.0525,-0.0268 0.0768,-0.0445 0.19157,-0.13849 0.36247,-0.37758 0.35628,-0.61715 -0.049,-0.22355 -0.10766,-0.59975 0.22002,-0.58835 0.029,-0.24253 0.0449,-0.52864 0.10801,-0.77938 0.0972,-0.32964 -0.22837,-0.42011 -0.43254,-0.56639 -0.21553,-0.21911 0.0158,-0.51733 0.07,-0.75715 0.12755,-0.27248 -0.0371,-0.61771 -0.34827,-0.64099 -0.21402,-0.12621 -0.0424,-0.46245 -0.11293,-0.67603 -0.0118,-0.36606 -0.34829,-0.58825 -0.55022,-0.85579 l 0.46608,-0.2974 0.16061,0.49479 0.80809,-0.36907 -0.69488,-2.02484 1.31071,-0.5597 3.25301,-2.53659 -3.6246,-2.92552 8.45763,-4.13937 0.40133,-2.38258 1.60666,-1.80669 3.83479,1.26816 0.66322,-0.31018 1.54757,1.73232 2.68018,-1.58868 0.8192,0.57109 c 0.24475,-0.44093 0.57387,-0.78145 1.07206,-0.88108 l 0.49938,1.29479 2.8044,-1.81448 -0.39447,-0.58854 1.58278,-1.10212 -1.45041,-1.60984 c -0.23245,-0.36697 -0.39008,-0.82407 -0.79038,-1.04826 -0.24161,-0.0948 -0.28325,-0.35969 -0.44065,-0.53607 -0.13981,-0.1303 -0.45483,-0.0904 -0.49609,-0.32461 -0.0739,-0.23761 0.14832,-0.41772 0.33237,-0.52642 0.20576,-0.10953 0.4355,-0.31003 0.40887,-0.57103 0.021,-0.26672 -0.2361,-0.41116 -0.44838,-0.50583 -0.24285,-0.11423 -0.42969,-0.3345 -0.45493,-0.60442 l -0.22082,-1.73853 -2.67067,0.2017 -0.55361,0.6298 -0.39125,-0.23225 -1.18349,0.69011 -0.9463,-0.70145 0.38975,-0.25291 c 0.46008,0.006 0.76132,-0.17853 0.90197,-0.60269 l -0.10187,-0.34998 0.39777,-0.28304 -0.6648,-0.78909 0.48518,-0.61545 1.02762,-0.34338 0.29591,-0.63312 -0.70784,-0.38013 -0.2003,-0.95756 1.27107,-2.25055 -0.72835,-0.54729 1.81526,-3.33524 -10.1591,0.16905 -0.43477,3.24633 -1.75196,6.16333 -2.06934,0.004 -3.86722,4.37849 -1.85787,0.0602 -1.10691,-0.58225 -0.0144,2.38737 -1.24116,4.10042 2.8123,-0.61681 c 0.26797,0.27014 0.26574,0.50481 0.11281,0.67601 -0.15292,0.1712 -0.43454,0.26998 -0.6936,0.30218 -0.68054,0.32969 -1.3633,0.72261 -2.00739,1.1195 -0.51093,0.515 -0.37998,1.2784 -0.91635,1.76229 -0.46064,0.50732 -0.71339,1.24498 -0.6683,1.92446 0.0992,0.588 0.12645,1.06797 -0.10474,1.7497 -0.24697,0.72616 -0.85975,0.52916 -1.31561,1.56026 -0.32986,0.18058 -0.41284,0.47384 -0.45659,0.75228 -0.044,0.27841 -0.0273,0.55612 -0.15322,0.70286 -0.26004,0.20368 -0.50336,0.40247 -0.62191,0.64418 -0.11842,0.24169 -0.11873,0.50635 0.089,0.7666 -0.0451,0.26424 -0.045,0.54826 0.0427,0.8192 0.0868,0.27082 0.27189,0.53092 0.55986,0.69682 0.16044,0.0924 0.21528,0.35662 0.16685,0.5932 -0.0467,0.23694 -0.22254,0.43095 -0.54401,0.47082 -0.41071,0.21562 -0.48374,0.74388 -0.85101,0.77765 l -0.27667,-0.91302 c -1.45733,0.70149 -2.84652,1.44509 -3.90353,2.43002 l -0.92724,-0.40574 -0.31973,-0.50431 -0.94321,0.26871 0.6629,3.37374 -0.66962,0.21148 c -0.0554,-0.0137 -0.18694,-0.0496 -0.24195,-0.063 -0.31342,-0.0477 -0.11986,-0.34758 -0.0842,-0.53922 -0.0753,-0.10669 -0.32265,0.15361 -0.4644,0.16852 -0.26638,0.095 -0.3786,0.38621 -0.62043,0.5153 -0.18351,0.17102 -0.45241,0.14811 -0.65538,0.27989 -0.20912,0.16074 -0.31787,-0.0958 -0.26243,-0.23064 0.0741,-0.2151 0.0995,-0.31514 0.44702,-0.59332 0.22349,-0.1789 0.44699,-0.35653 0.70316,-0.46118 0.1839,-0.18435 0.20559,-0.2625 0.13949,-0.28633 -0.0663,-0.0231 -0.22718,0.0204 -0.30377,0.0493 -0.40473,0.15239 -0.64691,0.19835 -0.9146,0.40552 -0.29068,0.22469 -0.49166,0.47283 -0.70627,0.71887 -0.17256,0.15785 -0.32776,0.3285 -0.53612,0.44044 -0.41728,0.33986 -0.84348,0.7187 -1.36796,0.90015 -0.52459,0.18143 -0.42472,0.0173 -0.42472,0.0173 l -1.04354,1.01785 -0.20046,-0.34354 z"
       id="PA-11"
       style="font-style:normal;font-weight:400;font-size:34.375px;font-family:'MS Shell Dlg 2';opacity:1;fill:none;fill-opacity:1;fill-rule:evenodd;stroke:#000000;stroke-width:0.33333385;stroke-linecap:square;stroke-linejoin:bevel;stroke-miterlimit:4;stroke-dasharray:none;stroke-opacity:1" />
    <path
       inkscape:connector-curvature="0"
       d="m 227.51233,432.88569 3.38625,0.14828 3.39626,-3.08063 0.52172,0.71901 c -0.0374,0.20081 0.0235,0.50792 -0.22013,0.58837 -0.16338,0.0746 -0.16016,0.16724 -0.0936,0.23387 0.0663,0.0666 0.19965,0.10554 0.28632,0.13988 0.0661,0.0276 0.14193,0.0274 0.2114,0.0561 0,0 0,0 0,0 0.27864,0.11928 0.5714,0.27037 0.86201,0.16265 0.178,-0.13246 0.25937,-0.0563 0.34044,0.0574 0.081,0.11355 0.14306,0.25976 0.27675,0.2991 0.33106,0.0181 0.81055,-0.0773 0.95114,0.31499 0.10841,0.35345 0.4293,0.25944 0.67268,0.14499 0.26503,-0.13901 0.51347,-0.0329 0.54239,0.27207 0.0281,0.21896 0.1594,0.30193 0.30695,0.30706 0.14747,0.008 0.30631,-0.0674 0.41203,-0.21469 0.21164,-0.1669 0.25799,-0.60288 0.61239,-0.48504 0.37917,0.18852 0.76459,0.44142 1.18336,0.53773 0.18848,0.0656 0.27185,-0.0667 0.37371,-0.19242 0.10249,-0.12566 0.21521,-0.23453 0.41836,-0.11611 l -0.15249,-1.13876 -0.28796,-0.0102 -0.0142,-0.68233 2.08359,0.0639 c -0.16221,-0.1757 -0.34484,-0.45841 -0.3927,-0.71734 -0.048,-0.25892 0.0521,-0.50549 0.38654,-0.60914 0.18499,-0.064 0.4719,-0.24019 0.73171,-0.32441 0.25982,-0.0843 0.48292,-0.0735 0.51217,0.2641 -0.32883,0.0687 -0.50663,0.26392 -0.55196,0.50098 -0.0446,0.23715 0.0428,0.52181 0.2559,0.74596 -0.12886,0.43842 -0.82523,0.52643 -1.13257,0.8651 -0.15366,0.0226 -0.49476,-0.0704 -0.74922,-0.0999 -0.12736,-0.0129 -0.22058,-0.0227 -0.26566,0.0272 -0.045,0.0493 -0.0306,0.14544 0.0795,0.31169 0.20271,0.19535 0.44888,0.34086 0.63772,0.52342 0.18886,0.18251 0.32501,0.40181 0.18761,0.76023 -0.0862,0.22953 -0.0474,0.37126 0.0699,0.47092 0.11564,0.0994 0.28053,0.15176 0.39927,0.202 -0.003,0.0319 0.0459,0.0178 0.0519,0.0461 0,0 0,0 0,0 0.0586,0.27144 0.25581,0.38706 0.49472,0.45328 0.26351,0.0736 0.54627,0.13872 0.57093,0.40883 -0.15517,0.11842 -0.27492,0.23786 -0.28477,0.34517 -0.0105,0.10736 0.0925,0.20586 0.30696,0.30698 0.4476,0.24639 1.0072,-0.0114 1.49038,0.23037 0.20202,-0.12072 0.43906,-0.20846 0.63152,-0.18923 0.19251,0.0183 0.34283,0.13342 0.40393,0.42957 0.2674,0.51696 0.99261,0.55381 1.2898,1.11515 0.30951,0.1374 0.53719,0.0279 0.77468,-0.11931 0.23755,-0.14764 0.48617,-0.31156 0.80648,-0.23995 0.17032,-0.0554 0.29206,-0.25857 0.42147,-0.37381 0.1296,-0.1152 0.27484,-0.13073 0.44539,0.14959 0.15174,0.18089 0.36937,0.30241 0.49464,0.45348 0.1252,0.15094 0.16648,0.31155 -0.052,0.56783 -0.0379,0.20493 0.11756,0.31393 0.27512,0.42793 0.15761,0.11393 0.31703,0.23102 0.25923,0.48827 0.10961,0.30084 0.38777,0.37438 0.69984,0.41052 0.31193,0.0366 0.64755,0.0351 0.8843,0.20053 0.30001,-0.35131 0.35539,-0.99253 0.71437,-1.36304 l 0.068,-0.0144 0.1289,4.4e-4 3.58328,2.59152 c -0.50201,0.39265 -0.72851,0.92842 -0.97352,1.48871 -0.26513,0.002 -0.28099,0.2146 -0.30075,0.40549 -0.0181,0.19119 -0.0307,0.35938 -0.25449,0.35313 -0.46997,0.2568 -0.25218,1.01783 -0.62367,1.38691 -0.42744,-0.18483 -0.77393,-0.0703 -1.1023,0.2592 -0.53379,0.26307 -0.87914,0.74491 -0.93382,1.33754 -0.0383,0.13922 -0.20065,0.14384 -0.31337,0.20827 l -1.61795,2.70866 0.10685,-0.0365 0.0295,0.0118 c 0.40465,0.17323 0.57613,0.66326 0.6234,1.06894 0.0956,0.42808 -0.14342,0.82273 -0.0687,1.24228 0.30175,0.33132 0.39979,1.01092 0.88106,1.07207 0.28352,0.066 0.55598,0.0316 0.7969,-0.081 0.24089,-0.11216 0.4416,-0.28412 0.59015,-0.52317 0.27564,-0.11027 0.40347,0.0891 0.48828,0.35469 0.0848,0.26506 0.14027,0.58107 0.29412,0.72374 0.32862,0.0431 0.4494,-0.67865 0.6937,-0.91606 0.34323,-0.34697 0.35734,-0.85419 0.47096,-1.29786 0.0903,-0.0123 0.209,0.13504 0.35305,0.25446 0.14399,0.1195 0.29826,0.19538 0.47727,0.0278 0.44508,-0.34618 0.88619,-0.77852 1.0022,-1.35188 -0.0476,-0.26959 0.0531,-0.46789 0.21916,-0.5886 0.16568,-0.1207 0.40286,-0.17748 0.64583,-0.12076 0.29625,0.0785 0.44987,-0.0202 0.54088,-0.2131 0.091,-0.19288 0.11103,-0.46794 0.1451,-0.67274 0.18108,-0.629 0.25178,-1.30955 0.59216,-1.87989 0.24616,-0.46847 0.71735,-0.80913 1.25348,-0.83334 l 2.46839,1.42545 0.62689,-1.03065 0.30061,0.20839 1.27612,-3.86498 0.83514,-1.33122 -0.23534,-0.579 1.08027,-2.13926 0.87797,-0.51205 0.12796,-1.09733 -1.64444,-1.24088 c -0.20168,-0.0308 -0.345,0.3779 -0.57432,0.46273 -0.13857,0.0958 -0.34788,0.14797 -0.51694,0.1224 -0.16894,-0.0261 -0.31329,-0.14964 -0.3213,-0.37538 -0.0122,-0.51576 0.39701,-0.93564 0.35179,-1.45849 -0.0567,-0.41333 0.0663,-0.82151 0.15865,-1.21849 0.0118,-0.29515 0.21565,-0.49313 0.4327,-0.66163 0.14529,-0.24157 0.26324,-0.58712 0.19292,-0.85404 -0.3852,0.0369 -0.70818,-0.16127 -1.04972,-0.30863 -0.16911,-0.12598 -0.26432,-0.0812 -0.32619,0.0115 -0.0615,0.0923 -0.11178,0.22401 -0.20838,0.30054 -0.33142,0.14138 -0.53256,0.42768 -0.73647,0.7109 -0.10024,-0.14593 -0.0759,-0.54711 -0.1495,-0.78254 -0.0562,-0.34458 0.18656,-0.70856 0.0125,-1.03069 -0.20411,-0.2562 -0.39111,-0.52467 -0.60427,-0.77314 -0.24393,-0.2852 -0.65778,0.0644 -0.93046,-0.14817 -0.62481,2.01182 -1.4637,4.28112 -3.09447,7.4579 -0.19564,-0.0673 -0.36474,-0.27759 -0.56306,-0.43911 -0.19829,-0.16153 -0.43632,-0.26928 -0.70282,-0.15342 -0.12662,0.1743 -0.19208,0.4034 -0.31031,0.56459 -0.11794,0.1612 -0.28537,0.25361 -0.54074,0.21307 -0.001,0.38876 -0.34394,0.62999 -0.66021,0.66635 -0.15814,0.0183 -0.30255,-0.004 -0.39285,-0.10344 -0.0904,-0.0994 -0.13728,-0.26438 -0.0621,-0.50108 -0.37344,-0.34341 -0.98624,-0.81593 -1.63495,-0.78591 -0.19228,-0.32556 -0.44419,-0.40057 -0.73007,-0.41834 -0.2859,-0.0177 -0.59556,0.0205 -0.86201,-0.16265 -0.33306,0.0765 -0.41574,-0.0956 -0.47401,-0.28632 -0.0584,-0.1899 -0.0934,-0.41296 -0.36573,-0.4518 -0.25535,0.10348 -0.48497,0.004 -0.6887,-0.0845 -0.20376,-0.0882 -0.38439,-0.16916 -0.61402,-6.8e-4 -0.27416,0.0382 -0.55466,-0.025 -0.79357,-0.17652 -0.23901,-0.15197 -0.44325,-0.38161 -0.58376,-0.60607 -0.32055,-0.18233 -0.25025,-0.50784 -0.20979,-0.79854 0.004,-0.0569 -0.0705,-0.0616 -0.067,-0.11455 l 0,0 c 0.0168,-0.22046 0.0431,-0.43461 -0.25921,-0.4884 -0.19463,0.26168 -0.38699,0.24763 -0.5933,0.16708 -0.20636,-0.0807 -0.408,-0.23814 -0.62512,-0.32622 -0.36345,-0.13958 -0.65238,-0.38696 -0.78718,-0.69194 -0.13486,-0.30507 -0.14373,-0.66894 0.0125,-1.03068 -0.18657,-0.19318 -0.49638,-0.42023 -0.48988,-0.84 -0.32262,0.12683 -0.65471,-0.39937 -1.09425,-0.38501 0.0169,-0.22136 -0.0915,-0.51011 -0.27191,-0.68551 -0.18038,-0.17551 -0.41153,-0.22757 -0.64415,-0.008 l -9.89505,-0.34314 -0.0882,-7.5203 -1.3138,0.81744 -6.38948,-0.0339 -0.0118,0.0297 -0.0154,0.0605 0.0222,0.65217 -0.0324,0.73487 -0.0118,0.0297 -0.0119,0.0296 -0.006,0.38655 -0.008,0.64419 -0.0204,0.31805 0.004,0.22726 -0.0256,0.0903 0.004,0.22737 -0.0161,0.18935 -4.3e-4,0.12884 -0.0274,0.96228 -0.0118,0.28773 -8.7e-4,0.25784 -0.0398,0.76506 0.0174,0.42471 -0.0111,0.15897 -0.0125,0.41681 -0.0256,0.0902 -0.0118,0.0297 0.0123,0.1971 0.006,0.0983 -0.0118,0.0297 -0.0311,0.60591 -0.0159,0.67441 -0.0154,0.0605 -0.003,0.8717 -0.0262,0.21934 -0.0193,0.93212 -0.0419,0.89387 -4.3e-4,0.12883 0.006,0.0984 z"
       id="PA-12"
       style="font-style:normal;font-weight:400;font-size:34.375px;font-family:'MS Shell Dlg 2';opacity:1;fill:none;fill-opacity:1;fill-rule:evenodd;stroke:#000000;stroke-width:0.33333385;stroke-linecap:square;stroke-linejoin:bevel;stroke-miterlimit:4;stroke-dasharray:none;stroke-opacity:1" />
    <path
       inkscape:connector-curvature="0"
       d="m 339.80833,439.50714 -0.14665,0.18768 0.44221,0.4072 -0.10954,0.29431 0.33723,0.31495 0.14746,-0.3166 0.58533,0.47725 0.37377,-0.19239 0.37868,-0.57895 1.80193,1.3792 -0.38499,0.48033 -0.54075,-0.40088 -0.25456,0.35301 -1.65887,-0.69525 -0.1254,0.35476 1.91484,1.44133 0.13035,0.48671 -0.23701,0.16387 -0.32284,-0.24663 -0.4629,0.0397 -0.42316,0.50253 -1.1626,-0.98477 -0.52973,0.53922 -0.20351,-0.0861 0.0958,-0.36257 0.70318,-1.07509 -0.1273,-0.13042 -0.8446,0.26231 -0.82564,1.17212 -0.11167,0.42309 -0.60927,0.22738 0.11777,0.28953 1.06558,0.24838 0.48032,0.38496 0.94485,-0.39754 0.49301,0.58219 0.80973,-1.11165 0.75225,0.45654 0.26893,-0.28468 1.13557,0.71901 -0.21091,1.04328 c 0.28106,0.0391 0.56522,0.066 0.83191,0.15395 0.0681,0.0555 0.15654,0.22506 0.23866,0.32134 0.082,0.0965 0.15521,0.13036 0.21304,-0.0733 0.0514,-0.15624 -0.0296,-0.34337 -0.0619,-0.50096 -0.032,-0.15754 -0.0224,-0.31036 0.23223,-0.39126 0.10601,-0.19835 0.27017,-0.17064 0.42634,-0.14629 0.15584,0.0257 0.30158,0.0624 0.45478,-0.01 0.20651,-0.24468 0.4037,-0.46142 0.68243,-0.62816 0.0551,-0.0526 0.10682,-0.10704 0.16863,-0.1496 l 0,0 c 0.22298,-0.1517 0.47648,-0.2611 0.62044,-0.51519 0.10242,-0.30634 -0.20809,-0.63192 -0.30684,-0.92098 -0.21388,-0.15509 -0.50357,-0.17089 -0.73171,-0.28955 l -5.29457,-3.94688 -0.53922,0.69823 -0.38339,-0.26258 -0.23862,0.29272 z"
       id="PA-13"
       style="font-style:normal;font-weight:400;font-size:34.375px;font-family:'MS Shell Dlg 2';opacity:1;fill:none;fill-opacity:1;fill-rule:evenodd;stroke:#000000;stroke-width:0.33333385;stroke-linecap:square;stroke-linejoin:bevel;stroke-miterlimit:4;stroke-dasharray:none;stroke-opacity:1" />
    <path
       inkscape:connector-curvature="0"
       d="m 243.8029,433.9755 c -0.009,-0.0287 -0.0502,-0.0143 -0.0519,-0.0459 -0.11873,-0.0504 -0.28362,-0.10273 -0.39922,-0.202 -0.11564,-0.0993 -0.1559,-0.24136 -0.0699,-0.47096 0.13768,-0.3583 0.002,-0.57768 -0.18763,-0.76021 -0.18881,-0.18257 -0.43503,-0.32805 -0.63774,-0.52341 -0.10862,-0.16602 -0.12451,-0.26236 -0.0795,-0.31172 0.0452,-0.0493 0.13847,-0.0421 0.26561,-0.0271 0.25451,0.0293 0.59547,0.12321 0.7492,0.1 0.30737,-0.3387 1.00362,-0.42674 1.13257,-0.86514 -0.21304,-0.22414 -0.30135,-0.50891 -0.2559,-0.74597 0.0446,-0.23715 0.22313,-0.43231 0.55195,-0.50094 -0.0291,-0.3376 -0.25235,-0.34834 -0.51216,-0.26411 -0.25981,0.0843 -0.5467,0.2604 -0.73169,0.32438 -0.33513,0.10359 -0.43451,0.35024 -0.38652,0.60918 0.0479,0.2589 0.23047,0.54163 0.39268,0.71733 l -2.0836,-0.0639 0.0142,0.68226 0.28794,0.0103 0.1525,1.13876 c -0.20316,-0.11835 -0.31635,-0.0104 -0.41834,0.11612 -0.10239,0.12569 -0.18525,0.25814 -0.3737,0.19239 -0.41882,-0.0962 -0.80421,-0.34915 -1.18341,-0.53771 -0.35485,-0.11796 -0.4007,0.31819 -0.61238,0.48506 -0.10601,0.14738 -0.26447,0.21982 -0.41202,0.2147 -0.14752,-0.008 -0.27866,-0.0881 -0.30695,-0.30707 -0.029,-0.30491 -0.27739,-0.41108 -0.54239,-0.27208 -0.24345,0.11471 -0.56434,0.2087 -0.67267,-0.145 -0.14056,-0.39221 -0.62007,-0.29719 -0.95116,-0.315 -0.13389,-0.0384 -0.1957,-0.18552 -0.27673,-0.29911 -0.0812,-0.11347 -0.16247,-0.18973 -0.34041,-0.0574 -0.29071,0.10803 -0.58346,-0.0432 -0.86203,-0.16265 -0.0389,0.0935 -0.11446,0.17948 -0.10177,0.26403 0.023,0.15956 0.16934,0.28925 0.43576,0.30873 0.30699,0.1725 0.16904,0.72243 0.63457,0.781 0.25442,0.0933 0.2313,0.34731 0.23534,0.57899 0.004,0.23168 0.0396,0.44072 0.40396,0.42951 0.18293,0.02 0.28668,0.12406 0.29261,0.23858 0.006,0.11457 -0.0638,0.24533 -0.17843,0.30853 0.18398,0.3601 0.66459,0.4108 0.82383,0.79855 0.0581,0.25284 0.19497,0.39486 0.38804,0.48994 0.19303,0.095 0.44107,0.15189 0.65688,0.20531 0.18121,0.0286 0.41214,0.1136 0.55035,0.2418 0.13815,0.12802 0.15447,0.2963 -0.0972,0.49142 -0.11302,0.0525 -0.28594,0.002 -0.41661,-0.0135 -0.13094,-0.0131 -0.19847,-0.002 -0.063,0.24192 0.0866,0.31098 0.29781,0.27175 0.52794,0.20369 0.2302,-0.0681 0.47904,-0.15235 0.6283,0.0682 0.31053,0.28982 0.83862,0.1592 1.10869,0.45343 0.0855,0.16695 -0.0141,0.38759 -0.0605,0.59813 -0.0464,0.21077 -0.0452,0.39816 0.24487,0.41997 0.19122,-10e-4 0.44271,0.0741 0.65852,0.0765 0.21581,0.003 0.40208,-0.0593 0.47407,-0.32762 -0.0861,-0.149 -0.12094,-0.34154 -0.0699,-0.4708 0.0508,-0.12939 0.17907,-0.2029 0.39611,-0.15425 0.18345,-0.0365 0.67676,0.14897 0.69662,0.0537 l 0.38029,-1.93577 0.0118,-0.0296 0.0118,-0.0297 c 0.0213,-0.15798 0.19362,-0.19451 0.32137,-0.23865 0.10022,-0.032 0.2924,-0.0854 0.253,-0.22418 -0.10084,-0.18847 -0.2629,-0.3663 -0.37213,-0.55039 -0.092,-0.16059 -0.2113,-0.29129 -0.22903,-0.48044 0.0472,-0.18234 0.17722,-0.34329 0.26405,-0.51203 z"
       id="PA-14"
       style="font-style:normal;font-weight:400;font-size:34.375px;font-family:'MS Shell Dlg 2';opacity:1;fill:none;fill-opacity:1;fill-rule:evenodd;stroke:#000000;stroke-width:0.33333385;stroke-linecap:square;stroke-linejoin:bevel;stroke-miterlimit:4;stroke-dasharray:none;stroke-opacity:1" />
    <path
       inkscape:connector-curvature="0"
       d="m 341.68821,427.33465 -0.62518,0.28781 -0.38655,0.60919 -1.72109,0.64555 -0.65855,0.53756 c 0.32998,-0.8224 0.37057,-1.22266 0.24524,-1.42194 -0.12593,-0.19944 -0.40659,-0.19514 -0.64901,-0.2355 l -0.0875,-0.28154 2.11234,-0.41332 -0.31951,-1.11818 -0.80331,-0.0175 -0.0986,-0.60761 1.76085,-0.1827 0.51534,-0.60749 -0.12867,-1.22959 -1.5952,-0.93704 -1.76251,0.92548 -6.57082,1.76003 -3.24995,2.27896 -3.02066,1.53143 -0.39357,1.73836 c -0.20857,0.0115 -0.38411,-0.0762 -0.59002,-0.0909 -0.34272,0.0241 -0.64945,0.25475 -0.9894,0.32131 -0.33742,0.0793 -0.62668,0.27261 -0.9003,0.47378 -0.96097,0.57271 -2.01148,1.01966 -3.10823,1.24983 -0.37612,0.10294 -0.73775,-0.0435 -1.11336,-0.0671 -0.84885,-0.0703 -1.67967,0.5661 -2.50206,0.66612 l -2.02624,-1.63208 -3.253,2.53656 -1.31069,0.55973 0.69485,2.02486 -0.80808,0.36905 -0.16063,-0.49481 -0.4661,0.29742 c 0.20198,0.26755 0.53847,0.48972 0.55027,0.8558 0.0704,0.21354 -0.1016,0.54966 0.11292,0.676 0.31118,0.0219 0.47575,0.36849 0.34827,0.64099 -0.0518,0.24039 -0.2856,0.53806 -0.07,0.75714 0.20417,0.14634 0.52719,0.2361 0.43256,0.56639 -0.0668,0.24974 -0.0791,0.53682 -0.10801,0.77937 -0.32727,-0.0122 -0.26877,0.36491 -0.22002,0.58837 0.006,0.23959 -0.16428,0.47878 -0.35629,0.61714 -0.0243,0.0177 -0.0516,0.0272 -0.0769,0.0445 0.18794,0.28183 0.37077,0.59756 0.46604,0.93052 -0.0317,0.33307 0.17521,0.47279 0.38638,0.61875 l 0.48209,-0.97165 4.93257,-2.28839 -0.21455,-1.63985 1.52707,-0.27663 -0.26397,-0.71579 -0.54392,-0.14344 -0.12717,-0.74441 1.27076,0.20562 0.8781,-0.51206 -0.10485,-0.7062 -0.35635,0.003 0.53935,-1.31221 0.75069,0.5854 2.81053,0.12601 c 0.16761,-0.11741 0.3723,-0.11709 0.56313,-0.175 0.17268,-0.0251 0.36078,-0.0282 0.49467,-0.16055 0.14217,-0.0977 0.29139,-0.22616 0.24025,-0.42154 -0.0203,-0.20565 0.0318,-0.39632 0.0604,-0.59806 0.009,-0.15133 -0.0295,-0.32992 0.0594,-0.46902 0.0275,-0.0653 0.0595,-0.10448 0.0777,-0.17349 l 0.75239,-0.15734 0.65521,1.56198 1.46175,-0.51997 -0.0222,-0.65216 1.86105,-0.93185 0.96874,-1.1021 0.27197,0.0719 0.36575,0.45168 -0.14659,0.18755 1.50933,1.14068 0.50907,-0.70614 0.77443,1.1087 1.54937,-0.23837 -0.45501,0.62336 0.25921,0.4884 0.7317,-0.32441 0.43911,-1.17698 1.77809,1.46983 0,0 0.13519,0.10039 1.59561,-2.13286 3.10983,-2.60664 1.32827,-0.74899 -0.022,-0.038 -0.0139,-0.0685 -0.075,-0.0841 -0.0141,-0.0685 0.0118,-0.0297 0.0759,-0.0448 0.16697,-0.0208 0.0118,-0.0297 0.0118,-0.0297 0.0154,-0.0605 -0.0573,-0.27358 -0.006,-0.0985 -0.0359,-0.1063 -0.0293,-0.0119 -0.15741,-0.13823 0.0154,-0.0606 0.0778,-0.17335 0.0778,-0.17348 0.0378,-0.0225 0.0458,-0.0525 0.11476,-0.0666 0.0459,-0.0525 0.0118,-0.0296 0.0154,-0.0605 0.0459,-0.0524 -0.0141,-0.0684 0.0118,-0.0297 0.0118,-0.0297 -0.0294,-0.0118 -0.0519,-0.0459 -0.0294,-0.0118 -0.0295,-0.0119 -0.0294,-0.0118 -0.10681,0.0363 -0.0294,-0.0118 -0.052,-0.0459 z"
       id="PA-15"
       style="font-style:normal;font-weight:400;font-size:34.375px;font-family:'MS Shell Dlg 2';opacity:1;fill:none;fill-opacity:1;fill-rule:evenodd;stroke:#000000;stroke-width:0.33333385;stroke-linecap:square;stroke-linejoin:bevel;stroke-miterlimit:4;stroke-dasharray:none;stroke-opacity:1" />
    <path
       inkscape:connector-curvature="0"
       d="m 328.96997,454.653 -0.0286,-0.75071 0.31981,-0.72372 0.6172,-0.25754 -0.28766,-1.8531 2.84877,-0.51023 0.35941,0.35314 -0.28137,-1.14049 -0.54078,0.21311 -0.49633,-0.32456 -1.94835,-0.57756 0.35014,-1.32967 -0.0382,-0.5917 -0.31183,0.0794 -0.21145,-0.66969 -1.79422,0.43242 -0.28005,0.5726 -0.53278,0.18285 -0.32133,0.23857 -0.0203,0.31794 0.7603,-0.18761 0.76819,0.39616 0.53275,1.04506 -0.50583,0.44849 0.41009,2.37002 -1.32018,0.10486 0.0118,-0.0297 0.0119,-0.0297 c 0.0734,-0.27884 -0.38401,-0.0721 -0.51214,-0.26411 -0.2267,-0.14952 -0.46755,-0.28784 -0.69181,-0.44067 -0.23016,-0.17216 -0.50501,-0.2892 -0.78418,-0.33569 -0.21239,0.0616 -0.40506,0.25897 -0.61084,0.35621 -0.28982,0.16814 -0.13458,0.62253 -0.45657,0.75234 -0.28002,-0.004 -0.5859,-0.11624 -0.74596,-0.35802 -0.13072,-0.20524 -0.23041,-0.45145 -0.47066,-0.54405 -0.17316,-0.15614 -0.40486,-0.33026 -0.39446,-0.58857 0.003,-0.19586 -0.11248,-0.19047 -0.24023,-0.19246 -0.12763,-4.5e-4 -0.26855,0.006 -0.31644,-0.14796 -0.0736,-0.0738 -0.1313,-0.21222 -0.13992,-0.32762 -0.008,-0.11558 0.0471,-0.21543 0.21474,-0.202 l 0.96384,-0.10171 -0.53895,-1.75764 -0.41195,0.2147 -0.51684,-1.71944 c -0.0313,-0.1127 0.54329,0.0637 0.41206,-0.21478 -0.26596,-0.20074 -0.50713,-0.4026 -0.78086,-0.59335 -0.19211,-0.0629 -0.18933,-0.16691 -0.12572,-0.25928 0.0635,-0.0924 0.1861,-0.1665 0.20044,-0.27037 0.0848,-0.32138 0.48645,-0.42742 0.76991,-0.34661 0.28264,0.15025 0.49816,-0.10028 0.76664,-0.0891 0.27692,0.15232 0.56745,0.28134 0.87485,0.35959 0.17898,0.1043 0.25941,0.004 0.31971,-0.10969 0.0607,-0.11288 0.12526,-0.2323 0.26086,-0.25447 0.21325,-0.12815 0.54352,-0.17677 0.65699,-0.4087 0.0263,-0.26301 0.18647,-0.484 0.46764,-0.4262 0.35115,-0.0189 0.60178,-0.27713 0.89238,-0.44372 l 1.40298,-0.66468 -3.78209,-3.06392 c 0.17489,-0.0181 0.25634,-0.10282 0.29901,-0.27668 5.7e-4,-0.099 0.11682,-0.27492 0.17226,-0.40714 0.0545,-0.13238 0.0476,-0.21809 -0.13369,-0.22902 -0.27599,-0.0536 -0.54832,-0.36152 -0.31799,-0.63311 0.0331,-0.30468 0.4113,-0.29232 0.6331,-0.31799 0.0111,-0.15908 0.1091,-0.31925 0.26724,-0.15591 0.0299,0.0707 0.0115,0.22331 0.0114,0.32613 -0.001,0.10273 0.0225,0.13778 0.18158,0.047 0.0859,0.004 0.12757,-0.0384 0.18284,-0.081 0,0 0,0 0,0 0.12214,-0.0948 0.21059,-0.21816 0.38178,-0.22263 0.2878,-0.0464 0.6544,0.31913 0.88594,0.0717 0.007,-0.3187 0.27543,-0.26337 0.4566,-0.13834 0.30603,0.12187 0.43998,-0.26281 0.51381,-0.47872 0.007,-0.33792 -0.41293,-0.27098 -0.5631,-0.43906 0.031,-0.31125 0.21688,-0.59188 0.26876,-0.89878 -0.34365,-0.007 -0.15867,-0.26266 -0.20682,-0.44224 -0.27455,0.0714 -0.64739,0.17576 -0.74123,0.48352 0.007,0.32804 -0.38039,0.4327 -0.47097,0.68394 0.13248,0.16146 0.19711,0.32984 0.11448,0.54715 -0.003,0.31102 -0.32392,0.35793 -0.55825,0.40234 -0.26483,-0.05 -0.32058,-0.48137 -0.61718,-0.35637 -0.23231,0.14109 -0.51019,0.25746 -0.72531,0.42297 -0.0154,0.33563 -0.31669,0.40244 -0.46298,0.65367 -0.17354,0.20041 -0.32307,0.4722 -0.59803,0.55357 l -1.31375,-1.02456 -3.28152,1.7859 -2.87111,0.47204 -0.62517,0.28783 0,0 -4.93259,2.28835 -0.4821,0.9717 c 0.0385,0.0266 0.0262,0.089 0.067,0.11467 0.26266,0.16606 0.54273,0.29872 0.598,0.67446 0.21072,0.43249 0.6052,0.70398 1.03533,0.85425 0.43012,0.15019 0.89682,0.20704 1.33114,0.2216 0.26524,-0.021 0.56864,-0.0529 0.77304,0.009 0.20465,0.0622 0.33017,0.19842 0.24329,0.54882 0.35196,0.18632 0.54031,0.47833 0.66485,0.78899 0.12448,0.31064 0.17046,0.63915 0.23057,0.9655 0.25099,0.45202 0.63116,0.74165 1.04173,0.95293 0.41044,0.21116 0.84365,0.33991 1.24371,0.55358 0.18464,0.39493 0.308,0.79202 0.47068,1.158 0.16268,0.36599 0.36969,0.72514 0.73785,1.00221 -0.0342,0.49412 0.29962,0.77481 0.66163,1.04662 0.36205,0.27183 0.7547,0.52382 0.87468,0.97348 0.21682,0.34386 0.37195,0.7247 0.5551,1.08333 l 0.0294,0.0119 0.0294,0.0118 0.12888,10e-4 0.19734,-0.0127 1.49346,-0.027 0.0294,0.0118 0.0118,-0.0297 0.41675,0.0135 0.0294,0.0119 0.19723,-0.0128 1.23591,-0.0301 0.87964,-0.027 0.28785,0.0102 0.32607,-0.0114 0.3865,0.005 0.42479,-0.0175 0.52327,-0.0238 1.36463,-0.0285 0.71269,-0.006 0.45483,-0.01 0.0987,-0.006 z"
       id="PA-16"
       style="font-style:normal;font-weight:400;font-size:34.375px;font-family:'MS Shell Dlg 2';opacity:1;fill:none;fill-opacity:1;fill-rule:evenodd;stroke:#000000;stroke-width:0.33333385;stroke-linecap:square;stroke-linejoin:bevel;stroke-miterlimit:4;stroke-dasharray:none;stroke-opacity:1" />
    <path
       inkscape:connector-curvature="0"
       d="m 345.701,415.52979 -0.93064,0.46594 -1.07814,-1.67347 -2.21733,-0.29261 0.25575,2.58788 -1.0115,-0.33088 c 0.0393,0.0392 0.0604,0.0811 0.0971,0.12245 0.17864,0.10499 -0.0123,0.25305 0.0254,0.39445 0.10895,0.1722 0.25858,0.34376 0.27345,0.55678 0.0127,0.24222 -0.009,0.50936 0.0969,0.73645 0.0635,0.1321 0.0852,0.29303 0.23067,0.3516 0.10514,-0.11262 0.0875,-0.27302 0.14132,-0.41529 -0.007,-0.20134 0.18023,-0.18886 0.31964,-0.10964 0.15161,0.0716 0.16512,0.26963 0.21484,0.41197 0.008,0.19649 -0.0303,0.37429 -0.11281,0.55192 -0.10363,0.13065 -0.30777,0.0475 -0.44853,0.10818 -0.19938,0.0628 -0.42082,10e-4 -0.45964,-0.218 -0.0957,-0.11966 -0.27036,-0.12788 -0.40727,-0.1718 -0.21052,-0.0597 -0.43461,-0.11558 -0.56461,-0.31026 -0.0954,-0.16431 0.0585,-0.29921 0.19431,-0.36889 l -0.27039,-0.20045 -2.04575,2.36974 -1.30721,-2.15379 0.99792,-3.42116 0.48347,0.12749 0.63672,-3.03159 -4.26445,0.36386 -0.1554,0.34686 -0.38493,-0.13374 -0.45504,0.62343 -1.63011,-1.78632 1.60176,-0.1923 -0.15718,-1.98031 -0.90352,0.11764 -1.03061,-0.62686 0.51065,-0.835 0.932,0.0193 0.33262,-0.52644 -1.10383,-0.83993 0.51868,-0.86524 1.23092,0.97034 0.42319,-0.5026 -0.59642,-0.80332 -0.13656,-1.19929 0.92725,-0.20818 -0.73475,-0.64595 0.96393,-0.10161 0.20698,-0.78571 -1.59381,0.16207 c -0.18233,0.69219 -0.41185,1.32884 -0.78124,1.86245 -0.36922,0.5337 -0.86487,0.95518 -1.57634,1.20074 l -1.65614,2.73083 -0.10514,0.5217 -0.7984,-0.4042 -0.29595,0.63313 -1.0276,0.34341 -0.48517,0.61543 0.66481,0.78906 -0.39776,0.28304 0.10185,0.34997 c -0.14052,0.4242 -0.44191,0.60897 -0.90197,0.60273 l -0.38977,0.2529 0.94628,0.70144 1.18355,-0.69009 0.39124,0.23225 0.5536,-0.6298 2.67065,-0.20169 0.22087,1.73851 c 0.025,0.26987 0.21207,0.49025 0.45489,0.60442 0.21227,0.0946 0.46806,0.23907 0.44839,0.50586 0.0266,0.26091 -0.20315,0.46147 -0.40887,0.571 -0.18423,0.10868 -0.40612,0.28881 -0.33237,0.52644 0.0419,0.23394 0.35628,0.1943 0.4961,0.3246 0.15739,0.17637 0.19899,0.44128 0.44066,0.53607 0.4003,0.22418 0.55791,0.68129 0.79032,1.04825 l 1.45044,1.60983 -1.58273,1.10215 0.39445,0.58852 -2.80439,1.8145 -0.49941,-1.29481 c -0.49818,0.0996 -0.82733,0.44015 -1.07205,0.88106 l -0.81921,-0.57107 -2.6802,1.58867 -1.54756,-1.73228 -0.66322,0.31016 -3.83478,-1.26818 -1.60664,1.80671 -0.40135,2.38256 -8.45762,4.13939 3.62459,2.92552 0,0 2.02627,1.63209 c 0.82234,-0.1 1.6532,-0.73657 2.50202,-0.66613 0.37559,0.0241 0.73723,0.16992 1.11339,0.067 1.09674,-0.23014 2.14723,-0.6771 3.10821,-1.24982 0.27365,-0.20116 0.56291,-0.39448 0.90031,-0.4738 0.33992,-0.0666 0.64663,-0.29702 0.9894,-0.32127 0.20564,0.0169 0.38133,0.1026 0.59003,0.0909 l 0.39356,-1.73837 3.02065,-1.53143 3.24991,-2.27894 6.57086,-1.76003 1.7625,-0.92551 1.59522,0.93704 0.12867,1.22957 -0.51533,0.60755 -1.76087,0.18267 0.0985,0.60762 0.80329,0.0175 0.31954,1.1182 -2.11235,0.41328 0.0875,0.28156 c 0.24259,0.0392 0.52301,0.0361 0.64902,0.23551 0.12586,0.19941 0.0848,0.59953 -0.24524,1.42191 l 0.6586,-0.53752 1.72106,-0.64558 0.38654,-0.60917 0.6252,-0.2878 -0.061,-0.0154 -0.10497,-0.0923 -0.0219,-0.0381 0.0118,-0.0298 -0.022,-0.038 -0.014,-0.0686 -0.006,-0.0985 0.0118,-0.0297 0.0407,-0.15088 0.0311,-0.12102 0.0378,-0.0222 0.0311,-0.12101 0.0256,-0.0904 0.0118,-0.0297 0.0294,0.0118 0.0118,-0.0297 0.0459,-0.0524 0.0858,-0.20368 0.0118,-0.0296 0.0618,-0.11297 0.0154,-0.0605 -0.0139,-0.0683 -0.0519,-0.0458 -0.0219,-0.0381 -0.0294,-0.0119 0.0118,-0.0297 -0.0831,-0.0542 -0.12725,-0.13049 -0.0142,-0.0683 -0.014,-0.0685 0.0118,-0.0297 0.0378,-0.022 0.062,-0.11299 0.18297,-0.0811 0.0917,-0.1051 0.0154,-0.0605 0.031,-0.12103 10e-4,-0.12885 0.0459,-0.0524 0.0118,-0.0297 0.0379,-0.0223 0.0118,-0.0296 0.0378,-0.0221 0.0987,-0.006 0.0293,0.0118 0.0601,0.0153 0.2419,0.063 0.21151,0.0559 0.0989,-0.006 0.0379,-0.0221 0.0154,-0.0605 0.0998,-0.13539 0.0256,-0.0904 0.0538,-0.0828 0.10695,-0.0365 0.0378,-0.0223 0.10682,-0.0364 0.0293,0.0118 0.0379,-0.0223 0.1704,-0.27817 0.0118,-0.0297 -0.0139,-0.0684 -0.0219,-0.038 0.0154,-0.0606 0.054,-0.0829 0.0153,-0.0605 0.0295,0.0118 0.0918,-0.10513 0.10767,-0.16552 0.0256,-0.0903 0.0256,-0.0904 -0.0293,-0.0118 0.0118,-0.0295 -0.0219,-0.0382 -0.0294,-0.0119 -0.0293,-0.0118 -0.14951,-0.16862 -0.0519,-0.0459 -0.0141,-0.0684 0.0118,-0.0297 -0.014,-0.0684 0.0459,-0.0524 0.0848,-0.0744 0.32597,-0.0115 0.061,0.0154 0.0519,0.0459 0.0987,-0.006 0.0377,-0.0221 0.0697,-0.14326 0.14655,-0.18756 0.0118,-0.0297 0.0118,-0.0296 0.0256,-0.0902 0.0119,-0.0298 0.0154,-0.0604 -0.0139,-0.0684 -0.022,-0.0381 -0.022,-0.038 -0.12724,-0.13051 -0.067,-0.11465 -0.0442,-0.076 -0.0294,-0.0119 -0.17178,-0.20686 -0.0519,-0.0459 0.0119,-0.0297 10e-4,-0.12883 -0.0431,-0.20526 -0.0139,-0.0685 0.0118,-0.0297 -0.0442,-0.0763 -0.18773,-0.14633 -0.0295,-0.0119 -0.15755,-0.13842 -0.0519,-0.0459 -0.037,-0.10667 -0.11924,-0.16065 -0.006,-0.0986 -0.16384,-0.23705 -0.0971,-0.1224 -0.036,-0.10653 -0.0201,-0.16684 -0.0294,-0.0118 0.0118,-0.0297 0.0256,-0.0903 -0.0219,-0.0381 -0.022,-0.0381 -0.0293,-0.0118 -0.13684,0.0287 -0.0601,-0.0153 -0.0519,-0.0459 -0.014,-0.0684 -0.0141,-0.0684 0.0618,-0.11294 0.0154,-0.0605 -0.014,-0.0683 -0.006,-0.0985 0.0118,-0.0297 0.0118,-0.0297 0.0118,-0.0297 0.0378,-0.0223 0.0119,-0.0297 0.0379,-0.0223 0.0839,-0.0748 0.26728,-0.15579 0.0154,-0.0606 0.18289,-0.0811 0.0378,-0.0223 0.0458,-0.0524 0.0294,0.0119 0.0539,-0.0828 0.0118,-0.0297 0.0378,-0.0223 0.0118,-0.0297 0.183,-0.081 0.12885,10e-4 0.10682,-0.0365 0.54243,-0.34185 0.0758,-0.0447 0.10758,-0.16553 0.0758,-0.0446 0.10693,-0.0365 0.0118,-0.0298 -0.006,-0.0984 0.0154,-0.0604 0.1156,-0.19582 0.0459,-0.0524 0.0256,-0.0903 0.0256,-0.0902 0.0406,-0.15087 0.0378,-0.0223 0.0989,-0.006 0.1466,-0.18758 0.0837,-0.0748 0.10693,-0.0365 0.14475,-0.0589 0.26719,-0.15589 0.0256,-0.0905 0.0311,-0.12099 0.0118,-0.0297 0.0119,-0.0297 -0.0294,-0.0118 -0.022,-0.0381 -0.0679,0.0144 -0.0758,0.0447 -0.0118,0.0297 -0.0918,0.10512 -0.0679,0.0144 -0.0118,0.0297 -0.0989,0.006 -0.0295,-0.0118 -0.0294,-0.0119 -0.006,-0.0985 0.0618,-0.11299 z"
       id="PA-17"
       style="font-style:normal;font-weight:400;font-size:34.375px;font-family:'MS Shell Dlg 2';opacity:1;fill:none;fill-opacity:1;fill-rule:evenodd;stroke:#000000;stroke-width:0.33333385;stroke-linecap:square;stroke-linejoin:bevel;stroke-miterlimit:4;stroke-dasharray:none;stroke-opacity:1" />
    <path
       inkscape:connector-curvature="0"
       d="m 237.11222,454.47889 c 0.0623,-0.37143 0.0744,-0.7396 -0.002,-1.09904 -0.28951,-0.18666 -0.39919,-0.45741 -0.42306,-0.72534 -0.0236,-0.26795 0.0585,-0.53189 0.11528,-0.80984 -0.0611,-0.60458 -0.40609,-1.15785 -0.80615,-1.60173 -0.0917,-0.39872 -0.003,-0.87676 -0.15101,-1.26774 0.20091,-0.15982 0.52339,-0.40986 0.59017,-0.52318 -0.21815,-0.10789 -0.30264,-0.28078 -0.27515,-0.42795 0.0291,-0.14685 0.17392,-0.28738 0.33088,-0.39768 -0.0143,-0.20073 -0.0404,-0.51389 0.0398,-0.76503 0.0806,-0.25093 0.26984,-0.43618 0.58065,-0.36417 0.35527,0.19178 0.59335,0.24939 0.86516,-0.0952 0.19691,-0.0499 0.32176,-0.15105 0.36751,-0.29102 0.0471,-0.13969 0.015,-0.32499 -0.16858,-0.46453 -0.1846,-0.14771 -0.22982,-0.35451 -0.16055,-0.49465 0.069,-0.14027 0.23492,-0.2183 0.4708,-0.07 0.14893,-0.0581 0.2914,-0.10753 0.4104,-0.0858 0.11908,0.0211 0.21845,0.11907 0.26871,0.32926 -0.0264,0.23158 0.19072,0.20336 0.37047,0.0662 0.17997,-0.1381 0.32881,-0.39118 0.15119,-0.57423 -0.11723,-0.19134 -0.0962,-0.48415 -0.12706,-0.74438 -0.0308,-0.26016 -0.11733,-0.47966 -0.41036,-0.52818 -0.38083,-0.16264 -0.68868,-0.0814 -0.88285,0.28462 -0.25488,0.19894 -0.42491,-0.0274 -0.47392,-0.2863 -0.049,-0.2594 0.0289,-0.56228 0.25798,-0.61065 0.26918,-0.0341 0.37459,-0.1483 0.40554,-0.31338 0.0315,-0.16493 -0.0293,-0.37934 -0.0763,-0.56945 0.0634,-0.18539 -0.0481,-0.39663 -0.10653,-0.57735 -0.0585,-0.18077 -0.0319,-0.34459 0.27846,-0.44372 0.40273,-0.32118 0.97342,-0.43264 1.43468,-0.1716 0.20147,0.1203 0.3707,0.28331 0.57898,0.37857 0.20821,0.0953 0.44558,0.10997 0.7125,-0.006 0.18326,-0.0472 0.31644,0.19075 0.3436,0.41363 0.027,0.22284 -0.0583,0.43253 -0.30872,0.43574 -0.14348,0.15611 -0.14178,0.35396 -0.0741,0.52988 0.0666,0.17553 0.1938,0.34077 0.2592,0.48828 l 2.31906,0.0294 c -0.0427,0.30979 0.19988,0.42235 0.48663,0.48353 0.28692,0.0605 0.64031,0.0582 0.84768,0.0945 0.23081,0.0769 0.38373,0.3457 0.56945,0.53769 0.18564,0.19209 0.39616,0.30046 0.71087,0.12283 0.16588,-0.0711 0.32144,0.026 0.46924,0.0584 0.14762,0.0333 0.29386,0.0118 0.35954,-0.26074 0.47081,-0.38957 1.09552,-0.63605 1.57477,-1.07188 0.24887,-0.20686 0.56854,-0.25927 0.85897,-0.1939 0.29057,0.0645 0.54597,0.2638 0.69814,0.53921 0.17315,0.50494 0.88033,0.4505 1.19443,0.86389 0.56188,0.2566 0.74364,0.87486 1.02902,1.36953 0.18246,0.14369 0.48703,0.24631 0.77775,0.23713 0.14537,-0.003 0.20063,-0.14386 0.31337,-0.20837 l 0,0 c 0.11311,-0.0644 0.27295,-0.0697 0.31334,-0.20831 0.0544,-0.59262 0.40008,-1.07444 0.93386,-1.33751 0.32826,-0.32865 0.67488,-0.444 1.1023,-0.25919 0.37122,-0.36916 0.15371,-1.13012 0.62366,-1.38693 0.22446,0.007 0.23483,-0.16215 0.25448,-0.35314 0.0181,-0.19111 0.0355,-0.40319 0.30077,-0.40549 0.24473,-0.56036 0.4715,-1.09607 0.97352,-1.48869 l -3.5833,-2.59151 -0.12889,-4.4e-4 -0.068,0.0144 c -0.35895,0.37054 -0.41436,1.01174 -0.71438,1.36304 -0.23672,-0.16521 -0.5723,-0.1644 -0.88426,-0.20061 -0.31203,-0.0367 -0.59024,-0.10968 -0.69986,-0.41052 0.0581,-0.25724 -0.10163,-0.37432 -0.25921,-0.48829 -0.15755,-0.11406 -0.31136,-0.22273 -0.27513,-0.42794 0.21905,-0.25617 0.17796,-0.41674 0.052,-0.56785 -0.12528,-0.15106 -0.34289,-0.27256 -0.49463,-0.45345 -0.1706,-0.28027 -0.31592,-0.26476 -0.44545,-0.14948 -0.12957,0.11518 -0.25113,0.31843 -0.42147,0.3738 -0.32029,-0.0716 -0.56892,0.0923 -0.80647,0.23999 -0.23754,0.14778 -0.46518,0.25669 -0.77469,0.11927 -0.29716,-0.56135 -1.02238,-0.5982 -1.28978,-1.11512 -0.0612,-0.29623 -0.21151,-0.41026 -0.40395,-0.42962 -0.1925,-0.0183 -0.42949,0.0685 -0.63147,0.1893 -0.48314,-0.24274 -1.04273,0.0155 -1.49042,-0.23037 -0.2144,-0.10122 -0.31681,-0.19962 -0.30697,-0.30697 0.0105,-0.10734 0.12996,-0.22665 0.28476,-0.34517 -0.025,-0.27058 -0.30725,-0.33567 -0.57092,-0.40883 -0.23906,-0.0655 -0.43609,-0.18171 -0.49468,-0.45328 -0.0868,0.16876 -0.22047,0.32869 -0.26408,0.51202 0.0174,0.18909 0.13709,0.31984 0.22902,0.48047 0.10924,0.18406 0.2713,0.36188 0.37213,0.55036 0.0389,0.13856 -0.15294,0.1922 -0.25298,0.22419 -0.12778,0.0441 -0.30124,0.0805 -0.32139,0.23862 l -0.0118,0.0297 -0.0118,0.0297 -0.38031,1.93576 c -0.0264,0.0936 -0.51321,-0.0903 -0.69661,-0.0537 -0.21691,-0.0494 -0.34513,0.025 -0.39612,0.15423 -0.0508,0.12936 -0.0158,0.32172 0.0699,0.47079 -0.0708,0.26849 -0.25824,0.33004 -0.47403,0.3276 -0.21579,-0.003 -0.46743,-0.077 -0.65858,-0.0765 -0.28944,-0.0221 -0.29207,-0.20946 -0.24484,-0.41998 0.0464,-0.21081 0.14561,-0.43125 0.0605,-0.59816 -0.27006,-0.29437 -0.79808,-0.16386 -1.10869,-0.4534 -0.14922,-0.22078 -0.39808,-0.13656 -0.62832,-0.0682 -0.23008,0.068 -0.44134,0.10727 -0.52791,-0.20377 -0.13478,-0.24457 -0.0672,-0.25567 0.0631,-0.2419 0.13083,0.0131 0.30371,0.0636 0.41667,0.0135 0.25157,-0.19518 0.23529,-0.36348 0.0972,-0.49144 -0.13825,-0.12803 -0.36922,-0.21263 -0.55037,-0.24178 -0.21566,-0.0541 -0.46385,-0.11002 -0.65686,-0.2053 -0.19305,-0.0951 -0.3298,-0.23709 -0.38805,-0.48996 -0.15924,-0.38771 -0.63986,-0.43844 -0.82384,-0.79855 0.1139,-0.0633 0.18415,-0.19401 0.17845,-0.30854 -0.006,-0.11455 -0.10985,-0.21712 -0.29261,-0.23856 -0.36439,0.0116 -0.39992,-0.19783 -0.40397,-0.42951 -0.004,-0.23167 0.0189,-0.48566 -0.23535,-0.57899 -0.46557,-0.0581 -0.32757,-0.60845 -0.63456,-0.78101 -0.26632,-0.0209 -0.41223,-0.14907 -0.43577,-0.3087 -0.0127,-0.0846 0.0624,-0.17062 0.10166,-0.26404 -0.0697,-0.0299 -0.145,-0.0304 -0.21144,-0.0561 -0.0872,-0.0344 -0.21997,-0.0735 -0.28626,-0.14007 -0.0663,-0.0666 -0.0696,-0.15938 0.0936,-0.23388 0.2432,-0.0804 0.18462,-0.38725 0.22003,-0.58837 l -0.52172,-0.71903 -3.39628,3.08065 -3.38622,-0.14818 -0.0118,0.0297 0.006,0.0983 0.0194,0.29593 -0.0118,0.0297 -0.0283,1.09113 -0.0151,0.54561 -0.0311,0.12101 -0.0109,0.90185 -0.0111,0.15892 -0.0363,0.3783 -4.5e-4,0.12885 -0.0154,0.0605 0.0115,0.32618 -0.0348,0.37866 -0.008,0.64416 -0.0279,0.34822 0.003,0.35631 -0.0198,0.3182 0.0115,0.32609 -0.0119,0.0297 -0.0699,1.37103 -0.008,0.64417 0.003,0.35631 -0.0207,0.44709 -0.0314,0.73483 -0.0135,0.41681 0.004,0.22727 -0.0278,0.47721 0.0219,0.0381 -0.0256,0.0902 -0.0111,0.15899 -0.0235,0.70464 -0.0314,0.73495 0.0294,0.0118 -0.0556,1.43943 -0.0154,0.0604 -0.0118,0.0297 0.0141,0.0684 -0.0256,0.0902 0.002,0.48518 0.014,0.0684 -0.0461,1.28038 -0.005,0.38658 -0.0154,0.0606 -0.0202,0.31785 -0.0118,0.28782 -0.0111,0.15898 0.0194,0.29586 -0.0419,0.89387 -0.0135,0.41671 -0.0616,1.95491 0.932,0.0193 0.31814,0.0197 0.0599,0.0154 0.0986,-0.006 0.0294,0.0119 0.67435,0.0158 0.47728,0.0278 1.31855,0.0242 0.64422,0.008 0.0294,0.0118 0.44688,0.0217 0.28789,0.0103 0.64416,0.008 0.0611,0.0154 0.4548,-0.01 0.28799,0.0103 0.0293,0.0119 0.44681,0.0217 0.25768,0.003 0.99257,0.0352 1.12139,0.0373 0.22739,-0.005 0.068,-0.0144 0.0293,0.0119 0.18951,0.016 0.1589,0.0111 z"
       id="PA-18"
       style="font-style:normal;font-weight:400;font-size:34.375px;font-family:'MS Shell Dlg 2';opacity:1;fill:none;fill-opacity:1;fill-rule:evenodd;stroke:#000000;stroke-width:0.33333385;stroke-linecap:square;stroke-linejoin:bevel;stroke-miterlimit:4;stroke-dasharray:none;stroke-opacity:1" />
  </g>
</svg>
