<?xml version="1.0" encoding="UTF-8" standalone="no"?>
<!-- Created with Inkscape (http://www.inkscape.org/) -->

<svg
   xmlns:dc="http://purl.org/dc/elements/1.1/"
   xmlns:cc="http://creativecommons.org/ns#"
   xmlns:rdf="http://www.w3.org/1999/02/22-rdf-syntax-ns#"
   xmlns:svg="http://www.w3.org/2000/svg"
   xmlns="http://www.w3.org/2000/svg"
   xmlns:sodipodi="http://sodipodi.sourceforge.net/DTD/sodipodi-0.dtd"
   xmlns:inkscape="http://www.inkscape.org/namespaces/inkscape"
   width="18.173407mm"
   height="24.349411mm"
   viewBox="0 0 64.393969 86.27745"
   id="svg12983"
   version="1.1"
   inkscape:version="0.91 r"
   sodipodi:docname="6.svg">
  <defs
     id="defs12985" />
  <sodipodi:namedview
     id="base"
     pagecolor="#ffffff"
     bordercolor="#666666"
     borderopacity="1.0"
     inkscape:pageopacity="0.0"
     inkscape:pageshadow="2"
     inkscape:zoom="10.743408"
     inkscape:cx="10.096552"
     inkscape:cy="51.280328"
     inkscape:document-units="px"
     inkscape:current-layer="layer1"
     showgrid="false"
     fit-margin-top="5"
     fit-margin-left="5"
     fit-margin-right="5"
     fit-margin-bottom="5"
     inkscape:window-width="2560"
     inkscape:window-height="1388"
     inkscape:window-x="0"
     inkscape:window-y="0"
     inkscape:window-maximized="1" />
  <metadata
     id="metadata12988">
    <rdf:RDF>
      <cc:Work
         rdf:about="">
        <dc:format>image/svg+xml</dc:format>
        <dc:type
           rdf:resource="http://purl.org/dc/dcmitype/StillImage" />
        <dc:title></dc:title>
      </cc:Work>
    </rdf:RDF>
  </metadata>
  <g
     inkscape:label="Layer 1"
     inkscape:groupmode="layer"
     id="layer1"
     transform="translate(-454.62062,-387.66812)">
    <path
       inkscape:connector-curvature="0"
       d="m 441.95824,383.08019 1.96203,-0.18538 2.36749,-0.34058 4.09186,-2.74987 3.33495,2.0661 0.85182,-0.36716 0,0 2.63718,-1.21481 -0.0115,-11.1483 3.34976,0.0417 0.0395,-2.36844 -0.28259,-0.0143 -0.63194,-0.009 -0.47272,-0.0148 -0.53437,-0.0239 -0.0307,-0.008 -0.0362,0.0257 -0.62688,-0.0396 -0.44686,0.0215 -0.0616,-0.01 -0.12843,0.0109 -0.12347,-0.0193 -0.15929,0.004 -0.0307,-0.008 -0.27699,0.14457 -0.80529,0.46981 -0.68243,0.29985 -0.0407,0.0565 -0.47661,0.3969 -0.036,0.0257 -0.10242,0.0462 -1.44687,0.71314 -0.0667,0.0208 -0.37968,0.19114 -0.7851,0.34651 -0.0307,-0.008 -0.20523,0.0932 -0.91342,0.35705 -0.13405,-0.14861 -0.39529,0.0936 -0.35434,0.037 0.0212,0.25681 -0.30275,0.10871 -0.16927,0.0672 -0.0978,0.0153 -0.29264,0.047 -0.42624,0.0885 -0.0308,-0.008 -0.61621,0.0891 -0.19516,0.0314 -0.34938,0.007 -0.20569,-0.097 -0.78616,-0.0339 -0.70416,-0.14727 -0.0922,-0.0164 -0.0568,-0.0409 -0.0616,-0.01 -0.54004,-0.1835 -0.30328,-0.0813 -0.29843,-0.11198 -0.14398,-0.0871 -0.0771,-0.10782 -0.10823,-0.11257 0.12269,-0.16998 0.008,-0.0307 -0.0108,-0.12842 -0.0258,-0.0359 -0.0516,-0.0718 -0.0257,-0.036 -0.0874,-0.046 -0.008,0.0307 -0.0667,0.0208 -0.008,0.0308 -0.14413,-0.087 -0.0564,-0.0407 -0.14919,-0.0562 -0.16936,0.067 -0.4272,-0.29155 -0.19561,-0.1587 -0.0824,-0.0772 -0.13395,-0.14858 -0.0932,-0.20525 -0.0981,-0.17444 -0.0719,0.0518 -0.008,0.0307 -0.008,0.0308 -0.008,0.0308 -0.01,0.0617 0.0154,0.0978 -0.0164,0.0922 -0.0194,0.12347 0.0109,0.12842 0.0208,0.0668 -0.009,0.25185 -0.009,0.44182 -0.008,0.0308 -0.0164,0.0922 0.0153,0.0975 -0.01,0.0616 0.004,0.1592 -0.009,0.25183 -0.0164,0.0923 -0.01,0.0616 0.0109,0.1284 0.0207,0.0672 -0.008,0.0308 -0.0164,0.0923 0.0153,0.0975 -0.008,0.0308 -0.0194,0.12351 -0.01,0.0614 0.0257,0.0362 0.004,0.15925 -0.01,0.0614 -0.0164,0.0923 -0.008,0.0307 0.0207,0.0671 -0.008,0.0307 -0.0164,0.0923 0.0108,0.1284 -0.008,0.0307 -0.008,0.0307 -0.01,0.0618 0.0257,0.036 -0.0253,0.15418 -0.008,0.0308 10e-4,0.19015 -0.0194,0.12346 0.0257,0.0359 -0.008,0.0308 -0.01,0.0616 0.004,0.15916 -0.008,0.0308 -0.01,0.0617 0.0208,0.067 -0.01,0.0616 -0.008,0.0307 -0.0164,0.0923 0.0155,0.0979 -0.0164,0.0923 0.0256,0.0361 -0.0253,0.15415 -0.008,0.0308 10e-4,0.38014 -0.006,0.22099 -0.01,0.0616 -0.008,0.0308 0.0208,0.0668 -0.0253,0.15424 0.0161,0.2877 -0.0193,0.12346 -0.0164,0.0923 0.0256,0.0362 -0.0138,0.47264 -0.0143,0.28268 -0.006,0.22088 -0.009,0.822 -0.009,0.44182 0.004,0.15928 -0.008,0.0307 -0.0164,0.0923 -0.008,0.0307 0.0207,0.067 -0.0194,0.12347 -0.0138,0.47263 10e-4,0.19025 -0.008,0.0307 -0.01,0.0616 -0.008,0.0308 0.0156,0.0977 -0.0375,1.19715 -0.009,0.44178 -0.009,0.82204 0.0118,0.31849 -0.0283,0.94539 -0.003,0.41098 -0.0143,0.28266 0.001,0.19013 0.004,0.15918 z"
       id="IN-01"
       style="font-style:normal;font-weight:400;font-size:34.375px;font-family:'MS Shell Dlg 2';opacity:1;fill:none;fill-opacity:1;fill-rule:evenodd;stroke:#000000;stroke-width:0.33333385;stroke-linecap:square;stroke-linejoin:bevel;stroke-miterlimit:4;stroke-dasharray:none;stroke-opacity:1" />
    <path
       inkscape:connector-curvature="0"
       d="m 481.56861,366.86198 -0.0308,-0.008 -0.0308,-0.008 -1.3306,0.004 -0.0616,-0.01 -0.44688,0.0215 -0.0307,-0.008 -0.50349,-0.0199 -0.34935,0.007 -0.41097,-0.003 -0.5395,0.007 -0.25183,-0.009 -0.50856,0.0118 -0.0308,-0.008 -0.0976,0.0154 -0.2209,-0.006 -0.19022,0.001 -0.91449,-0.0232 -0.69867,0.0126 -0.34427,-0.0242 -0.0977,0.0154 -0.0307,-0.008 -0.0923,-0.0164 -0.0307,-0.008 -0.79122,-0.004 -0.47775,0.0169 -0.94547,-0.0283 -0.34925,0.007 -0.067,0.0208 -1.0738,-0.017 -0.2259,0.0262 -0.60118,-0.003 -0.15915,0.004 -0.1235,-0.0194 -0.0618,-0.01 -0.12842,0.0109 -0.0668,0.0208 -0.0308,-0.008 -0.12351,-0.0194 -0.0976,0.0153 -0.19023,10e-4 -0.15917,0.004 -0.66269,-0.014 -0.15928,0.004 -0.0923,-0.0164 -0.50856,0.0118 -0.221,-0.006 -0.15915,0.004 -1.20229,-0.007 -0.22087,-0.006 -0.63195,-0.009 -0.9812,-10e-4 -0.34938,0.007 -0.0976,0.0154 -0.63193,-0.009 -0.0307,-0.008 -0.38014,3.3e-4 -0.22098,-0.006 -0.82191,-0.008 -0.38013,0.001 -0.0308,-0.008 -0.28771,0.0162 -0.0394,2.36844 -3.34976,-0.0419 0.0114,11.14831 -2.63718,1.21481 -0.0314,8.89313 16.25094,0.34948 0.0376,9.6327 3.23649,-0.0399 0,0 3.26744,-0.035 -0.0174,-2.40943 4.71632,0.0124 -0.0589,-9.88951 -0.87863,-0.0486 -0.019,-1.23801 -2.44032,0.0123 -0.0354,-3.45747 -2.20936,-0.0452 -0.19704,-2.47051 0.67866,0.10998 -0.0322,-2.31695 5.02352,-0.31737 -0.28912,-11.38384 z"
       id="IN-02"
       style="font-style:normal;font-weight:400;font-size:34.375px;font-family:'MS Shell Dlg 2';opacity:1;fill:none;fill-opacity:1;fill-rule:evenodd;stroke:#000000;stroke-width:0.33333385;stroke-linecap:square;stroke-linejoin:bevel;stroke-miterlimit:4;stroke-dasharray:none;stroke-opacity:1" />
    <path
       inkscape:connector-curvature="0"
       d="m 481.56861,366.86198 0.28915,11.38387 -5.02354,0.31734 0.0321,2.31697 -0.67866,-0.10988 0.19706,2.47051 2.20933,0.0453 0.0353,3.45746 2.44034,-0.0123 0.019,1.238 0.87868,0.0486 0.0589,9.88951 4.1459,0.0141 0.0168,2.21945 1.27967,0.11424 0.33555,2.39824 3.61213,0.17934 -0.0334,2.71793 -0.38015,0.001 0.14943,1.98786 8.98513,-0.14364 -0.0341,-1.14558 0.009,-0.82201 -0.0215,-0.44687 -0.0109,-0.12843 -0.001,-0.19015 0.01,-0.0616 -0.004,-0.15917 -0.0178,-0.85797 0.003,-0.41095 -0.0154,-0.0979 0.008,-0.0307 0.006,-0.22098 0.0143,-0.28259 0.0148,-0.47272 0.006,-0.22101 -0.007,-0.53934 -0.0126,-0.69869 -0.007,-0.53951 -0.0126,-0.69856 -0.024,-1.20734 0.0194,-0.12347 -0.007,-0.34931 -0.0155,-0.0975 0.003,-0.41106 -0.027,-0.41614 0.01,-0.0616 -0.0161,-0.28767 0.009,-0.44185 -0.0161,-0.2876 0.003,-0.41105 -0.0108,-0.1284 -0.0118,-0.50859 -0.004,-0.15924 0.0242,-0.34427 -0.0169,-0.47772 0.003,-0.41107 -0.0369,-0.35434 -0.001,-0.19021 -0.0361,-1.90593 -0.002,-0.57014 -0.0414,-1.87514 -0.002,-0.57026 -0.0312,-1.93679 -0.0117,-0.31838 0.006,-0.221 0.0186,-0.69362 -0.0214,-0.25683 -0.0215,-0.25687 -10e-4,-0.38015 0.006,-0.22087 0.01,-0.0618 0.008,-0.0308 -0.0263,-0.22599 0.008,-0.0307 -0.0118,-0.31854 -0.004,-1.90088 -0.0118,-0.50852 -0.0352,-1.52574 -10e-4,-0.3802 -0.0118,-0.50853 -0.0117,-0.31852 -0.008,-1.1097 -0.0155,-0.0976 0.003,-0.41107 0.0143,-0.28258 -0.0215,-0.25683 -0.002,-0.57028 -0.0223,-0.63696 -0.007,-0.3493 -0.007,-0.34935 -0.0168,-0.4778 -0.007,-0.34932 -0.0239,-1.20723 0.004,-0.79115 -0.0155,-0.0977 0.01,-0.0616 -0.007,-0.34928 0.008,-0.0308 -0.0325,-0.57532 0.003,-0.60117 0.003,-0.41099 -0.0314,-0.19513 -10e-4,-0.19015 -0.0109,-0.12845 0.0303,-0.37502 -0.007,-0.34939 -0.0109,-0.12844 -0.004,-0.15919 0.0149,-0.47272 -0.28269,-0.0143 -0.12844,0.0109 -0.76541,0.0329 -1.52067,0.005 -0.19016,10e-4 -0.38516,0.0318 -0.0307,-0.008 -0.19023,0.001 -0.0307,-0.008 -0.34941,0.007 -0.66778,0.0175 -0.37507,-0.0305 -0.0307,-0.008 -0.19526,0.0315 -0.19005,10e-4 -0.53946,0.007 -0.69364,-0.0186 -0.12842,0.0109 -1.04797,0.0183 -0.0308,-0.008 -0.47772,0.017 -0.76037,0.002 -0.82209,-0.008 -0.0307,-0.008 -0.008,0.0308 -0.41095,-0.003 -0.12346,-0.0194 -0.19026,10e-4 -0.2259,0.0262 -0.25183,-0.009 -0.41103,-0.003 -0.0978,0.0154 -0.15422,-0.0253 -0.12845,0.0109 -0.22089,-0.006 -0.63698,0.0223 -0.3801,3.2e-4 -0.0976,0.0156 -1.14051,0.003 -0.63194,-0.009 -0.0673,0.0208 -0.12347,-0.0193 -1.74663,0.0306 -0.3185,0.0117 -0.0307,-0.008 -0.15426,-0.0253 -0.31852,0.0118 -0.0977,0.0155 -0.15918,0.004 z"
       id="IN-03"
       style="font-style:normal;font-weight:400;font-size:34.375px;font-family:'MS Shell Dlg 2';opacity:1;fill:none;fill-opacity:1;fill-rule:evenodd;stroke:#000000;stroke-width:0.33333385;stroke-linecap:square;stroke-linejoin:bevel;stroke-miterlimit:4;stroke-dasharray:none;stroke-opacity:1" />
    <path
       inkscape:connector-curvature="0"
       d="m 441.30053,412.04219 2.62129,0.42978 -0.5918,4.96968 7.3775,0.005 -0.0604,2.30179 1.77304,0.19522 -0.18974,11.02041 8.29761,0.18719 0.0178,0.85785 2.05005,0.0507 -0.0175,-0.6678 -1.34177,-0.31478 -0.10593,-1.09387 0.70383,-0.043 3.3e-4,0.38011 2.35341,0.13197 -0.0716,-1.69008 2.87202,0.0586 -0.0624,-2.1319 0.34928,-0.007 0.005,-5.44577 c 0,0 0,0 0,0 l -0.008,-2.85136 -0.70381,0.0431 0.0424,-1.22793 0.8782,-0.14127 -0.005,-1.52066 -0.86466,-0.52159 0.0406,-3.72993 2.50189,-0.001 -0.0383,-6.33956 3.81181,-0.0726 0.0596,-0.75025 -0.54958,0.0685 -0.0312,-1.93677 1.66028,0.30336 -0.0168,-2.21932 -3.23653,0.0399 -0.0376,-9.63268 -16.25093,-0.34952 0.0314,-8.8931 -0.85182,0.36716 -3.33495,-2.06612 -4.09189,2.74989 -2.36745,0.3406 -1.96205,0.18535 -0.0253,0.15428 0.0208,0.0668 -0.01,0.0616 -0.01,0.0616 0.004,0.15916 0.0108,0.1284 -0.0143,0.28268 -0.0189,0.50354 -0.0285,0.75531 0.0263,0.22591 -0.0164,0.0923 -0.016,1.64405 -0.003,0.41095 -0.0143,0.28267 -0.009,0.44181 -0.0226,1.10467 -0.006,0.22085 0.0126,0.69871 -0.008,0.0307 -0.0194,0.12349 -0.008,0.0308 0.016,0.28766 -0.036,0.0256 0.0319,0.3852 -0.008,0.0307 -0.003,0.41105 -0.0199,0.31344 0.0208,0.0668 -0.0329,0.97615 -0.0141,0.66284 -0.009,0.44181 -0.0199,0.50347 -0.0143,0.28258 0.007,0.34937 -0.0269,1.32558 0.003,1.14047 -0.0396,0.6269 0.007,0.5395 -0.0234,0.72437 0.0109,0.12842 0.001,0.38018 -0.0387,0.81701 -0.0119,1.23306 -0.0343,0.40596 0.0256,0.0359 -0.0303,0.37505 -0.0508,2.05004 -0.008,0.0308 -0.0226,1.1046 -0.0199,0.50348 -0.0285,0.7553 -0.0177,0.88368 -0.0395,0.62688 0.0308,0.008 -0.0343,0.40609 0.0108,0.12842 -0.0139,0.47263 -0.003,0.41106 -0.0253,0.15417 0.0208,0.0669 -0.0343,0.40605 -0.006,0.2209 -0.003,0.60108 -0.0194,0.12345 -0.008,0.0308 -0.008,0.0308 z"
       id="IN-04"
       style="font-style:normal;font-weight:400;font-size:34.375px;font-family:'MS Shell Dlg 2';opacity:1;fill:none;fill-opacity:1;fill-rule:evenodd;stroke:#000000;stroke-width:0.33333385;stroke-linecap:square;stroke-linejoin:bevel;stroke-miterlimit:4;stroke-dasharray:none;stroke-opacity:1" />
    <path
       inkscape:connector-curvature="0"
       d="m 482.02655,397.90655 -4.71632,-0.0124 0.0174,2.40941 -3.26737,0.035 0.0168,2.21935 -1.6603,-0.3034 0.0311,1.93678 0.54959,-0.0685 -0.0596,0.75026 -3.81183,0.0726 0.0383,6.33955 -2.50186,0.001 -0.0406,3.72994 0.86467,0.52157 0.005,1.52066 -0.87819,0.14129 -0.0424,1.22792 0.70384,-0.0431 0.008,2.85136 c 0.19001,-0.002 0.38915,0.0291 0.57027,-0.002 0.26751,-0.30631 0.19022,-0.8006 0.49524,-1.09052 0.26327,-0.29889 0.55767,-0.63503 0.94829,-0.76309 0.16373,0.0303 0.38067,3.3e-4 0.56517,0.0297 0.18495,0.0256 0.32708,0.11392 0.39136,0.31742 0.0402,0.36692 0.27134,0.67278 0.63408,0.76877 0.1164,0.1078 0.2451,0.21238 0.40144,0.2558 0.15633,0.0435 0.32814,0.002 0.44134,-0.18102 0.30144,-0.34513 0.81257,-0.35069 1.23698,-0.39914 0.30137,0.0552 0.5332,-0.12003 0.66175,-0.36669 0.31726,0.10107 0.50027,0.44733 0.67498,0.71224 0.1086,0.20739 0.24883,0.12038 0.38016,-0.001 0.13131,-0.12129 0.26777,-0.2937 0.41555,-0.21702 0.11501,0.0339 0.21842,0.0905 0.3241,0.14812 l 0.0284,-2.49696 8.13727,-0.18745 -0.31712,-12.18002 7.73181,-0.033 0,0 0.38017,-0.001 0.0333,-2.71793 -3.6121,-0.17933 -0.33555,-2.39822 -1.27966,-0.11425 -0.0168,-2.21945 -4.14589,-0.014 z"
       id="IN-05"
       style="font-style:normal;font-weight:400;font-size:34.375px;font-family:'MS Shell Dlg 2';opacity:1;fill:none;fill-opacity:1;fill-rule:evenodd;stroke:#000000;stroke-width:0.33333385;stroke-linecap:square;stroke-linejoin:bevel;stroke-miterlimit:4;stroke-dasharray:none;stroke-opacity:1" />
    <path
       inkscape:connector-curvature="0"
       d="m 491.00275,405.55132 -7.7318,0.032 0.31712,12.18003 -8.13727,0.18745 -0.0284,2.49697 c 0,0 0,0 0,0 l -0.0186,6.10846 0,0 -0.0593,8.09685 -2.84068,0.13651 0.0914,8.72328 4.69504,-0.24447 1.3335,-0.79497 0.14048,7.84453 -1.16709,1.51883 1.48008,0.24353 0.64023,1.11813 0.89396,0.14859 0.0625,2.13195 4.41346,0.12102 1.8868,0.46724 -0.1188,-0.24105 -0.0466,-0.10252 -0.0207,-0.0672 -0.0416,-0.13347 -0.0154,-0.0976 0.008,-0.0308 0.003,-0.60106 0.009,-0.25185 -0.004,-0.15926 0.01,-0.0616 -0.0162,-0.28768 -0.13957,-0.30792 -0.2063,-0.2871 -0.0207,-0.067 -0.0209,-0.0667 -0.0109,-0.12842 0.0193,-0.1235 0.008,-0.0307 0.008,-0.0308 0.0615,-0.36992 0.0819,-0.11326 0.12259,-0.17002 0.008,-0.0308 0.0308,0.008 0.0918,-0.17499 0.0772,-0.0823 0.21019,-0.12396 0.0358,-0.0256 0.13347,-0.0414 0.13349,-0.0416 0.15425,0.0253 0.0616,0.01 0.0617,0.01 0.0616,0.01 0.24172,0.071 0.12348,0.0194 0.0923,0.0164 0.0616,0.01 0.0308,0.008 0.0616,0.01 0.0617,0.01 0.0307,0.008 0.2619,-0.0523 0.23105,-0.057 0.0717,-0.0515 0.067,-0.0208 0.0307,0.008 0.036,-0.0257 0.55966,-0.13006 0.22588,-0.0262 0.15929,-0.004 0.2779,0.0437 0.18511,0.029 0.18013,0.061 0.23161,0.13266 0.0616,0.01 0.0672,0.16938 0.10823,0.11261 0.2736,0.45651 0.10317,0.14355 0.0308,0.008 0.13898,0.11789 -0.008,0.0308 0.0308,0.008 0.17498,0.0918 0.0616,0.01 0.23664,0.1019 0.0308,0.008 0.0307,0.008 0.0307,0.008 0.16437,-0.0365 0.0616,0.01 0.0978,-0.0154 0.33355,-0.10365 0.0308,0.008 0.21027,-0.12394 0.17433,-0.0981 0.1079,-0.077 0.11259,-0.10823 0.15372,-0.16492 0.0716,-0.0515 0.0719,-0.0517 0.18445,-0.15969 -0.0257,-0.036 0.077,-0.0823 0.0673,-0.0207 0.008,-0.0308 0.10251,-0.0463 0.0362,-0.0257 0.25115,-0.18047 0.14357,-0.10314 0.10251,-0.0464 0.16936,-0.067 0.0717,-0.0515 0.10261,-0.0463 0.008,-0.0308 0.16926,-0.067 0.1486,-0.13406 0.17434,-0.0981 0.20534,-0.0932 0.277,-0.14454 0.23039,-0.2473 0.067,-0.0208 0.036,-0.0257 0.0358,-0.0258 0.0308,0.008 0.0672,-0.0207 0.0616,0.01 0.13349,-0.0415 0.0617,0.01 0.34439,0.0242 0.3341,0.0863 0.13349,-0.0415 0.16433,-0.0363 0.41045,-0.18608 0.0359,-0.0257 0.1079,-0.0773 0.10781,-0.0772 0.0361,-0.0257 0.13344,-0.0415 0.036,-0.0257 0.13346,-0.0414 0.12348,0.0194 0.12349,0.0194 0.24703,0.038 0.18525,0.029 0.21075,0.0661 0.26752,0.10718 0.15424,0.0253 0.1592,-0.004 0.0307,0.008 0.1026,-0.0462 0.0307,0.008 0.008,-0.0308 0.0409,-0.0566 0.008,-0.0307 -0.0207,-0.067 0.008,-0.0308 0.008,-0.0307 -0.0313,-0.19525 -0.0724,-0.13853 -0.22194,-0.38461 -0.0671,-0.16939 -0.004,-0.15914 0.0509,-0.11835 0.0817,-0.11327 0.008,-0.0308 0.0308,0.008 0.008,-0.0308 0.10778,-0.0771 0.008,-0.0308 0.0717,-0.0517 0.21029,-0.12385 0.18959,-0.19067 0.036,-0.0257 0.0408,-0.0566 0.008,-0.0307 0.0362,-0.0257 0.01,-0.0617 0.0462,-0.0873 0.01,-0.0616 0.0253,-0.15413 -0.0109,-0.12846 0.008,-0.0308 -0.0257,-0.0361 -0.0564,-0.0408 -0.19572,-0.15871 -0.0258,-0.036 -0.0308,-0.008 -0.0308,-0.008 -0.0873,-0.0462 -0.0922,-0.0164 -0.0873,-0.0462 -0.12347,-0.0194 -0.24707,-0.038 -0.63196,-0.009 -0.0307,-0.008 -0.008,0.0307 -0.0308,-0.008 -0.0565,-0.0409 -0.0616,-0.01 -0.0565,-0.0408 -0.0724,-0.13853 -0.0771,-0.10788 -0.0464,-0.1026 -0.0153,-0.0977 0.008,-0.0308 0.046,-0.0873 0.13278,-0.23158 0.12256,-0.16992 0.18457,-0.1598 0.077,-0.0823 0.008,-0.0308 0.0717,-0.0516 0.11789,-0.13895 0.036,-0.0257 0.008,-0.0308 0.14859,-0.13396 0.0408,-0.0565 0.008,-0.0308 0.071,-0.24171 -0.0108,-0.12843 0.008,-0.0307 -0.0981,-0.17435 -0.0623,-0.20033 -0.0515,-0.0716 -0.15987,-0.18456 -0.0823,-0.0772 -0.0154,-0.0979 -0.12384,-0.21016 -0.18561,-0.22049 -0.10319,-0.14356 -0.0256,-0.0362 -0.16992,-0.12266 -0.1082,-0.11258 -0.10826,-0.11252 0.008,-0.0308 -0.0257,-0.0361 -0.0257,-0.0361 -0.0932,-0.20524 -0.0824,-0.077 0.01,-0.0616 0.01,-0.0616 0.008,-0.0307 0.051,-0.11834 0.11792,-0.13908 0.38471,-0.22206 0.21032,-0.12384 0.19464,-0.22144 0.0715,-0.0517 0.0773,-0.0823 0.0308,0.008 0.01,-0.0618 0.10261,-0.0462 0.0461,-0.0874 0.036,-0.0256 0.077,-0.0824 0.10782,-0.0772 0.13345,-0.0414 -10e-4,-0.19022 0.006,-0.22089 -10e-4,-0.19012 0.008,-0.0307 -0.0109,-0.12845 -10e-4,-0.38014 -0.0153,-0.0977 0.006,-0.22097 0.0164,-0.0923 -0.0235,-1.01715 0.003,-0.60107 -0.0255,-0.0362 0.0193,-0.12351 -0.0153,-0.0976 0.008,-0.0308 0.01,-0.0616 -10e-4,-0.38016 -0.0153,-0.0977 0.008,-0.0307 0.01,-0.0617 -0.0153,-0.0977 0.008,-0.0308 0.008,-0.0308 -0.0109,-0.12846 0.01,-0.0614 -0.0154,-0.098 0.008,-0.0308 0.01,-0.0618 0.008,-0.0307 -0.004,-0.15918 -0.0279,-0.79626 0.0194,-0.12351 -0.009,-1.10961 0.007,-1.20228 0.002,-1.17132 0.012,-1.23309 -0.0208,-0.067 -10e-4,-0.38014 0.0199,-0.50347 -0.0117,-0.31863 -0.006,-0.72945 0.009,-0.4418 0.008,-0.0308 0.008,-0.0308 -0.0258,-0.0362 0.008,-0.0307 -0.0108,-0.12842 0.003,-0.6012 0.008,-0.0307 -0.009,-0.91953 -0.0117,-0.31856 0.008,-0.0307 -0.007,-0.34938 0.01,-0.0616 -0.001,-0.38015 -0.0116,-0.3186 -0.008,-1.29971 -0.0169,-0.47783 -0.0291,-1.17635 0.01,-0.0616 -0.007,-0.3493 -0.0116,-0.31859 0.01,-0.0616 0.008,-0.0308 -0.0163,-0.28771 0.01,-0.0616 0.01,-0.0616 0.01,-0.0616 -0.0208,-0.067 0.009,-0.25181 0.008,-0.0307 -0.001,-0.19015 -0.0207,-0.0672 0.0297,-0.56515 -0.0118,-0.50857 0.008,-0.0308 -0.0162,-0.2876 0.003,-0.41097 -0.0108,-0.12841 -0.004,-0.15925 0.0165,-1.2639 0.01,-0.0616 -0.002,-0.57026 -0.0161,-0.28769 0.003,-0.41095 0.003,-0.41097 0.003,-0.41108 0.0121,-1.23296 0.003,-0.41106 -9.8e-4,-0.57025 0.008,-0.0307 -0.0195,-1.42823 0.008,-0.0308 0.0197,-0.31335 0.008,-0.0308 -0.004,-0.15925 0.01,-0.0614 -0.026,-0.0363 0.029,-0.18525 0.008,-0.0307 -0.0308,-0.008 0.01,-0.0618 -0.007,-0.34926 0.012,-1.23299 10e-4,-0.98135 -10e-4,-0.19012 0.01,-0.0616 -8.98514,0.14367 -0.14943,-1.98789 z"
       id="IN-06"
       style="font-style:normal;font-weight:400;font-size:34.375px;font-family:'MS Shell Dlg 2';opacity:1;fill:#000000;fill-opacity:1;fill-rule:evenodd;stroke:#000000;stroke-width:0.33333385;stroke-linecap:square;stroke-linejoin:bevel;stroke-miterlimit:4;stroke-dasharray:none;stroke-opacity:1" />
    <path
       inkscape:connector-curvature="0"
       d="m 467.28116,421.2366 -0.005,5.44576 8.12715,-0.12586 0.0186,-6.10847 c -0.10567,-0.0576 -0.20912,-0.11413 -0.3241,-0.14814 -0.14776,-0.0766 -0.28424,0.0958 -0.41553,0.21702 -0.13135,0.12124 -0.27159,0.20844 -0.38019,10e-4 -0.17469,-0.26492 -0.3577,-0.61134 -0.67498,-0.71224 -0.12875,0.24663 -0.35995,0.41904 -0.66174,0.36669 -0.42441,0.0483 -0.93553,0.0539 -1.23697,0.39913 -0.11311,0.18456 -0.28501,0.22438 -0.44135,0.18105 -0.15631,-0.0434 -0.28509,-0.14781 -0.40145,-0.25583 -0.36271,-0.0962 -0.59394,-0.40187 -0.63407,-0.76875 -0.0645,-0.20351 -0.20687,-0.28874 -0.39137,-0.31744 -0.18447,-0.0287 -0.40168,0.002 -0.56516,-0.0297 -0.39064,0.12804 -0.68502,0.46421 -0.94829,0.76309 -0.30487,0.28993 -0.22771,0.7842 -0.49523,1.09048 -0.18112,0.0304 -0.38027,-3.3e-4 -0.57027,0.002 z"
       id="IN-07"
       style="font-style:normal;font-weight:400;font-size:34.375px;font-family:'MS Shell Dlg 2';opacity:1;fill:none;fill-opacity:1;fill-rule:evenodd;stroke:#000000;stroke-width:0.33333385;stroke-linecap:square;stroke-linejoin:bevel;stroke-miterlimit:4;stroke-dasharray:none;stroke-opacity:1" />
    <path
       inkscape:connector-curvature="0"
       d="m 467.21347,468.05984 -1.18919,-0.85981 -1.84482,-0.14369 -0.0911,-1.37651 -2.36961,-0.41978 -4e-5,-1.74158 -1.09448,-0.0841 0.0712,-1.98323 -1.44887,-0.0471 0.0743,-26.36575 1.21686,-0.27577 0.007,-2.75369 0,0 -0.0178,-0.85784 -8.29759,-0.18719 0.18974,-11.02042 -1.77304,-0.19521 0.0604,-2.30182 -7.3775,-0.005 0.59181,-4.96966 -2.62128,-0.4298 0.0215,0.25685 -0.003,0.41096 -0.0343,0.40598 -0.0175,1.26385 -0.0268,1.32568 -0.0199,0.31335 0.0208,0.0671 -0.0143,0.28257 -0.01,0.0616 -0.006,0.22091 -0.0164,0.0923 0.0154,0.0979 -0.003,0.41098 -0.0344,0.21606 0.0258,0.036 -0.0429,1.03788 0.002,0.76035 -0.0258,1.70578 -0.0242,0.34429 10e-4,0.19014 -0.006,0.22097 -0.003,0.411 -0.007,1.01205 -0.003,0.41101 -0.009,0.63191 3.3e-4,0.38011 -0.0439,0.84784 0.007,0.5394 0.0215,0.25687 -0.0388,0.81706 -0.008,0.82194 3.2e-4,0.38012 -0.0239,0.53446 0.0161,0.28767 -0.009,0.25186 0.004,0.15916 -0.0234,0.72451 -0.0164,0.0922 0.004,0.15928 -0.009,0.25184 -0.006,0.22086 0.0155,0.0977 -0.0148,0.47272 0.0161,0.28761 -0.008,0.0308 -0.008,0.0308 -0.0199,0.50346 -0.0406,1.98828 -0.0308,-0.008 -0.23161,-0.13265 -0.12267,0.16981 -0.008,0.0308 -0.0817,0.11327 -0.008,0.0308 -0.0308,-0.008 -0.28264,-0.0143 -0.22593,0.0263 -0.0308,-0.008 -0.1794,0.12902 -0.008,0.0307 -0.0307,-0.008 -0.008,0.0307 -0.008,0.0308 -0.10728,0.2675 -0.13798,0.26235 0.0628,0.39026 -0.008,0.0307 -0.008,0.0308 -0.008,0.0308 -0.036,0.0255 -0.01,0.0616 -0.23542,0.27811 0.0108,0.12841 0.0784,0.4879 0.0259,0.0359 0.0308,0.008 0.19619,0.34879 0.23666,0.1018 0.0779,0.29771 0.0887,0.4262 -0.0609,0.18001 -0.20477,0.28314 -0.051,0.11833 -0.36893,0.31959 -0.0308,-0.008 -0.30221,0.29878 -0.31297,0.17048 -0.13349,0.0415 -0.0253,0.15424 -0.0194,0.12346 -0.036,0.0255 -0.0569,0.33905 0.0315,0.19508 0.0262,0.22601 0.23711,0.29216 -0.0194,0.1235 0.0109,0.12843 -0.0164,0.0923 0.0516,0.0717 0.11329,0.0819 0.12342,0.0194 0.0415,0.13348 0.0258,0.0361 0.004,0.15918 0.0463,0.10261 0.0308,0.008 0.0823,0.0772 0.0872,0.0462 0.15424,0.0253 0.0308,0.008 0.0208,0.0667 0.13391,0.14859 0.0773,0.10789 0.0517,0.0717 0.21137,0.25622 -0.009,0.25183 -0.0343,0.40605 0.0936,0.39531 -0.01,0.0616 -0.19408,0.41153 -0.008,0.0308 0.007,0.34931 -0.008,0.0308 0.61729,0.29099 0.14908,0.0562 0.29332,0.14302 0.0823,0.0772 0.20127,0.31789 0.0308,0.008 0.0258,0.036 0.0517,0.0717 -0.0194,0.12348 -0.01,0.0614 -0.0511,0.11834 -0.0436,0.27788 -0.008,0.0308 -0.0344,0.21599 -0.008,0.0308 -0.19911,0.44232 -0.1486,0.13404 -0.22535,0.21644 -0.0194,0.12345 -0.0722,0.43148 -0.11727,0.32916 0.0464,0.10262 0.31896,0.17889 0.0257,0.036 0.20571,0.097 0.0426,0.51366 0.0155,0.0977 -0.0562,0.14918 -0.051,0.1183 0.0517,0.0717 0.0515,0.0717 0.53716,0.97461 -0.0143,0.28266 -0.008,0.0307 -0.0193,0.12348 -0.0194,0.12346 0.0527,0.45197 -0.0408,0.0567 -0.0819,0.11326 -0.046,0.0874 -0.087,0.14404 -0.0409,0.0565 -0.16882,0.25742 -0.0396,0.43668 -0.0193,0.12349 -0.036,0.0258 -0.16882,0.25741 -0.0356,0.0256 -0.0408,0.0564 -0.1026,0.0465 -0.21028,0.12383 -0.39534,0.0937 -0.66223,0.17663 -0.19966,0.25223 -0.31744,0.39134 -0.0408,0.0564 -0.0409,0.0566 -0.008,0.0308 -0.0164,0.0923 -0.006,0.22087 -0.0382,0.24707 -0.0762,0.27256 -0.0463,0.0871 -0.008,0.0308 0.0463,0.1024 0.0153,0.0979 0.0155,0.0978 -0.0462,0.0872 -0.067,0.0208 -0.036,0.0255 -0.0308,-0.008 -0.13348,0.0415 -0.0461,0.0872 -0.26583,0.46311 -0.006,0.22098 0.0154,0.0978 -0.008,0.0308 -0.0407,0.0565 -0.18396,0.34987 0.0992,0.5546 0.0416,0.1335 0.0108,0.12841 -0.0871,0.14401 -0.14354,0.10315 -0.3387,0.13454 -0.33302,0.29375 -0.47732,0.20688 -0.35436,0.0368 -0.10251,0.0466 -0.10259,0.0462 -0.0662,0.21088 -0.008,0.0307 0.001,0.19026 0.15978,0.18442 0.12395,0.21032 -0.0164,0.0922 -0.18456,0.15989 -0.0362,0.0256 -0.0307,-0.008 -0.0164,0.0923 -0.009,0.25183 -0.01,0.0614 -0.0193,0.12348 -0.0164,0.0923 -0.0193,0.12348 -0.19957,0.25226 -0.0409,0.0566 -0.0409,0.0566 -0.0817,0.11327 -0.046,0.0872 -0.35335,0.4172 -0.01,0.0616 -0.0308,-0.008 -0.008,0.0308 -0.40543,0.15525 -0.0307,-0.008 -0.13349,0.0416 -0.008,0.0307 -0.036,0.0256 -0.0362,0.0256 -0.31239,0.36058 -0.008,0.0307 -0.01,0.0616 -0.0408,0.0564 -0.12217,0.36002 -0.041,0.0566 -0.01,0.0616 -0.008,0.0307 0.0268,0.41611 -0.01,0.0617 -0.0344,0.21609 -0.12257,0.16985 -0.13852,0.0723 -0.19517,0.0315 -0.14905,-0.0562 -0.10318,-0.14355 -0.0825,-0.077 -0.14399,-0.0872 -0.1026,0.0465 -0.061,0.1799 -0.0872,0.14411 -0.046,0.0873 -0.11261,0.1082 -0.11788,0.13911 -0.0668,0.0208 -0.13345,0.0414 -0.14404,-0.0869 -0.0416,-0.13353 -0.0153,-0.0978 -0.10315,-0.14355 -0.18002,-0.061 -0.2002,0.0623 -0.008,0.0308 -0.24057,0.30886 -0.051,0.11835 0.0109,0.12843 0.10375,0.33364 -0.008,0.0307 -0.102,0.23667 -0.16375,0.22648 -0.036,0.0257 -0.0359,0.0258 -0.19023,10e-4 -0.14356,0.10316 -0.008,0.0307 -0.0408,0.0566 -0.0408,0.0565 -0.092,0.17505 0.004,0.15918 -0.029,0.18525 0.16532,0.34369 0.38136,0.37915 0.47875,0.36343 0.17497,0.0918 0.067,0.16934 0.0308,0.008 0.0515,0.0716 -0.0164,0.0923 0.0153,0.0977 0.0109,0.1284 -0.1126,0.10824 -0.0819,0.11326 -0.1179,0.13907 -0.0361,0.0257 -0.1125,0.10825 -0.0362,0.0256 -0.0461,0.0875 -0.0307,-0.008 -0.42618,0.0885 -0.19519,0.0315 -0.369,0.31955 -0.0772,0.0823 -0.15363,0.16483 0.0421,0.32358 0.0464,0.1024 0.0208,0.067 0.18554,0.22026 0.0264,0.22606 -0.11731,0.32916 -0.33855,0.13444 -0.10801,0.0771 -0.23102,0.057 -0.10181,0.23665 -0.0308,-0.008 -0.008,0.0307 -0.0561,0.14906 -0.029,0.18537 -0.01,0.0614 0.073,0.32867 0.0155,0.0977 0.26964,0.8675 -0.0199,0.31345 -0.12269,0.16987 -0.23039,0.24721 -0.12806,0.20075 -0.0668,0.0208 -0.16813,0.44749 0.0208,0.0669 0.11373,0.27196 -0.008,0.0308 0.13464,0.33863 -0.0344,0.21609 -0.0718,0.0517 -0.17941,0.12898 -0.14858,0.13395 -0.0462,0.0874 -0.0409,0.0565 -0.0562,0.14916 -0.0611,0.18 0.047,0.29263 0.057,0.23108 0.0564,0.0408 0.0517,0.0718 0.0823,0.0771 0.0416,0.13348 -0.0253,0.15423 -0.11261,0.10825 -0.0509,0.11834 -0.0194,0.12344 0.0108,0.12845 0.0516,0.0717 -0.008,0.0307 0.0517,0.0719 0.0307,0.008 0.11833,0.0509 0.24172,0.071 0.0155,0.0978 0.16432,-0.0363 0.12842,-0.0109 0.21596,0.0344 0.17495,0.092 0.0874,0.046 0.0516,0.0717 0.0872,0.0462 0.0616,0.01 0.17496,0.0918 0.10822,0.11258 0.0208,0.067 0.0825,0.0771 0.15977,0.18444 0.15428,0.0253 0.0922,0.0164 0.0408,-0.0564 0.0359,-0.0258 0.0409,-0.0564 0.11206,-0.29829 0.0716,-0.0517 0.01,-0.0616 0.0164,-0.0923 0.01,-0.0617 0.0362,-0.0255 0.0308,0.008 0.0358,-0.0255 0.0358,-0.0259 0.20031,-0.0623 0.16924,-0.0672 0.10799,-0.0771 0.0561,-0.14909 0.0193,-0.1235 -0.0632,-0.58034 -0.0672,-0.16939 -0.0981,-0.17431 -0.27306,-0.26644 -0.21136,-0.25624 -0.0208,-0.0669 -0.0208,-0.067 -0.0208,-0.0671 0.008,-0.0307 -0.0207,-0.0672 0.008,-0.0307 0.008,-0.0308 -0.0208,-0.0671 0.008,-0.0307 0.0164,-0.0923 0.0461,-0.0873 0.0362,-0.0257 0.008,-0.0307 0.11789,-0.13901 0.0717,-0.0518 0.008,-0.0307 0.036,-0.0256 0.12278,-0.16996 0.0408,-0.0565 0.28158,-0.36562 0.0358,-0.0257 0.0363,-0.0256 0.13853,-0.0724 0.0974,-0.0153 0.0308,0.008 0.0922,0.0164 0.11834,0.0509 0.0308,0.008 0.0872,0.0463 0.0824,0.077 0.0307,0.008 0.0208,0.067 0.0823,0.077 0.0568,0.0409 0.0462,0.10248 0.0879,0.23615 0.0209,0.0668 0.25236,0.19969 0.0255,0.0362 0.0725,0.13852 -0.0194,0.12347 0.0255,0.0359 0.0825,0.0772 0.0823,0.0771 0.0308,0.008 0.0307,0.008 0.12347,0.0194 0.22097,0.006 0.0616,0.01 0.0923,0.0164 0.28761,-0.0163 0.12349,0.0194 0.10249,-0.0462 0.0361,-0.0258 0.0308,0.008 0.077,-0.0823 0.14356,-0.10316 0.0408,-0.0565 0.21039,-0.12381 0.13348,-0.0416 0.0615,0.01 0.16435,-0.0363 0.1284,-0.0108 0.12844,-0.0109 0.0308,0.008 0.11832,0.0511 0.0616,0.01 0.0308,0.008 0.0308,0.008 0.0977,-0.0155 0.16432,-0.0363 0.20513,-0.0931 0.24117,-0.11879 0.0307,0.008 0.0364,-0.0257 0.036,-0.0257 0.0307,0.008 0.0616,0.01 0.0308,0.008 0.0307,0.008 0.0616,0.01 0.11325,0.0819 0.10825,0.11251 0.0208,0.067 0.057,0.23103 -0.0164,0.0922 -0.0253,0.15427 -0.0408,0.0563 -0.0771,0.0824 -0.10789,0.0773 -0.0461,0.0872 -0.13809,0.26243 -0.0143,0.28259 0.0365,0.16423 0.0153,0.0979 0.0772,0.10792 -0.008,0.0308 0.0258,0.0358 0.0307,0.008 0.0259,0.0362 0.0308,0.008 0.0565,0.0408 0.0308,0.008 0.0308,0.008 0.15416,0.0253 0.0307,0.008 0.0618,0.01 0.0923,0.0164 0.0977,-0.0154 0.19026,-10e-4 0.0307,0.008 0.036,-0.0257 0.0308,0.008 0.19517,-0.0314 0.17435,-0.0981 0.0308,0.008 0.008,-0.0308 0.0308,0.008 0.036,-0.0258 0.11801,-0.13896 0.0361,-0.0257 0.16884,-0.25741 0.0463,-0.0875 0.11259,-0.10822 0.0561,-0.14918 0.006,-0.22088 -10e-4,-0.19014 -0.0416,-0.13349 -10e-4,-0.19011 -0.13396,-0.14859 -0.0824,-0.0772 -0.0307,-0.008 -0.14411,-0.0871 -0.21643,-0.22544 -0.0308,-0.008 0.008,-0.0307 -0.0515,-0.0718 -0.0257,-0.0362 -0.0416,-0.13351 -0.0256,-0.0359 -0.0464,-0.1026 0.0193,-0.12348 -0.0258,-0.0359 0.0919,-0.17506 0.12253,-0.16982 0.21546,-0.15483 0.087,-0.14404 0.0764,-0.27242 -0.0209,-0.067 -0.0154,-0.0977 0.008,-0.0308 0.008,-0.0307 0.036,-0.0255 0.051,-0.11833 0.1078,-0.0773 0.067,-0.0208 0.0923,0.0164 0.0308,0.008 0.0307,0.008 0.1183,0.0509 0.0515,0.0718 0.0771,0.1078 0.0416,0.13349 -0.0253,0.15422 -0.01,0.0616 0.0621,0.20017 -0.008,0.0308 0.067,0.16926 0.0517,0.0716 0.0307,0.008 0.0463,0.10242 0.0771,0.10789 0.0308,0.008 0.0823,0.0771 0.0518,0.0717 0.0564,0.0408 0.0873,0.0462 0.28819,0.17387 0.0617,0.01 0.2058,0.097 0.1906,0.1895 0.0975,-0.0154 0.0308,0.008 0.008,-0.0307 0.10249,-0.0464 0.25638,-0.21134 0.0359,-0.0255 0.0409,-0.0565 0.0771,-0.0824 0.0308,0.008 0.25632,-0.21134 0.10788,-0.0772 0.28207,-0.17554 0.0358,-0.0255 0.036,-0.0258 0.036,-0.0257 0.26188,-0.0524 0.19016,-10e-4 0.0923,0.0164 0.0977,-0.0155 0.0308,0.008 0.0614,0.01 0.0308,0.008 0.0616,0.01 0.11831,0.0511 0.0616,0.01 0.0308,0.008 0.21072,0.0663 -0.008,0.0307 0.1235,0.0194 0.14914,0.056 0.13899,0.11799 0.0308,0.008 -0.008,0.0308 0.18559,0.22047 0.0566,0.0408 0.0616,0.01 0.0824,0.0772 0.0259,0.036 0.0256,0.0358 0.13907,0.11798 0.0308,0.008 0.0564,0.0408 0.14919,0.0561 0.0308,0.008 0.0615,0.01 0.24174,0.071 0.0874,0.0462 0.32414,0.14802 0.59202,0.44526 0.0564,0.0408 0.0569,0.0409 -0.008,0.0308 0.0307,0.008 0.0257,0.0362 0.0771,0.1079 0.0257,0.0356 0.16483,0.15368 0.76705,0.53729 0.17989,0.061 0.24173,0.0709 0.49334,0.0814 0.19023,-10e-4 0.15412,0.0253 0.0307,0.008 0.0825,0.0771 0.10316,0.14352 0.0307,0.008 -0.008,0.0308 0.021,0.0667 0.22202,0.38477 0.0879,0.23599 0.11925,0.43126 0.0671,0.16928 0.0256,0.0359 0.0308,0.008 0.0922,0.0164 0.0875,0.0462 0.0616,0.01 0.0308,0.008 0.0666,-0.021 0.0308,0.008 0.23096,-0.057 0.16936,-0.0671 0.0308,0.008 0.14864,-0.13403 0.14355,-0.10316 0.0771,-0.0823 0.0718,-0.0516 0.008,-0.0307 0.0361,-0.0257 0.008,-0.0308 0.008,-0.0308 0.008,-0.0307 0.0307,0.008 0.0511,-0.11828 0.17343,-0.47826 0.0663,-0.21088 0.0437,-0.27778 0.038,-0.24704 0.0611,-0.18001 0.11208,-0.29829 0.0193,-0.12349 0.008,-0.0307 -0.0108,-0.12843 -0.0154,-0.0977 -0.0208,-0.0668 -0.0257,-0.036 0.01,-0.0615 0.008,-0.0308 0.01,-0.0616 0.008,-0.0308 0.008,-0.0308 0.0462,-0.0873 0.0363,-0.0257 0.0771,-0.0824 0.0409,-0.0568 0.036,-0.0256 0.008,-0.0307 0.0358,-0.0258 0.28711,-0.2063 0.036,-0.0258 0.17953,-0.12888 0.16937,-0.0671 0.53884,-0.19671 0.20518,-0.0932 0.0923,0.0164 0.0307,0.008 0.44696,-0.0217 0.23092,-0.057 0.1235,0.0193 0.0668,-0.0208 0.13345,-0.0414 0.036,-0.0257 0.13851,-0.0725 0.1026,-0.0464 0.036,-0.0259 0.0773,-0.0824 0.23543,-0.27799 0.16375,-0.22654 0.0772,-0.0824 0.1125,-0.10828 0.11259,-0.10821 0.0819,-0.11328 0.0771,-0.0825 0.1795,-0.1289 0.14356,-0.10318 0.29779,-0.0778 0.27701,-0.14463 0.067,-0.0209 0.0308,0.008 0.0616,0.01 0.0307,0.008 0.0308,0.008 0.0566,0.0409 0.0874,0.0462 0.0566,0.0408 0.0872,0.046 0.14402,0.087 0.0831,0.26691 0.0315,0.19509 0.0308,0.008 0.083,0.26692 0.0672,0.16935 0.0257,0.0362 0.0671,0.16929 0.0257,0.0359 0.0208,0.0672 0.0773,0.10781 0.0623,0.20021 0.0516,0.0717 -0.008,0.0308 0.17555,0.28205 0.0515,0.0716 -0.008,0.0308 0.10316,0.14352 0.10314,0.14358 0.0771,0.10778 0.0772,0.108 0.0257,0.0356 0.0517,0.0717 0.0308,0.008 0.0515,0.0717 0.18527,0.029 0.0307,0.008 0.0308,0.008 0.0308,0.008 0.0362,-0.0258 0.0362,-0.0256 0.20533,-0.0932 0.0768,-0.0825 0.25632,-0.21133 0.14861,-0.13397 0.10261,-0.0464 0.19004,-10e-4 0.0308,0.008 0.2417,0.071 0.21597,0.0344 0.0308,0.008 -0.008,0.0308 0.0256,0.036 0.0307,0.008 0.0259,0.0361 -0.008,0.0307 0.0257,0.0359 0.021,0.0667 0.0108,0.12846 -0.0164,0.0923 -0.10189,0.23665 -0.20412,0.4732 -0.0918,0.17486 -0.029,0.18538 0.0315,0.19505 0.0722,0.13852 0.0517,0.0718 0.0922,0.0164 0.0922,0.0164 0.19529,-0.0315 0.10238,-0.0462 0.20524,-0.0932 0.21536,-0.15484 0.13851,-0.0723 0.1078,-0.0771 0.13807,-0.26242 0.01,-0.0616 0.008,-0.0307 -0.0463,-0.10251 0.0253,-0.15418 0.0194,-0.12346 -0.0475,-0.48282 -0.0109,-0.12847 0.0561,-0.14903 0.0409,-0.0568 0.008,-0.0307 0.18951,-0.19068 0.036,-0.0257 0.12844,-0.0108 0.31351,0.0199 0.3908,0.12722 0.12346,0.0194 0.0616,0.01 0.12843,-0.0108 0.13347,-0.0416 0.0672,-0.0208 0.13854,-0.0724 0.17435,-0.0981 0.036,-0.0257 0.0409,-0.0566 0.0408,-0.0565 -0.004,-0.15917 -0.0416,-0.13349 -0.0258,-0.0362 0.008,-0.0308 -0.0773,-0.10778 -0.13393,-0.1486 -0.0208,-0.0669 -0.0625,-0.20022 -0.0315,-0.19518 -0.001,-0.38013 -0.0217,-0.44686 0.009,-0.25187 0.0253,-0.15423 -0.001,-0.19003 -0.0215,-0.25688 0.008,-0.0308 0.0711,-0.2417 0.077,-0.0823 0.0409,-0.0566 0.13346,-0.0414 0.22603,-0.0264 0.22095,0.006 0.22087,0.006 0.19521,-0.0315 0.43113,-0.11929 0.32811,-0.26302 0.12258,-0.16984 0.008,-0.0308 0.008,-0.0308 0.0437,-0.27777 -0.0879,-0.23613 -0.26233,-0.13799 -0.29329,-0.14269 -0.10315,-0.14357 -0.0363,-0.16432 -10e-4,-0.19014 0.0561,-0.14907 0.0361,-0.0258 0.11258,-0.10821 0.14355,-0.10316 0.40074,0.0664 0.0308,0.008 0.0823,0.0769 0.16493,0.15368 0.0614,0.01 0.2631,0.32804 0.0614,0.01 0.13852,-0.0724 0.061,-0.18001 0.1427,-0.2933 0.14861,-0.13403 0.1026,-0.0463 0.52415,0.0864 0.35446,-0.0369 0.0307,0.008 0.10791,-0.0773 0.0356,-0.0258 0.008,-0.0307 0.11799,-0.13904 -0.0264,-0.22592 -0.0624,-0.20031 0.0509,-0.11833 0.0771,-0.0823 z"
       id="IN-08"
       style="font-style:normal;font-weight:400;font-size:34.375px;font-family:'MS Shell Dlg 2';opacity:1;fill:none;fill-opacity:1;fill-rule:evenodd;stroke:#000000;stroke-width:0.33333385;stroke-linecap:square;stroke-linejoin:bevel;stroke-miterlimit:4;stroke-dasharray:none;stroke-opacity:1" />
    <path
       inkscape:connector-curvature="0"
       d="m 486.97426,456.06427 -1.8868,-0.46724 -4.41345,-0.12093 -0.0626,-2.13194 -0.89396,-0.1485 -0.64019,-1.11814 -1.48013,-0.2435 1.16709,-1.51885 -0.14047,-7.84453 -1.33351,0.79496 -4.695,0.24447 -0.0914,-8.72326 2.8407,-0.13653 0.0593,-8.09685 -8.12715,0.12587 0,0 -0.34928,0.007 0.0624,2.13193 -2.87207,-0.0586 0.0718,1.69013 -2.35343,-0.13199 -0.001,-0.38013 -0.70384,0.0431 0.1059,1.09389 1.34181,0.31478 0.0174,0.66777 -2.05007,-0.0507 -0.008,2.75367 -1.21686,0.2758 -0.0743,26.36573 1.44886,0.0481 -0.0712,1.98321 1.09451,0.084 4e-5,1.74159 2.36962,0.41977 0.0911,1.37654 1.84482,0.14369 1.18919,0.85979 0.0409,-0.0566 0.13853,-0.0723 0.0978,-0.0154 0.0973,-0.0154 0.37069,0.25063 0.19621,0.3489 0.15474,0.21523 10e-4,0.19023 -0.008,0.0307 -0.0253,0.15416 -0.0253,0.15422 -0.008,0.0308 -0.0617,0.36993 -0.0253,0.15413 -0.008,0.0307 -0.009,0.25183 0.11986,0.62131 0.0208,0.0671 0.12394,0.21029 0.10316,0.14357 0.0307,0.008 0.1699,0.12267 0.0823,0.077 0.35491,0.15333 0.15989,0.18444 0.13391,0.14863 0.31911,0.17889 0.0875,0.0462 0.0308,0.008 0.0872,0.0462 0.0308,0.008 0.0872,0.046 0.0258,0.036 0.23663,0.102 0.14911,0.056 0.0668,-0.0208 0.0616,0.01 0.0671,-0.0208 0.23094,-0.057 0.0667,-0.0209 0.16424,-0.0364 0.0359,-0.0256 0.12345,0.0194 0.0672,-0.0208 0.0307,0.008 0.0307,0.008 0.0673,-0.0208 0.12349,0.0194 0.0615,0.01 0.0308,0.008 0.21076,0.0663 0.21086,0.0663 0.0307,0.008 -0.008,0.0307 0.0308,0.008 0.20569,0.0971 -0.008,0.0308 0.0308,0.008 0.0564,0.0408 0.0257,0.036 0.0308,0.008 0.0771,0.10789 0.0308,0.008 0.0516,0.0716 -0.0409,0.0566 0.0723,0.13853 0.0932,0.20524 0.0723,0.13851 -0.008,0.0308 0.0569,0.0408 0.0208,0.0667 0.0256,0.036 0.0824,0.0771 0.0515,0.0717 0.0257,0.0358 0.0563,0.0408 0.0258,0.0362 0.0259,0.0361 0.0307,0.008 0.0307,0.008 0.0308,0.008 0.0308,0.008 0.0668,-0.0209 0.0308,0.008 0.008,-0.0308 0.0364,-0.0256 0.008,-0.0307 0.008,-0.0308 0.0357,-0.0256 0.008,-0.0307 0.0253,-0.15417 -0.047,-0.29274 0.008,-0.0308 -0.0208,-0.0667 0.0362,-0.0257 0.0194,-0.12348 0.0308,0.008 0.008,-0.0308 0.0361,-0.0255 0.008,-0.0307 0.0666,-0.0209 0.13853,-0.0722 0.2669,-0.083 0.22605,-0.0265 0.0359,-0.0255 0.45708,-0.0834 0.38523,-0.032 0.0978,-0.0153 0.0308,0.008 0.036,-0.0258 0.0361,-0.0257 0.0308,0.008 0.17445,-0.0981 0.036,-0.0255 0.11261,-0.10824 0.077,-0.0825 0.0873,-0.14399 0.0307,0.008 0.008,-0.0307 0.0561,-0.14916 0.0462,-0.0874 0.0253,-0.15424 -0.0155,-0.0977 0.0569,-0.33903 0.008,-0.0307 -0.001,-0.19023 0.008,-0.0307 0.046,-0.0875 0.008,-0.0307 0.008,-0.0307 0.0253,-0.15422 0.15323,-0.3549 0.008,-0.0308 0.0382,-0.24704 -0.0108,-0.12838 -0.0118,-0.31847 -0.004,-0.15926 -0.0839,-0.64711 0.003,-0.60107 0.20415,-0.4732 0.008,-0.0308 0.0561,-0.14914 0.0817,-0.11331 0.29158,-0.42721 0.14355,-0.10314 0.11799,-0.13905 0.29212,-0.23711 0.0359,-0.0256 0.0719,-0.0517 0.008,-0.0307 0.11792,-0.13898 0.008,-0.0308 0.008,-0.0308 0.0409,-0.0563 0.0918,-0.17508 -10e-4,-0.19001 0.01,-0.0617 0.01,-0.0616 0.01,-0.0617 -0.0256,-0.0356 0.0164,-0.0923 0.081,-0.30329 0.0461,-0.0874 0.0562,-0.14906 0.14352,-0.10315 0.1694,-0.0671 0.12842,-0.0108 0.16422,-0.0364 0.13347,-0.0414 0.0408,-0.0569 0.067,-0.0208 0.25184,0.009 0.0564,0.0408 0.0923,0.0164 0.15979,0.18444 -0.01,0.0618 0.13406,0.14859 0.20065,0.12794 0.0308,0.008 0.12351,0.0194 0.0716,-0.0515 0.0673,-0.0208 0.13857,-0.0723 0.14355,-0.10317 0.20513,-0.0931 0.1126,-0.10821 0.17435,-0.0981 0.10257,-0.0463 0.28205,-0.17543 0.0667,-0.021 0.14863,-0.13404 0.008,-0.0307 0.036,-0.0256 0.046,-0.0874 0.0919,-0.17492 0.0364,-0.0257 0.0408,-0.0564 0.11799,-0.13905 0.008,-0.0308 0.008,-0.0307 0.087,-0.14403 0.0308,0.008 0.008,-0.0308 0.0561,-0.14916 0.008,-0.0308 0.0662,-0.21088 0.0407,-0.0564 0.0194,-0.12347 0.10739,-0.26745 0.0194,-0.12351 0.0193,-0.12347 0.008,-0.0308 -0.0163,-0.2876 0.0164,-0.0923 0.008,-0.0307 0.01,-0.0617 0.0813,-0.30338 0.008,-0.0307 0.0462,-0.0874 0.0164,-0.0923 0.008,-0.0308 0.15326,-0.35488 0.036,-0.0255 0.008,-0.0308 0.0164,-0.0922 0.008,-0.0308 0.008,-0.0308 0.26572,-0.46317 0.0773,-0.0823 0.38462,-0.22206 0.27194,-0.11374 0.28267,0.0143 0.19511,-0.0315 0.22598,-0.0262 0.12844,-0.0109 0.23106,-0.057 0.0358,-0.0257 0.10249,-0.0463 0.0716,-0.0517 0.0977,-0.0155 0.17434,-0.0981 0.10259,-0.0462 0.0362,-0.0259 0.15365,-0.16483 0.20981,-0.31405 0.008,-0.0308 0.008,-0.0307 0.029,-0.18532 0.036,-0.0257 0.008,-0.0308 0.01,-0.0617 0.087,-0.14405 0.0409,-0.0566 0.0409,-0.0566 0.0409,-0.0566 0.036,-0.0257 0.0668,-0.0208 0.0359,-0.0258 0.077,-0.0824 0.37454,-0.16042 0.17445,-0.0981 0.17952,-0.12888 0.046,-0.0874 0.13274,-0.23159 0.008,-0.0307 0.0253,-0.15415 0.009,-0.25187 0.006,-0.22097 -0.0308,-0.008 0.008,-0.0307 -0.0832,-0.26691 -0.19619,-0.3489 z"
       id="IN-09"
       style="font-style:normal;font-weight:400;font-size:34.375px;font-family:'MS Shell Dlg 2';opacity:1;fill:none;fill-opacity:1;fill-rule:evenodd;stroke:#000000;stroke-width:0.33333385;stroke-linecap:square;stroke-linejoin:bevel;stroke-miterlimit:4;stroke-dasharray:none;stroke-opacity:1" />
  </g>
</svg>
