<?xml version="1.0" encoding="UTF-8" standalone="no"?>
<!-- Created with Inkscape (http://www.inkscape.org/) -->

<svg
   xmlns:dc="http://purl.org/dc/elements/1.1/"
   xmlns:cc="http://creativecommons.org/ns#"
   xmlns:rdf="http://www.w3.org/1999/02/22-rdf-syntax-ns#"
   xmlns:svg="http://www.w3.org/2000/svg"
   xmlns="http://www.w3.org/2000/svg"
   xmlns:sodipodi="http://sodipodi.sourceforge.net/DTD/sodipodi-0.dtd"
   xmlns:inkscape="http://www.inkscape.org/namespaces/inkscape"
   width="43.746086mm"
   height="38.647152mm"
   viewBox="0 0 155.00583 136.93873"
   id="svg12983"
   version="1.1"
   inkscape:version="0.91 r"
   sodipodi:docname="8.svg">
  <defs
     id="defs12985" />
  <sodipodi:namedview
     id="base"
     pagecolor="#ffffff"
     bordercolor="#666666"
     borderopacity="1.0"
     inkscape:pageopacity="0.0"
     inkscape:pageshadow="2"
     inkscape:zoom="5.6364934"
     inkscape:cx="45.615173"
     inkscape:cy="68.977725"
     inkscape:document-units="px"
     inkscape:current-layer="layer1"
     showgrid="false"
     fit-margin-top="1"
     fit-margin-left="1"
     fit-margin-right="1"
     fit-margin-bottom="1"
     inkscape:window-width="2560"
     inkscape:window-height="1388"
     inkscape:window-x="0"
     inkscape:window-y="0"
     inkscape:window-maximized="1" />
  <metadata
     id="metadata12988">
    <rdf:RDF>
      <cc:Work
         rdf:about="">
        <dc:format>image/svg+xml</dc:format>
        <dc:type
           rdf:resource="http://purl.org/dc/dcmitype/StillImage" />
        <dc:title></dc:title>
      </cc:Work>
    </rdf:RDF>
  </metadata>
  <g
     inkscape:label="Layer 1"
     inkscape:groupmode="layer"
     id="layer1"
     transform="translate(-405.26226,-447.95804)">
    <path
       inkscape:connector-curvature="0"
       d="m 531.87229,501.71091 c -0.17376,-0.17263 -0.30663,-0.41143 -0.56365,-0.3913 -0.37307,-0.0498 -0.69216,0.30791 -1.05079,0.19583 -0.38659,-0.15377 -0.82147,-0.22796 -1.08023,-0.59049 -0.25533,-0.30083 -0.78139,-0.30926 -0.81318,-0.78796 -0.0272,-0.23112 -0.16096,-0.35851 -0.343,-0.40449 -0.18205,-0.0461 -0.39139,-0.0175 -0.56318,-0.0148 -0.45353,0.0954 -0.76002,0.52418 -0.70741,0.97651 -0.0462,0.17279 -0.0731,0.40648 -0.17321,0.58157 -0.10026,0.17507 -0.24236,0.27748 -0.48763,0.21075 -0.42354,0.12121 -0.74709,-0.27224 -1.13959,-0.25043 -0.34683,0.18612 -0.59416,0.52528 -0.76201,0.87793 -0.21796,0.39094 -0.22747,0.85202 -0.29442,1.29281 0.20128,-0.094 0.30213,-0.16491 0.54999,-0.20562 0.28245,-0.0464 0.56279,0.10884 0.83577,0.1313 0.32367,0.027 0.68728,0.0574 0.86435,0.16521 0.12464,0.0757 -0.28433,0.76264 -0.31572,0.78927 -0.13546,0.11477 -0.70966,-0.007 -0.87974,0.0215 -0.41438,0.0681 -0.33619,0.27549 -0.57816,0.54826 -0.009,0.0106 0.75978,0.12526 0.83583,0.13143 0.26586,0.0223 0.28622,0.43985 0.53547,0.73385 0.16128,0.19005 0.4021,0.20092 0.53491,0.35753 0.12631,0.14894 0.74608,0.11259 0.92421,0.20141 0.15971,0.0796 0.0544,0.47997 0.0397,0.66176 -0.0245,0.30011 0.0142,0.58856 6.2e-4,0.75261 -0.01,0.11671 0.21464,0.212 0.44162,0.34976 0.22687,0.13785 0.44472,0.31097 0.4236,0.56792 -0.0282,0.34284 0.0595,0.48622 0.15908,0.7342 0.058,0.14413 0.47653,0.14473 0.79961,0.19117 l 0.1113,-0.21029 0.004,-0.0312 0.0335,-0.0285 0.1088,-0.17919 0.004,-0.0312 0.0698,-0.0882 0.0386,-0.0909 0.29015,-0.47783 0.0336,-0.0286 0.0674,-0.0571 0.0649,-0.026 0.1374,-0.14552 0.0674,-0.0572 0.0335,-0.0285 0.0675,-0.0572 0.0335,-0.0285 0.10629,-0.148 0.0724,-0.11945 0.11402,-0.24146 0.0386,-0.091 0.004,-0.0312 0.0467,-0.18439 0.0568,-0.30878 0.0414,-0.12202 -0.0133,-0.22063 0.004,-0.0312 -0.0861,-0.47746 -0.0286,-0.0335 -0.0209,-0.12714 -0.0755,-0.22572 0.004,-0.0312 -0.0546,-0.0985 -0.026,-0.065 -0.14041,-0.1997 -0.0571,-0.0674 -0.0858,-0.10108 -0.16629,-0.26452 -0.0756,-0.22575 -0.0156,-0.18943 0.01,-0.0933 0.0415,-0.12203 0.10881,-0.17929 0.27733,-0.32207 0.16591,-0.11177 0.1425,-0.20771 0.0414,-0.12203 0.005,-0.0624 0.0387,-0.0909 0.0387,-0.0909 0.10878,-0.17931 0.39935,-0.28061 0.50809,-0.45991 0.11141,-0.21039 0.01,-0.12461 z"
       id="MO-01"
       style="font-style:normal;font-weight:400;font-size:34.375px;font-family:'MS Shell Dlg 2';opacity:1;fill:none;fill-opacity:1;fill-rule:evenodd;stroke:#000000;stroke-width:0.33333385;stroke-linecap:square;stroke-linejoin:bevel;stroke-miterlimit:4;stroke-dasharray:none;stroke-opacity:1" />
    <path
       inkscape:connector-curvature="0"
       d="m 529.06526,509.53842 c -0.32308,-0.0464 -0.74174,-0.0471 -0.79962,-0.19118 -0.0994,-0.24798 -0.18727,-0.39135 -0.15908,-0.73419 0.0222,-0.25688 -0.19672,-0.43007 -0.42359,-0.56792 -0.22698,-0.13776 -0.45122,-0.23306 -0.44163,-0.34976 0.0139,-0.16403 -0.0255,-0.45251 -6.2e-4,-0.7526 0.0145,-0.18182 0.12016,-0.58212 -0.0397,-0.66178 -0.17812,-0.0888 -0.79789,-0.0524 -0.92421,-0.2014 -0.1328,-0.15661 -0.37362,-0.16748 -0.53491,-0.35752 -0.24925,-0.29401 -0.26955,-0.712 -0.53547,-0.73386 -0.076,-0.005 -0.84534,-0.12072 -0.83583,-0.13143 0.24196,-0.27277 0.16379,-0.48008 0.57816,-0.54826 0.17008,-0.028 0.74428,0.0931 0.87974,-0.0217 0.0316,-0.0267 0.44035,-0.71362 0.31574,-0.78927 -0.17709,-0.10757 -0.54067,-0.13849 -0.86437,-0.1652 -0.27297,-0.0229 -0.55332,-0.17774 -0.83576,-0.13131 -0.24785,0.0406 -0.34871,0.11163 -0.55,0.20563 0,0 0,0 0,0 -0.17727,0.0827 -0.47138,0.21349 -0.48502,0.17955 -0.0284,-0.0707 0.0348,-0.93257 -0.10762,-0.98079 -0.28757,-0.0976 -0.36349,-0.0555 -0.37883,0.0316 -0.0157,0.0867 0.0112,0.22272 -0.12158,0.33496 -0.17786,0.15084 -0.25106,0.27978 -0.37328,0.34558 -0.12229,0.0657 -0.26929,0.0768 -0.53206,-0.0126 -0.31235,-0.10601 -0.52183,-0.1369 -0.86436,-0.16507 -0.36462,-0.0298 -0.85671,0.008 -1.111,-0.21677 -0.10119,-0.0897 -0.36922,-0.68004 -0.4159,-0.6613 -0.47128,0.18912 -0.20457,0.72959 -0.47664,0.83876 -0.17919,0.072 -0.38975,0.0934 -0.69542,0.0683 -0.23762,-0.0192 -0.55995,-0.054 -0.58109,0.20307 -0.0239,0.28973 0.1827,0.54812 -0.0435,0.52954 -0.35539,-0.029 -0.47448,0.16225 -0.6301,0.41846 -0.22562,0.37144 -0.23641,0.58609 -0.27149,1.01247 -0.0313,0.3789 0.008,0.46627 0.0837,0.50855 0.0764,0.0424 0.17641,0.0571 0.29364,0.24358 0.0892,0.14221 0.27031,0.47586 0.45734,0.53929 0.17931,0.0609 0.46716,0.12205 0.70092,0.24575 0.11221,0.0594 0.008,0.013 0.11946,0.0726 l 0.0725,4.45841 c 0.28651,0.0823 0.68337,0.46395 0.98162,0.64511 0.16621,0.10084 0.20691,0.20374 0.25989,0.27221 0.0529,0.0685 0.10035,0.0886 0.25428,-0.0419 0.082,-0.0694 0.056,-0.6827 0.0667,-0.80976 0.0298,-0.36379 0.39282,-0.34397 0.68484,-0.31995 0.1321,0.01 0.24684,0.21223 0.34811,0.34217 0.10121,0.12991 0.19623,0.17647 0.29051,-0.10155 0.12305,-0.36263 0.036,-0.51115 0.39898,-0.65702 0.0438,-0.0175 0.0676,-0.0863 0.10362,-0.1169 0.37158,0.0302 0.77353,0.0331 1.15498,0.0636 0.36419,0.0297 0.29785,0.11205 0.47525,0.32132 0.20108,0.23708 0.39384,0.28321 0.69582,0.30805 0.22043,0.0183 0.36971,0.23097 0.47271,0.35241 0.10601,0.12503 0.16881,0.51316 0.19539,0.67448 0.0472,0.28725 0.56226,0.1847 0.7505,0.40668 0.11671,0.1376 0.48415,0.37572 0.68044,0.49491 0.27276,0.16561 0.30971,0.0577 0.50902,0.2927 0.10557,0.12456 0.22336,0.26337 0.34302,0.40445 l 0.0363,-0.0598 0.0362,-0.0598 0.31109,-0.35069 0.13482,-0.11433 0.20991,-0.26498 0.34988,-0.44153 0.004,-0.0312 0.11894,-0.30368 0.0337,-0.0287 0.0364,-0.0598 0.005,-0.0623 0.049,-0.2154 0.0135,-0.15573 0.005,-0.0623 0.0645,-0.40226 0.0415,-0.12201 0.005,-0.0624 0.0147,-0.18682 0.0853,-0.27523 0.0568,-0.3089 0.0957,-0.39969 0.004,-0.0312 0.0776,-0.18176 0.0415,-0.12202 0.0387,-0.0909 z"
       id="MO-02"
       style="font-style:normal;font-weight:400;font-size:34.375px;font-family:'MS Shell Dlg 2';opacity:1;fill:none;fill-opacity:1;fill-rule:evenodd;stroke:#000000;stroke-width:0.33333385;stroke-linecap:square;stroke-linejoin:bevel;stroke-miterlimit:4;stroke-dasharray:none;stroke-opacity:1" />
    <path
       inkscape:connector-curvature="0"
       d="m 518.27665,490.49668 -10.13147,0.0454 0.0176,2.44723 -9.74747,-0.0489 0.007,2.603 -10.96717,-0.0865 c 0.11897,1.32078 -0.18174,2.61841 -0.32261,3.92435 -0.0998,0.89102 0.0173,1.79138 0.1249,2.67544 0.0439,0.55886 -0.0898,1.08077 -0.31746,1.57308 -0.22741,0.49222 -0.56472,0.96427 -0.86783,1.40231 -0.27105,0.39721 -0.56199,0.79451 -0.51492,1.30591 0.0526,0.24933 0.011,0.5491 -0.12391,0.74232 -0.1343,0.19335 -0.36289,0.28293 -0.66422,0.0709 -0.22215,-0.0816 -0.40074,-0.25891 -0.59476,-0.39376 -0.19402,-0.13484 -0.4098,-0.2143 -0.6775,-0.14971 -0.1843,-0.0392 -0.47783,-0.039 -0.71372,-0.0901 -0.23597,-0.0515 -0.42213,-0.16093 -0.33788,-0.46676 0.17923,-0.10677 0.36974,-0.25285 0.44068,-0.40274 0.0708,-0.1499 0.0203,-0.32543 -0.17712,-0.51626 -0.20053,-0.36664 -0.68129,-0.30473 -1.0332,-0.39849 l -2.10014,8.76359 -3.06769,-0.0639 -0.0286,2.25525 -1.19119,-0.004 -0.19845,3.55821 -0.28291,0.009 c -0.4755,-0.11484 -0.61986,0.19143 -1.03249,0.35417 -0.20725,10e-4 -0.20677,0.15226 -0.21247,0.29599 -0.008,0.14377 -0.0216,0.27023 -0.23856,0.23122 -0.10193,-0.0102 -0.28871,-0.0725 -0.43337,-0.0668 -0.14475,0.004 -0.25194,0.0682 -0.11653,0.27257 0.27453,0.1182 0.51759,0.51305 0.28119,0.77565 -0.1165,0.0952 -0.3054,0.17788 -0.39935,0.28083 -0.094,0.10282 -0.10474,0.21563 0.0628,0.3814 0.30489,0.51031 0.72644,0.95574 1.10706,1.40785 0.0868,0.26942 -0.4948,0.0238 -0.66423,0.0709 -0.12466,0.0163 -0.28662,-0.006 -0.4386,-0.004 -0.15195,10e-4 -0.27802,0.0403 -0.30083,0.22609 -0.0747,0.34225 -0.46624,0.53611 -0.35966,0.94241 -0.0854,0.3572 0.19588,0.54457 0.52224,0.51331 0.3612,3.7e-4 0.47465,0.37866 0.7065,0.55979 0.39421,0.14296 0.85969,0.0195 1.23556,0.22699 0.10998,0.0983 0.19823,0.1945 0.32206,0.27732 l 6.79691,0.088 -0.0558,-1.22742 8.51494,0.16694 0,0 1.15754,0.0324 1.59738,-1.12289 6.02849,-0.10012 -0.0111,-2.91693 2.03728,0.0106 -0.0253,-1.60117 16.81147,-0.0606 0.47283,-4.22546 c 0.13396,-0.24657 0.24613,-0.53322 0.46638,-0.7142 0.17932,-0.11118 0.40228,0.0449 0.5917,0.0489 0.2048,0.0452 0.31702,0.21673 0.50905,0.2927 0.15898,0.0165 0.31045,0.11849 0.2572,0.30338 -0.002,0.14401 -0.0592,0.35556 0.0888,0.44628 0.22394,0.0879 0.45788,0.074 0.67497,0.18092 0.10383,0.0303 0.21689,-0.0146 0.31654,-0.0367 0.0998,-0.0222 3.57565,-0.049 3.4178,-9.7e-4 -0.15786,0.048 -0.52241,0.1498 -0.37584,0.37676 0.10643,0.18364 0.26303,0.3083 0.47271,0.3524 0.27211,0.11256 0.33223,0.41967 0.2888,0.68219 0.0122,0.27168 -0.12333,0.59409 -0.007,0.84608 0.19436,0.18928 0.55819,0.006 0.69834,0.27697 0.0861,0.19984 0.0455,0.54725 0.36655,0.50041 0.27824,-0.001 0.54015,-0.0933 0.8199,-0.0579 0.11209,0.009 0.23072,0.0178 0.34266,0.0282 l 0.004,-0.0312 -0.078,-0.19444 -0.0991,-0.32179 -0.0679,-0.31902 -0.0261,-0.0651 0.005,-0.0622 -0.0235,-0.0961 0.004,-0.0311 -0.026,-0.0651 0.005,-0.0622 -0.0496,-0.16088 0.004,-0.0312 -0.0286,-0.0336 0.005,-0.0623 0.005,-0.0623 -0.0496,-0.16082 0.004,-0.0312 -0.0286,-0.0335 0.01,-0.0933 0.004,-0.0312 0.01,-0.0933 -0.026,-0.065 0.005,-0.0623 0.0542,-0.27779 -0.0497,-0.53709 0.0232,-0.28024 0.0466,-0.18441 0.26661,-0.57378 0.0416,-0.12201 0.093,-0.36862 0.004,-0.0312 0.0701,-0.0882 c -0.11965,-0.14108 -0.23746,-0.27991 -0.34302,-0.40447 -0.1993,-0.23502 -0.23627,-0.12708 -0.50901,-0.29269 -0.1963,-0.11918 -0.56373,-0.3573 -0.68044,-0.49492 -0.18825,-0.22197 -0.70327,-0.11941 -0.7505,-0.40666 -0.0266,-0.16131 -0.0895,-0.54946 -0.19539,-0.67448 -0.103,-0.12146 -0.25225,-0.33429 -0.47272,-0.35241 -0.302,-0.0247 -0.49474,-0.0709 -0.69581,-0.30806 -0.17743,-0.20924 -0.11108,-0.29139 -0.47525,-0.32132 -0.38141,-0.0317 -0.78343,-0.0332 -1.15498,-0.0636 -0.036,0.0306 -0.0597,0.0993 -0.10363,0.11689 -0.36326,0.14584 -0.27594,0.2944 -0.39897,0.65703 -0.0943,0.27799 -0.1893,0.23146 -0.29049,0.10153 -0.1013,-0.12993 -0.21609,-0.33131 -0.34815,-0.34216 -0.292,-0.0239 -0.65493,-0.0436 -0.6848,0.31994 -0.01,0.12711 0.0154,0.74027 -0.0667,0.80978 -0.15392,0.13053 -0.20132,0.11028 -0.25428,0.0417 -0.0529,-0.0684 -0.0936,-0.17135 -0.25988,-0.27221 -0.29826,-0.18116 -0.69512,-0.56286 -0.98163,-0.6451 l -0.0725,-4.45843 c -0.11211,-0.0594 -0.008,-0.013 -0.11947,-0.0725 -0.23373,-0.12377 -0.52159,-0.18496 -0.70092,-0.24576 -0.18703,-0.0635 -0.36789,-0.39707 -0.45734,-0.53929 -0.11722,-0.18643 -0.21732,-0.20137 -0.29364,-0.24357 -0.0763,-0.0424 -0.11475,-0.12965 -0.0837,-0.50856 0.0348,-0.42638 0.0455,-0.64103 0.27149,-1.01248 0.15561,-0.2562 0.27471,-0.44768 0.6301,-0.41846 0.22622,0.0187 0.0194,-0.23983 0.0434,-0.52953 0.0222,-0.25717 0.34349,-0.2226 0.58108,-0.20308 0.30572,0.0247 0.51625,0.003 0.69544,-0.0683 0.27206,-0.10915 0.005,-0.64965 0.47664,-0.83875 0.0468,-0.0188 0.31472,0.5715 0.4159,0.6613 0.25429,0.22549 0.74639,0.18678 1.111,0.21675 0.34252,0.0282 0.55198,0.0591 0.86436,0.1651 0.26276,0.0892 0.40977,0.0783 0.53205,0.0126 0.12221,-0.0658 0.19542,-0.19474 0.37328,-0.34558 0.13235,-0.11223 0.10631,-0.24812 0.12157,-0.33496 0.0154,-0.0867 0.0913,-0.12905 0.37885,-0.0316 0.14233,0.0483 0.0792,0.90998 0.1076,0.98083 0.0137,0.034 0.30776,-0.0967 0.48505,-0.17956 0.0668,-0.4408 0.0762,-0.90188 0.29441,-1.29282 0.16786,-0.35264 0.41517,-0.69182 0.76201,-0.87791 0.39251,-0.022 0.71604,0.37162 1.13959,0.25041 0.24526,0.0668 0.38744,-0.0358 0.48764,-0.21075 0.10014,-0.17509 0.127,-0.40878 0.17321,-0.58156 -0.0526,-0.45235 0.25386,-0.88117 0.70739,-0.97653 0.17181,-0.002 0.38114,-0.0313 0.56318,0.0148 0.18205,0.046 0.31586,0.17338 0.34301,0.40448 0.0317,0.47872 0.55786,0.48714 0.81316,0.78799 0.25878,0.36251 0.69367,0.4367 1.08024,0.59049 0.35863,0.11212 0.67774,-0.2456 1.05081,-0.19586 0.25701,-0.0202 0.38989,0.21868 0.56362,0.3913 l 0.0438,-0.15312 0.10592,-0.52439 0.01,-0.0933 -0.0157,-0.18952 -0.0312,-0.004 -0.0518,-0.1297 -0.17929,-0.1088 -0.0909,-0.0387 -0.1481,-0.10622 -0.0597,-0.0363 -0.15065,-0.0749 -0.11945,-0.0727 -0.12202,-0.0413 -0.0882,-0.0699 -0.20525,-0.17372 -0.0312,-0.004 -0.15065,-0.0748 -0.0287,-0.0337 -0.18166,-0.0777 -0.091,-0.0386 -0.091,-0.0387 -0.0622,-0.005 -0.0312,-0.004 -0.0599,-0.0364 -0.11434,-0.13481 -0.11947,-0.0725 -0.0286,-0.0337 -0.0858,-0.10108 -0.0286,-0.0337 -0.0312,-0.004 -0.17408,-0.17115 -0.0623,-0.005 -0.0288,-0.0334 -0.0597,-0.0363 -0.27267,-0.11652 -0.17918,-0.10891 -0.091,-0.0386 -0.0622,-0.005 -0.12715,0.0208 -0.15322,-0.0438 -0.12201,-0.0413 -0.0312,-0.004 -0.0311,-0.004 -0.12713,0.0208 -0.25174,0.009 -0.0311,-0.004 -0.0312,-0.004 -0.18691,-0.0147 -0.0623,-0.005 -0.1792,-0.1088 -0.1246,-0.01 -0.0285,-0.0335 -0.0312,-0.004 -0.0312,-0.004 -0.0882,-0.0698 -0.0623,-0.005 0.004,-0.0312 -0.29865,-0.18138 -0.33231,-0.15274 -0.0312,-0.004 -0.0288,-0.0336 -0.0909,-0.0386 -0.30119,-0.15016 -0.0623,-0.005 -0.0286,-0.0337 -0.0311,-0.004 -0.15055,-0.075 -0.0312,-0.004 -0.0312,-0.004 -0.0909,-0.0386 -0.0933,-0.01 -0.0933,-0.01 -0.0285,-0.0335 -0.0312,-0.004 -0.25175,0.009 -0.0312,-0.004 -0.1842,-0.0466 -0.0909,-0.0387 -0.0623,-0.005 -0.21796,-0.0182 -0.2594,0.10412 -0.10119,0.0858 -0.10119,0.0859 -0.11131,0.21028 -0.0699,0.0882 -0.0387,0.0909 -0.004,0.0311 -0.004,0.0312 -0.004,0.0312 -0.004,0.0311 -0.004,0.0311 -0.004,0.0312 0.0234,0.096 -0.004,0.0312 -0.0829,0.24404 -0.28755,0.44664 -0.1425,0.20783 -0.19711,0.1092 -0.31101,0.3507 -0.27731,0.32215 -0.0364,0.0597 -0.19455,0.078 -0.0311,-0.004 -0.12971,0.052 -0.0623,-0.005 -0.004,0.0312 -0.0311,-0.004 -0.22064,0.0132 -0.12458,-0.01 -0.0311,-0.004 -0.0311,-0.004 -0.0288,-0.0335 -0.21026,-0.11141 -0.65713,-0.39898 -0.0882,-0.0699 -0.16126,-0.3269 -0.0831,-0.13226 -0.1791,-0.10879 -0.11691,-0.10362 -0.11689,-0.10372 -0.0832,-0.13228 -0.0547,-0.0986 -0.0496,-0.16078 -0.0913,-0.4151 -0.0547,-0.0987 -0.0496,-0.16078 -0.0286,-0.0337 -0.0261,-0.065 0.005,-0.0623 0.004,-0.0312 -0.0287,-0.0335 0.004,-0.0311 0.006,-0.46981 -0.0444,-0.22318 -0.083,-0.13225 0.004,-0.0311 0.004,-0.0311 -0.0312,-0.004 -0.0287,-0.0335 -0.0285,-0.0337 -0.0286,-0.0335 -0.0261,-0.0649 -0.0261,-0.0649 -0.0519,-0.12968 -0.0521,-0.12972 -0.19238,-0.32938 -0.15615,-0.3891 -0.0831,-0.13227 -0.0208,-0.12713 -0.026,-0.065 0.004,-0.0311 0.005,-0.0624 0.23845,-0.23124 0.01,-0.12458 0.0363,-0.0597 0.3523,-0.47271 0.004,-0.0312 0.0251,-0.31149 -0.0652,-0.35031 -0.0261,-0.0649 -0.026,-0.065 -0.0286,-0.0335 -0.0261,-0.065 -0.13786,-0.23077 -0.14285,-0.16857 -0.0571,-0.0674 -0.052,-0.12972 -0.0444,-0.22316 -0.0519,-0.12971 -0.0213,-0.50344 0.01,-0.0933 -0.10665,-0.2282 -0.0209,-0.12716 -0.026,-0.0649 -0.0495,-0.1608 0.01,-0.12458 0.004,-0.0311 0.004,-0.0312 0.005,-0.0623 0.01,-0.12459 -0.0236,-0.0961 -0.026,-0.0649 -0.0806,-0.16346 z"
       id="MO-03"
       style="font-style:normal;font-weight:400;font-size:34.375px;font-family:'MS Shell Dlg 2';opacity:1;fill:none;fill-opacity:1;fill-rule:evenodd;stroke:#000000;stroke-width:0.33333385;stroke-linecap:square;stroke-linejoin:bevel;stroke-miterlimit:4;stroke-dasharray:none;stroke-opacity:1" />
    <path
       inkscape:connector-curvature="0"
       d="m 431.99364,543.04097 11.93311,0.54212 -0.10192,1.6221 10.46679,0.45286 0.47395,-14.91753 9.85679,0.24591 -0.45504,10.8743 2.4732,0.0466 0.0121,4.04593 0.40485,0.0333 0.007,1.06662 c 0.32807,-0.009 0.72654,0.0295 0.94763,0.29744 0.0158,0.15781 0.12436,0.31545 0.25207,0.36559 0.12772,0.0502 0.2841,0.0205 0.32939,-0.19234 0.0553,-0.31512 0.21919,-0.61222 0.50261,-0.77403 0.24944,-0.22091 0.56614,-0.3522 0.90021,-0.27086 0.31483,0.01 0.70234,0.14714 0.70913,0.5286 0.0341,0.7516 -0.23257,1.53518 0.0646,2.26291 0.20388,0.22948 0.31984,0.46186 0.28118,0.77565 0.17669,0.007 0.36663,-0.0961 0.54734,-0.17444 0.18073,-0.0783 0.35305,-0.13252 0.53195,0.0126 0.15681,0.27386 -0.0793,0.53129 -0.30292,0.63361 0.17064,0.28354 0.68493,0.3488 0.69114,0.74665 8e-4,0.18045 -0.0705,0.3482 -0.10571,0.5243 l 3.03637,0.0616 -0.039,-11.73023 9.70358,0.20206 0.11261,-3.65938 4.85569,0.0542 0.0207,-11.69393 -8.51498,-0.16694 0.0559,1.22742 -6.79693,-0.088 c -0.12382,-0.0829 -0.21206,-0.17887 -0.32204,-0.27731 -0.37588,-0.20719 -0.84135,-0.0838 -1.23555,-0.22699 -0.23185,-0.18112 -0.3453,-0.55839 -0.70652,-0.5598 -0.32636,0.0313 -0.60759,-0.1561 -0.52223,-0.5133 -0.10656,-0.40631 0.28487,-0.60018 0.35965,-0.94241 0.0226,-0.18588 0.14888,-0.22415 0.30087,-0.22609 0.15195,-0.001 0.31393,0.0207 0.43857,0.004 0.16943,-0.0472 0.75094,0.1986 0.66421,-0.0709 -0.38062,-0.4521 -0.80214,-0.89756 -1.10704,-1.40785 -0.1674,-0.16577 -0.15671,-0.27858 -0.0628,-0.38141 0.0939,-0.10294 0.28286,-0.18564 0.39938,-0.28082 0.23639,-0.2626 -0.006,-0.65746 -0.2812,-0.77565 -0.13543,-0.20429 -0.0284,-0.26702 0.11653,-0.27257 0.14465,-0.004 0.33141,0.0572 0.43336,0.0668 0.21673,0.0389 0.23285,-0.0874 0.23855,-0.23122 0.008,-0.14369 0.003,-0.2943 0.21249,-0.296 0.41259,-0.16273 0.55698,-0.46904 1.03248,-0.35417 l 0.28291,-0.009 0.19845,-3.55821 1.19118,0.004 0.0286,-2.25525 3.06767,0.0639 2.10014,-8.76358 c 0.35191,0.0939 0.83266,0.0326 1.03321,0.39849 0.19804,0.19086 0.24802,0.36636 0.17712,0.51625 -0.0708,0.14989 -0.26144,0.29598 -0.44068,0.40275 -0.0844,0.30583 0.10187,0.41525 0.33789,0.46675 0.23585,0.0516 0.52943,0.0507 0.7137,0.0901 0.2677,-0.0647 0.48351,0.0149 0.67752,0.14971 0.194,0.13485 0.37259,0.31209 0.59474,0.39377 0.30134,0.21208 0.52994,0.12249 0.66422,-0.0709 0.1344,-0.19323 0.17652,-0.49299 0.12391,-0.74234 -0.0471,-0.51138 0.24388,-0.90868 0.51494,-1.3059 0.30309,-0.43803 0.64041,-0.91009 0.86781,-1.4023 0.22741,-0.49233 0.36123,-1.01423 0.31748,-1.57307 -0.10724,-0.88406 -0.22475,-1.78443 -0.12492,-2.67545 0.14088,-1.30594 0.44161,-2.60357 0.32263,-3.92436 l 10.96718,0.0865 -0.007,-2.60299 -2.06833,-0.0134 0.0981,-0.4308 -0.97567,0.0452 0.0481,-1.3444 -0.4748,0.0549 0.0254,-0.68785 1.07441,-0.0998 0.0124,-2.82107 -12.56589,-0.0923 0.0982,-7.29778 -8.68101,-0.0553 -0.19604,8.10488 -1.76021,-0.70911 -1.27064,3.25061 c 0.0834,0.0382 0.18221,0.0125 0.23893,0.14507 -0.15241,0.42373 -0.56115,0.72455 -0.89947,1.02344 -0.33824,0.2989 -0.59516,0.62293 -0.47105,1.15278 -0.0974,0.30746 -0.47714,0.49004 -0.71545,0.69372 -0.11915,0.10186 -0.20794,0.20443 -0.21504,0.32727 -0.007,0.12275 0.0749,0.25551 0.27818,0.43045 0.20946,-0.0608 0.3516,-0.0394 0.43601,0.036 0.0843,0.0752 0.11564,0.22241 0.0964,0.35288 -0.0387,0.26073 -0.28398,0.54918 -0.60926,0.54562 l -2.59493,2.57734 -0.009,1.25348 -9.86484,-0.5289 -0.01,0.50089 -7.39412,-0.45118 -0.0742,0.90324 -6.055,-0.341 -0.12962,2.34095 c -3.49773,-0.0222 -7.11528,-0.26511 -10.77063,-0.57201 l 0.0261,0.065 -0.004,0.43858 -0.01,0.0934 -0.005,0.0622 -10e-4,0.40751 -0.0512,0.62289 0.0134,0.22052 -0.0177,0.59438 -0.01,0.50087 -0.005,0.0623 -0.004,0.0312 -0.004,0.0311 -0.005,0.0623 -0.01,0.0934 -0.0168,0.97067 -0.0435,0.52944 -0.004,0.0312 -0.0135,0.15574 -0.0226,1.03283 0.007,0.314 -0.01,0.12461 -0.0251,0.31148 -0.01,0.0933 0.003,0.72141 -0.01,0.0933 0.007,0.31409 -0.036,0.43591 -0.005,0.0623 -0.005,0.81481 -0.033,0.78122 0.0156,0.18943 -0.004,0.0311 -0.0135,0.15574 -0.01,0.0932 -0.0394,1.62723 -0.0232,0.28035 0.0235,0.096 -0.01,0.0933 -0.0182,0.21805 0.0235,0.0961 -0.0148,0.56317 -0.01,0.12459 -0.0177,0.59438 0.0134,0.22051 -0.0253,0.31149 0.0208,0.12713 -0.0135,0.15564 -0.004,0.0312 0.007,0.31401 -0.004,0.0311 -0.0232,0.28035 -0.004,0.0312 -0.01,0.50087 0.026,0.0648 -0.0118,0.90839 -0.0251,0.31146 -0.0147,0.18692 -0.004,0.0312 0.0286,0.0335 -0.031,0.3737 0.0235,0.0961 -0.0252,0.31138 -0.0205,0.62543 -0.0147,0.18702 -0.025,0.31138 3.1e-4,0.37631 0.004,0.3452 -0.0147,0.18689 -0.0222,1.40925 -0.004,0.0311 -0.0147,0.18692 0.0112,0.62801 -0.0432,1.28211 -0.01,0.12459 0.0134,0.22053 -0.004,0.0312 -0.0182,0.21795 -0.0148,0.56317 -0.004,0.0312 -0.0135,0.15575 0.0236,0.0959 -0.01,0.12459 -0.005,0.0624 -0.01,0.50087 -0.0232,0.28026 -0.01,0.12459 -0.004,0.43859 -0.0182,0.21795 0.0156,0.18951 -0.02,0.24921 -0.01,0.12459 0.0156,0.18935 -0.0147,0.187 -0.005,0.0621 -0.0135,0.15574 -0.0101,0.50087 -0.0373,1.21973 -0.01,0.0934 -0.004,0.0312 -0.0182,0.21804 0.0234,0.0961 -0.0407,0.87463 0.0134,0.22054 -0.012,0.90837 -0.005,0.0621 -0.004,0.0312 -0.01,0.12459 0.009,0.25173 -0.0126,0.53208 0.007,0.28281 -0.0147,0.18691 -0.004,0.0312 -0.0285,0.71884 -0.004,0.0312 0.007,1.06653 -0.004,0.0312 -0.01,0.0933 -0.01,0.1246 -0.01,0.0933 -0.005,0.0623 0.0234,0.096 -0.004,0.0312 -0.004,0.0312 -0.006,0.4697 -0.0182,0.21794 0.0185,0.15834 -0.036,0.43603 0.0112,0.62799 -0.0147,0.18693 -0.0182,0.21794 0.0209,0.12713 -0.01,0.12461 -0.0147,0.18701 -10e-4,0.40739 -0.001,0.40738 -0.0333,0.40496 -10e-4,0.40749 -0.001,0.40741 -10e-4,0.40737 -0.01,0.0934 z"
       id="MO-04"
       style="font-style:normal;font-weight:400;font-size:34.375px;font-family:'MS Shell Dlg 2';opacity:1;fill:none;fill-opacity:1;fill-rule:evenodd;stroke:#000000;stroke-width:0.33333385;stroke-linecap:square;stroke-linejoin:bevel;stroke-miterlimit:4;stroke-dasharray:none;stroke-opacity:1" />
    <path
       inkscape:connector-curvature="0"
       d="m 433.01637,501.23418 c 3.65539,0.30654 7.27291,0.5497 10.77066,0.572 l 0.1296,-2.34095 6.05501,0.34091 0.0742,-0.90324 7.39411,0.45118 0.01,-0.50087 9.86484,0.52889 0.009,-1.25348 2.59492,-2.57733 c 0.32528,0.002 0.57074,-0.2849 0.60927,-0.54563 0.0199,-0.13042 -0.0122,-0.27762 -0.0964,-0.35288 -0.0844,-0.0752 -0.22656,-0.0966 -0.43602,-0.036 -0.20315,-0.17493 -0.28524,-0.3077 -0.27816,-0.43044 0.007,-0.12286 0.0958,-0.2254 0.21504,-0.32728 0.23829,-0.20367 0.6182,-0.38625 0.71545,-0.69372 -0.12412,-0.52985 0.13277,-0.85387 0.47104,-1.15279 0.33833,-0.29887 0.74705,-0.59969 0.89947,-1.02342 -0.0567,-0.13241 -0.15554,-0.10695 -0.23891,-0.14506 l 0,0 c -0.0626,-0.0286 -0.10625,-0.11721 -0.17927,-0.10891 -0.1703,0.0196 -0.35834,0.10892 -0.5499,0.20565 -0.19159,0.0967 -0.38699,0.20588 -0.54992,0.20562 -0.16298,-0.002 -0.29219,-0.10461 -0.37676,-0.37593 0.21738,-0.36402 0.133,-0.55195 -0.0683,-0.69533 -0.20122,-0.14347 -0.53366,-0.24085 -0.75305,-0.37558 -0.01,-0.34858 -0.0648,-0.75314 -0.22942,-1.02222 -0.16471,-0.269 -0.41277,-0.40037 -0.86181,-0.19628 -0.45284,0.11718 -0.88756,-0.0612 -1.19166,-0.38013 -0.30408,-0.31908 -0.5029,-0.76879 -0.43469,-1.19584 -0.25054,-0.0893 -0.54586,-0.0458 -0.84095,-0.069 -0.2951,-0.023 -0.58148,-0.12412 -0.74273,-0.50013 -0.008,-0.23799 -0.27139,-0.48948 -0.51462,-0.60662 -0.24312,-0.11721 -0.45368,-0.10055 -0.42787,0.24697 0.17923,0.29007 0.25431,0.7913 0.18039,1.23774 -0.0738,0.44635 -0.30154,0.8336 -0.69716,0.85195 -0.22604,-0.24565 -0.41034,-0.31417 -0.54002,-0.29526 -0.1298,0.0189 -0.21097,0.11652 -0.3034,0.25721 -0.1848,0.28162 -0.34889,0.68492 -0.73895,0.59776 -0.45526,-0.17668 -0.84336,-0.0436 -1.02225,0.22952 -0.17891,0.27345 -0.16877,0.68227 0.13356,1.04566 0.0993,0.2255 0.0634,0.44699 -0.0824,0.62033 -0.14581,0.17345 -0.38571,0.28104 -0.625,0.35628 -0.23936,0.0752 -0.48062,0.10849 -0.66176,0.0398 -0.18119,-0.0688 -0.30166,-0.2339 -0.27305,-0.49272 0.39783,-0.18775 0.36187,-0.35477 0.16555,-0.48808 -0.19635,-0.13334 -0.56849,-0.23498 -0.76067,-0.28198 -0.0248,-0.27635 -0.13808,-0.42314 -0.30421,-0.49539 -0.16616,-0.0722 -0.37114,-0.0623 -0.56574,0.0162 -0.19459,0.0784 -0.3619,0.2242 -0.47188,0.40018 -0.10998,0.17598 -0.16996,0.40022 -0.0822,0.62034 0.22149,0.21918 0.29321,0.40138 0.26782,0.555 -0.0252,0.15376 -0.14017,0.25017 -0.30841,0.31963 -0.33652,0.13878 -0.85659,0.0914 -1.14208,-0.21934 -0.38272,-0.21449 -0.86145,-0.44596 -1.33452,-0.54869 -0.47317,-0.10269 -0.9481,-0.0536 -1.31283,0.33106 -0.0563,0.46945 -0.31166,0.61772 -0.65062,0.66773 -0.33903,0.0499 -0.75799,-0.005 -1.10034,0.0348 l 0.10468,-8.89635 -9.83327,-0.15004 -0.23912,9.0107 c 0.0479,0.17633 0.27535,-0.0273 0.38142,-0.0628 0.17495,-0.10462 0.3715,-0.16671 0.57595,-0.14068 0.15939,0.0592 0.12232,0.2929 3.2e-4,0.37631 -0.12208,0.11468 -0.29311,0.18591 -0.43042,0.27807 -0.12024,0.14192 0.12741,0.23453 0.22612,0.30083 0.24735,0.14465 0.56785,0.0663 0.83585,0.13144 0.18565,0.0508 0.14074,0.27835 0.18467,0.42274 0.0404,0.25877 0.23939,0.45777 0.49109,0.51075 0.0275,0.006 0.0636,0.0296 0.0909,0.0387 l -0.19854,3.55829 -4.2229,-0.50401 0.18512,0.79917 0.49832,0.0411 -0.1173,1.80886 0.35882,0.594 -0.0227,0.65655 -0.40483,-0.0333 -0.45442,-0.19408 -1.37806,-0.0188 c -0.0273,-0.41403 0.0373,-0.83644 0.0716,-1.24833 0.0491,-0.48452 0.12465,-0.99423 0.0269,-1.47145 -0.25783,-0.0892 -0.35724,-0.24359 -0.343,-0.40446 0.0147,-0.16095 0.13407,-0.32621 0.26158,-0.51158 0.0805,-0.26429 0.24265,-0.31779 0.41215,-0.43642 0.16939,-0.11869 0.3292,-0.32088 0.44542,-0.84133 0.081,-0.36238 0.50349,-0.71373 0.94378,-0.80034 0.0912,-0.24456 -0.71421,-0.33445 -0.62897,-0.74164 -0.23413,-0.37655 -0.0767,-0.77889 -0.12066,-1.20131 -0.0668,-0.3014 -0.20325,-0.24722 -0.36605,-0.12422 -0.16282,0.12296 -0.34811,0.32516 -0.49787,0.33533 -0.24322,0.0479 -0.32625,-0.05 -0.36093,-0.1864 -0.0347,-0.13631 -0.0432,-0.32614 -0.1199,-0.44892 -0.17947,-0.13346 -0.43622,-0.21708 -0.7035,-0.21458 -0.2674,10e-4 -0.53586,0.0947 -0.68227,0.28885 -0.10278,0.22384 -0.18975,0.26637 -0.26963,0.2287 -0.08,-0.0378 -0.13873,-0.16412 -0.22353,-0.33205 -0.16398,-0.13537 -0.28887,-0.36378 -0.42361,-0.56782 -0.13484,-0.20403 -0.27948,-0.3875 -0.56619,-0.3601 -0.35582,-0.3099 -0.82382,-0.46948 -1.31626,-0.39045 -0.18248,0.47333 -0.17979,1.03844 -0.15911,1.5548 0.14519,0.47719 0.22302,0.94514 -0.0818,1.3729 0.13141,0.0421 0.29701,0.12695 0.35839,0.2175 0.0616,0.0907 0.0469,0.19249 -0.15019,0.30131 -0.22515,0.14895 -0.51661,0.0425 -0.78368,-0.003 l -0.0178,0.59436 0.0157,0.18943 -0.004,0.0312 0.009,0.25171 -0.0147,0.18681 -0.01,0.0933 -0.005,0.0623 -0.01,0.0933 -0.005,0.0623 -0.004,0.0311 0.0234,0.0961 -0.01,0.12463 -0.005,0.0621 -0.004,0.0312 -0.005,0.0623 -0.01,0.1246 -0.005,0.0623 -0.01,0.0933 -0.005,0.0623 0.0134,0.22054 -0.01,0.0933 -0.005,0.0623 -0.004,0.0311 -0.004,0.0312 0.0185,0.15836 -0.0147,0.18687 -0.0182,0.21806 -0.005,0.0622 -0.005,0.0623 -0.004,0.0311 0.0286,0.0335 -0.005,0.0624 -0.005,0.0621 -0.0147,0.18699 -0.004,0.0311 0.0234,0.0962 -0.004,0.0311 -0.005,0.0623 -0.005,0.0623 -0.0182,0.21806 -0.004,0.0311 0.0156,0.18942 -0.0182,0.21795 -0.004,0.0312 0.0236,0.096 -0.0312,-0.004 0.0134,0.22061 0.009,0.25173 -0.0182,0.21806 -0.01,0.0932 -0.01,0.0933 0.004,0.3452 -0.01,0.0933 -0.0147,0.18681 -0.001,0.40746 0.0285,0.0336 -0.004,0.0312 -0.0135,0.15565 -0.0147,0.18698 -0.01,0.12463 -0.004,0.0311 z"
       id="MO-05"
       style="font-style:normal;font-weight:400;font-size:34.375px;font-family:'MS Shell Dlg 2';opacity:1;fill:none;fill-opacity:1;fill-rule:evenodd;stroke:#000000;stroke-width:0.33333385;stroke-linecap:square;stroke-linejoin:bevel;stroke-miterlimit:4;stroke-dasharray:none;stroke-opacity:1" />
    <path
       inkscape:connector-curvature="0"
       d="m 495.71537,451.7992 -1.23005,0.087 -0.18933,0.0157 -0.1246,-0.01 -0.28292,0.007 -0.22054,0.0133 -0.18953,0.0156 -0.75772,0.0631 -1.51031,0.0639 -0.096,0.0234 -0.0312,-0.004 -0.0622,-0.005 -0.0312,-0.004 -0.47226,0.0239 -0.59947,0.0447 -0.6591,0.008 -0.50345,0.0212 -0.15834,0.0184 -0.0622,-0.005 -0.0312,-0.004 -0.065,0.0261 -0.0311,-0.004 -0.28283,0.007 -0.2206,0.0134 -0.0623,-0.005 -1.79069,0.0409 -0.34766,0.034 -0.1246,-0.01 -0.34511,0.004 -0.41006,0.029 -0.18943,0.0156 -1.0354,0.01 -0.0962,0.0234 -0.69035,0.005 -0.44112,0.0264 -0.59693,0.0137 -0.62803,0.0112 -0.40996,0.0291 -0.56571,0.0161 -0.15574,-0.0135 -0.25174,0.009 -0.18931,0.0157 -0.0623,-0.005 -0.78624,0.0295 -0.065,0.0261 -0.7552,0.0318 -0.43858,-0.004 -1.22749,0.0557 -0.0311,-0.004 -1.03543,0.01 -0.0649,0.026 -0.50087,-0.01 -0.59684,0.0136 -0.15833,0.0184 -0.0933,-0.01 -0.0932,-0.01 -1.50777,0.0327 -0.15572,-0.0135 -0.47226,0.024 -0.0933,-0.01 -0.0311,-0.004 -0.0933,-0.01 -0.25172,0.009 -0.22064,0.0133 -0.3139,0.007 -0.81498,-0.005 -0.0311,-0.004 -0.28284,0.007 -0.0312,-0.004 -0.37886,0.0318 -0.1246,-0.01 -2.23174,0.0673 -0.0933,-0.01 -0.15824,0.0184 -0.0312,-0.004 -0.78637,0.0296 -1.47656,0.0353 -0.1869,-0.0147 -1.00432,0.0118 -1.22495,0.0246 -0.21795,-0.0182 -0.3763,3.2e-4 -0.62801,0.0112 -1.44291,0.008 -0.50089,-0.01 -0.0311,-0.004 -0.46978,-0.006 -0.53199,-0.0126 -0.15572,-0.0135 -0.065,0.0261 -0.0311,-0.004 -0.0623,-0.005 -0.0622,-0.005 -0.0623,-0.005 -0.3139,0.007 -0.1246,-0.01 -0.065,0.026 -0.0311,-0.004 -0.0623,-0.005 -0.0932,-0.01 -0.6904,0.005 -0.53454,0.0187 -0.7215,0.003 -0.0622,-0.005 -0.0623,-0.005 -0.15824,0.0185 -0.0312,-0.004 -0.12712,0.0208 -0.28032,-0.0232 -0.69034,0.005 -0.12713,0.0209 -0.18691,-0.0147 -0.0312,-0.004 -0.0933,-0.01 -0.12461,-0.01 -0.0312,-0.004 -0.44106,0.0264 -0.0934,-0.01 -0.25173,0.009 -0.62543,-0.0205 -0.0649,0.026 -0.46972,-0.006 -0.28033,-0.0232 -0.75518,0.032 -0.18691,-0.0147 -0.0311,-0.004 -0.0312,-0.004 -0.28291,0.007 -0.47225,0.024 -0.0312,-0.004 -0.0312,-0.004 -0.0311,-0.004 -0.50343,0.0213 -0.28034,-0.0232 -0.22056,0.0134 -0.34516,0.004 -0.28285,0.007 -0.37628,3e-4 -1.00433,0.0118 -0.187,-0.0147 -0.0311,-0.004 -0.59693,0.0135 -0.0311,-0.004 -0.21804,-0.0182 -2.09947,-0.0156 -0.096,0.0235 -0.0624,-0.005 -0.15563,-0.0135 -0.94202,0.0166 -0.18692,-0.0147 -0.31399,0.007 -0.31148,-0.025 -0.25172,0.009 -0.0311,-0.004 -0.18699,-0.0147 -0.25173,0.009 -0.65656,-0.0227 -0.31399,0.007 -0.56575,0.0162 -0.65655,-0.0226 -0.21802,-0.0182 -0.40742,-10e-4 -0.93955,-0.0146 -0.0933,-0.01 -0.0933,-0.01 -0.0961,0.0236 -0.84354,-0.0376 -0.18934,0.0156 -0.81243,-0.0354 -1.06396,-0.0245 -0.1246,-0.01 -0.0623,-0.005 -0.15564,-0.0135 -0.3452,0.004 -0.0311,-0.004 -0.62545,-0.0205 -0.6229,-0.0512 -0.56317,-0.0148 -0.0312,-0.004 -0.18935,0.0156 -0.21804,-0.0182 -0.0623,-0.005 -1.56236,-0.0658 -0.0933,-0.01 -0.31138,-0.0252 -0.84352,-0.0376 -0.25171,0.009 -0.3115,-0.0252 -0.22053,0.0133 -0.65664,-0.0226 -0.0312,-0.004 -0.0622,-0.005 -0.0934,-0.01 -0.18691,-0.0147 -0.62543,-0.0205 -0.21795,-0.0182 -0.40493,-0.0333 -0.18944,0.0156 -0.0933,-0.01 -0.0311,-0.004 -0.18691,-0.0147 -0.50088,-0.01 -0.18689,-0.0147 -0.0312,-0.004 -0.18698,-0.0147 -0.84345,-0.0376 -0.18689,-0.0147 -0.0312,-0.004 -0.004,0.0312 -0.0933,-0.01 -0.0311,-0.004 -0.0623,-0.005 -0.18683,-0.0147 -0.43866,-0.004 -0.1868,-0.0147 -1.62467,-0.0708 -0.4698,-0.006 -0.34264,-0.0282 -0.90571,-0.0431 -0.34519,0.004 -0.81223,-0.0354 -0.37371,-0.031 -0.81245,-0.0354 -0.0311,-0.004 -0.12457,-0.01 -0.28283,0.007 -0.21805,-0.0182 -0.37371,-0.0311 -0.81233,-0.0354 -0.59171,-0.0486 -0.0624,-0.005 -0.0621,-0.005 -0.15574,-0.0135 -0.75263,6.3e-4 -1.27953,-0.0739 -0.40484,-0.0333 -0.0674,0.0572 -0.10619,0.14809 -0.0415,0.12201 0.0756,0.22564 0.13529,0.26199 0.0236,0.096 -0.005,0.0624 -0.01,0.0934 -0.0365,0.0598 -0.075,0.15056 -0.01,0.0933 -0.01,0.0933 0.0571,0.0673 0.0882,0.07 0.0883,0.0698 0.18173,0.0778 0.24921,0.0199 0.12972,-0.0521 0.12969,-0.0519 0.0648,-0.0261 0.18428,0.0467 0.0858,0.10109 0.0261,0.065 0.26711,-0.19757 0.0415,-0.12202 -0.0547,-0.0986 0.02,-0.24921 0.0439,-0.15323 0.0135,-0.15561 0.16603,-0.11178 0.19189,-0.0469 0.1246,0.01 0.14298,0.1686 0.0779,0.19443 0.11946,0.0727 0.0496,0.1608 0.0235,0.0961 -0.0567,0.30881 -0.0388,0.0909 -0.10878,0.17918 -0.16345,0.0807 -0.51367,0.14599 -0.0985,0.0546 -0.0962,0.0236 0.21294,0.0802 0.0311,0.004 0.0598,0.0363 0.0882,0.0701 0.0261,0.0648 -0.01,0.0934 -0.005,0.0623 -0.0416,0.12201 -0.0673,0.0571 -0.065,0.026 -0.16082,0.0497 -0.004,0.0312 -0.005,0.0623 0.026,0.065 0.0185,0.15824 0.0287,0.0336 0.11431,0.13483 0.0285,0.0335 0.0311,0.004 0.14808,0.1062 0.11693,0.10362 0.31911,-0.0679 0.0311,0.004 0.0624,0.005 0.0649,-0.0261 0.0599,0.0364 0.0622,0.005 -0.005,0.0623 -0.005,0.0623 -0.11131,0.21028 -0.0388,0.091 0.0261,0.065 0.0546,0.0985 0.0571,0.0675 0.0933,0.01 -0.004,0.0311 -0.0363,0.0598 -0.10119,0.0858 -0.0648,0.0261 -0.19465,0.0779 -0.0386,0.091 -0.004,0.0311 -0.0364,0.0599 -0.005,0.0622 0.0443,0.22318 0.1665,0.26452 0.0235,0.0962 0.10409,0.2594 0.0443,0.22309 -0.01,0.0933 -0.0135,0.15575 0.0236,0.096 0.0571,0.0675 0.0261,0.0648 0.11434,0.13484 0.0287,0.0337 0.057,0.0674 -0.004,0.0311 0.0312,0.004 0.0236,0.0962 0.026,0.065 0.026,0.065 -0.01,0.0934 -0.01,0.0932 -0.0387,0.0909 -0.10373,0.1169 -0.096,0.0236 -0.29057,0.10153 -0.13228,0.0831 -0.0697,0.0883 -0.0388,0.091 -0.01,0.0933 0.0286,0.0339 0.0546,0.0985 0.0599,0.0364 0.12201,0.0414 0.0648,-0.026 0.12714,-0.0209 0.29316,-0.13274 0.12713,-0.0208 0.004,-0.0311 0.0623,0.005 0.0311,0.004 0.0624,0.005 0.0311,0.004 0.0285,0.0335 0.0624,0.005 0.11945,0.0725 0.0285,0.0337 0.14289,0.16846 0.0599,0.0363 0.11944,0.0727 0.28024,0.0232 0.0311,0.004 0.0312,0.004 0.0599,0.0364 0.0311,0.004 0.0572,0.0674 0.11691,0.1036 0.0235,0.0961 0.026,0.065 -0.004,0.0312 -0.01,0.0933 -0.11895,0.30379 -0.01,0.0933 0.0261,0.0648 0.026,0.0651 0.0285,0.0335 0.11947,0.0725 0.54021,0.29527 0.12461,0.01 0.3451,-0.004 0.21796,0.0182 0.0909,0.0387 0.0599,0.0364 0.1169,0.10363 0.0779,0.19453 0.0496,0.16081 0.026,0.0649 -0.0147,0.1868 -0.004,0.0312 -0.0364,0.0599 -0.004,0.0311 -0.004,0.0312 -0.0363,0.0599 -0.004,0.0311 -0.0312,-0.004 -0.0725,0.11948 -0.11142,0.21038 -0.01,0.0933 -0.005,0.0622 -0.01,0.0935 0.026,0.065 0.0312,0.004 -0.004,0.0312 0.0236,0.0961 0.0571,0.0674 -0.004,0.0311 0.11435,0.13482 0.0287,0.0337 0.2026,0.20479 0.11945,0.0725 0.24405,0.0828 0.0599,0.0364 -0.004,0.0312 0.0882,0.07 0.0236,0.0962 0.0235,0.096 0.0156,0.18944 -0.005,0.0623 -0.004,0.0312 0.0286,0.0336 0.0261,0.065 0.0235,0.096 0.0883,0.07 0.11946,0.0725 0.0311,0.004 0.18693,0.0147 0.0598,0.0364 0.0311,0.004 0.0599,0.0364 0.0597,0.0363 0.0312,0.004 0.0546,0.0986 0.026,0.0648 -0.004,0.0312 0.0261,0.0649 -0.004,0.0311 -0.004,0.0312 -0.004,0.0312 -0.004,0.0311 -0.004,0.0312 -0.0388,0.091 -0.0387,0.0911 -0.0674,0.057 0.0806,0.16346 -0.004,0.0312 -0.01,0.0933 -0.0699,0.0883 -0.004,0.0312 0.0546,0.0985 0.0496,0.1609 -0.0439,0.15323 -0.0387,0.0909 -0.10108,0.0857 -0.065,0.0261 -0.15826,0.0185 -0.0312,-0.004 -0.0337,0.0284 -0.0311,-0.004 -0.0335,0.0286 -0.065,0.0261 -0.005,0.0623 -0.004,0.0311 -0.004,0.0312 0.0209,0.12715 0.0184,0.15834 -0.004,0.0311 0.026,0.065 0.0285,0.0337 -0.005,0.0622 0.0312,0.004 0.0261,0.065 -0.004,0.0311 0.0312,0.004 0.0285,0.0335 0.0859,0.10119 0.0883,0.0699 0.0286,0.0337 0.0311,0.004 0.0911,0.0386 0.091,0.0387 0.0933,0.01 0.0933,0.01 0.41773,-0.12239 0.15572,0.0135 0.15313,0.0438 0.0286,0.0335 0.0312,0.004 0.22869,0.26964 0.14806,0.1062 0.21287,0.0802 0.0909,0.0386 0.0573,0.0674 0.0285,0.0335 0.0496,0.16082 -0.005,0.0623 -0.004,0.0312 -0.0135,0.15564 0.0236,0.0962 -0.004,0.0311 0.11434,0.13481 0.26747,0.17872 0.32982,0.18395 0.0882,0.0699 0.16639,0.26453 0.0808,0.16334 0.17399,0.17113 0.17927,0.10881 0.0909,0.0387 0.1246,0.01 0.25171,-0.009 0.0623,0.005 0.0598,0.0364 0.21028,0.1113 0.0521,0.12971 0.0156,0.18953 -0.0135,0.15564 -0.10889,0.17917 -0.004,0.0312 -0.004,0.0311 -0.004,0.0311 -0.004,0.0312 -0.004,0.0312 -0.004,0.0312 0.0287,0.0336 0.0547,0.0987 -0.004,0.0311 0.0623,0.005 -0.004,0.0312 0.0623,0.005 0.0286,0.0335 0.0312,0.004 0.0909,0.0386 0.18951,-0.0156 0.0311,0.004 0.0311,0.004 0.0962,-0.0236 0.0335,-0.0288 0.25939,-0.10408 0.004,-0.0312 0.0312,0.004 0.0312,0.004 0.0311,0.004 0.0623,0.005 0.0312,0.004 0.0597,0.0363 0.0599,0.0364 0.0571,0.0674 0.0209,0.12715 -0.005,0.0623 -0.0467,0.1843 0.0236,0.096 0.0547,0.0986 0.0547,0.0985 0.0598,0.0364 0.15054,0.075 0.48807,0.16556 0.29875,0.18128 0.0311,0.004 0.0909,0.0388 0.0933,0.01 0.0336,-0.0287 0.59939,-0.0446 0.21794,0.0182 0.0962,-0.0235 0.0674,-0.0571 0.065,-0.0261 0.004,-0.0312 0.0674,-0.057 0.0415,-0.12202 0.0311,0.004 0.004,-0.0312 0.004,-0.0312 0.004,-0.0311 -0.0156,-0.18943 0.004,-0.0312 0.005,-0.0621 0.0363,-0.0599 0.0386,-0.0909 0.0675,-0.0571 0.0335,-0.0284 0.0986,-0.0547 0.0648,-0.026 0.0312,0.004 0.0933,0.01 0.0312,0.004 0.21286,0.0801 0.0599,0.0364 0.0311,0.004 0.0311,0.004 0.0312,0.004 0.0337,-0.0287 0.12461,0.01 0.0311,0.004 0.29048,-0.10156 0.0961,-0.0236 0.0311,0.004 0.15319,0.0439 0.15069,0.0749 0.17908,0.10889 0.0312,0.004 0.11178,0.16593 0.0261,0.0649 -0.005,0.0623 0.0234,0.0961 -0.0414,0.12204 -0.0387,0.0909 -0.0312,-0.004 -0.16848,0.14298 -0.0387,0.0909 -0.0388,0.0909 -0.01,0.12461 0.0831,0.13227 0.0261,0.065 0.23124,0.23844 0.20771,0.1425 0.0312,0.004 0.12201,0.0415 -0.004,0.0311 0.0623,0.005 0.0623,0.005 0.0312,0.004 0.18933,-0.0156 0.0312,0.004 0.0623,0.005 0.0598,0.0364 0.0312,0.004 0.0858,0.10118 0.0571,0.0673 0.026,0.0649 -0.004,0.0312 0.0236,0.0962 0.0157,0.18933 -0.0147,0.18701 -0.1139,0.24147 -0.004,0.0311 -0.0698,0.0883 -0.12971,0.0519 -0.065,0.0261 -0.0623,-0.005 -0.28292,0.007 -0.0934,-0.01 -0.25172,0.009 -0.065,0.026 -0.0335,0.0287 -0.0312,-0.004 -0.004,0.0312 -0.0336,0.0285 -0.0673,0.0571 -0.0135,0.15576 -0.005,0.0621 0.0285,0.0337 0.0285,0.0335 0.0831,0.13225 0.0285,0.0336 0.0287,0.0336 0.0598,0.0364 0.0285,0.0337 0.0883,0.0698 0.0285,0.0336 0.091,0.0388 0.0934,0.01 0.0622,0.005 0.004,-0.0312 0.0961,-0.0235 0.0311,0.004 0.0312,0.004 0.0674,-0.0571 0.0334,-0.0286 0.20231,-0.17151 0.0648,-0.026 0.15835,-0.0184 0.065,-0.0261 0.0311,0.004 0.0599,0.0364 0.057,0.0674 0.0261,0.065 0.052,0.1297 0.009,0.25171 -0.01,0.1246 -0.0465,0.18431 -0.17618,0.23636 -0.13226,0.0832 -0.10119,0.0857 -0.0311,-0.004 -0.0336,0.0286 -0.19198,0.0467 -0.12716,0.0209 -0.0311,-0.004 -0.0312,-0.004 -0.0312,-0.004 -0.0621,-0.005 -0.0287,-0.0336 -0.0312,-0.004 -0.0312,-0.004 -0.0311,-0.004 -0.15064,-0.0748 -0.20516,-0.17371 -0.0287,-0.0337 -0.20774,-0.14249 0.004,-0.0311 -0.11946,-0.0726 -0.0909,-0.0387 -0.0311,-0.004 -0.0312,-0.004 -0.0312,-0.004 -0.0622,-0.005 -0.0987,0.0547 -0.0699,0.0882 -0.0335,0.0286 -0.004,0.0311 -0.0697,0.0883 -0.0364,0.0597 -0.004,0.0312 -0.0337,0.0287 -0.004,0.0311 -0.005,0.0623 0.0237,0.0961 -0.004,0.0312 0.0265,0.44116 -0.005,0.0623 0.004,0.3451 -0.0414,0.12201 -0.0363,0.0599 -0.10373,0.11689 -0.004,0.0312 -0.0987,0.0547 -0.0648,0.0261 -0.0312,-0.004 -0.0337,0.0285 -0.0622,-0.005 -0.065,0.026 -0.0311,-0.004 -0.0934,-0.01 -0.0311,-0.004 -0.0311,-0.004 -0.0624,-0.005 -0.096,0.0236 -0.0312,-0.004 -0.0648,0.0261 -0.065,0.026 -0.0648,0.026 -0.0676,0.0572 -0.0673,0.0571 -0.0701,0.0883 -0.2175,0.35838 -0.0387,0.091 -0.10619,0.14801 -0.10888,0.17917 -0.1114,0.21028 -0.0414,0.12203 -0.005,0.0623 -0.004,0.0311 0.0285,0.0334 -0.004,0.0312 -0.004,0.0312 0.0209,0.12713 0.0286,0.0335 0.0779,0.19454 0.0209,0.12713 0.026,0.0648 -0.0414,0.12202 -0.0439,0.15311 -0.1113,0.2104 -0.065,0.026 -0.0364,0.0599 -0.12968,0.0519 -0.0311,-0.004 -0.065,0.0261 -0.0622,-0.005 -0.0934,-0.01 -0.27259,-0.11643 -0.0312,-0.004 -0.1246,-0.01 -0.065,0.026 -0.0311,-0.004 -0.0335,0.0285 -0.0337,0.0286 -0.004,0.0312 -0.0335,0.0285 -0.0311,-0.004 -0.004,0.0311 -0.0415,0.12203 -0.004,0.0312 -0.0828,0.24405 -0.004,0.0312 -0.0311,-0.004 -0.005,0.0621 -0.005,0.0624 -0.004,0.0311 0.0311,0.004 0.0705,0.28795 -0.004,0.0312 0.0518,0.12969 0.0832,0.1323 0.1118,0.166 0.0285,0.0334 0.0573,0.0674 0.23379,0.20737 0.0857,0.10118 0.39214,0.18895 0.0882,0.0698 0.0831,0.13226 0.0261,0.065 0.0236,0.0962 3.1e-4,0.3763 0.0183,0.15824 0.0573,0.0674 0.083,0.13223 -0.004,0.0312 0.0571,0.0673 0.0286,0.0336 0.0883,0.0698 0.0883,0.0699 0.29855,0.18138 0.30643,0.0879 0.122,0.0415 0.11947,0.0725 0.17653,0.13993 0.0521,0.1297 0.0416,0.25427 -0.004,0.0311 0.0832,0.13225 0.0883,0.0702 0.0286,0.0335 0.0285,0.0335 0.0312,0.004 0.21283,0.0802 0.0883,0.0698 0.0547,0.0987 0.0571,0.0674 -0.0147,0.18689 -0.01,0.0933 0.026,0.0649 0.0548,0.0987 0.0571,0.0674 0.0287,0.0336 0.0312,0.004 0.0597,0.0363 0.0312,0.004 0.0312,0.004 0.18683,0.0147 0.0623,0.005 0.0985,-0.0547 0.12971,-0.052 0.166,-0.11178 0.12714,-0.0208 0.0311,0.004 0.0312,0.004 0.0312,0.004 0.0598,0.0363 0.0311,0.004 0.0572,0.0674 0.083,0.13224 -0.004,0.0312 0.0287,0.0337 -0.004,0.0312 0.026,0.065 -0.01,0.0933 -0.075,0.15065 -0.0726,0.11945 -0.1297,0.0519 -0.12714,0.0209 -0.0334,0.0287 -0.0987,0.0546 -0.10118,0.0859 -0.004,0.0311 -0.0363,0.0599 -0.005,0.0621 -0.004,0.0312 -0.005,0.0623 -0.0135,0.15565 0.0316,0.37884 0.0183,0.15836 -0.004,0.0312 0.0184,0.15825 -0.005,0.0623 0.026,0.065 -0.004,0.0311 0.0286,0.0336 -0.01,0.0933 0.0286,0.0337 -0.004,0.0312 0.0546,0.0986 -0.004,0.0312 0.0261,0.0649 0.0547,0.0986 0.0311,0.004 0.11178,0.16589 0.0572,0.0676 0.0882,0.07 0.0286,0.0335 0.0286,0.0336 0.0623,0.005 0.0599,0.0364 0.11947,0.0726 0.0311,0.004 0.0312,0.004 0.21028,0.11129 0.11691,0.10372 0.0312,0.004 0.0882,0.0698 0.0285,0.0337 0.0571,0.0673 0.091,0.0387 0.026,0.065 0.0285,0.0335 0.0572,0.0675 0.0285,0.0337 0.0496,0.1608 0.0312,0.004 -0.004,0.0312 -0.01,0.0933 0.0519,0.12968 -0.0386,0.091 -0.005,0.0623 -0.0363,0.0599 -0.10889,0.17917 -0.0387,0.0909 -0.004,0.0312 -0.004,0.0312 -0.004,0.0311 0.026,0.0649 0.026,0.065 0.20527,0.1736 0.0598,0.0364 0.18178,0.0777 0.24916,0.0199 0.0311,0.004 0.0962,-0.0235 0.12715,-0.0209 0.0311,0.004 0.0624,0.005 0.0597,0.0364 0.0285,0.0335 0.0312,0.004 0.0285,0.0335 0.0571,0.0675 0.0703,0.28792 0.0287,0.0335 0.13529,0.26196 0.23378,0.20748 0.24407,0.0828 0.12199,0.0416 0.28025,0.0232 0.19199,-0.0469 0.16344,-0.0807 0.2308,-0.13776 0.19967,-0.14031 0.15823,-0.0185 0.24659,0.0517 0.11691,0.10361 0.0679,0.31916 -0.0542,0.27767 0.24147,0.11393 0.24918,0.02 0.35026,-0.0653 0.19711,-0.10923 0.15823,-0.0183 0.12204,0.0413 0.15319,0.0439 0.0858,0.1011 0.0317,0.37885 -0.0751,0.15063 -0.17362,0.20519 -0.10629,0.14808 -0.0386,0.0909 -0.0135,0.15574 -0.01,0.0933 c 0.26705,0.0443 0.55851,0.15078 0.78368,0.003 0.19716,-0.10882 0.21167,-0.21066 0.15018,-0.3013 -0.0615,-0.0906 -0.22699,-0.17539 -0.35837,-0.21751 0.30456,-0.42778 0.22674,-0.89573 0.0818,-1.3729 -0.0206,-0.51634 -0.0234,-1.08147 0.15912,-1.5548 0.49242,-0.0791 0.9604,0.0809 1.31624,0.39045 0.28668,-0.0274 0.43134,0.15608 0.56617,0.36011 0.13475,0.20403 0.25965,0.43243 0.42361,0.56781 0.0849,0.16793 0.14368,0.29428 0.22355,0.33206 0.08,0.0377 0.16687,-0.004 0.26965,-0.22869 0.14637,-0.19406 0.41483,-0.28638 0.68224,-0.28886 0.26732,-0.001 0.52404,0.0811 0.70351,0.21457 0.0768,0.1228 0.0852,0.31262 0.11989,0.44893 0.0345,0.13619 0.11772,0.23431 0.36095,0.1864 0.14975,-0.009 0.33505,-0.21238 0.49785,-0.33534 0.16283,-0.12298 0.29911,-0.17719 0.36607,0.1242 0.0439,0.42244 -0.11353,0.82477 0.12068,1.20135 -0.0853,0.40718 0.71997,0.49706 0.62892,0.74163 -0.44026,0.0866 -0.86289,0.43796 -0.94374,0.80034 -0.11627,0.52045 -0.27603,0.72263 -0.44547,0.84132 -0.16947,0.11864 -0.3315,0.17212 -0.41213,0.43641 -0.1275,0.18539 -0.24735,0.35062 -0.26157,0.51159 -0.0147,0.16085 0.0851,0.31523 0.34298,0.40447 0.0976,0.4772 0.0221,0.98692 -0.0269,1.47144 -0.0337,0.41194 -0.0986,0.83434 -0.0716,1.24833 l 1.37806,0.0189 0.45442,0.19408 0.40484,0.0333 0.0227,-0.65656 -0.35884,-0.594 0.11731,-1.80886 -0.4983,-0.0411 -0.18513,-0.79916 4.22288,0.50401 0.19856,-3.55829 c -0.0273,-0.007 -0.0633,-0.0303 -0.0909,-0.0386 -0.2517,-0.0531 -0.45076,-0.25197 -0.49109,-0.51074 -0.0439,-0.14439 -3e-4,-0.37197 -0.18469,-0.42276 -0.26796,-0.0651 -0.58846,0.0132 -0.83584,-0.13141 -0.0986,-0.0663 -0.34634,-0.15894 -0.22609,-0.30087 0.13731,-0.092 0.30831,-0.16338 0.43042,-0.27806 0.12193,-0.0833 0.15899,-0.31694 -3e-4,-0.3763 -0.20448,-0.0258 -0.40103,0.0361 -0.57596,0.14068 -0.10608,0.0356 -0.33343,0.23909 -0.38142,0.0629 l 0.23911,-9.01071 9.83327,0.15005 -0.1047,8.89635 c 0.34238,-0.0393 0.76135,0.0144 1.10034,-0.0348 0.33896,-0.05 0.59425,-0.19826 0.65062,-0.66773 0.36469,-0.38401 0.83965,-0.43377 1.31283,-0.33105 0.47306,0.10279 0.9518,0.33422 1.33451,0.54869 0.28552,0.31074 0.80558,0.35811 1.14208,0.21932 0.16827,-0.0695 0.28315,-0.16585 0.30843,-0.31961 0.0253,-0.15364 -0.0464,-0.33582 -0.26783,-0.55501 -0.0877,-0.22012 -0.0278,-0.44436 0.0822,-0.62033 0.10999,-0.17598 0.27731,-0.32168 0.47189,-0.40019 0.19458,-0.0784 0.39959,-0.0884 0.56575,-0.0162 0.1661,0.0722 0.27946,0.21905 0.30419,0.4954 0.19221,0.0472 0.56434,0.14863 0.76067,0.28198 0.19634,0.13332 0.23229,0.30033 -0.16554,0.48807 -0.0283,0.25886 0.0917,0.42397 0.27304,0.49272 0.18115,0.0689 0.42243,0.0355 0.66176,-0.0397 0.23927,-0.0752 0.47918,-0.18287 0.62502,-0.35631 0.14577,-0.17334 0.18164,-0.39484 0.0824,-0.62034 -0.30234,-0.36337 -0.31247,-0.7722 -0.13356,-1.04565 0.17891,-0.27344 0.56698,-0.40619 1.02223,-0.22951 0.39008,0.0871 0.55417,-0.31616 0.73897,-0.59776 0.0926,-0.1407 0.17363,-0.23828 0.30341,-0.2572 0.12969,-0.0189 0.31399,0.0496 0.54003,0.29524 0.3956,-0.0183 0.6233,-0.40558 0.69714,-0.85194 0.0739,-0.44644 -10e-4,-0.94768 -0.18039,-1.23774 -0.0258,-0.34759 0.18476,-0.36418 0.42789,-0.24697 0.2432,0.11713 0.50518,0.36862 0.51461,0.60661 0.16124,0.37607 0.44762,0.47707 0.74274,0.50015 0.29507,0.023 0.59039,-0.0199 0.84093,0.069 -0.0683,0.42707 0.13062,0.87676 0.43469,1.19585 0.30407,0.31909 0.73882,0.49731 1.19164,0.38013 0.44904,-0.2041 0.69714,-0.0727 0.86182,0.19627 0.16463,0.26909 0.22045,0.67363 0.22941,1.02224 0.21941,0.13471 0.55185,0.2321 0.75308,0.37555 0.20122,0.14338 0.28561,0.33133 0.0682,0.69534 0.0846,0.27133 0.21374,0.37566 0.37677,0.37594 0.1629,0.002 0.35834,-0.10891 0.5499,-0.20564 0.19156,-0.0967 0.37962,-0.18601 0.5499,-0.20564 0.0731,-0.008 0.11671,0.0802 0.17927,0.10891 l 1.27063,-3.25063 1.76021,0.70912 0.19612,-8.10488 8.68101,0.0552 -0.0982,7.29777 12.56588,0.0923 -0.0124,2.82109 -1.07437,0.0998 -0.0254,0.68783 0.47479,-0.0549 -0.048,1.34442 0.97567,-0.0452 -0.0981,0.43084 2.06835,0.0134 0,0 9.7475,0.0489 -0.0176,-2.44722 10.13145,-0.0454 0.004,-0.0312 0.005,-0.0622 0.01,-0.12462 -0.026,-0.065 -0.0469,-0.19189 -0.0678,-0.31922 -0.0831,-0.13227 -0.0571,-0.0673 -0.0287,-0.0336 -0.11945,-0.0726 -0.2154,-0.049 -0.0598,-0.0364 -0.34302,-0.40446 -0.16382,-0.29573 -0.0261,-0.0647 -0.17909,-0.10888 -0.14298,-0.16848 -0.0547,-0.0987 0.004,-0.0312 -0.026,-0.065 -0.15068,-0.0748 -0.38956,-0.22025 -0.0882,-0.0698 -0.43126,-0.47452 -0.0312,-0.004 -0.11688,-0.10362 -0.26755,-0.17881 -0.17909,-0.1087 -0.0312,-0.004 -0.0287,-0.0336 -0.27002,-0.14762 -0.0285,-0.0335 -0.15064,-0.075 -0.0623,-0.005 0.004,-0.0312 -0.0311,-0.004 -0.11433,-0.13481 -0.0858,-0.1011 0.004,-0.0312 -0.026,-0.0648 -0.091,-0.0387 -0.0934,-0.01 -0.0311,-0.004 -0.0598,-0.0365 -0.0312,-0.004 -0.0311,-0.004 -0.0285,-0.0335 -0.0599,-0.0364 -0.11945,-0.0726 -0.0882,-0.0699 -0.0286,-0.0335 0.004,-0.0312 -0.0208,-0.12712 -0.0284,-0.0334 -0.0287,-0.0335 0.004,-0.0312 -0.0286,-0.0335 -0.0598,-0.0363 -0.0285,-0.0335 -0.0909,-0.0387 -0.0286,-0.0337 -0.0312,-0.004 -0.18421,-0.0465 -0.18441,-0.0466 -0.0311,-0.004 -0.11945,-0.0727 -0.0859,-0.10108 -0.15056,-0.075 -0.2155,-0.049 -0.2077,-0.1425 -0.20774,-0.14251 -0.23634,-0.17625 -0.0599,-0.0364 -0.0312,-0.004 -0.0572,-0.0673 -0.0909,-0.0387 -0.0573,-0.0674 -0.0285,-0.0335 -0.23121,-0.23856 -0.0286,-0.0335 -0.0286,-0.0336 -0.0287,-0.0337 -0.0285,-0.0335 0.004,-0.0312 -0.0312,-0.004 -0.0832,-0.13226 -0.0286,-0.0335 -0.0832,-0.13227 -0.0133,-0.22052 -0.0342,-0.34778 -0.14287,-0.16846 -0.0883,-0.0702 -0.11434,-0.13481 -0.13519,-0.26198 -0.16127,-0.3267 -0.16638,-0.26451 -0.30634,-0.088 -0.0312,-0.004 -0.21794,-0.0182 -0.49577,-0.072 -0.0312,-0.004 -0.0882,-0.0698 -0.0858,-0.10109 -0.0287,-0.0336 -0.11177,-0.16602 -0.0806,-0.16336 -0.052,-0.12972 -0.0341,-0.34775 -0.0705,-0.28793 0.004,-0.0312 -0.0831,-0.13227 -0.0831,-0.13227 -0.0882,-0.07 -0.66991,-0.24312 -0.15054,-0.0751 -0.14801,-0.1062 -0.26243,-0.24102 -0.0547,-0.0987 -0.0286,-0.0335 -0.0261,-0.065 -0.0547,-0.0985 -0.17662,-0.13994 -0.0857,-0.10108 -0.1092,-0.19723 -0.0312,-0.004 -0.19747,-0.26707 -0.1481,-0.1062 -0.24149,-0.11393 -0.17662,-0.13994 -0.0311,-0.004 0.004,-0.0312 -0.0261,-0.065 -0.0287,-0.0335 -0.0285,-0.0337 -0.26488,-0.20991 -0.26499,-0.20991 -0.0312,-0.004 -0.0882,-0.07 -0.20514,-0.17358 -0.0883,-0.07 -0.0859,-0.10109 -0.0285,-0.0337 -0.0571,-0.0674 -0.14296,-0.16857 -0.0858,-0.10109 -0.0287,-0.0337 -0.026,-0.065 -0.004,-0.34519 0.0517,-0.24661 0.0364,-0.0597 0.01,-0.0934 -0.0184,-0.15824 -0.0134,-0.2206 0.004,-0.0311 0.004,-0.0312 0.01,-0.1246 0.0386,-0.0909 0.0386,-0.091 0.005,-0.0623 -0.0519,-0.12969 -0.10666,-0.22821 -0.16905,-0.23344 -0.057,-0.0674 -0.17931,-0.10879 -0.23892,-0.14508 -0.20515,-0.17369 -0.18174,-0.0777 -0.32729,-0.21505 -0.0546,-0.0985 -0.0547,-0.0987 -0.0286,-0.0337 -0.0285,-0.0336 0.005,-0.0623 -0.078,-0.19453 -0.12495,-0.38657 -0.0445,-0.22308 0.0135,-0.15572 0.0854,-0.27523 0.13993,-0.17653 0.14508,-0.23892 0.0335,-0.0286 0.13739,-0.14553 0.004,-0.0311 0.0335,-0.0286 0.01,-0.1246 0.004,-0.0312 0.004,-0.0312 0.005,-0.0621 -0.0235,-0.0961 0.004,-0.0311 -0.0285,-0.0337 0.004,-0.0312 -0.0288,-0.0335 -0.0261,-0.065 -0.0311,-0.004 -0.026,-0.0648 -0.0286,-0.0336 -0.0287,-0.0336 -0.0311,-0.004 -0.0286,-0.0336 -0.0286,-0.0335 -0.0571,-0.0674 -0.0311,-0.004 -0.0287,-0.0337 -0.0287,-0.0335 -0.0571,-0.0674 0.004,-0.0312 0.004,-0.0311 -0.1404,-0.19967 -0.0496,-0.16091 -0.11178,-0.16591 -0.10664,-0.22831 -0.0883,-0.0697 -0.057,-0.0675 -0.0261,-0.0649 -0.0235,-0.0961 -0.0185,-0.15823 -0.18991,-0.36057 -0.13261,-0.29305 -0.0859,-0.10118 -0.0286,-0.0337 -0.0756,-0.22575 -0.0285,-0.0337 -0.0547,-0.0987 0.0956,-0.39972 0.0147,-0.18698 -0.026,-0.0648 0.004,-0.0312 -0.10411,-0.25941 -0.0445,-0.22309 -0.0652,-0.35033 -0.0755,-0.22575 -0.0209,-0.12712 0.004,-0.0311 -0.0547,-0.0987 -0.0184,-0.15824 -0.0209,-0.12715 -0.0236,-0.0961 -0.0184,-0.15825 0.004,-0.0311 0.004,-0.0312 -0.0234,-0.096 0.005,-0.0623 -0.0286,-0.0337 0.01,-0.12461 0.01,-0.0933 -0.0236,-0.096 0.004,-0.0312 0.0802,-0.21283 0.004,-0.0312 -0.0964,-0.35281 -0.0419,-0.25428 0.005,-0.0623 0.0491,-0.21549 0.0364,-0.0597 0.0725,-0.11945 0.004,-0.0312 0.0364,-0.0598 -0.0261,-0.0649 -0.0208,-0.12713 -0.0235,-0.096 -0.0157,-0.18952 0.0516,-0.24662 0.0182,-0.21793 -0.0573,-0.0674 0.005,-0.0623 0.005,-0.0623 0.0727,-0.11946 0.0386,-0.091 0.0336,-0.0285 0.0312,0.004 0.005,-0.0623 0.0336,-0.0285 0.11645,-0.27259 0.005,-0.0623 -0.0261,-0.0648 -0.0495,-0.1608 0.0135,-0.15573 0.005,-0.0623 0.01,-0.12462 0.0335,-0.0284 0.004,-0.0312 0.004,-0.0312 0.0386,-0.0909 0.0414,-0.122 0.27686,-0.69838 0.0415,-0.12201 0.0879,-0.30642 0.004,-0.0311 0.004,-0.0311 0.0802,-0.21294 0.10879,-0.17918 0.10372,-0.1169 0.005,-0.0623 0.0311,0.004 0.0414,-0.12202 0.0336,-0.0285 0.004,-0.0312 0.0335,-0.0285 0.004,-0.0311 0.13226,-0.0832 0.10119,-0.0857 0.096,-0.0236 0.0674,-0.0571 0.0726,-0.11945 0.0674,-0.0573 -0.0571,-0.0673 -0.0312,-0.004 0.004,-0.0312 -0.0621,-0.005 -0.12201,-0.0416 -0.091,-0.0386 -0.0311,-0.004 -0.0935,-0.01 -0.13992,0.17662 -0.0363,0.0598 -0.0337,0.0284 -0.004,0.0312 -0.0312,-0.004 -0.22053,0.0134 -0.0286,-0.0337 -0.026,-0.065 0.0363,-0.0598 -0.0208,-0.12713 -0.13225,0.083 -0.12714,0.0209 -0.0623,-0.005 -0.0312,-0.004 -0.0597,-0.0364 -0.13275,-0.29308 0.004,-0.0311 0.0439,-0.15322 0.005,-0.0623 0.004,-0.0312 -0.0285,-0.0336 -0.0312,-0.004 -0.0364,0.0599 -0.0311,-0.004 -0.004,0.0312 -0.0933,-0.01 -0.0933,-0.01 -0.0597,-0.0363 -0.0312,-0.004 -0.0287,-0.0334 -0.0285,-0.0337 -0.091,-0.0387 -0.0932,-0.01 -0.0909,-0.0386 -0.0599,-0.0363 -0.026,-0.065 -0.0234,-0.096 0.01,-0.0933 0.10881,-0.17928 0.0416,-0.12202 0.005,-0.0622 -0.0285,-0.0335 -0.096,0.0237 -0.091,-0.0387 -0.0883,-0.0701 -0.0285,-0.0336 0.005,-0.0624 0.0363,-0.0597 0.13483,-0.11432 0.0364,-0.0599 0.0337,-0.0285 0.005,-0.0623 -0.0209,-0.12713 -0.0287,-0.0336 -0.0285,-0.0335 -0.0623,-0.005 -0.0649,0.026 -0.0311,-0.004 -0.22063,0.0134 -0.18692,-0.0147 -0.24658,-0.0518 -0.0909,-0.0387 -0.14809,-0.10628 -0.11435,-0.13481 -0.0261,-0.0648 -0.0285,-0.0335 -0.0208,-0.12713 -0.0756,-0.22566 -0.0832,-0.13227 -0.0857,-0.1012 -0.12203,-0.0414 -0.0599,-0.0364 -0.12201,-0.0415 -0.0883,-0.0697 -0.0882,-0.0701 -0.0572,-0.0673 -0.0571,-0.0675 -0.0209,-0.12715 0.005,-0.0622 0.0854,-0.27523 -0.0135,-0.22053 -0.0209,-0.12714 -0.026,-0.0651 -0.0285,-0.0335 -0.0312,-0.004 -0.0286,-0.0335 -0.0311,-0.004 -0.2466,-0.0518 -0.36862,-0.093 -0.34006,-0.0592 -0.24659,-0.0518 -0.14802,-0.10619 -0.0285,-0.0337 0.004,-0.0312 -0.0261,-0.0649 -0.0237,-0.0961 0.12167,-0.33497 0.005,-0.0621 0.004,-0.0312 -0.0547,-0.0985 -0.17918,-0.10889 -0.32728,-0.21503 -0.11947,-0.0725 -0.0545,-0.0987 -0.19247,-0.32926 z"
       id="MO-06"
       style="font-style:normal;font-weight:400;font-size:34.375px;font-family:'MS Shell Dlg 2';opacity:1;fill:none;fill-opacity:1;fill-rule:evenodd;stroke:#000000;stroke-width:0.33333385;stroke-linecap:square;stroke-linejoin:bevel;stroke-miterlimit:4;stroke-dasharray:none;stroke-opacity:1" />
    <path
       inkscape:connector-curvature="0"
       d="m 473.50762,567.83844 0.15126,-8.70439 -3.25957,-0.0171 0.10344,-7.36007 1.91014,0.0314 c 0.0352,-0.17612 0.10624,-0.34386 0.1057,-0.52431 -0.007,-0.39786 -0.5205,-0.46311 -0.69114,-0.74665 0.22364,-0.10231 0.45973,-0.35973 0.30292,-0.63361 -0.17892,-0.14483 -0.35123,-0.0906 -0.53194,-0.0126 -0.18072,0.0781 -0.37069,0.18093 -0.54735,0.17444 0.0387,-0.3138 -0.0772,-0.54617 -0.28118,-0.77565 -0.29737,-0.72772 -0.0305,-1.51131 -0.0647,-2.26291 -0.008,-0.38146 -0.39436,-0.51797 -0.70913,-0.5286 -0.33407,-0.0813 -0.65077,0.0499 -0.9002,0.27086 -0.28342,0.16181 -0.44721,0.45891 -0.50261,0.77403 -0.0452,0.21229 -0.20169,0.24249 -0.32939,0.19235 -0.12771,-0.0502 -0.23647,-0.20778 -0.25208,-0.36559 -0.22109,-0.26792 -0.61956,-0.30531 -0.94762,-0.29745 l -0.007,-1.06661 -0.40485,-0.0333 -0.0121,-4.04593 -2.4732,-0.0466 0.45507,-10.87429 -9.8568,-0.24592 -0.47395,14.91753 -10.46678,-0.45286 0.10182,-1.62209 -11.93311,-0.54214 0.003,0.72149 -0.004,0.0311 -0.031,0.37373 -0.05,1.75179 -0.0178,0.59435 0.0236,0.096 -0.0182,0.21795 -0.004,0.0312 -0.0177,0.59427 3e-4,0.37631 -0.0135,0.15573 -0.0182,0.21793 0.0156,0.18954 3e-4,0.37628 -0.02,0.24922 -0.0148,0.56306 0.026,0.065 -0.025,0.31139 0.0182,0.15834 -0.0199,0.24919 -0.005,0.0623 0.0185,0.15824 -0.01,0.0933 -0.01,0.0933 -0.01,0.0933 0.0135,0.22054 -0.01,0.0933 -0.01,0.12462 -0.004,0.0312 0.0156,0.18951 -0.01,0.0933 -0.01,0.0933 -0.004,0.43867 -0.0182,0.21795 -0.0148,0.56317 0.0236,0.0961 -0.01,0.1246 -0.0147,0.18681 -0.005,0.0624 -0.005,0.0622 -0.007,1.22237 -0.004,0.0312 -0.01,0.0933 -0.0199,0.24921 0.0134,0.22062 -0.01,0.0932 0.0156,0.18943 -0.02,0.2492 3e-4,0.3763 -0.0411,0.49829 0.007,0.31402 -0.0126,0.53206 -0.005,0.0622 0.0235,0.0961 -0.004,0.0311 -0.0232,0.28035 -0.01,0.0933 0.0184,0.15832 -0.005,0.0623 -0.0146,0.93947 -0.01,0.50088 -0.01,0.12459 0.007,0.28292 -0.048,1.34431 0.0156,0.18942 -0.0146,0.93947 -0.004,0.0312 -0.0282,0.34254 0.0261,0.0648 -0.033,0.78113 -0.004,0.0312 0.004,0.34508 -0.0135,0.15575 0.0135,0.22053 -0.004,0.0312 -0.0148,0.56317 0.009,0.25172 -0.036,0.436 0.0184,0.15835 -0.0248,0.31137 -0.005,0.0623 -0.004,0.0311 -0.004,0.43859 -0.01,0.0933 -0.004,0.43867 0.53458,-0.0188 0.81232,0.0354 0.0932,0.01 0.7215,-0.003 0.0933,0.01 0.90831,0.0119 0.0933,0.01 0.43849,0.004 0.0934,0.01 0.0933,0.01 0.7214,-0.003 0.0312,0.004 0.1246,0.01 0.46971,0.006 0.0623,0.005 0.0311,0.004 0.0312,0.004 0.47224,-0.0239 0.0312,0.004 0.34254,0.0282 0.15833,-0.0184 0.21794,0.0182 0.37633,-3.2e-4 0.62542,0.0205 0.21805,0.0182 0.0961,-0.0235 0.0622,0.005 1.18872,0.0349 0.4697,0.006 0.0623,0.005 0.15564,0.0135 0.0623,0.005 0.0311,0.004 0.15825,-0.0185 1.00176,0.0192 0.40495,0.0333 0.0337,-0.0286 0.0311,0.004 0.2492,0.02 0.0336,-0.0287 0.0933,0.01 0.40739,0.001 1.6272,0.0404 0.18953,-0.0157 0.4697,0.006 0.0932,0.01 0.18701,0.0147 0.0311,0.004 0.0623,0.005 0.6592,-0.008 0.0622,0.005 0.1246,0.01 0.3763,-3.2e-4 0.87719,0.01 0.62803,-0.0112 0.0623,0.005 0.0622,0.005 1.84782,0.0266 0.0312,0.004 0.0961,-0.0233 0.25173,-0.009 0.0622,0.005 0.12461,0.01 0.0312,0.004 0.18683,0.0147 0.22063,-0.0134 0.21804,0.0182 0.18936,-0.0157 0.2517,-0.009 2.19047,0.0547 0.0311,0.004 1.56748,0.003 0.12715,-0.0208 0.15572,0.0135 0.18683,0.0147 0.0933,0.01 0.25173,-0.009 0.40739,10e-4 0.46978,0.006 0.0933,0.01 0.18932,-0.0156 0.18703,0.0147 0.15824,-0.0184 0.0933,0.01 0.18683,0.0147 0.0623,0.005 0.0311,0.004 0.22061,-0.0134 0.97059,0.0168 0.62803,-0.0112 0.43857,0.004 1.03283,0.0226 0.69043,-0.005 0.24918,0.02 1.25604,-0.0222 0.0933,0.01 0.40747,10e-4 0.15565,0.0135 0.84866,-0.0244 0.0311,0.004 0.40738,10e-4 1.16012,9.8e-4 0.0933,0.01 0.62543,0.0205 0.31415,-0.007 0.87718,0.01 0.12714,-0.0208 0.28023,0.0232 0.50345,-0.0214 0.90827,0.012 0.34521,-0.004 1.22236,0.007 0.28283,-0.008 z"
       id="MO-07"
       style="font-style:normal;font-weight:400;font-size:34.375px;font-family:'MS Shell Dlg 2';opacity:1;fill:none;fill-opacity:1;fill-rule:evenodd;stroke:#000000;stroke-width:0.33333385;stroke-linecap:square;stroke-linejoin:bevel;stroke-miterlimit:4;stroke-dasharray:none;stroke-opacity:1" />
    <path
       inkscape:connector-curvature="0"
       d="m 527.10031,518.56406 c -0.11195,-0.0103 -0.23054,-0.0198 -0.34266,-0.0282 -0.27973,-0.0353 -0.54164,0.0566 -0.8199,0.0579 -0.32101,0.0469 -0.28031,-0.30057 -0.36654,-0.5004 -0.14015,-0.27101 -0.50399,-0.0877 -0.69835,-0.27695 -0.11654,-0.252 0.019,-0.57439 0.007,-0.8461 0.0433,-0.26253 -0.0168,-0.56959 -0.28879,-0.68216 -0.20968,-0.0441 -0.3663,-0.16877 -0.4727,-0.35242 -0.1466,-0.22697 0.21798,-0.32886 0.37584,-0.37678 0.15785,-0.0479 -3.31815,-0.0207 -3.41779,9.7e-4 -0.0998,0.0222 -0.21273,0.0673 -0.31658,0.0368 -0.21707,-0.10685 -0.45101,-0.0929 -0.67494,-0.18093 -0.14787,-0.0906 -0.0881,-0.30225 -0.0888,-0.44627 0.0533,-0.18496 -0.0982,-0.28681 -0.25721,-0.30339 -0.19204,-0.0761 -0.30427,-0.24736 -0.50905,-0.29271 -0.18947,-0.004 -0.41238,-0.15981 -0.59169,-0.0487 -0.22027,0.18097 -0.33243,0.46763 -0.46638,0.71421 l -0.47282,4.22545 -16.81149,0.0606 0.0253,1.60115 -2.03729,-0.0106 0.0111,2.91692 -6.02847,0.10012 -1.59739,1.12287 -1.15753,-0.0324 -0.0207,11.69396 -4.85568,-0.0542 -0.11261,3.65935 -9.70358,-0.20205 0.039,11.73023 -3.03636,-0.0616 c 0,0 0,0 0,0 l -1.91014,-0.0314 -0.10344,7.36007 3.25957,0.0171 -0.15126,8.70438 0.0311,0.004 0.22064,-0.0133 2.85216,0.015 0.15824,-0.0184 0.28281,-0.008 0.1246,0.01 1.09783,-0.004 0.0933,0.01 0.37887,-0.0316 0.28282,-0.01 0.0311,0.004 0.28292,-0.007 0.72139,-0.003 0.0623,0.005 0.65911,-0.008 0.21807,0.0182 0.21794,0.0182 0.18941,-0.0156 0.12461,0.01 0.8149,0.005 0.21794,0.0182 0.0961,-0.0236 0.47233,-0.0238 0.72142,-0.003 0.21792,0.0182 1.06928,-0.0376 0.0622,0.005 0.97323,-0.0141 0.0623,0.005 0.0623,0.005 0.25172,-0.009 1.12889,-9.7e-4 0.28281,-0.007 0.40751,10e-4 0.50343,-0.0213 0.53465,-0.0187 0.40738,10e-4 0.0311,0.004 0.28034,0.0232 0.31401,-0.007 0.22064,-0.0135 0.69019,-0.005 0.0624,0.005 0.72139,-0.003 0.41006,-0.0289 0.12459,0.01 0.65912,-0.008 0.81489,0.005 0.0623,0.005 0.40996,-0.0292 0.18953,-0.0156 0.72138,-0.003 0.0933,0.01 0.0623,0.005 0.3139,-0.007 0.065,-0.026 0.37628,-3e-4 0.9083,0.0117 0.87973,-0.0217 0.0311,0.004 0.31414,-0.007 0.65909,-0.008 0.2828,-0.007 0.31413,-0.007 0.34508,-0.004 0.12714,-0.0208 0.31399,-0.007 0.40742,0.001 0.0312,0.004 0.15574,0.0135 0.0312,0.004 0.0335,-0.0286 0.0312,0.004 0.0623,0.005 0.12461,0.01 0.0961,-0.0234 0.0622,0.005 0.15572,0.0135 0.0623,0.005 0.50345,-0.0215 0.0311,0.004 0.0934,0.01 0.12713,-0.0208 0.34265,0.0282 0.65655,0.0227 0.0962,-0.0236 0.22054,-0.0134 0.0623,0.005 0.59437,0.0178 0.0311,0.004 0.0311,0.004 1.75947,-0.0436 0.56583,-0.0162 1.53885,-0.0302 0.18943,-0.0157 0.18691,0.0147 0.0311,0.004 1.03808,-0.04 1.0355,-0.009 0.37887,-0.0317 0.31389,-0.007 1.75947,-0.0435 0.0312,0.004 0.18941,-0.0157 0.62805,-0.0112 0.40737,10e-4 0.0624,0.005 0.47224,-0.0239 0.34509,-0.004 0.0336,-0.0287 1.00431,-0.0118 0.0623,0.005 0.0623,0.005 0.22051,-0.0134 0.0623,0.005 0.25174,-0.009 1.06907,-0.0378 0.43867,0.004 0.0312,0.004 0.0623,0.005 0.31656,-0.0367 1.25606,-0.0222 0.40738,10e-4 0.91094,-0.0191 0.096,-0.0236 0.21806,0.0182 0.59947,-0.0446 0.15565,0.0135 0.25172,-0.009 0.22061,-0.0133 0.18682,0.0147 1.41438,-0.0405 0.34511,-0.004 0.0961,-0.0236 0.0311,0.004 0.5969,-0.0134 0.65914,-0.008 0.15834,-0.0184 0.12459,0.01 1.13147,-0.0326 0.84856,-0.0244 0.28291,-0.008 0.22052,-0.0134 1.19385,-0.0274 0.43849,0.004 0.37884,-0.0316 0.18953,-0.0156 0.0622,0.005 0.53463,-0.0188 0.46969,0.006 0.47234,-0.0239 -0.0335,0.0286 0.0286,0.0335 -0.0364,0.0599 -0.0599,-0.0364 -0.0335,0.0287 -0.004,0.0312 0.0286,0.0335 0.0599,0.0364 -0.005,0.0623 -0.0623,-0.005 -0.005,0.0622 0.0286,0.0335 -0.0387,0.0909 -0.004,0.0312 0.0287,0.0335 0.24404,0.0827 0.0648,-0.026 -0.004,0.0311 0.0311,0.004 0.0236,0.0961 -0.004,0.0311 -0.0674,0.0573 -0.0598,-0.0364 -0.0934,-0.01 -0.0727,0.11946 -0.01,0.0933 0.28037,0.0232 0.004,-0.0311 0.0312,0.004 0.0311,0.004 -0.004,0.0312 -0.004,0.0312 -0.004,0.0312 0.0598,0.0363 0.0547,0.0987 0.0235,0.0961 -0.01,0.12459 0.0209,0.12715 -0.004,0.0312 0.0547,0.0985 -0.004,0.0312 -0.0726,0.11944 -0.0335,0.0286 -0.096,0.0235 -0.005,0.0623 -0.01,0.0934 -0.004,0.0312 0.11946,0.0725 0.0312,0.004 0.0364,-0.0597 0.0311,0.004 -0.004,0.0311 -0.01,0.12463 -0.004,0.0311 -0.004,0.0312 -0.0648,0.0261 -0.004,0.0312 0.0312,0.004 0.0623,0.005 0.0674,-0.0571 0.0547,0.0985 0.18691,0.0147 0.11945,0.0727 0.026,0.0648 0.12202,0.0415 0.0623,0.005 0.0649,-0.0261 0.21804,0.0182 0.30631,0.0881 0.0312,0.004 0.0286,0.0335 0.026,0.0649 0.0288,0.0335 0.0571,0.0674 0.0311,0.004 0.0832,0.13225 0.11177,0.16602 0.009,0.25172 -0.0147,0.18691 -0.004,0.0311 -0.0147,0.18703 -0.10109,0.0857 -0.10869,0.17919 -0.0336,0.0285 0.0547,0.0987 0.026,0.0648 -0.0335,0.0287 -0.0335,0.0285 -0.01,0.12462 0.0597,0.0363 -0.004,0.0312 -0.0388,0.0909 -0.0386,0.091 -0.0675,0.0571 -0.01,0.12461 0.0312,0.004 0.0287,0.0337 -0.005,0.0622 0.0312,0.004 0.004,-0.0311 0.0335,-0.0284 0.0312,0.004 0.17407,0.17104 0.052,0.1297 0.0261,0.0649 0.0546,0.0986 -0.14508,0.2389 -0.0335,0.0287 -0.13737,0.14553 0.0468,0.19189 -0.14761,0.2701 -0.0649,0.0261 -0.12715,0.0208 -0.19455,0.078 -0.12969,0.0519 -0.0933,-0.01 -0.065,0.0261 -0.0335,0.0287 -0.0464,0.18421 -0.0439,0.1532 -0.11644,0.2727 -0.0336,0.0286 -0.0933,-0.01 -0.004,0.0311 -0.004,0.0312 -0.004,0.0312 0.0546,0.0986 0.0312,0.004 0.0599,0.0364 -0.004,0.0311 -0.0413,0.12202 -0.13229,0.0831 -0.0651,0.026 -0.0909,-0.0386 -0.0934,-0.01 -0.17625,0.23635 -0.0415,0.12203 -0.0673,0.057 -0.0312,-0.004 -0.0599,-0.0364 -0.0311,-0.004 -0.1609,0.0495 -0.10109,0.0858 -0.16346,0.0808 -0.0699,0.0883 -0.0623,-0.005 -0.0623,-0.005 -0.0414,0.12202 -0.065,0.026 -0.0312,-0.004 -0.0414,0.12202 -0.0624,-0.005 -0.0311,-0.004 -0.01,0.0933 0.0286,0.0335 -0.0749,0.15057 -0.0651,0.0261 -0.10109,0.0857 -0.0623,-0.005 -0.0286,-0.0335 -0.1246,-0.01 -0.18395,0.32985 -0.0414,0.12199 0.0261,0.0647 -0.11131,0.21039 0.0806,0.16336 0.0185,0.15834 -0.004,0.0312 -0.0751,0.15055 -0.005,0.0623 -0.12972,0.052 -0.096,0.0235 -0.01,0.12462 -0.0674,0.0572 -0.004,0.0312 -0.0987,0.0547 -0.0335,0.0285 -0.0312,-0.004 -0.0599,-0.0364 -0.0648,0.0261 -0.11142,0.21027 -0.1297,0.052 -0.15824,0.0184 -0.29059,0.10155 -0.0312,-0.004 -0.004,0.0312 -0.0336,0.0287 -0.0777,0.18165 0.0286,0.0336 -0.005,0.0623 -0.0416,0.12201 -0.13481,0.11433 -0.15834,0.0184 -0.13481,0.11433 -0.004,0.0312 -0.0364,0.0599 0.0185,0.15822 0.0261,0.0651 0.0261,0.0648 -0.004,0.0312 -0.0414,0.12201 -0.29316,0.13273 -0.0438,0.1531 -0.005,0.0623 -0.0182,0.21795 -0.01,0.12461 -0.0623,-0.005 -0.0698,0.0883 -0.10119,0.0859 -0.0335,0.0286 -0.004,0.0311 -0.004,0.0312 0.0235,0.096 -0.0386,0.0911 -0.0387,0.091 0.026,0.0648 -0.004,0.0312 -0.14252,0.20771 -0.13738,0.14553 -0.0699,0.0882 -0.10879,0.17929 -0.11404,0.24148 0.18945,-0.0157 0.59682,-0.0136 0.0961,-0.0235 1.06917,-0.0376 0.0622,0.005 0.9446,-0.0477 0.0312,0.004 1.19622,-0.0585 0.18702,0.0147 0.63055,-0.0421 0.72398,-0.0347 0.0312,0.004 0.15564,0.0135 0.0961,-0.0235 0.0933,0.01 0.0336,-0.0287 0.1246,0.01 0.75517,-0.0318 0.37885,-0.0317 1.352,-0.0457 0.53463,-0.0187 0.15563,0.0135 0.0961,-0.0235 0.0311,0.004 0.314,-0.007 1.03807,-0.04 0.096,-0.0236 0.47226,-0.024 0.0312,0.004 0.12713,-0.0208 0.21794,0.0182 0.18951,-0.0156 0.22055,-0.0134 0.84853,-0.0243 0.78894,-0.0606 0.75515,-0.032 0.0933,0.01 0.59948,-0.0448 0.0386,-0.0909 0.0387,-0.0909 0.25127,-0.38701 0.0439,-0.15321 0.005,-0.0622 0.0439,-0.1532 0.0282,-0.34253 0.0135,-0.15576 0.0488,-0.59169 0.0232,-0.28035 0.0364,-0.0598 0.11141,-0.2104 0.13484,-0.11433 0.22819,-0.10665 0.32426,-0.13007 0.32168,-0.0991 0.0674,-0.0571 0.0986,-0.0547 0.0363,-0.0598 0.0987,-0.0547 0.0334,-0.0285 0.26197,-0.13529 0.0674,-0.0571 0.10619,-0.14798 0.01,-0.0933 0.0135,-0.15563 0.004,-0.0312 0.0182,-0.21797 -0.0185,-0.15832 -0.0519,-0.12972 -0.0287,-0.0335 -0.026,-0.0648 -0.11176,-0.16605 0.004,-0.0312 -0.0311,-0.004 -0.11176,-0.16594 -0.29363,-0.24366 -0.11947,-0.0725 -0.11944,-0.0727 -0.18165,-0.0776 -0.20782,-0.14251 -0.20271,-0.20489 -0.0909,-0.0386 -0.15064,-0.075 -0.17398,-0.17112 -0.17928,-0.1088 -0.11689,-0.10362 -0.17656,-0.13992 -0.0883,-0.07 -0.0599,-0.0362 -0.0286,-0.0335 -0.11434,-0.13483 -0.0285,-0.0337 0.004,-0.0312 0.004,-0.0311 0.004,-0.0311 0.005,-0.0623 0.004,-0.0311 0.0336,-0.0286 0.0727,-0.11947 0.005,-0.0623 0.0984,-0.0545 0.0312,0.004 0.0311,0.004 0.15057,0.0749 0.187,0.0147 0.57075,-0.0786 0.18701,0.0147 0.0622,0.005 0.091,0.0387 0.30378,0.11894 0.30376,0.11904 0.0311,0.004 0.0312,0.004 0.0312,0.004 0.12461,0.01 0.28793,-0.0704 0.0311,0.004 0.22574,-0.0755 0.0335,-0.0286 0.0651,-0.026 0.20212,-0.17152 0.0338,-0.0287 0.12717,-0.0208 0.0933,0.01 0.0883,0.07 0.0311,0.004 0.0623,0.005 0.0933,0.01 0.0364,-0.0598 0.0673,-0.0571 0.0335,-0.0287 -0.009,-0.2828 -0.0443,-0.22319 -0.0209,-0.12714 -0.0571,-0.0674 -0.11943,-0.0727 0.004,-0.0312 -0.0649,0.026 -0.0364,0.0599 -0.12713,0.0208 -0.54259,-0.26413 -0.14553,-0.1374 -0.11689,-0.10363 -0.53758,-0.32644 -0.19246,-0.32929 0.005,-0.0623 -0.0156,-0.18931 0.0777,-0.18186 0.13482,-0.11431 0.0986,-0.0546 0.1297,-0.0521 0.4075,10e-4 0.49062,0.13445 0.37631,-3.1e-4 0.12716,-0.0209 0.16088,-0.0495 0.10108,-0.0858 0.10109,-0.0858 0.0727,-0.11945 0.0438,-0.15314 0.075,-0.15054 0.0491,-0.2155 0.0147,-0.18692 0.004,-0.0312 -0.0236,-0.0961 -0.0806,-0.16345 -0.27573,-0.46154 -0.42615,-0.53673 -0.0236,-0.0961 -0.0234,-0.0961 -0.0235,-0.0961 0.01,-0.1246 0.0386,-0.0909 0.0387,-0.091 0.30595,-0.28842 0.0387,-0.0909 0.0364,-0.0599 0.0438,-0.15313 0.0439,-0.15309 -0.0134,-0.22066 -0.0235,-0.0961 -0.0571,-0.0673 -0.29098,-0.27477 -0.0806,-0.16347 -0.0286,-0.0336 -0.078,-0.19447 -0.22867,-0.26964 -0.0597,-0.0364 -0.0808,-0.16347 -0.0547,-0.0985 -0.10922,-0.19712 -0.0235,-0.0961 -0.10666,-0.22821 -0.026,-0.065 -0.0185,-0.15824 0.0438,-0.15323 0.0464,-0.18431 0.0727,-0.11945 0.10619,-0.14799 0.10109,-0.0858 0.0312,0.004 0.13482,-0.11432 0.096,-0.0236 0.34521,-0.004 0.0311,0.004 0.0623,0.005 0.0908,0.0387 0.0312,0.004 0.0621,0.005 0.34265,0.0282 0.33498,0.12157 0.11944,0.0725 0.0286,0.0335 0.0286,0.0337 0.10924,0.19711 0.0756,0.22577 0.052,0.12969 0.0469,0.1919 0.0234,0.0961 -0.004,0.0311 0.0209,0.12713 -0.004,0.0312 -0.004,0.0312 -0.0491,0.2154 -0.0777,0.18177 -0.004,0.0311 -0.0363,0.0599 -0.0726,0.11945 -0.004,0.0312 -0.10373,0.1169 -0.0748,0.15056 -0.0365,0.0599 -0.13178,0.45945 -0.01,0.0933 -0.005,0.0624 0.0546,0.0985 0.0521,0.12972 0.11688,0.10362 0.21031,0.11141 0.12458,0.01 0.15834,-0.0185 0.0648,-0.0261 0.166,-0.11177 0.1011,-0.0858 0.27477,-0.29106 0.17368,-0.20517 0.11382,-0.24148 0.0727,-0.11944 0.0438,-0.15321 0.256,-0.82549 0.12668,-0.39728 0.0232,-0.28023 0.01,-0.12463 0.01,-0.0933 0.27437,-0.66716 0.049,-0.2155 0.0411,-0.4983 0.0135,-0.15564 0.0364,-0.0599 0.075,-0.15056 0.13481,-0.11434 0.19712,-0.10922 0.28805,-0.0704 0.22307,-0.0443 0.12714,-0.0209 0.0312,0.004 0.20261,0.20478 0.11433,0.13483 0.27817,0.43046 0.19502,0.29827 0.34044,0.43567 0.0598,0.0362 0.0858,0.1012 0.0286,0.0335 0.0911,0.0386 0.17916,0.10888 0.0623,0.005 0.47493,-0.055 0.22817,-0.10666 0.1374,-0.14543 0.0648,-0.026 0.10372,-0.11689 0.20945,-0.64131 0.0384,-0.46711 0.0182,-0.21807 0.0387,-0.091 0.0778,-0.18164 0.10618,-0.14812 0.10362,-0.11689 0.20234,-0.17148 0.17615,-0.23637 0.0364,-0.0598 0.10879,-0.17918 -0.20781,-0.14252 -0.0933,-0.01 0.0674,-0.0571 0.0387,-0.0908 -0.0443,-0.22321 -0.0261,-0.065 0.004,-0.0312 -0.11435,-0.13482 -0.23637,-0.17616 -0.2884,-0.30584 0.004,-0.0312 -0.0572,-0.0674 -0.0312,-0.004 0.005,-0.0623 -0.0286,-0.0335 0.004,-0.0311 0.004,-0.0311 -0.0235,-0.0961 0.004,-0.0311 0.004,-0.0312 0.0182,-0.21793 0.0438,-0.15323 0.1425,-0.20773 0.13996,-0.17669 0.10119,-0.0858 0.0985,-0.0546 0.0312,0.004 0.0986,-0.0546 0.0623,0.005 0.21296,0.0801 0.12713,-0.0208 0.0622,0.005 0.12461,0.01 0.0312,0.004 0.14811,0.10618 0.12716,-0.0209 0.0933,0.01 0.0698,-0.0882 0.075,-0.15065 0.0491,-0.2154 0.01,-0.12461 -0.0235,-0.096 -0.0779,-0.19466 -0.0883,-0.0699 -0.11942,-0.0727 -0.0933,-0.01 -0.25173,0.009 -0.28025,-0.0232 -0.091,-0.0387 -0.17653,-0.13993 -0.0599,-0.0362 -0.16629,-0.26452 -0.0261,-0.065 -0.0236,-0.096 0.01,-0.0933 -0.0289,-0.40993 0.01,-0.12462 0.0335,-0.0286 0.0698,-0.0882 0.0674,-0.0572 0.0962,-0.0235 0.15824,-0.0185 0.0335,-0.0286 0.10119,-0.0858 0.12715,-0.0209 0.22317,-0.0443 0.11644,-0.27257 0.0929,-0.36862 0.005,-0.0624 0.004,-0.0312 0.0334,-0.0286 0.0726,-0.11945 0.0414,-0.12203 0.0414,-0.122 0.13922,-0.92931 0.13946,-0.55284 0.0415,-0.12201 0.001,-0.4075 0.01,-0.0933 0.005,-0.0624 -0.0286,-0.0335 -0.0287,-0.0335 -0.026,-0.0651 -0.0286,-0.0335 -0.0571,-0.0674 -0.0831,-0.13228 -0.148,-0.10619 -0.0599,-0.0365 -0.15573,-0.0135 -0.0933,-0.01 -0.096,0.0236 -0.16347,0.0806 -0.0648,0.0261 -0.1297,0.0519 -0.29306,0.13273 -0.16345,0.0806 -0.15575,-0.0135 -0.21539,-0.049 -0.11434,-0.13485 -0.0286,-0.0335 -0.0703,-0.28801 -0.007,-0.28293 -0.0287,-0.0335 -0.0233,-0.0961 -0.0236,-0.096 0.004,-0.0312 -0.0261,-0.0648 -0.0286,-0.0336 -0.026,-0.065 0.004,-0.0311 -0.0312,-0.004 -0.0857,-0.10118 -0.15066,-0.075 -0.11689,-0.10362 -0.21029,-0.1114 -0.20525,-0.17361 -0.0831,-0.13227 0.004,-0.0312 -0.18723,-0.39165 -0.21843,-0.39423 -0.0337,0.0286 -0.0386,0.0909 -0.0386,0.0909 -0.0933,-0.01 -0.37631,3.2e-4 -0.0622,-0.005 0.004,-0.0312 -0.24919,-0.02 -0.31147,-0.0252 -0.004,0.0312 -0.0568,0.30889 0.0546,0.0987 0.0236,0.096 0.0882,0.0701 0.0572,0.0674 0.23893,0.14507 0.30622,0.0879 0.26499,0.20992 0.14553,0.13739 0.0755,0.22564 -0.12923,0.42847 -0.0415,0.122 -0.0699,0.0882 -0.10119,0.0857 -0.0986,0.0548 -0.30632,-0.0881 -0.49612,-0.44834 -0.11436,-0.13482 -0.11944,-0.0725 -0.18186,-0.0777 -0.33231,-0.15275 -0.39724,-0.12677 -0.35581,-0.2487 -0.0571,-0.0674 -0.0288,-0.0334 -0.0546,-0.0986 -0.0286,-0.0335 0.005,-0.0624 -0.0209,-0.12714 0.01,-0.0933 0.088,-0.30632 0.0335,-0.0287 0.004,-0.0312 0.004,-0.0312 0.0517,-0.24659 0.0135,-0.15565 -0.10665,-0.22831 -0.10665,-0.22821 -0.11433,-0.13482 -0.0599,-0.0364 -0.0285,-0.0335 -0.0312,-0.004 0.004,-0.0311 -0.17917,-0.10888 -0.14796,-0.10629 -0.0288,-0.0335 -0.0599,-0.0363 -0.0883,-0.0702 0.004,-0.0311 -0.25465,-0.33451 -0.24953,-0.39677 -0.0729,-0.25684 -0.30423,-0.4953 -0.10921,-0.19721 -0.0285,-0.0335 -0.026,-0.0649 -0.10409,-0.25941 -0.0236,-0.096 -0.12249,-0.41775 0.01,-0.0933 0.01,-0.0933 0.0364,-0.0598 0.0439,-0.15321 0.0776,-0.18167 0.005,-0.0624 0.004,-0.0311 0.004,-0.0312 -0.0208,-0.12712 0.004,-0.0312 -0.0284,-0.0336 0.004,-0.0311 -0.0624,-0.005 -0.0285,-0.0336 -0.15563,-0.0135 -0.18952,0.0156 -0.22309,0.0444 -0.0312,-0.004 -0.14033,-0.19968 -0.14541,-0.13738 -0.1169,-0.10371 -0.16646,-0.26453 -0.0519,-0.1297 -0.0548,-0.0985 0.004,-0.0312 0.005,-0.0622 0.005,-0.0624 0.004,-0.0311 0.0337,-0.0286 0.005,-0.0623 0.004,-0.0311 0.01,-0.0933 0.01,-0.0933 0.0467,-0.18431 0.004,-0.0311 0.0335,-0.0286 0.004,-0.0312 0.004,-0.0311 0.0362,-0.0599 0.20237,-0.17149 0.10108,-0.0858 0.0777,-0.18163 0.004,-0.0312 0.0336,-0.0287 0.0651,-0.026 0.004,-0.0311 0.0335,-0.0287 0.0311,0.004 0.19465,-0.0779 0.4436,-0.0577 0.12714,-0.0208 0.0312,0.004 0.26196,-0.13528 0.0698,-0.0882 0.0726,-0.11944 0.004,-0.0312 0.01,-0.0933 0.11864,-0.68015 0.004,-0.0311 0.01,-0.12461 0.005,-0.0623 -0.0208,-0.12714 -0.0209,-0.12713 -0.0286,-0.0338 -0.0234,-0.096 -0.026,-0.065 0.004,-0.0311 -0.0261,-0.0651 -0.20565,-0.54991 -0.13527,-0.26196 -0.0286,-0.0335 -0.026,-0.065 -0.0286,-0.0336 -0.0571,-0.0674 -0.0285,-0.0337 -0.0548,-0.0985 -0.0597,-0.0364 -0.0287,-0.0334 -0.0598,-0.0364 -0.23123,-0.23854 -0.0859,-0.1012 -0.0597,-0.0363 -0.0312,-0.004 -0.0261,-0.0649 -0.026,-0.0649 -0.16895,-0.23342 -0.0261,-0.0648 -0.19492,-0.29828 -0.0312,-0.004 0.004,-0.0312 0.004,-0.0311 -0.13519,-0.26197 -0.0444,-0.22318 -0.083,-0.13226 -0.11178,-0.1659 -0.11179,-0.16593 -0.0807,-0.16346 -0.0285,-0.0337 -0.11738,-0.47993 -0.0157,-0.18943 -0.0184,-0.15825 0.0135,-0.15572 0.004,-0.0312 -0.0183,-0.15823 0.005,-0.0623 0.0362,-0.0599 0.0649,-0.026 0.004,-0.0312 0.0312,0.004 0.0311,0.004 0.0311,0.004 0.0312,0.004 0.0312,0.004 0.33487,0.12156 0.16088,-0.0494 0.0311,0.004 0.0311,0.004 0.0364,-0.0599 0.0623,0.005 0.004,-0.0311 0.0674,-0.0572 0.01,-0.0932 0.004,-0.0312 0.01,-0.0933 -0.0261,-0.065 -0.0234,-0.096 -0.17152,-0.20224 -0.0287,-0.0335 -0.17397,-0.17113 -0.17416,-0.17114 -0.0311,-0.004 0.005,-0.0621 -0.0883,-0.07 -0.11178,-0.16591 -0.11434,-0.13482 -0.0519,-0.12969 0.01,-0.0933 0.0335,-0.0286 -0.0184,-0.15825 -0.0184,-0.15833 -0.007,-0.31401 0.0517,-0.24658 0.0416,-0.12201 -0.0209,-0.12715 -0.052,-0.12971 -0.0571,-0.0674 -0.11691,-0.10362 -0.0882,-0.07 -0.12203,-0.0414 -0.15573,-0.0135 -0.64639,-0.14727 -0.15313,-0.0438 -0.21039,-0.11141 -0.0311,-0.004 0.004,-0.0311 -0.0571,-0.0674 -0.0312,-0.004 -0.0779,-0.19454 -0.13784,-0.23088 0.004,-0.0311 -0.0909,-0.0387 -0.0598,-0.0364 -0.11948,-0.0726 -0.0933,-0.01 -0.0285,-0.0335 -0.0286,-0.0338 -0.0261,-0.0649 -0.0236,-0.0961 0.004,-0.0311 -0.0285,-0.0336 -0.12714,0.0208 -0.0961,0.0234 -0.13224,0.0831 -0.25174,0.009 -0.096,0.0237 -0.18175,-0.0777 -0.0311,-0.004 -0.0599,-0.0364 -0.0312,-0.004 -0.0311,-0.004 -0.0261,-0.0651 -0.0779,-0.19445 0.0414,-0.12201 0.0438,-0.15323 0.0439,-0.15323 0.004,-0.0311 0.0363,-0.0598 0.01,-0.0933 -0.0261,-0.065 0.005,-0.0621 0.004,-0.0312 -0.0287,-0.0336 -0.0571,-0.0673 -0.13528,-0.26196 -0.11946,-0.0727 -0.0261,-0.0648 -0.0312,-0.004 -0.11944,-0.0727 -0.091,-0.0386 -0.1791,-0.10888 -0.0312,-0.004 -0.0288,-0.0335 -0.12201,-0.0414 -0.0311,-0.004 0.004,-0.0312 -0.32728,-0.21504 -0.23123,-0.23855 -0.0285,-0.0335 -0.0883,-0.07 -0.083,-0.13227 -0.0857,-0.10108 -0.22064,0.0134 -0.0933,-0.01 -0.0933,-0.01 -0.0857,-0.10118 -0.0933,-0.01 -0.18691,-0.0147 -0.12201,-0.0414 -0.0599,-0.0363 -0.0698,0.0882 -0.17664,-0.13994 -0.0571,-0.0674 -0.10665,-0.22831 0.01,-0.0932 0.0387,-0.0909 -0.0184,-0.15833 -0.0288,-0.0337 -0.0909,-0.0386 -0.24147,-0.1139 -0.50134,-0.38608 -0.0311,-0.004 0.004,-0.0312 -0.11946,-0.0724 -0.0312,-0.004 -0.0312,-0.004 -0.12971,0.0519 -0.26707,0.19759 -0.0726,0.11944 -0.10628,0.14799 -0.1062,0.1481 -0.10108,0.0857 -0.33461,0.25474 -0.0985,0.0547 -0.2829,0.008 -0.18682,-0.0147 -0.33752,-0.0904 0.004,-0.0312 -0.0623,-0.005 -0.0598,-0.0364 -0.1169,-0.10362 -0.0598,-0.0364 -0.0312,-0.004 -0.0285,-0.0335 -0.0287,-0.0337 -0.1588,-0.35803 -0.0546,-0.0986 -0.21844,-0.39422 -0.0261,-0.0648 -0.0312,-0.004 0.004,-0.0312 -0.0133,-0.22054 0.1374,-0.14554 0.13225,-0.083 0.0438,-0.15325 0.28548,-0.0392 0.20223,-0.17151 0.0962,-0.0236 0.0311,0.004 0.004,-0.0311 0.13994,-0.17664 0.004,-0.0312 0.01,-0.12461 -0.19199,0.047 -0.0598,-0.0364 -0.0286,-0.0338 -0.0236,-0.096 -0.0831,-0.13226 -0.0312,-0.004 -0.2594,0.10409 -0.54234,0.11224 -0.12712,0.0208 -0.0311,-0.004 -0.24919,-0.0199 -0.0599,-0.0362 -0.17661,-0.13996 -0.2287,-0.26964 -0.34045,-0.43566 -0.30377,-0.11895 -0.0909,-0.0387 -0.0261,-0.065 -0.0571,-0.0674 0.005,-0.0623 -0.0546,-0.0987 -0.0571,-0.0674 -0.0312,-0.004 -0.12201,-0.0415 -0.15572,-0.0135 -0.192,0.0468 -0.15564,-0.0135 -0.0312,-0.004 -0.0312,-0.004 -0.0909,-0.0386 -0.38956,-0.22026 -0.057,-0.0673 -0.0286,-0.0337 -0.0287,-0.0335 -0.0311,-0.004 0.004,-0.0311 -0.0858,-0.10118 -0.11691,-0.10364 0.004,-0.0312 -0.026,-0.0648 0.0182,-0.21803 -0.0234,-0.0961 -0.0521,-0.12971 0.004,-0.0311 -0.0286,-0.0335 0.004,-0.0312 -0.27257,-0.11644 -0.0287,-0.0335 -0.0287,-0.0338 -0.33485,-0.12157 -0.0312,-0.004 -0.0622,-0.005 -0.19976,0.1404 -0.77639,-0.4715 0.004,-0.0312 -0.27012,-0.14761 -0.5533,-0.51577 -0.10922,-0.19712 -0.0521,-0.12971 -0.0571,-0.0674 -0.0831,-0.13226 -0.44454,-0.69507 -0.20271,-0.20471 -0.17396,-0.17112 -0.21038,-0.11132 -0.21295,-0.0802 -0.1531,-0.0438 -0.12203,-0.0414 -0.20525,-0.17369 -0.0882,-0.0698 -0.16894,-0.23343 -0.16639,-0.26453 -0.0857,-0.10108 -0.0287,-0.0339 -0.0261,-0.0648 -0.0285,-0.0337 z"
       id="MO-08"
       style="font-style:normal;font-weight:400;font-size:34.375px;font-family:'MS Shell Dlg 2';opacity:1;fill:#000000;fill-opacity:1;fill-rule:evenodd;stroke:#000000;stroke-width:0.33333385;stroke-linecap:square;stroke-linejoin:bevel;stroke-miterlimit:4;stroke-dasharray:none;stroke-opacity:1" />
  </g>
</svg>
