<?xml version="1.0" encoding="UTF-8" standalone="no"?>
<!-- Created with Inkscape (http://www.inkscape.org/) -->

<svg
   xmlns:dc="http://purl.org/dc/elements/1.1/"
   xmlns:cc="http://creativecommons.org/ns#"
   xmlns:rdf="http://www.w3.org/1999/02/22-rdf-syntax-ns#"
   xmlns:svg="http://www.w3.org/2000/svg"
   xmlns="http://www.w3.org/2000/svg"
   xmlns:sodipodi="http://sodipodi.sourceforge.net/DTD/sodipodi-0.dtd"
   xmlns:inkscape="http://www.inkscape.org/namespaces/inkscape"
   width="22.379616mm"
   height="28.522196mm"
   viewBox="0 0 79.297863 101.06291"
   id="svg12983"
   version="1.1"
   inkscape:version="0.91 r"
   sodipodi:docname="4.svg">
  <defs
     id="defs12985" />
  <sodipodi:namedview
     id="base"
     pagecolor="#ffffff"
     bordercolor="#666666"
     borderopacity="1.0"
     inkscape:pageopacity="0.0"
     inkscape:pageshadow="2"
     inkscape:zoom="7.9270888"
     inkscape:cx="42.473906"
     inkscape:cy="55.845807"
     inkscape:document-units="px"
     inkscape:current-layer="layer1"
     showgrid="false"
     fit-margin-top="1"
     fit-margin-left="1"
     fit-margin-right="1"
     fit-margin-bottom="1"
     inkscape:window-width="2560"
     inkscape:window-height="1388"
     inkscape:window-x="0"
     inkscape:window-y="0"
     inkscape:window-maximized="1" />
  <metadata
     id="metadata12988">
    <rdf:RDF>
      <cc:Work
         rdf:about="">
        <dc:format>image/svg+xml</dc:format>
        <dc:type
           rdf:resource="http://purl.org/dc/dcmitype/StillImage" />
        <dc:title></dc:title>
      </cc:Work>
    </rdf:RDF>
  </metadata>
  <g
     inkscape:label="Layer 1"
     inkscape:groupmode="layer"
     id="layer1"
     transform="translate(-447.13371,-422.20315)">
    <path
       inkscape:connector-curvature="0"
       d="m 551.42426,420.12033 -0.47245,0.0215 -0.46966,-0.009 -0.53474,0.0161 -0.0622,-0.005 -0.18959,0.0147 -0.37902,0.0295 -0.43846,-0.007 -1.19397,0.0211 -0.2206,0.012 -0.28295,0.007 -0.84866,0.0199 -1.13163,0.0265 -0.12454,-0.0102 -0.15844,0.0176 -0.65915,0.005 -0.59696,0.0104 -0.0311,-0.004 -0.0961,0.023 -0.34511,9.7e-4 -1.41456,0.033 -0.18674,-0.0156 -0.2207,0.0122 -0.25177,0.009 -0.15555,-0.0144 -0.59973,0.0416 -0.21792,-0.0194 -0.096,0.023 -0.91102,0.0143 -0.40739,-0.004 -1.25614,0.0156 -0.31675,0.035 -0.0623,-0.005 -0.0311,-0.004 -0.43863,-0.007 -1.06926,0.0319 -0.25178,0.009 -0.0623,-0.005 -0.22062,0.0122 -0.0623,-0.005 -0.0623,-0.005 -1.00436,0.006 -0.0338,0.0284 -0.34511,9.7e-4 -0.47237,0.0215 -0.0624,-0.005 -0.40738,-0.004 -0.62806,0.008 -0.18952,0.0148 -0.0312,-0.004 -1.75968,0.0342 -0.31393,0.004 -0.37902,0.0296 -1.03555,0.003 -1.03827,0.0346 -0.0311,-0.004 -0.18683,-0.0156 -0.18952,0.0148 -1.53898,0.0221 -0.56591,0.0132 -1.75967,0.0342 -0.0311,-0.004 -0.0311,-0.004 -0.59426,-0.0208 -0.0623,-0.005 -0.2206,0.0122 -0.0962,0.023 -0.65642,-0.026 -0.3425,-0.03 -0.12723,0.0202 -0.0935,-0.01 -0.0311,-0.004 -0.50357,0.0187 -0.0623,-0.005 -0.15565,-0.0144 -0.0622,-0.005 -0.0961,0.0228 -0.12454,-0.0102 -0.0623,-0.005 -0.0312,-0.004 -0.0337,0.0283 -0.0311,-0.004 -0.15565,-0.0144 -0.0312,-0.004 -0.40738,-0.004 -0.31402,0.004 -0.12726,0.0202 -0.3451,9.8e-4 -0.31413,0.004 -0.28287,0.007 -0.65912,0.005 -0.31415,0.004 -0.0311,-0.004 -0.87986,0.0172 -0.9082,-0.0165 -0.3763,-0.002 -0.0651,0.0257 -0.31393,0.004 -0.0623,-0.005 -0.0932,-0.01 -0.72141,-3.9e-4 -0.18961,0.0147 -0.41011,0.027 -0.0623,-0.005 -0.81486,-0.008 -0.65915,0.005 -0.12457,-0.0102 -0.41019,0.0268 -0.72141,-3.9e-4 -0.0624,-0.005 -0.69022,0.002 -0.22069,0.0122 -0.31403,0.004 -0.28023,-0.0247 -0.0311,-0.004 -0.40738,-0.004 -0.53472,0.016 -0.50354,0.0186 -0.40747,-0.004 -0.28288,0.007 -1.12887,-0.005 -0.25178,0.009 -0.0623,-0.005 -0.0623,-0.005 -0.97329,0.009 -0.0622,-0.005 -1.06946,0.0318 -0.21785,-0.0194 -0.7214,-3.9e-4 -0.47246,0.0214 -0.0961,0.0229 -0.21784,-0.0194 -0.81486,-0.008 -0.12456,-0.0102 -0.18951,0.0147 -0.21784,-0.0194 -0.21794,-0.0194 -0.65915,0.005 -0.0624,-0.005 -0.7214,-5.9e-4 -0.28294,0.007 -0.0312,-0.004 -0.0311,-0.004 c -0.0328,1.08279 -0.0644,2.17105 -0.0965,3.25396 -0.44047,-0.0678 -1.02316,0.3358 -1.2537,0.70591 -0.11535,0.18506 -0.14014,0.38336 -0.009,0.46976 0.13037,0.0863 0.41147,0.0744 0.91637,-0.0767 0.35425,0.002 0.43502,0.0657 0.36268,0.1572 -0.0723,0.0915 -0.29561,0.20974 -0.49961,0.33272 -0.20398,0.123 -0.39662,0.24116 -0.43744,0.33817 -0.0406,0.097 0.0672,0.18577 0.48449,0.19927 0.31637,0.0347 0.45072,0.17326 0.47087,0.3548 0.0203,0.18167 -0.0505,0.39118 -0.11383,0.5861 -0.0635,0.19491 -0.13454,0.35835 -0.0693,0.43312 0.0652,0.0747 0.26101,0.0802 0.66744,-0.0985 0.45239,0.0646 0.68436,0.19328 0.81324,0.38495 0.1289,0.19156 0.15481,0.41748 0.1296,0.67003 -0.0502,0.50515 -0.25545,1.06662 0.0954,1.41994 0.69855,0.14688 0.96487,0.28798 1.05686,0.46889 0.0919,0.18101 0.0254,0.41901 -4.9e-4,0.72151 0.19701,0.0875 0.2742,0.57188 0.25261,1.05723 -0.021,0.4855 -0.16271,0.95787 -0.40129,1.00015 -3.13921,-0.0899 -6.28032,-0.16943 -9.41945,-0.25953 0.11185,0.54954 0.0737,0.93789 -0.13187,1.14907 -0.2057,0.21129 -0.5809,0.25113 -1.13708,0.0888 -0.40177,0.25417 -0.74916,0.72649 -1.11873,1.31371 -0.0831,2.39206 -0.16727,4.76957 -0.25015,7.16165 1.07599,0.0278 2.1467,0.066 3.22279,0.0939 0,0 0,0 0,0 1.35844,0.0346 2.71049,0.0702 4.06883,0.10503 0.1238,-0.31581 0.0162,-0.87208 0.021,-1.31577 0.003,-0.22173 0.0492,-0.42775 0.14246,-0.5521 0.0933,-0.12443 0.24669,-0.17155 0.51173,-0.11213 1.42637,0.0145 2.83468,0.0445 4.26105,0.0592 0.0967,0.33611 -0.026,0.88833 -0.055,1.34412 -0.015,0.22776 -0.007,0.4363 0.0755,0.57117 0.0832,0.13495 0.25392,0.17961 0.52111,0.13973 1.19446,0.0367 2.3706,0.0878 3.56517,0.12374 -0.0958,3.27101 -0.19889,6.55311 -0.29473,9.8242 3.09155,0.047 6.18301,0.0737 9.27474,0.12129 0.084,-0.375 0.0116,-0.83779 -0.0128,-1.28732 -0.0243,-0.44942 0.0202,-0.87217 0.31593,-1.10165 0.57815,-0.0409 0.85031,-0.31068 0.96822,-0.66817 0.11785,-0.35738 0.0754,-0.79214 0.0466,-1.2507 -0.09,-0.31101 -0.0735,-0.50915 0.0238,-0.62531 0.0969,-0.11609 0.28154,-0.17293 0.48608,-0.17701 0.40888,-0.008 0.94807,0.14031 1.3101,0.0836 1.01903,0.0316 2.04835,0.0487 3.06729,0.0802 0.0936,0.77954 -0.19916,1.94104 0.12723,2.48926 1.78908,0.009 3.5724,0.0204 5.36149,0.0299 -0.38436,0.74343 -1.27935,1.43878 -1.79192,2.19599 -0.25626,0.3785 -0.41017,0.78051 -0.35525,1.19227 0.0549,0.41175 0.32619,0.83923 0.92115,1.30396 0.64256,0.51275 0.81569,0.90092 0.73972,1.22542 -0.076,0.32452 -0.42766,0.59801 -0.79768,0.87129 -0.37012,0.27329 -0.78138,0.55551 -1.02119,0.91448 -0.23969,0.35897 -0.31013,0.7991 0.005,1.38067 0.16019,0.23545 0.18489,0.38347 0.0837,0.4779 -0.10106,0.0944 -0.30647,0.12176 -0.54551,0.14039 -0.47816,0.0374 -1.10139,0.002 -1.39155,0.12922 -0.52975,-0.057 -0.94203,0.0154 -1.18176,0.24172 -0.23985,0.22636 -0.30996,0.59746 -0.2253,1.1409 0.0526,0.60487 -0.0728,0.85431 -0.26861,0.91768 -0.19615,0.0632 -0.46092,-0.0474 -0.79568,-0.22651 -0.33488,-0.17887 -0.71911,-0.41215 -1.08259,-0.53389 -0.36357,-0.12176 -0.73031,-0.1351 -1.01254,0.0996 -1.19828,0.0497 -2.4329,0.20946 -3.6237,0.1849 -0.59538,-0.0124 -1.17377,-0.0565 -1.73789,-0.21476 -0.56412,-0.15866 -1.11074,-0.41066 -1.62388,-0.80077 -0.39462,-0.15368 -0.72861,-0.19483 -1.02192,-0.1523 -0.29326,0.0427 -0.52509,0.16599 -0.68913,0.34757 -0.16407,0.18159 -0.27103,0.40282 -0.27789,0.66582 -0.008,0.263 0.0622,0.54962 0.2406,0.83666 0.31837,-0.10967 0.53122,-0.11012 0.66187,-0.0362 0.13065,0.0739 0.19715,0.241 0.21365,0.42645 0.033,0.37089 -0.0993,0.89404 -0.0805,1.27905 -0.11099,1.45937 -0.12391,2.91036 -0.19439,4.37469 -0.0708,1.46443 -0.19168,2.9473 -0.57093,4.3732 -0.13197,0.29672 -0.11024,0.41185 0.0216,0.47237 0.13161,0.0606 0.3825,0.0569 0.62532,0.0238 0.24274,-0.0336 0.4944,-0.0792 0.69568,-0.0646 0.20138,0.015 0.3443,0.0768 0.35178,0.28173 0.0569,1.15557 0.1106,2.30973 0.16742,3.46528 0.0909,-0.005 0.16539,-0.008 0.25177,-0.009 0.29613,-0.006 0.56675,0.0139 0.74169,0.1278 0.17494,0.11388 0.27912,0.30801 0.22566,0.64713 -0.17806,0.4506 -0.19612,0.73962 -0.11277,0.93112 0.0834,0.19159 0.2711,0.31011 0.46814,0.38607 0.19703,0.0759 0.41485,0.10345 0.57792,0.20735 0.16296,0.10395 0.2524,0.27825 0.23384,0.55379 0.23041,0.30925 0.90867,0.16602 1.46047,0.15916 0.27584,-0.003 0.52751,0.0204 0.67662,0.15326 0.14918,0.13279 0.20322,0.37935 0.0876,0.79194 0.10256,0.49494 0.27112,0.87336 0.59502,1.0872 0.32389,0.21386 0.77772,0.2643 1.46596,0.0964 0.34387,-0.0867 0.56328,-0.0335 0.67935,0.12209 0.11617,0.15562 0.13142,0.41735 0.12696,0.70133 -0.009,0.56777 -0.13925,1.26547 0.0113,1.66352 0.14606,0.63785 -0.0146,1.01089 -0.18479,1.3954 -0.17048,0.3846 -0.34549,0.78116 -0.22136,1.45506 0.0486,0.34334 -0.0382,0.53098 -0.21289,0.64007 -0.1742,0.10924 -0.43974,0.13952 -0.73232,0.12425 -0.58526,-0.0306 -1.31896,-0.18896 -1.75151,-0.0592 -0.40943,0.13515 -1.12806,-0.0464 -1.71767,-0.088 -0.29483,-0.0204 -0.55213,-6.4e-4 -0.7297,0.093 -0.17747,0.0942 -0.25536,0.26285 -0.20735,0.57794 -0.12602,0.4189 0.0469,1.14584 0.0993,1.73404 0.0262,0.294 0.0295,0.5342 -0.0626,0.71597 -0.0922,0.18174 -0.2683,0.29603 -0.58757,0.26227 0.0431,1.78415 0.0854,3.55989 0.12841,5.34404 4.11903,0.0441 8.22832,0.095 12.34746,0.13922 0.0147,7.32286 0.0399,14.64049 0.0547,21.96334 l 0.0623,0.005 0.18683,0.0156 0.4102,-0.027 0.24908,0.0212 1.19378,-0.0211 0.40747,0.004 0.5969,-0.0104 0.0933,0.01 0.065,-0.0258 0.0623,0.005 0.0312,0.004 0.25177,-0.009 0.15565,0.0144 0.50355,-0.0185 0.46965,0.009 2.38502,-0.0109 -0.0147,-0.1896 0.0841,-0.24362 0.13541,-0.11362 0.16387,-0.0797 0.19215,-0.046 0.099,-0.0541 0.19769,-0.10818 0.0759,-0.15025 0.0528,-0.24636 0.0814,-0.21239 0.004,-0.0312 -0.0231,-0.096 -0.11362,-0.13542 -0.49661,-0.41988 -0.0879,-0.0705 -0.0312,-0.004 -0.24086,-0.11519 -0.12456,-0.0102 -0.12181,-0.042 -0.0595,-0.0367 -0.0258,-0.0651 -0.13937,-0.20031 -0.15287,-0.0448 -0.0282,-0.0338 -0.18145,-0.0785 -0.0282,-0.0338 -0.0595,-0.0367 -0.0312,-0.004 0.004,-0.0311 -0.0257,-0.065 -0.035,-0.31675 0.01,-0.0933 0.15175,-0.30032 0.065,-0.0258 0.004,-0.0312 0.099,-0.054 0.004,-0.0312 0.0989,-0.0541 0.28296,-0.007 0.0649,-0.0258 0.0312,0.004 0.0933,0.01 0.0623,0.005 0.0283,0.0338 0.20436,0.17468 0.0229,0.0961 0.0311,0.004 0.15299,0.0447 0.28296,-0.007 0.0622,0.005 0.34521,-9.7e-4 0.25722,-0.0716 0.26268,-0.1339 0.0704,-0.0879 0.042,-0.1218 0.004,-0.0312 0.01,-0.0933 0.004,-0.0312 0.0392,-0.0906 0.01,-0.0933 0.004,-0.0311 0.004,-0.0312 0.01,-0.0933 0.004,-0.0312 -0.016,-0.53473 -0.0498,-0.50625 -0.0973,-0.32211 -0.0379,-0.2857 0.12725,-0.0203 0.0961,-0.0228 0.065,-0.0257 0.004,-0.0312 0.005,-0.0623 0.0367,-0.0595 0.0905,0.0393 0.065,-0.0258 0.01,-0.0932 0.0366,-0.0596 0.0961,-0.0229 0.0392,-0.0907 0.21139,-0.26377 0.0758,-0.15016 0.0842,-0.24359 0.0447,-0.15299 0.0102,-0.12455 0.0144,-0.15566 -0.0202,-0.12724 -0.0852,-0.10155 -0.088,-0.0704 -0.15289,-0.0447 -0.18952,0.0147 -0.15841,0.0174 -0.13272,0.0826 -0.0676,0.0569 -0.0393,0.0906 -0.0732,0.11907 -0.0665,0.40203 -0.005,0.0623 -0.0393,0.0907 -0.0731,0.11908 -0.0529,0.24633 -0.0421,0.1218 -0.0312,-0.004 -0.14744,-0.10706 -0.11363,-0.13541 -0.0771,-0.19498 -0.0283,-0.0338 0.004,-0.0311 -0.0514,-0.12998 -0.0284,-0.0337 -0.23269,-0.20868 0.0448,-0.15287 0.0144,-0.15556 -0.36661,-0.47135 -0.0228,-0.096 0.005,-0.0622 -9.7e-4,-0.34521 -0.0609,-0.38176 0.005,-0.0621 0.004,-0.0312 0.004,-0.0312 0.004,-0.0311 0.0311,0.004 0.01,-0.0933 -0.0323,-0.34783 0.004,-0.0312 0.0337,-0.0283 0.36974,-0.28133 0.10153,-0.0851 0.35489,-0.47086 0.13815,-0.1448 0.20855,-0.23272 0.13815,-0.14481 0.10424,-0.11635 0.10434,-0.11635 0.14085,-0.1758 0.14905,-0.26934 0.0758,-0.15024 0.0367,-0.0594 0.009,-0.46976 0.004,-0.0312 -0.0541,-0.0989 -0.11635,-0.10433 -0.0907,-0.0392 -0.15556,-0.0144 -0.065,0.0257 -0.096,0.023 -0.1327,0.0825 -0.10706,0.14752 -0.0704,0.0879 -0.0448,0.153 -0.0102,0.12454 -0.005,0.0623 -0.0144,0.15556 -0.0194,0.21794 -0.0812,0.21254 -0.1775,0.23542 -0.20039,0.13927 -0.20585,0.20162 -0.3669,0.25017 -0.28568,0.0378 -0.25451,0.0405 -0.15298,-0.0447 -0.1218,-0.042 -0.11908,-0.0731 -0.20969,-0.1125 -0.0595,-0.0366 -0.26379,-0.21129 -0.0853,-0.10154 -0.0282,-0.0338 0.01,-0.0933 0.005,-0.0624 0.0758,-0.15016 0.0705,-0.088 0.0649,-0.0257 0.18694,0.0156 0.16378,-0.0799 0.11907,0.0733 0.0933,0.01 0.0649,-0.0258 0.22886,-0.10545 0.35883,-0.15683 0.0649,-0.0257 0.15566,0.0144 0.16388,-0.0799 0.0365,-0.0595 0.004,-0.0312 0.0392,-0.0906 0.17477,-0.20423 0.0758,-0.15028 0.0144,-0.15565 -0.0487,-0.16106 -0.15681,-0.35883 -0.26107,-0.24237 -0.50476,-0.32653 -0.096,0.023 -0.0933,-0.01 -0.0933,-0.01 -0.0311,-0.004 -0.0419,0.12181 -0.0102,0.12455 -0.0144,0.15566 -0.0503,0.21514 0.10275,0.25994 0.0716,0.25722 -0.2112,0.2639 -0.10165,0.0851 -0.12996,0.0514 -0.16379,0.0799 -0.0961,0.0228 -0.12999,0.0514 -0.0623,-0.005 -0.0933,-0.01 -0.15565,-0.0144 -0.0933,-0.01 -0.33703,-0.0922 -0.0257,-0.065 0.0649,-0.0258 0.004,-0.0311 0.004,-0.0311 0.0247,-0.28022 0.01,-0.0933 0.20324,-0.17054 0.0622,0.005 0.12996,-0.0513 0.1666,-0.11089 0.0367,-0.0596 0.005,-0.0622 0.15178,-0.30052 0.10696,-0.14743 0.13541,-0.11364 0.0731,-0.11908 0.0102,-0.12454 0.01,-0.0933 -0.054,-0.0987 0.01,-0.0933 -0.67781,-0.49857 -0.0852,-0.10154 -0.19891,-0.23693 -0.0797,-0.16388 0.004,-0.0312 -0.0514,-0.12997 -0.0202,-0.12725 0.0392,-0.0906 0.004,-0.0312 0.0392,-0.0906 0.13269,-0.0824 0.0651,-0.0258 0.41556,-0.0892 0.12725,-0.0203 0.23158,-0.13653 0.16921,-0.14199 0.065,-0.0258 0.065,-0.0258 0.33976,0.0612 0.096,-0.0229 0.12725,-0.0202 0.30473,-0.25562 0.10155,-0.0854 0.0393,-0.0907 0.0365,-0.0594 0.005,-0.0624 0.01,-0.0932 0.004,-0.0312 -0.0202,-0.12724 -0.0716,-0.25724 -0.0852,-0.10153 -0.0567,-0.0677 0.004,-0.0311 -0.26661,-0.1802 -0.32061,-0.27902 -0.17598,-0.14087 -0.15016,-0.0759 -0.0623,-0.005 -0.0905,-0.0392 -0.0284,-0.0338 -0.0623,-0.005 -0.37084,-0.0638 -0.1529,-0.0447 -0.0312,-0.004 -0.0595,-0.0366 -0.0907,-0.0393 -0.0311,-0.004 -0.0283,-0.0338 -0.0596,-0.0366 0.004,-0.0311 -0.11634,-0.10432 -0.0257,-0.065 -0.0147,-0.1895 0.0144,-0.15557 0.073,-0.11908 0.004,-0.0312 0.10434,-0.11635 0.16922,-0.1421 0.0338,-0.0282 0.0338,-0.0282 0.096,-0.023 0.004,-0.0312 0.12725,-0.0202 0.25177,-0.009 0.34784,-0.0324 0.22614,-0.0743 0.065,-0.0258 0.0338,-0.0282 0.0311,0.004 -0.004,0.0311 0.3125,0.37246 0.0852,0.10164 0.253,0.33573 0.0568,0.0678 0.71992,0.37658 0.15025,0.0759 0.0623,0.005 0.0623,0.005 0.0312,0.004 0.0311,0.004 0.0623,0.005 0.12725,-0.0203 0.26267,-0.13391 0.19768,-0.10818 0.19223,-0.0458 0.12724,-0.0203 0.19495,-0.077 0.0677,-0.0569 0.004,-0.0311 0.0732,-0.11908 0.01,-0.0934 0.0156,-0.18672 -0.0933,-0.01 -0.0621,-0.005 -0.0203,-0.12725 -0.0541,-0.0989 -0.054,-0.0989 -0.11091,-0.1665 -0.23543,-0.1774 -0.0312,-0.004 -0.0283,-0.0338 -0.0282,-0.0338 -0.0312,-0.004 -0.0623,-0.005 -0.0311,-0.004 -0.0907,-0.0392 -0.16379,0.0799 -0.33046,0.19062 -0.22603,0.0743 -0.0312,-0.004 -0.0649,0.0258 -0.0623,-0.005 -0.0311,-0.004 -0.24909,-0.0211 -0.18134,-0.0786 -0.17589,-0.14087 -0.28134,-0.36973 -0.0258,-0.0649 -0.0229,-0.0961 0.0102,-0.12456 0.0583,-0.30859 -0.0283,-0.0338 0.004,-0.0311 0.004,-0.0312 0.0419,-0.12178 0.0421,-0.12181 -0.0284,-0.0338 -0.0282,-0.0338 -0.0596,-0.0366 0.01,-0.0935 0.0813,-0.21241 0.0392,-0.0906 0.0678,-0.0569 0.005,-0.0621 0.0337,-0.0283 0.0311,0.004 0.0338,-0.0284 0.0623,0.005 0.0311,0.004 0.12178,0.0422 0.11908,0.0732 0.0907,0.0392 -0.004,0.0312 0.0312,0.004 0.0596,0.0367 0.0824,0.1327 0.4211,-0.15146 0.096,-0.0229 0.56853,-0.0444 0.16104,-0.0485 0.65231,0.4335 0.0933,0.01 0.2545,-0.0406 0.29656,-0.16217 0.13541,-0.11363 0.0703,-0.088 0.0393,-0.0907 0.0102,-0.12455 0.01,-0.0933 -0.0312,-0.004 -0.0513,-0.12996 -0.20164,-0.20585 -0.0311,-0.004 -0.15026,-0.0759 -0.30858,-0.0584 -0.0623,-0.005 -0.0285,-0.0337 -0.42485,-0.16265 -0.11907,-0.0732 -0.0542,-0.0988 -0.0797,-0.16387 -0.11363,-0.13544 -0.17044,-0.20311 -0.0852,-0.10163 -0.0716,-0.25722 -0.0432,-0.22331 -0.0175,-0.15843 0.0419,-0.12181 0.2452,-0.29214 0.004,-0.0312 0.13815,-0.14482 0.0337,-0.0282 0.31282,-0.34907 0.0678,-0.0568 0.2451,-0.29225 0.21403,-0.29496 0.14358,-0.20697 0.0337,-0.0283 -0.0282,-0.0338 0.004,-0.0311 -0.0568,-0.0677 -0.17588,-0.14086 -0.39105,-0.19112 -0.2436,-0.084 -0.73625,-0.18989 -0.0312,-0.004 -0.11907,-0.0732 -0.0595,-0.0366 -0.0257,-0.065 -0.0312,-0.004 0.004,-0.0312 0.004,-0.0311 -0.0258,-0.065 0.004,-0.0312 0.005,-0.0621 0.004,-0.0312 0.01,-0.0933 0.01,-0.0933 0.10434,-0.11634 0.099,-0.0541 0.0988,-0.0541 0.096,-0.0228 0.2207,-0.0122 0.31403,-0.004 0.12996,-0.0513 0.10154,-0.0853 0.10983,-0.17859 0.36428,-0.21908 0.10546,0.22875 0.20819,0.48881 0.077,0.19495 0.0514,0.12997 0.11909,0.0731 0.0282,0.0337 0.12456,0.0102 0.0284,0.0338 0.12455,0.0102 0.12725,-0.0203 0.16114,-0.0485 0.0649,-0.0258 0.0367,-0.0595 0.0677,-0.0568 0.0194,-0.21784 0.0337,-0.0285 -0.0257,-0.0649 0.004,-0.0312 0.004,-0.0312 -0.22453,-0.30202 -0.17589,-0.14085 -0.0541,-0.0988 -0.20546,-0.51989 0.12997,-0.0514 0.12724,-0.0202 0.15834,-0.0177 0.28021,0.0247 0.21243,0.0814 0.15843,-0.0176 0.19224,-0.0461 0.26266,-0.13382 0.0623,0.005 0.15299,0.0447 0.35055,-0.0634 0.16388,-0.0797 0.0311,0.004 0.004,-0.0312 0.0677,-0.0568 0.0393,-0.0907 0.005,-0.0622 0.004,-0.0312 -0.0258,-0.065 0.004,-0.0311 -0.0459,-0.19233 0.0156,-0.18674 0.005,-0.0624 0.0392,-0.0906 0.10982,-0.17862 0.17738,-0.23542 0.0393,-0.0907 0.0421,-0.12179 -0.0258,-0.0649 -0.0229,-0.0961 0.004,-0.0311 -0.11091,-0.16661 -0.0594,-0.0367 -0.0881,-0.0704 -0.12455,-0.0102 -0.12455,-0.0102 -0.19496,0.077 -0.2884,0.0689 -0.12455,-0.0102 -0.0622,-0.005 -0.58993,-0.42805 -0.057,-0.0677 -0.13926,-0.2005 -0.0283,-0.0337 -0.0487,-0.16106 -0.0512,-0.12996 0.11508,-0.24088 0.36964,-0.28147 0.67164,-0.50577 0.15298,0.0447 0.21243,0.0813 0.28962,0.2763 0.15015,0.0759 0.20435,0.17468 0.0595,0.0367 0.27479,0.0868 0.15565,0.0144 0.25449,-0.0405 0.12999,-0.0513 0.0989,-0.0541 0.0677,-0.0568 0.17195,-0.17319 0.10982,-0.17859 0.0759,-0.15016 0.0144,-0.15566 0.004,-0.0312 -0.046,-0.19213 0.004,-0.0312 0.004,-0.0312 -0.0283,-0.0337 -0.088,-0.0704 -0.0568,-0.0677 -0.0312,-0.004 -0.0312,-0.004 -0.24632,-0.0529 -0.22341,0.0431 -0.21515,-0.0502 -0.18683,-0.0156 -0.0961,0.0228 -0.12999,0.0515 -0.12725,0.0202 -0.0311,-0.004 -0.0622,-0.005 -0.0879,-0.0704 -0.099,0.0541 -0.13269,0.0826 -0.0852,-0.10163 -0.45058,-0.22765 -0.0312,-0.004 -0.0283,-0.0338 -0.0282,-0.0337 -0.0284,-0.0337 -0.0596,-0.0367 -0.33816,-0.43745 -0.0312,-0.004 -0.0258,-0.0649 -0.0258,-0.0651 -0.0431,-0.22332 -0.0148,-0.18951 0.004,-0.0311 0.004,-0.0312 0.0338,-0.0284 0.0392,-0.0906 0.10434,-0.11635 0.13269,-0.0825 0.21784,0.0194 0.0623,0.005 0.0623,0.005 0.0284,0.0337 0.0311,0.004 0.0284,0.0337 0.0258,0.0651 0.0973,0.32211 0.0568,0.0678 0.088,0.0703 0.35449,0.25065 0.30576,0.0894 0.24909,0.0212 0.0907,0.0393 0.11908,0.0731 0.042,-0.12181 0.0787,-0.18123 0.004,-0.0312 0.0366,-0.0595 0.005,-0.0623 0.01,-0.0933 -0.0202,-0.12725 0.005,-0.0624 0.005,-0.0621 0.004,-0.0312 0.0144,-0.15566 0.0474,-0.18396 0.005,-0.0624 0.0211,-0.2491 0.0367,-0.0594 0.005,-0.0624 0.004,-0.0311 0.01,-0.0933 0.004,-0.0311 0.0367,-0.0596 0.0338,-0.0284 0.004,-0.0311 0.0337,-0.0282 0.0312,0.004 0.0367,-0.0596 0.0338,-0.0282 0.0649,-0.0257 0.19233,-0.0461 0.19486,-0.077 0.0338,-0.0284 0.0312,0.004 0.0311,0.004 0.0623,0.005 0.34239,0.03 0.0933,0.01 0.0623,0.005 0.0312,0.004 0.0622,0.005 0.0312,0.004 0.12725,-0.0202 0.0312,0.004 0.13812,-0.14472 0.0649,-0.0258 0.0705,-0.0879 0.21665,-0.32616 0.004,-0.0311 0.042,-0.12181 0.0156,-0.18693 -0.0258,-0.0649 -0.0513,-0.12997 -0.0175,-0.15844 -0.0312,-0.004 -0.0568,-0.0677 -0.023,-0.0961 -0.0312,-0.004 -0.0594,-0.0366 -0.28961,-0.27629 -0.0567,-0.0677 -0.0284,-0.0338 -0.0148,-0.18942 0.0156,-0.18693 0.0366,-0.0594 0.10155,-0.0853 0.1327,-0.0826 0.12725,-0.0202 0.21794,0.0194 0.18408,0.0474 0.0905,0.0393 0.0933,0.01 0.31401,-0.004 0.2884,-0.0688 0.19486,-0.077 0.18961,-0.0148 0.0257,0.065 0.0541,0.099 -0.0247,0.28011 -0.22491,0.41949 -0.0528,0.24633 0.012,0.22059 0.0852,0.10165 0.0879,0.0704 0.18134,0.0786 0.22069,-0.012 0.19486,-0.0771 0.0787,-0.18134 0.0144,-0.15565 -0.10546,-0.22876 0.004,-0.0312 -0.15966,-0.32755 0.0144,-0.15567 0.005,-0.0623 0.14903,-0.26924 0.0788,-0.18141 -0.0542,-0.0989 0.39809,-0.24755 0.1327,-0.0824 0.0962,-0.023 0.31675,-0.0349 0.0989,-0.0542 0.77326,-0.59105 0.10434,-0.11634 0.10696,-0.14745 0.005,-0.0624 0.004,-0.0311 0.0367,-0.0595 0.0365,-0.0596 0.004,-0.0311 0.004,-0.0312 0.005,-0.0623 0.005,-0.0622 0.004,-0.0312 0.005,-0.0622 -0.0283,-0.0338 -0.0258,-0.065 -0.15954,-0.32765 -0.0569,-0.0677 -0.1786,-0.10982 -0.0257,-0.0649 -0.0716,-0.25723 -0.058,-0.41293 0.0156,-0.18681 0.0448,-0.15288 0.01,-0.0933 0.0732,-0.11909 0.0502,-0.21524 0.004,-0.0311 0.0367,-0.0595 0.0338,-0.0284 0.21119,-0.26381 0.29656,-0.16227 0.23693,-0.19881 0.0393,-0.0906 0.0448,-0.15287 0.005,-0.0624 0.005,-0.0622 -0.12574,-0.3561 -0.0824,-0.13269 -0.19888,-0.23705 -0.17319,-0.17194 -0.11363,-0.13542 -0.10545,-0.22887 -0.16774,-0.2342 -0.15953,-0.32766 -0.035,-0.31674 0.0868,-0.27479 0.0421,-0.12178 0.004,-0.0311 0.005,-0.0623 -0.057,-0.0677 -0.0202,-0.12725 -0.058,-0.41284 -0.0229,-0.0961 0.005,-0.0623 0.14632,-0.23815 0.0731,-0.11907 0.1327,-0.0825 0.1124,-0.20979 0.0989,-0.0541 0.0312,0.004 0.16387,-0.0797 0.0596,0.0366 0.0596,0.0367 0.0568,0.0678 0.11364,0.13543 0.0853,0.10154 0.0257,0.065 0.009,0.25175 -0.005,0.0622 -0.27083,0.22726 -0.0392,0.0906 -0.0447,0.153 -0.0212,0.24909 0.0513,0.12995 -0.004,0.0312 0.0515,0.12999 0.0851,0.10153 0.0284,0.0338 0.0311,0.004 0.0283,0.0337 0.0312,0.004 0.12181,0.0421 0.0312,0.004 0.0622,0.005 0.0312,0.004 0.0312,0.004 0.0649,-0.0257 0.0961,-0.0229 0.16379,-0.0799 0.2005,-0.13925 0.0365,-0.0596 0.065,-0.0257 0.004,-0.0311 0.1775,-0.23543 0.17196,-0.17327 0.2031,-0.17035 0.1775,-0.23542 0.0337,-0.0284 0.10706,-0.14752 0.0474,-0.18397 0.01,-0.0934 0.01,-0.0933 -0.0257,-0.0649 0.004,-0.0312 -0.0569,-0.0677 -0.0282,-0.0337 0.004,-0.0312 -0.0283,-0.0338 -0.0596,-0.0366 0.004,-0.0312 -0.12181,-0.042 -0.0933,-0.01 -0.18951,0.0148 -0.22069,0.012 -0.0337,0.0283 -0.0312,-0.004 -0.22614,0.0744 -0.25175,0.009 -0.0337,0.0284 -0.0933,-0.01 -0.0311,-0.004 -0.0623,-0.005 -0.0311,-0.004 -0.18407,-0.0475 -0.15026,-0.0757 -0.22726,-0.27084 -0.25834,-0.27358 -0.0568,-0.0678 0.004,-0.0311 0.005,-0.0622 0.004,-0.0312 0.0144,-0.15556 0.0393,-0.0906 0.0366,-0.0595 0.0678,-0.0569 0.096,-0.023 0.0623,0.005 0.0648,-0.0257 0.0679,-0.0569 0.0337,-0.0283 0.0731,-0.11908 0.01,-0.0933 -0.004,-0.31394 -0.10272,-0.25994 -0.0175,-0.15842 -0.0229,-0.096 0.005,-0.0624 0.0785,-0.18124 0.10707,-0.14754 0.0704,-0.0879 0.0988,-0.0541 0.0312,0.004 0.19224,-0.0459 0.12455,0.0102 0.0623,0.005 0.0514,0.12997 0.21092,0.45754 0.0486,0.16114 0.023,0.096 -0.004,0.0312 -0.004,0.0312 -0.10707,0.14742 -0.23431,0.16772 -0.10423,0.11636 -0.0144,0.15566 -0.0144,0.15557 0.0203,0.12723 0.0797,0.16378 0.0851,0.10164 0.30326,0.12064 0.31124,0.0267 0.19235,-0.046 0.25721,-0.0716 0.26539,-0.165 0.0703,-0.088 0.0393,-0.0906 0.004,-0.0312 0.004,-0.0312 0.004,-0.0311 0.0338,-0.0283 0.004,-0.0312 -0.023,-0.096 -0.0486,-0.16115 0.004,-0.0311 -0.1338,-0.26266 -0.27329,-0.46308 -0.0743,-0.22603 -0.0258,-0.0651 0.004,-0.0312 -0.0283,-0.0337 0.004,-0.0312 0.01,-0.0933 0.004,-0.0312 0.042,-0.12178 0.0367,-0.0596 0.0338,-0.0282 0.10424,-0.11635 0.13542,-0.11364 0.0475,-0.18417 0.005,-0.0621 0.004,-0.0312 -0.19345,-0.29929 -0.24745,-0.39809 -0.16783,-0.23421 -0.0257,-0.065 0.004,-0.0311 -0.0312,-0.004 -0.0284,-0.0338 -0.0148,-0.18952 0.0156,-0.18682 0.005,-0.0623 0.10706,-0.14743 0.10434,-0.11635 0.2003,-0.13937 0.15844,-0.0176 0.12456,0.0102 0.20969,0.11251 0.0907,0.0392 0.0596,0.0368 0.0595,0.0367 -0.004,0.0311 0.0282,0.0337 0.13392,0.26269 0.0229,0.0961 -0.004,0.0311 -0.005,0.0624 -0.0448,0.15287 -0.0102,0.12455 0.0177,0.15833 0.0743,0.22615 0.10818,0.19767 0.0312,0.004 0.18125,0.0786 0.0961,-0.0228 0.065,-0.0258 0.0312,0.004 0.10153,-0.0852 0.065,-0.0258 0.43188,-0.27591 0.64713,-0.22565 0.099,-0.0541 0.16923,-0.14197 0.20163,0.20585 0.20434,0.17477 0.0906,0.0392 0.18681,0.0156 0.099,-0.0541 0.0758,-0.15026 0.0393,-0.0906 0.005,-0.0623 -0.023,-0.0961 -0.0283,-0.0337 -0.0311,-0.004 -0.19346,-0.2992 0.0705,-0.088 0.2004,-0.13925 0.49698,-0.30164 0.67165,-0.5059 0.0366,-0.0595 0.0447,-0.15289 0.0476,-0.18416 -0.0215,-0.47236 -0.0147,-0.18951 -0.0312,-0.004 0.005,-0.0623 -0.0284,-0.0338 -0.054,-0.0988 -0.0852,-0.10154 -0.0311,-0.004 -0.0596,-0.0367 -0.0594,-0.0366 -0.42232,-0.19374 -0.0879,-0.0704 -0.14481,-0.13815 -0.12178,-0.0422 -0.0906,-0.0392 -0.14208,-0.16923 -0.0568,-0.0678 -0.0973,-0.32211 -0.0203,-0.12726 -0.0258,-0.0651 0.004,-0.0311 0.0144,-0.15556 0.0529,-0.24633 0.12055,-0.30325 0.0842,-0.24359 0.0392,-0.0906 0.0311,0.004 0.0678,-0.0568 0.62261,0.0545 0.0312,0.004 -0.005,0.0623 0.0283,0.0338 0.15299,0.0447 0.58873,0.0828 0.15566,0.0144 0.17861,0.10984 0.0623,0.005 0.096,-0.023 0.20323,-0.17053 0.0311,0.004 0.0758,-0.15015 0.0732,-0.11907 -0.009,-0.25177 -0.0515,-0.12997 0.0156,-0.18683 0.12886,-0.39657 0.13157,-0.42757 0.11671,-0.61719 0.0421,-0.12179 0.004,-0.0312 0.0338,-0.0284 0.0311,0.004 0.004,-0.0311 0.10432,-0.11636 0.0337,-0.0283 0.10434,-0.11635 0.0988,-0.0542 0.26267,-0.13383 0.0312,0.004 0.0905,0.0392 0.71717,0.40786 0.21515,0.0502 0.22341,-0.0431 0.0677,-0.0569 0.0988,-0.0539 0.17207,-0.17326 0.004,-0.0311 0.10154,-0.0853 0.10432,-0.11636 0.005,-0.0621 0.0392,-0.0907 -0.0311,-0.004 -0.0377,-0.28559 0.004,-0.0312 -0.0312,-0.004 -0.0282,-0.0338 -0.46431,-0.0719 -0.0906,-0.0392 -0.12178,-0.0421 -0.11909,-0.0731 -0.0258,-0.065 -0.0594,-0.0367 -0.0284,-0.0337 0.004,-0.0311 -0.0312,-0.004 0.004,-0.0312 -0.0175,-0.15843 0.01,-0.0933 -0.0311,-0.004 -0.088,-0.0705 -0.0799,-0.16377 0.01,-0.0933 0.0194,-0.21794 0.15842,-0.0176 0.27206,0.11797 0.0311,0.004 0.0528,-0.24634 0.0842,-0.24358 0.004,-0.0312 0.0649,-0.0258 0.0338,-0.0283 0.0623,0.005 0.0337,-0.0283 0.0338,-0.0283 0.0338,-0.0285 -0.023,-0.0961 -0.0231,-0.096 -0.0228,-0.0962 -0.0513,-0.12997 -0.0851,-0.10163 -0.1109,-0.1665 -0.16781,-0.23431 -0.0594,-0.0366 -0.11908,-0.0731 -0.12179,-0.0422 -0.15566,-0.0144 -0.16115,0.0487 -0.19213,0.0458 -0.19235,0.046 -0.27195,-0.11795 -0.17316,-0.17194 -0.15955,-0.32776 -0.0514,-0.12997 -0.023,-0.0961 0.0896,-0.30585 0.0392,-0.0906 0.0367,-0.0594 0.0679,-0.0569 0.10153,-0.0851 0.0933,0.01 0.24087,0.11519 0.16116,-0.0485 0.2004,-0.13936 0.0311,0.004 0.12181,0.042 0.19233,-0.0461 0.0178,-0.56299 0.0841,-0.24359 -0.0311,-0.004 -0.13392,-0.26267 0.0312,0.004 0.0337,-0.0284 0.14631,-0.23815 0.10707,-0.14754 0.073,-0.11909 0.0623,0.005 0.0392,-0.0906 0.10706,-0.14753 0.19373,-0.42212 -0.0623,-0.005 -0.0596,-0.0366 -0.17589,-0.14088 -0.15026,-0.0758 -0.0879,-0.0704 -0.17316,-0.17205 -0.0283,-0.0337 -0.11363,-0.13543 -0.0258,-0.065 -0.12456,-0.0102 -0.30858,-0.0583 -0.0961,0.023 -0.0649,0.0258 -0.10164,0.0852 -0.0366,0.0595 -0.0393,0.0907 -0.0102,0.12456 0.0203,0.12727 0.0458,0.19212 0.19345,0.2993 -0.22612,0.0743 -0.47238,0.0216 -0.15026,-0.076 -0.14469,-0.13815 -0.0257,-0.0649 0.18718,-0.70516 -0.009,-0.25178 0.0393,-0.0906 0.6662,-0.44363 0.23421,-0.16761 0.10582,-0.49266 0.0786,-0.18144 0.0393,-0.0906 0.10154,-0.0852 0.13814,-0.14479 0.12726,-0.0203 0.096,-0.0229 0.18961,-0.0147 0.096,-0.023 0.11909,0.0731 0.14753,0.10708 0.0595,0.0366 0.0825,0.1327 0.0283,0.0337 0.0203,0.12726 -0.0895,0.30596 -0.0583,0.30849 -0.0144,0.15565 0.1,0.29113 0.19882,0.23695 -0.01,0.0933 0.054,0.0989 0.0596,0.0367 0.0623,0.005 0.065,-0.0257 0.0338,-0.0283 0.0365,-0.0596 0.0705,-0.0879 0.005,-0.0623 0.0393,-0.0906 0.01,-0.0934 0.0649,-0.0258 0.2005,-0.13926 0.0502,-0.21524 0.0392,-0.0906 0.005,-0.0622 0.0102,-0.12456 0.01,-0.0933 0.0476,-0.18396 0.0393,-0.0907 0.0785,-0.18135 -0.0257,-0.065 0.004,-0.0311 -0.0257,-0.0651 -0.34907,-0.31281 -0.19345,-0.29919 -0.0514,-0.12998 -0.0743,-0.22613 -0.0689,-0.28831 0.0194,-0.21794 0.0786,-0.18135 0.0367,-0.0595 0.0475,-0.18407 0.0557,-0.27751 0.0393,-0.0906 0.10153,-0.0851 0.099,-0.0542 0.0961,-0.0228 0.12456,0.0102 0.0311,0.004 0.1354,-0.11364 0.065,-0.0257 0.18951,-0.0148 0.0337,-0.0284 0.12457,0.0102 0.0907,0.0393 0.33158,0.15449 0.41123,0.31834 0.0258,0.0649 0.0486,0.16115 -0.004,0.0312 -0.0704,0.0879 0.0258,0.065 0.0257,0.065 0.088,0.0705 0.0283,0.0337 0.0907,0.0393 0.0622,0.005 0.24908,0.0212 0.0312,0.004 0.24087,0.11518 0.0933,0.01 0.0651,-0.0257 0.10153,-0.0853 0.0705,-0.0879 0.005,-0.0623 0.004,-0.0312 0.0895,-0.30595 -0.0284,-0.0337 -0.0283,-0.0337 -0.0595,-0.0368 -0.0312,-0.004 -0.0311,-0.004 0.005,-0.0623 0.005,-0.0623 0.004,-0.0312 -0.0229,-0.096 -0.0569,-0.0678 -0.0933,-0.01 -0.15568,-0.0144 -0.12454,-0.0102 -0.26922,-0.14903 -0.0853,-0.10164 -0.0568,-0.0676 -0.15691,-0.35883 -0.0798,-0.16377 -0.023,-0.0962 -0.0257,-0.065 0.0392,-0.0906 0.0705,-0.088 0.0704,-0.088 0.10706,-0.14744 0.29647,-0.16227 0.29386,-0.13119 0.1693,-0.14198 0.0337,-0.0282 0.1218,0.042 0.12457,0.0102 0.0311,0.004 0.0312,0.004 0.065,-0.0257 0.0311,0.004 0.20324,-0.17055 0.16923,-0.14199 0.29375,-0.13109 0.13269,-0.0826 0.0338,-0.0283 0.0367,-0.0596 0.004,-0.0311 0.005,-0.0622 0.0419,-0.12181 0.0144,-0.15565 -0.0147,-0.18943 0.004,-0.0312 -0.0229,-0.096 -0.0258,-0.0651 -0.0311,-0.004 -0.0825,-0.13269 -0.0282,-0.0337 -0.0311,-0.004 -0.0933,-0.01 -0.0311,-0.004 -0.0651,0.0257 -0.0649,0.0258 -0.0678,0.0568 -0.0311,-0.004 -0.0311,-0.004 -0.005,0.0623 -0.1125,0.20969 -0.0337,0.0284 -0.004,0.0312 -0.0338,0.0282 -0.0338,0.0282 -0.0337,0.0284 -0.0311,-0.004 -0.19235,0.046 -0.15554,-0.0144 -0.18685,-0.0156 -0.0312,-0.004 -0.18123,-0.0786 -0.17873,-0.10974 -0.0282,-0.0338 -0.0311,-0.004 -0.11363,-0.13541 -0.1339,-0.26268 -0.17045,-0.20312 -0.0541,-0.0989 -0.0312,-0.004 -0.0513,-0.12995 -0.0203,-0.12726 -0.0215,-0.47237 -0.0459,-0.19222 -0.0203,-0.12726 0.0102,-0.12456 0.0448,-0.15288 0.0705,-0.088 0.0677,-0.0568 0.1327,-0.0825 0.66348,-0.41254 0.0677,-0.0568 0.0365,-0.0595 0.0624,0.005 0.0622,0.005 0.38841,0.2222 0.14481,0.13815 0.14745,0.10696 0.0623,0.005 0.0312,0.004 0.20575,-0.20153 0.1327,-0.0825 0.23158,-0.13663 0.0337,-0.0284 0.28021,0.0247 0.0312,0.004 0.15833,-0.0175 0.099,-0.0541 0.13269,-0.0824 0.0337,-0.0285 0.10433,-0.11635 0.21392,-0.29497 0.0448,-0.15288 0.005,-0.0623 -0.0798,-0.16376 0.073,-0.1191 0.34683,-0.3774 0.35601,-0.12576 0.004,-0.0312 0.15567,0.0144 0.36538,0.12614 0.18942,-0.0147 0.25993,-0.10273 0.0678,-0.0569 0.30193,-0.22455 0.0677,-0.0567 0.0393,-0.0907 0.004,-0.0311 0.01,-0.0933 0.01,-0.0933 -0.0596,-0.0367 0.004,-0.0311 -0.0257,-0.0651 -0.11908,-0.0731 -0.48175,-0.23046 -0.30587,-0.0893 -0.1218,-0.0422 -0.0312,-0.004 -0.36267,-0.15719 -0.0879,-0.0704 -0.0312,-0.004 -0.054,-0.099 -0.0258,-0.0649 -0.0203,-0.12725 0.0102,-0.12455 0.004,-0.0312 0.0338,-0.0284 0.004,-0.0311 0.0503,-0.21523 0.0731,-0.11908 0.16934,-0.14199 0.0338,-0.0283 0.0649,-0.0258 0.45772,-0.21091 0.41283,-0.0579 0.63736,0.24387 0.13936,0.2005 0.11636,0.10424 0.18133,0.0786 0.0962,-0.0228 0.16378,-0.0799 0.0649,-0.0257 0.10424,-0.11636 0.0733,-0.11907 0.0528,-0.24632 -0.0541,-0.099 -0.0688,-0.28829 -0.0541,-0.099 -0.11363,-0.13541 -0.35449,-0.25066 -0.11363,-0.13543 -0.26382,-0.2112 -0.3004,-0.15175 -0.23816,-0.14632 -0.0851,-0.10164 -0.11364,-0.1354 -0.023,-0.0961 -0.023,-0.0961 0.0247,-0.28021 0.004,-0.0311 -0.23271,-0.20856 -0.054,-0.0988 -0.0542,-0.099 -0.0933,-0.01 -0.75534,0.0281 -0.7892,0.0564 -0.84867,0.0198 -0.22059,0.0123 -0.18961,0.0147 -0.21783,-0.0194 -0.12725,0.0202 -0.0312,-0.004 -0.47237,0.0216 -0.096,0.0229 -1.03826,0.0346 -0.31403,0.004 -0.0311,-0.004 -0.0961,0.0229 -0.15556,-0.0144 -0.53472,0.016 -1.3522,0.0385 -0.37904,0.0297 -0.75531,0.0279 -0.12456,-0.0102 -0.0338,0.0284 -0.0933,-0.01 -0.0961,0.0229 -0.15555,-0.0144 -0.0312,-0.004 -0.72412,0.0308 -0.63079,0.0388 -0.18693,-0.0156 -1.1965,0.0521 -0.0312,-0.004 -0.94481,0.0428 -0.0623,-0.005 -1.06935,0.0319 -0.0961,0.0229 -0.59689,0.0105 -0.18951,0.0148 0.11529,-0.24087 0.10972,-0.17872 0.0704,-0.0879 0.13814,-0.1448 0.14358,-0.20697 0.004,-0.0312 -0.0257,-0.0649 0.0392,-0.0907 0.0392,-0.0907 -0.0229,-0.096 0.004,-0.0312 0.004,-0.0312 0.0337,-0.0282 0.10164,-0.0853 0.0704,-0.088 0.0622,0.005 0.0102,-0.12456 0.0194,-0.21783 0.005,-0.0623 0.0447,-0.15288 0.29385,-0.13118 0.0421,-0.12179 0.004,-0.0312 -0.0258,-0.0649 -0.0258,-0.0651 -0.0176,-0.15833 0.0366,-0.0596 0.004,-0.0312 0.13542,-0.11362 0.15843,-0.0175 0.13542,-0.11364 0.0421,-0.12178 0.005,-0.0623 -0.0283,-0.0338 0.0787,-0.18123 0.0337,-0.0284 0.004,-0.0312 0.0312,0.004 0.29112,-0.10001 0.15833,-0.0175 0.12996,-0.0514 0.1125,-0.20969 0.0649,-0.0258 0.0596,0.0367 0.0311,0.004 0.0337,-0.0284 0.0989,-0.0541 0.004,-0.0311 0.0677,-0.0569 0.0102,-0.12456 0.0961,-0.0228 0.12998,-0.0514 0.005,-0.0623 0.076,-0.15015 0.004,-0.0312 -0.0175,-0.15842 -0.0797,-0.16377 0.11241,-0.2098 -0.0258,-0.0649 0.0422,-0.12179 0.18568,-0.32887 0.12454,0.0102 0.0284,0.0337 0.0623,0.005 0.10154,-0.0852 0.0651,-0.0258 0.0757,-0.15017 -0.0283,-0.0337 0.01,-0.0933 0.0312,0.004 0.0623,0.005 0.042,-0.12182 0.0311,0.004 0.0651,-0.0257 0.042,-0.1218 0.0623,0.005 0.0623,0.005 0.0705,-0.088 0.16387,-0.0797 0.10153,-0.0852 0.16115,-0.0486 0.0312,0.004 0.0596,0.0367 0.0312,0.004 0.0676,-0.0568 0.0421,-0.1218 0.17749,-0.23542 0.0933,0.01 0.0906,0.0392 0.0651,-0.0257 0.1327,-0.0826 0.042,-0.1218 0.004,-0.0311 -0.0595,-0.0367 -0.0312,-0.004 -0.0539,-0.0988 0.004,-0.0312 0.004,-0.0312 0.004,-0.0312 0.0933,0.01 0.0338,-0.0282 0.11788,-0.27205 0.0448,-0.153 0.0473,-0.18397 0.0337,-0.0284 0.0651,-0.0258 0.0934,0.01 0.12996,-0.0512 0.19497,-0.0771 0.12723,-0.0202 0.065,-0.0258 0.14904,-0.26933 -0.046,-0.19214 0.13815,-0.1448 0.0337,-0.0283 0.14631,-0.23816 -0.0539,-0.0987 -0.0258,-0.065 -0.0514,-0.12997 -0.17317,-0.17195 -0.0312,-0.004 -0.0337,0.0283 -0.004,0.0312 -0.0311,-0.004 0.005,-0.0622 -0.0283,-0.0338 -0.0312,-0.004 0.0102,-0.12456 0.0678,-0.0568 0.0392,-0.0907 0.0392,-0.0906 0.004,-0.0312 -0.0594,-0.0366 0.0102,-0.12457 0.0337,-0.0282 0.0337,-0.0285 -0.0257,-0.065 -0.0541,-0.099 0.0338,-0.0282 0.10973,-0.17861 0.10154,-0.0852 0.0156,-0.18693 0.004,-0.0311 0.0156,-0.18682 -0.009,-0.25178 -0.1109,-0.1666 -0.0826,-0.1327 -0.0311,-0.004 -0.0569,-0.0676 -0.0283,-0.0338 -0.0257,-0.065 -0.0284,-0.0337 -0.0312,-0.004 -0.30586,-0.0896 -0.21795,-0.0194 -0.0649,0.0258 -0.0624,-0.005 -0.12179,-0.0421 -0.0257,-0.0649 -0.11906,-0.0733 -0.18684,-0.0156 -0.0541,-0.0988 -0.0678,0.0568 -0.0623,-0.005 -0.0311,-0.004 0.004,-0.0311 0.0649,-0.0258 0.004,-0.0312 0.004,-0.0311 0.0102,-0.12457 0.004,-0.0311 -0.0311,-0.004 -0.0365,0.0594 -0.0312,-0.004 -0.11909,-0.073 0.004,-0.0312 0.01,-0.0933 0.005,-0.0624 0.096,-0.0228 0.0338,-0.0282 0.0731,-0.11908 0.004,-0.0312 -0.054,-0.0987 0.004,-0.0312 -0.0203,-0.12725 0.0102,-0.12455 -0.0229,-0.096 -0.054,-0.0988 -0.0596,-0.0367 0.004,-0.0312 0.004,-0.0312 0.004,-0.0311 -0.0311,-0.004 -0.0312,-0.004 -0.004,0.0311 -0.28021,-0.0247 0.01,-0.0933 0.0733,-0.11906 0.0933,0.01 0.0595,0.0367 0.0677,-0.057 0.004,-0.0311 -0.023,-0.0961 -0.0312,-0.004 0.004,-0.0311 -0.065,0.0257 -0.24361,-0.084 -0.0283,-0.0338 0.004,-0.0312 0.0393,-0.0906 -0.0284,-0.0338 0.005,-0.0621 0.0624,0.005 0.005,-0.0624 -0.0596,-0.0367 -0.0282,-0.0337 0.004,-0.0312 0.0337,-0.0284 0.0596,0.0367 0.0366,-0.0595 -0.0283,-0.0337 0.0337,-0.0284 z"
       id="AR-01"
       style="font-style:normal;font-weight:400;font-size:34.375px;font-family:'MS Shell Dlg 2';opacity:1;fill:none;fill-opacity:1;fill-rule:evenodd;stroke:#000000;stroke-width:0.333;stroke-linecap:square;stroke-linejoin:bevel;stroke-miterlimit:4;stroke-dasharray:none;stroke-opacity:1" />
    <path
       inkscape:connector-curvature="0"
       d="m 490.78782,442.70275 c -0.0139,0.81579 -0.0116,1.62869 -0.0257,2.44448 -0.11916,0.4433 0.0158,1.1931 0.003,1.75695 -0.007,0.28199 -0.0419,0.51229 -0.18171,0.6429 -0.13991,0.13061 -0.37481,0.16968 -0.75531,0.0279 -0.0391,2.95301 -0.0752,5.88322 -0.11423,8.83626 0.0808,0.61959 0.0911,1.19157 -0.10513,1.55918 -0.0981,0.18385 -0.2537,0.32512 -0.47408,0.3978 -0.14946,0.0493 -0.37749,0.0248 -0.59686,0.0104 l 0,0 c -0.10396,-0.008 -0.16139,0.0293 -0.28297,0.007 -0.33527,0.52296 -0.9915,0.86767 -1.54632,1.18223 -0.55493,0.31453 -1.00833,0.58384 -0.95883,0.91993 -2.00736,2.13657 -4.22668,4.13455 -6.31645,6.22316 -0.005,0.25838 0.20149,1.84799 0.13117,2.8033 1.38905,0.003 2.78422,-0.0141 4.1731,-0.0114 1.02788,0.0979 2.43187,-0.18374 3.21745,0.15598 0.0831,1.19629 -0.009,2.15239 -0.32112,2.95204 -0.0988,0.35966 -0.04,0.56055 0.12971,0.67006 0.16989,0.10963 0.44689,0.10561 0.74441,0.0966 0.59494,-0.018 1.29609,-0.12923 1.55372,0.16735 -0.20299,0.45342 -0.2003,0.69337 -0.0735,0.8405 0.12687,0.14711 0.37852,0.1896 0.64018,0.2129 0.26164,0.0238 0.54016,0.0447 0.74171,0.1276 0.20161,0.0821 0.3184,0.23302 0.26501,0.5565 0.26473,0.0172 0.3898,0.16731 0.43706,0.38325 0.0472,0.21603 0.0319,0.49527 0.0279,0.75532 -0.004,0.26015 0.0181,0.52145 0.12956,0.67013 0.11148,0.14869 0.32266,0.18112 0.71608,0.0626 0.28205,0.62214 1.02713,0.8649 1.58566,1.2366 -0.14678,0.34562 -0.14394,0.65625 -0.0452,0.87439 0.0989,0.21824 0.26901,0.34778 0.49659,0.41988 0.22748,0.0722 0.51613,0.0645 0.75531,-0.0279 0.23907,-0.0925 0.4473,-0.26955 0.58093,-0.54515 0.1271,-0.28702 0.31991,-0.43487 0.54713,-0.51688 0.2272,-0.0819 0.4776,-0.086 0.75804,-0.0591 0.56082,0.054 1.18944,0.23496 1.68108,0.14696 0.62206,0.12273 1.18423,0.14888 1.53909,-0.0221 0.17732,-0.0855 0.29451,-0.22259 0.35206,-0.4398 0.0576,-0.21709 0.0494,-0.49488 -0.0482,-0.88255 2.45798,0.0605 4.93012,0.11536 7.3878,0.17586 0.37128,0.12309 0.9423,0.0388 1.47411,0.003 -0.0568,-1.15555 -0.11051,-2.30972 -0.16742,-3.46528 -0.007,-0.20493 -0.15041,-0.26712 -0.35178,-0.28172 -0.20128,-0.015 -0.45293,0.0311 -0.69568,0.0646 -0.24285,0.0336 -0.49372,0.0372 -0.62532,-0.0238 -0.13173,-0.0605 -0.15348,-0.17565 -0.0216,-0.47236 0.37923,-1.42589 0.50043,-2.90876 0.57093,-4.37319 0.0708,-1.46433 0.0832,-2.91533 0.19439,-4.3747 -0.0186,-0.385 0.11357,-0.90816 0.0805,-1.27906 -0.0166,-0.18543 -0.083,-0.35257 -0.21365,-0.42644 -0.13065,-0.0739 -0.34351,-0.0735 -0.66188,0.0362 -0.17837,-0.28703 -0.24734,-0.57364 -0.2406,-0.83664 0.008,-0.26299 0.11387,-0.48424 0.2779,-0.66582 0.16405,-0.1816 0.39587,-0.30486 0.68913,-0.34757 0.29331,-0.0426 0.6273,-0.002 1.0219,0.15229 0.51315,0.39011 1.05978,0.6421 1.62389,0.80077 0.56412,0.15868 1.1425,0.20245 1.73789,0.21474 1.1908,0.0248 2.42543,-0.13522 3.62371,-0.18487 0.28223,-0.23469 0.64896,-0.22139 1.01253,-0.0996 0.36348,0.12176 0.74771,0.35502 1.08259,0.53388 0.33478,0.17887 0.59953,0.28977 0.79569,0.22653 0.19628,-0.0634 0.3211,-0.31281 0.26862,-0.91769 -0.0846,-0.54345 -0.0146,-0.91456 0.22527,-1.1409 0.23974,-0.22637 0.65202,-0.29861 1.18177,-0.24173 0.29017,-0.12688 0.91338,-0.0918 1.39156,-0.12921 0.23905,-0.0186 0.4444,-0.046 0.5455,-0.14039 0.10126,-0.0944 0.0765,-0.24245 -0.0837,-0.4779 -0.31482,-0.58157 -0.24439,-1.0217 -0.005,-1.38067 0.23982,-0.35896 0.65106,-0.64121 1.0212,-0.91447 0.37002,-0.2733 0.72169,-0.54678 0.79766,-0.8713 0.0759,-0.32453 -0.0971,-0.71267 -0.73971,-1.22543 -0.59496,-0.46472 -0.86623,-0.8922 -0.92115,-1.30395 -0.0549,-0.41175 0.099,-0.81376 0.35526,-1.19226 0.51255,-0.75722 1.40755,-1.45257 1.79191,-2.196 -1.78908,-0.009 -3.57241,-0.0205 -5.3615,-0.0299 -0.32636,-0.54823 -0.0337,-1.70975 -0.12721,-2.48927 -1.01895,-0.0316 -2.04827,-0.0488 -3.0673,-0.0802 -0.36205,0.0571 -0.90125,-0.0915 -1.3101,-0.0836 -0.20454,0.004 -0.3891,0.0609 -0.48608,0.17699 -0.097,0.1162 -0.1134,0.31432 -0.0238,0.62533 0.0291,0.45858 0.0712,0.8933 -0.0466,1.25069 -0.11796,0.35748 -0.39005,0.62729 -0.96821,0.66816 -0.29593,0.22949 -0.34014,0.65225 -0.31592,1.10166 0.0242,0.44952 0.0969,0.91232 0.0128,1.28732 -3.09172,-0.048 -6.18318,-0.0739 -9.27473,-0.12129 0.0958,-3.27108 0.1989,-6.5532 0.29474,-9.82419 -1.19456,-0.0367 -2.3707,-0.0878 -3.56518,-0.12374 -0.2672,0.0399 -0.43796,-0.005 -0.5211,-0.13973 -0.0832,-0.13488 -0.0901,-0.34337 -0.0755,-0.57116 0.029,-0.45582 0.15147,-1.00803 0.055,-1.34414 -1.42636,-0.0145 -2.83469,-0.0445 -4.26107,-0.0592 -0.26501,-0.0594 -0.41845,-0.0113 -0.51171,0.11213 -0.0933,0.12436 -0.14023,0.33035 -0.14247,0.55208 -0.004,0.44372 0.10286,0.99998 -0.021,1.31579 -1.35834,-0.0347 -2.71038,-0.0703 -4.06882,-0.10493 z"
       id="AR-02"
       style="font-style:normal;font-weight:400;font-size:34.375px;font-family:'MS Shell Dlg 2';opacity:1;fill:none;fill-opacity:1;fill-rule:evenodd;stroke:#000000;stroke-width:0.333;stroke-linecap:square;stroke-linejoin:bevel;stroke-miterlimit:4;stroke-dasharray:none;stroke-opacity:1" />
    <path
       inkscape:connector-curvature="0"
       d="m 452.77615,460.89645 c 0.63693,0.0229 1.27311,0.0192 1.90995,0.0413 0.22535,-0.47156 0.10258,-0.62244 -0.0591,-0.75804 -0.16171,-0.13551 -0.36538,-0.25019 -0.29065,-0.6214 -0.084,-0.43016 -0.031,-0.69676 0.079,-0.90285 0.10983,-0.20601 0.26189,-0.35905 0.36569,-0.5954 0.91408,0.018 1.84191,0.0342 2.75586,0.0531 0.17962,0.46081 0.4024,0.54536 0.55887,0.42533 0.15646,-0.12012 0.23421,-0.4236 0.13306,-0.80406 1.29087,-0.17837 2.60149,-0.22241 3.89839,-0.098 0.25714,-0.26469 0.29133,-0.64054 0.22923,-0.82697 -0.0622,-0.18643 -0.23075,-0.18029 -0.34137,0.31525 -0.22032,-0.10908 -0.44464,-0.22772 -0.59265,-0.39696 -0.14791,-0.16924 -0.21811,-0.38679 -0.15795,-0.70394 0.0139,-0.28197 0.10332,-0.73339 0.0615,-1.06118 -0.0209,-0.16385 -0.079,-0.29703 -0.18791,-0.36156 -0.10879,-0.0644 -0.26014,-0.059 -0.50627,0.0499 -0.45543,-0.18693 -1.0996,-0.22702 -1.63093,-0.36234 -0.26561,-0.0677 -0.50658,-0.16679 -0.69418,-0.3117 -0.18758,-0.14479 -0.30792,-0.34464 -0.35299,-0.62683 -0.22144,-0.22266 -0.32884,-0.51202 -0.36494,-0.84754 -0.0362,-0.33553 -0.005,-0.71985 0.0332,-1.0951 -0.30513,-0.35825 -0.1132,-1.15455 -0.1276,-1.76783 -0.2929,-0.007 -0.4154,-0.0342 -0.43312,-0.0692 -0.0177,-0.0351 0.0719,-0.0806 0.2004,-0.13928 0.25691,-0.11765 0.66375,-0.28262 0.73119,-0.46934 -0.0196,-0.53677 0.15362,-1.2519 0.3284,-1.60249 0.31307,0.005 0.36986,-0.27462 0.36851,-0.62656 -0.002,-0.35187 -0.0633,-0.78562 0.028,-1.03271 -0.0716,-0.23013 -0.46095,-0.1677 -0.80123,-0.16426 -0.17012,0.002 -0.33937,-0.005 -0.43314,-0.0692 -0.0938,-0.0642 -0.10792,-0.16613 -0.0295,-0.37901 0.0965,-0.23729 0.023,-0.65307 0.0245,-1.00165 0.002,-0.34855 0.0684,-0.62812 0.39696,-0.59265 0.12772,-0.13238 0.15799,-0.39694 0.21007,-0.60902 0.0521,-0.21205 0.1113,-0.39047 0.34945,-0.40859 -0.0356,-0.3676 -0.0379,-0.70418 0.079,-0.90285 0.11685,-0.19857 0.35038,-0.2483 0.79195,-0.0875 0.38581,0.096 0.69952,0.0842 0.93928,0.0194 0.23985,-0.0647 0.41086,-0.19051 0.59314,-0.32452 1.1373,0.0577 2.29791,0.11742 3.43522,0.175 0.0396,-0.69623 0.0812,-1.39497 0.12021,-2.09119 0.1944,-0.13828 0.20245,-0.45621 0.19536,-0.79862 -0.007,-0.34232 -0.0408,-0.6989 0.0219,-0.97046 0.11026,-1.89904 0.0666,-3.8368 0.28056,-5.71601 0.44527,-1.25618 0.88863,-2.51683 1.33392,-3.7731 0.19281,0.0473 0.2891,0.002 0.35328,-0.0946 0.0643,-0.0969 0.0729,-0.26013 0.0693,-0.43321 -0.007,-0.34607 -0.0914,-0.76209 -0.006,-1.00437 -0.0629,-0.23336 -0.0341,-0.38363 0.0408,-0.46693 0.075,-0.0833 0.19953,-0.0971 0.35329,-0.0946 0.30755,0.005 0.7287,0.1258 0.9962,0.087 1.15811,0.0667 2.30835,0.11191 3.46641,0.17769 -0.22207,0.50868 -0.17904,0.65699 -0.029,0.6876 0.15029,0.0306 0.4137,-0.0474 0.61991,0.0855 -0.002,0.36065 0.4214,1.02213 0.18713,1.80449 -0.0777,0.3855 0.13002,0.49763 0.35573,0.59579 0.22571,0.0981 0.47009,0.17894 0.49387,0.45095 -0.10276,0.24326 -0.0575,0.37109 0.024,0.44137 0.0817,0.0702 0.22428,0.0825 0.36815,0.0948 0.14395,0.013 0.2842,0.025 0.36812,0.095 0.0841,0.0696 0.0911,0.19668 -0.007,0.43845 -0.0372,0.34535 0.25129,0.41036 0.59265,0.39695 0.34136,-0.0135 0.74129,-0.0994 0.97319,-0.009 1.63927,0.0562 3.27297,0.0916 4.91213,0.14755 -0.0954,0.69303 0.0365,1.1589 0.33619,1.53514 0.87095,0.0638 1.78037,0.0261 2.62046,0.16646 -0.28597,0.1352 -0.43371,0.30717 -0.51322,0.48844 -0.0795,0.18115 -0.0896,0.35492 -0.0153,0.53189 0.14882,0.35402 0.55785,0.649 1.00661,0.68412 -0.009,0.32254 0.0156,0.67262 -0.079,0.90276 -0.0944,0.23016 -0.30498,0.35126 -0.74047,0.21749 -0.0972,0.2275 -0.2169,0.44258 -0.39687,0.59267 -0.18009,0.15018 -0.41794,0.22755 -0.77166,0.21485 -0.20865,0.38952 -0.14468,0.61875 0.0618,0.72686 0.20646,0.10816 0.57176,0.0897 0.90546,0.0479 0.19893,0.12661 0.18823,0.45202 0.1499,0.79729 -0.0384,0.34537 -0.12912,0.72491 -0.0871,0.99619 -0.0708,0.41652 0.0631,0.62127 0.12131,0.76349 0.0583,0.14232 0.0568,0.21095 -0.28447,0.38296 -0.0461,1.91096 -0.10951,3.81607 -0.15597,5.72691 -0.28308,0.0254 -0.65368,-0.0412 -0.93939,-0.0194 -0.14291,0.0111 -0.26116,0.033 -0.32492,0.12837 -0.0637,0.0955 -0.0811,0.26433 -0.0127,0.50081 -0.0338,1.02566 -0.0772,2.03882 -0.111,3.06447 -0.24688,0.0682 -0.64965,-0.0484 -0.99619,-0.0871 -0.34658,-0.0385 -0.62194,-0.009 -0.62413,0.32183 -0.006,1.25304 -0.14079,2.55363 -0.0804,3.7887 0.60431,0.23627 0.91711,0.64799 1.22842,1.01714 0.31141,0.36914 0.63337,0.69705 1.35192,0.68292 0.30432,0.16115 0.52677,0.41107 0.68996,0.71917 0.16316,0.30799 0.25582,0.67296 0.3852,0.97469 0.1295,0.30183 0.26881,0.55784 0.47209,0.7001 0.20331,0.14226 0.49535,0.15335 0.87986,-0.017 -0.23736,0.2887 -0.28964,0.59029 -0.23194,0.85804 0.0578,0.26765 0.20907,0.52111 0.41253,0.66347 0.20347,0.14228 0.4512,0.17569 0.65099,0.0882 0.19988,-0.0873 0.36103,-0.29555 0.40785,-0.71717 0.30877,-0.40604 0.61594,-0.54841 0.99387,-0.60318 0.37791,-0.0548 0.811,-0.0254 1.32383,-0.0724 l 0.54676,0.20461 c 0.21936,0.0146 0.44737,0.0392 0.59687,-0.0104 0.22038,-0.0727 0.37597,-0.21394 0.47407,-0.39779 0.19609,-0.36761 0.1858,-0.93959 0.10513,-1.55918 0.039,-2.95303 0.0751,-5.88325 0.11423,-8.83626 0.3805,0.1417 0.61542,0.10255 0.75531,-0.0279 0.14001,-0.13059 0.17541,-0.36087 0.18172,-0.6429 0.0128,-0.56384 -0.12217,-1.31365 -0.003,-1.75696 0.014,-0.81578 0.0116,-1.62868 0.0257,-2.44447 -1.0761,-0.0278 -2.1468,-0.066 -3.22278,-0.0939 0.0829,-2.3921 0.16716,-4.76959 0.25013,-7.16166 0.36958,-0.58722 0.71696,-1.05953 1.11875,-1.31369 0.55616,0.16229 0.93137,0.12249 1.13707,-0.0888 0.20558,-0.21118 0.24368,-0.59955 0.13188,-1.14908 3.13911,0.0899 6.28022,0.16953 9.41944,0.25943 0.23858,-0.0422 0.3796,-0.51467 0.40129,-1.00013 0.021,-0.4854 -0.0556,-0.96973 -0.25262,-1.05723 0.0262,-0.30248 0.0924,-0.54051 5e-4,-0.7215 -0.092,-0.18091 -0.35832,-0.32207 -1.05686,-0.46892 -0.35084,-0.35331 -0.14583,-0.91478 -0.0954,-1.41992 0.0246,-0.2526 -6.5e-4,-0.47848 -0.1296,-0.67004 -0.12888,-0.19166 -0.36086,-0.32038 -0.81325,-0.38494 -0.40642,0.17866 -0.60219,0.17327 -0.66743,0.0985 -0.0653,-0.0748 0.005,-0.23821 0.0693,-0.43309 0.0634,-0.19493 0.13416,-0.40445 0.11382,-0.58612 -0.0201,-0.18154 -0.15451,-0.31978 -0.47086,-0.35479 -0.41729,-0.0143 -0.5252,-0.10228 -0.4845,-0.19927 0.0408,-0.097 0.23346,-0.21518 0.43744,-0.33818 0.204,-0.12298 0.42738,-0.24126 0.49963,-0.33271 0.0723,-0.0915 -0.008,-0.15482 -0.36269,-0.1572 -0.5049,0.15117 -0.78601,0.16301 -0.91636,0.0767 -0.13038,-0.0864 -0.10559,-0.28469 0.009,-0.46976 0.23055,-0.37011 0.81324,-0.77366 1.25372,-0.70591 0.0318,-1.08292 0.0643,-2.17115 0.0965,-3.25398 l -0.25177,0.009 -0.379,0.0294 -0.0933,-0.01 -1.09783,-0.002 -0.12457,-0.0102 -0.28283,0.007 -0.15835,0.0177 -2.85204,-0.03 -0.22071,0.0122 -0.31392,0.004 -1.22232,-0.0133 -0.34521,9.7e-4 -0.90819,-0.0168 -0.50356,0.0187 -0.28011,-0.0247 -0.12725,0.0202 -0.87711,-0.0143 -0.31416,0.004 -0.62531,-0.0238 -0.0933,-0.01 -1.16009,-0.007 -0.40737,-0.004 -0.0311,-0.004 -0.84877,0.0199 -0.15555,-0.0144 -0.4075,-0.004 -0.0933,-0.01 -1.25613,0.0156 -0.2491,-0.0211 -0.69044,0.002 -1.03271,-0.028 -0.43853,-0.007 -0.62809,0.008 -0.97044,-0.0219 -0.22072,0.0123 -0.0311,-0.004 -0.0624,-0.005 -0.18673,-0.0156 -0.0933,-0.01 -0.15833,0.0176 -0.18694,-0.0156 -0.1894,0.0147 -0.0933,-0.01 -0.46976,-0.009 -0.40738,-0.004 -0.25177,0.009 -0.0935,-0.01 -0.18672,-0.0156 -0.15566,-0.0144 -0.12726,0.0202 -1.56743,-0.0115 -0.0312,-0.004 -2.19018,-0.066 -0.25175,0.009 -0.18941,0.0148 -0.21796,-0.0194 -0.22068,0.0122 -0.18673,-0.0156 -0.0312,-0.004 -0.12455,-0.0102 -0.0623,-0.005 -0.25176,0.009 -0.0961,0.0228 -0.0311,-0.004 -1.84768,-0.0362 -0.0621,-0.005 -0.0624,-0.005 -0.6281,0.008 -0.87708,-0.0143 -0.37631,-0.002 -0.12455,-0.0102 -0.0622,-0.005 -0.65926,0.005 -0.0623,-0.005 -0.0311,-0.004 -0.18693,-0.0156 -0.0933,-0.01 -0.46966,-0.009 -0.1896,0.0148 -1.62697,-0.0488 -0.40737,-0.004 -0.0933,-0.01 -0.0337,0.0284 -0.24909,-0.0211 -0.0311,-0.004 -0.0338,0.0282 -0.40475,-0.0354 -1.00165,-0.0245 -0.15833,0.0176 -0.0311,-0.004 -0.0623,-0.005 -0.15557,-0.0144 -0.0623,-0.005 -0.46965,-0.009 -1.18853,-0.0411 -0.0622,-0.005 -0.0962,0.023 -0.21794,-0.0194 -0.62532,-0.0238 -0.3763,-0.002 -0.21783,-0.0194 -0.15845,0.0176 -0.34239,-0.03 -0.0312,-0.004 -0.47236,0.0215 -0.0312,-0.004 -0.0311,-0.004 -0.0623,-0.005 -0.46964,-0.009 -0.12454,-0.0102 -0.0312,-0.004 -0.72142,-3.9e-4 -0.0934,-0.01 -0.0933,-0.01 -0.43845,-0.007 -0.0933,-0.01 -0.90821,-0.0166 -0.0933,-0.01 -0.72151,-4.9e-4 -0.0933,-0.01 -0.81213,-0.0396 -0.53463,0.0161 0.0606,0.38175 0.0405,0.25448 0.0121,0.2206 0.0148,0.18951 0.11982,1.13978 0.0553,0.44399 -0.005,0.0623 -0.004,0.0311 0.0431,0.22342 0.0148,0.18951 0.0376,0.28567 -0.004,0.0311 0.0565,0.78912 0.023,0.0961 -0.005,0.0622 0.0378,0.28569 0.10509,0.95019 0.009,0.25178 0.0376,0.28566 0.0258,0.065 0.0215,0.47246 0.035,0.31666 -0.004,0.0312 0.0405,0.25448 0.0147,0.18952 0.0284,0.0337 -0.005,0.0623 0.0405,0.25449 0.0122,0.2206 0.0258,0.065 0.0269,0.4101 0.012,0.22068 0.0285,0.0337 0.0229,0.0961 -0.01,0.0934 -0.005,0.0622 0.0257,0.0651 -0.01,0.0933 0.0486,0.16116 -0.0102,0.12455 -0.004,0.0311 0.0312,0.004 0.007,0.28284 0.0432,0.22341 -0.004,0.0312 0.0295,0.37902 0.12142,0.76348 0.0646,0.69588 -0.004,0.0311 0.0931,0.72969 0.0377,0.28558 0.0958,0.69849 0.009,0.25177 0.0257,0.065 -0.004,0.0311 -0.004,0.0312 0.0175,0.15842 0.0406,0.2545 0.0701,0.63352 0.0755,0.57116 -0.005,0.0624 0.0431,0.22331 -0.004,0.0312 -0.01,0.0932 0.0755,0.57125 0.0203,0.12725 -0.004,0.0311 -0.004,0.0312 -0.005,0.0623 0.2062,1.58651 -0.005,0.0622 0.0378,0.2856 0.0122,0.22069 0.0405,0.2545 0.0378,0.28557 -0.01,0.0933 0.0282,0.0337 0.0176,0.15845 -0.01,0.0933 -0.004,0.0312 0.0958,0.6985 0.0147,0.18951 0.0257,0.065 0.0122,0.22069 0.0701,0.63351 -0.005,0.0622 0.0755,0.57137 0.0405,0.25448 0.19816,1.67987 0.009,0.25176 0.13083,1.01526 -0.0102,0.12456 0.0257,0.065 0.0202,0.12723 0.0417,0.59963 0.081,0.50899 -0.004,0.0312 -0.005,0.0623 0.0147,0.18951 0.0148,0.1895 0.11869,0.79458 -0.004,0.0312 0.1401,1.26703 -0.004,0.0312 0.0176,0.15834 0.0958,0.6985 0.0985,0.66743 -0.01,0.0932 -0.005,0.0623 -0.042,0.12178 0.0148,0.18952 -0.0144,0.15566 0.0175,0.15832 -0.005,0.0623 -0.004,0.0312 -0.005,0.0621 0.0283,0.0338 -0.0247,0.28023 -0.004,0.0311 -0.005,0.0623 -0.0102,0.12455 0.0148,0.18951 -0.0267,0.31135 -0.0194,0.21783 -0.01,0.0933 -0.005,0.0623 -0.0144,0.15566 -0.005,0.0622 -0.0354,0.40477 -0.004,0.0312 0.0203,0.12725 -0.0156,0.18673 -0.0102,0.12456 -0.004,0.0312 -0.004,0.0312 -0.005,0.0622 -0.0331,0.37355 0.0122,0.22069 -0.0502,0.21525 -0.01,0.0933 0.009,0.25177 -0.0102,0.12455 -0.004,0.0312 0.0257,0.0649 -0.004,0.0312 -0.0267,0.31135 -0.005,0.0623 -0.0156,0.18683 -0.0102,0.12455 -0.0102,0.12455 0.0177,0.15834 -0.005,0.0624 -0.033,0.37355 -0.01,0.0933 -0.0102,0.12455 -0.0245,1.00166 -0.0212,0.24909 -0.0211,0.24909 -0.089,1.37245 -0.01,0.0933 z"
       id="AR-03"
       style="font-style:normal;font-weight:400;font-size:34.375px;font-family:'MS Shell Dlg 2';opacity:1;fill:none;fill-opacity:1;fill-rule:evenodd;stroke:#000000;stroke-width:0.333;stroke-linecap:square;stroke-linejoin:bevel;stroke-miterlimit:4;stroke-dasharray:none;stroke-opacity:1" />
    <path
       inkscape:connector-curvature="0"
       d="m 522.72177,519.43417 c -0.0147,-7.32284 -0.0399,-14.64048 -0.0547,-21.96334 -4.11913,-0.0442 -8.22842,-0.0951 -12.34746,-0.13921 -0.043,-1.78414 -0.0854,-3.55988 -0.12842,-5.34404 0.31924,0.034 0.4954,-0.0806 0.58758,-0.26228 0.0922,-0.18176 0.0889,-0.42196 0.0626,-0.71596 -0.0523,-0.5882 -0.22524,-1.31514 -0.0992,-1.73405 -0.048,-0.31509 0.0293,-0.48378 0.20736,-0.57792 0.17758,-0.0941 0.43486,-0.11365 0.72969,-0.093 0.58963,0.0414 1.30826,0.22266 1.71768,0.088 0.43255,-0.1298 1.16625,0.0284 1.75151,0.0592 0.29256,0.0152 0.55811,-0.0151 0.7323,-0.12424 0.17418,-0.10914 0.26146,-0.29675 0.2129,-0.6401 -0.12414,-0.67388 0.0511,-1.07042 0.22135,-1.45504 0.17047,-0.38451 0.33089,-0.75754 0.1848,-1.3954 -0.15048,-0.39804 -0.0204,-1.09575 -0.0113,-1.66352 0.005,-0.28397 -0.0108,-0.54571 -0.12695,-0.70133 -0.11609,-0.15551 -0.33548,-0.20883 -0.67935,-0.12209 -0.68821,0.16736 -1.14202,0.11692 -1.46597,-0.0964 -0.32389,-0.21384 -0.49245,-0.59228 -0.595,-1.0872 0.11555,-0.41259 0.0616,-0.65913 -0.0876,-0.79195 -0.14909,-0.1328 -0.40076,-0.15674 -0.67661,-0.15327 -0.55179,0.007 -1.23006,0.15008 -1.46049,-0.15915 0.0196,-0.27546 -0.0709,-0.44978 -0.23382,-0.55378 -0.16306,-0.10396 -0.3809,-0.13142 -0.57793,-0.20737 -0.19703,-0.0759 -0.38482,-0.19447 -0.46813,-0.38606 -0.0834,-0.1915 -0.0652,-0.48053 0.11277,-0.93112 0.0535,-0.33912 -0.0507,-0.53325 -0.22567,-0.64712 -0.17493,-0.11399 -0.44556,-0.13336 -0.74169,-0.1278 -0.0862,5e-4 -0.16091,0.003 -0.25176,0.009 0,0 0,0 0,0 -0.53181,0.0353 -1.10284,0.11964 -1.47412,-0.003 -2.45768,-0.0605 -4.92981,-0.11535 -7.38779,-0.17586 0.0977,0.38768 0.1059,0.66546 0.0482,0.88255 -0.0575,0.21722 -0.17474,0.35423 -0.35207,0.4398 -0.35485,0.17102 -0.91701,0.14483 -1.53908,0.0221 -0.49164,0.0879 -1.12027,-0.093 -1.68109,-0.14696 -0.28045,-0.0266 -0.53085,-0.0226 -0.75804,0.0591 -0.2272,0.082 -0.42003,0.22986 -0.54713,0.51688 -0.13363,0.2756 -0.34185,0.45263 -0.58092,0.54515 -0.23917,0.0925 -0.52784,0.10018 -0.7553,0.0279 -0.2276,-0.0721 -0.39777,-0.20165 -0.4966,-0.41989 -0.0989,-0.21814 -0.1017,-0.52876 0.0452,-0.87439 -0.55852,-0.37169 -1.30358,-0.61445 -1.58565,-1.2366 -0.39341,0.11846 -0.60459,0.0861 -0.71606,-0.0626 -0.11147,-0.14868 -0.13348,-0.40998 -0.12959,-0.67013 0.004,-0.26005 0.0194,-0.53928 -0.0279,-0.75531 -0.0473,-0.21594 -0.17227,-0.36702 -0.43707,-0.38326 0.0535,-0.32348 -0.0634,-0.47442 -0.265,-0.5565 -0.20162,-0.082 -0.48003,-0.10439 -0.74171,-0.12759 -0.26164,-0.0238 -0.51331,-0.0658 -0.64017,-0.21291 -0.12675,-0.14711 -0.12946,-0.38708 0.0735,-0.84049 -0.25765,-0.2966 -0.95879,-0.18537 -1.55374,-0.16736 -0.2975,0.009 -0.57451,0.0131 -0.74441,-0.0966 -0.17,-0.10952 -0.22851,-0.3104 -0.12969,-0.67006 0.31198,-0.79965 0.40415,-1.75575 0.32111,-2.95203 -0.78558,-0.33977 -2.18962,-0.0576 -3.21746,-0.15598 -1.38887,-0.003 -2.78405,0.0141 -4.1731,0.0114 0.0708,-0.95527 -0.13561,-2.5449 -0.13118,-2.8033 2.08979,-2.08861 4.30911,-4.08658 6.31647,-6.22316 -0.0495,-0.33609 0.40389,-0.6054 0.95882,-0.91993 0.55484,-0.31456 1.21107,-0.65927 1.54632,-1.18223 0.1216,0.0225 0.17895,-0.0134 0.28296,-0.007 l -0.54675,-0.20462 c -0.51283,0.047 -0.94591,0.0176 -1.32384,0.0724 -0.37791,0.0547 -0.68509,0.19714 -0.99384,0.60318 -0.047,0.42161 -0.20799,0.62977 -0.40787,0.71717 -0.19978,0.0875 -0.44751,0.054 -0.65098,-0.0882 -0.20348,-0.14237 -0.35476,-0.39582 -0.41255,-0.66348 -0.0577,-0.26775 -0.005,-0.56934 0.23195,-0.85804 -0.3845,0.17041 -0.67654,0.15932 -0.87987,0.017 -0.20327,-0.14225 -0.34258,-0.39827 -0.47207,-0.7001 -0.1294,-0.30172 -0.22204,-0.66669 -0.38522,-0.97468 -0.16318,-0.3081 -0.38563,-0.55803 -0.68994,-0.71918 -0.71857,0.0142 -1.04053,-0.31376 -1.35193,-0.68291 -0.31132,-0.36915 -0.62412,-0.78088 -1.22843,-1.01715 -0.0607,-1.23509 0.0745,-2.53565 0.0805,-3.7887 0.003,-0.33033 0.27758,-0.36057 0.62412,-0.32183 0.34656,0.0385 0.74931,0.1553 0.99618,0.087 0.0338,-1.02565 0.0772,-2.0388 0.111,-3.06448 -0.0686,-0.23646 -0.0513,-0.4053 0.0128,-0.50081 0.0638,-0.0955 0.18202,-0.11718 0.32493,-0.12836 0.28574,-0.0224 0.65629,0.045 0.93939,0.0194 0.0464,-1.91084 0.10961,-3.81595 0.15597,-5.7269 0.3412,-0.17201 0.34279,-0.24065 0.28448,-0.38297 -0.0582,-0.14221 -0.1922,-0.34697 -0.12133,-0.76347 -0.0419,-0.27129 0.0486,-0.65084 0.0871,-0.99621 0.0383,-0.34526 0.0488,-0.67069 -0.14988,-0.79729 -0.3337,0.0418 -0.699,0.0603 -0.90547,-0.0478 -0.20656,-0.10806 -0.27053,-0.33735 -0.0618,-0.72686 0.35376,0.0122 0.59159,-0.0647 0.77167,-0.21484 0.17996,-0.1501 0.29966,-0.36519 0.39686,-0.59268 0.4355,0.13376 0.64605,0.0123 0.74048,-0.2175 0.0945,-0.23014 0.0714,-0.58019 0.079,-0.90276 -0.44873,-0.0353 -0.8578,-0.3301 -1.00661,-0.68412 -0.0744,-0.17696 -0.0644,-0.35074 0.0153,-0.53188 0.0795,-0.18127 0.22725,-0.35325 0.51322,-0.48844 -0.8401,-0.13995 -1.74952,-0.10265 -2.62047,-0.16646 -0.29963,-0.37624 -0.43153,-0.84212 -0.33617,-1.53513 -1.63916,-0.0562 -3.27286,-0.0917 -4.91215,-0.14755 -0.23191,-0.0903 -0.63182,-0.004 -0.97318,0.009 -0.34138,0.0135 -0.62976,-0.052 -0.59266,-0.39696 0.098,-0.24177 0.091,-0.36887 0.007,-0.43845 -0.084,-0.0697 -0.22416,-0.0825 -0.36812,-0.095 -0.14385,-0.013 -0.28644,-0.025 -0.36815,-0.0948 -0.0816,-0.0703 -0.1268,-0.19812 -0.024,-0.44139 -0.0239,-0.27201 -0.26817,-0.35282 -0.49388,-0.45095 -0.22571,-0.0981 -0.43341,-0.21029 -0.35572,-0.59578 0.23427,-0.78237 -0.18979,-1.44385 -0.18715,-1.80449 -0.20619,-0.13297 -0.4696,-0.0548 -0.6199,-0.0856 -0.1503,-0.0306 -0.19333,-0.17894 0.029,-0.6876 -1.15801,-0.0666 -2.30824,-0.1119 -3.4664,-0.17768 -0.2675,0.0387 -0.68865,-0.0823 -0.9962,-0.087 -0.15373,-0.003 -0.27836,0.0114 -0.3533,0.0946 -0.0751,0.0833 -0.10379,0.23356 -0.0408,0.46693 -0.0853,0.2423 -10e-4,0.6583 0.006,1.00437 0.004,0.17309 -0.005,0.33625 -0.0693,0.4332 -0.0642,0.0969 -0.16048,0.14185 -0.3533,0.0946 -0.44529,1.25628 -0.88864,2.51694 -1.33392,3.77311 -0.21391,1.87921 -0.17042,3.81696 -0.28056,5.71601 -0.0628,0.27155 -0.029,0.62815 -0.0219,0.97047 0.007,0.34241 -9.2e-4,0.66032 -0.19534,0.7986 -0.0395,0.69621 -0.0812,1.39494 -0.12031,2.09119 -1.13731,-0.0577 -2.29792,-0.11753 -3.43523,-0.175 -0.18227,0.13401 -0.35328,0.25979 -0.59315,0.32452 -0.23974,0.0647 -0.55346,0.0766 -0.93926,-0.0194 -0.44157,-0.1608 -0.67509,-0.1111 -0.79195,0.0875 -0.11685,0.19867 -0.11465,0.53523 -0.079,0.90285 -0.23818,0.0183 -0.29735,0.19654 -0.34944,0.40859 -0.0521,0.21208 -0.0823,0.47664 -0.21007,0.60902 -0.32853,-0.0359 -0.39509,0.24409 -0.39697,0.59265 -0.002,0.34857 0.0716,0.76435 -0.0245,1.00166 -0.0784,0.21287 -0.0642,0.3149 0.0295,0.379 0.0937,0.0641 0.26301,0.071 0.43313,0.0692 0.34027,-0.003 0.72961,-0.0659 0.80123,0.16427 -0.091,0.2471 -0.0288,0.68086 -0.028,1.0327 0.002,0.35195 -0.0554,0.63157 -0.36851,0.62656 -0.17481,0.35059 -0.348,1.06574 -0.32841,1.60249 -0.0674,0.18673 -0.47426,0.35169 -0.73119,0.46934 -0.12841,0.0587 -0.21809,0.10409 -0.20041,0.13928 0.0177,0.0351 0.14026,0.0618 0.43313,0.0692 0.0143,0.61328 -0.17756,1.40958 0.12761,1.76783 -0.038,0.37524 -0.0695,0.75955 -0.0332,1.0951 0.0361,0.33552 0.14348,0.62488 0.36493,0.84754 0.0451,0.28219 0.16541,0.48204 0.353,0.62683 0.18758,0.14491 0.42856,0.24409 0.69418,0.3117 0.53133,0.13529 1.17548,0.17541 1.63092,0.36234 0.24613,-0.10889 0.39748,-0.1143 0.50627,-0.0499 0.1088,0.0645 0.16701,0.19771 0.18791,0.36156 0.0419,0.3278 -0.0478,0.77921 -0.0616,1.06117 -0.0602,0.31715 0.0101,0.53471 0.15796,0.70395 0.148,0.16924 0.37232,0.28794 0.59264,0.39696 0.11056,-0.49554 0.2792,-0.50168 0.34137,-0.31525 0.0622,0.18642 0.0279,0.56227 -0.22924,0.82697 -1.2969,-0.12435 -2.60752,-0.0803 -3.89837,0.098 0.10113,0.38046 0.0234,0.68394 -0.13306,0.80406 -0.15647,0.12002 -0.37924,0.0354 -0.55887,-0.42533 -0.91397,-0.018 -1.84181,-0.0342 -2.75586,-0.0531 -0.10384,0.23635 -0.25582,0.38939 -0.36568,0.59539 -0.10994,0.2061 -0.16303,0.4727 -0.079,0.90286 -0.0747,0.3712 0.12895,0.48589 0.29066,0.62139 0.16169,0.13561 0.2845,0.28649 0.0591,0.75805 -0.63683,-0.0228 -1.27305,-0.0182 -1.90996,-0.0413 l -0.0354,1.12619 -0.0153,0.53198 -0.005,0.0622 -0.0178,0.56309 -0.0782,1.24794 -0.0643,1.09227 -0.004,0.0312 0.0202,0.12724 -0.004,0.0312 -0.01,0.0933 -0.0247,0.28022 -0.0354,0.40465 -0.005,0.0623 0.0229,0.096 -0.01,0.0933 -0.0545,0.62261 -0.005,0.0623 -0.0466,1.25069 -0.0438,0.49806 -0.026,0.65654 -0.01,0.0933 -0.005,0.0623 -0.004,0.0311 0.0121,0.22068 -0.0545,0.62264 9.7e-4,0.34522 -0.0194,0.21783 -0.0156,0.18683 -0.059,1.03 -0.004,0.0312 0.0122,0.22061 -0.0178,0.56316 -0.0384,0.43572 -0.0629,1.43759 -0.01,0.0932 0.004,0.31403 -0.0519,0.59154 -0.01,0.0932 0.0257,0.065 -0.087,1.71773 -0.0354,0.40466 9.7e-4,0.34522 -0.004,0.0311 -0.0102,0.12454 9.7e-4,0.34522 -0.06,0.68479 -0.005,0.0624 -0.009,0.46965 -0.0194,0.21785 -0.12884,2.90614 -0.0267,0.31134 -0.026,0.65643 -0.01,0.0933 -0.0238,0.62532 -0.0421,0.84334 0.0203,0.12724 -0.0545,0.62262 -0.0421,0.84325 -0.0396,0.81213 -0.007,0.43853 -0.0302,1.06392 -0.005,0.0623 -0.12139,1.74606 0.0202,0.12723 -0.03,0.3424 0.023,0.0962 -0.10817,1.59042 -0.029,0.6875 0.0175,0.15843 -0.0518,0.59143 -0.0194,0.21795 -0.0178,0.5631 -0.0194,0.21785 -0.0156,0.18693 -0.0166,0.90819 -0.01,0.0933 -0.005,0.0621 -0.004,0.0312 -0.004,0.40748 -0.0211,0.2491 -0.0247,0.28011 -0.0144,0.15557 -0.0178,0.56318 0.023,0.0961 -0.0625,0.71597 0.007,0.28295 -0.0384,0.43581 0.12724,-0.0202 0.0961,-0.023 0.2436,0.084 0.0649,-0.0257 0.0787,-0.18144 0.0337,-0.0282 0.12455,0.0102 0.11907,0.0731 0.0568,0.0677 -0.01,0.0935 -0.0367,0.0594 -0.2545,0.0406 -0.0988,0.054 0.0486,0.16115 0.0282,0.0338 0.0907,0.0392 0.0623,0.005 0.023,0.0962 -0.005,0.0622 -0.0678,0.0569 -0.16651,0.11091 -0.19496,0.077 -0.0393,0.0906 -0.005,0.0624 0.0284,0.0337 0.0568,0.0677 0.15557,0.0144 0.0623,0.005 0.0311,0.004 0.0514,0.12998 0.0258,0.065 0.0311,0.004 0.0311,0.004 0.0623,0.005 0.15557,0.0144 0.0704,-0.088 0.21243,0.0815 -0.004,0.0311 0.0596,0.0366 0.0257,0.0651 0.30164,0.49689 0.0282,0.0338 0.0933,0.01 0.12456,0.0102 0.13542,-0.11364 0.27357,-0.25842 0.0676,-0.0568 0.088,0.0704 0.0541,0.0988 -0.01,0.0933 -0.01,0.0933 -0.0677,0.0567 -0.0367,0.0596 -0.12724,0.0202 -0.12723,0.0202 -0.0339,0.0283 -0.0677,0.0568 -0.0677,0.0568 -0.01,0.0933 0.0284,0.0338 0.0282,0.0338 0.11636,0.10423 0.0853,0.10153 0.0567,0.0678 0.1218,0.0421 0.18962,-0.0147 0.0337,-0.0285 0.21795,0.0194 0.0311,0.004 0.0596,0.0368 0.0623,0.005 0.16921,-0.14209 0.0393,-0.0906 -0.10272,-0.25994 0.004,-0.0312 0.16933,-0.14208 0.0337,-0.0283 0.0933,0.01 0.0311,0.004 -0.004,0.0311 0.0853,0.10164 0.0311,0.004 -0.0144,0.15556 0.0257,0.0651 0.0258,0.0649 0.0312,0.004 0.0594,0.0366 0.0906,0.0393 0.12181,0.042 0.22615,-0.0744 0.073,-0.11908 0.005,-0.0622 -0.0282,-0.0338 0.11518,-0.24089 0.0447,-0.15298 0.0704,-0.0879 0.10424,-0.11637 0.0989,-0.0541 0.0623,0.005 0.0933,0.01 0.0284,0.0337 0.0203,0.12726 0.0282,0.0338 -0.0677,0.0568 -0.2004,0.13927 -0.0102,0.12456 0.0176,0.15843 0.0284,0.0338 0.0312,0.004 0.21784,0.0194 0.065,-0.0258 0.0337,-0.0285 0.0705,-0.0879 0.0337,-0.0284 0.005,-0.0621 0.11528,-0.24087 0.0731,-0.11907 0.10708,-0.14753 0.0311,0.004 0.10163,-0.0852 0.16379,-0.0799 0.0651,-0.0257 0.0622,0.005 0.088,0.0703 -0.004,0.0312 -0.0144,0.15565 -0.01,0.0933 -0.0337,0.0284 -0.13269,0.0824 -0.1775,0.23542 -0.0393,0.0906 0.0284,0.0338 0.0258,0.065 0.0257,0.065 0.27197,0.11786 0.12455,0.0102 0.0312,0.004 0.12724,-0.0202 0.096,-0.0229 0.0705,-0.088 0.14087,-0.1759 0.0337,-0.0284 0.10164,-0.0851 0.0622,0.005 0.0312,0.004 0.0203,0.12725 0.0513,0.12998 0.0258,0.065 0.0312,0.004 0.0621,0.005 0.0651,-0.0257 0.0337,-0.0284 0.0447,-0.15298 -0.0743,-0.22603 -0.023,-0.096 -0.0594,-0.0366 -0.0934,-0.01 -0.0962,0.023 -0.0622,-0.005 -0.065,0.0257 -0.0312,-0.004 -0.11908,-0.0731 -0.0257,-0.065 0.005,-0.0623 0.0676,-0.0568 0.0338,-0.0282 0.0623,0.005 0.11908,0.0731 0.0311,0.004 0.0933,0.01 0.0961,-0.0229 0.0337,-0.0282 0.10434,-0.11635 0.073,-0.11908 0.0706,-0.088 0.0879,0.0704 0.0906,0.0393 0.33974,0.061 0.0283,0.0337 -0.0156,0.18693 0.0258,0.0649 0.0851,0.10164 0.0961,-0.0228 0.10434,-0.11635 0.0676,-0.057 0.0312,0.004 0.0595,0.0367 -0.004,0.0312 -0.0367,0.0594 -0.0366,0.0596 -0.0988,0.054 -0.0367,0.0596 -0.0367,0.0594 0.0284,0.0338 0.0568,0.0677 0.0908,0.0392 0.0337,-0.0283 0.16921,-0.14199 0.0312,0.004 0.0284,0.0337 0.004,0.31402 0.0486,0.16115 0.0595,0.0366 0.0283,0.0337 0.0989,-0.0539 0.004,-0.0312 0.0814,-0.21242 0.0102,-0.12456 0.004,-0.0312 0.15843,-0.0175 0.22604,-0.0743 0.0677,-0.0568 0.0677,-0.0568 0.2206,-0.0122 0.15842,-0.0175 0.21244,0.0813 0.0312,0.004 0.004,-0.0312 0.004,-0.0311 0.0312,0.004 -0.004,0.0312 0.0311,0.004 0.0283,0.0338 -0.005,0.0623 0.0284,0.0337 0.12457,0.0102 0.12178,0.0421 0.0176,0.15842 -0.0338,0.0282 -0.065,0.0257 -0.0311,-0.004 -0.153,-0.0447 -0.0312,-0.004 -0.0676,0.0569 -0.0651,0.0258 -0.005,0.0622 0.057,0.0678 0.0622,0.005 0.088,0.0704 0.0907,0.0393 0.12725,-0.0203 0.0988,-0.0539 0.0596,0.0366 0.0934,0.01 0.004,-0.0311 0.0621,0.005 -0.0247,0.28013 -0.0237,1.34686 0.0282,0.0337 -0.0366,0.0596 0.0257,0.0649 -0.0153,0.5319 0.007,0.28297 -0.005,0.0622 -0.0102,0.12456 -0.004,0.0311 -0.0102,0.12456 -0.005,0.0624 0.0147,0.1894 -0.004,0.0312 -0.004,0.0312 -0.004,0.0311 -0.005,0.0623 -0.01,0.0933 -0.005,0.0624 0.009,0.25176 0.0148,0.1894 -0.0156,0.18694 -0.0156,0.18674 9.7e-4,0.34521 0.0228,0.0961 -0.0144,0.15557 -0.004,0.0311 -0.0156,0.18693 9.8e-4,0.3451 -0.0144,0.15566 -0.004,0.0311 0.0203,0.12725 -0.0102,0.12454 -0.01,0.0935 0.007,0.28285 -0.0509,1.65807 0.007,0.28297 0.004,0.31402 0.009,0.25175 -0.0342,0.74989 9.7e-4,0.34521 -0.01,0.0933 -0.005,1.12888 -0.0408,0.46693 0.0175,0.15844 -0.0102,0.12455 -0.009,0.46966 0.002,0.69043 -0.033,0.37354 -0.0251,1.72307 0.0312,0.004 0.12726,-0.0203 0.21784,0.0194 0.065,-0.0257 1.75151,0.0592 0.75258,0.003 0.59427,0.0206 0.0961,-0.023 1.81649,0.0337 0.24909,0.0212 1.94374,0.0132 0.40748,0.004 0.0312,0.004 0.34521,-9.8e-4 0.34239,0.03 0.0312,0.004 0.81477,0.008 0.72152,3.9e-4 1.90985,0.0413 0.12454,0.0102 0.0962,-0.023 0.71876,0.0322 0.0311,0.004 0.0311,0.004 0.53473,-0.016 0.0933,0.01 0.59427,0.0207 0.28285,-0.007 0.0312,0.004 0.69033,-0.002 0.0933,0.01 0.34511,-9.8e-4 0.87711,0.0143 0.7811,0.0372 1.66351,-0.0114 0.3763,0.002 0.0311,0.004 0.15566,0.0144 0.43854,0.007 0.90821,0.0166 0.0933,0.01 0.50352,-0.0185 0.12457,0.0102 0.21793,0.0194 0.4412,-0.0242 0.46975,0.009 0.18683,0.0156 0.0623,0.005 0.81487,0.008 1.16007,0.007 0.15833,-0.0176 0.24909,0.0212 0.31402,-0.004 0.28022,0.0247 1.2845,0.0184 0.59698,-0.0105 0.31125,0.0267 0.25176,-0.009 0.31414,-0.004 0.56024,0.0492 0.25177,-0.009 1.53638,0.009 0.18681,0.0156 0.0312,0.004 0.1896,-0.0147 0.0933,0.01 0.0312,0.004 0.0622,0.005 0.12455,0.0102 0.25177,-0.009 0.69045,-0.003 3.19433,0.0598 0.12456,0.0102 0.065,-0.0258 0.43845,0.007 0.0312,0.004 0.0312,0.004 0.7526,0.003 0.71867,0.0321 1.12888,0.005 0.532,0.0153 0.0312,0.004 0.12725,-0.0202 0.43855,0.007 0.21783,0.0194 0.31414,-0.004 0.72141,4.9e-4 1.6609,0.02 0.0311,0.004 0.78366,0.006 2.85204,0.03 1.63244,-0.0141 0.56582,-0.0132 0.62532,0.0238 0.0312,0.004 1.79077,-0.0317 0.12457,0.0102 0.75257,0.003 0.53464,-0.0161 0.3763,0.002 1.09781,0.002 0.47246,-0.0214 0.87713,0.0143 0.3451,-9.8e-4 0.18949,-0.0147 0.40739,0.004 0.7526,0.003 0.0312,0.004 0.0623,0.005 0.15833,-0.0175 0.18691,0.0156 0.69025,-0.002 0.0312,0.004 0.15843,-0.0175 0.31391,-0.004 1.41457,-0.0331 0.2491,0.0212 0.62806,-0.008 z"
       id="AR-04"
       style="font-style:normal;font-weight:400;font-size:34.375px;font-family:'MS Shell Dlg 2';opacity:1;fill:#000000;fill-opacity:1;fill-rule:evenodd;stroke:#000000;stroke-width:0.333;stroke-linecap:square;stroke-linejoin:bevel;stroke-miterlimit:4;stroke-dasharray:none;stroke-opacity:1" />
  </g>
</svg>
