<?xml version="1.0" encoding="UTF-8" standalone="no"?>
<!-- Created with Inkscape (http://www.inkscape.org/) -->

<svg
   xmlns:dc="http://purl.org/dc/elements/1.1/"
   xmlns:cc="http://creativecommons.org/ns#"
   xmlns:rdf="http://www.w3.org/1999/02/22-rdf-syntax-ns#"
   xmlns:svg="http://www.w3.org/2000/svg"
   xmlns="http://www.w3.org/2000/svg"
   xmlns:sodipodi="http://sodipodi.sourceforge.net/DTD/sodipodi-0.dtd"
   xmlns:inkscape="http://www.inkscape.org/namespaces/inkscape"
   width="28.747847mm"
   height="18.173204mm"
   viewBox="0 0 101.86245 64.393249"
   id="svg12983"
   version="1.1"
   inkscape:version="0.91 r"
   sodipodi:docname="4.svg">
  <defs
     id="defs12985" />
  <sodipodi:namedview
     id="base"
     pagecolor="#ffffff"
     bordercolor="#666666"
     borderopacity="1.0"
     inkscape:pageopacity="0.0"
     inkscape:pageshadow="2"
     inkscape:zoom="5.6364934"
     inkscape:cx="69.492246"
     inkscape:cy="21.057976"
     inkscape:document-units="px"
     inkscape:current-layer="layer1"
     showgrid="false"
     fit-margin-top="1"
     fit-margin-left="1"
     fit-margin-right="1"
     fit-margin-bottom="1"
     inkscape:window-width="2560"
     inkscape:window-height="1388"
     inkscape:window-x="0"
     inkscape:window-y="0"
     inkscape:window-maximized="1" />
  <metadata
     id="metadata12988">
    <rdf:RDF>
      <cc:Work
         rdf:about="">
        <dc:format>image/svg+xml</dc:format>
        <dc:type
           rdf:resource="http://purl.org/dc/dcmitype/StillImage" />
        <dc:title></dc:title>
      </cc:Work>
    </rdf:RDF>
  </metadata>
  <g
     inkscape:label="Layer 1"
     inkscape:groupmode="layer"
     id="layer1"
     transform="translate(-258.94949,-465.48718)">
    <path
       inkscape:connector-curvature="0"
       d="m 327.7379,470.04711 0.0859,6.83515 9.56695,-0.17699 0.0975,1.29115 19.51019,-0.35875 0.20878,8.66065 -9.91202,0.18402 0.46422,17.10535 -4.66677,-0.0129 0.12655,2.67151 -9.71197,0.0102 0.001,9.83647 9.92783,0.0364 0.0904,9.90544 19.73488,-0.43689 -0.24855,-9.8851 9.76707,-0.35084 -0.0477,-2.44683 9.79383,-0.28633 -0.0772,-2.48011 15.60891,-0.56886 -0.11597,-0.13343 -0.0891,-0.0688 -0.029,-0.0333 0.003,-0.0313 -0.047,-0.22251 0.008,-0.12474 -0.0161,-0.22034 0.003,-0.0313 -0.0716,-0.31828 0.0863,-0.33862 0.003,-0.0312 0.003,-0.0312 0.008,-0.0935 0.003,-0.0313 0.008,-0.0935 0.004,-0.0624 0.003,-0.0313 0.004,-0.0622 0.008,-0.0935 -0.0289,-0.0332 0.004,-0.0624 -0.0224,-0.12688 -0.0269,-0.0644 -0.0825,-0.16246 -0.0892,-0.0689 -0.34514,0.007 -0.0622,-0.004 -0.0913,-0.0376 -0.0601,-0.0356 -0.0891,-0.069 -0.0783,-0.22472 -0.0204,-0.1581 -0.029,-0.0332 0.008,-0.0935 -0.0313,-0.003 -0.0245,-0.0957 -0.14929,-0.10437 -0.18277,-0.0755 -0.2385,-0.17327 -0.30292,-0.14649 -0.12471,-0.008 -0.27844,-0.0507 -0.27408,-0.11321 -0.32977,-0.21102 -0.0313,-0.003 -0.0913,-0.0377 -0.0913,-0.0376 -0.18278,-0.0755 -0.0312,-0.003 -0.0312,-0.003 -0.20518,-0.20232 -0.21391,-0.0777 -0.4052,-0.0283 -0.058,-0.0667 -0.12034,-0.0711 -0.21164,-0.10871 -0.32552,-0.27337 -0.0871,-0.10015 0.003,-0.0312 -0.0557,-0.0981 -0.0826,-0.16236 -0.23412,-0.23571 -0.0892,-0.0688 -0.0288,-0.0333 -0.0289,-0.0332 -0.029,-0.0332 -0.0827,-0.16245 0.003,-0.0313 -0.0515,-0.16018 -0.0289,-0.0332 0.003,-0.0313 -0.10725,-0.2581 -0.0224,-0.12688 0.003,-0.0313 0.0356,-0.0601 0.0399,-0.12252 0.0333,-0.029 0.0358,-0.0602 0.003,-0.0312 0.008,-0.12473 0.0442,-0.18497 0.0117,-0.15578 -0.0537,-0.12907 0.0356,-0.0601 0.0666,-0.058 0.003,-0.0313 0.004,-0.0625 0.004,-0.0623 -0.058,-0.0668 -0.0581,-0.0666 -0.0891,-0.069 -0.0891,-0.0688 -0.029,-0.0333 -0.22323,-0.39151 -0.0558,-0.0978 0.003,-0.0313 -0.0312,-0.003 -0.029,-0.0333 -0.15156,-0.0732 -0.14711,-0.13559 -0.058,-0.0668 -0.0289,-0.0332 -0.0312,-0.003 0.003,-0.0312 -0.0849,-0.13125 0.003,-0.0313 -0.0268,-0.0645 -0.0871,-0.10013 -0.0579,-0.0667 -0.0313,-0.003 -0.0624,-0.004 -0.0624,-0.004 -0.0624,-0.004 -0.0581,-0.0668 -0.0313,-0.003 -0.11598,-0.13343 -0.0891,-0.0688 -0.029,-0.0333 -0.0312,-0.003 0.003,-0.0313 -0.0914,-0.0376 -0.21164,-0.10883 -0.63944,-0.26395 -0.15146,-0.0733 -0.058,-0.0667 -0.0269,-0.0645 -0.016,-0.22046 -0.0224,-0.12685 -0.11598,-0.13342 -0.0582,-0.0666 -0.06,-0.0357 -0.24721,-0.0487 -0.029,-0.0332 -0.0313,-0.003 -0.12034,-0.071 -0.3385,-0.0863 -0.36319,-0.18197 -0.35665,-0.27556 -0.0313,-0.003 -0.0891,-0.069 -0.17398,-0.20002 -0.0537,-0.12905 -0.0203,-0.15812 0.004,-0.0624 0.1712,-0.20736 0.14431,-0.27181 0.0733,-0.15145 0.0117,-0.15589 -0.0805,-0.19358 -0.0268,-0.0645 -0.0245,-0.0956 0.003,-0.0313 -0.0472,-0.22254 -0.0557,-0.098 -0.17844,-0.13777 -0.10943,-0.227 -0.0739,-0.28704 -0.23415,-0.23571 -0.0289,-0.0332 -0.0312,-0.003 -0.0288,-0.0332 -0.0581,-0.0668 -0.14056,-0.22906 -0.0268,-0.0645 -0.0269,-0.0645 0.008,-0.12471 -0.0761,-0.25594 -0.0269,-0.0645 -0.0537,-0.12904 -0.14273,-0.19794 0.008,-0.12472 -0.0538,-0.12907 -0.0579,-0.0667 -0.0892,-0.0688 -0.21174,-0.10872 -0.24502,-0.0799 -0.0312,-0.003 -0.24719,-0.0486 -0.12252,-0.0399 -0.21608,-0.0465 -0.0312,-0.003 -0.15364,-0.0421 -0.18496,-0.0442 -0.0312,-0.003 -0.0313,-0.003 -0.15589,-0.0117 -0.18485,-0.0442 -0.15364,-0.0421 -0.588,-0.10378 -0.21824,-0.0156 -0.18478,-0.0442 -0.3053,-0.11534 -0.30945,-0.0529 -0.0313,-0.003 -0.0913,-0.0377 -0.1225,-0.0401 -0.0602,-0.0357 -0.0623,-0.004 -0.0313,-0.003 -0.26973,-0.17544 -0.15143,-0.0734 -0.0624,-0.004 -0.12906,0.0538 -0.1581,0.0203 -0.0935,-0.008 -0.15374,-0.042 -0.0601,-0.0357 -0.0602,-0.0357 -0.20944,-0.13995 -0.18487,-0.0442 -0.0914,-0.0376 -0.0579,-0.0668 -0.1697,-0.26248 -0.1471,-0.13559 -0.12036,-0.071 -0.18048,-0.1067 -0.12687,0.0224 -0.0313,-0.003 -0.0312,-0.003 -0.18051,-0.1066 -0.0581,-0.0667 -0.0246,-0.0957 -0.0248,-0.0957 0.003,-0.0313 -0.029,-0.0332 -0.0289,-0.0332 -0.0313,-0.003 -0.029,-0.0333 -0.0313,-0.003 -0.0313,-0.003 -0.0935,-0.008 -0.0332,0.0289 -0.0645,0.0268 -0.0313,-0.003 -0.0313,-0.003 -0.0288,-0.0332 -0.029,-0.0333 0.003,-0.0313 0.008,-0.1247 -0.0581,-0.0667 -0.0268,-0.0646 -0.029,-0.0332 -0.0934,-0.008 -0.0269,-0.0645 0.008,-0.0935 0.0333,-0.029 0.0312,0.003 0.0357,-0.0601 0.004,-0.0624 -0.0913,-0.0377 -0.0869,-0.10003 -0.0269,-0.0645 -0.0269,-0.0645 -0.0246,-0.0956 -0.0159,-0.22045 -0.0225,-0.12688 -0.0782,-0.2248 -0.0428,-0.2849 0.003,-0.0312 -0.0674,-0.38062 0.0156,-0.21825 -0.0313,-0.003 -0.06,-0.0356 -0.1581,0.0204 -0.0602,-0.0357 -0.0224,-0.12685 0.0168,-0.24942 0.04,-0.12253 0.003,-0.0313 -0.0268,-0.0644 -0.0558,-0.098 -0.0536,-0.12905 -0.0537,-0.12906 0.0213,-0.31166 -0.047,-0.22262 -0.0892,-0.0688 -0.17833,-0.13777 -0.0558,-0.0978 -0.0601,-0.0357 -0.2719,-0.14431 -0.15363,-0.0421 -0.0914,-0.0376 -0.06,-0.0356 0.004,-0.0625 -0.0289,-0.0332 0.008,-0.0935 0.004,-0.0623 0.0421,-0.15373 0.004,-0.0624 -0.0247,-0.0958 -0.0225,-0.12687 -0.0289,-0.0332 -0.0761,-0.25592 0.003,-0.0312 0.008,-0.12471 0.051,-0.27844 0.004,-0.0624 0.004,-0.0623 -0.0313,-0.003 0.004,-0.0624 0.003,-0.0312 -0.0268,-0.0646 -0.0557,-0.0978 -0.11381,-0.16465 -0.0269,-0.0644 -0.0134,-0.25158 0.003,-0.0313 -0.0246,-0.0956 -0.2283,-0.76778 -0.0313,-0.003 0.003,-0.0313 -0.076,-0.25595 -0.0471,-0.22252 0.003,-0.0313 -0.0224,-0.12688 0.003,-0.0313 -0.0246,-0.0957 -0.0248,-0.0956 -0.0426,-0.28496 0.008,-0.0935 -0.0269,-0.0645 0.008,-0.0935 0.0377,-0.0913 -0.0181,-0.18932 0.0145,-0.65677 -0.0651,-0.41176 -0.0181,-0.18932 0.008,-0.12471 0.004,-0.0622 0.069,-0.0892 0.0667,-0.058 0.22697,-0.10945 0.0689,-0.0891 0.20667,-0.26754 0.0376,-0.0913 0.0465,-0.2161 0.0443,-0.18486 0.0376,-0.0913 0.0645,-0.0269 0.18426,-0.3944 0.0117,-0.15578 0.008,-0.12472 0.0688,-0.0892 0.12905,-0.0536 0.0689,-0.0892 0.0332,-0.0288 0.40678,-0.44151 0.1689,-0.17616 0.13996,-0.20944 0.10227,-0.11814 0.071,-0.12033 0.0333,-0.029 0.0398,-0.12251 0.0117,-0.1559 0.003,-0.0312 0.004,-0.0624 -0.0288,-0.0333 -0.0602,-0.0356 -0.15581,-0.0117 -0.0624,-0.004 0.003,-0.0312 0.003,-0.0313 0.003,-0.0313 0.008,-0.0935 0.008,-0.0936 -0.0558,-0.0979 -0.14056,-0.22917 -0.10725,-0.25811 -0.45956,-0.5959 -0.24067,-0.14214 -0.029,-0.0333 -0.0289,-0.0333 -0.17823,-0.13776 -0.0915,-0.0376 -0.0913,-0.0376 -0.36755,-0.11973 -0.33195,-0.17978 -0.20946,-0.13996 -0.12251,-0.04 -0.18718,-0.0123 -0.12471,-0.008 -0.0288,-0.0333 -0.058,-0.0666 -0.0537,-0.12907 -0.10942,-0.22699 -0.0312,-0.003 0.003,-0.0312 0.003,-0.0313 0.003,-0.0313 0.0332,-0.0288 0.003,-0.0312 0.13124,-0.0849 0.003,-0.0312 0.04,-0.12252 0.0755,-0.18277 0.0399,-0.12253 0.0117,-0.15578 -0.0245,-0.0958 -0.0225,-0.12687 -0.0204,-0.15802 0.008,-0.0935 -0.0246,-0.0956 -0.0558,-0.0978 -0.0558,-0.0979 -0.0268,-0.0645 -0.0602,-0.0356 -0.0847,-0.13122 -0.31669,-0.39808 -0.0849,-0.13123 -0.0224,-0.12687 0.008,-0.0934 0.004,-0.0624 0.0332,-0.0289 0.0332,-0.029 0.10014,-0.0869 0.0733,-0.15155 0.084,-0.30737 0.008,-0.0935 -0.0494,-0.1913 -0.0247,-0.0958 0.004,-0.0624 0.008,-0.0934 -0.5966,0.0208 -0.12471,-0.008 -0.18707,-0.0123 -0.40959,0.0342 -0.18932,0.018 -1.60072,0.0447 -0.0313,-0.003 -0.0312,-0.003 -0.0958,0.0247 -0.40739,0.003 -0.91052,0.0302 -0.0935,-0.008 -0.31389,0.009 -0.0624,-0.004 -0.53425,0.0252 -0.87943,0.0326 -0.15588,-0.0117 -0.18921,0.018 -0.81488,0.006 -0.44079,0.0316 -0.0624,-0.004 -0.0313,-0.003 -0.0312,-0.003 -0.0624,-0.004 -0.0935,-0.008 -0.18933,0.0181 -0.0935,-0.008 -0.0956,0.0247 -0.1559,-0.0117 -0.1581,0.0204 -0.21816,-0.0156 -0.62782,0.019 -0.59662,0.0209 -0.0313,-0.003 -0.0313,-0.003 -0.0935,-0.008 -0.0333,0.0288 -0.46973,-8e-4 -0.31393,0.009 -0.0624,-0.004 -0.22033,0.0159 -0.28281,0.0119 -0.0624,-0.004 -0.34514,0.007 -0.53427,0.0253 -0.4386,6.5e-4 -1.41159,0.0266 -0.18913,0.0181 -0.34514,0.007 -0.0624,-0.004 -0.12686,0.0224 -0.688,-0.017 -1.4449,0.0556 -0.18706,-0.0123 -0.28271,0.0119 -1.53628,0.0178 -0.40966,0.034 -0.2182,-0.0156 -1.38037,0.0291 -0.0624,-0.004 -0.62786,0.019 -0.12687,0.0224 -0.28051,-0.0198 -0.53437,0.0253 -0.25157,0.0134 -0.15589,-0.0117 -0.25155,0.0134 -0.37629,0.005 -0.0312,-0.003 -0.56333,-0.008 -0.28498,0.0428 -0.31167,-0.0213 -1.53628,0.0178 -0.28279,0.0119 -0.31381,0.009 -1.63194,0.0425 -0.0936,-0.008 -0.40739,0.003 -0.34513,0.007 -0.0624,-0.004 -0.28279,0.0119 -0.94166,0.0281 -0.78375,0.008 -0.37628,0.005 -0.0313,-0.003 -0.40739,0.003 -0.81706,0.037 -0.40532,-0.0283 -0.28269,0.0119 -0.0332,0.029 -0.28062,-0.0198 -0.22035,0.0161 -0.40749,0.003 -0.59441,-0.0104 -0.59673,0.021 -0.34515,0.007 -0.50094,-0.004 -1.06638,0.0195 -0.81496,0.006 -0.18698,-0.0123 -0.37627,0.005 -0.65907,0.0165 -0.53216,-0.006 -0.0332,0.0291 -0.65679,-0.0145 -0.22044,0.016 -0.37628,0.005 -0.18707,-0.0123 -1.12879,0.0147 -0.53221,-0.006 -0.37626,0.005 -0.0312,-0.003 -0.18922,0.018 -0.40531,-0.0283 -0.81698,0.0369 -0.0935,-0.008 -0.12471,-0.008 -0.0623,-0.004 -0.12471,-0.008 -0.18921,0.018 z"
       id="IA-01"
       style="font-style:normal;font-weight:400;font-size:34.375px;font-family:'MS Shell Dlg 2';opacity:1;fill:none;fill-opacity:1;fill-rule:evenodd;stroke:#000000;stroke-width:0.333;stroke-linecap:square;stroke-linejoin:bevel;stroke-miterlimit:4;stroke-dasharray:none;stroke-opacity:1" />
    <path
       inkscape:connector-curvature="0"
       d="m 398.05777,509.5799 -15.60891,0.56886 0.0772,2.48011 -9.79384,0.28633 0.0477,2.44683 -9.76707,0.35083 0.24855,9.88511 -19.73489,0.43689 -0.0904,-9.90545 -12.05855,-0.0287 0.37244,19.76161 -14.70127,0.13101 0.0445,16.38683 0.25156,-0.0134 0.34515,-0.007 0.22035,-0.016 0.28061,0.0198 0.50313,-0.0273 0.0312,0.003 0.0312,0.003 0.0313,0.003 0.47193,-0.0298 0.28278,-0.0119 0.0313,0.003 0.0312,0.003 0.18707,0.0123 0.75472,-0.0412 0.28061,0.0198 0.46974,8.1e-4 0.0645,-0.0268 0.62564,0.0129 0.25159,-0.0134 0.0935,0.008 0.4407,-0.0317 0.0313,0.003 0.12473,0.008 0.0935,0.008 0.0313,0.003 0.18706,0.0123 0.12688,-0.0225 0.69019,-0.014 0.28062,0.0198 0.12686,-0.0224 0.0312,0.003 0.15801,-0.0203 0.0625,0.004 0.0623,0.004 0.7214,-0.0121 0.53427,-0.0253 0.69031,-0.014 0.0935,0.008 0.0624,0.004 0.0312,0.003 0.0646,-0.0268 0.12472,0.008 0.31381,-0.009 0.0625,0.004 0.0623,0.004 0.0625,0.004 0.0312,0.003 0.0645,-0.0269 0.1559,0.0117 0.53206,0.006 0.46985,8e-4 0.0312,0.003 0.50096,0.004 1.44272,-0.0244 0.62784,-0.019 0.37626,-0.005 0.21816,0.0156 1.22455,-0.0397 1.00413,-0.0235 0.18704,0.0123 1.47603,-0.0533 0.78594,-0.039 0.0313,0.003 0.15801,-0.0204 0.0935,0.008 2.23074,-0.0947 0.1247,0.008 0.37846,-0.0363 0.0313,0.003 0.28269,-0.0119 0.0312,0.003 0.81498,-0.006 0.31381,-0.009 0.22045,-0.016 0.25157,-0.0134 0.0935,0.008 0.0313,0.003 0.0935,0.008 0.47193,-0.0298 0.15589,0.0117 1.50725,-0.0512 0.0935,0.008 0.0934,0.008 0.15809,-0.0204 0.59663,-0.021 0.50097,0.004 0.0646,-0.0268 1.03523,-0.0221 0.0312,0.003 1.22674,-0.0708 0.4386,-6.6e-4 0.75475,-0.0411 0.0645,-0.0269 0.78584,-0.039 0.0625,0.004 0.18911,-0.0181 0.25159,-0.0134 0.15589,0.0117 0.56549,-0.023 0.40958,-0.034 0.62782,-0.019 0.59671,-0.021 0.4408,-0.0317 0.69019,-0.015 0.0957,-0.0245 1.03523,-0.0221 0.18921,-0.018 0.40968,-0.0342 0.34504,-0.007 0.12471,0.008 0.34722,-0.0383 1.79004,-0.063 0.0624,0.004 0.22043,-0.016 0.28271,-0.0119 0.0313,0.003 0.0646,-0.0269 0.0312,0.003 0.0624,0.004 0.15812,-0.0203 0.50313,-0.0273 0.65896,-0.0165 0.59889,-0.0521 0.4719,-0.0297 0.0313,0.003 0.0623,0.004 0.0313,0.003 0.0956,-0.0245 1.50943,-0.0825 0.75689,-0.0723 0.18931,-0.018 0.22036,-0.0158 0.28279,-0.0119 0.12472,0.008 0.18913,-0.0181 1.2289,-0.10196 0.19647,0.32691 0.0557,0.098 0.12034,0.0711 0.32988,0.21101 0.18049,0.1067 0.0558,0.0977 -0.003,0.0313 -0.004,0.0623 -0.11758,0.33641 0.0247,0.0957 0.0269,0.0644 -0.003,0.0313 0.0288,0.0333 0.14929,0.10437 0.2472,0.0486 0.34078,0.0552 0.36972,0.0885 0.24722,0.0487 0.0312,0.003 0.029,0.0332 0.0313,0.003 0.0289,0.0332 0.0268,0.0646 0.0225,0.12687 0.0162,0.22035 -0.0821,0.27626 -0.004,0.0623 0.0225,0.12688 0.058,0.0668 0.058,0.0667 0.0891,0.0689 0.0892,0.0688 0.12251,0.04 0.0601,0.0357 0.12252,0.0399 0.0869,0.10014 0.0849,0.13124 0.0783,0.22471 0.0224,0.12687 0.0289,0.0333 0.0269,0.0644 0.11598,0.13342 0.14936,0.10447 0.0913,0.0376 0.2472,0.0486 0.18707,0.0123 0.22047,-0.016 0.0312,0.003 0.0645,-0.0268 0.0624,0.004 0.0288,0.0332 0.029,0.0333 0.0225,0.12689 -0.004,0.0624 -0.0333,0.0289 -0.0356,0.0602 -0.13342,0.11596 -0.0356,0.06 -0.004,0.0625 0.0289,0.0332 0.0892,0.0689 0.0914,0.0377 0.0956,-0.0248 0.029,0.0333 -0.004,0.0623 -0.04,0.12252 -0.10659,0.18061 -0.008,0.0935 0.0246,0.0956 0.0268,0.0646 0.0602,0.0355 0.0913,0.0376 0.0935,0.008 0.0913,0.0377 0.0288,0.0333 0.029,0.0332 0.0313,0.003 0.06,0.0355 0.0935,0.008 0.0935,0.008 0.003,-0.0313 0.0312,0.003 0.0356,-0.0602 0.0313,0.003 0.029,0.0333 -0.003,0.0313 -0.004,0.0624 -0.0421,0.15374 -0.003,0.0312 0.13631,0.29143 0.06,0.0356 0.0313,0.003 0.0624,0.004 0.12687,-0.0225 0.13123,-0.0847 0.0224,0.12689 -0.0356,0.0601 0.0268,0.0644 0.029,0.0333 0.22036,-0.0161 0.0313,0.003 0.003,-0.0313 0.0333,-0.0289 0.0356,-0.0601 0.13776,-0.17834 0.0935,0.008 0.0312,0.003 0.0914,0.0376 0.12253,0.04 0.0623,0.004 -0.003,0.0313 0.0313,0.003 0.058,0.0666 0.0689,-0.0891 0.0645,-0.0269 0.28269,-0.0119 0.0645,-0.0268 0.0623,0.004 0.0333,-0.029 0.0333,-0.029 0.0312,0.003 0.0312,0.003 0.0313,0.003 0.003,-0.0312 0.0979,-0.0557 0.0668,-0.058 0.0312,0.003 0.0356,-0.0601 0.0465,-0.21598 0.003,-0.0313 0.004,-0.0624 0.004,-0.0624 -0.0269,-0.0645 0.008,-0.12472 -0.0204,-0.15799 0.003,-0.0313 -0.10944,-0.22689 -0.0246,-0.0958 0.003,-0.0312 -0.029,-0.0333 -0.0247,-0.0957 0.003,-0.0313 0.003,-0.0313 -0.0224,-0.12686 0.008,-0.0934 0.003,-0.0313 0.008,-0.0935 0.004,-0.0624 0.0399,-0.12252 0.0377,-0.0914 0.0399,-0.12252 0.0312,0.003 0.0376,-0.0913 0.0444,-0.18487 0.003,-0.0312 0.0313,0.003 0.003,-0.0313 0.0464,-0.21598 0.0123,-0.18718 0.008,-0.0935 0.008,-0.0934 -0.0268,-0.0646 0.003,-0.0312 -0.0515,-0.16018 0.003,-0.0313 -0.0288,-0.0333 -0.0268,-0.0644 0.003,-0.0313 0.003,-0.0313 -0.20083,-0.26468 -0.1138,-0.16452 -0.058,-0.0667 -0.058,-0.0667 -0.15579,-0.0117 -0.12035,-0.071 -0.0892,-0.0689 -0.0558,-0.0979 0.008,-0.12471 0.008,-0.12474 0.008,-0.0935 0.0711,-0.12034 0.30013,-0.26098 0.10447,-0.14928 0.0645,-0.0268 0.11096,-0.24286 0.14651,-0.30312 0.0357,-0.06 0.1066,-0.18062 0.1023,-0.11815 0.003,-0.0312 0.13124,-0.0849 0.13123,-0.0847 0.0645,-0.0269 0.13124,-0.0847 0.19576,-0.11161 0.29141,-0.1363 0.0333,-0.0288 0.0333,-0.0289 0.0312,0.003 0.12688,-0.0225 0.0332,-0.0291 0.44744,-0.12529 0.1913,-0.0493 0.0313,0.003 0.0313,0.003 0.003,-0.0313 0.0978,-0.0557 0.0313,0.003 0.0332,-0.029 0.0312,0.003 0.0333,-0.0289 0.12687,-0.0224 0.40748,-0.003 0.22036,-0.0161 0.43427,0.0617 0.0624,0.004 0.0333,-0.029 0.0623,0.004 0.0957,-0.0247 0.56041,-0.39926 0.10013,-0.087 0.35822,-0.19427 0.30014,-0.26091 0.003,-0.0313 0.0357,-0.0602 0.0377,-0.0912 0.0639,-0.46536 0.0709,-0.12034 0.0123,-0.18717 0.0117,-0.1558 -0.0716,-0.31826 -0.029,-0.0333 -0.0247,-0.0956 0.0123,-0.18708 0.0907,-0.40085 0.04,-0.1225 0.003,-0.0313 0.0376,-0.0913 0.0689,-0.0892 0.0755,-0.18267 0.0689,-0.0891 0.0117,-0.15588 0.0357,-0.0602 0.008,-0.0936 0.003,-0.0312 0.003,-0.0313 0.003,-0.0313 0.003,-0.0313 0.008,-0.12473 0.004,-0.0623 -0.029,-0.0333 0.003,-0.0313 0.003,-0.0312 0.003,-0.0312 -0.029,-0.0333 -0.0245,-0.0956 -0.0849,-0.13123 0.004,-0.0625 0.003,-0.0312 0.008,-0.0937 0.003,-0.0312 0.003,-0.0312 0.003,-0.0313 0.003,-0.0313 0.0442,-0.18476 0.003,-0.0313 0.0357,-0.0601 0.0356,-0.0602 0.26464,-0.20072 0.003,-0.0313 0.20667,-0.26754 0.19576,-0.11161 0.0356,-0.06 0.11318,-0.27408 0.0755,-0.18267 0.0401,-0.12251 0.0332,-0.0288 0.0356,-0.0602 0.0357,-0.06 0.0645,-0.0269 0.16453,-0.1138 0.0313,0.003 0.003,-0.0313 0.10218,-0.11814 0.0755,-0.18259 0.0688,-0.0892 0.004,-0.0624 0.0333,-0.029 0.003,-0.0312 0.003,-0.0313 0.0333,-0.029 0.0332,-0.029 0.0667,-0.0579 0.0357,-0.0602 0.0332,-0.0289 0.0332,-0.0289 0.0333,-0.0289 0.0313,0.003 0.26031,-0.13847 0.13341,-0.11599 0.22469,-0.0782 0.0689,-0.0891 0.0376,-0.0915 0.053,-0.30954 0.0465,-0.21599 0.0332,-0.029 0.0442,-0.18488 0.0377,-0.0914 0.008,-0.12471 -0.0248,-0.0956 -0.0783,-0.2247 -0.0493,-0.19152 -0.0246,-0.0956 0.0731,-0.15156 0.003,-0.0312 0.11096,-0.24284 0.0529,-0.30957 0.0117,-0.15589 -0.0161,-0.22034 0.0509,-0.27844 0.0117,-0.1558 -0.0246,-0.0957 -0.0119,-0.28268 -0.0247,-0.0957 -0.0428,-0.28489 -0.0783,-0.22481 0.003,-0.0312 0.004,-0.0623 -0.009,-0.31391 0.0508,-0.27833 -0.0268,-0.0647 -0.0268,-0.0644 -0.0558,-0.0979 -0.17168,-0.23133 -0.0559,-0.0979 -0.11596,-0.13342 -0.10509,-0.28933 -0.1695,-0.26247 -0.0602,-0.0356 -0.0268,-0.0645 -0.0268,-0.0645 -0.029,-0.0332 -0.029,-0.0333 -0.0825,-0.16245 -0.0269,-0.0644 -0.0288,-0.0333 -0.0289,-0.0333 -0.0269,-0.0644 -0.0913,-0.0377 -0.0892,-0.0688 -0.0935,-0.008 0.003,-0.0312 -0.0312,-0.003 -0.0332,0.0289 -0.0313,-0.003 -0.0313,-0.003 -0.0312,-0.003 -0.0312,-0.003 -0.25593,0.0761 -0.0625,-0.004 -0.21381,-0.0777 -0.30799,-0.52275 -0.0871,-0.10005 -0.0558,-0.0979 -0.11162,-0.19585 -0.17398,-0.20001 -0.17396,-0.20024 -0.26752,-0.20657 -0.1717,-0.23133 -0.17841,-0.13778 0.003,-0.0312 -0.0579,-0.0668 -0.0269,-0.0644 -0.0225,-0.12689 -0.0245,-0.0957 0.1067,-0.18048 0.10659,-0.1805 0.0733,-0.15147 0.16178,-0.52129 0.003,-0.0313 0.0332,-0.0288 0.0755,-0.18268 0.17107,-0.20726 0.071,-0.12034 0.0156,-0.21824 0.008,-0.56332 0.0123,-0.18708 0.0683,-0.52772 0.0123,-0.18718 0.003,-0.0312 0.0356,-0.0601 0.071,-0.12034 0.0755,-0.18267 0.0332,-0.0288 0.071,-0.12033 0.003,-0.0313 0.004,-0.0624 0.008,-0.1247 0.0156,-0.21825 0.0117,-0.15579 0.0117,-0.1558 0.0377,-0.0914 0.0332,-0.0289 0.0332,-0.0289 0.069,-0.0891 0.0644,-0.0269 0.0333,-0.029 0.16245,-0.0825 0.12688,-0.0225 0.18911,-0.018 0.0646,-0.0268 0.0644,-0.0269 0.32491,-0.16524 0.0312,0.003 0.0667,-0.058 0.0313,0.003 0.0644,-0.0269 0.0313,0.003 0.0313,0.003 0.0313,0.003 0.0312,0.003 0.0313,0.003 0.14938,0.10447 0.30292,0.1465 0.0625,0.004 0.43414,0.0616 0.0313,0.003 0.0645,-0.0268 0.0332,-0.0289 0.098,-0.0558 0.227,-0.10944 0.12904,-0.0536 0.0332,-0.029 0.16455,-0.11381 0.0313,0.003 0.23124,-0.17179 0.10013,-0.087 0.0667,-0.0579 0.0333,-0.029 0.0644,-0.0269 0.10013,-0.087 0.0332,-0.0289 0.0646,-0.0268 0.0666,-0.058 0.12689,-0.0225 0.0313,0.003 0.0313,0.003 0.0956,-0.0246 0.0623,0.004 0.0312,0.003 0.24942,0.0168 0.34513,-0.007 0.46767,0.0326 0.0935,0.008 0.0935,0.008 0.0936,0.008 0.0313,0.003 0.43653,0.0308 0.28267,-0.0119 0.28707,-0.0738 0.47637,-0.092 0.19141,-0.0494 0.32262,-0.13402 0.158,-0.0203 0.0625,0.004 0.22252,-0.0471 0.10003,-0.087 0.20458,-0.23633 0.13778,-0.17831 0.0312,0.003 0.0312,0.003 0.26248,-0.16959 0.17118,-0.20727 0.0667,-0.0581 0.0376,-0.0913 0.0168,-0.24942 0.1356,-0.1472 0.0313,0.003 0.0667,-0.0579 0.0332,-0.029 0.0958,-0.0247 0.0645,-0.0268 0.0313,0.003 0.0956,-0.0246 0.0624,0.004 0.0332,-0.029 0.0958,-0.0247 0.003,-0.0313 0.16454,-0.1138 0.0333,-0.0289 0.003,-0.0313 0.0313,0.003 0.22254,-0.0471 0.0956,-0.0246 0.0602,0.0357 0.0934,0.008 0.42989,0.12409 0.21827,0.0156 0.0289,0.0332 0.0312,0.003 0.003,-0.0312 0.21825,0.0156 0.25376,-0.045 0.0645,-0.0268 0.25812,-0.10726 0.2023,-0.20518 0.0689,-0.0891 0.0688,-0.0891 0.0332,-0.0289 0.003,-0.0313 0.10447,-0.14928 0.071,-0.12034 0.0357,-0.0601 0.0978,-0.0558 0.0313,0.003 0.0332,-0.0289 0.0667,-0.0581 0.0377,-0.0913 0.0732,-0.15156 0.0668,-0.0579 0.1334,-0.11599 0.16454,-0.11379 0.35387,-0.13194 0.0312,0.003 0.1914,-0.0494 0.12906,-0.0536 0.26028,-0.13848 0.16465,-0.11378 0.0356,-0.06 0.004,-0.0624 0.0398,-0.12252 0.004,-0.0623 -0.0384,-0.34733 -0.0247,-0.0957 -0.0161,-0.22034 -0.0586,-0.50533 -0.0247,-0.0956 0.004,-0.0625 0.003,-0.0312 0.0799,-0.24502 0.0486,-0.24721 0.0117,-0.15579 0.008,-0.12473 0.008,-0.0935 0.003,-0.0312 0.003,-0.0313 0.003,-0.0313 0.0312,0.003 0.003,-0.0312 0.0356,-0.0602 0.23126,-0.17178 0.0313,0.003 0.003,-0.0312 0.003,-0.0313 0.0356,-0.0601 0.0332,-0.0288 0.003,-0.0313 0.004,-0.0624 0.003,-0.0313 0.004,-0.0625 0.004,-0.0623 0.008,-0.0935 -0.0312,-0.003 0.004,-0.0624 -0.0783,-0.22472 -0.0224,-0.12687 0.0123,-0.18716 0.0117,-0.15579 0.10875,-0.21174 0.14213,-0.24067 0.44019,-0.47043 0.0332,-0.029 0.32262,-0.13402 0.1022,-0.11815 0.19588,-0.11161 0.13339,-0.11598 0.42702,-0.28349 0.10013,-0.0869 0.1602,-0.0515 0.0332,-0.0289 0.0313,0.003 0.0333,-0.029 0.35376,-0.13193 0.1022,-0.11817 0.0356,-0.0601 0.004,-0.0625 -0.0405,-0.31601 -0.0494,-0.19149 -0.0247,-0.0956 0.008,-0.0935 0.003,-0.0313 0.0401,-0.1225 0.003,-0.0313 0.004,-0.0623 0.003,-0.0313 0.0357,-0.0601 0.003,-0.0313 0.0332,-0.029 0.0376,-0.0912 0.0401,-0.12251 -0.0181,-0.18934 0.003,-0.0312 0.003,-0.0313 0.003,-0.0313 0.0357,-0.0602 0.003,-0.0312 0.0117,-0.1559 0.0357,-0.0601 0.0376,-0.0914 0.003,-0.0312 0.0332,-0.0289 0.12189,-0.39876 0.0777,-0.21382 0.003,-0.0313 0.004,-0.0624 0.003,-0.0312 -0.0204,-0.1581 0.0265,-0.37407 0.004,-0.0624 -0.0268,-0.0645 -0.058,-0.0667 -0.0269,-0.0645 -0.0891,-0.0689 -0.0848,-0.13124 -0.0247,-0.0958 0.0123,-0.18696 0.0421,-0.15374 0.0753,-0.18269 0.0421,-0.15364 0.0333,-0.029 0.10437,-0.14937 0.0377,-0.0913 0.0123,-0.18709 0.10875,-0.21172 -0.0161,-0.22035 -0.0203,-0.1581 -0.0558,-0.0978 -0.0269,-0.0645 -0.0288,-0.0332 -0.0558,-0.098 0.003,-0.0312 -0.029,-0.0334 -0.0224,-0.12686 -0.0268,-0.0645 0.003,-0.0313 -0.0582,-0.0668 z"
       id="IA-02"
       style="opacity:1;fill:none;fill-opacity:1;fill-rule:evenodd;stroke:#000000;stroke-width:0.333;stroke-linecap:butt;stroke-linejoin:miter;stroke-miterlimit:4;stroke-dasharray:none;stroke-opacity:1" />
    <path
       inkscape:connector-curvature="0"
       d="m 317.0937,552.38017 -0.0445,-16.38682 14.70127,-0.13101 -0.37244,-19.76162 -29.63012,-0.067 -0.0113,7.32955 0.87722,-0.001 -0.007,2.78762 -27.37314,-0.53581 -0.0689,0.0891 -0.20013,0.17396 -0.16673,0.14491 -0.0689,0.0892 -0.0332,0.0289 0.0268,0.0646 0.0538,0.12905 0.0288,0.0332 0.0849,0.13124 0.0268,0.0645 0.0313,0.003 0.0602,0.0357 0.30948,0.0528 0.15373,0.042 0.15375,0.0421 0.0601,0.0357 0.14937,0.10438 0.0936,0.008 0.0935,0.008 0.22479,-0.0782 0.0935,0.008 0.0313,0.003 0.0312,0.003 0.0624,0.004 0.0602,0.0356 0.14709,0.13559 0.0871,0.10014 0.0224,0.12687 0.0246,0.0956 -0.0377,0.0913 -0.0356,0.0602 -0.0376,0.0913 -0.1356,0.1472 -0.0356,0.0601 -0.004,0.0625 -0.0117,0.1558 -0.004,0.0624 0.0269,0.0645 0.0224,0.12686 0.0245,0.0957 -0.042,0.15363 -0.11319,0.27399 -0.0376,0.0913 0.0449,0.25375 0.13848,0.26028 -0.008,0.12471 -0.0421,0.15365 -0.10219,0.11815 -0.13124,0.0849 -0.227,0.10944 -0.0667,0.058 -0.0357,0.0601 -0.008,0.0935 0.0827,0.16237 0.11381,0.16454 0.0892,0.0689 0.0869,0.10003 0.23848,0.17335 0.0313,0.003 0.0913,0.0376 0.15376,0.042 0.0312,0.003 0.28486,-0.0427 0.21391,0.0776 0.12034,0.0712 0.11599,0.13341 0.0537,0.12905 0.0717,0.31819 -0.0441,0.18495 -0.0711,0.12034 -0.13341,0.11598 -0.19358,0.0804 -0.22699,0.10944 -0.20726,-0.17117 0.0732,-0.15147 0.11096,-0.24284 0.008,-0.0935 0.004,-0.0623 -0.0289,-0.0333 -0.31178,-0.0212 -0.0645,0.0269 -0.0977,0.0557 -0.0421,0.15375 -0.004,0.0624 -0.0117,0.15577 0.0247,0.0957 0.0579,0.0667 0.0602,0.0358 0.0871,0.10002 0.0869,0.10003 -0.0956,0.0248 -0.003,0.0313 -0.0313,-0.003 -0.0399,0.12252 0.0224,0.12687 -0.003,0.0312 0.0761,0.25594 0.0289,0.0332 0.0203,0.1581 0.0515,0.16029 0.0245,0.0957 -0.004,0.0624 -0.0399,0.12253 -0.071,0.12034 -0.1777,0.30083 -0.0332,0.029 -0.0485,0.24722 0.018,0.18911 0.0537,0.12907 0.087,0.10013 0.0289,0.0332 0.0601,0.0357 0.12251,0.0401 0.78802,-0.0703 0.1581,-0.0203 0.18709,0.0123 0.12032,0.0711 0.1471,0.1356 0.0225,0.12687 0.0289,0.0332 -0.008,0.0935 -0.10447,0.14928 -0.15802,0.0204 -0.24503,-0.0798 -0.0602,-0.0356 -0.0312,-0.003 -0.0312,-0.003 -0.003,0.0312 -0.0313,-0.003 -0.10003,0.087 -0.10447,0.14926 -0.0399,0.12252 -0.008,0.12471 0.018,0.18921 0.0826,0.16248 0.19204,0.38933 0.0493,0.19129 -8e-4,0.46984 0.0471,0.22264 0.0203,0.158 -0.004,0.0624 -0.0356,0.0602 -0.003,0.0312 -0.003,0.0313 -0.003,0.0313 -0.0313,-0.003 -0.0711,0.12033 -0.0332,0.029 -0.0668,0.058 -0.10003,0.0869 -0.0377,0.0914 -0.0332,0.0289 -0.008,0.0935 -0.003,0.0312 -0.003,0.0313 -0.004,0.0624 0.0537,0.12905 0.11816,0.1023 0.087,0.10002 0.17623,0.16901 -0.004,0.0622 0.0268,0.0646 0.0224,0.12687 -0.0117,0.15579 -0.13995,0.20954 -0.0731,0.15146 -0.008,0.0935 -0.008,0.0935 0.0224,0.12687 0.0312,0.003 0.0289,0.0333 -0.003,0.0312 0.029,0.0332 0.0289,0.0333 0.0312,0.003 0.0289,0.0333 0.029,0.0332 0.06,0.0356 0.0602,0.0356 0.0913,0.0377 0.0914,0.0376 0.0602,0.0356 0.0312,0.003 -0.003,0.0313 0.0288,0.0333 0.0313,0.003 0.0269,0.0644 0.0288,0.0333 0.0312,0.003 0.0269,0.0644 0.029,0.0332 0.0246,0.0957 -0.008,0.0935 -0.0156,0.21817 -0.0733,0.15155 -0.10873,0.21162 -0.0529,0.30957 -0.0156,0.21825 0.0203,0.15801 0.0268,0.0645 0.0268,0.0645 0.0849,0.13124 0.0268,0.0645 0.26537,0.23779 0.0558,0.0981 0.0288,0.0332 0.029,0.0333 0.0247,0.0956 0.0268,0.0646 -0.003,0.0312 0.0246,0.0958 -0.0399,0.12252 -0.0356,0.06 -0.0357,0.0602 -0.003,0.0312 -0.0333,0.0288 -0.0332,0.0291 -0.0332,0.029 -0.0333,0.0289 -0.0667,0.058 -0.0313,-0.003 -0.28714,0.0738 -0.0313,-0.003 -0.003,0.0313 -0.0312,-0.003 -0.0332,0.029 -0.0333,0.0288 -0.0688,0.0892 -0.004,0.0623 -0.0356,0.0602 -0.003,0.0312 -0.003,0.0312 -0.003,0.0313 0.0224,0.12685 0.14056,0.22907 0.0783,0.22481 -0.004,0.0624 -0.003,0.0313 -0.008,0.0934 -0.0117,0.15588 -0.13995,0.20947 -0.004,0.0624 -0.003,0.0312 -0.008,0.0935 -0.003,0.0312 0.018,0.18932 0.16318,0.35596 0.0245,0.0956 0.0246,0.0957 -0.003,0.0312 -0.04,0.1225 -0.0357,0.0602 -0.0357,0.06 -0.10002,0.087 -0.0313,-0.003 -0.003,0.0313 -0.0333,0.029 -0.0332,0.029 -0.0313,-0.003 -0.0668,0.0579 -0.0312,-0.003 -0.0332,0.029 -0.0646,0.0269 -0.0956,0.0246 -0.0333,0.0288 -0.0332,0.029 -0.0957,0.0246 -0.0332,0.0289 -0.0332,0.029 -0.0333,0.0289 -0.0688,0.0891 -0.0313,-0.003 -0.003,0.0313 -0.10229,0.11816 -0.0442,0.18487 -0.0734,0.15145 -0.008,0.12472 0.0718,0.31837 0.0558,0.0978 0.12033,0.0711 0.0313,0.003 0.12034,0.0711 0.0289,0.0333 0.1225,0.0399 0.0289,0.0332 0.0625,0.004 -0.003,0.0313 0.11815,0.10218 -0.003,0.0313 0.0536,0.12905 0.0558,0.0979 -0.003,0.0313 0.0246,0.0956 0.018,0.18933 -0.003,0.0312 -0.003,0.0312 0.0313,0.003 -0.003,0.0313 0.0269,0.0645 0.0891,0.0688 0.0289,0.0333 0.0289,0.0332 0.0892,0.069 0.0312,0.003 0.15145,0.0732 -0.003,0.0312 0.0313,0.003 0.15374,0.0421 0.21815,0.0156 0.15156,0.0733 0.0312,0.003 0.11815,0.10229 0.0892,0.0688 0.0288,0.0333 0.0288,0.0333 0.029,0.0332 0.11379,0.16454 0.0248,0.0958 0.0312,0.003 0.0288,0.0332 -0.004,0.0624 0.029,0.0332 -0.003,0.0312 -0.008,0.0935 0.0247,0.0957 -0.0123,0.18697 0.0245,0.0958 0.0557,0.0979 0.029,0.0332 0.14928,0.10448 0.11817,0.10218 0.0288,0.0333 0.029,0.0332 -0.003,0.0313 0.0269,0.0646 -0.003,0.0312 -0.003,0.0312 -0.003,0.0313 -0.003,0.0313 -0.0377,0.0913 -0.0688,0.0891 -0.10229,0.11816 -0.16236,0.0826 0.40522,0.0283 1.28036,0.0582 0.75252,-0.0101 0.1559,0.0117 0.0623,0.004 0.0624,0.004 0.59224,0.0415 0.81271,0.0254 0.37406,0.0265 0.21825,0.0156 0.28268,-0.0119 0.12472,0.008 0.0313,0.003 0.81281,0.0254 0.37406,0.0266 0.8126,0.0254 0.34515,-0.007 0.90616,0.032 0.34296,0.024 0.46985,8e-4 1.6254,0.0508 0.18698,0.0123 0.4387,-6.5e-4 0.18698,0.0123 0.0624,0.004 0.0312,0.003 0.0935,0.008 0.003,-0.0313 0.0312,0.003 0.1871,0.0123 0.84382,0.0274 0.18718,0.0123 0.0312,0.003 0.18708,0.0123 0.50096,0.004 0.18707,0.0123 0.0312,0.003 0.0935,0.008 0.18921,-0.018 0.40533,0.0283 0.21815,0.0156 0.62564,0.0129 0.18709,0.0123 0.0935,0.008 0.0622,0.004 0.0313,0.003 0.65686,0.0145 0.22037,-0.0159 0.31175,0.0213 0.25157,-0.0134 0.84393,0.0274 0.31166,0.0212 0.0935,0.008 1.56306,0.0466 0.0623,0.004 0.21825,0.0156 0.18912,-0.018 0.0313,0.003 0.56332,0.008 0.62348,0.0436 0.62564,0.0129 0.0312,0.003 0.34514,-0.007 0.15579,0.0117 0.0625,0.004 0.12471,0.008 1.06417,0.0116 0.81282,0.0254 0.18911,-0.018 0.84393,0.0274 0.0957,-0.0245 0.0934,0.008 0.0936,0.008 0.93965,0.003 0.40741,-0.003 0.21825,0.0156 0.65678,0.0145 0.5655,-0.0232 0.31389,-0.009 0.65677,0.0145 0.25158,-0.0134 0.18718,0.0123 0.0312,0.003 0.25155,-0.0134 0.31178,0.0213 0.31391,-0.009 0.18706,0.0123 0.94176,-0.0282 0.15579,0.0117 0.0625,0.004 0.0956,-0.0247 2.09949,-0.01 0.21827,0.0156 0.0312,0.003 0.59671,-0.0209 0.0312,0.003 0.18717,0.0123 1.00411,-0.0235 0.37626,-0.005 0.0313,0.003 z"
       id="IA-03"
       style="opacity:1;fill:none;fill-opacity:1;fill-rule:evenodd;stroke:#000000;stroke-width:0.333;stroke-linecap:butt;stroke-linejoin:miter;stroke-miterlimit:4;stroke-dasharray:none;stroke-opacity:1" />
    <path
       inkscape:connector-curvature="0"
       d="m 327.7379,470.04711 -0.0312,-0.003 -0.59671,0.0209 -0.0624,-0.004 -0.56333,-0.008 -0.37627,0.005 -0.81488,0.006 -0.65688,-0.0145 -1.03522,0.0211 -0.0935,-0.008 -0.0936,-0.008 -0.1559,-0.0117 -0.37845,0.0361 -0.68789,-0.017 -0.53218,-0.006 -0.0313,-0.003 -1.15992,0.0133 -0.75255,0.0101 -1.68991,-0.0245 -0.75253,0.0101 -1.2201,-0.0223 -0.22046,0.0161 -0.18706,-0.0123 -0.0935,-0.008 -0.0313,-0.003 -0.0935,-0.008 -0.1581,0.0203 -0.0313,-0.003 -0.0622,-0.004 -0.34514,0.007 -0.43861,6.6e-4 -1.18896,-0.0203 -0.84612,0.004 -1.53399,-0.0134 -0.93958,-0.003 -0.18709,-0.0123 -0.25156,0.0134 -1.06427,-0.0116 -0.0956,0.0247 -0.46983,-8e-4 -0.46767,-0.0326 -1.37821,-0.002 -0.12472,-0.008 -1.00191,-0.007 -0.0312,-0.003 -1.28464,0.004 -0.314,0.009 -0.81259,-0.0254 -1.31379,-0.0289 -0.84601,0.004 -0.0935,-0.008 -0.22045,0.0161 -0.0624,-0.004 -0.0624,-0.004 -0.25156,0.0134 -0.0312,-0.003 -0.24942,-0.0169 -0.56342,-0.008 -0.40738,0.003 -0.40739,0.003 -0.4075,0.003 -0.4364,-0.0308 -0.37628,0.005 -0.4074,0.003 -0.4053,-0.0283 -0.84602,0.004 -0.40747,0.003 -0.1559,-0.0117 -0.59444,-0.0102 -0.0935,-0.008 -0.24943,-0.0169 -0.25159,0.0134 -0.0313,-0.003 -0.68798,-0.017 -0.62565,-0.0129 -0.0958,0.0247 -0.37626,0.005 -1.15775,-0.0182 -0.21824,-0.0156 -0.8126,-0.0254 -0.25159,0.0134 -0.93967,-0.003 0.003,-0.0312 -0.43851,6.5e-4 -0.40749,0.003 -0.24944,-0.0168 -0.37627,0.005 -0.18921,0.018 -1.22019,-0.0223 -0.99975,-0.039 -0.40738,0.003 -0.12472,-0.008 -0.71922,-0.0197 -0.22035,0.0161 -0.93742,-0.0338 -0.0312,-0.003 -1.50287,-0.0111 -0.12473,-0.008 -0.2494,-0.0168 -0.56342,-0.008 -1.46949,-0.0402 -0.93741,-0.0337 -0.0312,-0.003 -0.34514,0.007 -0.4386,6.5e-4 -0.71911,-0.0196 -0.87507,-0.0299 -1.56315,-0.0466 -0.53207,-0.006 -0.21826,-0.0156 -0.0934,-0.008 -0.78157,-0.0236 -0.43852,6.5e-4 -0.37627,0.005 -0.77939,-0.0544 -0.0313,-0.003 -0.40738,0.003 -1.97057,-0.0434 -0.1247,-0.008 -1.5942,-0.0486 -1.2179,-0.0539 -0.15589,-0.0117 -0.0117,0.15578 0.0891,0.0689 0.0646,-0.0269 0.0869,0.10013 0.029,0.0332 0.0782,0.2248 -0.10003,0.087 0.0159,0.22036 -0.003,0.0313 -0.071,0.12034 -0.0356,0.0601 -0.19786,0.14285 -0.0333,0.029 -0.0421,0.15364 -0.004,0.0624 0.0289,0.0333 0.12976,0.38499 0.0288,0.0332 0.0602,0.0356 0.0313,0.003 0.0935,0.008 0.0313,0.003 0.0934,0.008 0.0313,0.003 0.0312,0.003 0.058,0.0668 0.0313,0.003 -0.003,0.0312 0.0312,0.003 -0.003,0.0312 -0.0356,0.0602 -0.003,0.0312 -0.0712,0.12033 0.12033,0.0711 0.0849,0.13124 0.11378,0.16463 0.0892,0.0688 0.32542,0.27338 0.12688,-0.0224 0.003,-0.0312 0.0313,0.003 0.003,-0.0313 0.0601,0.0358 0.0313,0.003 -0.003,0.0313 0.0313,0.003 -0.003,0.0312 0.0224,0.12689 -0.004,0.0625 -0.003,0.0312 -0.003,0.0312 0.0134,0.25158 -0.004,0.0625 -0.003,0.0312 -0.003,0.0313 -0.10218,0.11815 -0.0313,-0.003 0.0203,0.15811 0.0119,0.28279 -0.008,0.12472 0.0312,0.003 -0.003,0.0312 -0.0332,0.0289 -0.003,0.0313 -0.0668,0.058 -0.0688,0.0892 -0.003,0.0312 -0.0333,0.0288 0.0161,0.22044 0.0695,0.34949 0.0537,0.12905 -0.004,0.0623 -0.004,0.0625 -0.003,0.0313 -0.0332,0.0288 -0.003,0.0313 -0.04,0.12251 -0.0333,0.029 -0.19347,0.0804 -0.16029,0.0514 -0.0333,0.0289 -0.0312,-0.003 -0.0312,-0.003 -0.0269,-0.0644 -0.18922,0.018 -0.0601,-0.0356 -0.0313,-0.003 -0.0312,-0.003 0.003,-0.0313 -0.0312,-0.003 0.003,-0.0313 -0.0602,-0.0356 -0.12686,0.0224 -0.0332,0.029 0.0288,0.0333 0.0291,0.0332 -0.003,0.0312 -0.008,0.0936 0.0384,0.34733 -0.0689,0.0891 -0.0624,-0.004 -0.0645,0.0269 0.0203,0.158 0.0288,0.0332 0.12687,-0.0224 0.17615,0.16889 0.0891,0.0689 0.0914,0.0376 0.0624,0.004 0.0333,-0.0288 0.0289,0.0332 0.0289,0.0332 -0.0123,0.18718 -0.008,0.0935 -0.12906,0.0537 -0.12687,0.0224 -0.003,0.0313 -0.13343,0.11599 0.029,0.0333 0.0225,0.12687 -0.004,0.0623 0.17385,0.20022 0.0313,0.003 0.0313,0.003 0.004,-0.0624 0.0312,0.003 0.15801,-0.0203 0.0602,0.0357 0.0935,0.008 0.0956,-0.0246 0.18059,0.10669 0.0891,0.0688 0.0269,0.0646 0.0288,0.0332 0.0312,0.003 0.0957,-0.0245 0.0957,-0.0247 0.158,-0.0204 0.003,-0.0312 0.0979,-0.0558 0.0313,0.003 0.18922,-0.0181 0.18267,0.0755 0.0289,0.0332 -0.008,0.0935 0.0472,0.22252 0.0268,0.0645 -0.004,0.0624 -0.0442,0.18486 -0.0168,0.24941 0.0246,0.0958 0.0892,0.0688 0.06,0.0357 -0.003,0.0313 -0.003,0.0312 -0.008,0.0935 -0.008,0.0935 -0.008,0.0935 -0.008,0.0935 -0.0376,0.0914 -0.008,0.1247 0.0134,0.25157 0.0269,0.0644 -0.003,0.0313 0.11814,0.10219 0.0313,0.003 0.0644,-0.0268 0.0892,0.0688 0.13838,0.26029 0.0225,0.12688 0.0248,0.0956 -0.004,0.0625 0.0289,0.0332 0.0601,0.0356 -0.0444,0.18495 -0.20656,0.26744 -0.0712,0.12033 -0.19784,0.14276 -0.0377,0.0914 -0.004,0.0624 0.15373,0.0421 0.0288,0.0332 -0.004,0.0623 -0.003,0.0313 -0.0156,0.21816 -0.003,0.0313 -0.0776,0.2138 -0.0688,0.0891 -0.0332,0.0289 -0.0957,0.0247 -0.0624,-0.004 -0.058,-0.0668 -0.0667,0.0582 -0.2001,0.17386 -0.0645,0.0269 -0.008,0.0934 -0.0313,-0.003 -0.22471,0.0783 -0.0934,-0.008 -0.0602,-0.0356 -0.0312,-0.003 -0.1711,0.20728 0.0268,0.0645 0.0312,0.003 0.0313,0.003 0.0624,0.004 0.0268,0.0645 0.0289,0.0333 -0.071,0.12034 -0.0356,0.06 -0.003,0.0313 0.0268,0.0645 -0.003,0.0312 0.0288,0.0333 0.1494,0.10437 0.029,0.0333 0.0623,0.004 -0.003,0.0313 0.0581,0.0666 -0.003,0.0313 0.0312,0.003 0.0537,0.12907 -0.003,0.0313 -0.004,0.0623 -0.0358,0.0602 -0.008,0.0935 -0.0666,0.058 -0.003,0.0313 -0.0313,-0.003 -0.0313,-0.003 -0.0644,0.0269 -0.0957,0.0246 -0.0645,0.0268 -0.071,0.12035 0.0268,0.0645 -0.004,0.0624 -0.071,0.12034 -0.003,0.0312 -0.0313,-0.003 -0.0624,-0.004 -0.003,0.0313 -0.004,0.0624 0.0849,0.13122 0.12033,0.0711 0.0956,-0.0247 -0.003,0.0313 0.058,0.0667 0.0449,0.25375 -0.10219,0.11815 -0.0755,0.18269 -0.008,0.0935 -0.0332,0.0289 -0.0957,0.0247 -0.10004,0.087 -0.004,0.0624 0.0581,0.0667 -0.003,0.0313 -0.003,0.0312 -0.0332,0.0289 -0.029,-0.0332 -0.029,-0.0332 -0.0288,-0.0333 -0.0624,-0.004 -0.33353,0.28995 -0.004,0.0624 -0.004,0.0624 0.0268,0.0645 0.0472,0.22253 -0.003,0.0313 0.0245,0.0956 -0.0332,0.029 -0.0935,-0.008 -0.003,0.0313 0.0558,0.0978 0.0936,0.008 0.12034,0.071 0.0537,0.12907 -0.003,0.0312 -0.0356,0.0602 -0.1247,-0.008 -0.12688,0.0224 0.0558,0.0978 -0.0156,0.21815 -0.13123,0.0847 -0.0332,0.029 -0.0313,-0.003 -0.0377,0.0913 -0.0443,0.18497 -0.003,0.0312 0.0827,0.16235 0.0312,0.003 0.0332,-0.0289 0.003,-0.0312 0.0313,0.003 -0.003,0.0313 -0.0442,0.18485 -0.0356,0.0602 -0.098,0.0557 -0.0623,-0.004 -0.0333,0.029 0.0269,0.0644 0.0268,0.0645 0.0602,0.0357 -0.003,0.0312 -0.0356,0.0602 -0.003,0.0312 -0.0313,-0.003 -0.0312,-0.003 -0.0313,-0.003 -0.0313,-0.003 0.003,-0.0312 -0.0268,-0.0646 -0.0312,-0.003 -0.0313,-0.003 -0.003,0.0313 -0.003,0.0313 -0.0333,0.0289 -0.0117,0.1558 -0.0644,0.0269 0.003,-0.0313 -0.0827,-0.16236 -0.18487,-0.0443 -0.0333,0.0289 -0.0376,0.0914 0.0827,0.16236 -0.0734,0.15145 -0.0688,0.0892 -0.0333,0.0288 -0.10003,0.0872 -0.0915,-0.0376 -0.003,0.0313 -0.008,0.12471 0.0601,0.0356 0.0313,0.003 -0.003,0.0313 -0.004,0.0624 -0.004,0.0624 -0.008,0.0936 -0.0778,0.21389 -0.1356,0.1471 -0.0399,0.12251 -0.0312,-0.003 -0.0313,-0.003 -0.15375,-0.042 -0.0312,-0.003 -0.0958,0.0246 -0.0399,0.1225 -0.10447,0.14938 -0.003,0.0313 -0.0666,0.058 -0.0624,-0.004 -0.003,0.0313 -0.003,0.0313 0.0181,0.1891 0.0537,0.12906 0.0937,0.008 0.0332,-0.0288 0.0313,0.003 0.029,0.0332 -0.004,0.0625 -0.003,0.0313 -0.12687,0.0224 -0.0978,0.0558 -0.0421,0.15364 -0.071,0.12034 -0.0332,0.0288 -0.0377,0.0914 -0.003,0.0312 0.13629,0.29152 0.12689,-0.0225 0.0288,0.0333 0.009,0.31391 -0.071,0.12035 -0.0647,0.0268 -0.004,0.0624 0.029,0.0332 0.17833,0.13778 0.0892,0.0688 0.0313,0.003 0.0312,0.003 0.0313,0.003 -0.003,0.0313 -0.003,0.0312 0.0291,0.0332 0.0623,0.004 0.0313,0.003 0.0689,-0.0891 0.0312,0.003 0.0313,0.003 0.058,0.0667 0.0224,0.12687 -0.0356,0.0601 0.0935,0.008 0.12252,0.04 0.20943,0.13995 0.0225,0.12688 -0.003,0.0312 -0.003,0.0312 -0.0691,0.0892 -0.003,0.0312 0.0313,0.003 0.0935,0.008 0.0313,0.003 0.003,-0.0312 0.004,-0.0624 0.0333,-0.0291 0.0312,0.003 0.14491,0.16681 -0.003,0.0313 0.0849,0.13123 -0.0312,-0.003 -0.0313,-0.003 -0.0333,0.0288 0.0225,0.12688 -0.003,0.0312 0.0624,0.004 0.19576,-0.11161 0.0624,0.004 -0.003,0.0313 0.0313,0.003 0.0849,0.13125 -0.008,0.0935 -0.008,0.0935 -0.003,0.0312 -0.003,0.0313 0.0312,0.003 0.0581,0.0667 -0.003,0.0312 0.0312,0.003 0.0601,0.0356 0.0602,0.0358 0.19866,0.29576 0.0268,0.0645 -0.003,0.0313 -0.003,0.0312 -0.003,0.0312 -0.0376,0.0913 -0.0357,0.0602 -0.0313,-0.003 -0.0644,0.0269 -0.0936,-0.008 -0.0332,0.0289 -0.0333,0.0288 -0.003,0.0313 -0.003,0.0313 0.0269,0.0644 -0.004,0.0625 0.0313,0.003 0.0288,0.0332 0.0333,-0.0288 0.0667,-0.0581 0.003,-0.0312 0.0645,-0.0268 0.0333,-0.029 0.0935,0.008 0.058,0.0667 0.0312,0.003 -0.003,0.0312 0.0805,0.19368 0.0268,0.0644 0.045,0.25376 -0.003,0.0313 -0.004,0.0623 -0.003,0.0312 0.0288,0.0333 0.0624,0.004 0.0269,0.0645 0.0289,0.0332 -0.0356,0.0602 -0.003,0.0312 -0.003,0.0312 -0.003,0.0313 0.0913,0.0377 -0.003,0.0313 0.0623,0.004 0.0312,0.003 0.0289,0.0332 -0.003,0.0313 -0.003,0.0313 -0.0333,0.0288 -0.0644,0.0268 -0.0625,-0.004 -0.0935,-0.008 -0.0313,-0.003 -0.008,0.0935 -0.008,0.0935 0.0247,0.0956 -0.008,0.0935 0.0601,0.0357 0.37406,0.0265 -0.0198,0.28061 -0.0198,0.28051 -0.0442,0.18486 0.0246,0.0956 -0.0356,0.0602 -0.22699,0.10944 -0.0356,0.06 0.0513,0.16028 0.12249,0.04 0.0935,0.008 0.0602,0.0356 0.0827,0.16236 -0.0376,0.0914 -0.0667,0.058 0.0246,0.0957 -0.003,0.0313 0.0268,0.0645 0.24942,0.0168 0.12688,-0.0224 0.27616,0.0819 0.0625,0.004 0.24943,0.0168 0.0312,0.003 0.0623,0.004 0.0313,0.003 0.18476,0.0442 0.0935,0.008 0.27397,0.11309 0.0581,0.0668 0.14273,0.19784 -0.003,0.0313 0.0718,0.31828 0.009,0.31389 -0.008,0.12471 -0.082,0.27626 -0.0711,0.12033 -0.23786,0.26527 -0.2734,0.32552 -0.0376,0.0913 -0.0464,0.21599 0.018,0.18931 0.0494,0.1913 0.0269,0.0646 0.0268,0.0644 -0.003,0.0313 -0.003,0.0313 -0.004,0.0623 -0.003,0.0313 -0.0777,0.2138 -0.0377,0.0914 -0.0332,0.0288 -0.0376,0.0914 -0.004,0.0624 -0.008,0.12472 -0.004,0.0624 0.0513,0.16018 0.0247,0.0958 0.029,0.0332 0.0847,0.13123 0.11815,0.10229 0.12033,0.0711 0.26972,0.17553 0.17386,0.20003 0.0538,0.12906 0.0556,0.0981 -0.004,0.0624 0.0225,0.12688 -0.008,0.0935 -0.0167,0.24942 0.0515,0.16027 0.11378,0.16464 0.0871,0.10004 0.29639,0.23994 0.11814,0.10229 0.11382,0.16455 0.0225,0.12687 0.0225,0.12688 -0.0123,0.18716 -0.004,0.0622 -0.0313,-0.003 -0.003,0.0313 0.087,0.10003 -0.003,0.0313 0.0581,0.0668 -0.004,0.0624 -0.003,0.0313 -0.17119,0.20728 -0.0333,0.029 -0.0666,0.058 -0.0646,0.0269 -0.0957,0.0247 -0.0313,-0.003 -0.25375,0.0448 -0.003,0.0313 -0.0312,-0.003 -0.0399,0.12252 0.0268,0.0645 0.14276,0.19795 0.029,0.0333 -0.003,0.0312 0.029,0.0332 -0.003,0.0313 -0.003,0.0313 0.0312,0.003 -0.004,0.0623 -0.003,0.0313 -0.004,0.0624 -0.003,0.0313 0.0268,0.0645 -0.0732,0.15146 -0.008,0.0936 -0.003,0.0312 -0.008,0.0935 -0.003,0.0312 0.0289,0.0332 0.0224,0.12687 0.0828,0.16245 0.0312,0.003 0.0871,0.10004 0.14926,0.10447 0.0892,0.0688 0.0289,0.0333 0.11816,0.1022 0.0558,0.0978 0.0491,0.19149 0.0538,0.12906 0.0913,0.0376 -0.003,0.0312 0.12251,0.0401 0.0313,0.003 0.27615,0.082 0.15146,0.0733 0.0581,0.0667 0.0891,0.0689 0.0248,0.0956 0.0289,0.0333 0.0245,0.0956 0.0181,0.18932 -0.003,0.0313 -0.0443,0.18485 -0.0775,0.21383 -0.0357,0.0602 -0.0333,0.0289 -0.003,0.0312 -0.0332,0.0289 -0.004,0.0624 -0.0754,0.1827 -0.008,0.0934 0.0246,0.0957 0.018,0.18922 0.0449,0.25375 0.0537,0.12906 0.0268,0.0645 0.0581,0.0667 0.0869,0.10003 0.0313,0.003 0.0312,0.003 0.0914,0.0377 0.0332,-0.029 0.19358,-0.0804 0.15374,0.0421 0.12251,0.0399 0.11815,0.1023 0.0288,0.0332 0.0289,0.0332 0.0558,0.098 -0.008,0.12473 -0.0356,0.0601 -0.003,0.0313 -0.10002,0.087 -0.20023,0.17395 -0.0312,-0.003 -0.0733,0.15147 -0.008,0.1247 -0.003,0.0313 -0.003,0.0313 0.029,0.0332 0.0312,0.003 -0.003,0.0312 0.058,0.0668 0.0313,0.003 0.0913,0.0376 0.0313,0.003 0.0623,0.004 0.0646,-0.0268 0.0332,-0.0291 0.003,-0.0313 0.0332,-0.0289 0.0399,-0.12251 0.0689,-0.0892 0.19357,-0.0804 0.24943,0.0168 0.11815,0.10218 0.087,0.10013 -0.004,0.0624 -0.004,0.0624 -0.004,0.0624 -0.10661,0.18053 -0.0357,0.0601 -0.0356,0.0602 0.0268,0.0645 0.0269,0.0645 0.058,0.0667 0.0312,0.003 0.0289,0.0333 0.1247,0.008 0.0313,0.003 0.0312,0.003 0.0312,0.003 0.13124,-0.0849 0.1581,-0.0203 0.0624,0.004 0.0624,0.004 0.2472,0.0486 0.0313,0.003 0.12034,0.0711 0.06,0.0357 0.0559,0.0979 -0.004,0.0624 -0.008,0.12473 -0.0421,0.15364 -0.0377,0.0914 -0.0376,0.0915 -0.0356,0.06 -0.13343,0.116 -0.0357,0.0602 -0.004,0.0623 0.0225,0.12687 0.10726,0.25812 0.0289,0.0333 -0.003,0.0313 -0.003,0.0312 0.0289,0.0332 -0.0376,0.0914 -0.0689,0.0892 -0.0667,0.0579 -0.25593,0.0761 -0.0667,0.058 -0.0313,-0.003 -0.0357,0.0601 -0.003,0.0312 -0.003,0.0313 -0.003,0.0313 -0.004,0.0623 0.0558,0.098 -0.003,0.0312 0.0289,0.0333 0.116,0.13343 0.0536,0.12904 0.0269,0.0645 0.0161,0.22047 0.0268,0.0644 0.0246,0.0957 -0.003,0.0312 0.029,0.0333 0.0289,0.0333 0.0579,0.0666 0.0892,0.0689 0.0268,0.0644 0.0624,0.004 0.12034,0.0712 0.11815,0.10218 0.0312,0.003 0.058,0.0667 -0.003,0.0312 0.0869,0.10013 0.0246,0.0957 0.0225,0.12687 -0.0333,0.0289 -0.0487,0.24719 -0.003,0.0312 -0.003,0.0313 -0.003,0.0313 0.0248,0.0956 -0.003,0.0313 0.0602,0.0355 -0.003,0.0312 -0.003,0.0313 0.058,0.0667 0.0313,0.003 0.087,0.10013 0.0913,0.0376 0.27626,0.082 0.1225,0.04 0.087,0.10003 0.029,0.0334 0.0558,0.0978 0.0224,0.12688 0.0269,0.0645 -0.003,0.0313 -0.0358,0.0602 -0.003,0.0313 -0.0312,-0.003 -0.13776,0.17832 -0.10229,0.11815 -0.003,0.0313 -0.0117,0.15579 0.0119,0.28269 -0.0377,0.0913 -0.10437,0.14928 -0.16244,0.0827 -0.0623,-0.004 -0.0333,0.0288 -0.0313,-0.003 -0.0979,0.0559 -0.0377,0.0913 -0.042,0.15376 -0.008,0.0935 -0.008,0.0935 0.0871,0.10012 0.1804,0.1066 0.12034,0.071 0.1806,0.1067 0.0848,0.13124 0.0246,0.0957 0.0288,0.0332 -0.004,0.0624 -0.004,0.0624 -0.0688,0.0892 -0.0667,0.0579 -0.0958,0.0247 -0.158,0.0204 -0.30737,-0.0842 -0.0978,0.0559 -0.0333,0.0289 -0.0313,-0.003 -0.10005,0.0871 -0.0377,0.0913 -0.0333,0.029 -0.003,0.0313 -0.0117,0.1558 0.0203,0.15809 0.0247,0.0956 0.0891,0.069 0.0559,0.0978 0.0312,0.003 0.20519,0.20231 0.0579,0.0667 0.0225,0.12687 -0.003,0.0313 0.029,0.0332 -0.003,0.0313 -0.008,0.0935 -0.0465,0.2161 -0.071,0.12033 -0.30449,0.32325 -0.0357,0.0601 -0.0399,0.12252 -0.008,0.1247 -0.008,0.0937 0.0559,0.0979 0.0268,0.0645 -0.003,0.0312 0.0826,0.16246 0.0288,0.0333 0.0892,0.0688 0.058,0.0668 0.27406,0.1131 0.0601,0.0357 0.0558,0.0978 0.0269,0.0645 0.0246,0.0957 -0.008,0.0935 -0.0357,0.0602 -0.0712,0.12033 -0.0687,0.0892 -0.0691,0.0891 -0.0356,0.0601 -0.0376,0.0914 -0.0401,0.12252 -0.008,0.1247 0.0494,0.1913 0.0783,0.2248 0.0288,0.0332 0.18266,0.0756 0.0891,0.0688 0.0313,0.003 0.029,0.0333 0.0869,0.10004 -0.003,0.0313 0.0313,0.003 0.058,0.0667 -0.003,0.0312 0.0313,0.003 0.11598,0.13342 0.029,0.0333 0.0288,0.0333 0.0312,0.003 -0.003,0.0312 0.0624,0.004 0.0289,0.0332 0.0624,0.004 0.0624,0.004 0.0624,0.004 0.0313,0.003 0.003,-0.0313 0.0332,-0.0289 0.071,-0.12035 0.0596,-0.40311 0.0862,-0.33853 0.003,-0.0313 0.10012,-0.0869 0.0667,-0.0581 0.0624,0.004 0.1558,0.0117 0.0892,0.0691 0.0892,0.0688 0.0268,0.0646 0.0985,0.3828 -0.004,0.0623 0.0203,0.15811 0.0248,0.0956 -0.004,0.0625 -0.0358,0.0601 -0.0356,0.0602 27.37312,0.5358 0.007,-2.78759 -0.87725,10e-4 0.0113,-7.32958 31.76083,0.0594 -0.001,-9.83647 9.71197,-0.0102 -0.12654,-2.67153 4.66674,0.013 -0.46422,-17.10535 9.91203,-0.18401 -0.20878,-8.66066 -19.51018,0.35866 -0.0976,-1.29115 -9.56693,0.177 -0.0859,-6.83516 z"
       id="IA-04"
       style="font-style:normal;font-weight:400;font-size:34.375px;font-family:'MS Shell Dlg 2';opacity:1;fill:#000000;fill-opacity:1;fill-rule:evenodd;stroke:#000000;stroke-width:0.333;stroke-linecap:square;stroke-linejoin:bevel;stroke-miterlimit:4;stroke-dasharray:none;stroke-opacity:1" />
  </g>
</svg>
