<?xml version="1.0" encoding="UTF-8" standalone="no"?>
<!-- Created with Inkscape (http://www.inkscape.org/) -->

<svg
   xmlns:dc="http://purl.org/dc/elements/1.1/"
   xmlns:cc="http://creativecommons.org/ns#"
   xmlns:rdf="http://www.w3.org/1999/02/22-rdf-syntax-ns#"
   xmlns:svg="http://www.w3.org/2000/svg"
   xmlns="http://www.w3.org/2000/svg"
   xmlns:sodipodi="http://sodipodi.sourceforge.net/DTD/sodipodi-0.dtd"
   xmlns:inkscape="http://www.inkscape.org/namespaces/inkscape"
   width="10.923086mm"
   height="21.006744mm"
   viewBox="0 0 38.703848 74.433346"
   id="svg3885"
   version="1.1"
   inkscape:version="0.91 r"
   sodipodi:docname="10.svg">
  <defs
     id="defs3887" />
  <sodipodi:namedview
     id="base"
     pagecolor="#ffffff"
     bordercolor="#666666"
     borderopacity="1.0"
     inkscape:pageopacity="0.0"
     inkscape:pageshadow="2"
     inkscape:zoom="16.148646"
     inkscape:cx="8.8691353"
     inkscape:cy="37.52073"
     inkscape:document-units="px"
     inkscape:current-layer="layer1"
     showgrid="false"
     inkscape:window-width="2560"
     inkscape:window-height="1388"
     inkscape:window-x="0"
     inkscape:window-y="0"
     inkscape:window-maximized="1"
     fit-margin-top="1"
     fit-margin-left="1"
     fit-margin-right="1"
     fit-margin-bottom="1" />
  <metadata
     id="metadata3890">
    <rdf:RDF>
      <cc:Work
         rdf:about="">
        <dc:format>image/svg+xml</dc:format>
        <dc:type
           rdf:resource="http://purl.org/dc/dcmitype/StillImage" />
        <dc:title></dc:title>
      </cc:Work>
    </rdf:RDF>
  </metadata>
  <g
     inkscape:label="Layer 1"
     inkscape:groupmode="layer"
     id="layer1"
     transform="translate(-200.12929,-346.33141)">
    <path
       inkscape:connector-curvature="0"
       d="m 208.45516,394.85388 1.5,0.71871 1.2188,0.5 0.375,0.34379 0.625,-1.375 c 0.3745,0.0125 0.8351,0.1674 1.2188,0.375 0.3836,0.20761 0.6862,0.47571 0.75,0.78121 l -0.625,1.625 0.9374,-0.375 0.375,0.34379 1.1563,-0.2812 3.7187,1.7812 1.5,-3.25 -3.1874,-2.0312 0.125,-0.43759 -0.031,0 -1.4375,-2.46871 -1.1875,-0.75 0.031,-0.5937 -1.0313,-0.5 -0.8125,-1 -0.125,0.0937 -0.031,0.0625 -0.031,0 -0.094,0.0938 -0.031,0.1562 0,0.0625 -0.062,0.3125 -0.031,0.0312 -0.063,0.18759 -0.031,0.0312 -0.031,0.0625 -0.031,0.0937 -0.2813,0.25 -0.125,0.0313 -0.25,0.21871 -0.094,0.0626 -0.094,0.125 -0.094,0.0937 -0.031,0.0313 0,0.0312 -0.031,0.0625 -0.031,0.0313 -0.031,0.1562 0,0.0312 0,0.0938 0,0.0312 0,0.0313 0.031,0.0313 0,0.0624 0.031,0.0938 0.031,0.1875 0.031,0.0313 0.031,0.0624 0.031,0.0626 0.031,0.0312 0.062,0.125 0.031,0.0312 0.031,0 0.031,0.0626 0,0.0312 0.031,0.0312 0.063,0.0626 0,0.125 0,0.0937 0.031,0.125 -0.031,0.125 -0.031,0.0937 -0.062,0.15629 -0.031,0.0625 -0.031,0.0625 -0.094,0.0937 -0.5,0.15629 -0.1563,0.0625 -0.031,0 -0.094,0.0625 -0.094,0.125 -0.031,0.0313 -0.062,0.125 -0.1562,0.25 -0.1563,0.18741 -0.1563,0.125 -0.125,0.0938 -0.1562,0.0938 -0.25,0.1562 -0.2812,0.15621 -0.031,0 -0.3125,0.0938 -0.031,0.0312 -0.063,0.0313 -0.125,0.0313 -0.062,0 -0.1876,0.0312 -0.125,0.0312 -0.031,0.0313 -0.094,0.0313 -0.1562,0.0624 -0.2188,0.15629 -0.062,0.0625 -0.063,0.0625 z"
       id="NJ-01"
       style="font-style:normal;font-weight:400;font-size:34.375px;font-family:'MS Shell Dlg 2';opacity:1;fill:none;fill-opacity:1;fill-rule:evenodd;stroke:#000000;stroke-width:0.33333385;stroke-linecap:square;stroke-linejoin:bevel;stroke-miterlimit:4;stroke-dasharray:none;stroke-opacity:1" />
    <path
       inkscape:connector-curvature="0"
       d="m 235.11146,389.29138 -0.1875,-0.0312 c -0.189,0.1302 -0.3326,0.0967 -0.4375,0.0312 -0.1049,-0.0655 -0.1777,-0.1633 -0.2813,-0.1875 -0.2085,-0.0489 -0.2892,0.0352 -0.2812,0.1875 0.01,0.1523 0.1126,0.3805 0.2188,0.625 0.2123,0.4889 0.4809,1.0462 0.375,1.25 -0.472,-0.0547 -0.2526,-0.2668 -0.5313,-0.3125 -0.3006,-0.0492 -0.6574,0.003 -0.8125,0.3125 l -0.6875,-0.1875 -0.1563,0.7813 0.094,0.2187 c -0.1529,0.2308 -0.3277,0.1627 -0.5,0.1563 -0.1723,-0.006 -0.3325,0.0426 -0.4375,0.43741 l -1.375,-0.40621 -1.25,-1.4062 -2,0.93741 -1.1875,0.375 -3.3125,2.25 -2.0937,-1.21871 -0.75,0 -1,0.625 -0.375,-0.15629 -0.125,0.43759 3.1874,2.0312 -1.5,3.25 -3.7187,-1.7812 -1.1563,0.2812 -0.375,-0.34379 -0.9374,0.375 0.625,-1.625 c -0.064,-0.30551 -0.3664,-0.5736 -0.75,-0.78121 -0.3837,-0.2076 -0.8443,-0.3625 -1.2188,-0.375 l -0.625,1.375 -0.375,-0.34379 -1.2188,-0.5 -1.5,-0.71871 -0.031,0.0313 -0.062,0.0937 -0.031,0.0313 -0.1562,0.2812 -0.062,0.125 -0.062,0.0625 -0.062,0.0937 -0.031,0.0938 -0.1562,0.1875 -0.125,0.1875 -0.031,0 -0.031,0.0938 -0.031,0.0312 -0.1562,0.1875 0.2188,0.0937 -0.375,0.375 -0.1563,0.125 -0.031,0.0626 -0.094,0.1562 -0.062,0.125 0,0.0312 0.031,0 -0.062,0.15629 -0.125,0.125 -0.031,0.0937 0,0.0626 0,0.0624 0,0.15629 0,0.0625 0,0.2188 0,0.0624 -0.031,0.0938 0,0.0938 0,0.0624 0,0.0626 0.031,0.0624 0,0.125 0,0.125 0.031,0.0313 0.031,0.125 -0.031,0.0313 -0.063,0 -0.031,-0.0313 -0.062,0 -0.062,0.0625 0,0.125 -0.031,0.0312 0,0.0626 -0.031,0.18741 -0.125,0.125 -0.062,0.0626 0,0.0624 0.062,0.21879 0,0.0312 0.031,0.28129 0,0.0313 0,0.18741 -0.031,0.0626 -0.031,0.0937 -0.062,0.0937 -0.031,0.0938 0,0.0625 0,0.0313 -0.031,0.0624 -0.031,0.0938 -0.031,0 -0.031,0.0938 -0.062,0.0624 -0.062,0.0313 -0.031,0.0313 0,0.0312 -0.031,0.0938 -0.062,0.0937 -0.094,0.125 0,0.0625 -0.031,0.0938 0.031,0 0.031,0.1562 0.062,0.1875 0.094,0.125 0,0.0625 0.031,0.0625 0.031,0.0313 0.062,0.0937 0.2188,0.0937 0.031,0 0.094,0.0313 0.031,0 0.031,0.0313 0.094,0.0312 0.094,0.0625 0.1562,0.0625 0.063,0 0.062,0 0.094,0.0312 0.062,0.0626 0.125,0.2812 -0.031,0.0938 0,0.0624 -0.031,0.18759 -0.094,0.25 -0.094,0.18741 0,0.0626 0.094,0.0937 0.063,0.0313 0.062,0.0937 0.031,0.125 0.062,0.4375 0,0.0312 0.031,0.125 0.063,0.0938 0.031,0.0312 0.031,0 -0.031,0.0626 -0.2812,0.125 0.094,0.43741 0,0.0313 0.031,0.0625 0.094,0.1875 0.1875,0.21871 0.062,-0.0312 0.5313,-0.0938 0.094,0.0938 0.031,0.0312 0,0.0313 0.1874,0.0313 0.375,0.1562 0.1563,0.0312 0.2187,-0.0937 0.031,0 0.2187,0.25 0.2188,0.25 0.125,0.125 0.1875,0.21871 0.3125,0.21879 0.25,0.0625 0,0.0313 0.1875,0 0.1563,0 0.094,0.0312 0.062,0 0.031,0 0.063,0.0625 0.094,0.125 0,0.0313 0,0.0624 0.062,0.125 0.125,0.125 0.6562,0.28129 0.063,-0.0625 0.062,-0.0938 0.031,-0.0624 0.2813,-0.125 0.1874,0.0624 0.125,0.0626 0.063,0.0624 0,0.0313 0.062,0.1563 0.1876,0.18741 0.2187,0.31259 0.2813,0.18741 0.375,0.18759 0.062,0.0312 0.063,-0.0938 0,-0.18741 0.031,-0.0313 0.1562,-0.1875 0.094,0 0.125,0 0.2188,0 0.031,0 0.25,0.3125 0.062,0.0625 0.031,0.0938 0,0.0937 0.062,0.0625 0.031,0 0.094,0.0312 0.3126,0.0626 0.094,0 0.1875,0.0312 0.125,-0.0312 0.75,0.375 0.2188,0.1562 0.25,0.4688 0.062,0.18741 0.031,0.21879 0.25,0.125 0.25,0.125 0.25,0.15621 0.062,0 0.125,-0.34371 0.031,-0.1875 0.063,-0.375 0.062,-0.0625 0.063,-0.0625 0,-0.0312 0.1562,-0.0313 0.094,0 0.2187,0 0.4687,-0.28129 0.2188,-0.0624 0.094,0 0.062,-0.0626 0.063,-0.0624 0.094,-0.0313 0.1563,0.0625 0.094,0.0312 0.031,0.0313 0.062,0.0937 0.031,0.0313 -0.062,0.125 0,0.125 0.062,0.0313 0.3437,-0.0626 0.2813,-0.0624 0.2187,-0.0626 0.1876,-0.0937 0.031,0 0.094,0 0.1562,-0.0313 0.062,0 0.031,0 0.5937,0.0313 0.4687,0 0.1563,0.0313 0.094,0 0.3438,0.2187 0.125,0.0937 0.031,0 0,0.0313 0.125,0.375 0.125,0.8125 0,0.0312 0,0.25 0,0.18759 -0.031,0.18741 0,0.15629 0,0.0937 -0.062,0.125 -0.094,0.5 -0.031,0.31259 -0.031,0.125 -0.062,0.3437 0,0.0313 -0.031,0.0937 -0.031,0.1563 0,0.0937 0,0.1563 -0.031,0 0,0.18741 0,0.0313 0,0.1875 0,0.0625 0,0.1563 0,0.125 0,0.0937 0.031,0.21871 0,0.0626 0.031,0.4062 0,0.0312 0,0.0313 0.062,0.7813 0.1562,0.125 0.094,0.0624 0.062,-0.0312 0.5937,-0.0938 0.1563,-0.0624 0.094,-0.0313 0.031,0 0.062,-0.0625 0.125,-0.0625 0.062,-0.0313 0.2813,-0.28121 0.094,-0.0625 0.062,-0.0937 0.2188,-0.0938 0.062,0 0.063,0 0.031,0.0312 0.1875,-0.46871 0.062,-0.0937 0.25,-0.5 0.031,-0.0626 0.063,-0.125 0.062,-0.0937 0.125,-0.1875 0.063,-0.0625 0.094,-0.0937 0.1563,-0.1563 0.062,-0.25 0,-0.0313 0,-0.65621 0.2188,-0.9375 0.094,-0.3125 0.094,-0.375 0.2187,-0.4375 0.125,-0.3125 0.031,-0.0312 0,-0.0313 0.094,-0.15629 -0.031,-0.15621 -0.25,-0.125 -0.031,-0.0312 0,-0.0938 0.031,-0.21879 0.031,-0.0937 0.031,-0.0937 0,-0.0938 0.031,-0.125 0.062,-0.3125 0.031,-0.15629 0.031,0 0.125,-0.71871 0.031,-0.0937 0.031,-0.0313 0.2188,-0.5625 0.031,-0.0312 0,-0.2813 0,-0.0625 -0.031,-0.0312 0.1562,-0.31259 0.063,-0.15621 0.1562,-0.4375 0.031,-0.15629 0,-0.0312 0,-0.0312 0.094,-0.1563 0.125,-0.25 0.031,-0.0625 0.125,-0.21879 0.031,-0.0312 0,-0.0312 0.062,-0.0626 0.031,-0.0624 0,-0.0313 0.094,-0.0625 0.094,-0.0938 0.062,-0.0624 0.031,-0.0313 0.031,-0.0313 0.031,-0.0312 0.031,-0.0312 0,-0.0313 0.031,-0.0625 0,-0.0312 0.031,-0.0626 0,-0.0624 0,-0.0938 0,-0.0938 0.1562,-0.25 0.2812,-0.46871 0.125,-0.125 0.063,-0.0937 0.031,-0.0626 0.031,0 0.031,-0.0312 0.031,-0.0938 0.031,0 0.031,-0.0312 0.063,-0.0625 0.031,-0.0625 0.031,-0.0312 0.031,-0.0313 0.094,-0.125 0.063,-0.0625 0.031,-0.0312 0.031,-0.0626 0.063,-0.0312 0.094,-0.125 0.062,-0.0938 0.062,-0.0624 0,-0.0313 0.094,-0.0625 0.063,-0.0625 0.094,-0.0625 0.062,-0.0625 0.062,-0.0625 0.1563,-0.0938 0.031,-0.0312 0.125,-0.125 0.094,-0.0938 0.062,-0.0312 0.031,-0.0312 0,-0.0313 0.062,-0.125 -0.031,-0.0937 0,-0.0313 0,-0.0313 -0.031,-0.0937 0,-0.0937 0.1875,-0.25 0.031,-0.0938 0.063,-0.0625 0.062,-0.125 0.1563,-0.1875 0.031,-0.0312 0.062,-0.125 0.031,-0.0313 0,-0.0313 0.062,-0.125 0.094,-0.25 0.25,-0.59371 0.094,-0.375 0.2187,-0.875 0,-0.2187 -0.094,-0.0938 -0.094,0 -0.1876,-0.25 0,-0.0625 -0.031,-0.0937 0,-0.18759 0.2812,-0.125 0.094,-0.0312 0.031,-0.0312 0.2188,-0.25 0.1562,-0.5938 0.1563,-0.46879 0,-0.0312 0.031,-0.0312 0.031,-0.0938 0.031,-0.0625 0.031,-0.0313 0,-0.0624 0.094,-0.4063 0.125,-0.5937 0,-0.0313 0,-0.0625 0.031,-0.0938 0.062,-0.28121 0.125,-0.6875 0.094,-0.3125 0.094,-0.46879 0.031,-0.0624 0.125,-0.56259 0.125,-0.46871 0.031,-0.125 0,-0.0313 0,-0.0312 0,-0.0625 0.062,-0.5625 0.031,-0.25 0.062,-0.625 0,-0.0312 0,-0.0626 0.063,-0.125 0.062,-0.31241 0.031,-0.0938 z"
       id="NJ-02"
       style="font-style:normal;font-weight:400;font-size:34.375px;font-family:'MS Shell Dlg 2';opacity:1;fill:none;fill-opacity:1;fill-rule:evenodd;stroke:#000000;stroke-width:0.33333385;stroke-linecap:square;stroke-linejoin:bevel;stroke-miterlimit:4;stroke-dasharray:none;stroke-opacity:1" />
    <path
       inkscape:connector-curvature="0"
       d="m 233.73646,380.88518 -0.9063,0.0312 -0.3437,-1.0625 -0.6563,-0.6875 -0.7187,1.3125 0.5625,2.125 -2.5,-0.4375 1.1875,1.5938 -0.625,0.3437 -2.5,4.75 -5.375,-6.625 c -0.9167,0.0731 -1.8333,-0.0998 -2.75,-0.625 -0.1747,0.2167 -0.1685,0.4646 0.1563,0.6563 l -0.094,0.4687 -0.1875,0.0625 -0.031,0.0625 -0.2187,0.375 -0.031,0.0313 -0.062,0.0312 -0.1876,0.0312 -0.031,0 -0.031,0.0313 -0.031,0.0313 -0.062,0.0312 0,0.0312 -0.094,0.125 -0.125,0.15629 -0.094,0.125 -0.062,0.0625 -0.031,0 -0.031,0 -0.062,0 -0.1875,0 -0.125,0 -0.125,0 -0.062,-0.0312 -0.062,0.0312 -0.062,0 -0.062,0.0312 -0.031,0.0938 -0.031,0.125 -0.031,0.0625 0,0.0313 0,0.0312 0,0.15621 0,0.125 0,0.0938 -0.031,0.0938 -0.062,0.125 -0.062,0.0312 -0.031,0 0,0.0312 -0.062,0.0313 0,0.0313 -0.031,0.0624 -0.031,0.0626 -0.031,0.0624 0,0.125 0,0.0313 -0.062,0.0625 -0.094,0.0625 -0.2188,0.125 -0.125,0.125 -0.2188,0.1563 -0.062,0.0624 -0.125,0.0626 -0.031,0.0312 -0.2187,0.0312 -0.063,0.0313 -0.031,0 -0.031,0.0313 -0.094,0.0624 0,0.0313 -0.1875,0.1875 -0.062,0.0625 -0.25,0.2813 -0.094,0.0937 -0.125,0.1563 -0.094,0.1562 -0.031,0.0625 -0.031,0.0625 -0.031,0.0312 -0.031,0.0938 -0.1875,0.3125 -0.062,0.1563 -0.062,0.0937 -0.031,0.0313 -0.031,0 0,0.0312 -0.094,0.0625 -0.1563,0.125 -0.031,0 -0.031,0.0313 0.8125,1 1.0313,0.5 -0.031,0.5937 1.1875,0.75 1.4375,2.46871 0.031,0 0,0 0.375,0.15629 1,-0.625 0.75,0 2.0937,1.21871 3.3125,-2.25 1.1875,-0.375 2,-0.93741 1.25,1.4062 1.375,0.40621 c 0.105,-0.39481 0.2652,-0.44391 0.4375,-0.43741 0.1723,0.006 0.3471,0.0745 0.5,-0.1563 l -0.094,-0.2187 0.1563,-0.7813 0.6875,0.1875 c 0.1551,-0.30939 0.5119,-0.3617 0.8125,-0.3125 0.2787,0.0457 0.059,0.2578 0.5313,0.3125 0.1059,-0.2038 -0.1627,-0.7611 -0.375,-1.25 -0.1062,-0.2445 -0.2108,-0.4727 -0.2188,-0.625 -0.01,-0.1523 0.073,-0.2364 0.2812,-0.1875 0.1036,0.0242 0.1764,0.122 0.2813,0.1875 0.1049,0.0655 0.2485,0.099 0.4375,-0.0312 l 0.1875,0.0312 0,-0.125 0,-0.0312 -0.031,-0.0938 -0.1562,-0.9062 -0.3125,-1.56259 -0.031,-0.0937 -0.094,-0.40629 -0.125,-0.71871 -0.031,-0.0937 -0.031,-0.18759 0,-0.0624 -0.062,-0.2188 0,-0.0938 -0.031,-0.25 -0.031,-0.0937 0,-0.0937 -0.031,-0.25 -0.031,-0.18759 -0.031,-0.0937 -0.031,-0.3125 0,-0.0625 -0.062,-0.15629 0,-0.0312 0,-0.0312 -0.031,-0.25 -0.031,-0.3438 -0.031,-0.1562 -0.063,-0.5938 -0.094,-0.875 0,-0.0312 z"
       id="NJ-03"
       style="font-style:normal;font-weight:400;font-size:34.375px;font-family:'MS Shell Dlg 2';opacity:1;fill:none;fill-opacity:1;fill-rule:evenodd;stroke:#000000;stroke-width:0.33333385;stroke-linecap:square;stroke-linejoin:bevel;stroke-miterlimit:4;stroke-dasharray:none;stroke-opacity:1" />
    <path
       inkscape:connector-curvature="0"
       d="m 233.33016,376.32259 -0.4687,0.31259 c -0.1503,-0.3911 -0.052,-0.5981 0.031,-0.8438 0.083,-0.2457 0.1456,-0.5239 -0.063,-1 l -0.4687,0.25 -0.875,-1.0625 1.1875,-1.4687 -0.375,-0.7188 c -0.4313,0.1228 -0.7512,0.2989 -1,0.53121 -0.2488,0.23239 -0.433,0.52109 -0.5312,0.84379 l -0.8126,-1.4062 -1.0937,0.2812 0,-0.46879 -1.375,1.09379 0.7187,1.53121 -0.5624,0.28129 0.5312,1.7813 c -0.5273,-0.35089 -0.9489,-0.3043 -1.3438,-0.125 l -0.031,-0.4688 -1.3125,-0.625 -0.875,1.875 0.1563,0.25 -1.25,1.1875 -0.5313,0.125 0.1875,0.25 -1,1.09371 -0.062,-0.43741 -1.2187,-0.68759 -0.094,0.375 -1.0938,0.68759 c -0.028,-0.0293 -0.069,-0.1555 -0.094,-0.18759 -0.098,-0.11031 -0.1812,-0.2704 -0.3437,-0.28121 -0.2297,0.1156 -0.4802,0.0971 -0.7188,0.1875 -0.2417,0.0477 -0.2772,0.3016 -0.3125,0.5 -0.026,0.2111 -0.2633,0.3185 -0.2813,0.5313 -0.046,0.1734 0.039,0.3251 0.125,0.4687 0.054,0.1606 0.3232,0.2763 0.2188,0.46871 -0.1304,0.16389 -0.078,0.36359 -0.062,0.56259 l 0.062,0 0.1562,0.0624 0.094,0.0626 0.375,0.2812 0.031,0.0625 0.031,0.125 0,0.0937 0,0.0938 0.1875,-0.0625 0.094,-0.4687 c -0.3248,-0.19169 -0.331,-0.4396 -0.1563,-0.6563 0.9167,0.5252 1.8333,0.6981 2.75,0.625 l 5.375,6.625 2.5,-4.75 0.625,-0.3437 -1.1875,-1.5938 2.5,0.4375 -0.5625,-2.125 0.7187,-1.3125 0.6563,0.6875 0.3437,1.0625 0.9063,-0.0312 -0.062,-0.4688 0,-0.1562 0,-0.0626 0,-0.0624 -0.031,-0.2188 0,-0.1875 0.031,-0.0313 -0.031,-0.0312 -0.063,-0.0312 -0.062,-0.4063 0,-0.15629 -0.031,-0.28121 0,-0.1562 -0.031,-0.4063 -0.031,-0.4375 0,-0.21879 0,-0.0624 0,-0.0626 0,-0.0937 -0.031,-0.0937 0,-0.0626 0,-0.125 0,-0.0937 -0.031,-0.0625 0,-0.0938 0,-0.0624 0,-0.1563 -0.031,-0.25 0,-0.0313 z"
       id="NJ-04"
       style="font-style:normal;font-weight:400;font-size:34.375px;font-family:'MS Shell Dlg 2';opacity:1;fill:none;fill-opacity:1;fill-rule:evenodd;stroke:#000000;stroke-width:0.33333385;stroke-linecap:square;stroke-linejoin:bevel;stroke-miterlimit:4;stroke-dasharray:none;stroke-opacity:1" />
    <path
       inkscape:connector-curvature="0"
       d="m 209.76776,350.04138 -0.094,0.0938 -0.094,0.0312 -0.062,0.0625 -0.2188,0.2187 -0.1562,0.125 -0.125,0 -0.3126,0.0938 -0.031,0.0312 -0.031,0 -0.031,0.0313 -0.031,0.1563 0,0.125 0,0.0937 0,0.0313 0,0.0312 -0.031,0.0625 -0.062,0.0937 0,0.0626 -0.031,0 -0.031,0 -0.031,0.0312 -0.063,0 -0.062,0.0312 -0.031,0.0313 -0.062,0.0313 -0.031,0 -0.031,0.0312 -0.031,0 0,0.0312 -0.031,0.0626 -0.031,0.0624 0.031,0 0.094,0.0938 0.031,0.0625 -0.031,0.0313 -0.2188,0.2812 -0.062,0.1875 -0.062,0.0625 -0.094,0.0938 -0.125,0.2187 -0.031,0.1875 -0.031,0.0938 -0.031,0.0624 0,0.0313 0,0.0313 0,0.125 -0.031,0.25 0,0.0312 0.063,0.0625 0,0.0937 0,0.0626 -0.031,0.0624 -0.094,0.0626 -0.031,0 -0.031,0.0624 0,0.2188 0,0.125 -0.031,0.1562 0,0.12501 0.031,0.0313 0.1563,0.0625 0.031,0.0625 0,0.0313 0.031,0 -0.031,0.0624 -0.063,0.25 -0.031,0.21879 0,0.0312 0,0.0626 -0.031,0.25 0.031,0.0937 -0.031,0.1875 -0.094,0.25 -0.1562,0.25 0,0.0938 0,0.0624 -0.031,0.18759 -0.2187,0.56241 -0.125,0.18759 -0.25,0.18741 -0.031,0.0938 0.031,0.0625 -0.031,0 -0.25,0.375 -0.031,0 -0.062,0.0313 -0.063,0.0312 -0.125,0.125 -0.031,0.0625 -0.062,0.5 0.031,0.0937 0.031,0 0.031,0 0.094,-0.0312 0,-0.0312 0.062,-0.0313 0.062,-0.125 0,-0.0313 0.062,-0.0624 0.062,-0.0313 0.031,0.0313 0.031,0 0,0.0312 0,0.0312 0,0.125 0,0.0938 -0.2187,0.2188 -0.125,0.0937 -0.094,0.0625 -0.062,0.0938 -0.094,0.2187 -0.094,0.0313 -0.031,0.0312 0,0.15621 0,0.0938 0,0.0938 -0.031,0.0624 -0.062,0.21879 0,0.0625 0.031,0.0937 0,0.0313 -0.094,0.0625 -0.062,0.0625 -0.062,0.1875 -0.062,0.0625 -0.4375,0.46871 -0.094,0.0626 -0.125,0.0312 -0.1563,0.125 0,0.0312 -0.031,0.0313 0,0.0313 -0.031,0.0937 -0.031,0 -0.031,0.0625 -0.031,0.0312 -0.1562,0.125 0,0.0626 -0.2188,0.2187 -0.062,0.0937 -0.031,0.0313 0,0.0313 -0.031,0.0312 0,0.0312 0,0.0313 0,0.0313 0.031,0.0937 0.031,0.0625 0,0.0625 -0.031,0.125 0.031,0.0625 0.031,0.0625 0.062,0.0313 0.062,0 0.125,-0.0626 0.031,0 0.031,0.0313 0.031,0.0313 0,0.0937 0,0.0313 0.031,0 0.062,0.1562 0.062,0.0938 0.125,0.0937 0.2188,0.1875 0.031,0.0938 0.1562,0.125 0.063,0.0937 0.062,0.0313 0.1876,0.0937 0.031,0 0.2188,0.0937 0.062,0.0626 0,0.0312 0.031,0.0625 0.094,0.1875 0.031,0.125 0,0.0312 0.062,0.0313 0.2188,0.1563 0.031,0 0.062,0.0624 0.094,0.0938 0.1563,0.0938 0.031,0.0312 0.031,0.0312 0.031,0.0626 0,0.0624 0,0.0313 0,0.0937 0,0.0313 0,0.0313 -0.094,0.2187 -0.031,0.1563 -0.031,0.0312 -0.094,0.0312 -0.062,-0.0312 -0.063,0 -0.3124,0.0938 -0.063,0.0937 -0.031,0.0625 0.031,0.0625 0,0.0313 0.031,0.0624 0.062,0.0313 0.1875,0.125 0.031,0 0.031,0 0.031,0.0313 0,0.0312 0.031,0 0,0.0938 0,0.0937 -0.062,0.1875 -0.062,0.125 -0.031,0 0,0.0625 -0.031,0.0937 0,0.0626 0.031,0.0312 0.031,0.0625 0,0.0313 -0.094,0.31241 -0.031,0.0313 -0.031,0 -0.031,0.0313 0.2188,0.0937 1.4687,0.0313 1.5937,1.3437 c 0.4192,-0.2474 0.3817,-0.757 0.5,-1.0625 0.1687,-0.4727 0.5222,-0.744 0.625,-1.25 0.057,-0.5207 0.6097,-0.8449 0.8126,-1.2812 0.166,-0.4436 0.2433,-0.8216 0.2812,-1.2813 0.1644,-0.3962 0.099,-0.8374 0.1562,-1.25 0.1303,-0.2577 0.3175,-0.4669 0.5,-0.6875 l -0.6874,-0.46879 1.4687,-2.65621 -0.375,-1.375 0.125,-1.1875 0.3437,-0.7187 2.5626,1 0.5,-1 0.375,0.2187 0.094,1.125 0.8437,-0.75 1.4063,0.6563 0.625,-0.0938 0.031,-1.4062 0.7187,-0.5313 1.125,-0.0937 -0.031,1.25 0.7188,0.5937 0.5625,0.1563 1.1563,-0.2188 -0.094,-0.25 0.8438,0.3438 -0.031,0.68741 c 0.2408,0.0762 0.3612,0.35329 0.625,0.34379 0.2522,-0.0212 0.5014,0.0217 0.75,-0.0312 0.2625,0.0347 0.2828,0.3804 0.4687,0.5312 -0.086,0.1932 -0.2444,0.5272 -0.062,0.6875 0.2615,0.0424 0.3312,-0.3926 0.625,-0.28129 0.2762,0.0406 0.5828,0.25289 0.8437,0.0626 0.254,-0.1468 0.085,-0.4584 0.125,-0.68759 -0.1234,-0.30671 0.3568,-0.32751 0.25,-0.625 -0.042,-0.37481 0.031,-0.75541 -0.062,-1.125 -0.086,-0.2097 0.104,-0.49881 0.2812,-0.25 0.1163,0.1628 0.5217,-0.15381 0.5,0.18759 0,0.1004 0.017,0.213 0.031,0.31241 l 0.5625,0.25 0,-0.0624 0,-0.0313 0,-0.0625 0,-0.0312 0,-0.0313 0,-0.1875 -0.031,-0.2812 0,-0.18759 -0.031,-0.28121 0,-0.1875 -0.031,-0.5 0,-0.1875 -0.062,-0.4375 -0.1876,0.0625 -0.062,0 -0.031,-0.0312 -0.125,-0.0313 -0.2187,-0.0313 -0.031,-0.0312 -0.4063,-0.0938 -0.1562,-0.0312 -0.1562,-0.0312 -0.031,0 -0.1563,-0.0313 -0.1874,-0.0625 -0.2188,-0.0625 -0.4062,-0.0937 -0.1563,-0.0313 -0.3125,-0.0625 -0.2812,-0.0938 -0.031,0 -0.1875,-0.0312 -0.062,-0.0312 -0.031,0 -0.094,-0.0313 -0.25,-0.0313 -0.062,-0.0312 -0.062,0 -0.031,-0.0312 -0.2187,-0.0313 -0.094,-0.0313 -0.1876,-0.0312 -0.062,-0.0312 -0.25,-0.0626 -0.125,0 -0.031,-0.0312 -0.125,-0.0312 -0.062,0 -0.125,-0.0313 -0.1875,-0.0625 -0.031,0 -0.031,0 -0.125,-0.0312 -0.062,0 -0.2813,-0.0938 -0.125,0 -0.031,0 -0.031,-0.0312 -0.2188,-0.0626 -0.031,0 -0.031,0 -0.031,0 -0.4687,-0.125 -0.3125,-0.0624 -0.2812,-0.0626 -0.1563,0 -0.4687,-0.0937 -0.031,-0.0313 -0.1875,-0.0312 -0.031,0 -0.8438,-0.21879 -0.5312,-0.125 -0.5,-0.125 0,-0.0312 -0.1876,-0.0312 -0.2812,-0.0938 -0.062,0 -0.094,-0.0312 -0.1876,-0.0313 -0.25,-0.0625 -0.094,-0.0312 -0.125,-0.0313 -0.094,-0.0313 -0.063,-0.0312 -0.062,0 -0.7188,-0.21879 -0.031,0 -0.125,-0.0624 -0.031,0 -0.062,0 -0.031,0 -0.094,-0.0313 -0.2812,-0.0937 -0.4063,-0.125 -0.2813,-0.0626 -0.062,-0.0312 -0.1563,-0.0312 -0.5313,-0.125 -0.625,-0.1563 -0.25,-0.0937 -0.4687,-0.125 -0.094,-0.0313 -0.031,0 -0.031,0 -0.2812,-0.0625 -0.8125,-0.21879 -0.8125,-0.21871 -0.1875,-0.0313 -0.3125,-0.0937 -0.2812,-0.0625 -0.2813,-0.0938 -0.1563,-0.0312 -0.062,0 z"
       id="NJ-05"
       style="font-style:normal;font-weight:400;font-size:34.375px;font-family:'MS Shell Dlg 2';opacity:1;fill:none;fill-opacity:1;fill-rule:evenodd;stroke:#000000;stroke-width:0.33333385;stroke-linecap:square;stroke-linejoin:bevel;stroke-miterlimit:4;stroke-dasharray:none;stroke-opacity:1" />
    <path
       inkscape:connector-curvature="0"
       d="m 225.95516,367.51018 -1.125,0.2812 -0.5937,0.375 -0.4063,-0.34379 c 0,0 0,0 0,0 l -0.9374,0.375 c 0,0 0,0 0,0 l -2.0313,0.875 c 0.025,0.3716 -0.3581,0.60179 -0.5,0.90629 -0.148,0.27871 -0.4718,0.48501 -0.375,0.84371 0.1108,0.31769 0.518,0.35389 0.8125,0.375 0.3614,0.0476 0.6548,0.34959 0.6875,0.71879 0.064,0.2297 -0.3416,0.5482 -0.1875,0.65621 0.3791,2.9e-4 0.5966,-0.3741 0.9688,-0.43741 0.2923,-0.1391 0.472,-0.4982 0.8124,-0.5313 0.3944,0.0608 0.2602,0.59551 0.5938,0.75 0.2159,0.2141 0.5414,0.3383 0.625,0.6563 0.088,0.3268 0.3028,-0.2334 0.375,-0.3438 0.1396,-0.2684 0.1317,-0.7884 0.5,-0.8125 0.1412,0.0189 0.3051,0.0208 0.4062,0.0937 0.1012,0.073 0.151,0.1952 0.094,0.375 0.053,0.17339 0.2581,0.26269 0.1875,0.5 0.053,0.31549 -0.3255,0.47159 -0.2187,0.81259 -0.042,0.2873 0.3394,0.1581 0.3437,0.4062 l -0.5,1 1.3125,0.625 0.031,0.4688 c 0.3949,-0.1793 0.8165,-0.2259 1.3438,0.125 l -0.5312,-1.7813 0.5624,-0.2813 -0.7187,-1.5312 1.375,-1.0938 0,0.4688 1.0937,-0.2812 0.8126,1.4062 c 0.098,-0.3227 0.2824,-0.6114 0.5312,-0.8438 0.2488,-0.2323 0.5687,-0.4084 1,-0.5312 l 0.375,0.7188 -1.1875,1.4687 0.875,1.0625 0.4687,-0.25 c 0.2082,0.4761 0.1459,0.7543 0.063,1 -0.083,0.2457 -0.1816,0.4527 -0.031,0.8438 l 0.4687,-0.3126 0,-0.0937 0,-0.0313 0,-0.0624 0,-0.125 0,-0.0313 0,-0.0937 -0.031,-0.125 -0.062,-0.6563 0,-0.1875 0,-0.0938 -0.031,-0.1562 0,-0.0938 -0.031,-0.1874 -0.031,-0.25 0,-0.125 -0.031,-0.0938 -0.031,-0.125 -0.031,-0.1875 -0.031,0 -0.031,-0.2187 -0.062,-0.2813 -0.031,-0.2187 -0.031,-0.1563 -0.031,-0.0937 -0.094,-0.3438 -0.094,-0.2812 -0.1563,-0.3438 -0.1563,-0.375 -0.125,-0.2188 -0.2812,-0.8437 -0.5938,-0.6563 -0.1874,-0.0624 -0.094,-0.0626 -0.1562,0.0313 -0.063,0.0625 0.031,0.0625 0.25,0.125 0.031,0.0313 0.4062,0.375 0.094,0.0937 0.031,0.3437 0.062,0.3126 0.031,0.25 -0.094,0.0312 -0.094,0.0312 -0.6562,0.0313 -0.25,0 -0.125,0 -0.031,0 -0.094,-0.0313 -0.031,0 -0.031,0 -0.094,-0.0624 -0.063,-0.0313 -0.2187,-0.0937 -0.125,0 -0.1563,-0.0313 -0.094,-0.0313 -0.25,0 -0.3125,0 -0.125,-0.0312 -0.062,0 -0.094,-0.0312 -0.031,-0.0313 -0.062,0 -0.062,-0.0313 -0.031,0 -0.031,0 0,0.0313 -0.031,0 -0.031,0.0313 -0.031,0.125 -0.062,0.0312 -0.094,0.0625 0,0.0313 -0.031,0 -0.063,0.0624 -0.1562,-0.0312 0,0.0312 -0.031,0.0313 -0.031,-0.0313 -0.094,-0.0312 -0.063,0.125 -0.031,0 0,-0.0625 -0.031,-0.125 0,-0.0625 -0.1876,0.3125 -0.062,0.1563 -0.031,0.0624 -0.1563,0.0938 -0.062,0.125 -0.031,-0.0312 0.031,-0.0626 -0.031,-0.0312 -0.094,-0.125 0,-0.0312 -0.031,-0.0313 -0.3125,-0.0313 -0.3125,-0.0624 -0.4375,-0.0313 -0.031,0 -0.031,0 -0.094,0 -0.1563,-0.125 0,-0.0313 -0.125,-0.1874 -0.062,-0.0938 -0.031,-0.0625 -0.031,-0.0625 0,-0.1875 0,-0.125 0.031,-0.0625 0,-0.0312 0.031,-0.0626 0,-0.0312 0.062,-0.125 0.031,-0.0625 0.062,-0.1875 0.063,-0.1562 -0.094,-0.1876 -0.1562,-0.3124 -0.031,-0.0313 0,-0.25 0.25,-0.3437 0.031,0 0.2812,-0.0313 0.031,-0.125 0,-0.2187 0,-0.25 -0.062,-0.2813 -0.031,-0.0313 -0.031,-0.1874 z"
       id="NJ-06"
       style="font-style:normal;font-weight:400;font-size:34.375px;font-family:'MS Shell Dlg 2';opacity:1;fill:none;fill-opacity:1;fill-rule:evenodd;stroke:#000000;stroke-width:0.33333385;stroke-linecap:square;stroke-linejoin:bevel;stroke-miterlimit:4;stroke-dasharray:none;stroke-opacity:1" />
    <path
       inkscape:connector-curvature="0"
       d="m 212.95516,378.94759 1.625,-0.71871 -0.4687,-0.75 1.3125,-0.5937 -0.4375,-0.81259 1.25,-0.59371 0.9063,1.1563 1.2187,-0.81259 0.75,-0.0937 c -0.01,-0.118 -0.1229,-0.1403 -0.1875,-0.2187 -0.2127,-0.1346 -0.2484,-0.3241 -0.2188,-0.5313 0.03,-0.2072 0.1279,-0.4311 0.125,-0.625 0.2077,-0.33949 0.2556,-0.7509 0.5938,-1 0.1236,-0.3485 -0.5019,-0.5239 -0.5312,-0.90629 0.1903,-0.1325 0.1513,-0.3175 0.031,-0.43741 -0.1201,-0.12 -0.3401,-0.1673 -0.5312,-0.0938 -0.1608,-0.0567 -0.2311,-0.3117 -0.2188,-0.5312 0.012,-0.2196 0.1069,-0.4193 0.3125,-0.4063 0.3679,0.0576 0.6182,-0.0783 0.9375,-0.2187 -0.027,-0.0614 -0.2194,-0.1839 -0.3438,-0.31259 -0.1243,-0.12861 -0.1686,-0.25541 0.094,-0.25 0.4324,0.0429 0.5801,-0.49531 0.9688,-0.625 0.2912,-0.25241 0.3325,-0.70651 0.7187,-0.84371 0.337,-0.2714 0.4494,-0.68099 0.3125,-1.0937 0.2796,-0.17219 0.3479,-0.498 0.4062,-0.81259 0.1319,-0.1875 0.244,-0.10121 0.375,0.0313 0.1311,0.1325 0.2594,0.3383 0.375,0.4063 0.209,0.3002 0.7785,0.0301 0.875,0.31241 -0.1534,0.1766 -0.2143,0.40629 -0.3124,0.625 l 0.9374,-0.375 c 0.01,-0.0519 0.019,-0.10481 0.031,-0.15621 0.032,-0.2235 0.3969,-0.44439 0.1875,-0.6562 -0.1631,-0.2339 -0.21,-0.5131 -0.2188,-0.7813 -0.019,-0.2437 0.1093,-0.4592 0.3126,-0.5625 0.2365,-0.1349 0.3887,-0.5316 0.062,-0.5625 -0.3082,-0.0497 -0.65,-0.009 -0.9374,-0.15629 -0.3115,-0.12151 0.039,-0.33301 -0.031,-0.53121 -0.099,-0.2536 -0.2269,-0.5029 -0.3437,-0.75 l -0.031,0 -1.4375,0.4375 c -0.012,0.56921 -0.2532,1.27441 -1.0625,2.375 l -0.375,-0.75 -1.1563,0.9063 -1.375,-1.31259 -1.9062,1.28129 -0.1562,-0.625 c 0.1661,-0.0185 0.2494,-0.6488 0.094,-0.75 -0.1873,-0.1182 -0.1717,-0.20029 -0.125,-0.3125 0.047,-0.11219 0.1444,-0.24129 0.1875,-0.375 0.092,-0.36239 -0.076,-0.5253 -0.4062,-0.625 -0.3121,-0.25549 -0.135,-0.7561 -0.063,-1.0625 0.2526,0.0819 0.393,-0.0203 0.5313,-0.15629 0.1383,-0.1359 0.2833,-0.30111 0.4687,-0.375 0.1662,-0.0417 0.3837,-0.12491 0.5313,-0.25 0.1476,-0.125 0.2099,-0.29251 0.031,-0.5 -0.3773,0.085 -0.5968,-0.43061 -0.9376,-0.28121 -0.1369,0.24791 -0.3131,0.24811 -0.4687,0.15621 -0.1556,-0.0918 -0.2937,-0.26221 -0.4063,-0.40621 -0.1115,-0.18 -0.2567,-0.2327 -0.375,-0.1875 -0.1182,0.0452 -0.2067,0.1726 -0.2812,0.3125 -0.1386,0.5159 -0.6387,0.7684 -0.9375,1.1875 -0.1279,0.0356 -0.3088,-0.0757 -0.5,-0.15629 -0.1912,-0.0805 -0.3931,-0.1266 -0.5625,0.0626 -0.058,0.10581 -0.1422,0.1888 -0.2188,0.2812 l 0,0 c -0.1825,0.2206 -0.3697,0.4298 -0.5,0.6875 -0.057,0.4126 0.01,0.8538 -0.1562,1.25 -0.038,0.4597 -0.1152,0.8377 -0.2812,1.2813 -0.2029,0.4363 -0.7554,0.76051 -0.8126,1.2812 -0.1028,0.50601 -0.4563,0.77731 -0.625,1.25 -0.1183,0.3055 -0.081,0.81511 -0.5,1.0625 l -1.5937,-1.3437 -1.4687,-0.0313 -0.2188,-0.0937 -0.062,0.0312 -0.031,0.0312 -0.094,0.0626 -0.031,0.0937 0,0.0937 -0.062,0.15629 0,0.0625 -0.031,0.0312 -0.094,0.0313 -0.2188,0 -0.25,0 -0.062,0 -0.031,0 -0.094,0.0313 -0.031,0.0312 0,0.0312 -0.031,0.0313 0,0.0313 -0.031,0.0624 0.031,0.125 0,0.125 0,0.0626 -0.062,0.125 -0.1563,0.125 -0.031,0.125 -0.031,0.0312 0,0.0312 0.031,0.0626 0.031,0.0624 0.1563,0.0938 0.094,0.0312 0,0.0313 0.031,0 0.031,0.0313 0.062,0.0312 0.031,0.0625 0,0.0625 -0.031,0.125 0,0.0312 -0.031,0.21879 -0.031,0.0625 0,0.0313 -0.031,0 0,0.0312 0,0.0938 0,0.125 -0.031,0.0312 0,0.125 0,0.15621 0,0.0313 0.031,0.0937 0.031,0.0626 0.031,0.0312 0,0.0312 0.031,0.0313 0.125,0.0625 0.125,0.0312 0.031,0 0.094,-0.0624 0.031,0 0.031,0 0.031,0 0.062,0.0312 0.031,0 0,0.0312 0,0.0313 0.031,0.0625 -0.031,0.0625 0,0.0625 0,0.0312 -0.031,0.0626 -0.094,0.0937 -0.031,0.0625 -0.031,0.0312 -0.031,0.18759 -0.031,0.18741 0,0.0626 0.1874,0.0937 0.031,0 0.062,0.0937 0.031,0.0938 0.125,0.25 0,0.0625 0,0.0313 0,0.0312 -0.1562,0.0625 -0.062,0.0625 0,0.0312 0.031,0.0626 0.094,0.0624 0.031,0.0626 0.062,0.0624 0.094,0.0626 0.094,0.25 0.031,0.0312 0,0.0312 0.031,0 0,0.0313 0,0.0937 0,0.0313 -0.031,0.0937 -0.031,0.0313 0.031,0.0625 0,0.0312 0.031,0.0626 0.063,0.0312 0.094,0.0625 0.062,0.0313 0.031,0 0.031,0.0312 0.031,0 0.031,0 0.125,0 0.031,0.0312 0.094,-0.0312 0.031,0 0.031,0 0.031,0 0.062,-0.0312 0.063,-0.0626 0.031,0 0.125,-0.2187 0,-0.0313 0.031,-0.0312 0.031,-0.0312 0.031,-0.0313 0.031,-0.0313 0.062,0 0.031,-0.0312 0.3124,-0.0312 0.125,-0.0313 0.1563,0.0313 0.1875,0.0312 0.031,0 0.031,0 0.094,0.0625 0.25,0.1563 0.063,0.0624 0.1874,0.0938 0.25,0.125 0.031,0.0625 0.062,0.0625 0.094,0.28121 0.031,0.18759 0.031,0.0312 0.063,0.1875 0.031,0.1563 0.1562,0.2812 0.031,0.0625 0.031,0.125 0.031,0.1563 0,0.125 -0.031,0.125 0.031,0.125 0.031,0.0937 0.031,0 0,0.0313 0,0.0624 0,0.15629 0,0.0313 0.125,0.1562 0.1875,0.375 0.125,0.28121 0.031,0.0313 0,0.0313 0.031,0 0.031,0.0624 0.031,0 0.031,0.0313 0.031,0 0.125,0 0.062,0 0.031,0.0313 0.031,0 0.031,0 0.031,0.0312 0.125,0.0625 0.125,0.0313 0.062,0 0.031,0 0.062,0 0.1563,-0.0938 0.25,-0.1562 0.062,-0.0938 0.062,-0.0312 0.1563,0 0.094,0.0624 0.031,0 0.062,0.0313 0.031,0 0.031,0 0.2187,0.0313 0.062,0.0312 0.062,0 0.031,0.0625 0.2187,0.25 0.1563,0.1875 0.031,0.0625 0.1562,0.21871 0.125,0.18759 0.031,0.0624 0.031,0.125 0.031,0.0938 0.062,0.0938 0.031,0.0312 0.062,0.0312 z"
       id="NJ-07"
       style="font-style:normal;font-weight:400;font-size:34.375px;font-family:'MS Shell Dlg 2';opacity:1;fill:none;fill-opacity:1;fill-rule:evenodd;stroke:#000000;stroke-width:0.33333385;stroke-linecap:square;stroke-linejoin:bevel;stroke-miterlimit:4;stroke-dasharray:none;stroke-opacity:1" />
    <path
       inkscape:connector-curvature="0"
       d="m 228.79896,360.76018 c -0.1291,-0.0726 -0.2937,-0.1216 -0.3125,-0.2813 0.035,-0.219 -0.1403,-0.4723 -0.375,-0.40629 -0.1018,0.17969 -0.2046,0.39419 -0.375,0.53129 -0.2701,0.1724 0.049,0.4024 0,0.625 0.037,0.2482 -0.2441,0.3109 -0.25,0.5313 0.013,0.2065 -0.1999,0.3838 -0.094,0.5937 0.01,0.1822 -0.2951,0.3886 -0.4063,0.1563 -0.1164,-0.1564 -0.1703,-0.3738 -0.375,-0.43759 -0.2092,0.057 -0.3992,0.15549 -0.5937,0.25 0.01,0.1635 -0.043,0.3514 -0.25,0.34379 -0.2531,0.0514 -0.1531,-0.2939 -0.125,-0.4375 0,-0.2268 0.1126,-0.4793 -0.094,-0.65629 -0.025,-0.0423 0.034,-0.0822 0.031,-0.125 l -0.7812,0.125 0,0.375 0,0 0.031,1.15629 0.5313,-0.0313 0.25,0.31259 -0.2813,0.43741 0.1563,0.25 c 0.275,-0.075 0.4562,-0.3062 0.5313,-0.53121 l 0.4687,-0.0312 0.375,0.2812 0.25,-0.875 0.5625,-0.1875 0.4062,0.21871 -0.9687,2.21879 -0.4687,0.0312 0.031,-0.21871 -0.625,-0.25 -1.0625,0.2813 -0.031,0.4687 -0.5937,0.3125 1.4063,0.6875 0,-0.0313 0.062,-0.125 0.063,-0.15621 0.031,-0.0938 0,-0.0312 0.031,-0.0312 0.094,-0.0313 0.4375,-0.0625 0.375,-0.0625 0.031,-0.0313 0.1562,-0.0624 0.1562,-0.0938 0.125,-0.0625 0.1563,-0.0937 0.062,-0.0313 0.25,-0.15629 0.125,-0.125 -0.125,-0.15621 0.031,-0.1875 0,-0.1875 0.031,-0.0625 0.094,-0.2187 0.063,-0.0938 0,-0.0625 0.031,-0.0313 0.1562,-0.21871 0.031,-0.0313 0.062,-0.125 0.094,-0.31241 0,-0.0313 0.031,-0.0625 0,-0.0625 0,-0.0313 0.3125,-0.0312 0,-0.125 -0.031,-0.0625 -0.031,-0.125 0,-0.0937 0,-0.0313 0,-0.0313 0,-0.0312 -0.031,-0.0625 0,-0.0313 0,-0.0937 -0.031,-0.15629 -0.031,-0.5 0,-0.0624 0.031,-0.1563 0.062,-0.3437 0,-0.0313 0.031,-0.0937 0.031,-0.125 0,-0.125 0.031,-0.0626 0.031,-0.18741 z"
       id="NJ-08"
       style="font-style:normal;font-weight:400;font-size:34.375px;font-family:'MS Shell Dlg 2';opacity:1;fill:none;fill-opacity:1;fill-rule:evenodd;stroke:#000000;stroke-width:0.33333385;stroke-linecap:square;stroke-linejoin:bevel;stroke-miterlimit:4;stroke-dasharray:none;stroke-opacity:1" />
    <path
       inkscape:connector-curvature="0"
       d="m 229.17396,357.19759 -0.5625,-0.25 c -0.014,-0.0994 -0.03,-0.21201 -0.031,-0.31241 0.022,-0.3414 -0.3837,-0.0248 -0.5,-0.18759 -0.1772,-0.24881 -0.3672,0.0403 -0.2812,0.25 0.093,0.36959 0.021,0.75019 0.062,1.125 0.1068,0.29749 -0.3734,0.31829 -0.25,0.625 -0.04,0.22919 0.129,0.54079 -0.125,0.68759 -0.2609,0.1903 -0.5675,-0.022 -0.8437,-0.0626 -0.2938,-0.11131 -0.3635,0.32369 -0.625,0.28129 -0.182,-0.1603 -0.024,-0.4943 0.062,-0.6875 -0.1859,-0.1508 -0.2062,-0.4965 -0.4687,-0.5312 -0.2486,0.0529 -0.4978,0.01 -0.75,0.0312 -0.2638,0.01 -0.3842,-0.2676 -0.625,-0.34379 l 0.031,-0.68741 -0.8438,-0.3438 0.094,0.25 0,0 0.2812,0.75 -0.5312,0.28121 0,0.71879 0.3437,0.3125 0.5,0 -0.125,1.375 1.6563,0.5 c -0.027,0.1541 -0.073,0.3111 -0.063,0.46871 l 0,0 c 0,0.0428 -0.056,0.0827 -0.031,0.125 0.2064,0.17699 0.098,0.42949 0.094,0.65629 -0.028,0.1436 -0.1281,0.4889 0.125,0.4375 0.2074,0.008 0.2587,-0.18029 0.25,-0.34379 0.1945,-0.0945 0.3845,-0.19301 0.5937,-0.25 0.2047,0.0638 0.2586,0.28119 0.375,0.43759 0.1112,0.2323 0.4132,0.0259 0.4063,-0.1563 -0.1062,-0.2099 0.1062,-0.3872 0.094,-0.5937 0.01,-0.2204 0.2873,-0.2831 0.25,-0.5313 0.049,-0.2226 -0.2701,-0.4526 0,-0.625 0.1704,-0.1371 0.2732,-0.3516 0.375,-0.53129 0.2347,-0.066 0.4104,0.18729 0.375,0.40629 0.019,0.1597 0.1834,0.2087 0.3125,0.2813 l 0.031,-0.0938 0,-0.125 0.063,-0.21879 0.094,-0.375 0,-0.0937 0.031,-0.125 0,-0.625 0,-0.0937 0.031,0 0,-0.2188 0.062,-0.5 0.062,-0.21879 0,-0.21871 0,-0.1875 0,-0.46879 z"
       id="NJ-09"
       style="font-style:normal;font-weight:400;font-size:34.375px;font-family:'MS Shell Dlg 2';opacity:1;fill:none;fill-opacity:1;fill-rule:evenodd;stroke:#000000;stroke-width:0.33333385;stroke-linecap:square;stroke-linejoin:bevel;stroke-miterlimit:4;stroke-dasharray:none;stroke-opacity:1" />
    <path
       inkscape:connector-curvature="0"
       d="m 225.76776,366.47888 -1.4063,-0.6875 0.5937,-0.3125 0.031,-0.4687 1.0625,-0.2813 0.625,0.25 -0.031,0.21871 0.4687,-0.0312 0.9687,-2.21879 -0.4062,-0.21871 -0.5625,0.1875 -0.25,0.875 -0.375,-0.2812 -0.4687,0.0312 c -0.075,0.22501 -0.2563,0.4562 -0.5313,0.53121 l -0.1563,-0.25 0.2813,-0.43741 -0.25,-0.31259 -0.5313,0.0313 -0.031,-1.15629 -0.3438,-0.0937 -0.2187,-0.6875 -0.5625,-0.0312 -0.3438,1.43741 0.3126,0.28129 -0.094,0.59371 -0.2188,-0.0312 -0.4374,0.25 c 0.1168,0.2471 0.2443,0.4964 0.3437,0.75 0.07,0.1982 -0.2802,0.4097 0.031,0.53121 0.2874,0.14749 0.6292,0.10659 0.9374,0.15629 0.3263,0.0309 0.1741,0.4276 -0.062,0.5625 -0.2033,0.1033 -0.332,0.3188 -0.3126,0.5625 0.01,0.2682 0.056,0.5474 0.2188,0.7813 0.2094,0.21181 -0.156,0.4327 -0.1875,0.6562 -0.012,0.0514 -0.024,0.1043 -0.031,0.15621 l 0.4063,0.34379 0.5937,-0.375 1.125,-0.2812 -0.062,-0.31259 -0.063,-0.28121 -0.031,-0.1562 -0.031,-0.25 0,-0.0313 z"
       id="NJ-10"
       style="font-style:normal;font-weight:400;font-size:34.375px;font-family:'MS Shell Dlg 2';opacity:1;fill:#000000;fill-opacity:1;fill-rule:evenodd;stroke:#000000;stroke-width:0.33333385;stroke-linecap:square;stroke-linejoin:bevel;stroke-miterlimit:4;stroke-dasharray:none;stroke-opacity:1" />
    <path
       inkscape:connector-curvature="0"
       d="m 211.95516,362.54138 c 0.077,-0.0924 0.1607,-0.1754 0.2188,-0.2812 0.1694,-0.18919 0.3713,-0.1431 0.5625,-0.0626 0.1912,0.0806 0.3721,0.19189 0.5,0.15629 0.2988,-0.4191 0.7989,-0.6716 0.9375,-1.1875 0.075,-0.1399 0.163,-0.26729 0.2812,-0.3125 0.1183,-0.0452 0.2635,0.007 0.375,0.1875 0.1126,0.144 0.2507,0.3144 0.4063,0.40621 0.1556,0.0919 0.3318,0.0917 0.4687,-0.15621 0.3408,-0.1494 0.5603,0.3662 0.9376,0.28121 0.1786,0.20749 0.1163,0.375 -0.031,0.5 -0.1476,0.12509 -0.3651,0.2083 -0.5313,0.25 -0.1854,0.0739 -0.3304,0.2391 -0.4687,0.375 -0.1383,0.13599 -0.2787,0.2382 -0.5313,0.15629 -0.072,0.3064 -0.2495,0.80701 0.063,1.0625 0.3306,0.0997 0.4978,0.26261 0.4062,0.625 -0.043,0.1337 -0.1408,0.2628 -0.1875,0.375 -0.047,0.1122 -0.062,0.1943 0.125,0.3125 0.1557,0.1012 0.072,0.7315 -0.094,0.75 l 0.1562,0.625 1.9062,-1.28129 1.375,1.31259 1.1563,-0.9063 0.375,0.75 c 0.8093,-1.10059 1.0503,-1.8058 1.0625,-2.375 l 1.4375,-0.4375 0.031,0 c 0,0 0,0 0,0 l 0.4374,-0.25 0.2188,0.0312 0.094,-0.59371 -0.3126,-0.28129 0.3438,-1.43741 0.5625,0.0312 0.2187,0.6875 0.3438,0.0937 0,-0.375 0.7812,-0.125 c -0.011,-0.15761 0.036,-0.31461 0.063,-0.46871 l -1.6563,-0.5 0.125,-1.375 -0.5,0 -0.3437,-0.3125 0,-0.71879 0.5312,-0.28121 -0.2812,-0.75 -1.1563,0.2188 -0.5625,-0.1563 -0.7188,-0.5937 0.031,-1.25 -1.125,0.0937 -0.7187,0.5313 -0.031,1.4062 -0.625,0.0938 -1.4063,-0.6563 -0.8437,0.75 -0.094,-1.125 -0.375,-0.2187 -0.5,1 -2.5626,-1 -0.3437,0.7187 -0.125,1.1875 0.375,1.375 -1.4687,2.65621 0.6874,0.46879 z"
       id="NJ-11"
       style="font-style:normal;font-weight:400;font-size:34.375px;font-family:'MS Shell Dlg 2';opacity:1;fill:none;fill-opacity:1;fill-rule:evenodd;stroke:#000000;stroke-width:0.33333385;stroke-linecap:square;stroke-linejoin:bevel;stroke-miterlimit:4;stroke-dasharray:none;stroke-opacity:1" />
    <path
       inkscape:connector-curvature="0"
       d="m 218.23646,382.01018 c -0.015,-0.199 -0.068,-0.3987 0.062,-0.56259 0.1044,-0.19241 -0.1647,-0.30811 -0.2188,-0.46871 -0.086,-0.1436 -0.1714,-0.2953 -0.125,-0.4687 0.018,-0.2128 0.2551,-0.3202 0.2813,-0.5313 0.035,-0.1984 0.071,-0.4523 0.3125,-0.5 0.2386,-0.0904 0.4891,-0.0719 0.7188,-0.1875 0.1625,0.0108 0.246,0.1709 0.3437,0.28121 0.025,0.0321 0.065,0.15829 0.094,0.18759 l 1.0938,-0.68759 0.094,-0.375 1.2187,0.68759 0.062,0.43741 1,-1.09371 -0.1875,-0.25 0.5313,-0.125 1.25,-1.1875 -0.1563,-0.25 0.875,-1.875 0,0 0.5,-1 c 0,-0.2481 -0.3854,-0.1189 -0.3437,-0.4062 -0.1068,-0.341 0.2714,-0.4971 0.2187,-0.81259 0.071,-0.23731 -0.134,-0.32661 -0.1875,-0.5 0.057,-0.1798 0.01,-0.30201 -0.094,-0.375 -0.1011,-0.0729 -0.265,-0.0748 -0.4062,-0.0937 -0.3683,0.0241 -0.3604,0.54411 -0.5,0.8125 -0.072,0.1104 -0.2868,0.6706 -0.375,0.3438 -0.084,-0.318 -0.4091,-0.4422 -0.625,-0.6563 -0.3336,-0.15449 -0.1994,-0.6892 -0.5938,-0.75 -0.3404,0.0331 -0.5201,0.3922 -0.8124,0.5313 -0.3722,0.0633 -0.5897,0.4377 -0.9688,0.43741 -0.1541,-0.10801 0.2514,-0.42651 0.1875,-0.65621 -0.033,-0.36919 -0.3261,-0.6712 -0.6875,-0.71879 -0.2945,-0.0211 -0.7017,-0.0573 -0.8125,-0.375 -0.097,-0.3587 0.227,-0.565 0.375,-0.84371 0.1419,-0.3045 0.5246,-0.53469 0.5,-0.90629 l 2.0313,-0.875 c 0.098,-0.21871 0.159,-0.4484 0.3124,-0.625 -0.097,-0.28231 -0.666,-0.0122 -0.875,-0.31241 -0.1156,-0.068 -0.2439,-0.2738 -0.375,-0.4063 -0.131,-0.1325 -0.2431,-0.21879 -0.375,-0.0313 -0.058,0.31459 -0.1266,0.6404 -0.4062,0.81259 0.1369,0.4127 0.024,0.8223 -0.3125,1.0937 -0.3862,0.1372 -0.4275,0.5913 -0.7187,0.84371 -0.3887,0.12969 -0.5364,0.66789 -0.9688,0.625 -0.2624,-0.005 -0.2181,0.12139 -0.094,0.25 0.1244,0.12869 0.3166,0.25119 0.3438,0.31259 -0.3193,0.1404 -0.5696,0.2763 -0.9375,0.2187 -0.2056,-0.013 -0.3002,0.1867 -0.3125,0.4063 -0.012,0.2195 0.058,0.4745 0.2188,0.5312 0.1911,-0.0735 0.4111,-0.0262 0.5312,0.0938 0.1201,0.1199 0.1591,0.3049 -0.031,0.43741 0.029,0.38239 0.6548,0.55779 0.5312,0.90629 -0.3382,0.2491 -0.3861,0.6605 -0.5938,1 0,0.1939 -0.095,0.4178 -0.125,0.625 -0.03,0.2072 0.01,0.3967 0.2188,0.5313 0.065,0.0784 0.178,0.1007 0.1875,0.2187 l -0.75,0.0937 -1.2187,0.81259 -0.9063,-1.1563 -1.25,0.59371 0.4375,0.81259 -1.3125,0.5937 0.4687,0.75 -1.625,0.71871 0.031,0.0313 0.1875,0.0937 0.1562,0.0626 0,0.0312 0.25,0.0938 0.2188,0.0937 0.125,0 0.062,0 0.094,0 0.094,0 0.125,0.0625 0.031,0 0.094,0.0625 0.031,0.0313 0.3438,0.18741 0.125,0.0938 0.125,0.15621 0.1562,0.15629 0.125,0.1875 0.2188,0.25 0.1562,0.2188 0.1563,0.0624 0.25,0.0313 0.062,0.0313 0.094,0.0312 0.4374,0.0938 0.125,0 0.1563,0.0624 0.062,0.0313 0.031,0 0.031,0.0313 0.031,0 0.062,0.0312 0.063,0.0312 0.031,0 0.1562,0.0626 0.031,0 0.062,0.125 0.062,0.0624 0.094,0.0938 0.094,0.0938 0.031,0.0312 0.125,0.1875 0,0.0313 0.063,0.0312 0.031,0.0625 0.062,0 0,0.0313 0.125,0 z"
       id="NJ-12"
       style="font-style:normal;font-weight:400;font-size:34.375px;font-family:'MS Shell Dlg 2';opacity:1;fill:none;fill-opacity:1;fill-rule:evenodd;stroke:#000000;stroke-width:0.33333385;stroke-linecap:square;stroke-linejoin:bevel;stroke-miterlimit:4;stroke-dasharray:none;stroke-opacity:1" />
  </g>
</svg>
