<?xml version="1.0" encoding="UTF-8" standalone="no"?>
<!-- Created with Inkscape (http://www.inkscape.org/) -->

<svg
   xmlns:dc="http://purl.org/dc/elements/1.1/"
   xmlns:cc="http://creativecommons.org/ns#"
   xmlns:rdf="http://www.w3.org/1999/02/22-rdf-syntax-ns#"
   xmlns:svg="http://www.w3.org/2000/svg"
   xmlns="http://www.w3.org/2000/svg"
   xmlns:sodipodi="http://sodipodi.sourceforge.net/DTD/sodipodi-0.dtd"
   xmlns:inkscape="http://www.inkscape.org/namespaces/inkscape"
   width="57.946613mm"
   height="29.008997mm"
   viewBox="0 0 205.32267 102.78779"
   id="svg12983"
   version="1.1"
   inkscape:version="0.91 r"
   sodipodi:docname="1.svg">
  <defs
     id="defs12985" />
  <sodipodi:namedview
     id="base"
     pagecolor="#ffffff"
     bordercolor="#666666"
     borderopacity="1.0"
     inkscape:pageopacity="0.0"
     inkscape:pageshadow="2"
     inkscape:zoom="7.9270888"
     inkscape:cx="81.267991"
     inkscape:cy="53.46093"
     inkscape:document-units="px"
     inkscape:current-layer="layer1"
     showgrid="false"
     fit-margin-top="1"
     fit-margin-left="1"
     fit-margin-right="1"
     fit-margin-bottom="1"
     inkscape:window-width="2560"
     inkscape:window-height="1388"
     inkscape:window-x="0"
     inkscape:window-y="0"
     inkscape:window-maximized="1" />
  <metadata
     id="metadata12988">
    <rdf:RDF>
      <cc:Work
         rdf:about="">
        <dc:format>image/svg+xml</dc:format>
        <dc:type
           rdf:resource="http://purl.org/dc/dcmitype/StillImage" />
        <dc:title></dc:title>
      </cc:Work>
    </rdf:RDF>
  </metadata>
  <g
     inkscape:label="Layer 1"
     inkscape:groupmode="layer"
     id="layer1"
     transform="translate(-389.48024,-368.46784)">
    <path
       inkscape:connector-curvature="0"
       d="m 552.10298,373.45484 0.79592,23.57579 -6.81545,0.15488 0.0905,2.4703 6.2217,-0.16316 0.0586,2.50107 -1.18879,0.077 -1.345,2.32514 0.0134,1.28161 11.19251,-0.28135 c 0.16922,0.55923 0.19625,1.22217 0.50813,1.66355 0.22914,0.13483 0.40658,0.42674 0.61622,0.63369 0.20953,0.20692 0.43522,0.31679 0.74905,0.0729 0.40717,-0.38085 0.83688,-0.52315 1.41697,-0.7615 0.60695,-0.24952 1.00174,-0.2393 1.31546,-0.20044 0.31367,0.0387 0.53146,0.0906 0.78249,-0.0826 0.56368,-0.30196 1.41648,-0.62548 1.7251,-0.44465 l 1.68775,-0.008 c 0.58514,-0.592 0.51142,-0.83365 0.92314,-1.20594 0.17633,-0.23025 0.0961,-0.32868 -0.0568,-0.40713 -0.15271,-0.0786 -0.40317,-0.14144 -0.59025,-0.25828 -0.23903,-0.0858 -0.42239,-0.26772 -0.52416,-0.50737 -0.10187,-0.23953 -0.11316,-0.52032 -0.0201,-0.78155 0.27926,-0.47323 0.18105,-0.75964 -0.0145,-1.18781 0.11775,-0.24057 0.37092,-0.39385 0.6016,-0.55415 0.23066,-0.1603 0.46679,-0.34712 0.5091,-0.64916 0.11021,-0.78784 -0.0466,-0.70463 0.3586,-1.05769 0.0538,-0.19217 0.1502,-0.67178 0.008,-0.84365 l -7.91031,0.23328 -0.41651,-1.50598 -0.65658,0.0224 -0.58284,-0.78953 -2.43772,-0.002 -0.0134,-1.28162 -0.68996,0.17799 -0.13708,-1.37707 -0.31205,-0.0355 -0.15518,-2.3149 -0.65144,-0.35294 -0.6415,-16.72928 0.4692,-0.0249 -0.0722,-1.56357 -0.4378,0.0248 -0.25041,0.028 -1.06293,0.0164 -0.15617,-4.4e-4 -0.0312,-4.5e-4 -0.0313,-4e-4 -0.7508,0.0521 -0.40626,-0.007 -0.21869,-2.3e-4 -0.59408,0.0232 -0.8446,0.0506 -0.0312,-4.2e-4 z"
       id="OK-01"
       style="font-style:normal;font-weight:400;font-size:34.375px;font-family:'MS Shell Dlg 2';opacity:1;fill:#1a1a1a;fill-opacity:1;fill-rule:evenodd;stroke:#000000;stroke-width:0.33333385;stroke-linecap:square;stroke-linejoin:bevel;stroke-miterlimit:4;stroke-dasharray:none;stroke-opacity:1" />
    <path
       inkscape:connector-curvature="0"
       d="m 583.21722,372.20151 -1.68864,0.0704 -0.0317,0.0307 -0.21879,-2.5e-4 -0.0312,-4.1e-4 -0.25,-1.3e-4 -0.2192,0.0281 -0.0625,-7.8e-4 -0.0313,-4.2e-4 -0.0312,-4.5e-4 -0.15662,0.0289 -0.0938,-6.7e-4 -0.62538,0.0224 -0.68786,0.0216 -0.28173,0.0273 -0.24998,-1.3e-4 -0.21912,0.0281 -0.0625,-7.8e-4 -0.0312,-4.2e-4 -0.0313,-4.4e-4 -0.0625,-7.8e-4 -0.0938,-6.7e-4 -0.81319,0.0512 -0.1563,-4.4e-4 -0.18749,-3.5e-4 -0.8133,0.0514 -1.21902,0.0144 -0.28168,0.0272 -0.0937,-6.7e-4 -0.43798,0.0249 -0.15619,-4.7e-4 -0.25041,0.0281 -0.56289,0.0232 -1.50075,0.0417 -0.3441,0.0265 -0.0938,-6.7e-4 -0.40662,0.0256 -0.40668,0.0256 -1.62615,0.0714 -0.31245,-0.007 -0.0938,-6.7e-4 -0.84448,0.0505 -0.12499,-5.8e-4 -0.0625,-7.7e-4 -1.03199,0.0481 -0.12496,-5.5e-4 -0.56299,0.0232 -2.34522,0.0923 -0.2504,0.0281 -0.28128,-2e-5 -0.87537,0.0193 -0.3441,0.0264 -0.28169,0.0272 -0.25,-1.2e-4 -0.0937,-6.8e-4 -0.0937,-6.7e-4 -0.0938,-6.7e-4 -0.0948,0.0297 -0.0312,-4.3e-4 -0.18745,-3.5e-4 -0.0937,-6.6e-4 -0.50038,0.0241 -0.18759,-3.4e-4 -0.3128,0.0271 -0.2188,-2.3e-4 -0.31245,-0.007 -0.0943,0.0296 -0.0938,-6.8e-4 -0.5316,0.0241 -0.0938,-6.8e-4 -0.31245,-0.007 -0.18794,0.0289 -0.40616,-0.007 -0.0626,-7.9e-4 0.0722,1.56356 -0.46922,0.0249 0.6415,16.72928 0.65144,0.35293 0.15519,2.31489 0.31204,0.0358 0.13709,1.37705 0.68993,-0.17798 0.0134,1.2816 2.4377,0.002 0.58282,0.78951 0.65657,-0.0225 0.41654,1.50598 7.91033,-0.23329 c 0.13842,0.17187 0.0426,0.65148 -0.008,0.84365 -0.40496,0.35309 -0.24838,0.26987 -0.35859,1.05772 -0.0421,0.30204 -0.27847,0.48887 -0.50911,0.64916 -0.23068,0.16028 -0.48384,0.31357 -0.60162,0.55415 0.19577,0.42816 0.29399,0.71456 0.0145,1.18781 -0.0927,0.26125 -0.0811,0.54203 0.0201,0.78156 0.10177,0.23963 0.28513,0.42145 0.52416,0.50733 0.1871,0.11684 0.43755,0.17997 0.59023,0.25832 0.15265,0.0787 0.23307,0.17685 0.0568,0.4071 -0.41173,0.37232 -0.33798,0.61396 -0.92311,1.20593 l -1.68778,0.008 c -0.30862,-0.18082 -1.16141,0.1427 -1.7251,0.44465 -0.25102,0.17373 -0.46882,0.12179 -0.78252,0.0826 -0.31366,-0.0384 -0.70848,-0.0488 -1.31544,0.20046 -0.58006,0.23833 -1.00978,0.38063 -1.41696,0.76151 -0.31383,0.24384 -0.53953,0.13398 -0.74904,-0.0729 -0.20966,-0.20696 -0.38708,-0.49885 -0.61622,-0.63366 -0.31187,-0.44141 -0.33891,-1.10436 -0.50812,-1.66357 l -11.19252,0.28135 0,0 -1.15696,0.0464 0.16313,6.22169 -9.84808,0.23752 0.0553,5.00129 0,0 0.0369,1.84446 c 0.34704,-0.23718 0.78886,-0.26531 1.18999,-0.171 0.26157,0.0406 0.51118,0.15696 0.77937,0.13589 0.23499,-0.13253 -0.0357,-0.42662 -0.0536,-0.62581 -0.0476,-0.25797 -0.15703,-0.50724 -0.2395,-0.75342 0.0288,-0.2199 0.36841,-0.15038 0.53289,-0.11756 0.20244,0.13345 0.36006,0.34817 0.61971,0.38369 0.17863,0.0197 0.40969,0.0368 0.53286,-0.11758 0.0791,-0.17261 0.0135,-0.40664 0.22579,-0.49691 l 0.5972,-0.24167 0.26874,9.84855 -1.15652,0.0152 0.2,5.81598 c 0.35183,-0.11341 0.64234,-0.17625 0.75124,-0.0834 0.14073,0.12007 0.227,0.28789 0.62233,0.1962 0.21754,-0.0503 0.51772,-0.60642 0.53988,-0.61752 l 0.18398,6.97196 -2.50108,0.0586 0.1806,4.97181 -8.65937,0.16032 0.11996,4.84594 -1.25165,0.10753 0.0929,4.53296 -0.78156,0.02 0.0313,4.46968 0.81285,-0.02 0.0705,1.68856 0.0316,-0.031 0.0312,4.8e-4 0.18936,-0.12237 0.0312,4e-4 0.0625,7.8e-4 0.0313,4.4e-4 0.0307,0.0317 0.0305,0.0316 0.0308,0.0324 0.0617,0.0632 0.0312,4.2e-4 0.0308,0.0317 -3.9e-4,0.0313 0.0313,4.8e-4 -4.6e-4,0.0312 0.0608,0.0946 0.0914,0.15749 -4.2e-4,0.0312 0.0601,0.18846 0.0569,0.40704 0.0288,0.1566 -4.3e-4,0.0313 -10e-4,0.28129 0.0289,0.15663 0.21172,0.50299 0.12062,0.31423 0.18495,0.19008 0.0608,0.0946 0.12325,0.12673 0.2791,0.1601 0.12501,5.6e-4 0.0945,-0.0609 0.0954,-0.0921 0.0353,-0.31215 5.7e-4,-0.12498 0.0642,-0.0929 0.0953,-0.0921 0.0317,-0.0309 0.43648,0.0689 0.34289,0.0673 0.0931,0.0329 0.18607,0.0961 0.0931,0.0329 0.0609,0.0945 0.0305,0.0632 0.0584,0.28203 0.0289,0.1567 0.15152,0.34585 0.0304,0.0634 0.0617,0.0632 0.12454,0.0329 0.18749,3.5e-4 0.15704,-0.0601 0.0313,4.5e-4 0.0937,6.7e-4 0.5017,-0.11798 0.15713,-0.0601 0.0313,4.1e-4 0.0945,-0.0609 0.0313,4e-4 0.0632,-0.0304 0.0321,-0.0616 0.063,-0.0304 4.4e-4,-0.0312 0.0962,-0.15501 0.0632,-0.0617 0.0321,-0.0619 4.6e-4,-0.0313 0.0649,-0.15532 0.0316,-0.0306 0.065,-0.18673 0.0344,-0.24954 7.7e-4,-0.0624 6.8e-4,-0.0938 -0.0288,-0.18794 0.036,-0.34323 4.5e-4,-0.0313 0.0649,-0.1554 0.0649,-0.18651 0.0328,-0.0931 0.0642,-0.093 0.0945,-0.0608 0.0313,4.4e-4 0.0312,4.2e-4 0.12498,5.7e-4 0.12325,0.12673 0.062,0.032 0.18532,0.15881 0.33981,0.28607 0.0307,0.0318 0.28161,-0.0273 0.0313,4.5e-4 0.0937,6.8e-4 0.0938,6.8e-4 0.34464,-0.0577 0.0932,0.0328 0.0313,4.5e-4 -4.3e-4,0.0313 0.0305,0.0318 0.0308,0.0315 -4.6e-4,0.0312 -4.1e-4,0.0313 -4.7e-4,0.0313 -0.0328,0.12456 -0.0312,-4.3e-4 -0.0329,0.0929 -0.18965,0.15367 -0.0954,0.0921 -0.25129,0.0905 -0.28641,0.37103 -0.0954,0.12368 -4.4e-4,0.0313 -6.6e-4,0.0937 -4.5e-4,0.0313 -4.2e-4,0.0313 0.0307,0.0315 0.0313,4.5e-4 0.0921,0.0954 0.0625,7.8e-4 0.34203,0.1298 0.12456,0.0328 0.0308,0.0317 0.0621,0.0321 0.0307,0.0315 0.0624,7.8e-4 0.15496,0.0961 0.34063,0.22349 0.0931,0.0329 0.0625,7.8e-4 0.34411,-0.0265 4.6e-4,-0.0312 0.21921,-0.028 0.0942,-0.0297 0.12541,-0.0297 0.0937,6.7e-4 0.0308,0.0318 0.0306,0.0317 0.0617,0.0632 0.0913,0.1889 0.0602,0.15704 0.0304,0.0629 0.0296,0.12542 -4.2e-4,0.0313 -6.9e-4,0.0937 -3.3e-4,0.18749 0.0914,0.1888 0.24733,0.19097 0.0307,0.0317 0.34418,-0.0264 0.62627,-0.085 0.0625,7.8e-4 0.12673,-0.12324 0.0313,4.4e-4 0.0316,-0.0307 0.0625,7.8e-4 0.18707,0.0336 0.0312,4.3e-4 0.15583,0.0337 0.15542,0.0649 0.0312,4.4e-4 0.0309,0.0318 0.0303,0.0318 -4.1e-4,0.0313 0.0313,4.4e-4 0.0296,0.0935 0.0296,0.0944 0.0906,0.22009 0.0304,0.0631 0.0922,0.1263 0.0922,0.12631 0.49386,0.44442 -4.4e-4,0.0312 0.0929,0.0642 -4.6e-4,0.0312 0.21564,0.22184 0.0305,0.0319 0.0313,4.4e-4 0.06,0.15707 0.0898,0.28257 -4.4e-4,0.15629 -4.3e-4,0.0312 0.0304,0.063 0.15454,0.12716 0.0625,7.9e-4 0.12455,0.0329 0.0312,4.4e-4 0.0636,-0.0305 0.0312,4.4e-4 0.12585,-0.0609 0.3776,-0.18224 0.0633,-0.0617 4.7e-4,-0.0312 0.0318,-0.0307 0.0328,-0.0933 0.12847,-0.24825 0.0328,-0.12452 0.0329,-0.12455 4e-4,-0.0313 4.7e-4,-0.15629 -0.0281,-0.25042 0.0337,-0.15574 6.7e-4,-0.0938 0.0329,-0.0931 6.7e-4,-0.0937 0.0328,-0.0933 0.0641,-0.093 4.2e-4,-0.0312 0.0641,-0.093 0.0328,-0.0929 0.0634,-0.0617 0.34496,-0.089 0.18704,0.0337 0.43484,0.19361 0.093,0.0328 0.18539,0.15891 0.24823,0.12847 -4.2e-4,0.0313 0.21868,2.4e-4 0.47085,-0.14974 0.0942,-0.0297 0.22008,-0.0905 0.22043,-0.12194 0.0641,-0.0929 0.0962,-0.18629 0.0312,4.4e-4 0.0328,-0.12457 0.0994,-0.40482 2.3e-4,-0.21881 -0.0935,-0.0328 -0.0929,-0.0641 -0.0618,-0.0321 -0.0623,-0.032 -0.0617,-0.0633 -0.0288,-0.15669 0.0328,-0.12458 0.0312,4.6e-4 0.28257,-0.0897 0.31248,0.007 0.032,-0.0617 -0.0571,-0.37586 0.0328,-0.0931 0.032,-0.0616 0.0313,4.1e-4 0.18833,-0.0602 0.2504,-0.028 0.12501,5.6e-4 0.12413,0.0641 0.18572,0.12763 0.15541,0.0649 0.0937,6.5e-4 0.0633,-0.0617 -0.0288,-0.15671 -0.0297,-0.12539 -0.0305,-0.0634 -0.0304,-0.0318 4.1e-4,-0.0313 0.0318,-0.0301 0.0626,7.9e-4 0.31195,0.0353 0.4982,0.13197 0.18671,0.065 0.15529,0.0648 0.12587,-0.0608 0.15751,-0.0914 0.097,-0.24867 0.0319,-0.0306 0.0316,-0.0307 0.0937,6.9e-4 0.0933,0.0329 -4.3e-4,0.0312 -6.8e-4,0.0938 -6.7e-4,0.0937 0.0308,0.0317 0.0309,0.0317 0.34583,-0.15137 0.0954,-0.1237 0.0629,-0.0305 4.2e-4,-0.0313 4.3e-4,-0.0312 7.8e-4,-0.0625 4.6e-4,-0.1563 4.2e-4,-0.0312 0.0329,-0.0932 0.0631,-0.0304 0.032,-0.0307 0.0625,7.9e-4 0.12413,0.064 0.0914,0.15759 0.15531,0.0649 0.0312,4.4e-4 0.50039,-0.024 0.12586,-0.061 0.0321,-0.0305 0.0316,-0.0307 0.0317,-0.0306 0.097,-0.24866 0.0328,-0.12456 5.7e-4,-0.125 4.1e-4,-0.0313 -0.0304,-0.0627 -0.0305,-0.0632 0.0321,-0.0618 0.0312,4.3e-4 0.28028,0.0664 0.1863,0.0962 0.24823,0.12848 0.27856,0.19141 0.15443,0.12718 0.155,0.0961 0.49688,0.22578 0.24734,0.19099 0.15411,0.15846 0.0616,0.032 0.0311,0.0319 -4.6e-4,0.0313 0.0313,4e-4 0.0312,4.7e-4 0.125,5.6e-4 0.0943,-0.0297 0.0317,-0.031 0.0946,-0.0609 0.0312,4e-4 4.5e-4,-0.0313 0.032,-0.0616 7.9e-4,-0.0626 6.8e-4,-0.0937 -0.0304,-0.0631 -0.0288,-0.15661 4e-4,-0.0313 0.0318,-0.0303 0.34552,-0.1202 0.12499,5.7e-4 0.24868,0.097 0.0306,0.0316 0.30811,0.31693 0.0619,0.032 0.0312,4.3e-4 0.18933,-0.12236 0.12586,-0.0609 0.0312,4.5e-4 0.0641,-0.12413 0.0321,-0.0618 -0.0313,-4.4e-4 -0.0896,-0.31378 -0.0308,-0.032 -0.0617,-0.0632 -0.0304,-0.0632 4.2e-4,-0.0312 2.4e-4,-0.21878 4.5e-4,-0.0312 0.0648,-0.18662 4.3e-4,-0.0313 0.0313,4.6e-4 0.0321,-0.0619 0.18869,-0.0914 0.24997,1.3e-4 0.18714,0.0336 0.0312,4.4e-4 0.1237,0.0954 0.15486,0.0962 0.062,0.032 0.0932,0.0328 0.3129,-0.0269 0.28336,-0.15223 0.15932,-0.21661 0.15981,-0.24779 0.12583,-0.0609 0.12544,-0.0297 0.28029,0.0666 0.25043,-0.0281 0.6319,-0.4912 0.12675,-0.12326 0.0962,-0.18616 0.31279,-0.027 0.0313,4.3e-4 0.34324,0.036 0.15626,4.5e-4 0.0313,4.7e-4 0.0312,4.1e-4 -4.3e-4,0.0312 0.0312,4.4e-4 -4.5e-4,0.0313 0.0313,4.5e-4 -4.2e-4,0.0313 0.0307,0.0315 0.0308,0.0319 0.15139,0.34596 0.0289,0.1879 -3.4e-4,0.18748 -0.0337,0.18706 -4.4e-4,0.15628 -4.5e-4,0.0312 0.0922,0.12629 0.0308,0.0315 0.0307,0.0319 0.0313,4.2e-4 0.0312,4.7e-4 0.0625,7.7e-4 0.0313,4.2e-4 0.0624,7.8e-4 0.0632,-0.0305 0.0312,4.3e-4 0.0312,4.4e-4 0.12672,-0.12324 0.0954,-0.0921 0.0317,-0.0305 0.12543,-0.0296 0.12498,5.6e-4 0.0922,0.12629 -3.6e-4,0.18749 -7.7e-4,0.0625 0.093,0.0641 0.24997,1.3e-4 0.28336,-0.15235 0.0312,4.3e-4 0.0317,-0.0308 0.15892,-0.18531 0.0624,7.8e-4 0.063,-0.0305 0.0619,0.0321 0.0305,0.063 -0.0337,0.15577 -0.0336,0.15584 0.0305,0.0319 0.0313,4.3e-4 0.3428,0.0672 0.68707,0.0409 0.15619,4.5e-4 0.0312,4.4e-4 0.0626,7.8e-4 0.0312,4.4e-4 0.0633,-0.0305 0.65712,-0.0534 0.56278,-0.0233 0.313,-0.0269 4.4e-4,-0.0312 4.3e-4,-0.0312 0.0961,-0.18628 7.8e-4,-0.0624 4.3e-4,-0.0313 4.6e-4,-0.15628 0.18748,3.4e-4 0.37321,0.13022 0.37322,0.13024 0.15619,4.5e-4 0.12628,-0.0921 5.5e-4,-0.12499 4.7e-4,-0.15629 4.4e-4,-0.0312 0.0345,-0.21832 7.9e-4,-0.0624 0.0633,-0.0618 0.0316,-0.0307 0.0626,7.8e-4 0.15576,0.0336 0.0619,0.0321 0.0633,-0.0305 0.1263,-0.0921 0.0633,-0.0617 0.0345,-0.21834 5.7e-4,-0.12497 -0.0289,-0.18783 -0.0297,-0.0944 -0.0304,-0.063 0.0328,-0.12455 0.0321,-0.0623 0.41584,-0.68175 0.0312,4.3e-4 4.7e-4,-0.0313 0.0942,-0.0296 0.1874,3.4e-4 0.0619,0.032 0.77809,0.22969 0.24777,0.15966 0.12372,0.0954 0.0616,0.032 0.12412,0.0642 0.12499,5.6e-4 0.12455,0.0328 0.43835,-0.0561 0.0312,4.7e-4 0.12411,0.0641 0.0922,0.0954 -4.6e-4,0.15618 -5.6e-4,0.12499 -7.8e-4,0.0625 0.0609,0.0945 0.21784,0.0658 0.18802,-0.0289 -4.6e-4,0.0313 0.0624,7.8e-4 0.0297,0.0944 0.0921,0.12627 0.0289,0.15676 0.0297,0.0942 0.0616,0.0633 0.15627,4.4e-4 0.12718,-0.15442 0.0945,-0.061 0.0313,4.6e-4 0.0317,-0.0309 0.15575,0.0336 0.12325,0.12671 0.028,0.21923 0.27211,0.66006 0.0618,0.0321 0.18705,0.0337 0.0303,0.0317 0.0947,-0.0296 0.0625,7.8e-4 0.0312,4.4e-4 0.18757,3.6e-4 0.0942,-0.0297 0.0313,4.4e-4 0.18956,-0.15366 0.18628,0.0962 0.1228,0.15794 0.0608,0.12586 0.0621,0.0321 0.0624,8e-4 0.0938,6.6e-4 0.0633,-0.0617 0.0961,-0.18617 0.0634,-0.0617 0.0631,-0.0304 0.0621,0.032 -7.8e-4,0.0625 0.0897,0.28257 0.0577,0.34453 0.12458,0.0329 0.21526,0.25303 0.0296,0.0941 -4.4e-4,0.0313 -6.8e-4,0.0937 0.12281,0.15806 0.12455,0.0328 0.0938,6.9e-4 0.0624,7.7e-4 0.0946,-0.0609 0.0938,6.8e-4 0.0624,7.8e-4 0.0618,0.0633 0.0309,0.0319 0.0296,0.0943 -4e-4,0.0312 -7.9e-4,0.0626 -0.0656,0.2178 -5.6e-4,0.12499 -4.2e-4,0.0313 0.0304,0.0627 0.15398,0.15846 -4.1e-4,0.0313 0.0313,4.5e-4 0.0304,0.0316 0.0937,6.7e-4 0.0929,0.0641 0.18583,0.12758 0.12411,0.0641 0.062,0.032 -4.5e-4,0.0313 0.0305,0.0628 0.0313,4.5e-4 0.0945,-0.0609 0.062,0.0321 0.0609,0.12587 0.0297,0.0941 -4.3e-4,0.0313 -4.5e-4,0.0312 -0.0329,0.0931 0.0617,0.0632 0.093,0.0642 0.0304,0.0319 0.31117,0.0979 0.18662,0.0648 0.15662,-0.0288 0.2817,-0.0272 0.0317,-0.0306 0.0312,4.2e-4 0.032,-0.0617 0.0337,-0.15576 0.0633,-0.0618 0.0942,-0.0296 0.0312,4.4e-4 0.0625,7.8e-4 0.0313,4.4e-4 0.0929,0.0641 0.24823,0.12847 0.18834,-0.0601 0.25261,-0.18399 0.0317,-0.0307 0.0634,-0.0616 0.0929,0.0328 0.0625,7.8e-4 0.0609,0.0946 -4.2e-4,0.0312 -4.6e-4,0.0312 -7.8e-4,0.0626 -0.0329,0.0933 -4.4e-4,0.15628 0.0313,4.3e-4 0.0913,0.15748 0.12413,0.0641 0.12542,-0.0297 0.0619,0.0321 0.18694,0.0337 -4.4e-4,0.0312 0.0922,0.0954 0.0601,0.18827 -0.0321,0.0305 -5.7e-4,0.12498 0.0297,0.12542 -4.3e-4,0.0313 0.12326,0.12676 0.0937,6.6e-4 0.0634,-0.0618 0.0328,-0.093 0.0633,-0.0617 0.0632,-0.0304 0.0931,0.0328 0.0928,0.0328 0.0289,0.15672 -7.9e-4,0.0625 -7.8e-4,0.0625 -5.7e-4,0.12499 0.0296,0.0943 0.0308,0.0318 0.34332,0.0361 0.0625,7.8e-4 0.0313,4.5e-4 0.125,5.9e-4 0.59713,-0.2417 0.15585,0.0336 0.0929,0.0641 -4.6e-4,0.0313 -4e-4,0.0312 0.0306,0.0319 -7.8e-4,0.0626 -7.8e-4,0.0624 -3.4e-4,0.1876 0.0302,0.0319 0.0296,0.0943 0.0928,0.0328 0.15707,-0.0601 0.0954,-0.0921 0.0312,4.2e-4 0.065,-0.15541 0.12629,-0.0921 0.12456,0.0328 0.0616,0.0633 0.0618,0.0633 0.0929,0.0641 0.12454,0.0329 0.12499,5.8e-4 0.0953,-0.0922 0.0642,-0.093 0.0945,-0.0608 0.15584,0.0336 0.0608,0.12587 0.0922,0.0954 0.0617,0.0632 0.0308,0.0317 0.0296,0.0942 -0.0633,0.0618 -4.2e-4,0.0312 -6.9e-4,0.0938 0.031,0.0319 0.0618,0.032 0.0946,-0.0608 0.15663,-0.0289 0.12365,0.0953 0.0297,0.094 -4.6e-4,0.1562 -0.0321,0.062 0.0297,0.12542 0.0932,0.0328 0.12498,5.7e-4 0.0946,-0.0609 0.0312,4.6e-4 0.0938,6.7e-4 0.12368,0.0953 -5.6e-4,0.12499 0.0312,4.4e-4 -0.032,0.0618 0.0288,0.15661 0.0618,0.0633 0.12411,0.0641 -4.7e-4,0.0312 0.37715,-0.15094 0.25173,-0.12151 0.0312,4.4e-4 0.0312,4.3e-4 4.3e-4,-0.0312 0.0954,-0.0922 1.3e-4,-0.24998 0.008,-0.43746 -0.0272,-0.28169 0.008,-0.71865 -0.0297,-0.0942 -0.0233,-0.56299 4.5e-4,-0.15617 2e-5,-0.28119 1.3e-4,-0.24998 -0.0256,-0.4067 4.4e-4,-0.0313 7.7e-4,-0.0624 6.7e-4,-0.0938 -0.0497,-0.907 3.5e-4,-0.18758 2.4e-4,-0.21868 -0.0233,-0.56289 2.4e-4,-0.2188 0.008,-0.59363 -0.0288,-0.15671 -0.0216,-0.68776 -0.009,-1.59408 -0.0297,-0.0944 0.007,-0.34369 -0.0296,-0.12542 -0.007,-1.75026 7.8e-4,-0.0625 -0.0474,-1.06328 -0.0248,-0.43789 -0.02,-0.81286 -0.0193,-0.84405 0.008,-0.62494 -0.0297,-0.12543 -0.0192,-0.84415 -0.0224,-0.62537 6.7e-4,-0.0938 -0.022,-0.65658 0.007,-0.31244 -0.0843,-2.90779 2.3e-4,-0.2187 -0.0249,-0.46907 7.8e-4,-0.0626 0.008,-0.68736 -0.0264,-0.34416 5.6e-4,-0.125 4.6e-4,-0.0312 -0.0264,-0.34421 0.007,-0.40616 -0.0386,-1.71949 -0.0304,-0.0634 6.9e-4,-0.0937 0.008,-0.59372 -0.0267,-0.31291 6.7e-4,-0.0937 -0.0426,-1.43834 0.008,-0.43734 -0.0232,-0.563 -0.028,-0.21911 4.5e-4,-0.0313 -0.0169,-1.03154 3.4e-4,-0.18749 2.4e-4,-0.21868 -0.0265,-0.34421 0.008,-0.62494 -0.028,-0.21924 4.4e-4,-0.0312 7.8e-4,-0.0625 6.7e-4,-0.0937 -0.0217,-0.65667 0.008,-0.49994 -0.045,-1.25077 7.8e-4,-0.0625 0.008,-0.62494 6.7e-4,-0.0938 -0.0296,-0.094 7.8e-4,-0.0625 0.007,-0.40616 2e-5,-0.2813 6.7e-4,-0.0937 4.4e-4,-0.0313 -0.0296,-0.12542 4.2e-4,-0.0313 -0.0161,-1.094 -0.0134,-1.25035 -0.0232,-0.56287 8e-4,-0.0625 -0.024,-0.5317 -0.0458,-1.21945 -0.0128,-1.37531 1.3e-4,-0.24997 1.2e-4,-0.24998 -0.0485,-1.00078 5.7e-4,-0.125 6.7e-4,-0.0937 0.007,-0.37496 7.8e-4,-0.0626 -0.0289,-0.15659 5.6e-4,-0.12502 5.7e-4,-0.12497 3.4e-4,-0.18747 7.8e-4,-0.0625 0.007,-0.31247 4.5e-4,-0.0313 -0.0304,-0.0627 4.3e-4,-0.0313 5.6e-4,-0.12501 -0.028,-0.25038 6.8e-4,-0.0937 0.0344,-0.21834 -0.028,-0.21921 0.007,-0.37495 7.8e-4,-0.0624 4.2e-4,-0.0313 4.6e-4,-0.0313 5.7e-4,-0.12499 3.5e-4,-0.18737 -0.0297,-0.12542 4.5e-4,-0.0313 0.007,-0.40625 7.8e-4,-0.0624 4.5e-4,-0.15627 7.9e-4,-0.0625 6.7e-4,-0.0938 2.4e-4,-0.21868 0.007,-0.31246 -0.0289,-0.18793 5.7e-4,-0.12499 7.8e-4,-0.0625 4.4e-4,-0.0312 2e-5,-0.28125 -0.0309,-0.0319 7.8e-4,-0.0624 4.4e-4,-0.0313 7.8e-4,-0.0625 -0.0288,-0.15662 4.6e-4,-0.15627 -0.0289,-0.18795 0.0329,-0.12454 7.8e-4,-0.0625 6.8e-4,-0.0937 -0.14711,-0.65842 -0.14669,-0.68963 -0.0288,-0.15662 4.2e-4,-0.0313 -0.23251,-1.25336 4.5e-4,-0.0313 -0.17659,-0.78373 -0.0289,-0.1879 -0.0288,-0.18793 7.8e-4,-0.0625 4.1e-4,-0.0313 -0.11799,-0.50169 -0.0858,-0.59494 -0.0296,-0.12541 -0.0304,-0.063 5.6e-4,-0.12499 -0.20482,-1.00297 -0.028,-0.2504 -0.32065,-1.66084 -0.0593,-0.25087 -0.11715,-0.56427 7.7e-4,-0.0624 -0.11626,-0.62669 -0.0281,-0.21922 -0.0304,-0.0628 -0.0288,-0.18793 -0.14668,-0.68961 4.2e-4,-0.0313 6.8e-4,-0.0937 -0.0289,-0.15672 -0.0307,-0.0313 6.6e-4,-0.0938 -0.0585,-0.28202 -0.0593,-0.25084 -0.028,-0.21923 -0.0586,-0.28205 7.8e-4,-0.0625 -0.32182,-1.56715 7.7e-4,-0.0625 4.5e-4,-0.0313 4.2e-4,-0.0312 -0.0297,-0.12541 -0.11713,-0.56418 6.8e-4,-0.0937 4.3e-4,-0.0313 -0.0592,-0.21957 7.8e-4,-0.0626 -0.11715,-0.5641 -0.11625,-0.62668 -0.0594,-0.25088 -0.0288,-0.1567 4.4e-4,-0.0313 4.3e-4,-0.0312 -0.0304,-0.0632 -0.0281,-0.25043 -0.14668,-0.68961 -0.0584,-0.28205 -0.14624,-0.72089 4.3e-4,-0.0312 -0.1154,-0.68928 -0.17699,-0.75253 -0.0574,-0.37585 4.6e-4,-0.0312 -0.0593,-0.21963 -0.0272,-0.28164 -0.0313,-4e-4 4.5e-4,-0.0312 5.6e-4,-0.12499 -0.0601,-0.15719 6.6e-4,-0.0937 -0.0304,-0.0635 7.8e-4,-0.0624 6.7e-4,-0.0938 -0.0297,-0.0947 -0.0308,-0.0312 -0.028,-0.21923 -0.0569,-0.40702 -0.0305,-0.0632 -0.028,-0.21911 -0.0593,-0.25085 7.7e-4,-0.0626 -0.0309,-0.032 -0.0288,-0.18791 -0.0593,-0.25083 4.2e-4,-0.0313 -0.0584,-0.31325 -0.0561,-0.46961 -0.0305,-0.0634 -0.0584,-0.28209 -0.0281,-0.25043 -0.17439,-0.93994 -0.0585,-0.28214 7.9e-4,-0.0625 -0.0297,-0.094 -0.11406,-0.78289 4.4e-4,-0.0312 -0.0584,-0.28212 -0.0289,-0.18791 -0.0593,-0.21966 4.7e-4,-0.0312 7.7e-4,-0.0625 -0.0874,-0.43878 -0.20297,-1.12794 -0.0289,-0.18794 -0.028,-0.21909 -0.0593,-0.25085 -0.0883,-0.37628 -0.0249,-0.43797 6.8e-4,-0.0937 -0.0249,-0.43792 4.3e-4,-0.0312 7.8e-4,-0.0626 0.007,-0.31237 -0.0288,-0.15674 0.008,-0.43742 -0.028,-0.25043 -0.0233,-0.56286 4.4e-4,-0.0313 -0.0281,-0.2191 4.6e-4,-0.1563 -0.0264,-0.34411 4.5e-4,-0.0313 -0.02,-0.78155 -0.0305,-0.0632 0.007,-0.34366 4.3e-4,-0.0313 -0.0497,-0.93827 -0.0288,-0.18791 -0.0439,-1.34446 -0.0272,-0.28169 5.8e-4,-0.12499 -0.024,-0.50038 -0.0498,-0.9383 7.9e-4,-0.0625 -0.0288,-0.15672 6.7e-4,-0.0937 2e-5,-0.2813 4.1e-4,-0.0312 -0.0296,-0.0943 7.8e-4,-0.0624 -0.0241,-0.53167 -0.0271,-0.31292 0.008,-0.49995 -0.0257,-0.3754 1.3e-4,-0.24998 -0.0288,-0.18791 6.7e-4,-0.0937 -0.0281,-0.21924 1.3e-4,-0.24997 6.7e-4,-0.0938 4.1e-4,-0.0312 -0.0769,-1.21998 7.8e-4,-0.0624 7.7e-4,-0.0626 -0.15629,-4.6e-4 z"
       id="OK-02"
       style="font-style:normal;font-weight:400;font-size:34.375px;font-family:'MS Shell Dlg 2';opacity:1;fill:none;fill-opacity:1;fill-rule:evenodd;stroke:#000000;stroke-width:0.33333385;stroke-linecap:square;stroke-linejoin:bevel;stroke-miterlimit:4;stroke-dasharray:none;stroke-opacity:1" />
    <path
       inkscape:connector-curvature="0"
       d="m 479.21965,449.63205 c 0.0736,-0.0487 0.11289,-0.14103 0.19022,-0.18477 0.41049,-0.14719 0.49543,-0.43672 0.41662,-0.74426 -0.0791,-0.30762 -0.32196,-0.62155 -0.55109,-0.82037 -0.28281,-0.25866 -0.38062,-0.59568 -0.39318,-0.94298 -0.0125,-0.3474 0.0413,-0.69767 0.077,-1.03031 -0.0493,-0.63895 0.20442,-1.23258 0.43146,-1.80666 -0.0895,-0.40528 0.11178,-0.5916 0.35468,-0.77633 0.2428,-0.18483 0.53007,-0.35076 0.66528,-0.64708 0.61445,-0.31403 1.35123,-0.22855 2.00595,-0.40952 0.12621,-0.17256 0.0744,-0.42801 -0.0536,-0.65701 -0.12802,-0.22911 -0.33348,-0.41151 -0.5559,-0.47662 l 2.31316,-0.0305 0.0134,1.25029 4.09464,-0.0366 0.01,-7.40689 17.09465,0.0506 -0.23065,-14.81715 1.87614,-0.0673 c 0.39546,0.37709 0.58031,0.54717 1.05104,0.82715 0.2134,0.15251 0.46144,-0.0499 0.50388,-0.27418 0.10029,-0.16602 0.0258,-0.5586 0.31946,-0.49561 0.42689,0.1411 0.76767,0.42929 1.11531,0.70317 0.1474,0.17217 0.31702,0.33556 0.55762,0.35152 0.25666,0.0401 0.56202,0.0813 0.74601,0.29173 0.24716,0.16278 0.49066,-0.15954 0.62974,-0.33492 0.27132,-0.33666 0.41034,-0.75346 0.45402,-1.18138 0.0229,-0.29172 0.12033,-0.39547 0.1346,-0.68559 l 2.43856,-0.0596 -0.12384,-9.0338 12.28578,-0.23479 0.11486,7.43982 11.94158,-0.20829 -0.0553,-5.00127 9.84809,-0.23752 -0.16313,-6.22167 1.15696,-0.0464 -0.0134,-1.28161 1.34499,-2.32514 1.18879,-0.077 -0.0586,-2.50107 -6.22169,0.16315 -0.0906,-2.4703 6.81544,-0.15487 -0.79593,-23.57581 -2.09491,0.0642 -1.03151,0.0169 -0.0626,-7.8e-4 -0.0624,-7.8e-4 -0.0631,0.0304 -0.0624,-7.7e-4 -0.0313,-4.4e-4 -0.71905,0.0211 -0.34378,-0.007 -0.3754,0.026 -0.40615,-0.007 -0.90708,0.0497 -0.0313,-4.3e-4 -0.0624,-7.7e-4 -2.31369,0.0618 -0.28118,-2e-5 -0.46921,0.0248 -1.93851,0.0666 -0.56298,0.0232 -0.59362,-0.008 -1.62574,0.0401 -1.84436,0.0369 -0.125,-5.6e-4 -0.4692,0.0248 -0.12499,-5.4e-4 -0.0938,-6.6e-4 -0.18782,0.0289 -0.96913,0.0177 -0.0625,-8.1e-4 -0.62537,0.0224 -1.00035,0.0171 -0.21869,-2.6e-4 -0.56255,-0.008 -0.0312,-4.7e-4 -0.31288,0.0272 -0.0937,-6.8e-4 -0.0938,-6.9e-4 -0.21923,0.0281 -0.71863,-0.008 -0.18793,0.0288 -1.2503,0.0134 -0.2188,-2.4e-4 -0.12497,-5.6e-4 -1.25075,0.045 -0.0624,-7.8e-4 -0.37498,-0.007 -0.0626,-7.8e-4 -0.34367,-0.007 -0.21909,0.028 -0.1876,-3.5e-4 -1.03154,0.0168 -1.21913,0.0145 -1.03153,0.0169 -0.93784,0.0184 -0.4379,0.0248 -0.0625,-7.9e-4 -0.18751,-3.3e-4 -0.24997,-1.2e-4 -1.78187,0.0378 -0.21881,-2.4e-4 -1.21955,0.0456 -0.43735,-0.008 -0.40624,-0.007 -0.40669,0.0257 -0.56237,-0.008 -0.0313,-4.6e-4 -0.65623,-0.008 -0.31279,0.0273 -0.93796,0.0184 -0.0937,-6.6e-4 -1.6253,0.009 -0.34366,-0.007 -0.0626,-7.7e-4 -0.3441,0.0265 -1.68778,0.008 -0.40659,0.0256 -1.59406,0.009 -0.78157,0.0201 -0.68754,-0.008 -0.0937,-6.7e-4 -0.0937,-6.7e-4 -0.0313,-4.4e-4 -0.12498,-5.7e-4 -1.50031,0.0106 -0.3754,0.0259 -0.43742,-0.008 -0.68789,0.0216 -0.2813,-2e-5 -0.40614,-0.007 -0.25041,0.0281 -0.40615,-0.007 -2.43781,-0.002 -0.0312,-4.4e-4 -0.15619,-4.6e-4 -0.21877,-2.3e-4 -1.03154,0.0168 -0.2188,-2.4e-4 -0.0312,-4.5e-4 -1.28118,-0.0168 -0.18747,-3.4e-4 -1.34412,0.0125 -1.75027,0.007 -0.68733,-0.008 -1.4066,0.0115 -0.0937,-6.8e-4 -0.96869,-0.0151 -0.68746,-0.008 -0.0313,-4.5e-4 -0.0937,-6.7e-4 -0.34411,0.0264 -1.28118,-0.0168 -0.0313,-4.4e-4 -0.21868,-2.3e-4 -0.96904,0.0176 -1.59363,-0.023 -0.15621,-4.5e-4 -0.28127,-2e-5 -0.37496,-0.007 -0.34411,0.0265 -0.0938,-6.7e-4 -1.71863,-0.024 -0.0937,-6.8e-4 -1.96895,0.004 -0.12498,-5.7e-4 -0.0938,-6.7e-4 -0.49995,-0.008 -0.65613,-0.008 -2.21857,-0.0314 -0.0312,-4.6e-4 -0.46919,0.0248 -0.21877,-2.4e-4 -1.12489,-0.016 -0.62495,-0.008 -0.37497,-0.007 -0.0312,-4.4e-4 -0.0312,-4.2e-4 -0.12499,-5.7e-4 -0.71872,-0.008 -0.37496,-0.007 -0.4066,0.0256 -1.12492,-0.016 -0.53123,-0.008 -0.18703,-0.0336 -0.40617,-0.007 -0.59376,-0.008 -0.46872,-0.008 -1.18729,-0.0164 -0.25001,-1.2e-4 -1.03117,-0.0154 -0.99946,-0.0449 -0.65627,-0.008 -2.06264,0.002 -0.12451,-0.0328 -0.0313,-4.2e-4 -0.0625,-7.8e-4 -1.90603,-0.0255 -0.59376,-0.008 -1.62482,-0.023 -0.0938,-6.8e-4 -0.0312,-4.4e-4 -0.1875,-3.5e-4 -1.53111,-0.0225 -2.84343,-0.04 -0.87491,-0.0145 -0.0625,-7.7e-4 -0.59373,-0.008 -0.71864,-0.008 -0.71868,-0.008 -0.56251,-0.008 -0.0312,-4.6e-4 -0.87491,-0.0145 -0.84376,-0.008 -0.0937,-6.5e-4 -0.96859,-0.0151 -0.40625,-0.007 -0.90666,0.0184 -0.53073,-0.0384 -0.0625,-7.9e-4 -0.12499,-5.8e-4 -0.9062,-0.0148 -0.18739,-3.4e-4 -0.81254,-0.008 -0.12498,-5.6e-4 -0.81235,-0.008 -0.28082,-0.0353 -0.0317,0.0306 -0.90609,-0.0148 -0.28117,-3e-5 -0.8745,-0.0433 -0.37497,-0.007 -0.90618,-0.0148 -0.31245,-0.007 -0.49995,-0.008 -0.15621,-4.2e-4 -0.53121,-0.008 -0.9686,-0.0151 -1.09327,-0.0465 -0.0625,-7.7e-4 -1.18737,-0.0164 -0.40619,-0.007 -1.65611,-0.0235 -0.0625,-7.7e-4 -0.0312,-4e-4 -0.37497,-0.007 -0.81209,-0.0424 -0.0312,-4.4e-4 -1.59366,-0.023 -0.74949,-0.0416 -0.81232,-0.008 -0.90621,-0.0148 -0.125,-5.5e-4 -0.0313,-4e-4 -0.68689,-0.0409 -0.90619,-0.0148 -1.03121,-0.0154 -0.99945,-0.0455 -1.46811,-0.052 -0.81244,-0.008 -0.40616,-0.007 -0.40626,-0.007 -0.062,-0.032 -0.0625,-7.8e-4 -0.68741,-0.008 -1.46823,-0.0521 -0.62494,-0.008 -0.34366,-0.007 -0.24956,-0.0345 -2.93632,-0.10322 -0.56202,-0.0393 -0.96815,-0.0449 -0.21834,-0.0344 -0.1875,-3.4e-4 -0.8749,-0.0145 -1.06194,-0.0462 -3.8104,-0.17824 -3.93536,-0.17997 -0.99861,-0.10771 -0.37364,-0.0991 -0.43746,-0.008 -0.62449,-0.04 -0.18707,-0.0336 -0.62492,-0.008 -3.09266,-0.10579 -0.15616,-4.7e-4 -0.0312,-4.4e-4 -0.34289,-0.0672 -0.0977,2.49888 -7.7e-4,0.0624 -0.2621,5.34068 -0.0801,1.24901 -0.0849,1.62395 -0.007,0.40616 -0.0464,1.09325 -0.0774,1.06153 -5.6e-4,0.12499 -0.04,0.62452 2.24893,0.0937 1.46776,0.0833 1.09316,0.0465 2.15521,0.0928 1.21816,0.0481 6.30925,0.27562 0.24999,1.2e-4 2.3739,0.0954 0.125,5.6e-4 1.90515,0.0889 0.40624,0.007 0.40583,0.0368 0.0312,4.3e-4 0.0625,7.9e-4 2.03068,0.0595 2.31132,0.0945 0.12497,5.7e-4 0.0938,6.7e-4 0.15619,4.5e-4 1.99891,0.0905 0.28084,0.0353 0.59366,0.008 0.0313,4.5e-4 0.0625,7.9e-4 0.0625,7.8e-4 0.0313,4.4e-4 0.0312,4.4e-4 0.12498,5.5e-4 0.6562,0.008 0.78076,0.0424 0.25,1.2e-4 0.5932,0.0392 0.43754,0.008 0.0937,6.7e-4 0.59361,0.008 0.59334,0.0393 4.15491,0.12057 0.49995,0.008 1.18707,0.048 1.15606,0.016 4.65443,0.1588 0.74997,0.008 0.15628,4.4e-4 1.56232,0.0225 0.53115,0.008 0.40581,0.0368 0.40627,0.007 0.78114,0.008 0.53118,0.008 0.21877,2.4e-4 0.5933,0.0393 0.43734,0.008 0.0626,7.8e-4 0.9373,0.0148 0.84371,0.008 0.37497,0.007 0.53115,0.008 0.62451,0.0401 0.21877,2.4e-4 1.24989,0.0168 0.2188,2.3e-4 0.12496,5.7e-4 0.71865,0.008 0.34368,0.007 0.0313,4.5e-4 0.15624,4.5e-4 0.78115,0.008 1.09371,0.0157 -4.4e-4,0.0312 0.15617,4.6e-4 0.28118,0.002 0.18758,3.4e-4 0.78115,0.008 0.62492,0.008 0.37498,0.007 0.24999,1.3e-4 0.28118,2e-5 0.0313,4.3e-4 1.28122,0.0168 1.65599,0.0235 2.0623,0.0296 1.96853,0.026 0.0626,7.8e-4 -4.4e-4,0.0312 -0.0314,2.21859 -0.0634,4.49956 -0.0235,1.65602 -0.0157,1.09369 -0.0148,0.90611 2.9e-4,2.12523 -0.0692,4.93713 -7.8e-4,0.0624 -0.0532,3.78091 -0.0475,3.40599 -4.6e-4,0.15618 -0.0394,2.81223 -0.0384,2.71842 -0.0482,3.46845 -4.4e-4,0.0312 -0.008,0.74993 -0.0255,1.90614 -0.008,0.62496 -0.0605,4.31206 -0.0699,4.9683 -7.8e-4,0.0624 -0.016,1.1249 -0.0255,1.87484 -0.0152,0.99988 -0.0553,3.9684 -2e-5,0.2812 0.0312,4.1e-4 0.0313,4.7e-4 0.24999,1.1e-4 0.2817,-0.0272 0.0624,7.7e-4 0.15802,-0.12276 0.15848,-0.15401 0.0317,-0.0307 4.5e-4,-0.0313 6.5e-4,-0.0937 0.0634,-0.0305 0.2191,-0.028 0.3429,0.0673 0.0312,4.8e-4 0.12411,0.0641 0.0297,0.12545 0.15453,0.12717 0.0303,0.031 0.37148,0.25522 0.0618,0.0321 0.0617,0.0321 0.12324,0.12672 0.0617,0.0632 -4.2e-4,0.0313 0.15408,0.15847 0.031,0.0317 0.0617,0.0633 0.0305,0.0632 -6.7e-4,0.0938 0.0921,0.12631 0.0623,0.032 0.3068,0.41056 0.18574,0.12758 0.27812,0.2227 0.1867,0.0649 0.15271,0.25216 -6.8e-4,0.0937 0.0906,0.2513 0.49122,0.6319 0.2152,0.25304 0.0308,0.0315 0.15618,4.6e-4 0.0623,0.0321 0.1853,0.15878 -4.5e-4,0.0312 -4.2e-4,0.0313 -0.0641,0.0929 -7.9e-4,0.0626 0.30897,0.25434 0.30985,0.19175 0.12456,0.0329 0.12408,0.0641 0.24825,0.12848 -4.1e-4,0.0312 0.0921,0.0954 0.0308,0.0316 -6.6e-4,0.0938 -6.6e-4,0.0938 0.0609,0.0945 0.0922,0.0953 0.27852,0.1915 0.43706,0.0376 0.1241,0.0641 0.0313,4.3e-4 0.0921,0.0953 0.0313,4.2e-4 0.0616,0.0321 0.0634,-0.0305 0.0312,4.1e-4 0.0946,-0.0608 0.1263,-0.0922 0.43604,0.10016 0.0619,0.032 0.0929,0.0641 0.56287,-0.0233 0.0954,-0.0921 0.22219,-0.24693 0.0321,-0.0621 0.0328,-0.0932 -0.0288,-0.18783 0.0344,-0.24953 0.0978,-0.27995 0.15661,-0.0289 0.0938,6.8e-4 0.15575,0.0337 0.0312,4.5e-4 0.12412,0.0641 0.1554,0.0649 0.46823,0.0377 0.0313,4.4e-4 0.0937,6.6e-4 0.15758,-0.0914 0.0618,0.032 0.34245,0.0986 0.0616,0.0633 0.0922,0.0953 0.0922,0.1263 0.0616,0.0634 0.21832,0.0344 0.0625,7.8e-4 0.0625,7.9e-4 0.0312,4.4e-4 0.18581,0.12759 0.24822,0.12849 0.18437,0.22139 0.0914,0.1887 0.21877,2.5e-4 0.253,-0.21519 0.27773,0.2539 0.0312,4.4e-4 0.0317,-0.031 0.0313,4.4e-4 0.0312,4.3e-4 0.0946,-0.0608 0.0632,-0.0618 4.6e-4,-0.15619 0.13371,-0.62319 -0.0584,-0.28205 -0.0618,-0.0634 4.4e-4,-0.0312 4.6e-4,-0.15618 0.007,-0.31257 0.0337,-0.18695 4.6e-4,-0.0313 0.31814,-0.40184 0.12586,-0.0608 0.1562,4.6e-4 0.24865,0.0969 0.0922,0.0953 -4.6e-4,0.0313 -4.2e-4,0.0313 -4.6e-4,0.0312 -0.032,0.0621 -0.0313,-4.8e-4 -7.7e-4,0.0625 -7.8e-4,0.0625 -4.6e-4,0.0313 0.0313,4.3e-4 0.12323,0.12676 0.21649,0.15923 0.18619,0.0962 0.0609,0.0945 0.0617,0.0633 0.0914,0.1888 -4.5e-4,0.0313 0.0608,0.12585 0.0307,0.0318 0.0313,4.3e-4 -4.5e-4,0.0312 0.0624,7.9e-4 0.18846,-0.06 0.22043,-0.12194 0.0943,-0.0297 0.12454,0.0329 0.0626,7.8e-4 0.52766,0.25739 0.093,0.064 -4.4e-4,0.0313 0.0272,0.28171 -4.6e-4,0.0312 -0.0314,0.0303 -0.063,0.0305 -0.0318,0.0308 -0.15617,-4.5e-4 -0.0626,-7.8e-4 -0.0316,0.0303 -7.7e-4,0.0625 0.093,0.0641 -4.2e-4,0.0312 0.27768,0.25391 0.0938,6.8e-4 0.0945,-0.0608 0.0633,-0.0618 0.15444,0.12716 0.0602,0.18846 0.0608,0.0945 0.0297,0.12544 0.0297,0.12543 0.0272,0.28167 -4.3e-4,0.0312 0.0617,0.0633 0.0937,6.4e-4 0.0938,7e-4 0.0632,-0.0305 0.063,-0.0304 0.093,0.0641 0.0608,0.0945 z"
       id="OK-03"
       style="font-style:normal;font-weight:400;font-size:34.375px;font-family:'MS Shell Dlg 2';opacity:1;fill:none;fill-opacity:1;fill-rule:evenodd;stroke:#000000;stroke-width:0.33333385;stroke-linecap:square;stroke-linejoin:bevel;stroke-miterlimit:4;stroke-dasharray:none;stroke-opacity:1" />
    <path
       inkscape:connector-curvature="0"
       d="m 532.89264,460.00747 -0.0705,-1.68856 -0.81287,0.02 -0.0313,-4.46967 0.78159,-0.02 -0.0929,-4.53295 1.25163,-0.10754 -0.11996,-4.84593 8.65938,-0.16032 -0.18059,-4.97179 2.50107,-0.0586 -0.18397,-6.97195 c -0.022,0.0114 -0.32235,0.56706 -0.53987,0.61752 -0.39534,0.0916 -0.48161,-0.076 -0.62234,-0.1962 -0.10891,-0.093 -0.39941,-0.0301 -0.75122,0.0834 l 0,0 c -0.10289,0.0329 -0.0762,-0.0384 -0.2192,0.028 -0.10326,0.31718 -0.14184,0.90193 -0.42146,1.08801 -0.27639,0.18378 -0.50037,0.10874 -0.65526,-0.0716 -0.15501,-0.1804 -0.22872,-0.48626 -0.23951,-0.75343 -0.0398,-0.24808 -0.15119,-0.33053 -0.27646,-0.3476 -0.12527,-0.0169 -0.26743,0.0579 -0.43965,0.15018 -0.3444,0.18392 -0.76833,0.44131 -1.06721,0.32883 -0.29123,-0.0701 -0.43856,-0.29135 -0.61795,-0.50868 -0.17936,-0.21731 -0.38049,-0.42414 -0.80718,-0.3863 -0.26604,0.0234 -0.45371,0.15619 -0.47313,0.30594 -0.0196,0.14973 0.13471,0.3163 0.55688,0.414 0.0517,0.32984 0.0122,0.63623 -0.13719,0.87318 -0.14915,0.23704 -0.40221,0.40531 -0.85069,0.48817 -0.25998,-0.24666 -0.15611,-0.73854 -0.57938,-1.03942 -0.18554,-0.16859 -0.5066,-0.12447 -0.74815,-0.13541 -0.2415,-0.008 -0.41482,-0.0536 -0.30628,-0.44185 0.16003,-0.39501 0.0502,-0.61246 -0.2096,-0.65929 -0.25956,-0.047 -0.6598,0.0589 -1.03589,0.32937 -0.64482,-0.12003 -1.06679,-0.87579 -1.73761,-0.89936 -0.54849,0.388 -0.90006,1.05574 -1.458,1.4486 -0.2924,0.21273 -0.56231,0.11875 -0.84364,-0.008 -0.28128,-0.13062 -0.55434,-0.30096 -0.83881,-0.35554 -0.62045,-0.0145 -1.3001,-0.27367 -1.90524,-0.0889 l -0.16738,-12.62856 -4.09558,0.099 0.048,-1.21824 0.7508,-0.0521 0.0164,-1.1874 0.37541,-0.0258 -0.02,-0.81294 -2.00113,0.0658 0.0256,0.4066 -1.62528,0.009 -0.009,2.87513 -5.72072,0.10768 -0.0193,-0.87535 -2.43857,0.0596 c -0.0142,0.29012 -0.11162,0.39387 -0.13459,0.68556 -0.0437,0.42794 -0.18271,0.84473 -0.45405,1.1814 -0.13905,0.17538 -0.38259,0.4977 -0.62974,0.33493 -0.18396,-0.21058 -0.48931,-0.25165 -0.74599,-0.29172 -0.24061,-0.0158 -0.41024,-0.17937 -0.55763,-0.35154 -0.34762,-0.27388 -0.68844,-0.56207 -1.11533,-0.70316 -0.29383,-0.0629 -0.21921,0.32959 -0.31944,0.49561 -0.0425,0.22433 -0.29047,0.42669 -0.50388,0.27418 -0.47072,-0.27998 -0.65556,-0.45008 -1.05102,-0.82717 l -1.87614,0.0673 0.23065,14.81716 -17.09466,-0.0506 -0.01,7.40691 -4.09461,0.0364 -0.0134,-1.2503 -2.31313,0.0305 c 0.22239,0.0652 0.42788,0.24751 0.55589,0.47664 0.128,0.22899 0.17956,0.48444 0.0531,0.657 -0.65469,0.18097 -1.39147,0.0955 -2.00592,0.40951 -0.13522,0.29637 -0.42247,0.46227 -0.6653,0.6471 -0.24288,0.18473 -0.4441,0.37104 -0.35468,0.77629 -0.22701,0.57412 -0.48062,1.16775 -0.43147,1.80667 -0.0357,0.33266 -0.0895,0.68293 -0.077,1.03034 0.0126,0.34729 0.11036,0.6843 0.39317,0.94298 0.22915,0.19882 0.47232,0.51274 0.5511,0.82037 0.0791,0.30753 -0.006,0.59705 -0.4166,0.74427 -0.0775,0.044 -0.11673,0.13629 -0.19022,0.18475 l 0.0265,0.3442 -0.0665,0.2803 -0.0328,0.0931 -6.6e-4,0.0938 0.056,0.43823 -4.5e-4,0.0313 0.0297,0.1254 -4.5e-4,0.0313 0.0617,0.0632 0.093,0.0642 0.0624,7.8e-4 0.0938,6.7e-4 0.0312,4.2e-4 -4.3e-4,0.0312 0.0281,0.21922 -0.0668,0.3115 -0.008,0.49994 0.0296,0.0942 0.12194,0.22052 -6.6e-4,0.0937 -8e-4,0.0625 -0.0336,0.15573 -0.0328,0.0932 0.0309,0.0319 0.0617,0.0634 -4.7e-4,0.0312 0.0313,4.3e-4 0.68561,0.13459 0.34592,-0.15139 0.15795,-0.12279 0.15626,4.6e-4 0.0625,7.8e-4 0.0308,0.0319 -7.7e-4,0.0625 -7.9e-4,0.0625 -0.0629,0.0304 -0.0329,0.0934 -0.0319,0.0303 0.061,0.0946 0.0616,0.0633 0.18713,0.0337 0.25085,-0.0594 0.15707,-0.06 0.22054,-0.12193 0.25041,-0.0281 0.0627,-0.0305 0.062,0.0321 0.24909,0.0657 0.1237,0.0954 0.0304,0.063 -7.8e-4,0.0626 0.0312,4.3e-4 0.2179,0.0656 0.125,5.7e-4 0.0633,-0.0616 0.0329,-0.12454 0.0633,-0.0305 4.4e-4,-0.0313 0.56123,0.10175 0.15749,-0.0914 0.0633,-0.0616 7.9e-4,-0.0626 6.7e-4,-0.0937 0.0641,-0.0929 0.22051,-0.12192 0.0929,0.0328 0.155,0.0962 0.0592,0.21955 0.0297,0.0942 0.0609,0.0946 0.12412,0.0641 0.0625,7.9e-4 0.0953,-0.0921 7.8e-4,-0.0626 4.6e-4,-0.15618 0.0319,-0.0307 0.063,-0.0305 0.12457,0.0329 0.0618,0.032 0.2469,0.22227 0.27693,0.31629 -7.9e-4,0.0626 0.12325,0.12674 0.0616,0.0632 0.0618,0.0634 0.18562,0.12762 0.40453,0.13065 0.37322,0.13023 0.0929,0.0328 0.0305,0.0627 -7.8e-4,0.0625 -0.0321,0.0619 -0.064,0.0929 -4.2e-4,0.0313 0.0616,0.0633 0.0922,0.0954 0.0308,0.0317 0.12496,5.6e-4 0.0632,-0.0304 0.032,-0.062 3.3e-4,-0.1874 0.032,-0.0618 0.0313,4.3e-4 0.0313,4.5e-4 0.28163,-0.0272 0.24999,1.2e-4 0.43614,0.10016 0.0313,4.3e-4 0.12411,0.064 0.0304,0.0631 0.30856,0.28554 0.31113,0.0979 0.12413,0.064 0.12456,0.0329 0.0617,0.0321 0.0313,4e-4 -4.5e-4,0.0312 0.0617,0.032 0.0308,0.0316 0.0297,0.0944 -7.7e-4,0.0626 0.0616,0.0632 0.0313,4.3e-4 0.0313,4.3e-4 0.0937,6.8e-4 0.18791,-0.0288 0.0321,-0.0306 0.0313,4.4e-4 0.0329,-0.12455 0.032,-0.0619 0.032,-0.0617 0.0313,4.5e-4 0.0937,6.7e-4 0.28171,-0.0273 0.0313,4.4e-4 0.24953,0.0345 0.21826,0.0344 0.15625,4.7e-4 0.0319,-0.0306 0.0633,-0.0618 0.22084,-0.15314 4.5e-4,-0.0312 0.12631,-0.0922 0.37976,-0.33854 0.0954,-0.12368 0.0632,-0.0304 0.12499,5.7e-4 0.15542,0.0649 0.0619,0.0321 0.0619,0.032 0.21779,0.0657 0.0313,4.5e-4 0.0618,0.0321 0.0313,4.6e-4 0.0937,6.8e-4 0.0632,-0.0305 0.0317,-0.0308 0.0946,-0.0608 0.0937,6.7e-4 0.55807,0.32022 0.0922,0.0954 0.30759,0.34814 0.0289,0.1566 0.18445,0.22141 0.33894,0.34847 0.12196,0.22043 0.0608,0.12585 0.585,0.63323 0.40224,0.28694 0.0626,7.8e-4 0.0312,4.4e-4 0.0312,4.3e-4 0.15719,-0.0601 0.25172,-0.12151 0.34541,-0.12019 0.0634,-0.0617 0.032,-0.062 7.8e-4,-0.0625 0.032,-0.0619 0.0317,-0.0304 0.0324,-0.0308 0.0312,4.5e-4 0.0312,4.2e-4 0.0944,-0.0297 0.0625,7.8e-4 0.0313,4.4e-4 0.0624,7.9e-4 0.0626,7.8e-4 0.0616,0.0634 0.0626,7.7e-4 0.0312,4.4e-4 0.0312,4.4e-4 4.3e-4,-0.0313 0.0632,-0.0305 0.31802,-0.40179 0.0319,-0.0308 0.0329,-0.12455 0.008,-0.46875 -0.0618,-0.032 0.065,-0.18667 0.31939,-0.49559 0.0642,-0.0929 0.31496,-0.18311 0.0313,4.4e-4 0.0632,-0.0304 0.49906,0.0696 0.0312,4.2e-4 0.0619,0.0321 0.18695,0.0337 0.0313,4.2e-4 0.0625,7.8e-4 0.0306,0.0317 0.0313,4.3e-4 0.0313,4.2e-4 -4.7e-4,0.0312 0.0618,0.0321 0.0305,0.0625 0.0929,0.0641 0.0618,0.0633 0.27857,0.19142 0.0312,4.5e-4 0.0313,4.4e-4 0.0929,0.0641 0.0313,4.6e-4 0.31203,0.0353 0.312,0.0358 0.125,5.6e-4 0.0625,7.8e-4 0.0625,7.8e-4 0.0313,4.7e-4 0.15663,-0.0289 0.15706,-0.06 0.37277,0.16143 0.0305,0.0632 0.18618,0.0961 0.31116,0.0979 0.0619,0.032 0.21835,0.0345 0.5307,0.0385 0.25262,-0.18409 0.0946,-0.0608 0.25562,-0.4028 0.0961,-0.15496 0.0641,-0.0929 0.12716,-0.15451 0.1579,-0.12281 0.21879,2.3e-4 0.12457,0.0329 0.0618,0.0321 0.12281,0.15792 0.21302,0.40921 0.0618,0.0634 -7.8e-4,0.0624 -4.6e-4,0.1563 -0.065,0.15543 -0.0648,0.15531 -7.8e-4,0.0625 -0.0962,0.15495 -0.032,0.0618 -0.0316,0.0304 -0.0321,0.0306 -4.4e-4,0.0312 -0.0316,0.0307 -0.0641,0.093 -0.0953,0.0922 -0.0318,0.0307 -0.0633,0.0617 -0.0633,0.0617 -4.3e-4,0.0312 -0.0641,0.093 0.028,0.25042 0.0602,0.15707 0.0921,0.1263 0.30811,0.31694 0.0617,0.0632 0.0609,0.12585 -6.7e-4,0.0938 -0.032,0.0619 -0.0942,0.0297 -0.0628,0.0304 -0.0321,0.0619 -7.8e-4,0.0625 -4.4e-4,0.0312 0.0618,0.0634 0.36581,0.66136 0.0616,0.0633 0.0626,8e-4 0.6535,0.19662 0.125,5.7e-4 0.1866,0.0649 0.34367,0.007 0.18801,-0.0289 0.0312,4.7e-4 0.28202,-0.0584 0.15673,-0.0289 0.25086,-0.0593 0.0319,-0.0304 0.0945,-0.061 0.1263,-0.0921 0.0942,-0.0297 0.0621,0.0321 0.0608,0.12587 0.0922,0.0953 0.0304,0.0633 -4.2e-4,0.0312 0.0313,4.4e-4 0.0921,0.0954 0.0621,0.032 0.0624,7.8e-4 0.12586,-0.0609 0.0306,0.0318 0.0309,0.0319 -4.7e-4,0.0312 -0.16284,0.46657 -4.1e-4,0.0312 -4.5e-4,0.0313 -0.0978,0.31117 -0.0962,0.18617 -0.0954,0.12369 -0.18871,0.0913 -0.0321,0.0619 -7.8e-4,0.0624 0.0617,0.0634 -4.5e-4,0.0312 0.15578,0.0336 0.0317,-0.0306 0.21955,-0.0593 -4.4e-4,0.0313 0.0307,0.0318 -5.6e-4,0.12499 0.0305,0.0631 -0.0337,0.15585 -0.0665,0.28028 -0.0954,0.1237 -0.0632,0.0617 -0.0317,0.0309 -0.0942,0.0296 -0.0313,-4.4e-4 -0.0617,-0.0633 -0.0922,-0.1263 -0.0624,-7.9e-4 -0.0324,0.0308 -0.0657,0.21779 -0.0328,0.0931 -4.4e-4,0.0313 -4.3e-4,0.0313 0.0306,0.0316 0.15312,0.22099 0.061,0.0945 0.1549,0.0961 0.21743,0.097 0.18741,3.4e-4 0.0938,6.8e-4 0.0944,-0.0296 0.0937,6.7e-4 0.0313,4.4e-4 0.0306,0.0311 0.093,0.0328 0.34063,0.22357 0.31026,0.16055 0.21661,0.15933 0.43429,0.2248 0.15585,0.0337 0.12544,-0.0297 0.21954,-0.0592 0.50258,-0.18059 0.0313,4.2e-4 0.0313,4.4e-4 0.60108,-0.52285 0.0318,-0.0308 0.064,-0.093 0.0329,-0.12452 0.40889,-0.18182 0.0953,-0.12368 5.6e-4,-0.12499 5.7e-4,-0.12499 -0.0913,-0.18879 0.25129,-0.0906 0.18738,3.4e-4 0.0313,4.3e-4 4.2e-4,-0.0312 0.063,-0.0304 4.2e-4,-0.0313 0.032,-0.0621 -0.0288,-0.15661 -0.0601,-0.18845 6.6e-4,-0.0937 0.21955,-0.0593 0.0626,7.8e-4 0.18782,-0.0288 0.0938,6.9e-4 0.0618,0.032 0.0313,4.3e-4 0.0312,4.5e-4 0.0312,4.4e-4 0.15801,-0.12281 0.0953,-0.12368 0.0946,-0.0609 0.0641,-0.0929 0.0633,-0.0618 0.0633,-0.0616 7.7e-4,-0.0626 0.0961,-0.18608 0.16195,-0.40407 0.0961,-0.18618 0.12585,-0.0609 0.37716,-0.15107 0.15629,4.5e-4 0.0937,6.7e-4 0.0313,4.3e-4 0.093,0.0329 0.52819,0.22609 0.58844,0.38325 0.46307,0.41282 0.0305,0.0319 -0.0392,0.5932 -6.9e-4,0.0937 -0.0954,0.12368 -0.0317,0.0306 -0.032,0.0622 -7.7e-4,0.0625 0.0306,0.0319 -7.8e-4,0.0624 0.0609,0.12584 0.12236,0.18935 0.0309,0.0318 0.12453,0.0328 0.093,0.0329 0.40584,0.0369 0.0618,0.032 0.0938,6.5e-4 0.0943,-0.0296 0.18872,-0.0914 0.22097,-0.15311 0.0312,4.2e-4 0.15845,-0.15409 0.12586,-0.0609 0.34584,-0.1514 0.0943,-0.0297 0.12497,5.7e-4 0.0312,4.3e-4 0.0306,0.0318 0.0313,4.6e-4 0.12456,0.0328 0.0615,0.032 0.18626,0.0962 0.37149,0.25522 0.0616,0.0633 0.12281,0.15803 0.061,0.0945 -4.5e-4,0.0313 -0.008,0.56234 -0.0321,0.0621 -0.0657,0.2491 -0.0336,0.15573 -0.0634,0.0617 -0.0328,0.0931 -0.0344,0.21834 0.0913,0.1888 0.15365,0.18965 0.21694,0.12806 0.40496,0.0994 0.37495,0.007 0.1874,3.5e-4 0.43754,0.008 0.28161,-0.0273 0.0946,-0.0609 0.0632,-0.0617 0.15888,-0.1853 0.25522,-0.37148 0.16281,-0.46658 0.0344,-0.21823 0.0328,-0.0932 0.0321,-0.0619 0.0633,-0.0616 0.0938,6.7e-4 0.0305,0.0315 0.0308,0.0318 0.0602,0.18846 0.0308,0.0317 0.125,5.7e-4 0.0314,-0.031 0.0322,-0.0303 0.0961,-0.18621 0.0642,-0.093 4.5e-4,-0.0312 0.12587,-0.0609 0.0942,-0.0297 0.0921,0.0954 0.0304,0.031 0.15367,0.18978 0.0308,0.0319 0.0304,0.0312 0.1241,0.0642 0.0932,0.0328 0.0929,0.0328 0.31285,-0.0271 0.0313,4.6e-4 0.0318,-0.0307 0.0316,-0.0306 0.12893,-0.27951 0.04,-0.65572 7.8e-4,-0.0625 0.0321,-0.0616 4.5e-4,-0.0312 0.0641,-0.093 0.0629,-0.0304 0.28434,-0.21484 0.0937,6.8e-4 0.25044,-0.028 0.0313,4.3e-4 0.0312,4.4e-4 0.093,0.0328 0.12371,0.0954 0.15442,0.12717 0.18574,0.12762 -4.5e-4,0.0312 0.0313,3.9e-4 0.0307,0.0319 0.0609,0.0946 0.031,0.0317 0.0296,0.0943 0.20701,0.84675 0.11933,0.40791 -3.4e-4,0.1875 -0.12717,0.15453 -0.2201,0.0905 -4.5e-4,0.0313 -0.12499,-5.7e-4 -0.15617,-4.5e-4 -0.0631,0.0304 -0.0312,-4.3e-4 -4.6e-4,0.0312 -0.032,0.062 -0.0962,0.15487 -0.0328,0.0932 -0.0345,0.24956 0.0297,0.0941 -5.5e-4,0.12499 -4.2e-4,0.0313 0.0608,0.0945 0.18278,0.34628 0.12326,0.12674 0.058,0.31347 0.15104,0.37712 0.21259,0.44041 0.0305,0.0632 0.0921,0.12632 0.12325,0.12671 0.18582,0.12763 0.0619,0.032 0.062,0.032 0.0312,4.4e-4 0.27984,0.0978 0.24956,0.0344 0.12498,5.7e-4 0.0317,-0.0303 0.1254,-0.0296 0.0313,4.4e-4 0.0312,4.2e-4 0.0631,-0.0305 0.0315,-0.0307 0.0318,-0.0308 0.0625,7.7e-4 0.15847,-0.15399 0.064,-0.093 0.0321,-0.0618 0.0324,-0.031 0.0312,-0.0306 4.5e-4,-0.0312 4.3e-4,-0.0313 0.0328,-0.0931 0.0642,-0.093 0.0344,-0.24954 4.3e-4,-0.0312 3.6e-4,-0.18759 -0.0288,-0.15661 -0.0602,-0.18836 7.8e-4,-0.0625 -0.15136,-0.34597 7.7e-4,-0.0624 -0.0296,-0.094 4.2e-4,-0.0312 -0.0313,-4.1e-4 0.0321,-0.0618 7.8e-4,-0.0624 4.5e-4,-0.0313 4.3e-4,-0.0313 0.0328,-0.093 0.0319,-0.0308 0.0954,-0.12368 0.18926,-0.12237 0.25083,-0.0592 0.0941,-0.0297 0.0313,4.5e-4 0.0953,-0.0921 0.0954,-0.12366 7.8e-4,-0.0626 -0.0288,-0.15661 -0.061,-0.0946 7.7e-4,-0.0624 4.5e-4,-0.0313 7.9e-4,-0.0625 0.0632,-0.0304 0.0943,-0.0297 0.062,0.0321 0.093,0.0328 0.093,0.0328 0.0313,4.4e-4 0.0312,4.3e-4 0.34638,-0.18257 0.12717,-0.15454 0.19087,-0.24736 0.22358,-0.34062 0.0954,-0.12366 0.22344,-0.34074 0.0317,-0.0302 5.6e-4,-0.12502 -0.026,-0.37541 4.3e-4,-0.0313 -0.0889,-0.34497 -0.12106,-0.28301 -0.0297,-0.0942 4.9e-4,-0.0313 3.9e-4,-0.0313 -0.0289,-0.18782 4.3e-4,-0.0313 4.6e-4,-0.15628 0.0313,-0.0306 4.4e-4,-0.0312 0.0641,-0.093 0.0946,-0.0609 0.0939,-0.0297 0.0313,4.3e-4 0.0624,7.9e-4 -4.4e-4,0.0313 -0.0328,0.093 -7.9e-4,0.0626 0.028,0.2191 0.061,0.0945 -4.2e-4,0.0313 0.0312,4.4e-4 0.062,0.0321 0.0313,4.4e-4 0.47259,-0.27473 0.15802,-0.12281 0.25217,-0.15279 z"
       id="OK-04"
       style="font-style:normal;font-weight:400;font-size:34.375px;font-family:'MS Shell Dlg 2';opacity:1;fill:none;fill-opacity:1;fill-rule:evenodd;stroke:#000000;stroke-width:0.33333385;stroke-linecap:square;stroke-linejoin:bevel;stroke-miterlimit:4;stroke-dasharray:none;stroke-opacity:1" />
    <path
       inkscape:connector-curvature="0"
       d="m 539.14736,417.18441 -11.94157,0.20828 -0.11487,-7.43982 -12.28577,0.23479 0.12394,9.0338 0,0 0.0193,0.87534 5.72077,-0.10768 0.009,-2.87514 1.62528,-0.009 -0.0256,-0.40658 2.00112,-0.0658 0.02,0.81297 -0.37541,0.0258 -0.0164,1.18738 -0.75079,0.0521 -0.048,1.21825 4.09558,-0.099 0.1674,12.62857 c 0.60514,-0.18455 1.28478,0.0746 1.90526,0.0889 0.28448,0.0546 0.5575,0.22489 0.8388,0.35552 0.2813,0.13055 0.55123,0.22452 0.84364,0.008 0.55793,-0.39284 0.90951,-1.0606 1.45798,-1.44858 0.67084,0.0238 1.09281,0.77933 1.73759,0.89936 0.37613,-0.27038 0.77633,-0.37611 1.03591,-0.32938 0.25956,0.0468 0.36965,0.26428 0.20962,0.65928 -0.10853,0.38803 0.0646,0.43087 0.30626,0.44183 0.24157,0.008 0.56262,-0.033 0.74816,0.13546 0.42327,0.30085 0.31939,0.79274 0.57938,1.0394 0.44848,-0.0827 0.70155,-0.25113 0.85069,-0.48817 0.14902,-0.23694 0.1891,-0.54333 0.1372,-0.87319 -0.42217,-0.0974 -0.57616,-0.26427 -0.55688,-0.41399 0.0197,-0.14977 0.20707,-0.28226 0.47314,-0.30595 0.42665,-0.038 0.62778,0.16899 0.80717,0.38631 0.17938,0.21735 0.32672,0.4385 0.61795,0.50868 0.29889,0.11248 0.7228,-0.14492 1.06721,-0.32883 0.1722,-0.092 0.31436,-0.16723 0.43962,-0.15018 0.12528,0.0169 0.23694,0.0994 0.27648,0.34759 0.011,0.26717 0.0845,0.57306 0.23949,0.75344 0.1549,0.18046 0.37887,0.2555 0.65527,0.0714 0.27962,-0.18608 0.31829,-0.7708 0.42146,-1.08801 0.14273,-0.067 0.11632,0.003 0.21919,-0.028 l -0.19999,-5.81595 1.1565,-0.0152 -0.26872,-9.84852 -0.59722,0.24167 c -0.21319,0.09 -0.14665,0.3243 -0.22577,0.49692 -0.12318,0.15449 -0.35425,0.13735 -0.53289,0.11755 -0.25963,-0.0353 -0.41725,-0.25023 -0.61971,-0.38367 -0.16445,-0.0329 -0.50422,-0.10244 -0.5329,0.11756 0.0827,0.24619 0.19211,0.49543 0.23953,0.75343 0.0182,0.19916 0.28862,0.49327 0.0536,0.62581 -0.26822,0.0208 -0.5178,-0.0955 -0.77937,-0.1359 -0.40113,-0.0943 -0.84296,-0.0664 -1.19001,0.171 l -0.0369,-1.84447 z"
       id="OK-05"
       style="font-style:normal;font-weight:400;font-size:34.375px;font-family:'MS Shell Dlg 2';opacity:1;fill:none;fill-opacity:1;fill-rule:evenodd;stroke:#000000;stroke-width:0.33333385;stroke-linecap:square;stroke-linejoin:bevel;stroke-miterlimit:4;stroke-dasharray:none;stroke-opacity:1" />
  </g>
</svg>
