<?xml version="1.0" encoding="UTF-8" standalone="no"?>
<!-- Created with Inkscape (http://www.inkscape.org/) -->

<svg
   xmlns:dc="http://purl.org/dc/elements/1.1/"
   xmlns:cc="http://creativecommons.org/ns#"
   xmlns:rdf="http://www.w3.org/1999/02/22-rdf-syntax-ns#"
   xmlns:svg="http://www.w3.org/2000/svg"
   xmlns="http://www.w3.org/2000/svg"
   xmlns:sodipodi="http://sodipodi.sourceforge.net/DTD/sodipodi-0.dtd"
   xmlns:inkscape="http://www.inkscape.org/namespaces/inkscape"
   width="44.677105mm"
   height="30.362446mm"
   viewBox="0 0 158.3047 107.58347"
   id="svg12983"
   version="1.1"
   inkscape:version="0.91 r"
   sodipodi:docname="1.svg">
  <defs
     id="defs12985" />
  <sodipodi:namedview
     id="base"
     pagecolor="#ffffff"
     bordercolor="#666666"
     borderopacity="1.0"
     inkscape:pageopacity="0.0"
     inkscape:pageshadow="2"
     inkscape:zoom="5.6364935"
     inkscape:cx="62.035764"
     inkscape:cy="55.648952"
     inkscape:document-units="px"
     inkscape:current-layer="layer1"
     showgrid="false"
     fit-margin-top="3"
     fit-margin-left="3"
     fit-margin-right="3"
     fit-margin-bottom="3"
     inkscape:window-width="2560"
     inkscape:window-height="1388"
     inkscape:window-x="0"
     inkscape:window-y="0"
     inkscape:window-maximized="1" />
  <metadata
     id="metadata12988">
    <rdf:RDF>
      <cc:Work
         rdf:about="">
        <dc:format>image/svg+xml</dc:format>
        <dc:type
           rdf:resource="http://purl.org/dc/dcmitype/StillImage" />
        <dc:title></dc:title>
      </cc:Work>
    </rdf:RDF>
  </metadata>
  <g
     inkscape:label="Layer 1"
     inkscape:groupmode="layer"
     id="layer1"
     transform="translate(-266.76972,-463.38339)">
    <path
       inkscape:connector-curvature="0"
       d="m 406.611,475.19459 -0.0312,-5.4e-4 -1.37588,0.0386 -0.0626,-10e-4 -0.78163,0.0176 -0.21931,0.0274 -0.0937,-0.002 -2.34498,0.0529 -0.0626,-10e-4 -0.0624,-10e-4 -1.25035,0.009 -0.25051,0.0269 -0.40624,-0.007 -0.28126,-0.005 -0.12552,0.0291 -0.0937,-0.002 -0.0313,-5.5e-4 -0.49993,-0.009 -0.0942,0.0296 -0.28126,-0.005 -1.43772,0.006 -0.0943,0.0297 -2.34454,0.0216 -0.0624,-10e-4 -1.37588,0.0385 -0.12498,-0.002 -0.0938,-0.002 -0.0312,-5.5e-4 -0.78173,0.0177 -0.0313,-5.4e-4 -1.96949,0.028 -0.43798,0.0237 -0.0312,-5.5e-4 -0.40623,-0.007 -1.90711,0.0292 -0.0937,-0.002 -0.0625,-10e-4 -0.2817,0.0263 -0.15628,-0.003 -0.37494,-0.007 -0.37549,0.0248 -0.0625,-10e-4 -0.90661,0.0155 5.5e-4,-0.0313 -0.25051,0.0269 -2.03154,-0.004 -0.0313,-5.4e-4 -0.37549,0.0247 -1.03159,0.0133 -0.0312,-5.5e-4 -0.15628,-0.003 -0.40678,0.0242 -0.40614,-0.007 -0.40614,-0.007 -0.15628,-0.003 -0.15682,0.0285 -0.0937,-0.002 -0.21867,-0.004 -0.0313,-5.5e-4 -0.0937,-0.002 -0.90671,0.0154 -0.0313,-5.4e-4 -0.74989,-0.0131 -0.0317,0.0308 -0.40614,-0.007 -0.18757,-0.003 -1.03159,0.0133 -0.65664,0.0197 -0.12498,-0.002 -0.15628,-0.003 -1.09408,0.0121 -0.0626,-10e-4 -0.0312,-5.4e-4 -0.0312,-5.5e-4 -0.15628,-0.003 -0.90616,-0.0158 -0.0312,-5.5e-4 -0.37549,0.0248 -0.40614,-0.007 -0.40678,0.0242 -1.18732,-0.0207 -0.87542,0.0159 -0.84367,-0.0147 -0.0937,-0.002 -0.62545,0.0203 -0.0937,-0.002 -0.0313,-5.5e-4 -0.40624,-0.007 -0.18792,0.028 -0.21877,-0.004 -0.28115,-0.005 -0.90616,-0.0158 -0.313,0.0258 -0.34375,-0.006 -0.15618,-0.003 -0.31245,-0.005 -0.40678,0.0241 -0.81228,-0.0142 -0.40624,-0.007 -0.0937,-0.002 -2.5633,0.0178 -0.71859,-0.0125 -0.37549,0.0247 -1.03115,-0.018 -0.24996,-0.004 -0.0624,-0.001 -0.0313,-5.5e-4 -0.0313,-5.4e-4 -0.2505,0.0268 -0.0937,-0.002 -0.43743,-0.008 -0.37495,-0.007 -0.31245,-0.005 -0.37494,-0.007 -0.43744,-0.008 -0.0625,-0.001 -0.53176,0.0219 -0.24996,-0.004 -0.0312,-5.5e-4 -0.34375,-0.006 -0.0937,-0.002 -0.37494,-0.007 -0.063,0.0302 -0.34375,-0.006 -0.37494,-0.007 -0.0312,-5.4e-4 -0.99984,-0.0174 -0.0625,-0.001 -0.93791,0.0149 -0.28115,-0.005 -0.18758,-0.003 -2.00024,-0.004 -0.37494,-0.007 -0.0312,-5.4e-4 -0.15618,-0.003 -0.21877,-0.004 -0.0312,-5.4e-4 -0.43753,-0.008 -0.56286,0.0214 -0.0313,-5.4e-4 -0.99985,-0.0175 -0.40623,-0.007 -0.59361,-0.0104 -0.21867,-0.004 -1.0004,0.0138 -0.21876,-0.004 -0.15618,-0.003 -0.0626,-0.001 -0.18737,-0.003 -0.40624,-0.007 -0.71859,-0.0125 -0.0938,-0.002 -0.62491,-0.0109 -0.0625,-10e-4 -0.0937,-0.002 -0.0313,-5.5e-4 -1.6253,0.003 -0.78118,-0.0136 -0.0312,-5.5e-4 -0.18747,-0.003 -0.21866,-0.004 -1.21916,0.01 -0.28116,-0.005 -0.12498,-0.002 -0.0626,-10e-4 -0.31235,-0.005 -0.0313,-5.5e-4 -2.34334,-0.0409 -0.0626,-10e-4 -1.9684,-0.0344 -0.28126,-0.005 -0.0937,-0.002 -0.0937,-0.002 -0.12498,-0.002 -0.21931,0.0274 -0.15618,-0.003 -0.15628,-0.003 -0.0937,-0.002 -0.81248,-0.0142 -0.78108,-0.0136 -0.0938,-0.002 -1.15603,-0.0202 -0.49992,-0.009 -0.31245,-0.005 -0.0625,-10e-4 -0.84368,-0.0147 -0.0937,-0.002 -1.93721,-0.0338 -2.09348,-0.0365 -0.21866,-0.004 -0.0625,-0.001 -0.0625,-10e-4 -0.0937,-0.002 -0.37494,-0.007 -0.31256,-0.005 -0.0312,-5.5e-4 -1.28046,-0.0535 -0.34375,-0.006 -1.81222,-0.0316 -0.28126,-0.005 -0.37494,-0.007 -0.40614,-0.007 -0.18747,-0.003 -0.43744,-0.008 -0.15617,-0.003 -0.0313,-5.5e-4 -0.21867,-0.004 -0.53121,-0.009 -0.0625,-0.001 -0.40614,-0.007 -0.40624,-0.007 -0.34365,-0.006 -0.59316,-0.0416 -0.12498,-0.002 -0.56242,-0.01 -0.40624,-0.007 -0.31235,-0.005 -0.49938,-0.04 -0.81247,-0.0142 -0.18737,-0.003 -0.0938,-0.002 -0.0938,-0.002 -0.31235,-0.005 -0.12498,-0.002 -0.12498,-0.002 -2.3117,-0.0717 -1.43718,-0.0251 -0.53122,-0.009 -0.49993,-0.009 -0.90561,-0.047 -0.71859,-0.0125 -0.81184,-0.0454 -0.15617,-0.003 -0.56252,-0.01 -0.81227,-0.0142 -0.21877,-0.004 -0.18747,-0.003 -0.0931,-0.0329 -0.40624,-0.007 -0.0937,-0.002 -0.71869,-0.0125 -0.81238,-0.0142 -0.18747,-0.003 -0.62436,-0.0422 -0.43743,-0.008 -0.65566,-0.0426 -0.28116,-0.005 -0.49992,-0.009 -0.0312,-5.5e-4 -0.12498,-0.002 -0.40624,-0.007 -2.06164,-0.0672 -0.24996,-0.004 -0.78053,-0.0449 -0.9993,-0.0487 -0.0313,-5.4e-4 -2.62406,-0.077 -0.74934,-0.0443 -0.46863,-0.008 -0.0626,-10e-4 -0.12498,-0.002 -0.40559,-0.0384 -0.18747,-0.003 -0.46863,-0.008 -0.90561,-0.0471 -0.24997,-0.004 -2.93597,-0.11366 -0.0432,0.68675 -0.12586,3.62336 -0.003,0.18757 -0.0361,0.28061 -0.007,0.37494 -0.0694,2.18663 -0.0635,1.84287 -0.0422,0.62436 -0.004,0.21876 -0.009,0.53112 -0.0486,0.99931 -0.009,0.49992 -0.003,0.15628 -0.0147,0.84357 -5.5e-4,0.0313 -0.0465,0.87432 -0.10295,2.31106 -0.003,0.15618 -0.007,0.40623 -0.005,0.28126 -0.01,0.56232 -0.0973,1.9986 -0.0717,2.3117 -0.0722,2.3428 -0.0334,0.12444 -0.002,0.0937 -0.0716,2.31171 -0.23951,6.55921 -0.007,0.40624 -0.0395,0.46809 -0.007,0.37494 -0.007,0.40624 -5.5e-4,0.0313 -0.0591,1.59291 -0.0356,0.24942 -0.001,0.0625 -0.005,0.31245 -0.003,0.15628 -0.0579,1.53042 -0.0477,0.93681 -0.0115,0.6562 -0.0384,0.40559 -0.0104,0.59371 -0.009,0.49993 -0.0568,1.46793 -0.0476,0.93681 -0.002,0.12498 -0.0466,0.87432 -0.0667,2.03035 -0.0525,1.21807 -0.003,0.18747 -0.006,0.34365 -0.099,2.09239 -0.0477,0.93681 -0.004,0.24996 -0.003,0.15628 -0.002,0.0937 -5.5e-4,0.0313 -0.002,0.0937 -0.003,0.18747 -0.094,1.81114 -5.5e-4,0.0313 -10e-4,0.0624 -0.002,0.0938 -0.006,0.34375 -0.11277,2.87347 -0.001,0.0624 -0.006,0.34375 -0.0224,1.281 -0.0837,1.21753 -0.0104,0.59371 -0.008,0.43733 -0.0136,0.78118 -0.0109,0.62491 -0.0384,0.40569 -0.0213,1.21851 -0.0384,0.40569 -0.005,0.31236 -0.005,0.31255 -0.0487,0.9993 -0.0459,0.84303 -0.01,0.56241 -0.008,0.46873 -0.0346,0.18683 -0.0142,0.81247 -0.0493,1.0305 -0.0481,0.96811 -0.0125,0.71859 -0.0416,0.59306 -0.007,0.40624 -0.0422,0.62436 -0.0207,1.18732 -0.0373,0.3432 -0.0508,1.12428 -0.11976,3.27961 -0.0384,0.4056 -10e-4,0.0626 -0.006,0.34364 -0.003,0.15628 -0.0666,2.03035 -0.002,0.0938 -5.5e-4,0.0312 -0.0339,0.15563 -0.0471,0.90561 0.34365,0.006 0.6249,0.0109 1.46804,0.0569 0.6874,0.012 0.0625,0.001 0.062,0.0323 0.40623,0.007 0.40614,0.007 0.81238,0.0142 1.46793,0.0568 0.9993,0.0488 1.03114,0.018 0.90617,0.0158 0.68674,0.0433 0.0313,5.4e-4 0.12498,0.002 0.90616,0.0158 0.81228,0.0142 0.74934,0.0443 1.59356,0.0278 0.0312,5.5e-4 0.81193,0.0454 0.37495,0.007 0.0312,5.4e-4 0.0625,10e-4 1.65605,0.0289 0.40614,0.007 1.18732,0.0207 0.0625,0.001 1.09309,0.0504 0.96855,0.0169 0.53122,0.009 0.15617,0.003 0.49993,0.009 0.31245,0.005 0.90616,0.0158 0.37494,0.007 0.87433,0.0466 0.28115,0.005 0.90606,0.0158 0.0318,-0.0307 0.28071,0.0362 0.81227,0.0142 0.12498,0.002 0.81248,0.0142 0.18737,0.003 0.90616,0.0158 0.12498,0.002 0.0625,10e-4 0.53057,0.0405 0.90671,-0.0154 0.40623,0.007 0.96856,0.0169 0.0937,0.002 0.84367,0.0147 0.87487,0.0153 0.0312,5.4e-4 0.56251,0.01 0.71859,0.0126 0.71859,0.0125 0.59371,0.0104 0.0625,10e-4 0.87487,0.0153 2.84327,0.0496 1.53106,0.0267 0.18747,0.003 0.0312,5.4e-4 0.0938,0.002 1.62476,0.0284 0.59371,0.0104 1.90591,0.0333 0.0625,10e-4 0.0313,5.5e-4 0.12444,0.0334 2.06263,0.005 0.6562,0.0115 0.9993,0.0486 1.03114,0.018 0.24997,0.004 1.18722,0.0207 0.46872,0.008 0.59371,0.0104 0.40614,0.007 0.18693,0.0345 0.53122,0.009 1.12483,0.0196 0.40668,-0.0241 0.37494,0.007 0.0312,5.4e-4 -0.31977,-33.6045 7.46221,0.4429 0.005,5.06327 7.09644,-0.0949 0.035,-7.37551 9.78146,0.077 0.1449,14.97351 17.19033,-0.0125 -0.18372,-12.75514 12.15609,0.11837 0.0511,2.43886 17.78732,-0.1896 -0.14166,-2.62787 9.06767,-0.21678 -0.64305,-25.82776 -2.10504,-1.16191 -0.19299,-12.22393 -16.79074,0.39452 -0.28125,-7.1622 5.47506,-0.31079 2.57172,-2.29917 4.34804,-0.20545 -0.0518,-2.40757 z"
       id="KS-01"
       style="font-style:normal;font-weight:400;font-size:34.375px;font-family:'MS Shell Dlg 2';opacity:1;fill:#000000;fill-opacity:1;fill-rule:evenodd;stroke:#000000;stroke-width:0.333;stroke-linecap:square;stroke-linejoin:bevel;stroke-miterlimit:4;stroke-dasharray:none;stroke-opacity:1" />
    <path
       inkscape:connector-curvature="0"
       d="m 406.611,475.19459 0.0518,2.40757 -4.34804,0.20545 -2.57172,2.29917 -5.47506,0.31079 0.28125,7.1622 16.79074,-0.39452 0.19299,12.22393 2.10504,1.16191 0.64305,25.82776 0,0 0.82907,33.08191 0.46918,-0.023 0.21866,0.004 0.40624,0.007 0.75098,-0.0494 0.0313,5.5e-4 0.0312,5.4e-4 0.15617,0.003 1.06299,-0.0128 0.2505,-0.0268 0.50047,-0.0225 0.40614,0.007 0.18802,-0.028 0.31245,0.005 0.0938,0.002 0.53166,-0.022 0.0938,0.002 0.0942,-0.0296 0.31245,0.005 0.21877,0.004 0.31289,-0.0258 0.18758,0.003 0.50047,-0.0226 0.0937,0.002 0.18748,0.003 0.0312,5.4e-4 0.0943,-0.0297 0.0938,0.002 0.0937,0.002 0.0937,0.002 0.24996,0.004 0.2818,-0.0263 0.34419,-0.0252 0.87542,-0.016 0.28125,0.005 0.25051,-0.0269 2.34553,-0.0841 0.56305,-0.0214 0.12499,0.002 1.03213,-0.0445 0.0625,0.001 0.12498,0.002 0.84466,-0.0478 0.0938,0.002 0.31245,0.005 1.62639,-0.0654 0.40678,-0.0241 0.40669,-0.0241 0.0938,0.002 0.3442,-0.0253 1.50086,-0.0363 0.56296,-0.0214 0.2505,-0.0269 0.15618,0.003 0.43808,-0.0237 0.0937,0.002 0.2818,-0.0263 1.21906,-0.01 0.81347,-0.0484 0.18747,0.003 0.15627,0.003 0.81337,-0.0482 0.0938,0.002 0.0625,10e-4 0.0313,5.5e-4 0.0312,5.4e-4 0.0625,10e-4 0.21921,-0.0275 0.24996,0.004 0.2818,-0.0264 0.68794,-0.0192 0.62545,-0.0203 0.0938,0.002 0.15672,-0.0286 0.0312,5.4e-4 0.0313,5.5e-4 0.0625,10e-4 0.21932,-0.0275 0.24996,0.004 0.0312,5.4e-4 0.21877,0.004 0.0317,-0.0306 1.68888,-0.0643 0.15628,0.003 0.003,-0.18737 0.002,-0.12498 -0.0297,-0.0943 -0.0215,-0.56296 0.004,-0.21867 -0.0236,-0.43808 0.002,-0.0937 0.002,-0.0937 -0.0279,-0.18812 5.4e-4,-0.0312 0.002,-0.12498 0.002,-0.0938 -0.0275,-0.21921 0.002,-0.0937 0.002,-0.0938 0.002,-0.0938 -0.0286,-0.15672 0.001,-0.0625 0.004,-0.24996 -0.0285,-0.15682 0.005,-0.31236 -0.0301,-0.0631 -0.0215,-0.56286 0.004,-0.24996 -0.0247,-0.37549 -0.0279,-0.18812 0.004,-0.21867 0.003,-0.15627 -0.0247,-0.37549 -0.0209,-0.59415 5.5e-4,-0.0313 0.004,-0.21867 -0.0297,-0.0942 -0.0208,-0.59425 -0.0632,-1.75137 0.007,-0.37495 5.5e-4,-0.0312 -0.0498,-0.71978 0.002,-0.0938 -0.0242,-0.40668 -0.0242,-0.40669 -0.0241,-0.40678 0.007,-0.40624 -0.0241,-0.40668 -0.0242,-0.40668 0.003,-0.18757 0.002,-0.12499 -0.0291,-0.12552 0.004,-0.21867 0.003,-0.18747 -0.0515,-0.62599 0.008,-0.43744 -0.0286,-0.15682 0.004,-0.21867 -0.0231,-0.46917 5.5e-4,-0.0313 5.4e-4,-0.0313 -0.0296,-0.0942 10e-4,-0.0625 0.002,-0.0938 0.002,-0.12498 0.002,-0.0937 5.4e-4,-0.0313 -0.0752,-1.06388 5.4e-4,-0.0313 -0.0186,-0.71914 5.5e-4,-0.0313 0.003,-0.18747 -0.0263,-0.2817 -0.022,-0.53177 -0.0269,-0.25051 0.002,-0.12498 5.5e-4,-0.0313 10e-4,-0.0624 -0.0466,-0.90725 -0.0275,-0.21921 -0.016,-0.87541 -0.0296,-0.0943 0.004,-0.21877 5.4e-4,-0.0312 0.002,-0.0938 -0.0412,-1.21961 -0.0226,-0.50047 0.003,-0.15627 0.001,-0.0624 0.003,-0.18757 -0.0279,-0.18792 0.002,-0.12498 0.004,-0.24996 -0.0279,-0.18812 0.004,-0.21866 -0.0237,-0.43798 0.002,-0.12499 0.005,-0.28115 -0.0226,-0.50047 0.001,-0.0626 0.002,-0.12498 -0.0296,-0.0942 0.003,-0.15628 5.4e-4,-0.0312 -0.0214,-0.56295 0.004,-0.21867 5.5e-4,-0.0313 -0.0275,-0.21921 0.002,-0.12498 -0.0401,-1.2822 -0.0516,-0.62599 0.003,-0.18747 5.5e-4,-0.0312 -0.0691,-1.40772 0.003,-0.18747 -0.0253,-0.34429 -0.0247,-0.37549 0.005,-0.31236 0.003,-0.18757 -0.0203,-0.62545 0.005,-0.31235 -0.0296,-0.0943 0.007,-0.37494 -0.0307,-0.0317 5.4e-4,-0.0313 0.003,-0.18747 0.005,-0.31245 -0.0467,-0.90726 -0.0301,-0.0629 -0.0226,-0.50047 5.5e-4,-0.0313 0.005,-0.28125 5.4e-4,-0.0312 -0.0258,-0.313 5.5e-4,-0.0313 0.003,-0.15618 -0.029,-0.12552 0.005,-0.31246 -0.0274,-0.21921 -0.0209,-0.59425 0.002,-0.12498 -0.0215,-0.56297 -0.0296,-0.0942 0.004,-0.21876 0.002,-0.0938 -0.0296,-0.0942 0.005,-0.28126 -0.0654,-1.62638 0.002,-0.0937 0.003,-0.15628 5.4e-4,-0.0312 -0.0279,-0.18802 -0.0177,-0.78173 -0.0505,-0.68838 -2.03144,-0.004 -0.28583,-1.53642 -2.03089,-0.0354 -0.85697,-2.82798 -1.706,-0.74859 -3.12616,0.0391 -0.28997,-6.66228 3.13871,-0.75784 0.19621,-5.87247 2.06328,-0.0265 -0.24996,-0.004 -0.18638,-0.0658 -0.0619,-0.0324 -0.21604,-0.16 -0.0301,-0.063 -0.0301,-0.063 5.5e-4,-0.0312 5.4e-4,-0.0313 5.5e-4,-0.0313 0.0328,-0.0931 0.0971,-0.18583 0.0323,-0.0619 0.001,-0.0625 0.0328,-0.0932 -0.0602,-0.12607 0.002,-0.0937 5.4e-4,-0.0313 -0.0313,-5.5e-4 -0.0598,-0.15726 -0.0307,-0.0317 -0.0615,-0.0637 -0.0307,-0.0317 -0.0301,-0.063 -0.0932,-0.0329 -0.0614,-0.0635 -0.0308,-0.0319 -0.0926,-0.0641 -0.0313,-5.5e-4 -0.12335,-0.096 -0.21703,-0.0975 -0.0313,-5.4e-4 -0.0312,-5.5e-4 -0.12389,-0.0647 -0.0619,-0.0323 -0.0625,-10e-4 -0.0306,-0.0318 -0.0308,-0.0318 -0.0926,-0.064 -0.0615,-0.0637 -0.12225,-0.15835 -0.0312,-5.5e-4 -0.0609,-0.0949 -0.0302,-0.0629 5.5e-4,-0.0313 -0.0608,-0.0948 5.5e-4,-0.0313 -0.0307,-0.0318 0.002,-0.0937 -0.0308,-0.0319 5.4e-4,-0.0312 -0.0301,-0.063 0.001,-0.0625 -0.0285,-0.15672 5.5e-4,-0.0313 -0.0286,-0.15683 -0.0559,-0.37603 0.003,-0.15618 10e-4,-0.0625 5.5e-4,-0.0313 0.001,-0.0624 0.0323,-0.062 5.5e-4,-0.0312 0.0954,-0.0922 0.0949,-0.0607 0.0317,-0.0308 0.12552,-0.0291 0.12607,-0.0602 0.0647,-0.12389 0.0652,-0.15518 0.002,-0.0937 -0.0301,-0.0631 5.4e-4,-0.0312 -0.0308,-0.0317 5.5e-4,-0.0313 -0.0915,-0.12661 -0.0615,-0.0636 -0.0312,-5.4e-4 -0.062,-0.0323 -0.0313,-5.4e-4 -0.0312,-5.5e-4 -0.0312,-5.4e-4 -0.12553,0.029 -0.15846,0.12226 -0.12607,0.0603 -0.0948,0.0609 -0.0626,-0.001 -0.18737,-0.003 -0.0313,-5.5e-4 -0.0313,-5.5e-4 -0.0618,-0.0323 -0.0313,-5.5e-4 -0.0308,-0.0318 -0.0613,-0.0636 -0.0609,-0.0949 -0.0301,-0.0629 0.002,-0.0938 0.003,-0.18747 -0.0614,-0.0636 -0.0609,-0.0949 -0.0927,-0.064 -0.21757,-0.0664 -0.0313,-5.5e-4 -0.0306,-0.0317 -0.0306,-0.0317 -0.0927,-0.0642 -0.0916,-0.12662 5.5e-4,-0.0312 -0.058,-0.25105 -0.0604,-0.12607 -0.18519,-0.12825 -0.12389,-0.0647 -0.12443,-0.0335 -0.31147,-0.0678 -0.30962,-0.16173 -0.0927,-0.0641 -0.0927,-0.0641 -0.0306,-0.0318 -0.0614,-0.0635 5.4e-4,-0.0313 -0.0915,-0.12661 -0.0615,-0.0636 -0.0285,-0.15672 -0.0246,-0.37548 -0.0297,-0.0943 -0.0302,-0.063 -0.0915,-0.12662 -0.0926,-0.0641 -0.40351,-0.16326 -0.0921,-0.0954 -0.24669,-0.19184 -0.0615,-0.0636 -0.0307,-0.0317 -0.12226,-0.15846 -0.0916,-0.12662 -0.0602,-0.12607 5.5e-4,-0.0313 -0.0889,-0.2828 -0.0312,-5.4e-4 5.5e-4,-0.0312 0.001,-0.0626 10e-4,-0.0624 0.0312,5.5e-4 5.4e-4,-0.0313 0.0669,-0.24887 5.4e-4,-0.0313 0.0335,-0.12444 5.4e-4,-0.0312 0.0312,5.4e-4 0.0317,-0.0307 5.4e-4,-0.0313 0.0319,-0.0307 0.0318,-0.0307 0.0312,5.4e-4 0.063,-0.0301 0.12498,0.002 0.0313,5.4e-4 0.27952,0.0986 0.0938,0.002 0.0624,10e-4 0.0631,-0.0302 0.0312,5.5e-4 0.12607,-0.0602 0.0323,-0.062 0.0631,-0.0301 0.0975,-0.21713 0.034,-0.15563 0.0334,-0.12444 -0.0301,-0.063 -0.0291,-0.12553 -0.0904,-0.18911 -0.0307,-0.0317 -0.0291,-0.12553 5.5e-4,-0.0313 5.4e-4,-0.0313 -0.0307,-0.0317 5.5e-4,-0.0312 10e-4,-0.0626 0.0334,-0.12444 0.0976,-0.21703 0.0971,-0.18583 0.0964,-0.15454 0.0329,-0.0932 0.19392,-0.37168 0.0642,-0.0927 0.0635,-0.0613 0.0637,-0.0615 0.0629,-0.0301 0.0631,-0.0301 0.0629,-0.0302 0.0313,5.4e-4 0.0942,-0.0297 0.0626,10e-4 0.0312,5.5e-4 0.0312,5.4e-4 0.0938,0.002 0.0312,5.5e-4 0.0631,-0.0301 0.0624,0.001 0.0318,-0.0306 0.0313,5.5e-4 0.0629,-0.0302 0.0949,-0.0608 5.4e-4,-0.0312 0.096,-0.12334 0.0323,-0.062 0.0334,-0.12443 -0.0252,-0.34419 0.001,-0.0625 -0.0549,-0.43852 5.5e-4,-0.0313 -0.0297,-0.0942 10e-4,-0.0625 5.4e-4,-0.0312 0.0319,-0.0308 5.4e-4,-0.0313 0.0324,-0.0618 0.064,-0.0927 5.5e-4,-0.0312 0.0318,-0.0307 0.0641,-0.0926 0.0949,-0.061 0.0624,10e-4 0.0313,5.5e-4 0.0313,5.4e-4 0.0312,5.5e-4 0.0932,0.0329 0.12389,0.0647 -5.4e-4,0.0312 0.21648,0.12879 0.0308,0.0318 0.21594,0.1601 0.15519,0.0651 0.0312,5.4e-4 0.0312,5.5e-4 0.0313,5.4e-4 0.0308,0.0318 0.0624,10e-4 0.0313,5.5e-4 0.0313,5.4e-4 0.0312,5.5e-4 0.12552,-0.0291 0.18856,-0.0591 0.0318,-0.0307 0.0312,5.4e-4 0.0954,-0.0921 0.12662,-0.0916 0.16054,-0.24724 0.0345,-0.18692 0.002,-0.12498 -0.0268,-0.25051 -0.0603,-0.12607 -0.0302,-0.063 -0.0613,-0.0636 -0.062,-0.0324 -0.0312,-5.4e-4 -0.063,0.0302 -0.15683,0.0286 -0.0629,0.0301 -0.19084,0.18419 -0.0317,0.0308 -0.0636,0.0613 -0.0313,-5.5e-4 -0.0312,-5.5e-4 -0.0943,0.0297 -5.4e-4,0.0313 -0.0624,-10e-4 -0.0938,-0.002 -0.0932,-0.0329 -0.0307,-0.0318 -0.0927,-0.064 -0.0306,-0.0318 -0.062,-0.0324 -0.0307,-0.0317 -0.0307,-0.0317 -0.0916,-0.12662 -0.0307,-0.0318 -0.0306,-0.0318 10e-4,-0.0624 0.003,-0.15628 0.0635,-0.0614 0.0318,-0.0307 5.4e-4,-0.0313 0.0313,5.4e-4 0.0317,-0.0307 0.063,-0.0301 0.25051,-0.0268 0.0937,0.002 0.2818,-0.0264 0.0625,10e-4 0.063,-0.0302 0.12607,-0.0602 0.0641,-0.0927 5.5e-4,-0.0312 0.0981,-0.24832 0.003,-0.18758 -0.028,-0.18791 -0.0297,-0.0943 5.4e-4,-0.0312 -0.0301,-0.0631 -0.0614,-0.0635 -0.0921,-0.0954 -0.0313,-5.4e-4 -0.0619,-0.0323 -0.0625,-0.001 -0.0313,-5.5e-4 -0.18791,0.0279 -0.0313,-5.5e-4 -0.0625,-0.001 -0.0625,-10e-4 5.5e-4,-0.0312 -0.12444,-0.0335 -0.0313,-5.5e-4 -0.21649,-0.1288 -0.24614,-0.22303 -0.0302,-0.0631 -0.0915,-0.12662 0.002,-0.12498 0.0329,-0.0931 0.0328,-0.0931 0.15891,-0.15355 0.0313,5.5e-4 0.0329,-0.0931 0.0334,-0.12444 -0.0296,-0.0943 0.001,-0.0625 -0.0302,-0.063 -0.12226,-0.15836 -0.0313,-5.4e-4 -0.18574,-0.0971 -0.15518,-0.0652 -0.15573,-0.034 -0.0312,-5.4e-4 -0.0943,0.0297 -0.28334,0.12008 -0.0312,-5.5e-4 -0.12498,-0.002 -0.0318,0.0308 -0.0313,-5.5e-4 -0.0312,-5.4e-4 -0.0312,-5.4e-4 -0.062,-0.0324 -0.21757,-0.0663 -0.0313,-5.5e-4 -0.0937,-0.002 -0.0313,-5.5e-4 -0.0629,0.0301 -0.0949,0.061 -0.0317,0.0306 -0.0637,0.0614 -0.0328,0.0931 -0.0323,0.062 -10e-4,0.0624 -5.5e-4,0.0313 0.0279,0.18802 -5.5e-4,0.0312 -5.5e-4,0.0313 -5.4e-4,0.0313 -0.0312,-5.5e-4 -0.0335,0.12444 -0.0636,0.0613 -5.5e-4,0.0313 -0.063,0.0302 -0.0636,0.0613 -0.0943,0.0297 -0.21866,-0.004 -0.59525,0.0833 -0.0318,0.0308 -0.0937,-0.002 -0.0932,-0.0329 -0.0312,-5.4e-4 -0.30983,-0.16163 -0.49774,-0.13371 -0.15509,-0.0652 -0.0619,-0.0324 -0.0609,-0.0948 -0.0609,-0.0948 -0.0297,-0.0943 0.0346,-0.18692 10e-4,-0.0625 -0.0291,-0.12552 -0.0613,-0.0636 -0.062,-0.0324 -0.0618,-0.0323 -0.0313,-5.5e-4 -0.0625,-0.001 -0.0312,-5.5e-4 -0.0313,-5.4e-4 -0.0313,-5.5e-4 -5.5e-4,0.0312 -0.25214,0.12062 -0.0317,0.0308 -0.0943,0.0297 -0.0312,-5.4e-4 -0.0312,-5.4e-4 -0.18811,0.0279 -0.0931,-0.0328 -0.0313,-5.5e-4 -0.0307,-0.0318 -0.0625,-0.001 5.5e-4,-0.0313 -0.0625,-10e-4 5.4e-4,-0.0312 -0.0609,-0.0949 -0.0308,-0.0317 5.4e-4,-0.0312 5.5e-4,-0.0313 5.4e-4,-0.0313 5.5e-4,-0.0312 5.4e-4,-0.0312 5.5e-4,-0.0313 0.0971,-0.18584 0.003,-0.15617 -0.0279,-0.18812 -0.0604,-0.12607 -0.21703,-0.0975 -0.0619,-0.0324 -0.0625,-10e-4 -0.25051,0.0269 -0.12498,-0.002 -0.0931,-0.0329 -0.18594,-0.097 -0.18464,-0.15955 -0.0911,-0.15781 -0.18311,-0.25324 -0.0926,-0.0641 -0.34102,-0.16228 -0.27843,-0.16108 -0.1228,-0.12716 5.4e-4,-0.0312 -0.0297,-0.0943 0.003,-0.15618 5.4e-4,-0.0313 -0.37548,0.0247 -0.31246,-0.005 -0.75097,0.0493 -0.87541,0.016 -0.12499,-0.002 -0.12552,0.0291 -0.18748,-0.003 -0.0625,-0.001 -0.28116,-0.005 -0.0938,-0.002 -0.15672,0.0285 -0.0313,-5.4e-4 -2.03263,0.0583 -0.15672,0.0285 -1.59465,0.0347 -0.0937,-0.002 -0.18747,-0.003 -0.12552,0.0291 -0.28116,-0.005 -0.0313,-5.4e-4 -2.40811,0.083 -0.0937,-0.002 -2.03263,0.0582 -0.3129,0.0258 -0.0938,-0.002 -1.21916,0.01 -0.81336,0.0483 -0.34375,-0.006 -0.0938,-0.002 -0.18737,-0.003 -0.5948,0.0521 -0.6561,-0.0115 -0.15682,0.0285 -0.75043,0.0182 -0.0313,-5.5e-4 -0.46917,0.0231 -0.15628,-0.003 -1.43772,0.006 -0.0631,0.0301 -0.28116,-0.005 z"
       id="KS-02"
       style="font-style:normal;font-weight:400;font-size:34.375px;font-family:'MS Shell Dlg 2';opacity:1;fill:none;fill-opacity:1;fill-rule:evenodd;stroke:#000000;stroke-width:0.33333385;stroke-linecap:square;stroke-linejoin:bevel;stroke-miterlimit:4;stroke-dasharray:none;stroke-opacity:1" />
    <path
       inkscape:connector-curvature="0"
       d="m 438.6195,496.47526 -2.06328,0.0265 -0.19621,5.87247 -3.13871,0.75784 0.28997,6.66228 3.12616,-0.0391 1.706,0.74859 0.85697,2.82798 2.03089,0.0354 0.28583,1.53642 2.03144,0.004 0.002,-0.12498 10e-4,-0.0626 0.008,-0.43734 -0.0257,-0.31309 0.002,-0.0937 -0.05,-0.71968 0.002,-0.0938 0.005,-0.31245 0.002,-0.12498 -0.0258,-0.313 -0.0445,-1.03213 0.003,-0.15628 5.5e-4,-0.0313 0.009,-0.53112 -0.0456,-0.96975 0.002,-0.0937 0.001,-0.0625 5.4e-4,-0.0312 5.5e-4,-0.0313 10e-4,-0.0625 -0.0225,-0.50047 -0.0209,-0.59426 -0.0275,-0.21921 0.0109,-0.6249 -0.0241,-0.40679 10e-4,-0.0624 0.002,-0.0938 -0.0236,-0.43798 -0.0297,-0.0942 0.002,-0.12498 0.003,-0.18758 0.003,-0.15617 5.5e-4,-0.0312 -0.0308,-0.0318 -0.0241,-0.40678 0.003,-0.18737 0.002,-0.0938 -0.0252,-0.34429 0.002,-0.0937 0.002,-0.0937 0.004,-0.21877 -0.0269,-0.25051 -0.0275,-0.21931 0.0313,5.5e-4 -0.0297,-0.0942 5.5e-4,-0.0313 0.004,-0.21867 -0.0279,-0.18801 5.5e-4,-0.0312 0.004,-0.21877 0.001,-0.0625 10e-4,-0.0625 5.4e-4,-0.0312 -0.0296,-0.0943 5.5e-4,-0.0312 0.003,-0.18757 10e-4,-0.0624 0.001,-0.0626 -0.0307,-0.0317 5.5e-4,-0.0312 10e-4,-0.0626 10e-4,-0.0624 0.004,-0.21876 0.003,-0.18748 -0.0286,-0.15682 5.5e-4,-0.0312 5.4e-4,-0.0312 0.001,-0.0626 0.002,-0.0937 -0.0274,-0.21922 10e-4,-0.0626 0.002,-0.0937 10e-4,-0.0625 0.002,-0.12498 0.001,-0.0625 5.5e-4,-0.0313 10e-4,-0.0624 0.002,-0.12498 -0.0296,-0.0943 5.4e-4,-0.0312 10e-4,-0.0626 0.002,-0.0937 10e-4,-0.0625 0.002,-0.0938 0.003,-0.18737 -0.0269,-0.25051 5.5e-4,-0.0313 -0.028,-0.18802 -0.0192,-0.68794 0.003,-0.15628 0.0328,-0.0931 0.0965,-0.15464 0.15999,-0.21594 0.0653,-0.15518 -0.056,-0.37604 -0.0921,-0.0953 -0.15573,-0.034 -0.12443,-0.0334 -0.15672,0.0285 -0.18966,0.12171 -0.34528,0.0878 -0.24996,-0.004 -0.24833,-0.0981 0.0361,-0.28062 -0.0883,-0.31409 -0.12334,-0.0959 -0.24942,-0.0357 -0.15672,0.0286 -0.1902,0.1529 -0.22139,0.15236 -0.15792,0.0911 -0.18856,0.0592 -0.28115,-0.005 -0.12444,-0.0335 -0.24887,-0.0668 -0.24669,-0.19194 -0.15191,-0.25269 -0.0307,-0.0317 -0.0888,-0.28279 -0.0614,-0.0637 -0.0306,-0.0317 -0.0313,-5.5e-4 -0.40623,-0.007 -0.0312,-5.4e-4 z"
       id="KS-03"
       style="font-style:normal;font-weight:400;font-size:34.375px;font-family:'MS Shell Dlg 2';opacity:1;fill:none;fill-opacity:1;fill-rule:evenodd;stroke:#000000;stroke-width:0.33333385;stroke-linecap:square;stroke-linejoin:bevel;stroke-miterlimit:4;stroke-dasharray:none;stroke-opacity:1" />
    <path
       inkscape:connector-curvature="0"
       d="m 414.28104,526.39885 -9.06767,0.21678 0.14166,2.62787 -17.78732,0.1896 -0.0511,-2.43886 -12.15609,-0.11837 0.18372,12.75514 -17.19033,0.0125 -0.1449,-14.97351 -9.78146,-0.077 -0.035,7.37551 -7.09644,0.0949 -0.005,-5.06327 -7.46221,-0.4429 0.31977,33.6045 0.68749,0.012 0.12498,0.002 0.0312,5.5e-4 0.0312,5.4e-4 0.37495,0.007 0.6249,0.0109 1.12483,0.0196 0.21877,0.004 0.46927,-0.023 0.0312,5.4e-4 2.21846,0.0387 0.6561,0.0115 0.49992,0.009 0.0938,0.002 0.12498,0.002 1.96894,0.003 0.0937,0.002 1.71854,0.03 0.0938,0.002 0.3442,-0.0253 0.37494,0.007 0.28126,0.005 0.15617,0.003 1.59356,0.0278 0.9691,-0.0143 0.21867,0.004 0.0313,5.5e-4 1.28111,0.0224 0.34419,-0.0252 0.0937,0.002 0.0313,5.4e-4 0.68739,0.012 0.96867,0.0169 0.0937,0.002 1.40663,-0.007 0.6873,0.012 1.75028,-7.5e-4 1.34414,-0.008 0.18747,0.003 1.28111,0.0224 0.0312,5.4e-4 0.21877,0.004 1.03158,-0.0132 0.21877,0.004 0.15618,0.003 0.0312,5.4e-4 2.43778,0.0113 0.40614,0.007 0.2505,-0.0269 0.40614,0.007 0.28126,0.005 0.68794,-0.0192 0.43743,0.008 0.37549,-0.0246 1.50032,-0.005 0.12498,0.002 0.0313,5.4e-4 0.0937,0.002 0.0937,0.002 0.68749,0.012 0.78163,-0.0177 1.5941,-0.003 0.40668,-0.0241 1.68779,-0.002 0.3442,-0.0253 0.0626,10e-4 0.34364,0.006 1.6253,-0.003 0.0937,0.002 0.938,-0.0148 0.3129,-0.0258 0.6562,0.0115 0.0313,5.4e-4 0.56232,0.01 0.40678,-0.0242 0.40624,0.007 0.43733,0.008 1.21971,-0.0411 0.21876,0.004 1.78202,-0.0315 0.24997,0.004 0.18747,0.003 0.0625,0.001 0.43798,-0.0236 0.9379,-0.0148 1.03159,-0.0133 1.21916,-0.01 1.03158,-0.0132 0.18758,0.003 0.21921,-0.0274 0.34364,0.006 0.0626,10e-4 0.37494,0.007 0.0624,10e-4 1.2509,-0.0408 0.12498,0.002 0.21877,0.004 1.25035,-0.009 0.18802,-0.0279 0.71859,0.0125 0.21931,-0.0275 0.0938,0.002 0.0937,0.002 0.313,-0.0258 0.0312,5.5e-4 0.56251,0.01 0.21867,0.004 1.00039,-0.0137 0.62545,-0.0203 0.0625,10e-4 0.9692,-0.0144 0.18792,-0.028 0.0938,0.002 0.12498,0.002 0.46928,-0.023 0.12498,0.002 1.84451,-0.0303 1.62584,-0.0341 0.59361,0.0104 0.56306,-0.0214 1.93874,-0.06 0.46927,-0.023 0.28116,0.005 2.31389,-0.0534 0.0624,0.001 0.0313,5.5e-4 0.90725,-0.0467 0.40614,0.007 0.37549,-0.0248 0.34375,0.006 0.71913,-0.0187 0.0313,5.5e-4 0.0624,0.001 0.0631,-0.0301 0.0624,10e-4 0.0626,0.001 1.03159,-0.0133 2.12632,-0.0566 0.84476,-0.0479 0.12498,0.002 -0.82907,-33.08191 z"
       id="KS-04"
       style="font-style:normal;font-weight:400;font-size:34.375px;font-family:'MS Shell Dlg 2';opacity:1;fill:none;fill-opacity:1;fill-rule:evenodd;stroke:#000000;stroke-width:0.33333385;stroke-linecap:square;stroke-linejoin:bevel;stroke-miterlimit:4;stroke-dasharray:none;stroke-opacity:1" />
  </g>
</svg>
