<?xml version="1.0" encoding="UTF-8" standalone="no"?>
<!-- Created with Inkscape (http://www.inkscape.org/) -->

<svg
   xmlns:dc="http://purl.org/dc/elements/1.1/"
   xmlns:cc="http://creativecommons.org/ns#"
   xmlns:rdf="http://www.w3.org/1999/02/22-rdf-syntax-ns#"
   xmlns:svg="http://www.w3.org/2000/svg"
   xmlns="http://www.w3.org/2000/svg"
   xmlns:sodipodi="http://sodipodi.sourceforge.net/DTD/sodipodi-0.dtd"
   xmlns:inkscape="http://www.inkscape.org/namespaces/inkscape"
   width="19.337534mm"
   height="7.6775308mm"
   viewBox="0 0 68.518817 27.20385"
   id="svg3885"
   version="1.1"
   inkscape:version="0.91 r"
   sodipodi:docname="5.svg">
  <defs
     id="defs3887" />
  <sodipodi:namedview
     id="base"
     pagecolor="#ffffff"
     bordercolor="#666666"
     borderopacity="1.0"
     inkscape:pageopacity="0.0"
     inkscape:pageshadow="2"
     inkscape:zoom="6.4033046"
     inkscape:cx="62.008859"
     inkscape:cy="-29.245393"
     inkscape:document-units="px"
     inkscape:current-layer="layer1"
     showgrid="false"
     inkscape:window-width="2560"
     inkscape:window-height="1388"
     inkscape:window-x="0"
     inkscape:window-y="0"
     inkscape:window-maximized="1"
     fit-margin-top="1"
     fit-margin-left="1"
     fit-margin-right="1"
     fit-margin-bottom="1" />
  <metadata
     id="metadata3890">
    <rdf:RDF>
      <cc:Work
         rdf:about="">
        <dc:format>image/svg+xml</dc:format>
        <dc:type
           rdf:resource="http://purl.org/dc/dcmitype/StillImage" />
        <dc:title></dc:title>
      </cc:Work>
    </rdf:RDF>
  </metadata>
  <g
     inkscape:label="Layer 1"
     inkscape:groupmode="layer"
     id="layer1"
     transform="translate(-154.68777,-340.14195)">
    <path
       inkscape:connector-curvature="0"
       d="m 189.39908,433.95165 c -4.49478,0.0931 -9.22616,0.22327 -13.7083,0.31404 -0.36891,-0.046 -0.60082,0.0795 -0.73301,0.27568 -0.13215,0.1959 -0.16666,0.47593 -0.17494,0.79579 -0.0162,0.63993 0.0953,1.41856 -0.10186,1.8476 0.0624,0.32293 -0.001,0.46815 -0.10926,0.55269 -0.10845,0.0845 -0.25849,0.10746 -0.42401,0.0982 -0.16569,-0.01 -0.33257,-0.0399 -0.44204,0.001 -0.10927,0.0411 -0.17477,0.12701 -0.11394,0.36267 -0.0854,0.80252 -0.0177,1.67816 -0.10033,2.51047 -0.0829,0.83245 -0.29075,1.62777 -0.88766,2.27359 0.18899,0.43875 0.57064,0.98015 0.73711,1.4921 0.0831,0.25605 0.11298,0.49877 0.0237,0.7292 -0.0895,0.23038 -0.2839,0.45802 -0.65716,0.63349 -0.40015,-0.16772 -0.78026,-0.21801 -1.11405,-0.15652 -0.33358,0.0612 -0.64069,0.2238 -0.91375,0.43951 -0.54622,0.43177 -0.97288,1.10574 -1.31311,1.70886 -0.30053,-0.11147 -0.49347,-0.11758 -0.62321,-0.0565 -0.12985,0.0616 -0.19584,0.17968 -0.23789,0.34526 -0.0841,0.33102 -0.0842,0.79117 -0.3157,1.1233 -0.15954,-0.20339 -0.23364,-0.21936 -0.29195,-0.16726 -0.0584,0.0518 -0.0765,0.19868 -0.11414,0.36263 -0.0375,0.1638 -0.0964,0.34516 -0.19339,0.47774 -0.0968,0.13242 -0.22733,0.19788 -0.46357,0.1557 -0.0462,0.53205 -0.46386,1.3835 -0.9945,1.91149 -0.26531,0.26383 -0.55867,0.44782 -0.85622,0.47921 -0.29777,0.0313 -0.61394,-0.0845 -0.885,-0.43995 0.16907,-0.24586 0.16039,-0.44644 0.0565,-0.62322 -0.1043,-0.17683 -0.28653,-0.33676 -0.4695,-0.47619 -0.18314,-0.13963 -0.37999,-0.27597 -0.44727,-0.41002 -0.0675,-0.1341 -0.0229,-0.28214 0.2199,-0.44252 -0.053,-0.33947 0.0337,-0.56518 0.1706,-0.76489 0.13672,-0.19971 0.32474,-0.3491 0.54243,-0.49179 0.43566,-0.28545 0.93279,-0.56266 1.04043,-1.11607 0.23996,-0.35434 0.21684,-0.54694 0.0957,-0.68081 -0.12096,-0.13383 -0.34307,-0.19957 -0.56618,-0.2373 -0.22305,-0.0382 -0.42004,-0.065 -0.48641,-0.13165 -0.0665,-0.0662 -0.01,-0.17507 0.33943,-0.39399 -0.24355,-0.33498 -0.30129,-0.65785 -0.27188,-0.98504 0.0288,-0.32702 0.15193,-0.64515 0.32487,-0.96417 0.34591,-0.63766 0.84544,-1.27756 0.99014,-1.88049 0.38044,0.48556 0.57268,0.62235 0.68181,0.53772 0.10896,-0.0848 0.14242,-0.39513 0.16622,-0.73401 0.0237,-0.3391 0.0442,-0.70881 0.17018,-0.98592 0.12538,-0.27734 0.35956,-0.43367 0.7726,-0.33331 0.395,0.43297 0.99216,0.60648 1.47726,0.49167 0.24255,-0.0574 0.45295,-0.20929 0.59571,-0.42119 0.14257,-0.21192 0.22271,-0.47956 0.18358,-0.85781 0.0518,-0.31936 -0.1308,-0.51713 -0.37715,-0.68414 -0.24637,-0.167 -0.57314,-0.313 -0.74805,-0.51542 -0.0652,-0.15761 -0.36173,-0.37942 -0.58023,-0.58646 -0.21875,-0.20684 -0.33032,-0.40522 -0.032,-0.4462 0.3759,0.0456 0.52439,-0.0926 0.61357,-0.32406 0.0891,-0.23145 0.10088,-0.5596 0.14844,-0.83113 0.0937,-0.3414 0.15791,-0.60045 0.10003,-0.71181 -0.0581,-0.11137 -0.23469,-0.0725 -0.5696,0.23551 -0.20986,0.0533 -0.36589,-0.13567 -0.51355,-0.38774 -0.14767,-0.25199 -0.30112,-0.54976 -0.47003,-0.6972 -0.39356,0.0138 -0.85505,0.63317 -1.38628,0.65727 -0.41846,0.22191 -1.20945,0.21688 -1.40401,0.56005 -0.005,0.31045 0.17238,0.51815 0.37715,0.68414 0.20481,0.16592 0.45651,0.30421 0.65952,0.47139 0.31202,0.11955 0.43165,0.36248 0.50976,0.63955 0.078,0.27728 0.10416,0.58027 0.19637,0.8482 -1.1015,0.19733 -2.09618,0.72473 -3.07752,1.23996 -0.37287,-0.57611 -0.74041,-1.15823 -1.11317,-1.73429 -0.15624,-0.33684 -0.31098,-0.56803 -0.45219,-0.6001 -0.14125,-0.0319 -0.27276,0.12941 -0.39209,0.54454 -0.1229,0.25841 -0.27863,0.0899 -0.45119,-0.15813 -0.17241,-0.24772 -0.34736,-0.57131 -0.5053,-0.67056 -2.93133,0.0358 -5.85429,0.0548 -8.78563,0.0907 l 0.0179,0.0972 -0.0308,0.21654 0.10514,1.49791 0.0493,0.32261 -0.0148,0.0928 -0.0378,0.9414 0.0933,0.23407 -0.0698,0.4951 0.0553,0.95438 0.0629,0.45077 -0.0148,0.0927 -0.0148,0.0926 0.0624,0.22972 0.0188,0.53905 -0.087,0.61894 0.0803,0.32693 0.0494,0.32242 -0.0565,0.40235 0.019,0.53919 0.0803,0.32676 0.006,0.63196 0.0362,0.41539 0.14195,2.13422 0.006,0.63196 -0.0148,0.0926 -0.0308,0.21661 0.0364,0.4153 0.0854,2.53656 0.0682,0.86169 0.0108,0.82189 0.0319,0.44638 0.0485,1.90025 -0.0148,0.0926 0.092,1.59078 0.0189,0.53908 0.0296,1.36116 0.0493,0.32252 -0.0148,0.0926 -0.0168,0.12385 0.15935,2.01055 -0.0188,1.48059 -0.0148,0.0927 0.0498,0.54353 -0.0254,0.18565 0.0379,1.07835 0.0861,0.95871 -0.0148,0.0927 -0.0308,0.21664 -0.0254,0.18565 0.11219,0.77314 0.0291,1.14014 -0.0168,0.12387 -0.0148,0.0927 -0.043,0.30949 0.1296,0.64937 -0.0148,0.0926 0.0318,0.44637 -0.0699,0.49511 0.063,0.45054 0.1472,2.54526 0.50728,-0.46514 0.19862,-0.0668 0.54354,-0.0498 0.30951,0.0429 0.27901,0.26016 0.0624,0.22972 0.12384,0.0168 0.51252,-0.0543 0.0148,-0.0928 0.15423,-0.19929 0.19883,-0.0667 0.12383,0.0168 0.30944,0.0429 0.48208,0.16238 0.19927,0.15425 0.20363,0.12332 0.0925,0.0148 0.38928,0.14945 0.12386,0.0168 0.0755,0.13685 0.19049,0.216 -0.0168,0.12384 -0.22963,0.0624 -0.0148,0.0927 0.0189,0.53909 0.11072,0.11029 0.53862,-0.23998 0.3226,-0.0493 0.51301,0.16671 0.28625,-0.46468 0.0168,-0.12385 0.25516,-0.46905 0.19773,-0.50863 0.0801,-1.47194 -0.0855,-0.73777 0.13624,-0.29642 0.12324,-0.20364 -0.0986,-0.645 -0.0977,-0.20299 0.16728,-0.29213 0.15365,-0.42013 0.0927,0.0148 0.13683,-0.0755 0.0737,-0.52605 -0.16004,-0.43278 0.0148,-0.0927 0.0168,-0.12383 0.26007,-0.27913 0.22925,-0.28325 0.21077,-0.60152 0.10584,-0.0798 -0.1861,-0.24711 -0.0494,-0.32241 0.0566,-0.40234 0.22971,-0.0623 0.11018,-0.11074 0.3225,-0.0494 0.12335,-0.20362 0.18032,-0.38485 0.22904,-0.28337 0.12387,0.0168 0.0927,0.0148 0.29643,0.13623 0.21651,0.0308 -0.0168,0.12386 0.17273,0.11904 0.42007,0.15377 0.0756,0.13683 0.52605,0.0737 0.0799,0.10587 0.25291,0.44583 0.0623,0.22961 0.11073,0.11018 0.0624,0.22971 -0.11743,0.8356 -0.0148,0.0926 0.0798,0.10585 -0.0168,0.12388 0.12386,0.0168 -0.0148,0.0927 0.0926,0.0148 -0.0148,0.0927 0.0928,0.0148 -0.0168,0.12385 -0.0148,0.0926 -0.0148,0.0927 0.10639,0.14117 -0.0148,0.0926 -0.0308,0.21663 -0.0148,0.0926 -0.12386,-0.0168 -0.0308,0.21653 -0.0254,0.18585 -0.11017,0.11073 -0.13623,0.29633 -0.0148,0.0927 -0.15424,0.19927 -0.14942,0.38921 -0.0308,0.21662 0.20363,0.12324 0.0925,0.0148 0.0798,0.10585 -0.043,0.30962 0.17319,0.33981 0.1123,0.77316 -0.0254,0.18585 0.0754,0.13683 1.05806,0.77983 0.29633,0.13624 0.18586,0.0253 0.18614,0.24702 0.17306,0.33999 -0.0148,0.0926 0.54497,0.61312 0.28347,0.22906 0.58847,0.30367 0.42121,0.59562 -0.0148,0.0927 0.11075,0.11028 -0.0308,0.21653 -0.27323,0.37189 -0.44573,0.25284 -0.12383,-0.0168 -0.32695,0.0803 -0.40227,-0.0565 -0.22972,0.0624 -0.78563,0.426 -0.53918,0.0189 -0.30942,-0.0429 -0.18584,-0.0254 -0.27892,-0.26015 -0.20363,-0.12324 -0.37181,-0.2731 -0.34,0.17305 -0.52012,0.55804 -1.38727,0.21534 -0.12332,0.20353 0.0926,0.0148 0.30951,0.043 0.33991,-0.17307 0.95449,-0.0553 0.85287,-0.006 0.0148,-0.0926 0.0927,0.0148 0.61893,0.087 1.48493,-0.0122 0.94131,0.0378 1.6344,-0.40143 1.15754,-0.15289 0.44619,-0.0319 0.32695,-0.0803 0.42836,-0.12924 0.0928,0.0148 1.3248,-0.44494 0.55648,-0.14266 0.41528,-0.0363 0.23407,-0.0933 0.4153,-0.0363 -0.0798,-0.10595 0.32686,-0.0803 0.22972,-0.0624 1.07772,-0.25883 0.0612,-0.43311 -0.11028,0.11073 -0.12385,-0.0168 -0.10586,0.0798 -0.0925,-0.0148 -0.12384,-0.0168 -0.0928,-0.0148 -0.10594,0.0797 -0.23396,0.0933 -0.0927,-0.0148 -0.10638,-0.14118 -0.0927,-0.0148 -0.0799,-0.10585 0.0148,-0.0927 0.0168,-0.12385 0.0148,-0.0928 0.0148,-0.0927 0.11028,-0.11074 0.22971,-0.0623 0.3094,0.043 0.0928,0.0148 0.2297,-0.0623 0.11017,-0.11073 0.26008,-0.27914 -0.0673,-0.41964 0.0148,-0.0926 0.0168,-0.12384 0.0148,-0.0927 0.24711,-0.18613 0.0148,-0.0926 0.0148,-0.0928 0.0168,-0.12386 -0.0927,-0.0148 0.0148,-0.0926 0.10594,-0.0797 0.11029,-0.11076 0.0148,-0.0927 0.0148,-0.0927 0.14119,-0.10639 0.0926,0.0148 0.10585,-0.0798 0.11075,0.11018 0.10595,-0.0797 0.0926,0.0148 0.12387,0.0168 0.0308,-0.21653 0.0926,0.0148 0.24267,-0.15535 0.0927,0.0148 0.26014,-0.27892 0.0925,0.0148 0.0168,-0.12385 0.0148,-0.0927 0.0148,-0.0926 -0.0755,-0.13683 -0.20363,-0.12323 -0.0927,-0.0148 -0.30943,-0.0429 -0.13682,0.0755 -0.0799,-0.10586 -0.0927,-0.0148 -0.21654,-0.0308 -0.27901,-0.26007 -0.0668,-0.19884 -0.1064,-0.14117 -0.0798,-0.10587 0.10587,-0.0798 0.0308,-0.21663 0.0148,-0.0927 -0.26587,-0.35284 -0.0927,-0.0148 -0.0754,-0.13684 0.0148,-0.0927 0.0148,-0.0928 0.0168,-0.12386 0.0148,-0.0926 0.19291,-0.69864 0.0927,0.0148 0.14119,-0.1064 0.0253,-0.18585 0.0926,0.0148 0.11018,-0.11075 0.0148,-0.0926 0.0148,-0.0927 0.0168,-0.12384 0.12385,0.0168 0.0148,-0.0927 0.0308,-0.21664 0.0566,-0.40225 0.10596,-0.0799 0.0168,-0.12385 0.0927,0.0148 0.0148,-0.0926 0.0308,-0.21654 0.0148,-0.0926 0.0148,-0.0927 0.0168,-0.12384 0.0148,-0.0926 -0.0624,-0.22963 0.0255,-0.18587 -0.0754,-0.13683 0.0148,-0.0926 0.0148,-0.0927 -0.12383,-0.0168 -0.0493,-0.32261 -0.0754,-0.13683 0.0148,-0.0926 -0.12386,-0.0168 -0.17272,-0.11893 -0.12386,-0.0168 -0.15512,-0.24275 -0.13683,0.0755 -0.0799,-0.10598 -0.0927,-0.0148 0.0148,-0.0927 -0.19917,-0.15423 -0.11018,0.11076 -0.29216,-0.16731 -0.11076,-0.11016 -0.0927,-0.0148 -0.0623,-0.22961 -0.12387,-0.0168 -0.0799,-0.10597 -0.30953,-0.0429 -0.0926,-0.0148 -0.11073,-0.11027 -0.15534,-0.24268 -0.29632,-0.13623 -0.19928,-0.15422 -0.0799,-0.10597 0.0148,-0.0927 0.0168,-0.12385 -0.0977,-0.20296 -0.0754,-0.13684 -0.0798,-0.10596 0.0148,-0.0926 0.0168,-0.12383 -0.19059,-0.21604 -0.0927,-0.0148 -0.10638,-0.14117 -0.0798,-0.10596 -0.20351,-0.12332 -0.0927,-0.0148 -0.0624,-0.22961 -0.11075,-0.1102 -0.16816,-0.14985 -0.12386,-0.0168 -0.17271,-0.11904 0.0148,-0.0927 -0.10638,-0.14116 -0.0926,-0.0148 -0.0798,-0.10585 -0.12385,-0.0168 0.0148,-0.0927 -0.0755,-0.13686 -0.0799,-0.10597 -0.12384,-0.0168 0.0148,-0.0929 0.0168,-0.12384 0.0148,-0.0928 -0.0926,-0.0148 -0.18616,-0.24699 0.1673,-0.29217 0.0148,-0.0925 0.10585,-0.0797 0.0168,-0.12385 0.0148,-0.0927 0.0148,-0.0927 0.0168,-0.12384 0.10583,-0.0797 0.0148,-0.0926 0.0168,-0.12386 0.14986,-0.16838 0.0308,-0.21653 0.0148,-0.0927 0.12334,-0.20361 0.0148,-0.0926 0.11028,-0.11076 0.0148,-0.0926 0.15424,-0.19918 0.0566,-0.40235 -0.11075,-0.11018 0.0168,-0.12385 -0.0799,-0.10597 0.10596,-0.0798 -0.0754,-0.13685 -0.0799,-0.10586 -0.0933,-0.23395 0.0148,-0.0927 0.75577,0.0112 0.51254,-0.0543 0.74269,0.10438 0.0148,-0.0927 0.0927,0.0148 0.30952,0.0429 0.0927,0.0148 0.2297,-0.0623 0.0927,0.0148 0.12386,0.0168 0.0926,0.0148 0.21653,0.0308 0.11029,-0.11074 0.0928,0.0148 0.12383,0.0168 0.0926,0.0148 0.41541,-0.0365 0.21651,0.0308 1.3611,-0.0297 0.12386,0.0168 0.18583,0.0254 0.21655,0.0308 0.32247,-0.0493 0.53907,-0.0188 0.18587,0.0254 0.12384,0.0168 0.0927,0.0148 0.0926,0.0148 0.14116,-0.10639 0.30964,0.0429 0.18563,0.0253 0.12387,0.0168 0.0927,0.0148 0.0148,-0.0927 0.0928,0.0148 0.12383,0.0168 0.18567,0.0252 0.12385,0.0168 0.0927,0.0148 0.21663,0.0308 0.95873,-0.0862 0.19883,-0.0667 0.30941,0.0429 0.53916,-0.0188 0.40237,0.0565 0.14116,-0.10639 0.0926,0.0148 1.15812,0.0676 0.10586,-0.0799 0.30952,0.0429 0.32685,-0.0803 0.0926,0.0148 0.21663,0.0308 0.53907,-0.0188 0.18585,0.0254 0.30942,0.0429 1.39205,-0.0251 0.41541,-0.0363 0.0925,0.0148 0.4333,0.0612 0.41531,-0.0364 0.94578,0.007 0.0927,0.0148 0.44639,-0.0319 0.63197,-0.006 1.03853,0.0201 0.41531,-0.0365 0.52617,0.0737 0.25625,-0.027 c -0.091,-1.82574 -0.18202,-3.64047 -0.27321,-5.46623 -0.24998,-0.0966 -0.65248,-0.0476 -1.00329,-0.0465 -0.3507,0.002 -0.63618,-0.0373 -0.64158,-0.37413 -0.0898,-0.2568 -0.0176,-0.6838 -0.0112,-1.04292 0.007,-0.35929 -0.0487,-0.65593 -0.38151,-0.65325 -5.26093,0.0994 -10.52479,0.17503 -15.78563,0.27455 1.28813,-1.51539 2.39724,-3.16881 3.79917,-4.57843 0.68892,-0.68782 1.50802,-1.30017 2.11668,-2.03763 0.40619,-1.36839 0.83513,-2.74913 1.2414,-4.11731 0.29871,-0.23651 0.68769,-0.37878 1.02831,-0.58133 0.3408,-0.20255 0.61921,-0.44102 0.66096,-0.88544 0.0202,-0.43592 0.15632,-0.68532 0.39598,-0.79634 0.23948,-0.11105 0.57857,-0.10803 0.95004,-0.0243 0.77561,-0.31371 1.49364,-0.80626 2.25127,-1.19832 -0.004,-0.72467 -0.005,-1.45407 -0.009,-2.17875 z"
       id="AL-01"
       style="font-style:normal;font-weight:400;font-size:34.375px;font-family:'MS Shell Dlg 2';opacity:1;fill:none;fill-opacity:1;fill-rule:evenodd;stroke:#000000;stroke-width:0.333;stroke-linecap:square;stroke-linejoin:bevel;stroke-miterlimit:4;stroke-dasharray:none;stroke-opacity:1" />
    <path
       inkscape:connector-curvature="0"
       d="m 234.34933,426.22614 c -1.14572,0.0731 -2.34301,0.29963 -3.3543,0.065 -0.42192,-0.32036 -0.7441,-0.90274 -1.09911,-1.38526 -0.17747,-0.24114 -0.35981,-0.46974 -0.57587,-0.61735 -0.21618,-0.14763 -0.4689,-0.23696 -0.76065,-0.20162 -0.50433,-0.0882 -1.19004,0.13902 -1.79822,0.22068 -0.30404,0.0408 -0.59427,0.0712 -0.81763,-0.0203 -0.22334,-0.0915 -0.40728,-0.29515 -0.47874,-0.63541 -0.1329,-0.68184 -0.35134,-1.18956 -0.73701,-1.4921 -0.38566,-0.30241 -0.9297,-0.3912 -1.64438,-0.19988 -2.8317,0.0369 -5.6711,0.0619 -8.5028,0.0989 -0.0664,-0.76165 -0.24054,-1.25468 -0.5867,-1.43947 -0.34605,-0.18474 -0.85614,-0.0539 -1.50605,0.38798 -0.39774,0.0142 -0.66086,0.12384 -0.83023,0.29351 -0.16937,0.16968 -0.25086,0.39029 -0.28136,0.65471 -0.0607,0.52889 0.0811,1.19917 0.0393,1.74111 0.0551,0.35404 -0.0315,0.54241 -0.21514,0.63253 -0.18352,0.0901 -0.45079,0.0684 -0.76007,0.0193 -0.61851,-0.0979 -1.38135,-0.35138 -1.82575,-0.2567 -0.18943,-0.52678 -0.23794,-1.13587 -0.39276,-1.69616 -0.15484,-0.5603 -0.42736,-1.04848 -1.04591,-1.31467 0.0353,-0.37456 -0.0499,-0.91605 -0.0519,-1.4273 -0.002,-0.51126 0.065,-1.00208 0.37259,-1.30465 -0.28159,-0.11098 -0.46829,-0.34319 -0.61113,-0.59079 -0.14292,-0.24748 -0.22406,-0.51309 -0.20954,-0.75521 0.0132,-0.24221 0.10833,-0.46294 0.29931,-0.55747 0.19104,-0.0947 0.48004,-0.0731 0.86648,0.12181 0.54197,0.21928 1.08074,0.38851 1.61399,0.41608 0.53337,0.0276 1.05842,-0.0943 1.57674,-0.44105 0.52194,-0.41651 1.69875,-0.48367 2.49976,-0.72161 0.40056,-0.11901 0.70736,-0.25716 0.79878,-0.51889 0.0914,-0.26173 -0.0582,-0.64952 -0.52859,-1.17874 -0.1338,-1.79276 -0.49572,-3.59761 -0.47617,-5.36852 0.28476,-0.35432 0.42516,-0.66348 0.43983,-0.885 0.0158,-0.22132 -0.1027,-0.36927 -0.27948,-0.48097 -0.35352,-0.22349 -1.0016,-0.24669 -1.6489,-0.16822 -0.3052,0.005 -0.61275,0.0205 -0.91914,0.0287 0,0 0,0 0,0 -2.86794,0.0763 -5.79297,0.25435 -8.60428,0.14765 -0.36372,0.0329 -0.58829,0.15706 -0.77272,0.3333 -0.18432,0.17616 -0.33617,0.39669 -0.46267,0.59764 -0.1264,0.20095 -0.22869,0.40218 -0.41865,0.50918 -0.18994,0.10701 -0.44704,0.11632 -0.82198,0.0108 -2.00339,0.0697 -4.0243,0.15616 -6.0276,0.22585 0.18211,0.43101 0.23362,0.71031 0.1568,0.90561 -0.0768,0.19532 -0.28002,0.29096 -0.52078,0.33701 -0.4816,0.0922 -1.20092,-0.0104 -1.76776,0.004 -0.88439,-0.0104 -1.76293,-0.0147 -2.6473,-0.0249 0.0643,0.63674 0.11403,1.37868 0.17231,1.91763 -0.006,0.74083 0.20934,1.43845 0.45998,2.11581 0.25067,0.6775 0.5412,1.35704 0.78686,2.03564 0.2743,0.2204 0.43434,0.51727 0.54109,0.86501 0.10685,0.34765 0.16005,0.74947 0.21913,1.13524 0.0593,0.38581 0.12766,0.7429 0.25881,1.07781 0.1312,0.33483 0.31957,0.62123 0.64268,0.81609 0.10469,-0.45728 0.15653,-1.31671 0.36245,-1.9056 0.10285,-0.29445 0.24506,-0.52218 0.46269,-0.59763 0.21771,-0.0755 0.51017,0.005 0.90236,0.31607 0.12675,0.42174 0.28737,0.66062 0.46125,0.75918 0.17399,0.0984 0.36034,0.0671 0.54352,-0.0498 0.36644,-0.23408 0.72168,-0.78004 0.89873,-1.23071 0.12566,0.33171 0.31671,0.53005 0.53627,0.67502 0.21968,0.14488 0.45845,0.22932 0.71663,0.28994 0.51641,0.1215 1.06372,0.17628 1.4023,0.57579 0.50602,-0.002 0.77861,0.18169 0.94244,0.47963 0.16381,0.29798 0.22129,0.70605 0.24565,1.17056 0.68833,-0.31053 1.32954,-1.02018 2.05158,-1.57357 0.36092,-0.27667 0.72432,-0.49058 1.12989,-0.63009 0.40557,-0.13951 0.86032,-0.19436 1.33453,-0.0649 -0.20675,0.16333 -0.11022,0.50022 0.14319,0.77749 0.25346,0.27727 0.6603,0.49724 1.11025,0.4085 0.16402,0.23693 0.18134,0.4686 0.0986,0.64499 -0.0826,0.17642 -0.25609,0.30756 -0.46315,0.37671 -0.20703,0.0691 -0.44951,0.0557 -0.65848,-0.03 -0.20912,-0.085 -0.40331,-0.2565 -0.49187,-0.54252 0.0471,0.77884 0.0953,1.57651 0.14238,2.35533 -0.8546,0.14065 -1.69455,0.25839 -2.54916,0.39912 0.0857,2.35989 0.14704,4.74151 0.23274,7.10151 -4.09888,0.0603 -8.16894,0.10875 -12.26796,0.16927 0.008,1.27002 -0.008,2.54831 -2.4e-4,3.81831 0,0 0,0 0,0 0.004,0.72468 0.005,1.4541 0.009,2.17874 -0.75755,0.39209 -1.47568,0.88463 -2.25127,1.19833 -0.37156,-0.0838 -0.71055,-0.0867 -0.95003,0.0243 -0.2396,0.11101 -0.37663,0.36039 -0.39598,0.79632 -0.042,0.44431 -0.32018,0.68289 -0.66098,0.88543 -0.3407,0.20255 -0.72958,0.34483 -1.02832,0.58134 -0.40617,1.36829 -0.8352,2.74892 -1.24138,4.1173 -0.60869,0.73757 -1.42777,1.34984 -2.11669,2.03764 -1.40192,1.40951 -2.51104,3.06305 -3.79917,4.57842 5.26081,-0.0994 10.52472,-0.17514 15.78564,-0.27454 0.33288,-0.002 0.38786,0.29394 0.38149,0.65325 -0.007,0.35921 -0.0788,0.7861 0.0113,1.04292 0.005,0.33676 0.29087,0.37634 0.64159,0.37413 0.35079,-0.002 0.75333,-0.0504 1.00329,0.0465 0.0911,1.82574 0.18222,3.64048 0.27321,5.46621 l 0.15913,-0.009 0.21652,0.0308 0.41976,-0.0673 0.84853,0.0248 1.48484,-0.0122 0.10597,-0.0799 0.52605,0.0737 0.50818,-0.0232 0.21664,0.0308 0.30952,0.0429 1.0517,-0.0731 1.26827,-0.0426 0.32242,-0.0494 0.12386,0.0168 0.3096,0.0429 0.0926,0.0148 0.10588,-0.0798 0.4333,0.0612 0.41963,-0.0673 0.21665,0.0308 0.18564,0.0254 0.12386,0.0168 0.19883,-0.0667 0.12384,0.0168 0.18567,0.0253 0.44638,-0.0319 0.0927,0.0148 0.30953,0.0429 0.41963,-0.0673 1.26396,-0.0118 0.12383,0.0168 0.18586,0.0254 0.14118,-0.10636 0.0926,0.0148 1.15809,0.0677 1.46693,-0.10944 0.12384,0.0168 0.41541,-0.0364 0.94577,0.007 0.72484,0.008 0.63196,-0.006 0.12384,0.0168 1.05163,-0.0732 1.59075,-0.092 1.26829,-0.0426 0.72477,0.007 0.12384,0.0168 1.26829,-0.0428 0.0148,-0.0926 0.94151,0.0378 0.18566,0.0254 0.32696,-0.0803 0.84853,0.0248 0.32251,-0.0494 2.11691,-0.018 0.11017,-0.11074 0.0926,0.0148 0.30963,0.043 1.71448,-0.0747 0.63195,-0.006 0.83514,-0.10349 0.44618,-0.032 0.63197,-0.006 1.4671,-0.10927 0.12384,0.0168 0.82188,-0.0108 0.75579,0.0112 0.50819,-0.0233 0.21661,0.0308 0.74224,-0.11651 1.39207,-0.0252 0.0925,0.0148 0.0927,0.0148 0.44638,-0.0319 0.0927,0.0148 0.0926,0.0148 0.5392,-0.0189 0.0168,-0.12386 0.0253,-0.18566 0.0168,-0.12387 -0.0798,-0.10594 -0.0933,-0.23408 -0.0798,-0.10585 0.0429,-0.30953 0.0148,-0.0926 -0.0624,-0.22963 -0.11075,-0.11016 -0.0925,-0.0148 -0.24853,-0.47682 0.0148,-0.0927 0.0308,-0.21652 -0.17317,-0.34001 -0.0798,-0.10587 -0.0624,-0.2296 -0.11073,-0.11028 -0.17272,-0.11903 -0.12384,-0.0168 -0.0755,-0.13682 -0.17308,-0.33981 0.0148,-0.0926 -0.0799,-0.10595 -0.19928,-0.15425 0.0148,-0.0928 -0.0798,-0.10585 -0.0755,-0.13684 -0.12386,-0.0168 -0.18584,-0.0255 -0.20352,-0.12332 0.043,-0.30952 -0.0798,-0.10585 -0.10638,-0.14118 -0.0927,-0.0148 0.0148,-0.0927 -0.0799,-0.10596 0.0429,-0.30941 0.0926,0.0148 0.12333,-0.20362 0.0308,-0.21663 0.0255,-0.18567 -0.0624,-0.22969 -0.0927,-0.0148 0.0148,-0.0926 -0.10639,-0.14119 -0.0667,-0.19861 -0.0755,-0.13684 0.0148,-0.0926 0.0148,-0.0927 -0.10638,-0.14118 0.0148,-0.0926 0.0148,-0.0927 0.0168,-0.12384 -0.0928,-0.0148 0.0148,-0.0927 0.0927,0.0148 0.0148,-0.0927 0.12384,0.0168 0.11018,-0.11074 0.10585,-0.0797 0.0148,-0.0927 0.12384,0.0168 0.0168,-0.12385 0.0255,-0.18585 0.0168,-0.12386 0.0148,-0.0926 0.0148,-0.0927 0.0168,-0.12386 0.0148,-0.0928 0.0308,-0.21662 -0.1905,-0.21601 0.0168,-0.12384 0.0926,0.0148 -0.0493,-0.32257 0.0148,-0.0927 -0.0926,-0.0148 0.0148,-0.0926 -0.12387,-0.0168 0.0168,-0.12385 0.0148,-0.0928 0.15426,-0.19927 0.0148,-0.0927 0.13626,-0.29642 0.0308,-0.21665 0.0148,-0.0926 0.0148,-0.0927 0.0168,-0.12385 -0.0798,-0.10596 0.0148,-0.0927 0.0168,-0.12383 0.0253,-0.18569 0.0168,-0.12384 0.0927,0.0148 0.10585,-0.0799 0.0148,-0.0926 0.0308,-0.21652 0.0148,-0.0928 -0.0755,-0.13683 -0.0666,-0.19881 -0.063,-0.45055 0.18033,-0.38494 0.0148,-0.0926 0.12324,-0.20363 0.14933,-0.3892 0.0308,-0.21664 0.13684,-0.0755 0.0168,-0.12387 -0.12384,-0.0168 0.0148,-0.0927 0.0148,-0.0927 0.0168,-0.12382 0.13684,-0.0755 0.0148,-0.0926 -0.10639,-0.14117 0.0148,-0.0927 -0.0927,-0.0148 -0.0623,-0.22961 -0.12385,-0.0168 0.0254,-0.18583 -0.15534,-0.24269 0.10596,-0.0798 0.0168,-0.12386 -0.0927,-0.0148 0.0148,-0.0927 0.0148,-0.0926 -0.0933,-0.23395 0.0148,-0.0926 0.0168,-0.12385 0.0148,-0.0927 -0.0926,-0.0148 0.0148,-0.0927 0.0168,-0.12384 0.0148,-0.0926 0.0148,-0.0928 -0.19917,-0.15421 -0.17272,-0.11905 -0.18612,-0.24709 -0.0925,-0.0148 0.0148,-0.0926 0.0308,-0.21652 0.0148,-0.0927 0.0148,-0.0926 -0.12385,-0.0168 -0.0927,-0.0148 -0.0927,-0.0148 -0.37226,-0.494 -0.15967,-0.2119 0.0168,-0.12384 -0.20354,-0.12324 -0.0926,-0.0148 0.0148,-0.0926 0.0168,-0.12386 -0.0977,-0.20316 0.0308,-0.21654 0.0148,-0.0927 0.0168,-0.12384 0.14989,-0.16837 0.0168,-0.12386 -0.16015,-0.43269 -0.0799,-0.10596 0.0168,-0.12387 0.0148,-0.0927 0.0148,-0.0926 0.0168,-0.12386 -0.12386,-0.0168 -0.0798,-0.10596 -0.0926,-0.0148 -0.0933,-0.23407 -0.0927,-0.0148 0.11891,-0.17252 0.14121,-0.10638 0.0148,-0.0927 0.0148,-0.0928 -0.12385,-0.0168 0.0308,-0.21654 0.0148,-0.0925 0.0168,-0.12384 0.0148,-0.0926 -0.0624,-0.22973 -0.0668,-0.19864 -0.12384,-0.0168 0.0168,-0.12386 0.0148,-0.0927 0.0148,-0.0928 0.0168,-0.12384 0.0148,-0.0927 -0.0798,-0.10586 0.0168,-0.12385 0.10586,-0.0798 0.0308,-0.21662 0.14984,-0.16819 0.0168,-0.12385 -0.11075,-0.11028 0.0148,-0.0926 -0.0927,-0.0148 0.0168,-0.12385 0.3225,-0.0492 0.0928,0.0148 0.13682,-0.0755 0.0168,-0.12385 0.0255,-0.18586 -0.10641,-0.14119 0.0148,-0.0927 0.22961,-0.0623 0.0168,-0.12385 0.0148,-0.0929 0.10587,-0.0799 0.14118,-0.10639 0.11902,-0.17254 0.11025,-0.1107 0.0148,-0.0927 -0.0927,-0.0148 -0.0363,-0.41531 0.0168,-0.12386 0.19885,-0.0668 0.13684,-0.0755 0.0925,0.0148 0.0168,-0.12384 -0.0798,-0.10586 -0.11076,-0.11018 0.0168,-0.12385 0.0148,-0.0927 0.0308,-0.21661 0.0148,-0.0927 0.15421,-0.19918 0.11895,-0.17273 0.11019,-0.11074 -0.0798,-0.10586 0.0148,-0.0927 0.0168,-0.12384 0.0148,-0.0927 -0.0925,-0.0148 0.0148,-0.0926 0.0168,-0.12384 0.0148,-0.0926 -0.11074,-0.11019 0.0168,-0.12385 0.0255,-0.18584 0.0168,-0.12387 0.0148,-0.0927 0.0148,-0.0926 z"
       id="AL-02"
       style="font-style:normal;font-weight:400;font-size:34.375px;font-family:'MS Shell Dlg 2';opacity:1;fill:none;fill-opacity:1;fill-rule:evenodd;stroke:#000000;stroke-width:0.333;stroke-linecap:square;stroke-linejoin:bevel;stroke-miterlimit:4;stroke-dasharray:none;stroke-opacity:1" />
    <path
       inkscape:connector-curvature="0"
       d="m 222.36322,361.74286 c -0.62377,0.51379 -1.31433,0.95951 -1.93351,0.95905 -0.34198,3e-5 -0.64973,-0.12266 -0.89367,-0.37807 -0.24384,-0.25531 -0.4429,-0.66036 -0.5198,-1.24061 -0.27738,-0.11583 -0.51268,-0.044 -0.7466,0.14753 -0.23391,0.19141 -0.46631,0.51572 -0.68747,0.84999 -0.44238,0.66875 -0.89746,1.46456 -1.47215,1.71814 -0.54156,0.57694 -1.37417,0.9922 -1.94998,1.52475 -0.28795,0.26622 -0.51015,0.53794 -0.59907,0.89403 -0.0887,0.35612 -0.0206,0.78098 0.22839,1.29438 -0.0736,0.37713 -0.0289,0.59849 0.0856,0.7378 0.11459,0.1394 0.28272,0.21282 0.46901,0.25536 0.18632,0.0425 0.37609,0.0502 0.51736,0.13571 0.14121,0.0866 0.23387,0.23201 0.2133,0.5034 0.0506,0.71247 0.63789,1.59964 0.9557,2.40642 0.1588,0.40333 0.25087,0.79657 0.18814,1.13098 -0.0628,0.33435 -0.30361,0.63332 -0.78037,0.83695 -0.4398,-0.25791 -0.79714,-0.32712 -1.13192,-0.2537 -0.33477,0.0734 -0.62434,0.2663 -0.91821,0.47049 -0.29381,0.20431 -0.58307,0.43318 -0.9002,0.56784 -0.31722,0.13458 -0.67358,0.17335 -1.07834,0.0377 -0.0862,0.45411 -0.32689,0.87592 -0.64245,1.20359 -0.31558,0.32768 -0.702,0.58025 -1.1077,0.69632 -0.40572,0.11616 -0.83235,0.10821 -1.18899,-0.0725 -0.35664,-0.1806 -0.65609,-0.53169 -0.82453,-1.09421 -0.42314,0.0941 -0.72781,-0.12857 -0.9777,-0.45287 -0.24987,-0.32443 -0.44042,-0.76141 -0.62572,-1.16098 -0.1854,-0.39949 -0.3734,-0.74238 -0.60308,-0.87363 -0.22965,-0.13123 -0.50006,-0.0369 -0.88288,0.44394 -0.55476,-0.25317 -1.04447,-0.29745 -1.41001,-0.0718 -0.26793,0.16542 -0.36257,0.63331 -0.46593,1.07058 0,0 0,0 0,0 -0.0376,0.15911 -0.16939,0.18856 -0.18033,0.38494 -0.40503,0.93614 -0.97816,1.64012 -1.69216,2.16052 -0.71404,0.52029 -1.56594,0.85439 -2.5389,1.00011 -0.66514,0.002 -1.02688,0.1272 -1.18362,0.33856 -0.15684,0.21133 -0.10886,0.48717 0.0108,0.82199 0.23905,0.66958 0.7852,1.50713 0.73848,2.15493 0.0672,0.71603 -0.2372,1.63731 -0.31274,2.44912 -0.0374,0.40591 -0.0165,0.77244 0.13071,1.09132 0.14694,0.31884 0.42893,0.56922 0.90763,0.72709 0.1131,0.36943 0.36468,0.58887 0.68672,0.72764 0.3219,0.13886 0.73255,0.1988 1.09664,0.28036 0.364,0.0817 0.68526,0.18478 0.92448,0.3824 0.23922,0.1977 0.38616,0.50666 0.33366,0.99368 -0.17086,0.45405 -0.17515,0.86375 -0.0815,1.25087 0.0941,0.38707 0.27707,0.74026 0.4445,1.10381 0.16732,0.36353 0.32922,0.74283 0.37817,1.12609 0.049,0.38324 -0.006,0.77849 -0.26686,1.2248 -0.51521,0.13933 -0.9573,0.3749 -1.33299,0.72784 -0.37565,0.35287 -0.6832,0.82172 -0.88955,1.38972 -0.4269,0.20428 -0.6778,0.45117 -0.79388,0.70881 -0.11605,0.25777 -0.0996,0.52404 -0.0506,0.81344 0.0968,0.5785 0.37905,1.19801 0.25593,1.77154 3.7429,-0.11612 7.47736,-0.23199 11.22016,-0.34813 0.14062,3.22213 0.29264,6.70245 0.43356,9.93836 0.3064,-0.008 0.61393,-0.0235 0.91912,-0.0287 0.64726,-0.0779 1.29533,-0.0547 1.64892,0.16824 0.17678,0.1117 0.29424,0.25956 0.27949,0.48096 -0.0148,0.22152 -0.15502,0.53067 -0.43985,0.88499 -0.0196,1.77091 0.34239,3.57575 0.47618,5.36851 0.47041,0.52922 0.61999,0.91703 0.52859,1.17875 -0.0914,0.26174 -0.39822,0.39988 -0.79879,0.51891 -0.801,0.23792 -1.97781,0.30508 -2.49974,0.72159 -0.51832,0.34676 -1.04341,0.46876 -1.57674,0.44105 -0.53326,-0.0276 -1.07205,-0.19682 -1.614,-0.41607 -0.38645,-0.19487 -0.67547,-0.21641 -0.86649,-0.12181 -0.19101,0.0946 -0.28465,0.31533 -0.29928,0.55746 -0.0132,0.24221 0.0667,0.50773 0.20953,0.75521 0.14283,0.24759 0.32954,0.47972 0.61112,0.59081 -0.30731,0.30258 -0.37464,0.79338 -0.37259,1.30464 0.002,0.51123 0.0866,1.0527 0.0519,1.42729 0.61857,0.26619 0.89107,0.75437 1.04592,1.31467 0.15481,0.56031 0.20332,1.16938 0.39276,1.69617 0.44441,-0.0948 1.20726,0.15869 1.82574,0.2566 0.30937,0.0485 0.57657,0.0707 0.76011,-0.0193 0.18361,-0.0901 0.27028,-0.2785 0.21512,-0.63254 0.041,-0.542 -0.10028,-1.21223 -0.0393,-1.74111 0.031,-0.26436 0.11199,-0.48502 0.28137,-0.65471 0.16938,-0.16966 0.43249,-0.27942 0.83022,-0.2935 0.64994,-0.44186 1.16001,-0.57272 1.50606,-0.38798 0.34615,0.18479 0.52024,0.67781 0.58668,1.43948 2.8317,-0.037 5.67111,-0.0621 8.5028,-0.0989 0.71473,-0.19169 1.25879,-0.10291 1.6444,0.1999 0.38566,0.30252 0.60411,0.81027 0.737,1.49209 0.0714,0.34026 0.2554,0.54395 0.47875,0.63541 0.22336,0.0913 0.51361,0.061 0.81763,0.0203 0.60817,-0.0816 1.2939,-0.30894 1.79823,-0.2207 0.29173,-0.0353 0.5444,0.0545 0.76062,0.20163 0.21607,0.14761 0.39842,0.37621 0.57588,0.61735 0.35502,0.48252 0.6772,1.06492 1.09911,1.38525 1.01129,0.23462 2.20858,0.008 3.35429,-0.065 l 0.0168,-0.12387 -0.0799,-0.10596 0.12333,-0.20362 0.0148,-0.0926 0.12385,0.0168 0.0148,-0.0926 -0.10637,-0.1412 0.0148,-0.0927 -0.14227,-0.33558 0.0308,-0.21651 -0.17307,-0.34001 -0.0798,-0.10586 0.0148,-0.0926 0.11018,-0.11076 0.24268,-0.15532 0.24664,-0.40705 0.1499,-0.16838 0.11017,-0.11074 0.27312,-0.37181 0.0148,-0.0926 0.0927,0.0148 0.32686,-0.0803 0.56961,-0.23541 0.10584,-0.0798 0.0148,-0.0927 0.0168,-0.12384 -0.0798,-0.10587 0.0148,-0.0927 0.0928,0.0148 0.0168,-0.12384 0.0148,-0.0928 0.0926,0.0148 0.13683,-0.0756 0.0928,0.0148 0.23408,-0.0933 0.18564,0.0254 0.13684,-0.0755 0.10594,-0.0797 -0.0755,-0.13686 0.0148,-0.0927 0.10596,-0.0798 0.11028,-0.11074 0.0148,-0.0926 0.0148,-0.0926 0.0168,-0.12384 0.12384,0.0168 0.0148,-0.0926 0.0926,0.0148 0.0148,-0.0928 0.11017,-0.11074 0.12385,0.0168 0.0148,-0.0926 0.0148,-0.0927 -0.12384,-0.0168 -0.15511,-0.24277 -0.20362,-0.12334 -0.29206,-0.16727 -0.26599,-0.35285 -0.20362,-0.12333 -0.17251,-0.11901 -0.21661,-0.0308 -0.80517,-0.33403 -0.18567,-0.0252 -0.12384,-0.0168 -0.0799,-0.10587 -0.0756,-0.13684 0.0255,-0.18585 0.0308,-0.21654 0.2162,-0.19046 0.13687,-0.0755 0.0148,-0.0928 0.0926,0.0148 0.0168,-0.12385 0.0148,-0.0926 0.0148,-0.0927 0.0168,-0.12384 0.10588,-0.0799 0.0148,-0.0926 -0.0925,-0.0148 0.0168,-0.12387 0.0148,-0.0926 0.0148,-0.0927 0.0168,-0.12387 0.0148,-0.0926 -0.0798,-0.10596 0.0168,-0.12386 0.0148,-0.0926 0.0148,-0.0927 0.12322,-0.20361 0.24703,-0.18624 -0.0803,-0.32678 -0.15945,-0.21185 -0.30961,-0.0431 -0.19919,-0.15422 -0.0798,-0.10586 -0.0933,-0.23397 0.0148,-0.0927 0.0148,-0.0926 0.0168,-0.12384 0.0148,-0.0927 0.0148,-0.0925 0.0168,-0.12385 -0.0798,-0.10596 0.0148,-0.0926 -0.0756,-0.13684 0.0148,-0.0926 0.0148,-0.0926 0.0168,-0.12383 -0.11073,-0.11028 0.0148,-0.0926 -0.15514,-0.24266 -0.12383,-0.0168 0.0148,-0.0926 -0.0926,-0.0148 -0.0755,-0.13683 -0.11072,-0.11028 0.0148,-0.0927 0.0168,-0.12385 -0.28327,-0.22907 -0.0928,-0.0148 -0.46513,-0.50727 -0.28348,-0.22908 -0.14206,-0.33565 -0.12388,-0.0168 -0.0624,-0.22962 0.0148,-0.0927 0.0168,-0.12383 -0.0927,-0.0148 0.0255,-0.18585 -0.12385,-0.0168 0.0168,-0.12387 -0.0927,-0.0148 0.0148,-0.0927 0.0148,-0.0927 0.0168,-0.12384 0.0148,-0.0927 -0.0927,-0.0148 -0.12385,-0.0168 -0.0798,-0.10596 0.0168,-0.12383 0.0148,-0.0926 0.0148,-0.0927 0.11028,-0.11072 0.0148,-0.0928 -0.0493,-0.32248 -0.27903,-0.26008 -0.2035,-0.12333 -0.0928,-0.0148 0.0148,-0.0926 -0.0755,-0.13685 -0.12961,-0.64933 0.0148,-0.0926 0.0148,-0.0928 0.0168,-0.12386 0.0148,-0.0928 0.0148,-0.0927 0.0168,-0.12386 -0.0928,-0.0148 -0.11073,-0.11018 -0.17272,-0.11894 -0.1064,-0.14118 0.0148,-0.0926 -0.0798,-0.10596 0.0308,-0.21654 0.0148,-0.0926 0.0925,0.0148 0.0168,-0.12382 0.0148,-0.0927 0.0148,-0.0926 -0.0925,-0.0148 -0.0755,-0.13685 -0.11074,-0.11017 -0.0927,-0.0148 -0.0799,-0.10585 -0.12387,-0.0168 -0.1551,-0.24274 -0.11074,-0.1103 -0.0756,-0.13684 0.0148,-0.0927 0.0308,-0.21655 -0.0668,-0.19883 0.11029,-0.11074 0.0148,-0.0925 0.0927,0.0148 0.0148,-0.0926 0.0168,-0.12384 -0.0927,-0.0148 0.0148,-0.0927 0.0148,-0.0926 -0.0927,-0.0148 -0.12384,-0.0168 -0.0926,-0.0148 -0.0927,-0.0148 -0.12384,-0.0168 0.0168,-0.12384 -0.0799,-0.10587 0.0308,-0.21652 -0.0798,-0.10597 0.0148,-0.0928 0.0168,-0.12383 -0.0977,-0.20298 -0.0493,-0.32259 -0.0493,-0.32241 -0.15578,-0.46379 -0.10361,-0.83493 -0.0623,-0.22971 -0.19202,-0.87909 0.0148,-0.0926 -0.32161,-1.52831 -0.0668,-0.19885 -0.2283,-1.29437 -0.12967,-0.64936 -0.0755,-0.13685 0.0255,-0.18563 -0.14261,-0.55659 -0.21535,-1.38717 -0.14261,-0.55656 -0.0493,-0.3225 -0.12968,-0.64937 -0.30859,-1.62121 -0.24141,-1.2016 -0.0362,-0.41529 -0.33913,-1.40466 0.0168,-0.12385 -0.0667,-0.19862 -0.2724,-1.20594 -0.22829,-1.29438 0.0148,-0.0928 0.0168,-0.12386 -0.0927,-0.0148 -0.16584,-1.06475 0.0148,-0.0926 -0.28547,-1.11317 0.0148,-0.0927 -0.19195,-0.87896 -0.0364,-0.41541 -0.17315,-0.3399 0.0148,-0.0927 -0.24135,-1.20148 -0.0364,-0.41529 -0.0933,-0.23409 0.0148,-0.0926 -0.0319,-0.44619 -0.0667,-0.19883 -0.063,-0.45054 -0.25881,-1.07781 0.0308,-0.21654 -0.16003,-0.43278 0.0148,-0.0926 -0.0988,-0.64502 -0.1426,-0.55657 0.0148,-0.0926 -0.38404,-1.75818 0.0148,-0.0926 -0.17899,-0.97186 -0.19204,-0.87909 -0.25881,-1.0777 0.0429,-0.30952 -0.19193,-0.87896 -0.0803,-0.32695 -0.11618,-0.52126 0.0168,-0.12386 -0.17889,-0.97175 -0.0977,-0.20318 -0.0494,-0.32239 -0.33469,-1.43555 0.0148,-0.0926 -0.0494,-0.32252 0.0148,-0.0926 -0.15576,-0.4638 0.0254,-0.18565 -0.0986,-0.64499 -0.0803,-0.32696 -0.12489,-0.45925 0.0148,-0.0927 -0.0178,-0.0972 z"
       id="AL-03"
       style="font-style:normal;font-weight:400;font-size:34.375px;font-family:'MS Shell Dlg 2';opacity:1;fill:none;fill-opacity:1;fill-rule:evenodd;stroke:#000000;stroke-width:0.333;stroke-linecap:square;stroke-linejoin:bevel;stroke-miterlimit:4;stroke-dasharray:none;stroke-opacity:1" />
    <path
       inkscape:connector-curvature="0"
       d="m 219.49811,347.54979 c -0.29594,0.0882 -0.58006,0.19063 -0.75039,0.39946 -0.22422,0.27486 -0.35444,0.64384 -0.48832,1.0043 -0.13361,0.36051 -0.26966,0.70302 -0.45722,1.00868 -0.18777,0.30566 -0.43432,0.56315 -0.82054,0.67357 -0.84157,1.06907 -1.4951,2.34785 -2.25921,3.50095 -1.12314,1.1733 -2.50483,2.11639 -3.73158,3.19928 -0.24107,0.53769 -0.53443,0.80062 -0.88187,0.88589 -0.34746,0.0854 -0.73994,0.003 -1.14495,-0.16096 -0.81031,-0.32817 -1.6893,-0.96086 -2.43761,-1.06846 0.10739,-0.43416 0.0705,-0.77138 -0.0774,-1.02068 -0.14797,-0.24914 -0.415,-0.39551 -0.71717,-0.51102 -0.60404,-0.23088 -1.40277,-0.24767 -2.0158,-0.25144 -0.66087,-0.28211 -1.00059,-0.27341 -1.15802,-0.0676 -0.15763,0.20536 -0.12911,0.59118 -0.10847,0.99457 0.0209,0.40343 0.0265,0.8418 -0.099,1.15365 -0.12558,0.31208 -0.40985,0.4955 -1.00667,0.42666 -0.27488,0.26512 -0.62164,0.47349 -1.03276,0.61222 -0.41109,0.13854 -0.87742,0.20034 -1.31667,0.16204 -0.43908,-0.0378 -0.87486,-0.16052 -1.23393,-0.42588 -0.35907,-0.26535 -0.63641,-0.67536 -0.80717,-1.21789 -0.34745,2.24731 -0.57646,4.51602 -0.63849,6.78962 -4.10588,-0.0474 -8.21581,-0.0749 -12.32169,-0.12226 -0.0205,-3.09666 -0.027,-6.2192 -0.0477,-9.3161 0.0691,-0.37595 0.0396,-0.69968 -0.0774,-1.0207 -0.11719,-0.32085 -0.32374,-0.64172 -0.56774,-0.90019 -0.48796,-0.51725 -1.1623,-0.88022 -1.80121,-1.10523 -0.52911,0.0945 -1.02722,0.0233 -1.49846,-0.11577 -0.47121,-0.1393 -0.91372,-0.34755 -1.37133,-0.57143 -0.45755,-0.22405 -0.94043,-0.45137 -1.42887,-0.61109 -0.48841,-0.15971 -0.98364,-0.27093 -1.54725,-0.21756 -0.53385,-0.38849 -1.0153,-0.52311 -1.47291,-0.5226 -0.45745,10e-4 -0.88195,0.14992 -1.31177,0.35207 -0.8593,0.40476 -1.73855,1.03492 -2.77722,1.12442 -0.38672,0.41494 -0.79037,0.67962 -1.22221,0.83806 -0.4321,0.15861 -0.88086,0.2046 -1.31234,0.13125 -0.43147,-0.0735 -0.86254,-0.27281 -1.24755,-0.55402 -0.38498,-0.28142 -0.71767,-0.65535 -1.01011,-1.12029 -0.17131,-0.51565 -0.44831,-1.0078 -0.80761,-1.4389 -0.3595,-0.43113 -0.79791,-0.78074 -1.27519,-1.03123 -0.47727,-0.25065 -1.00104,-0.39816 -1.52555,-0.37221 -0.31015,0.0154 -0.62464,0.20374 -0.93172,0.34236 l -0.10738,1.43664 -0.0429,0.30944 -0.0431,0.30959 -0.087,0.61893 -0.10437,0.74268 -0.0431,0.30941 0.0977,0.20316 -0.0869,0.61895 -0.0612,0.43308 -0.0255,0.18586 -0.0308,0.21653 -0.17398,1.23784 -0.0148,0.0926 -0.0168,0.12385 -0.0869,0.61891 -0.13049,0.92848 -0.0254,0.18566 -0.14237,1.68418 -0.0254,0.18566 -0.10448,0.7427 -0.10004,0.7118 -0.0148,0.0927 -0.0168,0.12386 -0.0565,0.40224 -0.0308,0.21664 0.0667,0.19862 -0.0308,0.21663 -0.14353,1.02115 -0.0168,0.12385 -0.10695,1.65756 -0.0736,0.52618 -0.0429,0.30942 -0.0148,0.0927 -0.11743,0.83558 -0.15653,1.11405 0.0624,0.22965 -0.0308,0.21652 -0.0566,0.40236 -0.0565,0.40234 -0.0737,0.52607 -0.0148,0.0926 -0.14775,1.05208 -0.087,0.61891 0.0668,0.19884 -0.0737,0.52605 -0.0429,0.30954 -0.11743,0.83547 -0.0253,0.18586 -0.043,0.30942 -0.0168,0.12384 -0.0999,0.71183 -0.0201,1.03855 -0.0308,0.21661 -0.0999,0.71184 -0.0736,0.52605 -0.0148,0.0927 -0.043,0.3094 -0.11745,0.8356 -0.0148,0.0928 -0.11743,0.83548 0.0623,0.22962 -0.10586,0.0799 -0.0148,0.0927 -0.0308,0.21653 0.0364,0.4154 -0.0308,0.21654 -0.0308,0.21652 -0.0566,0.40234 -0.0308,0.21654 -0.0999,0.71181 0.0188,0.53909 -0.0148,0.0926 -0.0566,0.40227 -0.11743,0.83557 -0.043,0.30953 -0.0308,0.21652 -0.0148,0.0927 -0.043,0.30952 -0.0737,0.52616 0.0977,0.20297 -0.0168,0.12385 -0.0148,0.0927 -0.043,0.30952 -0.0148,0.0927 -0.0308,0.21662 -0.0148,0.0927 -0.0869,0.61892 -0.0168,0.12384 -0.0168,0.12386 c 3.41059,0.059 6.81651,0.14759 10.2271,0.20652 0.0495,3.31404 0.1011,6.61605 0.15076,9.93009 -0.1201,0.42493 -0.0902,0.72623 0.0286,0.91924 0.1191,0.19296 0.3349,0.29205 0.58846,0.30356 0.50707,0.0226 1.16432,-0.29362 1.58067,-0.69306 0.36066,-0.36547 1.10677,-0.60799 1.70374,-0.89662 0.29858,-0.14424 0.55512,-0.27956 0.72818,-0.46559 0.1731,-0.18612 0.23294,-0.40361 0.15759,-0.6722 -0.10803,-0.67259 0.0203,-0.93302 0.2586,-0.94188 0.23886,-0.009 0.61734,0.22339 1.03968,0.4617 0.42223,0.23828 0.86699,0.49386 1.30942,0.56271 0.44226,0.0693 0.8531,-0.0466 1.1521,-0.56395 0.44941,-0.39046 0.80602,-0.5315 1.0816,-0.51065 0.27563,0.0214 0.48818,0.18949 0.6992,0.41384 0.21113,0.22439 0.43106,0.50753 0.68672,0.72767 0.25565,0.22011 0.54609,0.37888 0.95545,0.38673 0.75204,0.0258 1.21824,-0.19363 1.5588,-0.5383 0.3407,-0.34465 0.55501,-0.81771 0.74849,-1.28332 0.19339,-0.46562 0.37164,-0.92416 0.68216,-1.26104 0.127,-0.13786 0.41835,-0.11337 0.59607,-0.20029 -0.61271,-0.75996 -1.13618,-1.96151 -1.90629,-2.60313 -0.29139,-0.2625 -0.96718,-0.60086 -1.40756,-0.9867 -0.22018,-0.19304 -0.36224,-0.39365 -0.39031,-0.59138 -0.028,-0.19771 0.0794,-0.39025 0.39655,-0.57541 0.33286,-0.0274 0.60809,-0.035 0.8703,-0.13015 0.26219,-0.0951 0.50622,-0.28452 0.6923,-0.66006 0.50945,-0.1639 0.86512,-0.44918 1.09417,-0.82444 0.22907,-0.37538 0.3204,-0.85201 0.34604,-1.33989 1.03254,-0.73354 2.26765,-1.19533 3.22161,-2.0403 0.25761,-0.5 0.36435,-1.07283 0.51341,-1.63192 0.149,-0.5591 0.3465,-1.09877 0.77876,-1.49993 0.36728,-0.11933 0.58936,-0.33443 0.71459,-0.59392 0.1254,-0.25938 0.14995,-0.54836 0.18377,-0.85777 0.033,-0.30942 0.0645,-0.62409 0.15708,-0.89304 0.0926,-0.26892 0.26237,-0.50821 0.56427,-0.64656 0.0493,-0.3676 0.17454,-0.66174 0.37802,-0.89348 0.20344,-0.23184 0.47996,-0.40383 0.77205,-0.55424 0.58434,-0.30082 1.26764,-0.4851 1.81469,-0.78638 0.5331,-0.36418 1.10966,-0.80724 1.57473,-1.32494 0.465,-0.51775 0.83504,-1.11303 0.94167,-1.7611 0.01,-0.31972 0.13541,-0.55748 0.32538,-0.74313 0.19001,-0.18577 0.425,-0.33666 0.69723,-0.47016 0.54454,-0.2669 1.16636,-0.51024 1.44269,-1.05953 0.13185,-0.28351 0.31322,-0.43949 0.54687,-0.52267 0.23365,-0.0832 0.50964,-0.079 0.79536,-0.046 0.57147,0.066 1.21183,0.27645 1.69335,0.30122 0.62752,0.11197 0.99659,0.45412 1.16869,0.89001 0.17221,0.43589 0.13251,0.96705 -0.0536,1.50715 0.33729,0.24574 0.88186,0.26312 1.27365,0.36836 0.19586,0.0527 0.35959,0.10269 0.43812,0.25091 0.0785,0.14816 0.0882,0.38957 -0.0384,0.72038 0.14742,0.37435 0.0602,0.81288 -0.0458,1.22433 -0.106,0.41146 -0.24797,0.77424 -0.23631,1.00813 0.20797,0.008 0.62283,0.14119 0.89312,0.15717 0.10335,-0.43725 0.19799,-0.90514 0.46593,-1.07057 0.36554,-0.22552 0.85524,-0.18123 1.41002,0.0718 0.38278,-0.4804 0.65322,-0.57519 0.88287,-0.44394 0.22969,0.13124 0.41769,0.47413 0.60309,0.87362 0.1853,0.3996 0.37583,0.83656 0.62572,1.16099 0.24988,0.32435 0.55457,0.547 0.9777,0.45288 0.16845,0.56251 0.46788,0.91359 0.82452,1.09419 0.35665,0.18061 0.78327,0.18856 1.189,0.0725 0.4057,-0.11607 0.79212,-0.36866 1.10769,-0.69632 0.31557,-0.32766 0.55613,-0.7495 0.64246,-1.2036 0.40475,0.1357 0.76116,0.0966 1.07834,-0.0377 0.31713,-0.13468 0.60641,-0.36356 0.90018,-0.56785 0.29389,-0.20418 0.58344,-0.39706 0.91822,-0.47049 0.33478,-0.0734 0.69213,-0.004 1.13191,0.2537 0.47678,-0.20363 0.71763,-0.50261 0.78038,-0.83692 0.0627,-0.33444 -0.0293,-0.72767 -0.18813,-1.13101 -0.31781,-0.80678 -0.90516,-1.69395 -0.95569,-2.40641 0.0212,-0.27134 -0.0721,-0.4169 -0.21333,-0.5034 -0.14115,-0.0863 -0.33103,-0.0932 -0.51733,-0.13571 -0.18629,-0.0426 -0.35442,-0.11592 -0.46903,-0.25535 -0.11463,-0.13933 -0.15926,-0.36068 -0.0856,-0.73781 -0.24866,-0.51341 -0.31718,-0.93826 -0.22836,-1.2944 0.089,-0.35608 0.31109,-0.62779 0.59905,-0.89401 0.57583,-0.53256 1.40842,-0.94782 1.94999,-1.52476 0.57468,-0.25357 1.02977,-1.04939 1.47214,-1.71813 0.22117,-0.33427 0.45356,-0.65857 0.68749,-0.85 0.23391,-0.1915 0.4692,-0.26334 0.74659,-0.14752 0.0769,0.58023 0.27596,0.9853 0.5198,1.2406 0.24394,0.25536 0.55168,0.37777 0.89369,0.37806 0.61915,5.1e-4 1.3097,-0.44524 1.93348,-0.95902 l -0.16105,-0.87463 -0.0803,-0.32687 -0.32116,-1.30741 -0.17908,-0.97188 -0.0803,-0.32686 -0.0623,-0.22972 -0.0667,-0.19861 -0.0498,-0.54353 -0.0799,-0.10586 0.0168,-0.12385 -0.16011,-0.43281 -0.22831,-1.29435 -0.17897,-0.97188 -0.19203,-0.87907 0.0148,-0.0927 -0.0798,-0.10588 -0.0629,-0.45073 -0.19631,-0.84796 -0.0988,-0.64504 -0.14264,-0.55657 -0.179,-0.97188 -0.19201,-0.87907 0.0253,-0.18564 -0.13013,-0.8704 z"
       id="AL-04"
       style="font-style:normal;font-weight:400;font-size:34.375px;font-family:'MS Shell Dlg 2';opacity:1;fill:none;fill-opacity:1;fill-rule:evenodd;stroke:#000000;stroke-width:0.333;stroke-linecap:square;stroke-linejoin:bevel;stroke-miterlimit:4;stroke-dasharray:none;stroke-opacity:1" />
    <path
       inkscape:connector-curvature="0"
       d="m 160.75917,347.40471 c 0.30709,-0.13874 0.62157,-0.327 0.93172,-0.34239 0.52451,-0.026 1.04827,0.12166 1.52553,0.37224 0.47729,0.25057 0.91571,0.6001 1.27521,1.03122 0.35938,0.43112 0.6363,0.92323 0.80759,1.43888 0.29257,0.46495 0.62515,0.83889 1.01012,1.1203 0.385,0.28131 0.81607,0.48046 1.24754,0.55403 0.43148,0.0734 0.88024,0.0278 1.31235,-0.13126 0.43196,-0.15852 0.83551,-0.42313 1.22222,-0.83804 1.03868,-0.0896 1.91792,-0.71968 2.77722,-1.12444 0.42973,-0.20226 0.85433,-0.3515 1.31177,-0.35208 0.45749,-1e-5 0.93907,0.13404 1.4729,0.52261 0.56363,-0.0535 1.05887,0.0575 1.54728,0.21749 0.48843,0.15969 0.97128,0.38705 1.42885,0.6111 0.4576,0.22396 0.90014,0.43207 1.37134,0.5714 0.4712,0.13918 0.96933,0.2104 1.49845,0.11576 0.6389,0.22501 1.31325,0.58799 1.80122,1.10524 0.24399,0.25858 0.45056,0.57934 0.56774,0.90017 0.11718,0.32093 0.14649,0.64476 0.0774,1.02072 0.0207,3.09678 0.0273,6.21942 0.0477,9.31609 4.10587,0.0474 8.21583,0.075 12.32171,0.12226 0.0623,-2.27364 0.29102,-4.54229 0.63849,-6.7896 0.17073,0.54265 0.44808,0.95252 0.80715,1.21788 0.35907,0.26535 0.7949,0.3876 1.23392,0.42589 0.4392,0.0378 0.9056,-0.0235 1.31669,-0.16205 0.41108,-0.13862 0.75786,-0.34711 1.03274,-0.61222 0.59682,0.0688 0.88113,-0.11458 1.00668,-0.42664 0.12556,-0.31197 0.11995,-0.75021 0.099,-1.15365 -0.0209,-0.40344 -0.0494,-0.78926 0.10857,-0.99459 0.15753,-0.20538 0.49714,-0.21411 1.15803,0.0676 0.61302,0.004 1.41173,0.0206 2.01582,0.25144 0.30207,0.11546 0.5692,0.26187 0.71715,0.51098 0.14797,0.24923 0.18488,0.58654 0.0774,1.02072 0.74827,0.10717 1.62732,0.74027 2.43763,1.06844 0.40511,0.16408 0.79751,0.24619 1.14494,0.16096 0.34745,-0.0854 0.64078,-0.34818 0.88188,-0.88587 1.22675,-1.08291 2.60844,-2.02599 3.73158,-3.19932 0.76411,-1.15307 1.41764,-2.43186 2.25921,-3.50093 0.38624,-0.11053 0.63277,-0.36792 0.82052,-0.67358 0.18766,-0.30564 0.32357,-0.64817 0.45724,-1.00867 0.13381,-0.36048 0.2641,-0.72943 0.48833,-1.00432 0.17031,-0.20882 0.45444,-0.31125 0.75039,-0.39945 l -0.0315,-0.22537 -0.19638,-0.84797 -0.19203,-0.87909 -0.0624,-0.22973 0.0148,-0.0926 -0.0933,-0.23397 0.0255,-0.18587 -0.1789,-0.97174 -0.0928,-0.0148 -0.0926,-0.0148 -1.90023,0.0485 -0.12386,-0.0168 -0.5082,0.0233 -0.12384,-0.0168 -0.0927,-0.0148 -0.84854,-0.0248 -0.63629,0.0368 -0.3226,0.0493 -0.30944,-0.0429 -0.0927,-0.0148 -0.72484,-0.008 -0.14117,0.10639 -0.81755,-0.0203 -0.12384,-0.0168 -0.63198,0.006 -3.03169,0.0157 -0.13683,0.0755 -0.0928,-0.0148 -1.90025,0.0485 -0.61892,-0.087 -0.53908,0.0188 -1.1445,0.0601 -1.39207,0.0252 -0.18584,-0.0254 -1.26392,0.0116 -0.54342,0.0498 -0.72488,-0.007 -0.12384,-0.0168 -0.72477,-0.008 -0.23394,0.0933 -0.30963,-0.0429 -0.81752,-0.0203 -0.13683,0.0753 -0.61891,-0.087 -0.32695,0.0803 -0.41532,0.0365 -0.30952,-0.0429 -0.94143,-0.0378 -0.41963,0.0673 -0.21664,-0.0308 -0.0927,-0.0148 -0.12387,-0.0168 -0.95434,0.0551 -0.18587,-0.0254 -1.26828,0.0427 -0.75575,-0.0112 -0.0926,-0.0148 -0.41973,0.0672 -0.21654,-0.0308 -0.0927,-0.0148 -0.12387,-0.0168 -0.10595,0.0797 -0.40225,-0.0565 -0.53915,0.0188 -0.61892,-0.087 -0.23396,0.0933 -0.72487,-0.007 -0.0926,-0.0148 -0.30944,-0.0429 -0.30961,-0.0429 -0.22962,0.0624 -0.52617,-0.0737 -1.36105,0.0296 -0.0926,-0.0148 -0.63196,0.006 -0.12385,-0.0168 -0.30963,-0.043 -0.51252,0.0543 -1.15802,-0.0676 -0.0926,-0.0148 -0.0148,0.0927 -0.12385,-0.0168 -0.18565,-0.0255 -0.94588,-0.007 -0.63195,0.006 -1.15805,-0.0676 -0.32683,0.0803 -0.40235,-0.0566 -0.12385,-0.0168 -0.18566,-0.0254 -0.53919,0.019 -0.0926,-0.0148 -0.21664,-0.0308 -0.22972,0.0624 -0.0926,-0.0148 -0.40235,-0.0566 -0.7601,0.0195 -0.10585,0.0798 -0.61894,-0.0869 -0.32248,0.0492 -0.94577,-0.007 -0.0927,-0.0148 -0.53919,0.0189 -0.30952,-0.0429 -0.10596,0.0799 -0.94569,-0.007 -0.21661,-0.0308 -0.32252,0.0492 -0.21651,-0.0308 -0.0927,-0.0148 -0.21664,-0.0308 -1.14448,0.06 -0.21654,-0.0308 -0.0928,-0.0148 -1.1581,-0.0677 -0.72478,-0.007 -0.45076,0.0629 -0.0925,-0.0148 -1.17114,0.0247 -1.13147,-0.0326 -0.21651,-0.0308 -0.32253,0.0494 -4.7158,-0.12632 -0.0148,0.0927 0.0623,0.2297 -0.0148,0.0926 -0.0148,0.0927 0.24863,0.47684 0.1905,0.21601 0.0754,0.13683 0.0977,0.20318 0.14229,0.33546 0.18614,0.2471 -0.0148,0.0927 0.0623,0.22961 0.27914,0.26008 0.11073,0.11026 0.0926,0.0148 0.0798,0.10595 0.21662,0.0308 0.58846,0.30356 -0.0308,0.21654 z"
       id="AL-05"
       style="font-style:normal;font-weight:400;font-size:34.375px;font-family:'MS Shell Dlg 2';opacity:1;fill:#000000;fill-opacity:1;fill-rule:evenodd;stroke:#000000;stroke-width:0.333;stroke-linecap:square;stroke-linejoin:bevel;stroke-miterlimit:4;stroke-dasharray:none;stroke-opacity:1" />
    <path
       inkscape:connector-curvature="0"
       d="m 182.47057,391.63811 c 0.25686,-0.12548 0.45244,-0.31358 0.86124,-0.28925 0.88695,-0.1266 2.08785,-0.60524 2.99334,-1.3149 0.45268,-0.35487 0.84477,-0.77508 1.05784,-1.23984 0.21306,-0.46479 0.24344,-0.95623 0.0536,-1.50716 0.59735,-0.11672 0.79438,-0.35804 0.78075,-0.61605 -0.0134,-0.25809 -0.22935,-0.56026 -0.42166,-0.81664 -0.19228,-0.25644 -0.35876,-0.46645 -0.29742,-0.5783 0.0615,-0.11184 0.349,-0.11626 1.09622,0.0594 0.27662,-0.37243 0.12849,-0.83706 0.11682,-1.27751 -0.006,-0.22019 0.0122,-0.4123 0.14896,-0.6102 0.13677,-0.19789 0.37987,-0.40073 0.80305,-0.54988 0.25382,0.65126 0.60137,1.02152 0.97052,1.17784 0.36912,0.15628 0.765,0.0979 1.17984,-0.0867 0.82952,-0.36966 1.68518,-1.2666 2.28006,-2.0779 0.52456,0.0622 0.79642,0.21804 0.88925,0.40905 0.0928,0.19085 3.1e-4,0.44074 -0.1309,0.70736 -0.26294,0.53309 -0.76032,1.1534 -0.67688,1.67206 -1.00394,0.7534 -1.96346,1.5588 -2.75201,2.51648 -0.3942,0.47881 -0.76044,1.00254 -1.03936,1.558 -0.27902,0.55548 -0.47874,1.15957 -0.60141,1.80893 -0.74322,-0.21778 -1.12865,-0.15268 -1.33452,0.0649 -0.20584,0.21727 -0.25698,0.5919 -0.2673,1.00378 -0.0102,0.41196 0.018,0.84503 -0.13877,1.21127 -0.15671,0.36627 -0.4672,0.64708 -1.11205,0.72732 -0.59778,0.36415 -1.31281,0.41776 -2.01878,0.44214 -0.70585,0.0242 -1.42995,0.0138 -2.00117,0.31828 -0.31444,0.11769 -0.46001,0.35737 -0.55991,0.61558 -0.0999,0.2582 -0.15427,0.53394 -0.17933,0.82688 -0.0243,0.29292 -0.0234,0.58294 -0.11316,0.80448 -0.09,0.22165 -0.27017,0.38112 -0.56472,0.42555 -0.55314,-0.0331 -1.10434,0.16462 -1.52355,0.51174 -0.41918,0.34714 -0.69162,0.83992 -0.642,1.42451 0.1187,0.40205 0.12268,0.71425 0.0553,0.95447 -0.0675,0.24026 -0.21942,0.41804 -0.42309,0.54009 -0.40715,0.2442 -1.03618,0.2988 -1.68747,0.33096 -0.29474,0.0386 -0.45592,0.18082 -0.52937,0.39891 -0.0734,0.21812 -0.0604,0.50755 -0.0203,0.81764 0.0799,0.62014 0.30353,1.3308 0.18978,1.79386 0.27029,0.40496 0.93848,0.47817 1.52166,0.62405 0.29157,0.073 0.56384,0.15198 0.74326,0.32542 0.17929,0.17343 0.26054,0.43318 0.20063,0.81707 2.3059,-0.0724 4.60564,-0.15533 6.91156,-0.22772 0.12507,1.63492 0.25741,3.27853 0.3823,4.91343 0.7886,0.009 1.57162,0.0385 2.36011,0.0482 0,0 0,0 0,0 0.88439,0.0104 1.76292,0.0147 2.64729,0.0249 0.56685,-0.0144 1.28618,0.088 1.76777,-0.004 0.24075,-0.046 0.44386,-0.1417 0.52077,-0.33702 0.0768,-0.1953 0.0256,-0.47458 -0.1568,-0.90563 2.00331,-0.0697 4.02421,-0.15615 6.02761,-0.22581 0.37494,0.10556 0.63209,0.0959 0.82199,-0.0108 0.18994,-0.10702 0.29225,-0.30823 0.41864,-0.5092 0.12649,-0.20093 0.27835,-0.42146 0.46267,-0.59762 0.18443,-0.17625 0.409,-0.3005 0.77272,-0.3333 2.81132,0.10618 5.73634,-0.0713 8.60429,-0.14766 -0.14092,-3.2359 -0.29293,-6.71622 -0.43357,-9.93835 -3.7428,0.11613 -7.47726,0.23202 -11.22016,0.34814 0.12309,-0.57354 -0.1591,-1.19306 -0.25593,-1.77156 -0.0485,-0.28936 -0.0649,-0.55564 0.0506,-0.81343 0.11605,-0.25765 0.36697,-0.50454 0.79386,-0.70882 0.20637,-0.56801 0.5139,-1.03686 0.88957,-1.38971 0.37568,-0.35295 0.81777,-0.58852 1.33297,-0.72786 0.26115,-0.4463 0.3158,-0.84157 0.26687,-1.22479 -0.0489,-0.38325 -0.21085,-0.76256 -0.37817,-1.12609 -0.16744,-0.36354 -0.35036,-0.71673 -0.44451,-1.10381 -0.0941,-0.38717 -0.0898,-0.79685 0.0815,-1.25086 0.053,-0.48695 -0.0944,-0.796 -0.33365,-0.9937 -0.23922,-0.19762 -0.56049,-0.30073 -0.92449,-0.38239 -0.36407,-0.0816 -0.77474,-0.14149 -1.09664,-0.28036 -0.32203,-0.13877 -0.57363,-0.35821 -0.68672,-0.72765 -0.47869,-0.15781 -0.76069,-0.40824 -0.90763,-0.72708 -0.14696,-0.31887 -0.16846,-0.68542 -0.13069,-1.09132 0.075,-0.81183 0.37989,-1.7331 0.31274,-2.44911 0.0462,-0.64784 -0.49944,-1.48536 -0.73849,-2.15494 -0.11955,-0.33481 -0.16752,-0.61066 -0.0108,-0.822 0.15672,-0.21134 0.51846,-0.33652 1.18362,-0.33856 0.97295,-0.14572 1.82484,-0.47981 2.53889,-1.00009 0.71399,-0.52041 1.28712,-1.22438 1.69216,-2.16053 0.009,-0.1965 0.14263,-0.22584 0.18033,-0.38496 -0.27029,-0.0164 -0.68514,-0.14957 -0.89314,-0.15708 -0.0116,-0.23389 0.13041,-0.59666 0.23632,-1.00812 0.106,-0.41145 0.19323,-0.84997 0.0458,-1.22432 0.12642,-0.33084 0.11674,-0.57223 0.0384,-0.72038 -0.0785,-0.14818 -0.24228,-0.19825 -0.43815,-0.25091 -0.39177,-0.10525 -0.93641,-0.12205 -1.27363,-0.36834 0.18647,-0.54011 0.22624,-1.07125 0.0536,-1.50719 -0.17211,-0.4359 -0.54119,-0.778 -1.16871,-0.89001 -0.48153,-0.0248 -1.12186,-0.23536 -1.69336,-0.30121 -0.28567,-0.033 -0.56167,-0.0374 -0.79535,0.046 -0.23364,0.0832 -0.41502,0.23916 -0.54686,0.52267 -0.27634,0.5493 -0.89815,0.79263 -1.44269,1.05952 -0.27224,0.13353 -0.50721,0.28439 -0.69722,0.47015 -0.18998,0.18566 -0.31713,0.42338 -0.32539,0.74315 -0.10663,0.64807 -0.47669,1.24336 -0.94166,1.76109 -0.46508,0.5177 -1.04166,0.96077 -1.57473,1.32493 -0.54706,0.3013 -1.23037,0.48559 -1.8147,0.78639 -0.29209,0.15042 -0.56862,0.3224 -0.77206,0.55425 -0.20351,0.23174 -0.32858,0.52587 -0.37802,0.89349 -0.3019,0.13832 -0.47165,0.37763 -0.56428,0.64655 -0.0926,0.26893 -0.12332,0.58372 -0.15698,0.89304 -0.033,0.3095 -0.0585,0.59839 -0.18378,0.85778 -0.1253,0.25949 -0.34733,0.47459 -0.7146,0.59391 -0.43224,0.40117 -0.62976,0.94082 -0.77872,1.49992 -0.14909,0.55911 -0.25583,1.13192 -0.51342,1.63193 -0.95399,0.84497 -2.18907,1.30678 -3.22161,2.04031 -0.026,0.48784 -0.11733,0.96446 -0.34605,1.33988 -0.22904,0.37528 -0.58471,0.66054 -1.09419,0.82443 -0.18607,0.37557 -0.4301,0.56494 -0.69229,0.66008 -0.2622,0.0951 -0.53745,0.1028 -0.87029,0.13014 -0.31714,0.18517 -0.42448,0.37771 -0.39654,0.57543 0.0281,0.19772 0.17012,0.39834 0.3903,0.59136 0.44037,0.38584 1.11617,0.7242 1.40758,0.98671 0.77008,0.64161 1.29355,1.84315 1.90625,2.60313 z"
       id="AL-06"
       style="font-style:normal;font-weight:400;font-size:34.375px;font-family:'MS Shell Dlg 2';opacity:1;fill:none;fill-opacity:1;fill-rule:evenodd;stroke:#000000;stroke-width:0.333;stroke-linecap:square;stroke-linejoin:bevel;stroke-miterlimit:4;stroke-dasharray:none;stroke-opacity:1" />
    <path
       inkscape:connector-curvature="0"
       d="m 151.72328,437.74512 c 2.93131,-0.0358 5.85429,-0.0548 8.78561,-0.0907 0.15793,0.0992 0.3329,0.42286 0.5053,0.67055 0.1725,0.24782 0.32834,0.41656 0.45118,0.15813 0.1194,-0.41513 0.25086,-0.57639 0.39211,-0.54454 0.14122,0.032 0.29595,0.26327 0.45217,0.6001 0.37287,0.57609 0.74033,1.15818 1.11318,1.73429 0.98134,-0.51522 1.97602,-1.04263 3.07751,-1.23996 -0.0922,-0.26784 -0.11829,-0.57093 -0.19635,-0.84819 -0.0781,-0.27715 -0.19775,-0.52008 -0.50975,-0.63956 -0.20313,-0.16709 -0.45474,-0.30545 -0.65953,-0.47137 -0.20479,-0.16601 -0.3818,-0.3737 -0.37714,-0.68415 0.19454,-0.34308 0.98554,-0.33814 1.40399,-0.56005 0.53112,-0.024 0.99273,-0.64351 1.38628,-0.65727 0.1689,0.14743 0.32237,0.44521 0.47004,0.69721 0.14767,0.25201 0.30367,0.44096 0.51354,0.38775 0.33491,-0.30799 0.51155,-0.34689 0.56961,-0.23552 0.0581,0.11135 -0.006,0.37044 -0.10004,0.71179 -0.0473,0.27167 -0.0595,0.59968 -0.14843,0.83114 -0.0893,0.23144 -0.23765,0.36952 -0.61356,0.32406 -0.29832,0.041 -0.18674,0.23935 0.032,0.44621 0.21863,0.20692 0.51502,0.42884 0.58023,0.58645 0.17494,0.20233 0.50168,0.34843 0.74805,0.51543 0.24635,0.16702 0.42941,0.36482 0.37714,0.68413 0.039,0.37822 -0.0409,0.64591 -0.18357,0.8578 -0.14266,0.21193 -0.35316,0.36381 -0.59572,0.42121 -0.48509,0.1148 -1.08226,-0.0587 -1.47725,-0.49168 -0.41312,-0.10043 -0.64727,0.0559 -0.77259,0.33332 -0.12537,0.27724 -0.14624,0.64684 -0.17018,0.98591 -0.0237,0.33899 -0.0574,0.64913 -0.16623,0.73401 -0.10906,0.0847 -0.30134,-0.0524 -0.68181,-0.53772 -0.14458,0.60284 -0.64423,1.24282 -0.99014,1.8805 -0.17297,0.31891 -0.29546,0.63718 -0.32487,0.96417 -0.0288,0.32712 0.0283,0.65005 0.27187,0.98501 -0.34907,0.21905 -0.40586,0.3278 -0.33942,0.39401 0.0665,0.0664 0.26331,0.0936 0.4864,0.13165 0.22318,0.0373 0.44524,0.10339 0.56619,0.2373 0.12106,0.13386 0.14428,0.32646 -0.0957,0.6808 -0.10778,0.55339 -0.60477,0.83063 -1.04044,1.11607 -0.21779,0.14268 -0.40571,0.29209 -0.54243,0.49179 -0.13673,0.19973 -0.22358,0.42542 -0.17059,0.76491 -0.24276,0.16027 -0.28741,0.3084 -0.21992,0.44251 0.0674,0.13407 0.26414,0.27039 0.44729,0.41003 0.18305,0.13953 0.36519,0.29935 0.46948,0.47616 0.1043,0.17684 0.11298,0.3774 -0.0565,0.62323 0.27097,0.35547 0.58724,0.47132 0.88501,0.43995 0.29764,-0.0314 0.59092,-0.21537 0.8562,-0.47921 0.53064,-0.52786 0.94862,-1.37941 0.99452,-1.91149 0.2363,0.0424 0.36681,-0.0233 0.46356,-0.15569 0.0969,-0.13251 0.15593,-0.31396 0.1934,-0.47774 0.0376,-0.16387 0.0557,-0.31078 0.11414,-0.36264 0.0583,-0.052 0.13242,-0.0361 0.29195,0.16727 0.23107,-0.33208 0.2316,-0.79228 0.31569,-1.1233 0.042,-0.16557 0.10807,-0.28373 0.2379,-0.34527 0.12982,-0.0616 0.32273,-0.0555 0.62321,0.0565 0.34026,-0.6032 0.76689,-1.27709 1.31312,-1.70886 0.27309,-0.2158 0.58017,-0.37826 0.91375,-0.43952 0.33368,-0.0614 0.71389,-0.0111 1.11404,0.15652 0.37315,-0.17536 0.56773,-0.4031 0.65716,-0.63348 0.0894,-0.23041 0.0588,-0.47321 -0.0237,-0.72921 -0.16636,-0.51203 -0.54814,-1.05334 -0.73712,-1.49209 0.5968,-0.64594 0.80479,-1.44113 0.88765,-2.27359 0.0829,-0.8324 0.0147,-1.70799 0.10033,-2.51049 -0.0607,-0.23572 0.005,-0.32154 0.11393,-0.36266 0.10936,-0.0409 0.27632,-0.0103 0.44204,-10e-4 0.16558,0.01 0.31557,-0.0137 0.42399,-0.0983 0.10844,-0.0846 0.17156,-0.22977 0.10927,-0.55269 0.19712,-0.42904 0.0854,-1.20766 0.10186,-1.8476 0.01,-0.3198 0.0425,-0.5999 0.17493,-0.79579 0.13218,-0.19602 0.3641,-0.32146 0.73301,-0.27567 4.48214,-0.0907 9.21352,-0.22097 13.70831,-0.31403 -0.008,-1.27001 0.008,-2.54831 2.4e-4,-3.81834 4.09901,-0.0605 8.16908,-0.10892 12.26795,-0.16925 -0.0857,-2.36001 -0.14704,-4.74163 -0.23272,-7.10151 0.85458,-0.14074 1.69456,-0.25848 2.54915,-0.39913 -0.0471,-0.77882 -0.0953,-1.57649 -0.14238,-2.35533 0.0885,0.28602 0.28276,0.45751 0.49187,0.54252 0.20901,0.0851 0.45149,0.0985 0.6585,0.03 0.20704,-0.0691 0.38046,-0.20029 0.46313,-0.37671 0.0827,-0.17639 0.0654,-0.40806 -0.0986,-0.64499 -0.44993,0.0888 -0.85677,-0.13123 -1.11025,-0.40849 -0.25349,-0.27729 -0.34993,-0.61418 -0.1432,-0.7775 -0.47419,-0.12949 -0.92901,-0.074 -1.33451,0.0649 -0.40557,0.13952 -0.76898,0.35343 -1.1299,0.6301 -0.72205,0.55339 -1.36325,1.26306 -2.05157,1.57358 -0.0243,-0.4645 -0.0819,-0.87258 -0.24567,-1.17057 -0.16382,-0.298 -0.43641,-0.48164 -0.94243,-0.47964 -0.33859,-0.39952 -0.88588,-0.45431 -1.4023,-0.57578 -0.25818,-0.0606 -0.49696,-0.14501 -0.71663,-0.28993 -0.21957,-0.14497 -0.41061,-0.34331 -0.53629,-0.67503 -0.17703,0.45067 -0.53228,0.99663 -0.8987,1.2307 -0.18317,0.11694 -0.36954,0.14832 -0.54353,0.0498 -0.1739,-0.0985 -0.33449,-0.33742 -0.46124,-0.75917 -0.39218,-0.3113 -0.68465,-0.3916 -0.90238,-0.31607 -0.21763,0.0754 -0.35981,0.30318 -0.46269,0.59762 -0.20556,0.58892 -0.25771,1.44834 -0.36244,1.90561 -0.32312,-0.19486 -0.51147,-0.48126 -0.64269,-0.81609 -0.13115,-0.33491 -0.1996,-0.692 -0.2588,-1.0778 -0.0591,-0.38578 -0.11228,-0.7876 -0.21911,-1.13524 -0.10676,-0.34774 -0.26681,-0.64461 -0.5411,-0.86503 -0.24565,-0.67859 -0.53621,-1.35815 -0.78686,-2.03563 -0.25067,-0.67737 -0.46567,-1.37497 -0.46,-2.1158 -0.0583,-0.53895 -0.1081,-1.2809 -0.17229,-1.91764 -0.78851,-0.009 -1.57153,-0.0385 -2.36013,-0.0472 -0.1249,-1.63489 -0.25723,-3.27851 -0.38231,-4.91343 -2.30592,0.0724 -4.60565,0.15533 -6.91155,0.2277 0.0601,-0.38386 -0.0213,-0.64363 -0.20064,-0.81707 -0.17942,-0.17345 -0.45168,-0.25241 -0.74326,-0.3254 -0.58317,-0.14589 -1.25137,-0.2191 -1.52166,-0.62405 0.11373,-0.46307 -0.10992,-1.17371 -0.18979,-1.79388 -0.0398,-0.31005 -0.0532,-0.59953 0.0203,-0.81762 0.0734,-0.2181 0.23463,-0.36035 0.52938,-0.39892 0.6513,-0.0321 1.28032,-0.0868 1.68746,-0.33097 0.20367,-0.12203 0.35561,-0.29983 0.4231,-0.54006 0.0675,-0.24023 0.0642,-0.55238 -0.0552,-0.95446 -0.0496,-0.58461 0.22276,-1.0774 0.64199,-1.42453 0.41921,-0.34714 0.97037,-0.54414 1.52355,-0.51175 0.29456,-0.0445 0.47471,-0.20391 0.56472,-0.42554 0.09,-0.22153 0.0879,-0.51166 0.11306,-0.80448 0.0243,-0.29304 0.0798,-0.56863 0.17934,-0.82691 0.0998,-0.25818 0.24545,-0.49787 0.5599,-0.61555 0.57121,-0.30447 1.29531,-0.29399 2.00116,-0.31829 0.70597,-0.0244 1.42099,-0.078 2.01879,-0.44216 0.64485,-0.0803 0.95533,-0.36103 1.11204,-0.72728 0.15659,-0.3663 0.12831,-0.79933 0.13877,-1.2113 0.0102,-0.41187 0.062,-0.78646 0.26731,-1.00378 0.20583,-0.21726 0.5913,-0.28265 1.33452,-0.0649 0.12263,-0.64936 0.32238,-1.25344 0.60141,-1.80891 0.27891,-0.55549 0.64517,-1.07921 1.03934,-1.55801 0.78856,-0.95768 1.74808,-1.76307 2.75202,-2.51648 -0.0835,-0.51866 0.41393,-1.13896 0.67687,-1.67208 0.13139,-0.2666 0.22377,-0.51647 0.13091,-0.70736 -0.0928,-0.19098 -0.36471,-0.34664 -0.88923,-0.40903 -0.5949,0.81128 -1.45057,1.70823 -2.28009,2.07789 -0.41485,0.18487 -0.81071,0.24293 -1.17984,0.0866 -0.36914,-0.15631 -0.7167,-0.52656 -0.97051,-1.17784 -0.42319,0.14916 -0.6663,0.352 -0.80305,0.54989 -0.13689,0.1979 -0.15499,0.39003 -0.14896,0.61022 0.0122,0.44048 0.16029,0.9051 -0.11682,1.27749 -0.74723,-0.17566 -1.03483,-0.1713 -1.09621,-0.0594 -0.0614,0.11184 0.10513,0.32186 0.29741,0.57831 0.19231,0.25635 0.40815,0.55853 0.42167,0.81663 0.0135,0.258 -0.1834,0.49933 -0.78075,0.61604 0.18938,0.55091 0.15898,1.04237 -0.0536,1.50715 -0.21307,0.46478 -0.60516,0.88501 -1.05785,1.23985 -0.90548,0.70968 -2.10637,1.1883 -2.99333,1.3149 -0.40878,-0.0243 -0.60438,0.16378 -0.86123,0.28926 0,0 0,0 0,0 -0.17773,0.0869 -0.46906,0.0625 -0.59608,0.2003 -0.31051,0.33687 -0.48876,0.79541 -0.68215,1.26103 -0.19349,0.46559 -0.4078,0.93866 -0.74849,1.28333 -0.34057,0.34465 -0.80676,0.5641 -1.5588,0.53829 -0.40939,-0.007 -0.6998,-0.16667 -0.95545,-0.38675 -0.25565,-0.22012 -0.47559,-0.50328 -0.68672,-0.72765 -0.21103,-0.22436 -0.42353,-0.39297 -0.69921,-0.41383 -0.27554,-0.0214 -0.63219,0.12017 -1.08159,0.51063 -0.29901,0.51732 -0.70977,0.63278 -1.1521,0.56396 -0.44237,-0.0693 -0.8872,-0.32444 -1.30943,-0.56271 -0.42234,-0.23832 -0.80081,-0.47054 -1.03967,-0.46168 -0.23885,0.009 -0.36664,0.26929 -0.2586,0.94187 0.0753,0.26858 0.0154,0.48607 -0.15758,0.67219 -0.17309,0.18602 -0.4296,0.32134 -0.72818,0.46559 -0.59699,0.28864 -1.3431,0.53115 -1.70375,0.8966 -0.41637,0.39946 -1.07363,0.71607 -1.58067,0.69306 -0.2536,-0.0104 -0.46936,-0.11065 -0.58847,-0.30354 -0.11909,-0.19305 -0.14866,-0.49431 -0.0286,-0.91922 -0.0497,-3.31407 -0.1012,-6.61609 -0.15076,-9.93012 -3.41059,-0.059 -6.8165,-0.14758 -10.22709,-0.20652 l -0.0525,0.37131 -0.0168,0.12385 -0.0253,0.18565 -0.0308,0.21664 -0.0308,0.21663 -0.10739,1.43644 -0.11743,0.83561 -0.043,0.3095 -0.0737,0.52616 0.006,0.63198 -0.0254,0.18565 -0.0168,0.12385 -0.087,0.61892 -0.0255,0.18585 -0.0738,0.52606 -0.0566,0.40224 0.006,0.85299 -0.11743,0.83559 -0.0253,0.18565 -0.0308,0.21664 -0.0429,0.30951 -0.0565,0.40235 -0.0168,0.12386 -0.0815,1.25086 -0.26091,1.85674 -0.0148,0.0927 -0.0999,0.71172 -0.12466,1.56043 -0.14776,1.05208 0.0237,0.72921 -0.0308,0.21661 -0.18697,1.33065 -0.15501,1.777 -0.18699,1.33063 -0.0565,0.40236 0.0756,0.13683 -0.0148,0.0926 -0.0148,0.0927 -0.10438,0.74269 -0.0565,0.40234 -0.16768,2.09073 -0.0699,0.4951 -0.0308,0.21664 -0.087,0.61891 -0.26833,2.58158 -0.0168,0.12386 -0.0699,0.4951 -0.043,0.30942 -0.0168,0.12384 -0.10739,1.43663 -0.0308,0.21655 -0.0429,0.30952 -0.0148,0.0926 -0.0168,0.12386 -0.0255,0.18565 -0.11744,0.83558 -0.11743,0.8356 0.0368,0.63633 -0.13058,0.92826 -0.0148,0.0928 -0.087,0.61891 -0.043,0.30952 -0.0308,0.21651 -0.0566,0.40236 -0.0431,0.3095 -0.0429,0.30953 -0.007,0.72478 -0.0429,0.3096 -0.27835,1.98054 -0.0565,0.40224 -0.0148,0.0929 -0.0308,0.2165 -0.0148,0.0927 -0.32891,3.01488 -0.0148,0.0926 -0.0308,0.21661 0.006,0.85299 -0.0699,0.4951 0.0986,0.645 -0.006,0.94568 0.0189,0.53919 -0.0308,0.21652 0.0668,0.19882 -0.0168,0.12388 0.0789,1.68354 -0.0308,0.21664 0.0365,0.4153 z"
       id="AL-07"
       style="font-style:normal;font-weight:400;font-size:34.375px;font-family:'MS Shell Dlg 2';opacity:1;fill:none;fill-opacity:1;fill-rule:evenodd;stroke:#000000;stroke-width:0.333;stroke-linecap:square;stroke-linejoin:bevel;stroke-miterlimit:4;stroke-dasharray:none;stroke-opacity:1" />
  </g>
</svg>
