<?xml version="1.0" encoding="UTF-8" standalone="no"?>
<!-- Created with Inkscape (http://www.inkscape.org/) -->

<svg
   xmlns:dc="http://purl.org/dc/elements/1.1/"
   xmlns:cc="http://creativecommons.org/ns#"
   xmlns:rdf="http://www.w3.org/1999/02/22-rdf-syntax-ns#"
   xmlns:svg="http://www.w3.org/2000/svg"
   xmlns="http://www.w3.org/2000/svg"
   xmlns:sodipodi="http://sodipodi.sourceforge.net/DTD/sodipodi-0.dtd"
   xmlns:inkscape="http://www.inkscape.org/namespaces/inkscape"
   width="62mm"
   height="62mm"
   viewBox="0 0 219.68504 219.68507"
   id="svg3885"
   version="1.1"
   inkscape:version="0.91 r"
   sodipodi:docname="2.svg">
  <defs
     id="defs3887" />
  <sodipodi:namedview
     id="base"
     pagecolor="#ffffff"
     bordercolor="#666666"
     borderopacity="1.0"
     inkscape:pageopacity="0.0"
     inkscape:pageshadow="2"
     inkscape:zoom="2.2118777"
     inkscape:cx="40.107262"
     inkscape:cy="107.87523"
     inkscape:document-units="px"
     inkscape:current-layer="layer1"
     showgrid="false"
     inkscape:window-width="2560"
     inkscape:window-height="1388"
     inkscape:window-x="0"
     inkscape:window-y="0"
     inkscape:window-maximized="1"
     fit-margin-top="1"
     fit-margin-left="1"
     fit-margin-right="1"
     fit-margin-bottom="1" />
  <metadata
     id="metadata3890">
    <rdf:RDF>
      <cc:Work
         rdf:about="">
        <dc:format>image/svg+xml</dc:format>
        <dc:type
           rdf:resource="http://purl.org/dc/dcmitype/StillImage" />
        <dc:title></dc:title>
      </cc:Work>
    </rdf:RDF>
  </metadata>
  <g
     inkscape:label="Layer 1"
     inkscape:groupmode="layer"
     id="layer1"
     transform="translate(-20.092166,-316.45999)">
    <g
       id="g4135"
       transform="translate(-0.07527922,-45.173072)">
      <path
         style="font-style:normal;font-weight:400;font-size:34.375px;font-family:'MS Shell Dlg 2';fill:none;fill-opacity:1;fill-rule:evenodd;stroke:#000000;stroke-width:0.333;stroke-linecap:square;stroke-linejoin:bevel;stroke-miterlimit:4;stroke-dasharray:none;stroke-opacity:1"
         id="HI-01"
         d="m 127.79101,443.54423 -0.31182,-0.0522 -1.16369,0.19906 -2.50427,-0.67757 -2.33155,-2.96176 -1.75472,-1.85558 -0.30471,-1.28654 -4.61522,0.65583 0.40873,3.70637 -1.35608,0.84498 -1.06104,1.49897 -1.45001,-0.56904 -0.0879,0.022 0.24226,0.59257 0.18427,-0.15835 0.10556,0.12285 0.0792,0.0922 0.0792,0.0922 -0.30711,0.26391 0.0134,0.20202 0.33012,0.57055 0.36896,0.0566 0.49181,-0.049 1.572,-0.28307 0.55767,-0.15872 0.1977,0.0437 1.09303,-0.40554 0.17134,0.013 0.12285,-0.10557 0.39924,-0.34308 0.17135,0.013 0.66358,0.33731 -0.0129,0.17135 -0.0173,0.22841 1.43615,-0.006 0.013,-0.17125 -0.27692,-0.13586 0.0129,-0.17135 0.21498,-0.18474 0.21498,-0.18474 0.0921,-0.0792 0.17135,0.013 0.0926,0.2942 0.0791,0.0921 0.0791,0.0921 0.17186,0.38638 0.55365,0.27152 0.20206,-0.0134 0.27691,0.13585 0.0791,0.0921 0.47889,0.12238 0.35604,0.22794 0.0791,0.0921 0.18478,0.21503 0.0792,0.0922 0.0926,0.29411 0.0791,0.0921 0.27691,0.13585 0.17135,0.013 0.32054,-0.0619 0.17126,0.0129 0.12285,-0.10557 0.18427,-0.15834 0.21497,-0.18474 0.0921,-0.0792 0.21498,-0.18474 0.2941,-0.0927 0.0921,-0.0792 0.1977,0.0437 0.58838,-0.18511 0.0921,-0.0792 0.58393,-0.12815 0.30754,0.10936 0.0792,0.0922 -0.0302,0.39976 -0.013,0.17126 -0.12285,0.10556 0.30754,0.10937 0.26348,-0.0662 0.21498,-0.18473 -0.0926,-0.2942 0.21498,-0.18474 0.81192,-0.48415 0.52209,-0.44864 0.0303,-0.39967 -0.0528,-0.0614 -0.0571,-0.004 -0.0921,0.0792 -0.19769,-0.0437 -0.0792,-0.0922 -0.0921,0.0792 -0.27691,-0.13585 z"
         inkscape:connector-curvature="0" />
      <path
         style="font-style:normal;font-weight:400;font-size:34.375px;font-family:'MS Shell Dlg 2';fill:#000000;fill-opacity:1;fill-rule:evenodd;stroke:#000000;stroke-width:0.333;stroke-linecap:square;stroke-linejoin:bevel;stroke-miterlimit:4;stroke-dasharray:none;stroke-opacity:1"
         id="HI-02"
         d="m 23.800064,432.74747 0.11514,0.75529 0.10556,0.12285 0.2942,-0.0926 -0.0359,-0.6631 -0.30763,-0.10947 -0.17134,-0.013 z m 15.685712,-12.62489 -0.16597,0.67669 -0.0921,0.0792 -0.0303,0.39967 -0.18427,0.15834 -0.0437,0.19765 -0.30712,0.26391 -1.079591,0.60755 -0.79901,0.3128 -0.0921,0.0792 -0.0921,0.0792 -0.30711,0.26391 -0.0436,0.19775 -0.39925,0.34308 -0.52209,0.44864 -0.0787,0.28119 -0.14885,0.44808 -0.16597,0.67668 -0.0921,0.0792 -0.073,1.34406 0.0791,0.0921 0.32585,0.6277 0.38667,0.20145 0.0792,0.0922 0.18478,0.21503 0.17126,0.0129 0.27683,0.13576 0.20155,-0.38675 -0.17127,-0.0129 0.47265,-1.31386 0.56538,-1.01957 0.53501,-0.62 0.39924,-0.34308 0.957271,-0.12862 0.70687,-0.23362 0.0921,-0.0792 0.69344,-0.43564 0.0431,-0.57112 -0.20728,-0.67611 0.16562,-1.04986 0.52158,-0.82202 0.1977,0.0437 0.12284,-0.10556 0.0921,-0.0792 -0.0134,-0.20202 -0.14098,-0.41258 -0.55811,-0.21455 -0.0791,-0.0921 -0.49189,0.0489 -0.29419,0.0926 -0.0921,0.0792 -0.1977,-0.0437 -0.30711,0.2639 z m 13.800671,-6.30675 -0.35074,0.46166 -0.10505,0.25052 -0.0173,0.22841 -0.14885,0.44808 -0.21447,0.55811 -1.14923,1.14782 -0.20155,0.38675 -0.0433,0.57092 -0.0431,0.57112 0.12807,0.58393 0.18477,0.21503 0.33012,0.57055 0.26383,0.30702 0.26399,0.30721 0.84785,0.17896 0.47889,0.12237 0.27683,0.13576 0.38683,0.20164 0.34253,0.0258 0.39976,0.0303 0.356041,0.22794 0.0791,0.0921 0.83544,0.72369 0.14107,0.41268 0.18469,0.21492 0.28127,0.0788 0.1847,0.21493 0.0791,0.0921 0.1977,0.0437 0.15842,0.18437 0.10557,0.12284 0.0921,-0.0792 0.37324,-5.7e-4 0.0921,-0.0792 0.10557,0.12284 0.20206,-0.0134 0.0921,-0.0792 0.17135,0.013 0.10556,0.12285 0.72937,0.22747 0.4918,-0.049 0.86522,-0.0494 0.39967,0.0302 0.57102,0.0432 0.0792,0.0922 0.36896,0.0566 0.30754,0.10936 0.83493,0.35032 0.184261,-0.15835 0.38633,-0.17172 0.12284,-0.10557 0.0921,-0.0792 0.21498,-0.18474 0.39924,-0.34308 0.32003,-0.43526 0.61423,-0.52782 0.90841,-0.62037 0.12234,-0.47894 0.30711,-0.2639 0.0921,-0.0792 0.12285,-0.10556 0.0921,-0.0792 0.0567,-0.36891 -0.10557,-0.12284 0.0129,-0.17136 -0.12806,-0.58393 -0.0134,-0.20202 -0.20779,-1.04949 0.16605,-0.67658 0.0921,-0.0792 0.013,-0.17126 0.38624,-0.17182 0.0437,-0.19765 0.12234,-0.47894 0.0129,-0.17135 0.33739,-0.66358 0.10514,-0.25043 0.20155,-0.38675 0.12284,-0.10556 -0.0663,-0.26354 0.10941,-0.30758 -0.0791,-0.0921 0.013,-0.17126 -0.0134,-0.20201 -0.0792,-0.0922 -0.0792,-0.0922 -0.10556,-0.12284 -0.15826,-0.18417 -0.10556,-0.12285 -0.0792,-0.0922 0.12285,-0.10556 -0.0792,-0.0922 -0.10556,-0.12284 0.013,-0.17126 0.013,-0.17125 -0.0619,-0.32059 -0.38675,-0.20155 -0.26391,-0.30712 -0.18478,-0.21502 -0.0791,-0.0921 -0.52739,-0.24095 -0.12285,0.10557 -0.36896,-0.0566 -0.20197,0.0135 -0.44826,-0.14886 -0.10557,-0.12285 -0.63723,-0.30664 -0.50481,0.22024 -0.12284,0.10556 -0.2634,0.0663 -0.386751,-0.20155 -0.44818,-0.14876 -0.38624,0.17182 -0.58454,-0.24532 -0.17126,-0.0129 -0.42996,0.36947 -0.10513,0.25043 0.0619,0.32059 -0.18427,0.15835 -0.20206,0.0134 -0.10556,-0.12284 -0.0791,-0.0921 -0.0791,-0.0921 -0.18478,-0.21503 -0.36905,-0.0567 -0.21497,0.18473 -0.0791,-0.0921 -0.0791,-0.0921 -0.18478,-0.21502 -0.17135,-0.013 -0.22841,-0.0173 -0.17126,-0.0129 -0.29411,0.0927 -0.36905,-0.0567 -0.22789,0.35609 -0.60131,0.35647 -1.30766,0.96345 -0.0921,0.0792 -0.842631,0.51054 -0.7552,0.11524 -0.29419,0.0926 -0.78558,0.51481 z m 52.423143,20.62078 0.0791,0.0921 0.89678,0.67081 0.52782,0.61422 0.15843,0.18437 0.0796,0.46536 -0.10368,1.37045 0.0792,0.0922 0.18478,0.21503 0.34304,0.39919 0.38675,0.20155 0.0791,0.0921 0.10557,0.12284 0.43525,0.32012 -0.013,0.17126 0.18478,0.21503 0.0792,0.0922 0.10557,0.12285 -0.0437,0.19764 0.0926,0.29411 -0.0565,0.3691 0.10556,0.12284 0.0791,0.0921 0.66368,0.3374 0.15826,0.18417 0.18477,0.21503 0.26391,0.30711 0.0791,0.0921 0.10557,0.12285 0.17186,0.38638 0.0354,0.28973 0.10129,0.18 0.0879,-0.022 1.45001,0.56904 1.06104,-1.49897 1.35608,-0.84498 -0.40873,-3.70637 4.61522,-0.65583 0.30471,1.28654 1.75472,1.85558 2.33155,2.96176 2.50427,0.67757 1.16369,-0.19906 0.31182,0.0522 -0.10985,-0.0657 -0.18469,-0.21493 -0.0792,-0.0922 -0.0921,0.0792 -0.0792,-0.0922 -0.1847,-0.21493 -0.17126,-0.0129 -0.17186,-0.38638 -0.1847,-0.21493 -0.0791,-0.0921 -0.0134,-0.20201 -0.14114,-0.41278 0.14885,-0.44807 -0.10557,-0.12285 -0.15843,-0.18436 -0.18469,-0.21493 0.013,-0.17126 -0.10556,-0.12285 -0.0792,-0.0922 -0.0921,0.0792 -0.12284,0.10557 -0.27692,-0.13586 -0.0791,-0.0921 0.013,-0.17126 -0.10557,-0.12284 0.0566,-0.3691 -0.0134,-0.20202 0.12285,-0.10557 0.013,-0.17125 0.13585,-0.27682 -0.0134,-0.20202 -0.0663,-0.26354 -0.10556,-0.12284 -0.17127,-0.0129 -0.17126,-0.0129 -0.30762,-0.10946 -0.0921,0.0792 -0.29419,0.0926 -0.28983,0.0355 -0.0173,0.2284 0.0797,0.46556 0.0354,0.28973 -0.0921,0.0792 0.10556,0.12285 -0.13576,0.27692 -0.18427,0.15834 -0.20206,0.0134 -0.27683,-0.13575 -0.0791,-0.0921 -0.18478,-0.21502 -0.17134,-0.013 -0.36939,-0.42986 0.0258,-0.34271 -0.35596,-0.22784 -0.57111,-0.0433 -0.10556,-0.12285 -0.15826,-0.18417 -0.0927,-0.2942 0.0436,-0.19774 -0.0134,-0.20202 -0.12806,-0.58393 0.0129,-0.17136 -0.0134,-0.20202 0.41268,-0.14106 0.0433,-0.57092 -0.14115,-0.41278 -0.26382,-0.30701 -0.17186,-0.38638 -0.18469,-0.21493 -0.39968,-0.0302 -0.18426,0.15835 -0.20206,0.0134 0.0432,-0.57102 -0.34312,-0.39929 -0.44861,-0.52205 -0.18477,-0.21502 -0.35596,-0.22784 -0.15843,-0.18437 -0.0134,-0.20202 -0.15826,-0.18417 -0.10557,-0.12284 0.0436,-0.19775 -0.0792,-0.0922 -4.3e-4,-0.37327 -0.0791,-0.0921 -0.18478,-0.21503 -0.0792,-0.0922 -0.14098,-0.41257 -0.18478,-0.21503 -0.15877,-0.55754 -0.35613,-0.22804 -0.52782,-0.61422 -0.66307,0.0361 -0.21497,0.18474 -0.79901,0.31279 -0.30711,0.26391 -0.39924,0.34308 -0.84212,0.88391 -0.12285,0.10556 -0.0787,0.28119 0.0354,0.28973 -0.0921,0.0792 -0.41653,0.57149 -0.79849,0.68616 -0.21497,0.18474 0.0792,0.0922 0.0792,0.0922 0.0134,0.20202 -0.62765,0.3258 -0.0921,0.0792 -0.46554,0.0795 -1.10647,0.20352 -0.74237,-0.0562 -2.19152,0.12128 -0.87805,0.22081 z m 36.95241,12.18537 0.0791,0.0921 0.30762,0.10946 0.18478,0.21503 0.0359,0.66311 -0.12233,0.47893 -0.21498,0.18474 -0.44296,0.54073 -0.17127,-0.0129 -0.21497,0.18473 -0.32012,0.43517 -0.12242,0.47884 -0.0921,0.0792 -0.39395,1.03267 0.57154,0.41658 1.48457,0.11223 4.08406,-0.46625 0.67607,-0.20732 0.58839,-0.18511 0.19769,0.0437 0.29411,-0.0927 0.49181,-0.049 1.5903,0.23527 0.26382,0.30701 0.0792,0.0922 0.47889,0.12237 0.0921,-0.0792 0.20197,-0.0135 0.10557,0.12285 0.17135,0.013 0.47888,0.12237 0.27683,0.13576 0.92706,0.27114 1.99426,0.20831 0.10556,0.12285 0.0792,0.0922 0.57102,0.0432 0.39925,-0.34308 1.04948,-0.20769 1.5057,-0.54661 0.10942,-0.30758 0.59694,-0.29941 0.92134,-0.79173 0.73664,-1.00665 0.42953,-0.74275 -0.0356,-0.28993 -0.30754,-0.10936 -0.58394,0.12815 -0.049,-0.49195 -0.0791,-0.0921 -0.57102,-0.0432 -0.57102,-0.0432 -1.74326,0.27016 -0.79901,0.31279 -0.87813,0.2207 -1.04991,-0.16557 -0.013,0.17125 -0.17126,-0.0129 -0.57102,-0.0432 -0.95778,-0.24475 -0.26391,-0.30712 -0.0619,-0.32049 -0.43568,-0.69339 -0.15843,-0.18437 -0.27683,-0.13576 -0.30711,0.26391 -0.0437,0.19765 0.10556,0.12285 -0.13525,0.65029 -0.0921,0.0792 -0.41267,0.14106 -0.20206,0.0134 -0.27691,-0.13585 -0.94435,-0.0427 -0.19769,-0.0437 -0.29411,0.0927 -0.36896,-0.0566 -0.37341,3.7e-4 -0.84785,-0.17896 -0.57102,-0.0432 -0.20198,0.0135 -0.27691,-0.13586 -0.66315,0.036 -0.12285,0.10557 -0.36896,-0.0566 -0.94434,-0.0427 -0.27691,-0.13585 -0.34304,-0.3992 -0.39976,-0.0303 -0.49189,0.0489 -0.57094,-0.0431 -0.5581,-0.21455 -0.0921,0.0792 -0.21498,0.18473 z m 8.03856,11.40479 -0.12233,0.47894 0.0489,0.49184 0.18469,0.21493 0.0663,0.26354 1.77542,0.82348 0.0791,0.0921 0.62038,0.90834 0.049,0.49194 -0.0864,1.14204 0.37896,1.0623 0.7126,0.82926 0.70687,-0.23362 1.32631,-0.0719 0.68035,-0.26448 0.71979,-0.40497 0.68052,-0.26428 0.19769,0.0437 0.30711,-0.26391 0.65735,-1.09893 0.21455,-0.55801 0.0432,-0.57102 -0.0792,-0.0922 -0.58967,-0.93472 -0.44869,-0.52214 -2.35645,-1.8724 -0.75571,-0.25813 -0.57111,-0.0433 -1.3263,0.0719 -0.63724,-0.30664 -0.70678,0.23371 -0.57102,-0.0432 -0.38633,0.17172 -0.81192,0.48415 z m 14.85631,-5.07831 -0.0129,0.17136 0.0792,0.0922 -0.21498,0.18474 -0.21498,0.18473 -0.38632,0.17173 -0.2279,0.35609 -0.30669,0.63718 -0.39394,1.03268 -0.0921,0.0792 -0.073,1.34406 0.0791,0.0921 0.0791,0.0921 0.1977,0.0437 0.0663,0.26354 0.0618,0.32049 -0.013,0.17126 0.0134,0.20202 0.15843,0.18436 0.0618,0.32049 0.0791,0.0921 0.44869,0.52214 1.36317,1.33782 3.23415,1.27842 0.27692,0.13585 0.49189,-0.0489 0.0921,-0.0792 0.0173,-0.22841 0.0921,-0.0792 0.0129,-0.17136 0.38633,-0.17173 0.21498,-0.18473 0.39967,0.0302 0.0791,0.0921 0.55383,0.27171 0.34303,0.39919 0.0792,0.0922 0.0134,0.20202 0.0359,0.66311 -0.0129,0.17135 0.18469,0.21493 0.0619,0.32049 0.15843,0.18437 0.0926,0.2941 0.0926,0.2941 0.049,0.49195 0.2077,1.04939 0.036,0.6632 0.10556,0.12285 -0.13584,0.27682 -0.13585,0.27682 0.32627,1.00097 -0.10505,0.25053 0.35604,0.22794 0.18469,0.21493 0.0921,-0.0792 0.21497,-0.18474 0.15843,0.18437 0.10557,0.12284 -0.013,0.17126 0.0791,0.0921 1.0192,0.19197 0.39976,0.0303 0.17135,0.013 0.41267,-0.14106 0.30712,-0.26391 1.03648,-0.0364 0.22841,0.0173 0.0921,-0.0792 0.0791,0.0921 0.29411,-0.0927 0.10557,0.12285 0.18426,-0.15835 0.2942,-0.0925 0.13576,-0.27692 0.64981,-0.23789 0.21498,-0.18473 0.41267,-0.14107 0.21498,-0.18473 0.17126,0.0129 0.39925,-0.34308 0.12284,-0.10557 0.38625,-0.17182 0.58402,-0.12806 0.39976,0.0303 0.35595,0.22784 0.21498,-0.18474 0.38633,-0.17173 0.36904,0.0567 0.0661,0.26334 0.0921,-0.0792 0.41267,-0.14106 0.30711,-0.26391 0.38633,-0.17172 0.12284,-0.10557 0.69344,-0.43563 0.18427,-0.15835 0.79934,0.0604 0.26349,-0.0662 0.35074,-0.46166 0.0787,-0.28119 0.35083,-0.46156 0.38624,-0.17182 0.1977,0.0437 0.41652,-0.57149 0.33312,-0.60642 0.10942,-0.30758 -0.023,-0.83446 0.0431,-0.57112 0.0303,-0.39967 -0.26391,-0.30711 -0.54073,-0.44287 0.0921,-0.0792 -0.15843,-0.18436 -1.03263,-0.39399 -0.94434,-0.0427 -1.20432,-0.78017 -0.38633,0.17173 -0.49189,0.0489 -0.60694,-0.70631 -0.0489,-0.49185 -1.34411,-0.073 -0.14097,-0.41258 -0.10557,-0.12284 -0.82201,-0.52167 -0.7428,-0.42949 -0.14106,-0.41268 -0.0791,-0.0921 -0.21498,0.18473 -0.10556,-0.12284 -0.049,-0.49195 -0.46588,-0.29363 -0.57102,-0.0432 -0.17126,-0.0129 -0.41268,0.14106 -0.43526,-0.32012 -0.70678,0.23371 -0.72937,-0.22747 -0.21498,0.18474 -0.30712,0.26391 -0.19769,-0.0437 -0.17135,-0.013 -0.50917,0.27729 -0.18427,0.15834 -0.12285,0.10557 -0.39924,0.34308 -0.41268,0.14106 -0.87804,0.22081 -1.0932,0.40534 -0.38624,0.17182 -0.18427,0.15835 -0.20197,0.0135 -0.27692,-0.13586 -0.0792,-0.0922 -0.26383,-0.30701 -0.18477,-0.21503 0.0921,-0.0792 -0.0792,-0.0922 -0.0618,-0.32049 -0.1847,-0.21493 -0.28127,-0.0788 -0.10557,-0.12284 -0.0488,-0.49175 -0.17135,-0.013 -0.4486,-0.52205 -0.64296,-1.36951 -0.22841,-0.0173 -0.51439,-0.4122 -0.5711,-0.0433 -0.26383,-0.30701 -0.18478,-0.21503 -0.57102,-0.0432 -0.13585,0.27682 -0.0921,0.0792 -0.25039,-0.10499 -0.78609,0.14143 z m -0.42515,18.14415 -0.32011,0.43517 -0.21498,0.18473 -0.20155,0.38676 -0.0129,0.17135 0.80473,0.75008 0.2504,0.105 0.22841,0.0173 0.38632,-0.17173 0.0921,-0.0792 0.29419,-0.0926 0.1977,0.0437 0.38624,-0.17183 1.01389,-0.49762 0.61996,0.53505 0.98763,-0.52819 0.27683,0.13576 0.21497,-0.18474 0.0921,-0.0792 0.0921,-0.0792 -0.0618,-0.32049 -0.47897,-0.12247 -0.0791,-0.0921 0.16554,-1.04995 0.21497,-0.18474 -0.0661,-0.26334 -0.0134,-0.20202 -0.34313,-0.39929 -0.17126,-0.0129 -0.26399,-0.30721 -0.39968,-0.0302 -0.98318,0.47124 -0.29419,0.0925 -0.13577,0.27692 -0.61422,0.52782 -0.38633,0.17172 -0.18427,0.15835 -0.50917,0.27729 -0.58394,0.12815 z m 29.39536,9.97694 -0.25818,0.75575 -0.17854,1.22122 0.49034,2.24811 0.57726,1.47944 0.77872,1.0926 0.54074,0.44286 0.0792,0.0922 0.18478,0.21502 0.0791,0.0921 0.0791,0.0921 0.26399,0.30721 0.26383,0.30702 0.0926,0.2942 -0.007,1.23422 -0.0303,0.39967 -0.0921,0.0792 -0.13584,0.27682 -0.0921,0.0792 -0.0791,-0.0921 -0.60122,0.35656 -0.24098,0.52725 -0.12285,0.10556 -0.81577,0.91457 -0.0129,0.17136 -0.0129,0.17135 -0.20154,0.38676 -0.2717,0.55364 -0.0921,0.0792 -0.12234,0.47894 -0.32003,0.43526 -0.0173,0.22841 -0.026,0.34251 -0.42995,0.36948 -0.2504,-0.105 -0.10556,-0.12284 -0.55767,0.15871 -0.41268,0.14107 -0.30711,0.2639 -0.64443,0.92759 -0.0921,0.0792 0.0792,0.0922 -0.50866,0.65066 -1.04418,0.89729 -0.0691,0.91364 -0.16613,0.67648 -0.20155,0.38676 0.42225,0.49137 0.0797,0.46556 0.18469,0.21493 0.43526,0.32012 0.27726,0.50903 0.0792,0.0922 -0.12284,0.10557 -0.0921,0.0792 -0.0302,0.39976 0.0661,0.26335 0.1977,0.0437 0.95777,0.24475 0.17135,0.013 0.0792,0.0922 0.27726,0.50903 0.29941,0.59694 0.10556,0.12285 0.15843,0.18436 0.26434,0.68039 0.0849,1.15505 0.1977,0.0437 0.0791,0.0921 -0.013,0.17126 0.27743,0.50922 -0.0437,0.19765 0.26442,0.68049 -0.008,0.86085 0.10556,0.12284 0.47881,0.12228 0.0921,-0.0792 0.12285,-0.10557 0.25056,0.1052 0.10556,0.12284 -0.0567,0.36891 0.14201,1.15932 0.0356,0.28993 0.52782,0.61422 0.0134,0.20202 -0.14885,0.44808 0.63338,0.73706 0.4847,1.18535 0.0488,0.49175 -0.0201,1.40558 -0.16562,1.04985 -0.21446,0.55811 0.006,1.06287 0.0489,0.49175 -0.35708,2.44243 -0.0508,1.43197 0.57718,1.47935 0.17134,0.013 0.69951,1.0004 0.15458,0.6148 0.0791,0.0921 1.03691,0.33684 0.5711,0.0433 1.24761,0.20925 1.62657,1.27155 1.49817,0.31444 0.0791,0.0921 0.61995,0.53505 0.57153,0.41657 0.14098,0.41258 -0.0129,0.17136 0.0792,0.0922 0.10557,0.12284 0.0791,0.0921 0.29411,-0.0927 0.10556,0.12284 0.49138,-0.42225 0.73707,-0.63338 0.0787,-0.28119 0.21498,-0.18474 0.013,-0.17126 0.12285,-0.10556 -0.0791,-0.0921 0.39924,-0.34309 0.46538,-0.0797 0.22798,-0.35599 -0.036,-0.6632 0.44253,-0.91401 0.10941,-0.30758 0.50481,-0.22023 0.24518,-0.5845 0.10505,-0.25053 -0.15441,-0.6146 -0.049,-0.49194 0.22798,-0.356 0.17126,0.0129 0.56538,-1.01957 0.0921,-0.0792 0.1977,0.0437 0.20155,-0.38676 0.12284,-0.10556 -0.15843,-0.18436 0.30712,-0.26391 1.43572,-0.37952 0.50481,-0.22024 0.72364,-0.8354 0.22798,-0.35599 0.22798,-0.356 0.60122,-0.35656 0.38624,-0.17182 0.41268,-0.14106 0.64981,-0.23789 0.42995,-0.36948 0.22739,-0.72946 1.0269,-0.66888 0.32439,-0.49232 0.18427,-0.15834 1.18533,-0.48452 0.79934,0.0604 1.40603,0.39361 0.34253,0.0258 0.30711,-0.26391 0.61474,-0.15445 0.49189,-0.0489 0.86462,-0.42282 0.39924,-0.34308 0.30711,-0.26391 1.9224,-1.1179 1.36943,-0.64306 0.12284,-0.10556 1.19825,-0.65587 0.0921,-0.0792 0.53501,-0.62001 0.8292,-0.71255 0.42953,-0.74275 1.44343,-1.24037 0.47838,-0.25099 0.21497,-0.18474 1.02648,-1.04216 0.35082,-0.46155 0.0787,-0.28119 0.51636,-1.51152 -0.0792,-0.0922 -0.26391,-0.30711 -0.46596,-0.29373 -0.28983,0.0355 -0.63724,-0.30664 -0.83493,-0.35032 -0.58436,-0.24512 -0.52739,-0.24095 -0.46597,-0.29373 -0.1977,-0.0437 -0.15826,-0.18417 -0.18478,-0.21503 -0.18478,-0.21503 -0.55801,-0.21446 -0.0619,-0.32059 0.026,-0.34251 -0.10556,-0.12285 -0.57111,-0.0433 -0.35596,-0.22784 -0.35612,-0.22804 0.013,-0.17125 -0.12857,-0.95731 0.0868,-0.76877 -0.26434,-0.68038 -0.22019,-0.50476 -0.10556,-0.12285 -0.0792,-0.0922 -0.34304,-0.3992 -1.46258,-0.0245 -0.30711,0.26391 -0.30712,0.26391 -0.38632,0.17172 -0.17135,-0.013 -0.22841,-0.0173 -0.17126,-0.0129 0.013,-0.17126 -0.10556,-0.12284 -0.0792,-0.0922 -0.14149,-0.78595 -0.049,-0.49195 0.0921,-0.0792 0.0437,-0.19765 0.013,-0.17126 -0.0625,-0.69396 -0.0661,-0.26334 -0.0619,-0.32059 0.10505,-0.25053 0.0173,-0.22841 0.14886,-0.44808 -5.2e-4,-0.37337 -0.18477,-0.21503 -0.2202,-0.50476 -0.20206,0.0134 -0.27683,-0.13575 -0.0791,-0.0921 -0.27691,-0.13585 -0.26391,-0.30711 -0.17177,-0.38629 -0.18478,-0.21503 -0.0791,-0.0921 -0.52782,-0.61422 -0.17126,-0.0129 -1.19149,-0.95163 -0.5581,-0.21456 -0.10556,-0.12284 -0.34304,-0.3992 -0.35604,-0.22794 -0.47889,-0.12238 -0.43517,-0.32002 -0.27691,-0.13585 -0.0792,-0.0922 -0.10556,-0.12284 -0.46589,-0.29363 -0.0792,-0.0922 -0.10557,-0.12284 -0.17126,-0.0129 -0.35604,-0.22794 -0.20206,0.0134 -0.27683,-0.13576 -0.92706,-0.27114 -0.38676,-0.20155 -1.11184,-0.48617 -0.17126,-0.0129 -0.91406,-0.4424 -0.58454,-0.24532 -0.0791,-0.0921 -1.31381,-0.47269 -0.0792,-0.0922 -0.92706,-0.27114 -1.32674,-0.30133 -0.39967,-0.0302 -0.17135,-0.013 -0.27691,-0.13585 -1.0369,-0.33684 -0.17127,-0.0129 -0.39975,-0.0303 -0.39925,0.34308 -0.29419,0.0926 -0.0921,0.0792 -0.27682,-0.13576 -0.0791,-0.0921 -0.36956,-0.43006 -0.55802,-0.21446 -0.17135,-0.013 -1.00662,-0.7365 -1.77542,-0.82347 -1.19105,-0.57835 -0.15827,-0.18417 -5.1e-4,-0.37338 -0.43517,-0.32002 -0.66366,-0.3374 -0.27683,-0.13576 -0.17135,-0.013 -0.20206,0.0134 -0.63287,-0.36369 -0.47889,-0.12238 -1.49808,-0.31435 -0.786,0.14154 -0.30711,0.26391 -0.30711,0.26391 z"
         inkscape:connector-curvature="0" />
    </g>
  </g>
</svg>
