<?xml version="1.0" encoding="UTF-8" standalone="no"?>
<!-- Created with Inkscape (http://www.inkscape.org/) -->

<svg
   xmlns:dc="http://purl.org/dc/elements/1.1/"
   xmlns:cc="http://creativecommons.org/ns#"
   xmlns:rdf="http://www.w3.org/1999/02/22-rdf-syntax-ns#"
   xmlns:svg="http://www.w3.org/2000/svg"
   xmlns="http://www.w3.org/2000/svg"
   xmlns:sodipodi="http://sodipodi.sourceforge.net/DTD/sodipodi-0.dtd"
   xmlns:inkscape="http://www.inkscape.org/namespaces/inkscape"
   width="29.709145mm"
   height="16.487034mm"
   viewBox="0 0 105.26862 58.418623"
   id="svg3885"
   version="1.1"
   inkscape:version="0.91 r"
   sodipodi:docname="7.svg">
  <defs
     id="defs3887" />
  <sodipodi:namedview
     id="base"
     pagecolor="#ffffff"
     bordercolor="#666666"
     borderopacity="1.0"
     inkscape:pageopacity="0.0"
     inkscape:pageshadow="2"
     inkscape:zoom="14.745315"
     inkscape:cx="32.290396"
     inkscape:cy="37.823376"
     inkscape:document-units="px"
     inkscape:current-layer="layer1"
     showgrid="false"
     inkscape:window-width="2560"
     inkscape:window-height="1388"
     inkscape:window-x="0"
     inkscape:window-y="0"
     inkscape:window-maximized="1"
     fit-margin-top="1"
     fit-margin-left="1"
     fit-margin-right="1"
     fit-margin-bottom="1" />
  <metadata
     id="metadata3890">
    <rdf:RDF>
      <cc:Work
         rdf:about="">
        <dc:format>image/svg+xml</dc:format>
        <dc:type
           rdf:resource="http://purl.org/dc/dcmitype/StillImage" />
        <dc:title></dc:title>
      </cc:Work>
    </rdf:RDF>
  </metadata>
  <g
     inkscape:label="Layer 1"
     inkscape:groupmode="layer"
     id="layer1"
     transform="translate(-264.39902,-399.49505)">
    <path
       inkscape:connector-curvature="0"
       d="m 348.79389,403.21798 -0.24346,0.065 -0.21154,-0.0559 -0.0909,-0.024 -0.23537,0.0347 -0.41675,-0.0133 -0.66016,0.0519 -1.40289,0.0495 -0.54558,-0.0155 -0.41678,-0.0133 -0.32599,0.0109 -0.33416,0.041 -0.32598,0.0108 -0.87167,-0.004 -1.19768,0.007 -0.20531,0.0426 -0.12086,-0.0319 -0.32597,0.0108 -0.0909,-0.024 -1.41101,0.0798 -0.23537,0.0347 -0.21145,-0.0559 -0.50734,-0.0372 -1.44117,0.0719 -0.0909,-0.024 -0.11482,0.0665 -0.87157,-0.004 -0.32609,0.0108 -0.21154,-0.0559 -0.326,0.0109 -0.42475,0.0171 -0.41675,-0.0133 -0.66013,0.0518 -0.5615,0.0456 -0.21155,-0.0559 -0.42464,0.0171 -0.0909,-0.024 -0.47077,0.0694 -0.84152,0.004 -0.44687,-0.0206 -0.51534,-0.007 -0.12085,-0.0319 -0.53129,0.0535 -0.24347,0.065 -0.0909,-0.024 -0.2354,0.0348 -0.0909,-0.024 -0.96239,-0.0276 -0.12086,-0.0319 -0.44059,0.0774 -0.33407,0.0411 -0.0909,-0.024 -0.12085,-0.0319 -0.95442,-0.0582 -0.53927,0.0837 -0.23538,0.0347 -0.21144,-0.0559 -0.33417,0.041 -0.0909,-0.024 -0.41678,-0.0133 -0.32599,0.0109 -0.12085,-0.0319 -0.33416,0.041 -0.32598,0.0108 -0.20531,0.0426 -0.96221,-0.0276 -0.12084,-0.0319 -0.20534,0.0427 -0.21143,-0.0559 -0.89552,0.0865 -0.30223,-0.0799 -0.66015,0.0519 -0.326,0.0109 -0.97833,0.0323 c -0.056,0.15319 -0.19495,0.30801 -0.0978,0.49133 0.0866,0.2286 -0.1504,0.1934 -0.33583,0.16985 -0.18515,-0.0234 -0.34344,-0.0366 -0.16272,0.24786 0.12104,0.31352 -0.0399,0.45635 -0.25852,0.61051 -0.21873,0.15415 -0.49792,0.32023 -0.51598,0.60704 0.0399,0.25502 -0.19033,0.16992 -0.41846,0.11574 -0.11407,-0.027 -0.22372,-0.0407 -0.28784,-0.011 -0.0645,0.0292 -0.0744,0.11336 -0.012,0.2878 -0.0417,0.25975 0.0683,0.45257 0.2651,0.5872 0.19678,0.13442 0.47124,0.20352 0.68687,0.21376 0.49075,-0.0421 0.66709,0.46761 1.06038,0.63575 0.22539,0.11157 0.39728,0.0807 0.52335,-0.0234 0.12576,-0.10412 0.21098,-0.26303 0.33116,-0.39728 0.12652,-0.02 0.27932,-0.0589 0.35006,-0.10154 0.0712,-0.0424 0.0544,-0.0811 -0.14138,-0.19892 -0.12766,-0.19643 0.0236,-0.32855 0.21063,-0.42924 0.18687,-0.10051 0.41514,-0.19368 0.51887,-0.25077 0.0756,0.29964 0.29331,0.49453 0.54484,0.62884 0.25174,0.13435 0.53301,0.2305 0.79185,0.30624 0.27153,0.0504 0.35579,-0.16355 0.3996,-0.41159 0.0439,-0.24823 0.0633,-0.53705 0.18362,-0.69495 -0.003,-0.3045 0.13464,-0.3765 0.3233,-0.3671 0.18826,0.009 0.41951,0.0916 0.57409,0.15169 0.12855,-0.0685 0.3225,-0.24195 0.51244,-0.34938 0.19001,-0.10765 0.39607,-0.15395 0.48519,-0.002 -0.11349,0.19859 -0.212,0.44615 -0.20556,0.65667 0.006,0.21073 0.10114,0.38957 0.31119,0.53485 0.2709,0.37306 0.37021,0.80797 0.12765,1.22959 -0.0988,0.41307 -0.39874,0.67184 -0.70239,0.94575 -0.4823,0.29945 -0.23713,0.96795 -0.60091,1.29569 0.32315,0.37686 0.7977,0.58705 1.09333,0.99996 0.18649,0.25211 0.42367,0.22034 0.6647,0.17562 0.24101,-0.0447 0.49048,-0.11357 0.72688,0.0628 0.0804,0.0207 0.16209,0.0386 0.24169,0.0638 0.0407,-0.0326 -0.003,-0.1269 0.04,-0.15111 0.15413,-0.0866 0.2716,-0.1229 -0.10955,-0.31979 -0.16234,-0.084 0.42584,-0.87734 0.44479,-0.94909 l 1.13049,-4.64666 c 0.33272,-0.25871 0.81634,0.13675 1.15609,0.27306 0.38849,0.16916 0.70008,0.52205 1.09045,0.64371 0.49541,-0.09 0.85111,-0.47557 1.2605,-0.73354 0.39452,-0.23502 0.77639,0.24453 1.15155,0.0452 0.0837,-0.10503 0.28412,-0.24112 0.43608,-0.30502 0.15216,-0.0639 0.26235,-0.0588 0.23205,0.22297 -0.1179,0.37181 -0.061,0.73881 0.0689,1.08479 0.13013,0.346 0.35007,0.6868 0.54783,0.98511 0.11774,0.2054 0.0952,0.42709 0.12031,0.64587 0.0249,0.21892 0.0819,0.43856 0.3334,0.57297 0.4404,0.34804 1.01823,0.38146 1.52319,0.59637 0.22055,0.0316 0.34767,0.18505 0.41955,0.36944 0.0719,0.18438 0.10099,0.42695 0.098,0.6077 -0.31165,0.30583 -0.76543,0.47895 -1.04895,0.78943 -0.14847,-0.10514 -0.30246,-0.16431 -0.44528,-0.14992 -0.14272,0.0144 -0.25951,0.1202 -0.31521,0.33687 -0.18484,0.242 -0.35051,0.17413 -0.42474,0.0171 -0.0742,-0.15686 -0.0701,-0.42623 0.0232,-0.57566 -0.11354,-0.40329 -0.47313,-0.69978 -0.64462,-1.10772 -0.18652,-0.36826 -0.6481,-0.30383 -0.989,-0.29368 -0.45479,0.031 -0.70086,0.49603 -0.81537,0.88364 -0.009,0.0303 -0.0159,0.0602 -0.024,0.0906 0.0941,0.0829 0.32967,0.19012 0.48341,0.12774 0.17039,-0.0691 0.10201,-0.12003 0.20069,-0.27021 0.20774,-0.31695 0.35848,-0.1953 0.4772,0.029 0.11867,0.22458 0.18875,0.54107 0.27926,0.6557 0.1983,0.25087 0.1055,0.22708 0.009,0.45481 -0.0228,0.0472 -0.46111,0.47963 -0.45381,0.49428 0.10112,0.2037 0.25606,0.30234 0.40535,0.30103 0.1491,-10e-4 0.2845,-0.0981 0.34549,-0.32895 0.0695,-0.2634 0.15332,-0.32191 0.23882,-0.29241 0.0862,0.03 0.17913,0.12925 0.30046,0.20868 0.0264,0.0174 0.27142,0.009 0.47709,0.0291 0.20571,0.0208 0.36744,0.0899 0.2241,0.25305 -0.20491,0.23257 -0.18929,0.3003 -0.0878,0.33239 0.1013,0.032 0.30948,0.021 0.46111,0.0896 0.18597,0.0838 0.49632,0.12388 0.64076,0.2662 0.20422,0.20104 0.36156,0.49498 0.55636,0.34093 0.30715,-0.24289 0.66137,-0.3782 0.91218,-0.76103 0.21017,-0.32064 0.60684,-0.56493 0.9566,-0.68456 0.41549,-0.14217 0.98314,-0.28666 0.98166,-0.29005 -0.16593,-0.40937 -1.06999,-1.09071 -0.68288,-1.08546 0.10801,0.002 0.3368,-0.0462 0.41667,0.0133 0.0838,0.0625 0.39503,0.38084 0.50403,0.29473 0.15167,-0.11994 0.30676,-0.11579 0.42011,-0.2445 0.18547,-0.21071 0.39599,-0.12903 0.62542,-0.28727 0.27919,-0.19268 0.56326,-0.54169 0.56035,-0.53067 -0.05,0.18951 -0.0861,0.36512 0.11575,0.41846 0.23262,0.0615 0.20284,0.0402 0.38818,-0.12375 0.0525,-0.0463 0.38339,-0.35184 0.31698,-0.46568 -0.1087,-0.18676 -0.23352,-0.19036 -0.29247,-0.23894 -0.0586,-0.0484 -0.0473,-0.13442 0.11174,-0.42299 0.0553,-0.0998 0.11431,-0.20955 0.22293,-0.23194 0.35092,-0.0731 0.58437,0.7243 0.62932,0.55414 0.0374,-0.14144 0.0825,-0.39824 0.0448,-0.53768 -0.033,-0.12197 -0.0315,-0.73586 0.13867,-0.77148 0.094,-0.0195 0.30308,0.18072 0.30843,0.17852 0.18233,-0.0739 0.30168,-0.0989 0.4344,-0.17609 0.22403,-0.13039 0.46153,0.22342 0.65151,0.59228 0.008,0.0112 -0.0153,0.0189 -0.009,0.0301 l 0.03,0.009 0.31984,-0.10933 0.33396,-0.0411 0.32619,-0.0108 0.53931,-0.0838 0.0798,-0.30204 0.23539,-0.0348 0.30215,0.0798 0.21153,0.0559 -0.024,0.0907 -0.0319,0.12085 0.0909,0.024 -0.024,0.0906 0.035,0.23546 -0.11483,0.0666 -0.024,0.0907 -0.12281,0.0969 -0.0479,0.18118 -0.0799,0.30223 -0.15965,0.60426 -0.0559,0.21145 -0.0559,0.21144 -0.048,0.18138 -0.23258,0.39096 -0.024,0.0907 0.0969,0.12262 0.11484,-0.0666 0.0559,-0.21155 0.23538,-0.0347 0.15743,0.13852 0.089,0.15278 0.0669,0.1147 -0.17071,0.27812 -0.14479,0.0587 -0.1228,0.0969 -0.17075,0.27822 -0.024,0.0906 -0.29127,0.24627 -0.35803,0.13171 -0.0798,0.30203 -0.024,0.0907 0.0909,0.024 0.42289,0.11172 0.3262,-0.0108 -0.048,0.18137 0.035,0.23545 -0.11483,0.0666 -0.26743,0.15566 -0.0909,-0.024 -0.0969,-0.12262 -0.0909,-0.024 -0.39282,-0.10377 -0.44685,-0.0206 -0.024,0.0907 -0.18138,-0.048 -0.54549,-0.0155 -0.0909,-0.024 -0.10377,0.39272 -0.26734,0.15568 -0.1148,0.0665 -0.0559,0.21145 0.0669,0.11469 -0.26732,0.15568 -0.32617,0.0107 -0.20513,0.0427 -0.32331,0.3672 -0.024,0.0906 -0.024,0.0906 0.21154,0.0559 -0.0319,0.12085 0.0909,0.024 -0.048,0.18137 -0.0319,0.12085 -0.024,0.0906 -0.14674,0.18743 -0.024,0.0907 -0.14481,0.0588 -0.17068,0.27803 -0.24346,0.065 -0.13881,0.15736 -0.13571,0.51358 -0.0798,0.30213 -0.47489,0.94122 -0.0798,0.30204 -0.17073,0.2782 -0.12282,0.0969 -0.0798,0.30204 -0.0369,0.50742 -0.0319,0.12085 0.21153,0.0559 0.12281,-0.0969 0.24625,0.29137 -0.024,0.0907 0.059,0.14486 0.073,0.21312 0.19026,0.50288 0.13351,0.22911 0.041,0.33415 -0.0448,0.53759 0.0909,0.024 -0.19465,0.36872 -0.0559,0.21154 0.011,0.32614 -0.024,0.0906 0.27029,0.20071 0.48961,0.22638 0.11485,-0.0667 0.0319,-0.12085 -0.0909,-0.024 -0.0429,-0.20519 -0.0889,-0.15279 0.024,-0.0907 -0.0669,-0.1147 0.0319,-0.12086 -0.0429,-0.2052 0.0319,-0.12084 0.0799,-0.30223 0.0479,-0.18119 -0.009,-0.455 0.23538,-0.0347 0.14675,-0.18744 0.024,-0.0907 0.21155,0.0559 0.21154,0.0559 0.20513,-0.0427 0.30223,0.0799 -0.0799,0.30224 -0.024,0.0906 -0.1148,0.0665 -0.0319,0.12086 -0.024,0.0907 -0.024,0.0907 -0.12282,0.0969 -0.12085,-0.0319 -0.13875,0.15717 -0.0319,0.12085 -0.1388,0.15737 0.0694,0.47076 0.0969,0.12261 0.0909,0.024 0.15565,0.26744 0.0429,0.20519 -0.0559,0.21153 -0.024,0.0907 -0.43782,0.43374 -0.11486,0.0667 -0.17671,0.17951 -0.3579,0.13165 -0.0909,-0.024 -0.17962,-0.17676 -0.18118,-0.0479 -0.12085,-0.0319 -0.0909,-0.024 -0.21154,-0.0559 -0.42466,0.0171 -0.17961,-0.17674 -0.0669,-0.11461 -0.0669,-0.1146 -0.0889,-0.15278 -0.0429,-0.2054 -0.13173,-0.35792 0.0319,-0.12085 0.024,-0.0907 -0.0669,-0.1147 0.0319,-0.12085 -0.24338,0.065 -0.024,0.0907 -0.0559,0.21154 -0.11481,0.0666 -0.0123,0.41685 -0.0319,0.12085 -0.024,0.0906 -0.2266,0.48966 -0.19464,0.36871 -0.0798,0.30215 -0.14478,0.0587 -0.0319,0.12085 -0.10377,0.39282 -0.024,0.0906 -0.0388,0.6362 -0.0319,0.12085 -0.024,0.0907 0.035,0.23556 0.043,0.2052 0.009,0.455 -0.024,0.0906 -0.10377,0.39281 -0.0559,0.21145 -0.0559,0.21144 0.0669,0.1147 0.0909,0.024 0.024,-0.0907 0.0798,-0.30204 0.12085,0.0319 0.0319,-0.12086 0.11484,-0.0666 0.21155,0.0559 0.14677,-0.18754 0.11481,-0.0665 -0.035,-0.23545 -0.0669,-0.1147 -0.065,-0.24348 0.024,-0.0906 -0.0669,-0.1146 0.0319,-0.12085 0.024,-0.0907 0.0559,-0.21153 0.25942,-0.1253 0.0909,0.024 0.0669,0.11462 0.15567,0.26733 0.358,-0.13161 -0.035,-0.23546 -0.16361,-0.23726 0.0319,-0.12086 0.0479,-0.18119 0.12282,-0.0969 0.14482,-0.0588 0.14677,-0.18753 0.0909,0.024 0.15565,0.26744 0.035,0.23556 0.0969,0.12253 0.0909,0.024 0.11482,-0.0665 0.0319,-0.12085 -0.0669,-0.1147 0.0798,-0.30214 0.2673,-0.15558 0.0909,0.024 0.0909,0.024 0.30205,0.0798 0.1796,0.17675 0.0669,0.1146 0.0411,0.33407 -0.0798,0.30212 0.011,0.32616 0.13162,0.358 -0.0448,0.53768 0.0429,0.20519 -0.0319,0.12085 0.0729,0.2133 0.12532,0.25933 0.0969,0.12251 -0.0559,0.21154 -0.17675,0.17961 -0.20512,0.0427 -0.23548,0.0347 -0.36878,-0.19434 -0.21155,-0.0559 -0.0909,-0.024 -0.15558,-0.2673 0.024,-0.0907 -0.18747,-0.14654 -0.059,-0.14487 0.024,-0.0906 -0.0909,-0.024 -0.0559,0.21145 -0.20071,0.2703 0.0969,0.12252 -0.14479,0.0587 -0.0909,-0.024 -0.21145,-0.0559 -0.0319,0.12086 -0.11484,0.0666 -0.0559,0.21153 -0.024,0.0906 -0.0123,0.41685 -0.34103,0.55634 -0.15279,0.089 -0.024,0.0906 -0.13572,0.51368 -0.024,0.0906 -0.024,0.0906 -0.0319,0.12086 0.0729,0.2133 0.059,0.14487 -0.024,0.0906 -0.024,0.0906 -0.11184,0.42307 -0.024,0.0906 -0.0123,0.41685 -0.0319,0.12086 0.16357,0.23704 -0.0319,0.12085 0.0909,0.024 0.3581,-0.13159 -0.011,-0.32614 -0.22231,-0.38196 0.0798,-0.30213 0.024,-0.0907 0.0319,-0.12085 0.11482,-0.0665 0.0559,-0.21144 0.12086,0.0319 0.0909,0.024 0.21155,0.0559 0.0909,0.024 -0.0559,0.21144 0.0909,0.024 0.42307,0.11174 0.0909,0.024 0.0239,-0.0906 -0.035,-0.23555 0.11484,-0.0666 0.0319,-0.12085 0.13876,-0.15716 0.12085,0.0319 0.2133,-0.0729 0.12085,0.0319 0.0111,0.32604 -0.0319,0.12086 -0.024,0.0907 -0.024,0.0907 0.31302,0.40582 0.31111,0.53482 0.25436,0.26103 0.0909,0.024 0.024,-0.0906 0.23537,-0.0347 0.18137,0.048 0.12086,0.0319 0.0669,0.11461 0.0909,0.024 0.0969,0.12252 0.059,0.14487 0.265,0.58716 -0.12282,0.0969 -0.1388,0.15737 -0.21154,-0.0559 -0.0909,-0.024 -0.38184,0.22224 -0.29139,0.24635 -0.0319,0.12084 -0.11481,0.0666 -0.48965,-0.22629 -0.035,-0.23554 -0.0969,-0.12262 -0.20514,0.0428 -0.17674,0.17961 -0.11482,0.0665 -0.024,0.0906 -0.0909,-0.024 -0.12086,-0.0319 -0.14677,0.18751 -0.024,0.0907 0.17951,0.17672 0.0669,0.11459 -0.024,0.0906 -0.12282,0.0969 -0.29129,0.24636 -0.11482,0.0666 -0.26741,0.15556 -0.024,0.0907 0.41669,0.0133 0.22236,0.38207 0.073,0.21312 -0.0559,0.21154 -0.024,0.0907 0.059,0.14486 0.0909,0.024 0.38209,-0.22237 0.12084,0.0319 0.0909,0.024 -0.024,0.0907 0.011,0.32614 -0.3169,0.46579 -0.024,0.0906 -0.12084,-0.0319 -0.32617,0.0107 -0.18119,-0.0479 -0.62545,0.28737 -0.21145,-0.0559 -0.13874,0.15717 -0.0559,0.21154 0.13171,0.35802 0.22222,0.38194 0.50049,0.55238 0.22239,0.38208 0.059,0.14487 0.0669,0.1146 0.13171,0.35802 -0.0798,0.30213 0.19835,0.47265 -0.0319,0.12086 0.0909,0.024 -0.024,0.0906 0.32616,-0.0107 0.21144,0.0559 0.0669,0.11461 0.065,0.24337 0.0909,0.024 -0.024,0.0907 -0.38197,0.22231 -0.1875,-0.14646 -0.024,0.0906 -0.024,0.0906 0.13159,0.35811 0.035,0.23545 0.12086,0.0319 0.0909,0.024 0.1876,0.14647 0.41666,0.0133 0.27819,0.17041 0.15555,0.26741 0.0909,0.024 -0.024,0.0907 0.1796,0.17675 0.043,0.20519 0.035,0.23556 0.18758,0.14657 0.13173,0.35793 0.0909,0.024 -0.0319,0.12085 0.48972,0.2264 0.0669,0.1147 0.21145,0.0559 0.20533,-0.0427 0.17674,-0.17961 -0.0969,-0.12252 -0.18137,-0.048 -0.27811,-0.17039 -0.32616,0.0107 -0.1875,-0.14645 -0.059,-0.14487 -0.12086,-0.0319 -0.0776,-0.44076 0.14675,-0.18742 0.1388,-0.15736 0.12086,0.0319 0.0319,-0.12085 0.0909,0.024 -0.0319,0.12085 0.21145,0.0559 0.27827,0.17054 0.024,-0.0907 0.0909,0.024 0.12282,-0.0969 0.14478,-0.0587 0.20531,-0.0426 0.13164,0.3579 -0.10377,0.39282 0.1875,0.14645 0.0909,0.024 0.21154,0.0559 0.32597,-0.0108 0.0669,0.1146 -0.0319,0.12086 0.0669,0.11469 -0.024,0.0907 0.24618,0.29125 0.58032,0.25025 0.024,-0.0906 -0.035,-0.23546 -0.22229,-0.38204 -0.0429,-0.2052 0.12281,-0.0969 0.024,-0.0907 0.0559,-0.21154 0.0479,-0.18118 0.17073,-0.27822 -0.0909,-0.024 -0.035,-0.23546 -0.1875,-0.14645 -0.24624,-0.29138 0.024,-0.0907 0.0319,-0.12085 0.024,-0.0906 0.14675,-0.18742 0.12086,0.0319 0.40581,-0.31302 0.024,-0.0906 0.13572,-0.51368 -0.12085,-0.0319 0.024,-0.0906 0.0319,-0.12085 0.048,-0.18137 0.0319,-0.12086 0.14479,-0.0587 0.0909,0.024 0.36879,0.19436 0.12085,0.0319 0.0909,0.024 0.035,0.23556 0.0969,0.12263 -0.0319,0.12084 0.0669,0.11461 -0.024,0.0906 0.035,0.23556 -0.0559,0.21154 -0.13875,0.15717 -0.26734,0.15568 -0.18137,-0.048 -0.35793,0.13174 -0.14479,0.0587 -0.024,0.0906 0.21145,0.0559 0.40189,0.5588 0.043,0.20519 0.035,0.23556 0.0969,0.12262 0.42755,0.33916 -0.024,0.0906 -0.0559,0.21154 -0.024,0.0907 0.471,-0.0696 0.14675,-0.18744 -0.0909,-0.024 -0.12086,-0.0319 -0.0669,-0.11461 -0.035,-0.23555 0.024,-0.0907 0.0319,-0.12085 0.22924,-0.13326 0.2781,0.17039 0.21153,0.0559 0.18762,0.14649 0.035,0.23554 -0.024,0.0907 0.22234,0.38186 0.059,0.14487 0.12085,0.0319 0.0909,0.024 0.0319,-0.12086 0.024,-0.0906 -0.0669,-0.1146 0.0319,-0.12086 0.11484,-0.0666 0.0909,0.024 0.12086,0.0319 0.15741,0.13861 0.17952,0.17672 0.1875,0.14645 -0.024,0.0906 -0.0319,0.12084 0.0909,0.024 0.0429,0.20538 -0.12282,0.0969 -0.25941,0.12529 -0.12282,0.0969 -0.0909,-0.024 -0.14482,0.0588 -0.0909,-0.024 -0.0669,-0.11469 -0.85284,0.29183 -0.1228,0.0969 -0.25937,0.1255 -0.14675,0.18744 -0.024,0.0906 0.059,0.14485 -0.024,0.0907 -0.0559,0.21155 -0.12771,0.4834 -0.0559,0.21145 0.0969,0.12252 0.059,0.14486 0.16352,0.23725 0.059,0.14486 0.0909,0.024 0.12085,0.0319 -0.041,-0.33417 0.0319,-0.12084 0.2593,-0.12533 0.26734,-0.15566 0.11484,-0.0666 0.12281,-0.0969 0.21145,0.0559 0.0909,0.024 0.12085,0.0319 0.30223,0.0799 0.13875,-0.15717 0.12282,-0.0969 0.12085,0.0319 0.024,-0.0907 0.0909,0.024 0.27818,0.17051 0.059,0.14487 -0.12774,0.48342 -0.0319,0.12084 -0.0909,-0.024 -0.13876,0.15716 -0.12085,-0.0319 -0.23727,0.16362 -0.024,0.0907 -0.0319,0.12085 -0.024,0.0906 -0.0239,0.0906 -0.2007,0.27029 -0.0319,0.12086 0.13175,0.35793 -0.024,0.0907 0.0909,0.024 0.14481,-0.0588 0.0909,0.024 0.0319,-0.12085 0.024,-0.0906 0.35799,-0.13162 0.21156,0.0559 0.18117,0.0479 0.12085,0.0319 0.14945,0.16878 -0.024,0.0906 -0.2612,0.25421 -0.024,0.0907 -0.0319,0.12086 -0.3499,0.10138 -0.0319,0.12085 -0.12085,-0.0319 0.0319,-0.12086 -0.18136,-0.048 -0.35793,0.13175 -0.0559,0.21153 0.043,0.20521 0.035,0.23554 -0.1707,0.27813 -0.30642,0.7917 -0.024,0.0907 0.10135,0.35001 0.0969,0.12251 -0.0319,0.12086 -0.0369,0.50742 -0.0319,0.12085 -0.11485,0.0667 0.0669,0.11469 0.059,0.14486 0.1875,0.14646 0.11482,-0.0665 0.35812,-0.1317 0.12084,0.0319 0.14678,-0.18753 0.11483,-0.0666 0.29136,-0.24623 0.11484,-0.0666 0.20065,-0.27009 0.12281,-0.0969 0.024,-0.0907 0.11484,-0.0667 0.46188,-0.52441 0.12085,0.0319 0.0909,0.024 0.33406,-0.0411 0.0909,0.024 0.21144,0.0559 0.0909,0.024 0.17962,0.17674 0.0319,-0.12085 0.11482,-0.0665 0.14479,-0.0587 0.0319,-0.12086 0.20514,-0.0427 0.58031,0.25035 0.32617,-0.0108 0.1875,0.14656 -0.0319,0.12084 -0.0479,0.18118 0.0909,0.024 0.21153,0.0559 0.0909,0.024 0.0688,-0.62828 0.024,-0.0906 0.024,-0.0906 0.12282,-0.0969 0.12084,0.0319 0.0909,0.024 0.024,-0.0907 -0.0669,-0.1147 -0.12085,-0.0319 0.0319,-0.12086 0.12084,0.0319 0.11483,-0.0666 0.024,-0.0906 1.79293,-0.30202 1.13094,-0.12143 0.66013,-0.0518 0.3262,-0.0108 0.23706,-0.16368 0.12086,0.0319 0.68407,-0.14238 0.50736,0.0371 1.16304,-0.24214 1.42686,-0.14017 0.0909,0.024 0.15279,-0.089 0.20533,-0.0427 0.47486,-0.94113 0.45094,-0.85063 0.0319,-0.12085 0.0479,-0.18118 0.30643,-0.79179 0.31931,-1.20854 0.0798,-0.30213 0.29537,-1.11794 0.48999,-1.48655 0.28738,-1.08768 0.20071,-0.2703 0.0909,0.024 0.0909,0.024 0.0319,-0.12085 0.024,-0.0906 0.13572,-0.51367 0.0479,-0.18119 0.0319,-0.12085 0.024,-0.0907 0.10377,-0.39273 0.0559,-0.21154 0.024,-0.0907 0.0319,-0.12084 0.0479,-0.1812 0.0448,-0.53769 0.024,-0.0906 0.0448,-0.53768 0.10377,-0.39283 -0.12086,-0.0319 -0.32619,0.0108 -0.0909,-0.024 -0.3261,0.0108 -0.0909,-0.024 -1.10695,0.0307 -0.98636,0.0627 -0.42465,0.0171 -0.32607,0.0107 -0.23538,0.0347 -0.18138,-0.048 -0.33397,0.0411 -0.1448,0.0588 -0.30223,-0.0799 -1.31229,0.0734 -0.18118,-0.0479 -0.33416,0.041 -0.32601,0.0109 -0.53763,-0.045 -0.33406,0.0411 -0.32607,0.0107 -0.0909,-0.024 -0.32616,0.0107 -0.56948,0.0759 -0.21154,-0.0559 -0.50736,-0.0371 -0.45483,0.009 -0.20531,0.0426 -0.12085,-0.0319 -0.32596,0.0108 -0.0909,-0.024 -0.0909,-0.024 -0.15279,0.089 -0.18118,-0.0479 -0.12086,-0.0319 -0.0909,-0.024 -0.024,0.0907 -0.0909,-0.024 -0.12084,-0.0319 -0.0909,-0.024 -0.75075,0.0279 -0.32616,0.0107 -0.32598,0.0108 -0.12085,-0.0319 -0.51535,-0.007 -0.12084,-0.0319 -0.0867,-0.89557 0.024,-0.0906 0.0206,-0.4471 -0.011,-0.32606 -0.0838,-0.5393 -0.0998,-0.47897 0.024,-0.0906 -0.0215,-0.65212 -0.065,-0.24337 -0.0537,-0.53134 0.0319,-0.12085 0.024,-0.0907 -0.0969,-0.12262 0.0798,-0.30204 -0.23983,-1.90579 -0.0906,-1.73707 -0.0694,-0.47076 -0.0838,-0.5393 0.0448,-0.53768 -0.065,-0.24338 0.024,-0.0907 -0.0774,-0.44059 -0.065,-0.24348 -0.011,-0.32614 -0.0279,-0.75074 -0.12128,-1.13111 -0.0519,-0.66016 -0.12529,-1.97245 -0.0774,-0.44059 -0.0279,-0.75084 -0.035,-0.23546 -0.0171,-0.42475 -0.0694,-0.47076 0.024,-0.0907 -0.0969,-0.12262 -0.0217,-0.65218 -0.0518,-0.66013 -0.0111,-0.32605 -0.0759,-0.56956 -0.0734,-1.3123 -0.0411,-0.33405 -0.0775,-0.44065 -0.0518,-0.66013 0.0319,-0.12086 -0.10546,-1.19146 -0.009,-0.45501 -0.043,-0.2052 -0.011,-0.32624 -0.1517,-1.13894 0.002,-0.74281 -0.0759,-0.56949 0.0123,-0.41683 -0.1384,-1.55567 -0.0909,-0.024 -0.0171,-0.42475 -0.0454,-0.56154 0.0479,-0.18118 -0.089,-0.15279 0.024,-0.0907 0.024,-0.0907 -0.035,-0.23545 -0.035,-0.23545 0.024,-0.0907 -0.0411,-0.33407 -0.035,-0.23545 -0.0429,-0.20539 0.0559,-0.21145 -0.0969,-0.12252 0.0319,-0.12085 0.024,-0.0907 -0.0669,-0.11471 0.0798,-0.30203 -0.059,-0.14486 0.024,-0.0907 0.024,-0.0907 -0.0411,-0.33397 0.0319,-0.12086 -0.0534,-0.53129 0.0319,-0.12084 z m -5.17188,42.81813 -0.23539,0.0347 -0.32322,0.36723 -0.024,0.0906 -0.0276,0.96228 -0.024,0.0907 0.035,0.23546 0.065,0.24338 -0.024,0.0907 -0.17674,0.17961 0.16365,0.23707 0.11482,-0.0666 0.38187,-0.22232 0.14481,-0.0588 0.0909,0.024 0.18759,0.14658 0.0909,0.024 -0.024,0.0907 0.17952,0.17672 -0.14479,0.0587 -0.0909,-0.024 -0.024,0.0906 -0.17073,0.27823 0.31293,0.40578 0.17961,0.17675 0.27807,0.17049 0.23727,-0.16363 0.14478,-0.0587 -0.0759,-0.56957 -0.0669,-0.11459 -0.18751,-0.14647 -0.011,-0.32623 0.12281,-0.0969 0.0798,-0.30204 -0.0909,-0.024 -0.21154,-0.0559 -0.13169,-0.35812 -0.0909,-0.024 -0.0111,-0.32604 0.048,-0.18138 0.23705,-0.16358 -0.0669,-0.11461 -0.31297,-0.406 -0.15558,-0.26731 -0.0909,-0.024 -0.12085,-0.0319 -0.18138,-0.048 z m 1.1439,4.60115 -0.12281,0.0969 -0.50289,0.19025 -0.048,0.18138 -0.0559,0.21144 -0.024,0.0906 0.009,0.455 -0.0123,0.41675 0.0759,0.56947 0.0429,0.20539 0.23316,0.70805 0.009,0.45482 0.34083,-0.5564 0.34724,-0.45767 0.26744,-0.15565 0.0479,-0.18118 -0.089,-0.15279 0.024,-0.0907 -0.0669,-0.1147 0.0559,-0.21145 0.0798,-0.30212 0.024,-0.0907 0.0319,-0.12086 0.024,-0.0906 0.11481,-0.0665 0.24338,-0.065 -0.0429,-0.20539 -0.0889,-0.15278 -0.0909,-0.024 -0.0909,-0.024 -0.12085,-0.0319 -0.0669,-0.11461 -0.33695,-0.31522 -0.21144,-0.0559 z"
       id="MD-01"
       style="font-style:normal;font-weight:400;font-size:34.375px;font-family:'MS Shell Dlg 2';opacity:1;fill:none;fill-opacity:1;fill-rule:evenodd;stroke:#000000;stroke-width:0.333;stroke-linecap:square;stroke-linejoin:bevel;stroke-miterlimit:4;stroke-dasharray:none;stroke-opacity:1" />
    <path
       inkscape:connector-curvature="0"
       d="m 342.58547,408.36524 c -0.008,-0.0112 0.0153,-0.0188 0.009,-0.0302 -0.19007,-0.36889 -0.42747,-0.72267 -0.65151,-0.59227 -0.13274,0.0772 -0.25207,0.10219 -0.43439,0.17608 -7.7e-4,0.003 -0.21455,-0.19799 -0.30843,-0.17852 -0.17063,0.0354 -0.17161,0.64952 -0.13868,0.77148 0.0377,0.13943 -0.008,0.39622 -0.0448,0.53768 -0.045,0.17027 -0.2784,-0.62723 -0.62932,-0.55414 -0.10836,0.0225 -0.16781,0.13211 -0.22294,0.23195 -0.15899,0.28855 -0.17033,0.37451 -0.11173,0.42298 0.0586,0.0484 0.18388,0.0517 0.29245,0.23894 0.066,0.11387 -0.26459,0.41932 -0.31696,0.46568 -0.18535,0.16399 -0.15558,0.1852 -0.3882,0.12374 -0.20206,-0.0533 -0.16581,-0.22895 -0.11575,-0.41844 0.002,-0.011 -0.28116,0.33799 -0.56033,0.53066 -0.22945,0.15824 -0.43997,0.0766 -0.62544,0.28727 -0.11363,0.12864 -0.26843,0.12456 -0.42009,0.24449 -0.1086,0.0862 -0.41974,-0.23212 -0.50405,-0.29472 -0.0795,-0.0593 -0.30865,-0.0114 -0.41666,-0.0133 -0.38711,-0.006 0.51694,0.67608 0.68287,1.08545 -7.6e-4,0.003 -0.56616,0.14788 -0.98166,0.29007 -0.34975,0.11962 -0.74642,0.3639 -0.9566,0.68455 -0.25079,0.38273 -0.60503,0.51813 -0.91216,0.76104 -0.19482,0.15404 -0.35215,-0.13991 -0.55638,-0.34093 -0.14446,-0.14224 -0.45478,-0.18244 -0.64074,-0.26622 -0.15167,-0.0685 -0.35986,-0.0575 -0.46113,-0.0896 -0.10139,-0.032 -0.11708,-0.0999 0.0878,-0.3324 0.14335,-0.16288 -0.0183,-0.23217 -0.2241,-0.25304 -0.20568,-0.0209 -0.45054,-0.0119 -0.47708,-0.0291 -0.12125,-0.0793 -0.21458,-0.17906 -0.30048,-0.20868 -0.0862,-0.03 -0.16932,0.0291 -0.23881,0.2924 -0.061,0.23078 -0.1964,0.3276 -0.34548,0.32895 -0.14921,10e-4 -0.30423,-0.0973 -0.40536,-0.30103 -0.008,-0.0146 0.43361,-0.44635 0.45382,-0.49427 0.0964,-0.22783 0.18917,-0.20394 -0.009,-0.45481 -0.0905,-0.11454 -0.1606,-0.43113 -0.27927,-0.6557 -0.1187,-0.22447 -0.26945,-0.346 -0.4772,-0.029 -0.0986,0.15018 -0.0303,0.20111 -0.20068,0.2702 -0.15384,0.0623 -0.38933,-0.0449 -0.48341,-0.12772 0,0 0,0 0,0 -0.22053,-0.19417 -0.13242,-0.0723 -0.34827,-0.0274 -0.1817,0.0378 -0.20013,0.0234 -0.25311,0.22398 -0.0899,0.34042 0.0646,0.32953 0.25254,0.39006 0.18791,0.0604 0.41091,0.18603 0.46681,0.80205 0.0104,0.11743 -0.72002,-0.061 -0.81747,-0.0867 -0.28174,-0.0744 -0.39208,-0.39436 -0.49084,-0.7115 -0.0987,-0.31713 -0.18895,-0.61941 -0.44629,-0.63507 -0.20746,-0.0126 -0.26637,0.0636 -0.31189,0.0793 -0.0455,0.0156 -0.077,-0.0296 -0.13959,-0.32783 -0.03,-0.14517 -0.0871,-0.29018 -0.14591,-0.42642 -0.073,-0.16895 -0.19593,-0.39723 -0.31122,-0.53475 -0.11531,-0.13751 -0.24732,-0.16475 -0.31978,0.10945 -0.0341,0.12887 -0.0617,0.23369 -0.0958,0.36255 -0.0697,0.26385 -0.11463,0.39472 -0.2805,0.57234 -0.0926,0.0958 -0.40466,-0.18698 -0.5741,-0.15169 -0.15916,0.0331 -0.38577,0.35928 -0.43152,0.53244 -0.0543,0.20555 0.0641,0.33304 0.20623,0.44237 0.14219,0.10934 0.32635,0.17961 0.45149,0.24857 0.10395,0.0571 -0.63037,0.42848 -0.69097,0.65782 0.0339,0.33271 0.18855,0.58921 0.25547,0.74621 0.0668,0.15708 0.0325,0.21743 -0.30557,0.17784 -0.16374,-0.0192 0.008,0.13056 0.16984,0.33584 0.16223,0.20534 0.31976,0.47389 0.11222,0.67608 -0.23642,0.23015 -0.21005,0.348 -0.0738,0.40075 0.13656,0.0527 0.37263,0.031 0.5616,-0.0456 0.32425,-0.13154 0.59191,-0.38983 0.91669,-0.53354 0.0257,-0.0113 0.66602,0.0302 0.92411,0.0502 -0.0496,-0.0669 0.009,-0.15783 -0.0429,-0.20538 -0.28583,-0.35913 -0.90801,-0.39423 -0.98844,-0.90761 -0.0612,-0.21228 -0.26256,-0.41555 -0.38595,-0.61913 -0.12333,-0.20345 -0.15624,-0.4034 0.0388,-0.63619 0.0513,-0.15505 0.0494,-0.47248 0.11561,-0.68044 0.0654,-0.2083 0.16838,-0.29672 0.43265,-0.0473 0.47531,0.13489 0.79717,0.53074 1.17149,0.82668 0.3415,0.38025 0.75159,0.7295 1.30192,0.69947 0.27094,0.19871 0.80298,0.26563 0.91723,0.56567 -0.134,0.084 -0.29497,0.19451 -0.3375,0.2987 -0.042,0.10423 0.009,0.19369 0.26224,0.23084 0.31475,0.0935 0.59199,-0.05 0.85904,-0.19317 0.26717,-0.1433 0.53582,-0.2887 0.84487,-0.26166 0.17191,0.0211 0.45032,-0.0285 0.68243,-0.0136 0.23208,0.0152 0.42645,0.0822 0.42754,0.33917 -0.12872,0.3854 -0.5409,0.77845 -0.9726,0.74507 -0.25936,-0.10084 -0.47172,-0.0172 -0.59349,0.16641 -0.12209,0.18413 -0.15216,0.45451 -0.0767,0.65854 0.15968,-0.0238 0.35457,-0.0132 0.46925,0.0592 0.11456,0.0725 0.14374,0.22715 0.0171,0.42474 -0.10243,0.43064 -0.23676,0.85696 -0.45613,1.23703 -0.34575,0.15574 -0.74127,0.007 -1.10716,0.0307 -0.15009,-0.094 -0.29723,-0.19158 -0.42923,-0.21031 -0.13196,-0.0188 -0.25028,0.0464 -0.38192,0.2222 -0.21102,0.083 -0.2646,0.19581 -0.24681,0.32267 0.0182,0.12704 0.0834,0.27068 0.11564,0.41842 -0.48532,0.10345 -0.69741,0.61257 -1.19999,0.74963 -0.42528,0.29268 -1.01967,0.34891 -1.50334,0.18461 -0.24934,-0.10427 -0.31448,-0.0115 -0.32786,0.13968 -0.0134,0.15205 0.0341,0.3795 0.0918,0.50905 -0.4478,0.43193 -0.95977,0.77835 -1.55178,0.97981 -0.30301,0.0644 -0.34832,0.2136 -0.25481,0.35292 0.0934,0.13927 0.33038,0.28297 0.49585,0.32494 0.4481,0.13691 0.76008,0.46519 1.26108,0.36545 0.21801,0.0185 0.39205,0.19088 0.55635,0.34104 0.16422,0.15002 0.34656,0.26874 0.60427,0.15965 0.15016,-0.3452 0.62554,-0.32374 0.72912,-0.68012 -0.0198,-0.45379 -0.1141,-0.8972 0.0335,-1.34876 0.22793,-0.36157 0.0195,-0.88474 0.31132,-1.17827 0.33998,-0.0826 0.66454,0.16834 0.9195,-0.1773 0.34568,-0.01 0.42243,0.58047 0.63398,0.78157 0.22368,-0.16234 0.68936,0.0118 0.75415,-0.28552 -0.0508,-0.3528 0.13134,-0.31698 0.32951,-0.26844 0.19796,0.0482 0.4146,0.11885 0.45658,-0.13793 0.0499,-0.18873 0.15006,-0.14912 0.23727,-0.16363 l -0.0219,-0.0381 0.12281,-0.0969 0.024,-0.0907 0.17675,-0.1796 0.059,0.14486 0.3448,0.28514 0.089,0.15277 0.18137,0.048 0.12086,0.0319 0.0319,-0.12085 0.0909,0.024 0.32609,-0.0108 0.27817,0.17051 0.0909,0.024 0.12084,0.0319 0.38209,-0.22237 0.12772,-0.48341 0.47253,-0.19827 0.0319,-0.12086 0.11484,-0.0666 0.0559,-0.21154 0.0479,-0.18118 -0.0909,-0.024 -0.3608,-0.22462 0.19468,-0.36881 0.11481,-0.0665 0.15278,-0.089 -0.041,-0.33417 0.0479,-0.18118 0.0319,-0.12085 0.33927,-0.42751 0.0909,0.024 0.12086,0.0319 0.0909,0.024 0.27819,0.17043 0.17071,-0.27812 -0.24634,-0.2914 0.16873,-0.14925 0.0319,-0.12086 -0.0969,-0.12261 -0.0774,-0.4406 0.21312,-0.073 0.14481,-0.0588 0.30222,0.0799 0.15722,0.13857 0.12085,0.0319 0.059,0.14486 -0.11482,0.0665 0.011,0.32614 0.22229,0.38197 -0.19465,0.3688 0.41666,0.0133 -0.0669,-0.11471 0.0319,-0.12085 0.0479,-0.18117 0.0319,-0.12086 0.17074,-0.27821 0.0909,0.024 0.024,-0.0906 0.23537,-0.0347 -0.15554,-0.2674 -0.15742,-0.13861 0.0319,-0.12086 0.22926,-0.13326 0.15277,-0.089 0.0909,0.024 0.0909,0.024 0.15568,0.26734 0.0909,0.024 0.67324,-0.46857 0.024,-0.0906 0.38198,-0.22239 0.11173,-0.4229 0.33917,-0.42753 0.18136,0.048 0.58255,-0.49254 0.14677,-0.18752 0.024,-0.0907 0.2674,-0.15555 0.41665,0.0133 0.41392,-0.34324 0.0239,-0.0906 -0.16642,-0.5935 -0.0669,-0.1146 -0.21143,-0.0559 -0.358,0.13162 -0.17962,-0.17675 -0.15723,-0.13845 0.024,-0.0906 -0.089,-0.15278 0.10378,-0.39282 0.10377,-0.39283 0.15278,-0.0889 0.024,-0.0906 0.0239,-0.0906 0.0319,-0.12085 0.024,-0.0907 0.20514,-0.0427 0.15278,-0.089 z"
       id="MD-02"
       style="font-style:normal;font-weight:400;font-size:34.375px;font-family:'MS Shell Dlg 2';opacity:1;fill:none;fill-opacity:1;fill-rule:evenodd;stroke:#000000;stroke-width:0.33333385;stroke-linecap:square;stroke-linejoin:bevel;stroke-miterlimit:4;stroke-dasharray:none;stroke-opacity:1" />
    <path
       inkscape:connector-curvature="0"
       d="m 332.76387,417.89119 c -0.0876,0.0144 -0.18596,-0.0247 -0.23727,0.16362 -0.042,0.25689 -0.25867,0.18631 -0.45659,0.13794 -0.19796,-0.0482 -0.38037,-0.0844 -0.3295,0.26844 -0.0651,0.29723 -0.53047,0.12318 -0.75416,0.28553 -0.21154,-0.20112 -0.28831,-0.7914 -0.63398,-0.78159 -0.255,0.34584 -0.57952,0.0947 -0.91949,0.1773 -0.29167,0.29354 -0.0834,0.8167 -0.31132,1.17828 -0.14724,0.45156 -0.0528,0.89497 -0.0335,1.34876 -0.10443,0.35614 -0.57876,0.33498 -0.72912,0.68012 -0.25771,0.10909 -0.44005,-0.01 -0.60427,-0.15965 -0.16428,-0.15015 -0.33833,-0.32253 -0.55633,-0.34104 -0.50101,0.0997 -0.81299,-0.22855 -1.26108,-0.36545 -0.16555,-0.0417 -0.40243,-0.18566 -0.49586,-0.32494 -0.0935,-0.13932 -0.0482,-0.2885 0.25481,-0.35293 0.59201,-0.20146 1.10398,-0.54787 1.55178,-0.9798 -0.0579,-0.12958 -0.1051,-0.357 -0.0918,-0.50905 0.0134,-0.15214 0.0789,-0.24384 0.32785,-0.13968 0.48368,0.16429 1.07805,0.10813 1.50333,-0.18462 0.50258,-0.13706 0.71467,-0.64617 1.2,-0.74963 -0.0323,-0.14775 -0.098,-0.2915 -0.11564,-0.41842 -0.0182,-0.12696 0.0354,-0.23971 0.24681,-0.32266 0.13126,-0.1758 0.24996,-0.24104 0.38192,-0.22221 0.132,0.0187 0.27914,0.11636 0.42923,0.21031 0.36589,-0.0241 0.76141,0.12506 1.10717,-0.0307 0.22139,-0.37954 0.35402,-0.80633 0.45612,-1.23703 0.12668,-0.19759 0.0934,-0.35327 -0.0171,-0.42475 -0.11468,-0.0725 -0.30961,-0.0828 -0.46924,-0.0592 -0.075,-0.20392 -0.0448,-0.47425 0.0767,-0.65854 0.12209,-0.18412 0.33415,-0.2672 0.5935,-0.16641 0.43169,0.0333 0.84378,-0.35968 0.97259,-0.74507 -0.002,-0.25708 -0.19544,-0.32429 -0.42754,-0.33917 -0.2321,-0.0151 -0.51051,0.0347 -0.68241,0.0136 -0.30905,-0.027 -0.57771,0.11837 -0.84489,0.26167 -0.26704,0.14324 -0.54422,0.28648 -0.85904,0.19318 -0.25369,-0.0372 -0.30474,-0.12675 -0.26222,-0.23086 0.042,-0.10431 0.2035,-0.21473 0.33748,-0.29869 -0.11423,-0.30004 -0.64629,-0.36697 -0.91722,-0.56568 -0.55032,0.03 -0.96042,-0.31922 -1.30192,-0.69946 -0.37432,-0.29594 -0.6961,-0.69208 -1.1715,-0.82669 -0.26407,-0.24932 -0.36717,-0.16093 -0.43264,0.0474 -0.0653,0.20821 -0.0644,0.52539 -0.11562,0.68044 -0.19505,0.23279 -0.16193,0.43279 -0.0388,0.63619 0.12338,0.20357 0.32475,0.40685 0.38595,0.61913 0.0804,0.51338 0.7026,0.54847 0.98845,0.90761 0.0516,0.0475 -0.006,0.1385 0.0429,0.20538 0.0357,0.003 0.11316,9.7e-4 0.12887,0.002 0.44523,0.0272 0.72235,0.12765 1.14353,0.076 0.20154,-0.0249 0.30264,0.0689 0.33862,0.18638 0.0363,0.11755 0.0186,0.26208 -0.0438,0.40866 -0.0189,0.0322 0.1101,0.14111 0.27828,0.17045 0.1681,0.0292 0.36359,-0.0307 0.42809,-0.27476 0.0449,-0.16977 0.0765,-0.3601 0.13572,-0.51368 0.0592,-0.15347 0.15938,-0.26653 0.38994,-0.25247 0.28655,0.017 0.51338,-0.0528 0.66012,-0.0518 0.14674,0.002 0.20735,0.0714 0.12375,0.38819 -0.12936,0.48961 -0.43961,0.40722 -0.40657,0.9269 0.0129,0.19805 0.0579,0.3415 0.0474,0.43274 -0.0106,0.0911 -0.0732,0.14407 -0.31353,0.20802 -0.31816,0.085 -0.86541,0.36246 -1.25707,0.47586 -0.15392,0.0446 -0.72121,0.29041 -0.81637,0.39849 -0.22149,0.25147 -0.2302,0.43359 -0.50969,0.70572 -0.26346,0.25651 -0.26116,0.62833 -0.63052,0.67379 -0.3452,0.0424 -0.38491,0.11913 -0.46467,0.16808 -0.0792,0.0491 -0.21894,0.0715 -0.69652,-0.0548 -0.39204,-0.10356 -0.53459,-0.0216 -0.88943,0.18524 -0.0305,0.0178 -0.0843,0.0488 -0.11482,0.0666 -0.0954,0.0556 -0.13055,-0.0962 -0.1795,-0.17673 -0.0491,-0.0804 -0.10605,-0.088 -0.18473,0.20978 -0.10861,0.41129 -0.57369,0.62426 -0.9167,0.53353 -0.12684,-0.0335 -0.14,-0.31212 -0.20466,-0.57123 -0.0647,-0.25902 -0.16879,-0.49525 -0.47831,-0.51423 -0.32908,-0.0206 -0.29474,1.1155 -0.56901,1.17491 -0.19505,0.41722 -0.33414,0.55259 -0.4475,0.59286 -0.11305,0.0403 -0.21742,-0.0254 -0.31009,-0.0496 -0.30225,-0.0348 -0.26621,-0.49493 -0.38419,-0.74795 -0.19775,-0.42398 -0.41079,-0.75023 -0.66694,-1.14578 -0.26167,-0.40405 -0.55362,-0.28322 -0.84707,-0.70869 -0.25952,-0.37618 -1.00404,-0.0997 -1.22906,-0.48629 -0.008,-0.009 -0.0949,-0.125 -0.11908,-0.16076 -0.17752,0.125 -0.34835,0.2705 -0.41563,0.47189 0.0735,0.34525 0.5043,0.29294 0.77578,0.36664 0.32391,0.13791 0.42613,0.54493 0.7565,0.68465 0.0737,0.28849 -0.32309,0.474 -0.27549,0.79997 -0.10079,0.34222 0.0612,0.69781 -0.17252,1.02099 -0.12199,0.32079 0.10554,0.64031 0.36808,0.80847 0.26298,0.12822 0.30583,0.54189 0.62933,0.55414 0.29591,0.0396 0.52044,-0.28956 0.82092,-0.17098 0.33186,0.1783 0.65222,0.42522 0.96171,0.64197 0.27972,0.17289 0.20868,0.60186 0.012,0.81117 -0.17319,0.0644 -0.47783,0.12012 -0.25487,0.3528 0.0761,0.32471 -0.34295,0.58117 -0.2535,0.83805 l 0.0608,0.0161 0.47189,0.41563 1.58391,-2.81375 c -0.0216,-0.20831 0.10999,-0.41641 0.26454,-0.51191 0.1523,-0.0961 0.31978,-0.0687 0.39095,0.23259 0.17215,0.15451 0.54624,0.25283 0.79808,0.4048 0.25194,0.152 0.38611,0.36565 0.14257,0.68411 -0.0114,0.19331 0.0116,0.22637 0.0429,0.20529 0.0315,-0.0211 0.0551,-0.0951 0.11583,-0.1957 0.12339,-0.20084 0.31749,-0.42262 0.48685,-0.12995 0.003,0.24967 0.22252,0.49311 0.5068,0.65106 0.28415,0.15803 0.64157,0.20634 0.90806,0.11067 0.14876,0.0512 0.27886,0.11236 0.39272,0.10377 0.11395,-0.008 0.19972,-0.059 0.20866,-0.30036 0.32442,-0.0931 0.40244,-0.43059 0.74175,-0.48284 -0.0349,-0.19272 -0.0913,-0.40083 -0.0759,-0.56948 0.0159,-0.16859 0.11167,-0.27779 0.31531,-0.33682 -0.15849,-0.21202 -0.15431,-0.44985 -0.0455,-0.56157 0.10914,-0.11163 0.31401,-0.0959 0.51367,0.13571 0.11056,0.0914 0.30482,0.218 0.45148,0.24858 0.14658,0.0305 0.24754,-0.0584 0.12576,-0.35463 0.0577,-0.25781 0.35326,-0.18138 0.64597,-0.12029 0.29258,0.0611 0.58228,0.11088 0.66179,-0.18064 0.0681,-0.16767 0.34532,-0.37875 0.57465,-0.46224 0.11467,-0.0418 0.20551,-0.0469 0.25771,0.002 0.0519,0.0503 0.0816,0.16637 0.003,0.3564 -0.0262,0.26739 0.10669,0.22605 0.27011,0.20066 0.16351,-0.0254 0.36482,-0.0592 0.42929,0.21044 0.28857,0.0324 0.29571,0.23875 0.30492,0.43605 0.009,0.19723 -0.009,0.40802 0.26677,0.45836 0.15751,0.40838 0.061,0.95402 0.34715,1.25533 -0.1447,0.10884 -0.28613,0.20335 -0.3375,0.29868 -0.0511,0.0955 8.8e-4,0.17885 0.25423,0.26112 -0.1595,0.11124 -0.39796,0.15178 -0.60937,0.22686 -0.21148,0.0751 -0.39686,0.19261 -0.47608,0.45601 -0.14425,-0.0298 -0.30026,-0.12018 -0.41498,-0.14201 -0.11469,-0.022 -0.20896,0.0255 -0.2913,0.24636 -0.37648,0.36091 -0.36048,0.79396 -0.22842,1.23254 -0.0181,0.10745 -0.10236,0.17982 -0.13975,0.28621 0.54522,0.36084 0.98,0.73284 1.45587,1.09584 l 0.31989,-0.10952 0.089,0.15278 -0.024,0.0907 0.20515,-0.0427 0.0559,-0.21145 -0.035,-0.23545 0.024,-0.0907 0.19465,-0.3687 -0.12529,-0.25941 -0.12085,-0.0319 -0.024,0.0907 -0.2543,-0.26123 0.0319,-0.12086 -0.0669,-0.1146 0.024,-0.0906 0.0319,-0.12085 0.11484,-0.0666 0.12086,0.0319 0.11483,-0.0666 0.12282,-0.0969 0.024,-0.0906 0.23537,-0.0347 0.26734,-0.15568 0.0909,0.024 0.14678,-0.18753 0.024,-0.0906 0.26732,-0.15558 0.17073,-0.27821 -0.0429,-0.20519 -0.22227,-0.38206 -0.2702,-0.20069 -0.27821,-0.17041 -0.1876,-0.14649 0.0319,-0.12085 0.14483,-0.0588 0.19464,-0.36871 -0.035,-0.23554 0.024,-0.0907 0.0319,-0.12086 -0.16358,-0.23704 -0.0996,-0.47895 -0.0111,-0.32605 0.048,-0.18138 -0.17961,-0.17674 -0.2781,-0.17039 -0.36889,-0.19439 -0.059,-0.14486 -0.0969,-0.12262 -0.18137,-0.048 -0.23541,0.0348 -0.0909,-0.024 -0.18759,-0.14659 -0.0909,-0.024 -0.0969,-0.12263 -0.18118,-0.0479 -0.089,-0.15278 -0.1335,-0.22912 -0.0997,-0.47893 0.11481,-0.0665 -0.044,-0.0763 z"
       id="MD-03"
       style="font-style:normal;font-weight:400;font-size:34.375px;font-family:'MS Shell Dlg 2';opacity:1;fill:none;fill-opacity:1;fill-rule:evenodd;stroke:#000000;stroke-width:0.33333385;stroke-linecap:square;stroke-linejoin:bevel;stroke-miterlimit:4;stroke-dasharray:none;stroke-opacity:1" />
    <path
       inkscape:connector-curvature="0"
       d="m 321.71049,431.09967 0.69044,-0.0439 c 0.1182,-0.30648 0.36634,-0.51789 0.69728,-0.55923 0.56763,-0.20749 1.01559,-0.65884 1.58817,-0.87329 0.0987,0.20481 0.30638,0.32485 0.52617,0.33306 0.21983,0.008 0.44757,-0.0928 0.52845,-0.4099 -0.0225,-0.41639 0.17664,-0.48848 0.44591,-0.464 0.26938,0.0245 0.60989,0.12036 0.85562,0.0645 0.23889,-0.0221 0.5256,0.004 0.78896,-0.0501 0.2634,-0.0542 0.50186,-0.16911 0.62713,-0.41619 0.13273,-0.22828 0.1551,-0.46564 0.11562,-0.68045 -0.0404,-0.21515 -0.14837,-0.40265 -0.34146,-0.54283 0.0745,-0.18801 0.14537,-0.42104 0.12168,-0.58193 -0.0237,-0.16088 -0.12357,-0.27292 -0.42131,-0.24061 0.0763,-0.3825 -0.13358,-0.76986 -0.14351,-1.16913 0.29945,-0.16964 0.28709,-0.39374 0.15168,-0.57411 -0.13551,-0.1804 -0.41091,-0.3266 -0.67099,-0.27429 -0.0645,0.0953 -0.21788,0.30868 -0.36943,0.41953 -0.15157,0.11098 -0.28607,0.13418 -0.2782,-0.17041 0.0925,-0.35018 -0.0401,-0.50946 -0.22054,-0.51078 -0.18045,-0.001 -0.42207,0.14396 -0.5508,0.37163 -0.16805,0.19567 -0.36923,0.39685 -0.58254,0.49253 -0.21342,0.0957 -0.42744,0.11297 -0.65049,-0.10727 -0.10123,0.21861 -0.41661,0.26498 -0.66979,0.2109 -0.2533,-0.054 -0.44262,-0.2148 -0.28904,-0.49661 -0.0512,-0.20571 -0.12993,-0.47205 -0.13451,-0.71425 -0.004,-0.24212 0.061,-0.46578 0.32664,-0.6248 3.6e-4,-0.30746 0.0446,-0.78805 0.41623,-1.086 0.0138,-0.19614 0.0731,-0.46838 0.19759,-0.62652 0.12452,-0.15813 0.30948,-0.20752 0.5313,-0.0535 0.0135,0.32903 0.14272,0.30383 0.29238,0.23891 0.14977,-0.065 0.32934,-0.17074 0.41676,0.0133 -0.15307,0.2231 -0.093,0.31274 0.025,0.39449 0.11513,0.081 0.27157,0.14344 0.24624,0.29137 -0.14613,0.21645 -0.10942,0.33972 -0.005,0.38658 0.10385,0.0465 0.26956,0.0344 0.43265,-0.0474 0.13364,-0.29836 0.37228,-0.35209 0.6333,-0.31747 0.26113,0.0346 0.54158,0.15344 0.79364,0.17732 0.50827,0.30765 1.16629,0.065 1.60748,0.52164 0.23228,0.2252 0.26319,0.57129 0.3141,0.89109 0.0508,0.31981 0.10868,0.60059 0.45259,0.73365 0.10081,0.22958 0.23515,0.57454 0.40636,0.7862 0.17132,0.21168 0.38424,0.29834 0.73488,0.0326 0.34769,0.19042 0.63896,0.0973 0.83508,-0.10248 0.12592,-0.1282 0.16773,-0.32949 0.23459,-0.51993 0,0 0,0 0,0 0.0384,-0.10612 0.12073,-0.179 0.13975,-0.2862 -0.13176,-0.43851 -0.14776,-0.87156 0.22842,-1.23255 0.0822,-0.22084 0.17655,-0.2681 0.2913,-0.24636 0.11468,0.022 0.27075,0.11208 0.41499,0.14202 0.0799,-0.26322 0.26459,-0.38095 0.47608,-0.45601 0.2114,-0.0751 0.44986,-0.11562 0.60937,-0.22687 -0.25361,-0.0822 -0.30559,-0.16575 -0.25424,-0.2611 0.0511,-0.0953 0.1928,-0.18985 0.33751,-0.29871 -0.28624,-0.3013 -0.18965,-0.84693 -0.34716,-1.25532 -0.27611,-0.0502 -0.25746,-0.26102 -0.26676,-0.45834 -0.009,-0.19723 -0.0164,-0.40357 -0.30492,-0.43606 -0.0644,-0.26962 -0.26579,-0.23583 -0.4293,-0.21045 -0.16341,0.0255 -0.29579,0.0668 -0.2701,-0.20065 0.0792,-0.18989 0.0489,-0.30608 -0.003,-0.3564 -0.0519,-0.0502 -0.14303,-0.045 -0.25771,-0.002 -0.22934,0.0834 -0.50646,0.2946 -0.57466,0.46224 -0.0772,0.29218 -0.36921,0.24181 -0.66179,0.18065 -0.29271,-0.0611 -0.58722,-0.13726 -0.64596,0.12027 0.12157,0.29619 0.0206,0.38515 -0.12576,0.35465 -0.14667,-0.0306 -0.34092,-0.15731 -0.45148,-0.24857 -0.19967,-0.23159 -0.40493,-0.24746 -0.51368,-0.13573 -0.10912,0.11163 -0.11303,0.34952 0.0455,0.56158 -0.20364,0.0591 -0.29972,0.1682 -0.31531,0.33683 -0.0158,0.1686 0.041,0.3768 0.0759,0.56946 -0.33931,0.0523 -0.41733,0.38983 -0.74175,0.48285 -0.009,0.24131 -0.0947,0.29189 -0.20865,0.30036 -0.11387,0.009 -0.24397,-0.0526 -0.39272,-0.10377 -0.26649,0.0957 -0.6239,0.0473 -0.90807,-0.11066 -0.28428,-0.15798 -0.50469,-0.40145 -0.5068,-0.65107 -0.16936,-0.29267 -0.36335,-0.071 -0.48685,0.12995 -0.0618,0.10046 -0.0854,0.17437 -0.11583,0.19569 -0.0315,0.0212 -0.0546,-0.0123 -0.0429,-0.20528 0.24352,-0.31846 0.10954,-0.53208 -0.14258,-0.68412 -0.25183,-0.15198 -0.62593,-0.25029 -0.79808,-0.40479 -0.0711,-0.30138 -0.23866,-0.32867 -0.39096,-0.23259 -0.15239,0.0961 -0.28652,0.30348 -0.26453,0.51191 l -1.58391,2.81375 0,0 -0.24858,0.45148 0.0936,0.38021 -0.29314,0.37516 2.04987,2.02834 -2.78151,2.82065 -0.0319,0.12085 -0.024,0.0906 -0.024,0.0906 0.011,0.32624 -0.0319,0.12086 -0.0479,0.18118 0.12086,0.0319 -0.0559,0.21154 -0.024,0.0907 -0.0319,0.12087 z"
       id="MD-04"
       style="font-style:normal;font-weight:400;font-size:34.375px;font-family:'MS Shell Dlg 2';opacity:1;fill:none;fill-opacity:1;fill-rule:evenodd;stroke:#000000;stroke-width:0.33333385;stroke-linecap:square;stroke-linejoin:bevel;stroke-miterlimit:4;stroke-dasharray:none;stroke-opacity:1" />
    <path
       inkscape:connector-curvature="0"
       d="m 333.87212,426.29696 c -0.47586,-0.363 -0.91066,-0.73501 -1.45587,-1.09584 -0.0669,0.19043 -0.10388,0.39299 -0.2346,0.51991 -0.19614,0.19973 -0.48739,0.29292 -0.83509,0.10248 -0.35064,0.26585 -0.56356,0.17918 -0.73487,-0.0326 -0.17121,-0.21165 -0.30554,-0.55662 -0.40636,-0.78618 -0.34391,-0.13307 -0.40171,-0.41385 -0.45259,-0.73366 -0.0508,-0.31981 -0.0818,-0.66589 -0.3141,-0.8911 -0.44119,-0.45665 -1.09921,-0.21398 -1.60748,-0.52162 -0.25206,-0.0239 -0.5325,-0.14277 -0.79364,-0.17732 -0.26102,-0.0347 -0.49995,0.0191 -0.6333,0.31746 -0.1631,0.0818 -0.3288,0.0939 -0.43265,0.0473 -0.10393,-0.0466 -0.14114,-0.1701 0.005,-0.38658 0.0256,-0.14787 -0.1311,-0.21037 -0.24623,-0.29138 -0.11513,-0.0809 -0.17842,-0.17146 -0.025,-0.39448 -0.0874,-0.18383 -0.26709,-0.0778 -0.41677,-0.0133 -0.14966,0.0649 -0.27869,0.0903 -0.29238,-0.23891 -0.22182,-0.15397 -0.40683,-0.10441 -0.5313,0.0535 -0.12453,0.15813 -0.18404,0.43036 -0.1976,0.62651 -0.37164,0.29794 -0.41605,0.77844 -0.41622,1.086 -0.26545,0.15908 -0.33122,0.38258 -0.32664,0.62479 0.004,0.24212 0.0832,0.50855 0.13451,0.71426 -0.15311,0.28195 0.0358,0.44252 0.28903,0.49661 0.25319,0.0541 0.56869,0.008 0.6698,-0.21091 0.22305,0.2202 0.43707,0.20288 0.65048,0.10727 0.21333,-0.0957 0.4145,-0.29687 0.58255,-0.49253 0.12843,-0.22775 0.37036,-0.37297 0.5508,-0.37163 0.18036,0.001 0.31017,0.15984 0.22054,0.51078 -0.007,0.30457 0.12663,0.28138 0.27821,0.17042 0.15153,-0.11086 0.30532,-0.32416 0.36942,-0.41955 0.26009,-0.0523 0.53548,0.094 0.671,0.27431 0.1354,0.18037 0.14777,0.40446 -0.15169,0.5741 0.01,0.39928 0.21975,0.78662 0.1435,1.16914 0.29774,-0.0323 0.39783,0.0797 0.42132,0.2406 0.0237,0.1609 -0.0472,0.39391 -0.12169,0.58193 0.19311,0.14017 0.30128,0.32773 0.34147,0.54283 0.0405,0.21506 0.0171,0.45219 -0.11561,0.68044 -0.12527,0.24709 -0.36374,0.362 -0.62713,0.4162 -0.26336,0.0541 -0.55008,0.0279 -0.78897,0.0501 -0.24573,0.0558 -0.58625,-0.0399 -0.85561,-0.0645 -0.26948,-0.0245 -0.46851,0.0475 -0.44592,0.46397 -0.0836,0.31634 -0.30863,0.41803 -0.52844,0.40991 -0.2198,-0.008 -0.42752,-0.12826 -0.52618,-0.33306 -0.57259,0.21446 -1.02054,0.6658 -1.58817,0.87329 -0.33094,0.0413 -0.57869,0.25286 -0.69728,0.55923 l -0.69043,0.044 0.0669,0.1146 -0.024,0.0906 0.035,0.23555 -0.024,0.0907 -0.0319,0.12086 -0.024,0.0906 -0.024,0.0906 -0.14677,0.18753 -0.21154,-0.0559 -0.11485,0.0667 -0.0909,-0.024 -0.12086,-0.0319 -0.0909,-0.024 -0.12282,0.0969 -0.024,0.0906 -0.14478,0.0587 -0.12281,0.0969 -0.11484,0.0666 -0.17674,0.1796 -0.11483,0.0666 -0.11481,0.0665 -0.23263,0.39115 -0.0388,0.6362 0.0669,0.1146 -0.024,0.0906 0.035,0.23555 0.13161,0.358 -0.0559,0.21144 -0.0909,-0.024 -0.2914,0.24634 -0.0909,-0.024 -0.23537,0.0347 -0.21146,-0.0559 -0.14674,0.18743 -0.11484,0.0666 -0.48565,0.61514 -0.0559,0.21144 -0.17672,0.17952 -0.17073,0.27822 -0.32607,0.0107 -0.19467,0.3688 -0.0319,0.12086 -0.20067,0.2701 -0.024,0.0907 -0.0798,0.30213 -0.14675,0.18743 -0.10377,0.39283 -0.0798,0.30213 0.13172,0.35802 0.12532,0.25932 -0.024,0.0907 0.065,0.24348 0.0429,0.2052 0.059,0.14486 -0.048,0.18137 -0.0319,0.12086 -0.0798,0.30202 0.0969,0.12263 0.16634,0.59338 0.0669,0.11469 0.33683,0.31531 0.48974,0.22631 0.18752,0.14645 0.47261,-0.19825 0.13881,-0.15736 0.24348,-0.065 0.13874,-0.15717 0.29129,-0.24637 0.24339,-0.065 0.17067,-0.27802 0.0799,-0.30223 0.30212,0.0798 0.0909,0.024 0.12085,0.0319 0.20532,-0.0426 0.17671,-0.1795 0.17074,-0.27822 0.52054,-0.37962 0.15279,-0.0889 0.024,-0.0906 0.11481,-0.0665 0.21145,0.0559 0.33415,-0.041 0.10138,0.34991 0.24634,0.29139 0.0411,0.33406 0.12531,0.25932 -0.024,0.0907 0.12085,0.0319 0.0669,0.11469 0.011,0.32605 0.065,0.24347 -0.024,0.0907 -0.0319,0.12085 0.13331,0.22905 0.065,0.24347 0.27827,0.17055 0.059,0.14487 0.1875,0.14644 0.18137,0.048 0.39896,0.20232 0.035,0.23556 0.0909,0.024 -0.0388,0.6362 0.30204,0.0798 0.45944,0.2184 0.48175,0.25658 0.0909,0.024 0.34328,0.41382 0.0909,0.024 0.14674,-0.18744 0.024,-0.0906 -0.011,-0.32624 -0.13164,-0.35791 -0.059,-0.14487 -0.0669,-0.11469 0.32619,-0.0108 0.1228,-0.0969 0.0909,0.024 0.12086,0.0319 0.31295,0.40603 -0.0319,0.12084 0.0909,0.024 -0.024,0.0906 -0.0388,0.6362 -0.14479,0.0587 0.089,0.15278 0.25431,0.26123 0.3608,0.22461 0.21153,0.0559 0.30204,0.0798 0.0909,0.024 0.0319,-0.12086 0.1388,-0.15736 0.0319,-0.12084 0.12085,0.0319 0.18118,0.0479 0.23547,-0.0347 0.0909,0.024 0.12085,0.0319 0.41665,0.0133 0.12281,-0.0969 0.2354,-0.0348 0.27818,0.17052 0.39273,0.10377 0.23549,-0.0348 0.0909,0.024 0.12085,0.0319 0.76149,0.29822 0.36721,0.32323 0.0909,0.024 0.0669,0.1146 0.12086,0.0319 0.059,0.14487 0.0669,0.1147 0.12084,0.0319 0.035,0.23555 -0.024,0.0906 0.0669,0.1146 0.089,0.15279 0.10152,0.35014 0.19828,0.47254 0.14481,-0.0588 0.12282,-0.0969 0.0909,0.024 0.14478,-0.0587 0.15725,0.13847 0.12085,0.0319 0.059,0.14487 -0.024,0.0907 0.15564,0.26744 0.0909,0.024 0.13163,0.35789 0.0909,0.024 0.12281,-0.0969 0.024,-0.0906 -0.0669,-0.1146 0.0319,-0.12086 0.0799,-0.30222 0.0479,-0.18118 0.0319,-0.12086 0.32609,-0.0108 0.0909,0.024 0.0969,0.12262 0.12552,0.25937 0.0969,0.12252 0.10133,0.3501 0.12085,0.0319 0.0909,0.024 0.0909,0.024 0.14482,-0.0588 0.15721,0.13856 0.12086,0.0319 0.24636,0.29129 0.0669,0.11461 0.15556,0.2674 0.19846,0.47258 0.14926,0.16872 0.21153,0.0559 0.12282,-0.0969 0.17951,0.17672 0.0669,0.11469 0.18758,0.14659 0.024,-0.0907 0.024,-0.0907 -0.13175,-0.35792 -0.10131,-0.3501 -0.0759,-0.56949 0.0559,-0.21153 -0.16367,-0.23707 -0.059,-0.14488 0.048,-0.18137 0.14675,-0.18742 0.0559,-0.21145 0.16879,-0.14944 -0.19031,-0.5027 -0.37517,-0.29315 -0.24616,-0.29125 -0.10155,-0.35005 -0.12085,-0.0319 -0.28896,-0.49649 -0.15566,-0.26743 -0.035,-0.23556 -0.33009,-0.83057 0.024,-0.0906 0.0319,-0.12085 -0.0909,-0.024 0.024,-0.0907 0.024,-0.0907 0.0559,-0.21145 0.0909,0.024 0.22465,-0.36089 0.12282,-0.0969 0.024,-0.0906 0.0239,-0.0906 -0.21154,-0.0559 -0.45148,-0.24858 -0.0729,-0.2133 -0.059,-0.14486 0.12772,-0.48341 0.3711,-0.5484 0.0155,-0.5455 -0.035,-0.23555 -0.0909,-0.024 -0.2783,-0.17046 -0.31909,-0.50454 -0.37168,-0.55061 -0.12085,-0.0319 -0.27828,-0.17054 -0.0669,-0.1147 0.0319,-0.12085 -0.0909,-0.024 0.024,-0.0906 -0.27829,-0.17045 -0.15556,-0.2674 -0.43385,-0.43785 -0.22221,-0.38193 0.024,-0.0907 -0.0909,-0.024 0.0319,-0.12086 -0.265,-0.58717 0.0559,-0.21145 -0.0969,-0.12252 0.11173,-0.42309 -0.011,-0.32604 -0.011,-0.32624 -0.0411,-0.33397 0.0688,-0.62828 0.024,-0.0907 -0.13162,-0.358 -0.035,-0.23546 -0.0669,-0.1147 -0.0969,-0.12261 0.0319,-0.12085 -0.0669,-0.11461 -0.0758,-0.56954 -0.0669,-0.1146 0.024,-0.0906 -0.035,-0.23555 0.0798,-0.30213 0.024,-0.0906 -0.12085,-0.0319 0.0319,-0.12085 0.024,-0.0907 0.0798,-0.30213 0.024,-0.0906 -0.0909,-0.024 -0.32605,0.0107 -0.15568,-0.26734 -0.13326,-0.22925 -0.0411,-0.33397 -0.011,-0.32624 0.0909,0.024 0.0319,-0.12085 0.14479,-0.0587 0.11481,-0.0665 0.0909,0.024 0.0319,-0.12086 0.14482,-0.0588 0.024,-0.0907 0.0319,-0.12085 0.024,-0.0906 0.024,-0.0906 0.35812,-0.13169 0.024,-0.0907 0.17068,-0.27803 0.0319,-0.12086 0.024,-0.0907 0.0798,-0.30214 0.0559,-0.21144 0.024,-0.0907 -0.13163,-0.358 -0.11481,0.0665 -0.12281,0.0969 -0.12085,-0.0319 -0.0909,-0.024 -0.035,-0.23545 -0.0969,-0.12252 0.26733,-0.15567 0.14678,-0.18754 0.20064,-0.2701 0.0909,0.024 0.024,-0.0907 -0.035,-0.23554 -0.0969,-0.12253 0.024,-0.0906 -0.035,-0.23556 0.0909,0.024 0.0379,-0.0222 z"
       id="MD-05"
       style="font-style:normal;font-weight:400;font-size:34.375px;font-family:'MS Shell Dlg 2';opacity:1;fill:none;fill-opacity:1;fill-rule:evenodd;stroke:#000000;stroke-width:0.33333385;stroke-linecap:square;stroke-linejoin:bevel;stroke-miterlimit:4;stroke-dasharray:none;stroke-opacity:1" />
    <path
       inkscape:connector-curvature="0"
       d="m 317.24399,423.29342 c 0.10034,-0.0589 0.20461,-0.11907 0.30556,-0.17784 0.14179,-0.0825 0.31549,0.18472 0.3608,0.22462 0.17897,0.15764 0.3058,0.43628 0.60716,0.51591 0.23685,0.0627 0.39365,0.31201 0.57056,0.40933 0.18264,0.10061 0.0896,-0.41353 0.18963,-0.59635 0.23282,-0.42276 0.0717,-0.88721 -0.12754,-1.22957 7.7e-4,-0.003 -0.5628,-0.25317 -0.73598,-0.51768 -0.20806,-0.31768 -0.24717,-0.28788 -0.15047,-0.65383 0.0234,-0.0886 0.0484,-0.1833 0.0718,-0.27196 0.0491,-0.18544 0.0967,-0.36604 0.2106,-0.42914 0.193,-0.11234 0.4808,0.23708 0.56437,0.31066 0.009,0.007 0.0164,0.028 0.0219,0.0381 0.0978,0.16816 0.57304,0.18585 0.67266,0.14546 0.059,-0.024 0.34734,0.85096 0.65614,0.81981 0.17787,-0.0179 0.2936,0.0471 0.34827,0.0274 0.0548,-0.0196 0.0452,-0.11239 0.0369,-0.50742 -0.007,-0.34545 0.14369,-0.54384 -0.24912,-0.64763 -0.43131,-0.11393 -0.55999,-0.21529 -0.78045,-0.59407 -0.0975,-0.16758 -0.29859,-0.25607 -0.44971,-0.3774 -0.0796,-0.13689 0.33415,-0.34086 0.38363,-0.35116 0.0417,-0.008 0.12739,-0.36083 0.14172,-0.41506 0.0694,-0.26289 0.1395,-0.19917 -0.009,-0.45492 -0.11198,-0.19238 -0.52058,-0.44743 -0.71993,-0.57808 -0.26095,-0.17104 -0.29929,0.22656 -0.46744,-0.18815 -0.0872,-0.215 -0.2543,-0.50005 -0.4845,-0.61289 -0.0504,-0.0247 -0.15805,-0.29052 -0.20014,-0.34374 -0.0888,-0.1123 -0.19168,-0.15417 -0.3466,-0.15621 -0.22066,-0.003 -0.19504,-0.0228 -0.34659,-0.15622 -0.0822,-0.0722 -0.0997,-0.23683 -0.17784,-0.30557 -0.11799,-0.10388 -0.0566,-0.20886 -0.22408,-0.25313 -0.18736,-0.0495 -0.42941,-0.0807 -0.54373,-0.14368 -0.10248,-0.0564 0.0588,-0.22255 0.11776,-0.32437 0.0791,-0.14292 0.10379,-0.13847 0.19271,-0.24003 0.0739,-0.0838 -0.12676,-0.39913 -0.19835,-0.47265 -0.11684,-0.11993 -0.21322,-0.32237 -0.29702,-0.46635 -0.0469,-0.0807 -0.27178,-0.0719 -0.36256,-0.0958 -0.0938,-0.0247 -0.23007,-0.0284 -0.34029,-0.0576 -0.137,-0.0362 -0.28599,-0.0755 -0.423,-0.11173 -0.14501,-0.0383 -0.27795,-0.0735 -0.42297,-0.11173 -0.15643,-0.0413 -0.17049,-0.15024 -0.26221,-0.23094 -0.12462,-0.10967 -0.28205,-0.21105 -0.37512,-0.29294 -0.0537,-0.0476 0.31214,-0.57815 0.31877,-0.5946 0.004,-0.0159 0.003,-0.0141 0.009,-0.0303 0.0634,-0.23977 0.21444,-0.37589 0.3774,-0.44971 0.16287,-0.0739 0.34249,-0.10345 0.53131,-0.0536 0.0909,0.024 0.17311,-0.0414 0.13878,-0.15727 -0.0345,-0.11597 -0.19535,-0.27223 -0.5404,-0.40136 -0.41577,-0.15557 -0.29322,-0.65927 -0.76272,-0.78332 -0.30812,-0.0814 -0.14717,-0.13271 -0.065,-0.24337 0.14618,-0.197 0.0688,-0.29937 -0.041,-0.33416 -0.11121,-0.0357 -0.26564,0.001 -0.29585,0.0188 -0.38538,0.22429 -0.008,0.25851 -0.41399,0.34312 -0.29101,0.0606 -0.51821,0.0542 -0.69371,0.30149 -0.0745,0.1053 -0.0878,0.32983 -0.0898,0.46117 -0.003,0.20269 -0.11896,0.37589 -0.24856,0.45149 -0.15621,0.0909 -0.003,0.36365 0.0552,0.40246 0.44993,0.29481 0.13213,0.30599 0.72967,0.41909 0.17366,0.0328 -0.14478,0.33264 -0.22658,0.48956 -0.13132,0.25429 0.0925,0.32718 -0.11779,0.32447 -0.29075,-0.004 -0.45581,0.25711 -0.53018,0.53864 -0.054,0.20439 -0.0189,0.18894 -0.25935,0.12541 -0.22208,-0.0587 -0.33925,-0.31241 -0.44015,-0.53652 -0.10082,-0.224 -0.19186,-0.3942 -0.36702,-0.32319 -0.1542,0.0625 -0.3576,-0.0185 -0.60779,0.098 -0.0825,0.0381 -0.94384,0.22714 -0.99586,0.22166 -0.11725,-0.012 -0.22331,-0.0439 -0.3404,-0.0575 -0.3331,-0.0389 -0.43335,0.0147 -0.75704,-0.0707 -0.0976,-0.0258 -0.12386,-0.0171 -0.22742,0.005 -0.19356,-0.0512 0.13051,-0.37262 0.18164,-0.56618 0.10873,-0.41147 0.2046,-0.77433 0.28135,-1.18618 0.0582,-0.32979 0.17688,-0.42678 0.25153,-0.70929 0.0711,-0.26926 0.0991,-0.41825 0.11571,-0.68052 0.0127,-0.21202 0.22058,-0.11694 -0.025,-0.3945 -0.0669,-0.0756 -0.0689,-0.22839 -0.0411,-0.33406 0.0543,-0.20544 0.10159,-0.4513 0.19762,-0.6266 0.0758,-0.13831 0.20829,-0.29902 0.25655,-0.48165 0.0617,-0.23369 0.12187,-0.46127 0.18361,-0.69495 0.0593,-0.2246 0.15371,-0.46041 0.21355,-0.68694 0.072,-0.27206 0.16985,-0.47446 0.36487,-0.64696 0.10684,-0.095 0.29659,-0.19822 0.42809,-0.27477 0.10385,-0.0603 0.32405,-0.0842 0.45669,-0.13791 0.2824,-0.11446 0.46254,-0.95833 0.65337,-1.24955 0.0506,-0.0776 -0.10343,-0.12642 -0.0271,-0.26573 0.0295,-0.0531 0.0395,-0.0908 0.0699,-0.14318 0.14333,-0.24109 0.37879,-0.51762 0.59407,-0.78044 l -0.0599,-0.0159 -0.5615,0.0456 -0.18138,-0.048 -0.66013,0.0518 -0.21145,-0.0559 -0.5376,-0.0451 -0.12281,0.0969 -0.62823,-0.069 -1.40288,0.0494 -0.12086,-0.0319 -1.07693,0.0387 -0.0909,-0.024 -0.12085,-0.0319 -0.18137,-0.048 -0.0319,0.12085 -0.21145,-0.0559 -0.32605,0.0107 -0.30215,-0.0798 -0.11481,0.0665 -0.12085,-0.0319 -0.9624,-0.0276 -0.20514,0.0428 -0.45502,0.009 -0.18117,-0.0479 -0.12086,-0.0319 -0.44069,0.0773 -0.75074,0.0279 -0.12086,-0.0319 -0.0909,-0.024 -1.07682,0.0387 -1.4092,-0.0491 -0.3262,0.0108 -0.51533,-0.007 -0.65214,0.0215 -0.21145,-0.0559 -0.24337,0.065 -0.50737,-0.0371 -0.62822,-0.069 -0.45502,0.009 -0.41664,-0.0133 -0.56945,0.0758 -0.30223,-0.0799 -1.07684,0.0388 -0.0909,-0.024 -0.12086,-0.0319 -0.86524,0.0945 -0.95441,-0.0582 -0.30205,-0.0798 -0.15278,0.0889 -0.0909,-0.024 -0.23548,0.0347 -0.30203,-0.0798 -0.41675,-0.0133 -0.12281,0.0969 -0.86373,-0.0342 -0.0909,-0.024 -0.33397,0.0411 -0.30223,-0.0798 -0.32597,0.0108 -0.23547,0.0347 -0.42466,0.0171 -0.30224,-0.0799 -0.44686,-0.0206 -0.11483,0.0666 -0.33407,0.0411 -0.21145,-0.0559 -0.50734,-0.0372 -0.32617,0.0107 -0.33396,0.0411 -0.12085,-0.0319 -0.41678,-0.0133 -0.0909,-0.024 -0.12087,-0.0319 -0.32618,0.0108 -0.42466,0.0171 -0.23547,0.0347 -0.0909,-0.024 -0.53762,-0.0451 -0.0909,-0.024 -0.12281,0.0969 -0.62822,-0.069 -0.44707,-0.0206 -0.21311,0.073 -0.32618,0.0107 -2.46208,-0.10098 -0.0909,-0.024 -0.23539,0.0347 -0.6282,-0.0691 -2.57672,-0.0344 -0.89555,0.0867 -0.0909,-0.024 -0.21154,-0.0559 -0.84132,0.004 -0.32616,0.0107 -0.45482,0.009 -1.16753,0.0148 -1.91655,-0.0863 -0.006,1.61442 -0.0448,0.53769 -0.024,0.0906 0.0411,0.33407 -0.0583,0.95427 -0.004,0.8716 0.0429,0.20538 -0.0707,0.75705 -0.12085,-0.0319 0.073,0.2131 -0.0319,0.12086 -0.024,0.0907 0.035,0.23556 -0.0651,1.46954 -0.0319,0.12086 -0.0276,0.96238 -0.0175,1.28833 -0.0369,0.50743 -0.0319,0.12086 0.0669,0.11459 -0.0627,0.7268 -0.0688,0.62826 -0.0206,0.44711 -0.024,0.0906 0.12085,0.0319 -0.0798,0.30214 0.0909,0.024 -0.12468,0.83981 0.004,0.84131 0.21143,0.0559 0.20532,-0.0426 0.3579,-0.13164 0.25947,-0.1255 0.29134,-0.24614 0.0319,-0.12085 0.048,-0.18137 0.1228,-0.0969 0.11482,-0.0665 0.14479,-0.0587 0.29316,-0.37516 0.20065,-0.27011 0.1388,-0.15736 0.0909,0.024 0.0319,-0.12086 0.12085,0.0319 0.11482,-0.0666 0.0909,0.024 0.14479,-0.0587 0.14677,-0.18753 0.024,-0.0907 0.0319,-0.12085 0.29124,-0.24618 0.32619,-0.0108 0.0909,0.024 0.21143,0.0559 0.18137,0.048 0.024,-0.0907 0.20065,-0.2701 0.0559,-0.21153 -0.0969,-0.12263 0.26732,-0.15557 0.1148,-0.0665 0.15279,-0.089 0.11484,-0.0667 0.0559,-0.21154 0.024,-0.0906 -0.035,-0.23546 0.11484,-0.0667 0.23551,-0.0348 0.0909,0.024 0.0319,-0.12086 0.0909,0.024 0.14479,-0.0587 0.20531,-0.0426 0.20071,-0.2703 0.0319,-0.12085 0.024,-0.0906 0.11482,-0.0666 0.0909,0.024 0.24346,-0.065 0.024,-0.0907 0.024,-0.0907 0.0909,0.024 0.12085,0.0319 0.0319,-0.12085 0.024,-0.0906 0.0239,-0.0906 0.0559,-0.21154 0.11483,-0.0666 0.0909,0.024 -0.024,0.0907 0.12085,0.0319 0.0909,0.024 0.024,-0.0907 0.0319,-0.12085 0.024,-0.0906 0.0909,0.024 0.12086,0.0319 0.024,-0.0906 0.0319,-0.12085 0.024,-0.0907 0.024,-0.0907 0.12282,-0.0969 0.1148,-0.0665 0.024,-0.0906 0.0319,-0.12086 0.14481,-0.0588 0.11485,-0.0667 0.11173,-0.42289 0.024,-0.0907 -0.0909,-0.024 0.024,-0.0907 0.0319,-0.12086 0.0909,0.024 0.0909,0.024 0.12085,0.0319 0.34992,-0.10138 0.15743,0.13851 0.12085,0.0319 0.024,-0.0906 0.0319,-0.12086 0.024,-0.0907 0.024,-0.0907 0.0909,0.024 0.18749,0.14656 0.0669,0.1147 -0.0319,0.12086 0.0909,0.024 -0.024,0.0906 0.12085,0.0319 0.11482,-0.0666 0.0909,0.024 0.18761,0.14649 0.0909,0.024 0.0969,0.12252 0.0909,0.024 0.0909,0.024 0.12085,0.0319 0.14945,0.16878 0.12085,0.0319 0.0669,0.1147 0.0909,0.024 -0.024,0.0907 0.12086,0.0319 0.11484,-0.0666 0.024,-0.0907 0.0448,-0.53758 0.11484,-0.0667 0.14675,-0.18742 0.024,-0.0906 0.0319,-0.12085 -0.0909,-0.024 0.024,-0.0907 0.0909,0.024 0.14481,-0.0588 0.12282,-0.0969 0.21144,0.0559 0.17068,-0.27802 0.33927,-0.42753 0.0559,-0.21154 0.11484,-0.0666 0.0909,0.024 0.12084,0.0319 0.0319,-0.12084 0.13874,-0.15717 0.0319,-0.12085 0.024,-0.0907 0.34722,-0.45769 0.024,-0.0907 0.024,-0.0907 0.0319,-0.12085 0.0909,0.024 0.024,-0.0906 0.0909,0.024 0.21154,0.0559 0.0909,0.024 0.12085,0.0319 0.14674,-0.18744 -0.0669,-0.11469 -0.0969,-0.12261 -0.0909,-0.024 -0.059,-0.14487 0.0479,-0.18119 0.0909,0.024 0.17073,-0.27821 0.0319,-0.12085 0.0479,-0.18118 0.21144,0.0559 -0.0239,0.0906 0.0909,0.024 0.024,-0.0906 0.0319,-0.12085 -0.0669,-0.11471 0.024,-0.0907 -0.0909,-0.024 -0.065,-0.24337 0.0239,-0.0906 0.17675,-0.1796 0.0909,0.024 0.0909,0.024 0.14482,-0.0588 0.0319,-0.12086 0.024,-0.0906 0.0909,0.024 0.024,-0.0906 0.0909,0.024 -0.024,0.0906 -0.024,0.0906 -0.0319,0.12085 -0.13879,0.15737 -0.0319,0.12085 -0.024,0.0906 0.0909,0.024 0.12085,0.0319 0.0909,0.024 0.0909,0.024 0.14479,-0.0587 0.0319,-0.12086 0.0909,0.024 0.0909,0.024 0.12085,0.0319 0.0909,0.024 0.059,0.14486 -0.024,0.0906 -0.11481,0.0665 -0.0319,0.12085 -0.0909,-0.024 -0.024,0.0907 -0.12085,-0.0319 0.024,-0.0907 -0.0909,-0.024 -0.0909,-0.024 -0.2354,0.0348 -0.14677,0.18752 -0.024,0.0906 0.0909,0.024 -0.024,0.0906 0.0909,0.024 -0.0319,0.12085 0.12085,0.0319 -0.024,0.0907 0.15741,0.13861 0.12086,0.0319 0.18118,0.0479 0.024,-0.0907 0.024,-0.0907 0.15279,-0.0889 0.0909,0.024 -0.0319,0.12084 0.0429,0.20539 0.089,0.15279 -0.024,0.0906 0.0909,0.024 -0.024,0.0906 0.0909,0.024 0.12085,0.0319 0.14945,0.16877 0.12085,0.0319 0.0909,0.024 0.0909,0.024 0.12085,0.0319 -0.024,0.0907 -0.024,0.0907 0.18137,0.048 0.21144,0.0559 0.0909,0.024 0.089,0.15279 0.18138,0.048 0.56946,-0.0759 0.024,-0.0907 0.0909,0.024 0.21144,0.0559 0.0909,0.024 0.12085,0.0319 0.0909,0.024 0.0909,0.024 0.12086,0.0319 -0.024,0.0907 0.0909,0.024 0.21145,0.0559 0.15742,0.13861 0.12085,0.0319 0.20514,-0.0428 0.12086,0.0319 0.0909,0.024 0.23552,-0.0348 0.12279,-0.0969 0.0909,0.024 0.12085,0.0319 0.024,-0.0906 0.15744,0.13852 0.21144,0.0558 0.0909,0.024 0.21154,0.0559 0.024,-0.0906 0.0909,0.024 0.21145,0.0559 0.0909,0.024 0.1448,-0.0587 0.0559,-0.21156 0.024,-0.0907 -0.089,-0.15277 0.14479,-0.0587 0.0909,0.024 0.024,-0.0906 0.0319,-0.12084 0.0909,0.024 0.12086,0.0319 0.0909,0.024 0.024,-0.0907 0.024,-0.0907 0.1228,-0.0969 0.0889,0.15278 0.0909,0.024 0.0319,-0.12084 0.024,-0.0906 -0.0909,-0.024 0.024,-0.0906 -0.12086,-0.0319 -0.2701,-0.20064 -0.27826,-0.17056 -0.0669,-0.11469 -0.059,-0.14486 0.0479,-0.18118 0.0319,-0.12087 0.0909,0.024 0.024,-0.0907 0.0909,0.024 0.42308,0.11174 0.0669,0.11471 0.0909,0.024 -0.0319,0.12085 0.21155,0.0559 0.24346,-0.065 0.024,-0.0907 0.024,-0.0907 0.0319,-0.12087 -0.1876,-0.14647 -0.21155,-0.0559 -0.15725,-0.13846 -0.089,-0.15277 -0.13345,-0.22932 -0.12086,-0.0319 0.0319,-0.12085 0.14479,-0.0587 0.0909,0.024 0.11481,-0.0665 0.0969,0.12252 0.39272,0.10377 0.0669,0.11459 0.21144,0.0559 0.0909,0.024 0.12085,0.0319 0.024,-0.0906 -0.0969,-0.12252 -0.14925,-0.16872 0.024,-0.0907 0.024,-0.0907 0.0909,0.024 0.12281,-0.0969 0.12085,0.0319 -0.0319,0.12084 0.0909,0.024 0.0909,0.024 0.15279,-0.0889 0.024,-0.0906 -0.12085,-0.0319 -0.0669,-0.11461 0.0319,-0.12085 0.0909,0.024 0.024,-0.0907 0.27807,0.17049 0.12086,0.0319 0.0909,0.024 0.21155,0.0559 0.18117,0.0479 0.12086,0.0319 0.18138,0.048 0.12085,0.0319 0.059,0.14487 0.21144,0.0559 0.18137,0.048 0.12086,0.0319 0.0319,-0.12085 0.024,-0.0907 0.0559,-0.21154 0.17068,-0.27802 0.11485,-0.0666 0.14481,-0.0588 0.0319,-0.12085 0.0909,0.024 0.25941,-0.12529 0.0319,-0.12085 0.024,-0.0907 -0.0969,-0.12261 -0.18137,-0.048 0.0319,-0.12086 0.024,-0.0906 0.0909,0.024 0.41666,0.0133 0.15278,-0.089 0.11484,-0.0666 0.0798,-0.30214 0.0909,0.024 0.024,-0.0906 0.15277,-0.089 0.0909,0.024 0.0909,0.024 0.12085,0.0319 0.0909,0.024 0.0909,0.024 0.12086,0.0319 0.18118,0.0479 0.21153,0.0559 0.0909,0.024 0.21144,0.0559 0.21144,0.0559 0.0909,0.024 0.0909,0.024 0.12085,0.0319 0.12533,0.25932 0.12084,0.0319 0.11483,-0.0666 0.0669,0.11461 0.12085,0.0319 0.0669,0.11461 0.31297,0.40602 0.12085,0.0319 -0.0319,0.12087 0.0909,0.024 0.18752,0.14646 0.0909,0.024 0.035,0.23546 0.18749,0.14655 -0.024,0.0907 0.31304,0.40582 -0.0319,0.12086 0.12086,0.0319 0.0909,0.024 0.24338,-0.065 0.0909,0.024 0.21154,0.0559 0.11482,-0.0665 0.024,-0.0906 0.12281,-0.0969 0.12086,0.0319 0.0909,0.024 -0.0319,0.12085 0.0909,0.024 -0.024,0.0906 0.12086,0.0319 0.0909,0.024 0.024,-0.0906 0.12281,-0.0969 0.024,-0.0907 -0.0669,-0.1147 0.0319,-0.12086 0.024,-0.0906 0.0909,0.024 0.12086,0.0319 0.035,0.23546 0.0909,0.024 0.0969,0.12261 0.18118,0.0479 0.30222,0.0799 0.12085,0.0319 0.024,-0.0907 0.0909,0.024 0.0319,-0.12085 0.024,-0.0906 0.024,-0.0906 -0.17952,-0.17673 0.32601,-0.0109 0.0969,0.12261 0.0909,0.024 0.0909,0.024 0.12085,0.0319 0.0909,0.024 0.0909,0.024 0.12084,0.0319 0.0909,0.024 0.0909,0.024 -0.0319,0.12085 0.073,0.21312 0.059,0.14487 -0.024,0.0907 -0.024,0.0907 -0.0319,0.12086 -0.0479,0.18119 -0.0319,0.12085 -0.11485,0.0667 -0.30223,-0.0799 -0.23541,0.0348 -0.0909,-0.024 -0.24348,0.065 -0.024,0.0906 -0.0909,-0.024 -0.024,0.0906 -0.0319,0.12085 0.0909,0.024 0.27816,0.17051 0.15555,0.26741 -0.024,0.0906 -0.024,0.0906 0.0909,0.024 -0.0319,0.12086 -0.024,0.0907 -0.024,0.0907 0.059,0.14487 0.12086,0.0319 0.12281,-0.0969 0.2354,-0.0348 0.024,-0.0907 -0.065,-0.24338 0.14478,-0.0587 0.12282,-0.0969 0.059,0.14487 0.12085,0.0319 -0.024,0.0906 -0.0559,0.21144 -0.024,0.0907 -0.38204,0.22229 -0.024,0.0906 -0.0319,0.12085 0.0909,0.024 0.30213,0.0798 0.0909,0.024 0.12085,0.0319 0.18137,0.048 0.12085,0.0319 0.0909,0.024 0.0909,0.024 0.15279,-0.0889 0.11481,-0.0666 0.024,-0.0906 0.0319,-0.12085 0.0909,0.024 0.12086,0.0319 0.0909,0.024 0.0909,0.024 -0.0319,0.12085 -0.024,0.0906 -0.0909,-0.024 -0.024,0.0906 -0.24337,0.065 -0.0909,-0.024 -0.024,0.0907 -0.11484,0.0667 -0.0319,0.12085 -0.024,0.0906 -0.024,0.0906 0.18137,0.048 0.17951,0.17671 -0.024,0.0907 -0.21144,-0.0559 -0.0909,-0.024 -0.024,0.0907 -0.0319,0.12086 0.0669,0.11459 0.21145,0.0559 -0.024,0.0906 -0.0319,0.12085 -0.2354,0.0348 -0.0909,-0.024 -0.024,0.0907 0.0909,0.024 -0.0319,0.12085 0.12086,0.0319 0.0909,0.024 0.0909,0.024 0.30223,0.0799 0.24338,-0.065 0.0909,0.024 0.0889,0.15279 0.0669,0.1146 0.035,0.23546 0.18748,0.14655 -0.024,0.0907 0.0909,0.024 0.089,0.15277 -0.024,0.0906 -0.024,0.0906 -0.0319,0.12085 -0.2354,0.0348 -0.0909,-0.024 -0.024,0.0907 -0.0319,0.12085 0.25415,0.26099 -0.0319,0.12085 0.0669,0.1147 -0.0559,0.21154 -0.11481,0.0665 -0.1448,0.0587 -0.0909,-0.024 -0.0319,0.12085 -0.024,0.0907 0.0669,0.1147 0.12085,0.0319 0.0909,0.024 0.059,0.14487 0.30203,0.0798 0.12086,0.0319 -0.024,0.0906 0.0909,0.024 0.0909,0.024 0.12086,0.0319 0.20512,-0.0426 0.21153,0.0559 0.0909,0.024 0.15277,-0.0889 0.11485,-0.0666 0.0909,0.024 0.12086,0.0319 0.0669,0.11469 0.0909,0.024 0.21145,0.0559 0.059,0.14487 0.12085,0.0319 0.0909,0.024 0.0909,0.024 0.12085,0.0319 0.39272,0.10377 0.12282,-0.0969 0.12085,0.0319 0.0909,0.024 0.0909,0.024 0.12086,0.0319 0.11485,-0.0666 0.11483,-0.0667 0.24338,-0.065 0.059,0.14486 0.12086,0.0319 -0.048,0.18136 0.035,0.23545 0.0669,0.11461 0.0889,0.15278 0.0669,0.1147 0.0909,0.024 -0.024,0.0907 0.12085,0.0319 -0.0319,0.12085 0.18136,0.048 0.21144,0.0559 0.0909,0.024 -0.024,0.0906 0.30223,0.0799 0.21144,0.0559 0.0909,0.024 0.21153,0.0559 -0.024,0.0906 0.059,0.14486 0.27807,0.17049 0.18759,0.14657 0.0909,0.024 -0.0319,0.12086 -0.024,0.0906 -0.024,0.0906 -0.23726,0.16362 -0.024,0.0907 -0.0559,0.21144 0.035,0.23546 -0.11484,0.0666 -0.14482,0.0588 -0.47252,0.19826 -0.12281,0.0969 -0.048,0.18137 -0.0559,0.21144 -0.024,0.0906 -0.0798,0.30224 -0.1528,0.0889 0.073,0.21311 0.059,0.14486 -0.048,0.18138 0.059,0.14486 0.12086,0.0319 0.0669,0.1146 0.21145,0.0559 0.0909,0.024 0.0909,0.024 0.12085,0.0319 0.0909,0.024 0.0669,0.1146 0.12085,0.0319 0.059,0.14487 -0.024,0.0907 0.0909,0.024 -0.024,0.0907 0.0651,0.24337 0.15724,0.13845 -0.0319,0.12087 0.12085,0.0319 0.0909,0.024 0.0909,0.024 0.12085,0.0319 0.18118,0.0479 0.12086,0.0319 0.18137,0.048 0.21144,0.0559 0.21146,0.0559 0.1228,-0.0969 0.30214,0.0798 0.0909,0.024 0.12087,0.0319 0.18136,0.048 0.14479,-0.0587 0.20512,-0.0427 0.21155,0.0559 0.0909,0.024 0.12085,0.0319 0.0909,0.024 0.0909,0.024 0.0969,0.12251 0.0909,0.024 0.0909,0.024 0.12084,0.0319 0.0909,0.024 0.21143,0.0559 0.24637,0.2913 0.15721,0.13855 0.12086,0.0319 0.18138,0.048 0.12085,0.0319 0.0909,0.024 0.0909,0.024 0.045,0.0765 z"
       id="MD-06"
       style="font-style:normal;font-weight:400;font-size:34.375px;font-family:'MS Shell Dlg 2';opacity:1;fill:none;fill-opacity:1;fill-rule:evenodd;stroke:#000000;stroke-width:0.33333385;stroke-linecap:square;stroke-linejoin:bevel;stroke-miterlimit:4;stroke-dasharray:none;stroke-opacity:1" />
    <path
       inkscape:connector-curvature="0"
       d="m 325.01128,411.51168 c -0.10623,0.0849 -0.2699,0.15127 -0.13375,0.38489 0.21981,0.37768 0.24236,0.54562 0.2029,0.70006 -0.0407,0.15401 -0.14108,0.29515 -0.15966,0.60426 -0.007,0.0967 0.14743,0.3538 0.20458,0.57121 0.0572,0.21734 0.0271,0.41005 -0.26275,0.38299 -0.33817,-0.0315 -0.64293,-0.16987 -0.96683,-0.25545 -0.28262,-0.0746 -0.90848,-0.45082 -1.11959,-0.16652 -0.24486,0.32969 -0.6231,0.32026 -0.99591,0.22176 -0.0647,-0.017 -0.11687,-0.031 -0.18136,-0.048 -0.35783,-0.0946 -0.70104,-0.18522 -1.05741,-0.27938 -0.31587,-0.0834 -0.85032,0.0357 -1.0359,0.37275 -0.14713,0.26718 -0.49217,-0.0566 -0.72048,0.036 -0.0383,0.0157 -0.0782,0.0457 -0.11482,0.0665 -0.19104,0.11119 -0.29221,0.60057 -0.0627,0.72678 0.13924,0.0767 0.75247,0.94268 0.93886,1.21782 0,0 0,0 0,0 0.0247,0.0359 0.11397,0.15196 0.11909,0.16076 0.22501,0.38661 0.96953,0.11013 1.22906,0.48629 0.29345,0.42548 0.5854,0.30464 0.84707,0.70869 0.25615,0.39556 0.46918,0.72181 0.66694,1.14579 0.11798,0.25303 0.082,0.71319 0.38419,0.74795 0.0929,0.0243 0.19675,0.0899 0.3101,0.0496 0.11306,-0.0403 0.25225,-0.17569 0.44749,-0.59286 0.27911,-0.0581 0.24019,-1.19489 0.569,-1.17493 0.30953,0.0188 0.41363,0.25523 0.47831,0.51425 0.0647,0.25911 0.0778,0.53771 0.20467,0.57123 0.343,0.0907 0.80804,-0.12225 0.91672,-0.53353 0.0786,-0.2978 0.13561,-0.29019 0.1847,-0.20977 0.049,0.0805 0.0841,0.23227 0.17952,0.17671 0.0305,-0.0177 0.0843,-0.0488 0.11481,-0.0665 0.35482,-0.20651 0.49738,-0.28882 0.88942,-0.18525 0.47759,0.12629 0.61686,0.10378 0.69653,0.0548 0.0802,-0.0488 0.11908,-0.12575 0.46466,-0.16808 0.36946,-0.0454 0.36707,-0.41727 0.63052,-0.67378 0.2795,-0.27214 0.28821,-0.45425 0.50969,-0.70572 0.0947,-0.10818 0.66245,-0.35382 0.81638,-0.39848 0.39166,-0.11341 0.9389,-0.39093 1.25706,-0.47588 0.23983,-0.064 0.30301,-0.11688 0.31353,-0.208 0.0106,-0.0912 -0.0342,-0.23463 -0.0473,-0.43275 -0.033,-0.51969 0.27721,-0.4373 0.40657,-0.9269 0.0836,-0.31685 0.0226,-0.38746 -0.12376,-0.38819 -0.14671,-0.002 -0.37358,0.0693 -0.66012,0.0518 -0.23065,-0.014 -0.33037,0.0991 -0.38993,0.25247 -0.0592,0.15357 -0.0908,0.34391 -0.13572,0.51367 -0.0645,0.24413 -0.26,0.30407 -0.42809,0.27477 -0.16819,-0.0292 -0.2924,-0.13704 -0.27829,-0.17044 0.0626,-0.1466 0.0771,-0.29189 0.0438,-0.40867 -0.0362,-0.11754 -0.13709,-0.21122 -0.33862,-0.18638 -0.42119,0.0518 -0.69831,-0.0488 -1.14354,-0.076 -0.0153,-9.2e-4 -0.0934,3.7e-4 -0.12885,-0.001 0,0 0,0 0,0 -0.25809,-0.0203 -0.89846,-0.0617 -0.92412,-0.0503 -0.32477,0.1437 -0.59243,0.402 -0.91669,0.53353 -0.18895,0.0766 -0.42504,0.0984 -0.5616,0.0456 -0.13644,-0.0528 -0.16281,-0.17065 0.0738,-0.40073 0.20753,-0.2022 0.0498,-0.47078 -0.11223,-0.67611 -0.16232,-0.20537 -0.33359,-0.35498 -0.16985,-0.33582 0.33802,0.0395 0.37236,-0.0208 0.30557,-0.17785 -0.0669,-0.157 -0.22152,-0.4135 -0.25545,-0.74622 0.0605,-0.22932 0.7949,-0.60066 0.69095,-0.65781 -0.12513,-0.0689 -0.30929,-0.13923 -0.45148,-0.24858 -0.14208,-0.10932 -0.26054,-0.23681 -0.20624,-0.44235 0.0457,-0.17316 0.27238,-0.4993 0.43152,-0.53244 0.16944,-0.0353 0.48193,0.24763 0.5741,0.15169 0.16975,-0.17661 0.21081,-0.30849 0.28051,-0.57234 0.0341,-0.12888 0.0617,-0.23368 0.0958,-0.36255 0.0724,-0.27419 0.20447,-0.24697 0.31977,-0.10945 0.1153,0.13751 0.23826,0.36579 0.31123,0.53473 0.0592,0.13635 0.11562,0.28117 0.14592,0.42642 0.0622,0.29859 0.0942,0.34346 0.13958,0.32784 0.0455,-0.0157 0.10394,-0.092 0.3119,-0.0793 0.25733,0.016 0.34761,0.31795 0.44627,0.63508 0.0988,0.31715 0.20911,0.63704 0.49084,0.71148 0.0975,0.0257 0.82811,0.20421 0.81747,0.0867 -0.0559,-0.61602 -0.27889,-0.74165 -0.4668,-0.80206 -0.18798,-0.0605 -0.34249,-0.0496 -0.25254,-0.39005 0.053,-0.20051 0.072,-0.186 0.25312,-0.22397 0.21583,-0.045 0.12783,-0.16678 0.34825,0.0274 0.009,-0.0303 0.016,-0.0602 0.024,-0.0906 0.11477,-0.38744 0.36057,-0.85268 0.81537,-0.88363 0.34102,-0.0102 0.80248,-0.0746 0.989,0.29368 0.17147,0.40793 0.53106,0.70442 0.64462,1.10772 -0.0933,0.14942 -0.0972,0.41875 -0.0231,0.57565 0.0743,0.15699 0.23991,0.22495 0.42476,-0.0171 0.0572,-0.21629 0.1721,-0.32254 0.3152,-0.33686 0.14283,-0.0144 0.29681,0.0448 0.44528,0.14991 0.28355,-0.31057 0.73731,-0.48359 1.04897,-0.78944 0.003,-0.18065 -0.0261,-0.42331 -0.098,-0.60769 -0.0719,-0.18438 -0.19899,-0.33785 -0.41954,-0.36943 -0.50495,-0.21492 -1.0828,-0.24834 -1.52319,-0.59638 -0.25151,-0.13441 -0.30851,-0.35404 -0.33341,-0.57297 -0.025,-0.21883 -0.003,-0.44046 -0.12031,-0.64586 -0.19775,-0.29832 -0.4177,-0.63911 -0.54783,-0.98513 -0.13002,-0.34599 -0.18715,-0.71307 -0.0689,-1.08479 0.0299,-0.28178 -0.0798,-0.2868 -0.23205,-0.22296 -0.15206,0.0639 -0.35199,0.20012 -0.43608,0.30501 -0.37517,0.19898 -0.75702,-0.28067 -1.15155,-0.0452 -0.40941,0.25808 -0.7651,0.64361 -1.2605,0.73354 -0.39047,-0.12167 -0.70196,-0.47455 -1.09045,-0.6437 -0.33972,-0.13641 -0.82339,-0.53177 -1.15609,-0.27307 l -1.13049,4.64667 c -0.0191,0.0719 -0.60713,0.86512 -0.44479,0.94907 0.38105,0.19688 0.26368,0.23319 0.10955,0.3198 -0.0425,0.0242 9.3e-4,0.11852 -0.0399,0.1511 z"
       id="MD-07"
       style="font-style:normal;font-weight:400;font-size:34.375px;font-family:'MS Shell Dlg 2';opacity:1;fill:#000000;fill-opacity:1;fill-rule:evenodd;stroke:#000000;stroke-width:0.33333385;stroke-linecap:square;stroke-linejoin:bevel;stroke-miterlimit:4;stroke-dasharray:none;stroke-opacity:1" />
    <path
       inkscape:connector-curvature="0"
       d="m 322.58192,424.86543 0.29316,-0.37516 -0.0936,-0.38021 0.24857,-0.45148 -0.47188,-0.41563 -0.0608,-0.0162 c -0.0892,-0.25681 0.32985,-0.51327 0.25348,-0.83806 -0.22295,-0.23267 0.0861,-0.28721 0.25488,-0.3528 0.19669,-0.20929 0.26793,-0.63822 -0.012,-0.81117 -0.30949,-0.21676 -0.62985,-0.46368 -0.96172,-0.64197 -0.30048,-0.11859 -0.52501,0.21058 -0.82091,0.17098 -0.32349,-0.0126 -0.36636,-0.42592 -0.62932,-0.55415 -0.26257,-0.16814 -0.49038,-0.48775 -0.3681,-0.80844 0.234,-0.32315 0.074,-0.6782 0.17253,-1.02101 -0.0471,-0.32585 0.34962,-0.51135 0.27549,-0.79996 -0.33036,-0.13973 -0.43259,-0.54674 -0.75651,-0.68467 -0.27144,-0.0738 -0.70223,-0.0213 -0.77577,-0.36663 0.0676,-0.20129 0.23811,-0.34688 0.41563,-0.47188 -0.18641,-0.27515 -0.79964,-1.14113 -0.93886,-1.21783 -0.22948,-0.12621 -0.1283,-0.61561 0.0627,-0.72679 0.0366,-0.0209 0.0765,-0.0509 0.11482,-0.0666 0.22831,-0.0925 0.57336,0.23122 0.72049,-0.036 0.18527,-0.33715 0.72002,-0.45621 1.03588,-0.37275 0.35637,0.0942 0.6996,0.18483 1.05741,0.27938 0.0647,0.017 0.1169,0.0309 0.18138,0.048 0.37281,0.0984 0.75105,0.10802 0.99588,-0.22176 0.21114,-0.28431 0.83699,0.0919 1.11962,0.16653 0.32388,0.0856 0.62866,0.22391 0.96682,0.25543 0.28992,0.0271 0.32004,-0.16564 0.26275,-0.38298 -0.0571,-0.21741 -0.21047,-0.47451 -0.20457,-0.57121 0.0188,-0.3091 0.11896,-0.45025 0.15965,-0.60427 0.0407,-0.15411 0.0172,-0.32235 -0.2029,-0.70005 -0.13585,-0.23355 0.0274,-0.29993 0.13375,-0.3849 -0.0792,-0.0251 -0.16162,-0.0432 -0.2417,-0.0639 -0.23631,-0.17631 -0.48587,-0.10749 -0.72688,-0.0628 -0.24102,0.0447 -0.4782,0.0765 -0.66469,-0.17561 -0.29564,-0.41292 -0.77018,-0.62311 -1.09333,-0.99997 0.36358,-0.32779 0.11863,-0.99624 0.60091,-1.29568 0.30361,-0.27383 0.60389,-0.53261 0.70238,-0.94576 0.24256,-0.42162 0.14354,-0.85644 -0.12764,-1.22959 -0.21007,-0.14518 -0.30472,-0.32409 -0.3112,-0.53484 -0.006,-0.21063 0.092,-0.45809 0.20556,-0.65668 -0.089,-0.15272 -0.29516,-0.10657 -0.48518,0.002 -0.18996,0.10754 -0.3839,0.28096 -0.51245,0.34939 -0.15448,-0.06 -0.38583,-0.14238 -0.57409,-0.15169 -0.18827,-0.009 -0.32598,0.0624 -0.3233,0.3671 -0.12032,0.1579 -0.13975,0.44671 -0.18362,0.69495 -0.0438,0.24813 -0.13213,0.46094 -0.39959,0.41159 -0.25886,-0.0756 -0.54011,-0.17188 -0.79185,-0.30624 -0.25163,-0.13434 -0.46927,-0.32919 -0.54483,-0.62884 -0.10399,0.0569 -0.33202,0.15027 -0.51889,0.25077 -0.18679,0.10062 -0.338,0.23288 -0.21062,0.42924 0.19559,0.11777 0.21207,0.15645 0.14137,0.19891 -0.0703,0.0427 -0.22353,0.0814 -0.35005,0.10155 -0.12031,0.13432 -0.20531,0.29318 -0.33117,0.39728 -0.12577,0.10413 -0.29796,0.13497 -0.52334,0.0234 -0.39323,-0.16801 -0.56964,-0.67789 -1.06038,-0.63575 -0.21572,-0.0108 -0.4901,-0.0794 -0.68688,-0.21376 -0.19677,-0.13452 -0.30664,-0.32739 -0.2651,-0.5872 -0.0635,-0.17459 -0.0528,-0.25866 0.012,-0.28779 0.0645,-0.0292 0.17376,-0.0157 0.28785,0.011 0.22816,0.0541 0.45822,0.13928 0.41846,-0.11574 0.018,-0.28695 0.29724,-0.45289 0.51597,-0.60703 0.21863,-0.15417 0.37927,-0.29707 0.25853,-0.61052 -0.18098,-0.28467 -0.0225,-0.27133 0.16271,-0.24786 0.18525,0.0234 0.42241,0.0588 0.33584,-0.16985 -0.0975,-0.18338 0.0417,-0.33815 0.0977,-0.49133 l -0.0988,0.006 -0.54559,-0.0155 -1.07684,0.0388 -0.0909,-0.024 -0.53752,-0.0451 -0.66013,0.0518 -0.21154,-0.0559 -0.11484,0.0667 -0.0909,-0.024 -0.21153,-0.0559 -0.11485,0.0666 -0.12084,-0.0319 -0.42467,0.0171 -1.07679,0.0386 -0.1511,-0.0399 c -0.21529,0.26283 -0.45064,0.53939 -0.59407,0.78043 -0.0313,0.0521 -0.0414,0.0898 -0.0699,0.1432 -0.0771,0.13913 0.0775,0.18817 0.0271,0.26572 -0.19081,0.29122 -0.37125,1.13502 -0.65337,1.24955 -0.13264,0.0538 -0.35303,0.0777 -0.45668,0.13792 -0.13151,0.0765 -0.32087,0.1798 -0.42809,0.27477 -0.19493,0.17252 -0.29298,0.3749 -0.36486,0.64697 -0.0599,0.22651 -0.15422,0.46233 -0.21357,0.68692 -0.0617,0.23368 -0.12187,0.46128 -0.18361,0.69496 -0.0483,0.18263 -0.18069,0.34333 -0.25655,0.48164 -0.097,0.17505 -0.14333,0.42116 -0.19761,0.62661 -0.0279,0.10567 -0.0258,0.25847 0.0411,0.33406 0.24564,0.27756 0.0376,0.18248 0.025,0.3945 -0.0152,0.26254 -0.0445,0.41127 -0.11572,0.68052 -0.0747,0.28252 -0.19337,0.3795 -0.25153,0.70927 -0.0728,0.4129 -0.17262,0.77472 -0.28135,1.1862 -0.0512,0.19355 -0.3755,0.51496 -0.18164,0.56618 0.10393,-0.0215 0.12985,-0.0303 0.22741,-0.005 0.32369,0.0856 0.42396,0.0317 0.75705,0.0707 0.11708,0.014 0.22316,0.0452 0.3404,0.0575 0.0523,0.006 0.91387,-0.18344 0.99586,-0.22166 0.25019,-0.11666 0.45358,-0.0354 0.60779,-0.098 0.17515,-0.0711 0.2662,0.0992 0.36702,0.32317 0.1009,0.22411 0.21807,0.47787 0.44015,0.53655 0.24026,0.0634 0.20534,0.079 0.25934,-0.12543 0.0744,-0.28153 0.23953,-0.5425 0.53018,-0.53862 0.21059,0.003 -0.0136,-0.0702 0.1178,-0.32448 0.0808,-0.15717 0.39995,-0.4568 0.22657,-0.48957 -0.59754,-0.11311 -0.27974,-0.12427 -0.72965,-0.41909 -0.0591,-0.0388 -0.21143,-0.31154 -0.0552,-0.40245 0.12979,-0.0756 0.24589,-0.24875 0.24857,-0.45148 0.002,-0.13145 0.0142,-0.35613 0.0898,-0.46118 0.17551,-0.24737 0.4027,-0.24091 0.69373,-0.30148 0.4066,-0.0847 0.0313,-0.11815 0.41398,-0.34314 0.0305,-0.0176 0.1845,-0.054 0.29584,-0.0188 0.11119,0.0356 0.18726,0.13719 0.041,0.33414 -0.082,0.11074 -0.24314,0.16199 0.065,0.24339 0.46949,0.12405 0.34696,0.62776 0.76272,0.78332 0.34506,0.12912 0.50578,0.28537 0.5404,0.40135 0.0345,0.11597 -0.0477,0.18136 -0.13879,0.15728 -0.18881,-0.0499 -0.36845,-0.0198 -0.53131,0.0536 -0.16296,0.0739 -0.31404,0.20995 -0.37738,0.44972 -0.004,0.0161 -0.003,0.0143 -0.009,0.0302 -0.004,0.017 -0.37279,0.54702 -0.31876,0.5946 0.0931,0.0819 0.25049,0.18327 0.37512,0.29294 0.0917,0.0807 0.10577,0.18962 0.26221,0.23094 0.14501,0.0383 0.27795,0.0735 0.42298,0.11173 0.137,0.0362 0.28599,0.0755 0.42298,0.11174 0.11022,0.0291 0.24649,0.0328 0.3403,0.0575 0.0909,0.024 0.3155,0.0155 0.36256,0.0958 0.0838,0.14399 0.18019,0.34642 0.29702,0.46635 0.0716,0.0736 0.27211,0.38881 0.19834,0.47264 -0.0889,0.10157 -0.11357,0.0971 -0.19269,0.24004 -0.056,0.10259 -0.22045,0.26788 -0.11778,0.32438 0.11433,0.0629 0.35637,0.0942 0.54374,0.14366 0.16756,0.0442 0.10609,0.14925 0.22407,0.25314 0.078,0.0687 0.096,0.23346 0.17784,0.30557 0.15155,0.13343 0.12594,0.15325 0.3466,0.15621 0.1549,0.002 0.25784,0.0439 0.3466,0.15622 0.0418,0.053 0.14938,0.31894 0.20013,0.34373 0.23021,0.11284 0.39734,0.39789 0.48451,0.6129 0.16814,0.41471 0.20648,0.0172 0.46745,0.18815 0.19933,0.13065 0.60794,0.38568 0.71991,0.57808 0.1489,0.25582 0.0786,0.19203 0.009,0.45492 -0.0143,0.0543 -0.0972,0.40716 -0.14172,0.41507 -0.0493,0.0103 -0.4633,0.21424 -0.38363,0.35115 0.15113,0.12132 0.35218,0.20982 0.44971,0.3774 0.22047,0.37877 0.34915,0.48012 0.78045,0.59406 0.39457,0.1042 0.24224,0.30222 0.24913,0.64764 0.008,0.3949 0.0175,0.48754 -0.0369,0.50742 -0.0548,0.0198 -0.17041,-0.0453 -0.34827,-0.0274 -0.3088,0.0311 -0.59717,-0.84375 -0.65615,-0.81983 -0.0996,0.0404 -0.57487,0.0228 -0.67266,-0.14544 -0.008,-0.0102 -0.0137,-0.0303 -0.0219,-0.0381 -0.084,-0.0737 -0.37138,-0.42299 -0.56438,-0.31066 -0.11002,0.0641 -0.16161,0.24369 -0.2106,0.42913 -0.0235,0.0886 -0.0484,0.18331 -0.0718,0.27196 -0.0967,0.36595 -0.0578,0.33611 0.15047,0.65384 0.17317,0.26451 0.73405,0.51438 0.73598,0.51768 0.19925,0.34235 0.36035,0.80681 0.12754,1.22957 -0.10101,0.18256 -0.007,0.697 -0.18963,0.59635 -0.1769,-0.0973 -0.33372,-0.34665 -0.57056,-0.40932 -0.30137,-0.0797 -0.4282,-0.35828 -0.60716,-0.51592 -0.0453,-0.0399 -0.21902,-0.30715 -0.36079,-0.22462 -0.10131,0.0587 -0.20474,0.11916 -0.30558,0.17785 l 0.0519,0.0461 -0.0319,0.12084 -0.024,0.0906 -0.14479,0.0587 -0.0799,0.30222 0.0889,0.15278 0.0669,0.11461 -0.0559,0.21144 0.36876,0.19446 0.024,-0.0907 0.12086,0.0319 0.0429,0.20538 0.0909,0.024 0.21145,0.0559 0.21143,0.0559 0.0909,0.024 0.2355,-0.0348 0.0909,0.024 0.024,-0.0907 0.21145,0.0559 0.0909,0.024 0.0909,0.024 0.30203,0.0798 0.12087,0.0319 0.13344,0.2293 0.17952,0.17673 0.0429,0.20519 0.17961,0.17674 1.78928,-1.7499 0.81535,0.82206 z"
       id="MD-08"
       style="font-style:normal;font-weight:400;font-size:34.375px;font-family:'MS Shell Dlg 2';opacity:1;fill:none;fill-opacity:1;fill-rule:evenodd;stroke:#000000;stroke-width:0.33333385;stroke-linecap:square;stroke-linejoin:bevel;stroke-miterlimit:4;stroke-dasharray:none;stroke-opacity:1" />
  </g>
</svg>
