<?xml version="1.0" encoding="UTF-8" standalone="no"?>
<!-- Created with Inkscape (http://www.inkscape.org/) -->

<svg
   xmlns:dc="http://purl.org/dc/elements/1.1/"
   xmlns:cc="http://creativecommons.org/ns#"
   xmlns:rdf="http://www.w3.org/1999/02/22-rdf-syntax-ns#"
   xmlns:svg="http://www.w3.org/2000/svg"
   xmlns="http://www.w3.org/2000/svg"
   xmlns:sodipodi="http://sodipodi.sourceforge.net/DTD/sodipodi-0.dtd"
   xmlns:inkscape="http://www.inkscape.org/namespaces/inkscape"
   width="34.061558mm"
   height="27.544376mm"
   viewBox="0 0 120.69056 97.598184"
   id="svg3885"
   version="1.1"
   inkscape:version="0.91 r"
   sodipodi:docname="4.svg">
  <defs
     id="defs3887" />
  <sodipodi:namedview
     id="base"
     pagecolor="#ffffff"
     bordercolor="#666666"
     borderopacity="1.0"
     inkscape:pageopacity="0.0"
     inkscape:pageshadow="2"
     inkscape:zoom="6.4033046"
     inkscape:cx="34.880675"
     inkscape:cy="79.531619"
     inkscape:document-units="px"
     inkscape:current-layer="layer1"
     showgrid="false"
     inkscape:window-width="2560"
     inkscape:window-height="1388"
     inkscape:window-x="0"
     inkscape:window-y="0"
     inkscape:window-maximized="1"
     fit-margin-top="1"
     fit-margin-left="1"
     fit-margin-right="1"
     fit-margin-bottom="1" />
  <metadata
     id="metadata3890">
    <rdf:RDF>
      <cc:Work
         rdf:about="">
        <dc:format>image/svg+xml</dc:format>
        <dc:type
           rdf:resource="http://purl.org/dc/dcmitype/StillImage" />
        <dc:title></dc:title>
      </cc:Work>
    </rdf:RDF>
  </metadata>
  <g
     inkscape:label="Layer 1"
     inkscape:groupmode="layer"
     id="layer1"
     transform="translate(-158.46864,-366.57833)">
    <path
       inkscape:connector-curvature="0"
       d="m 258.43649,429.00057 c -0.48589,-0.65709 -0.97089,-1.32524 -1.63342,-1.78481 -0.65698,-0.45577 -1.42895,-0.70931 -2.18861,-0.97641 -0.31307,0.15695 -0.57317,0.39467 -0.69697,0.8742 -0.169,0.52558 -0.46517,0.79499 -0.80816,0.94648 -0.34296,0.1514 -0.74146,0.16239 -1.15426,0.16993 -0.41288,0.007 -0.8245,0.002 -1.20251,0.0959 -0.37797,0.0939 -0.71403,0.3133 -0.95264,0.72399 -0.21123,0.58523 -0.51623,1.07033 -0.86394,1.50955 -0.34772,0.43931 -0.75006,0.81708 -1.2159,1.21126 -0.20222,0.7254 -0.39086,1.37232 -0.75199,1.88482 -0.36104,0.51246 -0.87954,0.87978 -1.69207,1.04607 -0.61492,0.0297 -1.01042,0.2233 -1.25634,0.49971 -0.24585,0.27632 -0.35669,0.65109 -0.41722,1.06145 -0.12051,0.82063 -0.0431,1.7964 -0.52634,2.47587 -0.31598,0.0826 -0.53267,0.006 -0.7031,-0.1493 -0.17045,-0.15584 -0.29495,-0.40456 -0.40265,-0.66066 -0.21558,-0.5123 -0.37537,-1.08473 -0.83799,-1.16845 -0.44412,0.0642 -0.83808,-0.15795 -1.10295,-0.52202 -0.26506,-0.36386 -0.41039,-0.87534 -0.4562,-1.31101 -0.0458,-0.43563 0.0188,-0.78995 0.23175,-0.94118 0.21316,-0.15108 0.55588,-0.10267 1.06792,0.38678 0.24751,0.43905 0.4077,0.61758 0.50738,0.61903 0.0998,0.002 0.15383,-0.17106 0.15262,-0.41482 -0.003,-0.48766 -0.1744,-1.25213 -0.30596,-1.56667 0.55054,-1.98933 1.0802,-3.90064 1.29729,-5.95407 0.68247,-0.39035 1.36222,-0.76552 1.89684,-1.25813 0.53448,-0.49263 0.91906,-1.11783 1.00491,-2.02278 -0.60675,-0.34836 -1.47273,-0.8155 -2.31728,-0.97182 -0.4224,-0.0776 -0.82257,-0.0646 -1.19603,0.0653 -0.37341,0.13051 -0.72591,0.3999 -0.97853,0.84626 -0.12929,0.47845 -0.39025,0.69208 -0.71452,0.80656 -0.32438,0.11443 -0.7106,0.12876 -1.08022,0.12176 -0.36965,-0.007 -0.71006,-0.0338 -0.97551,0.0803 -0.26545,0.11421 -0.45176,0.35013 -0.46348,0.82804 -0.48351,0.7429 -1.17409,1.41767 -1.73595,2.15484 -0.28099,0.36864 -0.51023,0.74061 -0.69445,1.16234 -0.1837,0.42168 -0.3197,0.88852 -0.32918,1.39951 -0.31823,0.39959 -0.48885,0.81889 -0.58508,1.24949 -0.092,0.43149 -0.10803,0.88314 -0.0589,1.32928 0.0981,0.8924 0.39951,1.79315 0.61776,2.65516 -0.2036,0.58741 -0.16217,0.99881 0.009,1.3118 0.17128,0.31305 0.48842,0.54147 0.8742,0.69696 0.77149,0.311 1.82148,0.40222 2.48503,0.78381 0.43344,0.21091 0.51709,0.49503 0.46841,0.80242 -0.0492,0.3073 -0.23383,0.64322 -0.42183,0.93267 -0.18846,0.28935 -0.38439,0.53141 -0.36995,0.68814 0.0148,0.15679 0.24158,0.22891 0.80127,0.13823 0.31253,-0.12271 0.5547,-0.14526 0.75497,-0.0951 0.20042,0.0499 0.35505,0.16111 0.41309,0.3114 0.0579,0.15022 0.0343,0.34846 -0.0801,0.52615 -0.1144,0.17758 -0.32647,0.3378 -0.64301,0.47025 -0.49946,-0.16338 -0.85737,-0.04 -1.16086,0.20056 -0.30343,0.24088 -0.55096,0.6027 -0.77753,0.95295 -0.22664,0.35014 -0.45199,0.67252 -0.7211,0.83709 -0.26908,0.16453 -0.59098,0.16287 -1.02168,-0.15368 -0.51236,-0.45723 -1.19478,-0.87698 -1.83285,-0.99667 -0.31879,-0.0606 -0.60463,-0.0444 -0.88376,0.0997 -0.27907,0.14321 -0.52965,0.41157 -0.72108,0.83707 0.31732,0.37375 0.4423,0.69054 0.42943,0.98582 -0.0122,0.29544 -0.16718,0.54579 -0.38936,0.77989 -0.44438,0.46834 -1.19206,0.83593 -1.74849,1.16184 -1.69922,0.10861 -3.48299,0.45163 -5.22673,0.39068 -0.57257,-0.22722 -1.04486,-0.1943 -1.43403,-0.017 -0.38898,0.17641 -0.7227,0.49924 -0.99156,0.90749 -0.53758,0.81634 -0.88731,1.91148 -1.32484,2.62561 -0.88454,0.28197 -1.54218,1.02578 -2.26479,1.78688 -0.64569,0.14071 -1.05678,0.46258 -1.29722,0.84251 -0.24044,0.3799 -0.3134,0.83568 -0.24864,1.32094 0.0645,0.48513 0.25241,0.99615 0.52178,1.45263 0.26945,0.45661 0.62968,0.8459 1.00372,1.1399 0.19144,0.59817 0.47213,0.9811 0.82488,1.22966 0.32731,0.23062 0.71473,0.34238 1.12907,0.3997 l 0.26136,-0.32782 0.32252,-0.31483 0.26401,-0.0397 0.0736,-0.0481 0.0671,-0.0177 0.16391,0.1307 0.19639,-0.0221 0.18537,-0.12037 0.37055,-0.24073 0.46889,-0.2518 0.50592,-0.27584 0.0366,-0.0241 0.42725,-0.35648 0.20476,-0.21205 0.0877,-0.10916 0.38747,-0.6205 0.0301,0.0105 0.0996,-0.17053 0.0996,-0.17053 0.0802,-0.0788 0.21135,-0.24256 0.11792,-0.10273 0.12443,-0.13323 0.0693,-0.17707 0.18632,-0.72715 0.45577,-0.19061 0.51054,-0.14706 0.5253,-0.36761 0.0984,-0.011 0.22699,-0.0157 0.25752,-0.009 0.03,0.0105 0.24649,-0.1073 0.35109,-0.14909 0.15474,-0.12679 0.51901,-0.33706 0.18526,-0.12031 0.20939,-0.0833 0.0433,-0.0547 0.13527,-0.0353 0.61055,-0.3175 0.0367,-0.0242 0.26598,-0.19907 -0.0347,-0.13515 0.003,-0.15924 0.27448,-0.38893 0.24788,-0.71407 0.11483,-0.39096 -0.0204,-0.35573 -0.0768,-0.23991 -0.0477,-0.0742 -0.20556,-0.23525 -0.0789,-0.0808 -0.5086,-0.0119 -0.31107,-0.64118 -0.03,-0.0105 -0.11194,-0.37516 0.0912,-0.428 0.0123,-0.0612 0.10618,-0.20113 0.10187,-0.32982 0.15274,0.0333 0.33167,-0.0573 0.29002,-0.16194 0.38429,0.14562 0.0725,0.11132 0.0478,0.074 0.0378,0.4234 0.0412,0.10448 0.054,0.0435 0.51044,-0.14708 0.11793,-0.10272 0.13743,-0.19438 0.41414,-0.29533 0.18354,0.0383 0.26854,0.0891 0.0299,0.0105 0.14896,0.35115 0.15935,0.003 0.85439,-0.71293 0.0867,-0.10936 0.26589,-0.19906 0.0811,-0.0787 0.66057,-0.40277 0.0746,-0.0479 0.97656,-0.68697 0.28172,0.0276 0.12238,0.0254 0.40844,0.18261 0.10825,-0.36037 0.0105,-0.0302 0.42921,-0.51583 0.0105,-0.0303 0.61705,-0.34811 1.07108,-0.37931 0.94034,-0.21549 0.66785,0.0147 0.24002,-0.0767 0.0299,0.0105 0.16124,-0.1573 0.0628,-0.14644 0.0105,-0.0303 0.0562,-0.11585 0.26783,-0.35834 0.15927,0.003 0.0105,-0.0303 0.7589,-0.41376 0.48187,-0.31284 0.0367,-0.0242 0.53192,-0.3981 0.0801,-0.0788 0.0802,-0.0789 -0.0348,-0.13514 -0.0347,-0.13519 0.0105,-0.0302 0.0953,-0.29931 0.16343,-0.31665 0.0759,-0.20747 0.0498,-0.0852 0.0105,-0.0302 0.0105,-0.0303 0.0333,-0.15274 -0.0833,-0.20929 -0.0477,-0.0741 0.0105,-0.0302 0.0212,-0.0914 0.0212,-0.0915 0.13098,-0.16384 0.43453,0.0603 0.17229,-0.0593 0.14177,-0.0658 0.10494,-0.0415 0.21581,-0.1139 0.0746,-0.048 0.11263,-0.23167 0.0367,-0.024 0.0123,-0.0612 0.4929,-0.21464 0.80706,-0.33959 0.7023,-0.2981 0.24178,-0.2361 -0.041,-0.10466 -0.0108,-0.098 -0.0347,-0.13518 0.38365,-0.30182 0.0867,-0.10938 0.0759,-0.20744 0.0212,-0.0916 0.0367,-0.0241 0.30301,-0.2232 0.34012,-0.24716 0.22229,-0.14446 0.0368,-0.0242 0.0367,-0.0241 0.0435,-0.0546 0.26598,-0.19905 0.19826,-0.18144 0.0299,0.0105 0.0105,-0.0302 1.01643,-0.42292 0.27704,-0.10092 0.0459,-0.21384 0.0783,-0.36674 -0.0595,-0.17243 0.0105,-0.0302 -0.0299,-0.0105 -0.03,-0.0105 -0.17878,0.0898 -0.0931,0.13989 -0.48445,0.0249 -0.17503,-0.2288 -0.10084,-0.27701 -0.01,-0.25762 0.24574,-0.55483 0.13742,-0.19447 0.32901,-0.34536 0.11481,-0.39089 0.0123,-0.0614 0.53849,-0.42861 0.67818,-0.33512 0.14826,-0.0962 0.36674,0.0782 0.47224,0.48375 0.10545,0.4058 0.0671,-0.0177 0.48641,-0.1841 0.57818,-0.16472 0.20279,-0.0528 0.10506,-0.0417 0.17503,0.229 -0.0105,0.0301 0.0301,0.0105 0.27503,0.0586 0.16586,-0.0286 0.68095,-0.0469 0.1963,-0.0222 0.0105,-0.0303 0.16556,-0.47598 0.29118,-0.76866 0.0912,-0.428 -0.053,-0.20283 0.16457,-0.47618 0.22891,-0.17504 0.0368,-0.0241 0.25948,-0.16852 0.33353,-0.21657 0.0368,-0.0242 0.0367,-0.0242 z"
       id="SC-01"
       style="font-style:normal;font-weight:400;font-size:34.375px;font-family:'MS Shell Dlg 2';opacity:1;fill:none;fill-opacity:1;fill-rule:evenodd;stroke:#000000;stroke-width:0.33333385;stroke-linecap:square;stroke-linejoin:bevel;stroke-miterlimit:4;stroke-dasharray:none;stroke-opacity:1" />
    <path
       inkscape:connector-curvature="0"
       d="m 202.90903,430.36048 1.65801,-1.78806 4.42833,1.26075 4.00936,-0.0742 -0.85352,-1.39555 0.32552,-7.69416 c 0.52462,0.21231 0.95798,0.53221 1.33078,0.95383 0.35614,0.46624 0.81215,0.81241 1.31128,1.04547 0.49927,0.23301 1.03313,0.37826 1.60064,0.43603 0.58778,0.0442 1.16709,0.16712 1.66815,0.41848 0.50105,0.25191 0.95295,0.6159 1.29827,1.10663 0.22874,-0.0319 0.34704,-0.15024 0.42077,-0.32594 0.0742,-0.17552 0.076,-0.40841 0.0769,-0.65463 -0.002,-0.49293 -0.0486,-1.03871 0.13285,-1.37745 -0.13553,-0.37674 0.10382,-0.77962 0.27721,-1.15511 0.087,-0.18773 0.14653,-0.38179 0.14727,-0.54378 8.2e-4,-0.16199 -0.0634,-0.31881 -0.25832,-0.43829 -0.33356,-0.19059 -0.87901,-0.17997 -1.3514,-0.25558 -0.4724,-0.0754 -0.88832,-0.24144 -0.94184,-0.67938 0.0512,-0.32084 -0.0229,-0.50662 -0.18222,-0.6457 -0.15946,-0.13919 -0.37976,-0.21659 -0.64648,-0.26522 -0.53344,-0.0972 -1.17875,-0.10409 -1.51536,-0.38612 0.44623,-0.86709 1.3055,-1.5293 1.87319,-2.34929 0.15648,-0.49569 -0.15421,-0.84533 -0.47565,-1.21934 -0.32147,-0.37399 -0.64815,-0.76167 -0.59149,-1.27584 -0.007,-0.29712 0.085,-0.49935 0.23489,-0.65295 0.15041,-0.15348 0.34219,-0.26024 0.58004,-0.32398 0.47567,-0.12737 1.08306,-0.13507 1.4859,-0.22721 -0.13197,-0.27607 -0.60193,-0.58923 -1.08809,-0.74249 -0.48616,-0.15327 -0.99842,-0.13323 -1.29604,0.23572 -0.1671,0.25225 -0.27963,0.35306 -0.36609,0.36934 -0.0864,0.0164 -0.15447,-0.0706 -0.18145,-0.19825 -0.0541,-0.25543 -0.009,-0.69968 0.0483,-0.98012 0.0761,-0.42908 0.11173,-0.87704 0.21242,-1.29659 0.10044,-0.41971 0.25569,-0.81333 0.64426,-1.0772 -0.0727,-0.43491 -0.42758,-0.73577 -0.698,-1.0748 -0.13522,-0.16949 -0.25646,-0.34322 -0.29986,-0.54302 -0.0434,-0.19968 0.007,-0.43688 0.14929,-0.70301 -0.0125,-0.47488 -0.23443,-0.94949 -0.50433,-1.38512 -0.26993,-0.43566 -0.61238,-0.83987 -0.89251,-1.21206 -0.37631,-0.0656 -0.51284,-0.1456 -0.52421,-0.23923 -0.0118,-0.0936 0.10713,-0.20541 0.26137,-0.3278 0.1546,-0.12234 0.34265,-0.22978 0.46424,-0.3805 0.12196,-0.15073 0.18377,-0.31683 0.0736,-0.49552 -0.2868,-0.016 -0.45698,-0.0938 -0.53711,-0.17822 -0.0802,-0.084 -0.0551,-0.19839 0.004,-0.31869 0.11762,-0.24048 0.42105,-0.49415 0.68865,-0.68434 0.46741,-0.13182 0.98824,-0.18938 1.46837,-0.29487 0.48013,-0.10548 0.92968,-0.28729 1.29534,-0.68311 0.30352,-0.10859 0.52436,-0.062 0.69199,0.0514 0.16763,0.11315 0.28521,0.31848 0.36109,0.55604 0.15154,0.47497 0.14841,1.09234 0.19668,1.47943 0.0639,0.3312 0.011,0.55081 -0.11954,0.70947 -0.12989,0.15877 -0.30833,0.24383 -0.5189,0.33698 -0.21057,0.0931 -0.43251,0.18307 -0.61066,0.31748 -0.17802,0.13441 -0.31815,0.31402 -0.35035,0.59639 -0.25205,0.38499 -0.30535,1.08084 -0.14119,1.56746 0.0819,0.24323 0.20802,0.43893 0.39812,0.5318 0.19014,0.093 0.42319,0.0741 0.72448,-0.10161 l 0.54685,-0.61852 5.09707,-0.83349 0.32237,-1.81635 -0.59116,0.22573 -3.39279,-3.277 0.83195,-2.41103 -4.94627,1.02533 c -0.90039,0.39974 -1.74951,0.36791 -2.36523,0.4557 -0.30776,0.044 -0.54346,0.12165 -0.7023,0.29799 -0.15874,0.17636 -0.23689,0.46807 -0.19494,0.91703 -0.48249,-0.64769 -1.03635,-1.04176 -1.59734,-1.2022 -0.56113,-0.16038 -1.14329,-0.085 -1.68698,0.1207 -0.54374,0.20524 -1.05861,0.54429 -1.48906,0.99331 -0.43058,0.44909 -0.78432,1.00416 -1.00581,1.57529 0.2468,0.26122 0.38801,0.47618 0.43325,0.66725 0.0453,0.19101 0.003,0.36466 -0.10425,0.48906 -0.21203,0.24874 -0.67723,0.35024 -1.19334,0.35331 -0.0951,-6.6e-4 -0.17803,-0.0513 -0.27499,-0.0587 l -2.31087,5.61086 -10.50621,9.74745 0.0551,0.0437 0.0299,0.0105 0.0608,0.0123 0.0464,0.23355 0.03,0.0105 0.0299,0.0105 0.0855,0.05 0.13142,0.28353 -0.0105,0.0303 0.0962,0.14825 0.0412,0.10448 -0.0123,0.0612 -0.0254,0.12239 0.0724,0.11118 0.0725,0.11121 0.0854,0.0502 0.03,0.0105 0.15265,0.0333 0.17697,0.0696 0.0855,0.05 0.0541,0.0435 0.14629,0.0631 0.20101,0.10668 0.11578,0.0565 0.18353,0.0383 0.11574,0.0566 0.0476,0.0739 0.0477,0.074 -0.0105,0.0303 0.0898,0.17877 -0.0105,0.0302 0.11389,0.21599 0.0239,0.0368 0.0541,0.0435 -0.0105,0.0302 -0.0105,0.0303 0.0175,0.0674 -0.0434,0.0548 -0.0105,0.0303 -0.0105,0.0302 -0.0367,0.0243 -0.0736,0.0483 -0.10495,0.0416 -0.0498,0.0852 -0.0212,0.0914 0.0725,0.11132 0.0854,0.05 0.0551,0.0437 -0.0123,0.0614 -0.0212,0.0913 -0.0746,0.048 -0.1723,0.0593 -0.0983,0.0109 -0.0434,0.0547 -0.0212,0.0914 0.0412,0.10468 0.11644,0.50403 0.0789,0.0806 0.0477,0.0742 -0.0212,0.0914 -0.11145,0.0721 -0.0917,-0.0212 -0.10929,-0.087 -0.0917,-0.0212 -0.0737,0.0482 -0.0105,0.0303 -0.0123,0.0612 0.041,0.10467 0.1028,0.11762 0.13339,0.12415 -0.0212,0.0913 -0.0497,0.0852 -0.0433,0.0545 -0.0123,0.0612 0.03,0.0105 0.024,0.0368 0.03,0.0105 0.0983,-0.0109 0.0671,-0.0177 0.12881,-0.005 0.0299,0.0105 0.10925,0.0872 -0.0105,0.0303 -0.003,0.15921 0.0239,0.037 0.10279,0.11764 0.0541,0.0436 0.0174,0.0676 0.0239,0.0368 0.03,0.0105 0.0671,-0.0177 0.0497,-0.0852 0.0123,-0.0611 0.0105,-0.0303 0.0671,-0.0177 0.0239,0.037 0.0476,0.074 -0.0212,0.0915 -0.0105,0.0303 0.0239,0.0368 0.13989,0.0937 0.0917,0.0212 0.053,0.20286 0.20749,0.0762 0.12444,-0.13333 0.0299,0.0105 0.0433,-0.0546 0.0301,0.0105 0.29927,0.0955 0.0855,0.05 0.0789,0.0807 0.0173,0.0674 -0.0867,0.10936 -0.0366,0.0242 -0.0299,-0.0105 -0.0916,-0.0212 -0.03,-0.0105 -0.0802,0.0787 -0.0458,0.21397 -0.0105,0.0302 0.0299,0.0105 0.0173,0.0676 0.23803,0.0825 0.16393,0.13078 0.03,0.0105 0.0486,0.0743 0.0789,0.0808 -0.0254,0.12237 -0.0123,0.0612 -0.0608,-0.0123 -0.12879,0.005 -0.0123,0.0612 -0.11481,0.39089 0.0107,0.0981 0.1574,0.16123 0.11579,0.0566 0.0854,0.0501 0.0299,0.0105 0.1028,0.11763 0.0962,0.14828 0.21384,0.0458 0.17048,0.10019 0.0607,0.0123 0.0107,0.098 0.0282,0.16581 -0.0105,0.0303 0.0607,0.0123 0.36034,0.10854 0.12879,-0.005 0.13524,-0.0351 0.0434,-0.0547 -0.0106,-0.0981 -0.0477,-0.0739 -0.0174,-0.0676 0.0105,-0.0303 0.0367,-0.024 0.0917,0.0212 0.0299,0.0105 0.0239,0.0369 0.0855,0.05 0.0239,0.037 -0.0105,0.0303 0.0487,0.0743 0.0703,0.27053 0.0542,0.0435 0.055,0.0438 0.0172,0.0674 0.03,0.0105 -0.0822,0.2381 -0.0671,0.0176 -0.0671,0.0178 -0.0105,0.0302 -0.13098,0.16384 -0.0105,0.0303 0.13803,0.25293 0.0281,0.16577 0.0357,0.13536 -0.0105,0.0301 0.21206,0.20479 -0.0105,0.0302 0.10927,0.0871 0.15085,0.19175 0.4742,0.32449 0.0789,0.0806 0.0853,0.0501 0.0238,0.0369 0.2733,0.21778 0.03,0.0105 0.0984,-0.011 0.067,-0.0176 0.32331,0.13253 0.52423,0.2392 0.0608,0.0123 0.03,0.0105 -0.0105,0.0303 0.0855,0.05 0.0239,0.0368 0.1399,0.0937 0.0239,0.037 0.0607,0.0123 0.0299,0.0105 0.0608,0.0123 0.0607,0.0123 0.0671,-0.0177 0.0671,-0.0178 0.0984,-0.011 0.23355,-0.0462 0.0608,0.0123 z"
       id="SC-02"
       style="font-style:normal;font-weight:400;font-size:34.375px;font-family:'MS Shell Dlg 2';opacity:1;fill:none;fill-opacity:1;fill-rule:evenodd;stroke:#000000;stroke-width:0.33333385;stroke-linecap:square;stroke-linejoin:bevel;stroke-miterlimit:4;stroke-dasharray:none;stroke-opacity:1" />
    <path
       inkscape:connector-curvature="0"
       d="m 193.37452,417.95076 10.50622,-9.74745 2.31082,-5.61083 c -0.43115,-0.0325 -0.88111,-0.084 -1.22268,-0.2599 -0.41848,-0.21481 -0.68252,-0.52192 -0.60169,-0.92666 0.57403,-0.42596 0.77206,-0.7608 0.75998,-1.0205 -0.0123,-0.2597 -0.2352,-0.43928 -0.53789,-0.62549 -0.30279,-0.18624 -0.69387,-0.38857 -0.99193,-0.5942 -0.29805,-0.20569 -0.514,-0.42977 -0.51191,-0.74779 0.60752,-0.0752 0.85902,-0.15276 0.88559,-0.25905 0.0233,-0.10702 -0.15007,-0.24003 -0.43058,-0.3791 -0.56095,-0.27799 -1.48251,-0.63051 -1.62988,-1.04921 0.53112,-0.27609 0.93563,-0.73235 0.95825,-1.20202 0.0111,-0.23491 -0.0689,-0.48801 -0.26737,-0.69578 -0.19842,-0.20791 -0.51763,-0.36542 -0.9808,-0.49608 -0.78294,-0.39654 -1.09338,-0.83507 -1.13703,-1.26401 -0.0437,-0.42896 0.16314,-0.86529 0.43876,-1.31247 0.2751,-0.44727 0.62737,-0.91176 0.80094,-1.36326 0.17364,-0.45146 0.19171,-0.90165 -0.16165,-1.34428 -0.6256,-0.32212 -1.30367,-0.46656 -1.98484,-0.58158 -0.6813,-0.11495 -1.37982,-0.19791 -2.04352,-0.30659 -0.16028,-0.0268 -0.29525,-0.0949 -0.45197,-0.12793 l 0,0 c -0.49177,-0.1038 -0.97609,-0.1979 -1.41062,-0.42763 -0.57303,-0.30304 -1.10565,-0.7422 -1.51497,-1.44024 -0.57002,-0.078 -1.03768,-0.48097 -1.48367,-0.98621 -0.44586,-0.50536 -0.85261,-1.12468 -1.24886,-1.6393 -0.39638,-0.51468 -0.7984,-0.91948 -1.21964,-1.02597 -0.21067,-0.0531 -0.42603,-0.0424 -0.65681,0.084 -0.23086,0.12698 -0.46531,0.34867 -0.72564,0.7083 -0.31393,0.67652 -0.65291,1.0781 -1.00198,1.25665 -0.34893,0.17856 -0.69882,0.14362 -1.09117,0.0237 -0.78474,-0.24005 -1.66413,-0.87257 -2.67119,-1.11086 0.35489,-0.10459 0.49103,-0.26162 0.50126,-0.40462 0.0115,-0.14308 -0.10487,-0.25969 -0.30179,-0.38375 -0.39367,-0.24784 -1.08187,-0.42459 -1.48025,-0.25069 -0.2514,-1.07198 -0.39686,-2.26593 -0.68223,-3.40384 -0.28525,-1.13777 -0.69773,-2.22017 -1.42156,-3.0816 -0.008,-0.38545 -0.11977,-0.65235 -0.26551,-0.85518 -0.14572,-0.2027 -0.34241,-0.3394 -0.58349,-0.41153 -0.48205,-0.14405 -1.10951,-0.0816 -1.722,-0.0145 -0.61256,0.0667 -1.19179,0.14939 -1.59992,0.0114 -0.14219,-0.0482 -0.23774,-0.15421 -0.32782,-0.2614 l -0.15267,-0.0333 -0.11773,0.10277 -0.12873,0.005 -0.0369,0.0243 -0.0545,-0.0437 -0.0547,-0.0436 0.0123,-0.0612 0.0105,-0.0302 0.0105,-0.0303 0.0105,-0.0302 0.0369,-0.0243 0.0212,-0.0913 0.0333,-0.15275 -0.0545,-0.0437 -0.0548,-0.0436 -0.0302,-0.0105 -0.0302,-0.0105 -0.0677,0.0175 -0.0302,-0.0105 -0.51703,0.17768 -2.04196,0.58834 -2.39297,0.73725 -0.203,0.0528 -0.037,0.0242 -0.20292,0.0528 -0.41229,0.13607 -0.44939,0.16005 -1.22385,0.34682 0.0657,0.14179 0.0416,0.10461 -0.0212,0.0916 -0.0382,0.18353 -0.0742,0.0481 -0.063,0.14631 -0.20487,0.21205 -0.0253,0.12237 0.0351,0.13525 -0.087,0.10927 -0.0742,0.0483 0.005,0.12877 0.10281,0.11764 -0.0105,0.0302 0.0303,0.0105 -0.0105,0.0302 0.0242,0.0369 -0.0123,0.0614 -0.037,0.0241 -0.0676,0.0174 -0.0613,-0.0123 -0.037,0.0241 -0.0123,0.0612 0.0177,0.0676 -0.0123,0.0612 -0.25293,0.13794 -0.0677,0.0176 -0.14627,-0.0632 -0.0676,0.0176 -0.0742,0.0481 -0.0567,0.11577 -0.0437,0.0547 -0.0913,-0.0212 -0.0303,-0.0105 -0.037,0.024 -0.0302,-0.0105 -0.0105,0.0302 -0.05,0.0852 -0.0807,0.0787 -0.0105,0.0302 -0.0675,0.0176 -0.037,0.0242 -0.0437,0.0546 -0.0123,0.0612 -0.12417,0.13341 -0.1046,0.0415 -0.037,0.0241 -0.0612,-0.0123 -0.0436,0.0546 -0.0105,0.0302 -0.10473,0.0417 -0.0302,-0.0105 -0.05,0.0851 0.0897,0.17888 -0.0937,0.13978 -0.12238,-0.0253 -0.0788,-0.0806 -0.12416,0.13341 -0.0303,-0.0105 -0.18346,-0.038 -0.0303,-0.0105 -0.0742,0.048 -0.1353,0.0352 -0.0105,0.0302 -0.0123,0.0612 0.0241,0.037 -0.0123,0.0611 -0.0566,0.11576 -0.0302,-0.0105 -0.0677,0.0176 -0.0436,0.0547 -0.0123,0.0612 0.0174,0.0676 -0.0105,0.0302 -0.0302,-0.0105 -0.0436,0.0547 -0.05,0.0851 -0.0333,0.15276 -0.0123,0.0611 -0.0303,-0.0105 -0.0675,0.0176 -0.0303,-0.0105 -0.0303,-0.0105 -0.024,-0.037 -0.0676,0.0176 -0.0676,0.0176 -0.0513,0.24466 0.0415,0.10471 -0.005,0.31865 -0.0871,0.10928 -0.10471,0.0416 -0.16401,-0.13069 -0.0175,-0.0677 -0.15264,-0.0333 -0.0123,0.0612 -0.0212,0.0915 -0.0567,0.11574 -0.0676,0.0176 -0.0301,-0.0105 -0.0303,-0.0105 -0.037,0.024 -0.037,0.024 -0.0105,0.0302 -0.0105,0.0303 0.0482,0.074 0.005,0.12879 -0.0743,0.0481 -0.23341,0.0462 -0.25485,0.29719 0.0302,0.0105 0.0684,0.42991 -0.0212,0.25106 0.0284,0.16584 -0.19825,0.18145 -0.0937,0.1399 -0.16123,0.15731 -0.25293,0.13803 -0.0761,0.2074 -0.0105,0.0302 0.0202,0.35569 -0.0105,0.0302 0.0242,0.037 0.0287,0.16581 0.0481,0.0743 -0.0105,0.0302 -0.0105,0.0302 -0.0437,0.0547 -0.0123,0.061 0.0241,0.037 0.0241,0.0371 0.0241,0.0369 0.0546,0.0436 0.0481,0.0743 0.0547,0.0436 0.0176,0.0676 -0.0105,0.0303 0.0176,0.0675 -0.0105,0.0303 0.0851,0.05 0.0982,-0.0112 0.0303,0.0105 0.0913,0.0212 0.0241,0.037 0.0851,0.0499 0.0547,0.0436 0.024,0.037 0.0354,0.13528 0.0302,0.0105 0.12878,-0.005 0.12239,0.0254 0.0481,0.0743 0.0111,0.0981 0.19906,0.26591 0.11577,0.0566 0.0239,0.037 0.0852,0.05 0.0546,0.0437 0.0482,0.0742 0.13984,0.0935 0.24467,0.0512 0.14627,0.0631 0.18804,0.16775 0.0658,0.14178 0.0787,0.0805 -0.0383,0.18352 0.0851,0.05 0.13991,0.0935 0.0242,0.037 0.0302,0.0105 0.0302,0.0105 0.0612,0.0123 0.12241,0.0254 0.23338,-0.0462 0.26866,0.089 0.0786,0.0807 0.39928,-0.0749 0.0612,0.0123 0.0302,0.0105 0.0612,0.0123 0.0239,0.037 0.0612,0.0123 -0.0105,0.0303 -0.0123,0.0611 -0.0212,0.0914 -0.007,0.18993 0.0302,0.0105 0.024,0.037 0.33627,0.0716 0.0333,0.29453 0.29067,0.28551 0.0547,0.0436 0.19452,0.13725 0.0369,-0.0242 0.10928,0.087 0.22956,0.27248 0.0723,0.11116 0.1509,0.19187 -0.0212,0.0913 0.0176,0.0676 0.0241,0.0369 0.12235,0.0254 0.0983,-0.0109 0.0105,-0.0301 0.12239,0.0254 0.0546,0.0436 0.0303,0.0105 0.12689,0.15477 -0.0105,0.0302 0.0302,0.0105 -0.2289,0.17505 -0.0123,0.0612 0.29721,0.25485 0.13337,0.12426 0.0852,0.0499 0.17887,-0.0898 0.0612,0.0123 0.0481,0.0742 0.0723,0.11117 0.0418,0.10474 0.10274,0.11774 0.18794,0.16774 0.0613,0.0123 0.0742,-0.0483 0.56587,0.34398 0.0612,0.0123 0.12875,-0.005 0.0302,0.0105 0.0123,-0.0613 0.0105,-0.0303 0.0105,-0.0302 0.0437,-0.0546 0.0105,-0.0302 0.0303,0.0105 0.27049,-0.0703 0.34922,0.0101 0.0981,-0.0111 0.1575,0.16129 0.14827,-0.0963 0.16124,-0.15731 0.28159,0.0276 0.0788,0.0806 0.0612,0.0123 0.33823,-0.0877 0.13529,-0.0352 0.4631,0.22622 0.13976,0.0938 0.0241,0.0369 0.0482,0.0741 -0.0123,0.0612 -0.037,0.024 -0.0123,0.0614 0.0178,0.0675 0.23155,0.11314 0.0912,0.0212 -0.0105,0.0302 0.0303,0.0105 -0.0212,0.0914 0.011,0.0982 0.0241,0.0369 0.0723,0.11116 0.0241,0.0371 0.0203,0.35569 0.0659,0.1418 0.048,0.0742 0.0303,0.0105 -0.0105,0.0303 0.0176,0.0676 0.009,0.25749 0.0241,0.037 0.0944,0.30756 -0.0105,0.0302 0.0241,0.037 -0.0212,0.0915 -0.0105,0.0302 -0.0105,0.0303 0.024,0.037 0.0241,0.037 0.0242,0.037 0.0658,0.14177 -0.0105,0.0302 0.0222,0.19639 0.0302,0.0105 -0.0105,0.0303 0.005,0.12879 -0.0212,0.0915 0.0241,0.037 0.0302,0.0105 0.22504,0.14369 0.18802,0.16776 0.10928,0.087 0.29721,0.25486 0.0612,0.0123 0.024,0.037 -0.0105,0.0302 0.0528,0.20287 0.0302,0.0105 -0.0105,0.0303 -0.0212,0.0916 0.0178,0.0676 -0.0105,0.0302 0.11191,0.37527 0.11383,0.21589 0.0287,0.1659 0.12031,0.18526 0.0241,0.0368 0.0722,0.11126 0.13981,0.0935 0.037,-0.0242 0.0241,0.037 0.15732,0.16124 0.13341,0.12416 0.0658,0.14175 -0.0436,0.0546 -0.0105,0.0302 0.0416,0.10481 0.0417,0.10464 0.0416,0.10461 -0.0458,0.21397 0.0177,0.0676 0.011,0.0982 0.0462,0.23353 -0.05,0.0852 -0.0123,0.0611 0.0897,0.17887 -0.0105,0.0303 -0.0254,0.12238 0.0112,0.0982 0.024,0.037 -0.0105,0.0302 0.17955,0.35765 0.0174,0.0676 -0.0101,0.34928 0.0176,0.0675 0.0176,0.0677 0.12688,0.15477 0.0177,0.0675 0.048,0.0743 -0.0105,0.0302 0.10553,0.40582 0.0851,0.0499 0.24265,0.21138 0.11576,0.0567 0.0912,0.0212 0.0676,-0.0176 0.0612,0.0123 0.0722,0.11117 0.23802,0.0827 0.0241,0.037 0.16195,0.29001 0.0287,0.16581 0.0242,0.037 0.0481,0.0743 0.0477,0.0738 0.0239,0.037 0.0301,0.0105 0.0107,0.098 0.10926,0.0873 0.0607,0.0123 0.0917,0.0212 0.0239,0.0369 0.1269,0.15476 0.0239,0.0369 -0.0123,0.0613 0.0239,0.037 -0.0105,0.0302 -0.0629,0.14644 -0.0434,0.0546 -0.0212,0.0914 0.0238,0.0368 0.0173,0.0676 -0.0105,0.0302 0.10281,0.11765 0.0854,0.0501 0.0301,0.0105 0.0299,0.0105 0.03,0.0105 0.0367,-0.0242 0.0301,0.0105 0.0541,0.0435 0.12688,0.15476 -0.0105,0.0302 0.0173,0.0676 0.0411,0.10448 0.13337,0.12426 0.0833,0.20938 0.16382,0.13067 0.16397,0.13079 0.0239,0.0368 0.0107,0.0982 -0.0383,0.18353 0.0107,0.0981 0.0238,0.037 0.0239,0.037 0.0175,0.0674 0.0238,0.037 -0.0105,0.0302 0.0466,0.23348 0.079,0.0806 0.0854,0.05 0.11575,0.0566 0.03,0.0105 0.0239,0.037 -0.0105,0.0302 -0.0105,0.0302 -0.0366,0.0242 -0.0433,0.0548 -0.0434,0.0546 0.0172,0.0676 0.0174,0.0676 0.0477,0.074 0.0725,0.1113 0.1093,0.087 0.055,0.0438 0.0281,0.16578 0.005,0.12874 0.0477,0.0738 0.15554,0.32064 0.0608,0.0123 0.26215,0.1196 0.10497,-0.0416 0.0681,-0.0175 0.0367,-0.0241 0.0671,-0.0177 0.0607,0.0123 0.0671,-0.0178 0.0608,0.0123 0.24907,0.18074 0.12038,0.18539 0.0962,0.14827 0.12043,0.18526 0.0594,0.17233 0.0724,0.11128 0.27979,0.18726 0.0239,0.0368 0.23608,0.24197 0.24916,0.18074 0.0301,0.0105 0.0724,0.11119 0.16394,0.13057 0.17688,0.0696 0.0542,0.0436 0.18155,0.19827 0.0239,0.0369 0.03,0.0105 0.0299,0.0105 0.12239,0.0254 0.0917,0.0212 0.0105,-0.0302 0.0299,0.0105 0.0671,-0.0178 0.13529,-0.0353 0.0917,0.0212 0.0854,0.0501 0.1028,0.11765 0.10926,0.0871 0.1464,0.063 0.13979,0.0935 0.12031,0.18536 0.055,0.0436 0.0607,0.0123 0.26215,0.11959 0.0608,0.0123 0.0854,0.0501 0.11579,0.0566 0.15731,0.16124 0.055,0.0437 0.0541,0.0435 0.11576,0.0566 0.0551,0.0438 0.0855,0.05 0.1574,0.16126 0.0477,0.074 0.0299,0.0105 -0.0105,0.0302 0.054,0.0434 0.0789,0.0807 0.1398,0.0935 0.03,0.0105 -0.0105,0.0303 0.0541,0.0435 0.0239,0.0369 -0.0105,0.0302 -0.0105,0.0303 0.0238,0.037 -0.0212,0.25101 -0.0105,0.0302 0.0173,0.0675 0.0855,0.0501 0.0671,-0.0178 0.0617,0.0123 0.03,0.0105 0.054,0.0436 0.10929,0.0871 0.0238,0.037 0.0476,0.074 0.0239,0.0368 0.1704,0.10018 0.0607,0.0123 0.0301,0.0105 -0.0105,0.0302 0.024,0.0368 0.0238,0.037 0.0174,0.0675 0.1224,0.0254 0.0916,0.0212 0.18153,0.19828 0.0216,0.19636 0.13143,0.28354 -0.0105,0.0303 0.0411,0.10458 0.0174,0.0675 0.0748,0.39927 -0.0382,0.18366 -0.0105,0.0302 0.053,0.20296 0.1093,0.087 0.0173,0.0676 0.10278,0.11762 0.0541,0.0436 0.10925,0.0873 0.0239,0.0369 0.11378,0.21597 0.0659,0.1418 0.0175,0.0674 0.19453,0.13724 0.0107,0.0981 0.0108,0.0981 -0.0335,0.31227 0.099,0.43629 -0.0105,0.0302 0.2602,0.27891 0.13336,0.12425 0.0238,0.0368 0.0917,0.0212 0.0239,0.037 0.24466,0.0512 0.03,0.0105 0.03,0.0105 0.054,0.0435 0.0607,0.0123 0.0855,0.05 0.0595,0.17233 0.0477,0.0741 0.13343,0.12415 0.17681,0.0695 0.0299,0.0105 0.0607,0.0123 0.0299,0.0105 0.0301,0.0105 0.0299,0.0105 0.0367,-0.0243 0.11794,-0.10271 0.10494,-0.0416 0.03,0.0105 0.13527,-0.0352 0.0854,0.0501 0.16846,0.25937 0.0551,0.0438 0.0541,0.0435 0.17699,0.0695 0.23803,0.0826 0.0917,0.0212 0.0854,0.0501 0.26682,0.24828 0.0542,0.0435 0.03,0.0105 0.12879,-0.005 0.0541,0.0435 0.23608,0.24189 0.0594,0.1723 0.0478,0.0741 0.0853,0.05 0.10275,0.11773 0.0175,0.0675 0.079,0.0807 0.11577,0.0566 z"
       id="SC-03"
       style="font-style:normal;font-weight:400;font-size:34.375px;font-family:'MS Shell Dlg 2';opacity:1;fill:none;fill-opacity:1;fill-rule:evenodd;stroke:#000000;stroke-width:0.33333385;stroke-linecap:square;stroke-linejoin:bevel;stroke-miterlimit:4;stroke-dasharray:none;stroke-opacity:1" />
    <path
       inkscape:connector-curvature="0"
       d="m 176.17348,374.42326 c 0.0901,0.10718 0.18562,0.21327 0.32781,0.2614 0.40813,0.13812 0.98733,0.0557 1.59993,-0.0114 0.61248,-0.0668 1.23995,-0.12961 1.72201,0.0145 0.24107,0.0721 0.43774,0.20883 0.58349,0.41153 0.14572,0.20283 0.25706,0.46973 0.2655,0.85518 0.72383,0.86143 1.1363,1.94383 1.42156,3.0816 0.28535,1.1379 0.43084,2.33186 0.68224,3.40384 0.39838,-0.17397 1.08657,0.003 1.48023,0.25069 0.19693,0.12403 0.31218,0.24069 0.3018,0.38375 -0.009,0.14302 -0.14651,0.29999 -0.50127,0.40462 1.00707,0.23828 1.88646,0.87085 2.67121,1.11086 0.39233,0.11999 0.74226,0.15468 1.09117,-0.0237 0.34904,-0.17855 0.68804,-0.58013 1.00197,-1.25665 0.26034,-0.35963 0.49477,-0.58132 0.72563,-0.7083 0.23084,-0.1271 0.44619,-0.13733 0.65683,-0.084 0.42122,0.10647 0.82325,0.51129 1.21962,1.02597 0.39625,0.51462 0.80299,1.13394 1.24887,1.6393 0.44599,0.50524 0.91375,0.9077 1.48367,0.98621 0.40932,0.69804 0.94194,1.1372 1.51497,1.44024 0.43451,0.22977 0.91891,0.32353 1.41061,0.42762 l 1.91504,-7.35639 1.68863,-1.78166 -1.09661,-0.55245 -1.49646,-3.481 -1.41948,0.81653 -1.14215,-0.3387 -2.15902,-2.91885 -0.48021,-1.34809 -0.22035,-0.0156 -0.95612,-0.0117 -0.22037,-0.0157 -0.15275,-0.0333 -0.75959,-0.0336 -0.66785,-0.0147 -0.22046,-0.0156 -0.18984,-0.007 -0.25104,-0.0212 -0.28169,-0.0276 -0.18993,-0.007 -0.12877,0.005 -0.0917,-0.0212 -0.0983,0.011 -0.0299,-0.0105 -0.15267,-0.0333 -0.3186,-0.005 -0.1224,-0.0254 -0.4104,-0.0234 -0.18985,-0.007 -0.13524,0.0352 -0.11145,0.0721 -0.0367,0.0243 -0.30114,0.0638 -0.17237,0.0591 -0.0368,0.0242 -0.0123,0.0612 -0.0299,-0.0105 -0.11149,0.0723 -0.0608,-0.0123 -0.0105,0.0302 -0.0854,-0.05 -0.0173,-0.0676 -0.0541,-0.0435 -0.10497,0.0417 -0.03,-0.0105 -0.03,-0.0105 -0.0174,-0.0676 -0.0855,-0.05 -0.12875,0.005 -0.0681,0.0173 -0.0367,0.0242 -0.13527,0.0352 -0.0671,0.0178 -0.0105,0.0302 0.0239,0.037 -0.0105,0.0302 -0.0105,0.0302 -0.03,-0.0105 -0.0433,0.0548 -0.0435,0.0544 -0.0671,0.0177 -0.0239,-0.037 -0.0854,-0.0499 -0.0789,-0.0807 -0.0173,-0.0675 -0.0173,-0.0676 0.0123,-0.0613 0.0367,-0.0241 0.0105,-0.0303 0.0123,-0.0613 -0.0411,-0.10455 -0.0897,-0.17879 -0.0173,-0.0676 -0.10279,-0.11764 -0.0239,-0.037 -0.0676,0.0176 -0.0369,0.0241 -0.037,0.024 -0.15012,0.25567 -0.20298,0.0527 -0.14177,0.0659 -0.0436,0.0546 -0.12423,0.13336 -0.0587,0.27501 -0.0695,0.17693 -0.10019,0.17039 -0.0123,0.0612 -0.0105,0.0303 -0.1047,0.0415 -0.13529,0.0353 -0.0676,0.0174 -0.0302,-0.0105 -0.0302,-0.0105 -0.0417,-0.10481 -0.011,-0.0981 0.0123,-0.0612 -0.0787,-0.0806 -0.0914,-0.0212 -0.17888,0.0897 -0.098,0.011 -0.0851,-0.0501 -0.20297,0.0527 -0.0741,0.0484 -0.0807,0.0786 -0.0936,0.13991 -0.0982,0.0109 -0.15924,-0.003 -0.22705,0.0159 -0.0369,0.0241 -0.0437,0.0546 -0.0437,0.0546 -0.0741,0.0481 -0.037,0.024 -0.0303,-0.0105 -0.0369,0.024 -0.0302,-0.0105 -0.0303,-0.0105 -0.0612,-0.0123 -0.0175,-0.0676 -0.0303,-0.0105 -0.0851,-0.0501 -0.0982,0.0111 -0.0676,0.0177 -0.0676,0.0175 -0.0676,0.0176 -0.0437,0.0547 -0.0123,0.0611 0.0241,0.037 -0.0438,0.0546 -0.0611,-0.0123 -0.0303,-0.0105 -0.0981,0.0109 -0.037,0.0242 -0.05,0.0851 -0.0105,0.0302 -0.0369,0.0242 -0.0105,0.0302 -0.0612,-0.0123 -0.11119,0.0723 -0.0677,0.0175 -0.0302,-0.0105 -0.0852,-0.05 -0.0675,0.0177 -0.0871,0.10926 -0.13527,0.0352 -0.0851,-0.0501 -0.18996,-0.007 -0.0742,0.0481 -0.0105,0.0302 -0.037,0.0241 -0.0675,0.0176 -0.0676,0.0176 -0.0936,0.1398 -0.0437,0.0547 -0.0437,0.0544 -0.0981,0.0112 -0.0612,-0.0123 -0.0241,-0.037 -0.0546,-0.0437 -0.0302,-0.0105 -0.0612,-0.0123 -0.037,0.024 -0.0302,-0.0105 -0.0742,0.0482 -0.0742,0.0481 -0.0105,0.0302 -0.0123,0.0612 -0.11128,0.0723 -0.1046,0.0415 -0.15935,-0.003 -0.0302,-0.0105 -0.0546,-0.0437 -0.0241,-0.037 -0.0176,-0.0676 -0.0545,-0.0437 -0.0612,-0.0123 -0.0241,-0.037 -0.0677,0.0174 -0.074,0.0482 -0.0123,0.0612 0.0174,0.0676 -0.0369,0.024 -0.0369,0.024 -0.0123,0.0614 -0.0105,0.0302 -0.0123,0.0612 -0.0105,0.0303 0.0481,0.0741 0.0175,0.0676 -0.0105,0.0302 -0.0123,0.0612 -0.0302,-0.0105 -0.0937,0.13989 -0.10461,0.0416 -0.0612,-0.0123 -0.0611,-0.0123 -0.0743,0.0482 -0.1788,0.0898 -0.12876,0.005 -0.0547,-0.0436 -0.0982,0.011 -0.0437,0.0546 -0.0105,0.0302 -0.0212,0.0915 -0.0105,0.0303 -0.0303,-0.0105 -0.087,0.1093 -0.0872,0.10926 -0.0675,0.0175 -0.0915,-0.0212 -0.0981,0.0109 -0.0212,0.0914 -0.0123,0.0612 -0.0565,0.11579 -0.10481,0.0416 z"
       id="SC-04"
       style="font-style:normal;font-weight:400;font-size:34.375px;font-family:'MS Shell Dlg 2';opacity:1;fill:#000000;fill-opacity:1;fill-rule:evenodd;stroke:#000000;stroke-width:0.33333385;stroke-linecap:square;stroke-linejoin:bevel;stroke-miterlimit:4;stroke-dasharray:none;stroke-opacity:1" />
    <path
       inkscape:connector-curvature="0"
       d="m 215.99774,372.0897 -0.31864,-0.005 -0.47149,-0.0359 -0.34277,-0.041 -0.41029,-0.0234 -0.0301,-0.0105 -0.0367,0.0241 -0.28159,-0.0276 -0.12878,0.005 -0.18993,-0.007 -0.75313,-0.064 -0.22693,0.0156 -0.66141,-0.0453 -0.69848,-0.0202 -0.0608,-0.0123 -0.56973,-0.0248 -0.0671,0.0177 -0.50208,-0.0432 -0.34915,-0.0101 -0.19004,-0.007 -0.0983,0.011 -0.22035,-0.0156 -0.88836,-0.029 -1.6786,-0.0691 -0.0608,-0.0123 -0.03,-0.0105 -0.0618,-0.0123 -0.0984,0.011 -0.0608,-0.0123 -0.22046,-0.0156 -0.12877,0.005 -0.0607,-0.0123 -0.53918,-0.0194 -0.03,-0.0105 -0.51506,0.0183 -0.50206,-0.0432 -0.15927,-0.003 -0.0607,-0.0123 -0.37978,-0.0172 -0.18993,-0.007 -0.0367,0.0242 -0.1836,-0.0382 -0.63735,-0.008 -0.12875,0.005 -0.22036,-0.0157 -0.53278,-0.0485 -0.63733,-0.008 -0.15265,-0.0333 -0.37975,-0.0172 -0.1288,0.005 -0.31226,-0.0335 -0.067,0.0178 -0.0915,-0.0212 -0.34921,-0.0101 -0.0984,0.0111 -0.47806,-0.005 -0.0918,-0.0212 -0.0984,0.011 -0.0917,-0.0212 -0.60679,-0.002 -0.98013,-0.0483 -0.12238,-0.0254 -0.18981,-0.007 -0.37981,-0.0172 -1.0477,-0.0316 -0.15938,-0.003 -1.01065,-0.055 -0.12875,0.005 -0.22037,-0.0156 -0.41042,-0.0234 -0.12876,0.005 -0.72897,-0.0274 0.48023,1.3481 2.159,2.9189 1.14214,0.33866 1.41948,-0.81652 1.49646,3.48099 1.0966,0.55248 -1.68863,1.78165 -1.91503,7.35641 c 0.15659,0.0339 0.29164,0.1017 0.45196,0.12792 0.66364,0.1091 1.36225,0.19161 2.04354,0.3066 0.68117,0.11485 1.35931,0.25911 1.98485,0.58159 0.34869,0.44166 0.33509,0.89277 0.16164,1.3443 -0.17364,0.45145 -0.52585,0.91597 -0.80095,1.36324 -0.27519,0.44727 -0.48244,0.88351 -0.43877,1.31246 0.0436,0.42893 0.35408,0.86748 1.13705,1.26403 0.46315,0.13063 0.78239,0.28817 0.98081,0.49606 0.19842,0.2078 0.27876,0.46094 0.26737,0.69578 -0.0224,0.46961 -0.42714,0.92594 -0.95826,1.20206 0.14737,0.41868 1.06892,0.77119 1.62986,1.04919 0.28052,0.13907 0.45729,0.27281 0.43061,0.37911 -0.0233,0.10704 -0.27809,0.18379 -0.88561,0.25902 -0.003,0.31798 0.21384,0.54211 0.5119,0.74776 0.29805,0.20569 0.68914,0.408 0.99194,0.59423 0.30272,0.1862 0.52585,0.36585 0.5379,0.62552 0.0123,0.25972 -0.18571,0.59458 -0.75998,1.02048 -0.0756,0.40584 0.18321,0.71184 0.60169,0.92665 0.34161,0.17536 0.79149,0.228 1.22269,0.25991 l 0,0 c 0.0966,0.009 0.18024,0.0591 0.27503,0.0586 0.51609,-0.003 0.98126,-0.10454 1.19331,-0.35331 0.10616,-0.12445 0.14923,-0.29807 0.10425,-0.48903 -0.0453,-0.19108 -0.18645,-0.40604 -0.43323,-0.66725 0.22158,-0.57112 0.57523,-1.12623 1.0058,-1.5753 0.43045,-0.44902 0.94531,-0.78809 1.48906,-0.99333 0.54366,-0.20522 1.12584,-0.28105 1.68695,-0.1207 0.561,0.16046 1.11488,0.55455 1.59735,1.2022 -0.042,-0.44895 0.0358,-0.74068 0.19484,-0.91704 0.15881,-0.17633 0.39452,-0.25403 0.70228,-0.29797 0.61571,-0.0878 1.46485,-0.0559 2.36524,-0.45573 l 4.94626,-1.02529 -0.83195,2.41098 3.39279,3.27702 0.59116,-0.22572 0,0 1.63803,-0.64226 c 0.27322,0.10368 0.46223,0.35486 0.56205,0.66253 0.0998,0.30776 0.0961,0.66236 -0.005,0.92545 -0.19411,0.58607 -0.56229,1.10487 -0.71303,1.70148 0.0428,0.25066 0.17226,0.51126 0.25437,0.7569 0.0822,0.24565 0.12357,0.49368 -0.003,0.76608 -0.21775,0.52327 0.007,1.03199 0.0855,1.5517 0.0616,0.52435 0.56675,0.92812 0.44775,1.50089 0.0668,0.93235 -0.34846,1.81417 -0.32761,2.74184 0.25922,0.57117 0.89527,0.83067 1.20921,1.37516 0.18266,0.19882 0.45136,0.3777 0.73639,0.44409 0.28483,0.0667 0.57918,0.0434 0.78094,-0.21738 0.42086,-0.45535 0.68821,-1.04208 1.11507,-1.48818 0.22614,-0.21693 0.50409,-0.26529 0.78745,-0.24791 0.28345,0.017 0.56698,0.0948 0.83181,0.14458 0.10816,-0.18167 -0.0571,-0.48556 -0.15616,-0.76793 -0.0497,-0.14131 -0.0759,-0.29003 -0.0444,-0.3928 0.0321,-0.10276 0.1259,-0.16401 0.32704,-0.18609 l 2.65714,-0.77712 c -0.4882,-0.83526 -1.20929,-2.35856 -1.79497,-3.12896 -0.0843,-0.16513 -0.19975,-0.50272 -0.21737,-0.78107 -0.0175,-0.27834 0.0729,-0.48265 0.42725,-0.35645 0.69519,0.20304 1.12906,0.77059 1.70211,1.16055 0.32249,0.22434 0.58773,0.10337 0.73105,-0.1322 0.14311,-0.23569 0.18416,-0.55862 0.0763,-0.81436 -0.16521,-0.60222 -0.0987,-1.25103 0.13257,-1.82483 0.318,-0.28258 0.58028,-0.20629 0.7596,0.0336 0.17934,0.23994 0.25561,0.63094 0.22192,0.90971 -0.0232,0.10575 -0.0433,0.19998 -0.0645,0.30588 l 2.80855,-1.6395 1.02361,-0.006 0.42837,-0.96328 c -0.56093,-0.33599 -1.13162,-0.636 -1.62989,-1.04921 -0.79837,-0.66216 -1.46645,-1.42421 -1.89173,-2.2232 0.50108,-0.32186 0.73441,-0.73905 0.79906,-1.20387 0.0652,-0.4648 -0.0342,-0.97094 -0.22728,-1.48605 -0.38617,-1.03007 -1.11617,-2.06435 -1.46252,-2.73889 -0.41605,0.49623 -0.82326,0.69245 -1.20356,0.7026 -0.38033,0.0102 -0.74953,-0.17057 -1.04845,-0.47844 -0.29893,-0.30786 -0.53742,-0.71536 -0.70909,-1.17307 -0.17172,-0.4577 -0.27844,-0.96129 -0.27734,-1.40076 -0.39652,-1.03383 -0.95573,-1.97803 -1.44755,-2.95932 -0.49189,-0.98142 -0.91922,-1.99922 -1.02234,-3.15657 -1.14972,-1.41841 -2.16201,-2.94043 -3.13295,-4.49969 l -0.31863,-0.005 -0.66784,-0.0147 -0.70505,0.01 -0.1288,0.005 -0.41679,0.007 -0.0608,-0.0123 -0.41691,0.007 -0.15926,-0.003 -0.22049,-0.0157 -0.067,0.0178 -0.19003,-0.007 -0.0299,-0.0105 -0.60678,-0.002 -0.15926,-0.003 -1.06066,0.0301 -0.12237,-0.0254 -0.48455,0.0249 0.0254,-0.12239 0.003,-0.15931 0.0254,-0.12235 -0.005,-0.12875 0.19349,-1.81175 0.0442,-0.50192 0.0537,-0.40394 -0.0239,-0.037 -0.14445,-0.22229 -0.42872,-0.53849 -0.34988,-0.45775 -0.43986,-0.63657 -0.27121,-0.37714 -0.27122,-0.37714 -0.17502,-0.22888 -0.34998,-0.45775 -0.29535,-0.41417 -0.20553,-0.23548 -0.32596,-0.42065 -0.2471,-0.34011 -0.10278,-0.11763 -0.27899,0.26017 -0.0299,-0.0105 -0.0434,0.0547 -0.0368,0.0242 -0.14825,0.0962 -0.45776,0.3499 -0.14177,0.0658 -0.11792,0.10271 -1.20557,0.86199 -0.19256,-0.29651 -0.1269,-0.15475 -0.0301,-0.0105 -0.0239,-0.037 0.004,-0.31877 -0.0108,-0.0982 0.0212,-0.25101 0.0105,-0.0302 0.0105,-0.0302 0.0694,-0.17702 0.0123,-0.0611 0.0433,-0.0548 0.0746,-0.048 0.0368,-0.0243 0.0984,-0.0111 0.0367,-0.0241 0.067,-0.0178 0.0299,0.0105 0.0105,-0.0303 0.0105,-0.0303 0.0497,-0.0852 0.0105,-0.0303 0.0105,-0.0302 -0.005,-0.12875 -0.10737,-0.2465 -0.0412,-0.10449 -0.26207,-0.11959 -0.0239,-0.037 0.0105,-0.0302 0.0644,-0.30576 0.0105,-0.0302 0.0802,-0.0789 0.03,0.0105 0.0105,-0.0302 -0.0239,-0.037 z"
       id="SC-05"
       style="font-style:normal;font-weight:400;font-size:34.375px;font-family:'MS Shell Dlg 2';opacity:1;fill:none;fill-opacity:1;fill-rule:evenodd;stroke:#000000;stroke-width:0.33333385;stroke-linecap:square;stroke-linejoin:bevel;stroke-miterlimit:4;stroke-dasharray:none;stroke-opacity:1" />
    <path
       inkscape:connector-curvature="0"
       d="m 221.06952,458.85268 c -0.41424,-0.0579 -0.80169,-0.16941 -1.12907,-0.39968 -0.35272,-0.24858 -0.63344,-0.63151 -0.82485,-1.22968 -0.37406,-0.29399 -0.73427,-0.68331 -1.00374,-1.13989 -0.26936,-0.45646 -0.45723,-0.9675 -0.52177,-1.45264 -0.0646,-0.48523 0.008,-0.94102 0.24864,-1.32097 0.24044,-0.37989 0.65153,-0.70176 1.29723,-0.84251 0.72263,-0.76107 1.38024,-1.50491 2.2648,-1.78684 0.43753,-0.71414 0.78725,-1.80927 1.32482,-2.62564 0.26886,-0.4082 0.60257,-0.7311 0.99156,-0.90749 0.38906,-0.17635 0.86144,-0.20984 1.43403,0.017 1.74371,0.0609 3.52753,-0.28206 5.22672,-0.39064 0.55644,-0.32592 1.30411,-0.69351 1.74849,-1.16186 0.22222,-0.2341 0.37654,-0.48449 0.38935,-0.77989 0.0122,-0.29533 -0.11207,-0.61208 -0.42941,-0.98583 0.19162,-0.42545 0.442,-0.69386 0.7211,-0.83706 0.27905,-0.1432 0.5648,-0.15946 0.88375,-0.0997 0.63807,0.11954 1.32048,0.53942 1.83283,0.99663 0.43077,0.31619 0.75268,0.31783 1.02169,0.15369 0.2691,-0.16455 0.49446,-0.48693 0.7211,-0.83708 0.22657,-0.35022 0.47411,-0.71208 0.77753,-0.95296 0.30351,-0.24086 0.6614,-0.36394 1.16086,-0.20051 0.31654,-0.1325 0.52879,-0.29266 0.64304,-0.47029 0.1144,-0.17769 0.13813,-0.37589 0.08,-0.52615 -0.058,-0.15024 -0.21272,-0.26134 -0.41308,-0.31139 -0.20032,-0.0498 -0.44239,-0.0281 -0.755,0.0951 -0.55963,0.0905 -0.78678,0.0183 -0.80123,-0.13832 -0.0149,-0.15679 0.18186,-0.3987 0.36994,-0.6881 0.18839,-0.28937 0.37317,-0.62529 0.42185,-0.93269 0.0492,-0.30731 -0.035,-0.59149 -0.46843,-0.80241 -0.66357,-0.3815 -1.71352,-0.4728 -2.48501,-0.7838 -0.38583,-0.15548 -0.70295,-0.38394 -0.87422,-0.69699 -0.17134,-0.31307 -0.21282,-0.72448 -0.009,-1.31176 -0.21824,-0.86205 -0.51965,-1.7628 -0.61777,-2.6552 -0.049,-0.44612 -0.0373,-0.89868 0.0589,-1.32927 0.0922,-0.4315 0.26656,-0.84995 0.58505,-1.24947 0.01,-0.511 0.14537,-0.97782 0.32922,-1.39954 0.18376,-0.42181 0.41345,-0.79369 0.69442,-1.16231 0.56186,-0.7372 1.25245,-1.41197 1.73595,-2.15488 0.0113,-0.47793 0.19777,-0.71388 0.46352,-0.82801 0.26543,-0.11422 0.60585,-0.0871 0.9755,-0.0802 0.36961,0.007 0.75583,-0.007 1.08021,-0.12178 0.32428,-0.1145 0.58501,-0.32814 0.71451,-0.80658 0.25261,-0.44631 0.6051,-0.71572 0.97851,-0.84623 0.37352,-0.13059 0.77374,-0.14349 1.19604,-0.0653 0.8446,0.1561 1.71054,0.62347 2.31728,0.97181 -0.0862,0.90491 -0.47042,1.53014 -1.00491,2.02279 -0.53459,0.49261 -1.21436,0.86776 -1.89684,1.2581 -0.21677,2.05345 -0.74663,3.96482 -1.29727,5.9541 0.13158,0.31454 0.30258,1.07898 0.30595,1.56664 0.002,0.24382 -0.0518,0.41645 -0.15253,0.41486 -0.0998,-0.002 -0.25986,-0.17995 -0.50738,-0.61902 -0.51202,-0.48946 -0.85477,-0.53786 -1.06792,-0.38678 -0.21308,0.15119 -0.27777,0.5055 -0.23184,0.94118 0.0458,0.43563 0.19117,0.94713 0.45619,1.31099 0.26495,0.36383 0.65884,0.58617 1.10297,0.52202 0.46262,0.0836 0.6224,0.65613 0.83799,1.16845 0.10768,0.25611 0.23222,0.50483 0.40264,0.66066 0.17042,0.15581 0.3871,0.23206 0.70312,0.14931 0.48312,-0.67949 0.40499,-1.65535 0.52631,-2.47587 0.0606,-0.41038 0.16705,-0.78604 0.41723,-1.06145 0.24594,-0.27642 0.64144,-0.47002 1.25634,-0.49971 0.81253,-0.1663 1.33103,-0.53361 1.69207,-1.04606 0.36095,-0.51256 0.54939,-1.15952 0.75202,-1.88484 0.46582,-0.39416 0.86816,-0.77197 1.21589,-1.21127 0.34773,-0.4392 0.65255,-0.92434 0.86396,-1.50958 0.23857,-0.41064 0.57464,-0.63009 0.95261,-0.72392 0.37799,-0.094 0.78964,-0.0884 1.20251,-0.0959 0.4128,-0.007 0.8113,-0.0186 1.15427,-0.16993 0.34298,-0.1515 0.63965,-0.4208 0.80814,-0.94645 0.12336,-0.47963 0.38391,-0.71726 0.69699,-0.8742 -0.28355,-0.0999 -0.52572,-0.29137 -0.8169,-0.36534 -0.37713,-0.32858 -0.9274,-0.52507 -1.51802,-0.67402 -0.59056,-0.14904 -1.21491,-0.27496 -1.75982,-0.43806 -0.54501,-0.16293 -1.007,-0.37363 -1.2475,-0.74431 -0.24058,-0.37073 -0.26009,-0.87582 0.0626,-1.64796 0.5945,-1.02214 1.27146,-2.00653 2.02716,-2.92375 0.75571,-0.91711 1.58956,-1.79402 2.47075,-2.60563 0.41831,-0.40254 0.69845,-0.8701 0.89908,-1.37442 0.20024,-0.50436 0.32628,-1.03037 0.46014,-1.56348 0.13381,-0.53313 0.27301,-1.06808 0.49076,-1.55701 0.218,-0.48884 0.49435,-0.9286 0.94732,-1.30015 0.38092,-0.43153 0.45447,-0.75582 0.30635,-0.9892 -0.1484,-0.23346 -0.50484,-0.39686 -0.92617,-0.45247 -0.42147,-0.0548 -0.924,-0.008 -1.3618,0.0939 -0.43777,0.10202 -0.80769,0.28163 -1.00531,0.52107 -0.48856,-0.39971 -1.90206,-0.49345 -2.86032,-0.67178 -0.47906,-0.0896 -0.84677,-0.20129 -0.93914,-0.3914 -0.0924,-0.19007 0.0939,-0.44122 0.7211,-0.83707 0.53595,-0.36096 0.7618,-0.61495 0.77563,-0.79358 0.0132,-0.1787 -0.18342,-0.28231 -0.46123,-0.38552 -0.27768,-0.10326 -0.64397,-0.20193 -0.98267,-0.33668 -0.33866,-0.13483 -0.63309,-0.31244 -0.80192,-0.58584 -0.339,-0.49058 -0.63557,-0.60464 -0.88267,-0.50708 -0.24708,0.0976 -0.43893,0.40183 -0.65799,0.69079 -0.21907,0.28897 -0.45791,0.56361 -0.71263,0.64728 -0.25476,0.0836 -0.55233,-0.0263 -0.9067,-0.54419 -0.45771,0.0154 -0.8386,-0.11306 -1.17907,-0.31457 -0.34057,-0.20131 -0.63008,-0.46212 -0.92242,-0.77114 -0.58456,-0.61802 -1.15287,-1.3636 -1.95846,-1.75811 -0.34186,-0.16883 -0.64782,-0.42251 -0.98543,-0.62482 l -0.42833,0.96328 -1.02362,0.006 -2.80856,1.6395 c 0.0232,-0.10555 0.0434,-0.19977 0.0645,-0.30587 0.0345,-0.27868 -0.0426,-0.66979 -0.2219,-0.90972 -0.17934,-0.23992 -0.44159,-0.31621 -0.7596,-0.0336 -0.23094,0.57381 -0.29762,1.22263 -0.13256,1.82484 0.10727,0.25572 0.066,0.5786 -0.0763,0.81438 -0.1431,0.23569 -0.40855,0.35655 -0.73107,0.13219 -0.57303,-0.38998 -1.00691,-0.95747 -1.70208,-1.16055 -0.35501,-0.12622 -0.44476,0.0782 -0.42725,0.35646 0.0175,0.2783 0.13314,0.61591 0.21736,0.78105 0.58572,0.77042 1.30677,2.29371 1.79498,3.12896 l -2.65715,0.77715 c -0.20125,0.0219 -0.29554,0.0831 -0.32705,0.18607 -0.032,0.10267 -0.005,0.25151 0.0444,0.39278 0.0991,0.28238 0.26458,0.58634 0.15615,0.76796 -0.26461,-0.0511 -0.54838,-0.12748 -0.83182,-0.14459 -0.28341,-0.017 -0.56129,0.0309 -0.78742,0.24789 -0.42689,0.44611 -0.69422,1.03283 -1.11511,1.48818 -0.20176,0.26107 -0.49602,0.28378 -0.78094,0.21739 -0.28496,-0.0667 -0.5537,-0.24527 -0.73635,-0.44411 -0.31397,-0.54446 -0.95,-0.80398 -1.20921,-1.37516 -0.0214,-0.92772 0.39477,-1.80934 0.32759,-2.74183 0.12161,-0.57221 -0.38619,-0.97653 -0.44773,-1.5009 -0.0781,-0.5197 -0.30329,-1.02843 -0.0855,-1.55169 0.12647,-0.27247 0.0845,-0.52059 0.003,-0.76607 -0.0821,-0.24564 -0.21186,-0.50631 -0.25439,-0.75695 0.15039,-0.59668 0.51934,-1.11528 0.71306,-1.70141 0.10091,-0.26316 0.10479,-0.61771 0.005,-0.92549 -0.0998,-0.30768 -0.28879,-0.55888 -0.562,-0.66254 l -1.63804,0.64227 -0.32237,1.81636 -5.09707,0.83347 -0.54686,0.61852 c -0.30111,0.17482 -0.53432,0.19457 -0.72445,0.1016 -0.19014,-0.0929 -0.31622,-0.28855 -0.39813,-0.53181 -0.16383,-0.48658 -0.11057,-1.18242 0.14118,-1.56744 0.0327,-0.28229 0.17179,-0.46209 0.35035,-0.5964 0.17814,-0.1344 0.40009,-0.22432 0.61065,-0.31747 0.21057,-0.0931 0.38895,-0.17822 0.51891,-0.33699 0.12988,-0.15874 0.18284,-0.37836 0.11953,-0.70946 -0.0483,-0.38712 -0.0452,-1.00444 -0.19671,-1.47944 -0.0759,-0.23756 -0.19347,-0.44279 -0.36108,-0.55602 -0.16765,-0.11314 -0.38847,-0.15972 -0.69196,-0.0514 -0.36568,0.39579 -0.81523,0.57763 -1.29532,0.6831 -0.48014,0.10548 -1.00099,0.16305 -1.46841,0.29485 -0.26759,0.19021 -0.57097,0.44388 -0.68863,0.68439 -0.0592,0.1201 -0.0836,0.23463 -0.004,0.31867 0.0802,0.0841 0.25027,0.1626 0.53711,0.1782 0.11043,0.17877 0.0482,0.34476 -0.0736,0.49554 -0.12198,0.15062 -0.30968,0.25816 -0.46429,0.3805 -0.1546,0.12231 -0.27275,0.23419 -0.26132,0.32779 0.0118,0.0936 0.14773,0.17452 0.52419,0.23923 0.28014,0.37219 0.62257,0.77641 0.8925,1.21206 0.26993,0.43563 0.4918,0.91024 0.50433,1.38512 -0.14237,0.26609 -0.19286,0.50331 -0.1493,0.70302 0.0434,0.19977 0.16465,0.37348 0.29986,0.543 0.27042,0.33906 0.62533,0.63991 0.69798,1.0748 -0.38816,0.26398 -0.54398,0.65748 -0.64422,1.0772 -0.10034,0.4196 -0.13638,0.86751 -0.21241,1.29658 -0.0596,0.28006 -0.10287,0.72464 -0.0483,0.98015 0.0271,0.12771 0.095,0.21462 0.18145,0.19821 0.0863,-0.0163 0.19901,-0.11704 0.36609,-0.36932 0.29762,-0.36895 0.80988,-0.389 1.29602,-0.23568 0.48619,0.15319 0.95613,0.46636 1.08813,0.74245 -0.40287,0.0922 -1.01023,0.0998 -1.48593,0.22722 -0.23782,0.0637 -0.42964,0.1705 -0.58001,0.32398 -0.1504,0.15349 -0.24207,0.35587 -0.2349,0.65295 -0.056,0.51426 0.26999,0.90181 0.59146,1.27584 0.32146,0.37401 0.63235,0.7237 0.47568,1.21935 -0.5677,0.81999 -1.42694,1.48221 -1.87317,2.34929 0.33663,0.28143 0.98194,0.28864 1.51532,0.38612 0.26663,0.0493 0.48702,0.12619 0.64649,0.26521 0.15947,0.1391 0.23435,0.32504 0.18225,0.64569 0.0536,0.43792 0.46945,0.60362 0.94181,0.67937 0.47241,0.0754 1.01786,0.0652 1.35142,0.25558 0.19503,0.11936 0.25891,0.27628 0.25832,0.4383 -8.3e-4,0.16199 -0.0592,0.35624 -0.14725,0.54375 -0.17385,0.37547 -0.41306,0.77834 -0.27722,1.15512 -0.1816,0.33873 -0.13496,0.88445 -0.13285,1.37745 7e-4,0.24643 -0.001,0.47925 -0.0759,0.65475 -0.0742,0.17563 -0.19207,0.2941 -0.4208,0.32594 -0.3453,-0.49072 -0.79718,-0.85472 -1.29827,-1.1066 -0.501,-0.25188 -1.08043,-0.37372 -1.66815,-0.41851 -0.5675,-0.0576 -1.10131,-0.20322 -1.60064,-0.43598 -0.49911,-0.2331 -0.95513,-0.57927 -1.31129,-1.04551 -0.37278,-0.42163 -0.80613,-0.7415 -1.33076,-0.95383 l -0.32552,7.69416 0.85354,1.39556 -4.00936,0.0742 -4.42834,-1.26076 -1.65799,1.78808 0.0299,0.0105 0.0239,0.0371 0.0541,0.0436 0.0478,0.0738 -0.0212,0.0915 -0.0105,0.0302 -0.0123,0.0613 0.0238,0.0369 0.0617,0.0123 0.0802,-0.0788 0.0367,-0.024 0.0239,0.0369 0.0789,0.0807 -0.0123,0.0612 -0.0123,0.0613 -0.03,-0.0105 -0.0105,0.0302 0.0173,0.0676 0.0239,0.037 0.1158,0.0566 0.0299,0.0105 0.0433,-0.0546 0.0618,0.0123 0.10279,0.11764 0.0724,0.11129 0.0725,0.11131 0.12688,0.15476 0.0917,0.0212 0.0367,-0.0241 0.0672,-0.0178 0.0105,-0.0302 0.0299,0.0105 0.0301,0.0105 0.03,0.0105 0.0299,0.0105 0.0174,0.0676 -0.0105,0.0303 -0.0123,0.061 -0.0123,0.0613 0.0299,0.0105 0.0239,0.0368 0.0917,0.0212 0.0299,0.0105 0.0737,-0.0483 0.0681,-0.0176 0.0608,0.0123 0.0239,0.037 0.066,0.14183 0.03,0.0105 0.48068,0.29386 0.12236,0.0255 0.0608,0.0123 0.2102,0.36416 0.24916,0.18077 0.0335,0.29468 -0.0105,0.0302 -0.0105,0.0302 -0.0105,0.0303 -0.0972,0.45849 -0.0846,0.39743 -0.0105,0.0302 -0.0366,0.0241 -0.03,-0.0105 -0.0299,-0.0105 -0.0368,0.0241 -0.0301,-0.0105 -0.0123,0.0613 -0.0105,0.0302 -0.0367,0.0241 -0.0105,0.0303 0.0239,0.037 0.0174,0.0674 0.0172,0.0676 0.0725,0.1112 0.10928,0.0871 -0.0105,0.0303 -0.0931,0.14 0.0173,0.0675 -0.0105,0.0302 0.03,0.0105 0.0476,0.0741 0.12237,0.0254 0.26021,0.2789 0.0768,0.23992 0.0464,0.23357 0.23155,0.11302 0.0917,0.0212 0.0174,0.0675 -0.0123,0.0612 -0.12445,0.13332 -0.0368,0.0241 -0.14177,0.0658 -0.0381,0.18345 0.0725,0.1113 0.15263,0.0333 0.0681,-0.0173 0.15266,0.0333 0.15267,0.0333 0.0239,0.0369 0.03,0.0105 -0.0105,0.0303 0.0411,0.10458 -0.0513,0.24463 -0.0628,0.14637 0.0346,0.13512 0.0541,0.0437 0.0299,0.0105 0.0434,-0.0548 0.10493,-0.0416 0.03,0.0105 -0.0105,0.0303 0.39543,0.24377 0.12681,0.15474 0.0356,0.13537 0.0508,0.36227 -0.0123,0.0612 -0.0123,0.0613 -0.11792,0.10273 -0.0212,0.25101 0.0227,0.19642 -0.0253,0.12236 -0.0434,0.0548 -0.0105,0.0302 -0.0434,0.0546 0.0239,0.037 -0.0105,0.0302 0.054,0.0435 0.0541,0.0437 0.0607,0.0123 -0.0105,0.0302 0.0299,0.0105 -0.0105,0.0302 -0.0105,0.0302 -0.0105,0.0302 -0.0123,0.0613 -0.0607,-0.0123 -0.0105,0.0302 -0.0301,-0.0105 -0.0105,0.0303 -0.0105,0.0302 -0.0105,0.0302 0.0299,0.0105 0.03,0.0105 0.0541,0.0435 0.054,0.0435 0.0477,0.0742 0.0173,0.0675 0.0476,0.074 -0.0212,0.0915 -0.0105,0.0302 -0.0105,0.0302 0.0172,0.0677 0.0239,0.0369 0.0299,0.0105 0.03,0.0105 0.0238,0.0369 0.0239,0.0369 -0.0105,0.0303 -0.0105,0.0302 -0.0123,0.0612 -0.0105,0.0303 -0.0105,0.0302 -0.13743,0.19447 -0.0715,0.33619 -0.0212,0.251 -0.15688,0.28612 0.0542,0.0435 0.22501,0.14378 0.0854,0.05 0.03,0.0105 0.0105,-0.0302 0.0105,-0.0302 0.0299,0.0105 0.03,0.0105 0.0833,0.20931 0.11386,0.21597 -0.0123,0.0612 -0.0587,0.27512 -0.0628,0.14642 -0.0366,0.0241 0.0238,0.0369 0.0412,0.10459 0.0917,0.0212 0.067,-0.0177 0.10929,0.087 0.0173,0.0677 -0.0123,0.0612 -0.22891,0.17503 -0.0367,0.024 0.0107,0.0982 0.0541,0.0435 -0.0105,0.0303 -0.12442,0.13335 -0.0367,0.0241 -0.03,-0.0105 0.0105,-0.0302 -0.03,-0.0105 0.0105,-0.0302 -0.0412,-0.1045 -0.03,-0.0105 -0.0367,0.0241 -0.03,-0.0105 -0.0434,0.0548 0.005,0.12874 -0.0105,0.0302 0.0299,0.0105 -0.0105,0.0302 0.13792,0.253 0.0239,0.0368 0.15083,0.19176 0.19452,0.13722 0.0725,0.11132 0.12033,0.18527 0.18802,0.16775 0.0608,0.0123 0.068,-0.0174 0.0802,-0.0788 0.03,0.0105 0.0239,0.0369 0.0299,0.0105 0.0217,0.1964 0.0217,0.19622 0.23152,0.11321 0.23804,0.0825 0.45661,0.25676 0.18354,0.0382 0.067,-0.0176 0.23353,-0.0463 0.13524,-0.035 0.0671,-0.0177 0.03,0.0105 0.0299,0.0105 0.03,0.0105 0.0854,0.0501 0.0917,0.0212 0.0299,0.0105 0.17035,0.0999 0.055,0.0438 0.0703,0.27053 0.0239,0.037 0.0175,0.0675 -0.0497,0.0853 -0.0123,0.0612 -0.0105,0.0303 0.0299,0.0105 0.0487,0.0743 0.13978,0.0937 0.1398,0.0935 0.21205,0.20486 0.03,0.0105 0.0607,0.0123 0.0367,-0.0242 0.0618,0.0123 0.22036,0.0157 0.0541,0.0435 0.0172,0.0677 -0.0368,0.0241 -0.0367,0.0241 -0.0434,0.0547 -0.0105,0.0302 0.0107,0.0981 0.12031,0.18528 0.16389,0.13078 0.34996,0.45776 0.29083,0.2854 0.1398,0.0936 0.067,-0.0177 0.0671,-0.0177 0.03,0.0105 0.0239,0.037 -0.0105,0.0303 -0.13745,0.19447 -0.11791,0.10273 -0.0737,0.0482 -0.0367,0.0241 -0.0123,0.0613 -0.0105,0.0302 0.0239,0.037 0.0239,0.037 -0.0105,0.0302 -0.0123,0.0613 -0.0105,0.0303 -0.0434,0.0544 -0.0672,0.0177 -0.0435,0.0546 0.0878,0.33816 0.17504,0.22889 0.0725,0.1113 0.13341,0.12416 0.22307,0.30301 0.0659,0.14178 -0.0157,0.22034 -0.0563,0.11583 0.0789,0.0807 0.10279,0.11764 0.10927,0.0872 -0.0123,0.0612 -0.0123,0.0613 -0.0123,0.0612 -0.0105,0.0303 0.0239,0.0368 0.19441,0.13722 0.079,0.0806 0.0789,0.0807 -0.0105,0.0302 0.03,0.0105 -0.0123,0.0612 -0.0105,0.0303 0.0299,0.0105 0.0368,-0.0243 0.0607,0.0123 0.0105,-0.0303 0.0366,-0.0241 0.0105,-0.0302 0.0802,-0.0789 0.0299,0.0105 0.0239,0.0368 0.03,0.0105 0.17492,0.22895 -0.0105,0.0303 -0.0105,0.0302 0.0347,0.13518 -0.0932,0.13999 -0.0123,0.0612 0.0412,0.10458 0.14444,0.22228 0.1204,0.18538 0.0238,0.037 0.0239,0.0368 0.0239,0.0368 0.0619,0.46055 -0.0123,0.0611 -0.0123,0.0614 -0.0105,0.0303 -0.17424,0.21854 -0.0746,0.048 -0.14174,0.0656 -0.0498,0.0852 -0.16776,0.18803 -0.0458,0.21386 -0.18726,0.27968 -0.0123,0.0612 0.0173,0.0676 0.0173,0.0676 0.0238,0.0369 0.0541,0.0435 0.0897,0.17878 0.0485,0.0745 0.0175,0.0674 0.0476,0.0741 0.17494,0.22877 0.0239,0.037 0.1704,0.1 0.14442,0.2224 0.0595,0.17242 0.0172,0.0674 0.041,0.10468 0.0107,0.0982 -0.0563,0.11583 -0.0212,0.0913 0.0238,0.037 0.024,0.0369 -0.0671,0.0177 -0.0497,0.0853 -0.11147,0.0722 -0.0212,0.0914 -0.0105,0.0303 0.0239,0.0368 0.12238,0.0254 0.0239,0.0369 0.053,0.20303 -0.0105,0.0302 0.04,0.26409 -0.0123,0.0612 -0.007,0.1899 -0.0105,0.0301 0.0107,0.0981 0.0507,0.36225 0.12691,0.15477 0.0299,0.0105 0.25103,0.0212 0.18994,0.007 0.0608,0.0123 0.0107,0.0982 0.0486,0.0743 0.0239,0.037 0.10927,0.087 0.38894,0.27447 0.0607,0.0123 0.079,0.0806 0.0299,0.0105 0.03,0.0105 0.18364,0.0383 0.0607,0.0123 0.15934,0.003 0.0983,-0.0109 0.12876,-0.005 0.25951,-0.1684 0.0435,-0.0547 0.0941,-0.1397 0.11147,-0.0723 0.10495,-0.0415 0.0618,0.0123 0.0607,0.0123 0.0551,0.0437 0.13328,0.12425 0.0791,0.0806 0.0833,0.20949 0.12679,0.15472 0.0855,0.05 0.26855,0.0891 0.2075,0.0761 0.11575,0.0567 0.28421,0.316 0.22318,0.30301 0.18792,0.16776 0.0854,0.0499 0.11575,0.0567 0.19002,0.007 0.43434,0.0603 0.15936,0.003 -0.16846,-0.25939 -0.30379,-0.22436 0.65348,-0.81954 0.20476,-0.21207 z"
       id="SC-06"
       style="font-style:normal;font-weight:400;font-size:34.375px;font-family:'MS Shell Dlg 2';opacity:1;fill:none;fill-opacity:1;fill-rule:evenodd;stroke:#000000;stroke-width:0.33333385;stroke-linecap:square;stroke-linejoin:bevel;stroke-miterlimit:4;stroke-dasharray:none;stroke-opacity:1" />
    <path
       inkscape:connector-curvature="0"
       d="m 227.63541,381.36837 c 0.97092,1.55926 1.98321,3.08128 3.13291,4.49971 0.10313,1.15734 0.53045,2.1751 1.02236,3.15654 0.49183,0.98129 1.05106,1.9255 1.44755,2.95933 -0.002,0.43941 0.10564,0.94307 0.27733,1.40075 0.17169,0.45772 0.41018,0.8652 0.7091,1.17309 0.29893,0.30786 0.66812,0.48858 1.04844,0.47844 0.38032,-0.0102 0.78752,-0.20638 1.20357,-0.7026 0.34633,0.67453 1.07636,1.7088 1.46252,2.73888 0.19312,0.51515 0.29198,1.02113 0.22729,1.48606 -0.0651,0.46467 -0.29799,0.882 -0.79904,1.20387 0.42527,0.79896 1.09333,1.56103 1.89171,2.22319 0.49828,0.41322 1.06896,0.71322 1.62987,1.0492 l 0,0 c 0.33761,0.2023 0.64357,0.45596 0.98542,0.62482 0.80557,0.39452 1.37389,1.14007 1.95846,1.75812 0.29235,0.30904 0.58183,0.56982 0.92246,0.77113 0.34047,0.20129 0.72133,0.32998 1.17905,0.31458 0.35432,0.51847 0.65192,0.62774 0.90666,0.54418 0.25477,-0.0837 0.49358,-0.35829 0.71266,-0.64728 0.21906,-0.28898 0.41091,-0.59322 0.65801,-0.69081 0.24709,-0.0975 0.54361,0.0165 0.88265,0.50712 0.16885,0.27338 0.46326,0.45098 0.80191,0.58583 0.33867,0.13474 0.70499,0.2334 0.98268,0.33665 0.27781,0.10316 0.47508,0.20691 0.46123,0.38553 -0.0132,0.17873 -0.23969,0.43263 -0.77565,0.79359 -0.63063,0.39512 -0.81349,0.647 -0.72109,0.83707 0.0924,0.19014 0.46004,0.30213 0.93916,0.3914 0.95827,0.1782 2.37173,0.27214 2.86031,0.67178 0.1976,-0.23944 0.56753,-0.41906 1.00533,-0.52107 0.43776,-0.102 0.94042,-0.14956 1.36177,-0.0939 0.42146,0.0548 0.77776,0.21896 0.92616,0.45248 0.14842,0.23343 0.0749,0.55773 -0.30636,0.9892 -0.45294,0.37153 -0.72932,0.8113 -0.94731,1.30016 -0.21799,0.48886 -0.35678,1.02388 -0.49074,1.55699 -0.13383,0.53313 -0.25988,1.05911 -0.46013,1.56352 -0.20023,0.50437 -0.48077,0.97184 -0.89909,1.37438 -0.88121,0.81162 -1.71505,1.68853 -2.47073,2.60562 -0.75573,0.91724 -1.43268,1.90161 -2.02718,2.92375 -0.3228,0.77215 -0.30325,1.27725 -0.0626,1.64799 0.24048,0.37067 0.7025,0.58135 1.2475,0.74431 0.54491,0.16313 1.16926,0.28904 1.75979,0.43801 0.59066,0.14894 1.14092,0.34549 1.51803,0.67406 0.29122,0.0739 0.53334,0.2656 0.8169,0.36534 0.0112,-0.005 -0.01,-0.0282 0.0105,-0.0303 0,0 0,0 0,0 -0.0112,0.005 0.01,0.0281 -0.0105,0.0303 0.75967,0.26708 1.53163,0.5206 2.18862,0.97636 0.66252,0.45958 1.14753,1.12773 1.63342,1.7848 l 0.38168,-0.14245 0.14171,-0.0656 0.49293,-0.21479 0.16993,-0.34726 0.0366,-0.0241 0.20475,-0.21207 0.16776,-0.18804 0.12443,-0.13323 0.0299,0.0105 0.41425,-0.29531 0.0367,-0.0241 0.17425,-0.21856 0.0693,-0.17706 0.14513,-0.3844 0.11471,-0.39088 -0.0877,-0.33827 -0.11005,-0.53454 -0.0379,-0.42332 0.0105,-0.0302 0.0212,-0.0914 0.21835,-1.3274 0.14296,-0.67235 0.0563,-0.11584 0.0105,-0.0303 0.14725,-0.54375 0.10248,-0.77694 0.1841,-0.56794 0.0628,-0.14634 0.59155,-1.27997 0.17642,-0.37787 0.15687,-0.28617 0.11264,-0.23165 0.0932,-0.13988 0.0368,-0.0242 0.29839,-0.35199 0.0866,-0.10935 0.55976,-0.67969 0.16126,-0.15741 0.15477,-0.12689 0.45894,-0.95669 0.13096,-0.16386 0.44861,-0.6075 0.18724,-0.27968 0.0435,-0.0548 0.26775,-0.35837 0.0434,-0.0548 0.44859,-0.60739 0.0802,-0.0789 0.0105,-0.0302 0.41612,-0.45472 0.13097,-0.16383 0.0736,-0.0483 0.0123,-0.0612 0.36611,-0.36946 0.25484,-0.29722 0.2178,-0.27327 0.0368,-0.0241 0.0434,-0.0547 0.0801,-0.0787 0.0434,-0.0548 0.16124,-0.1573 0.23538,-0.20555 0.49027,-0.50286 0.19179,-0.15094 0.0434,-0.0548 0.0366,-0.024 0.0802,-0.0788 0.23549,-0.20554 0.0671,-0.0177 0.23546,-0.20553 0.1918,-0.15103 0.0433,-0.0546 0.0368,-0.0243 0.59302,-0.38512 0.11146,-0.0722 0.0812,-0.0786 0.0366,-0.0241 0.30301,-0.22315 0.14177,-0.0658 0.0105,-0.0303 0.0368,-0.0241 0.0366,-0.0241 0.0301,0.0105 0.29653,-0.19255 0.14176,-0.0658 0.32052,-0.15544 0.11794,-0.10274 0.0368,-0.0243 0.03,0.0105 0.66526,-0.27385 0.10494,-0.0415 0.31403,-0.12493 0.52353,-0.20821 0.0368,-0.0242 0.27703,-0.10079 0.0736,-0.0482 0.0299,0.0105 0.73088,-0.13222 0.0105,-0.0302 0.27053,-0.0703 -0.4176,-0.44026 -0.37586,-0.33546 -0.15753,-0.16127 -0.16382,-0.13055 -0.13339,-0.12418 -0.0238,-0.0369 -0.55741,-0.53385 -0.1333,-0.12414 -0.21206,-0.20485 -0.50935,-0.45966 -0.0238,-0.037 -0.03,-0.0105 -0.23621,-0.24179 -0.9815,-0.94347 -0.16387,-0.13077 -0.0541,-0.0436 -0.0238,-0.037 -0.52687,-0.52737 -0.13988,-0.0936 -0.71481,-0.69499 -0.4306,-0.37912 0.0105,-0.0303 -0.18804,-0.16775 -0.0789,-0.0806 -0.34535,-0.329 -0.37595,-0.33549 -0.6908,-0.658 -0.42408,-0.40973 -0.0541,-0.0435 -0.03,-0.0105 -0.15731,-0.16122 -0.21206,-0.20476 -0.45468,-0.41624 -0.13341,-0.12415 -0.36935,-0.36609 -0.44826,-0.44665 -0.0789,-0.0806 -0.18804,-0.16776 -0.0854,-0.0499 -0.10926,-0.0873 -0.12682,-0.15472 -0.34533,-0.32901 -0.0239,-0.0369 -0.1639,-0.13077 -0.26672,-0.24828 -0.80003,-0.74523 -0.0789,-0.0806 -0.69068,-0.65797 -0.90294,-0.8629 -0.8547,-0.78863 -0.18141,-0.19836 -0.95749,-0.90638 -0.0239,-0.0369 -0.18794,-0.16772 -0.0541,-0.0435 -0.33885,-0.35959 -0.0854,-0.05 -0.39359,-0.40313 -0.1333,-0.12413 -0.0789,-0.0808 -0.13983,-0.0934 -0.2537,-0.3095 -0.34545,-0.32901 -0.29067,-0.28549 -0.2602,-0.27901 -0.21206,-0.20476 -0.0239,-0.037 -0.21205,-0.20486 -0.18803,-0.16775 -0.0238,-0.037 -0.15751,-0.16125 -0.66669,-0.62088 -0.15089,-0.19186 -1.30946,-1.20478 -0.71481,-0.695 -0.24264,-0.21139 -0.0541,-0.0435 -0.16403,-0.13059 -0.0855,-0.0501 -0.18145,-0.19828 -0.26025,-0.279 -0.34537,-0.32899 -0.35184,-0.29837 0.0105,-0.0303 -0.32133,-0.29187 -0.50937,-0.45965 -0.18802,-0.16777 -0.8547,-0.78875 -0.29067,-0.28545 -0.29723,-0.25478 -0.23615,-0.24199 -0.0541,-0.0433 -0.23608,-0.24188 -0.32132,-0.29191 -0.29081,-0.2855 -0.13328,-0.12422 -0.28817,0.003 -0.0671,0.0178 -0.50855,-0.0129 -0.25753,0.009 -0.47804,-0.005 -0.03,-0.0105 -0.41683,0.007 -0.22701,0.0156 -0.0299,-0.0105 -2.25026,0.0649 -0.44732,2e-4 -0.0369,0.0242 -0.85775,-0.023 -0.92546,-0.005 -0.38631,0.0138 -0.22033,-0.0156 -0.15937,-0.003 -0.15936,-0.003 -0.12877,0.005 -0.31854,-0.005 -0.19004,-0.007 -0.1963,0.0221 -0.66792,-0.0147 -0.03,-0.0105 -0.0984,0.011 -0.47796,-0.005 -0.0299,-0.0105 -0.57619,0.005 -0.15929,-0.003 -0.25751,0.009 -0.15935,-0.003 -0.25102,-0.0212 -0.12879,0.005 -0.5762,0.005 -0.03,-0.0105 -0.89482,10e-4 -0.12878,0.005 -1.01715,-0.0248 -0.13525,0.0353 -0.22048,-0.0156 -0.2575,0.009 -0.3798,-0.0172 -0.44742,1.9e-4 -0.2269,0.0157 -1.18301,0.004 -0.3798,-0.0172 -0.0299,-0.0105 -0.03,-0.0105 -0.1658,0.0287 -0.19001,-0.007 -0.25104,-0.0212 -0.0671,0.0178 -0.0915,-0.0212 -0.32516,0.0266 -0.0607,-0.0123 -0.38631,0.0138 -0.0299,-0.0105 -0.12877,0.005 -0.18364,-0.0382 -0.61323,0.0295 -0.51507,0.0183 z"
       id="SC-07"
       style="font-style:normal;font-weight:400;font-size:34.375px;font-family:'MS Shell Dlg 2';opacity:1;fill:none;fill-opacity:1;fill-rule:evenodd;stroke:#000000;stroke-width:0.33333385;stroke-linecap:square;stroke-linejoin:bevel;stroke-miterlimit:4;stroke-dasharray:none;stroke-opacity:1" />
  </g>
</svg>
