<?xml version="1.0" encoding="UTF-8" standalone="no"?>
<!-- Created with Inkscape (http://www.inkscape.org/) -->

<svg
   xmlns:dc="http://purl.org/dc/elements/1.1/"
   xmlns:cc="http://creativecommons.org/ns#"
   xmlns:rdf="http://www.w3.org/1999/02/22-rdf-syntax-ns#"
   xmlns:svg="http://www.w3.org/2000/svg"
   xmlns="http://www.w3.org/2000/svg"
   xmlns:sodipodi="http://sodipodi.sourceforge.net/DTD/sodipodi-0.dtd"
   xmlns:inkscape="http://www.inkscape.org/namespaces/inkscape"
   width="23.516054mm"
   height="14.857851mm"
   viewBox="0 0 83.324604 52.645928"
   id="svg3885"
   version="1.1"
   inkscape:version="0.91 r"
   sodipodi:docname="2.svg">
  <defs
     id="defs3887" />
  <sodipodi:namedview
     id="base"
     pagecolor="#ffffff"
     bordercolor="#666666"
     borderopacity="1.0"
     inkscape:pageopacity="0.0"
     inkscape:pageshadow="2"
     inkscape:zoom="10.5917"
     inkscape:cx="-2.6681982"
     inkscape:cy="36.422258"
     inkscape:document-units="px"
     inkscape:current-layer="layer1"
     showgrid="false"
     inkscape:window-width="2560"
     inkscape:window-height="1388"
     inkscape:window-x="0"
     inkscape:window-y="0"
     inkscape:window-maximized="1"
     fit-margin-top="1"
     fit-margin-left="1"
     fit-margin-right="1"
     fit-margin-bottom="1" />
  <metadata
     id="metadata3890">
    <rdf:RDF>
      <cc:Work
         rdf:about="">
        <dc:format>image/svg+xml</dc:format>
        <dc:type
           rdf:resource="http://purl.org/dc/dcmitype/StillImage" />
        <dc:title></dc:title>
      </cc:Work>
    </rdf:RDF>
  </metadata>
  <g
     inkscape:label="Layer 1"
     inkscape:groupmode="layer"
     id="layer1"
     transform="translate(-178.35367,-351.22423)">
    <path
       inkscape:connector-curvature="0"
       d="m 216.07644,380.28816 0.17726,-1.18456 -0.54844,-1.03502 -0.44848,-2.40427 -2.02633,0.2642 -0.39332,-1.5757 -1.67851,0.0714 -0.38693,0.66926 -0.12097,1.1031 -1.1269,-2.07866 -3.07883,1.10024 -0.48107,0.31716 0.0423,0.53232 -0.7083,0.0895 -0.23931,-1.20646 -0.91438,0.12791 -0.47007,-2.21538 -5.64119,0.85313 -0.13099,-2.15067 1.38684,-0.41506 -0.0247,-1.04741 -0.66969,0.068 -0.0118,-1.20623 0.69139,-0.25687 0.31141,-1.99135 -0.57035,-0.6187 0.39078,-0.1155 0.38827,-2.48937 2.97961,-0.64101 -0.68072,-1.82068 -0.91866,0.0292 -0.09,-0.0276 -0.6611,0.038 -0.30051,-0.0857 -1.22347,0.0718 -0.18031,-0.0511 -1.94879,-0.006 -0.14604,0.0557 -0.0899,-0.0276 -0.4249,0.008 -0.65249,0.008 -0.45512,5e-5 -1.31357,0.046 -0.09,-0.0276 -1.85873,0.0197 -0.0898,-0.0276 -0.53647,-0.057 -0.20599,0.0383 -0.24475,0.0598 -0.41629,-0.0226 -0.32633,0.004 -0.33476,0.0341 -0.44649,-0.0304 -0.41625,-0.0226 -0.98734,0.042 -0.63521,-0.0524 -0.41637,-0.0226 -0.19812,0.6909 -0.14619,0.51073 -0.48692,2.03851 -0.11191,0.39052 -0.5385,2.21879 -0.11287,0.84546 -0.57281,2.33898 -0.0276,0.0896 -0.1463,0.51072 -0.22401,0.78102 -0.1427,0.8369 -0.0276,0.0897 -0.0338,0.1203 -0.37027,1.29175 -0.13855,0.93558 -0.37025,1.29173 -0.25382,1.22756 -0.1723,0.60079 -0.25839,0.90117 -0.0607,0.21019 -0.23258,0.81107 0.18839,0.47664 0.15399,0.5968 0.1248,-0.0942 1.10739,-0.008 0.0899,0.0276 0.11623,-0.0642 1.10738,-0.008 0.71669,0.10872 0.24477,-0.0598 0.0901,0.0276 0.56243,-0.0338 0.0901,0.0276 1.19762,0.0189 0.09,0.0276 1.19762,0.0189 0.98724,-0.0421 1.5025,-0.0243 0.95275,0.0784 0.24478,-0.0598 0.3262,-0.004 0.0899,0.0276 0.57104,-0.0639 0.53648,0.057 1.31355,-0.046 0.33474,-0.0341 0.20615,-0.0383 0.12033,0.0337 0.41626,0.0226 -0.074,1.0516 0.45075,-0.0983 0.23617,-0.0297 0.20594,-0.0383 0.12031,0.0338 0.0338,-0.12027 0.11618,-0.0642 -0.0645,-0.11599 0.0338,-0.1203 0.0276,-0.0898 0.0901,0.0276 0.0606,-0.21021 0.0276,-0.0896 -0.0645,-0.11601 0.12484,-0.0942 0.65247,-0.008 0.09,0.0276 0.33472,-0.0341 0.12031,0.0338 0.11623,-0.0642 0.30054,0.0856 0.66106,-0.038 0.5365,0.057 0.18034,0.051 -0.0276,0.0899 0.32631,-0.004 0.12027,0.0338 0.0901,0.0276 0.15064,-0.18437 0.23618,-0.0299 0.23613,-0.0297 0.45078,-0.0983 0.09,0.0276 0.146,-0.0557 0.18034,0.0507 0.6611,-0.038 0.23615,-0.0298 0.0901,0.0276 0.12031,0.0338 0.0338,-0.1203 0.09,0.0276 0.23609,-0.0298 0.71666,0.10882 0.24479,-0.0599 0.53228,-0.0423 0.66111,-0.038 0.32609,-0.004 0.12034,0.0337 0.33492,-0.034 0.32616,-0.004 0.32629,-0.004 0.42492,-0.008 0.23616,-0.0298 0.75113,-0.0121 0.09,0.0276 0.98742,-0.042 0.14598,-0.0556 0.18035,0.0509 0.66108,-0.038 0.12026,0.0338 0.6525,-0.008 0.0899,0.0276 0.5709,-0.0639 0.18053,0.0511 0.32611,-0.004 0.33495,-0.034 0.14594,-0.0555 0.50642,0.0485 0.24466,-0.0598 0.65249,-0.008 0.09,0.0276 0.33495,-0.0341 0.21017,0.0606 0.0292,0.0125 z"
       id="MA-01"
       style="font-style:normal;font-weight:400;font-size:34.375px;font-family:'MS Shell Dlg 2';opacity:1;fill:none;fill-opacity:1;fill-rule:evenodd;stroke:#000000;stroke-width:0.33333385;stroke-linecap:square;stroke-linejoin:bevel;stroke-miterlimit:4;stroke-dasharray:none;stroke-opacity:1" />
    <path
       inkscape:connector-curvature="0"
       d="m 225.07375,379.97474 c 0.0697,-0.20701 0.14876,-0.42787 0.1509,-0.63941 -0.35249,-0.15546 -0.63346,0.46486 -0.97891,0.23945 -0.22624,-0.37567 0.13992,-0.77047 0.0397,-1.15894 -0.14779,-0.20722 0.003,-0.8131 -0.29974,-0.76864 -0.0385,0.24113 -0.18275,0.26473 -0.31783,0.20142 -0.13519,-0.0633 -0.26025,-0.21603 -0.28295,-0.3737 -0.14455,-0.38982 -0.54328,-0.60104 -0.69456,-0.97939 0.042,-0.37806 0.3054,-0.7167 0.22039,-1.10719 -0.22216,-0.38412 -0.7969,-0.37466 -1.05089,-0.75647 -0.0834,-0.34319 -0.0623,-0.78221 0.12097,-1.10313 0.0996,-0.28209 0.30626,-0.24476 0.51542,-0.2098 0.20882,0.0365 0.42219,0.0826 0.54955,-0.1025 l -0.96464,-1.28439 0,0 -0.96466,-1.28439 -1.09445,-0.1509 0.0907,-0.65669 -0.51077,-0.14629 -0.59686,0.15393 -0.12627,-2.50693 0.40475,-1.63945 -0.92192,-0.97954 -0.70457,0.64318 -1.26211,0.0932 0.0765,0.86718 -0.51957,0.11108 -0.82932,0.96507 -2.57347,-2.13585 -0.35145,-0.58841 0.0743,-0.3689 -0.80197,-0.7176 c -0.0744,-0.10589 -0.0599,-0.24689 -0.11549,-0.39071 -0.0603,-0.15579 -0.12578,-0.34345 -0.0811,-0.5109 0.0466,-0.16299 0.0918,-0.31968 0.10795,-0.4892 -0.0269,-0.21842 0.18472,-0.18885 0.32646,-0.23147 0.11857,-0.0978 0.10433,-0.32708 0.0677,-0.46809 -0.14879,-0.13894 -0.27607,-0.28672 -0.43309,-0.41678 -0.0202,-0.008 -0.0335,-0.0324 -0.0509,-0.0471 l -0.0291,-0.0125 -0.18034,-0.051 -0.45513,5e-5 -0.3261,0.004 -0.41636,-0.0226 -1.2321,0.10186 -1.61387,-0.0403 -0.09,-0.0276 -0.11618,0.0641 -0.66108,0.038 -0.30044,-0.0856 -0.571,0.0639 -0.95287,-0.0785 -0.09,-0.0276 -0.24469,0.0599 -0.23605,0.0298 -0.18049,-0.0511 -0.23606,0.0298 -1.19763,-0.0189 -0.0682,0.0129 0.68073,1.82068 -2.97962,0.64102 -0.38926,2.48923 -0.39078,0.11549 0.57037,0.61871 -0.31143,1.99134 -0.69139,0.25686 0.0118,1.20621 0.66969,-0.068 0.0248,1.04739 -1.38681,0.41508 0.13095,2.15066 5.64118,-0.85314 0.47007,2.21538 0.91438,-0.12789 0.23932,1.20644 0.70832,-0.0895 -0.0423,-0.53231 0.48106,-0.31719 3.07884,-1.10024 1.1269,2.07865 0.12107,-1.10308 0.38695,-0.66927 1.67848,-0.0714 0.39333,1.5757 2.02632,-0.2642 0.44848,2.40424 0.54846,1.03501 -0.17726,1.18457 0.20595,-0.0383 0.09,0.0276 0.09,0.0276 0.14597,-0.0556 0.09,0.0276 0.33487,-0.0341 0.09,0.0276 0.80708,-0.0937 0.0595,0.4722 0.68695,-0.12811 0.21023,0.0606 0.66106,-0.0381 0.92312,-0.15792 0.09,0.0276 0.33487,-0.0341 1.10322,-0.10631 0.32627,-0.003 0.12034,0.0337 0.21458,-0.0686 0.32634,-0.004 0.12028,0.0338 0.45078,-0.0983 0.09,0.0276 0.14595,-0.0556 0.20598,-0.0385 0.21027,0.0606 0.0338,-0.12029 0.0901,0.0276 0.12033,0.0338 0.11621,-0.0642 0.50219,-0.0511 z"
       id="MA-02"
       style="font-style:normal;font-weight:400;font-size:34.375px;font-family:'MS Shell Dlg 2';opacity:1;fill:#000000;fill-opacity:1;fill-rule:evenodd;stroke:#000000;stroke-width:0.33333385;stroke-linecap:square;stroke-linejoin:bevel;stroke-miterlimit:4;stroke-dasharray:none;stroke-opacity:1" />
    <path
       inkscape:connector-curvature="0"
       d="m 211.29141,361.03592 c 0.0178,0.009 0.0329,0.0339 0.051,0.0469 0.15705,0.12994 0.2843,0.27791 0.4331,0.41674 0.0308,0.13952 0.0498,0.37023 -0.0688,0.46792 -0.14178,0.0428 -0.35293,0.0133 -0.32644,0.23153 -0.0189,0.16882 -0.0645,0.32531 -0.10805,0.48916 -0.0476,0.16659 0.0208,0.35512 0.0811,0.51091 0.0555,0.14381 0.0411,0.28481 0.11547,0.3907 l 0.80199,0.71761 -0.0743,0.3689 0.35143,0.5884 2.57345,2.13584 0.82934,-0.96503 0.51954,-0.11108 -0.0764,-0.86717 1.26208,-0.0932 0.70458,-0.6432 0.92193,0.97955 -0.40477,1.63946 0.12633,2.50691 0.59683,-0.15392 0.51078,0.14619 -0.0907,0.65674 1.09447,0.15078 0.96462,1.2844 0.62282,-0.47159 1.35663,-0.19619 0.31544,-2.12018 1.32664,-0.20475 0.13312,-0.35194 0.70369,0.26687 1.3796,-1.75002 c -0.15044,-0.0721 -0.30405,-0.14486 -0.41618,-0.24938 -0.15095,-0.14072 -0.2293,-0.3029 -0.12386,-0.58818 0.17415,-0.24817 0.13709,-0.47695 0.069,-0.69538 -0.0697,-0.21895 -0.19247,-0.45452 -0.22691,-0.68273 -0.27451,-0.0748 -0.24786,-0.15432 -0.14993,-0.27057 0.0979,-0.11621 0.27773,-0.25208 0.33944,-0.39032 0.23453,-0.44598 0.16997,-1.04138 0.61505,-1.35157 0.0939,-0.14574 0.0593,-0.47751 0.10782,-0.7168 0.0483,-0.23931 0.18005,-0.37776 0.56674,-0.16257 l 1.23561,0.6794 c 0.14005,0.25059 0.34902,0.34245 0.58779,0.33106 0.23867,-0.0113 0.50313,-0.11113 0.69131,-0.25691 -0.0692,-0.22401 -0.2165,-0.44476 -0.29551,-0.66986 -0.0791,-0.22515 -0.0934,-0.47177 0.0782,-0.72532 -0.0802,-0.21568 -0.2245,-0.42152 -0.30419,-0.63991 -0.0797,-0.2184 -0.0896,-0.44567 0.0689,-0.69538 0.004,-0.35788 0.20524,-0.54121 0.47705,-0.64341 0.27179,-0.10219 0.61333,-0.10761 0.88864,-0.0378 0.27807,0.11538 0.46355,-0.0144 0.58399,-0.22264 0.12004,-0.20834 0.16125,-0.49354 0.2279,-0.68238 -0.0689,-0.28038 0.1373,-0.48167 0.31826,-0.65643 0.1809,-0.17483 0.3516,-0.32098 0.19346,-0.56223 -0.37434,-0.18762 -0.72345,-0.44894 -1.06811,-0.6964 l -0.0438,0.15001 -0.20672,0.72094 -0.32629,0.004 -0.18035,-0.0508 -0.30063,-0.0857 -0.30044,-0.0856 -0.3006,-0.0858 -0.27051,0.15 -0.11623,0.0641 -0.27063,0.14998 -0.0276,0.0897 -0.15064,0.18436 -0.14598,0.0557 -0.0276,0.0897 -0.0338,0.12028 0.0123,0.75123 0.12415,0.3607 -0.0216,0.41644 -0.21015,-0.0606 -0.09,-0.0276 -0.0899,-0.0276 -0.1203,-0.0338 -0.18033,-0.0509 -0.21025,-0.0606 -0.12481,0.0942 -0.26191,0.11999 -0.2705,0.15 -0.17647,0.27446 -0.17649,0.27451 -0.0607,0.21018 -0.20628,0.26595 -0.0276,0.0898 -0.45073,0.0983 -0.09,-0.0276 -0.23608,0.0298 -0.30052,-0.0857 -0.11622,0.0641 -0.30043,-0.0856 -0.0337,0.12031 -0.1203,-0.0338 -0.32634,0.004 -0.66107,0.038 -0.30044,-0.0856 -0.32628,0.004 -0.20598,0.0383 -0.15462,0.0856 -0.41633,-0.0226 -0.09,-0.0276 -0.6611,0.038 -0.44639,-0.0314 -0.09,-0.0276 -0.0901,-0.0276 -0.23616,0.0298 -1.19757,-0.0179 -0.12477,0.0942 -0.0899,-0.0276 -0.12029,-0.0338 -0.32615,0.004 -0.32628,0.003 -0.0338,0.12032 -0.62666,-0.082 -0.54092,0.0725 -0.32612,0.004 -0.53646,-0.057 -0.09,-0.0276 -0.24477,0.0598 -0.41628,-0.0226 -0.32632,0.004 -1.53239,0.0158 -0.09,-0.0276 -0.56239,0.0338 -0.66109,0.038 -0.41633,-0.0226 -0.78127,0.004 -1.28344,0.0545 z"
       id="MA-03"
       style="font-style:normal;font-weight:400;font-size:34.375px;font-family:'MS Shell Dlg 2';opacity:1;fill:none;fill-opacity:1;fill-rule:evenodd;stroke:#000000;stroke-width:0.33333385;stroke-linecap:square;stroke-linejoin:bevel;stroke-miterlimit:4;stroke-dasharray:none;stroke-opacity:1" />
    <path
       inkscape:connector-curvature="0"
       d="m 231.08319,389.17507 c 0.11012,-0.12268 0.25344,-0.19274 0.35229,-0.3216 0.10307,-0.13472 0.19005,-0.22989 0.30497,-0.27014 0.11459,-0.0404 0.23043,-0.0156 0.38198,0.14202 0.16022,0.12107 0.2935,0.13807 0.39913,0.0817 0.10553,-0.0561 0.20919,-0.1963 0.2922,-0.33884 0.16599,-0.28508 0.30274,-0.65888 0.57158,-0.74635 0.028,-0.31327 0.15212,-0.49453 0.33112,-0.58776 0.18191,-0.0924 0.43249,-0.0962 0.70396,0.0389 0.33556,-0.0413 0.46722,0.11851 0.52774,0.31387 0.0605,0.19482 0.06,0.44546 0.15384,0.59679 0.13588,-0.3035 0.38662,-0.49316 0.6746,-0.65183 0.28801,-0.15864 0.61335,-0.30499 0.88048,-0.46273 0.28117,-0.0784 0.38848,-0.20186 0.39949,-0.37306 0.011,-0.17129 -0.0861,-0.36209 -0.23125,-0.55396 0.0171,-0.19176 0.20811,-0.31291 0.34814,-0.42034 0.13993,-0.10745 0.22649,-0.22032 0.0382,-0.47652 0.13304,-0.33694 -0.0263,-0.58946 -0.21384,-0.84155 -0.18749,-0.2521 -0.38682,-0.50159 -0.3426,-0.84594 -0.52276,-0.31559 -1.14617,-0.56096 -1.60445,-0.98022 -0.0405,0.0282 -0.0799,0.0716 -0.12483,0.0942 -0.0934,0.0252 -0.27334,0.22807 -0.32209,0.1027 -0.0519,-0.17421 -0.0656,-0.40128 -0.2485,-0.49388 -0.18076,-0.0534 -0.27991,-0.20175 -0.39022,-0.33948 -0.11566,-0.12271 -0.27542,-0.26609 -0.44203,-0.15927 -0.0724,0.15484 -0.19797,0.36018 -0.40377,0.27435 -0.20521,-0.0716 -0.17129,-0.33679 -0.1798,-0.50669 0.0243,-0.19688 0.0435,-0.40361 -0.0253,-0.59237 -0.0139,-0.12948 -0.21061,-0.44138 -6e-5,-0.45504 l -1.39481,-0.2379 -0.44488,-1.62303 0.61846,-0.34279 c -0.0359,-0.38712 -0.001,-0.78656 -0.0203,-1.17616 0.016,-0.16896 0.0223,-0.34911 -0.021,-0.49366 -0.0428,-0.14447 -0.15655,-0.26091 -0.36877,-0.30081 -0.15488,0.008 -0.24606,-0.14605 -0.33886,-0.2922 -0.0929,-0.14615 -0.19471,-0.27372 -0.32179,-0.12473 -0.15282,0.21733 -0.22478,0.13663 -0.31762,-0.0273 -0.0929,-0.1627 -0.1978,-0.41057 -0.3644,-0.42958 -0.31275,-0.13854 -0.49056,-0.41956 -0.68183,-0.68315 -0.12909,-0.30552 0.0517,-0.66675 0.11662,-0.97433 0.13369,-0.29531 0.078,-0.71245 0.35737,-0.90531 0.23183,0.0575 0.36626,-0.0509 0.4466,-0.197 0.0804,-0.1461 0.12519,-0.3454 0.17634,-0.50214 0.12089,-0.0573 0.2231,-0.19534 0.34367,-0.29155 0.12031,-0.0963 0.25217,-0.15493 0.3863,0.0137 0.12182,0.16008 0.21247,0.13779 0.27908,0.0472 0.0665,-0.0904 0.10434,-0.24766 0.13312,-0.35196 0.11977,-0.11309 0.11802,-0.27 0.18019,-0.40347 l 0,0 c 0.0851,-0.18133 0.2085,-0.33302 0.25405,-0.54485 0.072,-0.16785 0.0148,-0.25373 -0.0813,-0.28335 -0.0973,-0.031 -0.21187,-0.0107 -0.31337,0.0726 -0.14292,0.0717 -0.2925,0.26691 -0.43832,0.39447 -0.1457,0.1276 -0.28897,0.18607 -0.47642,-0.0382 -0.0439,-0.17314 0.0256,-0.35588 0.056,-0.5366 -0.17181,-0.03 -0.36461,-0.0454 -0.51929,-0.11659 -0.3089,-0.16198 -0.71998,-0.22606 -1.00868,0.003 -0.35413,0.24992 -0.25935,0.77037 -0.58914,1.03393 l -1.16801,0.44531 0.71945,1.79926 -0.61384,-0.0137 c -0.0168,0.36705 -0.1139,0.72584 -0.24058,1.06881 0.0799,0.23388 -0.0117,0.32424 -0.17257,0.37317 -0.15993,0.049 -0.39069,0.0734 -0.52809,0.14114 -0.16458,0.0657 -0.41478,0.098 -0.60546,0.18401 -0.19058,0.086 -0.32526,0.22699 -0.23678,0.48475 -0.038,0.16909 -0.23776,0.0909 -0.43363,0.0381 -0.19561,-0.0532 -0.40565,-0.0838 -0.46798,0.15839 -0.0368,0.13478 -0.10641,0.28784 -0.20235,0.36461 -0.096,0.0768 -0.20181,0.0566 -0.32177,-0.12482 -0.23577,-0.0905 -0.33302,-0.29952 -0.33854,-0.51972 -0.005,-0.22019 0.0866,-0.4393 0.26262,-0.57488 0.11549,-0.0692 0.33045,-0.20915 0.4596,-0.35586 0.12944,-0.14663 0.16624,-0.31519 -0.0383,-0.43357 -0.4639,-0.0703 -0.58914,-0.67542 -1.11543,-0.64493 -0.11667,-0.0278 -0.17405,-0.18288 -0.2401,-0.29641 -0.0663,-0.11355 -0.12044,-0.17748 -0.23604,0.0297 l 0,0 c -0.12691,0.18509 -0.34049,0.13744 -0.54954,0.1025 -0.2089,-0.0365 -0.41566,-0.0708 -0.5154,0.20981 -0.1835,0.32084 -0.20438,0.76 -0.12087,1.10313 0.25399,0.38179 0.82876,0.37235 1.0509,0.75644 0.0852,0.39055 -0.17771,0.72929 -0.2194,1.10741 0.15127,0.37837 0.55,0.58957 0.69458,0.97938 0.0225,0.15761 0.14776,0.31042 0.28292,0.37374 0.1351,0.0633 0.27786,0.0403 0.31783,-0.20147 0.3025,-0.0443 0.15194,0.56143 0.29976,0.76868 0.0997,0.38836 -0.26625,0.78317 -0.0397,1.15893 0.34544,0.22539 0.62641,-0.39493 0.97889,-0.23947 -0.002,0.21174 -0.0832,0.4318 -0.1508,0.63945 l 0.0692,-0.0125 0.74255,0.018 0.89715,-0.0679 -0.0474,0.50656 0.056,0.14606 0.0341,0.33488 -0.0474,0.50654 0.004,0.32627 0.0857,0.15465 -0.0474,0.50654 0.0301,0.2362 0.0943,0.12451 -0.0338,0.1203 0.004,0.32631 0.0386,0.20615 0.1203,0.0338 0.0276,-0.0897 0.0901,0.0276 0.09,0.0276 0.0276,-0.0896 0.21014,0.0607 0.12483,-0.0942 0.14599,-0.0557 0.0644,0.11595 -0.0338,0.12032 -0.0858,0.30051 0.0644,0.11596 0.0943,0.12452 0.056,0.14606 -0.0276,0.0896 -0.0607,0.2102 -0.0857,0.3005 0.0901,0.0276 -0.0276,0.0896 0.18449,0.15037 -0.12479,0.0943 -0.0276,0.0896 -0.14597,0.0556 -0.0338,0.12028 0.21435,0.38657 -0.0276,0.0897 0.12029,0.0338 -0.0276,0.0897 -0.0339,0.12026 0.09,0.0276 0.0645,0.116 0.1203,0.0338 -0.0276,0.0897 -0.0338,0.12033 0.0645,0.11597 0.21025,0.0607 0.4548,0.22788 0.21013,0.0606 0.0901,0.0276 0.47625,0.2666 0.15853,0.24053 0.09,0.0276 0.056,0.1461 0.0943,0.12449 0.11985,0.26193 0.2488,0.26642 0.0856,0.15459 0.36863,0.52835 0.18443,0.15034 0.0212,0.0384 z"
       id="MA-04"
       style="font-style:normal;font-weight:400;font-size:34.375px;font-family:'MS Shell Dlg 2';opacity:1;fill:none;fill-opacity:1;fill-rule:evenodd;stroke:#000000;stroke-width:0.33333385;stroke-linecap:square;stroke-linejoin:bevel;stroke-miterlimit:4;stroke-dasharray:none;stroke-opacity:1" />
    <path
       inkscape:connector-curvature="0"
       d="m 234.49439,367.98185 c -0.17484,-0.15978 -0.32129,-0.35645 -0.57048,-0.39115 -0.25957,-0.0672 -0.43101,-0.27534 -0.61344,-0.46848 -0.18236,-0.19312 -0.37306,-0.35991 -0.67789,-0.35694 -0.0919,-0.17066 -0.20999,-0.38504 -0.36866,-0.52832 -0.15854,-0.14322 -0.33877,-0.23227 -0.59216,-0.2022 -0.26216,0.006 -0.28164,-0.17777 -0.29159,-0.34369 -0.01,-0.16588 -0.0424,-0.30555 -0.29594,-0.2149 -0.31636,-0.0619 -0.40974,0.10333 -0.45097,0.32581 -0.0412,0.22254 -0.014,0.51583 -0.0986,0.68688 -0.17822,0.0653 -0.3097,0.26151 -0.44686,0.42451 -0.13715,0.16304 -0.27838,0.29717 -0.4766,0.18844 -0.39253,0.0501 -0.41903,-0.64023 -0.70356,-0.49436 -0.073,0.14938 -0.18767,0.43312 -0.33966,0.61785 -0.15181,0.18477 -0.3364,0.27883 -0.51506,-0.018 -0.0491,-0.0244 -0.0805,-0.0782 -0.13295,-0.10311 l -1.37959,1.75001 -0.7037,-0.26684 -0.13312,0.35194 -1.32664,0.20476 -0.31545,2.12018 -1.35663,0.19616 -0.62279,0.4716 0.96465,1.28439 c 0.11551,-0.20735 0.16999,-0.14336 0.23605,-0.0298 0.0662,0.11351 0.12352,0.26833 0.24009,0.29641 0.52629,-0.0304 0.65155,0.57463 1.11545,0.64495 0.2045,0.11832 0.16741,0.28685 0.0381,0.43356 -0.12946,0.14662 -0.34365,0.28675 -0.45961,0.35585 -0.17541,0.13576 -0.26794,0.35473 -0.26262,0.57487 0.005,0.2202 0.10277,0.42921 0.33858,0.51974 0.11992,0.18139 0.22627,0.20165 0.32177,0.12472 0.0958,-0.0768 0.16573,-0.22968 0.20235,-0.36461 0.0581,-0.24412 0.27221,-0.21105 0.46796,-0.15837 0.19572,0.0532 0.392,0.12976 0.43362,-0.0383 -0.0887,-0.25785 0.046,-0.39886 0.23683,-0.48477 0.19068,-0.086 0.44087,-0.11824 0.60546,-0.18397 0.13737,-0.0677 0.36814,-0.092 0.52807,-0.14116 0.16002,-0.049 0.25218,-0.13937 0.17257,-0.37315 0.12844,-0.34253 0.2239,-0.70146 0.24058,-1.06882 l 0.61387,0.0137 -0.71944,-1.79927 1.168,-0.44529 c 0.32972,-0.26358 0.23519,-0.78395 0.5891,-1.03392 0.28871,-0.22941 0.69977,-0.16526 1.00871,-0.003 0.15477,0.0708 0.34772,0.0852 0.51926,0.11659 0,0 0,0 0,0 0.10099,0.0198 0.20986,0.0587 0.30906,0.0551 0.26403,-0.0652 0.35797,-0.38886 0.63569,-0.4029 0.0906,0.0218 0.25559,0.0709 0.36892,0.0743 0.11351,0.003 0.18801,-0.0506 0.0985,-0.23181 -0.14172,-0.22729 -0.39204,-0.36726 -0.59611,-0.52854 -0.082,-0.044 -0.27117,-0.0579 -0.39921,-0.0817 -0.12798,-0.0239 -0.20445,-0.062 -0.0386,-0.20614 0.16531,-0.14697 0.40684,-0.33546 0.63121,-0.27413 0.11648,0.17758 0.19678,0.45406 0.46755,0.29661 0.27117,-0.0895 0.65956,-6.9e-4 0.72584,-0.37704 0.0195,-0.35797 0.40981,-0.35963 0.65269,-0.23547 0.16757,0.16953 0.0957,0.48891 0.39012,0.56701 0.18232,0.11303 0.40796,0.25166 0.24852,0.49388 -0.036,0.13117 -0.0751,0.25952 -0.1119,0.39052 l 0.84123,0.0137 -0.10292,-0.0946 0.0276,-0.0895 -0.056,-0.14611 -0.0645,-0.11596 0.0276,-0.0897 0.0338,-0.12031 -0.12031,-0.0338 -0.09,-0.0276 -0.0645,-0.11596 -0.0598,-0.24473 -0.09,-0.0276 0.0276,-0.0897 -0.03,-0.23618 0.0276,-0.0898 0.0276,-0.0896 0.1026,-0.13311 z"
       id="MA-05"
       style="font-style:normal;font-weight:400;font-size:34.375px;font-family:'MS Shell Dlg 2';opacity:1;fill:none;fill-opacity:1;fill-rule:evenodd;stroke:#000000;stroke-width:0.33333385;stroke-linecap:square;stroke-linejoin:bevel;stroke-miterlimit:4;stroke-dasharray:none;stroke-opacity:1" />
    <path
       inkscape:connector-curvature="0"
       d="m 237.19795,355.26568 -0.1162,0.0642 -0.12029,-0.0338 -0.11622,0.0642 -0.0606,0.21019 -0.23604,0.0298 -0.5491,-0.35251 -0.26602,-0.20633 -0.39049,-0.11199 -0.24479,0.0598 -0.20597,0.0385 -0.14601,0.0557 -0.26647,0.24867 -0.15461,0.0857 -0.20596,0.0383 -0.0276,0.0896 -0.15463,0.0857 -0.32631,0.004 -0.11619,0.0641 -0.24467,0.0598 -0.47671,0.1884 -0.1162,0.0641 -0.18046,0.17583 -0.051,0.18043 -0.0438,0.15002 c 0.34463,0.24744 0.69373,0.50872 1.0681,0.69638 0.15786,0.24118 -0.0138,0.38718 -0.19346,0.5622 -0.18081,0.17483 -0.38725,0.37608 -0.31825,0.65646 -0.0666,0.18884 -0.10699,0.4742 -0.22789,0.6824 -0.12024,0.20829 -0.30595,0.33802 -0.58402,0.22264 -0.27536,-0.0696 -0.61683,-0.0645 -0.88865,0.0378 -0.27169,0.10222 -0.47219,0.28551 -0.47702,0.64342 -0.15894,0.24971 -0.14927,0.4769 -0.0689,0.69538 0.0797,0.21838 0.22393,0.42421 0.30421,0.6399 -0.17152,0.25353 -0.15683,0.50027 -0.0782,0.72533 0.079,0.22509 0.22626,0.44584 0.29551,0.66989 -0.18818,0.14575 -0.45262,0.24553 -0.69132,0.25691 -0.23872,0.0113 -0.44766,-0.0809 -0.58779,-0.33108 l -1.23562,-0.6794 c -0.38713,-0.21531 -0.51769,-0.0768 -0.56671,0.16256 -0.0482,0.23933 -0.014,0.5711 -0.10783,0.71682 -0.4454,0.31011 -0.38054,0.90558 -0.61505,1.35156 -0.0616,0.13827 -0.24162,0.27408 -0.33944,0.3903 -0.0978,0.11624 -0.12493,0.1962 0.14991,0.27057 0.0343,0.22821 0.15727,0.46382 0.22693,0.68277 0.0695,0.21889 0.10432,0.447 -0.0689,0.69533 -0.10582,0.28521 -0.0274,0.44742 0.12387,0.58818 0.11211,0.10472 0.26573,0.17734 0.41619,0.24939 l 0,0 c 0.052,0.0255 0.0833,0.0787 0.13295,0.10309 0.17866,0.29651 0.36327,0.20236 0.51503,0.018 0.15178,-0.18476 0.26705,-0.46835 0.33965,-0.61782 0.28457,-0.1459 0.31109,0.54447 0.7036,0.49436 0.19823,0.10873 0.33946,-0.0254 0.47661,-0.18846 0.13718,-0.163 0.26862,-0.35929 0.4468,-0.42451 0.0854,-0.17078 0.0578,-0.46423 0.0995,-0.68674 0.0413,-0.22252 0.13509,-0.38784 0.45099,-0.32581 0.25348,-0.0906 0.28601,0.0492 0.29593,0.21491 0.01,0.16587 0.0293,0.34975 0.29155,0.34367 0.25337,-0.0299 0.43361,0.0592 0.59221,0.20219 0.15865,0.14327 0.27672,0.35767 0.36866,0.52836 0.30482,-0.003 0.49552,0.16386 0.67788,0.35693 0.1824,0.19312 0.35363,0.40217 0.61343,0.46845 0.24924,0.0344 0.39564,0.23139 0.57047,0.39116 l 0.19769,-0.23589 0.17184,-0.1458 0.0338,-0.12029 0.0276,-0.0897 0.15063,-0.18433 0.0901,0.0276 0.0896,0.48085 0.0387,0.20614 0.15002,0.27061 0.23613,-0.0298 0.30044,0.0857 0.0899,0.0276 0.0606,-0.2102 -0.18448,-0.15037 -0.0901,-0.0276 -0.21014,-0.0607 -0.09,-0.0276 -0.0559,-0.14608 -0.0685,-0.21468 -0.004,-0.32629 0.0338,-0.12032 0.0276,-0.0896 0.11622,-0.0641 0.15461,-0.0856 0.1805,0.051 0.12033,0.0337 0.18032,0.051 0.14601,-0.0558 0.0276,-0.0898 0.0338,-0.12028 0.0509,-0.18044 0.15065,-0.18437 0.27061,-0.14998 0.0276,-0.0896 0.20598,-0.0385 0.1845,0.15039 0.0276,-0.0896 0.12077,-0.42047 -0.18451,-0.15039 -0.0645,-0.11599 0.0338,-0.12031 -0.21013,-0.0607 -0.1248,0.0943 -0.09,-0.0276 -0.12028,-0.0338 -0.17972,-0.50668 0.0276,-0.0897 0.0276,-0.0896 0.15462,-0.0857 0.09,0.0276 0.11622,-0.0642 0.12031,0.0338 0.45086,-0.0983 0.1421,-0.15431 0.27059,-0.14996 0.23617,-0.0297 0.3606,-0.12417 0.24061,-0.15859 0.14599,-0.0557 0.38645,-0.21428 0.15449,0.1418 0.23605,-0.0298 0.36071,-0.12415 0.29643,-0.24007 0.0276,-0.0897 0.0276,-0.0896 0.12479,-0.0942 0.09,0.0276 0.0856,0.15462 -0.0276,0.0899 0.0645,0.11599 0.23612,-0.0298 0.35245,-0.54913 0.0857,-0.30051 0.18045,-0.17585 0.0856,-0.3005 0.0276,-0.0896 0.24063,-0.15856 0.14596,-0.0557 0.09,0.0276 0.0276,-0.0897 -0.03,-0.23615 -0.12419,-0.36071 -0.23613,0.0298 -0.12482,0.0943 -0.0559,-0.14607 -0.12031,-0.0337 0.0276,-0.0898 -0.0901,-0.0276 0.0606,-0.21018 0.0216,-0.41648 -0.21013,-0.0606 -0.23606,0.0297 -0.1248,0.0943 -0.32229,0.33021 -0.15067,0.18435 -0.17647,0.2745 -0.051,0.1804 -0.15463,0.0857 -0.78111,-0.22396 -0.0599,-0.24476 -0.33018,-0.32221 -0.09,-0.0276 -0.30045,-0.0856 -0.27467,-0.17621 -0.0943,-0.12453 0.18044,-0.17581 -0.0943,-0.12452 -0.15386,-0.59675 -0.30444,-0.4124 0.0276,-0.0896 -0.30402,-0.8674 -0.19234,-0.80285 0.0276,-0.0898 -0.056,-0.14608 -0.0685,-0.21469 -0.03,-0.23617 -0.0301,-0.23617 0.0509,-0.18048 -0.0381,-0.66108 z"
       id="MA-06"
       style="font-style:normal;font-weight:400;font-size:34.375px;font-family:'MS Shell Dlg 2';opacity:1;fill:none;fill-opacity:1;fill-rule:evenodd;stroke:#000000;stroke-width:0.33333385;stroke-linecap:square;stroke-linejoin:bevel;stroke-miterlimit:4;stroke-dasharray:none;stroke-opacity:1" />
    <path
       inkscape:connector-curvature="0"
       d="m 234.90482,369.725 -0.84124,-0.0137 c 0.036,-0.13117 0.0751,-0.25954 0.112,-0.39051 0.15895,-0.24234 -0.0662,-0.38098 -0.24851,-0.49387 -0.29437,-0.0786 -0.22255,-0.39746 -0.39009,-0.56701 -0.24289,-0.12427 -0.6332,-0.12241 -0.65271,0.23547 -0.0656,0.37641 -0.45464,0.28752 -0.72585,0.37704 -0.27079,0.15744 -0.35109,-0.11897 -0.46756,-0.29664 -0.22443,-0.061 -0.46589,0.12718 -0.6312,0.27416 -0.16606,0.14411 -0.0895,0.18145 0.0387,0.20615 0.12801,0.0237 0.31734,0.0385 0.39924,0.0817 0.20404,0.16129 0.45438,0.30128 0.59612,0.52854 0.0891,0.1811 0.0149,0.23473 -0.0987,0.2318 -0.11339,-0.003 -0.27769,-0.0541 -0.3689,-0.0743 -0.27772,0.014 -0.37168,0.33761 -0.63568,0.40289 -0.0993,10e-4 -0.20744,-0.0394 -0.30908,-0.0551 -0.0294,0.18083 -0.10444,0.36221 -0.056,0.53662 0.18741,0.22511 0.33067,0.16667 0.47645,0.0382 0.14581,-0.12759 0.29541,-0.32276 0.4383,-0.39447 0.10197,-0.0834 0.21579,-0.10238 0.31338,-0.0726 0.0973,0.0309 0.15348,0.11556 0.0812,0.28337 -0.0466,0.21163 -0.16874,0.36352 -0.25401,0.54483 l 0.51078,0.14617 -1.11794,1.85757 2.74848,3.22631 c 0.11351,-0.39621 0.24358,-0.80231 0.34457,-1.20156 0.0196,-0.33145 -0.24873,-0.61102 -0.5875,-0.55858 -0.25594,-0.0495 -0.26301,-0.47474 -0.57917,-0.36112 -0.0756,0.0169 -0.24754,0.0448 -0.36486,0.0253 -0.11759,-0.0185 -0.17909,-0.0782 -0.0387,-0.20612 0.18845,-0.0848 0.29013,-0.22561 0.0273,-0.31744 -0.28369,-0.1122 -0.16275,-0.43447 -0.16675,-0.6655 -0.0406,-0.2242 -0.0355,-0.56389 0.26264,-0.57488 0.37075,0.03 0.381,-0.35672 0.40836,-0.63062 0.0444,-0.24139 0.13499,-0.46905 0.10782,-0.71682 -0.30775,-0.1351 -0.23045,-0.4733 -0.0593,-0.69971 0.0946,-0.18824 -0.0629,-0.22623 -0.21011,-0.28781 -0.14724,-0.0615 -0.27268,-0.1154 -0.14134,-0.30061 0.28393,-0.20823 0.56411,0.0773 0.77243,0.25396 0.14464,0.12502 0.30627,0.19305 0.47619,0.26657 l 0.0167,-0.0602 0.15067,-0.18435 0.36068,-0.12414 0.11621,-0.0641 0.0943,0.12453 0.14588,0.17186 0.21014,0.0606 0.0338,-0.12029 -0.21426,-0.38653 -0.0817,-0.0559 z"
       id="MA-07"
       style="font-style:normal;font-weight:400;font-size:34.375px;font-family:'MS Shell Dlg 2';opacity:1;fill:none;fill-opacity:1;fill-rule:evenodd;stroke:#000000;stroke-width:0.33333385;stroke-linecap:square;stroke-linejoin:bevel;stroke-miterlimit:4;stroke-dasharray:none;stroke-opacity:1" />
    <path
       inkscape:connector-curvature="0"
       d="m 234.07145,370.36376 c -0.16992,-0.0735 -0.33154,-0.1415 -0.47616,-0.26655 -0.2084,-0.17628 -0.48852,-0.46224 -0.77241,-0.25395 -0.13118,0.18538 -0.006,0.23894 0.14129,0.30058 0.14735,0.0615 0.30426,0.0994 0.21012,0.28781 -0.17103,0.22641 -0.2482,0.56469 0.0594,0.69975 0.0288,0.24817 -0.0625,0.47556 -0.10773,0.71683 -0.0282,0.27377 -0.0377,0.66128 -0.40836,0.63064 -0.29776,0.011 -0.30291,0.35073 -0.26261,0.57486 0.004,0.2309 -0.11668,0.55338 0.16672,0.66548 0.26408,0.092 0.16241,0.2329 -0.0273,0.31745 -0.14068,0.12787 -0.0787,0.1868 0.0387,0.20613 0.11754,0.0184 0.28888,-0.009 0.36485,-0.0254 0.31615,-0.11359 0.32315,0.31232 0.57919,0.36116 0.33882,-0.0525 0.6065,0.22705 0.58749,0.55856 -0.10039,0.3994 -0.23095,0.80538 -0.34454,1.20158 l -2.74851,-3.22632 1.11795,-1.85757 -0.51079,-0.14609 c -0.0621,0.13348 -0.0615,0.29005 -0.18021,0.40348 -0.0304,0.10386 -0.0649,0.26209 -0.13323,0.35192 -0.0664,0.0904 -0.15717,0.1126 -0.27902,-0.0472 -0.13417,-0.16816 -0.26573,-0.10945 -0.38633,-0.0127 -0.12027,0.0963 -0.22278,0.2342 -0.34368,0.29157 -0.0551,0.15557 -0.0906,0.35748 -0.17632,0.50208 -0.0804,0.1461 -0.21504,0.25544 -0.44663,0.19705 -0.2794,0.19294 -0.22381,0.60995 -0.35736,0.90532 -0.065,0.3076 -0.24594,0.66875 -0.11663,0.97433 0.19125,0.26358 0.36909,0.54463 0.68182,0.68313 0.16655,0.0196 0.27156,0.26686 0.3644,0.42957 0.093,0.16278 0.1646,0.24335 0.31764,0.0273 0.12698,-0.14896 0.22893,-0.0213 0.32176,0.12472 0.0929,0.14614 0.18396,0.30061 0.33889,0.29224 0.21209,0.0405 0.32614,0.15631 0.36877,0.30079 0.0429,0.1445 0.0373,0.32483 0.021,0.49367 0.019,0.38961 -0.0158,0.78903 0.0203,1.17617 l -0.61844,0.34281 0.44488,1.62298 1.39478,0.2379 c -0.21102,0.0136 -0.0157,0.32551 6e-5,0.45501 0.069,0.18884 0.0509,0.3956 0.0253,0.59241 0.009,0.16989 -0.0252,0.43536 0.17979,0.5067 0.20563,0.0857 0.3309,-0.11966 0.40375,-0.27434 0.16664,-0.10683 0.32626,0.0375 0.44207,0.15918 0.11031,0.13767 0.20972,0.28512 0.39022,0.33946 0.18298,0.0926 0.19672,0.31971 0.24854,0.49386 0.0482,0.12528 0.2283,-0.0775 0.32206,-0.10271 0.045,-0.0224 0.0845,-0.0658 0.12481,-0.0942 -0.0463,-0.0422 -0.1297,-0.0333 -0.17163,-0.0817 -0.14065,-0.33308 0.0244,-0.49621 0.27124,-0.60492 0.24716,-0.10878 0.59006,-0.14584 0.80283,-0.19244 0.23693,-0.40637 0.88077,-0.89373 0.91569,-1.49293 0.1009,-0.7212 -0.32903,-1.34991 -0.2469,-2.08636 1e-4,-0.77891 -0.6647,-1.33655 -0.80075,-2.08266 -0.1509,-0.32919 0.0658,-0.52764 0.35687,-0.67788 0.29138,-0.15011 0.66851,-0.26955 0.8204,-0.47996 0.274,-0.12911 0.54982,-0.32849 0.84173,-0.44132 0.29194,-0.11285 0.61802,-0.13559 0.9314,0.0396 0.60709,0.0591 0.88949,0.77689 1.4974,0.78696 0.10611,-0.0109 0.19639,-0.0686 0.29199,-0.11133 l -0.12444,-0.13316 -0.0681,-0.44216 -0.0984,-0.45082 -0.03,-0.23619 -0.21012,-0.0607 -0.09,-0.0276 -0.18452,-0.15038 -0.0901,-0.0276 0.0339,-0.12026 -0.18441,-0.15035 -0.21426,-0.38654 -0.18449,-0.15038 -0.1803,-0.0511 -0.21023,-0.0607 -0.47618,-0.26659 -0.18051,-0.051 -0.24468,0.0598 -0.41634,-0.0226 -0.0943,-0.12454 -0.056,-0.14606 -0.18441,-0.15036 -0.0645,-0.11597 -0.17588,-0.18048 -0.0645,-0.116 0.0276,-0.0897 -0.0559,-0.14607 0.0276,-0.0898 -0.57103,0.0638 -0.23604,0.0297 0.0943,0.12453 0.35602,0.23213 0.0898,0.0276 -0.0276,0.0896 -0.0276,0.0897 -0.12098,0.42048 -0.14206,0.15432 -0.27061,0.14995 -0.18033,-0.051 -0.1203,-0.0338 -0.1805,-0.0511 -0.0943,-0.12451 -0.11621,0.0641 -0.23604,0.0298 -0.12484,0.0942 -0.32621,0.004 -0.0644,-0.11597 -0.0857,-0.1546 -0.18051,-0.051 0.0276,-0.0898 -0.0943,-0.1245 0.0338,-0.12032 0.0509,-0.18042 0.0337,-0.12033 -0.0645,-0.11598 -0.24006,-0.29643 -0.0387,-0.20613 0.0338,-0.12032 0.11199,-0.3905 0.0125,-0.0294 z"
       id="MA-08"
       style="font-style:normal;font-weight:400;font-size:34.375px;font-family:'MS Shell Dlg 2';opacity:1;fill:none;fill-opacity:1;fill-rule:evenodd;stroke:#000000;stroke-width:0.33333385;stroke-linecap:square;stroke-linejoin:bevel;stroke-miterlimit:4;stroke-dasharray:none;stroke-opacity:1" />
    <path
       inkscape:connector-curvature="0"
       d="m 240.56162,375.05312 c -0.0955,0.0428 -0.18592,0.10052 -0.29201,0.11134 -0.60787,-0.0101 -0.89024,-0.72829 -1.49736,-0.78698 -0.3134,-0.17512 -0.63964,-0.15183 -0.93139,-0.0396 -0.29192,0.11286 -0.56776,0.31226 -0.84175,0.44133 -0.15184,0.21045 -0.52903,0.32989 -0.82042,0.47997 -0.29125,0.15015 -0.50775,0.3487 -0.35685,0.67791 0.13602,0.74605 0.80076,1.30371 0.80076,2.08264 -0.0824,0.7364 0.34788,1.36516 0.24688,2.08635 -0.0345,0.59924 -0.67879,1.08654 -0.91569,1.49297 -0.21279,0.0467 -0.55567,0.0836 -0.80281,0.19242 -0.24728,0.10872 -0.4117,0.27182 -0.27126,0.60491 0.0426,0.0477 0.12575,0.0385 0.17162,0.0816 0.0989,-0.0695 0.21214,-0.15607 0.29638,-0.24011 0,0 0,0 0,0 -0.0845,0.0839 -0.19742,0.17081 -0.29638,0.24011 0.45831,0.41927 1.08173,0.66461 1.60447,0.9802 -0.0442,0.34433 0.15514,0.59387 0.3426,0.84597 0.18751,0.25209 0.34686,0.5046 0.21385,0.84154 0.18746,0.2561 0.10086,0.36899 -0.0382,0.47655 -0.14001,0.10741 -0.3289,0.22876 -0.34812,0.42033 0.14512,0.19186 0.24229,0.38275 0.23127,0.55396 -0.011,0.17128 -0.11884,0.29455 -0.39952,0.37308 -0.26712,0.15772 -0.59248,0.30407 -0.88045,0.46271 -0.288,0.15867 -0.53907,0.34824 -0.6746,0.65184 -0.0937,-0.15132 -0.0933,-0.40199 -0.15387,-0.59681 -0.0606,-0.19478 -0.19217,-0.35508 -0.52773,-0.31385 -0.27141,-0.1356 -0.52212,-0.13134 -0.70395,-0.0389 -0.18192,0.0924 -0.30233,0.27466 -0.33112,0.58776 -0.26883,0.0875 -0.40556,0.46127 -0.57158,0.74636 -0.0824,0.14267 -0.18668,0.28278 -0.2922,0.33882 -0.10555,0.0561 -0.23885,0.0392 -0.39914,-0.0817 -0.15153,-0.15764 -0.26699,-0.1823 -0.38194,-0.142 -0.11457,0.0404 -0.20186,0.13542 -0.30499,0.27014 -0.0993,0.12874 -0.24213,0.19898 -0.35228,0.32159 l 0.008,0.19736 0.12035,0.0338 0.20614,-0.0383 0.12031,0.0338 0.0645,0.11602 0.30054,0.0855 0.0901,0.0276 0.21011,0.0607 0.23608,-0.0298 0.09,0.0276 -0.0276,0.0896 -0.0216,0.41646 6e-5,0.45502 -0.14599,0.0557 0.0943,0.12452 -0.0338,0.12031 0.0386,0.20615 -0.0338,0.12029 0.09,0.0276 0.15865,0.24053 -0.0338,0.12034 0.1023,0.77704 0.0301,0.23618 0.19668,0.90165 0.008,0.65245 0.73858,-0.30838 0.33499,-0.0341 0.30046,0.0855 0.51074,0.14626 0.17647,-0.27449 0.14597,-0.0556 0.32633,-0.004 0.42087,-0.33445 0.0858,-0.3005 0.7386,-0.30834 0.18054,0.0508 -0.21831,-0.71279 -0.14993,-0.27055 -0.0644,-0.11596 0.0338,-0.1203 0.0901,0.0276 0.12031,0.0338 0.14207,-0.15435 0.0607,-0.21017 0.0276,-0.0897 -0.056,-0.14607 -0.0685,-0.21468 0.0337,-0.12033 0.12032,0.0338 0.09,0.0276 0.09,0.0276 0.0599,0.24473 0.0645,0.11598 0.21025,0.0606 -0.12419,-0.36071 0.0276,-0.0897 -0.0644,-0.11598 -0.12031,-0.0338 0.0338,-0.12031 0.0276,-0.0897 0.146,-0.0558 0.15064,-0.18437 0.11622,-0.0642 0.12032,0.0338 0.09,0.0276 0.09,0.0276 0.0943,0.12452 0.09,0.0276 -0.0276,0.0898 -0.0338,0.12031 0.18842,0.47665 0.0644,0.11596 0.0857,0.15462 0.09,0.0276 0.0338,-0.12031 -0.1281,-0.68695 0.0276,-0.0896 -0.0645,-0.11598 0.0339,-0.1203 0.20599,-0.0385 0.18447,0.1504 0.44216,-0.0683 0.27062,-0.14996 0.0276,-0.0896 -0.0559,-0.14607 -0.0943,-0.12453 -0.18034,-0.051 -0.0599,-0.24472 0.0276,-0.0897 0.12032,0.0338 0.0901,0.0276 0.32623,-0.004 0.21024,0.0606 0.09,0.0276 0.0645,0.11601 0.0943,0.12451 0.09,0.0276 0.11191,-0.3905 -0.0301,-0.23619 -0.0943,-0.12452 -0.004,-0.32632 0.0857,-0.3005 0.0276,-0.0897 0.0338,-0.12032 0.23608,-0.0298 0.27466,0.1762 0.30043,0.0856 -0.0685,-0.21469 -0.0337,-0.56231 -0.24018,-0.29643 0.0508,-0.18047 0.0338,-0.12028 0.11618,-0.0641 0.0644,0.11592 0.21011,0.0607 0.3906,0.112 0.12029,0.0339 0.30043,0.0856 0.30063,0.0856 0.09,0.0276 0.11619,-0.0641 0.30063,0.0857 0.1203,0.0338 0.0647,0.11599 -0.0606,0.2102 -0.0276,0.0898 -0.36068,0.12415 -0.32232,0.33021 0.21024,0.0607 0.0901,0.0276 0.0857,0.15466 0.0681,0.44215 0.0943,0.12452 -0.0338,0.12029 -0.14602,0.0558 -0.11619,0.0642 0.03,0.23615 0.12031,0.0338 0.0645,0.116 0.056,0.14606 -0.0276,0.0896 -0.0606,0.21019 -0.14208,0.15432 -0.0338,0.12031 0.15865,0.24056 0.056,0.14608 0.0386,0.20616 0.0599,0.2447 -0.0276,0.0898 -0.15459,0.0856 -0.051,0.18043 -0.0607,0.21018 0.0943,0.12451 -0.0606,0.21019 -0.0276,0.0896 -0.1203,-0.0338 -0.0338,0.1203 -0.38641,0.21429 -0.0276,0.0896 -0.11624,0.0642 -1.10396,0.78874 -0.17646,0.2745 -0.43821,0.3945 -0.27064,0.14997 -0.20232,0.36459 -0.59687,0.15396 -0.51103,0.30858 -0.56274,0.48884 -0.50677,0.17977 -0.11622,0.0641 -0.09,-0.0276 -0.18451,-0.15034 -0.0898,-0.0276 -0.38251,0.5405 -0.0276,0.0897 0.23603,-0.0298 0.24066,-0.15855 0.50658,-0.17983 0.20618,-0.0383 0.5709,-0.0639 0.1162,-0.0641 0.18044,-0.17579 0.29214,-0.33888 0.36079,-0.12409 0.57091,-0.0639 0.68288,-0.45437 0.0276,-0.0897 0.0276,-0.0897 0.35262,-0.54906 0.65704,-0.36426 0.56275,-0.48882 0.12031,0.0338 0.1162,-0.0642 0.1248,-0.0942 0.14602,-0.0558 0.17646,-0.27448 0.0276,-0.0897 0.15065,-0.18435 0.23614,-0.0297 0.12481,-0.0943 0.146,-0.0558 0.09,0.0276 0.23607,-0.0299 0.1248,-0.0942 0.11619,-0.0641 0.21013,0.0607 0.0276,-0.0896 0.24467,-0.0599 0.30065,0.0856 0.35196,-0.0941 0.0899,0.0276 0.45077,-0.0983 0.23616,-0.0298 0.1248,-0.0943 0.17183,-0.14576 0.15065,-0.18438 0.15065,-0.18439 0.0276,-0.0896 0.20631,-0.26592 0.0276,-0.0897 0.0338,-0.12031 0.20235,-0.36461 0.0276,-0.0896 0.45076,-0.0983 0.12031,0.0339 0.09,0.0276 0.47659,-0.18844 0.27062,-0.14995 0.051,-0.18042 -0.0558,-0.14602 0.11622,-0.0642 0.15064,-0.18437 0.3261,-0.004 0.12031,0.0339 0.18053,0.051 0.32614,-0.004 0.36077,-0.12413 0.23608,-0.0299 0.0645,0.11598 0.0943,0.12451 0.0899,0.0276 -0.0606,0.21017 0.0301,0.2362 0.1203,0.0338 0.12479,-0.0942 0.0511,-0.18042 0.0338,-0.12029 0.1421,-0.15431 0.2706,-0.14996 0.27061,-0.14997 0.50246,-0.27856 0.09,0.0276 0.71276,-0.21824 0.12028,0.0338 0.21462,-0.0686 0.23615,-0.0298 0.15066,-0.18437 0.12029,0.0337 0.59262,-0.25268 0.48074,-0.0897 0.2062,-0.0383 0.3261,-0.004 0.24478,-0.0599 0.262,-0.11991 0.21457,-0.0685 0.0857,0.15463 0.09,0.0276 0.36464,0.20203 0.0943,0.1245 0.056,0.1461 0.0386,0.20614 -0.0606,0.21018 -0.0606,0.21018 -0.0276,0.0898 -0.0276,0.0897 -0.0855,0.30055 -0.027,0.5451 -0.0226,0.41634 -0.12087,0.42049 -0.17646,0.2745 -0.12034,-0.0338 -0.0276,0.0896 0.0944,0.12451 0.0899,0.0276 0.09,0.0276 0.146,-0.0557 0.17644,-0.2745 0.0276,-0.0897 -0.0381,-0.66109 0.1723,-0.60079 0.11633,-0.74685 0.051,-0.18044 0.15067,-0.18434 0.146,-0.0558 0.0337,-0.12033 0.0276,-0.0898 0.0606,-0.21017 0.20234,-0.36461 -0.03,-0.23618 0.11189,-0.39049 -0.0677,-0.89722 -0.0944,-0.12452 0.0226,-0.41638 -0.0937,-0.80708 -0.22649,-1.13775 -0.24804,-0.9489 -0.12411,-0.36066 -0.16257,-0.56675 -0.30389,-0.86737 -0.37684,-0.95331 -0.0559,-0.14609 -0.30431,-0.41234 -0.37291,-0.62708 -0.21425,-0.38653 -0.21427,-0.38653 -0.09,-0.0276 -0.4246,-0.44682 -0.056,-0.14606 -0.54909,-0.35253 -0.68651,-0.32689 -0.90129,-0.25844 -0.09,-0.0276 -0.63521,-0.0524 -0.35208,0.0941 -0.3607,0.12414 -0.27051,0.15001 -0.17646,0.27448 0.0645,0.11599 0.14596,-0.0557 0.0645,0.11596 0.33027,0.32229 0.21415,0.3865 0.2747,0.1762 0.21013,0.0606 -0.0645,-0.11601 -0.0599,-0.24473 -0.0645,-0.11599 0.15065,-0.18436 0.0606,-0.2102 0.17184,-0.14577 0.1248,-0.0943 0.35207,-0.0941 0.09,0.0276 0.57499,0.2624 0.27447,0.17611 0.36033,0.33089 0.0645,0.11599 0.21424,0.38654 -0.0338,0.1203 0.18842,0.47664 -0.0276,0.0896 0.0937,0.80707 0.0725,0.54096 0.0976,1.13329 0.0983,0.45082 0.0645,0.116 0.09,0.0276 -0.0387,-0.20616 0.0338,-0.12029 -0.0387,-0.20617 -0.0857,-0.15461 -0.004,-0.32628 0.20231,-0.36459 0.27053,-0.14999 0.2361,-0.0299 0.0645,0.11598 0.0897,0.48087 0.0387,0.20614 -0.0338,0.1203 0.27455,0.17616 0.21024,0.0606 0.09,0.0276 -0.0607,0.21019 -0.1162,0.0641 0.094,0.35204 0.0341,0.33487 0.0684,0.44222 0.038,0.66105 0.056,0.14609 -0.17644,0.2745 -0.17649,0.27451 -0.0276,0.0897 -0.1203,-0.0338 -0.11621,0.0642 -0.0338,0.12029 -0.11622,0.0642 -0.14601,0.0557 -0.24043,0.1586 -0.14595,0.0555 -0.36077,0.12411 -0.20599,0.0383 -0.1546,0.0857 -0.11621,0.0641 -0.11619,0.0642 -0.15462,0.0857 -0.0899,-0.0276 -0.09,-0.0276 -0.23615,0.0298 -0.36068,0.12412 -0.3521,0.0941 -0.12478,0.0942 -0.21014,-0.0606 -0.52839,0.36863 -0.15461,0.0856 -0.23183,0.12857 -0.0338,0.12033 -0.0276,0.0897 -0.14602,0.0557 -0.0607,0.21019 -0.11621,0.0642 -0.0337,0.12031 -0.0899,-0.0276 -0.26583,-0.20627 0.0276,-0.0898 -0.12032,-0.0338 -0.27467,-0.17623 -0.62662,-0.0819 -0.98724,0.042 -0.18051,-0.051 -0.14599,0.0556 -0.60078,-0.17232 -0.39047,-0.11199 -0.39047,-0.11199 -0.51074,-0.14638 -0.0901,-0.0276 -0.1845,-0.15039 -0.21024,-0.0606 -0.0645,-0.11601 -0.45043,-0.35672 -0.09,-0.0276 -0.30442,-0.41237 -0.0943,-0.12451 -0.0559,-0.14607 -0.0387,-0.20615 -0.0599,-0.24471 0.18048,-0.17582 0.0276,-0.0896 0.14619,-0.51074 -0.16265,-0.5668 -0.0599,-0.24472 -0.0646,-0.11601 -0.21426,-0.38649 -0.09,-0.0276 0.0338,-0.12033 0.0276,-0.0897 -0.0943,-0.12451 -0.11983,-0.26193 -0.18449,-0.15037 -0.33017,-0.32224 -0.1203,-0.0338 -0.32634,0.004 -0.17644,0.27451 -0.21015,-0.0606 -0.09,-0.0276 -0.27459,-0.17618 -0.18439,-0.15032 -0.14588,-0.17188 -0.0338,0.12032 -0.12032,-0.0338 -0.0901,-0.0276 -0.09,-0.0276 -0.17583,-0.18047 -0.45899,-0.32667 -0.14586,-0.17187 -0.24862,-0.26635 0.0338,-0.1203 -0.0943,-0.1245 0.38641,-0.21432 0.12031,0.0338 0.15447,0.14181 0.23607,-0.0298 0.0276,-0.0897 -0.14993,-0.27053 0.0276,-0.0898 0.0304,-0.44646 0.38656,-0.21425 0.11621,-0.0642 0.0276,-0.0896 -0.0596,-0.47223 -0.0943,-0.12451 0.0276,-0.0897 0.15461,-0.0857 0.0276,-0.0896 -0.0599,-0.2447 -0.39449,-0.43822 -0.12031,-0.0338 -0.27856,-0.50254 -0.18439,-0.15032 -0.5187,-0.79892 -0.0509,-0.0469 z m 15.24441,20.75596 -0.0276,0.0898 0.17575,0.18043 0.12868,0.23195 0.12028,0.0338 0.056,0.14606 0.0386,0.20617 -0.027,0.54508 -0.29242,0.56632 -0.15064,0.18438 -0.14208,0.15433 -0.42109,0.33438 -0.146,0.0557 -0.09,-0.0276 -0.59687,0.15396 -1.52814,0.11448 -0.26201,0.1199 -0.45076,0.0983 -0.0943,-0.12451 -0.18054,-0.051 -0.0598,-0.24473 -0.0901,-0.0276 -0.30049,-0.0857 -0.30054,-0.0856 0.004,0.3263 0.18451,0.15037 0.26592,0.20632 0.30056,0.0855 0.09,0.0276 0.78518,0.32264 0.66502,0.28814 0.21023,0.0607 0.99127,0.28425 0.44642,0.0314 0.2404,-0.15863 0.12034,0.0337 0.53231,-0.0424 0.30062,0.0857 0.54505,0.027 0.23613,-0.0298 0.38645,-0.21427 0.20616,-0.0383 0.18044,-0.17581 0.0276,-0.0898 0.0856,-0.30053 -0.0341,-0.33485 -0.33421,-0.64848 -1.09724,-1.84257 -0.33429,-0.42096 -0.36472,-0.20206 z m -11.84568,-1.77121 -0.68295,0.45437 -0.26629,0.24872 -0.146,0.0556 -0.56281,0.48878 -0.33082,0.36028 -0.20233,0.36461 0.03,0.23617 -0.29231,0.33882 -0.12032,-0.0337 -0.70514,1.32575 -0.14208,0.1543 -0.0899,-0.0276 -0.0337,0.12032 -0.12033,-0.0338 -0.14566,-0.1718 -0.12033,-0.0338 -0.33492,0.0341 -0.20598,0.0383 -0.23616,0.0298 -0.0338,0.12033 -0.0276,0.0896 0.1845,0.15039 0.23999,0.29639 0.42033,0.34811 -0.0276,0.0896 0.30063,0.0857 0.12029,0.0338 0.15432,0.14166 0.14598,-0.0556 0.0607,-0.21018 0.0511,-0.1804 0.15062,-0.18437 0.15066,-0.18435 0.29636,-0.24012 0.47671,-0.18842 1.24922,-0.16193 0.93169,-0.18798 0.0901,0.0276 0.09,0.0276 0.32627,-0.003 0.57094,-0.0639 0.32621,-0.004 0.11621,-0.0642 0.1203,0.0338 0.18052,0.0511 0.24466,-0.0598 0.30056,0.0856 0.59673,-0.15396 0.32628,-0.003 0.0607,-0.21021 -0.038,-0.66111 0.0474,-0.50654 -0.12801,-0.68689 -0.3522,0.0941 -0.0607,0.21017 -0.0276,0.0896 0.03,0.23617 -0.17645,0.27449 -0.18045,0.1758 -0.11622,0.0642 -0.0899,-0.0276 -0.12028,-0.0338 0.0276,-0.0897 -0.0559,-0.14603 -0.0647,-0.11603 0.0276,-0.0897 -0.30043,-0.0857 -0.23614,0.0297 -0.18451,-0.15039 -0.14568,-0.17179 -0.1203,-0.0338 -0.0644,-0.11597 -0.0302,-0.23619 -0.0341,-0.33485 -0.004,-0.32632 -0.0644,-0.11597 -0.15004,-0.2706 -0.0901,-0.0276 -0.15462,0.0857 -0.30044,-0.0856 -0.18055,-0.0509 -0.0599,-0.24472 -0.09,-0.0276 z"
       id="MA-09"
       style="font-style:normal;font-weight:400;font-size:34.375px;font-family:'MS Shell Dlg 2';opacity:1;fill:none;fill-opacity:1;fill-rule:evenodd;stroke:#000000;stroke-width:0.33333385;stroke-linecap:square;stroke-linejoin:bevel;stroke-miterlimit:4;stroke-dasharray:none;stroke-opacity:1" />
  </g>
</svg>
