<?xml version="1.0" encoding="UTF-8" standalone="no"?>
<!-- Created with Inkscape (http://www.inkscape.org/) -->

<svg
   xmlns:dc="http://purl.org/dc/elements/1.1/"
   xmlns:cc="http://creativecommons.org/ns#"
   xmlns:rdf="http://www.w3.org/1999/02/22-rdf-syntax-ns#"
   xmlns:svg="http://www.w3.org/2000/svg"
   xmlns="http://www.w3.org/2000/svg"
   xmlns:sodipodi="http://sodipodi.sourceforge.net/DTD/sodipodi-0.dtd"
   xmlns:inkscape="http://www.inkscape.org/namespaces/inkscape"
   width="31.752863mm"
   height="31.019711mm"
   viewBox="0 0 112.51014 109.91237"
   id="svg3885"
   version="1.1"
   inkscape:version="0.91 r"
   sodipodi:docname="1.svg">
  <defs
     id="defs3887" />
  <sodipodi:namedview
     id="base"
     pagecolor="#ffffff"
     bordercolor="#666666"
     borderopacity="1.0"
     inkscape:pageopacity="0.0"
     inkscape:pageshadow="2"
     inkscape:zoom="4.5833633"
     inkscape:cx="113.31305"
     inkscape:cy="94.656104"
     inkscape:document-units="px"
     inkscape:current-layer="layer1"
     showgrid="false"
     inkscape:window-width="2560"
     inkscape:window-height="1388"
     inkscape:window-x="0"
     inkscape:window-y="0"
     inkscape:window-maximized="1"
     fit-margin-top="15"
     fit-margin-left="15"
     fit-margin-right="15"
     fit-margin-bottom="15" />
  <metadata
     id="metadata3890">
    <rdf:RDF>
      <cc:Work
         rdf:about="">
        <dc:format>image/svg+xml</dc:format>
        <dc:type
           rdf:resource="http://purl.org/dc/dcmitype/StillImage" />
        <dc:title></dc:title>
      </cc:Work>
    </rdf:RDF>
  </metadata>
  <g
     inkscape:label="Layer 1"
     inkscape:groupmode="layer"
     id="layer1"
     transform="translate(-83.811427,-486.79565)">
    <path
       inkscape:connector-curvature="0"
       d="m 137.13304,540.70121 0.0869,2.69056 5.65071,-0.0995 0.0323,-0.80277 0,0 0.10251,-2.3777 -2.62322,0.10476 -0.41156,0.49567 -0.39857,0.0789 -0.53807,-0.62614 -1.90636,0.1861 0.006,0.34942 z"
       id="NV-01"
       style="font-style:normal;font-weight:400;font-size:34.375px;font-family:'MS Shell Dlg 2';opacity:1;fill:#000000;fill-opacity:1;fill-rule:evenodd;stroke:#000000;stroke-width:0.33333385;stroke-linecap:square;stroke-linejoin:bevel;stroke-miterlimit:4;stroke-dasharray:none;stroke-opacity:1" />
    <path
       inkscape:connector-curvature="0"
       d="m 35.045326,376.17801 -0.129082,3.37057 -0.104799,3.49318 -0.129262,3.52975 0.0056,0.1901 -0.07688,1.70356 -0.05829,1.6363 -0.317246,8.85525 -0.304856,8.75721 -2.65e-4,0.15928 -0.02464,0.0366 -0.08589,3.26639 -0.0323,0.80275 -0.111738,3.94056 -0.05951,2.27366 -0.09717,2.72702 -0.09011,2.27974 -0.05831,1.63616 0.0058,0.0307 -0.03158,0.48405 -0.135061,3.33982 -0.03254,0.96215 -0.01312,0.41668 -1.63e-4,0.15937 -0.127756,2.73318 -0.02549,0.51475 -0.0011,0.478 -0.04368,0.42285 -0.01338,0.57595 -0.01275,0.25737 -0.08196,1.19499 -0.08353,1.99167 0.0058,0.0307 -0.06972,1.25628 0.0054,0.3494 -0.05154,1.34807 -0.02618,0.83355 -0.06463,1.76488 -0.0124,0.0979 -0.03277,1.12152 -0.03861,0.93145 -0.01847,0.0673 0.0058,0.0307 -0.051,1.02953 -0.01284,0.2574 -0.03121,0.32474 -0.08318,1.83234 -0.0064,0.12869 -0.03923,1.25012 -0.0437,0.42284 0.0058,0.0307 0.0058,0.0306 -0.03798,0.61287 -4.44e-4,0.31867 0.0058,0.0307 -0.02465,0.0366 0.01227,0.0614 -0.05065,0.87011 -0.01889,0.22678 0.01192,0.22069 -0.01241,0.0978 0.01801,0.092 -2.63e-4,0.15941 -0.03887,1.0908 0.0055,0.34941 -0.04468,0.90083 0.01734,0.56989 -0.03314,1.28084 -0.01388,0.89474 -0.03228,0.80282 0.01191,0.22061 0.189664,0.15368 0.513878,0.50348 0.04284,0.0552 0.305939,0.25801 0.04274,0.0551 0.116295,0.10439 0.03666,0.0244 0.0058,0.0307 0.0058,0.0307 0.06738,0.0185 0.0058,0.0308 0.501759,0.44225 0.201783,0.21492 0.07952,0.0799 1.217321,1.16064 1.401007,1.28361 0.51996,0.5342 1.248026,1.15459 0.825895,0.79215 1.486477,1.39402 0.03043,-0.0102 0.0058,0.0308 0.819838,0.76156 1.137794,1.08081 0.942093,0.89658 1.608848,1.52912 0.116295,0.1044 0.81366,0.73088 0.03676,0.0244 0.0058,0.0307 0.03677,0.0246 0.03665,0.0244 0.146327,-2.80055 c -0.302019,-0.32829 -0.360357,-0.79952 -0.402178,-1.22646 0.02538,-0.36397 -0.02821,-0.69546 -0.194238,-0.98095 -0.165917,-0.2855 -0.437074,-0.51765 -0.79544,-0.63885 -0.501153,-0.56431 -0.359702,-1.50103 -0.657742,-2.19537 -0.328805,-0.77763 -0.54419,-1.59048 -0.546795,-2.44026 -0.09433,-0.34975 0.04193,-0.60387 0.216099,-0.83927 0.174114,-0.2353 0.386394,-0.47143 0.491704,-0.73449 -0.08889,-0.46977 0.105975,-0.71174 0.406012,-0.84496 0.300167,-0.13309 0.716604,-0.13973 1.066678,-0.0834 0.471399,0.0846 0.669271,-0.16826 0.86493,-0.45793 0.195748,-0.28973 0.3741,-0.61846 0.749077,-0.72172 0.320528,-0.0342 0.712023,-0.0903 1.005571,-0.23111 0.293577,-0.14061 0.482388,-0.36862 0.479578,-0.79569 0.103647,-0.65349 0.597761,-1.36859 1.186141,-1.7322 l 3.59636,0.62588 1.321745,1.04448 23.673969,0.50499 11.538726,-2.38023 31.194653,0.0354 -0.15529,-8.50687 c 0.3573,-0.009 0.67481,-0.19944 0.92025,-0.50078 0.24546,-0.30133 0.42735,-0.7136 0.57853,-1.26139 0.30234,-1.0956 0.42546,-2.64799 0.45593,-4.45459 0.0608,-3.61344 -0.2626,-8.3016 -0.44781,-12.55851 l 38.55643,-0.59398 -0.0102,-0.0305 -0.098,-3.22997 -0.12578,-4.65807 -0.0229,-0.75999 -3.4e-4,-0.15927 -0.07,-1.80191 -0.0102,-0.0305 -1e-4,-0.3187 -0.0977,-3.38937 -0.0449,-1.998 -0.0229,-0.76 -0.004,-0.19002 0.0123,-0.098 -0.029,-0.3126 -0.0127,-0.22067 0.0123,-0.0979 -0.0102,-0.0304 -0.006,-0.34941 -0.0176,-0.25131 -0.10201,-4.53534 -0.0639,-1.61191 -0.11028,-3.29129 -0.0628,-2.56808 -0.02,-0.0919 -0.0176,-0.2513 -0.20598,-7.63674 -0.0127,-0.22057 -0.029,-0.95009 -0.0942,-2.24318 0.0245,-0.0367 -0.0102,-0.0305 0.0125,-0.25733 -0.12811,-3.54261 -0.0114,-0.0614 -0.0987,-2.7519 -0.029,-0.95012 -0.12891,-3.0645 -0.12867,-0.007 -0.28193,0.0237 -0.95003,0.029 -3.67736,0.091 -2.40866,0.0628 -1.48926,0.0402 -0.63134,0.0292 -2.0901,0.0635 -1.50141,-0.0213 -1.08476,-0.008 -1.79558,-0.0586 -0.0304,0.0102 -0.47808,-0.001 -0.28799,-0.006 -0.15317,0.0312 -0.31871,1.2e-4 -0.19002,0.004 -0.49651,0.0667 -0.3187,1.2e-4 -1.22598,0.0828 -0.31259,0.029 -0.91332,0.0531 -0.12871,-0.007 -4.28403,0.0838 -0.19016,0.004 -0.0671,-0.0187 -1.20141,0.0468 -0.0304,0.0101 -0.57608,-0.0134 -0.2513,0.0176 -0.22057,0.0127 -4.70686,0.04 -0.57013,0.0169 -0.0671,-0.0186 -0.15936,3.4e-4 -1.77739,0.0332 -0.47194,0.0293 -2.89283,0.0312 -0.19606,-0.025 -0.15938,3.4e-4 -0.50872,0.005 -1.59334,-0.003 -0.50867,0.006 -0.15321,0.0312 -0.25132,0.0176 -0.15937,3.3e-4 -2.57403,0.0318 -0.0673,-0.0186 -2.22475,0.0264 -1.30535,0.003 -0.0305,0.0102 -0.72327,0.0475 -0.19613,-0.0247 -1.81404,0.008 -0.37998,0.012 -0.0673,-0.0187 -0.28204,0.0237 -0.0365,-0.0245 -0.19002,0.004 -0.31866,1.1e-4 -1.18278,-0.0207 -0.0919,0.02 -0.82737,0.004 -0.0366,-0.0246 -7.170433,-0.0139 -0.827377,0.004 -0.226661,-0.0188 -0.134772,-0.0372 -0.312796,0.029 -0.189925,0.004 -0.128713,-0.007 -0.257353,-0.0127 -0.257392,-0.0129 -1.814117,0.009 -0.637382,-8.8e-4 -0.226664,-0.0188 -0.190125,0.004 -3.916164,0.0108 -0.833469,-0.0263 -1.33606,0.009 -0.47799,-0.001 -1.305453,0.003 -0.441308,0.024 -0.09799,-0.0122 -0.128706,-0.007 -0.03034,0.0102 -0.128706,-0.007 -0.539259,0.0118 -4.314497,-0.0697 -0.220664,0.0127 -0.287977,-0.006 -4.976391,-0.034 -1.532135,-0.0152 -3.156273,-0.0122 -1.440122,-0.0335 -1.783425,0.003 -2.108219,-0.0286 -1.997972,0.0449 -1.636284,-0.0582 -0.0674,-0.0187 -0.379982,0.012 -4.295934,-0.13699 -4.351154,-0.0941 -0.490231,-0.0623 -0.410581,0.0176 -1.507603,-0.052 -0.772136,-0.0383 -1.764887,-0.0647 -5.90756,-0.23197 -1.348181,-0.0515 -1.219524,-0.0453 -0.51474,-0.0253 -0.06139,0.0114 -2.30427,-0.0535 -0.28195,0.0237 z"
       id="NV-02"
       style="font-style:normal;font-weight:400;font-size:34.375px;font-family:'MS Shell Dlg 2';opacity:1;fill:none;fill-opacity:1;fill-rule:evenodd;stroke:#000000;stroke-width:0.33333385;stroke-linecap:square;stroke-linejoin:bevel;stroke-miterlimit:4;stroke-dasharray:none;stroke-opacity:1" />
    <path
       inkscape:connector-curvature="0"
       d="m 149.62349,543.7711 -3.04809,-2.04052 -1.6919,0.14365 -0.0628,0.8089 -1.30635,0.48161 -0.61151,-0.67531 -0.0323,0.80278 -5.6507,0.0995 -0.0869,-2.69056 c -0.39105,-0.13452 -0.81038,-0.24334 -1.08986,-0.51696 -0.0712,-0.25379 -0.21288,-0.47845 -0.40945,-0.61966 -0.19651,-0.14133 -0.464,-0.18512 -0.73538,-0.0138 -0.22733,0.0932 -0.44294,0.22755 -0.61977,0.40948 -0.17687,0.1818 -0.29876,0.41666 -0.27708,0.69199 0.017,0.23366 0.23975,0.38974 0.42785,0.55242 0.18817,0.16255 0.34192,0.3424 0.15215,0.607 -0.2095,0.18329 -0.4821,0.28048 -0.76669,0.31105 -0.28455,0.031 -0.59193,-0.0348 -0.83311,-0.18552 -0.43349,-0.17167 -0.8619,-0.48442 -1.29208,-0.57233 -0.36717,0.42948 -0.54806,1.00068 -1.00769,1.34635 -0.28471,0.005 -0.3641,-0.20639 -0.34841,-0.47261 0.0157,-0.26622 0.11857,-0.58885 0.0995,-0.78427 -0.12765,-0.24375 -0.4315,-0.26044 -0.74116,-0.20361 -0.30978,0.0562 -0.63797,0.20319 -0.84623,0.23116 -0.79569,0.14394 -1.55731,0.38318 -2.33607,0.58997 -0.6374,0.11139 -1.27938,0.19043 -1.90072,0.37632 -0.10047,0.0202 -0.27122,0.0483 -0.37381,0.0431 l 0.0226,4.45554 0.47105,0.44824 1.57217,1.50459 0.0366,0.0246 0.12228,0.13502 1.43776,1.30814 0.46498,0.41765 0.51378,0.5035 0.46496,0.41765 0.0428,0.0553 0.78304,0.73696 0.90543,0.87195 0.0735,0.0492 0.0429,0.0551 1.09506,1.02562 2.06169,1.88545 0.16509,0.19026 0.0365,0.0246 0.23867,0.23943 0.0734,0.0492 2.06783,1.91614 0.74631,0.71233 1.08897,0.99494 1.52944,1.44932 0.312,0.2886 0.0304,-0.0102 0.47712,0.47896 0.53852,0.4668 0.12227,0.13512 1.25411,1.18519 2.4226,2.25998 0.39152,0.36847 1.75586,1.62745 0.0428,0.0552 1.05232,0.97027 0.0365,0.0246 2.85083,2.6531 0.1958,0.18418 0.5445,0.49744 0.47104,0.4483 -0.0312,-0.15318 0.0185,-0.0672 -0.0357,-0.18415 0.0189,-0.22669 0.0245,-0.0367 0.0189,-0.22665 0.0988,-0.30631 0.21491,-0.20179 0.0551,-0.0428 0.18428,-0.19583 0.0678,-0.14082 0.0123,-0.0979 -0.0102,-0.0305 -0.0312,-0.15321 -0.0101,-0.0304 -0.11024,-0.0737 -0.055,-0.11656 -0.0365,-0.0245 -0.0736,-0.0492 -0.1469,-0.0982 -0.23881,-0.0802 -0.0367,-0.0246 -0.0366,-0.0245 -0.14082,-0.0677 -0.0304,0.01 -0.0102,-0.0304 -0.0102,-0.0304 -0.0857,-0.11047 0.043,-0.10412 0.0798,-0.0794 0.0551,-0.0429 0.10441,-0.11618 0.0738,-0.11014 0.0304,-0.0101 0.0245,-0.0367 0.0615,-0.0114 0.0613,-0.0114 0.0553,-0.0429 0.0304,-0.0101 0.0304,-0.0101 0.0305,-0.0102 0.0979,0.0124 0.22069,-0.0127 0.0979,0.0123 0.26975,-0.0854 0.11045,-0.0857 0.0859,-0.0487 0.13526,-0.28164 0.032,-0.64345 -0.0102,-0.0304 0.0246,-0.0366 -3.3e-4,-0.15937 -0.02,-0.0918 -1.2e-4,-0.31868 -0.02,-0.0919 -0.004,-0.18993 -0.0312,-0.1532 -0.0101,-0.0304 -0.0102,-0.0304 -0.061,-0.14714 -0.14083,-0.0679 -0.0847,-0.58855 -0.0126,-0.22057 -0.10308,-0.68045 -0.25537,-0.96884 0.001,-0.4781 -1e-4,-0.31856 -0.19453,-0.82168 -0.18307,-0.44164 -0.21341,-0.59489 -0.19508,-0.50288 -0.58722,-0.55266 -0.0102,-0.0305 -0.0367,-0.0246 -0.20152,-0.37421 -0.0101,-0.0303 -0.0551,-0.11654 0.007,-0.12871 -0.0102,-0.0304 -0.0478,-0.24535 -0.02,-0.0918 -0.14622,-0.41715 -0.10386,-0.20237 -0.0477,-0.24536 -0.0114,-0.0614 0.0245,-0.0367 -0.0101,-0.0305 0.0374,-0.29415 -0.0102,-0.0304 0.0737,-0.11025 0.1105,-0.0855 0.14117,-0.0918 0.0923,-0.1775 0.0372,-0.13477 -0.0101,-0.0304 -0.0793,-0.0799 -0.0357,-0.18405 -0.0362,-0.50262 -0.079,-0.39853 -0.02,-0.0918 0.15357,-0.18975 0.0988,-0.3062 0.0251,-0.35544 -0.10978,-0.23311 -0.47077,-0.60752 -0.28132,-0.29479 -0.0127,-0.22066 -3.4e-4,-0.15928 0.0185,-0.0673 0.1294,-0.31239 0.0249,-0.19594 -0.0101,-0.0305 -0.0488,-0.0858 -0.2511,-0.14156 -0.16508,-0.19024 -0.10378,-0.20239 -0.0114,-0.0616 0.19113,-0.64307 -0.006,-0.34931 0.006,-0.28807 -0.13399,-0.35574 0.0379,-0.61275 -0.31175,-0.44796 0.043,-0.10424 0.13499,-0.12236 0.13537,-0.28165 0.0616,-0.17145 -0.02,-0.0918 -0.0853,-0.26978 -0.0312,-0.15311 0.0678,-0.14084 -0.0102,-0.0304 0.1411,-0.0918 0.22702,-0.14051 0.0309,-0.16539 0.043,-0.10422 0.0186,-0.0671 -0.0114,-0.0616 -0.0486,-0.0858 -0.0312,-0.15323 -0.23248,-0.20882 -0.23856,-0.23941 -0.18332,-0.28227 0.0126,-0.25737 -0.004,-0.19003 -0.19582,-0.18427 -0.3245,-0.1906 -0.0429,-0.055 0.0309,-0.16548 0.0249,-0.19604 -0.0356,-0.18405 -0.0916,-0.14119 -0.17119,-0.22098 -0.0548,-0.27578 -0.0234,-0.6007 0.0186,-0.0672 -0.0102,-0.0305 0.0246,-0.0366 0.0245,-0.0365 0.0244,-0.0366 0.0246,-0.0367 0.0305,-0.0101 0.12286,-0.18365 0.031,-0.16536 -0.02,-0.092 -0.0917,-0.14107 -0.10411,-0.043 -0.0101,-0.0305 -0.0428,-0.0551 0.0185,-0.0674 -0.004,-0.18993 0.0737,-0.11022 0.007,-0.12872 -0.0102,-0.0304 -0.0101,-0.0305 z"
       id="NV-03"
       style="font-style:normal;font-weight:400;font-size:34.375px;font-family:'MS Shell Dlg 2';opacity:1;fill:none;fill-opacity:1;fill-rule:evenodd;stroke:#000000;stroke-width:0.33333385;stroke-linecap:square;stroke-linejoin:bevel;stroke-miterlimit:4;stroke-dasharray:none;stroke-opacity:1" />
    <path
       inkscape:connector-curvature="0"
       d="m 161.65331,429.158 -38.55643,0.59401 c 0.18529,4.25687 0.50811,8.94505 0.44782,12.55848 -0.0305,1.80659 -0.15359,3.35901 -0.45594,4.45459 -0.15118,0.54778 -0.33307,0.96007 -0.57853,1.26139 -0.24543,0.30131 -0.56298,0.49192 -0.92023,0.50079 l 0.15528,8.50686 -31.194662,-0.0353 -11.538727,2.38025 -23.673968,-0.50504 -1.321743,-1.04444 -3.59636,-0.62588 c -0.588381,0.36359 -1.082496,1.07869 -1.186142,1.73218 0.0028,0.42707 -0.186001,0.65509 -0.479582,0.7957 -0.293559,0.1407 -0.684998,0.19741 -1.005569,0.23107 -0.374983,0.10328 -0.553326,0.43201 -0.749078,0.72174 -0.195652,0.28974 -0.393528,0.54248 -0.864925,0.45792 -0.350132,-0.0564 -0.76649,-0.0494 -1.066678,0.0835 -0.300033,0.13325 -0.494561,0.37511 -0.406015,0.84495 -0.105307,0.26307 -0.31759,0.4992 -0.491701,0.7345 -0.174189,0.23543 -0.310429,0.48952 -0.216102,0.83924 0.0026,0.8498 0.217992,1.66262 0.546796,2.44028 0.298041,0.69433 0.156568,1.63104 0.657744,2.19537 0.358366,0.12121 0.62952,0.35333 0.795436,0.63883 0.166017,0.28552 0.219624,0.61701 0.194239,0.98097 0.04188,0.42692 0.100188,0.89817 0.402178,1.22644 l -0.146323,2.80058 1.027679,1.00707 0.61795,0.54665 0.354841,0.34383 1.682302,1.57832 0.03676,0.0244 0.624031,0.57737 0.630074,0.60789 0.318077,0.31931 1.131732,1.05018 0.636154,0.63859 1.119595,0.98887 0.587328,0.55264 1.370401,1.28967 0.94815,0.92721 0.391447,0.3686 0.550663,0.5281 0.57509,0.49133 0.703545,0.6572 2.012594,1.95876 1.089006,0.99505 1.560025,1.44316 0.868544,0.84744 0.740306,0.68169 3.878594,3.66017 4.410843,4.09628 0.250688,0.30073 1.431707,1.27754 1.578225,1.53509 0.617952,0.54668 0.232393,0.20885 0.746365,0.71229 2.673314,2.56082 0.691382,0.59577 2.239052,2.13709 0.893164,0.81065 0.899249,0.84135 0.03042,-0.0101 2.789506,2.66523 2.000475,1.8976 0.464978,0.41764 0.464972,0.41764 1.767886,1.68877 0.776975,0.70623 1.486691,1.39409 1.480418,1.36343 1.651794,1.58434 4.930705,4.63046 3.82977,3.57421 0.9727,0.89051 0.27532,0.26403 2.47145,2.34597 0.11013,0.0737 0.93603,0.86598 1.92096,1.81771 0.94209,0.8966 0.50177,0.44224 1.84131,1.73786 0.26916,0.23347 0.0795,0.0797 0.31806,0.31929 0.5444,0.49755 1.4071,1.31424 0.39161,0.36844 0.35475,0.34385 1.16852,1.07478 0.31807,0.31931 0.11618,0.10443 0.85052,0.75547 0.11623,0.10442 0.15294,0.12897 -0.0226,-4.45556 c 0.10254,0.005 0.27318,-0.0244 0.37382,-0.0432 0.62137,-0.18571 1.2634,-0.26449 1.90069,-0.37632 0.7788,-0.2068 1.54041,-0.44599 2.3361,-0.58997 0.208,-0.0297 0.53655,-0.17442 0.84622,-0.23117 0.30971,-0.0562 0.61348,-0.0403 0.74116,0.20363 0.0179,0.1955 -0.0839,0.51804 -0.0996,0.78425 -0.0158,0.26621 0.0633,0.47717 0.34847,0.47264 0.4596,-0.34567 0.64049,-0.91688 1.00766,-1.34638 0.43017,0.0879 0.85857,0.40067 1.29209,0.57235 0.24116,0.15081 0.5485,0.21604 0.83308,0.18551 0.28454,-0.031 0.55718,-0.12781 0.76669,-0.31104 0.18981,-0.26461 0.0361,-0.44447 -0.15211,-0.607 -0.18811,-0.16267 -0.41015,-0.31885 -0.42788,-0.55244 -0.0224,-0.27527 0.10021,-0.51019 0.27709,-0.69198 0.17685,-0.18194 0.39241,-0.31635 0.61976,-0.40951 0.27139,-0.17135 0.5389,-0.12758 0.73537,0.0138 0.19658,0.14121 0.3383,0.36587 0.40947,0.61969 0.27946,0.27361 0.69878,0.38242 1.08986,0.51695 l -0.006,-0.34942 1.90635,-0.1861 0.53806,0.62611 0.39857,-0.0789 0.41154,-0.4957 2.62326,-0.10475 -0.10252,2.37769 0.6115,0.67529 1.30635,-0.4816 0.0628,-0.80888 1.69189,-0.14367 3.04811,2.0405 -0.15257,-0.28833 -0.11629,-0.10442 -0.0794,-0.08 -0.0428,-0.0552 -0.0365,-0.0246 -0.0102,-0.0305 -3.4e-4,-0.15928 0.0124,-0.098 0.15358,-0.18966 0.24552,-0.20783 0.45378,-0.12171 0.15927,-3.4e-4 0.18415,-0.0356 0.26976,-0.0854 0.36179,-0.10349 0.0859,-0.0489 0.0917,-0.02 0.0798,-0.0794 0.043,-0.10405 0.2455,-0.20797 0.38063,-0.33017 0.10391,0.0429 0.14665,0.25762 0.10414,0.0431 0.20235,-0.10396 0.23955,-0.23846 0.4355,-0.21366 0.14115,-0.0917 0.288,0.006 0.12273,-0.0237 0.19002,-0.004 0.12865,0.007 0.54548,0.0195 0.098,0.0124 0.13477,0.0371 0.0101,0.0304 0.043,0.0552 -0.0124,0.0978 -0.0186,0.0673 0.0114,0.0615 -0.0123,0.0979 0.0114,0.0615 0.0429,0.0552 0.0366,0.0246 0.1287,0.007 0.0101,0.0303 0.2085,-0.0731 0.39282,-0.26902 0.12272,-0.0238 0.13478,0.0372 0.13438,0.19635 0.0917,0.14116 0.0615,-0.0114 0.42333,-0.27508 0.2274,-0.29986 0.0918,-0.02 0.18414,-0.0356 0.62489,0.0993 0.0673,0.0185 0.0613,-0.0114 0.23225,0.36821 0.0793,0.0799 0.51997,0.53419 0.10416,0.0431 0.098,0.0123 0.47684,0.63835 0.0733,0.20844 -0.0429,0.10414 -0.15965,0.15902 -0.0123,0.0981 0.02,0.0918 0.0102,0.0304 0.79004,0.28954 0.2507,0.30075 0.0976,0.17191 0.055,0.11651 0.25095,0.14136 0.0674,0.0187 0.24499,0.11084 0.01,0.0303 0.0304,-0.0102 0.0304,-0.0101 0.0305,-0.01 0.0366,0.0244 0.46595,-0.0597 0.47835,-0.15842 0.34357,-0.19543 0.0305,-0.01 0.22057,-0.0126 0.0673,0.0186 0.20821,0.0861 0.0615,-0.0114 0.0738,-0.11013 0.16597,-0.28774 0.043,-0.10403 0.0309,-0.16537 -0.0312,-0.15318 0.025,-0.1961 0.17238,-0.41639 0.29528,-0.59999 0.0186,-0.0673 -0.0794,-0.0799 -0.0429,-0.0552 -0.10404,-0.0429 -0.0114,-0.0615 0.0372,-0.13476 0.0124,-0.098 0.22096,-0.17117 0.18993,-0.004 0.0859,-0.0488 0.2219,-0.64917 0.3077,-0.69805 0.12332,-0.34298 0.17812,-0.22642 0.28835,-0.15257 0.007,-0.12867 -0.0402,-1.33011 0.007,-0.12869 -0.041,-0.5333 -0.054,-0.5946 0.0199,-0.70468 -0.0237,-0.28205 -0.0144,-1.84474 -0.0402,-1.48938 -0.0237,-0.12272 -0.0169,-0.56991 -3.3e-4,-0.15937 -0.0842,-0.74786 -0.13412,-3.41391 -0.02,-0.0918 -0.0418,-0.85199 -0.0101,-0.0304 -0.0173,-0.72935 -0.11609,-3.32191 -0.0127,-0.22069 0.006,-0.28797 -0.0114,-0.0616 -0.005,-0.66798 -0.0979,-3.23 -0.0468,-1.20131 -0.1055,-2.46392 -0.0114,-0.0615 -0.0431,-0.37381 -0.0105,-0.85808 -0.012,-0.37999 -0.0102,-0.69859 -0.0578,-1.74069 -0.0525,-1.39129 -0.0102,-0.0304 0.0189,-0.22675 -0.0102,-0.0304 -0.0757,-2.15128 -0.0464,-1.36072 -0.0362,-0.34328 -0.0408,-1.17062 -0.0118,-0.53925 -0.0291,-0.31282 -0.0176,-0.41058 0.0305,-0.0102 -0.012,-0.37997 -0.0102,-0.0304 -0.0102,-0.0304 -0.0763,-1.67334 0.0313,-0.32466 -0.12798,-3.38328 0.007,-0.6068 -0.0101,-0.0304 0.0126,-0.25737 0.0126,-0.25737 -0.0285,-1.26869 -0.043,-0.37384 -0.0354,-0.82129 -0.006,-0.34928 0.006,-0.44748 -0.0826,-1.70381 -0.0396,-1.6487 -0.15734,-4.17391 -0.0867,-2.85009 0.0132,-0.41665 -0.14583,-3.95324 -0.11101,-2.65392 -0.022,-1.23807 0.007,-0.12871 -0.0417,-0.69259 -0.0741,-2.94808 -0.0648,-1.4525 0.0135,-0.57618 -0.12811,-3.54261 0.0246,-0.0365 -0.0114,-0.0615 -0.13427,-3.57325 -0.25201,-9.15665 -0.1627,-4.68258 0.0186,-0.0673 -0.0775,-1.19524 -0.18474,-5.92069 -0.0102,-0.0304 0.007,-0.12869 -0.0169,-0.57003 -3.4e-4,-0.15936 -0.0176,-0.2513 -0.0237,-0.28195 0.001,-0.47805 -0.0463,-1.36067 -0.0108,-1.01736 -0.0694,-2.12059 -0.024,-0.44138 -3.3e-4,-0.15928 -0.0229,-0.75999 -0.0472,-0.88262 -0.0159,-1.048 0.007,-0.12871 -0.0101,-0.0304 -0.0176,-0.2513 -0.02,-0.0917 z"
       id="NV-04"
       style="font-style:normal;font-weight:400;font-size:34.375px;font-family:'MS Shell Dlg 2';opacity:1;fill:none;fill-opacity:1;fill-rule:evenodd;stroke:#000000;stroke-width:0.33333385;stroke-linecap:square;stroke-linejoin:bevel;stroke-miterlimit:4;stroke-dasharray:none;stroke-opacity:1" />
  </g>
</svg>
