<?xml version="1.0" encoding="UTF-8" standalone="no"?>
<!-- Created with Inkscape (http://www.inkscape.org/) -->

<svg
   xmlns:dc="http://purl.org/dc/elements/1.1/"
   xmlns:cc="http://creativecommons.org/ns#"
   xmlns:rdf="http://www.w3.org/1999/02/22-rdf-syntax-ns#"
   xmlns:svg="http://www.w3.org/2000/svg"
   xmlns="http://www.w3.org/2000/svg"
   xmlns:sodipodi="http://sodipodi.sourceforge.net/DTD/sodipodi-0.dtd"
   xmlns:inkscape="http://www.inkscape.org/namespaces/inkscape"
   width="54.21064mm"
   height="26.187025mm"
   viewBox="0 0 192.08495 92.788677"
   id="svg12983"
   version="1.1"
   inkscape:version="0.91 r"
   sodipodi:docname="2.svg">
  <defs
     id="defs12985" />
  <sodipodi:namedview
     id="base"
     pagecolor="#ffffff"
     bordercolor="#666666"
     borderopacity="1.0"
     inkscape:pageopacity="0.0"
     inkscape:pageshadow="2"
     inkscape:zoom="4.028435"
     inkscape:cx="107.72583"
     inkscape:cy="80.44962"
     inkscape:document-units="px"
     inkscape:current-layer="layer1"
     showgrid="false"
     fit-margin-top="1"
     fit-margin-left="1"
     fit-margin-right="0"
     fit-margin-bottom="1"
     inkscape:window-width="2560"
     inkscape:window-height="1388"
     inkscape:window-x="0"
     inkscape:window-y="0"
     inkscape:window-maximized="1" />
  <metadata
     id="metadata12988">
    <rdf:RDF>
      <cc:Work
         rdf:about="">
        <dc:format>image/svg+xml</dc:format>
        <dc:type
           rdf:resource="http://purl.org/dc/dcmitype/StillImage" />
        <dc:title></dc:title>
      </cc:Work>
    </rdf:RDF>
  </metadata>
  <g
     inkscape:label="Layer 1"
     inkscape:groupmode="layer"
     id="layer1"
     transform="translate(-213.27708,-583.10184)">
    <path
       inkscape:connector-curvature="0"
       d="m 378.85251,605.05854 -9.8061,0.45241 0.24835,5.27776 -21.14098,1.05663 0.74579,15.8644 2.65361,-0.17134 0.18879,3.65346 2.21737,-0.10111 0.10166,2.24857 c -0.87458,0.255 -1.66604,0.80309 -2.44214,1.54285 -0.77611,0.73966 -1.5202,1.68089 -2.23405,2.72681 l 0.15486,3.49783 9.77535,-0.42067 0.48272,9.74307 9.71176,-0.48197 0.17931,4.90382 25.16633,-1.43943 -5.5e-4,-0.0312 -0.15628,0.003 -0.18856,-0.0593 -0.0949,-0.0607 -0.0948,-0.061 -0.0636,-0.0613 -0.002,-0.0938 -0.002,-0.0938 0.0598,-0.15727 0.0302,-0.063 -0.002,-0.0937 -10e-4,-0.0626 -0.0329,-0.0931 -0.16063,-0.24723 -0.0975,-0.21703 0.0291,-0.12553 0.091,-0.15791 0.0614,-0.0636 0.15454,-0.0965 0.0916,-0.12661 0.0608,-0.0948 0.0297,-0.0942 -5.4e-4,-0.0313 -5.5e-4,-0.0313 -5.4e-4,-0.0312 -5.5e-4,-0.0312 -0.0324,-0.062 -5.4e-4,-0.0312 -0.0318,-0.0307 -0.0317,-0.0308 -0.12662,-0.0915 -0.15781,-0.0911 -0.0318,-0.0306 -0.0641,-0.0927 -0.0328,-0.0932 -0.003,-0.18737 -0.0329,-0.0932 -0.002,-0.0938 -5.5e-4,-0.0312 -0.0318,-0.0306 -10e-4,-0.0626 -0.0317,-0.0307 -0.0312,5.4e-4 -0.0329,-0.0932 -0.1277,-0.15399 -0.0318,-0.0306 -0.0317,-0.0308 -0.0318,-0.0308 -0.0949,-0.0608 -0.12662,-0.0916 -0.0312,5.4e-4 -0.15738,-0.0598 -0.21867,0.004 -0.15682,-0.0286 -0.0313,5.5e-4 -5.5e-4,-0.0312 -0.15727,-0.0598 -0.0312,5.4e-4 -0.0949,-0.0609 -0.0317,-0.0306 -0.0318,-0.0308 -0.0948,-0.0609 -0.0324,-0.0619 -5.5e-4,-0.0313 -0.0313,5.5e-4 -5.5e-4,-0.0312 -5.4e-4,-0.0312 -0.0345,-0.18704 -0.0328,-0.0931 -5.5e-4,-0.0313 -0.0642,-0.0926 -0.0646,-0.12389 -5.4e-4,-0.0313 -0.12662,-0.0915 -5.5e-4,-0.0313 -0.0626,10e-4 -0.0317,-0.0306 -0.12552,-0.029 -0.0317,-0.0308 -0.12607,-0.0603 -0.0313,5.5e-4 -0.12607,-0.0603 -0.0641,-0.0926 -0.0992,-0.31092 -0.002,-0.12498 0.0599,-0.15727 0.0279,-0.18801 0.0916,-0.12662 -5.4e-4,-0.0313 0.0312,-5.4e-4 0.0609,-0.0948 0.0307,-0.0318 0.0307,-0.0317 0.0306,-0.0317 0.0932,-0.0329 0.0306,-0.0318 0.0308,-0.0317 0.0931,-0.0328 0.062,-0.0324 0.0306,-0.0318 0.0312,-5.5e-4 0.0615,-0.0635 0.0312,-5.4e-4 0.0306,-0.0318 0.0308,-0.0318 -5.4e-4,-0.0312 0.0313,-5.5e-4 0.092,-0.0954 0.0302,-0.0629 0.0301,-0.0631 0.029,-0.12552 -5.4e-4,-0.0312 -0.0328,-0.0932 -0.0328,-0.0931 -0.19357,-0.34037 -0.0345,-0.18703 -5.5e-4,-0.0312 -0.002,-0.0938 -5.4e-4,-0.0312 -10e-4,-0.0625 0.12116,-0.22085 -0.003,-0.15627 -0.002,-0.0937 -5.5e-4,-0.0313 -10e-4,-0.0625 -0.0976,-0.21713 -0.16,-0.21594 -0.0334,-0.12444 -5.5e-4,-0.0313 -5.4e-4,-0.0312 -5.5e-4,-0.0312 0.0301,-0.0631 -10e-4,-0.0624 0.0609,-0.0949 0.0308,-0.0317 0.0306,-0.0318 0.0312,-5.4e-4 -5.4e-4,-0.0313 0.0313,-5.5e-4 0.27963,-0.0986 0.0312,-5.5e-4 0.0614,-0.0636 0.0308,-0.0317 0.0306,-0.0318 0.0306,-0.0318 0.0308,-0.0317 -5.4e-4,-0.0312 0.0302,-0.0631 0.0301,-0.0629 0.029,-0.12552 -0.0328,-0.0932 -5.5e-4,-0.0312 -0.0323,-0.062 -0.0329,-0.0931 -0.0318,-0.0308 -0.0317,-0.0306 -0.0641,-0.0927 -0.28507,-0.21376 -0.0323,-0.0619 -0.096,-0.12335 -0.0323,-0.0619 -0.0323,-0.0619 -0.034,-0.15563 -0.004,-0.21876 0.0258,-0.313 0.0899,-0.2203 0.0598,-0.15737 -0.004,-0.21867 -0.002,-0.0938 -0.0328,-0.0933 -0.0318,-0.0306 -0.0324,-0.0619 -0.0312,5.5e-4 -0.0317,-0.0308 -0.0324,-0.0619 -0.0313,5.5e-4 -0.0317,-0.0308 -5.5e-4,-0.0313 -0.0312,5.5e-4 -0.0631,-0.0301 -0.0942,-0.0296 -0.0942,-0.0297 -0.0631,-0.0302 -0.0629,-0.0301 -0.0318,-0.0306 -0.0318,-0.0308 -0.0312,5.4e-4 -0.0317,-0.0308 -0.0318,-0.0306 -5.4e-4,-0.0312 -0.0318,-0.0308 -0.0312,5.4e-4 -0.0334,-0.12444 -0.002,-0.0937 -0.002,-0.0938 0.0597,-0.15726 0.12117,-0.22095 -0.003,-0.15618 -0.0334,-0.12443 -0.0323,-0.062 -10e-4,-0.0624 -0.1903,-0.153 -0.0953,-0.092 -0.12662,-0.0916 -0.0647,-0.12389 -0.001,-0.0625 -5.5e-4,-0.0313 -5.4e-4,-0.0312 -0.002,-0.0938 0.0306,-0.0317 0.0297,-0.0943 0.092,-0.0953 0.0615,-0.0636 0.0306,-0.0317 0.0603,-0.12607 0.0313,-5.5e-4 -5.4e-4,-0.0313 -5.5e-4,-0.0313 -5.4e-4,-0.0312 0.0301,-0.063 -10e-4,-0.0625 -0.0339,-0.15563 -0.0664,-0.21767 -0.0394,-0.46819 -0.0658,-0.18628 -0.22521,-0.37112 -0.0965,-0.15464 -0.0345,-0.18693 -0.002,-0.12498 0.029,-0.12553 0.0911,-0.15781 0.0921,-0.0954 0.0313,-5.5e-4 -5.4e-4,-0.0312 0.0312,-5.5e-4 0.0312,-5.4e-4 0.0631,0.0301 0.25106,0.0581 0.15563,-0.034 0.0911,-0.15782 -0.002,-0.0938 -0.0318,-0.0306 -0.0335,-0.12444 -0.15835,-0.12225 -0.12608,-0.0603 -0.18747,0.003 -0.15573,0.034 -0.7789,0.13861 -0.12552,-0.0291 -0.063,-0.0302 -0.0318,-0.0307 -0.0953,-0.0921 -0.0324,-0.0618 -1.87362,0.0951 1.03475,1.98225 -0.81228,0.0142 0.24976,1.77722 c -0.65354,-0.0366 -1.28678,0.10407 -1.9011,0.31452 -0.50234,0.11139 -0.84313,0.46429 -1.17304,0.833 -0.33002,0.36882 -0.65721,0.75589 -1.14086,0.89505 -0.44455,-0.28008 -0.85417,-0.7017 -1.44982,-0.6935 -0.37027,-0.0638 -0.76856,-0.23723 -1.07106,-0.48138 -0.30251,-0.24416 -0.51264,-0.57044 -0.51738,-0.99113 -0.0442,-0.33367 0.11927,-0.62127 0.26544,-0.91107 0.14607,-0.28969 0.28199,-0.57041 0.17156,-0.90933 -0.0489,-0.61874 -0.66145,-0.9594 -0.839,-1.51679 -0.146,-0.59424 -0.0548,-1.21533 -0.21921,-1.80905 0.026,-0.3412 -0.10174,-0.56871 -0.29425,-0.74498 -0.1925,-0.17616 -0.43567,-0.30394 -0.69503,-0.42533 -0.27747,-0.15678 -0.27619,-0.41554 -0.26196,-0.68313 0.0142,-0.26749 0.0221,-0.53997 -0.23121,-0.71478 -0.32166,-0.006 -0.50271,-0.30007 -0.66656,-0.58215 -0.16385,-0.28219 -0.29386,-0.55126 -0.53994,-0.49065 l 11.33661,-0.51053 -5.4e-4,-0.0312 0.0296,-0.0943 0.0889,-0.28279 0.0285,-0.15672 -0.0328,-0.0932 -0.0334,-0.12444 -0.0324,-0.0619 -0.001,-0.0625 -0.003,-0.15617 -10e-4,-0.0626 0.0302,-0.0629 0.12225,-0.15846 0.0296,-0.0942 0.0301,-0.0631 0.0297,-0.0942 -0.0329,-0.0931 -0.0334,-0.12444 -0.0954,-0.0922 -0.15836,-0.12225 -0.063,-0.0301 -0.0625,10e-4 -0.0312,5.5e-4 -0.0313,5.4e-4 -0.0937,0.002 -0.21713,0.0975 -0.0938,0.002 -0.0937,0.002 -0.15791,-0.091 -0.0629,-0.0302 -0.15682,-0.0286 -0.15682,-0.0285 -0.3129,-0.0258 -0.0631,-0.0302 -0.0312,5.5e-4 -0.0323,-0.062 -0.096,-0.12334 -0.0317,-0.0307 -0.0648,-0.12388 -0.0323,-0.062 0.0306,-0.0317 0.0609,-0.0949 0.15345,-0.1589 0.1842,-0.19074 0.0609,-0.0948 0.0301,-0.0631 0.0302,-0.0629 -0.001,-0.0626 -0.0329,-0.0931 -0.0339,-0.15573 -10e-4,-0.0624 -0.13153,-0.37277 -0.0323,-0.062 -0.0949,-0.0608 -0.0949,-0.061 -0.15617,0.003 -0.0625,10e-4 -0.0614,0.0637 -0.0922,0.0953 5.4e-4,0.0313 -0.0564,0.34473 -0.0242,0.40679 -0.0603,0.12607 -0.0306,0.0317 5.4e-4,0.0312 -0.0313,5.4e-4 -0.0625,10e-4 -0.0625,10e-4 -0.0625,0.001 -0.0317,-0.0307 -0.0626,10e-4 -5.4e-4,-0.0312 -0.0312,5.5e-4 -0.0317,-0.0308 -0.0318,-0.0307 -0.12716,-0.1228 -0.0313,5.4e-4 -5.4e-4,-0.0312 -0.0635,-0.0614 -0.0313,5.4e-4 -5.4e-4,-0.0313 -0.0953,-0.0921 -0.0319,-0.0308 -0.0313,5.4e-4 -0.0948,-0.0607 -0.18856,-0.0593 -0.0317,-0.0307 -0.0976,-0.21713 -0.0658,-0.18628 -0.002,-0.12498 0.0291,-0.12553 0.0296,-0.0943 0.0301,-0.063 0.0609,-0.0948 0.0608,-0.0949 0.0604,-0.12607 0.0301,-0.063 -0.002,-0.0937 -0.0328,-0.0932 -0.0324,-0.0619 -0.0641,-0.0926 -0.063,-0.0302 -0.2829,-0.0888 -0.0635,-0.0615 -0.0949,-0.0608 -0.0317,-0.0308 -0.0965,-0.15464 -5.4e-4,-0.0312 -0.0323,-0.062 -0.0642,-0.0926 -0.002,-0.0938 -0.002,-0.12498 0.0291,-0.12553 0.0302,-0.063 0.27516,-0.34856 0.0603,-0.12607 0.0275,-0.21931 -0.002,-0.0938 -5.4e-4,-0.0312 -0.0318,-0.0307 -5.5e-4,-0.0313 -0.0335,-0.12443 -0.0635,-0.0614 -0.22204,-0.18366 -0.0312,5.5e-4 -0.0642,-0.0926 -0.0948,-0.061 -0.0329,-0.0931 -0.0339,-0.15573 -0.003,-0.15618 -5.4e-4,-0.0312 0.0306,-0.0318 0.0297,-0.0942 0.0921,-0.0954 0.0313,-5.4e-4 0.0308,-0.0317 0.0926,-0.0642 0.31354,0.0571 0.15563,-0.034 0.0932,-0.0329 0.0614,-0.0635 0.0609,-0.0949 -10e-4,-0.0625 -0.001,-0.0625 -0.0317,-0.0307 -0.0329,-0.0932 -0.0959,-0.12334 -0.18921,-0.0905 -0.12607,-0.0602 -0.18901,-0.0905 -0.0954,-0.0922 -0.002,-0.0937 -0.002,-0.0937 0.0285,-0.15682 0.0297,-0.0942 0.0926,-0.0642 0.0313,-5.4e-4 0.0307,-0.0317 0.0624,-10e-4 0.15464,-0.0965 0.091,-0.15781 0.0297,-0.0943 -0.0362,-0.28061 -0.003,-0.15618 -5.5e-4,-0.0313 0.0916,-0.12662 0.12171,-0.18965 0.0312,-5.5e-4 -5.4e-4,-0.0312 0.0302,-0.0631 -5.4e-4,-0.0312 -0.0324,-0.062 -0.0334,-0.12443 -0.0641,-0.0926 -0.0318,-0.0308 -0.0953,-0.092 -0.12552,-0.0291 -0.28235,-0.0576 -0.0942,-0.0296 -0.0953,-0.0921 -0.0313,5.4e-4 -0.0636,-0.0614 -5.5e-4,-0.0313 -5.4e-4,-0.0312 -0.063,-0.0301 -5.4e-4,-0.0313 -0.0329,-0.0931 -5.5e-4,-0.0313 -5.5e-4,-0.0313 -5.4e-4,-0.0312 0.0269,-0.25051 0.0308,-0.0317 -0.0335,-0.12444 -0.0329,-0.0932 -0.0953,-0.0921 -5.4e-4,-0.0312 -0.0636,-0.0614 -0.0312,5.4e-4 -0.12662,-0.0915 -0.12607,-0.0604 -0.0626,10e-4 -0.0323,-0.0618 -0.0949,-0.061 -0.0635,-0.0613 -0.0318,-0.0308 -0.0318,-0.0308 -5.4e-4,-0.0312 -0.0328,-0.0932 -0.0323,-0.0618 -0.0351,-0.21822 -0.0324,-0.0619 -0.0646,-0.1239 -0.12716,-0.1228 -0.0318,-0.0307 -5.5e-4,-0.0312 -0.0641,-0.0927 -0.001,-0.0624 -5.5e-4,-0.0313 -5.5e-4,-0.0313 -5.4e-4,-0.0312 0.0301,-0.063 0.0313,-5.4e-4 0.0614,-0.0636 0.24832,-0.0982 0.0614,-0.0635 0.0609,-0.0949 0.0296,-0.0943 -0.0317,-0.0306 -5.5e-4,-0.0312 -5.4e-4,-0.0313 -0.0317,-0.0308 -0.12935,-0.24778 -0.0335,-0.12444 -10e-4,-0.0624 0.0302,-0.0631 0.1228,-0.12717 0.0301,-0.0629 0.0296,-0.0943 0.0297,-0.0943 0.0286,-0.15673 -0.002,-0.12498 -0.001,-0.0625 -0.0642,-0.0926 -0.0629,-0.0302 -0.12607,-0.0603 -0.0313,5.5e-4 -0.25051,-0.0268 -0.0625,10e-4 -0.0625,0.001 -0.15573,0.0339 -0.12335,0.096 -0.0312,5.4e-4 -0.0312,5.5e-4 -0.0313,5.4e-4 -0.12498,0.002 -0.0318,-0.0307 -0.0312,5.4e-4 -0.0636,-0.0614 -0.0324,-0.0619 -0.0323,-0.0619 0.0301,-0.063 0.0302,-0.063 0.0904,-0.18911 -10e-4,-0.0625 -0.001,-0.0625 -10e-4,-0.0625 -0.0953,-0.0922 -0.12661,-0.0915 -0.24996,0.004 -0.18584,0.097 -0.0609,0.0949 -0.0291,0.12552 -0.0306,0.0317 5.5e-4,0.0313 -0.0307,0.0318 -0.062,0.0323 -0.0624,10e-4 -0.0313,5.5e-4 -0.0942,-0.0296 -0.0313,5.5e-4 -0.0636,-0.0615 -5.4e-4,-0.0312 -0.0312,5.5e-4 -0.0318,-0.0307 -5.5e-4,-0.0313 -5.4e-4,-0.0313 -0.002,-0.12498 0.0598,-0.15727 0.0312,-5.5e-4 0.1843,-0.19074 0.0921,-0.0953 -5.5e-4,-0.0313 0.0302,-0.063 -0.002,-0.12499 -0.0642,-0.0927 -0.0317,-0.0307 -0.0317,-0.0307 -0.12662,-0.0916 -0.12553,-0.029 -0.15682,-0.0286 -0.18584,0.097 -0.0306,0.0318 -0.0943,-0.0297 -0.0312,5.5e-4 -0.0313,5.5e-4 -0.0953,-0.0921 -0.0637,-0.0614 -0.0323,-0.0619 -0.0647,-0.12389 -0.0669,-0.24887 -0.0345,-0.18693 -0.0329,-0.0932 -0.002,-0.0937 0.0592,-0.18856 -10e-4,-0.0625 0.0306,-0.0318 -5.5e-4,-0.0312 0.0308,-0.0317 0.0302,-0.0631 0.0586,-0.21975 0.028,-0.18802 -5.4e-4,-0.0312 -0.0346,-0.18702 -0.0328,-0.0931 -0.0317,-0.0308 -0.0329,-0.0931 -0.0948,-0.0609 -0.0637,-0.0614 -0.15727,-0.0598 -0.28224,-0.0576 -0.0313,5.4e-4 -0.12553,-0.0291 -5.4e-4,-0.0312 -0.0942,-0.0296 -0.0648,-0.12389 -0.0657,-0.18648 -0.0642,-0.0926 -0.12662,-0.0915 -0.0317,-0.0308 -0.0949,-0.0609 -0.15781,-0.0911 -0.0954,-0.092 -0.0312,5.5e-4 -0.0965,-0.15464 -0.0334,-0.12444 -0.0317,-0.0306 -5.4e-4,-0.0312 -0.002,-0.0938 -5.4e-4,-0.0312 -0.002,-0.0938 0.0597,-0.15727 -0.0323,-0.062 -5.5e-4,-0.0312 -0.001,-0.0625 -5.5e-4,-0.0313 -10e-4,-0.0624 -0.0312,5.4e-4 -5.5e-4,-0.0313 -5.4e-4,-0.0313 -0.0318,-0.0307 -5.5e-4,-0.0312 -0.0318,-0.0308 -0.15945,-0.18475 -0.0323,-0.0619 0.029,-0.12553 0.0312,-5.4e-4 -5.5e-4,-0.0313 0.24887,-0.0667 0.0313,-5.5e-4 0.0931,-0.0329 0.062,-0.0324 0.0613,-0.0635 0.0308,-0.0318 0.15246,-0.22139 -5.5e-4,-0.0313 -0.001,-0.0625 -0.0637,-0.0614 -5.4e-4,-0.0313 -0.0953,-0.092 -5.5e-4,-0.0313 0.0313,-5.4e-4 -10e-4,-0.0624 -0.003,-0.18758 -0.0335,-0.12443 -0.0335,-0.12444 -0.12771,-0.15399 -0.12662,-0.0916 -0.22139,-0.15236 z"
       id="NE-01"
       style="font-style:normal;font-weight:400;font-size:34.375px;font-family:'MS Shell Dlg 2';opacity:1;fill:none;fill-opacity:1;fill-rule:evenodd;stroke:#000000;stroke-width:0.333;stroke-linecap:square;stroke-linejoin:bevel;stroke-miterlimit:4;stroke-dasharray:none;stroke-opacity:1" />
    <path
       inkscape:connector-curvature="0"
       d="m 389.08946,629.28977 -11.33661,0.51053 c 0.24608,-0.0606 0.37609,0.20846 0.53994,0.49065 0.16385,0.28208 0.3449,0.57577 0.66656,0.58215 0.25329,0.17481 0.24545,0.44729 0.23121,0.71478 -0.0142,0.26759 -0.0155,0.52635 0.26196,0.68313 0.25936,0.12139 0.50253,0.24917 0.69503,0.42533 0.19251,0.17627 0.3203,0.40378 0.29425,0.74498 0.16439,0.59372 0.0732,1.21481 0.21921,1.80905 0.17755,0.55739 0.79009,0.89805 0.839,1.51679 0.11043,0.33892 -0.0255,0.61964 -0.17156,0.90933 -0.14617,0.2898 -0.30967,0.5774 -0.26544,0.91107 0.004,0.42069 0.21487,0.74697 0.51738,0.99113 0.3025,0.24415 0.70079,0.41763 1.07106,0.48138 0.59564,-0.008 1.00527,0.41342 1.44982,0.6935 0.48365,-0.13916 0.81084,-0.52623 1.14086,-0.89505 0.32991,-0.36871 0.6707,-0.72161 1.17304,-0.833 0.61432,-0.21045 1.24756,-0.35112 1.9011,-0.31452 l -0.24976,-1.77722 0.81228,-0.0142 -1.03475,-1.98225 1.87362,-0.0951 -0.0323,-0.062 -0.0345,-0.18682 0.0268,-0.25051 0.0307,-0.0318 0.15082,-0.31518 0.0603,-0.12607 0.029,-0.12553 -0.001,-0.0625 -0.0328,-0.0931 -0.0652,-0.15518 -0.034,-0.15573 -0.0317,-0.0306 -0.0982,-0.24833 -5.4e-4,-0.0312 -0.0334,-0.12443 0.029,-0.12553 0.0313,-5.4e-4 -5.5e-4,-0.0313 0.0931,-0.0329 -0.0953,-0.092 -0.0953,-0.092 -0.0631,-0.0302 -0.0635,-0.0614 -0.0329,-0.0932 -0.003,-0.15618 -10e-4,-0.0625 0.0286,-0.15682 0.0926,-0.064 0.0619,-0.0324 0.31246,-0.005 0.0318,0.0308 10e-4,0.0624 0.002,0.0938 -0.0894,0.2516 -0.0598,0.15726 0.22139,0.15246 0.21659,-0.1288 0.18583,-0.097 0.1228,-0.12716 0.0603,-0.12607 0.0279,-0.18812 -0.0991,-0.31071 -0.0647,-0.12389 -0.12716,-0.1228 -0.12607,-0.0604 -0.21986,-0.0586 -0.28007,0.0673 -0.0312,5.5e-4 -0.15682,-0.0285 -0.0942,-0.0296 -0.0313,5.5e-4 -0.25269,-0.15191 -0.0953,-0.0921 -0.0949,-0.061 -0.12771,-0.15399 -0.0965,-0.15454 -0.002,-0.0938 0.0302,-0.063 0.0614,-0.0636 0.21659,-0.1288 0.12334,-0.096 0.0915,-0.12662 0.0286,-0.15672 -0.002,-0.12498 -0.16064,-0.24724 -0.0663,-0.21767 z"
       id="NE-02"
       style="font-style:normal;font-weight:400;font-size:34.375px;font-family:'MS Shell Dlg 2';opacity:1;fill:#000000;fill-opacity:1;fill-rule:evenodd;stroke:#000000;stroke-width:0.333;stroke-linecap:square;stroke-linejoin:bevel;stroke-miterlimit:4;stroke-dasharray:none;stroke-opacity:1" />
    <path
       inkscape:connector-curvature="0"
       d="m 218.63916,587.0707 -0.0925,3.65837 -0.0995,3.25223 0.002,0.12498 -0.0814,2.5018 0.005,0.31246 -0.0236,0.43798 0.002,0.0938 -0.0215,0.56286 5.4e-4,0.0313 -0.10228,3.09596 -0.1192,3.90897 -0.0209,0.59416 -0.055,2.2201 0.002,0.0938 0.004,0.21867 -0.0313,5.5e-4 -0.0544,2.25129 0.002,0.0937 -0.0171,0.81303 0.002,0.0937 -0.0269,0.25051 -0.017,0.81292 -0.0274,0.21931 0.007,0.37494 -0.0364,1.50087 0.003,0.15617 -0.0247,0.37549 5.4e-4,0.0312 0.002,0.0938 0.002,0.0938 5.4e-4,0.0312 0.002,0.12499 -0.0307,0.0317 0.006,0.34375 0.002,0.0938 -0.0654,1.62639 0.004,0.24996 -0.0208,0.59415 -0.0177,0.78173 -0.0478,0.84466 0.008,0.43744 0.001,0.0625 0.003,0.15627 -0.0621,1.81376 0.003,0.15628 -0.0449,1.00094 -0.0364,1.50086 0.003,0.18747 -0.0236,0.43798 0.004,0.24996 -0.0208,0.59416 -0.0177,0.78172 -0.0253,0.3442 0.005,0.31255 0.001,0.0624 -0.023,0.46927 0.003,0.18748 -0.077,2.75176 -0.0263,0.2818 0.007,0.40614 -0.0627,1.78256 0.004,0.24997 -0.029,0.12552 -0.0128,1.06299 5.5e-4,0.0312 -0.0302,0.063 -0.0566,2.12631 0.002,0.12498 -0.0187,0.71914 -0.0252,0.34429 -0.0412,1.2197 0.004,0.24997 -0.0237,0.43788 -0.0588,2.00133 5.4e-4,0.0313 0.008,0.43744 0.2818,0.0263 0.34365,-0.006 0.12498,-0.002 0.12553,0.0291 0.81292,0.0171 0.0312,-5.4e-4 0.37495,-0.007 1.00093,0.0449 0.24997,-0.004 0.37548,0.0248 0.40624,-0.007 2.03263,0.0582 0.28116,-0.005 3.75215,0.0908 0.84476,0.0478 0.78163,0.0176 0.24996,-0.004 1.37589,0.0386 0.53111,-0.009 0.31256,-0.005 0.34419,0.0252 0.0625,-10e-4 1.18841,0.0418 4.87698,0.0712 0.0313,-5.5e-4 0.34365,-0.006 0.0625,-10e-4 0.2817,0.0263 0.12498,-0.002 0.78173,0.0176 0.0313,-5.5e-4 0.37549,0.0248 0.0312,-5.4e-4 0.37494,-0.007 0.0312,-5.4e-4 0.0313,-5.5e-4 0.34365,-0.006 0.0313,-5.5e-4 0.37549,0.0247 0.0313,-5.5e-4 0.37494,-0.007 0.0312,-5.5e-4 0.37495,-0.007 0.0317,0.0306 0.37494,-0.007 0.0313,-5.5e-4 0.37494,-0.007 0.063,0.0301 0.34375,-0.006 0.0624,-10e-4 1.12538,0.0117 0.15627,-0.003 0.24996,-0.004 0.313,0.0258 0.0938,-0.002 1.75082,0.0319 0.6873,-0.012 0.9067,0.0155 0.0625,-10e-4 0.21931,0.0275 0.18737,-0.003 0.84367,-0.0147 0.62545,0.0203 0.37494,-0.007 0.0312,-5.5e-4 0.18757,-0.003 1.53206,0.0358 0.15617,-0.003 0.0313,-5.5e-4 0.31245,-0.005 1.53206,0.0358 0.0313,-5.5e-4 0.28126,-0.005 0.12498,-0.002 0.0937,-0.002 0.18747,-0.003 0.59425,0.0208 0.40614,-0.007 0.0625,-10e-4 0.0313,-5.4e-4 0.34364,-0.006 1.43838,0.0375 1.15603,-0.0202 0.37549,0.0247 -0.0324,7.09545 -0.006,1.46903 -0.0371,3.25114 -0.009,1.25036 0.008,0.46863 -0.0228,2.28204 -0.01,1.21906 0.0328,0.0932 -0.0466,0.90715 0.005,0.28126 5.5e-4,0.0313 0.005,0.31236 -0.0119,2.90695 0.003,0.15627 -0.0297,1.87581 0.007,0.40613 -0.0217,2.34454 -6.6e-4,1.75028 2.93815,0.0111 0.24996,-0.004 0.90671,0.0155 0.46862,-0.008 0.18748,-0.003 0.40668,0.0242 0.12498,-0.002 0.0626,-10e-4 0.46863,-0.008 0.75043,0.0181 2.62515,-0.0146 0.0313,-5.4e-4 1.00039,0.0138 0.78163,0.0177 0.24996,-0.004 2.06273,-0.005 0.40624,-0.007 0.12498,-0.002 0.0312,-5.5e-4 0.49992,-0.009 0.28116,-0.005 0.65674,0.0197 0.43744,-0.008 0.62545,0.0204 0.18747,-0.003 0.81238,-0.0142 0.71869,-0.0126 0.0937,-0.002 0.40624,-0.007 0.0942,0.0297 0.18747,-0.003 0.21877,-0.004 0.81228,-0.0142 0.56251,-0.01 0.15618,-0.003 0.81292,0.017 0.71859,-0.0125 0.90671,0.0154 0.49992,-0.009 0.53122,-0.009 1.43718,-0.0251 2.31279,-0.009 0.12498,-0.002 0.12499,-0.002 0.31235,-0.005 0.0938,-0.002 0.0938,-0.002 0.18737,-0.003 0.81248,-0.0142 0.50047,0.0226 0.31235,-0.005 0.40624,-0.007 0.56241,-0.01 0.12498,-0.002 0.59426,0.0208 0.34364,-0.006 0.40624,-0.007 0.40614,-0.007 0.0625,-10e-4 0.53122,-0.009 0.21867,-0.004 0.0313,-5.4e-4 0.15618,-0.003 0.43743,-0.008 0.18747,-0.003 0.40614,-0.007 0.37494,-0.007 0.28126,-0.005 1.81223,-0.0316 0.34374,-0.006 1.28155,0.009 0.0312,-5.4e-4 0.31255,-0.005 0.37494,-0.007 0.0937,-0.002 0.0625,-10e-4 0.0625,-10e-4 0.21867,-0.004 2.09348,-0.0365 1.9372,-0.0338 0.0937,-0.002 0.84367,-0.0147 0.0625,-10e-4 0.31245,-0.005 0.49993,-0.009 1.15602,-0.0202 0.0938,-0.002 0.78108,-0.0136 0.81247,-0.0142 0.0937,-0.002 0.15628,-0.003 0.15617,-0.003 0.21822,-0.035 0.12498,-0.002 0.0937,-0.002 0.0937,-0.002 0.28125,-0.005 1.9684,-0.0344 0.0626,-10e-4 2.34335,-0.0409 0.0313,-5.5e-4 0.31235,-0.005 0.0626,-10e-4 0.12499,-0.002 0.28115,-0.005 1.21807,-0.0525 0.21867,-0.004 0.18747,-0.003 0.0312,-5.4e-4 0.78118,-0.0136 1.6242,-0.0597 0.0313,-5.5e-4 0.0937,-0.002 0.0625,-10e-4 0.62491,-0.0109 0.0938,-0.002 0.71859,-0.0125 0.40623,-0.007 0.18738,-0.003 0.0626,-10e-4 0.15617,-0.003 0.21877,-0.004 0.9993,-0.0488 0.21867,-0.004 0.59361,-0.0104 0.40623,-0.007 0.99985,-0.0175 0.0313,-5.5e-4 0.56177,-0.041 0.43753,-0.008 0.0312,-5.4e-4 0.21876,-0.004 0.15618,-0.003 0.0312,-5.4e-4 0.37495,-0.007 1.99915,-0.0661 0.18757,-0.003 0.28116,-0.005 0.93681,-0.0476 0.0625,-10e-4 0.99985,-0.0175 0.0312,-5.4e-4 0.37494,-0.007 0.34375,-0.006 0.0619,-0.0324 0.37494,-0.007 0.0937,-0.002 0.34375,-0.006 0.0312,-5.5e-4 0.24996,-0.004 0.53067,-0.0405 0.0625,-10e-4 0.43744,-0.008 0.37494,-0.007 0.31245,-0.005 0.37495,-0.007 0.43743,-0.008 0.0937,-0.002 0.24942,-0.0356 0.0313,-5.4e-4 0.0313,-5.5e-4 0.0624,-10e-4 0.24997,-0.004 1.03114,-0.018 0.37439,-0.0378 0.7186,-0.0125 2.56111,-0.10722 0.0937,-0.002 0.40624,-0.007 0.81227,-0.0142 0.4057,-0.0383 0.31246,-0.005 0.15618,-0.003 0.34374,-0.006 0.31191,-0.0367 0.90616,-0.0158 0.28116,-0.005 0.21877,-0.004 0.18682,-0.0346 0.40624,-0.007 0.0313,-5.4e-4 0.0937,-0.002 0.62436,-0.0421 0.0937,-0.002 0.84367,-0.0147 0.87432,-0.0465 1.18732,-0.0207 0.40569,-0.0384 0.40614,-0.007 0.3744,-0.0378 0.0312,-5.4e-4 0.90616,-0.0158 0.15628,-0.003 0.0312,-5.4e-4 0.0312,-5.5e-4 0.0626,-10e-4 1.09299,-0.0503 0.15628,-0.003 0.12498,-0.002 0.65555,-0.0427 1.0305,-0.0493 0.18757,-0.003 0.40614,-0.007 0.0307,-0.0318 0.74988,-0.0131 0.0313,-5.5e-4 0.90562,-0.047 0.0937,-0.002 0.0313,-5.4e-4 0.21866,-0.004 0.0937,-0.002 0.15573,-0.0339 0.15628,-0.003 0.40613,-0.007 0.40614,-0.007 0.40569,-0.0384 0.15628,-0.003 0.0312,-5.4e-4 1.03049,-0.0493 0.3744,-0.0377 0.0313,-5.4e-4 2.03044,-0.0666 0.24942,-0.0357 5.4e-4,0.0313 0.90552,-0.0471 0.0625,-10e-4 0.3744,-0.0378 0.37494,-0.007 0.15628,-0.003 0.28061,-0.0361 0.0625,-10e-4 0.0937,-0.002 1.90491,-0.0958 0.40624,-0.007 0.0312,-5.4e-4 0.43688,-0.0389 1.96732,-0.0967 0.0313,-5.5e-4 0.78064,-0.0449 0.0312,-5.4e-4 0.0938,-0.002 0.12498,-0.002 1.3737,-0.0865 0.0624,-10e-4 2.34235,-0.10339 0.0932,-0.0329 1.43664,-0.0563 0.28125,-0.005 0.0931,-0.0328 0.49993,-0.009 0.0313,-5.5e-4 0.0937,-0.002 0.12443,-0.0335 0.28126,-0.005 0.40624,-0.007 0.24942,-0.0357 1.24926,-0.053 0.0624,-10e-4 0.0626,-10e-4 2.34171,-0.13469 0.0937,-0.002 0.21823,-0.035 0.78053,-0.0448 0.0626,-10e-4 1.3737,-0.0866 0.0312,-5.4e-4 0.28115,-0.005 0.062,-0.0323 1.43664,-0.0563 0.15627,-0.003 0.46808,-0.0395 0.0313,-5.5e-4 0.74934,-0.0444 0.15573,-0.0339 0.6561,-0.0114 0.59262,-0.0729 0.18737,-0.003 0.0938,-0.002 0.34374,-0.006 0.81119,-0.0767 1.21807,-0.0525 0.0938,-0.002 0.31181,-0.0367 2.02937,-0.12914 0.0937,-0.002 2.40375,-0.16698 0.0313,-5.4e-4 0.28116,-0.005 0.12443,-0.0335 0.18747,-0.003 0.0937,-0.002 1.59246,-0.0903 0.15564,-0.0339 2.02935,-0.12924 0.0313,-5.5e-4 0.15563,-0.0339 0.0938,-0.002 0.28116,-0.005 0.0625,-10e-4 0.18747,-0.003 0.12444,-0.0335 0.12498,-0.002 0.87432,-0.0466 0.74879,-0.0755 0.31246,-0.005 0.37439,-0.0378 -10e-4,-0.0625 -0.0652,-0.15509 -0.0317,-0.0308 -0.0637,-0.0614 -0.0942,-0.0296 -0.21976,-0.0588 -0.15791,-0.091 -0.25432,-0.2456 -0.0313,5.5e-4 -0.0317,-0.0308 -0.15672,-0.0285 -0.15628,0.003 -0.40351,0.16326 -0.0937,0.002 -0.0937,0.002 -0.0943,-0.0296 -0.0943,-0.0295 -0.0312,5.4e-4 -0.0317,-0.0308 -0.0949,-0.0608 -0.0954,-0.0922 -0.0317,-0.0306 -0.0312,5.4e-4 -5.5e-4,-0.0312 -0.0324,-0.062 -0.0313,5.5e-4 -10e-4,-0.0624 -0.0317,-0.0308 -0.0323,-0.062 -5.4e-4,-0.0312 -0.034,-0.15573 -0.0335,-0.12444 -5.5e-4,-0.0313 -5.4e-4,-0.0312 -0.001,-0.0625 0.062,-0.0324 0.0306,-0.0317 0.0312,-5.4e-4 0.0308,-0.0317 0.0313,-5.5e-4 0.15563,-0.034 0.0619,-0.0324 0.0921,-0.0953 0.0297,-0.0942 0.0286,-0.15682 -0.0653,-0.15519 -0.064,-0.0926 -5.4e-4,-0.0313 0.0607,-0.0948 -0.002,-0.0937 -5.5e-4,-0.0313 -0.0964,-0.15464 0.0614,-0.0635 0.0296,-0.0943 0.0297,-0.0943 -5.4e-4,-0.0312 -5.4e-4,-0.0312 -5.5e-4,-0.0313 -5.5e-4,-0.0313 -5.4e-4,-0.0312 -0.0324,-0.0619 -5.4e-4,-0.0313 -0.0323,-0.0619 -0.0641,-0.0927 -0.0313,5.4e-4 -0.0629,-0.0301 -0.0631,-0.0302 -0.0312,5.5e-4 -0.063,-0.0302 -0.18748,0.003 -0.0312,5.4e-4 -0.12607,-0.0602 -0.0949,-0.0609 -0.0328,-0.0931 -0.0324,-0.062 -0.0318,-0.0306 -5.4e-4,-0.0313 -10e-4,-0.0625 -0.0345,-0.18693 -0.0328,-0.0931 -0.0329,-0.0932 -0.0948,-0.0609 -5.5e-4,-0.0313 -0.0631,-0.0301 -0.25105,-0.0581 -0.12608,-0.0603 -0.22193,-0.18365 -0.0318,-0.0308 -0.12716,-0.1228 -5.4e-4,-0.0312 -0.0635,-0.0614 -0.0329,-0.0931 -5.5e-4,-0.0313 -0.0313,5.4e-4 -0.0323,-0.0619 -0.002,-0.0938 -0.001,-0.0624 -0.002,-0.0938 0.09,-0.2204 0.0602,-0.12607 0.0313,-5.5e-4 -5.5e-4,-0.0312 0.0302,-0.063 -5.5e-4,-0.0313 -5.4e-4,-0.0312 0.0301,-0.063 -5.5e-4,-0.0313 -0.003,-0.18737 -0.0323,-0.062 -0.0653,-0.15508 -0.097,-0.18584 -0.12662,-0.0915 -0.063,-0.0302 -0.0943,-0.0297 -0.21867,0.004 -0.3431,0.0373 -0.12498,0.002 -0.56688,-0.24014 -0.12607,-0.0603 -0.0317,-0.0306 -0.0323,-0.062 -0.0324,-0.0618 -0.002,-0.0938 0.0882,-0.31409 -0.002,-0.0937 -5.5e-4,-0.0313 -0.0323,-0.0619 -0.0328,-0.0932 -0.12662,-0.0915 -0.0637,-0.0614 -0.0312,5.5e-4 -0.063,-0.0301 -0.0313,5.5e-4 -0.0312,5.4e-4 -0.28115,0.005 -0.12608,-0.0604 -0.0631,-0.0301 -0.15891,-0.15345 -0.0317,-0.0308 -0.12607,-0.0603 -0.0626,10e-4 -0.0317,-0.0307 -0.0312,5.5e-4 -0.0626,10e-4 -0.0312,5.4e-4 -0.0625,10e-4 5.4e-4,0.0312 -0.12443,0.0334 -0.27853,0.16118 -0.12444,0.0335 -0.0618,0.0323 -0.12553,-0.029 -0.0631,-0.0302 -0.064,-0.0926 -0.0318,-0.0308 -0.002,-0.0937 0.0297,-0.0943 0.0607,-0.0949 0.12335,-0.0959 0.27908,-0.12989 0.0931,-0.0329 0.0916,-0.12662 0.0296,-0.0942 -0.002,-0.0937 -0.002,-0.0938 -0.0323,-0.062 -0.0323,-0.0619 -0.0329,-0.0932 -0.0313,5.5e-4 -5.5e-4,-0.0312 -0.0635,-0.0614 -0.0318,-0.0308 -0.12716,-0.1228 -0.0324,-0.0618 -0.0635,-0.0615 -0.0329,-0.0931 -0.003,-0.15628 -0.002,-0.0937 -0.0663,-0.21757 -0.12934,-0.24778 -0.0328,-0.0932 -0.19193,-0.24669 -0.0662,-0.21768 -0.001,-0.0624 0.0301,-0.0631 -5.4e-4,-0.0312 0.0296,-0.0943 0.18593,-0.097 0.0618,-0.0324 0.0922,-0.0953 0.0301,-0.063 -5.4e-4,-0.0312 -0.0937,0.002 -0.0636,-0.0615 -0.0641,-0.0926 -0.0324,-0.0619 0.0297,-0.0943 0.0899,-0.22031 -10e-4,-0.0625 -10e-4,-0.0625 -0.0624,10e-4 -0.0631,-0.0302 -0.0618,0.0324 -0.0626,10e-4 -0.0312,5.4e-4 -0.31082,0.0991 -0.12662,-0.0915 -0.15791,-0.091 -0.0312,5.4e-4 -0.0317,-0.0307 -0.12716,-0.1228 -0.0318,-0.0307 -0.034,-0.15563 -0.0323,-0.0619 -10e-4,-0.0625 -5.4e-4,-0.0312 0.15508,-0.0653 0.062,-0.0323 0.0613,-0.0636 0.0291,-0.12553 -10e-4,-0.0625 -0.002,-0.0938 -0.0324,-0.0618 -0.0948,-0.061 -0.063,-0.0301 -0.0312,5.5e-4 -0.21986,-0.0587 0.0932,-0.0329 0.0926,-0.064 0.49665,-0.1963 0.15464,-0.0964 0.0904,-0.18911 0.0297,-0.0943 0.0257,-0.3129 -0.0328,-0.0932 -0.0653,-0.15509 -0.12608,-0.0604 -0.0969,-0.18574 -0.15901,-0.15355 -0.12498,0.002 -0.18628,0.0658 -0.15409,0.12771 0.003,0.15618 -0.0286,0.15682 0.004,0.24996 0.0642,0.0926 -0.0291,0.12552 -0.24614,0.22313 -0.0324,-0.0619 -0.0953,-0.092 -0.18802,-0.028 -0.0619,0.0324 -0.1239,0.0646 -0.12388,0.0648 -0.0937,0.002 5.5e-4,0.0312 -25.16633,1.43943 -0.17931,-4.90382 -9.71176,0.48197 -0.48272,-9.74307 -9.77535,0.42067 -0.15486,-3.49783 c 0.71385,-1.04592 1.45794,-1.98715 2.23405,-2.72681 0.7761,-0.73976 1.56756,-1.28785 2.44214,-1.54285 l -0.10166,-2.24857 -2.21737,0.10111 -0.18879,-3.65346 -2.65361,0.17134 -0.74579,-15.8644 21.14098,-1.05663 -0.24835,-5.27776 9.8061,-0.45241 -0.0948,-0.0609 -0.0954,-0.092 -0.12771,-0.15409 -0.0652,-0.15519 -0.004,-0.24996 -0.002,-0.0937 -0.0335,-0.12443 -0.001,-0.0625 -0.064,-0.0927 -0.0648,-0.12389 -0.19064,-0.1841 -0.28399,-0.15136 -0.12607,-0.0603 -0.12662,-0.0916 -0.0959,-0.12334 -0.0318,-0.0307 -0.0329,-0.0932 -0.0651,-0.15509 -10e-4,-0.0625 -0.002,-0.12498 -0.001,-0.0625 0.0296,-0.0943 0.0306,-0.0317 0.0297,-0.0943 0.0587,-0.21976 -5.5e-4,-0.0313 -10e-4,-0.0624 -5.5e-4,-0.0313 -5.4e-4,-0.0313 -0.0323,-0.0618 -0.0324,-0.062 -0.0658,-0.18628 -0.0345,-0.18702 0.0274,-0.21921 0.0296,-0.0942 0.24396,-0.34812 0.21386,-0.28497 0.0603,-0.12607 0.0576,-0.28235 -0.002,-0.12498 -0.0367,-0.31191 -0.0992,-0.31081 -5.4e-4,-0.0313 -0.15945,-0.18465 -0.0637,-0.0615 -0.28279,-0.0888 -0.0938,0.002 -0.18792,-0.028 -0.0313,5.5e-4 -0.0625,10e-4 -0.0312,5.4e-4 -0.24996,0.004 -0.0626,10e-4 -0.34147,0.13098 -0.12334,0.096 -0.18584,0.0971 -0.0625,10e-4 -0.21866,0.004 -0.25106,-0.0582 -0.0949,-0.0607 -0.0317,-0.0308 -0.0318,-0.0308 -0.15954,-0.18464 -0.0328,-0.0933 -0.0641,-0.0927 -0.0335,-0.12443 -0.0959,-0.12335 -0.0953,-0.0921 -0.0637,-0.0614 -0.12607,-0.0603 -0.0629,-0.0302 -0.15682,-0.0285 -0.0313,5.4e-4 -0.15618,0.003 -0.0307,0.0317 -0.12443,0.0335 -0.062,0.0324 -0.0306,0.0317 -0.0306,0.0317 -0.0313,5.5e-4 -0.21484,0.22258 -0.0308,0.0317 -0.0619,0.0324 -0.0619,0.0324 -0.0313,5.4e-4 -0.0624,0.001 5.5e-4,0.0312 -0.0313,5.4e-4 -0.0937,0.002 -0.0313,5.5e-4 -0.0313,5.4e-4 -0.0312,5.5e-4 -0.0317,-0.0307 -0.0313,5.4e-4 -0.0625,10e-4 -0.28497,-0.21386 -0.0642,-0.0927 -0.097,-0.18573 -0.0335,-0.12444 -0.002,-0.0938 -0.004,-0.24996 -0.0328,-0.0932 -0.0323,-0.0618 -5.5e-4,-0.0313 -5.4e-4,-0.0313 -0.0324,-0.0618 -0.0318,-0.0308 -0.0317,-0.0308 -5.4e-4,-0.0312 -0.0954,-0.0921 -0.0317,-0.0307 -0.0317,-0.0306 -0.0318,-0.0308 -0.12607,-0.0603 -0.0636,-0.0614 -0.0312,5.4e-4 -0.0318,-0.0308 -0.34528,-0.0877 -5.5e-4,-0.0313 -0.0943,-0.0296 -5.4e-4,-0.0312 -0.0317,-0.0307 -0.0637,-0.0614 -0.28716,-0.33884 -0.19184,-0.24669 -0.0647,-0.12389 -0.0328,-0.0931 -5.4e-4,-0.0313 -0.0346,-0.18682 -0.001,-0.0626 0.0291,-0.12553 0.0608,-0.0948 0.15082,-0.31519 0.0308,-0.0317 0.0301,-0.0631 0.0301,-0.0629 0.0308,-0.0318 0.0313,-5.4e-4 0.0306,-0.0318 0.0301,-0.0629 -0.002,-0.0938 -5.4e-4,-0.0312 -0.001,-0.0626 -5.4e-4,-0.0312 -0.0948,-0.0609 -0.12661,-0.0915 -0.59634,-0.14591 -0.0631,-0.0302 -0.0312,5.4e-4 -0.0625,10e-4 -0.0625,10e-4 -0.0625,0.001 -0.062,0.0324 -0.0312,5.4e-4 -0.0626,10e-4 -0.0312,5.4e-4 -0.0312,5.5e-4 -0.0302,0.063 -0.24887,0.0669 -0.24996,0.004 -0.0313,5.5e-4 -0.0312,5.4e-4 -0.0317,-0.0308 -0.0313,5.5e-4 -0.25051,-0.0268 -0.12607,-0.0603 -0.0324,-0.062 -0.0323,-0.0619 0.0252,-0.3442 -0.004,-0.21876 -0.0657,-0.18639 -0.096,-0.12334 -0.15727,-0.0598 -0.12552,-0.029 -0.12553,-0.0291 -0.0626,10e-4 -0.31399,-0.0882 -0.12607,-0.0604 -0.2215,-0.15236 -0.28279,-0.0889 -0.28126,0.005 -0.25269,-0.15181 -0.0313,5.4e-4 -0.0317,-0.0306 -0.063,-0.0302 -0.0318,-0.0308 -0.0312,5.4e-4 -0.24833,0.0982 -0.0932,0.0328 -0.12334,0.096 -0.12335,0.096 -0.0926,0.064 -0.15519,0.0653 -0.12498,0.002 -0.12498,0.002 -0.0629,-0.0302 -5.4e-4,-0.0313 -0.0324,-0.0619 -0.001,-0.0626 0.0576,-0.28225 -0.001,-0.0625 -10e-4,-0.0625 -0.16272,-0.37221 -0.15791,-0.0911 -0.0636,-0.0613 -0.0312,5.4e-4 -0.0313,5.5e-4 -0.21812,0.035 -0.21932,-0.0274 -0.28115,0.005 -0.12553,-0.0291 -0.0626,10e-4 -0.0942,-0.0297 -0.0636,-0.0613 -0.40778,-0.0867 -0.28235,-0.0576 -0.0313,5.5e-4 -0.0937,0.002 -0.15573,0.034 -0.12389,0.0646 -0.21866,0.004 -0.12499,0.002 -0.18692,0.0346 -0.40723,-0.0554 -0.0313,5.5e-4 -0.0318,-0.0307 -0.0318,-0.0308 -5.4e-4,-0.0313 -0.0328,-0.0931 -10e-4,-0.0625 -0.0318,-0.0306 -5.5e-4,-0.0313 -0.0313,5.5e-4 -0.0328,-0.0931 -0.063,-0.0302 -5.5e-4,-0.0313 -0.0318,-0.0306 -0.12771,-0.154 -0.2203,-0.09 -0.0636,-0.0614 -0.063,-0.0302 -0.0937,0.002 -0.15628,0.003 -0.18801,-0.0279 -0.0312,5.4e-4 -0.21931,-0.0274 -0.0943,-0.0297 -0.12608,-0.0603 -0.0317,-0.0306 -0.0323,-0.062 -0.0346,-0.18682 -5.4e-4,-0.0313 -0.001,-0.0625 -0.0959,-0.12334 -0.001,-0.0625 -0.007,-0.37495 -10e-4,-0.0625 -0.0318,-0.0306 -0.12607,-0.0604 -0.12607,-0.0602 -0.063,-0.0302 -0.0943,-0.0297 -0.21976,-0.0586 -0.0313,5.5e-4 -0.0312,5.4e-4 -0.0927,0.064 -0.21812,0.0351 -0.18748,0.003 -0.0317,-0.0308 -0.0626,10e-4 -0.18791,-0.0279 -0.22313,-0.24614 -0.0317,-0.0306 -0.0313,5.4e-4 -0.063,-0.0302 -5.4e-4,-0.0313 -0.062,0.0324 -0.0307,0.0318 -0.15455,0.0964 -0.0312,5.5e-4 -0.0932,0.0329 -0.0307,0.0317 -0.062,0.0323 -0.0306,0.0318 -0.12389,0.0647 -0.0932,0.0328 -0.37439,0.0378 -0.0624,0.001 -0.0949,-0.0609 -0.0317,-0.0307 -0.15846,-0.12225 -0.0324,-0.062 -0.3431,0.0373 -0.0937,0.002 -0.12607,-0.0603 -5.5e-4,-0.0312 -0.0626,10e-4 -0.0312,5.5e-4 -0.0312,5.4e-4 -0.062,0.0323 -0.0931,0.0328 -0.091,0.15791 -0.0302,0.063 -0.0302,0.063 -0.12226,0.15845 -0.15399,0.12771 -0.0312,5.5e-4 -0.21822,0.035 -0.0943,-0.0296 -0.0317,-0.0308 -0.0943,-0.0297 -0.15672,-0.0285 -0.31191,0.0367 -0.12553,-0.029 -0.0948,-0.0609 -0.0943,-0.0296 -10e-4,-0.0624 -0.0943,-0.0297 -0.24778,0.12934 -0.21703,0.0975 -0.0313,5.5e-4 -0.0618,0.0324 -0.15573,0.034 -0.12443,0.0334 -0.0313,5.5e-4 -0.31181,0.0367 -0.25105,-0.058 -0.37658,-0.0872 -0.15791,-0.0911 -0.063,-0.0301 -0.0312,5.4e-4 -0.15628,0.003 -0.12443,0.0334 -0.0313,5.4e-4 -0.0306,0.0318 -0.0619,0.0324 -0.0931,0.0328 -0.15519,0.0652 -0.21648,0.12879 -0.0621,0.0324 -0.0931,0.0328 -0.062,0.0323 -0.0625,10e-4 -0.15518,0.0653 -0.37494,0.007 -0.31236,0.005 -0.40787,-0.0867 -0.626,-0.0516 -0.0619,0.0324 -0.21877,0.004 -0.21921,-0.0275 -0.28289,-0.0888 -0.2516,-0.0894 -0.0312,5.5e-4 -0.063,-0.0301 -0.2516,-0.0894 -0.1902,-0.1529 -0.063,-0.0302 -0.0937,0.002 -0.0313,5.4e-4 -0.0308,0.0318 -0.15617,0.003 -0.0312,5.5e-4 -0.062,0.0323 -0.0931,0.0328 -0.0931,0.0329 -0.18648,0.0658 -0.12335,0.096 -0.0618,0.0323 -0.0291,0.12553 10e-4,0.0625 0.0324,0.0619 0.001,0.0625 -0.0604,0.12608 0.004,0.21866 -0.0893,0.2516 -0.0888,0.28289 -0.0302,0.063 -0.0609,0.0949 -0.21277,0.34746 -0.0915,0.12662 -0.12225,0.15846 -0.0931,0.0328 -0.0313,5.4e-4 5.4e-4,0.0312 -0.0307,0.0318 -0.18355,0.22194 -0.0922,0.0954 -0.24669,0.19184 -0.0625,10e-4 -0.18747,0.003 -0.31245,0.005 -0.31027,0.13044 -0.15509,0.0652 -0.0626,10e-4 -0.0629,-0.0301 -0.15519,0.0651 -0.0937,0.002 -0.37548,-0.0247 -0.0324,-0.0619 -0.0313,5.5e-4 -0.0317,-0.0308 -0.0312,5.5e-4 -0.0631,-0.0301 -0.0312,5.4e-4 -0.0312,5.5e-4 -0.0626,10e-4 -0.12607,-0.0603 -0.0635,-0.0614 -0.0335,-0.12444 -0.0329,-0.0932 -0.0953,-0.092 -0.34856,-0.27526 -0.0943,-0.0295 -0.15781,-0.0911 -0.22314,-0.24615 -0.0636,-0.0613 -0.4106,-0.24287 -0.0317,-0.0308 -0.19293,-0.30918 -0.19129,-0.21549 -0.0312,5.4e-4 -0.0932,0.0329 -0.21768,0.0663 -0.0937,0.002 -0.0625,10e-4 -0.37712,-0.11844 -0.34593,-0.11898 -0.12662,-0.0916 -0.189,-0.0904 -0.0949,-0.0609 -0.0323,-0.062 -0.0949,-0.0608 -0.0317,-0.0307 -0.31583,-0.18212 -0.064,-0.0926 -0.0318,-0.0308 -0.0313,5.4e-4 -0.12553,-0.029 -0.18737,0.003 -0.25051,-0.0268 -0.37712,-0.11844 -0.25105,-0.0582 -0.18867,-0.0591 -0.15726,-0.0599 -0.063,-0.0301 -0.0636,-0.0614 -0.0317,-0.0307 -0.0329,-0.0931 -0.0636,-0.0614 -0.0954,-0.0922 -0.0635,-0.0613 -0.0313,5.5e-4 -0.0318,-0.0308 -0.0312,5.4e-4 -0.0949,-0.0608 -0.0629,-0.0301 -0.31473,-0.11952 -0.0629,-0.0302 -0.22095,-0.12116 -0.28334,-0.12008 -0.15791,-0.0909 -0.28398,-0.15137 -0.12498,0.002 -0.0931,0.0329 -0.062,0.0323 -0.0619,0.0323 -0.0307,0.0318 -0.0948,-0.0609 -0.063,-0.0301 -0.0334,-0.12444 -5.5e-4,-0.0313 -0.0943,-0.0296 -0.12771,-0.154 -0.0943,-0.0296 -0.0948,-0.0609 -5.4e-4,-0.0312 -0.2576,-0.43307 -0.25705,-0.40187 -0.12989,-0.27898 -0.0674,-0.28006 -0.93681,0.0476 -0.43743,0.008 -0.0625,10e-4 -1.96786,0.0656 -0.0313,5.5e-4 -0.81237,0.0142 -0.78054,0.0449 -0.40623,0.007 -0.0313,5.5e-4 -0.78108,0.0136 -0.46873,0.008 -0.74934,0.0444 -0.49992,0.009 -0.31236,0.005 -0.0626,10e-4 -0.34364,0.006 -0.46863,0.008 -0.40624,0.007 -0.78064,0.0448 -0.37494,0.007 -0.0937,0.002 -0.78118,0.0136 -0.40559,0.0383 -0.0312,5.4e-4 -0.34374,0.006 -0.78108,0.0136 -0.0626,0.001 -0.24997,0.004 -0.21866,0.004 -0.34365,0.006 -0.34375,0.006 -0.81237,0.0142 -0.4057,0.0384 -0.18737,0.003 -0.49992,0.009 -0.18757,0.003 -1.06224,0.0185 -0.43753,0.008 -0.0312,5.5e-4 -0.0625,10e-4 -0.43743,0.008 -0.43744,0.008 -1.15557,0.0515 -0.0624,10e-4 -0.31255,0.005 -0.0937,0.002 -0.81238,0.0142 -0.0312,5.5e-4 -0.6875,0.012 -1.71789,0.0612 -0.37495,0.007 -0.59361,0.0104 -0.0626,10e-4 -0.34364,0.006 -0.18748,0.003 -0.31245,0.005 -0.53122,0.009 -0.0624,10e-4 -0.34375,0.006 -0.24996,0.004 -0.0625,0.001 -0.12498,0.002 -0.24996,0.004 -0.59361,0.0104 -0.21877,0.004 -0.18747,0.003 -0.15627,0.003 -0.24997,0.004 -0.59361,0.0104 -0.18747,0.003 -0.46873,0.008 -0.0312,5.5e-4 -0.18747,0.003 -0.0625,10e-4 -0.84367,0.0147 -0.0624,10e-4 -0.40623,0.007 -0.15628,0.003 -1.75028,-6.5e-4 -0.15617,0.003 -1.46858,0.0256 -1.65595,0.0289 -0.12498,0.002 -1.34359,0.0234 -0.12499,0.002 -1.5627,-0.004 -0.87487,0.0153 -1.21861,0.0213 -0.0312,5.5e-4 -0.18757,0.003 -0.21867,0.004 -1.49977,0.0262 -0.0313,5.4e-4 -0.0937,0.002 -0.81238,0.0142 -1.12483,0.0196 -0.46872,0.008 -1.21906,-0.01 -1.21852,0.0213 -0.43753,0.008 -0.37495,0.007 -1.06223,0.0185 -0.12498,0.002 -0.74989,0.0131 -0.12498,0.002 -0.75043,-0.0181 -2.03154,0.004 -1.78157,-2e-4 -0.0312,5.4e-4 -0.0312,5.5e-4 -4.2499,0.0429 -1.34414,-0.008 -0.62491,0.0109 -0.12498,0.002 -0.84367,0.0147 -0.12498,0.002 -0.84411,-0.0165 -1.84397,8.8e-4 -2.81435,-0.0759 -1.09408,-0.0122 -0.12498,0.002 -2.21946,-0.0237 -0.53121,0.009 -0.71914,-0.0187 -0.0938,0.002 -5.62688,-0.0581 -0.0938,0.002 -0.96856,0.0169 -0.59415,-0.0208 -0.0313,5.5e-4 -0.0937,0.002 -0.9692,-0.0143 -1.37588,-0.0386 -0.40614,0.007 -0.0313,5.5e-4 -1.59401,-0.003 -0.87595,-0.0472 -2.00079,-0.0276 -0.40624,0.007 -0.53176,-0.0219 -3.37667,-0.0661 -2.71992,-0.0463 -3.97082,-0.0869 -0.34375,0.006 -0.12498,0.002 -1.18841,-0.0419 -2.06383,-0.0577 -0.0312,5.5e-4 -0.37494,0.007 -1.06299,-0.0127 -0.0312,5.5e-4 -0.84476,-0.0477 -0.71914,-0.0188 -1.2822,-0.0401 -2.03252,-0.0583 -0.0312,5.4e-4 -0.938,-0.0148 -1.31329,-0.0396 -0.87596,-0.0472 -0.49992,0.009 -1.28165,-0.009 z"
       id="NE-03"
       style="font-style:normal;font-weight:400;font-size:34.375px;font-family:'MS Shell Dlg 2';opacity:1;fill:none;fill-opacity:1;fill-rule:evenodd;stroke:#000000;stroke-width:0.333;stroke-linecap:square;stroke-linejoin:bevel;stroke-miterlimit:4;stroke-dasharray:none;stroke-opacity:1" />
  </g>
</svg>
